0
SECTION
2
HEADER
9
$INSUNITS
70
4
9
$ACADVER
1
AC1014
9
$HANDSEED
5
FFFF
0
ENDSEC
0
SECTION
2
TABLES
0
TABLE
2
VPORT
5
8
100
AcDbSymbolTable
0
ENDTAB
0
TABLE
2
LTYPE
5
5
100
AcDbSymbolTable
0
LTYPE
5
14
100
AcDbSymbolTableRecord
100
AcDbLinetypeTableRecord
2
BYBLOCK
70
0
0
LTYPE
5
15
100
AcDbSymbolTableRecord
100
AcDbLinetypeTableRecord
2
BYLAYER
70
0
0
ENDTAB
0
TABLE
2
LAYER
5
2
100
AcDbSymbolTable
70
2
0
LAYER
5
50
100
AcDbSymbolTableRecord
100
AcDbLayerTableRecord
2
0
70
0
6
CONTINUOUS
0
ENDTAB
0
TABLE
2
STYLE
5
3
100
AcDbSymbolTable
70
1
0
STYLE
5
11
100
AcDbSymbolTableRecord
100
AcDbTextStyleTableRecord
2
STANDARD
70
0
0
ENDTAB
0
TABLE
2
VIEW
5
6
100
AcDbSymbolTable
70
0
0
ENDTAB
0
TABLE
2
UCS
5
7
100
AcDbSymbolTable
70
0
0
ENDTAB
0
TABLE
2
APPID
5
9
100
AcDbSymbolTable
70
2
0
APPID
5
12
100
AcDbSymbolTableRecord
100
AcDbRegAppTableRecord
2
ACAD
70
0
0
ENDTAB
0
TABLE
2
DIMSTYLE
5
A
100
AcDbSymbolTable
70
1
0
ENDTAB
0
TABLE
2
BLOCK_RECORD
5
1
100
AcDbSymbolTable
70
1
0
BLOCK_RECORD
5
1F
100
AcDbSymbolTableRecord
100
AcDbBlockTableRecord
2
*MODEL_SPACE
0
BLOCK_RECORD
5
1B
100
AcDbSymbolTableRecord
100
AcDbBlockTableRecord
2
*PAPER_SPACE
0
ENDTAB
0
ENDSEC
0
SECTION
2
BLOCKS
0
BLOCK
5
20
100
AcDbEntity
100
AcDbBlockBegin
2
*MODEL_SPACE
0
ENDBLK
5
21
100
AcDbEntity
100
AcDbBlockEnd
0
BLOCK
5
1C
100
AcDbEntity
100
AcDbBlockBegin
2
*PAPER_SPACE
0
ENDBLK
5
1D
100
AcDbEntity
100
AcDbBlockEnd
0
ENDSEC
0
SECTION
2
ENTITIES
0
LWPOLYLINE
5
100
100
AcDbEntity
8
0
100
AcDbPolyline
90
4
70
1
43
0.0
10
-115.88783100000001
20
59.566203000000009
10
-111.099549
20
72.721898999999993
10
-97.943853000000018
20
67.933616999999998
10
-102.732135
20
54.777921000000006
0
LWPOLYLINE
5
101
100
AcDbEntity
8
0
100
AcDbPolyline
90
4
70
1
43
0.0
10
-46.955206000000004
20
40.928341000000003
10
-51.743488000000006
20
27.772645000000004
10
-64.899184000000005
20
32.560927
10
-60.11090200000001
20
45.716622999999998
0
LWPOLYLINE
5
102
100
AcDbEntity
8
0
100
AcDbPolyline
90
4
70
1
43
0.0
10
-190.410259
20
176.66321199999999
10
-186.78679200000002
20
163.14025100000003
10
-200.309753
20
159.516784
10
-203.93322000000001
20
173.03974500000004
0
LWPOLYLINE
5
103
100
AcDbEntity
8
0
100
AcDbPolyline
90
4
70
1
43
0.0
10
-181.00001500000002
20
177.909987
10
-167.00001499999999
20
177.909987
10
-167.00001499999999
20
163.909987
10
-181.00001500000002
20
163.909987
0
LWPOLYLINE
5
104
100
AcDbEntity
8
0
100
AcDbPolyline
90
4
70
1
43
0.0
10
-216.86280400000001
20
164.86182299999999
10
-206.138182
20
155.862797
10
-215.13720800000002
20
145.13817499999999
10
-225.86183000000003
20
154.137201
0
LWPOLYLINE
5
105
100
AcDbEntity
8
0
100
AcDbPolyline
90
4
70
1
43
0.0
10
-230.41442500000002
20
149.90706
10
-222.38435500000003
20
138.43893199999999
10
-233.85248300000001
20
130.408862
10
-241.88255300000003
20
141.87699000000003
0
LWPOLYLINE
5
106
100
AcDbEntity
8
0
100
AcDbPolyline
90
4
70
1
43
0.0
10
-247.49908300000001
20
138.97366600000001
10
-242.71080100000003
20
125.81797000000002
10
-255.86649700000004
20
121.02968799999999
10
-260.65477900000008
20
134.185384
0
LWPOLYLINE
5
107
100
AcDbEntity
8
0
100
AcDbPolyline
90
4
70
1
43
0.0
10
-295.23547600000001
20
121.599065
10
-290.44719400000008
20
108.44336900000002
10
-303.60289
20
103.65508699999999
10
-308.39117199999998
20
116.81078300000001
0
LWPOLYLINE
5
108
100
AcDbEntity
8
0
100
AcDbPolyline
90
4
70
1
43
0.0
10
-313.951032
20
117.32121100000001
10
-309.16275000000002
20
104.165515
10
-322.31844599999999
20
99.377233000000018
10
-327.10672799999998
20
112.532929
0
LWPOLYLINE
5
109
100
AcDbEntity
8
0
100
AcDbPolyline
90
4
70
1
43
0.0
10
-275.70544799999999
20
123.639259
10
-270.91716600000001
20
110.48356300000002
10
-284.07286199999999
20
105.69528099999999
10
-288.86114400000002
20
118.85097700000001
0
LWPOLYLINE
5
110
100
AcDbEntity
8
0
100
AcDbPolyline
90
4
70
1
43
0.0
10
-249.93143000000003
20
108.52417000000001
10
-245.143148
20
95.368474000000006
10
-258.29884399999997
20
90.580192000000011
10
-263.08712600000001
20
103.735888
0
LWPOLYLINE
5
111
100
AcDbEntity
8
0
100
AcDbPolyline
90
4
70
1
43
0.0
10
-216.57244399999999
20
128.26808
10
-211.78416200000001
20
115.11238400000002
10
-224.93985800000002
20
110.32410200000001
10
-229.72814
20
123.47979800000002
0
LWPOLYLINE
5
112
100
AcDbEntity
8
0
100
AcDbPolyline
90
4
70
1
43
0.0
10
-233.38768400000004
20
118.769086
10
-228.599402
20
105.61339000000001
10
-241.755098
20
100.82510800000001
10
-246.54338000000001
20
113.98080400000001
0
LWPOLYLINE
5
113
100
AcDbEntity
8
0
100
AcDbPolyline
90
4
70
1
43
0.0
10
-210.05695900000003
20
110.366936
10
-205.268677
20
97.211240000000018
10
-218.424373
20
92.422957999999994
10
-223.21265500000004
20
105.578654
0
LWPOLYLINE
5
114
100
AcDbEntity
8
0
100
AcDbPolyline
90
4
70
1
43
0.0
10
-157.58974799999999
20
176.66319999999999
10
-144.06678700000001
20
173.03973300000001
10
-147.69025400000001
20
159.516772
10
-161.21321499999999
20
163.14023900000001
0
LWPOLYLINE
5
115
100
AcDbEntity
8
0
100
AcDbPolyline
90
4
70
1
43
0.0
10
-131.13720699999999
20
164.86182700000001
10
-122.138181
20
154.13720499999999
10
-132.86280300000001
20
145.13817900000001
10
-141.861829
20
155.86280099999999
0
LWPOLYLINE
5
116
100
AcDbEntity
8
0
100
AcDbPolyline
90
4
70
1
43
0.0
10
-131.42755
20
128.268092
10
-118.27185400000002
20
123.47981000000001
10
-123.060136
20
110.32411400000001
10
-136.21583200000001
20
115.11239600000002
0
LWPOLYLINE
5
117
100
AcDbEntity
8
0
100
AcDbPolyline
90
4
70
1
43
0.0
10
-114.612348
20
118.76906300000002
10
-101.45665200000002
20
113.98078099999999
10
-106.244934
20
100.82508500000002
10
-119.40063000000002
20
105.613367
0
LWPOLYLINE
5
118
100
AcDbEntity
8
0
100
AcDbPolyline
90
4
70
1
43
0.0
10
-137.94303500000001
20
110.36694199999999
10
-124.78733900000002
20
105.57866000000001
10
-129.57562100000001
20
92.422963999999993
10
-142.73131699999999
20
97.211246000000017
0
LWPOLYLINE
5
119
100
AcDbEntity
8
0
100
AcDbPolyline
90
4
70
1
43
0.0
10
-72.294559000000021
20
123.639247
10
-59.138863000000008
20
118.85096500000002
10
-63.927145000000003
20
105.695269
10
-77.082841000000002
20
110.48355100000002
0
LWPOLYLINE
5
120
100
AcDbEntity
8
0
100
AcDbPolyline
90
4
70
1
43
0.0
10
-98.068579999999997
20
108.524174
10
-84.912884000000005
20
103.73589200000001
10
-89.701166000000001
20
90.580196000000001
10
-102.85686200000001
20
95.36847800000001
0
LWPOLYLINE
5
121
100
AcDbEntity
8
0
100
AcDbPolyline
90
4
70
1
43
0.0
10
-52.764541000000008
20
121.59904600000002
10
-39.608845000000002
20
116.81076400000002
10
-44.397127000000005
20
103.655068
10
-57.552823000000004
20
108.44335000000001
0
LWPOLYLINE
5
122
100
AcDbEntity
8
0
100
AcDbPolyline
90
4
70
1
43
0.0
10
-34.048968000000002
20
117.32121800000002
10
-20.893272
20
112.53293600000001
10
-25.681554000000002
20
99.377240000000015
10
-38.837249999999997
20
104.165522
0
LWPOLYLINE
5
123
100
AcDbEntity
8
0
100
AcDbPolyline
90
4
70
1
43
0.0
10
-307.43554899999998
20
99.420070999999993
10
-302.647267
20
86.264375000000001
10
-315.80296299999998
20
81.476093000000006
10
-320.59124500000001
20
94.631789000000012
0
LWPOLYLINE
5
124
100
AcDbEntity
8
0
100
AcDbPolyline
90
4
70
1
43
0.0
10
-288.71998400000001
20
103.69791300000001
10
-283.93170199999997
20
90.542216999999994
10
-297.08739800000001
20
85.753935000000013
10
-301.87567999999999
20
98.909631000000005
0
LWPOLYLINE
5
125
100
AcDbEntity
8
0
100
AcDbPolyline
90
4
70
1
43
0.0
10
-269.18996900000002
20
105.73811800000001
10
-264.40168700000004
20
92.582421999999994
10
-277.55738300000007
20
87.794140000000013
10
-282.345665
20
100.949836
0
LWPOLYLINE
5
126
100
AcDbEntity
8
0
100
AcDbPolyline
90
4
70
1
43
0.0
10
-262.67448999999999
20
87.836967999999999
10
-257.88620800000001
20
74.681272000000007
10
-271.04190399999999
20
69.892989999999998
10
-275.83018600000003
20
83.048686000000004
0
LWPOLYLINE
5
127
100
AcDbEntity
8
0
100
AcDbPolyline
90
4
70
1
43
0.0
10
-300.92007000000001
20
81.518910000000005
10
-296.13178800000003
20
68.363213999999999
10
-309.28748400000006
20
63.574932000000004
10
-314.07576599999999
20
76.730627999999996
0
LWPOLYLINE
5
128
100
AcDbEntity
8
0
100
AcDbPolyline
90
4
70
1
43
0.0
10
-282.2045
20
85.796760000000006
10
-277.41621800000007
20
72.641064
10
-290.57191399999999
20
67.852782000000005
10
-295.36019599999997
20
81.008477999999997
0
LWPOLYLINE
5
129
100
AcDbEntity
8
0
100
AcDbPolyline
90
4
70
1
43
0.0
10
-275.68902300000002
20
67.895615000000021
10
-270.90074099999998
20
54.739919000000008
10
-284.05643700000002
20
49.951636999999998
10
-288.844719
20
63.107332999999997
0
LWPOLYLINE
5
130
100
AcDbEntity
8
0
100
AcDbPolyline
90
4
70
1
43
0.0
10
-256.15900799999997
20
69.935817999999998
10
-251.37072599999999
20
56.780122000000006
10
-264.52642200000003
20
51.99184000000001
10
-269.31470400000001
20
65.147536000000002
0
LWPOLYLINE
5
131
100
AcDbEntity
8
0
100
AcDbPolyline
90
4
70
1
43
0.0
10
-226.872209
20
100.86793299999999
10
-222.08392700000002
20
87.712237000000002
10
-235.23962299999999
20
82.923955000000007
10
-240.02790500000003
20
96.079651000000013
0
LWPOLYLINE
5
132
100
AcDbEntity
8
0
100
AcDbPolyline
90
4
70
1
43
0.0
10
-243.41593700000004
20
90.623033000000021
10
-238.627655
20
77.467337000000001
10
-251.78335100000001
20
72.679055000000005
10
-256.57163300000002
20
85.834750999999997
0
LWPOLYLINE
5
133
100
AcDbEntity
8
0
100
AcDbPolyline
90
4
70
1
43
0.0
10
-203.54148500000002
20
92.465802999999994
10
-198.75320300000001
20
79.310107000000002
10
-211.90889900000002
20
74.521825000000007
10
-216.697181
20
87.677521000000013
0
LWPOLYLINE
5
134
100
AcDbEntity
8
0
100
AcDbPolyline
90
4
70
1
43
0.0
10
-220.356719
20
82.966797
10
-215.56843700000002
20
69.811100999999994
10
-228.72413300000002
20
65.022818999999998
10
-233.512415
20
78.178515000000004
0
LWPOLYLINE
5
135
100
AcDbEntity
8
0
100
AcDbPolyline
90
4
70
1
43
0.0
10
-236.90045400000002
20
72.721895000000004
10
-232.11217199999999
20
59.566198999999997
10
-245.26786799999999
20
54.777917000000009
10
-250.05615000000003
20
67.933612999999994
0
LWPOLYLINE
5
136
100
AcDbEntity
8
0
100
AcDbPolyline
90
4
70
1
43
0.0
10
-197.02601300000001
20
74.564655000000002
10
-192.23773100000003
20
61.408959000000003
10
-205.39342700000003
20
56.620677000000008
10
-210.18170900000001
20
69.776373000000007
0
LWPOLYLINE
5
137
100
AcDbEntity
8
0
100
AcDbPolyline
90
4
70
1
43
0.0
10
-294.404585
20
63.617771000000005
10
-289.61630300000002
20
50.462075000000006
10
-302.77199899999999
20
45.673793000000003
10
-307.56028099999997
20
58.829489000000009
0
LWPOLYLINE
5
138
100
AcDbEntity
8
0
100
AcDbPolyline
90
4
70
1
43
0.0
10
-269.17353600000001
20
49.994481000000007
10
-264.38525399999997
20
36.838785000000001
10
-277.54095000000001
20
32.050502999999999
10
-282.32923200000005
20
45.206198999999998
0
LWPOLYLINE
5
139
100
AcDbEntity
8
0
100
AcDbPolyline
90
4
70
1
43
0.0
10
-249.64350600000003
20
52.034683000000008
10
-244.85522400000002
20
38.878987000000002
10
-258.01092
20
34.090705
10
-262.79920199999998
20
47.246401000000006
0
LWPOLYLINE
5
140
100
AcDbEntity
8
0
100
AcDbPolyline
90
4
70
1
43
0.0
10
-287.88910499999997
20
45.716638000000003
10
-283.10082299999999
20
32.560941999999997
10
-296.25651900000003
20
27.772660000000002
10
-301.04480100000001
20
40.928356000000001
0
LWPOLYLINE
5
141
100
AcDbEntity
8
0
100
AcDbPolyline
90
4
70
1
43
0.0
10
-213.84123000000002
20
65.065652999999998
10
-209.05294800000001
20
51.909957000000006
10
-222.20864399999999
20
47.121675000000003
10
-226.99692600000003
20
60.277371000000002
0
LWPOLYLINE
5
142
100
AcDbEntity
8
0
100
AcDbPolyline
90
4
70
1
43
0.0
10
-230.38497699999999
20
54.820749000000006
10
-225.59669500000001
20
41.665053
10
-238.75239100000002
20
36.876771000000005
10
-243.540673
20
50.032466999999997
0
LWPOLYLINE
5
143
100
AcDbEntity
8
0
100
AcDbPolyline
90
4
70
1
43
0.0
10
-144.45851900000002
20
92.465796999999995
10
-131.30282299999999
20
87.677515000000014
10
-136.091105
20
74.521818999999994
10
-149.246801
20
79.310101000000003
0
LWPOLYLINE
5
144
100
AcDbEntity
8
0
100
AcDbPolyline
90
4
70
1
43
0.0
10
-121.12782000000001
20
100.86795000000001
10
-107.97212399999999
20
96.079667999999998
10
-112.76040600000002
20
82.92397200000002
10
-125.916102
20
87.712254000000001
0
LWPOLYLINE
5
145
100
AcDbEntity
8
0
100
AcDbPolyline
90
4
70
1
43
0.0
10
-78.810038000000006
20
105.73810600000002
10
-65.654342
20
100.94982400000001
10
-70.442623999999995
20
87.794128000000015
10
-83.598320000000001
20
92.582409999999996
0
LWPOLYLINE
5
146
100
AcDbEntity
8
0
100
AcDbPolyline
90
4
70
1
43
0.0
10
-59.280011000000002
20
103.69790700000001
10
-46.124315000000003
20
98.909625000000005
10
-50.912597000000005
20
85.753928999999999
10
-64.068292999999997
20
90.542210999999995
0
LWPOLYLINE
5
147
100
AcDbEntity
8
0
100
AcDbPolyline
90
4
70
1
43
0.0
10
-40.564467000000008
20
99.420086000000012
10
-27.408771000000005
20
94.631804000000002
10
-32.197052999999997
20
81.476108000000011
10
-45.352749000000003
20
86.26439000000002
0
LWPOLYLINE
5
148
100
AcDbEntity
8
0
100
AcDbPolyline
90
4
70
1
43
0.0
10
-91.841002000000017
20
69.935811999999999
10
-78.685305999999997
20
65.147530000000003
10
-83.473588000000007
20
51.991833999999997
10
-96.629283999999998
20
56.780116000000007
0
LWPOLYLINE
5
149
100
AcDbEntity
8
0
100
AcDbPolyline
90
4
70
1
43
0.0
10
-72.310991000000001
20
67.895612999999997
10
-59.15529500000001
20
63.107331000000002
10
-63.943577000000005
20
49.951635000000003
10
-77.099273000000011
20
54.739916999999998
0
LWPOLYLINE
5
150
100
AcDbEntity
8
0
100
AcDbPolyline
90
4
70
1
43
0.0
10
-134.15879000000001
20
65.065635
10
-121.003094
20
60.277352999999998
10
-125.79137600000001
20
47.121656999999999
10
-138.94707199999999
20
51.909939000000008
0
LWPOLYLINE
5
151
100
AcDbEntity
8
0
100
AcDbPolyline
90
4
70
1
43
0.0
10
-117.61503300000001
20
54.820735999999997
10
-104.459337
20
50.032454000000008
10
-109.247619
20
36.876758000000002
10
-122.40331500000002
20
41.665039999999998
0
LWPOLYLINE
5
152
100
AcDbEntity
8
0
100
AcDbPolyline
90
4
70
1
43
0.0
10
-98.356491000000005
20
52.034681000000006
10
-85.200794999999999
20
47.246398999999997
10
-89.989077000000009
20
34.090702999999998
10
-103.144773
20
38.878985
0
LWPOLYLINE
5
153
100
AcDbEntity
8
0
100
AcDbPolyline
90
4
70
1
43
0.0
10
-78.826476
20
49.994472000000002
10
-65.670779999999993
20
45.206189999999999
10
-70.459062000000017
20
32.050494
10
-83.614757999999995
20
36.83877600000001
0
LWPOLYLINE
5
154
100
AcDbEntity
8
0
100
AcDbPolyline
90
4
70
1
43
0.0
10
-53.595423000000004
20
63.617772000000002
10
-40.439727000000005
20
58.82949
10
-45.228009
20
45.673794000000001
10
-58.383704999999999
20
50.46207600000001
0
LWPOLYLINE
5
155
100
AcDbEntity
8
0
100
AcDbPolyline
90
4
70
1
43
0.0
10
-150.97400700000003
20
74.564653000000021
10
-137.81831099999999
20
69.776370999999997
10
-142.606593
20
56.620674999999999
10
-155.76228900000001
20
61.408957000000008
0
LWPOLYLINE
5
156
100
AcDbEntity
8
0
100
AcDbPolyline
90
4
70
1
43
0.0
10
-114.48760200000001
20
78.178487000000004
10
-119.27588400000002
20
65.022790999999998
10
-132.43158
20
69.811072999999993
10
-127.643298
20
82.966768999999999
0
LWPOLYLINE
5
157
100
AcDbEntity
8
0
100
AcDbPolyline
90
4
70
1
43
0.0
10
-91.428353000000001
20
85.834753000000021
10
-96.216634999999997
20
72.679057
10
-109.372331
20
77.467338999999996
10
-104.58404899999999
20
90.623035000000002
0
LWPOLYLINE
5
158
100
AcDbEntity
8
0
100
AcDbPolyline
90
4
70
1
43
0.0
10
-72.169835000000006
20
83.048670000000001
10
-76.958117000000001
20
69.892973999999995
10
-90.113812999999993
20
74.681256000000005
10
-85.325530999999998
20
87.836951999999997
0
LWPOLYLINE
5
159
100
AcDbEntity
8
0
100
AcDbPolyline
90
4
70
1
43
0.0
10
-52.639822000000009
20
81.008463000000006
10
-57.428103999999998
20
67.852767
10
-70.583799999999997
20
72.641048999999995
10
-65.795518000000015
20
85.796745000000016
0
LWPOLYLINE
5
160
100
AcDbEntity
8
0
100
AcDbPolyline
90
4
70
1
43
0.0
10
-33.924225999999997
20
76.730637999999999
10
-38.712508
20
63.574942000000007
10
-51.868204000000006
20
68.363224000000002
10
-47.079922000000003
20
81.518920000000008
0
LWPOLYLINE
5
161
100
AcDbEntity
8
0
100
AcDbPolyline
90
24
70
1
43
0.0
10
-49.254053774903767
20
23.714869585160621
42
0.27767242991770258
10
-48.05135167078398
20
24.687505708750365
10
-15.610910627032911
20
113.81590447321763
42
0.41421780331172675
10
-16.50743295520892
20
115.73848421736351
10
-82.639242999999937
20
139.80767499999996
42
-0.10515584935897905
10
-130.14216400000004
20
170.29844900000001
42
0.07628518848581009
10
-140.97637900000001
20
176.95691600000001
42
0.18552285448688247
10
-207.02364299999999
20
176.95691800000003
42
0.076280798568963984
10
-217.8578490000001
20
170.29844899999995
42
-0.10515628726408471
10
-265.36076600000001
20
139.80766199999999
10
-331.49269737137683
20
115.7349864013127
42
0.41420434706777981
10
-332.38915494547769
20
113.81243022949764
10
-299.94868433455702
20
24.683949728203398
42
0.27767243536117792
10
-298.74598220216672
20
23.711313598252772
42
0.035129605737352937
10
-210.56823600000001
20
17.697072999999893
10
-198.2499184308619
20
17.697670924057245
42
0.4141993455760048
10
-196.74999123999999
20
19.197670922290193
10
-196.74999123999999
20
53.200620520000008
42
-0.41421356237309503
10
-194.74999123999999
20
55.200620520000001
10
-153.24999123999999
20
55.200620520000015
42
-0.41421356237309503
10
-151.24999123999999
20
53.200620520000008
10
-151.24999123999999
20
19.200025084424233
42
0.41422777931310273
10
-149.7499184308619
20
17.700025086191289
10
-137.43181200000004
20
17.700622999999851
42
0.035129585751815913
0
CIRCLE
5
162
100
AcDbEntity
8
0
100
AcDbCircle
10
-174.00000000000003
20
125
30
0
40
30.999999999999996
210
0
220
0
230
1
0
ENDSEC
0
SECTION
2
OBJECTS
0
DICTIONARY
5
C
100
AcDbDictionary
3
ACAD_GROUP
350
D
3
ACAD_MLINESTYLE
350
17
0
DICTIONARY
5
D
100
AcDbDictionary
0
DICTIONARY
5
1A
330
C
100
AcDbDictionary
0
DICTIONARY
5
17
100
AcDbDictionary
0
ENDSEC
0
EOF
