%TF.GenerationSoftware,KiCad,Pcbnew,7.0.1*%
%TF.CreationDate,2023-04-08T16:00:55+01:00*%
%TF.ProjectId,Honeydew,486f6e65-7964-4657-972e-6b696361645f,V2.0*%
%TF.SameCoordinates,Original*%
%TF.FileFunction,Paste,Bot*%
%TF.FilePolarity,Positive*%
%FSLAX46Y46*%
G04 Gerber Fmt 4.6, Leading zero omitted, Abs format (unit mm)*
G04 Created by KiCad (PCBNEW 7.0.1) date 2023-04-08 16:00:55*
%MOMM*%
%LPD*%
G01*
G04 APERTURE LIST*
G04 Aperture macros list*
%AMRoundRect*
0 Rectangle with rounded corners*
0 $1 Rounding radius*
0 $2 $3 $4 $5 $6 $7 $8 $9 X,Y pos of 4 corners*
0 Add a 4 corners polygon primitive as box body*
4,1,4,$2,$3,$4,$5,$6,$7,$8,$9,$2,$3,0*
0 Add four circle primitives for the rounded corners*
1,1,$1+$1,$2,$3*
1,1,$1+$1,$4,$5*
1,1,$1+$1,$6,$7*
1,1,$1+$1,$8,$9*
0 Add four rect primitives between the rounded corners*
20,1,$1+$1,$2,$3,$4,$5,0*
20,1,$1+$1,$4,$5,$6,$7,0*
20,1,$1+$1,$6,$7,$8,$9,0*
20,1,$1+$1,$8,$9,$2,$3,0*%
%AMRotRect*
0 Rectangle, with rotation*
0 The origin of the aperture is its center*
0 $1 length*
0 $2 width*
0 $3 Rotation angle, in degrees counterclockwise*
0 Add horizontal line*
21,1,$1,$2,0,0,$3*%
%AMFreePoly0*
4,1,51,0.532219,0.614745,0.539696,0.609939,0.548497,0.608674,0.568109,0.591679,0.589937,0.577652,0.593629,0.569566,0.600348,0.563745,0.607658,0.538848,0.618438,0.515244,0.617172,0.506443,0.619677,0.497915,0.619677,-0.497915,0.614745,-0.532219,0.609939,-0.539696,0.608674,-0.548497,0.591679,-0.568109,0.577652,-0.589937,0.569566,-0.593629,0.563745,-0.600348,0.538848,-0.607658,
0.515244,-0.618438,0.506443,-0.617172,0.497915,-0.619677,-0.497915,-0.619677,-0.532219,-0.614745,-0.539696,-0.609939,-0.548497,-0.608674,-0.568109,-0.591679,-0.589937,-0.577652,-0.593629,-0.569566,-0.600348,-0.563745,-0.607658,-0.538848,-0.618438,-0.515244,-0.617172,-0.506443,-0.619677,-0.497915,-0.619677,0.397045,-0.616582,0.418565,-0.616895,0.422927,-0.615620,0.425261,-0.614745,0.431349,
-0.598456,0.456693,-0.584014,0.483144,-0.483144,0.584014,-0.465738,0.597042,-0.462875,0.600348,-0.460322,0.601097,-0.455399,0.604783,-0.425958,0.611187,-0.397045,0.619677,0.497915,0.619677,0.532219,0.614745,0.532219,0.614745,$1*%
%AMFreePoly1*
4,1,51,0.532219,0.614745,0.539696,0.609939,0.548497,0.608674,0.568109,0.591679,0.589937,0.577652,0.593629,0.569566,0.600348,0.563745,0.607658,0.538848,0.618438,0.515244,0.617172,0.506443,0.619677,0.497915,0.619677,-0.497915,0.614745,-0.532219,0.609939,-0.539696,0.608674,-0.548497,0.591679,-0.568109,0.577652,-0.589937,0.569566,-0.593629,0.563745,-0.600348,0.538848,-0.607658,
0.515244,-0.618438,0.506443,-0.617172,0.497915,-0.619677,-0.397045,-0.619677,-0.418564,-0.616583,-0.422927,-0.616895,-0.425261,-0.615620,-0.431349,-0.614745,-0.456693,-0.598456,-0.483144,-0.584014,-0.584014,-0.483144,-0.597044,-0.465737,-0.600348,-0.462875,-0.601097,-0.460323,-0.604783,-0.455400,-0.611187,-0.425956,-0.619677,-0.397045,-0.619677,0.497915,-0.614745,0.532219,-0.609939,0.539696,
-0.608674,0.548497,-0.591679,0.568109,-0.577652,0.589937,-0.569566,0.593629,-0.563745,0.600348,-0.538848,0.607658,-0.515244,0.618438,-0.506443,0.617172,-0.497915,0.619677,0.497915,0.619677,0.532219,0.614745,0.532219,0.614745,$1*%
%AMFreePoly2*
4,1,51,0.418565,0.616582,0.422927,0.616895,0.425261,0.615620,0.431349,0.614745,0.456693,0.598456,0.483144,0.584014,0.584014,0.483144,0.597042,0.465738,0.600348,0.462875,0.601097,0.460322,0.604783,0.455399,0.611187,0.425958,0.619677,0.397045,0.619677,-0.497915,0.614745,-0.532219,0.609939,-0.539696,0.608674,-0.548497,0.591679,-0.568109,0.577652,-0.589937,0.569566,-0.593629,
0.563745,-0.600348,0.538848,-0.607658,0.515244,-0.618438,0.506443,-0.617172,0.497915,-0.619677,-0.497915,-0.619677,-0.532219,-0.614745,-0.539696,-0.609939,-0.548497,-0.608674,-0.568109,-0.591679,-0.589937,-0.577652,-0.593629,-0.569566,-0.600348,-0.563745,-0.607658,-0.538848,-0.618438,-0.515244,-0.617172,-0.506443,-0.619677,-0.497915,-0.619677,0.497915,-0.614745,0.532219,-0.609939,0.539696,
-0.608674,0.548497,-0.591679,0.568109,-0.577652,0.589937,-0.569566,0.593629,-0.563745,0.600348,-0.538848,0.607658,-0.515244,0.618438,-0.506443,0.617172,-0.497915,0.619677,0.397045,0.619677,0.418565,0.616582,0.418565,0.616582,$1*%
%AMFreePoly3*
4,1,51,0.532219,0.614745,0.539696,0.609939,0.548497,0.608674,0.568109,0.591679,0.589937,0.577652,0.593629,0.569566,0.600348,0.563745,0.607658,0.538848,0.618438,0.515244,0.617172,0.506443,0.619677,0.497915,0.619677,-0.397045,0.616583,-0.418564,0.616895,-0.422927,0.615620,-0.425261,0.614745,-0.431349,0.598456,-0.456693,0.584014,-0.483144,0.483144,-0.584014,0.465737,-0.597044,
0.462875,-0.600348,0.460323,-0.601097,0.455400,-0.604783,0.425956,-0.611187,0.397045,-0.619677,-0.497915,-0.619677,-0.532219,-0.614745,-0.539696,-0.609939,-0.548497,-0.608674,-0.568109,-0.591679,-0.589937,-0.577652,-0.593629,-0.569566,-0.600348,-0.563745,-0.607658,-0.538848,-0.618438,-0.515244,-0.617172,-0.506443,-0.619677,-0.497915,-0.619677,0.497915,-0.614745,0.532219,-0.609939,0.539696,
-0.608674,0.548497,-0.591679,0.568109,-0.577652,0.589937,-0.569566,0.593629,-0.563745,0.600348,-0.538848,0.607658,-0.515244,0.618438,-0.506443,0.617172,-0.497915,0.619677,0.497915,0.619677,0.532219,0.614745,0.532219,0.614745,$1*%
G04 Aperture macros list end*
%ADD10C,0.100000*%
%ADD11RotRect,2.550000X2.500000X150.000000*%
%ADD12RotRect,2.550000X2.500000X135.000000*%
%ADD13RotRect,2.550000X2.500000X165.000000*%
%ADD14RotRect,2.550000X2.500000X195.000000*%
%ADD15RoundRect,0.112500X-0.157195X0.151994X-0.060138X-0.210228X0.157195X-0.151994X0.060138X0.210228X0*%
%ADD16R,0.300000X1.300000*%
%ADD17R,1.800000X2.200000*%
%ADD18R,2.550000X2.500000*%
%ADD19RoundRect,0.140000X0.206244X0.077224X-0.036244X0.217224X-0.206244X-0.077224X0.036244X-0.217224X0*%
%ADD20RoundRect,0.150000X-0.150000X0.512500X-0.150000X-0.512500X0.150000X-0.512500X0.150000X0.512500X0*%
%ADD21RoundRect,0.112500X-0.060138X0.210228X-0.157195X-0.151994X0.060138X-0.210228X0.157195X0.151994X0*%
%ADD22RoundRect,0.140000X0.091230X0.200442X-0.179229X0.127973X-0.091230X-0.200442X0.179229X-0.127973X0*%
%ADD23RoundRect,0.140000X0.179229X0.127973X-0.091230X0.200442X-0.179229X-0.127973X0.091230X-0.200442X0*%
%ADD24RoundRect,0.140000X-0.140000X-0.170000X0.140000X-0.170000X0.140000X0.170000X-0.140000X0.170000X0*%
%ADD25RoundRect,0.140000X0.036244X0.217224X-0.206244X0.077224X-0.036244X-0.217224X0.206244X-0.077224X0*%
%ADD26RotRect,1.700000X1.000000X345.000000*%
%ADD27R,1.700000X1.000000*%
%ADD28RoundRect,0.225000X-0.250000X0.225000X-0.250000X-0.225000X0.250000X-0.225000X0.250000X0.225000X0*%
%ADD29RoundRect,0.135000X0.135000X0.185000X-0.135000X0.185000X-0.135000X-0.185000X0.135000X-0.185000X0*%
%ADD30RotRect,1.700000X1.000000X15.000000*%
%ADD31RoundRect,0.140000X-0.091230X-0.200442X0.179229X-0.127973X0.091230X0.200442X-0.179229X0.127973X0*%
%ADD32RotRect,1.700000X1.000000X315.000000*%
%ADD33RotRect,1.700000X1.000000X165.000000*%
%ADD34RotRect,1.700000X1.000000X330.000000*%
%ADD35RotRect,1.700000X1.000000X195.000000*%
%ADD36RoundRect,0.140000X-0.179229X-0.127973X0.091230X-0.200442X0.179229X0.127973X-0.091230X0.200442X0*%
%ADD37RoundRect,0.140000X-0.170000X0.140000X-0.170000X-0.140000X0.170000X-0.140000X0.170000X0.140000X0*%
%ADD38RoundRect,0.225000X0.225000X0.250000X-0.225000X0.250000X-0.225000X-0.250000X0.225000X-0.250000X0*%
%ADD39RoundRect,0.140000X0.170000X-0.140000X0.170000X0.140000X-0.170000X0.140000X-0.170000X-0.140000X0*%
%ADD40RoundRect,0.218750X0.381250X-0.218750X0.381250X0.218750X-0.381250X0.218750X-0.381250X-0.218750X0*%
%ADD41RoundRect,0.112500X0.187500X0.112500X-0.187500X0.112500X-0.187500X-0.112500X0.187500X-0.112500X0*%
%ADD42RoundRect,0.225000X0.250000X-0.225000X0.250000X0.225000X-0.250000X0.225000X-0.250000X-0.225000X0*%
%ADD43R,1.500000X2.000000*%
%ADD44R,3.800000X2.000000*%
%ADD45R,1.000000X1.700000*%
%ADD46RoundRect,0.250000X0.650000X-0.325000X0.650000X0.325000X-0.650000X0.325000X-0.650000X-0.325000X0*%
%ADD47R,0.550000X1.450000*%
%ADD48R,0.300000X1.450000*%
%ADD49RoundRect,0.140000X0.021213X-0.219203X0.219203X-0.021213X-0.021213X0.219203X-0.219203X0.021213X0*%
%ADD50R,1.000000X0.800000*%
%ADD51R,0.700000X1.500000*%
%ADD52RoundRect,0.135000X0.185000X-0.135000X0.185000X0.135000X-0.185000X0.135000X-0.185000X-0.135000X0*%
%ADD53RoundRect,0.225000X-0.225000X-0.250000X0.225000X-0.250000X0.225000X0.250000X-0.225000X0.250000X0*%
%ADD54RoundRect,0.135000X-0.185000X0.135000X-0.185000X-0.135000X0.185000X-0.135000X0.185000X0.135000X0*%
%ADD55FreePoly0,180.000000*%
%ADD56FreePoly1,180.000000*%
%ADD57FreePoly2,180.000000*%
%ADD58FreePoly3,180.000000*%
%ADD59RoundRect,0.050000X0.387500X0.050000X-0.387500X0.050000X-0.387500X-0.050000X0.387500X-0.050000X0*%
%ADD60RoundRect,0.050000X0.050000X0.387500X-0.050000X0.387500X-0.050000X-0.387500X0.050000X-0.387500X0*%
%ADD61RoundRect,0.150000X0.150000X-0.587500X0.150000X0.587500X-0.150000X0.587500X-0.150000X-0.587500X0*%
%ADD62R,1.550000X1.000000*%
%ADD63RoundRect,0.150000X-0.200000X0.150000X-0.200000X-0.150000X0.200000X-0.150000X0.200000X0.150000X0*%
%ADD64RoundRect,0.135000X-0.135000X-0.185000X0.135000X-0.185000X0.135000X0.185000X-0.135000X0.185000X0*%
%ADD65RoundRect,0.150000X0.650000X0.150000X-0.650000X0.150000X-0.650000X-0.150000X0.650000X-0.150000X0*%
%ADD66RoundRect,0.160000X-0.325000X0.160000X-0.325000X-0.160000X0.325000X-0.160000X0.325000X0.160000X0*%
%ADD67RoundRect,0.075000X-0.075000X0.350000X-0.075000X-0.350000X0.075000X-0.350000X0.075000X0.350000X0*%
%ADD68RoundRect,0.150000X0.512500X0.150000X-0.512500X0.150000X-0.512500X-0.150000X0.512500X-0.150000X0*%
%ADD69R,0.300000X0.550000*%
%ADD70RoundRect,0.050000X0.375000X0.050000X-0.375000X0.050000X-0.375000X-0.050000X0.375000X-0.050000X0*%
%ADD71RoundRect,0.050000X0.050000X0.275000X-0.050000X0.275000X-0.050000X-0.275000X0.050000X-0.275000X0*%
%ADD72RoundRect,0.140000X0.140000X0.170000X-0.140000X0.170000X-0.140000X-0.170000X0.140000X-0.170000X0*%
%ADD73RoundRect,0.140000X0.219203X0.021213X0.021213X0.219203X-0.219203X-0.021213X-0.021213X-0.219203X0*%
%ADD74RotRect,2.550000X2.500000X210.000000*%
%ADD75RotRect,1.700000X1.000000X210.000000*%
%ADD76RoundRect,0.218750X-0.218750X-0.381250X0.218750X-0.381250X0.218750X0.381250X-0.218750X0.381250X0*%
%ADD77RoundRect,0.112500X-0.212132X0.053033X0.053033X-0.212132X0.212132X-0.053033X-0.053033X0.212132X0*%
%ADD78RotRect,1.700000X1.000000X150.000000*%
%ADD79RoundRect,0.112500X-0.112500X0.187500X-0.112500X-0.187500X0.112500X-0.187500X0.112500X0.187500X0*%
%ADD80RotRect,1.700000X1.000000X30.000000*%
%ADD81RoundRect,0.112500X-0.191178X0.106130X-0.003678X-0.218630X0.191178X-0.106130X0.003678X0.218630X0*%
%ADD82R,1.200000X1.400000*%
%ADD83RoundRect,0.140000X-0.206244X-0.077224X0.036244X-0.217224X0.206244X0.077224X-0.036244X0.217224X0*%
%ADD84RotRect,2.550000X2.500000X225.000000*%
%ADD85RoundRect,0.112500X-0.003678X0.218630X-0.191178X-0.106130X0.003678X-0.218630X0.191178X0.106130X0*%
%ADD86RotRect,1.700000X1.000000X45.000000*%
%ADD87RoundRect,0.112500X0.053033X0.212132X-0.212132X-0.053033X-0.053033X-0.212132X0.212132X0.053033X0*%
%ADD88RoundRect,0.140000X-0.036244X-0.217224X0.206244X-0.077224X0.036244X0.217224X-0.206244X0.077224X0*%
G04 APERTURE END LIST*
%TO.C,D103*%
D10*
X185885933Y-211027287D02*
X185627114Y-211993213D01*
X183985040Y-211553220D01*
X184153272Y-210925368D01*
X184581933Y-210677881D01*
X185885933Y-211027287D01*
G36*
X185885933Y-211027287D02*
G01*
X185627114Y-211993213D01*
X183985040Y-211553220D01*
X184153272Y-210925368D01*
X184581933Y-210677881D01*
X185885933Y-211027287D01*
G37*
%TO.C,D104*%
X208099790Y-215459400D02*
X206399790Y-215459400D01*
X206399790Y-214809400D01*
X206749790Y-214459400D01*
X208099790Y-214459400D01*
X208099790Y-215459400D01*
G36*
X208099790Y-215459400D02*
G01*
X206399790Y-215459400D01*
X206399790Y-214809400D01*
X206749790Y-214459400D01*
X208099790Y-214459400D01*
X208099790Y-215459400D01*
G37*
%TO.C,D105*%
X230727135Y-212970088D02*
X229085061Y-213410080D01*
X228916829Y-212782229D01*
X229164316Y-212353568D01*
X230468316Y-212004162D01*
X230727135Y-212970088D01*
G36*
X230727135Y-212970088D02*
G01*
X229085061Y-213410080D01*
X228916829Y-212782229D01*
X229164316Y-212353568D01*
X230468316Y-212004162D01*
X230727135Y-212970088D01*
G37*
%TO.C,D125*%
X322077913Y-166369007D02*
X320435839Y-166808999D01*
X320267607Y-166181148D01*
X320515094Y-165752487D01*
X321819094Y-165403081D01*
X322077913Y-166369007D01*
G36*
X322077913Y-166369007D02*
G01*
X320435839Y-166808999D01*
X320267607Y-166181148D01*
X320515094Y-165752487D01*
X321819094Y-165403081D01*
X322077913Y-166369007D01*
G37*
%TO.C,D75*%
X65720716Y-124657114D02*
X65461897Y-125623040D01*
X63819823Y-125183047D01*
X63988055Y-124555195D01*
X64416716Y-124307708D01*
X65720716Y-124657114D01*
G36*
X65720716Y-124657114D02*
G01*
X65461897Y-125623040D01*
X63819823Y-125183047D01*
X63988055Y-124555195D01*
X64416716Y-124307708D01*
X65720716Y-124657114D01*
G37*
%TO.C,D102*%
X160568398Y-197261637D02*
X159861291Y-197968744D01*
X158659210Y-196766662D01*
X159118829Y-196307043D01*
X159613804Y-196307043D01*
X160568398Y-197261637D01*
G36*
X160568398Y-197261637D02*
G01*
X159861291Y-197968744D01*
X158659210Y-196766662D01*
X159118829Y-196307043D01*
X159613804Y-196307043D01*
X160568398Y-197261637D01*
G37*
%TO.C,D81*%
X84757636Y-148464195D02*
X84589404Y-149092047D01*
X84160743Y-149339534D01*
X82856743Y-148990128D01*
X83115562Y-148024202D01*
X84757636Y-148464195D01*
G36*
X84757636Y-148464195D02*
G01*
X84589404Y-149092047D01*
X84160743Y-149339534D01*
X82856743Y-148990128D01*
X83115562Y-148024202D01*
X84757636Y-148464195D01*
G37*
%TO.C,D106*%
X247975006Y-110623783D02*
X246332932Y-111063775D01*
X246164700Y-110435924D01*
X246412187Y-110007263D01*
X247716187Y-109657857D01*
X247975006Y-110623783D01*
G36*
X247975006Y-110623783D02*
G01*
X246332932Y-111063775D01*
X246164700Y-110435924D01*
X246412187Y-110007263D01*
X247716187Y-109657857D01*
X247975006Y-110623783D01*
G37*
%TO.C,D67*%
X219054544Y-145517065D02*
X218554544Y-146383090D01*
X217082301Y-145533090D01*
X217407301Y-144970173D01*
X217885409Y-144842065D01*
X219054544Y-145517065D01*
G36*
X219054544Y-145517065D02*
G01*
X218554544Y-146383090D01*
X217082301Y-145533090D01*
X217407301Y-144970173D01*
X217885409Y-144842065D01*
X219054544Y-145517065D01*
G37*
%TO.C,D101*%
X158772062Y-166652799D02*
X158603830Y-167280651D01*
X158175169Y-167528138D01*
X156871169Y-167178732D01*
X157129988Y-166212806D01*
X158772062Y-166652799D01*
G36*
X158772062Y-166652799D02*
G01*
X158603830Y-167280651D01*
X158175169Y-167528138D01*
X156871169Y-167178732D01*
X157129988Y-166212806D01*
X158772062Y-166652799D01*
G37*
%TO.C,D134*%
X361382461Y-144598166D02*
X361134974Y-145026827D01*
X359830974Y-145376233D01*
X359572155Y-144410307D01*
X361214229Y-143970315D01*
X361382461Y-144598166D01*
G36*
X361382461Y-144598166D02*
G01*
X361134974Y-145026827D01*
X359830974Y-145376233D01*
X359572155Y-144410307D01*
X361214229Y-143970315D01*
X361382461Y-144598166D01*
G37*
%TO.C,D78*%
X94598913Y-90485729D02*
X94340094Y-91451655D01*
X92698020Y-91011662D01*
X92866252Y-90383810D01*
X93294913Y-90136323D01*
X94598913Y-90485729D01*
G36*
X94598913Y-90485729D02*
G01*
X94340094Y-91451655D01*
X92698020Y-91011662D01*
X92866252Y-90383810D01*
X93294913Y-90136323D01*
X94598913Y-90485729D01*
G37*
%TO.C,D98*%
X168613316Y-108674344D02*
X168354497Y-109640270D01*
X166712423Y-109200277D01*
X166880655Y-108572425D01*
X167309316Y-108324938D01*
X168613316Y-108674344D01*
G36*
X168613316Y-108674344D02*
G01*
X168354497Y-109640270D01*
X166712423Y-109200277D01*
X166880655Y-108572425D01*
X167309316Y-108324938D01*
X168613316Y-108674344D01*
G37*
%TO.C,D90*%
X123799490Y-128714772D02*
X123540671Y-129680698D01*
X121898597Y-129240705D01*
X122066829Y-128612853D01*
X122495490Y-128365366D01*
X123799490Y-128714772D01*
G36*
X123799490Y-128714772D02*
G01*
X123540671Y-129680698D01*
X121898597Y-129240705D01*
X122066829Y-128612853D01*
X122495490Y-128365366D01*
X123799490Y-128714772D01*
G37*
%TO.C,D100*%
X158752314Y-145476110D02*
X158493495Y-146442036D01*
X156851421Y-146002043D01*
X157019653Y-145374191D01*
X157448314Y-145126704D01*
X158752314Y-145476110D01*
G36*
X158752314Y-145476110D02*
G01*
X158493495Y-146442036D01*
X156851421Y-146002043D01*
X157019653Y-145374191D01*
X157448314Y-145126704D01*
X158752314Y-145476110D01*
G37*
%TO.C,D87*%
X94510401Y-164419555D02*
X94251582Y-165385481D01*
X92609508Y-164945488D01*
X92777740Y-164317636D01*
X93206401Y-164070149D01*
X94510401Y-164419555D01*
G36*
X94510401Y-164419555D02*
G01*
X94251582Y-165385481D01*
X92609508Y-164945488D01*
X92777740Y-164317636D01*
X93206401Y-164070149D01*
X94510401Y-164419555D01*
G37*
%TO.C,D68*%
X231400007Y-161749988D02*
X231400007Y-163099988D01*
X230400007Y-163099988D01*
X230400007Y-161399988D01*
X231050007Y-161399988D01*
X231400007Y-161749988D01*
G36*
X231400007Y-161749988D02*
G01*
X231400007Y-163099988D01*
X230400007Y-163099988D01*
X230400007Y-161399988D01*
X231050007Y-161399988D01*
X231400007Y-161749988D01*
G37*
%TO.C,D84*%
X114252158Y-111992691D02*
X114083926Y-112620543D01*
X113655265Y-112868030D01*
X112351265Y-112518624D01*
X112610084Y-111552698D01*
X114252158Y-111992691D01*
G36*
X114252158Y-111992691D02*
G01*
X114083926Y-112620543D01*
X113655265Y-112868030D01*
X112351265Y-112518624D01*
X112610084Y-111552698D01*
X114252158Y-111992691D01*
G37*
%TO.C,D91*%
X123819242Y-149891442D02*
X123651010Y-150519294D01*
X123222349Y-150766781D01*
X121918349Y-150417375D01*
X122177168Y-149451449D01*
X123819242Y-149891442D01*
G36*
X123819242Y-149891442D02*
G01*
X123651010Y-150519294D01*
X123222349Y-150766781D01*
X121918349Y-150417375D01*
X122177168Y-149451449D01*
X123819242Y-149891442D01*
G37*
%TO.C,D83*%
X114232418Y-90816011D02*
X113973599Y-91781937D01*
X112331525Y-91341944D01*
X112499757Y-90714092D01*
X112928418Y-90466605D01*
X114232418Y-90816011D01*
G36*
X114232418Y-90816011D02*
G01*
X113973599Y-91781937D01*
X112331525Y-91341944D01*
X112499757Y-90714092D01*
X112928418Y-90466605D01*
X114232418Y-90816011D01*
G37*
%TO.C,D95*%
X141173203Y-137478821D02*
X140914384Y-138444747D01*
X139272310Y-138004754D01*
X139440542Y-137376902D01*
X139869203Y-137129415D01*
X141173203Y-137478821D01*
G36*
X141173203Y-137478821D02*
G01*
X140914384Y-138444747D01*
X139272310Y-138004754D01*
X139440542Y-137376902D01*
X139869203Y-137129415D01*
X141173203Y-137478821D01*
G37*
%TO.C,D86*%
X104391148Y-148794475D02*
X104222916Y-149422327D01*
X103794255Y-149669814D01*
X102490255Y-149320408D01*
X102749074Y-148354482D01*
X104391148Y-148794475D01*
G36*
X104391148Y-148794475D02*
G01*
X104222916Y-149422327D01*
X103794255Y-149669814D01*
X102490255Y-149320408D01*
X102749074Y-148354482D01*
X104391148Y-148794475D01*
G37*
%TO.C,D129*%
X342365272Y-147228556D02*
X342117785Y-147657217D01*
X340813785Y-148006623D01*
X340554966Y-147040697D01*
X342197040Y-146600705D01*
X342365272Y-147228556D01*
G36*
X342365272Y-147228556D02*
G01*
X342117785Y-147657217D01*
X340813785Y-148006623D01*
X340554966Y-147040697D01*
X342197040Y-146600705D01*
X342365272Y-147228556D01*
G37*
%TO.C,D93*%
X151034195Y-100677006D02*
X150775376Y-101642932D01*
X149133302Y-101202939D01*
X149301534Y-100575087D01*
X149730195Y-100327600D01*
X151034195Y-100677006D01*
G36*
X151034195Y-100677006D02*
G01*
X150775376Y-101642932D01*
X149133302Y-101202939D01*
X149301534Y-100575087D01*
X149730195Y-100327600D01*
X151034195Y-100677006D01*
G37*
%TO.C,D127*%
X332504273Y-110426755D02*
X332256786Y-110855416D01*
X330952786Y-111204822D01*
X330693967Y-110238896D01*
X332336041Y-109798904D01*
X332504273Y-110426755D01*
G36*
X332504273Y-110426755D02*
G01*
X332256786Y-110855416D01*
X330952786Y-111204822D01*
X330693967Y-110238896D01*
X332336041Y-109798904D01*
X332504273Y-110426755D01*
G37*
%TO.C,D130*%
X341711430Y-166038740D02*
X340069356Y-166478732D01*
X339901124Y-165850881D01*
X340148611Y-165422220D01*
X341452611Y-165072814D01*
X341711430Y-166038740D01*
G36*
X341711430Y-166038740D02*
G01*
X340069356Y-166478732D01*
X339901124Y-165850881D01*
X340148611Y-165422220D01*
X341452611Y-165072814D01*
X341711430Y-166038740D01*
G37*
%TO.C,D124*%
X322731763Y-147558827D02*
X322484276Y-147987488D01*
X321180276Y-148336894D01*
X320921457Y-147370968D01*
X322563531Y-146930976D01*
X322731763Y-147558827D01*
G36*
X322731763Y-147558827D02*
G01*
X322484276Y-147987488D01*
X321180276Y-148336894D01*
X320921457Y-147370968D01*
X322563531Y-146930976D01*
X322731763Y-147558827D01*
G37*
%TO.C,D107*%
X258489848Y-128615386D02*
X258242361Y-129044047D01*
X256938361Y-129393453D01*
X256679542Y-128427527D01*
X258321616Y-127987535D01*
X258489848Y-128615386D01*
G36*
X258489848Y-128615386D02*
G01*
X258242361Y-129044047D01*
X256938361Y-129393453D01*
X256679542Y-128427527D01*
X258321616Y-127987535D01*
X258489848Y-128615386D01*
G37*
%TO.C,D85*%
X104371413Y-127617778D02*
X104112594Y-128583704D01*
X102470520Y-128143711D01*
X102638752Y-127515859D01*
X103067413Y-127268372D01*
X104371413Y-127617778D01*
G36*
X104371413Y-127617778D02*
G01*
X104112594Y-128583704D01*
X102470520Y-128143711D01*
X102638752Y-127515859D01*
X103067413Y-127268372D01*
X104371413Y-127617778D01*
G37*
%TO.C,D92*%
X123945942Y-177237270D02*
X123687123Y-178203196D01*
X122045049Y-177763203D01*
X122213281Y-177135351D01*
X122641942Y-176887864D01*
X123945942Y-177237270D01*
G36*
X123945942Y-177237270D02*
G01*
X123687123Y-178203196D01*
X122045049Y-177763203D01*
X122213281Y-177135351D01*
X122641942Y-176887864D01*
X123945942Y-177237270D01*
G37*
%TO.C,D73*%
X75581711Y-87855332D02*
X75322892Y-88821258D01*
X73680818Y-88381265D01*
X73849050Y-87753413D01*
X74277711Y-87505926D01*
X75581711Y-87855332D01*
G36*
X75581711Y-87855332D02*
G01*
X75322892Y-88821258D01*
X73680818Y-88381265D01*
X73849050Y-87753413D01*
X74277711Y-87505926D01*
X75581711Y-87855332D01*
G37*
%TO.C,D108*%
X257835988Y-147425550D02*
X256193914Y-147865542D01*
X256025682Y-147237691D01*
X256273169Y-146809030D01*
X257577169Y-146459624D01*
X257835988Y-147425550D01*
G36*
X257835988Y-147425550D02*
G01*
X256193914Y-147865542D01*
X256025682Y-147237691D01*
X256273169Y-146809030D01*
X257577169Y-146459624D01*
X257835988Y-147425550D01*
G37*
%TO.C,D112*%
X276068986Y-120618074D02*
X275821499Y-121046735D01*
X274517499Y-121396141D01*
X274258680Y-120430215D01*
X275900754Y-119990223D01*
X276068986Y-120618074D01*
G36*
X276068986Y-120618074D02*
G01*
X275821499Y-121046735D01*
X274517499Y-121396141D01*
X274258680Y-120430215D01*
X275900754Y-119990223D01*
X276068986Y-120618074D01*
G37*
%TO.C,D131*%
X341006605Y-89804775D02*
X339364531Y-90244767D01*
X339196299Y-89616916D01*
X339443786Y-89188255D01*
X340747786Y-88838849D01*
X341006605Y-89804775D01*
G36*
X341006605Y-89804775D02*
G01*
X339364531Y-90244767D01*
X339196299Y-89616916D01*
X339443786Y-89188255D01*
X340747786Y-88838849D01*
X341006605Y-89804775D01*
G37*
%TO.C,D76*%
X65740465Y-145833818D02*
X65572233Y-146461670D01*
X65143572Y-146709157D01*
X63839572Y-146359751D01*
X64098391Y-145393825D01*
X65740465Y-145833818D01*
G36*
X65740465Y-145833818D02*
G01*
X65572233Y-146461670D01*
X65143572Y-146709157D01*
X63839572Y-146359751D01*
X64098391Y-145393825D01*
X65740465Y-145833818D01*
G37*
%TO.C,D89*%
X133680246Y-113089670D02*
X133512014Y-113717522D01*
X133083353Y-113965009D01*
X131779353Y-113615603D01*
X132038172Y-112649677D01*
X133680246Y-113089670D01*
G36*
X133680246Y-113089670D02*
G01*
X133512014Y-113717522D01*
X133083353Y-113965009D01*
X131779353Y-113615603D01*
X132038172Y-112649677D01*
X133680246Y-113089670D01*
G37*
%TO.C,D117*%
X293442677Y-111854032D02*
X293195190Y-112282693D01*
X291891190Y-112632099D01*
X291632371Y-111666173D01*
X293274445Y-111226181D01*
X293442677Y-111854032D01*
G36*
X293442677Y-111854032D02*
G01*
X293195190Y-112282693D01*
X291891190Y-112632099D01*
X291632371Y-111666173D01*
X293274445Y-111226181D01*
X293442677Y-111854032D01*
G37*
%TO.C,D96*%
X141192944Y-158655475D02*
X141024712Y-159283327D01*
X140596051Y-159530814D01*
X139292051Y-159181408D01*
X139550870Y-158215482D01*
X141192944Y-158655475D01*
G36*
X141192944Y-158655475D02*
G01*
X141024712Y-159283327D01*
X140596051Y-159530814D01*
X139292051Y-159181408D01*
X139550870Y-158215482D01*
X141192944Y-158655475D01*
G37*
%TO.C,D77*%
X55859704Y-161458889D02*
X55600885Y-162424815D01*
X53958811Y-161984822D01*
X54127043Y-161356970D01*
X54555704Y-161109483D01*
X55859704Y-161458889D01*
G36*
X55859704Y-161458889D02*
G01*
X55600885Y-162424815D01*
X53958811Y-161984822D01*
X54127043Y-161356970D01*
X54555704Y-161109483D01*
X55859704Y-161458889D01*
G37*
%TO.C,D113*%
X275415138Y-139428239D02*
X273773064Y-139868231D01*
X273604832Y-139240380D01*
X273852319Y-138811719D01*
X275156319Y-138462313D01*
X275415138Y-139428239D01*
G36*
X275415138Y-139428239D02*
G01*
X273773064Y-139868231D01*
X273604832Y-139240380D01*
X273852319Y-138811719D01*
X275156319Y-138462313D01*
X275415138Y-139428239D01*
G37*
%TO.C,D71*%
X189599989Y-168600006D02*
X188949989Y-168600006D01*
X188599989Y-168250006D01*
X188599989Y-166900006D01*
X189599989Y-166900006D01*
X189599989Y-168600006D01*
G36*
X189599989Y-168600006D02*
G01*
X188949989Y-168600006D01*
X188599989Y-168250006D01*
X188599989Y-166900006D01*
X189599989Y-166900006D01*
X189599989Y-168600006D01*
G37*
%TO.C,D82*%
X74876900Y-164089273D02*
X74618081Y-165055199D01*
X72976007Y-164615206D01*
X73144239Y-163987354D01*
X73572900Y-163739867D01*
X74876900Y-164089273D01*
G36*
X74876900Y-164089273D02*
G01*
X74618081Y-165055199D01*
X72976007Y-164615206D01*
X73144239Y-163987354D01*
X73572900Y-163739867D01*
X74876900Y-164089273D01*
G37*
%TO.C,D132*%
X351521466Y-107796384D02*
X351273979Y-108225045D01*
X349969979Y-108574451D01*
X349711160Y-107608525D01*
X351353234Y-107168533D01*
X351521466Y-107796384D01*
G36*
X351521466Y-107796384D02*
G01*
X351273979Y-108225045D01*
X349969979Y-108574451D01*
X349711160Y-107608525D01*
X351353234Y-107168533D01*
X351521466Y-107796384D01*
G37*
%TO.C,D69*%
X223642700Y-181429827D02*
X223514592Y-181907935D01*
X222345457Y-182582935D01*
X221845457Y-181716910D01*
X223317700Y-180866910D01*
X223642700Y-181429827D01*
G36*
X223642700Y-181429827D02*
G01*
X223514592Y-181907935D01*
X222345457Y-182582935D01*
X221845457Y-181716910D01*
X223317700Y-180866910D01*
X223642700Y-181429827D01*
G37*
%TO.C,D122*%
X312870745Y-110757064D02*
X312623258Y-111185725D01*
X311319258Y-111535131D01*
X311060439Y-110569205D01*
X312702513Y-110129213D01*
X312870745Y-110757064D01*
G36*
X312870745Y-110757064D02*
G01*
X312623258Y-111185725D01*
X311319258Y-111535131D01*
X311060439Y-110569205D01*
X312702513Y-110129213D01*
X312870745Y-110757064D01*
G37*
%TO.C,D99*%
X168633081Y-129851013D02*
X168464849Y-130478865D01*
X168036188Y-130726352D01*
X166732188Y-130376946D01*
X166991007Y-129411020D01*
X168633081Y-129851013D01*
G36*
X168633081Y-129851013D02*
G01*
X168464849Y-130478865D01*
X168036188Y-130726352D01*
X166732188Y-130376946D01*
X166991007Y-129411020D01*
X168633081Y-129851013D01*
G37*
%TO.C,D80*%
X84737924Y-127287499D02*
X84479105Y-128253425D01*
X82837031Y-127813432D01*
X83005263Y-127185580D01*
X83433924Y-126938093D01*
X84737924Y-127287499D01*
G36*
X84737924Y-127287499D02*
G01*
X84479105Y-128253425D01*
X82837031Y-127813432D01*
X83005263Y-127185580D01*
X83433924Y-126938093D01*
X84737924Y-127287499D01*
G37*
%TO.C,D109*%
X268350847Y-165417157D02*
X268103360Y-165845818D01*
X266799360Y-166195224D01*
X266540541Y-165229298D01*
X268182615Y-164789306D01*
X268350847Y-165417157D01*
G36*
X268350847Y-165417157D02*
G01*
X268103360Y-165845818D01*
X266799360Y-166195224D01*
X266540541Y-165229298D01*
X268182615Y-164789306D01*
X268350847Y-165417157D01*
G37*
%TO.C,D133*%
X350867605Y-126606541D02*
X349225531Y-127046533D01*
X349057299Y-126418682D01*
X349304786Y-125990021D01*
X350608786Y-125640615D01*
X350867605Y-126606541D01*
G36*
X350867605Y-126606541D02*
G01*
X349225531Y-127046533D01*
X349057299Y-126418682D01*
X349304786Y-125990021D01*
X350608786Y-125640615D01*
X350867605Y-126606541D01*
G37*
%TO.C,D126*%
X321989426Y-92435171D02*
X320347352Y-92875163D01*
X320179120Y-92247312D01*
X320426607Y-91818651D01*
X321730607Y-91469245D01*
X321989426Y-92435171D01*
G36*
X321989426Y-92435171D02*
G01*
X320347352Y-92875163D01*
X320179120Y-92247312D01*
X320426607Y-91818651D01*
X321730607Y-91469245D01*
X321989426Y-92435171D01*
G37*
%TO.C,D111*%
X265554119Y-102626464D02*
X263912045Y-103066456D01*
X263743813Y-102438605D01*
X263991300Y-102009944D01*
X265295300Y-101660538D01*
X265554119Y-102626464D01*
G36*
X265554119Y-102626464D02*
G01*
X263912045Y-103066456D01*
X263743813Y-102438605D01*
X263991300Y-102009944D01*
X265295300Y-101660538D01*
X265554119Y-102626464D01*
G37*
%TO.C,D70*%
X202917690Y-184466914D02*
X202592690Y-185029831D01*
X202114582Y-185157939D01*
X200945447Y-184482939D01*
X201445447Y-183616914D01*
X202917690Y-184466914D01*
G36*
X202917690Y-184466914D02*
G01*
X202592690Y-185029831D01*
X202114582Y-185157939D01*
X200945447Y-184482939D01*
X201445447Y-183616914D01*
X202917690Y-184466914D01*
G37*
%TO.C,D114*%
X285929979Y-157419847D02*
X285682492Y-157848508D01*
X284378492Y-158197914D01*
X284119673Y-157231988D01*
X285761747Y-156791996D01*
X285929979Y-157419847D01*
G36*
X285929979Y-157419847D02*
G01*
X285682492Y-157848508D01*
X284378492Y-158197914D01*
X284119673Y-157231988D01*
X285761747Y-156791996D01*
X285929979Y-157419847D01*
G37*
%TO.C,D123*%
X312216915Y-129567231D02*
X310574841Y-130007223D01*
X310406609Y-129379372D01*
X310654096Y-128950711D01*
X311958096Y-128601305D01*
X312216915Y-129567231D01*
G36*
X312216915Y-129567231D02*
G01*
X310574841Y-130007223D01*
X310406609Y-129379372D01*
X310654096Y-128950711D01*
X311958096Y-128601305D01*
X312216915Y-129567231D01*
G37*
%TO.C,D135*%
X360728621Y-163408324D02*
X359086547Y-163848316D01*
X358918315Y-163220465D01*
X359165802Y-162791804D01*
X360469802Y-162442398D01*
X360728621Y-163408324D01*
G36*
X360728621Y-163408324D02*
G01*
X359086547Y-163848316D01*
X358918315Y-163220465D01*
X359165802Y-162791804D01*
X360469802Y-162442398D01*
X360728621Y-163408324D01*
G37*
%TO.C,D128*%
X331850426Y-129236952D02*
X330208352Y-129676944D01*
X330040120Y-129049093D01*
X330287607Y-128620432D01*
X331591607Y-128271026D01*
X331850426Y-129236952D01*
G36*
X331850426Y-129236952D02*
G01*
X330208352Y-129676944D01*
X330040120Y-129049093D01*
X330287607Y-128620432D01*
X331591607Y-128271026D01*
X331850426Y-129236952D01*
G37*
%TO.C,D97*%
X143624402Y-184845298D02*
X143124402Y-185711323D01*
X141652159Y-184861323D01*
X141977159Y-184298406D01*
X142455267Y-184170298D01*
X143624402Y-184845298D01*
G36*
X143624402Y-184845298D02*
G01*
X143124402Y-185711323D01*
X141652159Y-184861323D01*
X141977159Y-184298406D01*
X142455267Y-184170298D01*
X143624402Y-184845298D01*
G37*
%TO.C,D72*%
X198154563Y-148283088D02*
X196682320Y-149133088D01*
X196357320Y-148570171D01*
X196485428Y-148092063D01*
X197654563Y-147417063D01*
X198154563Y-148283088D01*
G36*
X198154563Y-148283088D02*
G01*
X196682320Y-149133088D01*
X196357320Y-148570171D01*
X196485428Y-148092063D01*
X197654563Y-147417063D01*
X198154563Y-148283088D01*
G37*
%TO.C,D94*%
X151053927Y-121853686D02*
X150885695Y-122481538D01*
X150457034Y-122729025D01*
X149153034Y-122379619D01*
X149411853Y-121413693D01*
X151053927Y-121853686D01*
G36*
X151053927Y-121853686D02*
G01*
X150885695Y-122481538D01*
X150457034Y-122729025D01*
X149153034Y-122379619D01*
X149411853Y-121413693D01*
X151053927Y-121853686D01*
G37*
%TO.C,D119*%
X303303679Y-148655801D02*
X303056192Y-149084462D01*
X301752192Y-149433868D01*
X301493373Y-148467942D01*
X303135447Y-148027950D01*
X303303679Y-148655801D01*
G36*
X303303679Y-148655801D02*
G01*
X303056192Y-149084462D01*
X301752192Y-149433868D01*
X301493373Y-148467942D01*
X303135447Y-148027950D01*
X303303679Y-148655801D01*
G37*
%TO.C,D120*%
X292642400Y-179186715D02*
X291000326Y-179626707D01*
X290832094Y-178998856D01*
X291079581Y-178570195D01*
X292383581Y-178220789D01*
X292642400Y-179186715D01*
G36*
X292642400Y-179186715D02*
G01*
X291000326Y-179626707D01*
X290832094Y-178998856D01*
X291079581Y-178570195D01*
X292383581Y-178220789D01*
X292642400Y-179186715D01*
G37*
%TO.C,D115*%
X273569444Y-187604213D02*
X272097201Y-188454213D01*
X271772201Y-187891296D01*
X271900309Y-187413188D01*
X273069444Y-186738188D01*
X273569444Y-187604213D01*
G36*
X273569444Y-187604213D02*
G01*
X272097201Y-188454213D01*
X271772201Y-187891296D01*
X271900309Y-187413188D01*
X273069444Y-186738188D01*
X273569444Y-187604213D01*
G37*
%TO.C,D116*%
X282927804Y-93862432D02*
X281285730Y-94302424D01*
X281117498Y-93674573D01*
X281364985Y-93245912D01*
X282668985Y-92896506D01*
X282927804Y-93862432D01*
G36*
X282927804Y-93862432D02*
G01*
X281285730Y-94302424D01*
X281117498Y-93674573D01*
X281364985Y-93245912D01*
X282668985Y-92896506D01*
X282927804Y-93862432D01*
G37*
%TO.C,D110*%
X257446924Y-200654408D02*
X256244842Y-201856489D01*
X255785223Y-201396870D01*
X255785223Y-200901895D01*
X256739817Y-199947301D01*
X257446924Y-200654408D01*
G36*
X257446924Y-200654408D02*
G01*
X256244842Y-201856489D01*
X255785223Y-201396870D01*
X255785223Y-200901895D01*
X256739817Y-199947301D01*
X257446924Y-200654408D01*
G37*
%TO.C,D74*%
X75601460Y-109032026D02*
X75433228Y-109659878D01*
X75004567Y-109907365D01*
X73700567Y-109557959D01*
X73959386Y-108592033D01*
X75601460Y-109032026D01*
G36*
X75601460Y-109032026D02*
G01*
X75433228Y-109659878D01*
X75004567Y-109907365D01*
X73700567Y-109557959D01*
X73959386Y-108592033D01*
X75601460Y-109032026D01*
G37*
%TO.C,D79*%
X94618660Y-111662409D02*
X94450428Y-112290261D01*
X94021767Y-112537748D01*
X92717767Y-112188342D01*
X92976586Y-111222416D01*
X94618660Y-111662409D01*
G36*
X94618660Y-111662409D02*
G01*
X94450428Y-112290261D01*
X94021767Y-112537748D01*
X92717767Y-112188342D01*
X92976586Y-111222416D01*
X94618660Y-111662409D01*
G37*
%TO.C,D121*%
X302355900Y-92765457D02*
X300713826Y-93205449D01*
X300545594Y-92577598D01*
X300793081Y-92148937D01*
X302097081Y-91799531D01*
X302355900Y-92765457D01*
G36*
X302355900Y-92765457D02*
G01*
X300713826Y-93205449D01*
X300545594Y-92577598D01*
X300793081Y-92148937D01*
X302097081Y-91799531D01*
X302355900Y-92765457D01*
G37*
%TO.C,D88*%
X133660513Y-91912980D02*
X133401694Y-92878906D01*
X131759620Y-92438913D01*
X131927852Y-91811061D01*
X132356513Y-91563574D01*
X133660513Y-91912980D01*
G36*
X133660513Y-91912980D02*
G01*
X133401694Y-92878906D01*
X131759620Y-92438913D01*
X131927852Y-91811061D01*
X132356513Y-91563574D01*
X133660513Y-91912980D01*
G37*
%TO.C,D118*%
X292788834Y-130664216D02*
X291146760Y-131104208D01*
X290978528Y-130476357D01*
X291226015Y-130047696D01*
X292530015Y-129698290D01*
X292788834Y-130664216D01*
G36*
X292788834Y-130664216D02*
G01*
X291146760Y-131104208D01*
X290978528Y-130476357D01*
X291226015Y-130047696D01*
X292530015Y-129698290D01*
X292788834Y-130664216D01*
G37*
%TD*%
D11*
%TO.C,SW25*%
X142194322Y-176971604D03*
X154659432Y-181235400D03*
%TD*%
D12*
%TO.C,SW30*%
X161211940Y-189287343D03*
X172148760Y-196632061D03*
%TD*%
D13*
%TO.C,SW1*%
X72149608Y-80630855D03*
X85293531Y-81523158D03*
%TD*%
%TO.C,SW24*%
X132810587Y-148655204D03*
X145954510Y-149547507D03*
%TD*%
%TO.C,SW29*%
X150389706Y-156652547D03*
X163533629Y-157544850D03*
%TD*%
%TO.C,SW14*%
X96008795Y-138794209D03*
X109152718Y-139686512D03*
%TD*%
%TO.C,SW19*%
X115436876Y-139891172D03*
X128580799Y-140783475D03*
%TD*%
%TO.C,SW5*%
X52427589Y-154234420D03*
X65571512Y-155126723D03*
%TD*%
%TO.C,SW22*%
X142671576Y-111853420D03*
X155815499Y-112745723D03*
%TD*%
%TO.C,SW27*%
X160250709Y-119850760D03*
X173394632Y-120743063D03*
%TD*%
%TO.C,SW3*%
X62288581Y-117432649D03*
X75432504Y-118324952D03*
%TD*%
%TO.C,SW8*%
X81305795Y-120063022D03*
X94449718Y-120955325D03*
%TD*%
%TO.C,SW13*%
X100939309Y-120393307D03*
X114083232Y-121285610D03*
%TD*%
%TO.C,SW23*%
X137741090Y-130254347D03*
X150885013Y-131146650D03*
%TD*%
%TO.C,SW18*%
X120367362Y-121490293D03*
X133511285Y-122382596D03*
%TD*%
%TO.C,SW28*%
X155320203Y-138251649D03*
X168464126Y-139143952D03*
%TD*%
%TO.C,SW4*%
X57358099Y-135833543D03*
X70502022Y-136725846D03*
%TD*%
%TO.C,SW9*%
X76375264Y-138463926D03*
X89519187Y-139356229D03*
%TD*%
%TO.C,SW10*%
X71444786Y-156864810D03*
X84588709Y-157757113D03*
%TD*%
%TO.C,SW15*%
X91078296Y-157195084D03*
X104222219Y-158087387D03*
%TD*%
%TO.C,SW20*%
X120513809Y-170012812D03*
X133657732Y-170905115D03*
%TD*%
%TO.C,SW11*%
X110800308Y-83591559D03*
X123944231Y-84483862D03*
%TD*%
%TO.C,SW2*%
X67219100Y-99031755D03*
X80363023Y-99924058D03*
%TD*%
%TO.C,SW12*%
X105869802Y-101992421D03*
X119013725Y-102884724D03*
%TD*%
%TO.C,SW21*%
X147602086Y-93452542D03*
X160746009Y-94344845D03*
%TD*%
%TO.C,SW17*%
X125297883Y-103089421D03*
X138441806Y-103981724D03*
%TD*%
%TO.C,SW16*%
X130228382Y-84688514D03*
X143372305Y-85580817D03*
%TD*%
%TO.C,SW6*%
X91166796Y-83261259D03*
X104310719Y-84153562D03*
%TD*%
%TO.C,SW7*%
X86236295Y-101662146D03*
X99380218Y-102554449D03*
%TD*%
%TO.C,SW26*%
X165181215Y-101449869D03*
X178325138Y-102342172D03*
%TD*%
D14*
%TO.C,SW31*%
X241131645Y-105117342D03*
X252960768Y-99318137D03*
%TD*%
D15*
%TO.C,D34*%
X253371757Y-155299287D03*
X253915277Y-157327731D03*
%TD*%
D16*
%TO.C,J3*%
X212749998Y-148749996D03*
X212249998Y-148749996D03*
X211749998Y-148749996D03*
X211249998Y-148749996D03*
X210749998Y-148749996D03*
X210249998Y-148749996D03*
X209749998Y-148749996D03*
X209249998Y-148749996D03*
X208749998Y-148749996D03*
X208249998Y-148749996D03*
X207749998Y-148749996D03*
X207249998Y-148749996D03*
D17*
X214649998Y-151999996D03*
X205349998Y-151999996D03*
%TD*%
D18*
%TO.C,SW62*%
X202915019Y-208369993D03*
X215842019Y-205829993D03*
%TD*%
D19*
%TO.C,C53*%
X148887454Y-190089419D03*
X148056070Y-189609419D03*
%TD*%
D20*
%TO.C,U6*%
X218969306Y-155512500D03*
X219919306Y-155512500D03*
X220869306Y-155512500D03*
X220869306Y-157787500D03*
X218969306Y-157787500D03*
%TD*%
D21*
%TO.C,D16*%
X130529182Y-79064767D03*
X129985662Y-81093211D03*
%TD*%
D14*
%TO.C,SW45*%
X285799041Y-173680277D03*
X297628164Y-167881072D03*
%TD*%
D22*
%TO.C,C90*%
X353328581Y-145141162D03*
X352401293Y-145389628D03*
%TD*%
D23*
%TO.C,C38*%
X81317889Y-167792516D03*
X80390601Y-167544050D03*
%TD*%
D24*
%TO.C,C60*%
X214319799Y-216369386D03*
X215279799Y-216369386D03*
%TD*%
D15*
%TO.C,D57*%
X336542345Y-97678495D03*
X337085865Y-99706939D03*
%TD*%
D14*
%TO.C,SW49*%
X310304054Y-142461695D03*
X322133177Y-136662490D03*
%TD*%
D15*
%TO.C,D58*%
X341472869Y-116079393D03*
X342016389Y-118107837D03*
%TD*%
D25*
%TO.C,C28*%
X204827606Y-145481169D03*
X203996222Y-145961169D03*
%TD*%
D26*
%TO.C,D103*%
X189885732Y-214066054D03*
X190248078Y-212713758D03*
X184573140Y-212642550D03*
%TD*%
D27*
%TO.C,D104*%
X212749790Y-216359400D03*
X212749790Y-214959400D03*
X207249790Y-216359400D03*
%TD*%
D15*
%TO.C,D60*%
X351333868Y-152881167D03*
X351877388Y-154909611D03*
%TD*%
D28*
%TO.C,C9*%
X208099822Y-94124365D03*
X208099822Y-95674365D03*
%TD*%
D29*
%TO.C,R27*%
X220839292Y-159279987D03*
X219819292Y-159279987D03*
%TD*%
D30*
%TO.C,D105*%
X235451627Y-212635913D03*
X235089281Y-211283617D03*
X230139035Y-214059417D03*
%TD*%
D23*
%TO.C,C44*%
X140101494Y-95616234D03*
X139174206Y-95367768D03*
%TD*%
%TO.C,C46*%
X130240478Y-132418007D03*
X129313190Y-132169541D03*
%TD*%
D31*
%TO.C,C85*%
X333384087Y-148020018D03*
X334311375Y-147771552D03*
%TD*%
D30*
%TO.C,D125*%
X326802405Y-166034832D03*
X326440059Y-164682536D03*
X321489813Y-167458336D03*
%TD*%
D15*
%TO.C,D63*%
X221307628Y-202449548D03*
X221851148Y-204477992D03*
%TD*%
D23*
%TO.C,C42*%
X96976563Y-145865643D03*
X96049275Y-145617177D03*
%TD*%
D26*
%TO.C,D75*%
X69720515Y-127695881D03*
X70082861Y-126343585D03*
X64407923Y-126272377D03*
%TD*%
D21*
%TO.C,D14*%
X96309583Y-133170445D03*
X95766063Y-135198889D03*
%TD*%
D32*
%TO.C,D102*%
X162512942Y-201893186D03*
X163502891Y-200903237D03*
X158623855Y-198004099D03*
%TD*%
D14*
%TO.C,SW47*%
X300443057Y-105659903D03*
X312272180Y-99860698D03*
%TD*%
%TO.C,SW63*%
X223859011Y-207470286D03*
X235688134Y-201671081D03*
%TD*%
D33*
%TO.C,D81*%
X78856944Y-145951361D03*
X78494598Y-147303657D03*
X84169536Y-147374865D03*
%TD*%
D21*
%TO.C,D4*%
X57658894Y-130209758D03*
X57115374Y-132238202D03*
%TD*%
D30*
%TO.C,D106*%
X252699498Y-110289608D03*
X252337152Y-108937312D03*
X247386906Y-111713112D03*
%TD*%
D34*
%TO.C,D67*%
X222131562Y-149487513D03*
X222831562Y-148275077D03*
X217368422Y-146737513D03*
%TD*%
D21*
%TO.C,D19*%
X115737663Y-134267420D03*
X115194143Y-136295864D03*
%TD*%
D13*
%TO.C,SW61*%
X182453814Y-203802797D03*
X195597737Y-204695100D03*
%TD*%
D14*
%TO.C,SW33*%
X250992642Y-141919106D03*
X262821765Y-136119901D03*
%TD*%
D33*
%TO.C,D101*%
X152871370Y-164139965D03*
X152509024Y-165492261D03*
X158183962Y-165563469D03*
%TD*%
D35*
%TO.C,D134*%
X354847663Y-144744482D03*
X355210009Y-146096778D03*
X360160255Y-143320978D03*
%TD*%
D36*
%TO.C,C47*%
X115477345Y-146714150D03*
X116404633Y-146962616D03*
%TD*%
D31*
%TO.C,C70*%
X276948820Y-158211317D03*
X277876108Y-157962851D03*
%TD*%
D24*
%TO.C,C92*%
X213019998Y-91853203D03*
X213979998Y-91853203D03*
%TD*%
D36*
%TO.C,C39*%
X119746140Y-94270780D03*
X120673428Y-94519246D03*
%TD*%
D37*
%TO.C,C8*%
X213824828Y-93320001D03*
X213824828Y-94280001D03*
%TD*%
D38*
%TO.C,C21*%
X219114994Y-153650000D03*
X217564994Y-153650000D03*
%TD*%
D39*
%TO.C,C7*%
X208899825Y-110379992D03*
X208899825Y-109419992D03*
%TD*%
D26*
%TO.C,D78*%
X98598712Y-93524496D03*
X98961058Y-92172200D03*
X93286120Y-92100992D03*
%TD*%
%TO.C,D98*%
X172613115Y-111713111D03*
X172975461Y-110360815D03*
X167300523Y-110289607D03*
%TD*%
D24*
%TO.C,C19*%
X205470000Y-98399999D03*
X206430000Y-98399999D03*
%TD*%
D23*
%TO.C,C43*%
X100951406Y-168122796D03*
X100024118Y-167874330D03*
%TD*%
D24*
%TO.C,C98*%
X201920001Y-70125672D03*
X202880001Y-70125672D03*
%TD*%
D23*
%TO.C,C30*%
X68186869Y-106103169D03*
X67259581Y-105854703D03*
%TD*%
D21*
%TO.C,D8*%
X81606578Y-114439278D03*
X81063058Y-116467722D03*
%TD*%
D40*
%TO.C,FB2*%
X176100000Y-73862499D03*
X176100000Y-71737499D03*
%TD*%
D15*
%TO.C,D39*%
X270950899Y-147301972D03*
X271494419Y-149330416D03*
%TD*%
D26*
%TO.C,D90*%
X127799289Y-131753539D03*
X128161635Y-130401243D03*
X122486697Y-130330035D03*
%TD*%
D41*
%TO.C,D136*%
X205727500Y-118700000D03*
X203627500Y-118700000D03*
%TD*%
D42*
%TO.C,C22*%
X217319294Y-157574999D03*
X217319294Y-156024999D03*
%TD*%
D26*
%TO.C,D100*%
X162752113Y-148514877D03*
X163114459Y-147162581D03*
X157439521Y-147091373D03*
%TD*%
D37*
%TO.C,C13*%
X211779825Y-93309993D03*
X211779825Y-94269993D03*
%TD*%
D36*
%TO.C,C50*%
X142712049Y-118676392D03*
X143639337Y-118924858D03*
%TD*%
D26*
%TO.C,D87*%
X98510200Y-167458322D03*
X98872546Y-166106026D03*
X93197608Y-166034818D03*
%TD*%
D43*
%TO.C,U1*%
X195200000Y-88800000D03*
X197500000Y-88800000D03*
D44*
X197500000Y-95100000D03*
D43*
X199800000Y-88800000D03*
%TD*%
D45*
%TO.C,D68*%
X229500007Y-167749988D03*
X230900007Y-167749988D03*
X229500007Y-162249988D03*
%TD*%
D14*
%TO.C,SW59*%
X348954761Y-139501006D03*
X360783884Y-133701801D03*
%TD*%
D31*
%TO.C,C80*%
X313750583Y-148350286D03*
X314677871Y-148101820D03*
%TD*%
D15*
%TO.C,D37*%
X261089887Y-110500193D03*
X261633407Y-112528637D03*
%TD*%
%TO.C,D48*%
X302822157Y-119040063D03*
X303365677Y-121068507D03*
%TD*%
D46*
%TO.C,C97*%
X192500000Y-85625000D03*
X192500000Y-82675000D03*
%TD*%
D47*
%TO.C,J6*%
X234775001Y-73700000D03*
X235550001Y-73700000D03*
D48*
X236750001Y-73700000D03*
X237750001Y-73700000D03*
X238250001Y-73700000D03*
X239250001Y-73700000D03*
D47*
X240450001Y-73700000D03*
X241225001Y-73700000D03*
D48*
X239750001Y-73700000D03*
X238750001Y-73700000D03*
X237250001Y-73700000D03*
X236250001Y-73700000D03*
%TD*%
D33*
%TO.C,D84*%
X108351466Y-109479857D03*
X107989120Y-110832153D03*
X113664058Y-110903361D03*
%TD*%
D49*
%TO.C,C66*%
X262488596Y-196899642D03*
X263167418Y-196220820D03*
%TD*%
D33*
%TO.C,D91*%
X117918550Y-147378608D03*
X117556204Y-148730904D03*
X123231142Y-148802112D03*
%TD*%
D26*
%TO.C,D83*%
X118232217Y-93854778D03*
X118594563Y-92502482D03*
X112919625Y-92431274D03*
%TD*%
D15*
%TO.C,D50*%
X312683145Y-155841834D03*
X313226665Y-157870278D03*
%TD*%
D21*
%TO.C,D61*%
X182754603Y-198179036D03*
X182211083Y-200207480D03*
%TD*%
D14*
%TO.C,SW38*%
X268571793Y-133921804D03*
X280400916Y-128122599D03*
%TD*%
D22*
%TO.C,C64*%
X265006871Y-146446217D03*
X264079583Y-146694683D03*
%TD*%
D14*
%TO.C,SW50*%
X315234557Y-160862568D03*
X327063680Y-155063363D03*
%TD*%
D26*
%TO.C,D95*%
X145173002Y-140517588D03*
X145535348Y-139165292D03*
X139860410Y-139094084D03*
%TD*%
D50*
%TO.C,SW65*%
X220350001Y-67969999D03*
X220350001Y-70179999D03*
X227650001Y-67969999D03*
X227650001Y-70179999D03*
D51*
X221750001Y-70829999D03*
X224750001Y-70829999D03*
X226250001Y-70829999D03*
%TD*%
D52*
%TO.C,R4*%
X207399782Y-131869397D03*
X207399782Y-130849397D03*
%TD*%
D37*
%TO.C,C24*%
X229489999Y-169319996D03*
X229489999Y-170279996D03*
%TD*%
D22*
%TO.C,C67*%
X272725009Y-101647150D03*
X271797721Y-101895616D03*
%TD*%
D33*
%TO.C,D86*%
X98490456Y-146281641D03*
X98128110Y-147633937D03*
X103803048Y-147705145D03*
%TD*%
D36*
%TO.C,C48*%
X129459650Y-180692051D03*
X130386938Y-180940517D03*
%TD*%
D53*
%TO.C,C99*%
X201625000Y-73300000D03*
X203175000Y-73300000D03*
%TD*%
D36*
%TO.C,C40*%
X105910286Y-108815409D03*
X106837574Y-109063875D03*
%TD*%
D54*
%TO.C,R15*%
X201399999Y-74965669D03*
X201399999Y-75985669D03*
%TD*%
D14*
%TO.C,SW58*%
X344024257Y-121100096D03*
X355853380Y-115300891D03*
%TD*%
D35*
%TO.C,D129*%
X335830474Y-147374872D03*
X336192820Y-148727168D03*
X341143066Y-145951368D03*
%TD*%
D15*
%TO.C,D55*%
X332316686Y-155511553D03*
X332860206Y-157539997D03*
%TD*%
D21*
%TO.C,D6*%
X91467576Y-77637496D03*
X90924056Y-79665940D03*
%TD*%
D55*
%TO.C,U3*%
X211874820Y-102774999D03*
D56*
X211874820Y-101424999D03*
D57*
X210524820Y-102774999D03*
D58*
X210524820Y-101424999D03*
D59*
X214637320Y-99499999D03*
X214637320Y-99899999D03*
X214637320Y-100299999D03*
X214637320Y-100699999D03*
X214637320Y-101099999D03*
X214637320Y-101499999D03*
X214637320Y-101899999D03*
X214637320Y-102299999D03*
X214637320Y-102699999D03*
X214637320Y-103099999D03*
X214637320Y-103499999D03*
X214637320Y-103899999D03*
X214637320Y-104299999D03*
X214637320Y-104699999D03*
D60*
X213799820Y-105537499D03*
X213399820Y-105537499D03*
X212999820Y-105537499D03*
X212599820Y-105537499D03*
X212199820Y-105537499D03*
X211799820Y-105537499D03*
X211399820Y-105537499D03*
X210999820Y-105537499D03*
X210599820Y-105537499D03*
X210199820Y-105537499D03*
X209799820Y-105537499D03*
X209399820Y-105537499D03*
X208999820Y-105537499D03*
X208599820Y-105537499D03*
D59*
X207762320Y-104699999D03*
X207762320Y-104299999D03*
X207762320Y-103899999D03*
X207762320Y-103499999D03*
X207762320Y-103099999D03*
X207762320Y-102699999D03*
X207762320Y-102299999D03*
X207762320Y-101899999D03*
X207762320Y-101499999D03*
X207762320Y-101099999D03*
X207762320Y-100699999D03*
X207762320Y-100299999D03*
X207762320Y-99899999D03*
X207762320Y-99499999D03*
D60*
X208599820Y-98662499D03*
X208999820Y-98662499D03*
X209399820Y-98662499D03*
X209799820Y-98662499D03*
X210199820Y-98662499D03*
X210599820Y-98662499D03*
X210999820Y-98662499D03*
X211399820Y-98662499D03*
X211799820Y-98662499D03*
X212199820Y-98662499D03*
X212599820Y-98662499D03*
X212999820Y-98662499D03*
X213399820Y-98662499D03*
X213799820Y-98662499D03*
%TD*%
D61*
%TO.C,Q5*%
X200050001Y-75449999D03*
X198150001Y-75449999D03*
X199100001Y-73574999D03*
%TD*%
D14*
%TO.C,SW43*%
X285945465Y-125157761D03*
X297774588Y-119358556D03*
%TD*%
D21*
%TO.C,D28*%
X155620992Y-132627880D03*
X155077472Y-134656324D03*
%TD*%
D24*
%TO.C,C12*%
X205440000Y-95299999D03*
X206400000Y-95299999D03*
%TD*%
D21*
%TO.C,D21*%
X147902879Y-87828789D03*
X147359359Y-89857233D03*
%TD*%
D26*
%TO.C,D93*%
X155033994Y-103715773D03*
X155396340Y-102363477D03*
X149721402Y-102292269D03*
%TD*%
D22*
%TO.C,C62*%
X255145871Y-109644471D03*
X254218583Y-109892937D03*
%TD*%
D21*
%TO.C,D7*%
X86537088Y-96038378D03*
X85993568Y-98066822D03*
%TD*%
%TO.C,D10*%
X71745570Y-151241056D03*
X71202050Y-153269500D03*
%TD*%
D20*
%TO.C,U10*%
X198149998Y-77538171D03*
X199099998Y-77538171D03*
X200049998Y-77538171D03*
X200049998Y-79813171D03*
X198149998Y-79813171D03*
%TD*%
D40*
%TO.C,FB3*%
X243900001Y-73862499D03*
X243900001Y-71737499D03*
%TD*%
D62*
%TO.C,SW66*%
X198625000Y-68250000D03*
X193375000Y-68250000D03*
X198625000Y-69950000D03*
X193375000Y-69950000D03*
%TD*%
D35*
%TO.C,D127*%
X325969475Y-110573071D03*
X326331821Y-111925367D03*
X331282067Y-109149567D03*
%TD*%
D31*
%TO.C,C81*%
X328321486Y-165638130D03*
X329248774Y-165389664D03*
%TD*%
%TO.C,C84*%
X338094006Y-128506099D03*
X339021294Y-128257633D03*
%TD*%
D24*
%TO.C,C11*%
X205440007Y-96349999D03*
X206400007Y-96349999D03*
%TD*%
D14*
%TO.C,SW57*%
X339093749Y-102699221D03*
X350922872Y-96900016D03*
%TD*%
D31*
%TO.C,C88*%
X342540279Y-108587840D03*
X343467567Y-108339374D03*
%TD*%
D63*
%TO.C,D66*%
X243900000Y-69899999D03*
X243900000Y-68499999D03*
%TD*%
D30*
%TO.C,D130*%
X346435922Y-165704565D03*
X346073576Y-164352269D03*
X341123330Y-167128069D03*
%TD*%
D21*
%TO.C,D18*%
X120668176Y-115866536D03*
X120124656Y-117894980D03*
%TD*%
D35*
%TO.C,D124*%
X316196965Y-147705143D03*
X316559311Y-149057439D03*
X321509557Y-146281639D03*
%TD*%
D64*
%TO.C,R14*%
X212189997Y-136999994D03*
X213209997Y-136999994D03*
%TD*%
D35*
%TO.C,D107*%
X251955050Y-128761702D03*
X252317396Y-130113998D03*
X257267642Y-127338198D03*
%TD*%
D21*
%TO.C,D2*%
X67519883Y-93407984D03*
X66976363Y-95436428D03*
%TD*%
D15*
%TO.C,D47*%
X297891668Y-100639183D03*
X298435188Y-102667627D03*
%TD*%
D47*
%TO.C,J5*%
X178775000Y-73700000D03*
X179550000Y-73700000D03*
D48*
X180750000Y-73700000D03*
X181750000Y-73700000D03*
X182250000Y-73700000D03*
X183250000Y-73700000D03*
D47*
X184450000Y-73700000D03*
X185225000Y-73700000D03*
D48*
X183750000Y-73700000D03*
X182750000Y-73700000D03*
X181250000Y-73700000D03*
X180250000Y-73700000D03*
%TD*%
D15*
%TO.C,D56*%
X331611852Y-79277609D03*
X332155372Y-81306053D03*
%TD*%
D65*
%TO.C,U2*%
X222799998Y-92448204D03*
X222799998Y-93718204D03*
X222799998Y-94988204D03*
X222799998Y-96258204D03*
X215599998Y-96258204D03*
X215599998Y-94988204D03*
X215599998Y-93718204D03*
X215599998Y-92448204D03*
%TD*%
D26*
%TO.C,D85*%
X108371212Y-130656545D03*
X108733558Y-129304249D03*
X103058620Y-129233041D03*
%TD*%
D66*
%TO.C,U9*%
X195099999Y-78175670D03*
X193899999Y-78175670D03*
X195099999Y-78975670D03*
X193899999Y-78975670D03*
D67*
X193524999Y-77125670D03*
X194174999Y-77125670D03*
X194824999Y-77125670D03*
X195474999Y-77125670D03*
X195474999Y-80025670D03*
X194824999Y-80025670D03*
X194174999Y-80025670D03*
X193524999Y-80025670D03*
%TD*%
D26*
%TO.C,D92*%
X127945741Y-180276037D03*
X128308087Y-178923741D03*
X122633149Y-178852533D03*
%TD*%
D22*
%TO.C,C79*%
X319387782Y-128587902D03*
X318460494Y-128836368D03*
%TD*%
D26*
%TO.C,D73*%
X79581510Y-90894099D03*
X79943856Y-89541803D03*
X74268918Y-89470595D03*
%TD*%
D68*
%TO.C,U7*%
X218637496Y-140549998D03*
X218637496Y-141499998D03*
X218637496Y-142449998D03*
X216362496Y-142449998D03*
X216362496Y-140549998D03*
%TD*%
D30*
%TO.C,D108*%
X262560480Y-147091375D03*
X262198134Y-145739079D03*
X257247888Y-148514879D03*
%TD*%
D14*
%TO.C,SW52*%
X320076569Y-105329610D03*
X331905692Y-99530405D03*
%TD*%
D15*
%TO.C,D33*%
X248441261Y-136898399D03*
X248984781Y-138926843D03*
%TD*%
D64*
%TO.C,R28*%
X219290000Y-160334860D03*
X220310000Y-160334860D03*
%TD*%
D14*
%TO.C,SW44*%
X290875982Y-143558642D03*
X302705105Y-137759437D03*
%TD*%
D22*
%TO.C,C89*%
X358038484Y-125627223D03*
X357111196Y-125875689D03*
%TD*%
D35*
%TO.C,D112*%
X269534188Y-120764390D03*
X269896534Y-122116686D03*
X274846780Y-119340886D03*
%TD*%
D30*
%TO.C,D131*%
X345731097Y-89470600D03*
X345368751Y-88118304D03*
X340418505Y-90894104D03*
%TD*%
D21*
%TO.C,D17*%
X125598673Y-97465658D03*
X125055153Y-99494102D03*
%TD*%
D64*
%TO.C,R18*%
X201489999Y-79175670D03*
X202509999Y-79175670D03*
%TD*%
D37*
%TO.C,C14*%
X212799822Y-93319992D03*
X212799822Y-94279992D03*
%TD*%
D52*
%TO.C,R10*%
X216766006Y-168736310D03*
X216766006Y-167716310D03*
%TD*%
D69*
%TO.C,U5*%
X210999998Y-76684999D03*
X210499998Y-76684999D03*
X209999998Y-76684999D03*
X209499998Y-76684999D03*
X208999998Y-76684999D03*
X208999998Y-75914999D03*
X209499998Y-75914999D03*
X209999998Y-75914999D03*
X210499998Y-75914999D03*
X210999998Y-75914999D03*
%TD*%
D15*
%TO.C,D41*%
X273533062Y-83335263D03*
X274076582Y-85363707D03*
%TD*%
D63*
%TO.C,D65*%
X176100000Y-69900000D03*
X176100000Y-68500000D03*
%TD*%
D70*
%TO.C,U8*%
X206424998Y-79175669D03*
X206424998Y-79575669D03*
D71*
X206299998Y-80200669D03*
X205899998Y-80200669D03*
X205499998Y-80200669D03*
X205099998Y-80200669D03*
D70*
X204974998Y-79575669D03*
X204974998Y-79175669D03*
D71*
X205099998Y-78550669D03*
X205499998Y-78550669D03*
X205899998Y-78550669D03*
X206299998Y-78550669D03*
%TD*%
D38*
%TO.C,C3*%
X201325000Y-86700000D03*
X199775000Y-86700000D03*
%TD*%
D14*
%TO.C,SW41*%
X276084470Y-88355996D03*
X287913593Y-82556791D03*
%TD*%
D29*
%TO.C,R12*%
X203410000Y-74600000D03*
X202390000Y-74600000D03*
%TD*%
D33*
%TO.C,D76*%
X59839773Y-143320984D03*
X59477427Y-144673280D03*
X65152365Y-144744488D03*
%TD*%
D22*
%TO.C,C91*%
X367899496Y-162429003D03*
X366972208Y-162677469D03*
%TD*%
D47*
%TO.C,J2*%
X206775001Y-73699999D03*
X207550001Y-73699999D03*
D48*
X208750001Y-73699999D03*
X209750001Y-73699999D03*
X210250001Y-73699999D03*
X211250001Y-73699999D03*
D47*
X212450001Y-73699999D03*
X213225001Y-73699999D03*
D48*
X211750001Y-73699999D03*
X210750001Y-73699999D03*
X209250001Y-73699999D03*
X208250001Y-73699999D03*
%TD*%
D23*
%TO.C,C34*%
X101039916Y-94188958D03*
X100112628Y-93940492D03*
%TD*%
D15*
%TO.C,D54*%
X327386173Y-137110659D03*
X327929693Y-139139103D03*
%TD*%
D38*
%TO.C,C101*%
X173775000Y-73899999D03*
X172225000Y-73899999D03*
%TD*%
D72*
%TO.C,C2*%
X209379784Y-131959404D03*
X208419784Y-131959404D03*
%TD*%
D29*
%TO.C,R13*%
X205210000Y-120300000D03*
X204190000Y-120300000D03*
%TD*%
D33*
%TO.C,D89*%
X127779554Y-110576836D03*
X127417208Y-111929132D03*
X133092146Y-112000340D03*
%TD*%
D21*
%TO.C,D1*%
X72450388Y-75007107D03*
X71906868Y-77035551D03*
%TD*%
D52*
%TO.C,R9*%
X211799998Y-111409998D03*
X211799998Y-110389998D03*
%TD*%
D35*
%TO.C,D117*%
X286907879Y-112000348D03*
X287270225Y-113352644D03*
X292220471Y-110576844D03*
%TD*%
D69*
%TO.C,U12*%
X238999997Y-76684999D03*
X238499997Y-76684999D03*
X237999997Y-76684999D03*
X237499997Y-76684999D03*
X236999997Y-76684999D03*
X236999997Y-75914999D03*
X237499997Y-75914999D03*
X237999997Y-75914999D03*
X238499997Y-75914999D03*
X238999997Y-75914999D03*
%TD*%
D33*
%TO.C,D96*%
X135292252Y-156142641D03*
X134929906Y-157494937D03*
X140604844Y-157566145D03*
%TD*%
D54*
%TO.C,R1*%
X212599783Y-130849404D03*
X212599783Y-131869404D03*
%TD*%
D26*
%TO.C,D77*%
X59859503Y-164497656D03*
X60221849Y-163145360D03*
X54546911Y-163074152D03*
%TD*%
D54*
%TO.C,R8*%
X209424822Y-94839995D03*
X209424822Y-95859995D03*
%TD*%
D39*
%TO.C,C95*%
X196799998Y-78155673D03*
X196799998Y-77195673D03*
%TD*%
D15*
%TO.C,D53*%
X322455661Y-118709785D03*
X322999181Y-120738229D03*
%TD*%
D73*
%TO.C,C58*%
X164294861Y-203689257D03*
X163616039Y-203010435D03*
%TD*%
D30*
%TO.C,D113*%
X280139630Y-139094064D03*
X279777284Y-137741768D03*
X274827038Y-140517568D03*
%TD*%
D45*
%TO.C,D71*%
X190499989Y-162250006D03*
X189099989Y-162250006D03*
X190499989Y-167750006D03*
%TD*%
D72*
%TO.C,C6*%
X214579997Y-113599991D03*
X213619997Y-113599991D03*
%TD*%
D23*
%TO.C,C45*%
X126265643Y-110160853D03*
X125338355Y-109912387D03*
%TD*%
D15*
%TO.C,D32*%
X243510749Y-118497514D03*
X244054269Y-120525958D03*
%TD*%
D74*
%TO.C,SW40*%
X265534113Y-184056585D03*
X275459223Y-175393381D03*
%TD*%
D69*
%TO.C,U11*%
X182999998Y-76684999D03*
X182499998Y-76684999D03*
X181999998Y-76684999D03*
X181499998Y-76684999D03*
X180999998Y-76684999D03*
X180999998Y-75914999D03*
X181499998Y-75914999D03*
X181999998Y-75914999D03*
X182499998Y-75914999D03*
X182999998Y-75914999D03*
%TD*%
D21*
%TO.C,D23*%
X138041880Y-124630565D03*
X137498360Y-126659009D03*
%TD*%
D61*
%TO.C,Q1*%
X191849999Y-79713171D03*
X189949999Y-79713171D03*
X190899999Y-77838171D03*
%TD*%
D36*
%TO.C,C54*%
X174127025Y-112129104D03*
X175054313Y-112377570D03*
%TD*%
D26*
%TO.C,D82*%
X78876699Y-167128040D03*
X79239045Y-165775744D03*
X73564107Y-165704536D03*
%TD*%
D36*
%TO.C,C33*%
X61373422Y-164913648D03*
X62300710Y-165162114D03*
%TD*%
D35*
%TO.C,D132*%
X344986668Y-107942700D03*
X345349014Y-109294996D03*
X350299260Y-106519196D03*
%TD*%
D29*
%TO.C,R2*%
X211609788Y-130759407D03*
X210589788Y-130759407D03*
%TD*%
D75*
%TO.C,D69*%
X217368439Y-183262487D03*
X218068439Y-184474923D03*
X222131579Y-180512487D03*
%TD*%
D22*
%TO.C,C86*%
X348882289Y-165059397D03*
X347955001Y-165307863D03*
%TD*%
D29*
%TO.C,R16*%
X194310000Y-75000000D03*
X193290000Y-75000000D03*
%TD*%
D15*
%TO.C,D36*%
X256159384Y-92099306D03*
X256702904Y-94127750D03*
%TD*%
D37*
%TO.C,C15*%
X215924831Y-98319999D03*
X215924831Y-99279999D03*
%TD*%
D22*
%TO.C,C63*%
X250435963Y-129158381D03*
X249508675Y-129406847D03*
%TD*%
D14*
%TO.C,SW46*%
X295512544Y-87259024D03*
X307341667Y-81459819D03*
%TD*%
D23*
%TO.C,C56*%
X165193326Y-149179335D03*
X164266038Y-148930869D03*
%TD*%
D31*
%TO.C,C72*%
X289171401Y-93131573D03*
X290098689Y-92883107D03*
%TD*%
D14*
%TO.C,SW51*%
X315146057Y-86928739D03*
X326975180Y-81129534D03*
%TD*%
D19*
%TO.C,C23*%
X224317617Y-150761175D03*
X223486233Y-150281175D03*
%TD*%
D35*
%TO.C,D122*%
X306335947Y-110903380D03*
X306698293Y-112255676D03*
X311648539Y-109479876D03*
%TD*%
D23*
%TO.C,C31*%
X72161715Y-128360341D03*
X71234427Y-128111875D03*
%TD*%
D15*
%TO.C,D59*%
X346403351Y-134480271D03*
X346946871Y-136508715D03*
%TD*%
D23*
%TO.C,C29*%
X82022717Y-91558576D03*
X81095429Y-91310110D03*
%TD*%
D14*
%TO.C,SW60*%
X353885255Y-157901879D03*
X365714378Y-152102674D03*
%TD*%
D33*
%TO.C,D99*%
X162732389Y-127338179D03*
X162370043Y-128690475D03*
X168044981Y-128761683D03*
%TD*%
D26*
%TO.C,D80*%
X88737723Y-130326266D03*
X89100069Y-128973970D03*
X83425131Y-128902762D03*
%TD*%
D22*
%TO.C,C61*%
X237897991Y-211990750D03*
X236970703Y-212239216D03*
%TD*%
D14*
%TO.C,SW37*%
X263641288Y-115520922D03*
X275470411Y-109721717D03*
%TD*%
D21*
%TO.C,D9*%
X76676072Y-132840162D03*
X76132552Y-134868606D03*
%TD*%
D31*
%TO.C,C83*%
X323523097Y-111218240D03*
X324450385Y-110969774D03*
%TD*%
D24*
%TO.C,C100*%
X173820001Y-70099999D03*
X174780001Y-70099999D03*
%TD*%
D35*
%TO.C,D109*%
X261816049Y-165563473D03*
X262178395Y-166915769D03*
X267128641Y-164139969D03*
%TD*%
D25*
%TO.C,C71*%
X280242511Y-184802283D03*
X279411127Y-185282283D03*
%TD*%
D53*
%TO.C,C4*%
X195675000Y-97250000D03*
X197225000Y-97250000D03*
%TD*%
D15*
%TO.C,D42*%
X278463585Y-101736155D03*
X279007105Y-103764599D03*
%TD*%
D21*
%TO.C,D22*%
X142972369Y-106229661D03*
X142428849Y-108258105D03*
%TD*%
D28*
%TO.C,C10*%
X203750000Y-95225000D03*
X203750000Y-96775000D03*
%TD*%
D22*
%TO.C,C82*%
X329160298Y-91455830D03*
X328233010Y-91704296D03*
%TD*%
D36*
%TO.C,C32*%
X57398581Y-142656512D03*
X58325869Y-142904978D03*
%TD*%
D76*
%TO.C,FB1*%
X200937501Y-71575671D03*
X203062501Y-71575671D03*
%TD*%
D36*
%TO.C,C55*%
X160291182Y-126673718D03*
X161218470Y-126922184D03*
%TD*%
D24*
%TO.C,C20*%
X205419998Y-76975670D03*
X206379998Y-76975670D03*
%TD*%
D21*
%TO.C,D3*%
X62589380Y-111808889D03*
X62045860Y-113837333D03*
%TD*%
D72*
%TO.C,C102*%
X246180001Y-70099999D03*
X245220001Y-70099999D03*
%TD*%
D30*
%TO.C,D133*%
X355592097Y-126272366D03*
X355229751Y-124920070D03*
X350279505Y-127695870D03*
%TD*%
D36*
%TO.C,C36*%
X90251634Y-130742262D03*
X91178922Y-130990728D03*
%TD*%
D21*
%TO.C,D11*%
X111101099Y-77967789D03*
X110557579Y-79996233D03*
%TD*%
D22*
%TO.C,C78*%
X304816864Y-111300051D03*
X303889576Y-111548517D03*
%TD*%
D30*
%TO.C,D126*%
X326713918Y-92100996D03*
X326351572Y-90748700D03*
X321401326Y-93524500D03*
%TD*%
D15*
%TO.C,D49*%
X307752657Y-137440953D03*
X308296177Y-139469397D03*
%TD*%
D53*
%TO.C,C103*%
X246224998Y-73899998D03*
X247774998Y-73899998D03*
%TD*%
D39*
%TO.C,C5*%
X216400002Y-111379998D03*
X216400002Y-110419998D03*
%TD*%
D15*
%TO.C,D46*%
X292961155Y-82238295D03*
X293504675Y-84266739D03*
%TD*%
D72*
%TO.C,C96*%
X205180000Y-121400000D03*
X204220000Y-121400000D03*
%TD*%
D30*
%TO.C,D111*%
X270278611Y-102292289D03*
X269916265Y-100939993D03*
X264966019Y-103715793D03*
%TD*%
D42*
%TO.C,C93*%
X217000000Y-163174999D03*
X217000000Y-161624999D03*
%TD*%
D77*
%TO.C,D35*%
X244048443Y-196234644D03*
X245533367Y-197719568D03*
%TD*%
D21*
%TO.C,D27*%
X160551489Y-114227000D03*
X160007969Y-116255444D03*
%TD*%
D78*
%TO.C,D70*%
X197868429Y-180512491D03*
X197168429Y-181724927D03*
X202631569Y-183262491D03*
%TD*%
D22*
%TO.C,C76*%
X299810691Y-178197734D03*
X298883403Y-178446200D03*
%TD*%
D46*
%TO.C,C104*%
X196500000Y-85625000D03*
X196500000Y-82675000D03*
%TD*%
D31*
%TO.C,C65*%
X259369669Y-166208618D03*
X260296957Y-165960152D03*
%TD*%
D52*
%TO.C,R5*%
X219099996Y-98809998D03*
X219099996Y-97789998D03*
%TD*%
D35*
%TO.C,D114*%
X279395181Y-157566163D03*
X279757527Y-158918459D03*
X284707773Y-156142659D03*
%TD*%
D30*
%TO.C,D123*%
X316941407Y-129233056D03*
X316579061Y-127880760D03*
X311628815Y-130656560D03*
%TD*%
D23*
%TO.C,C49*%
X157475206Y-104380236D03*
X156547918Y-104131770D03*
%TD*%
D30*
%TO.C,D135*%
X365453113Y-163074149D03*
X365090767Y-161721853D03*
X360140521Y-164497653D03*
%TD*%
D79*
%TO.C,D62*%
X201750012Y-202859990D03*
X201750012Y-204959990D03*
%TD*%
D30*
%TO.C,D128*%
X336574918Y-128902777D03*
X336212572Y-127550481D03*
X331262326Y-130326281D03*
%TD*%
D39*
%TO.C,C17*%
X209899826Y-110069328D03*
X209899826Y-109109328D03*
%TD*%
D34*
%TO.C,D97*%
X146701420Y-188815746D03*
X147401420Y-187603310D03*
X141938280Y-186065746D03*
%TD*%
D36*
%TO.C,C51*%
X146686906Y-140933576D03*
X147614194Y-141182042D03*
%TD*%
%TO.C,C52*%
X132851040Y-155478168D03*
X133778328Y-155726634D03*
%TD*%
D14*
%TO.C,SW54*%
X329937576Y-142131397D03*
X341766699Y-136332192D03*
%TD*%
D15*
%TO.C,D31*%
X238580261Y-100096611D03*
X239123781Y-102125055D03*
%TD*%
D36*
%TO.C,C37*%
X76415758Y-145286891D03*
X77343046Y-145535357D03*
%TD*%
D14*
%TO.C,SW55*%
X334868076Y-160532283D03*
X346697199Y-154733078D03*
%TD*%
D31*
%TO.C,C69*%
X281658721Y-138697382D03*
X282586009Y-138448916D03*
%TD*%
D72*
%TO.C,C16*%
X219679998Y-103099992D03*
X218719998Y-103099992D03*
%TD*%
D14*
%TO.C,SW48*%
X305373556Y-124060792D03*
X317202679Y-118261587D03*
%TD*%
D64*
%TO.C,R17*%
X201489996Y-80275673D03*
X202509996Y-80275673D03*
%TD*%
D15*
%TO.C,D43*%
X283394068Y-120137042D03*
X283937588Y-122165486D03*
%TD*%
%TO.C,D52*%
X317525174Y-100308897D03*
X318068694Y-102337341D03*
%TD*%
D23*
%TO.C,C41*%
X110812411Y-131321005D03*
X109885123Y-131072539D03*
%TD*%
D22*
%TO.C,C75*%
X295252376Y-149208453D03*
X294325088Y-149456919D03*
%TD*%
D80*
%TO.C,D72*%
X202631581Y-146737511D03*
X201931581Y-145525075D03*
X197868441Y-149487511D03*
%TD*%
D21*
%TO.C,D29*%
X150690496Y-151028774D03*
X150146976Y-153057218D03*
%TD*%
D81*
%TO.C,D40*%
X261770198Y-179867287D03*
X262820198Y-181685941D03*
%TD*%
D37*
%TO.C,C94*%
X218299993Y-162319995D03*
X218299993Y-163279995D03*
%TD*%
D82*
%TO.C,Y1*%
X214950007Y-109800000D03*
X214950007Y-112000000D03*
X213250007Y-112000000D03*
X213250007Y-109800000D03*
%TD*%
D22*
%TO.C,C74*%
X299959695Y-129684866D03*
X299032407Y-129933332D03*
%TD*%
D24*
%TO.C,C18*%
X204119884Y-103099994D03*
X205079884Y-103099994D03*
%TD*%
D83*
%TO.C,C26*%
X195682379Y-179238830D03*
X196513763Y-179718830D03*
%TD*%
D14*
%TO.C,SW53*%
X325007070Y-123730500D03*
X336836193Y-117931295D03*
%TD*%
D84*
%TO.C,SW35*%
X248768383Y-199307037D03*
X256113101Y-188370217D03*
%TD*%
D14*
%TO.C,SW34*%
X255923148Y-160319996D03*
X267752271Y-154520791D03*
%TD*%
D52*
%TO.C,R11*%
X203199998Y-162010004D03*
X203199998Y-160990004D03*
%TD*%
D85*
%TO.C,D25*%
X143940409Y-171617301D03*
X142890409Y-173435955D03*
%TD*%
D21*
%TO.C,D24*%
X133111377Y-143031442D03*
X132567857Y-145059886D03*
%TD*%
D36*
%TO.C,C35*%
X86276750Y-108485099D03*
X87204038Y-108733565D03*
%TD*%
D29*
%TO.C,R3*%
X209409784Y-130759399D03*
X208389784Y-130759399D03*
%TD*%
D64*
%TO.C,R25*%
X201489998Y-78075670D03*
X202509998Y-78075670D03*
%TD*%
D31*
%TO.C,C73*%
X284461497Y-112645491D03*
X285388785Y-112397025D03*
%TD*%
D63*
%TO.C,D64*%
X204100000Y-69899999D03*
X204100000Y-68499999D03*
%TD*%
D33*
%TO.C,D94*%
X145153235Y-119340852D03*
X144790889Y-120693148D03*
X150465827Y-120764356D03*
%TD*%
D21*
%TO.C,D26*%
X165481997Y-95826110D03*
X164938477Y-97854554D03*
%TD*%
D35*
%TO.C,D119*%
X296768881Y-148802117D03*
X297131227Y-150154413D03*
X302081473Y-147378613D03*
%TD*%
D15*
%TO.C,D38*%
X266020387Y-128901066D03*
X266563907Y-130929510D03*
%TD*%
D31*
%TO.C,C68*%
X267087812Y-121409547D03*
X268015100Y-121161081D03*
%TD*%
D30*
%TO.C,D120*%
X297366892Y-178852540D03*
X297004546Y-177500244D03*
X292054300Y-180276044D03*
%TD*%
D24*
%TO.C,C1*%
X210619789Y-131959403D03*
X211579789Y-131959403D03*
%TD*%
D14*
%TO.C,SW42*%
X281014969Y-106756878D03*
X292844092Y-100957673D03*
%TD*%
D80*
%TO.C,D115*%
X278046462Y-186058636D03*
X277346462Y-184846200D03*
X273283322Y-188808636D03*
%TD*%
D30*
%TO.C,D116*%
X287652296Y-93528257D03*
X287289950Y-92175961D03*
X282339704Y-94951761D03*
%TD*%
D86*
%TO.C,D110*%
X261371366Y-198002757D03*
X260381417Y-197012808D03*
X257482279Y-201891844D03*
%TD*%
D64*
%TO.C,R6*%
X224490000Y-92600000D03*
X225510000Y-92600000D03*
%TD*%
D31*
%TO.C,C87*%
X347250162Y-89073923D03*
X348177450Y-88825457D03*
%TD*%
D21*
%TO.C,D5*%
X52728388Y-148610650D03*
X52184868Y-150639094D03*
%TD*%
D64*
%TO.C,R26*%
X201489998Y-76975670D03*
X202509998Y-76975670D03*
%TD*%
D23*
%TO.C,C57*%
X151357459Y-163723975D03*
X150430171Y-163475509D03*
%TD*%
D14*
%TO.C,SW56*%
X334163255Y-84298343D03*
X345992378Y-78499138D03*
%TD*%
D33*
%TO.C,D74*%
X69700768Y-106519192D03*
X69338422Y-107871488D03*
X75013360Y-107942696D03*
%TD*%
D23*
%TO.C,C59*%
X192326942Y-214730524D03*
X191399654Y-214482058D03*
%TD*%
D87*
%TO.C,D30*%
X164284317Y-184567399D03*
X162799393Y-186052323D03*
%TD*%
D22*
%TO.C,C77*%
X309526762Y-91786137D03*
X308599474Y-92034603D03*
%TD*%
D54*
%TO.C,R7*%
X210574823Y-94840006D03*
X210574823Y-95860006D03*
%TD*%
D15*
%TO.C,D51*%
X312594666Y-81907996D03*
X313138186Y-83936440D03*
%TD*%
D14*
%TO.C,SW36*%
X258710766Y-97120040D03*
X270539889Y-91320835D03*
%TD*%
D33*
%TO.C,D79*%
X88717968Y-109149575D03*
X88355622Y-110501871D03*
X94030560Y-110573079D03*
%TD*%
D14*
%TO.C,SW39*%
X273502288Y-152322688D03*
X285331411Y-146523483D03*
%TD*%
%TO.C,SW32*%
X246062140Y-123518233D03*
X257891263Y-117719028D03*
%TD*%
D21*
%TO.C,D12*%
X106170582Y-96368683D03*
X105627062Y-98397127D03*
%TD*%
D88*
%TO.C,C25*%
X215172382Y-184518831D03*
X216003766Y-184038831D03*
%TD*%
D15*
%TO.C,D45*%
X283247644Y-168659562D03*
X283791164Y-170688006D03*
%TD*%
%TO.C,D44*%
X288324579Y-138537907D03*
X288868099Y-140566351D03*
%TD*%
D21*
%TO.C,D15*%
X91379097Y-151571318D03*
X90835577Y-153599762D03*
%TD*%
%TO.C,D13*%
X101240083Y-114769550D03*
X100696563Y-116797994D03*
%TD*%
D30*
%TO.C,D121*%
X307080392Y-92431282D03*
X306718046Y-91078986D03*
X301767800Y-93854786D03*
%TD*%
D21*
%TO.C,D20*%
X120814612Y-164389060D03*
X120271092Y-166417504D03*
%TD*%
D39*
%TO.C,C27*%
X190510003Y-160680002D03*
X190510003Y-159720002D03*
%TD*%
D26*
%TO.C,D88*%
X137660312Y-94951747D03*
X138022658Y-93599451D03*
X132347720Y-93528243D03*
%TD*%
D30*
%TO.C,D118*%
X297513326Y-130330041D03*
X297150980Y-128977745D03*
X292200734Y-131753545D03*
%TD*%
M02*
