M48
; DRILL file {KiCad 7.0.6} date Sat Jul 29 11:05:59 2023
; FORMAT={-:-/ absolute / inch / decimal}
; #@! TF.CreationDate,2023-07-29T11:05:59+01:00
; #@! TF.GenerationSoftware,Kicad,Pcbnew,7.0.6
; #@! TF.FileFunction,NonPlated,1,2,NPTH
FMAT,2
INCH
; #@! TA.AperFunction,NonPlated,NPTH,ComponentDrill
T1C0.0197
; #@! TA.AperFunction,NonPlated,NPTH,ComponentDrill
T2C0.0205
; #@! TA.AperFunction,NonPlated,NPTH,ComponentDrill
T3C0.0390
; #@! TA.AperFunction,NonPlated,NPTH,ComponentDrill
T4C0.0454
; #@! TA.AperFunction,NonPlated,NPTH,ComponentDrill
T5C0.1181
; #@! TA.AperFunction,NonPlated,NPTH,ComponentDrill
T6C0.1570
%
G90
G05
T1
X7.0469Y-8.1606
X7.0469Y-8.4547
X7.076Y-8.1606
X7.076Y-8.4547
X7.1051Y-8.1606
X7.1051Y-8.4547
X7.1343Y-8.1606
X7.1343Y-8.4547
X8.4563Y-8.1606
X8.4563Y-8.4547
X8.4854Y-8.1606
X8.4854Y-8.4547
X8.5146Y-8.1606
X8.5146Y-8.4547
X8.5437Y-8.1606
X8.5437Y-8.4547
T2
X7.6476Y-8.5906
X7.9429Y-8.5906
T3
X7.3173Y-3.8537
X7.3173Y-3.9337
X7.5173Y-3.8937
T4
X2.4055Y-2.283
X7.7953Y-7.4106
X13.189Y-2.283
T5
X1.7162Y-5.4476
X1.9103Y-4.7232
X2.1044Y-3.9987
X2.2985Y-3.2743
X2.4649Y-5.5512
X2.4926Y-2.5498
X2.659Y-4.8267
X2.8531Y-4.1023
X3.0472Y-3.3778
X3.2379Y-5.5642
X3.2413Y-2.6534
X3.432Y-4.8397
X3.6261Y-4.1153
X3.8202Y-3.3908
X4.0143Y-2.6664
X4.1969Y-4.8829
X4.391Y-4.1585
X4.3967Y-6.0688
X4.5851Y-3.434
X4.7792Y-2.7096
X4.8809Y-5.228
X5.075Y-4.5035
X5.2133Y-6.3646
X5.2691Y-3.7791
X5.4632Y-3.0546
X5.573Y-5.5428
X5.7671Y-4.8184
X5.9254Y-6.8617
X5.9612Y-4.0939
X6.1553Y-3.3695
X6.8281Y-6.6373
X7.6453Y-6.9366
X7.6453Y-7.6866
X8.5026Y-6.7873
X9.1455Y-3.4471
X9.3396Y-4.1716
X9.453Y-7.0739
X9.5337Y-4.896
X9.7278Y-5.6205
X9.8376Y-3.1323
X10.0317Y-3.8567
X10.1175Y-6.5146
X10.2258Y-4.5812
X10.4199Y-5.3056
X10.5216Y-2.7872
X10.7157Y-3.5117
X10.904Y-6.1465
X10.9098Y-4.2361
X11.1039Y-4.9606
X11.2865Y-2.744
X11.4806Y-3.4685
X11.6747Y-4.1929
X11.8688Y-4.9174
X12.0594Y-2.731
X12.0629Y-5.6418
X12.2535Y-3.4555
X12.4477Y-4.1799
X12.6418Y-4.9044
X12.8081Y-2.6275
X12.8359Y-5.6288
X13.0022Y-3.3519
X13.1964Y-4.0764
X13.3905Y-4.8008
X13.5846Y-5.5253
T6
X1.8352Y-5.583
X2.0293Y-4.8586
X2.2234Y-4.1341
X2.4175Y-3.4097
X2.5839Y-5.6866
X2.6116Y-2.6852
X2.778Y-4.9621
X2.9721Y-4.2377
X3.1662Y-3.5133
X3.3569Y-5.6996
X3.3604Y-2.7888
X3.551Y-4.9751
X3.7451Y-4.2507
X3.9392Y-3.5263
X4.1333Y-2.8018
X4.3159Y-5.0183
X4.51Y-4.2939
X4.5157Y-6.2042
X4.7041Y-3.5694
X4.8982Y-2.845
X4.9999Y-5.3634
X5.194Y-4.6389
X5.2932Y-6.5262
X5.3881Y-3.9145
X5.5822Y-3.19
X5.692Y-5.6782
X5.8861Y-4.9538
X5.9608Y-7.0385
X6.0802Y-4.2293
X6.2743Y-3.5049
X6.908Y-6.7989
X7.3265Y-7.4616
X7.7953Y-7.0366
X7.7953Y-7.7866
X8.264Y-7.4616
X8.6825Y-6.7989
X9.3162Y-3.5049
X9.5104Y-4.2293
X9.6298Y-7.0385
X9.7045Y-4.9538
X9.8986Y-5.6782
X10.0083Y-3.19
X10.2025Y-3.9145
X10.2974Y-6.5262
X10.3966Y-4.6389
X10.5907Y-5.3634
X10.6923Y-2.845
X10.8865Y-3.5694
X11.0748Y-6.2042
X11.0806Y-4.2939
X11.2747Y-5.0183
X11.4572Y-2.8018
X11.6513Y-3.5263
X11.8455Y-4.2507
X12.0396Y-4.9751
X12.2302Y-2.7888
X12.2337Y-5.6996
X12.4243Y-3.5133
X12.6184Y-4.2377
X12.8125Y-4.9621
X12.9789Y-2.6852
X13.0067Y-5.6866
X13.173Y-3.4097
X13.3671Y-4.1341
X13.5612Y-4.8586
X13.7554Y-5.583
T0
M30
