M48
; DRILL file {KiCad 7.0.5} date Thu Jul  6 12:29:14 2023
; FORMAT={-:-/ absolute / inch / decimal}
; #@! TF.CreationDate,2023-07-06T12:29:14+01:00
; #@! TF.GenerationSoftware,Kicad,Pcbnew,7.0.5
; #@! TF.FileFunction,NonPlated,1,2,NPTH
FMAT,2
INCH
; #@! TA.AperFunction,NonPlated,NPTH,ComponentDrill
T1C0.0295
; #@! TA.AperFunction,NonPlated,NPTH,ComponentDrill
T2C0.0354
; #@! TA.AperFunction,NonPlated,NPTH,ComponentDrill
T3C0.0454
; #@! TA.AperFunction,NonPlated,NPTH,ComponentDrill
T4C0.0689
; #@! TA.AperFunction,NonPlated,NPTH,ComponentDrill
T5C0.0866
; #@! TA.AperFunction,NonPlated,NPTH,ComponentDrill
T6C0.1570
; #@! TA.AperFunction,NonPlated,NPTH,ComponentDrill
T7C0.1575
; #@! TA.AperFunction,NonPlated,NPTH,ComponentDrill
T8C0.1654
%
G90
G05
T1
X7.2441Y-2.204
X7.2441Y-2.3123
T2
X8.2874Y-2.2491
X8.4055Y-2.2491
T3
X2.5787Y-2.5692
X7.7953Y-7.6969
X13.0157Y-2.5692
T4
X1.642Y-5.8175
X1.8361Y-5.093
X2.0284Y-5.921
X2.0302Y-4.3686
X2.2225Y-5.1966
X2.2243Y-3.6441
X2.3907Y-5.921
X2.4166Y-4.4721
X2.4185Y-2.9197
X2.5848Y-5.1966
X2.6107Y-3.7477
X2.7771Y-6.0246
X2.7789Y-4.4722
X2.8048Y-3.0232
X2.9712Y-5.3001
X2.9731Y-3.7477
X3.1637Y-5.934
X3.1653Y-4.5757
X3.1672Y-3.0233
X3.3578Y-5.2096
X3.3594Y-3.8512
X3.5501Y-6.0376
X3.5519Y-4.4852
X3.5535Y-3.1268
X3.7442Y-5.3131
X3.746Y-3.7607
X3.9383Y-4.5887
X3.9401Y-3.0363
X4.1227Y-5.2528
X4.1324Y-3.8642
X4.3168Y-4.5283
X4.3226Y-6.4387
X4.3265Y-3.1398
X4.5091Y-5.3563
X4.5109Y-3.8039
X4.7032Y-4.6319
X4.705Y-3.0795
X4.7089Y-6.5422
X4.8067Y-5.5978
X4.8973Y-3.9074
X5.0008Y-4.8734
X5.0914Y-3.183
X5.12Y-6.7125
X5.1931Y-5.7014
X5.1949Y-4.1489
X5.3872Y-4.9769
X5.389Y-3.4245
X5.4664Y-6.9125
X5.4988Y-5.9127
X5.5813Y-4.2525
X5.6929Y-5.1882
X5.7754Y-3.528
X5.8193Y-7.1833
X5.8851Y-6.0162
X5.887Y-4.4638
X6.0793Y-5.2918
X6.0811Y-3.7393
X6.1022Y-7.4661
X6.2734Y-4.5673
X6.4675Y-3.8429
X6.7348Y-6.9851
X7.0812Y-7.1851
X7.5953Y-7.3228
X7.5953Y-8.0728
X7.9953Y-7.3228
X7.9953Y-8.0728
X8.5093Y-7.1851
X8.8557Y-6.9851
X9.1231Y-3.8429
X9.3172Y-4.5673
X9.4884Y-7.4661
X9.5094Y-3.7393
X9.5113Y-5.2918
X9.7035Y-4.4638
X9.7054Y-6.0162
X9.7712Y-7.1833
X9.8152Y-3.528
X9.8977Y-5.1882
X10.0093Y-4.2525
X10.0918Y-5.9127
X10.1242Y-6.9125
X10.2015Y-3.4245
X10.2034Y-4.9769
X10.3956Y-4.1489
X10.3975Y-5.7014
X10.4706Y-6.7125
X10.4992Y-3.183
X10.5897Y-4.8734
X10.6933Y-3.9074
X10.7839Y-5.5978
X10.8816Y-6.5422
X10.8855Y-3.0795
X10.8874Y-4.6319
X11.0796Y-3.8039
X11.0815Y-5.3563
X11.264Y-3.1398
X11.268Y-6.4387
X11.2738Y-4.5283
X11.4582Y-3.8642
X11.4679Y-5.2528
X11.6504Y-3.0363
X11.6523Y-4.5887
X11.8445Y-3.7607
X11.8464Y-5.3131
X12.037Y-3.1268
X12.0386Y-4.4852
X12.0405Y-6.0376
X12.2311Y-3.8512
X12.2328Y-5.2096
X12.4234Y-3.0233
X12.4252Y-4.5757
X12.4269Y-5.934
X12.6175Y-3.7477
X12.6194Y-5.3001
X12.7857Y-3.0232
X12.8116Y-4.4722
X12.8135Y-6.0246
X12.9798Y-3.7477
X13.0057Y-5.1966
X13.1721Y-2.9197
X13.1739Y-4.4721
X13.1998Y-5.921
X13.3662Y-3.6441
X13.3681Y-5.1966
X13.5603Y-4.3686
X13.5622Y-5.921
X13.7544Y-5.093
X13.9485Y-5.8175
T5
X6.9025Y-5.3224
X8.4751Y-6.2864
T6
X1.8352Y-5.8692
X2.0293Y-5.1448
X2.2234Y-4.4204
X2.4175Y-3.6959
X2.5839Y-5.9728
X2.6116Y-2.9715
X2.778Y-5.2484
X2.9721Y-4.5239
X3.1662Y-3.7995
X3.3569Y-5.9858
X3.3604Y-3.075
X3.551Y-5.2614
X3.7451Y-4.5369
X3.9392Y-3.8125
X4.1333Y-3.088
X4.3159Y-5.3046
X4.51Y-4.5801
X4.5157Y-6.4904
X4.7041Y-3.8557
X4.8982Y-3.1312
X4.9999Y-5.6496
X5.194Y-4.9251
X5.2932Y-6.8125
X5.3881Y-4.2007
X5.5822Y-3.4763
X5.692Y-5.9644
X5.8861Y-5.24
X5.9608Y-7.3247
X6.0802Y-4.5156
X6.2743Y-3.7911
X6.908Y-7.0851
X7.3265Y-7.7478
X7.7953Y-7.3228
X7.7953Y-8.0728
X8.264Y-7.7478
X8.6825Y-7.0851
X9.3162Y-3.7911
X9.5104Y-4.5156
X9.6298Y-7.3247
X9.7045Y-5.24
X9.8986Y-5.9644
X10.0083Y-3.4763
X10.2025Y-4.2007
X10.2974Y-6.8125
X10.3966Y-4.9251
X10.5907Y-5.6496
X10.6923Y-3.1312
X10.8865Y-3.8557
X11.0748Y-6.4904
X11.0806Y-4.5801
X11.2747Y-5.3046
X11.4572Y-3.088
X11.6513Y-3.8125
X11.8455Y-4.5369
X12.0396Y-5.2614
X12.2302Y-3.075
X12.2337Y-5.9858
X12.4243Y-3.7995
X12.6184Y-4.5239
X12.8125Y-5.2484
X12.9789Y-2.9715
X13.0067Y-5.9728
X13.173Y-3.6959
X13.3671Y-4.4204
X13.5612Y-5.1448
X13.7554Y-5.8692
T7
X7.3189Y-4.8371
X8.7199Y-5.6138
T8
X7.3466Y-6.4385
T0
M30
