M48
; DRILL file {KiCad (7.0.0)} date Thu Mar  9 16:38:34 2023
; FORMAT={-:-/ absolute / inch / decimal}
; #@! TF.CreationDate,2023-03-09T16:38:34+00:00
; #@! TF.GenerationSoftware,Kicad,Pcbnew,(7.0.0)
; #@! TF.FileFunction,Plated,1,2,PTH
FMAT,2
INCH
; #@! TA.AperFunction,Plated,PTH,ViaDrill
T1C0.0098
; #@! TA.AperFunction,Plated,PTH,ViaDrill
T2C0.0118
; #@! TA.AperFunction,Plated,PTH,ComponentDrill
T3C0.0118
; #@! TA.AperFunction,Plated,PTH,ComponentDrill
T4C0.0236
; #@! TA.AperFunction,Plated,PTH,ComponentDrill
T5C0.0276
; #@! TA.AperFunction,Plated,PTH,ComponentDrill
T6C0.0394
; #@! TA.AperFunction,Plated,PTH,ComponentDrill
T7C0.0413
; #@! TA.AperFunction,Plated,PTH,ComponentDrill
T8C0.0591
; #@! TA.AperFunction,Plated,PTH,ComponentDrill
T9C0.0787
; #@! TA.AperFunction,Plated,PTH,ComponentDrill
T10C0.1260
%
G90
G05
T1
X1.5213Y-4.3938
X1.7778Y-3.689
X2.0343Y-2.9843
X2.2581Y-4.5622
X2.2908Y-2.2795
X2.5146Y-3.8575
X2.5472Y-1.388
X2.5473Y-1.5747
X2.7711Y-3.1527
X3.027Y-4.6426
X3.0276Y-2.4479
X3.2835Y-3.9378
X3.2842Y-1.7432
X3.2843Y-1.5569
X3.54Y-3.233
X3.7965Y-2.5282
X4.0417Y-4.0475
X4.0531Y-1.8235
X4.0531Y-1.6372
X4.1375Y-5.2463
X4.2982Y-3.3427
X4.5547Y-2.6379
X4.693Y-4.4508
X4.8113Y-1.9332
X4.8114Y-1.7474
X4.9176Y-5.739
X4.9496Y-3.746
X5.2061Y-3.0413
X5.3551Y-4.8248
X5.4626Y-2.3365
X5.4626Y-2.1498
X5.4937Y-4.7254
X5.536Y-4.7404
X5.5389Y-6.4157
X5.6116Y-4.12
X5.8472Y-6.3874
X5.8642Y-6.326
X5.8681Y-3.4153
X5.9574Y-6.5369
X5.9574Y-6.2567
X6.0052Y-3.3154
X6.037Y-3.2253
X6.0488Y-3.3313
X6.1244Y-2.5238
X6.1246Y-2.7105
X6.2889Y-3.3171
X6.4311Y-5.0687
X6.5161Y-1.7734
X6.5382Y-1.751
X6.5614Y-5.1986
X6.6358Y-2.0333
X6.6594Y-2.0923
X6.7244Y-1.2207
X6.7815Y-1.0352
X6.7941Y-4.7221
X6.8091Y-2.1573
X6.8091Y-1.6751
X6.8386Y-0.9368
X6.8583Y-1.0333
X6.8695Y-4.7301
X6.878Y-4.5667
X6.8976Y-1.0352
X6.9154Y-4.3368
X6.924Y-4.4211
X6.9281Y-1.7992
X6.9351Y-4.5411
X6.9389Y-1.6426
X6.9961Y-4.5411
X7.187Y-5.0254
X7.2815Y-1.7439
X7.5526Y-3.3332
X7.6422Y-3.3334
X7.6854Y-3.3177
X7.7343Y-6.2564
X7.7343Y-6.3515
X7.7936Y-3.9969
X7.8641Y-3.9973
X7.9228Y-2.3967
X8.0664Y-4.7435
X8.1304Y-2.5073
X8.1553Y-4.744
X8.1986Y-4.7274
X8.3869Y-3.2121
X8.4598Y-2.0683
X8.5397Y-5.9607
X8.6434Y-3.9169
X8.7924Y-2.1334
X8.8999Y-4.6217
X9.0489Y-2.8381
X9.1362Y-1.6557
X9.2657Y-5.3983
X9.3054Y-3.5429
X9.4437Y-1.73
X9.5619Y-4.2477
X9.7002Y-2.4348
X9.8984Y-1.5443
X9.9567Y-3.1396
X10.1175Y-5.0431
X10.2019Y-1.6203
X10.2133Y-3.8443
X10.4584Y-2.3251
X10.7149Y-3.0299
X10.7295Y-1.4415
X10.9708Y-1.54
X10.9715Y-3.7346
X11.2273Y-2.2448
X11.228Y-4.4394
X11.2921Y-1.2939
X11.4838Y-2.9496
X11.7076Y-1.3716
X11.7404Y-3.6543
X11.9642Y-2.0764
X11.9969Y-4.3591
X12.2207Y-2.7811
X12.4772Y-3.4859
X12.7337Y-4.1907
T2
X0.9459Y-4.5802
X0.9545Y-4.5565
X0.9696Y-4.5888
X0.9782Y-4.5652
X1.1535Y-3.8595
X1.1633Y-3.8327
X1.3129Y-4.7741
X1.3227Y-4.7473
X1.4589Y-3.1707
X1.4676Y-3.147
X1.4826Y-3.1793
X1.4912Y-3.1556
X1.498Y-4.0417
X1.5067Y-4.018
X1.5217Y-4.0503
X1.5303Y-4.0266
X1.6666Y-2.45
X1.6763Y-2.4232
X1.6827Y-4.7486
X1.6914Y-4.725
X1.7064Y-4.7573
X1.715Y-4.7336
X1.826Y-3.3646
X1.8357Y-3.3378
X1.8904Y-4.028
X1.9001Y-4.0011
X1.972Y-1.7611
X1.9806Y-1.7375
X1.9957Y-1.7698
X2.0043Y-1.7461
X2.0111Y-2.6322
X2.0197Y-2.6085
X2.0348Y-2.6408
X2.0434Y-2.6171
X2.0498Y-4.9426
X2.0595Y-4.9157
X2.1958Y-3.3391
X2.2044Y-3.3154
X2.2195Y-3.3477
X2.2281Y-3.324
X2.2349Y-4.2101
X2.2435Y-4.1864
X2.2586Y-4.2187
X2.2672Y-4.1951
X2.339Y-1.9551
X2.3488Y-1.9282
X2.4034Y-2.6184
X2.4132Y-2.5916
X2.4516Y-4.829
X2.4603Y-4.8053
X2.4753Y-4.8376
X2.4839Y-4.8139
X2.5628Y-3.533
X2.5726Y-3.5062
X2.6593Y-4.1083
X2.669Y-4.0815
X2.7088Y-1.9296
X2.7174Y-1.9059
X2.7325Y-1.9382
X2.7411Y-1.9145
X2.7479Y-2.8006
X2.7565Y-2.7769
X2.7716Y-2.8092
X2.7802Y-2.7855
X2.8187Y-5.0229
X2.8284Y-4.9961
X2.9647Y-3.4194
X2.9733Y-3.3957
X2.9884Y-3.428
X2.997Y-3.4044
X3.0038Y-4.2904
X3.0124Y-4.2668
X3.0275Y-4.2991
X3.0361Y-4.2754
X3.0758Y-2.1235
X3.0856Y-2.0967
X3.1723Y-2.6987
X3.1821Y-2.6719
X3.3317Y-3.6133
X3.3415Y-3.5865
X3.4175Y-4.218
X3.4272Y-4.1912
X3.4777Y-2.0099
X3.4863Y-1.9862
X3.5014Y-2.0185
X3.51Y-1.9948
X3.5168Y-2.8809
X3.5254Y-2.8572
X3.5405Y-2.8895
X3.5491Y-2.8658
X3.5621Y-5.4327
X3.5708Y-5.409
X3.5858Y-5.4413
X3.5944Y-5.4176
X3.7229Y-3.5291
X3.7315Y-3.5054
X3.7466Y-3.5377
X3.7552Y-3.5141
X3.762Y-4.4001
X3.7706Y-4.3765
X3.7857Y-4.4087
X3.7943Y-4.3851
X3.8447Y-2.2038
X3.8545Y-2.177
X3.9292Y-5.6266
X3.9305Y-2.8084
X3.9389Y-5.5998
X3.9403Y-2.7816
X4.0688Y-4.6213
X4.0786Y-4.5945
X4.0899Y-3.723
X4.0997Y-3.6962
X4.2359Y-2.1196
X4.2445Y-2.0959
X4.2596Y-2.1282
X4.2682Y-2.1045
X4.275Y-2.9906
X4.2836Y-2.9669
X4.2987Y-2.9992
X4.3073Y-2.9755
X4.313Y-5.7704
X4.3275Y-5.7497
X4.3337Y-5.7848
X4.3481Y-5.7642
X4.3742Y-3.9325
X4.3828Y-3.9088
X4.3979Y-3.9411
X4.4065Y-3.9174
X4.4133Y-4.8035
X4.4219Y-4.7798
X4.437Y-4.8121
X4.4456Y-4.7884
X4.5818Y-3.2118
X4.5916Y-3.185
X4.6029Y-2.3135
X4.6127Y-2.2867
X4.6174Y-6.0527
X4.6337Y-6.0293
X4.7308Y-4.9953
X4.7406Y-4.9685
X4.7412Y-4.1264
X4.751Y-4.0996
X4.8872Y-2.5229
X4.8959Y-2.4992
X4.9109Y-2.5315
X4.9195Y-2.5079
X4.9263Y-3.3939
X4.935Y-3.3703
X4.9473Y-6.2895
X4.95Y-3.4026
X4.9586Y-3.3789
X4.9635Y-6.3088
X4.9666Y-6.2734
X4.9828Y-6.2927
X5.0362Y-4.3064
X5.0449Y-4.2828
X5.0599Y-4.3151
X5.0685Y-4.2914
X5.0753Y-5.1775
X5.0839Y-5.1538
X5.099Y-5.1861
X5.1076Y-5.1624
X5.1682Y-6.641
X5.1901Y-6.6227
X5.2439Y-3.5858
X5.2536Y-3.5589
X5.2543Y-2.7168
X5.264Y-2.69
X5.2836Y-5.1224
X5.3113Y-5.1325
X5.4033Y-4.5004
X5.413Y-4.4735
X5.4836Y-4.5732
X5.5113Y-4.5833
X5.5493Y-2.8969
X5.5579Y-2.8732
X5.5729Y-2.9055
X5.5816Y-2.8818
X5.5884Y-3.7679
X5.597Y-3.7442
X5.612Y-3.7765
X5.6207Y-3.7529
X5.7892Y-6.9517
X5.7957Y-6.9274
X5.7966Y-3.7129
X5.8135Y-6.9582
X5.82Y-6.9339
X5.8243Y-3.723
X5.9163Y-3.0908
X5.9261Y-3.064
X5.9966Y-3.1636
X6.013Y-5.2904
X6.013Y-5.3156
X6.0244Y-3.1737
X6.0382Y-5.3156
X6.0382Y-5.2904
X6.0504Y-4.8098
X6.0504Y-4.8354
X6.0663Y-4.9043
X6.076Y-4.8098
X6.076Y-4.8354
X6.0949Y-4.9043
X6.1653Y-1.2841
X6.1653Y-1.3179
X6.1717Y-7.1129
X6.1791Y-7.0853
X6.182Y-5.6544
X6.1963Y-5.6297
X6.224Y-1.4864
X6.224Y-1.4608
X6.224Y-1.512
X6.2496Y-1.4864
X6.2496Y-1.4608
X6.2496Y-1.512
X6.2752Y-1.4864
X6.2752Y-1.4608
X6.2752Y-1.512
X6.304Y-4.4344
X6.3091Y-1.2278
X6.3091Y-1.2533
X6.3164Y-4.4558
X6.3285Y-4.4202
X6.3346Y-1.2278
X6.3346Y-1.2533
X6.3409Y-4.4417
X6.3602Y-1.2278
X6.3602Y-1.2533
X6.3858Y-1.2278
X6.3858Y-1.2533
X6.4215Y-7.1585
X6.4215Y-7.1841
X6.4228Y-1.4864
X6.4228Y-1.4608
X6.4228Y-1.512
X6.447Y-7.1585
X6.447Y-7.1841
X6.4484Y-1.4864
X6.4484Y-1.4608
X6.4484Y-1.512
X6.4543Y-1.7045
X6.4543Y-2.3297
X6.4543Y-2.4821
X6.474Y-1.4864
X6.474Y-1.4608
X6.474Y-1.512
X6.4996Y-3.7679
X6.5295Y-1.2526
X6.5531Y-1.2526
X6.5647Y-5.9365
X6.5773Y-5.9147
X6.5815Y-1.9309
X6.5865Y-5.9491
X6.5989Y-1.634
X6.5991Y-5.9273
X6.613Y-2.4821
X6.6174Y-4.3521
X6.6264Y-1.634
X6.6401Y-4.3394
X6.6565Y-1.7665
X6.6565Y-1.6533
X6.6571Y-1.6947
X6.6683Y-2.7065
X6.6683Y-2.8167
X6.6683Y-2.7341
X6.6683Y-2.7616
X6.6683Y-2.8443
X6.6683Y-2.7892
X6.6685Y-7.1151
X6.6685Y-7.0899
X6.6843Y-1.0352
X6.687Y-1.5589
X6.6937Y-7.1151
X6.6937Y-7.0899
X6.7024Y-1.0813
X6.7024Y-1.1061
X6.7024Y-1.1309
X6.7087Y-3.7681
X6.7146Y-1.5589
X6.7272Y-1.0813
X6.7272Y-1.1061
X6.7272Y-1.1309
X6.752Y-1.0813
X6.752Y-1.1061
X6.752Y-1.1309
X6.7638Y-1.551
X6.7744Y-4.4457
X6.7744Y-4.5441
X6.7913Y-1.551
X6.8091Y-2.2414
X6.813Y-0.894
X6.8474Y-3.0608
X6.848Y-4.2614
X6.8484Y-2.2301
X6.8524Y-1.1653
X6.8524Y-1.245
X6.8524Y-1.3562
X6.8827Y-0.894
X6.8996Y-2.1583
X6.8996Y-2.1858
X6.8996Y-2.2843
X6.8996Y-2.3669
X6.8996Y-2.3118
X6.8996Y-2.3394
X6.8996Y-2.1305
X6.9224Y-1.5213
X6.9272Y-2.3669
X6.9466Y-1.488
X6.9509Y-2.0926
X6.9547Y-2.3669
X6.9626Y-1.5215
X6.9665Y-4.2614
X7.003Y-1.5215
X7.0123Y-1.0352
X7.0249Y-5.9039
X7.0285Y-2.7065
X7.0285Y-2.8167
X7.0285Y-2.7341
X7.0285Y-2.7616
X7.0285Y-2.7892
X7.0285Y-2.8443
X7.0315Y-1.4685
X7.0392Y-5.9286
X7.0453Y-2.1305
X7.061Y-1.7429
X7.0728Y-2.1307
X7.0728Y-2.3669
X7.0797Y-7.1718
X7.0797Y-7.1433
X7.0977Y-4.344
X7.1004Y-2.1307
X7.1004Y-2.3669
X7.1103Y-4.3222
X7.1114Y-4.9904
X7.1195Y-4.3566
X7.128Y-2.1307
X7.128Y-2.1583
X7.128Y-2.1858
X7.128Y-2.3118
X7.128Y-2.3394
X7.128Y-2.3669
X7.128Y-2.2843
X7.1319Y-4.7301
X7.1319Y-4.7587
X7.1321Y-4.3348
X7.1354Y-2.6425
X7.1594Y-4.7301
X7.1594Y-4.7587
X7.2524Y-1.9309
X7.3081Y-1.6575
X7.3081Y-1.6831
X7.3337Y-1.6831
X7.3559Y-5.8296
X7.3593Y-1.6831
X7.3683Y-5.8511
X7.3805Y-5.8154
X7.3848Y-1.6831
X7.3929Y-5.8369
X7.5005Y-4.6416
X7.5148Y-4.6168
X7.5546Y-7.0202
X7.5611Y-7.0446
X7.5789Y-7.0137
X7.5854Y-7.0381
X7.602Y-5.3669
X7.6305Y-5.3669
X7.6587Y-4.9809
X7.6587Y-4.9557
X7.6726Y-3.1737
X7.6839Y-4.9557
X7.6839Y-4.9809
X7.7003Y-3.1636
X7.8008Y-2.9963
X7.8094Y-3.02
X7.8245Y-2.9877
X7.8331Y-3.0113
X7.8724Y-3.723
X7.9002Y-3.7129
X7.9656Y-6.9653
X7.973Y-6.9929
X8.0085Y-3.7172
X8.0183Y-3.744
X8.1856Y-4.5832
X8.2055Y-2.9058
X8.2134Y-4.5731
X8.2153Y-2.9326
X8.3139Y-4.4058
X8.3225Y-4.4295
X8.3375Y-4.3972
X8.3462Y-4.4209
X8.3854Y-5.1326
X8.3907Y-3.6384
X8.3993Y-3.6621
X8.4132Y-5.1225
X8.4143Y-3.6298
X8.423Y-3.6535
X8.4628Y-2.6223
X8.4715Y-2.646
X8.4865Y-2.6137
X8.4951Y-2.6374
X8.4988Y-6.549
X8.515Y-6.5297
X8.5181Y-6.5652
X8.5216Y-5.1267
X8.5313Y-5.1535
X8.5343Y-6.5459
X8.6705Y-3.3432
X8.6803Y-3.37
X8.7185Y-4.3153
X8.7283Y-4.3421
X8.804Y-6.2682
X8.8258Y-6.2866
X8.8675Y-2.5318
X8.8773Y-2.5586
X8.9037Y-5.0479
X8.9123Y-5.0716
X8.9274Y-5.0393
X8.936Y-5.063
X8.9759Y-4.0319
X8.9845Y-4.0555
X8.9996Y-4.0232
X9.0082Y-4.0469
X9.0527Y-3.2644
X9.0613Y-3.2881
X9.074Y-5.9559
X9.0764Y-3.2558
X9.085Y-3.2795
X9.0884Y-5.9765
X9.0946Y-5.9414
X9.1091Y-5.9621
X9.1142Y-2.219
X9.1228Y-2.2426
X9.1379Y-2.2104
X9.1465Y-2.234
X9.1836Y-4.7527
X9.1933Y-4.7795
X9.3219Y-2.9398
X9.3316Y-2.9667
X9.3805Y-3.9413
X9.3903Y-3.9682
X9.4414Y-5.7637
X9.4578Y-5.7871
X9.5188Y-2.1285
X9.5286Y-2.1553
X9.5657Y-4.674
X9.5743Y-4.6976
X9.5894Y-4.6653
X9.598Y-4.689
X9.6272Y-3.6285
X9.6358Y-3.6522
X9.6509Y-3.6199
X9.6595Y-3.6436
X9.704Y-2.8611
X9.7126Y-2.8848
X9.7277Y-2.8525
X9.7363Y-2.8761
X9.788Y-5.5321
X9.7966Y-5.5558
X9.8116Y-5.5235
X9.8203Y-5.5471
X9.8349Y-4.3494
X9.8447Y-4.3762
X9.8724Y-2.1093
X9.881Y-2.133
X9.8961Y-2.1007
X9.9047Y-2.1243
X10.0319Y-3.538
X10.0416Y-3.5648
X10.0801Y-2.8301
X10.0898Y-2.857
X10.1925Y-5.4412
X10.2023Y-5.468
X10.217Y-4.2706
X10.2257Y-4.2943
X10.2407Y-4.262
X10.2493Y-4.2857
X10.2771Y-2.0188
X10.2868Y-2.0456
X10.3854Y-3.5188
X10.394Y-3.5425
X10.4091Y-3.5102
X10.4177Y-3.5339
X10.4622Y-2.7514
X10.4708Y-2.7751
X10.4859Y-2.7428
X10.4945Y-2.7664
X10.5931Y-4.2397
X10.6029Y-4.2665
X10.6413Y-2.029
X10.6499Y-2.0526
X10.665Y-2.0203
X10.6736Y-2.044
X10.7901Y-3.4283
X10.7998Y-3.4551
X10.849Y-2.7498
X10.8587Y-2.7766
X10.8984Y-4.9284
X10.9071Y-4.952
X10.9221Y-4.9197
X10.9307Y-4.9434
X10.9752Y-4.1609
X10.9839Y-4.1846
X10.9989Y-4.1523
X11.0075Y-4.176
X11.0459Y-1.9384
X11.0557Y-1.9653
X11.1543Y-3.4385
X11.1629Y-3.4622
X11.178Y-3.4299
X11.1866Y-3.4536
X11.2311Y-2.6711
X11.2397Y-2.6947
X11.2548Y-2.6624
X11.2634Y-2.6861
X11.3031Y-4.8378
X11.3129Y-4.8647
X11.362Y-4.1594
X11.3718Y-4.1862
X11.3781Y-1.8605
X11.3867Y-1.8842
X11.4018Y-1.8519
X11.4104Y-1.8756
X11.559Y-3.348
X11.5687Y-3.3748
X11.5858Y-2.5814
X11.5956Y-2.6082
X11.6673Y-4.848
X11.676Y-4.8717
X11.691Y-4.8394
X11.6996Y-4.8631
X11.7441Y-4.0806
X11.7528Y-4.1043
X11.7678Y-4.072
X11.7764Y-4.0957
X11.7828Y-1.77
X11.7925Y-1.7968
X11.8911Y-3.2701
X11.8998Y-3.2938
X11.9148Y-3.2615
X11.9234Y-3.2851
X11.9679Y-2.5026
X11.9766Y-2.5263
X11.9916Y-2.494
X12.0002Y-2.5177
X12.072Y-4.7575
X12.0818Y-4.7843
X12.0988Y-3.9909
X12.1086Y-4.0178
X12.2958Y-3.1796
X12.3056Y-3.2064
X12.4042Y-4.6796
X12.4128Y-4.7033
X12.4279Y-4.671
X12.4365Y-4.6947
X12.481Y-3.9122
X12.4896Y-3.9359
X12.5047Y-3.9036
X12.5133Y-3.9272
X12.8088Y-4.5891
X12.8186Y-4.6159
T3
X6.8484Y-1.8404
X6.8484Y-1.8915
X6.8484Y-1.9427
X6.8996Y-1.8404
X6.8996Y-1.8915
X6.8996Y-1.9427
X6.9508Y-1.8404
X6.9508Y-1.8915
X6.9508Y-1.9427
T5
X6.6378Y-4.9478
X6.6378Y-5.0179
X6.6378Y-5.088
X6.6378Y-5.1581
X6.6378Y-5.2281
X6.6378Y-5.2982
X6.6378Y-5.3683
X6.6378Y-5.4384
X7.0591Y-4.9128
X7.0591Y-4.9829
X7.0591Y-5.053
X7.0591Y-5.123
X7.0591Y-5.1931
X7.0591Y-5.2632
X7.0591Y-5.3333
X7.0591Y-5.4033
T6
X6.061Y-1.3396
X6.061Y-1.4396
X6.061Y-1.5396
X6.061Y-1.6396
X6.061Y-1.7396
X6.061Y-1.8396
X6.061Y-1.9396
X6.6988Y-2.4821
X6.7988Y-2.4821
X6.8988Y-2.4821
X6.9988Y-2.4821
T7
X6.75Y-3.9309
X6.8484Y-3.9309
X6.9469Y-3.9309
T9
X6.0709Y-1.0097
X6.0709Y-2.2695
X6.2539Y-4.1059
X6.2539Y-6.1653
X7.4429Y-4.1059
X7.4429Y-6.1653
X7.626Y-1.0097
X7.626Y-2.2695
T10
X6.2776Y-5.1356
X7.4193Y-5.1356
T4
G00X6.6783Y-0.797
M15
G01X6.6783Y-0.7734
M16
G05
G00X6.6783Y-0.9715
M15
G01X6.6783Y-0.9281
M16
G05
G00X7.0185Y-0.797
M15
G01X7.0185Y-0.7734
M16
G05
G00X7.0185Y-0.9715
M15
G01X7.0185Y-0.9281
M16
G05
T8
G00X5.6634Y-5.0667
M15
G01X5.6634Y-5.2045
M16
G05
G00X8.0335Y-5.0667
M15
G01X8.0335Y-5.2045
M16
G05
T0
M30
