%TF.GenerationSoftware,KiCad,Pcbnew,7.0.5*%
%TF.CreationDate,2023-07-06T12:29:14+01:00*%
%TF.ProjectId,Honeydew,486f6e65-7964-4657-972e-6b696361645f,V2.1*%
%TF.SameCoordinates,Original*%
%TF.FileFunction,Soldermask,Top*%
%TF.FilePolarity,Negative*%
%FSLAX46Y46*%
G04 Gerber Fmt 4.6, Leading zero omitted, Abs format (unit mm)*
G04 Created by KiCad (PCBNEW 7.0.5) date 2023-07-06 12:29:14*
%MOMM*%
%LPD*%
G01*
G04 APERTURE LIST*
G04 Aperture macros list*
%AMRoundRect*
0 Rectangle with rounded corners*
0 $1 Rounding radius*
0 $2 $3 $4 $5 $6 $7 $8 $9 X,Y pos of 4 corners*
0 Add a 4 corners polygon primitive as box body*
4,1,4,$2,$3,$4,$5,$6,$7,$8,$9,$2,$3,0*
0 Add four circle primitives for the rounded corners*
1,1,$1+$1,$2,$3*
1,1,$1+$1,$4,$5*
1,1,$1+$1,$6,$7*
1,1,$1+$1,$8,$9*
0 Add four rect primitives between the rounded corners*
20,1,$1+$1,$2,$3,$4,$5,0*
20,1,$1+$1,$4,$5,$6,$7,0*
20,1,$1+$1,$6,$7,$8,$9,0*
20,1,$1+$1,$8,$9,$2,$3,0*%
%AMRotRect*
0 Rectangle, with rotation*
0 The origin of the aperture is its center*
0 $1 length*
0 $2 width*
0 $3 Rotation angle, in degrees counterclockwise*
0 Add horizontal line*
21,1,$1,$2,0,0,$3*%
G04 Aperture macros list end*
%ADD10O,1.000000X1.800000*%
%ADD11O,1.000000X2.200000*%
%ADD12C,0.750000*%
%ADD13C,3.987800*%
%ADD14C,4.000000*%
%ADD15C,1.750000*%
%ADD16C,3.300000*%
%ADD17RotRect,4.400000X4.400000X150.000000*%
%ADD18C,3.200000*%
%ADD19C,2.000000*%
%ADD20C,2.200000*%
%ADD21C,4.200000*%
%ADD22C,1.152000*%
%ADD23RoundRect,0.575000X-0.675000X-0.575000X0.675000X-0.575000X0.675000X0.575000X-0.675000X0.575000X0*%
%ADD24C,5.600000*%
%ADD25R,2.200000X2.200000*%
%ADD26C,4.400000*%
%ADD27O,1.700000X1.700000*%
%ADD28R,1.700000X1.700000*%
%ADD29C,1.700000*%
%ADD30C,0.900000*%
%ADD31C,1.200000*%
%ADD32R,1.200000X1.200000*%
G04 APERTURE END LIST*
%TO.C,A1*%
G36*
X190888000Y-105851360D02*
G01*
X191218804Y-106160023D01*
X191355339Y-106909280D01*
X191295457Y-108069457D01*
X191127092Y-109155544D01*
X190963166Y-110218769D01*
X190949463Y-110944205D01*
X191084442Y-111478868D01*
X191102329Y-111519366D01*
X191404470Y-111981184D01*
X191650850Y-111963841D01*
X191822671Y-111494827D01*
X191901133Y-110601637D01*
X191904000Y-110347009D01*
X191942901Y-109541373D01*
X192044340Y-108995835D01*
X192158000Y-108838000D01*
X192404678Y-109025455D01*
X192412000Y-109084028D01*
X192597577Y-109250507D01*
X192729500Y-109232243D01*
X193619033Y-108980260D01*
X194134257Y-108936738D01*
X194380499Y-109142773D01*
X194463088Y-109639459D01*
X194473464Y-109912660D01*
X194514262Y-110450464D01*
X194584749Y-110595070D01*
X194626686Y-110489000D01*
X195006703Y-109665298D01*
X195572721Y-109227087D01*
X196212915Y-109148318D01*
X196815457Y-109402946D01*
X197268521Y-109964923D01*
X197460282Y-110808204D01*
X197446948Y-111145895D01*
X197478563Y-111782352D01*
X197682500Y-112072490D01*
X197877177Y-111977944D01*
X197977700Y-111484655D01*
X198000000Y-110779156D01*
X198064890Y-109785583D01*
X198268355Y-109267783D01*
X198623587Y-109209243D01*
X199032005Y-109487484D01*
X199426569Y-109786156D01*
X199732217Y-109724907D01*
X200015994Y-109487484D01*
X200507346Y-109186507D01*
X200839029Y-109336086D01*
X201024752Y-109951832D01*
X201075829Y-110694490D01*
X201103659Y-112013000D01*
X201321208Y-110906413D01*
X201426886Y-110529037D01*
X202064000Y-110529037D01*
X202164432Y-110755732D01*
X202539356Y-110633403D01*
X202557853Y-110623570D01*
X203021129Y-110309375D01*
X203196997Y-110124185D01*
X203161915Y-109800583D01*
X203073016Y-109722684D01*
X202676440Y-109725996D01*
X202273752Y-110032148D01*
X202066267Y-110480260D01*
X202064000Y-110529037D01*
X201426886Y-110529037D01*
X201605574Y-109890939D01*
X201999293Y-109310896D01*
X202554244Y-109096976D01*
X202679300Y-109091999D01*
X203408931Y-109255155D01*
X203769676Y-109672141D01*
X203748485Y-110234237D01*
X203332310Y-110832721D01*
X202925244Y-111141153D01*
X202377666Y-111514355D01*
X202226551Y-111748893D01*
X202414941Y-111935175D01*
X202422369Y-111939359D01*
X203095910Y-112058672D01*
X203751856Y-111743162D01*
X204197766Y-111169499D01*
X204408407Y-110442164D01*
X204452760Y-109355269D01*
X204418865Y-108703594D01*
X204383355Y-107949000D01*
X204922054Y-107949000D01*
X204942499Y-108471753D01*
X205000059Y-108606676D01*
X205032518Y-108523461D01*
X205079829Y-107913497D01*
X205037644Y-107507461D01*
X204970733Y-107366686D01*
X204928643Y-107671980D01*
X204922054Y-107949000D01*
X204383355Y-107949000D01*
X204371506Y-107697204D01*
X204418708Y-107070795D01*
X204576060Y-106702527D01*
X204689757Y-106586227D01*
X205129551Y-106384634D01*
X205354873Y-106418123D01*
X205523819Y-106777402D01*
X205599962Y-107494945D01*
X205583248Y-108429554D01*
X205473624Y-109440033D01*
X205356247Y-110054576D01*
X205227353Y-111057532D01*
X205369327Y-111700746D01*
X205764610Y-111949572D01*
X206259841Y-111837577D01*
X206779643Y-111522773D01*
X206826436Y-111210177D01*
X206508999Y-110869999D01*
X206160447Y-110375494D01*
X206230463Y-110109584D01*
X206868843Y-110109584D01*
X206980397Y-110572286D01*
X207299112Y-111063496D01*
X207750818Y-111578999D01*
X208095417Y-111865293D01*
X208160000Y-111886000D01*
X208439167Y-111703216D01*
X208872033Y-111246709D01*
X209020887Y-111063496D01*
X209399463Y-110435822D01*
X209426377Y-110035762D01*
X209124944Y-109932770D01*
X208695269Y-110093405D01*
X208070872Y-110247923D01*
X207624730Y-110093405D01*
X207091391Y-109926806D01*
X206868843Y-110109584D01*
X206230463Y-110109584D01*
X206300596Y-109843226D01*
X206635999Y-109473000D01*
X207035356Y-109164495D01*
X207336600Y-109210766D01*
X207652000Y-109472999D01*
X208049111Y-109779944D01*
X208349941Y-109736117D01*
X208676964Y-109464887D01*
X209064110Y-109161672D01*
X209352465Y-109193167D01*
X209740600Y-109543711D01*
X210102280Y-109989370D01*
X210106600Y-110385607D01*
X209955676Y-110709971D01*
X209770109Y-111327791D01*
X209901506Y-111763534D01*
X210206990Y-111886000D01*
X210339090Y-111656589D01*
X210425892Y-111065949D01*
X210446000Y-110518444D01*
X210445999Y-109150889D01*
X211613304Y-109190181D01*
X212578199Y-109331792D01*
X213110182Y-109680191D01*
X213336028Y-110172060D01*
X213531262Y-110895160D01*
X213663404Y-111665712D01*
X213699978Y-112299933D01*
X213626243Y-112600423D01*
X213390002Y-112588167D01*
X213160562Y-112218661D01*
X213011388Y-111638262D01*
X212989889Y-111332642D01*
X212811105Y-110614829D01*
X212373668Y-110064238D01*
X211833793Y-109854000D01*
X211415065Y-110080999D01*
X211092347Y-110654101D01*
X210954457Y-111411457D01*
X210954000Y-111457200D01*
X210804372Y-112071261D01*
X210568235Y-112397954D01*
X210203250Y-112572068D01*
X209807992Y-112374274D01*
X209679235Y-112262688D01*
X209281332Y-111957076D01*
X208978869Y-112007717D01*
X208672764Y-112262688D01*
X208239981Y-112559145D01*
X207890396Y-112478647D01*
X207775527Y-112391118D01*
X207419124Y-112207608D01*
X206926290Y-112237944D01*
X206343811Y-112406603D01*
X205666577Y-112600480D01*
X205287617Y-112593579D01*
X205035222Y-112377949D01*
X205010531Y-112344871D01*
X204734626Y-112088044D01*
X204369484Y-112135562D01*
X204047091Y-112290597D01*
X203359043Y-112495248D01*
X202417038Y-112584157D01*
X202026335Y-112579461D01*
X201217100Y-112512285D01*
X200788990Y-112371377D01*
X200615679Y-112106560D01*
X200596837Y-112011694D01*
X200424126Y-111066956D01*
X200251583Y-110573890D01*
X200058141Y-110476611D01*
X200024553Y-110493602D01*
X199867018Y-110823446D01*
X199782535Y-111453147D01*
X199778000Y-111646990D01*
X199720878Y-112277651D01*
X199578421Y-112624713D01*
X199524000Y-112648000D01*
X199363973Y-112422884D01*
X199275908Y-111861464D01*
X199270000Y-111646990D01*
X199212738Y-110972007D01*
X199070500Y-110541098D01*
X199023446Y-110493602D01*
X198824024Y-110535139D01*
X198648992Y-110966418D01*
X198477690Y-111842312D01*
X198451405Y-112013000D01*
X198314756Y-112329583D01*
X197941069Y-112498297D01*
X197200260Y-112574630D01*
X197126416Y-112578171D01*
X196321505Y-112554804D01*
X195698511Y-112430532D01*
X195522541Y-112340504D01*
X195169147Y-112189154D01*
X194943218Y-112408209D01*
X194651495Y-112626006D01*
X194371166Y-112393936D01*
X194138059Y-111769544D01*
X193994835Y-110884951D01*
X193966900Y-110686524D01*
X195266012Y-110686524D01*
X195425991Y-111290551D01*
X195767565Y-111754959D01*
X196095000Y-111886000D01*
X196476593Y-111677043D01*
X196785203Y-111231274D01*
X196922249Y-110521901D01*
X196696228Y-109975700D01*
X196170071Y-109729823D01*
X196095000Y-109727000D01*
X195589171Y-109923988D01*
X195374424Y-110151774D01*
X195266012Y-110686524D01*
X193966900Y-110686524D01*
X193884901Y-110104073D01*
X193713696Y-109714792D01*
X193426393Y-109600746D01*
X193389397Y-109600000D01*
X192931874Y-109833232D01*
X192591459Y-110457850D01*
X192421678Y-111361234D01*
X192412000Y-111656507D01*
X192266886Y-112329886D01*
X191903725Y-112633013D01*
X191430786Y-112584968D01*
X190956340Y-112204832D01*
X190588657Y-111511688D01*
X190534498Y-111325619D01*
X190307996Y-110434003D01*
X189305512Y-111436487D01*
X187884368Y-112563939D01*
X186335172Y-113211945D01*
X184756639Y-113404421D01*
X183701972Y-113336150D01*
X182983749Y-113097021D01*
X182724639Y-112920029D01*
X182395697Y-112541985D01*
X182837296Y-112541985D01*
X183266842Y-112814332D01*
X183331500Y-112845994D01*
X184465095Y-113118076D01*
X185858288Y-112978613D01*
X186646112Y-112753045D01*
X187681467Y-112233909D01*
X188752678Y-111424628D01*
X189732240Y-110450816D01*
X190492647Y-109438087D01*
X190891647Y-108570453D01*
X191078616Y-107541389D01*
X191057513Y-106713430D01*
X190837661Y-106198680D01*
X190686421Y-106102228D01*
X190470685Y-106164021D01*
X190514229Y-106617369D01*
X190514896Y-106620031D01*
X190539148Y-107540868D01*
X190264748Y-108622661D01*
X189754526Y-109669441D01*
X189370800Y-110188448D01*
X188713740Y-110795737D01*
X187842080Y-111428076D01*
X187326892Y-111737264D01*
X186497821Y-112143513D01*
X185789207Y-112338805D01*
X184954301Y-112374309D01*
X184388403Y-112346613D01*
X183386731Y-112313485D01*
X182873477Y-112376822D01*
X182837296Y-112541985D01*
X182395697Y-112541985D01*
X182327889Y-112464055D01*
X182379000Y-112177960D01*
X182593510Y-111986252D01*
X183452919Y-111986252D01*
X183910912Y-112145961D01*
X184684099Y-112144008D01*
X185613486Y-112000968D01*
X186540079Y-111737416D01*
X187045809Y-111521312D01*
X188350733Y-110657825D01*
X189383873Y-109570112D01*
X190037939Y-108376314D01*
X190110727Y-108146442D01*
X190335692Y-107184800D01*
X190351078Y-106664692D01*
X190228270Y-106551999D01*
X189979299Y-106700016D01*
X189420996Y-107101178D01*
X188640605Y-107691156D01*
X187878770Y-108284412D01*
X186829692Y-109108402D01*
X185785874Y-109923245D01*
X184897311Y-110612075D01*
X184490085Y-110924665D01*
X183881916Y-111429820D01*
X183511303Y-111820200D01*
X183452919Y-111986252D01*
X182593510Y-111986252D01*
X182873533Y-111735995D01*
X183645427Y-111104132D01*
X184620277Y-110337689D01*
X185723679Y-109491987D01*
X186881232Y-108622348D01*
X188018531Y-107784090D01*
X189061172Y-107032535D01*
X189934753Y-106423002D01*
X190564870Y-106010812D01*
X190877119Y-105851286D01*
X190888000Y-105851360D01*
G37*
G36*
X194436619Y-108015287D02*
G01*
X194444000Y-108076000D01*
X194250712Y-108322619D01*
X194190000Y-108330000D01*
X193943380Y-108136712D01*
X193936000Y-108076000D01*
X194129287Y-107829380D01*
X194190000Y-107822000D01*
X194436619Y-108015287D01*
G37*
G36*
X189530688Y-107723609D02*
G01*
X189491000Y-107822000D01*
X189262753Y-108064311D01*
X189222009Y-108076000D01*
X189112912Y-107879482D01*
X189110000Y-107822000D01*
X189305263Y-107577760D01*
X189378990Y-107568000D01*
X189530688Y-107723609D01*
G37*
G36*
X187058430Y-109738610D02*
G01*
X187078000Y-109824019D01*
X186892642Y-110183093D01*
X186824000Y-110235000D01*
X186589569Y-110223389D01*
X186570000Y-110137980D01*
X186755357Y-109778906D01*
X186824000Y-109727000D01*
X187058430Y-109738610D01*
G37*
G36*
X185300000Y-110743000D02*
G01*
X185542311Y-110971246D01*
X185554000Y-111011990D01*
X185357482Y-111121087D01*
X185300000Y-111124000D01*
X185055760Y-110928736D01*
X185046000Y-110855009D01*
X185201609Y-110703311D01*
X185300000Y-110743000D01*
G37*
G36*
X188517333Y-108414666D02*
G01*
X188547732Y-108716105D01*
X188517333Y-108753333D01*
X188366330Y-108718466D01*
X188348000Y-108584000D01*
X188440934Y-108374929D01*
X188517333Y-108414666D01*
G37*
G36*
X188263333Y-109684666D02*
G01*
X188228466Y-109835669D01*
X188094000Y-109854000D01*
X187884929Y-109761065D01*
X187924666Y-109684666D01*
X188226105Y-109654267D01*
X188263333Y-109684666D01*
G37*
%TD*%
D10*
%TO.C,J2*%
X192379962Y-61400006D03*
D11*
X192379962Y-57400006D03*
D10*
X203619962Y-61400006D03*
D11*
X203619962Y-57400006D03*
%TD*%
D12*
%TO.C,SW68*%
X183999969Y-55982217D03*
X183999969Y-58732217D03*
%TD*%
D13*
%TO.C,SW64*%
X209906241Y-196794997D03*
D14*
X209906241Y-212034997D03*
D15*
X203079991Y-205049997D03*
D13*
X197999991Y-205049997D03*
D15*
X192919991Y-205049997D03*
D13*
X186093741Y-196794997D03*
D14*
X186093741Y-212034997D03*
D16*
X194189991Y-202509997D03*
X200539991Y-199969997D03*
%TD*%
D15*
%TO.C,SW25*%
X138845945Y-175576526D03*
D13*
X134446536Y-173036526D03*
D15*
X130047127Y-170496526D03*
D16*
X132416979Y-168931821D03*
X139186241Y-169907117D03*
%TD*%
D15*
%TO.C,SW30*%
X154995425Y-189640012D03*
D13*
X151403323Y-186047910D03*
D15*
X147811221Y-182455808D03*
D16*
X150505297Y-181557782D03*
X156791477Y-184251859D03*
%TD*%
D15*
%TO.C,SW1*%
X71242663Y-76790062D03*
D13*
X66335760Y-75475261D03*
D15*
X61428857Y-74160460D03*
D16*
X63312983Y-72035709D03*
X70104012Y-71225758D03*
%TD*%
D15*
%TO.C,SW24*%
X131903639Y-144814408D03*
D13*
X126996736Y-143499607D03*
D15*
X122089833Y-142184806D03*
D16*
X123973959Y-140060055D03*
X130764988Y-139250104D03*
%TD*%
D15*
%TO.C,SW29*%
X149482762Y-152811749D03*
D13*
X144575859Y-151496948D03*
D15*
X139668956Y-150182147D03*
D16*
X141553082Y-148057396D03*
X148344111Y-147247445D03*
%TD*%
D15*
%TO.C,SW14*%
X95101858Y-134953414D03*
D13*
X90194955Y-133638613D03*
D15*
X85288052Y-132323812D03*
D16*
X87172178Y-130199061D03*
X93963207Y-129389110D03*
%TD*%
D15*
%TO.C,SW19*%
X114529931Y-136050376D03*
D13*
X109623028Y-134735575D03*
D15*
X104716125Y-133420774D03*
D16*
X106600251Y-131296023D03*
X113391280Y-130486072D03*
%TD*%
D15*
%TO.C,SW5*%
X51520644Y-150393620D03*
D13*
X46613741Y-149078819D03*
D15*
X41706838Y-147764018D03*
D16*
X43590964Y-145639267D03*
X50381993Y-144829316D03*
%TD*%
D15*
%TO.C,SW22*%
X141764627Y-108012628D03*
D13*
X136857724Y-106697827D03*
D15*
X131950821Y-105383026D03*
D16*
X133834947Y-103258275D03*
X140625976Y-102448324D03*
%TD*%
D15*
%TO.C,SW27*%
X159343770Y-116009967D03*
D13*
X154436867Y-114695166D03*
D15*
X149529964Y-113380365D03*
D16*
X151414090Y-111255614D03*
X158205119Y-110445663D03*
%TD*%
D15*
%TO.C,SW3*%
X61381635Y-113591851D03*
D13*
X56474732Y-112277050D03*
D15*
X51567829Y-110962249D03*
D16*
X53451955Y-108837498D03*
X60242984Y-108027547D03*
%TD*%
D15*
%TO.C,SW8*%
X80398846Y-116222222D03*
D13*
X75491943Y-114907421D03*
D15*
X70585040Y-113592620D03*
D16*
X72469166Y-111467869D03*
X79260195Y-110657918D03*
%TD*%
D15*
%TO.C,SW13*%
X100032358Y-116552515D03*
D13*
X95125455Y-115237714D03*
D15*
X90218552Y-113922913D03*
D16*
X92102678Y-111798162D03*
X98893707Y-110988211D03*
%TD*%
D15*
%TO.C,SW23*%
X136834144Y-126413544D03*
D13*
X131927241Y-125098743D03*
D15*
X127020338Y-123783942D03*
D16*
X128904464Y-121659191D03*
X135695493Y-120849240D03*
%TD*%
D15*
%TO.C,SW18*%
X119460412Y-117649496D03*
D13*
X114553509Y-116334695D03*
D15*
X109646606Y-115019894D03*
D16*
X111530732Y-112895143D03*
X118321761Y-112085192D03*
%TD*%
D15*
%TO.C,SW28*%
X154413259Y-134410847D03*
D13*
X149506356Y-133096046D03*
D15*
X144599453Y-131781245D03*
D16*
X146483579Y-129656494D03*
X153274608Y-128846543D03*
%TD*%
D15*
%TO.C,SW4*%
X56451152Y-131992745D03*
D13*
X51544249Y-130677944D03*
D15*
X46637346Y-129363143D03*
D16*
X48521472Y-127238392D03*
X55312501Y-126428441D03*
%TD*%
D15*
%TO.C,SW9*%
X75468326Y-134623129D03*
D13*
X70561423Y-133308328D03*
D15*
X65654520Y-131993527D03*
D16*
X67538646Y-129868776D03*
X74329675Y-129058825D03*
%TD*%
D15*
%TO.C,SW10*%
X70537843Y-153024018D03*
D13*
X65630940Y-151709217D03*
D15*
X60724037Y-150394416D03*
D16*
X62608163Y-148269665D03*
X69399192Y-147459714D03*
%TD*%
D15*
%TO.C,SW15*%
X90171347Y-153354278D03*
D13*
X85264444Y-152039477D03*
D15*
X80357541Y-150724676D03*
D16*
X82241667Y-148599925D03*
X89032696Y-147789974D03*
%TD*%
D15*
%TO.C,SW20*%
X119606855Y-166172013D03*
D13*
X114699952Y-164857212D03*
D15*
X109793049Y-163542411D03*
D16*
X111677175Y-161417660D03*
X118468204Y-160607709D03*
%TD*%
D15*
%TO.C,SW11*%
X109893364Y-79750768D03*
D13*
X104986461Y-78435967D03*
D15*
X100079558Y-77121166D03*
D16*
X101963684Y-74996415D03*
X108754713Y-74186464D03*
%TD*%
D15*
%TO.C,SW2*%
X66312154Y-95190966D03*
D13*
X61405251Y-93876165D03*
D15*
X56498348Y-92561364D03*
D16*
X58382474Y-90436613D03*
X65173503Y-89626662D03*
%TD*%
D15*
%TO.C,SW12*%
X104962854Y-98151620D03*
D13*
X100055951Y-96836819D03*
D15*
X95149048Y-95522018D03*
D16*
X97033174Y-93397267D03*
X103824203Y-92587316D03*
%TD*%
D15*
%TO.C,SW21*%
X146695137Y-89611737D03*
D13*
X141788234Y-88296936D03*
D15*
X136881331Y-86982135D03*
D16*
X138765457Y-84857384D03*
X145556486Y-84047433D03*
%TD*%
D15*
%TO.C,SW17*%
X124390933Y-99248631D03*
D13*
X119484030Y-97933830D03*
D15*
X114577127Y-96619029D03*
D16*
X116461253Y-94494278D03*
X123252282Y-93684327D03*
%TD*%
D15*
%TO.C,SW16*%
X129321433Y-80847720D03*
D13*
X124414530Y-79532919D03*
D15*
X119507627Y-78218118D03*
D16*
X121391753Y-76093367D03*
X128182782Y-75283416D03*
%TD*%
D15*
%TO.C,SW6*%
X90259854Y-79420468D03*
D13*
X85352951Y-78105667D03*
D15*
X80446048Y-76790866D03*
D16*
X82330174Y-74666115D03*
X89121203Y-73856164D03*
%TD*%
D15*
%TO.C,SW7*%
X85329347Y-97821353D03*
D13*
X80422444Y-96506552D03*
D15*
X75515541Y-95191751D03*
D16*
X77399667Y-93067000D03*
X84190696Y-92257049D03*
%TD*%
D15*
%TO.C,SW26*%
X164274268Y-97609071D03*
D13*
X159367365Y-96294270D03*
D15*
X154460462Y-94979469D03*
D16*
X156344588Y-92854718D03*
X163135617Y-92044767D03*
%TD*%
D15*
%TO.C,SW31*%
X241539496Y-94979484D03*
D13*
X236632593Y-96294285D03*
D15*
X231725690Y-97609086D03*
D16*
X232295015Y-94826934D03*
X237771244Y-90729981D03*
%TD*%
D15*
%TO.C,SW62*%
X203079969Y-186000009D03*
D13*
X197999969Y-186000009D03*
D15*
X192919969Y-186000009D03*
D16*
X194189969Y-183460009D03*
X200539969Y-180920009D03*
%TD*%
D15*
%TO.C,SW45*%
X286206900Y-163542414D03*
D13*
X281299997Y-164857215D03*
D15*
X276393094Y-166172016D03*
D16*
X276962419Y-163389864D03*
X282438648Y-159292911D03*
%TD*%
D15*
%TO.C,SW49*%
X310711912Y-132323828D03*
D13*
X305805009Y-133638629D03*
D15*
X300898106Y-134953430D03*
D16*
X301467431Y-132171278D03*
X306943660Y-128074325D03*
%TD*%
D15*
%TO.C,SW47*%
X300850909Y-95522043D03*
D13*
X295944006Y-96836844D03*
D15*
X291037103Y-98151645D03*
D16*
X291606428Y-95369493D03*
X297082657Y-91272540D03*
%TD*%
D15*
%TO.C,SW63*%
X224935764Y-177421404D03*
D13*
X220536355Y-179961404D03*
D15*
X216136946Y-182501404D03*
D16*
X215966798Y-179666699D03*
X220196060Y-174291995D03*
%TD*%
D15*
%TO.C,SW61*%
X179862983Y-182501406D03*
D13*
X175463574Y-179961406D03*
D15*
X171064165Y-177421406D03*
D16*
X173434017Y-175856701D03*
X180203279Y-176831997D03*
%TD*%
D15*
%TO.C,SW33*%
X251400493Y-131781238D03*
D13*
X246493590Y-133096039D03*
D15*
X241586687Y-134410840D03*
D16*
X242156012Y-131628688D03*
X247632241Y-127531735D03*
%TD*%
D15*
%TO.C,SW59*%
X349362613Y-129363139D03*
D13*
X344455710Y-130677940D03*
D15*
X339548807Y-131992741D03*
D16*
X340118132Y-129210589D03*
X345594361Y-125113636D03*
%TD*%
D15*
%TO.C,SW38*%
X268979642Y-123783937D03*
D13*
X264072739Y-125098738D03*
D15*
X259165836Y-126413539D03*
D16*
X259735161Y-123631387D03*
X265211390Y-119534434D03*
%TD*%
D15*
%TO.C,SW50*%
X315642409Y-150724703D03*
D13*
X310735506Y-152039504D03*
D15*
X305828603Y-153354305D03*
D16*
X306397928Y-150572153D03*
X311874157Y-146475200D03*
%TD*%
D15*
%TO.C,SW58*%
X344432110Y-110962236D03*
D13*
X339525207Y-112277037D03*
D15*
X334618304Y-113591838D03*
D16*
X335187629Y-110809686D03*
X340663858Y-106712733D03*
%TD*%
D15*
%TO.C,SW43*%
X286353316Y-115019898D03*
D13*
X281446413Y-116334699D03*
D15*
X276539510Y-117649500D03*
D16*
X277108835Y-114867348D03*
X282585064Y-110770395D03*
%TD*%
D15*
%TO.C,SW57*%
X339501604Y-92561352D03*
D13*
X334594701Y-93876153D03*
D15*
X329687798Y-95190954D03*
D16*
X330257123Y-92408802D03*
X335733352Y-88311849D03*
%TD*%
D15*
%TO.C,SW52*%
X320484421Y-95191748D03*
D13*
X315577518Y-96506549D03*
D15*
X310670615Y-97821350D03*
D16*
X311239940Y-95039198D03*
X316716169Y-90942245D03*
%TD*%
D15*
%TO.C,SW44*%
X291283837Y-133420774D03*
D13*
X286376934Y-134735575D03*
D15*
X281470031Y-136050376D03*
D16*
X282039356Y-133268224D03*
X287515585Y-129171271D03*
%TD*%
D15*
%TO.C,SW41*%
X276492326Y-78218127D03*
D13*
X271585423Y-79532928D03*
D15*
X266678520Y-80847729D03*
D16*
X267247845Y-78065577D03*
X272724074Y-73968624D03*
%TD*%
D15*
%TO.C,SW40*%
X265952816Y-170496513D03*
D13*
X261553407Y-173036513D03*
D15*
X257153998Y-175576513D03*
D16*
X256983850Y-172741808D03*
X261213112Y-167367104D03*
%TD*%
D15*
%TO.C,SW46*%
X295920394Y-77121164D03*
D13*
X291013491Y-78435965D03*
D15*
X286106588Y-79750766D03*
D16*
X286675913Y-76968614D03*
X292152142Y-72871661D03*
%TD*%
D15*
%TO.C,SW51*%
X315553915Y-76790874D03*
D13*
X310647012Y-78105675D03*
D15*
X305740109Y-79420476D03*
D16*
X306309434Y-76638324D03*
X311785663Y-72541371D03*
%TD*%
D15*
%TO.C,SW60*%
X354293113Y-147764017D03*
D13*
X349386210Y-149078818D03*
D15*
X344479307Y-150393619D03*
D16*
X345048632Y-147611467D03*
X350524861Y-143514514D03*
%TD*%
D15*
%TO.C,SW37*%
X264049145Y-105383055D03*
D13*
X259142242Y-106697856D03*
D15*
X254235339Y-108012657D03*
D16*
X254804664Y-105230505D03*
X260280893Y-101133552D03*
%TD*%
D15*
%TO.C,SW54*%
X330345430Y-131993528D03*
D13*
X325438527Y-133308329D03*
D15*
X320531624Y-134623130D03*
D16*
X321100949Y-131840978D03*
X326577178Y-127744025D03*
%TD*%
D15*
%TO.C,SW55*%
X335275928Y-150394423D03*
D13*
X330369025Y-151709224D03*
D15*
X325462122Y-153024025D03*
D16*
X326031447Y-150241873D03*
X331507676Y-146144920D03*
%TD*%
D15*
%TO.C,SW48*%
X305781405Y-113922926D03*
D13*
X300874502Y-115237727D03*
D15*
X295967599Y-116552528D03*
D16*
X296536924Y-113770376D03*
X302013153Y-109673423D03*
%TD*%
D15*
%TO.C,SW53*%
X325414926Y-113592635D03*
D13*
X320508023Y-114907436D03*
D15*
X315601120Y-116222237D03*
D16*
X316170445Y-113440085D03*
X321646674Y-109343132D03*
%TD*%
D15*
%TO.C,SW35*%
X248188736Y-182455808D03*
D13*
X244596634Y-186047910D03*
D15*
X241004532Y-189640012D03*
D16*
X240106506Y-186945936D03*
X242800583Y-180659756D03*
%TD*%
D15*
%TO.C,SW34*%
X256330998Y-150182131D03*
D13*
X251424095Y-151496932D03*
D15*
X246517192Y-152811733D03*
D16*
X247086517Y-150029581D03*
X252562746Y-145932628D03*
%TD*%
D15*
%TO.C,SW42*%
X281422821Y-96619015D03*
D13*
X276515918Y-97933816D03*
D15*
X271609015Y-99248617D03*
D16*
X272178340Y-96466465D03*
X277654569Y-92369512D03*
%TD*%
D15*
%TO.C,SW56*%
X334571114Y-74160473D03*
D13*
X329664211Y-75475274D03*
D15*
X324757308Y-76790075D03*
D16*
X325326633Y-74007923D03*
X330802862Y-69910970D03*
%TD*%
D15*
%TO.C,SW36*%
X259118622Y-86982168D03*
D13*
X254211719Y-88296969D03*
D15*
X249304816Y-89611770D03*
D16*
X249874141Y-86829618D03*
X255350370Y-82732665D03*
%TD*%
D15*
%TO.C,SW39*%
X273910136Y-142184824D03*
D13*
X269003233Y-143499625D03*
D15*
X264096330Y-144814426D03*
D16*
X264665655Y-142032274D03*
X270141884Y-137935321D03*
%TD*%
D15*
%TO.C,SW32*%
X246469994Y-113380366D03*
D13*
X241563091Y-114695167D03*
D15*
X236656188Y-116009968D03*
D16*
X237225513Y-113227816D03*
X242701742Y-109130863D03*
%TD*%
D17*
%TO.C,SW65*%
X175165318Y-126409314D03*
D18*
X175393597Y-161971523D03*
X192875215Y-172064890D03*
D17*
X223807624Y-154490319D03*
D19*
X212999964Y-117019247D03*
X210834900Y-115769247D03*
X215165028Y-118269247D03*
D20*
X175323370Y-135188347D03*
D14*
X185899408Y-122861302D03*
D21*
X186603919Y-163538232D03*
D14*
X221486472Y-142590050D03*
D20*
X215266272Y-159673370D03*
%TD*%
D22*
%TO.C,H3*%
X65499963Y-65257213D03*
%TD*%
%TO.C,H2*%
X330599970Y-65257212D03*
%TD*%
D23*
%TO.C,SW66*%
X222999991Y-209499997D03*
X222999991Y-200499997D03*
D19*
X220999991Y-207499997D03*
X220999991Y-204999997D03*
X220999991Y-202499997D03*
%TD*%
D24*
%TO.C,H9*%
X158999991Y-197999993D03*
%TD*%
%TO.C,H8*%
X236999991Y-197999997D03*
%TD*%
D20*
%TO.C,SW67*%
X167999992Y-197999997D03*
X167999992Y-203079997D03*
D25*
X167999992Y-208159997D03*
%TD*%
D26*
%TO.C,H12*%
X174999991Y-205000009D03*
%TD*%
D14*
%TO.C,J4*%
X217750000Y-98200000D03*
X217750000Y-66200000D03*
X178250000Y-98200000D03*
X178250000Y-66200000D03*
D27*
X178000000Y-89820000D03*
X178000000Y-87280000D03*
X178000000Y-84740000D03*
X178000000Y-82200000D03*
X178000000Y-79660000D03*
X178000000Y-77120000D03*
D28*
X178000000Y-74580000D03*
%TD*%
D22*
%TO.C,H1*%
X197999957Y-195500010D03*
%TD*%
D28*
%TO.C,J5*%
X171499991Y-110020000D03*
X171499991Y-112560000D03*
D27*
X171499991Y-115100000D03*
D29*
X171499991Y-117640000D03*
%TD*%
D24*
%TO.C,H7*%
X319482323Y-162625367D03*
%TD*%
%TO.C,H11*%
X211799972Y-143000004D03*
%TD*%
D30*
%TO.C,SW69*%
X213499973Y-57127213D03*
X210499973Y-57127213D03*
%TD*%
D24*
%TO.C,H10*%
X184199972Y-142999959D03*
%TD*%
D31*
%TO.C,U4*%
X192649964Y-138230009D03*
X192649964Y-140010009D03*
X192649964Y-141790009D03*
X192649964Y-143570009D03*
X192649964Y-145350009D03*
X192649964Y-147130009D03*
X192649964Y-148910009D03*
X192649964Y-150690009D03*
X203349964Y-149800009D03*
X203349964Y-148020009D03*
X203349964Y-146240009D03*
X203349964Y-144460009D03*
X203349964Y-142680009D03*
X203349964Y-140900009D03*
X203349964Y-139120009D03*
D32*
X203349964Y-137340009D03*
%TD*%
D27*
%TO.C,J1*%
X218900000Y-102444997D03*
D28*
X218900000Y-104984997D03*
D29*
X218900000Y-107524997D03*
%TD*%
D24*
%TO.C,H6*%
X76517600Y-162625360D03*
%TD*%
%TO.C,H4*%
X224049991Y-67557215D03*
%TD*%
%TO.C,H5*%
X171949992Y-67557209D03*
%TD*%
M02*
