%TF.GenerationSoftware,KiCad,Pcbnew,(7.0.0)*%
%TF.CreationDate,2023-05-20T22:42:22+01:00*%
%TF.ProjectId,Honeydew,486f6e65-7964-4657-972e-6b696361645f,V2.0*%
%TF.SameCoordinates,Original*%
%TF.FileFunction,Legend,Top*%
%TF.FilePolarity,Positive*%
%FSLAX46Y46*%
G04 Gerber Fmt 4.6, Leading zero omitted, Abs format (unit mm)*
G04 Created by KiCad (PCBNEW (7.0.0)) date 2023-05-20 22:42:22*
%MOMM*%
%LPD*%
G01*
G04 APERTURE LIST*
G04 Aperture macros list*
%AMRoundRect*
0 Rectangle with rounded corners*
0 $1 Rounding radius*
0 $2 $3 $4 $5 $6 $7 $8 $9 X,Y pos of 4 corners*
0 Add a 4 corners polygon primitive as box body*
4,1,4,$2,$3,$4,$5,$6,$7,$8,$9,$2,$3,0*
0 Add four circle primitives for the rounded corners*
1,1,$1+$1,$2,$3*
1,1,$1+$1,$4,$5*
1,1,$1+$1,$6,$7*
1,1,$1+$1,$8,$9*
0 Add four rect primitives between the rounded corners*
20,1,$1+$1,$2,$3,$4,$5,0*
20,1,$1+$1,$4,$5,$6,$7,0*
20,1,$1+$1,$6,$7,$8,$9,0*
20,1,$1+$1,$8,$9,$2,$3,0*%
%AMRotRect*
0 Rectangle, with rotation*
0 The origin of the aperture is its center*
0 $1 length*
0 $2 width*
0 $3 Rotation angle, in degrees counterclockwise*
0 Add horizontal line*
21,1,$1,$2,0,0,$3*%
G04 Aperture macros list end*
%ADD10C,0.120000*%
%ADD11C,0.150000*%
%ADD12C,0.300000*%
%ADD13C,0.100000*%
%ADD14C,0.200000*%
%ADD15C,0.127000*%
%ADD16C,4.400000*%
%ADD17C,2.200000*%
%ADD18C,4.000000*%
%ADD19C,4.200000*%
%ADD20C,2.000000*%
%ADD21RotRect,4.400000X4.400000X150.000000*%
%ADD22C,3.200000*%
%ADD23C,1.152000*%
%ADD24RoundRect,0.575000X-0.675000X-0.575000X0.675000X-0.575000X0.675000X0.575000X-0.675000X0.575000X0*%
%ADD25C,5.600000*%
%ADD26R,1.700000X1.700000*%
%ADD27O,1.700000X1.700000*%
%ADD28R,2.200000X2.200000*%
%ADD29C,3.300000*%
%ADD30C,1.750000*%
%ADD31C,3.987800*%
%ADD32C,1.700000*%
%ADD33C,0.900000*%
%ADD34C,1.200000*%
%ADD35R,1.200000X1.200000*%
%ADD36C,0.750000*%
%ADD37O,1.000000X1.800000*%
%ADD38O,1.000000X2.200000*%
G04 APERTURE END LIST*
D10*
X173199989Y-107000001D02*
X173199984Y-108470009D01*
X214899966Y-63700009D02*
X214899965Y-97700007D01*
X172499976Y-108470010D02*
X173199978Y-108470012D01*
X214899965Y-97700007D02*
X212949963Y-97700006D01*
X181099966Y-97700001D02*
X181099971Y-63700010D01*
X172499974Y-104020013D02*
X173199978Y-104020008D01*
X173199978Y-104020008D02*
X173199977Y-105500000D01*
X183049970Y-97700003D02*
X181099966Y-97700001D01*
D11*
X172714271Y-110086428D02*
X173476176Y-110086428D01*
X173095223Y-110467380D02*
X173095223Y-109705476D01*
X174428556Y-109467380D02*
X173952366Y-109467380D01*
X173952366Y-109467380D02*
X173904747Y-109943571D01*
X173904747Y-109943571D02*
X173952366Y-109895952D01*
X173952366Y-109895952D02*
X174047604Y-109848333D01*
X174047604Y-109848333D02*
X174285699Y-109848333D01*
X174285699Y-109848333D02*
X174380937Y-109895952D01*
X174380937Y-109895952D02*
X174428556Y-109943571D01*
X174428556Y-109943571D02*
X174476175Y-110038809D01*
X174476175Y-110038809D02*
X174476175Y-110276904D01*
X174476175Y-110276904D02*
X174428556Y-110372142D01*
X174428556Y-110372142D02*
X174380937Y-110419761D01*
X174380937Y-110419761D02*
X174285699Y-110467380D01*
X174285699Y-110467380D02*
X174047604Y-110467380D01*
X174047604Y-110467380D02*
X173952366Y-110419761D01*
X173952366Y-110419761D02*
X173904747Y-110372142D01*
X174761890Y-109467380D02*
X175095223Y-110467380D01*
X175095223Y-110467380D02*
X175428556Y-109467380D01*
X217688083Y-104549990D02*
X217592845Y-104502370D01*
X217592845Y-104502370D02*
X217449988Y-104502370D01*
X217449988Y-104502370D02*
X217307131Y-104549990D01*
X217307131Y-104549990D02*
X217211893Y-104645228D01*
X217211893Y-104645228D02*
X217164274Y-104740466D01*
X217164274Y-104740466D02*
X217116655Y-104930942D01*
X217116655Y-104930942D02*
X217116655Y-105073799D01*
X217116655Y-105073799D02*
X217164274Y-105264275D01*
X217164274Y-105264275D02*
X217211893Y-105359513D01*
X217211893Y-105359513D02*
X217307131Y-105454751D01*
X217307131Y-105454751D02*
X217449988Y-105502370D01*
X217449988Y-105502370D02*
X217545226Y-105502370D01*
X217545226Y-105502370D02*
X217688083Y-105454751D01*
X217688083Y-105454751D02*
X217735702Y-105407132D01*
X217735702Y-105407132D02*
X217735702Y-105073799D01*
X217735702Y-105073799D02*
X217545226Y-105073799D01*
X218164274Y-105502370D02*
X218164274Y-104502370D01*
X218164274Y-104502370D02*
X218735702Y-105502370D01*
X218735702Y-105502370D02*
X218735702Y-104502370D01*
X219211893Y-105502370D02*
X219211893Y-104502370D01*
X219211893Y-104502370D02*
X219449988Y-104502370D01*
X219449988Y-104502370D02*
X219592845Y-104549990D01*
X219592845Y-104549990D02*
X219688083Y-104645228D01*
X219688083Y-104645228D02*
X219735702Y-104740466D01*
X219735702Y-104740466D02*
X219783321Y-104930942D01*
X219783321Y-104930942D02*
X219783321Y-105073799D01*
X219783321Y-105073799D02*
X219735702Y-105264275D01*
X219735702Y-105264275D02*
X219688083Y-105359513D01*
X219688083Y-105359513D02*
X219592845Y-105454751D01*
X219592845Y-105454751D02*
X219449988Y-105502370D01*
X219449988Y-105502370D02*
X219211893Y-105502370D01*
X217855394Y-102857132D02*
X217807775Y-102904751D01*
X217807775Y-102904751D02*
X217664918Y-102952370D01*
X217664918Y-102952370D02*
X217569680Y-102952370D01*
X217569680Y-102952370D02*
X217426823Y-102904751D01*
X217426823Y-102904751D02*
X217331585Y-102809513D01*
X217331585Y-102809513D02*
X217283966Y-102714275D01*
X217283966Y-102714275D02*
X217236347Y-102523799D01*
X217236347Y-102523799D02*
X217236347Y-102380942D01*
X217236347Y-102380942D02*
X217283966Y-102190466D01*
X217283966Y-102190466D02*
X217331585Y-102095228D01*
X217331585Y-102095228D02*
X217426823Y-101999990D01*
X217426823Y-101999990D02*
X217569680Y-101952370D01*
X217569680Y-101952370D02*
X217664918Y-101952370D01*
X217664918Y-101952370D02*
X217807775Y-101999990D01*
X217807775Y-101999990D02*
X217855394Y-102047609D01*
X218760156Y-102952370D02*
X218283966Y-102952370D01*
X218283966Y-102952370D02*
X218283966Y-101952370D01*
X219093490Y-102952370D02*
X219093490Y-101952370D01*
X219664918Y-102952370D02*
X219236347Y-102380942D01*
X219664918Y-101952370D02*
X219093490Y-102523799D01*
X217142851Y-108004756D02*
X217285708Y-108052375D01*
X217285708Y-108052375D02*
X217523803Y-108052375D01*
X217523803Y-108052375D02*
X217619041Y-108004756D01*
X217619041Y-108004756D02*
X217666660Y-107957137D01*
X217666660Y-107957137D02*
X217714279Y-107861899D01*
X217714279Y-107861899D02*
X217714279Y-107766661D01*
X217714279Y-107766661D02*
X217666660Y-107671423D01*
X217666660Y-107671423D02*
X217619041Y-107623804D01*
X217619041Y-107623804D02*
X217523803Y-107576185D01*
X217523803Y-107576185D02*
X217333327Y-107528566D01*
X217333327Y-107528566D02*
X217238089Y-107480947D01*
X217238089Y-107480947D02*
X217190470Y-107433328D01*
X217190470Y-107433328D02*
X217142851Y-107338090D01*
X217142851Y-107338090D02*
X217142851Y-107242852D01*
X217142851Y-107242852D02*
X217190470Y-107147614D01*
X217190470Y-107147614D02*
X217238089Y-107099995D01*
X217238089Y-107099995D02*
X217333327Y-107052375D01*
X217333327Y-107052375D02*
X217571422Y-107052375D01*
X217571422Y-107052375D02*
X217714279Y-107099995D01*
X218047613Y-107052375D02*
X218285708Y-108052375D01*
X218285708Y-108052375D02*
X218476184Y-107338090D01*
X218476184Y-107338090D02*
X218666660Y-108052375D01*
X218666660Y-108052375D02*
X218904756Y-107052375D01*
X219285708Y-108052375D02*
X219285708Y-107052375D01*
X219285708Y-107052375D02*
X219523803Y-107052375D01*
X219523803Y-107052375D02*
X219666660Y-107099995D01*
X219666660Y-107099995D02*
X219761898Y-107195233D01*
X219761898Y-107195233D02*
X219809517Y-107290471D01*
X219809517Y-107290471D02*
X219857136Y-107480947D01*
X219857136Y-107480947D02*
X219857136Y-107623804D01*
X219857136Y-107623804D02*
X219809517Y-107814280D01*
X219809517Y-107814280D02*
X219761898Y-107909518D01*
X219761898Y-107909518D02*
X219666660Y-108004756D01*
X219666660Y-108004756D02*
X219523803Y-108052375D01*
X219523803Y-108052375D02*
X219285708Y-108052375D01*
D12*
X187352340Y-113484770D02*
X187352340Y-111484770D01*
X187352340Y-112437151D02*
X188495197Y-112437151D01*
X188495197Y-113484770D02*
X188495197Y-111484770D01*
X189733292Y-113484770D02*
X189542816Y-113389532D01*
X189542816Y-113389532D02*
X189447578Y-113294294D01*
X189447578Y-113294294D02*
X189352340Y-113103818D01*
X189352340Y-113103818D02*
X189352340Y-112532389D01*
X189352340Y-112532389D02*
X189447578Y-112341913D01*
X189447578Y-112341913D02*
X189542816Y-112246675D01*
X189542816Y-112246675D02*
X189733292Y-112151437D01*
X189733292Y-112151437D02*
X190019007Y-112151437D01*
X190019007Y-112151437D02*
X190209483Y-112246675D01*
X190209483Y-112246675D02*
X190304721Y-112341913D01*
X190304721Y-112341913D02*
X190399959Y-112532389D01*
X190399959Y-112532389D02*
X190399959Y-113103818D01*
X190399959Y-113103818D02*
X190304721Y-113294294D01*
X190304721Y-113294294D02*
X190209483Y-113389532D01*
X190209483Y-113389532D02*
X190019007Y-113484770D01*
X190019007Y-113484770D02*
X189733292Y-113484770D01*
X191257102Y-112151437D02*
X191257102Y-113484770D01*
X191257102Y-112341913D02*
X191352340Y-112246675D01*
X191352340Y-112246675D02*
X191542816Y-112151437D01*
X191542816Y-112151437D02*
X191828531Y-112151437D01*
X191828531Y-112151437D02*
X192019007Y-112246675D01*
X192019007Y-112246675D02*
X192114245Y-112437151D01*
X192114245Y-112437151D02*
X192114245Y-113484770D01*
X193828531Y-113389532D02*
X193638055Y-113484770D01*
X193638055Y-113484770D02*
X193257102Y-113484770D01*
X193257102Y-113484770D02*
X193066626Y-113389532D01*
X193066626Y-113389532D02*
X192971388Y-113199056D01*
X192971388Y-113199056D02*
X192971388Y-112437151D01*
X192971388Y-112437151D02*
X193066626Y-112246675D01*
X193066626Y-112246675D02*
X193257102Y-112151437D01*
X193257102Y-112151437D02*
X193638055Y-112151437D01*
X193638055Y-112151437D02*
X193828531Y-112246675D01*
X193828531Y-112246675D02*
X193923769Y-112437151D01*
X193923769Y-112437151D02*
X193923769Y-112627628D01*
X193923769Y-112627628D02*
X192971388Y-112818104D01*
X194590436Y-112151437D02*
X195066626Y-113484770D01*
X195542817Y-112151437D02*
X195066626Y-113484770D01*
X195066626Y-113484770D02*
X194876150Y-113960961D01*
X194876150Y-113960961D02*
X194780912Y-114056199D01*
X194780912Y-114056199D02*
X194590436Y-114151437D01*
X197161865Y-113484770D02*
X197161865Y-111484770D01*
X197161865Y-113389532D02*
X196971389Y-113484770D01*
X196971389Y-113484770D02*
X196590436Y-113484770D01*
X196590436Y-113484770D02*
X196399960Y-113389532D01*
X196399960Y-113389532D02*
X196304722Y-113294294D01*
X196304722Y-113294294D02*
X196209484Y-113103818D01*
X196209484Y-113103818D02*
X196209484Y-112532389D01*
X196209484Y-112532389D02*
X196304722Y-112341913D01*
X196304722Y-112341913D02*
X196399960Y-112246675D01*
X196399960Y-112246675D02*
X196590436Y-112151437D01*
X196590436Y-112151437D02*
X196971389Y-112151437D01*
X196971389Y-112151437D02*
X197161865Y-112246675D01*
X198876151Y-113389532D02*
X198685675Y-113484770D01*
X198685675Y-113484770D02*
X198304722Y-113484770D01*
X198304722Y-113484770D02*
X198114246Y-113389532D01*
X198114246Y-113389532D02*
X198019008Y-113199056D01*
X198019008Y-113199056D02*
X198019008Y-112437151D01*
X198019008Y-112437151D02*
X198114246Y-112246675D01*
X198114246Y-112246675D02*
X198304722Y-112151437D01*
X198304722Y-112151437D02*
X198685675Y-112151437D01*
X198685675Y-112151437D02*
X198876151Y-112246675D01*
X198876151Y-112246675D02*
X198971389Y-112437151D01*
X198971389Y-112437151D02*
X198971389Y-112627628D01*
X198971389Y-112627628D02*
X198019008Y-112818104D01*
X199638056Y-112151437D02*
X200019008Y-113484770D01*
X200019008Y-113484770D02*
X200399961Y-112532389D01*
X200399961Y-112532389D02*
X200780913Y-113484770D01*
X200780913Y-113484770D02*
X201161865Y-112151437D01*
X202838056Y-111484770D02*
X203504722Y-113484770D01*
X203504722Y-113484770D02*
X204171389Y-111484770D01*
X204742818Y-111675247D02*
X204838056Y-111580009D01*
X204838056Y-111580009D02*
X205028532Y-111484770D01*
X205028532Y-111484770D02*
X205504723Y-111484770D01*
X205504723Y-111484770D02*
X205695199Y-111580009D01*
X205695199Y-111580009D02*
X205790437Y-111675247D01*
X205790437Y-111675247D02*
X205885675Y-111865723D01*
X205885675Y-111865723D02*
X205885675Y-112056199D01*
X205885675Y-112056199D02*
X205790437Y-112341913D01*
X205790437Y-112341913D02*
X204647580Y-113484770D01*
X204647580Y-113484770D02*
X205885675Y-113484770D01*
X206742818Y-113294294D02*
X206838056Y-113389532D01*
X206838056Y-113389532D02*
X206742818Y-113484770D01*
X206742818Y-113484770D02*
X206647580Y-113389532D01*
X206647580Y-113389532D02*
X206742818Y-113294294D01*
X206742818Y-113294294D02*
X206742818Y-113484770D01*
X208076151Y-111484770D02*
X208266628Y-111484770D01*
X208266628Y-111484770D02*
X208457104Y-111580009D01*
X208457104Y-111580009D02*
X208552342Y-111675247D01*
X208552342Y-111675247D02*
X208647580Y-111865723D01*
X208647580Y-111865723D02*
X208742818Y-112246675D01*
X208742818Y-112246675D02*
X208742818Y-112722866D01*
X208742818Y-112722866D02*
X208647580Y-113103818D01*
X208647580Y-113103818D02*
X208552342Y-113294294D01*
X208552342Y-113294294D02*
X208457104Y-113389532D01*
X208457104Y-113389532D02*
X208266628Y-113484770D01*
X208266628Y-113484770D02*
X208076151Y-113484770D01*
X208076151Y-113484770D02*
X207885675Y-113389532D01*
X207885675Y-113389532D02*
X207790437Y-113294294D01*
X207790437Y-113294294D02*
X207695199Y-113103818D01*
X207695199Y-113103818D02*
X207599961Y-112722866D01*
X207599961Y-112722866D02*
X207599961Y-112246675D01*
X207599961Y-112246675D02*
X207695199Y-111865723D01*
X207695199Y-111865723D02*
X207790437Y-111675247D01*
X207790437Y-111675247D02*
X207885675Y-111580009D01*
X207885675Y-111580009D02*
X208076151Y-111484770D01*
D11*
X173409513Y-113067382D02*
X173076180Y-112591192D01*
X172838085Y-113067382D02*
X172838085Y-112067382D01*
X172838085Y-112067382D02*
X173219037Y-112067382D01*
X173219037Y-112067382D02*
X173314275Y-112115002D01*
X173314275Y-112115002D02*
X173361894Y-112162621D01*
X173361894Y-112162621D02*
X173409513Y-112257859D01*
X173409513Y-112257859D02*
X173409513Y-112400716D01*
X173409513Y-112400716D02*
X173361894Y-112495954D01*
X173361894Y-112495954D02*
X173314275Y-112543573D01*
X173314275Y-112543573D02*
X173219037Y-112591192D01*
X173219037Y-112591192D02*
X172838085Y-112591192D01*
X174361894Y-112115002D02*
X174266656Y-112067382D01*
X174266656Y-112067382D02*
X174123799Y-112067382D01*
X174123799Y-112067382D02*
X173980942Y-112115002D01*
X173980942Y-112115002D02*
X173885704Y-112210240D01*
X173885704Y-112210240D02*
X173838085Y-112305478D01*
X173838085Y-112305478D02*
X173790466Y-112495954D01*
X173790466Y-112495954D02*
X173790466Y-112638811D01*
X173790466Y-112638811D02*
X173838085Y-112829287D01*
X173838085Y-112829287D02*
X173885704Y-112924525D01*
X173885704Y-112924525D02*
X173980942Y-113019763D01*
X173980942Y-113019763D02*
X174123799Y-113067382D01*
X174123799Y-113067382D02*
X174219037Y-113067382D01*
X174219037Y-113067382D02*
X174361894Y-113019763D01*
X174361894Y-113019763D02*
X174409513Y-112972144D01*
X174409513Y-112972144D02*
X174409513Y-112638811D01*
X174409513Y-112638811D02*
X174219037Y-112638811D01*
X175171418Y-112543573D02*
X175314275Y-112591192D01*
X175314275Y-112591192D02*
X175361894Y-112638811D01*
X175361894Y-112638811D02*
X175409513Y-112734049D01*
X175409513Y-112734049D02*
X175409513Y-112876906D01*
X175409513Y-112876906D02*
X175361894Y-112972144D01*
X175361894Y-112972144D02*
X175314275Y-113019763D01*
X175314275Y-113019763D02*
X175219037Y-113067382D01*
X175219037Y-113067382D02*
X174838085Y-113067382D01*
X174838085Y-113067382D02*
X174838085Y-112067382D01*
X174838085Y-112067382D02*
X175171418Y-112067382D01*
X175171418Y-112067382D02*
X175266656Y-112115002D01*
X175266656Y-112115002D02*
X175314275Y-112162621D01*
X175314275Y-112162621D02*
X175361894Y-112257859D01*
X175361894Y-112257859D02*
X175361894Y-112353097D01*
X175361894Y-112353097D02*
X175314275Y-112448335D01*
X175314275Y-112448335D02*
X175266656Y-112495954D01*
X175266656Y-112495954D02*
X175171418Y-112543573D01*
X175171418Y-112543573D02*
X174838085Y-112543573D01*
X194590446Y-152267385D02*
X195161874Y-152267385D01*
X194876160Y-153267385D02*
X194876160Y-152267385D01*
X195495208Y-153267385D02*
X195495208Y-152600719D01*
X195495208Y-152791195D02*
X195542827Y-152695957D01*
X195542827Y-152695957D02*
X195590446Y-152648338D01*
X195590446Y-152648338D02*
X195685684Y-152600719D01*
X195685684Y-152600719D02*
X195780922Y-152600719D01*
X196542827Y-153267385D02*
X196542827Y-152743576D01*
X196542827Y-152743576D02*
X196495208Y-152648338D01*
X196495208Y-152648338D02*
X196399970Y-152600719D01*
X196399970Y-152600719D02*
X196209494Y-152600719D01*
X196209494Y-152600719D02*
X196114256Y-152648338D01*
X196542827Y-153219766D02*
X196447589Y-153267385D01*
X196447589Y-153267385D02*
X196209494Y-153267385D01*
X196209494Y-153267385D02*
X196114256Y-153219766D01*
X196114256Y-153219766D02*
X196066637Y-153124528D01*
X196066637Y-153124528D02*
X196066637Y-153029290D01*
X196066637Y-153029290D02*
X196114256Y-152934052D01*
X196114256Y-152934052D02*
X196209494Y-152886433D01*
X196209494Y-152886433D02*
X196447589Y-152886433D01*
X196447589Y-152886433D02*
X196542827Y-152838814D01*
X197447589Y-153219766D02*
X197352351Y-153267385D01*
X197352351Y-153267385D02*
X197161875Y-153267385D01*
X197161875Y-153267385D02*
X197066637Y-153219766D01*
X197066637Y-153219766D02*
X197019018Y-153172147D01*
X197019018Y-153172147D02*
X196971399Y-153076909D01*
X196971399Y-153076909D02*
X196971399Y-152791195D01*
X196971399Y-152791195D02*
X197019018Y-152695957D01*
X197019018Y-152695957D02*
X197066637Y-152648338D01*
X197066637Y-152648338D02*
X197161875Y-152600719D01*
X197161875Y-152600719D02*
X197352351Y-152600719D01*
X197352351Y-152600719D02*
X197447589Y-152648338D01*
X197876161Y-153267385D02*
X197876161Y-152267385D01*
X197971399Y-152886433D02*
X198257113Y-153267385D01*
X198257113Y-152600719D02*
X197876161Y-152981671D01*
X198685685Y-153267385D02*
X198685685Y-152267385D01*
X198685685Y-152648338D02*
X198780923Y-152600719D01*
X198780923Y-152600719D02*
X198971399Y-152600719D01*
X198971399Y-152600719D02*
X199066637Y-152648338D01*
X199066637Y-152648338D02*
X199114256Y-152695957D01*
X199114256Y-152695957D02*
X199161875Y-152791195D01*
X199161875Y-152791195D02*
X199161875Y-153076909D01*
X199161875Y-153076909D02*
X199114256Y-153172147D01*
X199114256Y-153172147D02*
X199066637Y-153219766D01*
X199066637Y-153219766D02*
X198971399Y-153267385D01*
X198971399Y-153267385D02*
X198780923Y-153267385D01*
X198780923Y-153267385D02*
X198685685Y-153219766D01*
X200019018Y-153267385D02*
X200019018Y-152743576D01*
X200019018Y-152743576D02*
X199971399Y-152648338D01*
X199971399Y-152648338D02*
X199876161Y-152600719D01*
X199876161Y-152600719D02*
X199685685Y-152600719D01*
X199685685Y-152600719D02*
X199590447Y-152648338D01*
X200019018Y-153219766D02*
X199923780Y-153267385D01*
X199923780Y-153267385D02*
X199685685Y-153267385D01*
X199685685Y-153267385D02*
X199590447Y-153219766D01*
X199590447Y-153219766D02*
X199542828Y-153124528D01*
X199542828Y-153124528D02*
X199542828Y-153029290D01*
X199542828Y-153029290D02*
X199590447Y-152934052D01*
X199590447Y-152934052D02*
X199685685Y-152886433D01*
X199685685Y-152886433D02*
X199923780Y-152886433D01*
X199923780Y-152886433D02*
X200019018Y-152838814D01*
X200638066Y-153267385D02*
X200542828Y-153219766D01*
X200542828Y-153219766D02*
X200495209Y-153124528D01*
X200495209Y-153124528D02*
X200495209Y-152267385D01*
X201161876Y-153267385D02*
X201066638Y-153219766D01*
X201066638Y-153219766D02*
X201019019Y-153124528D01*
X201019019Y-153124528D02*
X201019019Y-152267385D01*
X173338080Y-105815001D02*
X173242842Y-105767381D01*
X173242842Y-105767381D02*
X173099985Y-105767381D01*
X173099985Y-105767381D02*
X172957128Y-105815001D01*
X172957128Y-105815001D02*
X172861890Y-105910239D01*
X172861890Y-105910239D02*
X172814271Y-106005477D01*
X172814271Y-106005477D02*
X172766652Y-106195953D01*
X172766652Y-106195953D02*
X172766652Y-106338810D01*
X172766652Y-106338810D02*
X172814271Y-106529286D01*
X172814271Y-106529286D02*
X172861890Y-106624524D01*
X172861890Y-106624524D02*
X172957128Y-106719762D01*
X172957128Y-106719762D02*
X173099985Y-106767381D01*
X173099985Y-106767381D02*
X173195223Y-106767381D01*
X173195223Y-106767381D02*
X173338080Y-106719762D01*
X173338080Y-106719762D02*
X173385699Y-106672143D01*
X173385699Y-106672143D02*
X173385699Y-106338810D01*
X173385699Y-106338810D02*
X173195223Y-106338810D01*
X173814271Y-106767381D02*
X173814271Y-105767381D01*
X173814271Y-105767381D02*
X174385699Y-106767381D01*
X174385699Y-106767381D02*
X174385699Y-105767381D01*
X174861890Y-106767381D02*
X174861890Y-105767381D01*
X174861890Y-105767381D02*
X175099985Y-105767381D01*
X175099985Y-105767381D02*
X175242842Y-105815001D01*
X175242842Y-105815001D02*
X175338080Y-105910239D01*
X175338080Y-105910239D02*
X175385699Y-106005477D01*
X175385699Y-106005477D02*
X175433318Y-106195953D01*
X175433318Y-106195953D02*
X175433318Y-106338810D01*
X175433318Y-106338810D02*
X175385699Y-106529286D01*
X175385699Y-106529286D02*
X175338080Y-106624524D01*
X175338080Y-106624524D02*
X175242842Y-106719762D01*
X175242842Y-106719762D02*
X175099985Y-106767381D01*
X175099985Y-106767381D02*
X174861890Y-106767381D01*
X178334641Y-61487148D02*
X178287022Y-61534767D01*
X178287022Y-61534767D02*
X178144165Y-61582386D01*
X178144165Y-61582386D02*
X178048927Y-61582386D01*
X178048927Y-61582386D02*
X177906070Y-61534767D01*
X177906070Y-61534767D02*
X177810832Y-61439529D01*
X177810832Y-61439529D02*
X177763213Y-61344291D01*
X177763213Y-61344291D02*
X177715594Y-61153815D01*
X177715594Y-61153815D02*
X177715594Y-61010958D01*
X177715594Y-61010958D02*
X177763213Y-60820482D01*
X177763213Y-60820482D02*
X177810832Y-60725244D01*
X177810832Y-60725244D02*
X177906070Y-60630006D01*
X177906070Y-60630006D02*
X178048927Y-60582386D01*
X178048927Y-60582386D02*
X178144165Y-60582386D01*
X178144165Y-60582386D02*
X178287022Y-60630006D01*
X178287022Y-60630006D02*
X178334641Y-60677625D01*
X178715594Y-61534767D02*
X178858451Y-61582386D01*
X178858451Y-61582386D02*
X179096546Y-61582386D01*
X179096546Y-61582386D02*
X179191784Y-61534767D01*
X179191784Y-61534767D02*
X179239403Y-61487148D01*
X179239403Y-61487148D02*
X179287022Y-61391910D01*
X179287022Y-61391910D02*
X179287022Y-61296672D01*
X179287022Y-61296672D02*
X179239403Y-61201434D01*
X179239403Y-61201434D02*
X179191784Y-61153815D01*
X179191784Y-61153815D02*
X179096546Y-61106196D01*
X179096546Y-61106196D02*
X178906070Y-61058577D01*
X178906070Y-61058577D02*
X178810832Y-61010958D01*
X178810832Y-61010958D02*
X178763213Y-60963339D01*
X178763213Y-60963339D02*
X178715594Y-60868101D01*
X178715594Y-60868101D02*
X178715594Y-60772863D01*
X178715594Y-60772863D02*
X178763213Y-60677625D01*
X178763213Y-60677625D02*
X178810832Y-60630006D01*
X178810832Y-60630006D02*
X178906070Y-60582386D01*
X178906070Y-60582386D02*
X179144165Y-60582386D01*
X179144165Y-60582386D02*
X179287022Y-60630006D01*
%TO.C,H12*%
X173761896Y-202167389D02*
X173761896Y-201167389D01*
X173761896Y-201643580D02*
X174333324Y-201643580D01*
X174333324Y-202167389D02*
X174333324Y-201167389D01*
X175333324Y-202167389D02*
X174761896Y-202167389D01*
X175047610Y-202167389D02*
X175047610Y-201167389D01*
X175047610Y-201167389D02*
X174952372Y-201310247D01*
X174952372Y-201310247D02*
X174857134Y-201405485D01*
X174857134Y-201405485D02*
X174761896Y-201453104D01*
X175714277Y-201262628D02*
X175761896Y-201215009D01*
X175761896Y-201215009D02*
X175857134Y-201167389D01*
X175857134Y-201167389D02*
X176095229Y-201167389D01*
X176095229Y-201167389D02*
X176190467Y-201215009D01*
X176190467Y-201215009D02*
X176238086Y-201262628D01*
X176238086Y-201262628D02*
X176285705Y-201357866D01*
X176285705Y-201357866D02*
X176285705Y-201453104D01*
X176285705Y-201453104D02*
X176238086Y-201595961D01*
X176238086Y-201595961D02*
X175666658Y-202167389D01*
X175666658Y-202167389D02*
X176285705Y-202167389D01*
D13*
%TO.C,SW65*%
X196552344Y-172255818D02*
X196666630Y-172293913D01*
X196666630Y-172293913D02*
X196857106Y-172293913D01*
X196857106Y-172293913D02*
X196933297Y-172255818D01*
X196933297Y-172255818D02*
X196971392Y-172217723D01*
X196971392Y-172217723D02*
X197009487Y-172141532D01*
X197009487Y-172141532D02*
X197009487Y-172065342D01*
X197009487Y-172065342D02*
X196971392Y-171989151D01*
X196971392Y-171989151D02*
X196933297Y-171951056D01*
X196933297Y-171951056D02*
X196857106Y-171912961D01*
X196857106Y-171912961D02*
X196704725Y-171874866D01*
X196704725Y-171874866D02*
X196628535Y-171836770D01*
X196628535Y-171836770D02*
X196590440Y-171798675D01*
X196590440Y-171798675D02*
X196552344Y-171722485D01*
X196552344Y-171722485D02*
X196552344Y-171646294D01*
X196552344Y-171646294D02*
X196590440Y-171570104D01*
X196590440Y-171570104D02*
X196628535Y-171532009D01*
X196628535Y-171532009D02*
X196704725Y-171493913D01*
X196704725Y-171493913D02*
X196895202Y-171493913D01*
X196895202Y-171493913D02*
X197009487Y-171532009D01*
X197276154Y-171493913D02*
X197466630Y-172293913D01*
X197466630Y-172293913D02*
X197619011Y-171722485D01*
X197619011Y-171722485D02*
X197771392Y-172293913D01*
X197771392Y-172293913D02*
X197961869Y-171493913D01*
X198609488Y-171493913D02*
X198457107Y-171493913D01*
X198457107Y-171493913D02*
X198380916Y-171532009D01*
X198380916Y-171532009D02*
X198342821Y-171570104D01*
X198342821Y-171570104D02*
X198266631Y-171684389D01*
X198266631Y-171684389D02*
X198228535Y-171836770D01*
X198228535Y-171836770D02*
X198228535Y-172141532D01*
X198228535Y-172141532D02*
X198266631Y-172217723D01*
X198266631Y-172217723D02*
X198304726Y-172255818D01*
X198304726Y-172255818D02*
X198380916Y-172293913D01*
X198380916Y-172293913D02*
X198533297Y-172293913D01*
X198533297Y-172293913D02*
X198609488Y-172255818D01*
X198609488Y-172255818D02*
X198647583Y-172217723D01*
X198647583Y-172217723D02*
X198685678Y-172141532D01*
X198685678Y-172141532D02*
X198685678Y-171951056D01*
X198685678Y-171951056D02*
X198647583Y-171874866D01*
X198647583Y-171874866D02*
X198609488Y-171836770D01*
X198609488Y-171836770D02*
X198533297Y-171798675D01*
X198533297Y-171798675D02*
X198380916Y-171798675D01*
X198380916Y-171798675D02*
X198304726Y-171836770D01*
X198304726Y-171836770D02*
X198266631Y-171874866D01*
X198266631Y-171874866D02*
X198228535Y-171951056D01*
X199409488Y-171493913D02*
X199028536Y-171493913D01*
X199028536Y-171493913D02*
X198990440Y-171874866D01*
X198990440Y-171874866D02*
X199028536Y-171836770D01*
X199028536Y-171836770D02*
X199104726Y-171798675D01*
X199104726Y-171798675D02*
X199295202Y-171798675D01*
X199295202Y-171798675D02*
X199371393Y-171836770D01*
X199371393Y-171836770D02*
X199409488Y-171874866D01*
X199409488Y-171874866D02*
X199447583Y-171951056D01*
X199447583Y-171951056D02*
X199447583Y-172141532D01*
X199447583Y-172141532D02*
X199409488Y-172217723D01*
X199409488Y-172217723D02*
X199371393Y-172255818D01*
X199371393Y-172255818D02*
X199295202Y-172293913D01*
X199295202Y-172293913D02*
X199104726Y-172293913D01*
X199104726Y-172293913D02*
X199028536Y-172255818D01*
X199028536Y-172255818D02*
X198990440Y-172217723D01*
%TO.C,SW66*%
X220852371Y-198805806D02*
X220966657Y-198843901D01*
X220966657Y-198843901D02*
X221157133Y-198843901D01*
X221157133Y-198843901D02*
X221233324Y-198805806D01*
X221233324Y-198805806D02*
X221271419Y-198767711D01*
X221271419Y-198767711D02*
X221309514Y-198691520D01*
X221309514Y-198691520D02*
X221309514Y-198615330D01*
X221309514Y-198615330D02*
X221271419Y-198539139D01*
X221271419Y-198539139D02*
X221233324Y-198501044D01*
X221233324Y-198501044D02*
X221157133Y-198462949D01*
X221157133Y-198462949D02*
X221004752Y-198424854D01*
X221004752Y-198424854D02*
X220928562Y-198386758D01*
X220928562Y-198386758D02*
X220890467Y-198348663D01*
X220890467Y-198348663D02*
X220852371Y-198272473D01*
X220852371Y-198272473D02*
X220852371Y-198196282D01*
X220852371Y-198196282D02*
X220890467Y-198120092D01*
X220890467Y-198120092D02*
X220928562Y-198081997D01*
X220928562Y-198081997D02*
X221004752Y-198043901D01*
X221004752Y-198043901D02*
X221195229Y-198043901D01*
X221195229Y-198043901D02*
X221309514Y-198081997D01*
X221576181Y-198043901D02*
X221766657Y-198843901D01*
X221766657Y-198843901D02*
X221919038Y-198272473D01*
X221919038Y-198272473D02*
X222071419Y-198843901D01*
X222071419Y-198843901D02*
X222261896Y-198043901D01*
X222909515Y-198043901D02*
X222757134Y-198043901D01*
X222757134Y-198043901D02*
X222680943Y-198081997D01*
X222680943Y-198081997D02*
X222642848Y-198120092D01*
X222642848Y-198120092D02*
X222566658Y-198234377D01*
X222566658Y-198234377D02*
X222528562Y-198386758D01*
X222528562Y-198386758D02*
X222528562Y-198691520D01*
X222528562Y-198691520D02*
X222566658Y-198767711D01*
X222566658Y-198767711D02*
X222604753Y-198805806D01*
X222604753Y-198805806D02*
X222680943Y-198843901D01*
X222680943Y-198843901D02*
X222833324Y-198843901D01*
X222833324Y-198843901D02*
X222909515Y-198805806D01*
X222909515Y-198805806D02*
X222947610Y-198767711D01*
X222947610Y-198767711D02*
X222985705Y-198691520D01*
X222985705Y-198691520D02*
X222985705Y-198501044D01*
X222985705Y-198501044D02*
X222947610Y-198424854D01*
X222947610Y-198424854D02*
X222909515Y-198386758D01*
X222909515Y-198386758D02*
X222833324Y-198348663D01*
X222833324Y-198348663D02*
X222680943Y-198348663D01*
X222680943Y-198348663D02*
X222604753Y-198386758D01*
X222604753Y-198386758D02*
X222566658Y-198424854D01*
X222566658Y-198424854D02*
X222528562Y-198501044D01*
X223671420Y-198043901D02*
X223519039Y-198043901D01*
X223519039Y-198043901D02*
X223442848Y-198081997D01*
X223442848Y-198081997D02*
X223404753Y-198120092D01*
X223404753Y-198120092D02*
X223328563Y-198234377D01*
X223328563Y-198234377D02*
X223290467Y-198386758D01*
X223290467Y-198386758D02*
X223290467Y-198691520D01*
X223290467Y-198691520D02*
X223328563Y-198767711D01*
X223328563Y-198767711D02*
X223366658Y-198805806D01*
X223366658Y-198805806D02*
X223442848Y-198843901D01*
X223442848Y-198843901D02*
X223595229Y-198843901D01*
X223595229Y-198843901D02*
X223671420Y-198805806D01*
X223671420Y-198805806D02*
X223709515Y-198767711D01*
X223709515Y-198767711D02*
X223747610Y-198691520D01*
X223747610Y-198691520D02*
X223747610Y-198501044D01*
X223747610Y-198501044D02*
X223709515Y-198424854D01*
X223709515Y-198424854D02*
X223671420Y-198386758D01*
X223671420Y-198386758D02*
X223595229Y-198348663D01*
X223595229Y-198348663D02*
X223442848Y-198348663D01*
X223442848Y-198348663D02*
X223366658Y-198386758D01*
X223366658Y-198386758D02*
X223328563Y-198424854D01*
X223328563Y-198424854D02*
X223290467Y-198501044D01*
%TO.C,J4*%
X197733297Y-62443912D02*
X197733297Y-63015341D01*
X197733297Y-63015341D02*
X197695202Y-63129627D01*
X197695202Y-63129627D02*
X197619011Y-63205817D01*
X197619011Y-63205817D02*
X197504726Y-63243912D01*
X197504726Y-63243912D02*
X197428535Y-63243912D01*
X198457107Y-62710579D02*
X198457107Y-63243912D01*
X198266631Y-62405817D02*
X198076154Y-62977246D01*
X198076154Y-62977246D02*
X198571393Y-62977246D01*
D11*
X174014250Y-82619769D02*
X174157107Y-82667388D01*
X174157107Y-82667388D02*
X174395202Y-82667388D01*
X174395202Y-82667388D02*
X174490440Y-82619769D01*
X174490440Y-82619769D02*
X174538059Y-82572150D01*
X174538059Y-82572150D02*
X174585678Y-82476912D01*
X174585678Y-82476912D02*
X174585678Y-82381674D01*
X174585678Y-82381674D02*
X174538059Y-82286436D01*
X174538059Y-82286436D02*
X174490440Y-82238817D01*
X174490440Y-82238817D02*
X174395202Y-82191198D01*
X174395202Y-82191198D02*
X174204726Y-82143579D01*
X174204726Y-82143579D02*
X174109488Y-82095960D01*
X174109488Y-82095960D02*
X174061869Y-82048341D01*
X174061869Y-82048341D02*
X174014250Y-81953103D01*
X174014250Y-81953103D02*
X174014250Y-81857865D01*
X174014250Y-81857865D02*
X174061869Y-81762627D01*
X174061869Y-81762627D02*
X174109488Y-81715008D01*
X174109488Y-81715008D02*
X174204726Y-81667388D01*
X174204726Y-81667388D02*
X174442821Y-81667388D01*
X174442821Y-81667388D02*
X174585678Y-81715008D01*
X175585678Y-82572150D02*
X175538059Y-82619769D01*
X175538059Y-82619769D02*
X175395202Y-82667388D01*
X175395202Y-82667388D02*
X175299964Y-82667388D01*
X175299964Y-82667388D02*
X175157107Y-82619769D01*
X175157107Y-82619769D02*
X175061869Y-82524531D01*
X175061869Y-82524531D02*
X175014250Y-82429293D01*
X175014250Y-82429293D02*
X174966631Y-82238817D01*
X174966631Y-82238817D02*
X174966631Y-82095960D01*
X174966631Y-82095960D02*
X175014250Y-81905484D01*
X175014250Y-81905484D02*
X175061869Y-81810246D01*
X175061869Y-81810246D02*
X175157107Y-81715008D01*
X175157107Y-81715008D02*
X175299964Y-81667388D01*
X175299964Y-81667388D02*
X175395202Y-81667388D01*
X175395202Y-81667388D02*
X175538059Y-81715008D01*
X175538059Y-81715008D02*
X175585678Y-81762627D01*
X176014250Y-82667388D02*
X176014250Y-81667388D01*
X176585678Y-82667388D02*
X176157107Y-82095960D01*
X176585678Y-81667388D02*
X176014250Y-82238817D01*
X174014250Y-74686436D02*
X174776155Y-74686436D01*
X174395202Y-75067388D02*
X174395202Y-74305484D01*
X175728535Y-74067388D02*
X175252345Y-74067388D01*
X175252345Y-74067388D02*
X175204726Y-74543579D01*
X175204726Y-74543579D02*
X175252345Y-74495960D01*
X175252345Y-74495960D02*
X175347583Y-74448341D01*
X175347583Y-74448341D02*
X175585678Y-74448341D01*
X175585678Y-74448341D02*
X175680916Y-74495960D01*
X175680916Y-74495960D02*
X175728535Y-74543579D01*
X175728535Y-74543579D02*
X175776154Y-74638817D01*
X175776154Y-74638817D02*
X175776154Y-74876912D01*
X175776154Y-74876912D02*
X175728535Y-74972150D01*
X175728535Y-74972150D02*
X175680916Y-75019769D01*
X175680916Y-75019769D02*
X175585678Y-75067388D01*
X175585678Y-75067388D02*
X175347583Y-75067388D01*
X175347583Y-75067388D02*
X175252345Y-75019769D01*
X175252345Y-75019769D02*
X175204726Y-74972150D01*
X176061869Y-74067388D02*
X176395202Y-75067388D01*
X176395202Y-75067388D02*
X176728535Y-74067388D01*
X175133297Y-85072150D02*
X175085678Y-85119769D01*
X175085678Y-85119769D02*
X174942821Y-85167388D01*
X174942821Y-85167388D02*
X174847583Y-85167388D01*
X174847583Y-85167388D02*
X174704726Y-85119769D01*
X174704726Y-85119769D02*
X174609488Y-85024531D01*
X174609488Y-85024531D02*
X174561869Y-84929293D01*
X174561869Y-84929293D02*
X174514250Y-84738817D01*
X174514250Y-84738817D02*
X174514250Y-84595960D01*
X174514250Y-84595960D02*
X174561869Y-84405484D01*
X174561869Y-84405484D02*
X174609488Y-84310246D01*
X174609488Y-84310246D02*
X174704726Y-84215008D01*
X174704726Y-84215008D02*
X174847583Y-84167388D01*
X174847583Y-84167388D02*
X174942821Y-84167388D01*
X174942821Y-84167388D02*
X175085678Y-84215008D01*
X175085678Y-84215008D02*
X175133297Y-84262627D01*
X175514250Y-85119769D02*
X175657107Y-85167388D01*
X175657107Y-85167388D02*
X175895202Y-85167388D01*
X175895202Y-85167388D02*
X175990440Y-85119769D01*
X175990440Y-85119769D02*
X176038059Y-85072150D01*
X176038059Y-85072150D02*
X176085678Y-84976912D01*
X176085678Y-84976912D02*
X176085678Y-84881674D01*
X176085678Y-84881674D02*
X176038059Y-84786436D01*
X176038059Y-84786436D02*
X175990440Y-84738817D01*
X175990440Y-84738817D02*
X175895202Y-84691198D01*
X175895202Y-84691198D02*
X175704726Y-84643579D01*
X175704726Y-84643579D02*
X175609488Y-84595960D01*
X175609488Y-84595960D02*
X175561869Y-84548341D01*
X175561869Y-84548341D02*
X175514250Y-84453103D01*
X175514250Y-84453103D02*
X175514250Y-84357865D01*
X175514250Y-84357865D02*
X175561869Y-84262627D01*
X175561869Y-84262627D02*
X175609488Y-84215008D01*
X175609488Y-84215008D02*
X175704726Y-84167388D01*
X175704726Y-84167388D02*
X175942821Y-84167388D01*
X175942821Y-84167388D02*
X176085678Y-84215008D01*
X177502348Y-92167387D02*
X177169015Y-91691197D01*
X176930920Y-92167387D02*
X176930920Y-91167387D01*
X176930920Y-91167387D02*
X177311872Y-91167387D01*
X177311872Y-91167387D02*
X177407110Y-91215007D01*
X177407110Y-91215007D02*
X177454729Y-91262626D01*
X177454729Y-91262626D02*
X177502348Y-91357864D01*
X177502348Y-91357864D02*
X177502348Y-91500721D01*
X177502348Y-91500721D02*
X177454729Y-91595959D01*
X177454729Y-91595959D02*
X177407110Y-91643578D01*
X177407110Y-91643578D02*
X177311872Y-91691197D01*
X177311872Y-91691197D02*
X176930920Y-91691197D01*
X177883301Y-92119768D02*
X178026158Y-92167387D01*
X178026158Y-92167387D02*
X178264253Y-92167387D01*
X178264253Y-92167387D02*
X178359491Y-92119768D01*
X178359491Y-92119768D02*
X178407110Y-92072149D01*
X178407110Y-92072149D02*
X178454729Y-91976911D01*
X178454729Y-91976911D02*
X178454729Y-91881673D01*
X178454729Y-91881673D02*
X178407110Y-91786435D01*
X178407110Y-91786435D02*
X178359491Y-91738816D01*
X178359491Y-91738816D02*
X178264253Y-91691197D01*
X178264253Y-91691197D02*
X178073777Y-91643578D01*
X178073777Y-91643578D02*
X177978539Y-91595959D01*
X177978539Y-91595959D02*
X177930920Y-91548340D01*
X177930920Y-91548340D02*
X177883301Y-91453102D01*
X177883301Y-91453102D02*
X177883301Y-91357864D01*
X177883301Y-91357864D02*
X177930920Y-91262626D01*
X177930920Y-91262626D02*
X177978539Y-91215007D01*
X177978539Y-91215007D02*
X178073777Y-91167387D01*
X178073777Y-91167387D02*
X178311872Y-91167387D01*
X178311872Y-91167387D02*
X178454729Y-91215007D01*
X178740444Y-91167387D02*
X179311872Y-91167387D01*
X179026158Y-92167387D02*
X179026158Y-91167387D01*
X174538059Y-76615008D02*
X174442821Y-76567388D01*
X174442821Y-76567388D02*
X174299964Y-76567388D01*
X174299964Y-76567388D02*
X174157107Y-76615008D01*
X174157107Y-76615008D02*
X174061869Y-76710246D01*
X174061869Y-76710246D02*
X174014250Y-76805484D01*
X174014250Y-76805484D02*
X173966631Y-76995960D01*
X173966631Y-76995960D02*
X173966631Y-77138817D01*
X173966631Y-77138817D02*
X174014250Y-77329293D01*
X174014250Y-77329293D02*
X174061869Y-77424531D01*
X174061869Y-77424531D02*
X174157107Y-77519769D01*
X174157107Y-77519769D02*
X174299964Y-77567388D01*
X174299964Y-77567388D02*
X174395202Y-77567388D01*
X174395202Y-77567388D02*
X174538059Y-77519769D01*
X174538059Y-77519769D02*
X174585678Y-77472150D01*
X174585678Y-77472150D02*
X174585678Y-77138817D01*
X174585678Y-77138817D02*
X174395202Y-77138817D01*
X175014250Y-77567388D02*
X175014250Y-76567388D01*
X175014250Y-76567388D02*
X175585678Y-77567388D01*
X175585678Y-77567388D02*
X175585678Y-76567388D01*
X176061869Y-77567388D02*
X176061869Y-76567388D01*
X176061869Y-76567388D02*
X176299964Y-76567388D01*
X176299964Y-76567388D02*
X176442821Y-76615008D01*
X176442821Y-76615008D02*
X176538059Y-76710246D01*
X176538059Y-76710246D02*
X176585678Y-76805484D01*
X176585678Y-76805484D02*
X176633297Y-76995960D01*
X176633297Y-76995960D02*
X176633297Y-77138817D01*
X176633297Y-77138817D02*
X176585678Y-77329293D01*
X176585678Y-77329293D02*
X176538059Y-77424531D01*
X176538059Y-77424531D02*
X176442821Y-77519769D01*
X176442821Y-77519769D02*
X176299964Y-77567388D01*
X176299964Y-77567388D02*
X176061869Y-77567388D01*
X174538059Y-87767388D02*
X174538059Y-86767388D01*
X174538059Y-86767388D02*
X174776154Y-86767388D01*
X174776154Y-86767388D02*
X174919011Y-86815008D01*
X174919011Y-86815008D02*
X175014249Y-86910246D01*
X175014249Y-86910246D02*
X175061868Y-87005484D01*
X175061868Y-87005484D02*
X175109487Y-87195960D01*
X175109487Y-87195960D02*
X175109487Y-87338817D01*
X175109487Y-87338817D02*
X175061868Y-87529293D01*
X175061868Y-87529293D02*
X175014249Y-87624531D01*
X175014249Y-87624531D02*
X174919011Y-87719769D01*
X174919011Y-87719769D02*
X174776154Y-87767388D01*
X174776154Y-87767388D02*
X174538059Y-87767388D01*
X176109487Y-87672150D02*
X176061868Y-87719769D01*
X176061868Y-87719769D02*
X175919011Y-87767388D01*
X175919011Y-87767388D02*
X175823773Y-87767388D01*
X175823773Y-87767388D02*
X175680916Y-87719769D01*
X175680916Y-87719769D02*
X175585678Y-87624531D01*
X175585678Y-87624531D02*
X175538059Y-87529293D01*
X175538059Y-87529293D02*
X175490440Y-87338817D01*
X175490440Y-87338817D02*
X175490440Y-87195960D01*
X175490440Y-87195960D02*
X175538059Y-87005484D01*
X175538059Y-87005484D02*
X175585678Y-86910246D01*
X175585678Y-86910246D02*
X175680916Y-86815008D01*
X175680916Y-86815008D02*
X175823773Y-86767388D01*
X175823773Y-86767388D02*
X175919011Y-86767388D01*
X175919011Y-86767388D02*
X176061868Y-86815008D01*
X176061868Y-86815008D02*
X176109487Y-86862627D01*
X173728536Y-80167388D02*
X173728536Y-79167388D01*
X173728536Y-79167388D02*
X174061869Y-79881674D01*
X174061869Y-79881674D02*
X174395202Y-79167388D01*
X174395202Y-79167388D02*
X174395202Y-80167388D01*
X175061869Y-79167388D02*
X175252345Y-79167388D01*
X175252345Y-79167388D02*
X175347583Y-79215008D01*
X175347583Y-79215008D02*
X175442821Y-79310246D01*
X175442821Y-79310246D02*
X175490440Y-79500722D01*
X175490440Y-79500722D02*
X175490440Y-79834055D01*
X175490440Y-79834055D02*
X175442821Y-80024531D01*
X175442821Y-80024531D02*
X175347583Y-80119769D01*
X175347583Y-80119769D02*
X175252345Y-80167388D01*
X175252345Y-80167388D02*
X175061869Y-80167388D01*
X175061869Y-80167388D02*
X174966631Y-80119769D01*
X174966631Y-80119769D02*
X174871393Y-80024531D01*
X174871393Y-80024531D02*
X174823774Y-79834055D01*
X174823774Y-79834055D02*
X174823774Y-79500722D01*
X174823774Y-79500722D02*
X174871393Y-79310246D01*
X174871393Y-79310246D02*
X174966631Y-79215008D01*
X174966631Y-79215008D02*
X175061869Y-79167388D01*
X175871393Y-80119769D02*
X176014250Y-80167388D01*
X176014250Y-80167388D02*
X176252345Y-80167388D01*
X176252345Y-80167388D02*
X176347583Y-80119769D01*
X176347583Y-80119769D02*
X176395202Y-80072150D01*
X176395202Y-80072150D02*
X176442821Y-79976912D01*
X176442821Y-79976912D02*
X176442821Y-79881674D01*
X176442821Y-79881674D02*
X176395202Y-79786436D01*
X176395202Y-79786436D02*
X176347583Y-79738817D01*
X176347583Y-79738817D02*
X176252345Y-79691198D01*
X176252345Y-79691198D02*
X176061869Y-79643579D01*
X176061869Y-79643579D02*
X175966631Y-79595960D01*
X175966631Y-79595960D02*
X175919012Y-79548341D01*
X175919012Y-79548341D02*
X175871393Y-79453103D01*
X175871393Y-79453103D02*
X175871393Y-79357865D01*
X175871393Y-79357865D02*
X175919012Y-79262627D01*
X175919012Y-79262627D02*
X175966631Y-79215008D01*
X175966631Y-79215008D02*
X176061869Y-79167388D01*
X176061869Y-79167388D02*
X176299964Y-79167388D01*
X176299964Y-79167388D02*
X176442821Y-79215008D01*
X176871393Y-80167388D02*
X176871393Y-79167388D01*
D13*
%TO.C,SW67*%
X166552372Y-196335806D02*
X166666658Y-196373901D01*
X166666658Y-196373901D02*
X166857134Y-196373901D01*
X166857134Y-196373901D02*
X166933325Y-196335806D01*
X166933325Y-196335806D02*
X166971420Y-196297711D01*
X166971420Y-196297711D02*
X167009515Y-196221520D01*
X167009515Y-196221520D02*
X167009515Y-196145330D01*
X167009515Y-196145330D02*
X166971420Y-196069139D01*
X166971420Y-196069139D02*
X166933325Y-196031044D01*
X166933325Y-196031044D02*
X166857134Y-195992949D01*
X166857134Y-195992949D02*
X166704753Y-195954854D01*
X166704753Y-195954854D02*
X166628563Y-195916758D01*
X166628563Y-195916758D02*
X166590468Y-195878663D01*
X166590468Y-195878663D02*
X166552372Y-195802473D01*
X166552372Y-195802473D02*
X166552372Y-195726282D01*
X166552372Y-195726282D02*
X166590468Y-195650092D01*
X166590468Y-195650092D02*
X166628563Y-195611997D01*
X166628563Y-195611997D02*
X166704753Y-195573901D01*
X166704753Y-195573901D02*
X166895230Y-195573901D01*
X166895230Y-195573901D02*
X167009515Y-195611997D01*
X167276182Y-195573901D02*
X167466658Y-196373901D01*
X167466658Y-196373901D02*
X167619039Y-195802473D01*
X167619039Y-195802473D02*
X167771420Y-196373901D01*
X167771420Y-196373901D02*
X167961897Y-195573901D01*
X168609516Y-195573901D02*
X168457135Y-195573901D01*
X168457135Y-195573901D02*
X168380944Y-195611997D01*
X168380944Y-195611997D02*
X168342849Y-195650092D01*
X168342849Y-195650092D02*
X168266659Y-195764377D01*
X168266659Y-195764377D02*
X168228563Y-195916758D01*
X168228563Y-195916758D02*
X168228563Y-196221520D01*
X168228563Y-196221520D02*
X168266659Y-196297711D01*
X168266659Y-196297711D02*
X168304754Y-196335806D01*
X168304754Y-196335806D02*
X168380944Y-196373901D01*
X168380944Y-196373901D02*
X168533325Y-196373901D01*
X168533325Y-196373901D02*
X168609516Y-196335806D01*
X168609516Y-196335806D02*
X168647611Y-196297711D01*
X168647611Y-196297711D02*
X168685706Y-196221520D01*
X168685706Y-196221520D02*
X168685706Y-196031044D01*
X168685706Y-196031044D02*
X168647611Y-195954854D01*
X168647611Y-195954854D02*
X168609516Y-195916758D01*
X168609516Y-195916758D02*
X168533325Y-195878663D01*
X168533325Y-195878663D02*
X168380944Y-195878663D01*
X168380944Y-195878663D02*
X168304754Y-195916758D01*
X168304754Y-195916758D02*
X168266659Y-195954854D01*
X168266659Y-195954854D02*
X168228563Y-196031044D01*
X168952373Y-195573901D02*
X169485707Y-195573901D01*
X169485707Y-195573901D02*
X169142849Y-196373901D01*
%TO.C,SW65*%
X218299964Y-143000009D02*
G75*
G03*
X218299964Y-143000009I-20300000J0D01*
G01*
X226249964Y-143000009D02*
G75*
G03*
X226249964Y-143000009I-28250000J0D01*
G01*
D10*
%TO.C,SW66*%
X220999991Y-209899997D02*
X220999991Y-208999997D01*
X221499991Y-209899997D02*
X220999991Y-209899997D01*
X223899991Y-201999997D02*
X223899991Y-207999997D01*
X220999991Y-200999997D02*
X220999991Y-200099997D01*
X220999991Y-200099997D02*
X221499991Y-200099997D01*
%TO.C,J4*%
X175749964Y-63700008D02*
X175749964Y-73600008D01*
X175749964Y-90800008D02*
X175749964Y-100700008D01*
X175749964Y-100700008D02*
X220249964Y-100700008D01*
X220249964Y-63700008D02*
X175749964Y-63700008D01*
X220249964Y-100700008D02*
X220249964Y-63700008D01*
D14*
%TO.C,SW67*%
X168099992Y-210079997D02*
G75*
G03*
X168099992Y-210079997I-100000J0D01*
G01*
D15*
X170899992Y-196679997D02*
X170899992Y-209479997D01*
X165099992Y-196679997D02*
X170899992Y-196679997D01*
X170899992Y-209479997D02*
X165099992Y-209479997D01*
X165099992Y-209479997D02*
X165099992Y-196679997D01*
D10*
%TO.C,SW25*%
X131884358Y-163474348D02*
X144008714Y-170474348D01*
X144008714Y-170474348D02*
X137008714Y-182598704D01*
X137008714Y-182598704D02*
X124884358Y-175598704D01*
X124884358Y-175598704D02*
X131884358Y-163474348D01*
%TO.C,SW30*%
X151403323Y-176148415D02*
X161302818Y-186047910D01*
X161302818Y-186047910D02*
X151403323Y-195947405D01*
X151403323Y-195947405D02*
X141503828Y-186047910D01*
X141503828Y-186047910D02*
X151403323Y-176148415D01*
%TO.C,SW1*%
X61386013Y-66902047D02*
X74908974Y-70525514D01*
X74908974Y-70525514D02*
X71285507Y-84048475D01*
X71285507Y-84048475D02*
X57762546Y-80425008D01*
X57762546Y-80425008D02*
X61386013Y-66902047D01*
%TO.C,SW24*%
X122046989Y-134926393D02*
X135569950Y-138549860D01*
X135569950Y-138549860D02*
X131946483Y-152072821D01*
X131946483Y-152072821D02*
X118423522Y-148449354D01*
X118423522Y-148449354D02*
X122046989Y-134926393D01*
%TO.C,SW29*%
X139626112Y-142923734D02*
X153149073Y-146547201D01*
X153149073Y-146547201D02*
X149525606Y-160070162D01*
X149525606Y-160070162D02*
X136002645Y-156446695D01*
X136002645Y-156446695D02*
X139626112Y-142923734D01*
%TO.C,SW14*%
X85245208Y-125065399D02*
X98768169Y-128688866D01*
X98768169Y-128688866D02*
X95144702Y-142211827D01*
X95144702Y-142211827D02*
X81621741Y-138588360D01*
X81621741Y-138588360D02*
X85245208Y-125065399D01*
%TO.C,SW19*%
X104673281Y-126162361D02*
X118196242Y-129785828D01*
X118196242Y-129785828D02*
X114572775Y-143308789D01*
X114572775Y-143308789D02*
X101049814Y-139685322D01*
X101049814Y-139685322D02*
X104673281Y-126162361D01*
%TO.C,SW5*%
X41663994Y-140505605D02*
X55186955Y-144129072D01*
X55186955Y-144129072D02*
X51563488Y-157652033D01*
X51563488Y-157652033D02*
X38040527Y-154028566D01*
X38040527Y-154028566D02*
X41663994Y-140505605D01*
%TO.C,SW22*%
X131907977Y-98124613D02*
X145430938Y-101748080D01*
X145430938Y-101748080D02*
X141807471Y-115271041D01*
X141807471Y-115271041D02*
X128284510Y-111647574D01*
X128284510Y-111647574D02*
X131907977Y-98124613D01*
%TO.C,SW27*%
X149487120Y-106121952D02*
X163010081Y-109745419D01*
X163010081Y-109745419D02*
X159386614Y-123268380D01*
X159386614Y-123268380D02*
X145863653Y-119644913D01*
X145863653Y-119644913D02*
X149487120Y-106121952D01*
%TO.C,SW3*%
X51524985Y-103703836D02*
X65047946Y-107327303D01*
X65047946Y-107327303D02*
X61424479Y-120850264D01*
X61424479Y-120850264D02*
X47901518Y-117226797D01*
X47901518Y-117226797D02*
X51524985Y-103703836D01*
%TO.C,SW8*%
X70542196Y-106334207D02*
X84065157Y-109957674D01*
X84065157Y-109957674D02*
X80441690Y-123480635D01*
X80441690Y-123480635D02*
X66918729Y-119857168D01*
X66918729Y-119857168D02*
X70542196Y-106334207D01*
%TO.C,SW13*%
X90175708Y-106664500D02*
X103698669Y-110287967D01*
X103698669Y-110287967D02*
X100075202Y-123810928D01*
X100075202Y-123810928D02*
X86552241Y-120187461D01*
X86552241Y-120187461D02*
X90175708Y-106664500D01*
%TO.C,SW23*%
X126977494Y-116525529D02*
X140500455Y-120148996D01*
X140500455Y-120148996D02*
X136876988Y-133671957D01*
X136876988Y-133671957D02*
X123354027Y-130048490D01*
X123354027Y-130048490D02*
X126977494Y-116525529D01*
%TO.C,SW18*%
X109603762Y-107761481D02*
X123126723Y-111384948D01*
X123126723Y-111384948D02*
X119503256Y-124907909D01*
X119503256Y-124907909D02*
X105980295Y-121284442D01*
X105980295Y-121284442D02*
X109603762Y-107761481D01*
%TO.C,SW28*%
X144556609Y-124522832D02*
X158079570Y-128146299D01*
X158079570Y-128146299D02*
X154456103Y-141669260D01*
X154456103Y-141669260D02*
X140933142Y-138045793D01*
X140933142Y-138045793D02*
X144556609Y-124522832D01*
%TO.C,SW4*%
X46594502Y-122104730D02*
X60117463Y-125728197D01*
X60117463Y-125728197D02*
X56493996Y-139251158D01*
X56493996Y-139251158D02*
X42971035Y-135627691D01*
X42971035Y-135627691D02*
X46594502Y-122104730D01*
%TO.C,SW9*%
X65611676Y-124735114D02*
X79134637Y-128358581D01*
X79134637Y-128358581D02*
X75511170Y-141881542D01*
X75511170Y-141881542D02*
X61988209Y-138258075D01*
X61988209Y-138258075D02*
X65611676Y-124735114D01*
%TO.C,SW10*%
X60681193Y-143136003D02*
X74204154Y-146759470D01*
X74204154Y-146759470D02*
X70580687Y-160282431D01*
X70580687Y-160282431D02*
X57057726Y-156658964D01*
X57057726Y-156658964D02*
X60681193Y-143136003D01*
%TO.C,SW15*%
X80314697Y-143466263D02*
X93837658Y-147089730D01*
X93837658Y-147089730D02*
X90214191Y-160612691D01*
X90214191Y-160612691D02*
X76691230Y-156989224D01*
X76691230Y-156989224D02*
X80314697Y-143466263D01*
%TO.C,SW20*%
X109750205Y-156283998D02*
X123273166Y-159907465D01*
X123273166Y-159907465D02*
X119649699Y-173430426D01*
X119649699Y-173430426D02*
X106126738Y-169806959D01*
X106126738Y-169806959D02*
X109750205Y-156283998D01*
%TO.C,SW11*%
X100036714Y-69862753D02*
X113559675Y-73486220D01*
X113559675Y-73486220D02*
X109936208Y-87009181D01*
X109936208Y-87009181D02*
X96413247Y-83385714D01*
X96413247Y-83385714D02*
X100036714Y-69862753D01*
%TO.C,SW2*%
X56455504Y-85302951D02*
X69978465Y-88926418D01*
X69978465Y-88926418D02*
X66354998Y-102449379D01*
X66354998Y-102449379D02*
X52832037Y-98825912D01*
X52832037Y-98825912D02*
X56455504Y-85302951D01*
%TO.C,SW12*%
X95106204Y-88263605D02*
X108629165Y-91887072D01*
X108629165Y-91887072D02*
X105005698Y-105410033D01*
X105005698Y-105410033D02*
X91482737Y-101786566D01*
X91482737Y-101786566D02*
X95106204Y-88263605D01*
%TO.C,SW21*%
X136838487Y-79723722D02*
X150361448Y-83347189D01*
X150361448Y-83347189D02*
X146737981Y-96870150D01*
X146737981Y-96870150D02*
X133215020Y-93246683D01*
X133215020Y-93246683D02*
X136838487Y-79723722D01*
%TO.C,SW17*%
X114534283Y-89360616D02*
X128057244Y-92984083D01*
X128057244Y-92984083D02*
X124433777Y-106507044D01*
X124433777Y-106507044D02*
X110910816Y-102883577D01*
X110910816Y-102883577D02*
X114534283Y-89360616D01*
%TO.C,SW16*%
X119464783Y-70959705D02*
X132987744Y-74583172D01*
X132987744Y-74583172D02*
X129364277Y-88106133D01*
X129364277Y-88106133D02*
X115841316Y-84482666D01*
X115841316Y-84482666D02*
X119464783Y-70959705D01*
%TO.C,SW6*%
X80403204Y-69532453D02*
X93926165Y-73155920D01*
X93926165Y-73155920D02*
X90302698Y-86678881D01*
X90302698Y-86678881D02*
X76779737Y-83055414D01*
X76779737Y-83055414D02*
X80403204Y-69532453D01*
%TO.C,SW7*%
X75472697Y-87933338D02*
X88995658Y-91556805D01*
X88995658Y-91556805D02*
X85372191Y-105079766D01*
X85372191Y-105079766D02*
X71849230Y-101456299D01*
X71849230Y-101456299D02*
X75472697Y-87933338D01*
%TO.C,SW26*%
X154417618Y-87721056D02*
X167940579Y-91344523D01*
X167940579Y-91344523D02*
X164317112Y-104867484D01*
X164317112Y-104867484D02*
X150794151Y-101244017D01*
X150794151Y-101244017D02*
X154417618Y-87721056D01*
%TO.C,SW31*%
X228059379Y-91344538D02*
X241582340Y-87721071D01*
X241582340Y-87721071D02*
X245205807Y-101244032D01*
X245205807Y-101244032D02*
X231682846Y-104867499D01*
X231682846Y-104867499D02*
X228059379Y-91344538D01*
%TO.C,SW62*%
X190999969Y-179000009D02*
X204999969Y-179000009D01*
X204999969Y-179000009D02*
X204999969Y-193000009D01*
X204999969Y-193000009D02*
X190999969Y-193000009D01*
X190999969Y-193000009D02*
X190999969Y-179000009D01*
%TO.C,SW45*%
X272726783Y-159907468D02*
X286249744Y-156284001D01*
X286249744Y-156284001D02*
X289873211Y-169806962D01*
X289873211Y-169806962D02*
X276350250Y-173430429D01*
X276350250Y-173430429D02*
X272726783Y-159907468D01*
%TO.C,SW49*%
X297231795Y-128688882D02*
X310754756Y-125065415D01*
X310754756Y-125065415D02*
X314378223Y-138588376D01*
X314378223Y-138588376D02*
X300855262Y-142211843D01*
X300855262Y-142211843D02*
X297231795Y-128688882D01*
%TO.C,SW47*%
X287370792Y-91887097D02*
X300893753Y-88263630D01*
X300893753Y-88263630D02*
X304517220Y-101786591D01*
X304517220Y-101786591D02*
X290994259Y-105410058D01*
X290994259Y-105410058D02*
X287370792Y-91887097D01*
%TO.C,SW63*%
X210974177Y-177399226D02*
X223098533Y-170399226D01*
X223098533Y-170399226D02*
X230098533Y-182523582D01*
X230098533Y-182523582D02*
X217974177Y-189523582D01*
X217974177Y-189523582D02*
X210974177Y-177399226D01*
%TO.C,SW61*%
X172901396Y-170399228D02*
X185025752Y-177399228D01*
X185025752Y-177399228D02*
X178025752Y-189523584D01*
X178025752Y-189523584D02*
X165901396Y-182523584D01*
X165901396Y-182523584D02*
X172901396Y-170399228D01*
%TO.C,SW33*%
X237920376Y-128146292D02*
X251443337Y-124522825D01*
X251443337Y-124522825D02*
X255066804Y-138045786D01*
X255066804Y-138045786D02*
X241543843Y-141669253D01*
X241543843Y-141669253D02*
X237920376Y-128146292D01*
%TO.C,SW59*%
X335882496Y-125728193D02*
X349405457Y-122104726D01*
X349405457Y-122104726D02*
X353028924Y-135627687D01*
X353028924Y-135627687D02*
X339505963Y-139251154D01*
X339505963Y-139251154D02*
X335882496Y-125728193D01*
%TO.C,SW38*%
X255499525Y-120148991D02*
X269022486Y-116525524D01*
X269022486Y-116525524D02*
X272645953Y-130048485D01*
X272645953Y-130048485D02*
X259122992Y-133671952D01*
X259122992Y-133671952D02*
X255499525Y-120148991D01*
%TO.C,SW50*%
X302162292Y-147089757D02*
X315685253Y-143466290D01*
X315685253Y-143466290D02*
X319308720Y-156989251D01*
X319308720Y-156989251D02*
X305785759Y-160612718D01*
X305785759Y-160612718D02*
X302162292Y-147089757D01*
%TO.C,SW58*%
X330951993Y-107327290D02*
X344474954Y-103703823D01*
X344474954Y-103703823D02*
X348098421Y-117226784D01*
X348098421Y-117226784D02*
X334575460Y-120850251D01*
X334575460Y-120850251D02*
X330951993Y-107327290D01*
%TO.C,SW43*%
X272873199Y-111384952D02*
X286396160Y-107761485D01*
X286396160Y-107761485D02*
X290019627Y-121284446D01*
X290019627Y-121284446D02*
X276496666Y-124907913D01*
X276496666Y-124907913D02*
X272873199Y-111384952D01*
%TO.C,SW57*%
X326021487Y-88926406D02*
X339544448Y-85302939D01*
X339544448Y-85302939D02*
X343167915Y-98825900D01*
X343167915Y-98825900D02*
X329644954Y-102449367D01*
X329644954Y-102449367D02*
X326021487Y-88926406D01*
%TO.C,SW52*%
X307004304Y-91556802D02*
X320527265Y-87933335D01*
X320527265Y-87933335D02*
X324150732Y-101456296D01*
X324150732Y-101456296D02*
X310627771Y-105079763D01*
X310627771Y-105079763D02*
X307004304Y-91556802D01*
%TO.C,SW44*%
X277803720Y-129785828D02*
X291326681Y-126162361D01*
X291326681Y-126162361D02*
X294950148Y-139685322D01*
X294950148Y-139685322D02*
X281427187Y-143308789D01*
X281427187Y-143308789D02*
X277803720Y-129785828D01*
%TO.C,SW41*%
X263012209Y-74583181D02*
X276535170Y-70959714D01*
X276535170Y-70959714D02*
X280158637Y-84482675D01*
X280158637Y-84482675D02*
X266635676Y-88106142D01*
X266635676Y-88106142D02*
X263012209Y-74583181D01*
%TO.C,SW40*%
X251991229Y-170474335D02*
X264115585Y-163474335D01*
X264115585Y-163474335D02*
X271115585Y-175598691D01*
X271115585Y-175598691D02*
X258991229Y-182598691D01*
X258991229Y-182598691D02*
X251991229Y-170474335D01*
%TO.C,SW46*%
X282440277Y-73486218D02*
X295963238Y-69862751D01*
X295963238Y-69862751D02*
X299586705Y-83385712D01*
X299586705Y-83385712D02*
X286063744Y-87009179D01*
X286063744Y-87009179D02*
X282440277Y-73486218D01*
%TO.C,SW51*%
X302073798Y-73155928D02*
X315596759Y-69532461D01*
X315596759Y-69532461D02*
X319220226Y-83055422D01*
X319220226Y-83055422D02*
X305697265Y-86678889D01*
X305697265Y-86678889D02*
X302073798Y-73155928D01*
%TO.C,SW60*%
X340812996Y-144129071D02*
X354335957Y-140505604D01*
X354335957Y-140505604D02*
X357959424Y-154028565D01*
X357959424Y-154028565D02*
X344436463Y-157652032D01*
X344436463Y-157652032D02*
X340812996Y-144129071D01*
%TO.C,SW37*%
X250569028Y-101748109D02*
X264091989Y-98124642D01*
X264091989Y-98124642D02*
X267715456Y-111647603D01*
X267715456Y-111647603D02*
X254192495Y-115271070D01*
X254192495Y-115271070D02*
X250569028Y-101748109D01*
%TO.C,SW54*%
X316865313Y-128358582D02*
X330388274Y-124735115D01*
X330388274Y-124735115D02*
X334011741Y-138258076D01*
X334011741Y-138258076D02*
X320488780Y-141881543D01*
X320488780Y-141881543D02*
X316865313Y-128358582D01*
%TO.C,SW55*%
X321795811Y-146759477D02*
X335318772Y-143136010D01*
X335318772Y-143136010D02*
X338942239Y-156658971D01*
X338942239Y-156658971D02*
X325419278Y-160282438D01*
X325419278Y-160282438D02*
X321795811Y-146759477D01*
%TO.C,SW48*%
X292301288Y-110287980D02*
X305824249Y-106664513D01*
X305824249Y-106664513D02*
X309447716Y-120187474D01*
X309447716Y-120187474D02*
X295924755Y-123810941D01*
X295924755Y-123810941D02*
X292301288Y-110287980D01*
%TO.C,SW53*%
X311934809Y-109957689D02*
X325457770Y-106334222D01*
X325457770Y-106334222D02*
X329081237Y-119857183D01*
X329081237Y-119857183D02*
X315558276Y-123480650D01*
X315558276Y-123480650D02*
X311934809Y-109957689D01*
%TO.C,SW35*%
X234697139Y-186047910D02*
X244596634Y-176148415D01*
X244596634Y-176148415D02*
X254496129Y-186047910D01*
X254496129Y-186047910D02*
X244596634Y-195947405D01*
X244596634Y-195947405D02*
X234697139Y-186047910D01*
%TO.C,SW34*%
X242850881Y-146547185D02*
X256373842Y-142923718D01*
X256373842Y-142923718D02*
X259997309Y-156446679D01*
X259997309Y-156446679D02*
X246474348Y-160070146D01*
X246474348Y-160070146D02*
X242850881Y-146547185D01*
%TO.C,SW42*%
X267942704Y-92984069D02*
X281465665Y-89360602D01*
X281465665Y-89360602D02*
X285089132Y-102883563D01*
X285089132Y-102883563D02*
X271566171Y-106507030D01*
X271566171Y-106507030D02*
X267942704Y-92984069D01*
%TO.C,SW56*%
X321090997Y-70525527D02*
X334613958Y-66902060D01*
X334613958Y-66902060D02*
X338237425Y-80425021D01*
X338237425Y-80425021D02*
X324714464Y-84048488D01*
X324714464Y-84048488D02*
X321090997Y-70525527D01*
%TO.C,SW64*%
X190999991Y-198049997D02*
X204999991Y-198049997D01*
X204999991Y-198049997D02*
X204999991Y-212049997D01*
X204999991Y-212049997D02*
X190999991Y-212049997D01*
X190999991Y-212049997D02*
X190999991Y-198049997D01*
%TO.C,SW36*%
X245638505Y-83347222D02*
X259161466Y-79723755D01*
X259161466Y-79723755D02*
X262784933Y-93246716D01*
X262784933Y-93246716D02*
X249261972Y-96870183D01*
X249261972Y-96870183D02*
X245638505Y-83347222D01*
%TO.C,SW39*%
X260430019Y-138549878D02*
X273952980Y-134926411D01*
X273952980Y-134926411D02*
X277576447Y-148449372D01*
X277576447Y-148449372D02*
X264053486Y-152072839D01*
X264053486Y-152072839D02*
X260430019Y-138549878D01*
%TO.C,SW32*%
X232989877Y-109745420D02*
X246512838Y-106121953D01*
X246512838Y-106121953D02*
X250136305Y-119644914D01*
X250136305Y-119644914D02*
X236613344Y-123268381D01*
X236613344Y-123268381D02*
X232989877Y-109745420D01*
%TD*%
%LPC*%
%TO.C,A1*%
G36*
X204383324Y-106249003D02*
G01*
X204922023Y-106249003D01*
X204942468Y-106771756D01*
X205000028Y-106906679D01*
X205032487Y-106823464D01*
X205079798Y-106213500D01*
X205037613Y-105807464D01*
X204970702Y-105666689D01*
X204928612Y-105971983D01*
X204922023Y-106249003D01*
X204383324Y-106249003D01*
X204371475Y-105997207D01*
X204418677Y-105370798D01*
X204576029Y-105002530D01*
X204689726Y-104886230D01*
X205129520Y-104684637D01*
X205354842Y-104718126D01*
X205523788Y-105077405D01*
X205599931Y-105794948D01*
X205583217Y-106729557D01*
X205473593Y-107740036D01*
X205356216Y-108354579D01*
X205227322Y-109357535D01*
X205369296Y-110000749D01*
X205764579Y-110249575D01*
X206259810Y-110137580D01*
X206779612Y-109822776D01*
X206826405Y-109510180D01*
X206508968Y-109170002D01*
X206160416Y-108675497D01*
X206230432Y-108409587D01*
X206868812Y-108409587D01*
X206980366Y-108872289D01*
X207299081Y-109363499D01*
X207750787Y-109879002D01*
X208095386Y-110165296D01*
X208159969Y-110186003D01*
X208439136Y-110003219D01*
X208872002Y-109546712D01*
X209020856Y-109363499D01*
X209399432Y-108735825D01*
X209426346Y-108335765D01*
X209124913Y-108232773D01*
X208695238Y-108393408D01*
X208070841Y-108547926D01*
X207624699Y-108393408D01*
X207091360Y-108226809D01*
X206868812Y-108409587D01*
X206230432Y-108409587D01*
X206300565Y-108143229D01*
X206635968Y-107773003D01*
X207035325Y-107464498D01*
X207336569Y-107510769D01*
X207651969Y-107773002D01*
X208049080Y-108079947D01*
X208349910Y-108036120D01*
X208676933Y-107764890D01*
X209064079Y-107461675D01*
X209352434Y-107493170D01*
X209740569Y-107843714D01*
X210102249Y-108289373D01*
X210106569Y-108685610D01*
X209955645Y-109009974D01*
X209770078Y-109627794D01*
X209901475Y-110063537D01*
X210206959Y-110186003D01*
X210339059Y-109956592D01*
X210425861Y-109365952D01*
X210445969Y-108818447D01*
X210445968Y-107450892D01*
X211613273Y-107490184D01*
X212578168Y-107631795D01*
X213110151Y-107980194D01*
X213335997Y-108472063D01*
X213531231Y-109195163D01*
X213663373Y-109965715D01*
X213699947Y-110599936D01*
X213626212Y-110900426D01*
X213389971Y-110888170D01*
X213160531Y-110518664D01*
X213011357Y-109938265D01*
X212989858Y-109632645D01*
X212811074Y-108914832D01*
X212373637Y-108364241D01*
X211833762Y-108154003D01*
X211415034Y-108381002D01*
X211092316Y-108954104D01*
X210954426Y-109711460D01*
X210953969Y-109757203D01*
X210804341Y-110371264D01*
X210568204Y-110697957D01*
X210203219Y-110872071D01*
X209807961Y-110674277D01*
X209679204Y-110562691D01*
X209281301Y-110257079D01*
X208978838Y-110307720D01*
X208672733Y-110562691D01*
X208239950Y-110859148D01*
X207890365Y-110778650D01*
X207775496Y-110691121D01*
X207419093Y-110507611D01*
X206926259Y-110537947D01*
X206343780Y-110706606D01*
X205666546Y-110900483D01*
X205287586Y-110893582D01*
X205035191Y-110677952D01*
X205010500Y-110644874D01*
X204734595Y-110388047D01*
X204369453Y-110435565D01*
X204047060Y-110590600D01*
X203359012Y-110795251D01*
X202417007Y-110884160D01*
X202026304Y-110879464D01*
X201217069Y-110812288D01*
X200788959Y-110671380D01*
X200615648Y-110406563D01*
X200596806Y-110311697D01*
X200424095Y-109366959D01*
X200251552Y-108873893D01*
X200058110Y-108776614D01*
X200024522Y-108793605D01*
X199866987Y-109123449D01*
X199782504Y-109753150D01*
X199777969Y-109946993D01*
X199720847Y-110577654D01*
X199578390Y-110924716D01*
X199523969Y-110948003D01*
X199363942Y-110722887D01*
X199275877Y-110161467D01*
X199269969Y-109946993D01*
X199212707Y-109272010D01*
X199070469Y-108841101D01*
X199023415Y-108793605D01*
X198823993Y-108835142D01*
X198648961Y-109266421D01*
X198477659Y-110142315D01*
X198451374Y-110313003D01*
X198314725Y-110629586D01*
X197941038Y-110798300D01*
X197200229Y-110874633D01*
X197126385Y-110878174D01*
X196321474Y-110854807D01*
X195698480Y-110730535D01*
X195522510Y-110640507D01*
X195169116Y-110489157D01*
X194943187Y-110708212D01*
X194651464Y-110926009D01*
X194371135Y-110693939D01*
X194138028Y-110069547D01*
X193994804Y-109184954D01*
X193966869Y-108986527D01*
X195265981Y-108986527D01*
X195425960Y-109590554D01*
X195767534Y-110054962D01*
X196094969Y-110186003D01*
X196476562Y-109977046D01*
X196785172Y-109531277D01*
X196922218Y-108821904D01*
X196696197Y-108275703D01*
X196170040Y-108029826D01*
X196094969Y-108027003D01*
X195589140Y-108223991D01*
X195374393Y-108451777D01*
X195265981Y-108986527D01*
X193966869Y-108986527D01*
X193884870Y-108404076D01*
X193713665Y-108014795D01*
X193426362Y-107900749D01*
X193389366Y-107900003D01*
X192931843Y-108133235D01*
X192591428Y-108757853D01*
X192421647Y-109661237D01*
X192411969Y-109956510D01*
X192266855Y-110629889D01*
X191903694Y-110933016D01*
X191430755Y-110884971D01*
X190956309Y-110504835D01*
X190588626Y-109811691D01*
X190534467Y-109625622D01*
X190307965Y-108734006D01*
X189305481Y-109736490D01*
X187884337Y-110863942D01*
X186335141Y-111511948D01*
X184756608Y-111704424D01*
X183701941Y-111636153D01*
X182983718Y-111397024D01*
X182724608Y-111220032D01*
X182395666Y-110841988D01*
X182837265Y-110841988D01*
X183266811Y-111114335D01*
X183331469Y-111145997D01*
X184465064Y-111418079D01*
X185858257Y-111278616D01*
X186646081Y-111053048D01*
X187681436Y-110533912D01*
X188752647Y-109724631D01*
X189732209Y-108750819D01*
X190492616Y-107738090D01*
X190891616Y-106870456D01*
X191078585Y-105841392D01*
X191057482Y-105013433D01*
X190837630Y-104498683D01*
X190686390Y-104402231D01*
X190470654Y-104464024D01*
X190514198Y-104917372D01*
X190514865Y-104920034D01*
X190539117Y-105840871D01*
X190264717Y-106922664D01*
X189754495Y-107969444D01*
X189370769Y-108488451D01*
X188713709Y-109095740D01*
X187842049Y-109728079D01*
X187326861Y-110037267D01*
X186497790Y-110443516D01*
X185789176Y-110638808D01*
X184954270Y-110674312D01*
X184388372Y-110646616D01*
X183386700Y-110613488D01*
X182873446Y-110676825D01*
X182837265Y-110841988D01*
X182395666Y-110841988D01*
X182327858Y-110764058D01*
X182378969Y-110477963D01*
X182593479Y-110286255D01*
X183452888Y-110286255D01*
X183910881Y-110445964D01*
X184684068Y-110444011D01*
X185613455Y-110300971D01*
X186540048Y-110037419D01*
X187045778Y-109821315D01*
X188350702Y-108957828D01*
X189383842Y-107870115D01*
X190037908Y-106676317D01*
X190110696Y-106446445D01*
X190335661Y-105484803D01*
X190351047Y-104964695D01*
X190228239Y-104852002D01*
X189979268Y-105000019D01*
X189420965Y-105401181D01*
X188640574Y-105991159D01*
X187878739Y-106584415D01*
X186829661Y-107408405D01*
X185785843Y-108223248D01*
X184897280Y-108912078D01*
X184490054Y-109224668D01*
X183881885Y-109729823D01*
X183511272Y-110120203D01*
X183452888Y-110286255D01*
X182593479Y-110286255D01*
X182873502Y-110035998D01*
X183645396Y-109404135D01*
X184620246Y-108637692D01*
X185723648Y-107791990D01*
X186881201Y-106922351D01*
X188018500Y-106084093D01*
X189061141Y-105332538D01*
X189934722Y-104723005D01*
X190564839Y-104310815D01*
X190877088Y-104151289D01*
X190887969Y-104151363D01*
X191218773Y-104460026D01*
X191355308Y-105209283D01*
X191295426Y-106369460D01*
X191127061Y-107455547D01*
X190963135Y-108518772D01*
X190949432Y-109244208D01*
X191084411Y-109778871D01*
X191102298Y-109819369D01*
X191404439Y-110281187D01*
X191650819Y-110263844D01*
X191822640Y-109794830D01*
X191901102Y-108901640D01*
X191903969Y-108647012D01*
X191942870Y-107841376D01*
X192044309Y-107295838D01*
X192157969Y-107138003D01*
X192404647Y-107325458D01*
X192411969Y-107384031D01*
X192597546Y-107550510D01*
X192729469Y-107532246D01*
X193619002Y-107280263D01*
X194134226Y-107236741D01*
X194380468Y-107442776D01*
X194463057Y-107939462D01*
X194473433Y-108212663D01*
X194514231Y-108750467D01*
X194584718Y-108895073D01*
X194626655Y-108789003D01*
X195006672Y-107965301D01*
X195572690Y-107527090D01*
X196212884Y-107448321D01*
X196815426Y-107702949D01*
X197268490Y-108264926D01*
X197460251Y-109108207D01*
X197446917Y-109445898D01*
X197478532Y-110082355D01*
X197682469Y-110372493D01*
X197877146Y-110277947D01*
X197977669Y-109784658D01*
X197999969Y-109079159D01*
X198064859Y-108085586D01*
X198268324Y-107567786D01*
X198623556Y-107509246D01*
X199031974Y-107787487D01*
X199426538Y-108086159D01*
X199732186Y-108024910D01*
X200015963Y-107787487D01*
X200507315Y-107486510D01*
X200838998Y-107636089D01*
X201024721Y-108251835D01*
X201075798Y-108994493D01*
X201103628Y-110313003D01*
X201321177Y-109206416D01*
X201426855Y-108829040D01*
X202063969Y-108829040D01*
X202164401Y-109055735D01*
X202539325Y-108933406D01*
X202557822Y-108923573D01*
X203021098Y-108609378D01*
X203196966Y-108424188D01*
X203161884Y-108100586D01*
X203072985Y-108022687D01*
X202676409Y-108025999D01*
X202273721Y-108332151D01*
X202066236Y-108780263D01*
X202063969Y-108829040D01*
X201426855Y-108829040D01*
X201605543Y-108190942D01*
X201999262Y-107610899D01*
X202554213Y-107396979D01*
X202679269Y-107392002D01*
X203408900Y-107555158D01*
X203769645Y-107972144D01*
X203748454Y-108534240D01*
X203332279Y-109132724D01*
X202925213Y-109441156D01*
X202377635Y-109814358D01*
X202226520Y-110048896D01*
X202414910Y-110235178D01*
X202422338Y-110239362D01*
X203095879Y-110358675D01*
X203751825Y-110043165D01*
X204197735Y-109469502D01*
X204408376Y-108742167D01*
X204452729Y-107655272D01*
X204418834Y-107003597D01*
X204383324Y-106249003D01*
G37*
G36*
X194436588Y-106315290D02*
G01*
X194443969Y-106376003D01*
X194250681Y-106622622D01*
X194189969Y-106630003D01*
X193943349Y-106436715D01*
X193935969Y-106376003D01*
X194129256Y-106129383D01*
X194189969Y-106122003D01*
X194436588Y-106315290D01*
G37*
G36*
X189530657Y-106023612D02*
G01*
X189490969Y-106122003D01*
X189262722Y-106364314D01*
X189221978Y-106376003D01*
X189112881Y-106179485D01*
X189109969Y-106122003D01*
X189305232Y-105877763D01*
X189378959Y-105868003D01*
X189530657Y-106023612D01*
G37*
G36*
X187058399Y-108038613D02*
G01*
X187077969Y-108124022D01*
X186892611Y-108483096D01*
X186823969Y-108535003D01*
X186589538Y-108523392D01*
X186569969Y-108437983D01*
X186755326Y-108078909D01*
X186823969Y-108027003D01*
X187058399Y-108038613D01*
G37*
G36*
X185299969Y-109043003D02*
G01*
X185542280Y-109271249D01*
X185553969Y-109311993D01*
X185357451Y-109421090D01*
X185299969Y-109424003D01*
X185055729Y-109228739D01*
X185045969Y-109155012D01*
X185201578Y-109003314D01*
X185299969Y-109043003D01*
G37*
G36*
X188517302Y-106714669D02*
G01*
X188547701Y-107016108D01*
X188517302Y-107053336D01*
X188366299Y-107018469D01*
X188347969Y-106884003D01*
X188440903Y-106674932D01*
X188517302Y-106714669D01*
G37*
G36*
X188263302Y-107984669D02*
G01*
X188228435Y-108135672D01*
X188093969Y-108154003D01*
X187884898Y-108061068D01*
X187924635Y-107984669D01*
X188226074Y-107954270D01*
X188263302Y-107984669D01*
G37*
%TD*%
D16*
%TO.C,H12*%
X174999991Y-205000009D03*
%TD*%
D17*
%TO.C,SW65*%
X215266272Y-159673370D03*
D18*
X221486472Y-142590050D03*
D19*
X186603919Y-163538232D03*
D18*
X185899408Y-122861302D03*
D17*
X175323370Y-135188347D03*
D20*
X215165028Y-118269247D03*
X210834900Y-115769247D03*
X212999964Y-117019247D03*
D21*
X223807623Y-154490318D03*
D22*
X192875215Y-172064890D03*
X175393597Y-161971523D03*
D21*
X175165317Y-126409313D03*
%TD*%
D23*
%TO.C,H3*%
X65499963Y-65257213D03*
%TD*%
%TO.C,H2*%
X330599970Y-65257212D03*
%TD*%
D24*
%TO.C,SW66*%
X222999991Y-209499997D03*
X222999991Y-200499997D03*
D20*
X220999991Y-207499997D03*
X220999991Y-204999997D03*
X220999991Y-202499997D03*
%TD*%
D25*
%TO.C,H9*%
X158999991Y-197999993D03*
%TD*%
D26*
%TO.C,J4*%
X177999963Y-74580007D03*
D27*
X177999963Y-77120007D03*
X177999963Y-79660007D03*
X177999963Y-82200007D03*
X177999963Y-84740007D03*
X177999963Y-87280007D03*
X177999963Y-89820007D03*
D18*
X178249964Y-66200008D03*
X178249964Y-98200008D03*
X217749964Y-66200008D03*
X217749964Y-98200008D03*
%TD*%
D25*
%TO.C,H8*%
X236999991Y-197999997D03*
%TD*%
D17*
%TO.C,SW67*%
X167999992Y-197999997D03*
X167999992Y-203079997D03*
D28*
X167999991Y-208159996D03*
%TD*%
D23*
%TO.C,H1*%
X197999957Y-195500010D03*
%TD*%
D29*
%TO.C,SW25*%
X139186241Y-169907117D03*
X132416979Y-168931821D03*
D30*
X130047127Y-170496526D03*
D31*
X134446536Y-173036526D03*
D30*
X138845945Y-175576526D03*
%TD*%
D29*
%TO.C,SW30*%
X156791477Y-184251859D03*
X150505297Y-181557782D03*
D30*
X147811221Y-182455808D03*
D31*
X151403323Y-186047910D03*
D30*
X154995425Y-189640012D03*
%TD*%
D29*
%TO.C,SW1*%
X70104012Y-71225758D03*
X63312983Y-72035709D03*
D30*
X61428857Y-74160460D03*
D31*
X66335760Y-75475261D03*
D30*
X71242663Y-76790062D03*
%TD*%
D29*
%TO.C,SW24*%
X130764988Y-139250104D03*
X123973959Y-140060055D03*
D30*
X122089833Y-142184806D03*
D31*
X126996736Y-143499607D03*
D30*
X131903639Y-144814408D03*
%TD*%
D29*
%TO.C,SW29*%
X148344111Y-147247445D03*
X141553082Y-148057396D03*
D30*
X139668956Y-150182147D03*
D31*
X144575859Y-151496948D03*
D30*
X149482762Y-152811749D03*
%TD*%
D29*
%TO.C,SW14*%
X93963207Y-129389110D03*
X87172178Y-130199061D03*
D30*
X85288052Y-132323812D03*
D31*
X90194955Y-133638613D03*
D30*
X95101858Y-134953414D03*
%TD*%
D29*
%TO.C,SW19*%
X113391280Y-130486072D03*
X106600251Y-131296023D03*
D30*
X104716125Y-133420774D03*
D31*
X109623028Y-134735575D03*
D30*
X114529931Y-136050376D03*
%TD*%
D29*
%TO.C,SW5*%
X50381993Y-144829316D03*
X43590964Y-145639267D03*
D30*
X41706838Y-147764018D03*
D31*
X46613741Y-149078819D03*
D30*
X51520644Y-150393620D03*
%TD*%
D29*
%TO.C,SW22*%
X140625976Y-102448324D03*
X133834947Y-103258275D03*
D30*
X131950821Y-105383026D03*
D31*
X136857724Y-106697827D03*
D30*
X141764627Y-108012628D03*
%TD*%
D29*
%TO.C,SW27*%
X158205119Y-110445663D03*
X151414090Y-111255614D03*
D30*
X149529964Y-113380365D03*
D31*
X154436867Y-114695166D03*
D30*
X159343770Y-116009967D03*
%TD*%
D29*
%TO.C,SW3*%
X60242984Y-108027547D03*
X53451955Y-108837498D03*
D30*
X51567829Y-110962249D03*
D31*
X56474732Y-112277050D03*
D30*
X61381635Y-113591851D03*
%TD*%
D29*
%TO.C,SW8*%
X79260195Y-110657918D03*
X72469166Y-111467869D03*
D30*
X70585040Y-113592620D03*
D31*
X75491943Y-114907421D03*
D30*
X80398846Y-116222222D03*
%TD*%
D29*
%TO.C,SW13*%
X98893707Y-110988211D03*
X92102678Y-111798162D03*
D30*
X90218552Y-113922913D03*
D31*
X95125455Y-115237714D03*
D30*
X100032358Y-116552515D03*
%TD*%
D29*
%TO.C,SW23*%
X135695493Y-120849240D03*
X128904464Y-121659191D03*
D30*
X127020338Y-123783942D03*
D31*
X131927241Y-125098743D03*
D30*
X136834144Y-126413544D03*
%TD*%
D29*
%TO.C,SW18*%
X118321761Y-112085192D03*
X111530732Y-112895143D03*
D30*
X109646606Y-115019894D03*
D31*
X114553509Y-116334695D03*
D30*
X119460412Y-117649496D03*
%TD*%
D29*
%TO.C,SW28*%
X153274608Y-128846543D03*
X146483579Y-129656494D03*
D30*
X144599453Y-131781245D03*
D31*
X149506356Y-133096046D03*
D30*
X154413259Y-134410847D03*
%TD*%
D29*
%TO.C,SW4*%
X55312501Y-126428441D03*
X48521472Y-127238392D03*
D30*
X46637346Y-129363143D03*
D31*
X51544249Y-130677944D03*
D30*
X56451152Y-131992745D03*
%TD*%
D29*
%TO.C,SW9*%
X74329675Y-129058825D03*
X67538646Y-129868776D03*
D30*
X65654520Y-131993527D03*
D31*
X70561423Y-133308328D03*
D30*
X75468326Y-134623129D03*
%TD*%
D29*
%TO.C,SW10*%
X69399192Y-147459714D03*
X62608163Y-148269665D03*
D30*
X60724037Y-150394416D03*
D31*
X65630940Y-151709217D03*
D30*
X70537843Y-153024018D03*
%TD*%
D29*
%TO.C,SW15*%
X89032696Y-147789974D03*
X82241667Y-148599925D03*
D30*
X80357541Y-150724676D03*
D31*
X85264444Y-152039477D03*
D30*
X90171347Y-153354278D03*
%TD*%
D29*
%TO.C,SW20*%
X118468204Y-160607709D03*
X111677175Y-161417660D03*
D30*
X109793049Y-163542411D03*
D31*
X114699952Y-164857212D03*
D30*
X119606855Y-166172013D03*
%TD*%
D29*
%TO.C,SW11*%
X108754713Y-74186464D03*
X101963684Y-74996415D03*
D30*
X100079558Y-77121166D03*
D31*
X104986461Y-78435967D03*
D30*
X109893364Y-79750768D03*
%TD*%
D29*
%TO.C,SW2*%
X65173503Y-89626662D03*
X58382474Y-90436613D03*
D30*
X56498348Y-92561364D03*
D31*
X61405251Y-93876165D03*
D30*
X66312154Y-95190966D03*
%TD*%
D29*
%TO.C,SW12*%
X103824203Y-92587316D03*
X97033174Y-93397267D03*
D30*
X95149048Y-95522018D03*
D31*
X100055951Y-96836819D03*
D30*
X104962854Y-98151620D03*
%TD*%
D29*
%TO.C,SW21*%
X145556486Y-84047433D03*
X138765457Y-84857384D03*
D30*
X136881331Y-86982135D03*
D31*
X141788234Y-88296936D03*
D30*
X146695137Y-89611737D03*
%TD*%
D29*
%TO.C,SW17*%
X123252282Y-93684327D03*
X116461253Y-94494278D03*
D30*
X114577127Y-96619029D03*
D31*
X119484030Y-97933830D03*
D30*
X124390933Y-99248631D03*
%TD*%
D29*
%TO.C,SW16*%
X128182782Y-75283416D03*
X121391753Y-76093367D03*
D30*
X119507627Y-78218118D03*
D31*
X124414530Y-79532919D03*
D30*
X129321433Y-80847720D03*
%TD*%
D29*
%TO.C,SW6*%
X89121203Y-73856164D03*
X82330174Y-74666115D03*
D30*
X80446048Y-76790866D03*
D31*
X85352951Y-78105667D03*
D30*
X90259854Y-79420468D03*
%TD*%
D29*
%TO.C,SW7*%
X84190696Y-92257049D03*
X77399667Y-93067000D03*
D30*
X75515541Y-95191751D03*
D31*
X80422444Y-96506552D03*
D30*
X85329347Y-97821353D03*
%TD*%
D29*
%TO.C,SW26*%
X163135617Y-92044767D03*
X156344588Y-92854718D03*
D30*
X154460462Y-94979469D03*
D31*
X159367365Y-96294270D03*
D30*
X164274268Y-97609071D03*
%TD*%
D29*
%TO.C,SW31*%
X237771244Y-90729981D03*
X232295015Y-94826934D03*
D30*
X231725690Y-97609086D03*
D31*
X236632593Y-96294285D03*
D30*
X241539496Y-94979484D03*
%TD*%
D29*
%TO.C,SW62*%
X200539969Y-180920009D03*
X194189969Y-183460009D03*
D30*
X192919969Y-186000009D03*
D31*
X197999969Y-186000009D03*
D30*
X203079969Y-186000009D03*
%TD*%
D29*
%TO.C,SW45*%
X282438648Y-159292911D03*
X276962419Y-163389864D03*
D30*
X276393094Y-166172016D03*
D31*
X281299997Y-164857215D03*
D30*
X286206900Y-163542414D03*
%TD*%
D29*
%TO.C,SW49*%
X306943660Y-128074325D03*
X301467431Y-132171278D03*
D30*
X300898106Y-134953430D03*
D31*
X305805009Y-133638629D03*
D30*
X310711912Y-132323828D03*
%TD*%
D26*
%TO.C,J5*%
X171499990Y-104979996D03*
X171499990Y-107519996D03*
D27*
X171499990Y-110059996D03*
D32*
X171499991Y-112599997D03*
%TD*%
D25*
%TO.C,H7*%
X319482323Y-162625367D03*
%TD*%
D29*
%TO.C,SW47*%
X297082657Y-91272540D03*
X291606428Y-95369493D03*
D30*
X291037103Y-98151645D03*
D31*
X295944006Y-96836844D03*
D30*
X300850909Y-95522043D03*
%TD*%
D29*
%TO.C,SW63*%
X220196060Y-174291995D03*
X215966798Y-179666699D03*
D30*
X216136946Y-182501404D03*
D31*
X220536355Y-179961404D03*
D30*
X224935764Y-177421404D03*
%TD*%
D29*
%TO.C,SW61*%
X180203279Y-176831997D03*
X173434017Y-175856701D03*
D30*
X171064165Y-177421406D03*
D31*
X175463574Y-179961406D03*
D30*
X179862983Y-182501406D03*
%TD*%
D29*
%TO.C,SW33*%
X247632241Y-127531735D03*
X242156012Y-131628688D03*
D30*
X241586687Y-134410840D03*
D31*
X246493590Y-133096039D03*
D30*
X251400493Y-131781238D03*
%TD*%
D25*
%TO.C,H11*%
X211799972Y-143000004D03*
%TD*%
D29*
%TO.C,SW59*%
X345594361Y-125113636D03*
X340118132Y-129210589D03*
D30*
X339548807Y-131992741D03*
D31*
X344455710Y-130677940D03*
D30*
X349362613Y-129363139D03*
%TD*%
D29*
%TO.C,SW38*%
X265211390Y-119534434D03*
X259735161Y-123631387D03*
D30*
X259165836Y-126413539D03*
D31*
X264072739Y-125098738D03*
D30*
X268979642Y-123783937D03*
%TD*%
D29*
%TO.C,SW50*%
X311874157Y-146475200D03*
X306397928Y-150572153D03*
D30*
X305828603Y-153354305D03*
D31*
X310735506Y-152039504D03*
D30*
X315642409Y-150724703D03*
%TD*%
D33*
%TO.C,SW69*%
X213499973Y-57127213D03*
X210499973Y-57127213D03*
%TD*%
D25*
%TO.C,H10*%
X184199972Y-142999959D03*
%TD*%
D29*
%TO.C,SW58*%
X340663858Y-106712733D03*
X335187629Y-110809686D03*
D30*
X334618304Y-113591838D03*
D31*
X339525207Y-112277037D03*
D30*
X344432110Y-110962236D03*
%TD*%
D34*
%TO.C,U4*%
X192649964Y-138230009D03*
X192649964Y-140010009D03*
X192649964Y-141790009D03*
X192649964Y-143570009D03*
X192649964Y-145350009D03*
X192649964Y-147130009D03*
X192649964Y-148910009D03*
X192649964Y-150690009D03*
X203349964Y-149800009D03*
X203349964Y-148020009D03*
X203349964Y-146240009D03*
X203349964Y-144460009D03*
X203349964Y-142680009D03*
X203349964Y-140900009D03*
X203349964Y-139120009D03*
D35*
X203349963Y-137340008D03*
%TD*%
D29*
%TO.C,SW43*%
X282585064Y-110770395D03*
X277108835Y-114867348D03*
D30*
X276539510Y-117649500D03*
D31*
X281446413Y-116334699D03*
D30*
X286353316Y-115019898D03*
%TD*%
D27*
%TO.C,J1*%
X215899991Y-102444996D03*
D26*
X215899991Y-104984996D03*
D32*
X215899992Y-107524997D03*
%TD*%
D36*
%TO.C,SW68*%
X183999969Y-55982217D03*
X183999969Y-58732217D03*
%TD*%
D29*
%TO.C,SW57*%
X335733352Y-88311849D03*
X330257123Y-92408802D03*
D30*
X329687798Y-95190954D03*
D31*
X334594701Y-93876153D03*
D30*
X339501604Y-92561352D03*
%TD*%
D29*
%TO.C,SW52*%
X316716169Y-90942245D03*
X311239940Y-95039198D03*
D30*
X310670615Y-97821350D03*
D31*
X315577518Y-96506549D03*
D30*
X320484421Y-95191748D03*
%TD*%
D29*
%TO.C,SW44*%
X287515585Y-129171271D03*
X282039356Y-133268224D03*
D30*
X281470031Y-136050376D03*
D31*
X286376934Y-134735575D03*
D30*
X291283837Y-133420774D03*
%TD*%
D29*
%TO.C,SW41*%
X272724074Y-73968624D03*
X267247845Y-78065577D03*
D30*
X266678520Y-80847729D03*
D31*
X271585423Y-79532928D03*
D30*
X276492326Y-78218127D03*
%TD*%
D37*
%TO.C,J2*%
X203619961Y-61400005D03*
D38*
X203619961Y-57400005D03*
D37*
X192379961Y-61400005D03*
D38*
X192379961Y-57400005D03*
%TD*%
D25*
%TO.C,H6*%
X76517600Y-162625360D03*
%TD*%
D29*
%TO.C,SW40*%
X261213112Y-167367104D03*
X256983850Y-172741808D03*
D30*
X257153998Y-175576513D03*
D31*
X261553407Y-173036513D03*
D30*
X265952816Y-170496513D03*
%TD*%
D29*
%TO.C,SW46*%
X292152142Y-72871661D03*
X286675913Y-76968614D03*
D30*
X286106588Y-79750766D03*
D31*
X291013491Y-78435965D03*
D30*
X295920394Y-77121164D03*
%TD*%
D29*
%TO.C,SW51*%
X311785663Y-72541371D03*
X306309434Y-76638324D03*
D30*
X305740109Y-79420476D03*
D31*
X310647012Y-78105675D03*
D30*
X315553915Y-76790874D03*
%TD*%
D29*
%TO.C,SW60*%
X350524861Y-143514514D03*
X345048632Y-147611467D03*
D30*
X344479307Y-150393619D03*
D31*
X349386210Y-149078818D03*
D30*
X354293113Y-147764017D03*
%TD*%
D29*
%TO.C,SW37*%
X260280893Y-101133552D03*
X254804664Y-105230505D03*
D30*
X254235339Y-108012657D03*
D31*
X259142242Y-106697856D03*
D30*
X264049145Y-105383055D03*
%TD*%
D25*
%TO.C,H4*%
X223299991Y-67557215D03*
%TD*%
D29*
%TO.C,SW54*%
X326577178Y-127744025D03*
X321100949Y-131840978D03*
D30*
X320531624Y-134623130D03*
D31*
X325438527Y-133308329D03*
D30*
X330345430Y-131993528D03*
%TD*%
D29*
%TO.C,SW55*%
X331507676Y-146144920D03*
X326031447Y-150241873D03*
D30*
X325462122Y-153024025D03*
D31*
X330369025Y-151709224D03*
D30*
X335275928Y-150394423D03*
%TD*%
D29*
%TO.C,SW48*%
X302013153Y-109673423D03*
X296536924Y-113770376D03*
D30*
X295967599Y-116552528D03*
D31*
X300874502Y-115237727D03*
D30*
X305781405Y-113922926D03*
%TD*%
D25*
%TO.C,H5*%
X172699992Y-67557209D03*
%TD*%
D29*
%TO.C,SW53*%
X321646674Y-109343132D03*
X316170445Y-113440085D03*
D30*
X315601120Y-116222237D03*
D31*
X320508023Y-114907436D03*
D30*
X325414926Y-113592635D03*
%TD*%
D29*
%TO.C,SW35*%
X242800583Y-180659756D03*
X240106506Y-186945936D03*
D30*
X241004532Y-189640012D03*
D31*
X244596634Y-186047910D03*
D30*
X248188736Y-182455808D03*
%TD*%
D29*
%TO.C,SW34*%
X252562746Y-145932628D03*
X247086517Y-150029581D03*
D30*
X246517192Y-152811733D03*
D31*
X251424095Y-151496932D03*
D30*
X256330998Y-150182131D03*
%TD*%
D29*
%TO.C,SW42*%
X277654569Y-92369512D03*
X272178340Y-96466465D03*
D30*
X271609015Y-99248617D03*
D31*
X276515918Y-97933816D03*
D30*
X281422821Y-96619015D03*
%TD*%
D29*
%TO.C,SW56*%
X330802862Y-69910970D03*
X325326633Y-74007923D03*
D30*
X324757308Y-76790075D03*
D31*
X329664211Y-75475274D03*
D30*
X334571114Y-74160473D03*
%TD*%
D29*
%TO.C,SW64*%
X200539991Y-199969997D03*
X194189991Y-202509997D03*
D31*
X186093741Y-196794997D03*
D18*
X186093741Y-212034997D03*
D30*
X192919991Y-205049997D03*
D31*
X197999991Y-205049997D03*
D30*
X203079991Y-205049997D03*
D31*
X209906241Y-196794997D03*
D18*
X209906241Y-212034997D03*
%TD*%
D29*
%TO.C,SW36*%
X255350370Y-82732665D03*
X249874141Y-86829618D03*
D30*
X249304816Y-89611770D03*
D31*
X254211719Y-88296969D03*
D30*
X259118622Y-86982168D03*
%TD*%
D29*
%TO.C,SW39*%
X270141884Y-137935321D03*
X264665655Y-142032274D03*
D30*
X264096330Y-144814426D03*
D31*
X269003233Y-143499625D03*
D30*
X273910136Y-142184824D03*
%TD*%
D29*
%TO.C,SW32*%
X242701742Y-109130863D03*
X237225513Y-113227816D03*
D30*
X236656188Y-116009968D03*
D31*
X241563091Y-114695167D03*
D30*
X246469994Y-113380366D03*
%TD*%
M02*
