%TF.GenerationSoftware,KiCad,Pcbnew,(7.0.0)*%
%TF.CreationDate,2023-04-02T15:15:40+01:00*%
%TF.ProjectId,Honeydew,486f6e65-7964-4657-972e-6b696361645f,rev?*%
%TF.SameCoordinates,Original*%
%TF.FileFunction,Paste,Bot*%
%TF.FilePolarity,Positive*%
%FSLAX46Y46*%
G04 Gerber Fmt 4.6, Leading zero omitted, Abs format (unit mm)*
G04 Created by KiCad (PCBNEW (7.0.0)) date 2023-04-02 15:15:40*
%MOMM*%
%LPD*%
G01*
G04 APERTURE LIST*
G04 Aperture macros list*
%AMRoundRect*
0 Rectangle with rounded corners*
0 $1 Rounding radius*
0 $2 $3 $4 $5 $6 $7 $8 $9 X,Y pos of 4 corners*
0 Add a 4 corners polygon primitive as box body*
4,1,4,$2,$3,$4,$5,$6,$7,$8,$9,$2,$3,0*
0 Add four circle primitives for the rounded corners*
1,1,$1+$1,$2,$3*
1,1,$1+$1,$4,$5*
1,1,$1+$1,$6,$7*
1,1,$1+$1,$8,$9*
0 Add four rect primitives between the rounded corners*
20,1,$1+$1,$2,$3,$4,$5,0*
20,1,$1+$1,$4,$5,$6,$7,0*
20,1,$1+$1,$6,$7,$8,$9,0*
20,1,$1+$1,$8,$9,$2,$3,0*%
%AMRotRect*
0 Rectangle, with rotation*
0 The origin of the aperture is its center*
0 $1 length*
0 $2 width*
0 $3 Rotation angle, in degrees counterclockwise*
0 Add horizontal line*
21,1,$1,$2,0,0,$3*%
%AMFreePoly0*
4,1,51,0.532219,0.614745,0.539696,0.609939,0.548497,0.608674,0.568109,0.591679,0.589937,0.577652,0.593629,0.569566,0.600348,0.563745,0.607658,0.538848,0.618438,0.515244,0.617172,0.506443,0.619677,0.497915,0.619677,-0.497915,0.614745,-0.532219,0.609939,-0.539696,0.608674,-0.548497,0.591679,-0.568109,0.577652,-0.589937,0.569566,-0.593629,0.563745,-0.600348,0.538848,-0.607658,
0.515244,-0.618438,0.506443,-0.617172,0.497915,-0.619677,-0.497915,-0.619677,-0.532219,-0.614745,-0.539696,-0.609939,-0.548497,-0.608674,-0.568109,-0.591679,-0.589937,-0.577652,-0.593629,-0.569566,-0.600348,-0.563745,-0.607658,-0.538848,-0.618438,-0.515244,-0.617172,-0.506443,-0.619677,-0.497915,-0.619677,0.397045,-0.616582,0.418565,-0.616895,0.422927,-0.615620,0.425261,-0.614745,0.431349,
-0.598456,0.456693,-0.584014,0.483144,-0.483144,0.584014,-0.465738,0.597042,-0.462875,0.600348,-0.460322,0.601097,-0.455399,0.604783,-0.425958,0.611187,-0.397045,0.619677,0.497915,0.619677,0.532219,0.614745,0.532219,0.614745,$1*%
%AMFreePoly1*
4,1,51,0.532219,0.614745,0.539696,0.609939,0.548497,0.608674,0.568109,0.591679,0.589937,0.577652,0.593629,0.569566,0.600348,0.563745,0.607658,0.538848,0.618438,0.515244,0.617172,0.506443,0.619677,0.497915,0.619677,-0.497915,0.614745,-0.532219,0.609939,-0.539696,0.608674,-0.548497,0.591679,-0.568109,0.577652,-0.589937,0.569566,-0.593629,0.563745,-0.600348,0.538848,-0.607658,
0.515244,-0.618438,0.506443,-0.617172,0.497915,-0.619677,-0.397045,-0.619677,-0.418564,-0.616583,-0.422927,-0.616895,-0.425261,-0.615620,-0.431349,-0.614745,-0.456693,-0.598456,-0.483144,-0.584014,-0.584014,-0.483144,-0.597044,-0.465737,-0.600348,-0.462875,-0.601097,-0.460323,-0.604783,-0.455400,-0.611187,-0.425956,-0.619677,-0.397045,-0.619677,0.497915,-0.614745,0.532219,-0.609939,0.539696,
-0.608674,0.548497,-0.591679,0.568109,-0.577652,0.589937,-0.569566,0.593629,-0.563745,0.600348,-0.538848,0.607658,-0.515244,0.618438,-0.506443,0.617172,-0.497915,0.619677,0.497915,0.619677,0.532219,0.614745,0.532219,0.614745,$1*%
%AMFreePoly2*
4,1,51,0.418565,0.616582,0.422927,0.616895,0.425261,0.615620,0.431349,0.614745,0.456693,0.598456,0.483144,0.584014,0.584014,0.483144,0.597042,0.465738,0.600348,0.462875,0.601097,0.460322,0.604783,0.455399,0.611187,0.425958,0.619677,0.397045,0.619677,-0.497915,0.614745,-0.532219,0.609939,-0.539696,0.608674,-0.548497,0.591679,-0.568109,0.577652,-0.589937,0.569566,-0.593629,
0.563745,-0.600348,0.538848,-0.607658,0.515244,-0.618438,0.506443,-0.617172,0.497915,-0.619677,-0.497915,-0.619677,-0.532219,-0.614745,-0.539696,-0.609939,-0.548497,-0.608674,-0.568109,-0.591679,-0.589937,-0.577652,-0.593629,-0.569566,-0.600348,-0.563745,-0.607658,-0.538848,-0.618438,-0.515244,-0.617172,-0.506443,-0.619677,-0.497915,-0.619677,0.497915,-0.614745,0.532219,-0.609939,0.539696,
-0.608674,0.548497,-0.591679,0.568109,-0.577652,0.589937,-0.569566,0.593629,-0.563745,0.600348,-0.538848,0.607658,-0.515244,0.618438,-0.506443,0.617172,-0.497915,0.619677,0.397045,0.619677,0.418565,0.616582,0.418565,0.616582,$1*%
%AMFreePoly3*
4,1,51,0.532219,0.614745,0.539696,0.609939,0.548497,0.608674,0.568109,0.591679,0.589937,0.577652,0.593629,0.569566,0.600348,0.563745,0.607658,0.538848,0.618438,0.515244,0.617172,0.506443,0.619677,0.497915,0.619677,-0.397045,0.616583,-0.418564,0.616895,-0.422927,0.615620,-0.425261,0.614745,-0.431349,0.598456,-0.456693,0.584014,-0.483144,0.483144,-0.584014,0.465737,-0.597044,
0.462875,-0.600348,0.460323,-0.601097,0.455400,-0.604783,0.425956,-0.611187,0.397045,-0.619677,-0.497915,-0.619677,-0.532219,-0.614745,-0.539696,-0.609939,-0.548497,-0.608674,-0.568109,-0.591679,-0.589937,-0.577652,-0.593629,-0.569566,-0.600348,-0.563745,-0.607658,-0.538848,-0.618438,-0.515244,-0.617172,-0.506443,-0.619677,-0.497915,-0.619677,0.497915,-0.614745,0.532219,-0.609939,0.539696,
-0.608674,0.548497,-0.591679,0.568109,-0.577652,0.589937,-0.569566,0.593629,-0.563745,0.600348,-0.538848,0.607658,-0.515244,0.618438,-0.506443,0.617172,-0.497915,0.619677,0.497915,0.619677,0.532219,0.614745,0.532219,0.614745,$1*%
G04 Aperture macros list end*
%ADD10C,0.100000*%
%ADD11RotRect,2.550000X2.500000X165.000000*%
%ADD12R,2.550000X2.500000*%
%ADD13RotRect,2.550000X2.500000X150.000000*%
%ADD14RotRect,2.550000X2.500000X135.000000*%
%ADD15RotRect,2.550000X2.500000X195.000000*%
%ADD16RotRect,2.550000X2.500000X210.000000*%
%ADD17RotRect,2.550000X2.500000X225.000000*%
%ADD18RotRect,0.900000X1.200000X285.000000*%
%ADD19R,0.300000X1.300000*%
%ADD20R,1.800000X2.200000*%
%ADD21RoundRect,0.140000X-0.206244X-0.077224X0.036244X-0.217224X0.206244X0.077224X-0.036244X0.217224X0*%
%ADD22RoundRect,0.150000X-0.150000X0.512500X-0.150000X-0.512500X0.150000X-0.512500X0.150000X0.512500X0*%
%ADD23RotRect,0.900000X1.200000X255.000000*%
%ADD24RotRect,0.600000X1.100000X12.500000*%
%ADD25RotRect,0.300000X1.100000X12.500000*%
%ADD26RoundRect,0.140000X-0.091230X-0.200442X0.179229X-0.127973X0.091230X0.200442X-0.179229X0.127973X0*%
%ADD27RoundRect,0.140000X-0.179229X-0.127973X0.091230X-0.200442X0.179229X0.127973X-0.091230X0.200442X0*%
%ADD28RoundRect,0.140000X0.140000X0.170000X-0.140000X0.170000X-0.140000X-0.170000X0.140000X-0.170000X0*%
%ADD29RoundRect,0.140000X0.036244X0.217224X-0.206244X0.077224X-0.036244X-0.217224X0.206244X-0.077224X0*%
%ADD30RotRect,1.700000X1.000000X345.000000*%
%ADD31R,1.700000X1.000000*%
%ADD32RoundRect,0.225000X-0.250000X0.225000X-0.250000X-0.225000X0.250000X-0.225000X0.250000X0.225000X0*%
%ADD33RoundRect,0.135000X0.135000X0.185000X-0.135000X0.185000X-0.135000X-0.185000X0.135000X-0.185000X0*%
%ADD34RotRect,1.700000X1.000000X15.000000*%
%ADD35RoundRect,0.140000X0.179229X0.127973X-0.091230X0.200442X-0.179229X-0.127973X0.091230X-0.200442X0*%
%ADD36RotRect,1.700000X1.000000X315.000000*%
%ADD37RotRect,1.700000X1.000000X165.000000*%
%ADD38RotRect,1.700000X1.000000X330.000000*%
%ADD39RotRect,1.700000X1.000000X195.000000*%
%ADD40RoundRect,0.250000X0.700000X-0.275000X0.700000X0.275000X-0.700000X0.275000X-0.700000X-0.275000X0*%
%ADD41RoundRect,0.140000X-0.140000X-0.170000X0.140000X-0.170000X0.140000X0.170000X-0.140000X0.170000X0*%
%ADD42RoundRect,0.140000X-0.170000X0.140000X-0.170000X-0.140000X0.170000X-0.140000X0.170000X0.140000X0*%
%ADD43RoundRect,0.225000X0.225000X0.250000X-0.225000X0.250000X-0.225000X-0.250000X0.225000X-0.250000X0*%
%ADD44RoundRect,0.140000X0.170000X-0.140000X0.170000X0.140000X-0.170000X0.140000X-0.170000X-0.140000X0*%
%ADD45RoundRect,0.225000X-0.225000X-0.375000X0.225000X-0.375000X0.225000X0.375000X-0.225000X0.375000X0*%
%ADD46RoundRect,0.225000X0.250000X-0.225000X0.250000X0.225000X-0.250000X0.225000X-0.250000X-0.225000X0*%
%ADD47R,1.000000X1.700000*%
%ADD48RoundRect,0.140000X0.021213X-0.219203X0.219203X-0.021213X-0.021213X0.219203X-0.219203X0.021213X0*%
%ADD49RoundRect,0.140000X0.091230X0.200442X-0.179229X0.127973X-0.091230X-0.200442X0.179229X-0.127973X0*%
%ADD50R,0.600000X1.100000*%
%ADD51R,0.300000X1.100000*%
%ADD52RoundRect,0.135000X0.185000X-0.135000X0.185000X0.135000X-0.185000X0.135000X-0.185000X-0.135000X0*%
%ADD53RoundRect,0.135000X-0.185000X0.135000X-0.185000X-0.135000X0.185000X-0.135000X0.185000X0.135000X0*%
%ADD54RotRect,0.300000X0.550000X347.500000*%
%ADD55FreePoly0,180.000000*%
%ADD56FreePoly1,180.000000*%
%ADD57FreePoly2,180.000000*%
%ADD58FreePoly3,180.000000*%
%ADD59RoundRect,0.050000X0.387500X0.050000X-0.387500X0.050000X-0.387500X-0.050000X0.387500X-0.050000X0*%
%ADD60RoundRect,0.050000X0.050000X0.387500X-0.050000X0.387500X-0.050000X-0.387500X0.050000X-0.387500X0*%
%ADD61RoundRect,0.250000X0.623886X-0.419989X0.742928X0.116974X-0.623886X0.419989X-0.742928X-0.116974X0*%
%ADD62RoundRect,0.135000X-0.135000X-0.185000X0.135000X-0.185000X0.135000X0.185000X-0.135000X0.185000X0*%
%ADD63RoundRect,0.250000X-0.700000X0.275000X-0.700000X-0.275000X0.700000X-0.275000X0.700000X0.275000X0*%
%ADD64RoundRect,0.150000X0.650000X0.150000X-0.650000X0.150000X-0.650000X-0.150000X0.650000X-0.150000X0*%
%ADD65R,0.400000X0.650000*%
%ADD66RoundRect,0.250000X0.625000X-0.375000X0.625000X0.375000X-0.625000X0.375000X-0.625000X-0.375000X0*%
%ADD67RotRect,0.300000X0.550000X12.500000*%
%ADD68RoundRect,0.140000X0.219203X0.021213X0.021213X0.219203X-0.219203X-0.021213X-0.021213X-0.219203X0*%
%ADD69RoundRect,0.150000X0.587500X0.150000X-0.587500X0.150000X-0.587500X-0.150000X0.587500X-0.150000X0*%
%ADD70RoundRect,0.225000X0.225000X0.375000X-0.225000X0.375000X-0.225000X-0.375000X0.225000X-0.375000X0*%
%ADD71RotRect,1.700000X1.000000X210.000000*%
%ADD72RoundRect,0.250000X-0.625000X0.375000X-0.625000X-0.375000X0.625000X-0.375000X0.625000X0.375000X0*%
%ADD73RoundRect,0.140000X0.206244X0.077224X-0.036244X0.217224X-0.206244X-0.077224X0.036244X-0.217224X0*%
%ADD74RoundRect,0.140000X-0.036244X-0.217224X0.206244X-0.077224X0.036244X0.217224X-0.206244X0.077224X0*%
%ADD75RoundRect,0.150000X0.150000X-0.587500X0.150000X0.587500X-0.150000X0.587500X-0.150000X-0.587500X0*%
%ADD76RotRect,0.900000X1.200000X315.000000*%
%ADD77RotRect,1.700000X1.000000X150.000000*%
%ADD78R,0.300000X0.550000*%
%ADD79RoundRect,0.150000X-0.150000X0.587500X-0.150000X-0.587500X0.150000X-0.587500X0.150000X0.587500X0*%
%ADD80R,1.200000X0.900000*%
%ADD81RotRect,1.700000X1.000000X30.000000*%
%ADD82RotRect,0.900000X1.200000X300.000000*%
%ADD83R,1.200000X1.400000*%
%ADD84RotRect,0.900000X1.200000X240.000000*%
%ADD85R,2.440000X1.120000*%
%ADD86RotRect,1.700000X1.000000X45.000000*%
%ADD87RotRect,0.600000X1.100000X347.500000*%
%ADD88RotRect,0.300000X1.100000X347.500000*%
%ADD89RotRect,0.900000X1.200000X225.000000*%
%ADD90RoundRect,0.250000X0.742928X-0.116974X0.623886X0.419989X-0.742928X0.116974X-0.623886X-0.419989X0*%
G04 APERTURE END LIST*
%TO.C,D103*%
G36*
X150885932Y-171027289D02*
G01*
X150627113Y-171993215D01*
X148985039Y-171553222D01*
X149153271Y-170925370D01*
X149581932Y-170677883D01*
X150885932Y-171027289D01*
G37*
D10*
X150885932Y-171027289D02*
X150627113Y-171993215D01*
X148985039Y-171553222D01*
X149153271Y-170925370D01*
X149581932Y-170677883D01*
X150885932Y-171027289D01*
%TO.C,D104*%
G36*
X173099786Y-175459403D02*
G01*
X171399786Y-175459403D01*
X171399786Y-174809403D01*
X171749786Y-174459403D01*
X173099786Y-174459403D01*
X173099786Y-175459403D01*
G37*
X173099786Y-175459403D02*
X171399786Y-175459403D01*
X171399786Y-174809403D01*
X171749786Y-174459403D01*
X173099786Y-174459403D01*
X173099786Y-175459403D01*
%TO.C,D105*%
G36*
X195727133Y-172970091D02*
G01*
X194085059Y-173410083D01*
X193916827Y-172782232D01*
X194164314Y-172353571D01*
X195468314Y-172004165D01*
X195727133Y-172970091D01*
G37*
X195727133Y-172970091D02*
X194085059Y-173410083D01*
X193916827Y-172782232D01*
X194164314Y-172353571D01*
X195468314Y-172004165D01*
X195727133Y-172970091D01*
%TO.C,D125*%
G36*
X283577916Y-126369007D02*
G01*
X281935842Y-126808999D01*
X281767610Y-126181148D01*
X282015097Y-125752487D01*
X283319097Y-125403081D01*
X283577916Y-126369007D01*
G37*
X283577916Y-126369007D02*
X281935842Y-126808999D01*
X281767610Y-126181148D01*
X282015097Y-125752487D01*
X283319097Y-125403081D01*
X283577916Y-126369007D01*
%TO.C,D75*%
G36*
X34220716Y-84657117D02*
G01*
X33961897Y-85623043D01*
X32319823Y-85183050D01*
X32488055Y-84555198D01*
X32916716Y-84307711D01*
X34220716Y-84657117D01*
G37*
X34220716Y-84657117D02*
X33961897Y-85623043D01*
X32319823Y-85183050D01*
X32488055Y-84555198D01*
X32916716Y-84307711D01*
X34220716Y-84657117D01*
%TO.C,D102*%
G36*
X129068402Y-157261639D02*
G01*
X128361295Y-157968746D01*
X127159214Y-156766664D01*
X127618833Y-156307045D01*
X128113808Y-156307045D01*
X129068402Y-157261639D01*
G37*
X129068402Y-157261639D02*
X128361295Y-157968746D01*
X127159214Y-156766664D01*
X127618833Y-156307045D01*
X128113808Y-156307045D01*
X129068402Y-157261639D01*
%TO.C,D81*%
G36*
X53257634Y-108464195D02*
G01*
X53089402Y-109092047D01*
X52660741Y-109339534D01*
X51356741Y-108990128D01*
X51615560Y-108024202D01*
X53257634Y-108464195D01*
G37*
X53257634Y-108464195D02*
X53089402Y-109092047D01*
X52660741Y-109339534D01*
X51356741Y-108990128D01*
X51615560Y-108024202D01*
X53257634Y-108464195D01*
%TO.C,D106*%
G36*
X209475008Y-70623785D02*
G01*
X207832934Y-71063777D01*
X207664702Y-70435926D01*
X207912189Y-70007265D01*
X209216189Y-69657859D01*
X209475008Y-70623785D01*
G37*
X209475008Y-70623785D02*
X207832934Y-71063777D01*
X207664702Y-70435926D01*
X207912189Y-70007265D01*
X209216189Y-69657859D01*
X209475008Y-70623785D01*
%TO.C,D67*%
G36*
X184054545Y-105517065D02*
G01*
X183554545Y-106383090D01*
X182082302Y-105533090D01*
X182407302Y-104970173D01*
X182885410Y-104842065D01*
X184054545Y-105517065D01*
G37*
X184054545Y-105517065D02*
X183554545Y-106383090D01*
X182082302Y-105533090D01*
X182407302Y-104970173D01*
X182885410Y-104842065D01*
X184054545Y-105517065D01*
%TO.C,D101*%
G36*
X127272064Y-126652799D02*
G01*
X127103832Y-127280651D01*
X126675171Y-127528138D01*
X125371171Y-127178732D01*
X125629990Y-126212806D01*
X127272064Y-126652799D01*
G37*
X127272064Y-126652799D02*
X127103832Y-127280651D01*
X126675171Y-127528138D01*
X125371171Y-127178732D01*
X125629990Y-126212806D01*
X127272064Y-126652799D01*
%TO.C,D134*%
G36*
X322882469Y-104598165D02*
G01*
X322634982Y-105026826D01*
X321330982Y-105376232D01*
X321072163Y-104410306D01*
X322714237Y-103970314D01*
X322882469Y-104598165D01*
G37*
X322882469Y-104598165D02*
X322634982Y-105026826D01*
X321330982Y-105376232D01*
X321072163Y-104410306D01*
X322714237Y-103970314D01*
X322882469Y-104598165D01*
%TO.C,D78*%
G36*
X63098918Y-50485732D02*
G01*
X62840099Y-51451658D01*
X61198025Y-51011665D01*
X61366257Y-50383813D01*
X61794918Y-50136326D01*
X63098918Y-50485732D01*
G37*
X63098918Y-50485732D02*
X62840099Y-51451658D01*
X61198025Y-51011665D01*
X61366257Y-50383813D01*
X61794918Y-50136326D01*
X63098918Y-50485732D01*
%TO.C,D98*%
G36*
X137113318Y-68674342D02*
G01*
X136854499Y-69640268D01*
X135212425Y-69200275D01*
X135380657Y-68572423D01*
X135809318Y-68324936D01*
X137113318Y-68674342D01*
G37*
X137113318Y-68674342D02*
X136854499Y-69640268D01*
X135212425Y-69200275D01*
X135380657Y-68572423D01*
X135809318Y-68324936D01*
X137113318Y-68674342D01*
%TO.C,D90*%
G36*
X92299489Y-88714774D02*
G01*
X92040670Y-89680700D01*
X90398596Y-89240707D01*
X90566828Y-88612855D01*
X90995489Y-88365368D01*
X92299489Y-88714774D01*
G37*
X92299489Y-88714774D02*
X92040670Y-89680700D01*
X90398596Y-89240707D01*
X90566828Y-88612855D01*
X90995489Y-88365368D01*
X92299489Y-88714774D01*
%TO.C,D100*%
G36*
X127252318Y-105476113D02*
G01*
X126993499Y-106442039D01*
X125351425Y-106002046D01*
X125519657Y-105374194D01*
X125948318Y-105126707D01*
X127252318Y-105476113D01*
G37*
X127252318Y-105476113D02*
X126993499Y-106442039D01*
X125351425Y-106002046D01*
X125519657Y-105374194D01*
X125948318Y-105126707D01*
X127252318Y-105476113D01*
%TO.C,D87*%
G36*
X63010403Y-124419555D02*
G01*
X62751584Y-125385481D01*
X61109510Y-124945488D01*
X61277742Y-124317636D01*
X61706403Y-124070149D01*
X63010403Y-124419555D01*
G37*
X63010403Y-124419555D02*
X62751584Y-125385481D01*
X61109510Y-124945488D01*
X61277742Y-124317636D01*
X61706403Y-124070149D01*
X63010403Y-124419555D01*
%TO.C,D68*%
G36*
X196400009Y-121749990D02*
G01*
X196400009Y-123099990D01*
X195400009Y-123099990D01*
X195400009Y-121399990D01*
X196050009Y-121399990D01*
X196400009Y-121749990D01*
G37*
X196400009Y-121749990D02*
X196400009Y-123099990D01*
X195400009Y-123099990D01*
X195400009Y-121399990D01*
X196050009Y-121399990D01*
X196400009Y-121749990D01*
%TO.C,D84*%
G36*
X82752158Y-71992691D02*
G01*
X82583926Y-72620543D01*
X82155265Y-72868030D01*
X80851265Y-72518624D01*
X81110084Y-71552698D01*
X82752158Y-71992691D01*
G37*
X82752158Y-71992691D02*
X82583926Y-72620543D01*
X82155265Y-72868030D01*
X80851265Y-72518624D01*
X81110084Y-71552698D01*
X82752158Y-71992691D01*
%TO.C,D91*%
G36*
X92319243Y-109891440D02*
G01*
X92151011Y-110519292D01*
X91722350Y-110766779D01*
X90418350Y-110417373D01*
X90677169Y-109451447D01*
X92319243Y-109891440D01*
G37*
X92319243Y-109891440D02*
X92151011Y-110519292D01*
X91722350Y-110766779D01*
X90418350Y-110417373D01*
X90677169Y-109451447D01*
X92319243Y-109891440D01*
%TO.C,D83*%
G36*
X82732421Y-50816012D02*
G01*
X82473602Y-51781938D01*
X80831528Y-51341945D01*
X80999760Y-50714093D01*
X81428421Y-50466606D01*
X82732421Y-50816012D01*
G37*
X82732421Y-50816012D02*
X82473602Y-51781938D01*
X80831528Y-51341945D01*
X80999760Y-50714093D01*
X81428421Y-50466606D01*
X82732421Y-50816012D01*
%TO.C,D95*%
G36*
X109673204Y-97478819D02*
G01*
X109414385Y-98444745D01*
X107772311Y-98004752D01*
X107940543Y-97376900D01*
X108369204Y-97129413D01*
X109673204Y-97478819D01*
G37*
X109673204Y-97478819D02*
X109414385Y-98444745D01*
X107772311Y-98004752D01*
X107940543Y-97376900D01*
X108369204Y-97129413D01*
X109673204Y-97478819D01*
%TO.C,D86*%
G36*
X72891153Y-108794480D02*
G01*
X72722921Y-109422332D01*
X72294260Y-109669819D01*
X70990260Y-109320413D01*
X71249079Y-108354487D01*
X72891153Y-108794480D01*
G37*
X72891153Y-108794480D02*
X72722921Y-109422332D01*
X72294260Y-109669819D01*
X70990260Y-109320413D01*
X71249079Y-108354487D01*
X72891153Y-108794480D01*
%TO.C,D129*%
G36*
X303865278Y-107228555D02*
G01*
X303617791Y-107657216D01*
X302313791Y-108006622D01*
X302054972Y-107040696D01*
X303697046Y-106600704D01*
X303865278Y-107228555D01*
G37*
X303865278Y-107228555D02*
X303617791Y-107657216D01*
X302313791Y-108006622D01*
X302054972Y-107040696D01*
X303697046Y-106600704D01*
X303865278Y-107228555D01*
%TO.C,D93*%
G36*
X119534198Y-60677003D02*
G01*
X119275379Y-61642929D01*
X117633305Y-61202936D01*
X117801537Y-60575084D01*
X118230198Y-60327597D01*
X119534198Y-60677003D01*
G37*
X119534198Y-60677003D02*
X119275379Y-61642929D01*
X117633305Y-61202936D01*
X117801537Y-60575084D01*
X118230198Y-60327597D01*
X119534198Y-60677003D01*
%TO.C,D127*%
G36*
X294004271Y-70426757D02*
G01*
X293756784Y-70855418D01*
X292452784Y-71204824D01*
X292193965Y-70238898D01*
X293836039Y-69798906D01*
X294004271Y-70426757D01*
G37*
X294004271Y-70426757D02*
X293756784Y-70855418D01*
X292452784Y-71204824D01*
X292193965Y-70238898D01*
X293836039Y-69798906D01*
X294004271Y-70426757D01*
%TO.C,D130*%
G36*
X303211431Y-126038740D02*
G01*
X301569357Y-126478732D01*
X301401125Y-125850881D01*
X301648612Y-125422220D01*
X302952612Y-125072814D01*
X303211431Y-126038740D01*
G37*
X303211431Y-126038740D02*
X301569357Y-126478732D01*
X301401125Y-125850881D01*
X301648612Y-125422220D01*
X302952612Y-125072814D01*
X303211431Y-126038740D01*
%TO.C,D124*%
G36*
X284231767Y-107558833D02*
G01*
X283984280Y-107987494D01*
X282680280Y-108336900D01*
X282421461Y-107370974D01*
X284063535Y-106930982D01*
X284231767Y-107558833D01*
G37*
X284231767Y-107558833D02*
X283984280Y-107987494D01*
X282680280Y-108336900D01*
X282421461Y-107370974D01*
X284063535Y-106930982D01*
X284231767Y-107558833D01*
%TO.C,D107*%
G36*
X219989850Y-88615387D02*
G01*
X219742363Y-89044048D01*
X218438363Y-89393454D01*
X218179544Y-88427528D01*
X219821618Y-87987536D01*
X219989850Y-88615387D01*
G37*
X219989850Y-88615387D02*
X219742363Y-89044048D01*
X218438363Y-89393454D01*
X218179544Y-88427528D01*
X219821618Y-87987536D01*
X219989850Y-88615387D01*
%TO.C,D85*%
G36*
X72871420Y-87617780D02*
G01*
X72612601Y-88583706D01*
X70970527Y-88143713D01*
X71138759Y-87515861D01*
X71567420Y-87268374D01*
X72871420Y-87617780D01*
G37*
X72871420Y-87617780D02*
X72612601Y-88583706D01*
X70970527Y-88143713D01*
X71138759Y-87515861D01*
X71567420Y-87268374D01*
X72871420Y-87617780D01*
%TO.C,D92*%
G36*
X92445943Y-137237272D02*
G01*
X92187124Y-138203198D01*
X90545050Y-137763205D01*
X90713282Y-137135353D01*
X91141943Y-136887866D01*
X92445943Y-137237272D01*
G37*
X92445943Y-137237272D02*
X92187124Y-138203198D01*
X90545050Y-137763205D01*
X90713282Y-137135353D01*
X91141943Y-136887866D01*
X92445943Y-137237272D01*
%TO.C,D73*%
G36*
X44081713Y-47855331D02*
G01*
X43822894Y-48821257D01*
X42180820Y-48381264D01*
X42349052Y-47753412D01*
X42777713Y-47505925D01*
X44081713Y-47855331D01*
G37*
X44081713Y-47855331D02*
X43822894Y-48821257D01*
X42180820Y-48381264D01*
X42349052Y-47753412D01*
X42777713Y-47505925D01*
X44081713Y-47855331D01*
%TO.C,D108*%
G36*
X219335987Y-107425554D02*
G01*
X217693913Y-107865546D01*
X217525681Y-107237695D01*
X217773168Y-106809034D01*
X219077168Y-106459628D01*
X219335987Y-107425554D01*
G37*
X219335987Y-107425554D02*
X217693913Y-107865546D01*
X217525681Y-107237695D01*
X217773168Y-106809034D01*
X219077168Y-106459628D01*
X219335987Y-107425554D01*
%TO.C,D112*%
G36*
X237568991Y-80618075D02*
G01*
X237321504Y-81046736D01*
X236017504Y-81396142D01*
X235758685Y-80430216D01*
X237400759Y-79990224D01*
X237568991Y-80618075D01*
G37*
X237568991Y-80618075D02*
X237321504Y-81046736D01*
X236017504Y-81396142D01*
X235758685Y-80430216D01*
X237400759Y-79990224D01*
X237568991Y-80618075D01*
%TO.C,D131*%
G36*
X302506605Y-49804774D02*
G01*
X300864531Y-50244766D01*
X300696299Y-49616915D01*
X300943786Y-49188254D01*
X302247786Y-48838848D01*
X302506605Y-49804774D01*
G37*
X302506605Y-49804774D02*
X300864531Y-50244766D01*
X300696299Y-49616915D01*
X300943786Y-49188254D01*
X302247786Y-48838848D01*
X302506605Y-49804774D01*
%TO.C,D76*%
G36*
X34240470Y-105833820D02*
G01*
X34072238Y-106461672D01*
X33643577Y-106709159D01*
X32339577Y-106359753D01*
X32598396Y-105393827D01*
X34240470Y-105833820D01*
G37*
X34240470Y-105833820D02*
X34072238Y-106461672D01*
X33643577Y-106709159D01*
X32339577Y-106359753D01*
X32598396Y-105393827D01*
X34240470Y-105833820D01*
%TO.C,D89*%
G36*
X102180244Y-73089673D02*
G01*
X102012012Y-73717525D01*
X101583351Y-73965012D01*
X100279351Y-73615606D01*
X100538170Y-72649680D01*
X102180244Y-73089673D01*
G37*
X102180244Y-73089673D02*
X102012012Y-73717525D01*
X101583351Y-73965012D01*
X100279351Y-73615606D01*
X100538170Y-72649680D01*
X102180244Y-73089673D01*
%TO.C,D117*%
G36*
X254942678Y-71854032D02*
G01*
X254695191Y-72282693D01*
X253391191Y-72632099D01*
X253132372Y-71666173D01*
X254774446Y-71226181D01*
X254942678Y-71854032D01*
G37*
X254942678Y-71854032D02*
X254695191Y-72282693D01*
X253391191Y-72632099D01*
X253132372Y-71666173D01*
X254774446Y-71226181D01*
X254942678Y-71854032D01*
%TO.C,D96*%
G36*
X109692948Y-118655477D02*
G01*
X109524716Y-119283329D01*
X109096055Y-119530816D01*
X107792055Y-119181410D01*
X108050874Y-118215484D01*
X109692948Y-118655477D01*
G37*
X109692948Y-118655477D02*
X109524716Y-119283329D01*
X109096055Y-119530816D01*
X107792055Y-119181410D01*
X108050874Y-118215484D01*
X109692948Y-118655477D01*
%TO.C,D77*%
G36*
X24359706Y-121458893D02*
G01*
X24100887Y-122424819D01*
X22458813Y-121984826D01*
X22627045Y-121356974D01*
X23055706Y-121109487D01*
X24359706Y-121458893D01*
G37*
X24359706Y-121458893D02*
X24100887Y-122424819D01*
X22458813Y-121984826D01*
X22627045Y-121356974D01*
X23055706Y-121109487D01*
X24359706Y-121458893D01*
%TO.C,D113*%
G36*
X236915140Y-99428238D02*
G01*
X235273066Y-99868230D01*
X235104834Y-99240379D01*
X235352321Y-98811718D01*
X236656321Y-98462312D01*
X236915140Y-99428238D01*
G37*
X236915140Y-99428238D02*
X235273066Y-99868230D01*
X235104834Y-99240379D01*
X235352321Y-98811718D01*
X236656321Y-98462312D01*
X236915140Y-99428238D01*
%TO.C,D71*%
G36*
X154599995Y-128600004D02*
G01*
X153949995Y-128600004D01*
X153599995Y-128250004D01*
X153599995Y-126900004D01*
X154599995Y-126900004D01*
X154599995Y-128600004D01*
G37*
X154599995Y-128600004D02*
X153949995Y-128600004D01*
X153599995Y-128250004D01*
X153599995Y-126900004D01*
X154599995Y-126900004D01*
X154599995Y-128600004D01*
%TO.C,D82*%
G36*
X43376896Y-124089277D02*
G01*
X43118077Y-125055203D01*
X41476003Y-124615210D01*
X41644235Y-123987358D01*
X42072896Y-123739871D01*
X43376896Y-124089277D01*
G37*
X43376896Y-124089277D02*
X43118077Y-125055203D01*
X41476003Y-124615210D01*
X41644235Y-123987358D01*
X42072896Y-123739871D01*
X43376896Y-124089277D01*
%TO.C,D132*%
G36*
X313021466Y-67796388D02*
G01*
X312773979Y-68225049D01*
X311469979Y-68574455D01*
X311211160Y-67608529D01*
X312853234Y-67168537D01*
X313021466Y-67796388D01*
G37*
X313021466Y-67796388D02*
X312773979Y-68225049D01*
X311469979Y-68574455D01*
X311211160Y-67608529D01*
X312853234Y-67168537D01*
X313021466Y-67796388D01*
%TO.C,D69*%
G36*
X188642701Y-141429832D02*
G01*
X188514593Y-141907940D01*
X187345458Y-142582940D01*
X186845458Y-141716915D01*
X188317701Y-140866915D01*
X188642701Y-141429832D01*
G37*
X188642701Y-141429832D02*
X188514593Y-141907940D01*
X187345458Y-142582940D01*
X186845458Y-141716915D01*
X188317701Y-140866915D01*
X188642701Y-141429832D01*
%TO.C,D122*%
G36*
X274370750Y-70757065D02*
G01*
X274123263Y-71185726D01*
X272819263Y-71535132D01*
X272560444Y-70569206D01*
X274202518Y-70129214D01*
X274370750Y-70757065D01*
G37*
X274370750Y-70757065D02*
X274123263Y-71185726D01*
X272819263Y-71535132D01*
X272560444Y-70569206D01*
X274202518Y-70129214D01*
X274370750Y-70757065D01*
%TO.C,D99*%
G36*
X137133083Y-89851013D02*
G01*
X136964851Y-90478865D01*
X136536190Y-90726352D01*
X135232190Y-90376946D01*
X135491009Y-89411020D01*
X137133083Y-89851013D01*
G37*
X137133083Y-89851013D02*
X136964851Y-90478865D01*
X136536190Y-90726352D01*
X135232190Y-90376946D01*
X135491009Y-89411020D01*
X137133083Y-89851013D01*
%TO.C,D80*%
G36*
X53237930Y-87287500D02*
G01*
X52979111Y-88253426D01*
X51337037Y-87813433D01*
X51505269Y-87185581D01*
X51933930Y-86938094D01*
X53237930Y-87287500D01*
G37*
X53237930Y-87287500D02*
X52979111Y-88253426D01*
X51337037Y-87813433D01*
X51505269Y-87185581D01*
X51933930Y-86938094D01*
X53237930Y-87287500D01*
%TO.C,D109*%
G36*
X229850849Y-125417158D02*
G01*
X229603362Y-125845819D01*
X228299362Y-126195225D01*
X228040543Y-125229299D01*
X229682617Y-124789307D01*
X229850849Y-125417158D01*
G37*
X229850849Y-125417158D02*
X229603362Y-125845819D01*
X228299362Y-126195225D01*
X228040543Y-125229299D01*
X229682617Y-124789307D01*
X229850849Y-125417158D01*
%TO.C,D133*%
G36*
X312367608Y-86606544D02*
G01*
X310725534Y-87046536D01*
X310557302Y-86418685D01*
X310804789Y-85990024D01*
X312108789Y-85640618D01*
X312367608Y-86606544D01*
G37*
X312367608Y-86606544D02*
X310725534Y-87046536D01*
X310557302Y-86418685D01*
X310804789Y-85990024D01*
X312108789Y-85640618D01*
X312367608Y-86606544D01*
%TO.C,D126*%
G36*
X283489430Y-52435172D02*
G01*
X281847356Y-52875164D01*
X281679124Y-52247313D01*
X281926611Y-51818652D01*
X283230611Y-51469246D01*
X283489430Y-52435172D01*
G37*
X283489430Y-52435172D02*
X281847356Y-52875164D01*
X281679124Y-52247313D01*
X281926611Y-51818652D01*
X283230611Y-51469246D01*
X283489430Y-52435172D01*
%TO.C,D111*%
G36*
X227054122Y-62626464D02*
G01*
X225412048Y-63066456D01*
X225243816Y-62438605D01*
X225491303Y-62009944D01*
X226795303Y-61660538D01*
X227054122Y-62626464D01*
G37*
X227054122Y-62626464D02*
X225412048Y-63066456D01*
X225243816Y-62438605D01*
X225491303Y-62009944D01*
X226795303Y-61660538D01*
X227054122Y-62626464D01*
%TO.C,D70*%
G36*
X167917691Y-144466914D02*
G01*
X167592691Y-145029831D01*
X167114583Y-145157939D01*
X165945448Y-144482939D01*
X166445448Y-143616914D01*
X167917691Y-144466914D01*
G37*
X167917691Y-144466914D02*
X167592691Y-145029831D01*
X167114583Y-145157939D01*
X165945448Y-144482939D01*
X166445448Y-143616914D01*
X167917691Y-144466914D01*
%TO.C,D114*%
G36*
X247429979Y-117419849D02*
G01*
X247182492Y-117848510D01*
X245878492Y-118197916D01*
X245619673Y-117231990D01*
X247261747Y-116791998D01*
X247429979Y-117419849D01*
G37*
X247429979Y-117419849D02*
X247182492Y-117848510D01*
X245878492Y-118197916D01*
X245619673Y-117231990D01*
X247261747Y-116791998D01*
X247429979Y-117419849D01*
%TO.C,D123*%
G36*
X273716918Y-89567227D02*
G01*
X272074844Y-90007219D01*
X271906612Y-89379368D01*
X272154099Y-88950707D01*
X273458099Y-88601301D01*
X273716918Y-89567227D01*
G37*
X273716918Y-89567227D02*
X272074844Y-90007219D01*
X271906612Y-89379368D01*
X272154099Y-88950707D01*
X273458099Y-88601301D01*
X273716918Y-89567227D01*
%TO.C,D135*%
G36*
X322228622Y-123408326D02*
G01*
X320586548Y-123848318D01*
X320418316Y-123220467D01*
X320665803Y-122791806D01*
X321969803Y-122442400D01*
X322228622Y-123408326D01*
G37*
X322228622Y-123408326D02*
X320586548Y-123848318D01*
X320418316Y-123220467D01*
X320665803Y-122791806D01*
X321969803Y-122442400D01*
X322228622Y-123408326D01*
%TO.C,D128*%
G36*
X293350427Y-89236952D02*
G01*
X291708353Y-89676944D01*
X291540121Y-89049093D01*
X291787608Y-88620432D01*
X293091608Y-88271026D01*
X293350427Y-89236952D01*
G37*
X293350427Y-89236952D02*
X291708353Y-89676944D01*
X291540121Y-89049093D01*
X291787608Y-88620432D01*
X293091608Y-88271026D01*
X293350427Y-89236952D01*
%TO.C,D97*%
G36*
X112124400Y-144845301D02*
G01*
X111624400Y-145711326D01*
X110152157Y-144861326D01*
X110477157Y-144298409D01*
X110955265Y-144170301D01*
X112124400Y-144845301D01*
G37*
X112124400Y-144845301D02*
X111624400Y-145711326D01*
X110152157Y-144861326D01*
X110477157Y-144298409D01*
X110955265Y-144170301D01*
X112124400Y-144845301D01*
%TO.C,D72*%
G36*
X163154564Y-108283091D02*
G01*
X161682321Y-109133091D01*
X161357321Y-108570174D01*
X161485429Y-108092066D01*
X162654564Y-107417066D01*
X163154564Y-108283091D01*
G37*
X163154564Y-108283091D02*
X161682321Y-109133091D01*
X161357321Y-108570174D01*
X161485429Y-108092066D01*
X162654564Y-107417066D01*
X163154564Y-108283091D01*
%TO.C,D94*%
G36*
X119553932Y-81853690D02*
G01*
X119385700Y-82481542D01*
X118957039Y-82729029D01*
X117653039Y-82379623D01*
X117911858Y-81413697D01*
X119553932Y-81853690D01*
G37*
X119553932Y-81853690D02*
X119385700Y-82481542D01*
X118957039Y-82729029D01*
X117653039Y-82379623D01*
X117911858Y-81413697D01*
X119553932Y-81853690D01*
%TO.C,D119*%
G36*
X264803681Y-108655801D02*
G01*
X264556194Y-109084462D01*
X263252194Y-109433868D01*
X262993375Y-108467942D01*
X264635449Y-108027950D01*
X264803681Y-108655801D01*
G37*
X264803681Y-108655801D02*
X264556194Y-109084462D01*
X263252194Y-109433868D01*
X262993375Y-108467942D01*
X264635449Y-108027950D01*
X264803681Y-108655801D01*
%TO.C,D120*%
G36*
X254142400Y-139186718D02*
G01*
X252500326Y-139626710D01*
X252332094Y-138998859D01*
X252579581Y-138570198D01*
X253883581Y-138220792D01*
X254142400Y-139186718D01*
G37*
X254142400Y-139186718D02*
X252500326Y-139626710D01*
X252332094Y-138998859D01*
X252579581Y-138570198D01*
X253883581Y-138220792D01*
X254142400Y-139186718D01*
%TO.C,D115*%
G36*
X235069446Y-147604214D02*
G01*
X233597203Y-148454214D01*
X233272203Y-147891297D01*
X233400311Y-147413189D01*
X234569446Y-146738189D01*
X235069446Y-147604214D01*
G37*
X235069446Y-147604214D02*
X233597203Y-148454214D01*
X233272203Y-147891297D01*
X233400311Y-147413189D01*
X234569446Y-146738189D01*
X235069446Y-147604214D01*
%TO.C,D116*%
G36*
X244427809Y-53862435D02*
G01*
X242785735Y-54302427D01*
X242617503Y-53674576D01*
X242864990Y-53245915D01*
X244168990Y-52896509D01*
X244427809Y-53862435D01*
G37*
X244427809Y-53862435D02*
X242785735Y-54302427D01*
X242617503Y-53674576D01*
X242864990Y-53245915D01*
X244168990Y-52896509D01*
X244427809Y-53862435D01*
%TO.C,D110*%
G36*
X218946928Y-160654408D02*
G01*
X217744846Y-161856489D01*
X217285227Y-161396870D01*
X217285227Y-160901895D01*
X218239821Y-159947301D01*
X218946928Y-160654408D01*
G37*
X218946928Y-160654408D02*
X217744846Y-161856489D01*
X217285227Y-161396870D01*
X217285227Y-160901895D01*
X218239821Y-159947301D01*
X218946928Y-160654408D01*
%TO.C,D74*%
G36*
X44101462Y-69032029D02*
G01*
X43933230Y-69659881D01*
X43504569Y-69907368D01*
X42200569Y-69557962D01*
X42459388Y-68592036D01*
X44101462Y-69032029D01*
G37*
X44101462Y-69032029D02*
X43933230Y-69659881D01*
X43504569Y-69907368D01*
X42200569Y-69557962D01*
X42459388Y-68592036D01*
X44101462Y-69032029D01*
%TO.C,D79*%
G36*
X63118660Y-71662410D02*
G01*
X62950428Y-72290262D01*
X62521767Y-72537749D01*
X61217767Y-72188343D01*
X61476586Y-71222417D01*
X63118660Y-71662410D01*
G37*
X63118660Y-71662410D02*
X62950428Y-72290262D01*
X62521767Y-72537749D01*
X61217767Y-72188343D01*
X61476586Y-71222417D01*
X63118660Y-71662410D01*
%TO.C,D121*%
G36*
X263855900Y-52765461D02*
G01*
X262213826Y-53205453D01*
X262045594Y-52577602D01*
X262293081Y-52148941D01*
X263597081Y-51799535D01*
X263855900Y-52765461D01*
G37*
X263855900Y-52765461D02*
X262213826Y-53205453D01*
X262045594Y-52577602D01*
X262293081Y-52148941D01*
X263597081Y-51799535D01*
X263855900Y-52765461D01*
%TO.C,D88*%
G36*
X102160509Y-51912982D02*
G01*
X101901690Y-52878908D01*
X100259616Y-52438915D01*
X100427848Y-51811063D01*
X100856509Y-51563576D01*
X102160509Y-51912982D01*
G37*
X102160509Y-51912982D02*
X101901690Y-52878908D01*
X100259616Y-52438915D01*
X100427848Y-51811063D01*
X100856509Y-51563576D01*
X102160509Y-51912982D01*
%TO.C,D118*%
G36*
X254288835Y-90664219D02*
G01*
X252646761Y-91104211D01*
X252478529Y-90476360D01*
X252726016Y-90047699D01*
X254030016Y-89698293D01*
X254288835Y-90664219D01*
G37*
X254288835Y-90664219D02*
X252646761Y-91104211D01*
X252478529Y-90476360D01*
X252726016Y-90047699D01*
X254030016Y-89698293D01*
X254288835Y-90664219D01*
%TD*%
D11*
%TO.C,SW61*%
X147453815Y-163802798D03*
X160597738Y-164695101D03*
%TD*%
D12*
%TO.C,SW62*%
X167915018Y-168369991D03*
X180842018Y-165829991D03*
%TD*%
D13*
%TO.C,SW25*%
X110694325Y-136971603D03*
X123159435Y-141235399D03*
%TD*%
D14*
%TO.C,SW30*%
X129711941Y-149287339D03*
X140648761Y-156632057D03*
%TD*%
D11*
%TO.C,SW1*%
X40649607Y-40630858D03*
X53793530Y-41523161D03*
%TD*%
%TO.C,SW24*%
X101310588Y-108655204D03*
X114454511Y-109547507D03*
%TD*%
%TO.C,SW29*%
X118889704Y-116652548D03*
X132033627Y-117544851D03*
%TD*%
%TO.C,SW14*%
X64508797Y-98794209D03*
X77652720Y-99686512D03*
%TD*%
%TO.C,SW19*%
X83936879Y-99891175D03*
X97080802Y-100783478D03*
%TD*%
%TO.C,SW5*%
X20927587Y-114234423D03*
X34071510Y-115126726D03*
%TD*%
%TO.C,SW22*%
X111171577Y-71853421D03*
X124315500Y-72745724D03*
%TD*%
%TO.C,SW27*%
X128750711Y-79850761D03*
X141894634Y-80743064D03*
%TD*%
%TO.C,SW3*%
X30788582Y-77432647D03*
X43932505Y-78324950D03*
%TD*%
%TO.C,SW8*%
X49805797Y-80063021D03*
X62949720Y-80955324D03*
%TD*%
%TO.C,SW13*%
X69439308Y-80393308D03*
X82583231Y-81285611D03*
%TD*%
%TO.C,SW23*%
X106241089Y-90254347D03*
X119385012Y-91146650D03*
%TD*%
%TO.C,SW18*%
X88867364Y-81490295D03*
X102011287Y-82382598D03*
%TD*%
%TO.C,SW28*%
X123820203Y-98251646D03*
X136964126Y-99143949D03*
%TD*%
%TO.C,SW4*%
X25858104Y-95833548D03*
X39002027Y-96725851D03*
%TD*%
%TO.C,SW9*%
X44875265Y-98463928D03*
X58019188Y-99356231D03*
%TD*%
%TO.C,SW10*%
X39944786Y-116864811D03*
X53088709Y-117757114D03*
%TD*%
%TO.C,SW15*%
X59578294Y-117195088D03*
X72722217Y-118087391D03*
%TD*%
%TO.C,SW20*%
X89013810Y-130012815D03*
X102157733Y-130905118D03*
%TD*%
%TO.C,SW11*%
X79300309Y-43591556D03*
X92444232Y-44483859D03*
%TD*%
%TO.C,SW2*%
X35719103Y-59031756D03*
X48863026Y-59924059D03*
%TD*%
%TO.C,SW12*%
X74369799Y-61992422D03*
X87513722Y-62884725D03*
%TD*%
%TO.C,SW21*%
X116102088Y-53452543D03*
X129246011Y-54344846D03*
%TD*%
%TO.C,SW17*%
X93797881Y-63089420D03*
X106941804Y-63981723D03*
%TD*%
%TO.C,SW16*%
X98728382Y-44688515D03*
X111872305Y-45580818D03*
%TD*%
%TO.C,SW6*%
X59666794Y-43261262D03*
X72810717Y-44153565D03*
%TD*%
%TO.C,SW7*%
X54736293Y-61662143D03*
X67880216Y-62554446D03*
%TD*%
%TO.C,SW26*%
X133681215Y-61449870D03*
X146825138Y-62342173D03*
%TD*%
D15*
%TO.C,SW31*%
X202631645Y-65117341D03*
X214460768Y-59318136D03*
%TD*%
%TO.C,SW45*%
X247299041Y-133680278D03*
X259128164Y-127881073D03*
%TD*%
%TO.C,SW49*%
X271804056Y-102461693D03*
X283633179Y-96662488D03*
%TD*%
%TO.C,SW47*%
X261943058Y-65659905D03*
X273772181Y-59860700D03*
%TD*%
%TO.C,SW63*%
X188859013Y-167470286D03*
X200688136Y-161671081D03*
%TD*%
%TO.C,SW33*%
X212492644Y-101919111D03*
X224321767Y-96119906D03*
%TD*%
%TO.C,SW59*%
X310454762Y-99501006D03*
X322283885Y-93701801D03*
%TD*%
%TO.C,SW38*%
X230071794Y-93921802D03*
X241900917Y-88122597D03*
%TD*%
%TO.C,SW50*%
X276734559Y-120862572D03*
X288563682Y-115063367D03*
%TD*%
%TO.C,SW58*%
X305524256Y-81100095D03*
X317353379Y-75300890D03*
%TD*%
%TO.C,SW43*%
X247445465Y-85157762D03*
X259274588Y-79358557D03*
%TD*%
%TO.C,SW57*%
X300593750Y-62699219D03*
X312422873Y-56900014D03*
%TD*%
%TO.C,SW52*%
X281576570Y-65329612D03*
X293405693Y-59530407D03*
%TD*%
%TO.C,SW44*%
X252375982Y-103558640D03*
X264205105Y-97759435D03*
%TD*%
%TO.C,SW41*%
X237584473Y-48355995D03*
X249413596Y-42556790D03*
%TD*%
D16*
%TO.C,SW40*%
X227034113Y-144056588D03*
X236959223Y-135393384D03*
%TD*%
D15*
%TO.C,SW46*%
X257012546Y-47259022D03*
X268841669Y-41459817D03*
%TD*%
%TO.C,SW51*%
X276646062Y-46928741D03*
X288475185Y-41129536D03*
%TD*%
%TO.C,SW60*%
X315385257Y-117901883D03*
X327214380Y-112102678D03*
%TD*%
%TO.C,SW37*%
X225141284Y-75520921D03*
X236970407Y-69721716D03*
%TD*%
%TO.C,SW54*%
X291437574Y-102131395D03*
X303266697Y-96332190D03*
%TD*%
%TO.C,SW55*%
X296368080Y-120532284D03*
X308197203Y-114733079D03*
%TD*%
%TO.C,SW48*%
X266873560Y-84060792D03*
X278702683Y-78261587D03*
%TD*%
%TO.C,SW53*%
X286507069Y-83730501D03*
X298336192Y-77931296D03*
%TD*%
D17*
%TO.C,SW35*%
X210268381Y-159307037D03*
X217613099Y-148370217D03*
%TD*%
D15*
%TO.C,SW34*%
X217423144Y-120319996D03*
X229252267Y-114520791D03*
%TD*%
%TO.C,SW42*%
X242514968Y-66756883D03*
X254344091Y-60957678D03*
%TD*%
%TO.C,SW56*%
X295663256Y-44298342D03*
X307492379Y-38499137D03*
%TD*%
%TO.C,SW36*%
X220210769Y-57120038D03*
X232039892Y-51320833D03*
%TD*%
%TO.C,SW39*%
X235002288Y-112322692D03*
X246831411Y-106523487D03*
%TD*%
%TO.C,SW32*%
X207562142Y-83518230D03*
X219391265Y-77719025D03*
%TD*%
D18*
%TO.C,D34*%
X214716466Y-114719732D03*
X215570568Y-117907288D03*
%TD*%
D19*
%TO.C,J3*%
X177750001Y-108749998D03*
X177250001Y-108749998D03*
X176750001Y-108749998D03*
X176250001Y-108749998D03*
X175750001Y-108749998D03*
X175250001Y-108749998D03*
X174750001Y-108749998D03*
X174250001Y-108749998D03*
X173750001Y-108749998D03*
X173250001Y-108749998D03*
X172750001Y-108749998D03*
X172250001Y-108749998D03*
D20*
X179650001Y-111999998D03*
X170350001Y-111999998D03*
%TD*%
D21*
%TO.C,C53*%
X116556073Y-149609418D03*
X117387457Y-150089418D03*
%TD*%
D22*
%TO.C,U6*%
X183969304Y-115737641D03*
X184919304Y-115737641D03*
X185869304Y-115737641D03*
X185869304Y-118012641D03*
X183969304Y-118012641D03*
%TD*%
D23*
%TO.C,D16*%
X99184471Y-38485213D03*
X98330369Y-41672769D03*
%TD*%
D24*
%TO.C,J6*%
X63643711Y-28184203D03*
X64424748Y-28011051D03*
D25*
X65547488Y-27762146D03*
X66523784Y-27545706D03*
X67011932Y-27437486D03*
X67988228Y-27221047D03*
D24*
X69110969Y-26972141D03*
X69892005Y-26798989D03*
X69892005Y-26798989D03*
X69110969Y-26972141D03*
D25*
X68476376Y-27112827D03*
X67500080Y-27329266D03*
X66035636Y-27653926D03*
X65059340Y-27870365D03*
D24*
X64424748Y-28011051D03*
X63643711Y-28184203D03*
%TD*%
D26*
%TO.C,C90*%
X313901293Y-105389627D03*
X314828581Y-105141161D03*
%TD*%
D27*
%TO.C,C38*%
X48890603Y-127544050D03*
X49817891Y-127792516D03*
%TD*%
D28*
%TO.C,C60*%
X180279797Y-176369387D03*
X179319797Y-176369387D03*
%TD*%
D18*
%TO.C,D57*%
X297887059Y-57098937D03*
X298741161Y-60286493D03*
%TD*%
%TO.C,D58*%
X302817578Y-75499839D03*
X303671680Y-78687395D03*
%TD*%
D29*
%TO.C,C28*%
X169827608Y-105481169D03*
X168996224Y-105961169D03*
%TD*%
D30*
%TO.C,D103*%
X154885730Y-174066055D03*
X155248076Y-172713759D03*
X149573138Y-172642551D03*
%TD*%
D31*
%TO.C,D104*%
X177749785Y-176359402D03*
X177749785Y-174959402D03*
X172249785Y-176359402D03*
%TD*%
D18*
%TO.C,D60*%
X312678576Y-112301609D03*
X313532678Y-115489165D03*
%TD*%
D32*
%TO.C,C9*%
X173099823Y-37471162D03*
X173099823Y-39021162D03*
%TD*%
D33*
%TO.C,R27*%
X185839294Y-119505126D03*
X184819294Y-119505126D03*
%TD*%
D34*
%TO.C,D105*%
X200451624Y-172635915D03*
X200089278Y-171283619D03*
X195139032Y-174059419D03*
%TD*%
D35*
%TO.C,C44*%
X108601498Y-55616238D03*
X107674210Y-55367772D03*
%TD*%
%TO.C,C46*%
X98740476Y-92418007D03*
X97813188Y-92169541D03*
%TD*%
D26*
%TO.C,C85*%
X294884092Y-108020017D03*
X295811380Y-107771551D03*
%TD*%
D34*
%TO.C,D125*%
X288302407Y-126034831D03*
X287940061Y-124682535D03*
X282989815Y-127458335D03*
%TD*%
D18*
%TO.C,D63*%
X186152338Y-161869995D03*
X187006440Y-165057551D03*
%TD*%
D27*
%TO.C,C42*%
X64549276Y-105617180D03*
X65476564Y-105865646D03*
%TD*%
D30*
%TO.C,D75*%
X38220514Y-87695883D03*
X38582860Y-86343587D03*
X32907922Y-86272379D03*
%TD*%
D23*
%TO.C,D14*%
X64964875Y-92590891D03*
X64110773Y-95778447D03*
%TD*%
D36*
%TO.C,D102*%
X131012945Y-161893187D03*
X132002894Y-160903238D03*
X127123858Y-158004100D03*
%TD*%
D37*
%TO.C,D81*%
X47356941Y-105951360D03*
X46994595Y-107303656D03*
X52669533Y-107374864D03*
%TD*%
D23*
%TO.C,D4*%
X26314182Y-89630203D03*
X25460080Y-92817759D03*
%TD*%
D34*
%TO.C,D106*%
X214199499Y-70289609D03*
X213837153Y-68937313D03*
X208886907Y-71713113D03*
%TD*%
D38*
%TO.C,D67*%
X187131562Y-109487512D03*
X187831562Y-108275076D03*
X182368422Y-106737512D03*
%TD*%
D23*
%TO.C,D19*%
X84392953Y-93687866D03*
X83538851Y-96875422D03*
%TD*%
D37*
%TO.C,D101*%
X121371371Y-124139964D03*
X121009025Y-125492260D03*
X126683963Y-125563468D03*
%TD*%
D39*
%TO.C,D134*%
X316347670Y-104744480D03*
X316710016Y-106096776D03*
X321660262Y-103320976D03*
%TD*%
D40*
%TO.C,FB1*%
X181100000Y-25174998D03*
X181100000Y-22024998D03*
%TD*%
D32*
%TO.C,C4*%
X165900001Y-33225001D03*
X165900001Y-34775001D03*
%TD*%
D27*
%TO.C,C47*%
X83977343Y-106714152D03*
X84904631Y-106962618D03*
%TD*%
D26*
%TO.C,C70*%
X238448821Y-118211317D03*
X239376109Y-117962851D03*
%TD*%
D41*
%TO.C,C92*%
X177989120Y-35196792D03*
X178949120Y-35196792D03*
%TD*%
D35*
%TO.C,C39*%
X89173430Y-54519246D03*
X88246142Y-54270780D03*
%TD*%
D42*
%TO.C,C8*%
X178824829Y-36666799D03*
X178824829Y-37626799D03*
%TD*%
D43*
%TO.C,C21*%
X184114999Y-113875141D03*
X182564999Y-113875141D03*
%TD*%
D44*
%TO.C,C7*%
X173899825Y-53726790D03*
X173899825Y-52766790D03*
%TD*%
D30*
%TO.C,D78*%
X67098716Y-53524498D03*
X67461062Y-52172202D03*
X61786124Y-52100994D03*
%TD*%
%TO.C,D98*%
X141113116Y-71713108D03*
X141475462Y-70360812D03*
X135800524Y-70289604D03*
%TD*%
D41*
%TO.C,C19*%
X170520000Y-42100000D03*
X171480000Y-42100000D03*
%TD*%
D27*
%TO.C,C43*%
X68524122Y-127874332D03*
X69451410Y-128122798D03*
%TD*%
%TO.C,C30*%
X35759581Y-65854703D03*
X36686869Y-66103169D03*
%TD*%
D23*
%TO.C,D8*%
X50261870Y-73859721D03*
X49407768Y-77047277D03*
%TD*%
D45*
%TO.C,D65*%
X86150001Y-29999994D03*
X89450001Y-29999994D03*
%TD*%
D18*
%TO.C,D39*%
X232295609Y-106722417D03*
X233149711Y-109909973D03*
%TD*%
D30*
%TO.C,D90*%
X96299287Y-91753540D03*
X96661633Y-90401244D03*
X90986695Y-90330036D03*
%TD*%
D46*
%TO.C,C22*%
X182319295Y-117800138D03*
X182319295Y-116250138D03*
%TD*%
D30*
%TO.C,D100*%
X131252116Y-108514879D03*
X131614462Y-107162583D03*
X125939524Y-107091375D03*
%TD*%
D42*
%TO.C,C13*%
X176779825Y-36656791D03*
X176779825Y-37616791D03*
%TD*%
D27*
%TO.C,C50*%
X111212049Y-78676394D03*
X112139337Y-78924860D03*
%TD*%
D30*
%TO.C,D87*%
X67010201Y-127458321D03*
X67372547Y-126106025D03*
X61697609Y-126034817D03*
%TD*%
D47*
%TO.C,D68*%
X194500008Y-127749989D03*
X195900008Y-127749989D03*
X194500008Y-122249989D03*
%TD*%
D26*
%TO.C,C80*%
X275250587Y-108350290D03*
X276177875Y-108101824D03*
%TD*%
D18*
%TO.C,D37*%
X222434596Y-69920635D03*
X223288698Y-73108191D03*
%TD*%
%TO.C,D48*%
X264166866Y-78460506D03*
X265020968Y-81648062D03*
%TD*%
D37*
%TO.C,D84*%
X76851465Y-69479856D03*
X76489119Y-70832152D03*
X82164057Y-70903360D03*
%TD*%
D48*
%TO.C,C66*%
X223988598Y-156899649D03*
X224667420Y-156220827D03*
%TD*%
D37*
%TO.C,D91*%
X86418550Y-107378605D03*
X86056204Y-108730901D03*
X91731142Y-108802109D03*
%TD*%
D30*
%TO.C,D83*%
X86732219Y-53854778D03*
X87094565Y-52502482D03*
X81419627Y-52431274D03*
%TD*%
D44*
%TO.C,C95*%
X91900000Y-30280000D03*
X91900000Y-29320000D03*
%TD*%
D18*
%TO.C,D50*%
X274027852Y-115262278D03*
X274881954Y-118449834D03*
%TD*%
D23*
%TO.C,D61*%
X147909895Y-157599480D03*
X147055793Y-160787036D03*
%TD*%
D42*
%TO.C,C96*%
X257800000Y-24720000D03*
X257800000Y-25680000D03*
%TD*%
%TO.C,C20*%
X161700000Y-20720000D03*
X161700000Y-21680000D03*
%TD*%
D49*
%TO.C,C64*%
X226506870Y-106446215D03*
X225579582Y-106694681D03*
%TD*%
D50*
%TO.C,J2*%
X171799999Y-19749999D03*
X172599999Y-19749999D03*
D51*
X173249999Y-19749999D03*
X174249999Y-19749999D03*
X175749999Y-19749999D03*
X176749999Y-19749999D03*
D50*
X177399999Y-19749999D03*
X178199999Y-19749999D03*
X178199999Y-19749999D03*
X177399999Y-19749999D03*
D51*
X176249999Y-19749999D03*
X175249999Y-19749999D03*
X174749999Y-19749999D03*
X173749999Y-19749999D03*
D50*
X172599999Y-19749999D03*
X171799999Y-19749999D03*
%TD*%
D30*
%TO.C,D95*%
X113673002Y-100517585D03*
X114035348Y-99165289D03*
X108360410Y-99094081D03*
%TD*%
D52*
%TO.C,R4*%
X172399786Y-91869400D03*
X172399786Y-90849400D03*
%TD*%
D53*
%TO.C,R16*%
X162800000Y-20690000D03*
X162800000Y-21710000D03*
%TD*%
D44*
%TO.C,C24*%
X194490002Y-130279997D03*
X194490002Y-129319997D03*
%TD*%
D49*
%TO.C,C67*%
X234225011Y-61647150D03*
X233297723Y-61895616D03*
%TD*%
D54*
%TO.C,U9*%
X281468971Y-30823965D03*
X281957119Y-30932185D03*
X282445267Y-31040405D03*
X282933415Y-31148625D03*
X283421563Y-31256845D03*
X283588221Y-30505097D03*
X283100073Y-30396877D03*
X282611925Y-30288657D03*
X282123777Y-30180437D03*
X281635629Y-30072217D03*
%TD*%
D37*
%TO.C,D86*%
X66990460Y-106281645D03*
X66628114Y-107633941D03*
X72303052Y-107705149D03*
%TD*%
D27*
%TO.C,C48*%
X97959649Y-140692050D03*
X98886937Y-140940516D03*
%TD*%
%TO.C,C40*%
X74410288Y-68815406D03*
X75337576Y-69063872D03*
%TD*%
D39*
%TO.C,D129*%
X297330479Y-107374870D03*
X297692825Y-108727166D03*
X302643071Y-105951366D03*
%TD*%
D18*
%TO.C,D55*%
X293661392Y-114931998D03*
X294515494Y-118119554D03*
%TD*%
D23*
%TO.C,D6*%
X60122866Y-37057939D03*
X59268764Y-40245495D03*
%TD*%
D55*
%TO.C,U3*%
X176874815Y-46121793D03*
D56*
X176874815Y-44771793D03*
D57*
X175524815Y-46121793D03*
D58*
X175524815Y-44771793D03*
D59*
X179637315Y-42846793D03*
X179637315Y-43246793D03*
X179637315Y-43646793D03*
X179637315Y-44046793D03*
X179637315Y-44446793D03*
X179637315Y-44846793D03*
X179637315Y-45246793D03*
X179637315Y-45646793D03*
X179637315Y-46046793D03*
X179637315Y-46446793D03*
X179637315Y-46846793D03*
X179637315Y-47246793D03*
X179637315Y-47646793D03*
X179637315Y-48046793D03*
D60*
X178799815Y-48884293D03*
X178399815Y-48884293D03*
X177999815Y-48884293D03*
X177599815Y-48884293D03*
X177199815Y-48884293D03*
X176799815Y-48884293D03*
X176399815Y-48884293D03*
X175999815Y-48884293D03*
X175599815Y-48884293D03*
X175199815Y-48884293D03*
X174799815Y-48884293D03*
X174399815Y-48884293D03*
X173999815Y-48884293D03*
X173599815Y-48884293D03*
D59*
X172762315Y-48046793D03*
X172762315Y-47646793D03*
X172762315Y-47246793D03*
X172762315Y-46846793D03*
X172762315Y-46446793D03*
X172762315Y-46046793D03*
X172762315Y-45646793D03*
X172762315Y-45246793D03*
X172762315Y-44846793D03*
X172762315Y-44446793D03*
X172762315Y-44046793D03*
X172762315Y-43646793D03*
X172762315Y-43246793D03*
X172762315Y-42846793D03*
D60*
X173599815Y-42009293D03*
X173999815Y-42009293D03*
X174399815Y-42009293D03*
X174799815Y-42009293D03*
X175199815Y-42009293D03*
X175599815Y-42009293D03*
X175999815Y-42009293D03*
X176399815Y-42009293D03*
X176799815Y-42009293D03*
X177199815Y-42009293D03*
X177599815Y-42009293D03*
X177999815Y-42009293D03*
X178399815Y-42009293D03*
X178799815Y-42009293D03*
%TD*%
D23*
%TO.C,D28*%
X124276285Y-92048324D03*
X123422183Y-95235880D03*
%TD*%
D41*
%TO.C,C12*%
X170619828Y-38700000D03*
X171579828Y-38700000D03*
%TD*%
D23*
%TO.C,D21*%
X116558167Y-47249235D03*
X115704065Y-50436791D03*
%TD*%
D30*
%TO.C,D93*%
X123533996Y-63715769D03*
X123896342Y-62363473D03*
X118221404Y-62292265D03*
%TD*%
D49*
%TO.C,C62*%
X216645873Y-69644473D03*
X215718585Y-69892939D03*
%TD*%
D23*
%TO.C,D7*%
X55192382Y-55458821D03*
X54338280Y-58646377D03*
%TD*%
%TO.C,D10*%
X40400862Y-110661501D03*
X39546760Y-113849057D03*
%TD*%
D61*
%TO.C,FB3*%
X275621977Y-24857008D03*
X274940193Y-27932340D03*
%TD*%
D31*
%TO.C,SW66*%
X171849885Y-72146785D03*
X178149885Y-72146785D03*
X171849885Y-68346785D03*
X178149885Y-68346785D03*
%TD*%
D39*
%TO.C,D127*%
X287469472Y-70573072D03*
X287831818Y-71925368D03*
X292782064Y-69149568D03*
%TD*%
D49*
%TO.C,C81*%
X290748777Y-125389665D03*
X289821489Y-125638131D03*
%TD*%
%TO.C,C84*%
X300521298Y-88257632D03*
X299594010Y-88506098D03*
%TD*%
D41*
%TO.C,C11*%
X170619832Y-39750002D03*
X171579832Y-39750002D03*
%TD*%
D26*
%TO.C,C88*%
X304040282Y-68587844D03*
X304967570Y-68339378D03*
%TD*%
D34*
%TO.C,D130*%
X307935922Y-125704564D03*
X307573576Y-124352268D03*
X302623330Y-127128068D03*
%TD*%
D23*
%TO.C,D18*%
X89323465Y-75286980D03*
X88469363Y-78474536D03*
%TD*%
D39*
%TO.C,D124*%
X277696968Y-107705148D03*
X278059314Y-109057444D03*
X283009560Y-106281644D03*
%TD*%
D62*
%TO.C,R14*%
X166690002Y-127300000D03*
X167710002Y-127300000D03*
%TD*%
D39*
%TO.C,D107*%
X213455051Y-88761702D03*
X213817397Y-90113998D03*
X218767643Y-87338198D03*
%TD*%
D23*
%TO.C,D2*%
X36175177Y-52828426D03*
X35321075Y-56015982D03*
%TD*%
D18*
%TO.C,D47*%
X259236378Y-60059631D03*
X260090480Y-63247187D03*
%TD*%
%TO.C,D56*%
X292956560Y-38698056D03*
X293810662Y-41885612D03*
%TD*%
D63*
%TO.C,FB4*%
X168500000Y-23025000D03*
X168500000Y-26175000D03*
%TD*%
D64*
%TO.C,U2*%
X187744123Y-35666934D03*
X187744123Y-36936934D03*
X187744123Y-38206934D03*
X187744123Y-39476934D03*
X180544123Y-39476934D03*
X180544123Y-38206934D03*
X180544123Y-36936934D03*
X180544123Y-35666934D03*
%TD*%
D30*
%TO.C,D85*%
X76871218Y-90656546D03*
X77233564Y-89304250D03*
X71558626Y-89233042D03*
%TD*%
%TO.C,D92*%
X96445741Y-140276038D03*
X96808087Y-138923742D03*
X91133149Y-138852534D03*
%TD*%
D49*
%TO.C,C79*%
X280887782Y-88587901D03*
X279960494Y-88836367D03*
%TD*%
D30*
%TO.C,D73*%
X48081511Y-50894097D03*
X48443857Y-49541801D03*
X42768919Y-49470593D03*
%TD*%
D65*
%TO.C,U7*%
X185199997Y-103104998D03*
X184549997Y-103104998D03*
X183899997Y-103104998D03*
X183899997Y-101204998D03*
X184549997Y-101204998D03*
X185199997Y-101204998D03*
%TD*%
D34*
%TO.C,D108*%
X224060478Y-107091378D03*
X223698132Y-105739082D03*
X218747886Y-108514882D03*
%TD*%
D63*
%TO.C,FB6*%
X264599999Y-27025001D03*
X264599999Y-30175001D03*
%TD*%
D18*
%TO.C,D33*%
X209785967Y-96318846D03*
X210640069Y-99506402D03*
%TD*%
D66*
%TO.C,F3*%
X267100000Y-30000000D03*
X267100000Y-27200000D03*
%TD*%
D62*
%TO.C,R28*%
X184289999Y-120559997D03*
X185309999Y-120559997D03*
%TD*%
D49*
%TO.C,C89*%
X319538486Y-85627223D03*
X318611198Y-85875689D03*
%TD*%
D39*
%TO.C,D112*%
X231034192Y-80764390D03*
X231396538Y-82116686D03*
X236346784Y-79340886D03*
%TD*%
D34*
%TO.C,D131*%
X307231096Y-49470598D03*
X306868750Y-48118302D03*
X301918504Y-50894102D03*
%TD*%
D23*
%TO.C,D17*%
X94253967Y-56886103D03*
X93399865Y-60073659D03*
%TD*%
D42*
%TO.C,C14*%
X177799820Y-36666789D03*
X177799820Y-37626789D03*
%TD*%
D52*
%TO.C,R10*%
X181766010Y-128736309D03*
X181766010Y-127716309D03*
%TD*%
D18*
%TO.C,D41*%
X234877774Y-42755708D03*
X235731876Y-45943264D03*
%TD*%
D37*
%TO.C,D76*%
X28339777Y-103320985D03*
X27977431Y-104673281D03*
X33652369Y-104744489D03*
%TD*%
D49*
%TO.C,C91*%
X329399497Y-122429001D03*
X328472209Y-122677467D03*
%TD*%
D52*
%TO.C,R12*%
X177100000Y-25310000D03*
X177100000Y-24290000D03*
%TD*%
%TO.C,R15*%
X168999883Y-63356782D03*
X168999883Y-62336782D03*
%TD*%
D35*
%TO.C,C34*%
X69539914Y-54188960D03*
X68612626Y-53940494D03*
%TD*%
D18*
%TO.C,D54*%
X288730880Y-96531107D03*
X289584982Y-99718663D03*
%TD*%
D28*
%TO.C,C2*%
X174379787Y-91959404D03*
X173419787Y-91959404D03*
%TD*%
D37*
%TO.C,D89*%
X96279551Y-70576838D03*
X95917205Y-71929134D03*
X101592143Y-72000342D03*
%TD*%
D23*
%TO.C,D1*%
X41105681Y-34427550D03*
X40251579Y-37615106D03*
%TD*%
D52*
%TO.C,R9*%
X176799819Y-54956789D03*
X176799819Y-53936789D03*
%TD*%
D39*
%TO.C,D117*%
X248407879Y-72000347D03*
X248770225Y-73352643D03*
X253720471Y-70576843D03*
%TD*%
D37*
%TO.C,D96*%
X103792255Y-116142642D03*
X103429909Y-117494938D03*
X109104847Y-117566146D03*
%TD*%
D53*
%TO.C,R1*%
X177599783Y-90849405D03*
X177599783Y-91869405D03*
%TD*%
D30*
%TO.C,D77*%
X28359504Y-124497659D03*
X28721850Y-123145363D03*
X23046912Y-123074155D03*
%TD*%
D53*
%TO.C,R8*%
X174424823Y-38186791D03*
X174424823Y-39206791D03*
%TD*%
D67*
%TO.C,U8*%
X66411663Y-30505124D03*
X66899811Y-30396904D03*
X67387959Y-30288684D03*
X67876107Y-30180464D03*
X68364255Y-30072244D03*
X68530913Y-30823992D03*
X68042765Y-30932212D03*
X67554617Y-31040432D03*
X67066469Y-31148652D03*
X66578321Y-31256872D03*
%TD*%
D18*
%TO.C,D53*%
X283800375Y-78130225D03*
X284654477Y-81317781D03*
%TD*%
D68*
%TO.C,C58*%
X132794863Y-163689255D03*
X132116041Y-163010433D03*
%TD*%
D34*
%TO.C,D113*%
X241639631Y-99094062D03*
X241277285Y-97741766D03*
X236327039Y-100517566D03*
%TD*%
D47*
%TO.C,D71*%
X155499994Y-122250003D03*
X154099994Y-122250003D03*
X155499994Y-127750003D03*
%TD*%
D28*
%TO.C,C6*%
X179579819Y-57146784D03*
X178619819Y-57146784D03*
%TD*%
D69*
%TO.C,U1*%
X164037500Y-33050000D03*
X164037500Y-34950000D03*
X162162500Y-34000000D03*
%TD*%
D27*
%TO.C,C45*%
X93838356Y-69912390D03*
X94765644Y-70160856D03*
%TD*%
D18*
%TO.C,D32*%
X204855460Y-77917958D03*
X205709562Y-81105514D03*
%TD*%
D70*
%TO.C,D66*%
X263549999Y-25000000D03*
X260249999Y-25000000D03*
%TD*%
D23*
%TO.C,D23*%
X106697170Y-84051007D03*
X105843068Y-87238563D03*
%TD*%
D35*
%TO.C,C54*%
X143554312Y-72377572D03*
X142627024Y-72129106D03*
%TD*%
D30*
%TO.C,D82*%
X47376694Y-127128043D03*
X47739040Y-125775747D03*
X42064102Y-125704539D03*
%TD*%
D27*
%TO.C,C33*%
X29873424Y-124913651D03*
X30800712Y-125162117D03*
%TD*%
D39*
%TO.C,D132*%
X306486667Y-67942703D03*
X306849013Y-69294999D03*
X311799259Y-66519199D03*
%TD*%
D33*
%TO.C,R2*%
X176609788Y-90759407D03*
X175589788Y-90759407D03*
%TD*%
%TO.C,R6*%
X184959828Y-41696792D03*
X183939828Y-41696792D03*
%TD*%
D71*
%TO.C,D69*%
X182368439Y-143262491D03*
X183068439Y-144474927D03*
X187131579Y-140512491D03*
%TD*%
D49*
%TO.C,C86*%
X310382290Y-125059399D03*
X309455002Y-125307865D03*
%TD*%
D72*
%TO.C,F2*%
X82599998Y-24999996D03*
X82599998Y-27799996D03*
%TD*%
D18*
%TO.C,D36*%
X217504092Y-51519750D03*
X218358194Y-54707306D03*
%TD*%
D42*
%TO.C,C15*%
X180924831Y-41666795D03*
X180924831Y-42626795D03*
%TD*%
D26*
%TO.C,C63*%
X211008676Y-89406850D03*
X211935964Y-89158384D03*
%TD*%
D35*
%TO.C,C56*%
X133693329Y-109179336D03*
X132766041Y-108930870D03*
%TD*%
D49*
%TO.C,C72*%
X251598692Y-52883108D03*
X250671404Y-53131574D03*
%TD*%
D73*
%TO.C,C23*%
X189317616Y-110761176D03*
X188486232Y-110281176D03*
%TD*%
D39*
%TO.C,D122*%
X267835951Y-70903380D03*
X268198297Y-72255676D03*
X273148543Y-69479876D03*
%TD*%
D35*
%TO.C,C31*%
X40661715Y-88360343D03*
X39734427Y-88111877D03*
%TD*%
D18*
%TO.C,D59*%
X307748061Y-93900716D03*
X308602163Y-97088272D03*
%TD*%
D35*
%TO.C,C29*%
X50522719Y-51558573D03*
X49595431Y-51310107D03*
%TD*%
D37*
%TO.C,D99*%
X131232390Y-87338178D03*
X130870044Y-88690474D03*
X136544982Y-88761682D03*
%TD*%
D30*
%TO.C,D80*%
X57237728Y-90326266D03*
X57600074Y-88973970D03*
X51925136Y-88902762D03*
%TD*%
D49*
%TO.C,C61*%
X202897993Y-171990751D03*
X201970705Y-172239217D03*
%TD*%
D23*
%TO.C,D9*%
X45331363Y-92260608D03*
X44477261Y-95448164D03*
%TD*%
D26*
%TO.C,C83*%
X285023100Y-71218243D03*
X285950388Y-70969777D03*
%TD*%
D39*
%TO.C,D109*%
X223316050Y-125563473D03*
X223678396Y-126915769D03*
X228628642Y-124139969D03*
%TD*%
D74*
%TO.C,C71*%
X240911127Y-145282286D03*
X241742511Y-144802286D03*
%TD*%
D70*
%TO.C,D64*%
X167450000Y-21000000D03*
X164150000Y-21000000D03*
%TD*%
D18*
%TO.C,D42*%
X239808297Y-61156597D03*
X240662399Y-64344153D03*
%TD*%
D23*
%TO.C,D22*%
X111627661Y-65650105D03*
X110773559Y-68837661D03*
%TD*%
D32*
%TO.C,C10*%
X168916516Y-39125000D03*
X168916516Y-40675000D03*
%TD*%
D49*
%TO.C,C82*%
X290660301Y-51455831D03*
X289733013Y-51704297D03*
%TD*%
D27*
%TO.C,C32*%
X25898581Y-102656514D03*
X26825869Y-102904980D03*
%TD*%
%TO.C,C55*%
X128791182Y-86673724D03*
X129718470Y-86922190D03*
%TD*%
D23*
%TO.C,D3*%
X31244670Y-71229332D03*
X30390568Y-74416888D03*
%TD*%
D43*
%TO.C,C3*%
X163775000Y-31400000D03*
X162225000Y-31400000D03*
%TD*%
D34*
%TO.C,D133*%
X317092099Y-86272368D03*
X316729753Y-84920072D03*
X311779507Y-87695872D03*
%TD*%
D35*
%TO.C,C36*%
X59678925Y-90990728D03*
X58751637Y-90742262D03*
%TD*%
D23*
%TO.C,D11*%
X79756390Y-37388234D03*
X78902288Y-40575790D03*
%TD*%
D26*
%TO.C,C78*%
X265389579Y-71548521D03*
X266316867Y-71300055D03*
%TD*%
D75*
%TO.C,Q4*%
X92549996Y-27737500D03*
X90649996Y-27737500D03*
X91599996Y-25862500D03*
%TD*%
D34*
%TO.C,D126*%
X288213921Y-52100996D03*
X287851575Y-50748700D03*
X282901329Y-53524500D03*
%TD*%
D18*
%TO.C,D49*%
X269097367Y-96861397D03*
X269951469Y-100048953D03*
%TD*%
D44*
%TO.C,C5*%
X181399825Y-54926791D03*
X181399825Y-53966791D03*
%TD*%
D18*
%TO.C,D46*%
X254305863Y-41658739D03*
X255159965Y-44846295D03*
%TD*%
D34*
%TO.C,D111*%
X231778613Y-62292288D03*
X231416267Y-60939992D03*
X226466021Y-63715792D03*
%TD*%
D46*
%TO.C,C93*%
X181999999Y-123175001D03*
X181999999Y-121625001D03*
%TD*%
D76*
%TO.C,D35*%
X205124183Y-155810380D03*
X207457635Y-158143832D03*
%TD*%
D52*
%TO.C,R13*%
X172899999Y-25310000D03*
X172899999Y-24290000D03*
%TD*%
D23*
%TO.C,D27*%
X129206780Y-73647446D03*
X128352678Y-76835002D03*
%TD*%
D77*
%TO.C,D70*%
X162868429Y-140512490D03*
X162168429Y-141724926D03*
X167631569Y-143262490D03*
%TD*%
D78*
%TO.C,U5*%
X173999881Y-22615000D03*
X174499881Y-22615000D03*
X174999881Y-22615000D03*
X175499881Y-22615000D03*
X175999881Y-22615000D03*
X175999881Y-23385000D03*
X175499881Y-23385000D03*
X174999881Y-23385000D03*
X174499881Y-23385000D03*
X173999881Y-23385000D03*
%TD*%
D26*
%TO.C,C76*%
X260383402Y-138446201D03*
X261310690Y-138197735D03*
%TD*%
%TO.C,C65*%
X220869672Y-126208618D03*
X221796960Y-125960152D03*
%TD*%
D33*
%TO.C,R5*%
X182959824Y-41706794D03*
X181939824Y-41706794D03*
%TD*%
D39*
%TO.C,D114*%
X240895180Y-117566164D03*
X241257526Y-118918460D03*
X246207772Y-116142660D03*
%TD*%
D34*
%TO.C,D123*%
X278441409Y-89233051D03*
X278079063Y-87880755D03*
X273128817Y-90656555D03*
%TD*%
D35*
%TO.C,C49*%
X125975211Y-64380236D03*
X125047923Y-64131770D03*
%TD*%
D34*
%TO.C,D135*%
X326953113Y-123074150D03*
X326590767Y-121721854D03*
X321640521Y-124497654D03*
%TD*%
D79*
%TO.C,Q2*%
X161050002Y-23262501D03*
X162950002Y-23262501D03*
X162000002Y-25137501D03*
%TD*%
D40*
%TO.C,FB5*%
X85099994Y-27974993D03*
X85099994Y-24824993D03*
%TD*%
D80*
%TO.C,D62*%
X166750010Y-162259992D03*
X166750010Y-165559992D03*
%TD*%
D34*
%TO.C,D128*%
X298074918Y-88902776D03*
X297712572Y-87550480D03*
X292762326Y-90326280D03*
%TD*%
D44*
%TO.C,C17*%
X174899826Y-53416127D03*
X174899826Y-52456127D03*
%TD*%
D38*
%TO.C,D97*%
X115201417Y-148815748D03*
X115901417Y-147603312D03*
X110438277Y-146065748D03*
%TD*%
D35*
%TO.C,C51*%
X116114198Y-101182044D03*
X115186910Y-100933578D03*
%TD*%
D79*
%TO.C,Q3*%
X87150000Y-25862494D03*
X89050000Y-25862494D03*
X88100000Y-27737494D03*
%TD*%
D27*
%TO.C,C52*%
X101351045Y-115478171D03*
X102278333Y-115726637D03*
%TD*%
D75*
%TO.C,Q5*%
X262550000Y-29137500D03*
X260650000Y-29137500D03*
X261600000Y-27262500D03*
%TD*%
D18*
%TO.C,D31*%
X199924965Y-59517056D03*
X200779067Y-62704612D03*
%TD*%
D27*
%TO.C,C37*%
X44915763Y-105286893D03*
X45843051Y-105535359D03*
%TD*%
D49*
%TO.C,C69*%
X244086011Y-98448915D03*
X243158723Y-98697381D03*
%TD*%
D28*
%TO.C,C16*%
X184379885Y-46446787D03*
X183419885Y-46446787D03*
%TD*%
D18*
%TO.C,D43*%
X244738782Y-79557487D03*
X245592884Y-82745043D03*
%TD*%
%TO.C,D52*%
X278869879Y-59729337D03*
X279723981Y-62916893D03*
%TD*%
D35*
%TO.C,C41*%
X79312413Y-91321010D03*
X78385125Y-91072544D03*
%TD*%
D79*
%TO.C,Q6*%
X257149999Y-27262501D03*
X259049999Y-27262501D03*
X258099999Y-29137501D03*
%TD*%
D26*
%TO.C,C75*%
X255825087Y-109456923D03*
X256752375Y-109208457D03*
%TD*%
D66*
%TO.C,F1*%
X171000000Y-26000000D03*
X171000000Y-23200000D03*
%TD*%
D81*
%TO.C,D72*%
X167631581Y-106737513D03*
X166931581Y-105525077D03*
X162868441Y-109487513D03*
%TD*%
D23*
%TO.C,D29*%
X119345788Y-110449219D03*
X118491686Y-113636775D03*
%TD*%
D82*
%TO.C,D40*%
X222970200Y-139347670D03*
X224620200Y-142205554D03*
%TD*%
D42*
%TO.C,C94*%
X183299997Y-122319998D03*
X183299997Y-123279998D03*
%TD*%
D83*
%TO.C,Y1*%
X179949825Y-53346787D03*
X179949825Y-55546787D03*
X178249825Y-55546787D03*
X178249825Y-53346787D03*
%TD*%
D49*
%TO.C,C74*%
X261459696Y-89684865D03*
X260532408Y-89933331D03*
%TD*%
D41*
%TO.C,C18*%
X169119887Y-46446787D03*
X170079887Y-46446787D03*
%TD*%
D21*
%TO.C,C26*%
X160682382Y-139238831D03*
X161513766Y-139718831D03*
%TD*%
D52*
%TO.C,R17*%
X90799997Y-30309999D03*
X90799997Y-29289999D03*
%TD*%
%TO.C,R11*%
X168199998Y-122010004D03*
X168199998Y-120990004D03*
%TD*%
D84*
%TO.C,D25*%
X112740411Y-131097688D03*
X111090411Y-133955572D03*
%TD*%
D23*
%TO.C,D24*%
X101766666Y-102451889D03*
X100912564Y-105639445D03*
%TD*%
D27*
%TO.C,C35*%
X54776748Y-68485100D03*
X55704036Y-68733566D03*
%TD*%
D33*
%TO.C,R3*%
X174409785Y-90759402D03*
X173389785Y-90759402D03*
%TD*%
D85*
%TO.C,SW65*%
X179304885Y-75846788D03*
X170694885Y-75846788D03*
%TD*%
D26*
%TO.C,C73*%
X245961500Y-72645493D03*
X246888788Y-72397027D03*
%TD*%
D37*
%TO.C,D94*%
X113653239Y-79340855D03*
X113290893Y-80693151D03*
X118965831Y-80764359D03*
%TD*%
D23*
%TO.C,D26*%
X134137288Y-55246554D03*
X133283186Y-58434110D03*
%TD*%
D39*
%TO.C,D119*%
X258268882Y-108802116D03*
X258631228Y-110154412D03*
X263581474Y-107378612D03*
%TD*%
D18*
%TO.C,D38*%
X227365094Y-88321513D03*
X228219196Y-91509069D03*
%TD*%
D26*
%TO.C,C68*%
X228587813Y-81409547D03*
X229515101Y-81161081D03*
%TD*%
D34*
%TO.C,D120*%
X258866891Y-138852542D03*
X258504545Y-137500246D03*
X253554299Y-140276046D03*
%TD*%
D41*
%TO.C,C1*%
X175619789Y-91959404D03*
X176579789Y-91959404D03*
%TD*%
D81*
%TO.C,D115*%
X239546463Y-146058636D03*
X238846463Y-144846200D03*
X234783323Y-148808636D03*
%TD*%
D34*
%TO.C,D116*%
X249152300Y-53528259D03*
X248789954Y-52175963D03*
X243839708Y-54951763D03*
%TD*%
D86*
%TO.C,D110*%
X222871369Y-158002756D03*
X221881420Y-157012807D03*
X218982282Y-161891843D03*
%TD*%
D49*
%TO.C,C87*%
X309677455Y-48825459D03*
X308750167Y-49073925D03*
%TD*%
D23*
%TO.C,D5*%
X21383676Y-108031092D03*
X20529574Y-111218648D03*
%TD*%
D87*
%TO.C,J7*%
X280107991Y-26798989D03*
X280889027Y-26972141D03*
D88*
X282011768Y-27221047D03*
X282988064Y-27437486D03*
X283476212Y-27545706D03*
X284452508Y-27762146D03*
D87*
X285575248Y-28011051D03*
X286356285Y-28184203D03*
X286356285Y-28184203D03*
X285575248Y-28011051D03*
D88*
X284940656Y-27870365D03*
X283964360Y-27653926D03*
X282499916Y-27329266D03*
X281523620Y-27112827D03*
D87*
X280889027Y-26972141D03*
X280107991Y-26798989D03*
%TD*%
D27*
%TO.C,C57*%
X118930172Y-123475510D03*
X119857460Y-123723976D03*
%TD*%
D37*
%TO.C,D74*%
X38200769Y-66519194D03*
X37838423Y-67871490D03*
X43513361Y-67942698D03*
%TD*%
D35*
%TO.C,C59*%
X157326942Y-174730524D03*
X156399654Y-174482058D03*
%TD*%
D89*
%TO.C,D30*%
X133208583Y-144143136D03*
X130875131Y-146476588D03*
%TD*%
D49*
%TO.C,C77*%
X271026764Y-51786142D03*
X270099476Y-52034608D03*
%TD*%
D53*
%TO.C,R7*%
X175574822Y-38186804D03*
X175574822Y-39206804D03*
%TD*%
%TO.C,R18*%
X258900000Y-24690000D03*
X258900000Y-25710000D03*
%TD*%
D18*
%TO.C,D51*%
X273939375Y-41328438D03*
X274793477Y-44515994D03*
%TD*%
D37*
%TO.C,D79*%
X57217967Y-69149575D03*
X56855621Y-70501871D03*
X62530559Y-70573079D03*
%TD*%
D23*
%TO.C,D12*%
X74825874Y-55789127D03*
X73971772Y-58976683D03*
%TD*%
D74*
%TO.C,C25*%
X180172385Y-144518832D03*
X181003769Y-144038832D03*
%TD*%
D18*
%TO.C,D45*%
X244592354Y-128080008D03*
X245446456Y-131267564D03*
%TD*%
%TO.C,D44*%
X249669290Y-97958352D03*
X250523392Y-101145908D03*
%TD*%
D23*
%TO.C,D15*%
X60034392Y-110991765D03*
X59180290Y-114179321D03*
%TD*%
D75*
%TO.C,Q1*%
X166449999Y-25137500D03*
X164549999Y-25137500D03*
X165499999Y-23262500D03*
%TD*%
D23*
%TO.C,D13*%
X69895374Y-74189995D03*
X69041272Y-77377551D03*
%TD*%
D34*
%TO.C,D121*%
X268580391Y-52431285D03*
X268218045Y-51078989D03*
X263267799Y-53854789D03*
%TD*%
D23*
%TO.C,D20*%
X89469900Y-123809504D03*
X88615798Y-126997060D03*
%TD*%
D42*
%TO.C,C27*%
X155510001Y-119720005D03*
X155510001Y-120680005D03*
%TD*%
D90*
%TO.C,FB2*%
X75059806Y-27932337D03*
X74378022Y-24857005D03*
%TD*%
D30*
%TO.C,D88*%
X106160307Y-54951748D03*
X106522653Y-53599452D03*
X100847715Y-53528244D03*
%TD*%
D34*
%TO.C,D118*%
X259013326Y-90330043D03*
X258650980Y-88977747D03*
X253700734Y-91753547D03*
%TD*%
M02*
