M48
; DRILL file {KiCad (7.0.0)} date Mon Apr 10 23:44:35 2023
; FORMAT={-:-/ absolute / inch / decimal}
; #@! TF.CreationDate,2023-04-10T23:44:35+01:00
; #@! TF.GenerationSoftware,Kicad,Pcbnew,(7.0.0)
; #@! TF.FileFunction,Plated,1,2,PTH
FMAT,2
INCH
; #@! TA.AperFunction,Plated,PTH,ViaDrill
T1C0.0098
; #@! TA.AperFunction,Plated,PTH,ViaDrill
T2C0.0118
; #@! TA.AperFunction,Plated,PTH,ComponentDrill
T3C0.0118
; #@! TA.AperFunction,Plated,PTH,ComponentDrill
T4C0.0236
; #@! TA.AperFunction,Plated,PTH,ComponentDrill
T5C0.0276
; #@! TA.AperFunction,Plated,PTH,ComponentDrill
T6C0.0295
; #@! TA.AperFunction,Plated,PTH,ComponentDrill
T7C0.0394
; #@! TA.AperFunction,Plated,PTH,ComponentDrill
T8C0.0413
; #@! TA.AperFunction,Plated,PTH,ComponentDrill
T9C0.0591
; #@! TA.AperFunction,Plated,PTH,ComponentDrill
T10C0.0787
; #@! TA.AperFunction,Plated,PTH,ComponentDrill
T11C0.1260
%
G90
G05
T1
X2.6462Y-5.9279
X2.8403Y-5.2035
X3.0344Y-4.479
X3.2286Y-3.7546
X3.3949Y-6.0315
X3.4227Y-3.0302
X3.589Y-5.307
X3.6575Y-2.7953
X3.7832Y-4.5826
X3.9773Y-3.8582
X4.1679Y-6.0445
X4.1714Y-3.1337
X4.1714Y-2.8564
X4.362Y-5.32
X4.5561Y-4.5956
X4.7502Y-3.8712
X4.9444Y-3.1467
X4.9444Y-2.8785
X5.1269Y-5.3632
X5.321Y-4.6388
X5.3268Y-6.5491
X5.5151Y-3.9143
X5.7092Y-3.1899
X5.7092Y-2.9173
X5.8109Y-5.7083
X6.005Y-4.9838
X6.1469Y-6.972
X6.1991Y-4.2594
X6.3932Y-3.5349
X6.3932Y-3.3543
X6.503Y-6.0231
X6.641Y-5.9664
X6.6543Y-5.917
X6.697Y-5.2986
X6.8248Y-7.592
X6.8912Y-4.5742
X7.0302Y-4.5142
X7.0424Y-4.4686
X7.043Y-4.3703
X7.0853Y-3.6693
X7.0853Y-3.8498
X7.1688Y-4.4041
X7.2835Y-7.4764
X7.2835Y-7.5216
X7.4173Y-2.9803
X7.8524Y-3.7795
X7.874Y-3.7126
X7.8957Y-3.689
X8.0937Y-4.074
X8.0945Y-3.937
X8.1299Y-3.9724
X8.1988Y-5.1673
X8.1998Y-4.1171
X8.2165Y-2.9488
X8.2264Y-5.8919
X8.2362Y-3.7441
X8.2362Y-3.6181
X8.2362Y-3.8976
X8.248Y-2.7165
X8.2888Y-5.8937
X8.2972Y-5.7384
X8.3071Y-2.7165
X8.3228Y-2.9488
X8.3346Y-5.5394
X8.3425Y-5.6142
X8.3544Y-5.7008
X8.3544Y-5.7323
X8.3583Y-3.5671
X8.396Y-3.0256
X8.4094Y-5.7008
X8.4508Y-5.4193
X8.4724Y-2.9173
X8.4724Y-2.9488
X8.4764Y-3.0354
X8.6142Y-5.6776
X8.8484Y-2.6752
X8.876Y-2.935
X8.876Y-3.0177
X8.8783Y-3.4177
X9.189Y-7.3847
X9.2126Y-7.4044
X9.2126Y-7.5151
X9.227Y-7.6638
X9.3858Y-4.4997
X9.4704Y-4.4997
X9.4878Y-4.4707
X9.501Y-4.5202
X9.5787Y-5.2148
X9.6417Y-5.2148
X9.7756Y-5.9482
X9.8601Y-5.9482
X9.876Y-5.9196
X9.8883Y-5.9653
X10.0238Y-3.6961
X10.1306Y-7.172
X10.1535Y-3.2697
X10.2179Y-4.4205
X10.412Y-5.145
X10.6061Y-5.8694
X10.7159Y-3.3812
X10.8504Y-2.9173
X10.9029Y-6.675
X10.91Y-4.1057
X11.1041Y-4.8301
X11.2982Y-5.5546
X11.3999Y-3.0362
X11.594Y-3.7606
X11.6024Y-2.8898
X11.7824Y-6.3954
X11.7881Y-4.4851
X11.9822Y-5.2095
X12.1648Y-2.993
X12.3589Y-3.7174
X12.3976Y-2.8701
X12.553Y-4.4419
X12.7471Y-5.1663
X12.8937Y-2.7953
X12.9378Y-2.98
X12.9412Y-5.8908
X13.1319Y-3.7044
X13.326Y-4.4289
X13.5201Y-5.1533
X13.6865Y-2.8764
X13.7142Y-5.8778
X13.8806Y-3.6009
X14.0747Y-4.3253
X14.2688Y-5.0498
X14.4629Y-5.7742
T2
X2.0893Y-6.1638
X2.0958Y-6.1394
X2.1136Y-6.1703
X2.1202Y-6.146
X2.2333Y-5.4277
X2.2407Y-5.4002
X2.4718Y-6.325
X2.4775Y-4.7149
X2.4792Y-6.2974
X2.4841Y-4.6905
X2.5019Y-4.7214
X2.5084Y-4.6971
X2.5924Y-5.5792
X2.5989Y-5.5548
X2.6167Y-5.5857
X2.6216Y-3.9789
X2.6233Y-5.5614
X2.629Y-3.9513
X2.838Y-6.2673
X2.8445Y-6.243
X2.8601Y-4.8761
X2.8624Y-6.2739
X2.8658Y-3.266
X2.8675Y-4.8485
X2.8689Y-6.2495
X2.8723Y-3.2417
X2.8901Y-3.2725
X2.8966Y-3.2482
X2.9806Y-4.1303
X2.982Y-5.5313
X2.9872Y-4.106
X2.9894Y-5.5037
X3.005Y-4.1368
X3.0115Y-4.1125
X3.2206Y-6.4285
X3.2262Y-4.8184
X3.2279Y-6.401
X3.2328Y-4.7941
X3.2483Y-3.4272
X3.2506Y-4.825
X3.2557Y-3.3996
X3.2571Y-4.8006
X3.3411Y-5.6827
X3.3476Y-5.6584
X3.3654Y-5.6893
X3.3703Y-4.0824
X3.372Y-5.6649
X3.3777Y-4.0548
X3.6088Y-4.9796
X3.611Y-6.2803
X3.6145Y-3.3696
X3.6162Y-4.9521
X3.6175Y-6.256
X3.621Y-3.3452
X3.622Y-2.7618
X3.6353Y-6.2869
X3.6388Y-3.3761
X3.6418Y-6.2625
X3.6453Y-3.3517
X3.6673Y-2.8327
X3.7293Y-4.2339
X3.7359Y-4.2095
X3.7537Y-4.2404
X3.755Y-5.5443
X3.7602Y-4.216
X3.7624Y-5.5167
X3.9935Y-6.4415
X3.997Y-3.5307
X3.9992Y-4.8314
X4.0009Y-6.414
X4.0044Y-3.5032
X4.0057Y-4.8071
X4.0236Y-4.838
X4.0301Y-4.8136
X4.1141Y-5.6957
X4.1206Y-5.6714
X4.1358Y-2.9705
X4.1378Y-3.0354
X4.1384Y-5.7023
X4.1432Y-4.0954
X4.1437Y-2.8268
X4.1449Y-5.6779
X4.1506Y-4.0678
X4.1929Y-2.7598
X4.2323Y-2.8504
X4.3818Y-4.9926
X4.3874Y-3.3826
X4.3891Y-4.9651
X4.394Y-3.3582
X4.4118Y-3.3891
X4.4183Y-3.3647
X4.5023Y-4.2469
X4.5088Y-4.2225
X4.5199Y-5.5875
X4.5266Y-4.2534
X4.5273Y-5.5599
X4.5332Y-4.229
X4.7641Y-4.8746
X4.7699Y-6.785
X4.77Y-3.5438
X4.7706Y-4.8503
X4.7764Y-6.7606
X4.7774Y-3.5162
X4.7884Y-4.8812
X4.7942Y-6.7915
X4.795Y-4.8568
X4.8007Y-6.7672
X4.879Y-5.7389
X4.8855Y-5.7146
X4.9033Y-5.7455
X4.9075Y-2.8445
X4.9081Y-4.1386
X4.9094Y-3.0492
X4.9098Y-5.7211
X4.9154Y-2.9882
X4.9155Y-4.111
X4.9665Y-2.752
X5.0157Y-2.8583
X5.1466Y-5.0358
X5.1523Y-3.4257
X5.1524Y-6.9462
X5.154Y-5.0083
X5.1589Y-3.4014
X5.1598Y-6.9186
X5.1767Y-3.4323
X5.1832Y-3.4079
X5.2039Y-5.9325
X5.2113Y-5.905
X5.2539Y-7.2362
X5.2672Y-4.29
X5.2737Y-4.2657
X5.2915Y-4.2966
X5.2981Y-4.2722
X5.4481Y-5.2197
X5.4546Y-5.1953
X5.4724Y-5.2262
X5.479Y-5.2019
X5.5349Y-3.5869
X5.5423Y-3.5594
X5.5473Y-7.0559
X5.5599Y-7.0341
X5.563Y-6.084
X5.5691Y-7.0685
X5.5695Y-6.0596
X5.5817Y-7.0467
X5.5873Y-6.0905
X5.5921Y-4.4836
X5.5938Y-6.0662
X5.5995Y-4.4561
X5.705Y-2.8579
X5.7382Y-3.1634
X5.7402Y-3.0472
X5.7953Y-2.874
X5.7953Y-2.7657
X5.8306Y-5.3809
X5.8363Y-3.7708
X5.838Y-5.3533
X5.8429Y-3.7464
X5.8607Y-3.7773
X5.8672Y-3.753
X5.8751Y-7.3106
X5.8894Y-7.2859
X5.896Y-6.2474
X5.9034Y-6.2198
X5.9512Y-4.6351
X5.9577Y-4.6107
X5.9755Y-4.6416
X5.9821Y-4.6173
X6.1402Y-5.5345
X6.1467Y-5.5102
X6.1645Y-5.5411
X6.1711Y-5.5167
X6.2189Y-3.932
X6.2244Y-7.5179
X6.2263Y-3.9044
X6.2422Y-7.5
X6.2423Y-7.5357
X6.2551Y-6.3988
X6.2601Y-7.5179
X6.2616Y-6.3745
X6.2794Y-6.4054
X6.2842Y-4.7985
X6.2859Y-6.381
X6.2916Y-4.7709
X6.3228Y-2.874
X6.3484Y-3.3681
X6.3543Y-3.435
X6.3681Y-2.7657
X6.4035Y-6.2697
X6.4577Y-6.3259
X6.4751Y-7.8487
X6.4882Y-6.3341
X6.4941Y-6.5335
X6.4953Y-7.8285
X6.4961Y-5.9331
X6.5227Y-5.6957
X6.5284Y-4.0856
X6.5301Y-5.6682
X6.5349Y-4.0613
X6.5528Y-4.0922
X6.5593Y-4.0678
X6.5827Y-5.6102
X6.6091Y-5.7613
X6.6181Y-6.5138
X6.6395Y-5.7694
X6.6433Y-4.9499
X6.6498Y-4.9256
X6.6676Y-4.9565
X6.6742Y-4.9321
X6.687Y-5.8937
X6.6929Y-5.2047
X6.7067Y-5.1516
X6.7638Y-4.9409
X6.7736Y-3.3209
X6.7953Y-4.8228
X6.8091Y-3.3878
X6.8248Y-5.2835
X6.8459Y-4.877
X6.872Y-5.2244
X6.8765Y-4.8852
X6.8839Y-4.4823
X6.8878Y-3.2815
X6.9075Y-4.3937
X6.911Y-4.2468
X6.9183Y-4.2193
X6.939Y-7.624
X6.9705Y-4.1575
X6.9973Y-4.3124
X7.0278Y-4.3205
X7.0354Y-8.2402
X7.0354Y-8.2087
X7.0354Y-8.1772
X7.0571Y-4.5591
X7.061Y-7.5256
X7.0669Y-8.1772
X7.0669Y-8.2087
X7.0669Y-8.2402
X7.0925Y-4.439
X7.1043Y-4.3465
X7.1102Y-3.7618
X7.1142Y-3.7067
X7.1319Y-7.3906
X7.2085Y-8.1153
X7.2106Y-3.8051
X7.215Y-8.0909
X7.2328Y-8.1218
X7.2393Y-8.0975
X7.2598Y-3.0118
X7.2598Y-3.0748
X7.2598Y-3.0433
X7.2913Y-3.0118
X7.2913Y-3.0433
X7.2913Y-3.0748
X7.3386Y-7.3296
X7.3386Y-7.3926
X7.3386Y-5.3071
X7.3386Y-5.9724
X7.3386Y-6.0039
X7.3386Y-7.3611
X7.3386Y-5.2756
X7.3386Y-5.2441
X7.3701Y-7.3926
X7.3701Y-5.2441
X7.3701Y-7.3296
X7.3701Y-5.2756
X7.3701Y-5.9724
X7.3701Y-7.3611
X7.3701Y-5.3071
X7.3701Y-6.0039
X7.3839Y-3.9508
X7.3937Y-3.3366
X7.3937Y-3.4154
X7.3937Y-3.4941
X7.3937Y-3.5709
X7.4213Y-7.5217
X7.4213Y-7.4005
X7.4323Y-6.4539
X7.4323Y-6.4791
X7.4409Y-3.3366
X7.4575Y-6.4791
X7.4575Y-6.4539
X7.4685Y-6.0039
X7.4685Y-5.9724
X7.4856Y-6.0679
X7.5Y-5.9724
X7.5Y-6.0039
X7.5142Y-6.0679
X7.5315Y-3.5925
X7.5512Y-3.3012
X7.563Y-2.3996
X7.591Y-8.2765
X7.5984Y-8.2489
X7.5984Y-4.1142
X7.5984Y-4.8819
X7.5984Y-4.8504
X7.5984Y-4.1457
X7.5984Y-4.1772
X7.5984Y-3.0591
X7.5984Y-3.122
X7.5984Y-4.8189
X7.5984Y-3.0906
X7.6013Y-6.818
X7.6142Y-5.9252
X7.6142Y-6.6791
X7.6156Y-6.7933
X7.6299Y-4.8504
X7.6299Y-4.1142
X7.6299Y-4.1772
X7.6299Y-4.8189
X7.6299Y-4.8819
X7.6299Y-3.0591
X7.6299Y-3.0906
X7.6299Y-3.122
X7.6299Y-4.1457
X7.6713Y-3.2992
X7.6713Y-3.5394
X7.6713Y-3.2717
X7.6713Y-3.2441
X7.6713Y-3.5079
X7.6732Y-3.9469
X7.6791Y-4.8996
X7.6988Y-3.2717
X7.6988Y-3.2992
X7.6988Y-3.2441
X7.7233Y-5.598
X7.7357Y-5.6194
X7.7478Y-5.5838
X7.7602Y-5.6053
X7.7618Y-4.8996
X7.7992Y-3.5315
X7.7992Y-3.5
X7.8031Y-4.1181
X7.8031Y-4.1496
X7.8307Y-3.5
X7.8307Y-3.5315
X7.8701Y-2.3996
X7.876Y-4.3819
X7.8976Y-4.4094
X7.8976Y-4.3543
X7.8996Y-5.0098
X7.935Y-3.2549
X7.9665Y-3.2549
X7.9744Y-3.6358
X7.984Y-7.1001
X7.9966Y-7.0783
X8.0Y-4.0157
X8.0024Y-3.5413
X8.0058Y-7.1127
X8.0128Y-3.8622
X8.0138Y-4.9921
X8.0157Y-4.4094
X8.0157Y-4.3543
X8.0184Y-7.0909
X8.0197Y-4.1969
X8.03Y-3.5413
X8.0354Y-5.8189
X8.0354Y-5.7559
X8.0354Y-5.7874
X8.0367Y-5.5156
X8.0594Y-5.503
X8.063Y-4.4764
X8.0648Y-3.5551
X8.065Y-3.6772
X8.0653Y-3.5965
X8.078Y-4.6071
X8.0827Y-2.6516
X8.0878Y-8.2787
X8.0878Y-8.2535
X8.1102Y-2.6516
X8.113Y-8.2787
X8.113Y-8.2535
X8.1299Y-5.6594
X8.1535Y-4.0591
X8.1732Y-2.685
X8.1732Y-2.7126
X8.1732Y-2.7402
X8.1752Y-3.9587
X8.1772Y-3.4744
X8.185Y-5.7067
X8.189Y-5.6102
X8.2008Y-5.4252
X8.2087Y-3.4744
X8.2244Y-4.1727
X8.2323Y-3.1614
X8.2323Y-3.189
X8.2323Y-3.2165
X8.2323Y-3.0709
X8.2323Y-3.1063
X8.2323Y-3.1339
X8.2323Y-3.252
X8.2402Y-5.3858
X8.248Y-5.252
X8.2539Y-5.8248
X8.2638Y-4.1614
X8.2677Y-2.8583
X8.2677Y-7.8681
X8.2677Y-7.0531
X8.2677Y-7.7835
X8.2717Y-5.6102
X8.2717Y-5.4646
X8.2717Y-5.7067
X8.3051Y-3.0236
X8.311Y-3.1063
X8.311Y-3.189
X8.311Y-3.2165
X8.311Y-3.0709
X8.311Y-3.1339
X8.311Y-3.1614
X8.311Y-3.252
X8.315Y-4.2992
X8.315Y-4.0906
X8.315Y-4.2165
X8.315Y-4.1181
X8.315Y-4.2441
X8.315Y-4.2717
X8.315Y-4.0628
X8.3287Y-2.9961
X8.3287Y-3.0512
X8.3378Y-3.4526
X8.3425Y-4.2992
X8.3465Y-2.8622
X8.3465Y-2.9016
X8.3622Y-2.685
X8.3622Y-2.7126
X8.3622Y-2.7402
X8.3632Y-3.4194
X8.3663Y-4.0239
X8.3701Y-4.2992
X8.374Y-5.4646
X8.374Y-5.3858
X8.3779Y-3.4528
X8.378Y-2.8622
X8.3937Y-5.7972
X8.4016Y-5.4252
X8.4134Y-2.8465
X8.4183Y-3.4528
X8.4193Y-5.628
X8.4213Y-3.0079
X8.4252Y-2.6516
X8.4331Y-5.2205
X8.4409Y-4.9291
X8.4409Y-4.9803
X8.4409Y-5.7067
X8.4442Y-7.0674
X8.4449Y-3.6969
X8.4528Y-2.6516
X8.4528Y-3.4134
X8.4584Y-7.0922
X8.4606Y-4.0628
X8.4843Y-2.8858
X8.4882Y-4.063
X8.4882Y-4.2992
X8.499Y-8.3354
X8.499Y-8.3069
X8.5Y-5.2894
X8.5Y-5.7559
X8.5Y-5.7874
X8.5Y-5.8189
X8.5118Y-2.8858
X8.5157Y-4.063
X8.5158Y-4.2992
X8.517Y-5.5076
X8.5276Y-3.6753
X8.5296Y-5.4857
X8.5388Y-5.5202
X8.5394Y-2.8858
X8.5433Y-3.0728
X8.5433Y-4.063
X8.5433Y-4.2717
X8.5433Y-4.2992
X8.5433Y-4.1181
X8.5433Y-4.2441
X8.5433Y-4.0906
X8.5433Y-4.2165
X8.5453Y-4.8583
X8.5492Y-3.5886
X8.5512Y-5.8848
X8.5512Y-4.3543
X8.5512Y-5.9134
X8.5514Y-5.4983
X8.5551Y-2.8307
X8.5551Y-2.8583
X8.5787Y-5.9134
X8.5787Y-5.8848
X8.5787Y-6.1654
X8.6043Y-6.1516
X8.6078Y-5.437
X8.6078Y-5.311
X8.6083Y-4.937
X8.6378Y-3.4134
X8.6417Y-3.3839
X8.6417Y-3.3563
X8.6496Y-2.9055
X8.6496Y-2.9331
X8.6496Y-2.9606
X8.6496Y-2.9882
X8.6654Y-3.687
X8.6693Y-3.3839
X8.6693Y-3.3563
X8.6722Y-3.8622
X8.685Y-2.9449
X8.685Y-2.9764
X8.689Y-5.2264
X8.689Y-4.9547
X8.6969Y-3.3563
X8.6969Y-3.3839
X8.7008Y-6.3012
X8.7087Y-3.6241
X8.7087Y-3.5967
X8.7106Y-4.3937
X8.7146Y-2.563
X8.7165Y-2.9449
X8.7165Y-2.9764
X8.7323Y-3.8465
X8.7362Y-3.3563
X8.7362Y-3.3839
X8.7362Y-3.6241
X8.7461Y-2.563
X8.748Y-2.9449
X8.748Y-2.9764
X8.75Y-4.9213
X8.7638Y-3.3839
X8.7638Y-3.3563
X8.7638Y-3.6241
X8.7657Y-5.0256
X8.7736Y-5.7344
X8.7752Y-6.9932
X8.7756Y-5.4724
X8.7756Y-2.6772
X8.7756Y-2.7047
X8.7835Y-2.9331
X8.7835Y-2.9606
X8.7835Y-2.9882
X8.7876Y-7.0146
X8.7913Y-3.3839
X8.7913Y-3.6241
X8.7913Y-3.3563
X8.7933Y-4.9764
X8.7972Y-6.1634
X8.7998Y-6.979
X8.8122Y-7.0005
X8.8504Y-4.3937
X8.8819Y-2.8937
X8.8898Y-3.1181
X8.8898Y-3.2756
X8.9193Y-4.6063
X8.9198Y-5.8051
X8.9232Y-3.6969
X8.9232Y-6.6811
X8.9232Y-3.8465
X8.9272Y-5.9213
X8.9341Y-5.7804
X8.935Y-4.4705
X8.935Y-4.5276
X8.9449Y-3.1181
X8.9449Y-3.2756
X8.9739Y-8.1838
X8.9804Y-8.2082
X8.9982Y-8.1773
X9.0047Y-8.2016
X9.0213Y-6.5305
X9.0498Y-6.5305
X9.078Y-6.1445
X9.078Y-6.1193
X9.1031Y-6.1193
X9.1031Y-6.1445
X9.1417Y-7.4025
X9.1417Y-7.5197
X9.1535Y-3.6831
X9.1575Y-5.7992
X9.2165Y-3.2165
X9.2165Y-3.1535
X9.2165Y-3.185
X9.248Y-3.1535
X9.248Y-3.185
X9.248Y-3.2165
X9.2539Y-7.4044
X9.2657Y-3.7854
X9.3346Y-3.8504
X9.3642Y-4.4567
X9.3819Y-7.4055
X9.3819Y-4.5453
X9.3849Y-8.1289
X9.3923Y-8.1565
X9.4173Y-3.4311
X9.4193Y-3.6772
X9.437Y-4.4409
X9.4429Y-7.5276
X9.4429Y-3.7657
X9.4685Y-7.6201
X9.4685Y-3.5551
X9.4764Y-4.5512
X9.5077Y-4.3205
X9.5079Y-3.5197
X9.5098Y-4.0177
X9.5382Y-4.3123
X9.5571Y-5.1496
X9.5827Y-5.2559
X9.5906Y-4.3484
X9.6529Y-4.1544
X9.659Y-4.8852
X9.6594Y-4.1788
X9.6732Y-5.1909
X9.6772Y-4.1479
X9.6838Y-4.1723
X9.689Y-3.1594
X9.6894Y-4.877
X9.6988Y-5.2736
X9.7185Y-4.8209
X9.748Y-5.9055
X9.7598Y-5.9843
X9.7697Y-3.2382
X9.797Y-4.8907
X9.8044Y-4.9182
X9.8445Y-5.8976
X9.8543Y-3.5866
X9.8858Y-5.8563
X9.8959Y-5.7694
X9.9114Y-6.498
X9.9193Y-5.9823
X9.9264Y-5.7612
X10.0315Y-6.5118
X10.0385Y-7.7544
X10.0411Y-5.6033
X10.0472Y-6.3341
X10.0477Y-5.6277
X10.0564Y-7.7722
X10.0564Y-7.7366
X10.0639Y-4.0995
X10.0655Y-5.5968
X10.0713Y-4.1271
X10.072Y-5.6211
X10.0742Y-7.7544
X10.0776Y-6.3259
X10.1358Y-2.8799
X10.1358Y-2.7618
X10.1845Y-4.8455
X10.1852Y-6.3395
X10.191Y-4.8698
X10.1926Y-6.3671
X10.2089Y-4.839
X10.2154Y-4.8633
X10.345Y-3.8396
X10.3515Y-3.8639
X10.367Y-7.5014
X10.3693Y-3.8331
X10.3759Y-3.8574
X10.3872Y-7.5216
X10.4521Y-5.5484
X10.4595Y-5.576
X10.4646Y-3.2972
X10.4891Y-4.5758
X10.4965Y-4.6034
X10.5728Y-6.2944
X10.5793Y-6.3187
X10.5971Y-6.2879
X10.6036Y-6.3122
X10.6633Y-7.2137
X10.6759Y-7.2356
X10.6851Y-7.2011
X10.6977Y-7.223
X10.7332Y-5.2885
X10.7397Y-5.3128
X10.756Y-3.7847
X10.7576Y-5.282
X10.7618Y-2.874
X10.7634Y-3.8123
X10.7641Y-5.3063
X10.8071Y-2.7539
X10.8642Y-2.8622
X10.8766Y-4.5307
X10.8773Y-6.0247
X10.8831Y-4.555
X10.8847Y-6.0523
X10.901Y-4.5241
X10.9075Y-4.5485
X11.029Y-3.4945
X11.0355Y-3.5189
X11.0461Y-7.0543
X11.0533Y-3.488
X11.0599Y-3.5124
X11.0603Y-7.0791
X11.1299Y-2.7657
X11.1299Y-2.9508
X11.1442Y-5.2336
X11.1516Y-5.2611
X11.1731Y-4.2308
X11.1805Y-4.2583
X11.2648Y-5.9795
X11.2714Y-6.0039
X11.2892Y-5.973
X11.2957Y-5.9974
X11.4115Y-6.8538
X11.4172Y-4.9434
X11.418Y-6.8781
X11.4237Y-4.9678
X11.4358Y-6.8472
X11.44Y-3.4396
X11.4416Y-4.9369
X11.4423Y-6.8716
X11.4474Y-3.4672
X11.4481Y-4.9613
X11.5256Y-2.8563
X11.5606Y-4.1856
X11.5613Y-5.6797
X11.5669Y-2.7618
X11.5671Y-4.21
X11.5687Y-5.7072
X11.585Y-4.1791
X11.5915Y-4.2034
X11.6142Y-2.8445
X11.7939Y-3.4514
X11.8004Y-3.4757
X11.8182Y-3.4448
X11.8224Y-6.7985
X11.8247Y-3.4692
X11.8282Y-4.8885
X11.8298Y-6.8261
X11.8356Y-4.9161
X11.8622Y-2.9193
X11.938Y-4.1876
X11.9454Y-4.2151
X11.9489Y-5.6345
X11.9554Y-5.6588
X11.9732Y-5.628
X11.9797Y-5.6523
X12.1821Y-4.9002
X12.1886Y-4.9246
X12.2049Y-3.3965
X12.2065Y-4.8937
X12.2123Y-3.424
X12.213Y-4.9181
X12.3169Y-2.8465
X12.3255Y-4.1424
X12.3262Y-5.6365
X12.332Y-4.1668
X12.3336Y-5.664
X12.3498Y-4.1359
X12.3543Y-2.7579
X12.3564Y-4.1602
X12.4055Y-2.8287
X12.5669Y-3.4384
X12.5703Y-6.3491
X12.5734Y-3.4627
X12.5769Y-6.3735
X12.5912Y-3.4318
X12.5931Y-4.8453
X12.5947Y-6.3426
X12.5977Y-3.4562
X12.6005Y-4.8729
X12.6012Y-6.367
X12.6555Y-2.9016
X12.7109Y-4.1746
X12.7137Y-5.5913
X12.7183Y-4.2021
X12.7203Y-5.6157
X12.7381Y-5.5848
X12.7446Y-5.6091
X12.9075Y-2.8543
X12.9551Y-4.8872
X12.9616Y-4.9116
X12.9779Y-3.3834
X12.9794Y-4.8807
X12.9814Y-6.2942
X12.9853Y-3.411
X12.9859Y-4.9051
X12.9887Y-6.3218
X13.0985Y-4.1294
X13.0992Y-5.6235
X13.105Y-4.1538
X13.1066Y-5.651
X13.1228Y-4.1229
X13.1293Y-4.1472
X13.2776Y-2.7559
X13.3071Y-2.8307
X13.3156Y-3.3348
X13.3221Y-3.3591
X13.3399Y-3.3283
X13.3433Y-6.3361
X13.3464Y-3.3526
X13.3498Y-6.3605
X13.3661Y-4.8323
X13.3677Y-6.3296
X13.3735Y-4.8599
X13.3742Y-6.3539
X13.4596Y-4.071
X13.467Y-4.0986
X13.4867Y-5.5783
X13.4932Y-5.6027
X13.511Y-5.5718
X13.5176Y-5.5961
X13.7038Y-4.7837
X13.7103Y-4.808
X13.7266Y-3.2799
X13.7281Y-4.7772
X13.734Y-3.3075
X13.7347Y-4.8015
X13.7543Y-6.2812
X13.7617Y-6.3088
X13.8472Y-4.0259
X13.8479Y-5.5199
X13.8537Y-4.0502
X13.8553Y-5.5475
X13.8715Y-4.0193
X13.878Y-4.0437
X14.092Y-6.2326
X14.0985Y-6.2569
X14.1148Y-4.7288
X14.1164Y-6.2261
X14.1222Y-4.7564
X14.1229Y-6.2504
X14.2354Y-5.4748
X14.2419Y-5.4991
X14.2598Y-5.4682
X14.2663Y-5.4926
X14.503Y-6.1777
X14.5104Y-6.2052
T3
X8.2638Y-3.7717
X8.2638Y-3.8228
X8.2638Y-3.874
X8.315Y-3.7717
X8.315Y-3.8228
X8.315Y-3.874
X8.3661Y-3.7717
X8.3661Y-3.8228
X8.3661Y-3.874
T5
X8.0571Y-6.1114
X8.0571Y-6.1815
X8.0571Y-6.2516
X8.0571Y-6.3217
X8.0571Y-6.3917
X8.0571Y-6.4618
X8.0571Y-6.5319
X8.0571Y-6.602
X8.4783Y-6.0764
X8.4783Y-6.1465
X8.4783Y-6.2165
X8.4783Y-6.2866
X8.4783Y-6.3567
X8.4783Y-6.4268
X8.4783Y-6.4969
X8.4783Y-6.5669
T6
X7.3583Y-3.1398
X7.3583Y-3.2185
X7.3583Y-3.2972
X7.3583Y-3.376
X7.3583Y-3.4547
X7.3583Y-3.5335
X7.3583Y-3.6122
T7
X7.4803Y-3.076
X7.4803Y-3.176
X7.4803Y-3.276
X7.4803Y-3.376
X7.4803Y-3.476
X7.4803Y-3.576
X7.4803Y-3.676
X8.0417Y-4.2638
X8.1417Y-4.2638
X8.2417Y-4.2638
X13.4463Y-3.4863
X13.5429Y-3.4604
X13.6395Y-3.4345
X13.7361Y-3.4087
T8
X8.1693Y-5.0945
X8.2677Y-5.0945
X8.3661Y-5.0945
T10
X7.4902Y-2.7461
X7.4902Y-4.0059
X7.6732Y-5.2695
X7.6732Y-7.3289
X8.8622Y-5.2695
X8.8622Y-7.3289
X9.0453Y-2.7461
X9.0453Y-4.0059
T11
X3.4849Y-6.5775
X6.6772Y-2.8346
X7.6969Y-6.2992
X8.2677Y-7.6181
X8.8386Y-6.2992
X9.8583Y-2.8346
X13.0505Y-6.5775
T4
G00X8.0465Y-2.4213
M15
G01X8.0465Y-2.4685
M16
G05
G00X8.0465Y-2.5866
M15
G01X8.0465Y-2.6181
M16
G05
G00X8.489Y-2.4213
M15
G01X8.489Y-2.4685
M16
G05
G00X8.489Y-2.5866
M15
G01X8.489Y-2.6181
M16
G05
T9
G00X7.0827Y-6.2303
M15
G01X7.0827Y-6.3681
M16
G05
G00X9.4528Y-6.2303
M15
G01X9.4528Y-6.3681
M16
G05
T0
M30
