M48
; DRILL file {KiCad (7.0.0)} date Fri May 19 21:54:14 2023
; FORMAT={-:-/ absolute / inch / decimal}
; #@! TF.CreationDate,2023-05-19T21:54:14+01:00
; #@! TF.GenerationSoftware,Kicad,Pcbnew,(7.0.0)
; #@! TF.FileFunction,NonPlated,1,2,NPTH
FMAT,2
INCH
; #@! TA.AperFunction,NonPlated,NPTH,ComponentDrill
T1C0.0295
; #@! TA.AperFunction,NonPlated,NPTH,ComponentDrill
T2C0.0354
; #@! TA.AperFunction,NonPlated,NPTH,ComponentDrill
T3C0.0454
; #@! TA.AperFunction,NonPlated,NPTH,ComponentDrill
T4C0.0689
; #@! TA.AperFunction,NonPlated,NPTH,ComponentDrill
T5C0.0866
; #@! TA.AperFunction,NonPlated,NPTH,ComponentDrill
T6C0.1570
; #@! TA.AperFunction,NonPlated,NPTH,ComponentDrill
T7C0.1575
; #@! TA.AperFunction,NonPlated,NPTH,ComponentDrill
T8C0.1654
%
G90
G05
T1
X7.0472Y-1.8103
X7.0472Y-1.9186
T2
X8.0906Y-1.8554
X8.2087Y-1.8554
T3
X2.3819Y-2.1755
X7.5984Y-7.3032
X12.8189Y-2.1755
T4
X1.4452Y-5.4238
X1.6393Y-4.6993
X1.8315Y-5.5273
X1.8334Y-3.9749
X2.0256Y-4.8029
X2.0275Y-3.2504
X2.1939Y-5.5273
X2.2197Y-4.0784
X2.2216Y-2.526
X2.388Y-4.8029
X2.4139Y-3.354
X2.5802Y-5.6309
X2.5821Y-4.0784
X2.608Y-2.6295
X2.7743Y-4.9064
X2.7762Y-3.354
X2.9668Y-5.5403
X2.9685Y-4.182
X2.9703Y-2.6296
X3.1609Y-4.8159
X3.1626Y-3.4575
X3.3532Y-5.6439
X3.3551Y-4.0915
X3.3567Y-2.7331
X3.5473Y-4.9194
X3.5492Y-3.367
X3.7414Y-4.195
X3.7433Y-2.6426
X3.9258Y-4.8591
X3.9355Y-3.4705
X4.1199Y-4.1346
X4.1257Y-6.045
X4.1297Y-2.7461
X4.3122Y-4.9626
X4.3141Y-3.4102
X4.5063Y-4.2382
X4.5082Y-2.6858
X4.5121Y-6.1485
X4.6098Y-5.2041
X4.7004Y-3.5137
X4.804Y-4.4797
X4.8945Y-2.7893
X4.9231Y-6.3188
X4.9962Y-5.3077
X4.9981Y-3.7552
X5.1903Y-4.5832
X5.1922Y-3.0308
X5.2695Y-6.5188
X5.3019Y-5.519
X5.3844Y-3.8588
X5.496Y-4.7945
X5.5785Y-3.1343
X5.6225Y-6.7896
X5.6883Y-5.6225
X5.6902Y-4.0701
X5.8824Y-4.8981
X5.8843Y-3.3456
X5.9053Y-7.0724
X6.0765Y-4.1736
X6.2706Y-3.4492
X6.538Y-6.5914
X6.8844Y-6.7914
X7.3984Y-7.6791
X7.3984Y-6.9291
X7.7984Y-7.6791
X7.7984Y-6.9291
X8.3125Y-6.7914
X8.6589Y-6.5914
X8.9262Y-3.4492
X9.1203Y-4.1736
X9.2915Y-7.0724
X9.3126Y-3.3456
X9.3144Y-4.8981
X9.5067Y-4.0701
X9.5086Y-5.6225
X9.5744Y-6.7896
X9.6183Y-3.1343
X9.7008Y-4.7945
X9.8124Y-3.8588
X9.8949Y-5.519
X9.9273Y-6.5188
X10.0047Y-3.0308
X10.0065Y-4.5832
X10.1988Y-3.7552
X10.2006Y-5.3077
X10.2737Y-6.3188
X10.3023Y-2.7893
X10.3929Y-4.4797
X10.4964Y-3.5137
X10.587Y-5.2041
X10.6848Y-6.1485
X10.6887Y-2.6858
X10.6905Y-4.2382
X10.8828Y-3.4102
X10.8846Y-4.9626
X11.0672Y-2.7461
X11.0711Y-6.045
X11.0769Y-4.1346
X11.2613Y-3.4705
X11.271Y-4.8591
X11.4536Y-2.6426
X11.4554Y-4.195
X11.6477Y-3.367
X11.6495Y-4.9194
X11.8402Y-2.7331
X11.8418Y-4.0915
X11.8436Y-5.6439
X12.0343Y-3.4575
X12.0359Y-4.8159
X12.2265Y-2.6296
X12.2284Y-4.182
X12.23Y-5.5403
X12.4206Y-3.354
X12.4225Y-4.9064
X12.5889Y-2.6295
X12.6148Y-4.0785
X12.6166Y-5.6309
X12.783Y-3.354
X12.8089Y-4.8029
X12.9752Y-2.526
X12.9771Y-4.0784
X13.003Y-5.5273
X13.1694Y-3.2504
X13.1712Y-4.8029
X13.3635Y-3.9749
X13.3653Y-5.5273
X13.5576Y-4.6993
X13.7517Y-5.4238
T5
X6.7056Y-4.9287
X8.2782Y-5.8927
T6
X1.6383Y-5.4755
X1.8325Y-4.7511
X2.0266Y-4.0267
X2.2207Y-3.3022
X2.387Y-5.5791
X2.4148Y-2.5778
X2.5812Y-4.8547
X2.7753Y-4.1302
X2.9694Y-3.4058
X3.16Y-5.5921
X3.1635Y-2.6813
X3.3541Y-4.8677
X3.5482Y-4.1432
X3.7424Y-3.4188
X3.9365Y-2.6943
X4.119Y-4.9108
X4.3131Y-4.1864
X4.3189Y-6.0967
X4.5072Y-3.462
X4.7014Y-2.7375
X4.803Y-5.2559
X4.9971Y-4.5314
X5.0963Y-6.4188
X5.1912Y-3.807
X5.3854Y-3.0826
X5.4951Y-5.5707
X5.6892Y-4.8463
X5.7639Y-6.931
X5.8833Y-4.1219
X6.0775Y-3.3974
X6.7112Y-6.6914
X7.1297Y-7.3541
X7.5984Y-7.6791
X7.5984Y-6.9291
X8.0672Y-7.3541
X8.4857Y-6.6914
X9.1194Y-3.3974
X9.3135Y-4.1219
X9.4329Y-6.931
X9.5076Y-4.8463
X9.7017Y-5.5707
X9.8115Y-3.0826
X10.0056Y-3.807
X10.1005Y-6.4188
X10.1997Y-4.5314
X10.3938Y-5.2559
X10.4955Y-2.7375
X10.6896Y-3.462
X10.878Y-6.0967
X10.8837Y-4.1864
X11.0778Y-4.9108
X11.2604Y-2.6943
X11.4545Y-3.4188
X11.6486Y-4.1432
X11.8427Y-4.8677
X12.0333Y-2.6813
X12.0368Y-5.5921
X12.2275Y-3.4058
X12.4216Y-4.1302
X12.6157Y-4.8547
X12.7821Y-2.5778
X12.8098Y-5.5791
X12.9762Y-3.3022
X13.1703Y-4.0267
X13.3644Y-4.7511
X13.5585Y-5.4755
T7
X7.122Y-4.4434
X8.5231Y-5.2201
T8
X7.1498Y-6.0448
T0
M30
