M48
; DRILL file {KiCad (7.0.0)} date Wed Mar  8 00:54:44 2023
; FORMAT={-:-/ absolute / inch / decimal}
; #@! TF.CreationDate,2023-03-08T00:54:44+00:00
; #@! TF.GenerationSoftware,Kicad,Pcbnew,(7.0.0)
; #@! TF.FileFunction,Plated,1,2,PTH
FMAT,2
INCH
; #@! TA.AperFunction,Plated,PTH,ViaDrill
T1C0.0098
; #@! TA.AperFunction,Plated,PTH,ViaDrill
T2C0.0118
; #@! TA.AperFunction,Plated,PTH,ComponentDrill
T3C0.0118
; #@! TA.AperFunction,Plated,PTH,ComponentDrill
T4C0.0236
; #@! TA.AperFunction,Plated,PTH,ComponentDrill
T5C0.0276
; #@! TA.AperFunction,Plated,PTH,ComponentDrill
T6C0.0394
; #@! TA.AperFunction,Plated,PTH,ComponentDrill
T7C0.0413
; #@! TA.AperFunction,Plated,PTH,ComponentDrill
T8C0.0591
; #@! TA.AperFunction,Plated,PTH,ComponentDrill
T9C0.0787
; #@! TA.AperFunction,Plated,PTH,ComponentDrill
T10C0.1260
%
G90
G05
T1
X1.3539Y-4.2188
X1.6105Y-3.514
X1.867Y-2.8093
X2.0908Y-4.3872
X2.1235Y-2.1045
X2.3473Y-3.6825
X2.3799Y-1.213
X2.38Y-1.3997
X2.6038Y-2.9777
X2.8597Y-4.4676
X2.8603Y-2.2729
X3.1162Y-3.7628
X3.1168Y-1.5682
X3.1169Y-1.3819
X3.3727Y-3.058
X3.6292Y-2.3532
X3.8744Y-3.8725
X3.8857Y-1.6485
X3.8858Y-1.4622
X3.9702Y-5.0713
X4.1309Y-3.1677
X4.3874Y-2.4629
X4.5257Y-4.2758
X4.6439Y-1.7582
X4.6441Y-1.5724
X4.7503Y-5.564
X4.7822Y-3.571
X5.0388Y-2.8663
X5.1877Y-4.6498
X5.2953Y-2.1615
X5.2953Y-1.9748
X5.3263Y-4.5504
X5.3687Y-4.5654
X5.3716Y-6.2407
X5.4443Y-3.945
X5.6799Y-6.2124
X5.6969Y-6.151
X5.7008Y-3.2403
X5.7901Y-6.3619
X5.7901Y-6.0817
X5.8379Y-3.1404
X5.8697Y-3.0503
X5.8815Y-3.1563
X5.9571Y-2.3488
X5.9573Y-2.5355
X6.1216Y-3.1421
X6.2638Y-4.8937
X6.3488Y-1.6772
X6.3709Y-1.6547
X6.3941Y-5.0236
X6.4685Y-1.937
X6.4921Y-1.9961
X6.5571Y-1.0457
X6.6142Y-0.8602
X6.6267Y-4.5471
X6.6378Y-1.2756
X6.6418Y-2.0611
X6.6418Y-1.5788
X6.6713Y-0.7618
X6.6909Y-0.8583
X6.7022Y-4.5551
X6.7106Y-4.3917
X6.7303Y-0.8602
X6.7323Y-1.2756
X6.748Y-4.1618
X6.7567Y-4.2461
X6.7677Y-4.3661
X6.7933Y-1.5246
X6.8287Y-4.3661
X7.0197Y-4.8504
X7.1142Y-1.6476
X7.3852Y-3.1582
X7.4748Y-3.1584
X7.5181Y-3.1427
X7.5669Y-6.0814
X7.5669Y-6.1765
X7.6263Y-3.8219
X7.6967Y-3.8223
X7.7555Y-2.2217
X7.899Y-4.5685
X7.963Y-2.3323
X7.9879Y-4.569
X8.0313Y-4.5524
X8.2196Y-3.0371
X8.2925Y-1.8933
X8.3724Y-5.7857
X8.4761Y-3.7419
X8.6251Y-1.9584
X8.7326Y-4.4467
X8.8816Y-2.6631
X8.9689Y-1.4807
X9.0984Y-5.2233
X9.1381Y-3.3679
X9.2764Y-1.555
X9.3946Y-4.0727
X9.5329Y-2.2598
X9.7311Y-1.3693
X9.7894Y-2.9646
X9.9502Y-4.8681
X10.0346Y-1.4453
X10.0459Y-3.6693
X10.2911Y-2.1501
X10.5476Y-2.8549
X10.5622Y-1.2665
X10.8035Y-1.365
X10.8041Y-3.5596
X11.06Y-2.0698
X11.0607Y-4.2644
X11.1248Y-1.1189
X11.3165Y-2.7746
X11.5403Y-1.1966
X11.573Y-3.4793
X11.7968Y-1.9014
X11.8296Y-4.1841
X12.0534Y-2.6061
X12.3099Y-3.3109
X12.5664Y-4.0157
T2
X0.7786Y-4.4052
X0.7872Y-4.3815
X0.8023Y-4.4138
X0.8109Y-4.3902
X0.9862Y-3.6845
X0.996Y-3.6577
X1.1456Y-4.5991
X1.1554Y-4.5723
X1.2916Y-2.9957
X1.3002Y-2.972
X1.3153Y-3.0043
X1.3239Y-2.9806
X1.3307Y-3.8667
X1.3393Y-3.843
X1.3544Y-3.8753
X1.363Y-3.8516
X1.4993Y-2.275
X1.509Y-2.2482
X1.5154Y-4.5736
X1.524Y-4.55
X1.5391Y-4.5823
X1.5477Y-4.5586
X1.6587Y-3.1896
X1.6684Y-3.1628
X1.7231Y-3.853
X1.7328Y-3.8261
X1.8047Y-1.5861
X1.8133Y-1.5625
X1.8283Y-1.5948
X1.8369Y-1.5711
X1.8438Y-2.4572
X1.8524Y-2.4335
X1.8674Y-2.4658
X1.876Y-2.4421
X1.8825Y-4.7676
X1.8922Y-4.7407
X2.0285Y-3.1641
X2.0371Y-3.1404
X2.0521Y-3.1727
X2.0608Y-3.149
X2.0676Y-4.0351
X2.0762Y-4.0114
X2.0912Y-4.0437
X2.0998Y-4.0201
X2.1717Y-1.7801
X2.1814Y-1.7532
X2.2361Y-2.4434
X2.2458Y-2.4166
X2.2843Y-4.654
X2.2929Y-4.6303
X2.308Y-4.6626
X2.3166Y-4.6389
X2.3955Y-3.358
X2.4052Y-3.3312
X2.492Y-3.9333
X2.5017Y-3.9065
X2.5415Y-1.7546
X2.5501Y-1.7309
X2.5652Y-1.7632
X2.5738Y-1.7395
X2.5806Y-2.6256
X2.5892Y-2.6019
X2.6043Y-2.6342
X2.6129Y-2.6105
X2.6514Y-4.8479
X2.6611Y-4.8211
X2.7974Y-3.2444
X2.806Y-3.2207
X2.821Y-3.253
X2.8296Y-3.2294
X2.8365Y-4.1154
X2.8451Y-4.0918
X2.8601Y-4.1241
X2.8687Y-4.1004
X2.9085Y-1.9485
X2.9183Y-1.9217
X3.005Y-2.5237
X3.0147Y-2.4969
X3.1644Y-3.4383
X3.1741Y-3.4115
X3.2502Y-4.043
X3.2599Y-4.0162
X3.3104Y-1.8349
X3.319Y-1.8112
X3.3341Y-1.8435
X3.3427Y-1.8198
X3.3495Y-2.7059
X3.3581Y-2.6822
X3.3732Y-2.7145
X3.3818Y-2.6908
X3.3948Y-5.2577
X3.4034Y-5.234
X3.4185Y-5.2663
X3.4271Y-5.2426
X3.5556Y-3.3541
X3.5642Y-3.3304
X3.5792Y-3.3627
X3.5879Y-3.3391
X3.5947Y-4.2251
X3.6033Y-4.2015
X3.6183Y-4.2337
X3.627Y-4.2101
X3.6774Y-2.0288
X3.6872Y-2.002
X3.7618Y-5.4516
X3.7632Y-2.6334
X3.7716Y-5.4248
X3.773Y-2.6066
X3.9015Y-4.4463
X3.9113Y-4.4195
X3.9226Y-3.548
X3.9324Y-3.5212
X4.0686Y-1.9446
X4.0772Y-1.9209
X4.0923Y-1.9532
X4.1009Y-1.9295
X4.1077Y-2.8156
X4.1163Y-2.7919
X4.1314Y-2.8242
X4.14Y-2.8005
X4.1457Y-5.5954
X4.1601Y-5.5747
X4.1663Y-5.6098
X4.1808Y-5.5892
X4.2069Y-3.7575
X4.2155Y-3.7338
X4.2306Y-3.7661
X4.2392Y-3.7424
X4.246Y-4.6285
X4.2546Y-4.6048
X4.2697Y-4.6371
X4.2783Y-4.6134
X4.4145Y-3.0368
X4.4243Y-3.01
X4.4356Y-2.1385
X4.4454Y-2.1117
X4.45Y-5.8777
X4.4664Y-5.8543
X4.5635Y-4.8203
X4.5733Y-4.7935
X4.5739Y-3.9514
X4.5837Y-3.9246
X4.7199Y-2.3479
X4.7285Y-2.3242
X4.7436Y-2.3565
X4.7522Y-2.3329
X4.759Y-3.2189
X4.7676Y-3.1953
X4.78Y-6.1145
X4.7827Y-3.2276
X4.7913Y-3.2039
X4.7962Y-6.1338
X4.7993Y-6.0984
X4.8155Y-6.1177
X4.8689Y-4.1314
X4.8775Y-4.1078
X4.8926Y-4.1401
X4.9012Y-4.1164
X4.908Y-5.0025
X4.9166Y-4.9788
X4.9317Y-5.0111
X4.9403Y-4.9874
X5.0009Y-6.466
X5.0227Y-6.4477
X5.0765Y-3.4108
X5.0863Y-3.3839
X5.087Y-2.5418
X5.0967Y-2.515
X5.1162Y-4.9474
X5.144Y-4.9575
X5.2359Y-4.3254
X5.2457Y-4.2985
X5.3163Y-4.3982
X5.344Y-4.4083
X5.3819Y-2.7219
X5.3906Y-2.6982
X5.4056Y-2.7305
X5.4142Y-2.7068
X5.421Y-3.5929
X5.4297Y-3.5692
X5.4447Y-3.6015
X5.4533Y-3.5779
X5.6218Y-6.7767
X5.6284Y-6.7524
X5.6293Y-3.5379
X5.6462Y-6.7832
X5.6527Y-6.7589
X5.657Y-3.548
X5.749Y-2.9158
X5.7587Y-2.889
X5.8293Y-2.9886
X5.8457Y-5.1154
X5.8457Y-5.1406
X5.8571Y-2.9987
X5.8709Y-5.1406
X5.8709Y-5.1154
X5.8831Y-4.6348
X5.8831Y-4.6604
X5.899Y-4.7293
X5.9086Y-4.6348
X5.9086Y-4.6604
X5.9276Y-4.7293
X5.998Y-1.1091
X5.998Y-1.1429
X6.0044Y-6.9379
X6.0118Y-6.9103
X6.0147Y-5.4794
X6.029Y-5.4547
X6.0567Y-1.3114
X6.0567Y-1.2858
X6.0567Y-1.337
X6.0823Y-1.3114
X6.0823Y-1.2858
X6.0823Y-1.337
X6.1079Y-1.3114
X6.1079Y-1.2858
X6.1079Y-1.337
X6.1367Y-4.2594
X6.1417Y-1.0528
X6.1417Y-1.0783
X6.1491Y-4.2808
X6.1612Y-4.2452
X6.1673Y-1.0528
X6.1673Y-1.0783
X6.1736Y-4.2667
X6.1929Y-1.0528
X6.1929Y-1.0783
X6.2185Y-1.0528
X6.2185Y-1.0783
X6.2541Y-6.9835
X6.2541Y-7.0091
X6.2555Y-1.3114
X6.2555Y-1.2858
X6.2555Y-1.337
X6.2797Y-6.9835
X6.2797Y-7.0091
X6.2811Y-1.3114
X6.2811Y-1.2858
X6.2811Y-1.337
X6.287Y-1.6083
X6.287Y-2.1547
X6.287Y-2.3858
X6.3067Y-1.3114
X6.3067Y-1.2858
X6.3067Y-1.337
X6.3323Y-3.5929
X6.3622Y-1.0776
X6.3858Y-1.0776
X6.3974Y-5.7615
X6.41Y-5.7397
X6.4142Y-1.8346
X6.4192Y-5.7741
X6.4316Y-1.5377
X6.4318Y-5.7523
X6.4456Y-2.3858
X6.4501Y-4.1771
X6.4591Y-1.5377
X6.4728Y-4.1644
X6.4892Y-1.6702
X6.4892Y-1.5571
X6.4897Y-1.5984
X6.501Y-2.5315
X6.501Y-2.6417
X6.501Y-2.5591
X6.501Y-2.5866
X6.501Y-2.6693
X6.501Y-2.6142
X6.5012Y-6.9401
X6.5012Y-6.9149
X6.5197Y-1.3839
X6.5264Y-6.9401
X6.5264Y-6.9149
X6.5307Y-1.0
X6.535Y-0.9063
X6.535Y-0.9311
X6.535Y-0.9559
X6.5413Y-3.5931
X6.5472Y-1.3839
X6.5598Y-0.9063
X6.5598Y-0.9311
X6.5598Y-0.9559
X6.5846Y-0.9063
X6.5846Y-0.9311
X6.5846Y-0.9559
X6.5965Y-1.4547
X6.6071Y-4.2707
X6.6071Y-4.3691
X6.624Y-1.4547
X6.6417Y-2.1451
X6.6457Y-0.719
X6.6801Y-2.8858
X6.6807Y-4.0864
X6.6811Y-2.1339
X6.685Y-0.9903
X6.685Y-1.07
X6.685Y-1.1812
X6.7154Y-0.719
X6.7323Y-2.062
X6.7323Y-2.0896
X6.7323Y-2.188
X6.7323Y-2.2707
X6.7323Y-2.2156
X6.7323Y-2.2431
X6.7323Y-2.0343
X6.7551Y-1.425
X6.7598Y-2.2707
X6.7793Y-1.3917
X6.7836Y-1.9963
X6.7874Y-2.2707
X6.7953Y-1.4252
X6.7992Y-4.0864
X6.8356Y-1.4252
X6.8391Y-1.0
X6.8576Y-5.7289
X6.8583Y-1.6693
X6.8612Y-2.5315
X6.8612Y-2.6417
X6.8612Y-2.5591
X6.8612Y-2.5866
X6.8612Y-2.6142
X6.8612Y-2.6693
X6.8718Y-5.7536
X6.878Y-2.0343
X6.8937Y-1.6467
X6.9055Y-2.0344
X6.9055Y-2.2707
X6.9124Y-6.9968
X6.9124Y-6.9683
X6.9304Y-4.169
X6.9331Y-2.0344
X6.9331Y-2.2706
X6.943Y-4.1472
X6.9441Y-4.8154
X6.9522Y-4.1816
X6.9606Y-2.0344
X6.9606Y-2.062
X6.9606Y-2.0896
X6.9606Y-2.2156
X6.9606Y-2.2431
X6.9606Y-2.2707
X6.9606Y-2.188
X6.9646Y-4.5551
X6.9646Y-4.5837
X6.9648Y-4.1598
X6.9681Y-2.4675
X6.9921Y-4.5551
X6.9921Y-4.5837
X7.0851Y-1.8346
X7.1417Y-1.5602
X7.1886Y-5.6546
X7.201Y-5.6761
X7.2131Y-5.6404
X7.2255Y-5.6619
X7.3332Y-4.4666
X7.3475Y-4.4418
X7.3872Y-6.8452
X7.3938Y-6.8696
X7.4116Y-6.8387
X7.4181Y-6.8631
X7.4346Y-5.1919
X7.4632Y-5.1919
X7.4913Y-4.8059
X7.4913Y-4.7807
X7.5053Y-2.9987
X7.5165Y-4.7807
X7.5165Y-4.8059
X7.533Y-2.9886
X7.6335Y-2.8213
X7.6421Y-2.845
X7.6572Y-2.8127
X7.6658Y-2.8363
X7.7051Y-3.548
X7.7328Y-3.5379
X7.7983Y-6.7903
X7.8056Y-6.8179
X7.8412Y-3.5422
X7.851Y-3.569
X8.0183Y-4.4082
X8.0382Y-2.7308
X8.046Y-4.3981
X8.0479Y-2.7576
X8.1465Y-4.2308
X8.1552Y-4.2545
X8.1702Y-4.2222
X8.1788Y-4.2459
X8.2181Y-4.9576
X8.2233Y-3.4634
X8.232Y-3.4871
X8.2459Y-4.9475
X8.247Y-3.4548
X8.2556Y-3.4785
X8.2955Y-2.4473
X8.3041Y-2.471
X8.3192Y-2.4387
X8.3278Y-2.4624
X8.3314Y-6.374
X8.3476Y-6.3547
X8.3507Y-6.3902
X8.3542Y-4.9517
X8.364Y-4.9785
X8.3669Y-6.3709
X8.5032Y-3.1682
X8.513Y-3.195
X8.5512Y-4.1403
X8.561Y-4.1671
X8.6366Y-6.0932
X8.6585Y-6.1116
X8.7002Y-2.3568
X8.71Y-2.3836
X8.7364Y-4.8729
X8.745Y-4.8966
X8.76Y-4.8643
X8.7687Y-4.888
X8.8086Y-3.8569
X8.8172Y-3.8805
X8.8322Y-3.8482
X8.8408Y-3.8719
X8.8854Y-3.0894
X8.894Y-3.1131
X8.9067Y-5.7809
X8.909Y-3.0808
X8.9176Y-3.1045
X8.9211Y-5.8015
X8.9273Y-5.7664
X8.9418Y-5.7871
X8.9469Y-2.044
X8.9555Y-2.0676
X8.9705Y-2.0354
X8.9791Y-2.059
X9.0163Y-4.5777
X9.026Y-4.6045
X9.1545Y-2.7648
X9.1643Y-2.7917
X9.2132Y-3.7663
X9.223Y-3.7932
X9.2741Y-5.5887
X9.2905Y-5.6121
X9.3515Y-1.9535
X9.3613Y-1.9803
X9.3984Y-4.499
X9.407Y-4.5226
X9.4221Y-4.4903
X9.4307Y-4.514
X9.4599Y-3.4535
X9.4685Y-3.4772
X9.4836Y-3.4449
X9.4922Y-3.4686
X9.5367Y-2.6861
X9.5453Y-2.7098
X9.5604Y-2.6775
X9.569Y-2.7011
X9.6206Y-5.3571
X9.6293Y-5.3808
X9.6443Y-5.3485
X9.6529Y-5.3721
X9.6676Y-4.1744
X9.6773Y-4.2012
X9.7051Y-1.9343
X9.7137Y-1.958
X9.7287Y-1.9257
X9.7374Y-1.9493
X9.8645Y-3.363
X9.8743Y-3.3898
X9.9128Y-2.6551
X9.9225Y-2.682
X10.0252Y-5.2662
X10.0349Y-5.293
X10.0497Y-4.0956
X10.0583Y-4.1193
X10.0734Y-4.087
X10.082Y-4.1107
X10.1097Y-1.8438
X10.1195Y-1.8706
X10.2181Y-3.3438
X10.2267Y-3.3675
X10.2418Y-3.3352
X10.2504Y-3.3589
X10.2949Y-2.5764
X10.3035Y-2.6001
X10.3186Y-2.5678
X10.3272Y-2.5914
X10.4258Y-4.0647
X10.4356Y-4.0915
X10.474Y-1.854
X10.4826Y-1.8776
X10.4976Y-1.8453
X10.5063Y-1.869
X10.6228Y-3.2533
X10.6325Y-3.2801
X10.6817Y-2.5748
X10.6914Y-2.6016
X10.7311Y-4.7534
X10.7397Y-4.777
X10.7548Y-4.7447
X10.7634Y-4.7684
X10.8079Y-3.9859
X10.8165Y-4.0096
X10.8316Y-3.9773
X10.8402Y-4.001
X10.8786Y-1.7634
X10.8884Y-1.7903
X10.987Y-3.2635
X10.9956Y-3.2872
X11.0107Y-3.2549
X11.0193Y-3.2786
X11.0638Y-2.4961
X11.0724Y-2.5197
X11.0875Y-2.4874
X11.0961Y-2.5111
X11.1358Y-4.6628
X11.1456Y-4.6897
X11.1947Y-3.9844
X11.2044Y-4.0112
X11.2108Y-1.6855
X11.2194Y-1.7092
X11.2345Y-1.6769
X11.2431Y-1.7006
X11.3917Y-3.173
X11.4014Y-3.1998
X11.4185Y-2.4064
X11.4283Y-2.4332
X11.5Y-4.673
X11.5086Y-4.6967
X11.5237Y-4.6644
X11.5323Y-4.6881
X11.5768Y-3.9056
X11.5854Y-3.9293
X11.6005Y-3.897
X11.6091Y-3.9207
X11.6155Y-1.595
X11.6252Y-1.6218
X11.7238Y-3.0951
X11.7324Y-3.1188
X11.7475Y-3.0865
X11.7561Y-3.1101
X11.8006Y-2.3276
X11.8092Y-2.3513
X11.8243Y-2.319
X11.8329Y-2.3427
X11.9047Y-4.5825
X11.9144Y-4.6093
X11.9315Y-3.8159
X11.9413Y-3.8428
X12.1285Y-3.0046
X12.1383Y-3.0314
X12.2369Y-4.5046
X12.2455Y-4.5283
X12.2605Y-4.496
X12.2691Y-4.5197
X12.3137Y-3.7372
X12.3223Y-3.7609
X12.3373Y-3.7286
X12.3459Y-3.7522
X12.6415Y-4.4141
X12.6513Y-4.4409
T3
X6.6811Y-1.7441
X6.6811Y-1.7953
X6.6811Y-1.8465
X6.7323Y-1.7441
X6.7323Y-1.7953
X6.7323Y-1.8465
X6.7835Y-1.7441
X6.7835Y-1.7953
X6.7835Y-1.8465
T5
X6.4705Y-4.7728
X6.4705Y-4.8429
X6.4705Y-4.913
X6.4705Y-4.9831
X6.4705Y-5.0531
X6.4705Y-5.1232
X6.4705Y-5.1933
X6.4705Y-5.2634
X6.8917Y-4.7378
X6.8917Y-4.8079
X6.8917Y-4.878
X6.8917Y-4.948
X6.8917Y-5.0181
X6.8917Y-5.0882
X6.8917Y-5.1583
X6.8917Y-5.2283
T6
X5.8937Y-1.1646
X5.8937Y-1.2646
X5.8937Y-1.3646
X5.8937Y-1.4646
X5.8937Y-1.5646
X5.8937Y-1.6646
X5.8937Y-1.7646
X6.5315Y-2.3858
X6.6315Y-2.3858
X6.7315Y-2.3858
X6.8315Y-2.3858
T7
X6.5827Y-3.7559
X6.6811Y-3.7559
X6.7795Y-3.7559
T9
X5.9035Y-0.8347
X5.9035Y-2.0945
X6.0866Y-3.9309
X6.0866Y-5.9903
X7.2756Y-3.9309
X7.2756Y-5.9903
X7.4587Y-0.8347
X7.4587Y-2.0945
T10
X6.1102Y-4.9606
X7.252Y-4.9606
T4
G00X6.511Y-0.622
M15
G01X6.511Y-0.5984
M16
G05
G00X6.511Y-0.7965
M15
G01X6.511Y-0.7531
M16
G05
G00X6.8512Y-0.622
M15
G01X6.8512Y-0.5984
M16
G05
G00X6.8512Y-0.7965
M15
G01X6.8512Y-0.7531
M16
G05
T8
G00X5.4961Y-4.8917
M15
G01X5.4961Y-5.0295
M16
G05
G00X7.8661Y-4.8917
M15
G01X7.8661Y-5.0295
M16
G05
T0
M30
