%TF.GenerationSoftware,KiCad,Pcbnew,(7.0.0)*%
%TF.CreationDate,2023-04-10T23:44:35+01:00*%
%TF.ProjectId,Honeydew,486f6e65-7964-4657-972e-6b696361645f,V2.0*%
%TF.SameCoordinates,Original*%
%TF.FileFunction,Soldermask,Top*%
%TF.FilePolarity,Negative*%
%FSLAX46Y46*%
G04 Gerber Fmt 4.6, Leading zero omitted, Abs format (unit mm)*
G04 Created by KiCad (PCBNEW (7.0.0)) date 2023-04-10 23:44:35*
%MOMM*%
%LPD*%
G01*
G04 APERTURE LIST*
G04 Aperture macros list*
%AMRoundRect*
0 Rectangle with rounded corners*
0 $1 Rounding radius*
0 $2 $3 $4 $5 $6 $7 $8 $9 X,Y pos of 4 corners*
0 Add a 4 corners polygon primitive as box body*
4,1,4,$2,$3,$4,$5,$6,$7,$8,$9,$2,$3,0*
0 Add four circle primitives for the rounded corners*
1,1,$1+$1,$2,$3*
1,1,$1+$1,$4,$5*
1,1,$1+$1,$6,$7*
1,1,$1+$1,$8,$9*
0 Add four rect primitives between the rounded corners*
20,1,$1+$1,$2,$3,$4,$5,0*
20,1,$1+$1,$4,$5,$6,$7,0*
20,1,$1+$1,$6,$7,$8,$9,0*
20,1,$1+$1,$8,$9,$2,$3,0*%
%AMHorizOval*
0 Thick line with rounded ends*
0 $1 width*
0 $2 $3 position (X,Y) of the first rounded end (center of the circle)*
0 $4 $5 position (X,Y) of the second rounded end (center of the circle)*
0 Add line between two ends*
20,1,$1,$2,$3,$4,$5,0*
0 Add two circle primitives to create the rounded ends*
1,1,$1,$2,$3*
1,1,$1,$4,$5*%
%AMRotRect*
0 Rectangle, with rotation*
0 The origin of the aperture is its center*
0 $1 length*
0 $2 width*
0 $3 Rotation angle, in degrees counterclockwise*
0 Add horizontal line*
21,1,$1,$2,0,0,$3*%
G04 Aperture macros list end*
%ADD10C,2.000000*%
%ADD11R,2.500000X6.000000*%
%ADD12C,3.500000*%
%ADD13C,5.600000*%
%ADD14C,1.152000*%
%ADD15RotRect,1.700000X1.700000X285.000000*%
%ADD16HorizOval,1.700000X0.000000X0.000000X0.000000X0.000000X0*%
%ADD17RoundRect,0.250000X0.625000X-0.350000X0.625000X0.350000X-0.625000X0.350000X-0.625000X-0.350000X0*%
%ADD18O,1.750000X1.200000*%
%ADD19R,1.700000X1.700000*%
%ADD20O,1.700000X1.700000*%
%ADD21C,4.000000*%
%ADD22C,1.750000*%
%ADD23C,3.000000*%
%ADD24C,3.987800*%
%ADD25C,0.900000*%
%ADD26R,1.200000X1.200000*%
%ADD27C,1.200000*%
%ADD28C,0.750000*%
%ADD29O,1.000000X1.800000*%
%ADD30O,1.000000X2.200000*%
G04 APERTURE END LIST*
%TO.C,A1*%
G36*
X200213334Y-115584667D02*
G01*
X200178467Y-115735670D01*
X200044001Y-115754001D01*
X199834930Y-115661066D01*
X199874667Y-115584667D01*
X200176106Y-115554268D01*
X200213334Y-115584667D01*
G37*
G36*
X200467334Y-114314667D02*
G01*
X200497733Y-114616106D01*
X200467334Y-114653334D01*
X200316331Y-114618467D01*
X200298001Y-114484001D01*
X200390935Y-114274930D01*
X200467334Y-114314667D01*
G37*
G36*
X197250001Y-116643001D02*
G01*
X197492312Y-116871247D01*
X197504001Y-116911991D01*
X197307483Y-117021088D01*
X197250001Y-117024001D01*
X197005761Y-116828737D01*
X196996001Y-116755010D01*
X197151610Y-116603312D01*
X197250001Y-116643001D01*
G37*
G36*
X199008431Y-115638611D02*
G01*
X199028001Y-115724020D01*
X198842643Y-116083094D01*
X198774001Y-116135001D01*
X198539570Y-116123390D01*
X198520001Y-116037981D01*
X198705358Y-115678907D01*
X198774001Y-115627001D01*
X199008431Y-115638611D01*
G37*
G36*
X201480689Y-113623610D02*
G01*
X201441001Y-113722001D01*
X201212754Y-113964312D01*
X201172010Y-113976001D01*
X201062913Y-113779483D01*
X201060001Y-113722001D01*
X201255264Y-113477761D01*
X201328991Y-113468001D01*
X201480689Y-113623610D01*
G37*
G36*
X206386620Y-113915288D02*
G01*
X206394001Y-113976001D01*
X206200713Y-114222620D01*
X206140001Y-114230001D01*
X205893381Y-114036713D01*
X205886001Y-113976001D01*
X206079288Y-113729381D01*
X206140001Y-113722001D01*
X206386620Y-113915288D01*
G37*
G36*
X216333356Y-113849001D02*
G01*
X216872055Y-113849001D01*
X216892500Y-114371754D01*
X216950060Y-114506677D01*
X216982519Y-114423462D01*
X217029830Y-113813498D01*
X216987645Y-113407462D01*
X216920734Y-113266687D01*
X216878644Y-113571981D01*
X216872055Y-113849001D01*
X216333356Y-113849001D01*
X216321507Y-113597205D01*
X216368709Y-112970796D01*
X216526061Y-112602528D01*
X216639758Y-112486228D01*
X217079552Y-112284635D01*
X217304874Y-112318124D01*
X217473820Y-112677403D01*
X217549963Y-113394946D01*
X217533249Y-114329555D01*
X217423625Y-115340034D01*
X217306248Y-115954577D01*
X217177354Y-116957533D01*
X217319328Y-117600747D01*
X217714611Y-117849573D01*
X218209842Y-117737578D01*
X218729644Y-117422774D01*
X218776437Y-117110178D01*
X218459000Y-116770000D01*
X218110448Y-116275495D01*
X218180464Y-116009585D01*
X218818844Y-116009585D01*
X218930398Y-116472287D01*
X219249113Y-116963497D01*
X219700819Y-117479000D01*
X220045418Y-117765294D01*
X220110001Y-117786001D01*
X220389168Y-117603217D01*
X220822034Y-117146710D01*
X220970888Y-116963497D01*
X221349464Y-116335823D01*
X221376378Y-115935763D01*
X221074945Y-115832771D01*
X220645270Y-115993406D01*
X220020873Y-116147924D01*
X219574731Y-115993406D01*
X219041392Y-115826807D01*
X218818844Y-116009585D01*
X218180464Y-116009585D01*
X218250597Y-115743227D01*
X218586000Y-115373001D01*
X218985357Y-115064496D01*
X219286601Y-115110767D01*
X219602001Y-115373000D01*
X219999112Y-115679945D01*
X220299942Y-115636118D01*
X220626965Y-115364888D01*
X221014111Y-115061673D01*
X221302466Y-115093168D01*
X221690601Y-115443712D01*
X222052281Y-115889371D01*
X222056601Y-116285608D01*
X221905677Y-116609972D01*
X221720110Y-117227792D01*
X221851507Y-117663535D01*
X222156991Y-117786001D01*
X222289091Y-117556590D01*
X222375893Y-116965950D01*
X222396001Y-116418445D01*
X222396000Y-115050890D01*
X223563305Y-115090182D01*
X224528200Y-115231793D01*
X225060183Y-115580192D01*
X225286029Y-116072061D01*
X225481263Y-116795161D01*
X225613405Y-117565713D01*
X225649979Y-118199934D01*
X225576244Y-118500424D01*
X225340003Y-118488168D01*
X225110563Y-118118662D01*
X224961389Y-117538263D01*
X224939890Y-117232643D01*
X224761106Y-116514830D01*
X224323669Y-115964239D01*
X223783794Y-115754001D01*
X223365066Y-115981000D01*
X223042348Y-116554102D01*
X222904458Y-117311458D01*
X222904001Y-117357201D01*
X222754373Y-117971262D01*
X222518236Y-118297955D01*
X222153251Y-118472069D01*
X221757993Y-118274275D01*
X221629236Y-118162689D01*
X221231333Y-117857077D01*
X220928870Y-117907718D01*
X220622765Y-118162689D01*
X220189982Y-118459146D01*
X219840397Y-118378648D01*
X219725528Y-118291119D01*
X219369125Y-118107609D01*
X218876291Y-118137945D01*
X218293812Y-118306604D01*
X217616578Y-118500481D01*
X217237618Y-118493580D01*
X216985223Y-118277950D01*
X216960532Y-118244872D01*
X216684627Y-117988045D01*
X216319485Y-118035563D01*
X215997092Y-118190598D01*
X215309044Y-118395249D01*
X214367039Y-118484158D01*
X213976336Y-118479462D01*
X213167101Y-118412286D01*
X212738991Y-118271378D01*
X212565680Y-118006561D01*
X212546838Y-117911695D01*
X212374127Y-116966957D01*
X212201584Y-116473891D01*
X212008142Y-116376612D01*
X211974554Y-116393603D01*
X211817019Y-116723447D01*
X211732536Y-117353148D01*
X211728001Y-117546991D01*
X211670879Y-118177652D01*
X211528422Y-118524714D01*
X211474001Y-118548001D01*
X211313974Y-118322885D01*
X211225909Y-117761465D01*
X211220001Y-117546991D01*
X211162739Y-116872008D01*
X211020501Y-116441099D01*
X210973447Y-116393603D01*
X210774025Y-116435140D01*
X210598993Y-116866419D01*
X210427691Y-117742313D01*
X210401406Y-117913001D01*
X210264757Y-118229584D01*
X209891070Y-118398298D01*
X209150261Y-118474631D01*
X209076417Y-118478172D01*
X208271506Y-118454805D01*
X207648512Y-118330533D01*
X207472542Y-118240505D01*
X207119148Y-118089155D01*
X206893219Y-118308210D01*
X206601496Y-118526007D01*
X206321167Y-118293937D01*
X206088060Y-117669545D01*
X205944836Y-116784952D01*
X205916901Y-116586525D01*
X207216013Y-116586525D01*
X207375992Y-117190552D01*
X207717566Y-117654960D01*
X208045001Y-117786001D01*
X208426594Y-117577044D01*
X208735204Y-117131275D01*
X208872250Y-116421902D01*
X208646229Y-115875701D01*
X208120072Y-115629824D01*
X208045001Y-115627001D01*
X207539172Y-115823989D01*
X207324425Y-116051775D01*
X207216013Y-116586525D01*
X205916901Y-116586525D01*
X205834902Y-116004074D01*
X205663697Y-115614793D01*
X205376394Y-115500747D01*
X205339398Y-115500001D01*
X204881875Y-115733233D01*
X204541460Y-116357851D01*
X204371679Y-117261235D01*
X204362001Y-117556508D01*
X204216887Y-118229887D01*
X203853726Y-118533014D01*
X203380787Y-118484969D01*
X202906341Y-118104833D01*
X202538658Y-117411689D01*
X202484499Y-117225620D01*
X202257997Y-116334004D01*
X201255513Y-117336488D01*
X199834369Y-118463940D01*
X198285173Y-119111946D01*
X196706640Y-119304422D01*
X195651973Y-119236151D01*
X194933750Y-118997022D01*
X194674640Y-118820030D01*
X194345698Y-118441986D01*
X194787297Y-118441986D01*
X195216843Y-118714333D01*
X195281501Y-118745995D01*
X196415096Y-119018077D01*
X197808289Y-118878614D01*
X198596113Y-118653046D01*
X199631468Y-118133910D01*
X200702679Y-117324629D01*
X201682241Y-116350817D01*
X202442648Y-115338088D01*
X202841648Y-114470454D01*
X203028617Y-113441390D01*
X203007514Y-112613431D01*
X202787662Y-112098681D01*
X202636422Y-112002229D01*
X202420686Y-112064022D01*
X202464230Y-112517370D01*
X202464897Y-112520032D01*
X202489149Y-113440869D01*
X202214749Y-114522662D01*
X201704527Y-115569442D01*
X201320801Y-116088449D01*
X200663741Y-116695738D01*
X199792081Y-117328077D01*
X199276893Y-117637265D01*
X198447822Y-118043514D01*
X197739208Y-118238806D01*
X196904302Y-118274310D01*
X196338404Y-118246614D01*
X195336732Y-118213486D01*
X194823478Y-118276823D01*
X194787297Y-118441986D01*
X194345698Y-118441986D01*
X194277890Y-118364056D01*
X194329001Y-118077961D01*
X194543511Y-117886253D01*
X195402920Y-117886253D01*
X195860913Y-118045962D01*
X196634100Y-118044009D01*
X197563487Y-117900969D01*
X198490080Y-117637417D01*
X198995810Y-117421313D01*
X200300734Y-116557826D01*
X201333874Y-115470113D01*
X201987940Y-114276315D01*
X202060728Y-114046443D01*
X202285693Y-113084801D01*
X202301079Y-112564693D01*
X202178271Y-112452000D01*
X201929300Y-112600017D01*
X201370997Y-113001179D01*
X200590606Y-113591157D01*
X199828771Y-114184413D01*
X198779693Y-115008403D01*
X197735875Y-115823246D01*
X196847312Y-116512076D01*
X196440086Y-116824666D01*
X195831917Y-117329821D01*
X195461304Y-117720201D01*
X195402920Y-117886253D01*
X194543511Y-117886253D01*
X194823534Y-117635996D01*
X195595428Y-117004133D01*
X196570278Y-116237690D01*
X197673680Y-115391988D01*
X198831233Y-114522349D01*
X199968532Y-113684091D01*
X201011173Y-112932536D01*
X201884754Y-112323003D01*
X202514871Y-111910813D01*
X202827120Y-111751287D01*
X202838001Y-111751361D01*
X203168805Y-112060024D01*
X203305340Y-112809281D01*
X203245458Y-113969458D01*
X203077093Y-115055545D01*
X202913167Y-116118770D01*
X202899464Y-116844206D01*
X203034443Y-117378869D01*
X203052330Y-117419367D01*
X203354471Y-117881185D01*
X203600851Y-117863842D01*
X203772672Y-117394828D01*
X203851134Y-116501638D01*
X203854001Y-116247010D01*
X203892902Y-115441374D01*
X203994341Y-114895836D01*
X204108001Y-114738001D01*
X204354679Y-114925456D01*
X204362001Y-114984029D01*
X204547578Y-115150508D01*
X204679501Y-115132244D01*
X205569034Y-114880261D01*
X206084258Y-114836739D01*
X206330500Y-115042774D01*
X206413089Y-115539460D01*
X206423465Y-115812661D01*
X206464263Y-116350465D01*
X206534750Y-116495071D01*
X206576687Y-116389001D01*
X206956704Y-115565299D01*
X207522722Y-115127088D01*
X208162916Y-115048319D01*
X208765458Y-115302947D01*
X209218522Y-115864924D01*
X209410283Y-116708205D01*
X209396949Y-117045896D01*
X209428564Y-117682353D01*
X209632501Y-117972491D01*
X209827178Y-117877945D01*
X209927701Y-117384656D01*
X209950001Y-116679157D01*
X210014891Y-115685584D01*
X210218356Y-115167784D01*
X210573588Y-115109244D01*
X210982006Y-115387485D01*
X211376570Y-115686157D01*
X211682218Y-115624908D01*
X211965995Y-115387485D01*
X212457347Y-115086508D01*
X212789030Y-115236087D01*
X212974753Y-115851833D01*
X213025830Y-116594491D01*
X213053660Y-117913001D01*
X213271209Y-116806414D01*
X213376887Y-116429038D01*
X214014001Y-116429038D01*
X214114433Y-116655733D01*
X214489357Y-116533404D01*
X214507854Y-116523571D01*
X214971130Y-116209376D01*
X215146998Y-116024186D01*
X215111916Y-115700584D01*
X215023017Y-115622685D01*
X214626441Y-115625997D01*
X214223753Y-115932149D01*
X214016268Y-116380261D01*
X214014001Y-116429038D01*
X213376887Y-116429038D01*
X213555575Y-115790940D01*
X213949294Y-115210897D01*
X214504245Y-114996977D01*
X214629301Y-114992000D01*
X215358932Y-115155156D01*
X215719677Y-115572142D01*
X215698486Y-116134238D01*
X215282311Y-116732722D01*
X214875245Y-117041154D01*
X214327667Y-117414356D01*
X214176552Y-117648894D01*
X214364942Y-117835176D01*
X214372370Y-117839360D01*
X215045911Y-117958673D01*
X215701857Y-117643163D01*
X216147767Y-117069500D01*
X216358408Y-116342165D01*
X216402761Y-115255270D01*
X216368866Y-114603595D01*
X216333356Y-113849001D01*
G37*
%TD*%
D10*
%TO.C,SW64*%
X235500000Y-160000000D03*
X184500000Y-160000000D03*
X212500000Y-129400000D03*
X207500000Y-129400000D03*
X210000000Y-129400000D03*
D11*
X240099999Y-159999999D03*
D12*
X225100000Y-186153967D03*
X225100000Y-133846033D03*
D13*
X224500000Y-160000000D03*
X195500000Y-160000000D03*
D12*
X194900000Y-186153967D03*
X194900000Y-133846033D03*
D11*
X179899999Y-159999999D03*
%TD*%
D14*
%TO.C,H3*%
X77500000Y-69700000D03*
%TD*%
%TO.C,H2*%
X342600000Y-69699998D03*
%TD*%
D15*
%TO.C,J9*%
X348897586Y-86580039D03*
D16*
X346444134Y-87237439D03*
X343990683Y-87894840D03*
X341537231Y-88552240D03*
%TD*%
D13*
%TO.C,H8*%
X210000000Y-193500000D03*
%TD*%
D17*
%TO.C,J4*%
X186899998Y-91750002D03*
D18*
X186899997Y-89750001D03*
X186899997Y-87750001D03*
X186899997Y-85750001D03*
X186899997Y-83750001D03*
X186899997Y-81750001D03*
X186899997Y-79750001D03*
%TD*%
D19*
%TO.C,J7*%
X189999999Y-78129999D03*
D20*
X189999999Y-80669999D03*
X189999999Y-83209999D03*
X189999999Y-85749999D03*
X189999999Y-88289999D03*
X189999999Y-90829999D03*
X189999999Y-93369999D03*
D21*
X190250000Y-69750000D03*
X190250000Y-101750000D03*
X229750000Y-69750000D03*
X229750000Y-101750000D03*
%TD*%
D14*
%TO.C,H1*%
X210000000Y-214356792D03*
%TD*%
D22*
%TO.C,SW25*%
X151459522Y-180253811D03*
D23*
X151799818Y-174584402D03*
D24*
X147060113Y-177713811D03*
D23*
X145030556Y-173609106D03*
D22*
X142660704Y-175173811D03*
%TD*%
%TO.C,SW30*%
X168017842Y-194685350D03*
D23*
X169813894Y-189297197D03*
D24*
X164425740Y-191093248D03*
D23*
X163527714Y-186603120D03*
D22*
X160833638Y-187501146D03*
%TD*%
%TO.C,SW1*%
X83242698Y-81232843D03*
D23*
X82104047Y-75668539D03*
D24*
X78335795Y-79918042D03*
D23*
X75313018Y-76478490D03*
D22*
X73428892Y-78603241D03*
%TD*%
%TO.C,SW24*%
X143903674Y-149257191D03*
D23*
X142765023Y-143692887D03*
D24*
X138996771Y-147942390D03*
D23*
X135973994Y-144502838D03*
D22*
X134089868Y-146627589D03*
%TD*%
%TO.C,SW29*%
X161482794Y-157254534D03*
D23*
X160344143Y-151690230D03*
D24*
X156575891Y-155939733D03*
D23*
X153553114Y-152500181D03*
D22*
X151668988Y-154624932D03*
%TD*%
%TO.C,SW14*%
X107101883Y-139396197D03*
D23*
X105963232Y-133831893D03*
D24*
X102194980Y-138081396D03*
D23*
X99172203Y-134641844D03*
D22*
X97288077Y-136766595D03*
%TD*%
%TO.C,SW19*%
X126529963Y-140493160D03*
D23*
X125391312Y-134928856D03*
D24*
X121623060Y-139178359D03*
D23*
X118600283Y-135738807D03*
D22*
X116716157Y-137863558D03*
%TD*%
%TO.C,SW5*%
X63520677Y-154836408D03*
D23*
X62382026Y-149272104D03*
D24*
X58613774Y-153521607D03*
D23*
X55590997Y-150082055D03*
D22*
X53706871Y-152206806D03*
%TD*%
%TO.C,SW22*%
X153764664Y-112455407D03*
D23*
X152626013Y-106891103D03*
D24*
X148857761Y-111140606D03*
D23*
X145834984Y-107701054D03*
D22*
X143950858Y-109825805D03*
%TD*%
%TO.C,SW27*%
X171343799Y-120452746D03*
D23*
X170205148Y-114888442D03*
D24*
X166436896Y-119137945D03*
D23*
X163414119Y-115698393D03*
D22*
X161529993Y-117823144D03*
%TD*%
%TO.C,SW3*%
X73381669Y-118034636D03*
D23*
X72243018Y-112470332D03*
D24*
X68474766Y-116719835D03*
D23*
X65451989Y-113280283D03*
D22*
X63567863Y-115405034D03*
%TD*%
%TO.C,SW8*%
X92398882Y-120665009D03*
D23*
X91260231Y-115100705D03*
D24*
X87491979Y-119350208D03*
D23*
X84469202Y-115910656D03*
D22*
X82585076Y-118035407D03*
%TD*%
%TO.C,SW13*%
X112032396Y-120995295D03*
D23*
X110893745Y-115430991D03*
D24*
X107125493Y-119680494D03*
D23*
X104102716Y-116240942D03*
D22*
X102218590Y-118365693D03*
%TD*%
%TO.C,SW23*%
X148834179Y-130856335D03*
D23*
X147695528Y-125292031D03*
D24*
X143927276Y-129541534D03*
D23*
X140904499Y-126101982D03*
D22*
X139020373Y-128226733D03*
%TD*%
%TO.C,SW18*%
X131460451Y-122092281D03*
D23*
X130321800Y-116527977D03*
D24*
X126553548Y-120777480D03*
D23*
X123530771Y-117337928D03*
D22*
X121646645Y-119462679D03*
%TD*%
%TO.C,SW28*%
X166413291Y-138853634D03*
D23*
X165274640Y-133289330D03*
D24*
X161506388Y-137538833D03*
D23*
X158483611Y-134099281D03*
D22*
X156599485Y-136224032D03*
%TD*%
%TO.C,SW4*%
X68451187Y-136435532D03*
D23*
X67312536Y-130871228D03*
D24*
X63544284Y-135120731D03*
D23*
X60521507Y-131681179D03*
D22*
X58637381Y-133805930D03*
%TD*%
%TO.C,SW9*%
X87468353Y-139065914D03*
D23*
X86329702Y-133501610D03*
D24*
X82561450Y-137751113D03*
D23*
X79538673Y-134311561D03*
D22*
X77654547Y-136436312D03*
%TD*%
%TO.C,SW10*%
X82537874Y-157466798D03*
D23*
X81399223Y-151902494D03*
D24*
X77630971Y-156151997D03*
D23*
X74608194Y-152712445D03*
D22*
X72724068Y-154837196D03*
%TD*%
%TO.C,SW15*%
X102171385Y-157797071D03*
D23*
X101032734Y-152232767D03*
D24*
X97264482Y-156482270D03*
D23*
X94241705Y-153042718D03*
D22*
X92357579Y-155167469D03*
%TD*%
%TO.C,SW20*%
X131606896Y-170614800D03*
D23*
X130468245Y-165050496D03*
D24*
X126699993Y-169299999D03*
D23*
X123677216Y-165860447D03*
D22*
X121793090Y-167985198D03*
%TD*%
%TO.C,SW11*%
X121893398Y-84193547D03*
D23*
X120754747Y-78629243D03*
D24*
X116986495Y-82878746D03*
D23*
X113963718Y-79439194D03*
D22*
X112079592Y-81563945D03*
%TD*%
%TO.C,SW2*%
X78312189Y-99633743D03*
D23*
X77173538Y-94069439D03*
D24*
X73405286Y-98318942D03*
D23*
X70382509Y-94879390D03*
D22*
X68498383Y-97004141D03*
%TD*%
%TO.C,SW12*%
X116962890Y-102594408D03*
D23*
X115824239Y-97030104D03*
D24*
X112055987Y-101279607D03*
D23*
X109033210Y-97840055D03*
D22*
X107149084Y-99964806D03*
%TD*%
%TO.C,SW21*%
X158695175Y-94054528D03*
D23*
X157556524Y-88490224D03*
D24*
X153788272Y-92739727D03*
D23*
X150765495Y-89300175D03*
D22*
X148881369Y-91424926D03*
%TD*%
%TO.C,SW17*%
X136390971Y-103691409D03*
D23*
X135252320Y-98127105D03*
D24*
X131484068Y-102376608D03*
D23*
X128461291Y-98937056D03*
D22*
X126577165Y-101061807D03*
%TD*%
%TO.C,SW16*%
X141321471Y-85290502D03*
D23*
X140182820Y-79726198D03*
D24*
X136414568Y-83975701D03*
D23*
X133391791Y-80536149D03*
D22*
X131507665Y-82660900D03*
%TD*%
%TO.C,SW6*%
X102259884Y-83863246D03*
D23*
X101121233Y-78298942D03*
D24*
X97352981Y-82548445D03*
D23*
X94330204Y-79108893D03*
D22*
X92446078Y-81233644D03*
%TD*%
%TO.C,SW7*%
X97329383Y-102264135D03*
D23*
X96190732Y-96699831D03*
D24*
X92422480Y-100949334D03*
D23*
X89399703Y-97509782D03*
D22*
X87515577Y-99634533D03*
%TD*%
%TO.C,SW26*%
X176274303Y-102051857D03*
D23*
X175135652Y-96487553D03*
D24*
X171367400Y-100737056D03*
D23*
X168344623Y-97297504D03*
D22*
X166460497Y-99422255D03*
%TD*%
%TO.C,SW31*%
X253539533Y-99422262D03*
D23*
X249771281Y-95172759D03*
D24*
X248632630Y-100737063D03*
D23*
X244295052Y-99269712D03*
D22*
X243725727Y-102051864D03*
%TD*%
%TO.C,SW62*%
X215080020Y-205909995D03*
D23*
X212540020Y-200829995D03*
D24*
X210000020Y-205909995D03*
D23*
X206190020Y-203369995D03*
D22*
X204920020Y-205909995D03*
%TD*%
%TO.C,SW45*%
X298206931Y-167985196D03*
D23*
X294438679Y-163735693D03*
D24*
X293300028Y-169299997D03*
D23*
X288962450Y-167832646D03*
D22*
X288393125Y-170614798D03*
%TD*%
%TO.C,SW49*%
X322711945Y-136766614D03*
D23*
X318943693Y-132517111D03*
D24*
X317805042Y-138081415D03*
D23*
X313467464Y-136614064D03*
D22*
X312898139Y-139396216D03*
%TD*%
D13*
%TO.C,H7*%
X331482362Y-167068149D03*
%TD*%
D22*
%TO.C,SW47*%
X312850946Y-99964823D03*
D23*
X309082694Y-95715320D03*
D24*
X307944043Y-101279624D03*
D23*
X303606465Y-99812273D03*
D22*
X303037140Y-102594425D03*
%TD*%
%TO.C,SW63*%
X236266900Y-201775206D03*
D23*
X232498648Y-197525703D03*
D24*
X231359997Y-203090007D03*
D23*
X227022419Y-201622656D03*
D22*
X226453094Y-204404808D03*
%TD*%
%TO.C,SW61*%
X193546901Y-204404785D03*
D23*
X192408250Y-198840481D03*
D24*
X188639998Y-203089984D03*
D23*
X185617221Y-199650432D03*
D22*
X183733095Y-201775183D03*
%TD*%
%TO.C,SW33*%
X263400532Y-136224028D03*
D23*
X259632280Y-131974525D03*
D24*
X258493629Y-137538829D03*
D23*
X254156051Y-136071478D03*
D22*
X253586726Y-138853630D03*
%TD*%
%TO.C,SW59*%
X361362650Y-133805926D03*
D23*
X357594398Y-129556423D03*
D24*
X356455747Y-135120727D03*
D23*
X352118169Y-133653376D03*
D22*
X351548844Y-136435528D03*
%TD*%
%TO.C,SW38*%
X280979682Y-128226724D03*
D23*
X277211430Y-123977221D03*
D24*
X276072779Y-129541525D03*
D23*
X271735201Y-128074174D03*
D22*
X271165876Y-130856326D03*
%TD*%
%TO.C,SW50*%
X327642445Y-155167488D03*
D23*
X323874193Y-150917985D03*
D24*
X322735542Y-156482289D03*
D23*
X318397964Y-155014938D03*
D22*
X317828639Y-157797090D03*
%TD*%
D25*
%TO.C,SW65*%
X225500002Y-61570000D03*
X222500002Y-61570000D03*
%TD*%
D22*
%TO.C,SW58*%
X356432146Y-115405016D03*
D23*
X352663894Y-111155513D03*
D24*
X351525243Y-116719817D03*
D23*
X347187665Y-115252466D03*
D22*
X346618340Y-118034618D03*
%TD*%
D26*
%TO.C,U4*%
X215349999Y-154339999D03*
D27*
X215350000Y-156120000D03*
X215350000Y-157900000D03*
X215350000Y-159680000D03*
X215350000Y-161460000D03*
X215350000Y-163240000D03*
X215350000Y-165020000D03*
X215350000Y-166800000D03*
X204650000Y-167690000D03*
X204650000Y-165910000D03*
X204650000Y-164130000D03*
X204650000Y-162350000D03*
X204650000Y-160570000D03*
X204650000Y-158790000D03*
X204650000Y-157010000D03*
X204650000Y-155230000D03*
%TD*%
D22*
%TO.C,SW43*%
X298353357Y-119462678D03*
D23*
X294585105Y-115213175D03*
D24*
X293446454Y-120777479D03*
D23*
X289108876Y-119310128D03*
D22*
X288539551Y-122092280D03*
%TD*%
D28*
%TO.C,SW66*%
X196000000Y-60425000D03*
X196000000Y-63175000D03*
%TD*%
D22*
%TO.C,SW57*%
X351501639Y-97004140D03*
D23*
X347733387Y-92754637D03*
D24*
X346594736Y-98318941D03*
D23*
X342257158Y-96851590D03*
D22*
X341687833Y-99633742D03*
%TD*%
%TO.C,SW52*%
X332484459Y-99634529D03*
D23*
X328716207Y-95385026D03*
D24*
X327577556Y-100949330D03*
D23*
X323239978Y-99481979D03*
D22*
X322670653Y-102264131D03*
%TD*%
%TO.C,SW44*%
X303283872Y-137863562D03*
D23*
X299515620Y-133614059D03*
D24*
X298376969Y-139178363D03*
D23*
X294039391Y-137711012D03*
D22*
X293470066Y-140493164D03*
%TD*%
%TO.C,SW41*%
X288492360Y-82660914D03*
D23*
X284724108Y-78411411D03*
D24*
X283585457Y-83975715D03*
D23*
X279247879Y-82508364D03*
D22*
X278678554Y-85290516D03*
%TD*%
D29*
%TO.C,J2*%
X215619999Y-66099999D03*
D30*
X215619999Y-62099999D03*
D29*
X204379999Y-66099999D03*
D30*
X204379999Y-62099999D03*
%TD*%
D13*
%TO.C,H6*%
X88517641Y-167068148D03*
%TD*%
D22*
%TO.C,SW40*%
X277339315Y-175173790D03*
D23*
X272599611Y-172044381D03*
D24*
X272939906Y-177713790D03*
D23*
X268370349Y-177419085D03*
D22*
X268540497Y-180253790D03*
%TD*%
%TO.C,SW46*%
X307920434Y-81563944D03*
D23*
X304152182Y-77314441D03*
D24*
X303013531Y-82878745D03*
D23*
X298675953Y-81411394D03*
D22*
X298106628Y-84193546D03*
%TD*%
%TO.C,SW51*%
X327553947Y-81233657D03*
D23*
X323785695Y-76984154D03*
D24*
X322647044Y-82548458D03*
D23*
X318309466Y-81081107D03*
D22*
X317740141Y-83863259D03*
%TD*%
%TO.C,SW60*%
X366293144Y-152206799D03*
D23*
X362524892Y-147957296D03*
D24*
X361386241Y-153521600D03*
D23*
X357048663Y-152054249D03*
D22*
X356479338Y-154836401D03*
%TD*%
%TO.C,SW37*%
X276049178Y-109825841D03*
D23*
X272280926Y-105576338D03*
D24*
X271142275Y-111140642D03*
D23*
X266804697Y-109673291D03*
D22*
X266235372Y-112455443D03*
%TD*%
D13*
%TO.C,H4*%
X250400000Y-71999998D03*
%TD*%
D22*
%TO.C,SW54*%
X342345466Y-136436316D03*
D23*
X338577214Y-132186813D03*
D24*
X337438563Y-137751117D03*
D23*
X333100985Y-136283766D03*
D22*
X332531660Y-139065918D03*
%TD*%
%TO.C,SW55*%
X347275965Y-154837202D03*
D23*
X343507713Y-150587699D03*
D24*
X342369062Y-156152003D03*
D23*
X338031484Y-154684652D03*
D22*
X337462159Y-157466804D03*
%TD*%
%TO.C,SW48*%
X317781444Y-118365713D03*
D23*
X314013192Y-114116210D03*
D24*
X312874541Y-119680514D03*
D23*
X308536963Y-118213163D03*
D22*
X307967638Y-120995315D03*
%TD*%
D13*
%TO.C,H5*%
X169600000Y-72000000D03*
%TD*%
D22*
%TO.C,SW53*%
X337414960Y-118035420D03*
D23*
X333646708Y-113785917D03*
D24*
X332508057Y-119350221D03*
D23*
X328170479Y-117882870D03*
D22*
X327601154Y-120665022D03*
%TD*%
%TO.C,SW35*%
X259166390Y-187501135D03*
D23*
X253778237Y-185705083D03*
D24*
X255574288Y-191093237D03*
D23*
X251084160Y-191991263D03*
D22*
X251982186Y-194685339D03*
%TD*%
%TO.C,SW34*%
X268331037Y-154624916D03*
D23*
X264562785Y-150375413D03*
D24*
X263424134Y-155939717D03*
D23*
X259086556Y-154472366D03*
D22*
X258517231Y-157254518D03*
%TD*%
D19*
%TO.C,J1*%
X204259996Y-108299364D03*
D20*
X206799996Y-108299364D03*
X209339996Y-108299364D03*
%TD*%
D22*
%TO.C,SW42*%
X293422859Y-101061796D03*
D23*
X289654607Y-96812293D03*
D24*
X288515956Y-102376597D03*
D23*
X284178378Y-100909246D03*
D22*
X283609053Y-103691398D03*
%TD*%
%TO.C,SW56*%
X346571144Y-78603262D03*
D23*
X342802892Y-74353759D03*
D24*
X341664241Y-79918063D03*
D23*
X337326663Y-78450712D03*
D22*
X336757338Y-81232864D03*
%TD*%
%TO.C,SW36*%
X271118656Y-91424958D03*
D23*
X267350404Y-87175455D03*
D24*
X266211753Y-92739759D03*
D23*
X261874175Y-91272408D03*
D22*
X261304850Y-94054560D03*
%TD*%
%TO.C,SW39*%
X285910177Y-146627605D03*
D23*
X282141925Y-142378102D03*
D24*
X281003274Y-147942406D03*
D23*
X276665696Y-146475055D03*
D22*
X276096371Y-149257207D03*
%TD*%
%TO.C,SW32*%
X258470029Y-117823152D03*
D23*
X254701777Y-113573649D03*
D24*
X253563126Y-119137953D03*
D23*
X249225548Y-117670602D03*
D22*
X248656223Y-120452754D03*
%TD*%
M02*
