%TF.GenerationSoftware,KiCad,Pcbnew,(7.0.0)*%
%TF.CreationDate,2023-05-19T21:54:14+01:00*%
%TF.ProjectId,Honeydew,486f6e65-7964-4657-972e-6b696361645f,V2.0*%
%TF.SameCoordinates,Original*%
%TF.FileFunction,Soldermask,Bot*%
%TF.FilePolarity,Negative*%
%FSLAX46Y46*%
G04 Gerber Fmt 4.6, Leading zero omitted, Abs format (unit mm)*
G04 Created by KiCad (PCBNEW (7.0.0)) date 2023-05-19 21:54:14*
%MOMM*%
%LPD*%
G01*
G04 APERTURE LIST*
G04 Aperture macros list*
%AMRoundRect*
0 Rectangle with rounded corners*
0 $1 Rounding radius*
0 $2 $3 $4 $5 $6 $7 $8 $9 X,Y pos of 4 corners*
0 Add a 4 corners polygon primitive as box body*
4,1,4,$2,$3,$4,$5,$6,$7,$8,$9,$2,$3,0*
0 Add four circle primitives for the rounded corners*
1,1,$1+$1,$2,$3*
1,1,$1+$1,$4,$5*
1,1,$1+$1,$6,$7*
1,1,$1+$1,$8,$9*
0 Add four rect primitives between the rounded corners*
20,1,$1+$1,$2,$3,$4,$5,0*
20,1,$1+$1,$4,$5,$6,$7,0*
20,1,$1+$1,$6,$7,$8,$9,0*
20,1,$1+$1,$8,$9,$2,$3,0*%
%AMRotRect*
0 Rectangle, with rotation*
0 The origin of the aperture is its center*
0 $1 length*
0 $2 width*
0 $3 Rotation angle, in degrees counterclockwise*
0 Add horizontal line*
21,1,$1,$2,0,0,$3*%
G04 Aperture macros list end*
%ADD10C,2.200000*%
%ADD11C,4.000000*%
%ADD12C,4.200000*%
%ADD13C,2.000000*%
%ADD14RotRect,4.400000X4.400000X150.000000*%
%ADD15C,3.200000*%
%ADD16C,1.152000*%
%ADD17C,5.600000*%
%ADD18R,1.700000X1.700000*%
%ADD19O,1.700000X1.700000*%
%ADD20C,1.750000*%
%ADD21C,3.987800*%
%ADD22C,3.300000*%
%ADD23RotRect,2.500000X2.500000X150.000000*%
%ADD24RotRect,2.500000X2.500000X135.000000*%
%ADD25RotRect,2.500000X2.500000X165.000000*%
%ADD26RotRect,2.500000X2.500000X195.000000*%
%ADD27RoundRect,0.112500X-0.157195X0.151994X-0.060138X-0.210228X0.157195X-0.151994X0.060138X0.210228X0*%
%ADD28RoundRect,0.140000X0.170000X-0.140000X0.170000X0.140000X-0.170000X0.140000X-0.170000X-0.140000X0*%
%ADD29RoundRect,0.135000X0.185000X-0.135000X0.185000X0.135000X-0.185000X0.135000X-0.185000X-0.135000X0*%
%ADD30R,0.300000X0.800000*%
%ADD31R,0.400000X0.800000*%
%ADD32RotRect,1.700000X1.000000X330.000000*%
%ADD33R,2.500000X2.500000*%
%ADD34RoundRect,0.150000X-0.150000X0.512500X-0.150000X-0.512500X0.150000X-0.512500X0.150000X0.512500X0*%
%ADD35RoundRect,0.112500X-0.060138X0.210228X-0.157195X-0.151994X0.060138X-0.210228X0.157195X0.151994X0*%
%ADD36RoundRect,0.140000X-0.140000X-0.170000X0.140000X-0.170000X0.140000X0.170000X-0.140000X0.170000X0*%
%ADD37R,0.300000X0.500000*%
%ADD38R,1.600000X0.900000*%
%ADD39RotRect,1.700000X1.000000X195.000000*%
%ADD40RoundRect,0.135000X0.135000X0.185000X-0.135000X0.185000X-0.135000X-0.185000X0.135000X-0.185000X0*%
%ADD41RoundRect,0.140000X-0.091230X-0.200442X0.179229X-0.127973X0.091230X0.200442X-0.179229X0.127973X0*%
%ADD42RotRect,1.700000X1.000000X22.500000*%
%ADD43C,1.700000*%
%ADD44RoundRect,0.140000X-0.179229X-0.127973X0.091230X-0.200442X0.179229X0.127973X-0.091230X0.200442X0*%
%ADD45RoundRect,0.225000X0.250000X-0.225000X0.250000X0.225000X-0.250000X0.225000X-0.250000X-0.225000X0*%
%ADD46RoundRect,0.140000X0.091230X0.200442X-0.179229X0.127973X-0.091230X-0.200442X0.179229X-0.127973X0*%
%ADD47RoundRect,0.225000X-0.335876X-0.017678X-0.017678X-0.335876X0.335876X0.017678X0.017678X0.335876X0*%
%ADD48RotRect,1.700000X1.000000X345.000000*%
%ADD49RoundRect,0.112500X-0.191178X0.106130X-0.003678X-0.218630X0.191178X-0.106130X0.003678X0.218630X0*%
%ADD50R,1.000000X1.000000*%
%ADD51RoundRect,0.140000X0.179229X0.127973X-0.091230X0.200442X-0.179229X-0.127973X0.091230X-0.200442X0*%
%ADD52RoundRect,0.135000X-0.185000X0.135000X-0.185000X-0.135000X0.185000X-0.135000X0.185000X0.135000X0*%
%ADD53RotRect,2.500000X2.500000X210.000000*%
%ADD54RotRect,1.700000X1.000000X15.000000*%
%ADD55RoundRect,0.140000X0.206244X0.077224X-0.036244X0.217224X-0.206244X-0.077224X0.036244X-0.217224X0*%
%ADD56RotRect,1.700000X1.000000X337.500000*%
%ADD57RoundRect,0.140000X-0.219203X-0.021213X-0.021213X-0.219203X0.219203X0.021213X0.021213X0.219203X0*%
%ADD58RoundRect,0.225000X-0.225000X-0.250000X0.225000X-0.250000X0.225000X0.250000X-0.225000X0.250000X0*%
%ADD59RoundRect,0.140000X0.219203X0.021213X0.021213X0.219203X-0.219203X-0.021213X-0.021213X-0.219203X0*%
%ADD60RoundRect,0.140000X0.021213X-0.219203X0.219203X-0.021213X-0.021213X0.219203X-0.219203X0.021213X0*%
%ADD61RoundRect,0.135000X-0.135000X-0.185000X0.135000X-0.185000X0.135000X0.185000X-0.135000X0.185000X0*%
%ADD62RoundRect,0.225000X0.225000X0.250000X-0.225000X0.250000X-0.225000X-0.250000X0.225000X-0.250000X0*%
%ADD63RoundRect,0.112500X-0.187500X-0.112500X0.187500X-0.112500X0.187500X0.112500X-0.187500X0.112500X0*%
%ADD64R,0.300000X0.550000*%
%ADD65RoundRect,0.225000X-0.250000X0.225000X-0.250000X-0.225000X0.250000X-0.225000X0.250000X0.225000X0*%
%ADD66RoundRect,0.140000X0.036244X0.217224X-0.206244X0.077224X-0.036244X-0.217224X0.206244X-0.077224X0*%
%ADD67RoundRect,0.112500X-0.003678X0.218630X-0.191178X-0.106130X0.003678X-0.218630X0.191178X0.106130X0*%
%ADD68R,1.000000X0.800000*%
%ADD69C,0.900000*%
%ADD70R,0.700000X1.500000*%
%ADD71RotRect,1.700000X1.000000X30.000000*%
%ADD72RoundRect,0.112500X-0.112500X0.187500X-0.112500X-0.187500X0.112500X-0.187500X0.112500X0.187500X0*%
%ADD73RoundRect,0.140000X0.140000X0.170000X-0.140000X0.170000X-0.140000X-0.170000X0.140000X-0.170000X0*%
%ADD74RoundRect,0.140000X-0.021213X0.219203X-0.219203X0.021213X0.021213X-0.219203X0.219203X-0.021213X0*%
%ADD75RoundRect,0.250000X0.250000X0.475000X-0.250000X0.475000X-0.250000X-0.475000X0.250000X-0.475000X0*%
%ADD76R,1.200000X1.200000*%
%ADD77C,1.200000*%
%ADD78RotRect,1.700000X1.000000X165.000000*%
%ADD79RoundRect,0.150000X-0.512500X-0.150000X0.512500X-0.150000X0.512500X0.150000X-0.512500X0.150000X0*%
%ADD80RoundRect,0.050000X0.238649X0.309359X-0.309359X-0.238649X-0.238649X-0.309359X0.309359X0.238649X0*%
%ADD81RoundRect,0.050000X-0.238649X0.309359X-0.309359X0.238649X0.238649X-0.309359X0.309359X-0.238649X0*%
%ADD82RotRect,3.200000X3.200000X225.000000*%
%ADD83RoundRect,0.150000X0.150000X-0.512500X0.150000X0.512500X-0.150000X0.512500X-0.150000X-0.512500X0*%
%ADD84RotRect,1.700000X1.000000X247.500000*%
%ADD85R,0.400000X0.650000*%
%ADD86R,1.700000X1.000000*%
%ADD87RoundRect,0.150000X0.200000X-0.150000X0.200000X0.150000X-0.200000X0.150000X-0.200000X-0.150000X0*%
%ADD88C,0.750000*%
%ADD89R,1.550000X1.000000*%
%ADD90RoundRect,0.050000X0.375000X0.050000X-0.375000X0.050000X-0.375000X-0.050000X0.375000X-0.050000X0*%
%ADD91RoundRect,0.050000X0.050000X0.275000X-0.050000X0.275000X-0.050000X-0.275000X0.050000X-0.275000X0*%
%ADD92RotRect,1.700000X1.000000X202.500000*%
%ADD93RoundRect,0.218750X-0.218750X-0.381250X0.218750X-0.381250X0.218750X0.381250X-0.218750X0.381250X0*%
%ADD94RotRect,1.700000X1.000000X315.000000*%
%ADD95RoundRect,0.140000X0.064287X0.210635X-0.194399X0.103484X-0.064287X-0.210635X0.194399X-0.103484X0*%
%ADD96RoundRect,0.150000X-0.825000X-0.150000X0.825000X-0.150000X0.825000X0.150000X-0.825000X0.150000X0*%
%ADD97RoundRect,0.140000X-0.210635X0.064287X-0.103484X-0.194399X0.210635X-0.064287X0.103484X0.194399X0*%
%ADD98R,0.600000X1.050000*%
%ADD99R,0.300000X1.050000*%
%ADD100O,1.000000X2.200000*%
%ADD101O,1.000000X1.800000*%
%ADD102RoundRect,0.112500X0.187500X0.112500X-0.187500X0.112500X-0.187500X-0.112500X0.187500X-0.112500X0*%
%ADD103RoundRect,0.140000X0.103484X-0.194399X0.210635X0.064287X-0.103484X0.194399X-0.210635X-0.064287X0*%
%ADD104RoundRect,0.140000X-0.194399X-0.103484X0.064287X-0.210635X0.194399X0.103484X-0.064287X0.210635X0*%
%ADD105R,2.700000X0.800000*%
%ADD106RoundRect,0.140000X-0.170000X0.140000X-0.170000X-0.140000X0.170000X-0.140000X0.170000X0.140000X0*%
%ADD107RoundRect,0.135000X0.226274X0.035355X0.035355X0.226274X-0.226274X-0.035355X-0.035355X-0.226274X0*%
%ADD108RoundRect,0.140000X0.194399X0.103484X-0.064287X0.210635X-0.194399X-0.103484X0.064287X-0.210635X0*%
%ADD109RoundRect,0.135000X-0.226274X-0.035355X-0.035355X-0.226274X0.226274X0.035355X0.035355X0.226274X0*%
%ADD110RotRect,1.700000X1.000000X45.000000*%
%ADD111RoundRect,0.200000X0.275000X-0.200000X0.275000X0.200000X-0.275000X0.200000X-0.275000X-0.200000X0*%
%ADD112RotRect,1.700000X1.000000X67.500000*%
%ADD113RoundRect,0.140000X0.210635X-0.064287X0.103484X0.194399X-0.210635X0.064287X-0.103484X-0.194399X0*%
%ADD114RoundRect,0.150000X0.353553X0.565685X-0.565685X-0.353553X-0.353553X-0.565685X0.565685X0.353553X0*%
%ADD115RoundRect,0.112500X-0.212132X0.053033X0.053033X-0.212132X0.212132X-0.053033X-0.053033X0.212132X0*%
%ADD116RoundRect,0.150000X0.825000X0.150000X-0.825000X0.150000X-0.825000X-0.150000X0.825000X-0.150000X0*%
%ADD117RoundRect,0.140000X-0.064287X-0.210635X0.194399X-0.103484X0.064287X0.210635X-0.194399X0.103484X0*%
%ADD118RoundRect,0.135000X0.035355X-0.226274X0.226274X-0.035355X-0.035355X0.226274X-0.226274X0.035355X0*%
%ADD119RoundRect,0.140000X-0.103484X0.194399X-0.210635X-0.064287X0.103484X-0.194399X0.210635X0.064287X0*%
%ADD120RotRect,1.700000X1.000000X292.500000*%
%ADD121RotRect,1.700000X1.000000X112.500000*%
%ADD122RotRect,1.400000X1.200000X315.000000*%
%ADD123RotRect,2.500000X2.500000X225.000000*%
%ADD124RoundRect,0.250000X-0.262500X-0.450000X0.262500X-0.450000X0.262500X0.450000X-0.262500X0.450000X0*%
%ADD125RoundRect,0.150000X0.512500X0.150000X-0.512500X0.150000X-0.512500X-0.150000X0.512500X-0.150000X0*%
%ADD126RoundRect,0.112500X0.053033X0.212132X-0.212132X-0.053033X-0.053033X-0.212132X0.212132X0.053033X0*%
%ADD127R,0.650000X0.400000*%
%ADD128RoundRect,0.112500X0.112500X-0.187500X0.112500X0.187500X-0.112500X0.187500X-0.112500X-0.187500X0*%
%ADD129RotRect,1.700000X1.000000X157.500000*%
G04 APERTURE END LIST*
%TO.C,D97*%
G36*
X166918138Y-172302309D02*
G01*
X166418138Y-173168334D01*
X164945895Y-172318334D01*
X165270895Y-171755417D01*
X165749003Y-171627309D01*
X166918138Y-172302309D01*
G37*
%TO.C,D112*%
G36*
X251415531Y-146215854D02*
G01*
X251168044Y-146644515D01*
X249864044Y-146993921D01*
X249605225Y-146027995D01*
X251247299Y-145588003D01*
X251415531Y-146215854D01*
G37*
%TO.C,D138*%
G36*
X183935356Y-116081009D02*
G01*
X182364761Y-116731570D01*
X182116017Y-116131049D01*
X182305435Y-115673752D01*
X183552673Y-115157129D01*
X183935356Y-116081009D01*
G37*
%TO.C,D93*%
G36*
X77445682Y-145218242D02*
G01*
X77186863Y-146184168D01*
X75544789Y-145744175D01*
X75713021Y-145116323D01*
X76141682Y-144868836D01*
X77445682Y-145218242D01*
G37*
%TO.C,D129*%
G36*
X305054097Y-73233879D02*
G01*
X303412023Y-73673871D01*
X303243791Y-73046020D01*
X303491278Y-72617359D01*
X304795278Y-72267953D01*
X305054097Y-73233879D01*
G37*
%TO.C,D131*%
G36*
X198936545Y-113702932D02*
G01*
X198553862Y-114626812D01*
X196983266Y-113976250D01*
X197232011Y-113375728D01*
X197689308Y-113186309D01*
X198936545Y-113702932D01*
G37*
%TO.C,D69*%
G36*
X97167697Y-71614724D02*
G01*
X96908878Y-72580650D01*
X95266804Y-72140657D01*
X95435036Y-71512805D01*
X95863697Y-71265318D01*
X97167697Y-71614724D01*
G37*
%TO.C,D111*%
G36*
X268994666Y-138218547D02*
G01*
X268747179Y-138647208D01*
X267443179Y-138996614D01*
X267184360Y-138030688D01*
X268826434Y-137590696D01*
X268994666Y-138218547D01*
G37*
%TO.C,D68*%
G36*
X77534188Y-71284427D02*
G01*
X77275369Y-72250353D01*
X75633295Y-71810360D01*
X75801527Y-71182508D01*
X76230188Y-70935021D01*
X77534188Y-71284427D01*
G37*
%TO.C,D84*%
G36*
X141687596Y-126274810D02*
G01*
X141428777Y-127240736D01*
X139786703Y-126800743D01*
X139954935Y-126172891D01*
X140383596Y-125925404D01*
X141687596Y-126274810D01*
G37*
%TO.C,D108*%
G36*
X325429963Y-128027249D02*
G01*
X325182476Y-128455910D01*
X323878476Y-128805316D01*
X323619657Y-127839390D01*
X325261731Y-127399398D01*
X325429963Y-128027249D01*
G37*
%TO.C,D94*%
G36*
X106881189Y-158035981D02*
G01*
X106622370Y-159001907D01*
X104980296Y-158561914D01*
X105148528Y-157934062D01*
X105577189Y-157686575D01*
X106881189Y-158035981D01*
G37*
%TO.C,D106*%
G36*
X343793292Y-144207025D02*
G01*
X342151218Y-144647017D01*
X341982986Y-144019166D01*
X342230473Y-143590505D01*
X343534473Y-143241099D01*
X343793292Y-144207025D01*
G37*
%TO.C,D130*%
G36*
X324071293Y-70603476D02*
G01*
X322429219Y-71043468D01*
X322260987Y-70415617D01*
X322508474Y-69986956D01*
X323812474Y-69637550D01*
X324071293Y-70603476D01*
G37*
%TO.C,D116*%
G36*
X295281581Y-110365928D02*
G01*
X293639507Y-110805920D01*
X293471275Y-110178069D01*
X293718762Y-109749408D01*
X295022762Y-109400002D01*
X295281581Y-110365928D01*
G37*
%TO.C,D118*%
G36*
X333932289Y-107405241D02*
G01*
X332290215Y-107845233D01*
X332121983Y-107217382D01*
X332369470Y-106788721D01*
X333673470Y-106439315D01*
X333932289Y-107405241D01*
G37*
%TO.C,D109*%
G36*
X305796442Y-128357545D02*
G01*
X305548955Y-128786206D01*
X304244955Y-129135612D01*
X303986136Y-128169686D01*
X305628210Y-127729694D01*
X305796442Y-128357545D01*
G37*
%TO.C,D99*%
G36*
X216290917Y-175068329D02*
G01*
X214818674Y-175918329D01*
X214493674Y-175355412D01*
X214621782Y-174877304D01*
X215790917Y-174202304D01*
X216290917Y-175068329D01*
G37*
%TO.C,D79*%
G36*
X48655971Y-105455813D02*
G01*
X48397152Y-106421739D01*
X46755078Y-105981746D01*
X46923310Y-105353894D01*
X47351971Y-105106407D01*
X48655971Y-105455813D01*
G37*
%TO.C,D110*%
G36*
X286368368Y-129454493D02*
G01*
X286120881Y-129883154D01*
X284816881Y-130232560D01*
X284558062Y-129266634D01*
X286200136Y-128826642D01*
X286368368Y-129454493D01*
G37*
%TO.C,D120*%
G36*
X315568956Y-91225469D02*
G01*
X315321469Y-91654130D01*
X314017469Y-92003536D01*
X313758650Y-91037610D01*
X315400724Y-90597618D01*
X315568956Y-91225469D01*
G37*
%TO.C,D86*%
G36*
X124128221Y-139454168D02*
G01*
X123959989Y-140082020D01*
X123531328Y-140329507D01*
X122227328Y-139980101D01*
X122486147Y-139014175D01*
X124128221Y-139454168D01*
G37*
%TO.C,D105*%
G36*
X324776112Y-146837427D02*
G01*
X323134038Y-147277419D01*
X322965806Y-146649568D01*
X323213293Y-146220907D01*
X324517293Y-145871501D01*
X324776112Y-146837427D01*
G37*
%TO.C,D133*%
G36*
X212624263Y-137232041D02*
G01*
X212813682Y-137689338D01*
X212297059Y-138936575D01*
X211373179Y-138553892D01*
X212023741Y-136983296D01*
X212624263Y-137232041D01*
G37*
%TO.C,D100*%
G36*
X191099972Y-199850004D02*
G01*
X189399972Y-199850004D01*
X189399972Y-199200004D01*
X189749972Y-198850004D01*
X191099972Y-198850004D01*
X191099972Y-199850004D01*
G37*
%TO.C,D127*%
G36*
X265992504Y-74661133D02*
G01*
X264350430Y-75101125D01*
X264182198Y-74473274D01*
X264429685Y-74044613D01*
X265733685Y-73695207D01*
X265992504Y-74661133D01*
G37*
%TO.C,D98*%
G36*
X191099981Y-180800016D02*
G01*
X189399981Y-180800016D01*
X189399981Y-180150016D01*
X189749981Y-179800016D01*
X191099981Y-179800016D01*
X191099981Y-180800016D01*
G37*
%TO.C,D75*%
G36*
X116615516Y-93888391D02*
G01*
X116447284Y-94516243D01*
X116018623Y-94763730D01*
X114714623Y-94414324D01*
X114973442Y-93448398D01*
X116615516Y-93888391D01*
G37*
%TO.C,D134*%
G36*
X203883944Y-149868969D02*
G01*
X203694526Y-150326266D01*
X202447288Y-150842889D01*
X202064605Y-149919009D01*
X203635200Y-149268448D01*
X203883944Y-149868969D01*
G37*
%TO.C,D104*%
G36*
X305142589Y-147167706D02*
G01*
X303500515Y-147607698D01*
X303332283Y-146979847D01*
X303579770Y-146551186D01*
X304883770Y-146201780D01*
X305142589Y-147167706D01*
G37*
%TO.C,D96*%
G36*
X142372823Y-177391413D02*
G01*
X141665716Y-178098520D01*
X140463635Y-176896438D01*
X140923254Y-176436819D01*
X141418229Y-176436819D01*
X142372823Y-177391413D01*
G37*
%TO.C,D124*%
G36*
X241554524Y-109414089D02*
G01*
X241307037Y-109842750D01*
X240003037Y-110192156D01*
X239744218Y-109226230D01*
X241386292Y-108786238D01*
X241554524Y-109414089D01*
G37*
%TO.C,D73*%
G36*
X151568346Y-110649729D02*
G01*
X151400114Y-111277581D01*
X150971453Y-111525068D01*
X149667453Y-111175662D01*
X149926272Y-110209736D01*
X151568346Y-110649729D01*
G37*
%TO.C,D117*%
G36*
X314915100Y-110035635D02*
G01*
X313273026Y-110475627D01*
X313104794Y-109847776D01*
X313352281Y-109419115D01*
X314656281Y-109069709D01*
X314915100Y-110035635D01*
G37*
%TO.C,D71*%
G36*
X133969476Y-81475706D02*
G01*
X133710657Y-82441632D01*
X132068583Y-82001639D01*
X132236815Y-81373787D01*
X132665476Y-81126300D01*
X133969476Y-81475706D01*
G37*
%TO.C,D101*%
G36*
X241647250Y-180785530D02*
G01*
X240445168Y-181987611D01*
X239985549Y-181527992D01*
X239985549Y-181033017D01*
X240940143Y-180078423D01*
X241647250Y-180785530D01*
G37*
%TO.C,D89*%
G36*
X67692907Y-129262895D02*
G01*
X67524675Y-129890747D01*
X67096014Y-130138234D01*
X65792014Y-129788828D01*
X66050833Y-128822902D01*
X67692907Y-129262895D01*
G37*
%TO.C,D74*%
G36*
X133989211Y-102652386D02*
G01*
X133820979Y-103280238D01*
X133392318Y-103527725D01*
X132088318Y-103178319D01*
X132347137Y-102212393D01*
X133989211Y-102652386D01*
G37*
%TO.C,D95*%
G36*
X125901103Y-165377428D02*
G01*
X125401103Y-166243453D01*
X123928860Y-165393453D01*
X124253860Y-164830536D01*
X124731968Y-164702428D01*
X125901103Y-165377428D01*
G37*
%TO.C,D137*%
G36*
X174626784Y-127446127D02*
G01*
X173976222Y-129016723D01*
X173375700Y-128767978D01*
X173186281Y-128310681D01*
X173702904Y-127063444D01*
X174626784Y-127446127D01*
G37*
%TO.C,D128*%
G36*
X285420575Y-73564173D02*
G01*
X283778501Y-74004165D01*
X283610269Y-73376314D01*
X283857756Y-72947653D01*
X285161756Y-72598247D01*
X285420575Y-73564173D01*
G37*
%TO.C,D80*%
G36*
X67673180Y-108086188D02*
G01*
X67414361Y-109052114D01*
X65772287Y-108612121D01*
X65940519Y-107984269D01*
X66369180Y-107736782D01*
X67673180Y-108086188D01*
G37*
%TO.C,D122*%
G36*
X276507351Y-92652732D02*
G01*
X276259864Y-93081393D01*
X274955864Y-93430799D01*
X274697045Y-92464873D01*
X276339119Y-92024881D01*
X276507351Y-92652732D01*
G37*
%TO.C,D91*%
G36*
X38794973Y-142257587D02*
G01*
X38536154Y-143223513D01*
X36894080Y-142783520D01*
X37062312Y-142155668D01*
X37490973Y-141908181D01*
X38794973Y-142257587D01*
G37*
%TO.C,D67*%
G36*
X58516994Y-68654029D02*
G01*
X58258175Y-69619955D01*
X56616101Y-69179962D01*
X56784333Y-68552110D01*
X57212994Y-68304623D01*
X58516994Y-68654029D01*
G37*
%TO.C,D87*%
G36*
X106754508Y-130690139D02*
G01*
X106586276Y-131317991D01*
X106157615Y-131565478D01*
X104853615Y-131216072D01*
X105112434Y-130250146D01*
X106754508Y-130690139D01*
G37*
%TO.C,D103*%
G36*
X275707078Y-159985420D02*
G01*
X274065004Y-160425412D01*
X273896772Y-159797561D01*
X274144259Y-159368900D01*
X275448259Y-159019494D01*
X275707078Y-159985420D01*
G37*
%TO.C,D132*%
G36*
X210326237Y-122305464D02*
G01*
X210842860Y-123552702D01*
X209918980Y-123935385D01*
X209268419Y-122364790D01*
X209868940Y-122116046D01*
X210326237Y-122305464D01*
G37*
%TO.C,D113*%
G36*
X240900673Y-128224241D02*
G01*
X239258599Y-128664233D01*
X239090367Y-128036382D01*
X239337854Y-127607721D01*
X240641854Y-127258315D01*
X240900673Y-128224241D01*
G37*
%TO.C,D125*%
G36*
X231039672Y-91422483D02*
G01*
X229397598Y-91862475D01*
X229229366Y-91234624D01*
X229476853Y-90805963D01*
X230780853Y-90456557D01*
X231039672Y-91422483D01*
G37*
%TO.C,D114*%
G36*
X258479823Y-120226943D02*
G01*
X256837749Y-120666935D01*
X256669517Y-120039084D01*
X256917004Y-119610423D01*
X258221004Y-119261017D01*
X258479823Y-120226943D01*
G37*
%TO.C,D92*%
G36*
X57812174Y-144887983D02*
G01*
X57553355Y-145853909D01*
X55911281Y-145413916D01*
X56079513Y-144786064D01*
X56508174Y-144538577D01*
X57812174Y-144887983D01*
G37*
%TO.C,D76*%
G36*
X97187429Y-92791394D02*
G01*
X97019197Y-93419246D01*
X96590536Y-93666733D01*
X95286536Y-93317327D01*
X95545355Y-92351401D01*
X97187429Y-92791394D01*
G37*
%TO.C,D102*%
G36*
X257307968Y-168143437D02*
G01*
X255835725Y-168993437D01*
X255510725Y-168430520D01*
X255638833Y-167952412D01*
X256807968Y-167277412D01*
X257307968Y-168143437D01*
G37*
%TO.C,D121*%
G36*
X295935438Y-91555769D02*
G01*
X295687951Y-91984430D01*
X294383951Y-92333836D01*
X294125132Y-91367910D01*
X295767206Y-90927918D01*
X295935438Y-91555769D01*
G37*
%TO.C,D83*%
G36*
X124108476Y-118277517D02*
G01*
X123849657Y-119243443D01*
X122207583Y-118803450D01*
X122375815Y-118175598D01*
X122804476Y-117928111D01*
X124108476Y-118277517D01*
G37*
%TO.C,D136*%
G36*
X176731541Y-143635229D02*
G01*
X176131020Y-143883973D01*
X175673723Y-143694555D01*
X175157100Y-142447317D01*
X176080980Y-142064634D01*
X176731541Y-143635229D01*
G37*
%TO.C,D70*%
G36*
X116595772Y-72711685D02*
G01*
X116336953Y-73677611D01*
X114694879Y-73237618D01*
X114863111Y-72609766D01*
X115291772Y-72362279D01*
X116595772Y-72711685D01*
G37*
%TO.C,D115*%
G36*
X275853501Y-111462899D02*
G01*
X274211427Y-111902891D01*
X274043195Y-111275040D01*
X274290682Y-110846379D01*
X275594682Y-110496973D01*
X275853501Y-111462899D01*
G37*
%TO.C,D90*%
G36*
X48675734Y-126632509D02*
G01*
X48507502Y-127260361D01*
X48078841Y-127507848D01*
X46774841Y-127158442D01*
X47033660Y-126192516D01*
X48675734Y-126632509D01*
G37*
%TO.C,D72*%
G36*
X151548600Y-89473032D02*
G01*
X151289781Y-90438958D01*
X149647707Y-89998965D01*
X149815939Y-89371113D01*
X150244600Y-89123626D01*
X151548600Y-89473032D01*
G37*
%TO.C,D85*%
G36*
X141707337Y-147451514D02*
G01*
X141539105Y-148079366D01*
X141110444Y-148326853D01*
X139806444Y-147977447D01*
X140065263Y-147011521D01*
X141707337Y-147451514D01*
G37*
%TO.C,D119*%
G36*
X334586128Y-88595077D02*
G01*
X334338641Y-89023738D01*
X333034641Y-89373144D01*
X332775822Y-88407218D01*
X334417896Y-87967226D01*
X334586128Y-88595077D01*
G37*
%TO.C,D81*%
G36*
X87306690Y-108416479D02*
G01*
X87047871Y-109382405D01*
X85405797Y-108942412D01*
X85574029Y-108314560D01*
X86002690Y-108067073D01*
X87306690Y-108416479D01*
G37*
%TO.C,D107*%
G36*
X344447146Y-125396868D02*
G01*
X344199659Y-125825529D01*
X342895659Y-126174935D01*
X342636840Y-125209009D01*
X344278914Y-124769017D01*
X344447146Y-125396868D01*
G37*
%TO.C,D77*%
G36*
X77553925Y-92461109D02*
G01*
X77385693Y-93088961D01*
X76957032Y-93336448D01*
X75653032Y-92987042D01*
X75911851Y-92021116D01*
X77553925Y-92461109D01*
G37*
%TO.C,D82*%
G36*
X106734750Y-109513461D02*
G01*
X106475931Y-110479387D01*
X104833857Y-110039394D01*
X105002089Y-109411542D01*
X105430750Y-109164055D01*
X106734750Y-109513461D01*
G37*
%TO.C,D88*%
G36*
X87326430Y-129593178D02*
G01*
X87158198Y-130221030D01*
X86729537Y-130468517D01*
X85425537Y-130119111D01*
X85684356Y-129153185D01*
X87326430Y-129593178D01*
G37*
%TO.C,D78*%
G36*
X58536733Y-89830729D02*
G01*
X58368501Y-90458581D01*
X57939840Y-90706068D01*
X56635840Y-90356662D01*
X56894659Y-89390736D01*
X58536733Y-89830729D01*
G37*
%TO.C,D123*%
G36*
X259133671Y-101416778D02*
G01*
X258886184Y-101845439D01*
X257582184Y-102194845D01*
X257323365Y-101228919D01*
X258965439Y-100788927D01*
X259133671Y-101416778D01*
G37*
%TO.C,D135*%
G36*
X189016694Y-152023768D02*
G01*
X188767949Y-152624290D01*
X188310652Y-152813709D01*
X187063415Y-152297086D01*
X187446098Y-151373206D01*
X189016694Y-152023768D01*
G37*
%TO.C,D126*%
G36*
X248618798Y-83425177D02*
G01*
X246976724Y-83865169D01*
X246808492Y-83237318D01*
X247055979Y-82808657D01*
X248359979Y-82459251D01*
X248618798Y-83425177D01*
G37*
%TD*%
D10*
%TO.C,SW67*%
X210266280Y-149673373D03*
D11*
X216486480Y-132590053D03*
D12*
X181603927Y-153538235D03*
D11*
X180899416Y-112861305D03*
D10*
X170323378Y-125188350D03*
D13*
X210165036Y-108269250D03*
X205834908Y-105769250D03*
X207999972Y-107019250D03*
D14*
X218807631Y-144490321D03*
D15*
X187875223Y-162064893D03*
X170393605Y-151971526D03*
D14*
X170165325Y-116409316D03*
%TD*%
D16*
%TO.C,H3*%
X60499971Y-55257216D03*
%TD*%
%TO.C,H2*%
X325599979Y-55257215D03*
%TD*%
D17*
%TO.C,H9*%
X154000000Y-187999995D03*
%TD*%
D18*
%TO.C,J4*%
X172999971Y-64580010D03*
D19*
X172999971Y-67120010D03*
X172999971Y-69660010D03*
X172999971Y-72200010D03*
X172999971Y-74740010D03*
X172999971Y-77280010D03*
X172999971Y-79820010D03*
D11*
X173249972Y-56200011D03*
X173249972Y-88200011D03*
X212749972Y-56200011D03*
X212749972Y-88200011D03*
%TD*%
D17*
%TO.C,H8*%
X232000000Y-188000000D03*
%TD*%
D16*
%TO.C,H1*%
X192999965Y-185500013D03*
%TD*%
D20*
%TO.C,SW25*%
X133845954Y-165576529D03*
D21*
X129446545Y-163036529D03*
D20*
X125047136Y-160496529D03*
D22*
X127416988Y-158931824D03*
D23*
X124580754Y-157294323D03*
X137045864Y-161558119D03*
D22*
X134186250Y-159907120D03*
%TD*%
D20*
%TO.C,SW30*%
X149995434Y-179640014D03*
D21*
X146403332Y-176047912D03*
D20*
X142811230Y-172455810D03*
D22*
X145505306Y-171557784D03*
D24*
X143189531Y-169242008D03*
X154126351Y-176586726D03*
D22*
X151791486Y-174251861D03*
%TD*%
D20*
%TO.C,SW1*%
X66242672Y-66790065D03*
D21*
X61335769Y-65475264D03*
D20*
X56428866Y-64160463D03*
D22*
X58312992Y-62035712D03*
D25*
X55149584Y-61188078D03*
X68293507Y-62080381D03*
D22*
X65104021Y-61225761D03*
%TD*%
D20*
%TO.C,SW24*%
X126903648Y-134814411D03*
D21*
X121996745Y-133499610D03*
D20*
X117089842Y-132184809D03*
D22*
X118973968Y-130060058D03*
D25*
X115810560Y-129212424D03*
X128954483Y-130104727D03*
D22*
X125764997Y-129250107D03*
%TD*%
D20*
%TO.C,SW29*%
X144482771Y-142811752D03*
D21*
X139575868Y-141496951D03*
D20*
X134668965Y-140182150D03*
D22*
X136553091Y-138057399D03*
D25*
X133389683Y-137209765D03*
X146533606Y-138102068D03*
D22*
X143344120Y-137247448D03*
%TD*%
D20*
%TO.C,SW14*%
X90101866Y-124953416D03*
D21*
X85194963Y-123638615D03*
D20*
X80288060Y-122323814D03*
D22*
X82172186Y-120199063D03*
D25*
X79008778Y-119351429D03*
X92152701Y-120243732D03*
D22*
X88963215Y-119389112D03*
%TD*%
D20*
%TO.C,SW19*%
X109529939Y-126050379D03*
D21*
X104623036Y-124735578D03*
D20*
X99716133Y-123420777D03*
D22*
X101600259Y-121296026D03*
D25*
X98436851Y-120448392D03*
X111580774Y-121340695D03*
D22*
X108391288Y-120486075D03*
%TD*%
D20*
%TO.C,SW5*%
X46520653Y-140393623D03*
D21*
X41613750Y-139078822D03*
D20*
X36706847Y-137764021D03*
D22*
X38590973Y-135639270D03*
D25*
X35427565Y-134791636D03*
X48571488Y-135683939D03*
D22*
X45382002Y-134829319D03*
%TD*%
D20*
%TO.C,SW22*%
X136764636Y-98012631D03*
D21*
X131857733Y-96697830D03*
D20*
X126950830Y-95383029D03*
D22*
X128834956Y-93258278D03*
D25*
X125671548Y-92410644D03*
X138815471Y-93302947D03*
D22*
X135625985Y-92448327D03*
%TD*%
D20*
%TO.C,SW27*%
X154343778Y-106009970D03*
D21*
X149436875Y-104695169D03*
D20*
X144529972Y-103380368D03*
D22*
X146414098Y-101255617D03*
D25*
X143250690Y-100407983D03*
X156394613Y-101300286D03*
D22*
X153205127Y-100445666D03*
%TD*%
D20*
%TO.C,SW3*%
X56381643Y-103591854D03*
D21*
X51474740Y-102277053D03*
D20*
X46567837Y-100962252D03*
D22*
X48451963Y-98837501D03*
D25*
X45288555Y-97989867D03*
X58432478Y-98882170D03*
D22*
X55242992Y-98027550D03*
%TD*%
D20*
%TO.C,SW8*%
X75398855Y-106222225D03*
D21*
X70491952Y-104907424D03*
D20*
X65585049Y-103592623D03*
D22*
X67469175Y-101467872D03*
D25*
X64305767Y-100620238D03*
X77449690Y-101512541D03*
D22*
X74260204Y-100657921D03*
%TD*%
D20*
%TO.C,SW13*%
X95032367Y-106552518D03*
D21*
X90125464Y-105237717D03*
D20*
X85218561Y-103922916D03*
D22*
X87102687Y-101798165D03*
D25*
X83939279Y-100950531D03*
X97083202Y-101842834D03*
D22*
X93893716Y-100988214D03*
%TD*%
D20*
%TO.C,SW23*%
X131834152Y-116413547D03*
D21*
X126927249Y-115098746D03*
D20*
X122020346Y-113783945D03*
D22*
X123904472Y-111659194D03*
D25*
X120741064Y-110811560D03*
X133884987Y-111703863D03*
D22*
X130695501Y-110849243D03*
%TD*%
D20*
%TO.C,SW18*%
X114460420Y-107649499D03*
D21*
X109553517Y-106334698D03*
D20*
X104646614Y-105019897D03*
D22*
X106530740Y-102895146D03*
D25*
X103367332Y-102047512D03*
X116511255Y-102939815D03*
D22*
X113321769Y-102085195D03*
%TD*%
D20*
%TO.C,SW28*%
X149413268Y-124410850D03*
D21*
X144506365Y-123096049D03*
D20*
X139599462Y-121781248D03*
D22*
X141483588Y-119656497D03*
D25*
X138320180Y-118808863D03*
X151464103Y-119701166D03*
D22*
X148274617Y-118846546D03*
%TD*%
D20*
%TO.C,SW4*%
X51451161Y-121992748D03*
D21*
X46544258Y-120677947D03*
D20*
X41637355Y-119363146D03*
D22*
X43521481Y-117238395D03*
D25*
X40358073Y-116390761D03*
X53501996Y-117283064D03*
D22*
X50312510Y-116428444D03*
%TD*%
D20*
%TO.C,SW9*%
X70468335Y-124623132D03*
D21*
X65561432Y-123308331D03*
D20*
X60654529Y-121993530D03*
D22*
X62538655Y-119868779D03*
D25*
X59375247Y-119021145D03*
X72519170Y-119913448D03*
D22*
X69329684Y-119058828D03*
%TD*%
D20*
%TO.C,SW10*%
X65537851Y-143024021D03*
D21*
X60630948Y-141709220D03*
D20*
X55724045Y-140394419D03*
D22*
X57608171Y-138269668D03*
D25*
X54444763Y-137422034D03*
X67588686Y-138314337D03*
D22*
X64399200Y-137459717D03*
%TD*%
D20*
%TO.C,SW15*%
X85171355Y-143354281D03*
D21*
X80264452Y-142039480D03*
D20*
X75357549Y-140724679D03*
D22*
X77241675Y-138599928D03*
D25*
X74078267Y-137752294D03*
X87222190Y-138644597D03*
D22*
X84032704Y-137789977D03*
%TD*%
D20*
%TO.C,SW20*%
X114606864Y-156172015D03*
D21*
X109699961Y-154857214D03*
D20*
X104793058Y-153542413D03*
D22*
X106677184Y-151417662D03*
D25*
X103513776Y-150570028D03*
X116657699Y-151462331D03*
D22*
X113468213Y-150607711D03*
%TD*%
D20*
%TO.C,SW11*%
X104893372Y-69750770D03*
D21*
X99986469Y-68435969D03*
D20*
X95079566Y-67121168D03*
D22*
X96963692Y-64996417D03*
D25*
X93800284Y-64148783D03*
X106944207Y-65041086D03*
D22*
X103754721Y-64186466D03*
%TD*%
D20*
%TO.C,SW2*%
X61312163Y-85190968D03*
D21*
X56405260Y-83876167D03*
D20*
X51498357Y-82561366D03*
D22*
X53382483Y-80436615D03*
D25*
X50219075Y-79588981D03*
X63362998Y-80481284D03*
D22*
X60173512Y-79626664D03*
%TD*%
D20*
%TO.C,SW12*%
X99962862Y-88151623D03*
D21*
X95055959Y-86836822D03*
D20*
X90149056Y-85522021D03*
D22*
X92033182Y-83397270D03*
D25*
X88869774Y-82549636D03*
X102013697Y-83441939D03*
D22*
X98824211Y-82587319D03*
%TD*%
D20*
%TO.C,SW21*%
X141695145Y-79611740D03*
D21*
X136788242Y-78296939D03*
D20*
X131881339Y-76982138D03*
D22*
X133765465Y-74857387D03*
D25*
X130602057Y-74009753D03*
X143745980Y-74902056D03*
D22*
X140556494Y-74047436D03*
%TD*%
D20*
%TO.C,SW17*%
X119390941Y-89248634D03*
D21*
X114484038Y-87933833D03*
D20*
X109577135Y-86619032D03*
D22*
X111461261Y-84494281D03*
D25*
X108297853Y-83646647D03*
X121441776Y-84538950D03*
D22*
X118252290Y-83684330D03*
%TD*%
D20*
%TO.C,SW16*%
X124321442Y-70847723D03*
D21*
X119414539Y-69532922D03*
D20*
X114507636Y-68218121D03*
D22*
X116391762Y-66093370D03*
D25*
X113228354Y-65245736D03*
X126372277Y-66138039D03*
D22*
X123182791Y-65283419D03*
%TD*%
D20*
%TO.C,SW6*%
X85259863Y-69420471D03*
D21*
X80352960Y-68105670D03*
D20*
X75446057Y-66790869D03*
D22*
X77330183Y-64666118D03*
D25*
X74166775Y-63818484D03*
X87310698Y-64710787D03*
D22*
X84121212Y-63856167D03*
%TD*%
D20*
%TO.C,SW7*%
X80329356Y-87821356D03*
D21*
X75422453Y-86506555D03*
D20*
X70515550Y-85191754D03*
D22*
X72399676Y-83067003D03*
D25*
X69236268Y-82219369D03*
X82380191Y-83111672D03*
D22*
X79190705Y-82257052D03*
%TD*%
D20*
%TO.C,SW26*%
X159274277Y-87609074D03*
D21*
X154367374Y-86294273D03*
D20*
X149460471Y-84979472D03*
D22*
X151344597Y-82854721D03*
D25*
X148181189Y-82007087D03*
X161325112Y-82899390D03*
D22*
X158135626Y-82044770D03*
%TD*%
D20*
%TO.C,SW31*%
X236539505Y-84979487D03*
D21*
X231632602Y-86294288D03*
D20*
X226725699Y-87609089D03*
D22*
X227295024Y-84826937D03*
D26*
X224131616Y-85674568D03*
X235960739Y-79875363D03*
D22*
X232771253Y-80729984D03*
%TD*%
D27*
%TO.C,D34*%
X237430796Y-135365681D03*
X237974316Y-137394125D03*
%TD*%
D28*
%TO.C,C118*%
X166599977Y-81279996D03*
X166599977Y-80319996D03*
%TD*%
D29*
%TO.C,R34*%
X184599978Y-74160007D03*
X184599978Y-73140007D03*
%TD*%
D30*
%TO.C,J3*%
X190249967Y-118600014D03*
X190749967Y-118600014D03*
X191249967Y-118600014D03*
X191749967Y-118600014D03*
X192249967Y-118600014D03*
X192749967Y-118600014D03*
X193249967Y-118600014D03*
X193749967Y-118600014D03*
X194249967Y-118600014D03*
X194749967Y-118600014D03*
X195249967Y-118600014D03*
X195749967Y-118600014D03*
D31*
X196749967Y-121100014D03*
X189249967Y-121100014D03*
%TD*%
D32*
%TO.C,D97*%
X169995155Y-176272756D03*
X170695155Y-175060320D03*
X165232015Y-173522756D03*
%TD*%
D20*
%TO.C,SW62*%
X198079978Y-176000012D03*
D21*
X192999978Y-176000012D03*
D20*
X187919978Y-176000012D03*
D22*
X189189978Y-173460012D03*
D33*
X185914977Y-173460011D03*
X198841977Y-170920011D03*
D22*
X195539978Y-170920012D03*
%TD*%
D34*
%TO.C,U6*%
X202549977Y-123262509D03*
X203499977Y-123262509D03*
X204449977Y-123262509D03*
X204449977Y-125537509D03*
X202549977Y-125537509D03*
%TD*%
D35*
%TO.C,D16*%
X114691735Y-59726422D03*
X114148215Y-61754866D03*
%TD*%
D36*
%TO.C,C33*%
X188169975Y-59000007D03*
X189129975Y-59000007D03*
%TD*%
D37*
%TO.C,U14*%
X167649973Y-80349999D03*
X168149973Y-80349999D03*
X168649973Y-80349999D03*
X169149973Y-80349999D03*
X169149973Y-82249999D03*
X168649973Y-82249999D03*
X168149973Y-82249999D03*
X167649973Y-82249999D03*
D38*
X168399973Y-81299999D03*
%TD*%
D20*
%TO.C,SW45*%
X281206908Y-153542417D03*
D21*
X276300005Y-154857218D03*
D20*
X271393102Y-156172019D03*
D22*
X271962427Y-153389867D03*
D26*
X268799019Y-154237498D03*
X280628142Y-148438293D03*
D22*
X277438656Y-149292914D03*
%TD*%
D39*
%TO.C,D112*%
X244880732Y-146362169D03*
X245243078Y-147714465D03*
X250193324Y-144938665D03*
%TD*%
D40*
%TO.C,R38*%
X187809978Y-65400010D03*
X186789978Y-65400010D03*
%TD*%
D41*
%TO.C,C90*%
X259822890Y-139071440D03*
X260750178Y-138822974D03*
%TD*%
D42*
%TO.C,D138*%
X188575810Y-115133021D03*
X188040053Y-113839590D03*
X183494473Y-117237780D03*
%TD*%
D27*
%TO.C,D57*%
X320601385Y-77744879D03*
X321144905Y-79773323D03*
%TD*%
D20*
%TO.C,SW49*%
X305711921Y-122323830D03*
D21*
X300805018Y-123638631D03*
D20*
X295898115Y-124953432D03*
D22*
X296467440Y-122171280D03*
D26*
X293304032Y-123018911D03*
X305133155Y-117219706D03*
D22*
X301943669Y-118074327D03*
%TD*%
D43*
%TO.C,J5*%
X166500000Y-102600000D03*
D19*
X166499999Y-100059999D03*
D18*
X166499999Y-97519999D03*
X166499999Y-94979999D03*
%TD*%
D27*
%TO.C,D58*%
X325531899Y-96145780D03*
X326075419Y-98174224D03*
%TD*%
D44*
%TO.C,C68*%
X59155235Y-126043481D03*
X60082523Y-126291947D03*
%TD*%
D45*
%TO.C,C44*%
X200549977Y-76975011D03*
X200549977Y-75425011D03*
%TD*%
D46*
%TO.C,C109*%
X331432760Y-69562725D03*
X330505472Y-69811191D03*
%TD*%
D27*
%TO.C,D60*%
X335392903Y-132947562D03*
X335936423Y-134976006D03*
%TD*%
D47*
%TO.C,C9*%
X192839477Y-64354439D03*
X193935493Y-65450455D03*
%TD*%
D40*
%TO.C,R27*%
X204509991Y-127000007D03*
X203489991Y-127000007D03*
%TD*%
D44*
%TO.C,C55*%
X88649763Y-89571980D03*
X89577051Y-89820446D03*
%TD*%
%TO.C,C54*%
X108077846Y-90668984D03*
X109005134Y-90917450D03*
%TD*%
D48*
%TO.C,D93*%
X81445480Y-148257008D03*
X81807826Y-146904712D03*
X76132888Y-146833504D03*
%TD*%
D17*
%TO.C,H7*%
X314482332Y-152625369D03*
%TD*%
D49*
%TO.C,D63*%
X205262595Y-166366705D03*
X206312595Y-168185359D03*
%TD*%
D46*
%TO.C,C92*%
X248262143Y-127183496D03*
X247334855Y-127431962D03*
%TD*%
D50*
%TO.C,JP2*%
X181299973Y-73100009D03*
X181299973Y-74300009D03*
%TD*%
D51*
%TO.C,C71*%
X64448951Y-148633325D03*
X63521663Y-148384859D03*
%TD*%
D52*
%TO.C,R20*%
X178149978Y-60990010D03*
X178149978Y-62010010D03*
%TD*%
D35*
%TO.C,D14*%
X80472140Y-113832119D03*
X79928620Y-115860563D03*
%TD*%
D20*
%TO.C,SW47*%
X295850917Y-85522046D03*
D21*
X290944014Y-86836847D03*
D20*
X286037111Y-88151648D03*
D22*
X286606436Y-85369496D03*
D26*
X283443028Y-86217127D03*
X295272151Y-80417922D03*
D22*
X292082665Y-81272543D03*
%TD*%
D20*
%TO.C,SW63*%
X219935772Y-167421407D03*
D21*
X215536363Y-169961407D03*
D20*
X211136954Y-172501407D03*
D22*
X210966806Y-169666702D03*
D53*
X208130572Y-171304201D03*
X218055682Y-162640997D03*
D22*
X215196068Y-164291998D03*
%TD*%
D35*
%TO.C,D4*%
X41821446Y-110871463D03*
X41277926Y-112899907D03*
%TD*%
%TO.C,D19*%
X99900217Y-114929084D03*
X99356697Y-116957528D03*
%TD*%
D54*
%TO.C,D129*%
X309778588Y-72899703D03*
X309416242Y-71547407D03*
X304465996Y-74323207D03*
%TD*%
D20*
%TO.C,SW61*%
X174862992Y-172501409D03*
D21*
X170463583Y-169961409D03*
D20*
X166064174Y-167421409D03*
D22*
X168434026Y-165856704D03*
D23*
X165597792Y-164219203D03*
X178062902Y-168482999D03*
D22*
X175203288Y-166832000D03*
%TD*%
D47*
%TO.C,C10*%
X190601965Y-68201999D03*
X191697981Y-69298015D03*
%TD*%
D55*
%TO.C,C76*%
X172359404Y-177637760D03*
X171528020Y-177157760D03*
%TD*%
D20*
%TO.C,SW33*%
X246400502Y-121781241D03*
D21*
X241493599Y-123096042D03*
D20*
X236586696Y-124410843D03*
D22*
X237156021Y-121628691D03*
D26*
X233992613Y-122476322D03*
X245821736Y-116677117D03*
D22*
X242632250Y-117531738D03*
%TD*%
D41*
%TO.C,C101*%
X267335575Y-93505619D03*
X268262863Y-93257153D03*
%TD*%
D56*
%TO.C,D131*%
X202505485Y-117237780D03*
X203041242Y-115944349D03*
X197424148Y-115133021D03*
%TD*%
D48*
%TO.C,D69*%
X101167495Y-74653490D03*
X101529841Y-73301194D03*
X95854903Y-73229986D03*
%TD*%
D51*
%TO.C,C63*%
X148324371Y-130020157D03*
X147397083Y-129771691D03*
%TD*%
D57*
%TO.C,C8*%
X196449267Y-59903204D03*
X197128089Y-60582026D03*
%TD*%
D58*
%TO.C,C31*%
X183524977Y-60000015D03*
X185074977Y-60000015D03*
%TD*%
D17*
%TO.C,H11*%
X206799981Y-133000007D03*
%TD*%
D58*
%TO.C,C21*%
X202749982Y-121400009D03*
X204299982Y-121400009D03*
%TD*%
D59*
%TO.C,C7*%
X205111317Y-75494903D03*
X204432495Y-74816081D03*
%TD*%
D51*
%TO.C,C49*%
X123232549Y-76457032D03*
X122305261Y-76208566D03*
%TD*%
D39*
%TO.C,D111*%
X262459867Y-138364862D03*
X262822213Y-139717158D03*
X267772459Y-136941358D03*
%TD*%
D60*
%TO.C,C19*%
X194110563Y-69239423D03*
X194789385Y-68560601D03*
%TD*%
D35*
%TO.C,D8*%
X65769141Y-95100926D03*
X65225621Y-97129370D03*
%TD*%
D48*
%TO.C,D68*%
X81533986Y-74323193D03*
X81896332Y-72970897D03*
X76221394Y-72899689D03*
%TD*%
%TO.C,D84*%
X145687394Y-129313576D03*
X146049740Y-127961280D03*
X140374802Y-127890072D03*
%TD*%
D46*
%TO.C,C85*%
X351154761Y-143166274D03*
X350227473Y-143414740D03*
%TD*%
D27*
%TO.C,D39*%
X255009933Y-127368365D03*
X255553453Y-129396809D03*
%TD*%
D61*
%TO.C,R23*%
X178639976Y-63050010D03*
X179659976Y-63050010D03*
%TD*%
D62*
%TO.C,C22*%
X201674977Y-127300010D03*
X200124977Y-127300010D03*
%TD*%
D57*
%TO.C,C13*%
X195027968Y-61310335D03*
X195706790Y-61989157D03*
%TD*%
D63*
%TO.C,D142*%
X165750000Y-78700000D03*
X167850000Y-78700000D03*
%TD*%
D40*
%TO.C,R32*%
X166659979Y-83949999D03*
X165639979Y-83949999D03*
%TD*%
D64*
%TO.C,U8*%
X193999975Y-56485008D03*
X193499975Y-56485008D03*
X192999975Y-56485008D03*
X192499975Y-56485008D03*
X191999975Y-56485008D03*
X191999975Y-55715008D03*
X192499975Y-55715008D03*
X192999975Y-55715008D03*
X193499975Y-55715008D03*
X193999975Y-55715008D03*
%TD*%
D20*
%TO.C,SW59*%
X344362622Y-119363142D03*
D21*
X339455719Y-120677943D03*
D20*
X334548816Y-121992744D03*
D22*
X335118141Y-119210592D03*
D26*
X331954733Y-120058223D03*
X343783856Y-114259018D03*
D22*
X340594370Y-115113639D03*
%TD*%
D65*
%TO.C,C3*%
X168800000Y-61725000D03*
X168800000Y-63275000D03*
%TD*%
D27*
%TO.C,D37*%
X245148922Y-90566581D03*
X245692442Y-92595025D03*
%TD*%
D41*
%TO.C,C99*%
X306397175Y-92078364D03*
X307324463Y-91829898D03*
%TD*%
D27*
%TO.C,D48*%
X286881198Y-99106453D03*
X287424718Y-101134897D03*
%TD*%
D39*
%TO.C,D108*%
X318895164Y-128173564D03*
X319257510Y-129525860D03*
X324207756Y-126750060D03*
%TD*%
D58*
%TO.C,C40*%
X187624969Y-76337515D03*
X189174969Y-76337515D03*
%TD*%
D48*
%TO.C,D94*%
X110880987Y-161074747D03*
X111243333Y-159722451D03*
X105568395Y-159651243D03*
%TD*%
D66*
%TO.C,C81*%
X264149241Y-165232866D03*
X263317857Y-165712866D03*
%TD*%
D54*
%TO.C,D106*%
X348517783Y-143872849D03*
X348155437Y-142520553D03*
X343205191Y-145296353D03*
%TD*%
%TO.C,D130*%
X328795784Y-70269300D03*
X328433438Y-68917004D03*
X323483192Y-71692804D03*
%TD*%
D27*
%TO.C,D50*%
X296742180Y-135908221D03*
X297285700Y-137936665D03*
%TD*%
D67*
%TO.C,D61*%
X168439799Y-159266704D03*
X167389799Y-161085358D03*
%TD*%
D51*
%TO.C,C70*%
X45431755Y-146002932D03*
X44504467Y-145754466D03*
%TD*%
D54*
%TO.C,D116*%
X300006072Y-110031752D03*
X299643726Y-108679456D03*
X294693480Y-111455256D03*
%TD*%
D20*
%TO.C,SW38*%
X263979651Y-113783940D03*
D21*
X259072748Y-115098741D03*
D20*
X254165845Y-116413542D03*
D22*
X254735170Y-113631390D03*
D26*
X251571762Y-114479021D03*
X263400885Y-108679816D03*
D22*
X260211399Y-109534437D03*
%TD*%
D54*
%TO.C,D118*%
X338656780Y-107071065D03*
X338294434Y-105718769D03*
X333344188Y-108494569D03*
%TD*%
D46*
%TO.C,C84*%
X332137582Y-145796675D03*
X331210294Y-146045141D03*
%TD*%
D20*
%TO.C,SW50*%
X310642417Y-140724706D03*
D21*
X305735514Y-142039507D03*
D20*
X300828611Y-143354308D03*
D22*
X301397936Y-140572156D03*
D26*
X298234528Y-141419787D03*
X310063651Y-135620582D03*
D22*
X306874165Y-136475203D03*
%TD*%
D68*
%TO.C,SW69*%
X203349980Y-46027215D03*
X203349980Y-48237215D03*
D69*
X205499981Y-47127216D03*
X208499981Y-47127216D03*
D68*
X210649980Y-46027215D03*
X210649980Y-48237215D03*
D70*
X204749980Y-48887215D03*
X207749980Y-48887215D03*
X209249980Y-48887215D03*
%TD*%
D39*
%TO.C,D109*%
X299261643Y-128503860D03*
X299623989Y-129856156D03*
X304574235Y-127080356D03*
%TD*%
D17*
%TO.C,H10*%
X179199980Y-132999962D03*
%TD*%
D41*
%TO.C,C100*%
X286763659Y-92408659D03*
X287690947Y-92160193D03*
%TD*%
D71*
%TO.C,D99*%
X220767934Y-173522751D03*
X220067934Y-172310315D03*
X216004794Y-176272751D03*
%TD*%
D29*
%TO.C,R4*%
X207249971Y-103760003D03*
X207249971Y-102740003D03*
%TD*%
D72*
%TO.C,D64*%
X185899975Y-186800034D03*
X185899975Y-188900034D03*
%TD*%
D65*
%TO.C,C37*%
X181099980Y-79925008D03*
X181099980Y-81475008D03*
%TD*%
D73*
%TO.C,C38*%
X186079977Y-78150005D03*
X185119977Y-78150005D03*
%TD*%
D51*
%TO.C,C59*%
X74309954Y-111831528D03*
X73382666Y-111583062D03*
%TD*%
D48*
%TO.C,D79*%
X52655769Y-108494579D03*
X53018115Y-107142283D03*
X47343177Y-107071075D03*
%TD*%
D74*
%TO.C,C80*%
X247502099Y-176203473D03*
X246823277Y-176882295D03*
%TD*%
D39*
%TO.C,D110*%
X279833569Y-129600808D03*
X280195915Y-130953104D03*
X285146161Y-128177304D03*
%TD*%
D75*
%TO.C,C122*%
X169049979Y-91149998D03*
X167149979Y-91149998D03*
%TD*%
D39*
%TO.C,D120*%
X309034157Y-91371784D03*
X309396503Y-92724080D03*
X314346749Y-89948280D03*
%TD*%
D40*
%TO.C,R12*%
X187809976Y-63300008D03*
X186789976Y-63300008D03*
%TD*%
D20*
%TO.C,SW58*%
X339432119Y-100962238D03*
D21*
X334525216Y-102277039D03*
D20*
X329618313Y-103591840D03*
D22*
X330187638Y-100809688D03*
D26*
X327024230Y-101657319D03*
X338853353Y-95858114D03*
D22*
X335663867Y-96712735D03*
%TD*%
D46*
%TO.C,C106*%
X273353975Y-73620379D03*
X272426687Y-73868845D03*
%TD*%
D27*
%TO.C,D55*%
X316375723Y-135577946D03*
X316919243Y-137606390D03*
%TD*%
D76*
%TO.C,U4*%
X198349971Y-127340011D03*
D77*
X198349972Y-129120012D03*
X198349972Y-130900012D03*
X198349972Y-132680012D03*
X198349972Y-134460012D03*
X198349972Y-136240012D03*
X198349972Y-138020012D03*
X198349972Y-139800012D03*
X187649972Y-140690012D03*
X187649972Y-138910012D03*
X187649972Y-137130012D03*
X187649972Y-135350012D03*
X187649972Y-133570012D03*
X187649972Y-131790012D03*
X187649972Y-130010012D03*
X187649972Y-128230012D03*
%TD*%
D78*
%TO.C,D86*%
X118227528Y-136941333D03*
X117865182Y-138293629D03*
X123540120Y-138364837D03*
%TD*%
D73*
%TO.C,C79*%
X198479972Y-200750007D03*
X197519972Y-200750007D03*
%TD*%
D54*
%TO.C,D105*%
X329500603Y-146503251D03*
X329138257Y-145150955D03*
X324188011Y-147926755D03*
%TD*%
D79*
%TO.C,U7*%
X164762500Y-63450000D03*
X164762500Y-61550000D03*
X167037500Y-62500000D03*
%TD*%
D41*
%TO.C,C87*%
X316258184Y-128880138D03*
X317185472Y-128631672D03*
%TD*%
D35*
%TO.C,D6*%
X75630138Y-58299162D03*
X75086618Y-60327606D03*
%TD*%
D80*
%TO.C,U1*%
X201192175Y-63461713D03*
X201475018Y-63744556D03*
X201757860Y-64027398D03*
X202040703Y-64310241D03*
X202323546Y-64593084D03*
X202606388Y-64875926D03*
X202889231Y-65158769D03*
X203172074Y-65441612D03*
X203454917Y-65724455D03*
X203737759Y-66007297D03*
X204020602Y-66290140D03*
X204303445Y-66572983D03*
X204586287Y-66855825D03*
X204869130Y-67138668D03*
D81*
X204869130Y-68323072D03*
X204586287Y-68605915D03*
X204303445Y-68888757D03*
X204020602Y-69171600D03*
X203737759Y-69454443D03*
X203454917Y-69737285D03*
X203172074Y-70020128D03*
X202889231Y-70302971D03*
X202606388Y-70585814D03*
X202323546Y-70868656D03*
X202040703Y-71151499D03*
X201757860Y-71434342D03*
X201475018Y-71717184D03*
X201192175Y-72000027D03*
D80*
X200007771Y-72000027D03*
X199724928Y-71717184D03*
X199442086Y-71434342D03*
X199159243Y-71151499D03*
X198876400Y-70868656D03*
X198593558Y-70585814D03*
X198310715Y-70302971D03*
X198027872Y-70020128D03*
X197745029Y-69737285D03*
X197462187Y-69454443D03*
X197179344Y-69171600D03*
X196896501Y-68888757D03*
X196613659Y-68605915D03*
X196330816Y-68323072D03*
D81*
X196330816Y-67138668D03*
X196613659Y-66855825D03*
X196896501Y-66572983D03*
X197179344Y-66290140D03*
X197462187Y-66007297D03*
X197745029Y-65724455D03*
X198027872Y-65441612D03*
X198310715Y-65158769D03*
X198593558Y-64875926D03*
X198876400Y-64593084D03*
X199159243Y-64310241D03*
X199442086Y-64027398D03*
X199724928Y-63744556D03*
X200007771Y-63461713D03*
D82*
X200599972Y-67730869D03*
%TD*%
D20*
%TO.C,SW43*%
X281353324Y-105019901D03*
D21*
X276446421Y-106334702D03*
D20*
X271539518Y-107649503D03*
D22*
X272108843Y-104867351D03*
D26*
X268945435Y-105714982D03*
X280774558Y-99915777D03*
D22*
X277585072Y-100770398D03*
%TD*%
D35*
%TO.C,D28*%
X139783551Y-113289554D03*
X139240031Y-115317998D03*
%TD*%
D60*
%TO.C,C12*%
X192977365Y-68282418D03*
X193656187Y-67603596D03*
%TD*%
D41*
%TO.C,C103*%
X232382745Y-110266981D03*
X233310033Y-110018515D03*
%TD*%
D83*
%TO.C,U12*%
X179749970Y-78037515D03*
X178799970Y-78037515D03*
X177849970Y-78037515D03*
X177849970Y-75762515D03*
X179749970Y-75762515D03*
%TD*%
D35*
%TO.C,D21*%
X132065424Y-68490451D03*
X131521904Y-70518895D03*
%TD*%
D84*
%TO.C,D133*%
X208762209Y-142505515D03*
X210055640Y-143041272D03*
X210866968Y-137424178D03*
%TD*%
D46*
%TO.C,C108*%
X312415566Y-72193128D03*
X311488278Y-72441594D03*
%TD*%
D85*
%TO.C,Q2*%
X178499974Y-64250004D03*
X179149974Y-64250004D03*
X179799974Y-64250004D03*
X179799974Y-66150004D03*
X179149974Y-66150004D03*
X178499974Y-66150004D03*
%TD*%
D36*
%TO.C,C28*%
X178769976Y-56700011D03*
X179729976Y-56700011D03*
%TD*%
D73*
%TO.C,C77*%
X198479974Y-181700007D03*
X197519974Y-181700007D03*
%TD*%
D35*
%TO.C,D7*%
X70699641Y-76700056D03*
X70156121Y-78728500D03*
%TD*%
D43*
%TO.C,J1*%
X210900000Y-97525000D03*
D18*
X210899999Y-94984999D03*
D19*
X210899999Y-92444999D03*
%TD*%
D51*
%TO.C,C73*%
X113517971Y-161781325D03*
X112590683Y-161532859D03*
%TD*%
D35*
%TO.C,D10*%
X55908131Y-131902716D03*
X55364611Y-133931160D03*
%TD*%
D86*
%TO.C,D100*%
X195749971Y-200750003D03*
X195749971Y-199350003D03*
X190249971Y-200750003D03*
%TD*%
D46*
%TO.C,C105*%
X255980269Y-82384424D03*
X255052981Y-82632890D03*
%TD*%
D87*
%TO.C,D145*%
X190499968Y-56100000D03*
X190499968Y-57500000D03*
%TD*%
D44*
%TO.C,C67*%
X78788764Y-126373767D03*
X79716052Y-126622233D03*
%TD*%
D88*
%TO.C,SW68*%
X178999978Y-48732220D03*
X178999978Y-45982220D03*
D89*
X181624977Y-46507219D03*
X176374977Y-46507219D03*
X181624977Y-48207219D03*
X176374977Y-48207219D03*
%TD*%
D54*
%TO.C,D127*%
X270716995Y-74326957D03*
X270354649Y-72974661D03*
X265404403Y-75750461D03*
%TD*%
D20*
%TO.C,SW57*%
X334501613Y-82561354D03*
D21*
X329594710Y-83876155D03*
D20*
X324687807Y-85190956D03*
D22*
X325257132Y-82408804D03*
D26*
X322093724Y-83256435D03*
X333922847Y-77457230D03*
D22*
X330733361Y-78311851D03*
%TD*%
D86*
%TO.C,D98*%
X195749980Y-181700015D03*
X195749980Y-180300015D03*
X190249980Y-181700015D03*
%TD*%
D41*
%TO.C,C86*%
X335275363Y-126249757D03*
X336202651Y-126001291D03*
%TD*%
D78*
%TO.C,D75*%
X110714823Y-91375556D03*
X110352477Y-92727852D03*
X116027415Y-92799060D03*
%TD*%
D46*
%TO.C,C97*%
X341293752Y-106364493D03*
X340366464Y-106612959D03*
%TD*%
D90*
%TO.C,U5*%
X189174976Y-61100005D03*
X189174976Y-61500005D03*
D91*
X189049976Y-62125005D03*
X188649976Y-62125005D03*
X188249976Y-62125005D03*
X187849976Y-62125005D03*
D90*
X187724976Y-61500005D03*
X187724976Y-61100005D03*
D91*
X187849976Y-60475005D03*
X188249976Y-60475005D03*
X188649976Y-60475005D03*
X189049976Y-60475005D03*
%TD*%
D28*
%TO.C,C30*%
X217749976Y-66830012D03*
X217749976Y-65870012D03*
%TD*%
D40*
%TO.C,R15*%
X187809978Y-64350012D03*
X186789978Y-64350012D03*
%TD*%
D35*
%TO.C,D18*%
X104830705Y-96528205D03*
X104287185Y-98556649D03*
%TD*%
D40*
%TO.C,R14*%
X192509971Y-104400008D03*
X191489971Y-104400008D03*
%TD*%
D46*
%TO.C,C94*%
X283214968Y-110422148D03*
X282287680Y-110670614D03*
%TD*%
D35*
%TO.C,D2*%
X51682448Y-74069673D03*
X51138928Y-76098117D03*
%TD*%
D28*
%TO.C,C45*%
X170199978Y-81279991D03*
X170199978Y-80319991D03*
%TD*%
D51*
%TO.C,C72*%
X84082455Y-148963592D03*
X83155167Y-148715126D03*
%TD*%
D27*
%TO.C,D47*%
X281950703Y-80705568D03*
X282494223Y-82734012D03*
%TD*%
D51*
%TO.C,C47*%
X84170959Y-75029772D03*
X83243671Y-74781306D03*
%TD*%
D27*
%TO.C,D56*%
X315670889Y-59343999D03*
X316214409Y-61372443D03*
%TD*%
D92*
%TO.C,D134*%
X197424149Y-150866995D03*
X197959906Y-152160426D03*
X202505486Y-148762236D03*
%TD*%
D93*
%TO.C,FB1*%
X187037476Y-54600012D03*
X189162476Y-54600012D03*
%TD*%
D54*
%TO.C,D104*%
X309867080Y-146833530D03*
X309504734Y-145481234D03*
X304554488Y-148257034D03*
%TD*%
D20*
%TO.C,SW52*%
X315484430Y-85191751D03*
D21*
X310577527Y-86506552D03*
D20*
X305670624Y-87821353D03*
D22*
X306239949Y-85039201D03*
D26*
X303076541Y-85886832D03*
X314905664Y-80087627D03*
D22*
X311716178Y-80942248D03*
%TD*%
D46*
%TO.C,C107*%
X292782046Y-72523422D03*
X291854758Y-72771888D03*
%TD*%
D27*
%TO.C,D33*%
X232500299Y-116964795D03*
X233043819Y-118993239D03*
%TD*%
D46*
%TO.C,C96*%
X322276570Y-108994886D03*
X321349282Y-109243352D03*
%TD*%
D94*
%TO.C,D96*%
X144317366Y-182022961D03*
X145307315Y-181033012D03*
X140428279Y-178133874D03*
%TD*%
D61*
%TO.C,R28*%
X202889979Y-128100013D03*
X203909979Y-128100013D03*
%TD*%
D95*
%TO.C,C117*%
X191098001Y-114088297D03*
X190211077Y-114455673D03*
%TD*%
D39*
%TO.C,D124*%
X235019725Y-109560404D03*
X235382071Y-110912700D03*
X240332317Y-108136900D03*
%TD*%
D20*
%TO.C,SW44*%
X286283846Y-123420777D03*
D21*
X281376943Y-124735578D03*
D20*
X276470040Y-126050379D03*
D22*
X277039365Y-123268227D03*
D26*
X273875957Y-124115858D03*
X285705080Y-118316653D03*
D22*
X282515594Y-119171274D03*
%TD*%
D78*
%TO.C,D73*%
X145667653Y-108136894D03*
X145305307Y-109489190D03*
X150980245Y-109560398D03*
%TD*%
D28*
%TO.C,C20*%
X189199975Y-57080003D03*
X189199975Y-56120003D03*
%TD*%
D29*
%TO.C,R19*%
X178149981Y-60060007D03*
X178149981Y-59040007D03*
%TD*%
D96*
%TO.C,U10*%
X161524976Y-74745005D03*
X161524976Y-73475005D03*
X161524976Y-72205005D03*
X161524976Y-70935005D03*
X161524976Y-69665005D03*
X161524976Y-68395005D03*
X161524976Y-67125005D03*
X161524976Y-65855005D03*
X166474976Y-65855005D03*
X166474976Y-67125005D03*
X166474976Y-68395005D03*
X166474976Y-69665005D03*
X166474976Y-70935005D03*
X166474976Y-72205005D03*
X166474976Y-73475005D03*
X166474976Y-74745005D03*
%TD*%
D97*
%TO.C,C115*%
X174088270Y-134901987D03*
X174455646Y-135788911D03*
%TD*%
D35*
%TO.C,D17*%
X109761231Y-78127332D03*
X109217711Y-80155776D03*
%TD*%
D46*
%TO.C,C82*%
X283068544Y-158944665D03*
X282141256Y-159193131D03*
%TD*%
D50*
%TO.C,JP1*%
X192399976Y-106300005D03*
X191199976Y-106300005D03*
%TD*%
D57*
%TO.C,C14*%
X195742167Y-60610316D03*
X196420989Y-61289138D03*
%TD*%
D29*
%TO.C,R10*%
X199799971Y-136710009D03*
X199799971Y-135690009D03*
%TD*%
D27*
%TO.C,D41*%
X257592095Y-63401655D03*
X258135615Y-65430099D03*
%TD*%
D20*
%TO.C,SW41*%
X271492335Y-68218130D03*
D21*
X266585432Y-69532931D03*
D20*
X261678529Y-70847732D03*
D22*
X262247854Y-68065580D03*
D26*
X259084446Y-68913211D03*
X270913569Y-63114006D03*
D22*
X267724083Y-63968627D03*
%TD*%
D51*
%TO.C,C58*%
X55292740Y-109201159D03*
X54365452Y-108952693D03*
%TD*%
D98*
%TO.C,J2*%
X189799969Y-52650008D03*
X190599969Y-52650008D03*
D99*
X191749969Y-52650008D03*
X192749969Y-52650008D03*
X193249969Y-52650008D03*
X194249969Y-52650008D03*
D98*
X195399969Y-52650008D03*
X196199969Y-52650008D03*
X196199969Y-52650008D03*
X195399969Y-52650008D03*
D99*
X194749969Y-52650008D03*
X193749969Y-52650008D03*
X192249969Y-52650008D03*
X191249969Y-52650008D03*
D98*
X190599969Y-52650008D03*
X189799969Y-52650008D03*
D100*
X187379969Y-47400008D03*
D101*
X187379969Y-51400008D03*
D100*
X198619969Y-47400008D03*
D101*
X198619969Y-51400008D03*
%TD*%
D27*
%TO.C,D54*%
X311445210Y-117177048D03*
X311988730Y-119205492D03*
%TD*%
D17*
%TO.C,H6*%
X71517609Y-152625363D03*
%TD*%
D102*
%TO.C,D144*%
X195999969Y-76550008D03*
X193899969Y-76550008D03*
%TD*%
D54*
%TO.C,D117*%
X319639591Y-109701459D03*
X319277245Y-108349163D03*
X314326999Y-111124963D03*
%TD*%
D103*
%TO.C,C112*%
X207717486Y-145027701D03*
X208084862Y-144140777D03*
%TD*%
D104*
%TO.C,C114*%
X180972284Y-147717513D03*
X181859208Y-148084889D03*
%TD*%
D36*
%TO.C,C43*%
X200219976Y-78237510D03*
X201179976Y-78237510D03*
%TD*%
D61*
%TO.C,R6*%
X203689973Y-50500013D03*
X204709973Y-50500013D03*
%TD*%
D40*
%TO.C,R29*%
X191409971Y-78037507D03*
X190389971Y-78037507D03*
%TD*%
D105*
%TO.C,L1*%
X182399975Y-78050004D03*
X182399975Y-75750004D03*
%TD*%
D106*
%TO.C,C2*%
X208349972Y-102770009D03*
X208349972Y-103730009D03*
%TD*%
D35*
%TO.C,D1*%
X56612949Y-55668765D03*
X56069429Y-57697209D03*
%TD*%
D107*
%TO.C,R9*%
X207684249Y-73936982D03*
X206963001Y-73215734D03*
%TD*%
D108*
%TO.C,C110*%
X205027677Y-118282508D03*
X204140753Y-117915132D03*
%TD*%
D52*
%TO.C,R1*%
X213049975Y-102740006D03*
X213049975Y-103760006D03*
%TD*%
D44*
%TO.C,C64*%
X133169670Y-144232102D03*
X134096958Y-144480568D03*
%TD*%
D109*
%TO.C,R8*%
X194034479Y-63675618D03*
X194755727Y-64396866D03*
%TD*%
D48*
%TO.C,D71*%
X137969274Y-84514472D03*
X138331620Y-83162176D03*
X132656682Y-83090968D03*
%TD*%
D41*
%TO.C,C91*%
X242243755Y-147068743D03*
X243171043Y-146820277D03*
%TD*%
D44*
%TO.C,C66*%
X98216843Y-127470727D03*
X99144131Y-127719193D03*
%TD*%
D27*
%TO.C,D53*%
X306514696Y-98776176D03*
X307058216Y-100804620D03*
%TD*%
D74*
%TO.C,C6*%
X211198554Y-73519793D03*
X210519732Y-74198615D03*
%TD*%
D28*
%TO.C,C23*%
X183299973Y-57780003D03*
X183299973Y-56820003D03*
%TD*%
D110*
%TO.C,D101*%
X245571691Y-178133878D03*
X244581742Y-177143929D03*
X241682604Y-182022965D03*
%TD*%
D40*
%TO.C,R36*%
X181959969Y-54700006D03*
X180939969Y-54700006D03*
%TD*%
D78*
%TO.C,D89*%
X61792214Y-126750060D03*
X61429868Y-128102356D03*
X67104806Y-128173564D03*
%TD*%
D111*
%TO.C,R30*%
X197399973Y-78025013D03*
X197399973Y-76375013D03*
%TD*%
D44*
%TO.C,C56*%
X69016257Y-89241702D03*
X69943545Y-89490168D03*
%TD*%
D51*
%TO.C,C60*%
X93943472Y-112161818D03*
X93016184Y-111913352D03*
%TD*%
D102*
%TO.C,D143*%
X192649973Y-76550013D03*
X190549973Y-76550013D03*
%TD*%
D78*
%TO.C,D74*%
X128088518Y-100139551D03*
X127726172Y-101491847D03*
X133401110Y-101563055D03*
%TD*%
D27*
%TO.C,D32*%
X227569790Y-98563905D03*
X228113310Y-100592349D03*
%TD*%
D20*
%TO.C,SW40*%
X260952825Y-160496515D03*
D21*
X256553416Y-163036515D03*
D20*
X252154007Y-165576515D03*
D22*
X251983859Y-162741810D03*
D53*
X249147625Y-164379309D03*
X259072735Y-155716105D03*
D22*
X256213121Y-157367106D03*
%TD*%
D40*
%TO.C,R35*%
X179769973Y-54700006D03*
X178749973Y-54700006D03*
%TD*%
D35*
%TO.C,D23*%
X122204432Y-105292264D03*
X121660912Y-107320708D03*
%TD*%
D59*
%TO.C,C75*%
X146247769Y-183953367D03*
X145568947Y-183274545D03*
%TD*%
D32*
%TO.C,D95*%
X128978120Y-169347875D03*
X129678120Y-168135439D03*
X124214980Y-166597875D03*
%TD*%
D51*
%TO.C,C50*%
X140606242Y-85221052D03*
X139678954Y-84972586D03*
%TD*%
D40*
%TO.C,R37*%
X187809979Y-66450008D03*
X186789979Y-66450008D03*
%TD*%
D29*
%TO.C,R2*%
X210849971Y-103760010D03*
X210849971Y-102740010D03*
%TD*%
D58*
%TO.C,C35*%
X178124972Y-73900018D03*
X179674972Y-73900018D03*
%TD*%
D61*
%TO.C,R26*%
X177889978Y-79600010D03*
X178909978Y-79600010D03*
%TD*%
D112*
%TO.C,D137*%
X177237752Y-123494502D03*
X175944321Y-122958745D03*
X175132993Y-128575839D03*
%TD*%
D27*
%TO.C,D36*%
X240218417Y-72165700D03*
X240761937Y-74194144D03*
%TD*%
D60*
%TO.C,C15*%
X201604068Y-61494193D03*
X202282890Y-60815371D03*
%TD*%
D28*
%TO.C,C34*%
X181599977Y-52380007D03*
X181599977Y-51420007D03*
%TD*%
D113*
%TO.C,C111*%
X211911693Y-131098030D03*
X211544317Y-130211106D03*
%TD*%
D20*
%TO.C,SW46*%
X290920402Y-67121167D03*
D21*
X286013499Y-68435968D03*
D20*
X281106596Y-69750769D03*
D22*
X281675921Y-66968617D03*
D26*
X278512513Y-67816248D03*
X290341636Y-62017043D03*
D22*
X287152150Y-62871664D03*
%TD*%
D54*
%TO.C,D128*%
X290145066Y-73229997D03*
X289782720Y-71877701D03*
X284832474Y-74653501D03*
%TD*%
D51*
%TO.C,C51*%
X158185378Y-93218374D03*
X157258090Y-92969908D03*
%TD*%
D46*
%TO.C,C93*%
X265841294Y-119186188D03*
X264914006Y-119434654D03*
%TD*%
D20*
%TO.C,SW51*%
X310553924Y-66790876D03*
D21*
X305647021Y-68105677D03*
D20*
X300740118Y-69420478D03*
D22*
X301309443Y-66638326D03*
D26*
X298146035Y-67485957D03*
X309975158Y-61686752D03*
D22*
X306785672Y-62541373D03*
%TD*%
D27*
%TO.C,D59*%
X330462383Y-114546664D03*
X331005903Y-116575108D03*
%TD*%
D41*
%TO.C,C98*%
X325414354Y-89447966D03*
X326341642Y-89199500D03*
%TD*%
D61*
%TO.C,R33*%
X165639977Y-82900000D03*
X166659977Y-82900000D03*
%TD*%
D20*
%TO.C,SW60*%
X349293121Y-137764020D03*
D21*
X344386218Y-139078821D03*
D20*
X339479315Y-140393622D03*
D22*
X340048640Y-137611470D03*
D26*
X336885232Y-138459101D03*
X348714355Y-132659896D03*
D22*
X345524869Y-133514517D03*
%TD*%
D20*
%TO.C,SW37*%
X259049154Y-95383058D03*
D21*
X254142251Y-96697859D03*
D20*
X249235348Y-98012660D03*
D22*
X249804673Y-95230508D03*
D26*
X246641265Y-96078139D03*
X258470388Y-90278934D03*
D22*
X255280902Y-91133555D03*
%TD*%
D35*
%TO.C,D9*%
X60838607Y-113501839D03*
X60295087Y-115530283D03*
%TD*%
D75*
%TO.C,C120*%
X169049973Y-87149993D03*
X167149973Y-87149993D03*
%TD*%
D48*
%TO.C,D80*%
X71672978Y-111124954D03*
X72035324Y-109772658D03*
X66360386Y-109701450D03*
%TD*%
D41*
%TO.C,C88*%
X296624668Y-129210438D03*
X297551956Y-128961972D03*
%TD*%
D39*
%TO.C,D122*%
X269972552Y-92799047D03*
X270334898Y-94151343D03*
X275285144Y-91375543D03*
%TD*%
D27*
%TO.C,D42*%
X262522616Y-81802542D03*
X263066136Y-83830986D03*
%TD*%
D48*
%TO.C,D91*%
X42794771Y-145296353D03*
X43157117Y-143944057D03*
X37482179Y-143872849D03*
%TD*%
D35*
%TO.C,D22*%
X127134925Y-86891331D03*
X126591405Y-88919775D03*
%TD*%
D73*
%TO.C,C24*%
X168580000Y-77100000D03*
X167620000Y-77100000D03*
%TD*%
D47*
%TO.C,C11*%
X191708678Y-65486134D03*
X192804694Y-66582150D03*
%TD*%
D114*
%TO.C,U2*%
X202081364Y-52807387D03*
X202979390Y-53705413D03*
X203877415Y-54603438D03*
X204775441Y-55501464D03*
X199684272Y-60592633D03*
X198786246Y-59694607D03*
X197888221Y-58796582D03*
X196990195Y-57898556D03*
%TD*%
D35*
%TO.C,D3*%
X46751924Y-92470558D03*
X46208404Y-94499002D03*
%TD*%
D106*
%TO.C,C36*%
X178499976Y-80720015D03*
X178499976Y-81680015D03*
%TD*%
D35*
%TO.C,D11*%
X95263651Y-58629471D03*
X94720131Y-60657915D03*
%TD*%
D44*
%TO.C,C65*%
X115590548Y-136234763D03*
X116517836Y-136483229D03*
%TD*%
D48*
%TO.C,D67*%
X62516792Y-71692795D03*
X62879138Y-70340499D03*
X57204200Y-70269291D03*
%TD*%
D27*
%TO.C,D49*%
X291811691Y-117507349D03*
X292355211Y-119535793D03*
%TD*%
D59*
%TO.C,C5*%
X210915722Y-70663070D03*
X210236900Y-69984248D03*
%TD*%
D27*
%TO.C,D46*%
X277020190Y-62304690D03*
X277563710Y-64333134D03*
%TD*%
D115*
%TO.C,D35*%
X228742566Y-175234739D03*
X230227490Y-176719663D03*
%TD*%
D65*
%TO.C,C4*%
X163000000Y-61725000D03*
X163000000Y-63275000D03*
%TD*%
D116*
%TO.C,U11*%
X224474974Y-65855008D03*
X224474974Y-67125008D03*
X224474974Y-68395008D03*
X224474974Y-69665008D03*
X224474974Y-70935008D03*
X224474974Y-72205008D03*
X224474974Y-73475008D03*
X224474974Y-74745008D03*
X219524974Y-74745008D03*
X219524974Y-73475008D03*
X219524974Y-72205008D03*
X219524974Y-70935008D03*
X219524974Y-69665008D03*
X219524974Y-68395008D03*
X219524974Y-67125008D03*
X219524974Y-65855008D03*
%TD*%
D35*
%TO.C,D27*%
X144714050Y-94888671D03*
X144170530Y-96917115D03*
%TD*%
D78*
%TO.C,D87*%
X100853815Y-128177304D03*
X100491469Y-129529600D03*
X106166407Y-129600808D03*
%TD*%
D51*
%TO.C,C46*%
X65153774Y-72399370D03*
X64226486Y-72150904D03*
%TD*%
D54*
%TO.C,D103*%
X280431569Y-159651244D03*
X280069223Y-158298948D03*
X275118977Y-161074748D03*
%TD*%
D117*
%TO.C,C113*%
X194901962Y-151911719D03*
X195788886Y-151544343D03*
%TD*%
D118*
%TO.C,R5*%
X202997072Y-60101188D03*
X203718320Y-59379940D03*
%TD*%
D119*
%TO.C,C116*%
X178282477Y-120972310D03*
X177915101Y-121859234D03*
%TD*%
D44*
%TO.C,C52*%
X143030679Y-107430317D03*
X143957967Y-107678783D03*
%TD*%
D52*
%TO.C,R21*%
X179149976Y-60990009D03*
X179149976Y-62010009D03*
%TD*%
D41*
%TO.C,C89*%
X277196593Y-130307386D03*
X278123881Y-130058920D03*
%TD*%
D17*
%TO.C,H4*%
X218300000Y-57557218D03*
%TD*%
D120*
%TO.C,D132*%
X210866966Y-128575839D03*
X212160397Y-128040082D03*
X208762207Y-123494502D03*
%TD*%
D72*
%TO.C,D62*%
X185899980Y-167750024D03*
X185899980Y-169850024D03*
%TD*%
D61*
%TO.C,R16*%
X180939973Y-55700008D03*
X181959973Y-55700008D03*
%TD*%
D59*
%TO.C,C17*%
X205315912Y-74285268D03*
X204637090Y-73606446D03*
%TD*%
D73*
%TO.C,C29*%
X166979974Y-76100000D03*
X166019974Y-76100000D03*
%TD*%
D54*
%TO.C,D113*%
X245625164Y-127890065D03*
X245262818Y-126537769D03*
X240312572Y-129313569D03*
%TD*%
D52*
%TO.C,R22*%
X180149969Y-60990009D03*
X180149969Y-62010009D03*
%TD*%
D51*
%TO.C,C61*%
X113371527Y-113258808D03*
X112444239Y-113010342D03*
%TD*%
D54*
%TO.C,D125*%
X235764163Y-91088307D03*
X235401817Y-89736011D03*
X230451571Y-92511811D03*
%TD*%
D20*
%TO.C,SW54*%
X325345439Y-121993530D03*
D21*
X320438536Y-123308331D03*
D20*
X315531633Y-124623132D03*
D22*
X316100958Y-121840980D03*
D26*
X312937550Y-122688611D03*
X324766673Y-116889406D03*
D22*
X321577187Y-117744027D03*
%TD*%
D40*
%TO.C,R24*%
X179659977Y-67350007D03*
X178639977Y-67350007D03*
%TD*%
D54*
%TO.C,D114*%
X263204314Y-119892767D03*
X262841968Y-118540471D03*
X257891722Y-121316271D03*
%TD*%
D29*
%TO.C,R18*%
X179149977Y-60060012D03*
X179149977Y-59040012D03*
%TD*%
D48*
%TO.C,D92*%
X61811972Y-147926749D03*
X62174318Y-146574453D03*
X56499380Y-146503245D03*
%TD*%
D27*
%TO.C,D31*%
X222639290Y-80163002D03*
X223182810Y-82191446D03*
%TD*%
D78*
%TO.C,D76*%
X91286736Y-90278559D03*
X90924390Y-91630855D03*
X96599328Y-91702063D03*
%TD*%
D62*
%TO.C,C119*%
X168974978Y-85349993D03*
X167424978Y-85349993D03*
%TD*%
D37*
%TO.C,U9*%
X180749969Y-56950009D03*
X181249969Y-56950009D03*
X181749969Y-56950009D03*
X182249969Y-56950009D03*
X182249969Y-58850009D03*
X181749969Y-58850009D03*
X181249969Y-58850009D03*
X180749969Y-58850009D03*
D38*
X181499969Y-57900009D03*
%TD*%
D71*
%TO.C,D102*%
X261784985Y-166597859D03*
X261084985Y-165385423D03*
X257021845Y-169347859D03*
%TD*%
D20*
%TO.C,SW55*%
X330275937Y-140394426D03*
D21*
X325369034Y-141709227D03*
D20*
X320462131Y-143024028D03*
D22*
X321031456Y-140241876D03*
D26*
X317868048Y-141089507D03*
X329697171Y-135290302D03*
D22*
X326507685Y-136144923D03*
%TD*%
D74*
%TO.C,C16*%
X206454821Y-63290238D03*
X205775999Y-63969060D03*
%TD*%
D20*
%TO.C,SW48*%
X300781414Y-103922929D03*
D21*
X295874511Y-105237730D03*
D20*
X290967608Y-106552531D03*
D22*
X291536933Y-103770379D03*
D26*
X288373525Y-104618010D03*
X300202648Y-98818805D03*
D22*
X297013162Y-99673426D03*
%TD*%
D27*
%TO.C,D43*%
X267453100Y-100203434D03*
X267996620Y-102231878D03*
%TD*%
%TO.C,D52*%
X301584213Y-80375293D03*
X302127733Y-82403737D03*
%TD*%
D55*
%TO.C,C74*%
X131342375Y-170712871D03*
X130510991Y-170232871D03*
%TD*%
D39*
%TO.C,D121*%
X289400639Y-91702084D03*
X289762985Y-93054380D03*
X294713231Y-90278580D03*
%TD*%
D17*
%TO.C,H5*%
X167700000Y-57557211D03*
%TD*%
D35*
%TO.C,D29*%
X134853050Y-131690459D03*
X134309530Y-133718903D03*
%TD*%
D52*
%TO.C,R25*%
X179699974Y-80690009D03*
X179699974Y-81710009D03*
%TD*%
D48*
%TO.C,D83*%
X128108274Y-121316283D03*
X128470620Y-119963987D03*
X122795682Y-119892779D03*
%TD*%
D121*
%TO.C,D136*%
X175132992Y-137424178D03*
X173839561Y-137959935D03*
X177237751Y-142505515D03*
%TD*%
D48*
%TO.C,D70*%
X120595570Y-75750451D03*
X120957916Y-74398155D03*
X115282978Y-74326947D03*
%TD*%
D49*
%TO.C,D40*%
X246279643Y-159441814D03*
X247329643Y-161260468D03*
%TD*%
D54*
%TO.C,D115*%
X280577992Y-111128723D03*
X280215646Y-109776427D03*
X275265400Y-112552227D03*
%TD*%
D78*
%TO.C,D90*%
X42775041Y-124119674D03*
X42412695Y-125471970D03*
X48087633Y-125543178D03*
%TD*%
D66*
%TO.C,C78*%
X223132187Y-172157757D03*
X222300803Y-172637757D03*
%TD*%
D45*
%TO.C,C39*%
X185799975Y-76875005D03*
X185799975Y-75325005D03*
%TD*%
D122*
%TO.C,Y1*%
X208773201Y-70571153D03*
X210328836Y-72126788D03*
X209126755Y-73328869D03*
X207571120Y-71773234D03*
%TD*%
D74*
%TO.C,C25*%
X196289392Y-56410602D03*
X195610570Y-57089424D03*
%TD*%
D48*
%TO.C,D72*%
X155548398Y-92511798D03*
X155910744Y-91159502D03*
X150235806Y-91088294D03*
%TD*%
D60*
%TO.C,C18*%
X196660562Y-73070281D03*
X197339384Y-72391459D03*
%TD*%
D20*
%TO.C,SW53*%
X320414934Y-103592638D03*
D21*
X315508031Y-104907439D03*
D20*
X310601128Y-106222240D03*
D22*
X311170453Y-103440088D03*
D26*
X308007045Y-104287719D03*
X319836168Y-98488514D03*
D22*
X316646682Y-99343135D03*
%TD*%
D20*
%TO.C,SW35*%
X243188745Y-172455811D03*
D21*
X239596643Y-176047913D03*
D20*
X236004541Y-179640015D03*
D22*
X235106515Y-176945939D03*
D123*
X232790739Y-179261712D03*
X240135457Y-168324892D03*
D22*
X237800592Y-170659759D03*
%TD*%
D20*
%TO.C,SW34*%
X251331007Y-140182134D03*
D21*
X246424104Y-141496935D03*
D20*
X241517201Y-142811736D03*
D22*
X242086526Y-140029584D03*
D26*
X238923118Y-140877215D03*
X250752241Y-135078010D03*
D22*
X247562755Y-135932631D03*
%TD*%
D45*
%TO.C,C42*%
X198999975Y-77975009D03*
X198999975Y-76425009D03*
%TD*%
D61*
%TO.C,R11*%
X200189983Y-125300012D03*
X201209983Y-125300012D03*
%TD*%
%TO.C,R13*%
X165590000Y-77100000D03*
X166610000Y-77100000D03*
%TD*%
D67*
%TO.C,D25*%
X127422775Y-152341823D03*
X126372775Y-154160477D03*
%TD*%
D35*
%TO.C,D24*%
X117273930Y-123693118D03*
X116730410Y-125721562D03*
%TD*%
D78*
%TO.C,D85*%
X135806644Y-144938679D03*
X135444298Y-146290975D03*
X141119236Y-146362183D03*
%TD*%
D124*
%TO.C,R31*%
X183287475Y-55100013D03*
X185112475Y-55100013D03*
%TD*%
D52*
%TO.C,R3*%
X209449974Y-102740013D03*
X209449974Y-103760013D03*
%TD*%
D45*
%TO.C,C26*%
X200099976Y-130875014D03*
X200099976Y-129325014D03*
%TD*%
D35*
%TO.C,D26*%
X149644557Y-76487778D03*
X149101037Y-78516222D03*
%TD*%
D46*
%TO.C,C95*%
X302643051Y-109325179D03*
X301715763Y-109573645D03*
%TD*%
D27*
%TO.C,D38*%
X250079418Y-108967454D03*
X250622938Y-110995898D03*
%TD*%
D30*
%TO.C,J6*%
X185749976Y-79737509D03*
X186249976Y-79737509D03*
X186749976Y-79737509D03*
X187249976Y-79737509D03*
X187749976Y-79737509D03*
X188249976Y-79737509D03*
X188749976Y-79737509D03*
X189249976Y-79737509D03*
X189749976Y-79737509D03*
X190249976Y-79737509D03*
X190749976Y-79737509D03*
X191249976Y-79737509D03*
X191749976Y-79737509D03*
X192249976Y-79737509D03*
X192749976Y-79737509D03*
X193249976Y-79737509D03*
X193749976Y-79737509D03*
X194249976Y-79737509D03*
X194749976Y-79737509D03*
X195249976Y-79737509D03*
X195749976Y-79737509D03*
X196249976Y-79737509D03*
X196749976Y-79737509D03*
X197249976Y-79737509D03*
X197749976Y-79737509D03*
X198249976Y-79737509D03*
X198749976Y-79737509D03*
X199249976Y-79737509D03*
X199749976Y-79737509D03*
X200249976Y-79737509D03*
D31*
X201249976Y-82237509D03*
X184749976Y-82237509D03*
%TD*%
D39*
%TO.C,D119*%
X328051329Y-88741392D03*
X328413675Y-90093688D03*
X333363921Y-87317888D03*
%TD*%
D106*
%TO.C,C1*%
X211949979Y-102770007D03*
X211949979Y-103730007D03*
%TD*%
D20*
%TO.C,SW42*%
X276422830Y-86619018D03*
D21*
X271515927Y-87933819D03*
D20*
X266609024Y-89248620D03*
D22*
X267178349Y-86466468D03*
D26*
X264014941Y-87314099D03*
X275844064Y-81514894D03*
D22*
X272654578Y-82369515D03*
%TD*%
D44*
%TO.C,C69*%
X40138065Y-123413106D03*
X41065353Y-123661572D03*
%TD*%
D48*
%TO.C,D81*%
X91306488Y-111455245D03*
X91668834Y-110102949D03*
X85993896Y-110031741D03*
%TD*%
D46*
%TO.C,C104*%
X238401144Y-90381737D03*
X237473856Y-90630203D03*
%TD*%
D75*
%TO.C,C121*%
X169049980Y-89149993D03*
X167149980Y-89149993D03*
%TD*%
D35*
%TO.C,D5*%
X36890934Y-129272327D03*
X36347414Y-131300771D03*
%TD*%
D125*
%TO.C,U13*%
X185337476Y-51400011D03*
X185337476Y-52350011D03*
X185337476Y-53300011D03*
X183062476Y-53300011D03*
X183062476Y-51400011D03*
%TD*%
D20*
%TO.C,SW56*%
X329571122Y-64160476D03*
D21*
X324664219Y-65475277D03*
D20*
X319757316Y-66790078D03*
D22*
X320326641Y-64007926D03*
D26*
X317163233Y-64855557D03*
X328992356Y-59056352D03*
D22*
X325802870Y-59910973D03*
%TD*%
D39*
%TO.C,D107*%
X337912347Y-125543183D03*
X338274693Y-126895479D03*
X343224939Y-124119679D03*
%TD*%
D78*
%TO.C,D77*%
X71653232Y-89948274D03*
X71290886Y-91300570D03*
X76965824Y-91371778D03*
%TD*%
D48*
%TO.C,D82*%
X110734548Y-112552227D03*
X111096894Y-111199931D03*
X105421956Y-111128723D03*
%TD*%
D126*
%TO.C,D30*%
X147216496Y-165193830D03*
X145731572Y-166678754D03*
%TD*%
D109*
%TO.C,R7*%
X194847662Y-62862443D03*
X195568910Y-63583691D03*
%TD*%
D21*
%TO.C,SW64*%
X204906222Y-186795007D03*
D20*
X198079972Y-195050007D03*
D21*
X192999972Y-195050007D03*
D20*
X187919972Y-195050007D03*
D21*
X181093722Y-186795007D03*
D22*
X189189972Y-192510007D03*
D33*
X185914971Y-192510006D03*
X198841971Y-189970006D03*
D22*
X195539972Y-189970007D03*
%TD*%
D51*
%TO.C,C62*%
X130745259Y-122022861D03*
X129817971Y-121774395D03*
%TD*%
D127*
%TO.C,U3*%
X172949999Y-60449999D03*
X172949999Y-61099999D03*
X172949999Y-61749999D03*
X171049999Y-61749999D03*
X171049999Y-60449999D03*
%TD*%
D106*
%TO.C,C27*%
X201399977Y-130220014D03*
X201399977Y-131180014D03*
%TD*%
D27*
%TO.C,D51*%
X296653697Y-61974389D03*
X297197217Y-64002833D03*
%TD*%
D44*
%TO.C,C53*%
X125451536Y-99432976D03*
X126378824Y-99681442D03*
%TD*%
D20*
%TO.C,SW36*%
X254118631Y-76982171D03*
D21*
X249211728Y-78296972D03*
D20*
X244304825Y-79611773D03*
D22*
X244874150Y-76829621D03*
D26*
X241710742Y-77677252D03*
X253539865Y-71878047D03*
D22*
X250350379Y-72732668D03*
%TD*%
D20*
%TO.C,SW39*%
X268910144Y-132184827D03*
D21*
X264003241Y-133499628D03*
D20*
X259096338Y-134814429D03*
D22*
X259665663Y-132032277D03*
D26*
X256502255Y-132879908D03*
X268331378Y-127080703D03*
D22*
X265141892Y-127935324D03*
%TD*%
D78*
%TO.C,D88*%
X81425737Y-127080343D03*
X81063391Y-128432639D03*
X86738329Y-128503847D03*
%TD*%
D20*
%TO.C,SW32*%
X241470003Y-103380369D03*
D21*
X236563100Y-104695170D03*
D20*
X231656197Y-106009971D03*
D22*
X232225522Y-103227819D03*
D26*
X229062114Y-104075450D03*
X240891237Y-98276245D03*
D22*
X237701751Y-99130866D03*
%TD*%
D35*
%TO.C,D12*%
X90333147Y-77030341D03*
X89789627Y-79058785D03*
%TD*%
D128*
%TO.C,D141*%
X183099975Y-81550014D03*
X183099975Y-79450014D03*
%TD*%
D51*
%TO.C,C48*%
X103804472Y-75360072D03*
X102877184Y-75111606D03*
%TD*%
D27*
%TO.C,D45*%
X267306678Y-148725955D03*
X267850198Y-150754399D03*
%TD*%
D78*
%TO.C,D78*%
X52636040Y-87317894D03*
X52273694Y-88670190D03*
X57948632Y-88741398D03*
%TD*%
D27*
%TO.C,D44*%
X272383613Y-118604298D03*
X272927133Y-120632742D03*
%TD*%
D58*
%TO.C,C41*%
X187624979Y-77937513D03*
X189174979Y-77937513D03*
%TD*%
D35*
%TO.C,D15*%
X75541640Y-132232996D03*
X74998120Y-134261440D03*
%TD*%
%TO.C,D13*%
X85402647Y-95431219D03*
X84859127Y-97459663D03*
%TD*%
D39*
%TO.C,D123*%
X252598872Y-101563093D03*
X252961218Y-102915389D03*
X257911464Y-100139589D03*
%TD*%
D41*
%TO.C,C102*%
X249961899Y-102269664D03*
X250889187Y-102021198D03*
%TD*%
D40*
%TO.C,R17*%
X179769976Y-55700008D03*
X178749976Y-55700008D03*
%TD*%
D129*
%TO.C,D135*%
X183494473Y-148762236D03*
X182958716Y-150055667D03*
X188575810Y-150866995D03*
%TD*%
D35*
%TO.C,D20*%
X104977151Y-145050719D03*
X104433631Y-147079163D03*
%TD*%
D54*
%TO.C,D126*%
X253343289Y-83091001D03*
X252980943Y-81738705D03*
X248030697Y-84514505D03*
%TD*%
D44*
%TO.C,C57*%
X49999066Y-86611317D03*
X50926354Y-86859783D03*
%TD*%
D46*
%TO.C,C83*%
X312504056Y-146126958D03*
X311576768Y-146375424D03*
%TD*%
D58*
%TO.C,C32*%
X186324979Y-56850010D03*
X187874979Y-56850010D03*
%TD*%
M02*
