M48
; DRILL file {KiCad 7.0.1} date Sat Apr  8 02:33:32 2023
; FORMAT={-:-/ absolute / inch / decimal}
; #@! TF.CreationDate,2023-04-08T02:33:32+01:00
; #@! TF.GenerationSoftware,Kicad,Pcbnew,7.0.1
; #@! TF.FileFunction,NonPlated,1,2,NPTH
FMAT,2
INCH
; #@! TA.AperFunction,NonPlated,NPTH,ComponentDrill
T1C0.0256
; #@! TA.AperFunction,NonPlated,NPTH,ComponentDrill
T2C0.0295
; #@! TA.AperFunction,NonPlated,NPTH,ComponentDrill
T3C0.0354
; #@! TA.AperFunction,NonPlated,NPTH,ComponentDrill
T4C0.0454
; #@! TA.AperFunction,NonPlated,NPTH,ComponentDrill
T5C0.0689
; #@! TA.AperFunction,NonPlated,NPTH,ComponentDrill
T6C0.0787
; #@! TA.AperFunction,NonPlated,NPTH,ComponentDrill
T7C0.1181
; #@! TA.AperFunction,NonPlated,NPTH,ComponentDrill
T8C0.1570
%
G90
G05
T1
X5.8705Y-0.876
X6.098Y-0.876
X6.9728Y-0.876
X7.2004Y-0.876
X8.0752Y-0.876
X8.3028Y-0.876
T2
X6.5354Y-0.6978
X6.5354Y-0.8061
T3
X7.5787Y-0.7508
X7.6969Y-0.7508
T4
X1.7913Y-0.9449
X7.0866Y-5.9055
X12.3858Y-0.9449
T5
X0.9333Y-4.2207
X1.1275Y-3.4963
X1.3197Y-4.3243
X1.3216Y-2.7719
X1.5138Y-3.5998
X1.5157Y-2.0474
X1.682Y-4.3243
X1.7079Y-2.8754
X1.7098Y-1.323
X1.8762Y-3.5999
X1.9021Y-2.1509
X2.0684Y-4.4278
X2.0703Y-2.8754
X2.0962Y-1.4265
X2.2625Y-3.7034
X2.2644Y-2.151
X2.455Y-4.3373
X2.4566Y-2.9789
X2.4585Y-1.4265
X2.6491Y-3.6129
X2.6508Y-2.2545
X2.8414Y-4.4408
X2.8433Y-2.8884
X2.8449Y-1.53
X3.0355Y-3.7164
X3.0374Y-2.164
X3.2296Y-2.9919
X3.2315Y-1.4395
X3.414Y-3.656
X3.4237Y-2.2675
X3.6081Y-2.9316
X3.6139Y-4.8419
X3.6179Y-1.5431
X3.8004Y-3.7596
X3.8023Y-2.2072
X3.9945Y-3.0351
X3.9964Y-1.4827
X4.0003Y-4.9455
X4.098Y-4.0011
X4.1886Y-2.3107
X4.2921Y-3.2766
X4.3827Y-1.5862
X4.4355Y-5.125
X4.4844Y-4.1046
X4.4863Y-2.5522
X4.6785Y-3.3802
X4.6804Y-1.8278
X4.7819Y-5.325
X4.7901Y-4.3159
X4.8726Y-2.6557
X4.9842Y-3.5915
X5.0667Y-1.9313
X5.1509Y-5.6103
X5.1765Y-4.4195
X5.1783Y-2.8671
X5.3706Y-3.695
X5.3725Y-2.1426
X5.4338Y-5.8931
X5.5647Y-2.9706
X5.7588Y-2.2461
X6.0525Y-6.1723
X6.4389Y-6.2758
X6.8866Y-6.335
X7.2866Y-6.335
X7.7344Y-6.2758
X8.1207Y-6.1723
X8.4144Y-2.2461
X8.6085Y-2.9706
X8.7395Y-5.8931
X8.8008Y-2.1426
X8.8026Y-3.695
X8.9949Y-2.8671
X8.9967Y-4.4195
X9.0223Y-5.6103
X9.1065Y-1.9313
X9.189Y-3.5915
X9.3006Y-2.6557
X9.3831Y-4.3159
X9.3914Y-5.325
X9.4929Y-1.8278
X9.4947Y-3.3802
X9.687Y-2.5522
X9.6888Y-4.1046
X9.7378Y-5.125
X9.7905Y-1.5862
X9.8811Y-3.2766
X9.9846Y-2.3107
X10.0752Y-4.0011
X10.173Y-4.9455
X10.1769Y-1.4827
X10.1787Y-3.0351
X10.371Y-2.2072
X10.3728Y-3.7596
X10.5554Y-1.5431
X10.5593Y-4.8419
X10.5651Y-2.9316
X10.7495Y-2.2675
X10.7592Y-3.656
X10.9417Y-1.4395
X10.9436Y-2.9919
X11.1359Y-2.164
X11.1377Y-3.7164
X11.3284Y-1.53
X11.33Y-2.8884
X11.3318Y-4.4408
X11.5225Y-2.2545
X11.5241Y-3.6129
X11.7147Y-1.4265
X11.7166Y-2.9789
X11.7182Y-4.3373
X11.9088Y-2.151
X11.9107Y-3.7034
X12.0771Y-1.4265
X12.103Y-2.8754
X12.1048Y-4.4278
X12.2712Y-2.1509
X12.2971Y-3.5999
X12.4634Y-1.323
X12.4653Y-2.8754
X12.4912Y-4.3243
X12.6575Y-2.0474
X12.6594Y-3.5998
X12.8517Y-2.7719
X12.8535Y-4.3243
X13.0458Y-3.4963
X13.2399Y-4.2207
T6
X6.0827Y-4.5276
X8.0906Y-4.5276
T7
X1.0075Y-4.1371
X1.2016Y-3.4126
X1.2749Y-4.1052
X1.3957Y-2.6882
X1.469Y-3.3808
X1.5899Y-1.9638
X1.6631Y-2.6563
X1.7562Y-4.2406
X1.784Y-1.2393
X1.8572Y-1.9319
X1.9503Y-3.5162
X2.0236Y-4.2088
X2.0513Y-1.2074
X2.1445Y-2.7918
X2.2177Y-3.4843
X2.3386Y-2.0673
X2.4118Y-2.7599
X2.5292Y-4.2537
X2.5327Y-1.3429
X2.6059Y-2.0354
X2.7233Y-3.5292
X2.7966Y-4.2218
X2.8Y-1.311
X2.9174Y-2.8048
X2.9907Y-3.4973
X3.1115Y-2.0803
X3.1848Y-2.7729
X3.3057Y-1.3559
X3.3789Y-2.0484
X3.4882Y-3.5724
X3.573Y-1.324
X3.6823Y-2.8479
X3.6881Y-4.7583
X3.7556Y-3.5405
X3.8764Y-2.1235
X3.9497Y-2.8161
X3.9554Y-4.7264
X4.0705Y-1.3991
X4.1438Y-2.0916
X4.1722Y-3.9174
X4.3379Y-1.3672
X4.3663Y-3.193
X4.4396Y-3.8855
X4.5288Y-5.0634
X4.5604Y-2.4685
X4.6337Y-3.1611
X4.7545Y-1.7441
X4.7953Y-5.1017
X4.8278Y-2.4367
X4.8643Y-4.2323
X5.0219Y-1.7122
X5.0584Y-3.5078
X5.1317Y-4.2004
X5.2525Y-2.7834
X5.257Y-5.5749
X5.3258Y-3.476
X5.4466Y-2.059
X5.5045Y-5.681
X5.5199Y-2.7515
X5.714Y-2.0271
X6.1267Y-6.0886
X6.394Y-6.0567
X6.9366Y-6.235
X7.1866Y-6.135
X7.7568Y-6.1662
X7.9724Y-6.0049
X8.4368Y-2.1366
X8.6309Y-2.861
X8.6524Y-1.9753
X8.7041Y-5.7871
X8.8102Y-5.5396
X8.825Y-3.5855
X8.8465Y-2.6997
X9.0192Y-4.3099
X9.0406Y-3.4242
X9.1289Y-1.8217
X9.2348Y-4.1486
X9.323Y-2.5462
X9.3445Y-1.6605
X9.3847Y-5.2133
X9.5171Y-3.2706
X9.5386Y-2.3849
X9.5512Y-5.0017
X9.7112Y-3.9951
X9.7327Y-3.1093
X9.8129Y-1.4767
X9.9268Y-3.8338
X10.007Y-2.2012
X10.0285Y-1.3154
X10.1954Y-4.8359
X10.2011Y-2.9256
X10.2226Y-2.0399
X10.3953Y-3.65
X10.411Y-4.6746
X10.4167Y-2.7643
X10.5778Y-1.4335
X10.6109Y-3.4887
X10.7719Y-2.158
X10.7934Y-1.2722
X10.966Y-2.8824
X10.9875Y-1.9967
X11.1601Y-3.6069
X11.1816Y-2.7211
X11.3508Y-1.4205
X11.3543Y-4.3313
X11.3757Y-3.4456
X11.5449Y-2.145
X11.5664Y-1.2592
X11.5699Y-4.17
X11.739Y-2.8694
X11.7605Y-1.9837
X11.9331Y-3.5938
X11.9546Y-2.7081
X12.0995Y-1.317
X12.1272Y-4.3183
X12.1487Y-3.4326
X12.2936Y-2.0414
X12.3151Y-1.1557
X12.3428Y-4.157
X12.4877Y-2.7658
X12.5092Y-1.8801
X12.6818Y-3.4903
X12.7033Y-2.6045
X12.8759Y-4.2147
X12.8974Y-3.329
X13.0915Y-4.0534
T8
X1.1265Y-4.2725
X1.3206Y-3.5481
X1.5148Y-2.8236
X1.7089Y-2.0992
X1.8752Y-4.3761
X1.903Y-1.3747
X2.0693Y-3.6516
X2.2635Y-2.9272
X2.4576Y-2.2027
X2.6482Y-4.3891
X2.6517Y-1.4783
X2.8423Y-3.6646
X3.0364Y-2.9402
X3.2306Y-2.2157
X3.4247Y-1.4913
X3.6072Y-3.7078
X3.8013Y-2.9834
X3.8071Y-4.8937
X3.9954Y-2.2589
X4.1895Y-1.5345
X4.2912Y-4.0528
X4.4853Y-3.3284
X4.6087Y-5.225
X4.6794Y-2.604
X4.8736Y-1.8795
X4.9833Y-4.3677
X5.1774Y-3.6433
X5.2924Y-5.7517
X5.3715Y-2.9188
X5.5656Y-2.1944
X6.2457Y-6.224
X7.0866Y-6.335
X7.9276Y-6.224
X8.6076Y-2.1944
X8.8017Y-2.9188
X8.8809Y-5.7517
X8.9958Y-3.6433
X9.1899Y-4.3677
X9.2997Y-1.8795
X9.4938Y-2.604
X9.5646Y-5.225
X9.6879Y-3.3284
X9.882Y-4.0529
X9.9837Y-1.5345
X10.1778Y-2.2589
X10.3661Y-4.8937
X10.3719Y-2.9834
X10.566Y-3.7078
X10.7486Y-1.4913
X10.9427Y-2.2157
X11.1368Y-2.9402
X11.3309Y-3.6646
X11.5215Y-1.4783
X11.525Y-4.3891
X11.7157Y-2.2027
X11.9098Y-2.9272
X12.1039Y-3.6516
X12.2702Y-1.3747
X12.298Y-4.3761
X12.4644Y-2.0992
X12.6585Y-2.8236
X12.8526Y-3.5481
X13.0467Y-4.2725
T0
M30
