M48
; DRILL file {KiCad (7.0.0)} date Sun Apr  2 15:15:40 2023
; FORMAT={-:-/ absolute / inch / decimal}
; #@! TF.CreationDate,2023-04-02T15:15:40+01:00
; #@! TF.GenerationSoftware,Kicad,Pcbnew,(7.0.0)
; #@! TF.FileFunction,NonPlated,1,2,NPTH
FMAT,2
INCH
; #@! TA.AperFunction,NonPlated,NPTH,ComponentDrill
T1C0.0454
; #@! TA.AperFunction,NonPlated,NPTH,ComponentDrill
T2C0.0689
; #@! TA.AperFunction,NonPlated,NPTH,ComponentDrill
T3C0.0787
; #@! TA.AperFunction,NonPlated,NPTH,ComponentDrill
T4C0.1181
; #@! TA.AperFunction,NonPlated,NPTH,ComponentDrill
T5C0.1570
%
G90
G05
T1
X1.9044Y-1.2972
X6.8898Y-7.1161
X11.8554Y-1.2973
T2
X0.8743Y-4.6144
X1.0684Y-3.89
X1.2607Y-4.718
X1.2625Y-3.1656
X1.4548Y-3.9935
X1.4566Y-2.4411
X1.623Y-4.718
X1.6489Y-3.2691
X1.6507Y-1.7167
X1.8171Y-3.9936
X1.843Y-2.5446
X2.0094Y-4.8215
X2.0112Y-3.2691
X2.0371Y-1.8202
X2.2035Y-4.0971
X2.2053Y-2.5447
X2.396Y-4.731
X2.3976Y-3.3726
X2.3995Y-1.8202
X2.5901Y-4.0066
X2.5917Y-2.6482
X2.7823Y-4.8345
X2.7842Y-3.2821
X2.7858Y-1.9237
X2.9765Y-4.1101
X2.9783Y-2.5577
X3.1706Y-3.3856
X3.1724Y-1.8332
X3.355Y-4.0497
X3.3647Y-2.6612
X3.5491Y-3.3253
X3.5548Y-5.2356
X3.5588Y-1.9368
X3.7413Y-4.1533
X3.7432Y-2.6009
X3.9355Y-3.4288
X3.9373Y-1.8764
X3.9412Y-5.3392
X4.039Y-4.3948
X4.1296Y-2.7044
X4.2331Y-3.6703
X4.3237Y-1.9799
X4.3764Y-5.5187
X4.4253Y-4.4983
X4.4272Y-2.9459
X4.6195Y-3.7739
X4.6213Y-2.2215
X4.7228Y-5.7187
X4.7311Y-4.7096
X4.8136Y-3.0494
X4.9252Y-3.9852
X5.0077Y-2.325
X5.0919Y-6.004
X5.1174Y-4.8132
X5.1193Y-3.2608
X5.3115Y-4.0887
X5.3134Y-2.5363
X5.3747Y-6.2868
X5.5057Y-3.3643
X5.6998Y-2.6398
X5.8556Y-6.566
X6.242Y-6.6695
X6.6898Y-6.7287
X7.0898Y-6.7287
X7.5375Y-6.6695
X7.9239Y-6.566
X8.0798Y-2.6398
X8.2739Y-3.3643
X8.4048Y-6.2868
X8.4661Y-2.5363
X8.468Y-4.0887
X8.6602Y-3.2608
X8.6621Y-4.8132
X8.6877Y-6.004
X8.7718Y-2.325
X8.8544Y-3.9852
X8.966Y-3.0494
X9.0485Y-4.7096
X9.0567Y-5.7187
X9.1582Y-2.2215
X9.1601Y-3.7739
X9.3523Y-2.9459
X9.3542Y-4.4983
X9.4031Y-5.5187
X9.4558Y-1.9799
X9.5464Y-3.6703
X9.65Y-2.7044
X9.7406Y-4.3948
X9.8383Y-5.3392
X9.8422Y-1.8764
X9.8441Y-3.4288
X10.0363Y-2.6009
X10.0382Y-4.1533
X10.2207Y-1.9368
X10.2247Y-5.2356
X10.2304Y-3.3253
X10.4148Y-2.6612
X10.4246Y-4.0497
X10.6071Y-1.8332
X10.609Y-3.3856
X10.8012Y-2.5577
X10.8031Y-4.1101
X10.9937Y-1.9238
X10.9953Y-3.2821
X10.9972Y-4.8345
X11.1878Y-2.6482
X11.1894Y-4.0066
X11.3801Y-1.8202
X11.3819Y-3.3726
X11.3836Y-4.731
X11.5742Y-2.5447
X11.576Y-4.0971
X11.7424Y-1.8202
X11.7683Y-3.2691
X11.7702Y-4.8215
X11.9365Y-2.5446
X11.9624Y-3.9936
X12.1288Y-1.7167
X12.1306Y-3.2691
X12.1565Y-4.718
X12.3229Y-2.4411
X12.3248Y-3.9935
X12.517Y-3.1656
X12.5189Y-4.718
X12.7111Y-3.89
X12.9052Y-4.6144
T3
X5.8858Y-4.9213
X7.8937Y-4.9213
T4
X0.9485Y-4.5308
X1.1426Y-3.8063
X1.2158Y-4.4989
X1.3367Y-3.0819
X1.4099Y-3.7745
X1.5308Y-2.3575
X1.6041Y-3.05
X1.6972Y-4.6343
X1.7249Y-1.633
X1.7982Y-2.3256
X1.8913Y-3.9099
X1.9645Y-4.6025
X1.9923Y-1.6011
X2.0854Y-3.1855
X2.1586Y-3.878
X2.2795Y-2.461
X2.3528Y-3.1536
X2.4701Y-4.6474
X2.4736Y-1.7366
X2.5469Y-2.4291
X2.6643Y-3.9229
X2.7375Y-4.6155
X2.741Y-1.7047
X2.8584Y-3.1985
X2.9316Y-3.891
X3.0525Y-2.474
X3.1257Y-3.1666
X3.2466Y-1.7496
X3.3199Y-2.4421
X3.4291Y-3.9661
X3.514Y-1.7177
X3.6233Y-3.2417
X3.629Y-5.152
X3.6965Y-3.9342
X3.8174Y-2.5172
X3.8906Y-3.2098
X3.8964Y-5.1201
X4.0115Y-1.7928
X4.0847Y-2.4853
X4.1131Y-4.3111
X4.2789Y-1.7609
X4.3073Y-3.5867
X4.3805Y-4.2792
X4.4697Y-5.4571
X4.5014Y-2.8622
X4.5746Y-3.5548
X4.6955Y-2.1378
X4.7362Y-5.4954
X4.7687Y-2.8304
X4.8052Y-4.626
X4.9629Y-2.1059
X4.9994Y-3.9015
X5.0726Y-4.5941
X5.1935Y-3.1771
X5.1979Y-5.9686
X5.2667Y-3.8697
X5.3876Y-2.4527
X5.4454Y-6.0747
X5.4608Y-3.1452
X5.6549Y-2.4208
X5.9298Y-6.4823
X6.1972Y-6.4504
X6.7398Y-6.6287
X6.9898Y-6.5287
X7.5599Y-6.5599
X7.7755Y-6.3986
X8.1022Y-2.5303
X8.2963Y-3.2547
X8.3178Y-2.369
X8.3695Y-6.1808
X8.4755Y-5.9333
X8.4904Y-3.9792
X8.5119Y-3.0935
X8.6845Y-4.7036
X8.706Y-3.8179
X8.7943Y-2.2154
X8.9001Y-4.5423
X8.9884Y-2.9399
X9.0099Y-2.0542
X9.05Y-5.6071
X9.1825Y-3.6643
X9.204Y-2.7786
X9.2165Y-5.3954
X9.3766Y-4.3888
X9.3981Y-3.503
X9.4783Y-1.8704
X9.5922Y-4.2275
X9.6724Y-2.5949
X9.6939Y-1.7091
X9.8607Y-5.2296
X9.8665Y-3.3193
X9.888Y-2.4336
X10.0606Y-4.0437
X10.0763Y-5.0683
X10.0821Y-3.158
X10.2431Y-1.8272
X10.2762Y-3.8824
X10.4373Y-2.5517
X10.4587Y-1.6659
X10.6314Y-3.2761
X10.6529Y-2.3904
X10.8255Y-4.0006
X10.847Y-3.1148
X11.0161Y-1.8142
X11.0196Y-4.725
X11.0411Y-3.8393
X11.2102Y-2.5387
X11.2317Y-1.6529
X11.2352Y-4.5637
X11.4043Y-3.2631
X11.4258Y-2.3774
X11.5985Y-3.9875
X11.6199Y-3.1018
X11.7648Y-1.7107
X11.7926Y-4.712
X11.8141Y-3.8263
X11.9589Y-2.4351
X11.9804Y-1.5494
X12.0082Y-4.5507
X12.1531Y-3.1595
X12.1745Y-2.2738
X12.3472Y-3.884
X12.3687Y-2.9982
X12.5413Y-4.6084
X12.5628Y-3.7227
X12.7569Y-4.4471
T5
X1.0675Y-4.6662
X1.2616Y-3.9418
X1.4557Y-3.2173
X1.6498Y-2.4929
X1.8162Y-4.7698
X1.8439Y-1.7684
X2.0103Y-4.0453
X2.2044Y-3.3209
X2.3985Y-2.5964
X2.5892Y-4.7828
X2.5926Y-1.872
X2.7833Y-4.0583
X2.9774Y-3.3339
X3.1715Y-2.6094
X3.3656Y-1.885
X3.5482Y-4.1015
X3.7423Y-3.3771
X3.748Y-5.2874
X3.9364Y-2.6526
X4.1305Y-1.9282
X4.2322Y-4.4466
X4.4263Y-3.7221
X4.5496Y-5.6187
X4.6204Y-2.9977
X4.8145Y-2.2732
X4.9242Y-4.7614
X5.1184Y-4.037
X5.2333Y-6.1454
X5.3125Y-3.3125
X5.5066Y-2.5881
X6.0488Y-6.6177
X6.8898Y-6.7287
X7.7307Y-6.6177
X8.2729Y-2.5881
X8.4671Y-3.3125
X8.5462Y-6.1454
X8.6612Y-4.037
X8.8553Y-4.7614
X8.965Y-2.2732
X9.1591Y-2.9977
X9.2299Y-5.6187
X9.3533Y-3.7221
X9.5474Y-4.4466
X9.649Y-1.9282
X9.8431Y-2.6526
X10.0315Y-5.2874
X10.0373Y-3.3771
X10.2314Y-4.1015
X10.4139Y-1.885
X10.608Y-2.6094
X10.8021Y-3.3339
X10.9963Y-4.0583
X11.1869Y-1.872
X11.1904Y-4.7828
X11.381Y-2.5964
X11.5751Y-3.3209
X11.7692Y-4.0453
X11.9356Y-1.7684
X11.9633Y-4.7698
X12.1297Y-2.4929
X12.3238Y-3.2173
X12.5179Y-3.9418
X12.7121Y-4.6662
T0
M30
