M48
; DRILL file {KiCad 7.0.1} date Sat Apr  8 16:00:55 2023
; FORMAT={-:-/ absolute / inch / decimal}
; #@! TF.CreationDate,2023-04-08T16:00:55+01:00
; #@! TF.GenerationSoftware,Kicad,Pcbnew,7.0.1
; #@! TF.FileFunction,Plated,1,2,PTH
FMAT,2
INCH
; #@! TA.AperFunction,Plated,PTH,ViaDrill
T1C0.0098
; #@! TA.AperFunction,Plated,PTH,ViaDrill
T2C0.0118
; #@! TA.AperFunction,Plated,PTH,ComponentDrill
T3C0.0118
; #@! TA.AperFunction,Plated,PTH,ComponentDrill
T4C0.0236
; #@! TA.AperFunction,Plated,PTH,ComponentDrill
T5C0.0276
; #@! TA.AperFunction,Plated,PTH,ComponentDrill
T6C0.0295
; #@! TA.AperFunction,Plated,PTH,ComponentDrill
T7C0.0394
; #@! TA.AperFunction,Plated,PTH,ComponentDrill
T8C0.0413
; #@! TA.AperFunction,Plated,PTH,ComponentDrill
T9C0.0591
; #@! TA.AperFunction,Plated,PTH,ComponentDrill
T10C0.0787
; #@! TA.AperFunction,Plated,PTH,ComponentDrill
T11C0.1260
%
G90
G05
T1
X2.6462Y-6.1248
X2.8403Y-5.4003
X3.0344Y-4.6759
X3.2286Y-3.9514
X3.3949Y-6.2283
X3.4227Y-3.227
X3.589Y-5.5039
X3.6575Y-2.9921
X3.7832Y-4.7795
X3.9773Y-4.055
X4.1679Y-6.2413
X4.1714Y-3.3306
X4.1714Y-3.0533
X4.362Y-5.5169
X4.5561Y-4.7925
X4.7502Y-4.068
X4.9444Y-3.3436
X4.9444Y-3.0753
X5.1269Y-5.5601
X5.321Y-4.8356
X5.3268Y-6.746
X5.5151Y-4.1112
X5.7092Y-3.3868
X5.7092Y-3.1142
X5.8109Y-5.9051
X6.005Y-5.1807
X6.1469Y-7.1688
X6.1991Y-4.4562
X6.3932Y-3.7318
X6.3932Y-3.5512
X6.503Y-6.22
X6.641Y-6.1633
X6.6543Y-6.1138
X6.697Y-5.4954
X6.8248Y-7.7888
X6.8912Y-4.7711
X7.0302Y-4.7111
X7.0424Y-4.6654
X7.043Y-4.5672
X7.0853Y-3.8661
X7.0853Y-4.0466
X7.1688Y-4.601
X7.2835Y-7.6864
X7.2835Y-7.7323
X7.8524Y-3.9764
X7.874Y-3.9094
X7.8957Y-3.8858
X7.9183Y-3.9774
X7.9449Y-3.9922
X7.9646Y-3.9134
X7.9803Y-3.8661
X7.9803Y-3.8091
X8.0276Y-3.1605
X8.0276Y-3.0896
X8.0937Y-4.2709
X8.0945Y-4.1339
X8.1063Y-3.0582
X8.1299Y-4.1693
X8.1988Y-5.3642
X8.1998Y-4.314
X8.2165Y-3.5906
X8.2205Y-3.0945
X8.2264Y-6.0888
X8.2323Y-3.5669
X8.2362Y-3.815
X8.2362Y-3.9409
X8.2362Y-4.0945
X8.2888Y-6.0906
X8.2972Y-5.9352
X8.3031Y-3.5669
X8.315Y-3.0945
X8.3189Y-3.5906
X8.3346Y-5.7362
X8.3425Y-5.811
X8.3544Y-5.8976
X8.3544Y-5.9291
X8.3583Y-3.7639
X8.4094Y-5.8976
X8.4449Y-5.6102
X8.6142Y-5.8744
X8.878Y-3.1339
X8.8783Y-3.6146
X9.189Y-7.5945
X9.2126Y-7.6142
X9.2126Y-7.712
X9.227Y-7.8606
X9.3858Y-4.6965
X9.4704Y-4.6965
X9.4878Y-4.6676
X9.501Y-4.717
X9.5787Y-5.4117
X9.6417Y-5.4117
X9.7756Y-6.145
X9.8601Y-6.145
X9.876Y-6.1165
X9.8883Y-6.1621
X10.0238Y-3.8929
X10.1306Y-7.3689
X10.1535Y-3.4665
X10.2179Y-4.6174
X10.412Y-5.3418
X10.6061Y-6.0663
X10.7159Y-3.5781
X10.8504Y-3.1142
X10.9029Y-6.8719
X10.91Y-4.3025
X11.1041Y-5.027
X11.2982Y-5.7514
X11.3999Y-3.233
X11.594Y-3.9575
X11.6024Y-3.0866
X11.7824Y-6.5923
X11.7881Y-4.6819
X11.9822Y-5.4064
X12.1648Y-3.1898
X12.3589Y-3.9143
X12.3976Y-3.0669
X12.553Y-4.6387
X12.7471Y-5.3632
X12.8937Y-2.9921
X12.9378Y-3.1768
X12.9412Y-6.0876
X13.1319Y-3.9013
X13.326Y-4.6257
X13.5201Y-5.3502
X13.6865Y-3.0733
X13.7142Y-6.0746
X13.8806Y-3.7977
X14.0747Y-4.5222
X14.2688Y-5.2466
X14.4629Y-5.9711
T2
X2.0893Y-6.3606
X2.0958Y-6.3363
X2.1136Y-6.3671
X2.1202Y-6.3428
X2.2333Y-5.6246
X2.2407Y-5.597
X2.4718Y-6.5218
X2.4775Y-4.9117
X2.4792Y-6.4942
X2.4841Y-4.8874
X2.5019Y-4.9183
X2.5084Y-4.8939
X2.5924Y-5.776
X2.5989Y-5.7517
X2.6167Y-5.7826
X2.6216Y-4.1757
X2.6233Y-5.7582
X2.629Y-4.1481
X2.838Y-6.4642
X2.8445Y-6.4398
X2.8601Y-5.0729
X2.8624Y-6.4707
X2.8658Y-3.4628
X2.8675Y-5.0454
X2.8689Y-6.4464
X2.8723Y-3.4385
X2.8901Y-3.4694
X2.8966Y-3.445
X2.9806Y-4.3271
X2.982Y-5.7282
X2.9872Y-4.3028
X2.9894Y-5.7006
X3.005Y-4.3337
X3.0115Y-4.3093
X3.2206Y-6.6254
X3.2262Y-5.0153
X3.2279Y-6.5978
X3.2328Y-4.991
X3.2483Y-3.624
X3.2506Y-5.0218
X3.2557Y-3.5965
X3.2571Y-4.9975
X3.3411Y-5.8796
X3.3476Y-5.8553
X3.3654Y-5.8861
X3.3703Y-4.2793
X3.372Y-5.8618
X3.3777Y-4.2517
X3.6088Y-5.1765
X3.611Y-6.4772
X3.6145Y-3.5664
X3.6162Y-5.1489
X3.6175Y-6.4528
X3.621Y-3.5421
X3.622Y-2.9587
X3.6353Y-6.4837
X3.6388Y-3.5729
X3.6418Y-6.4594
X3.6453Y-3.5486
X3.6673Y-3.0295
X3.7293Y-4.4307
X3.7359Y-4.4064
X3.7537Y-4.4372
X3.755Y-5.7412
X3.7602Y-4.4129
X3.7624Y-5.7136
X3.9935Y-6.6384
X3.997Y-3.7276
X3.9992Y-5.0283
X4.0009Y-6.6108
X4.0044Y-3.7
X4.0057Y-5.004
X4.0236Y-5.0348
X4.0301Y-5.0105
X4.1141Y-5.8926
X4.1206Y-5.8683
X4.1358Y-3.1673
X4.1378Y-3.2323
X4.1384Y-5.8991
X4.1432Y-4.2923
X4.1437Y-3.0236
X4.1449Y-5.8748
X4.1506Y-4.2647
X4.1929Y-2.9567
X4.2323Y-3.0472
X4.3818Y-5.1895
X4.3874Y-3.5794
X4.3891Y-5.1619
X4.394Y-3.5551
X4.4118Y-3.5859
X4.4183Y-3.5616
X4.5023Y-4.4437
X4.5088Y-4.4194
X4.5199Y-5.7843
X4.5266Y-4.4502
X4.5273Y-5.7568
X4.5332Y-4.4259
X4.7641Y-5.0715
X4.7699Y-6.9818
X4.77Y-3.7406
X4.7706Y-5.0471
X4.7764Y-6.9575
X4.7774Y-3.713
X4.7884Y-5.078
X4.7942Y-6.9883
X4.795Y-5.0537
X4.8007Y-6.964
X4.879Y-5.9358
X4.8855Y-5.9114
X4.9033Y-5.9423
X4.9075Y-3.0413
X4.9081Y-4.3355
X4.9094Y-3.2461
X4.9098Y-5.918
X4.9154Y-3.185
X4.9155Y-4.3079
X4.9665Y-2.9488
X5.0157Y-3.0551
X5.1466Y-5.2327
X5.1523Y-3.6226
X5.1524Y-7.143
X5.154Y-5.2051
X5.1589Y-3.5983
X5.1598Y-7.1154
X5.1767Y-3.6291
X5.1832Y-3.6048
X5.2039Y-6.1294
X5.2113Y-6.1018
X5.2672Y-4.4869
X5.2737Y-4.4626
X5.2915Y-4.4934
X5.2981Y-4.4691
X5.4481Y-5.4165
X5.4546Y-5.3922
X5.4724Y-5.423
X5.479Y-5.3987
X5.5349Y-3.7838
X5.5423Y-3.7562
X5.5473Y-7.2528
X5.5599Y-7.231
X5.563Y-6.2808
X5.5691Y-7.2654
X5.5695Y-6.2565
X5.5817Y-7.2436
X5.5873Y-6.2873
X5.5921Y-4.6805
X5.5938Y-6.263
X5.5995Y-4.6529
X5.705Y-3.0548
X5.7382Y-3.3602
X5.7402Y-3.2441
X5.7953Y-2.9626
X5.7953Y-3.0709
X5.8306Y-5.5777
X5.8363Y-3.9676
X5.838Y-5.5501
X5.8429Y-3.9433
X5.8607Y-3.9742
X5.8672Y-3.9498
X5.8751Y-7.5075
X5.8894Y-7.4828
X5.896Y-6.4442
X5.9034Y-6.4167
X5.9512Y-4.8319
X5.9577Y-4.8076
X5.9755Y-4.8385
X5.9821Y-4.8141
X6.1402Y-5.7314
X6.1467Y-5.707
X6.1645Y-5.7379
X6.1711Y-5.7136
X6.2189Y-4.1288
X6.2244Y-7.7147
X6.2263Y-4.1013
X6.2422Y-7.6969
X6.2423Y-7.7325
X6.2551Y-6.5957
X6.2601Y-7.7147
X6.2616Y-6.5713
X6.2794Y-6.6022
X6.2842Y-4.9954
X6.2859Y-6.5779
X6.2916Y-4.9678
X6.3228Y-3.0709
X6.3484Y-3.565
X6.3543Y-3.6319
X6.3681Y-2.9626
X6.4035Y-6.4665
X6.4577Y-6.5227
X6.4751Y-8.0456
X6.4882Y-6.5309
X6.4941Y-6.7303
X6.4953Y-8.0254
X6.4961Y-6.1299
X6.5227Y-5.8926
X6.5284Y-4.2825
X6.5301Y-5.865
X6.5349Y-4.2582
X6.5528Y-4.289
X6.5593Y-4.2647
X6.5827Y-5.8071
X6.6091Y-5.9581
X6.6181Y-6.7106
X6.6395Y-5.9663
X6.6433Y-5.1468
X6.6498Y-5.1225
X6.6676Y-5.1533
X6.6742Y-5.129
X6.687Y-6.0906
X6.6929Y-5.4016
X6.7067Y-5.3484
X6.7638Y-2.876
X6.7638Y-5.1378
X6.7736Y-3.5177
X6.7953Y-2.876
X6.7953Y-5.0197
X6.8091Y-3.5846
X6.8189Y-2.7598
X6.8248Y-5.4803
X6.8459Y-5.0738
X6.872Y-5.4213
X6.8765Y-5.082
X6.8839Y-4.6791
X6.8878Y-3.4783
X6.9075Y-4.5906
X6.911Y-4.4437
X6.9183Y-4.4161
X6.939Y-7.8209
X6.9705Y-4.3543
X6.9863Y-2.9538
X6.9863Y-2.9813
X6.9863Y-2.9262
X6.9973Y-4.5092
X7.0138Y-2.9538
X7.0138Y-2.9813
X7.0138Y-2.9262
X7.0278Y-4.5174
X7.0354Y-8.437
X7.0354Y-8.4055
X7.0354Y-8.374
X7.0414Y-2.9538
X7.0414Y-2.9813
X7.0571Y-4.7559
X7.061Y-7.7224
X7.0669Y-8.374
X7.0669Y-8.4055
X7.0669Y-8.437
X7.0689Y-2.9538
X7.0689Y-2.9813
X7.0925Y-4.6358
X7.1043Y-4.5433
X7.1102Y-3.9587
X7.1122Y-2.9587
X7.1142Y-3.9035
X7.1181Y-3.0512
X7.126Y-3.7224
X7.126Y-3.2913
X7.126Y-3.2638
X7.126Y-3.3189
X7.126Y-3.2087
X7.126Y-3.2362
X7.1319Y-7.6004
X7.1339Y-3.1772
X7.1339Y-3.3504
X7.1654Y-3.0551
X7.1969Y-3.1772
X7.1969Y-3.3504
X7.2008Y-3.6004
X7.2047Y-3.2087
X7.2047Y-3.3189
X7.2047Y-3.2362
X7.2047Y-3.2913
X7.2047Y-3.2638
X7.2085Y-8.3121
X7.2106Y-4.002
X7.2126Y-3.0512
X7.215Y-8.2878
X7.2185Y-2.9587
X7.2328Y-8.3187
X7.2393Y-8.2943
X7.2618Y-2.9547
X7.2618Y-2.9823
X7.2697Y-3.2559
X7.2697Y-3.2874
X7.2697Y-3.3189
X7.2894Y-2.9547
X7.2894Y-2.9823
X7.3012Y-3.2559
X7.3012Y-3.2874
X7.3012Y-3.3189
X7.3169Y-2.9547
X7.3169Y-2.9823
X7.3169Y-2.9272
X7.3386Y-7.5394
X7.3386Y-7.6024
X7.3386Y-7.5709
X7.3386Y-5.5039
X7.3386Y-6.1693
X7.3386Y-5.4724
X7.3386Y-5.4409
X7.3386Y-6.2008
X7.3445Y-2.9272
X7.3445Y-2.9823
X7.3445Y-2.9547
X7.3701Y-7.6024
X7.3701Y-7.5394
X7.3701Y-5.4409
X7.3701Y-5.4724
X7.3701Y-6.1693
X7.3701Y-6.2008
X7.3701Y-7.5709
X7.3701Y-5.5039
X7.378Y-3.1319
X7.3839Y-4.1476
X7.3917Y-3.5335
X7.3917Y-3.6122
X7.3917Y-3.6909
X7.3917Y-3.7677
X7.4213Y-7.6102
X7.4213Y-7.7185
X7.4323Y-6.6508
X7.4323Y-6.676
X7.4429Y-3.5335
X7.4429Y-3.6122
X7.4575Y-6.676
X7.4575Y-6.6508
X7.4685Y-6.2008
X7.4685Y-6.1693
X7.4783Y-3.0935
X7.4856Y-6.2648
X7.4882Y-3.0463
X7.5Y-6.1693
X7.5Y-6.2008
X7.5142Y-6.2648
X7.5315Y-3.7894
X7.5374Y-3.9311
X7.5512Y-3.4075
X7.5512Y-3.435
X7.5512Y-3.498
X7.5787Y-3.4075
X7.5787Y-3.435
X7.591Y-8.4733
X7.5945Y-3.0778
X7.5945Y-3.1093
X7.5984Y-8.4458
X7.5984Y-5.0787
X7.5984Y-4.311
X7.5984Y-4.374
X7.5984Y-5.0472
X7.5984Y-4.3425
X7.5984Y-5.0157
X7.6013Y-7.0149
X7.6063Y-3.4075
X7.6063Y-3.435
X7.6142Y-6.122
X7.6142Y-6.876
X7.6156Y-6.9901
X7.626Y-3.0778
X7.626Y-3.1093
X7.6299Y-5.0472
X7.6299Y-4.374
X7.6299Y-4.311
X7.6299Y-5.0787
X7.6299Y-5.0157
X7.6299Y-4.3425
X7.6417Y-3.3189
X7.6417Y-3.2559
X7.6417Y-3.2874
X7.6575Y-3.0778
X7.6575Y-3.1093
X7.6594Y-2.687
X7.6713Y-3.8445
X7.6713Y-3.6024
X7.6713Y-3.5492
X7.6713Y-3.5748
X7.6713Y-3.813
X7.6732Y-4.1437
X7.6732Y-3.2559
X7.6732Y-3.2874
X7.6732Y-3.3189
X7.6791Y-5.0965
X7.689Y-3.0778
X7.689Y-3.1093
X7.6988Y-3.5748
X7.6988Y-3.5492
X7.6988Y-3.6024
X7.7087Y-3.4075
X7.7087Y-3.435
X7.7205Y-3.1093
X7.7205Y-3.0778
X7.7233Y-5.7948
X7.7357Y-5.8163
X7.7362Y-3.4075
X7.7362Y-3.435
X7.7478Y-5.7806
X7.752Y-3.1093
X7.7602Y-5.8021
X7.7618Y-5.0965
X7.7638Y-3.4075
X7.7638Y-3.435
X7.7717Y-2.9872
X7.7736Y-2.687
X7.7992Y-3.8051
X7.7992Y-3.8366
X7.8031Y-4.315
X7.8031Y-4.3465
X7.8307Y-3.8051
X7.8307Y-3.8366
X7.8386Y-3.0935
X7.8701Y-5.2913
X7.876Y-4.5787
X7.8917Y-4.3169
X7.8937Y-3.7657
X7.8937Y-3.8524
X7.8996Y-5.2067
X7.9496Y-2.7341
X7.9528Y-4.185
X7.9577Y-3.4291
X7.9577Y-3.3976
X7.984Y-7.2969
X7.9961Y-3.1605
X7.9966Y-7.2751
X8.0058Y-7.3095
X8.0083Y-3.7146
X8.0128Y-4.0591
X8.0138Y-5.189
X8.0184Y-7.2877
X8.0197Y-4.3937
X8.0335Y-2.8701
X8.0335Y-2.9016
X8.0354Y-5.9843
X8.0354Y-6.0157
X8.0354Y-5.9528
X8.0359Y-3.7146
X8.0367Y-5.7125
X8.0594Y-5.6998
X8.063Y-4.6732
X8.063Y-3.003
X8.0648Y-3.752
X8.0653Y-3.7933
X8.0659Y-3.876
X8.078Y-4.8039
X8.0878Y-8.4756
X8.0878Y-8.4504
X8.0886Y-2.9813
X8.0886Y-2.9262
X8.0886Y-2.9538
X8.113Y-8.4756
X8.113Y-8.4504
X8.1161Y-2.9262
X8.1161Y-2.9813
X8.1161Y-2.9538
X8.1299Y-5.8563
X8.1427Y-3.1575
X8.1437Y-2.9538
X8.1437Y-2.9813
X8.1496Y-3.0305
X8.1535Y-4.2559
X8.1713Y-2.9538
X8.1713Y-2.9813
X8.1752Y-4.1555
X8.1772Y-3.6712
X8.1791Y-5.9035
X8.185Y-5.811
X8.2008Y-3.0039
X8.2047Y-5.6299
X8.2087Y-3.6713
X8.2244Y-4.3695
X8.2283Y-3.2913
X8.2283Y-3.2638
X8.2283Y-3.3189
X8.2283Y-3.2087
X8.2283Y-3.2362
X8.2323Y-3.122
X8.2323Y-3.1772
X8.2323Y-3.3504
X8.2323Y-3.5374
X8.2323Y-3.6161
X8.2323Y-3.7028
X8.248Y-5.4488
X8.2598Y-5.622
X8.2638Y-4.3583
X8.2677Y-3.0669
X8.2677Y-7.25
X8.2677Y-7.9803
X8.2677Y-8.065
X8.2717Y-5.6673
X8.3031Y-3.122
X8.3031Y-3.1772
X8.3031Y-3.5374
X8.3031Y-3.6181
X8.3031Y-3.7028
X8.3071Y-3.2087
X8.3071Y-3.2913
X8.3071Y-3.3189
X8.3071Y-3.3504
X8.3071Y-3.2362
X8.3071Y-3.2638
X8.315Y-4.4961
X8.315Y-4.2874
X8.315Y-4.4134
X8.315Y-4.315
X8.315Y-4.4409
X8.315Y-4.4685
X8.315Y-4.2596
X8.3346Y-3.0039
X8.3378Y-3.6494
X8.3425Y-4.4961
X8.3632Y-3.6163
X8.3642Y-2.9823
X8.3642Y-2.9547
X8.3663Y-4.2207
X8.3701Y-4.4961
X8.374Y-5.5827
X8.3779Y-3.6496
X8.3819Y-5.622
X8.3839Y-5.7028
X8.3917Y-2.9823
X8.3917Y-2.9547
X8.4183Y-3.6496
X8.4193Y-2.9823
X8.4193Y-2.9272
X8.4193Y-2.9547
X8.4193Y-5.8248
X8.4331Y-5.4173
X8.4409Y-5.126
X8.4409Y-5.1772
X8.4442Y-7.2643
X8.4449Y-3.8937
X8.4469Y-2.9272
X8.4469Y-2.9823
X8.4469Y-2.9547
X8.4528Y-3.6102
X8.4584Y-7.289
X8.4606Y-4.2596
X8.4882Y-4.2598
X8.4882Y-4.4961
X8.499Y-8.5323
X8.499Y-8.5037
X8.5Y-5.4862
X8.5Y-5.9528
X8.5Y-5.9843
X8.5Y-6.0157
X8.5157Y-4.2598
X8.5158Y-4.496
X8.517Y-5.7044
X8.5276Y-3.8722
X8.5296Y-5.6826
X8.5388Y-5.717
X8.5433Y-4.2598
X8.5433Y-4.4685
X8.5433Y-4.4961
X8.5433Y-4.315
X8.5433Y-4.4409
X8.5433Y-4.2874
X8.5433Y-4.4134
X8.5453Y-5.0551
X8.5492Y-3.7854
X8.5512Y-6.0817
X8.5512Y-4.5512
X8.5512Y-6.1102
X8.5514Y-5.6952
X8.5787Y-6.1102
X8.5787Y-6.0817
X8.5787Y-6.3622
X8.6043Y-6.3484
X8.6078Y-5.6339
X8.6078Y-5.5079
X8.6083Y-5.1339
X8.6378Y-3.6102
X8.6654Y-3.8839
X8.6722Y-4.0591
X8.689Y-5.1516
X8.689Y-5.4232
X8.7008Y-6.498
X8.7087Y-3.821
X8.7087Y-3.7935
X8.7106Y-4.5906
X8.7303Y-2.8337
X8.7323Y-4.0433
X8.7362Y-3.821
X8.75Y-5.1181
X8.7638Y-3.821
X8.7657Y-5.2224
X8.7736Y-5.9313
X8.7752Y-7.19
X8.7756Y-5.6693
X8.7876Y-7.2115
X8.7913Y-3.821
X8.7933Y-5.1732
X8.7972Y-6.3602
X8.7998Y-7.1758
X8.8122Y-7.1973
X8.8504Y-4.5906
X8.9154Y-3.6122
X8.9193Y-4.8031
X8.9198Y-6.002
X8.9232Y-3.8937
X8.9232Y-4.0433
X8.9232Y-6.878
X8.9272Y-6.1181
X8.9341Y-5.9773
X8.935Y-4.6673
X8.935Y-4.7244
X8.9739Y-8.3807
X8.9804Y-8.405
X8.9982Y-8.3742
X9.0047Y-8.3985
X9.0213Y-6.7274
X9.0498Y-6.7274
X9.078Y-6.3413
X9.078Y-6.3161
X9.1031Y-6.3161
X9.1031Y-6.3413
X9.1417Y-7.6122
X9.1417Y-7.7165
X9.1535Y-3.8799
X9.1575Y-5.9961
X9.191Y-2.9272
X9.191Y-2.9547
X9.191Y-2.9823
X9.2185Y-2.9547
X9.2185Y-2.9272
X9.2185Y-2.9823
X9.2343Y-3.2559
X9.2343Y-3.2874
X9.2343Y-3.3189
X9.2461Y-2.9823
X9.2461Y-2.9547
X9.2539Y-7.6142
X9.2657Y-3.2559
X9.2657Y-3.2874
X9.2657Y-3.3189
X9.2657Y-3.9823
X9.2737Y-2.9823
X9.2737Y-2.9547
X9.3169Y-2.9587
X9.3228Y-3.0512
X9.3307Y-3.2913
X9.3307Y-3.2638
X9.3307Y-3.3189
X9.3307Y-3.2087
X9.3307Y-3.2362
X9.3346Y-4.0472
X9.3386Y-3.1772
X9.3386Y-3.3504
X9.3642Y-4.6535
X9.3701Y-3.0551
X9.3819Y-4.7421
X9.3849Y-8.3258
X9.3878Y-7.6142
X9.3923Y-8.3533
X9.4016Y-3.1772
X9.4016Y-3.3504
X9.4094Y-3.2087
X9.4094Y-3.3189
X9.4094Y-3.2638
X9.4094Y-3.2913
X9.4094Y-3.2362
X9.4173Y-3.0512
X9.4173Y-3.628
X9.4193Y-3.874
X9.4232Y-2.9587
X9.437Y-4.6378
X9.4429Y-3.9626
X9.4429Y-7.7244
X9.4666Y-2.9823
X9.4666Y-2.9547
X9.4685Y-7.8169
X9.4685Y-3.752
X9.4764Y-4.748
X9.4941Y-2.9547
X9.4941Y-2.9823
X9.5077Y-4.5174
X9.5079Y-3.7165
X9.5098Y-4.2146
X9.5217Y-2.9547
X9.5217Y-2.9823
X9.5217Y-2.9272
X9.5382Y-4.5092
X9.5492Y-2.9272
X9.5492Y-2.9823
X9.5492Y-2.9547
X9.5571Y-5.3465
X9.5827Y-5.4528
X9.5906Y-4.5453
X9.6529Y-4.3513
X9.659Y-5.082
X9.6594Y-4.3756
X9.6732Y-5.3878
X9.6772Y-4.3448
X9.6838Y-4.3691
X9.689Y-3.3563
X9.6894Y-5.0739
X9.6988Y-5.4705
X9.7165Y-2.7598
X9.7185Y-5.0177
X9.7402Y-2.876
X9.748Y-6.1024
X9.7598Y-6.1811
X9.7697Y-3.435
X9.7717Y-2.876
X9.797Y-5.0875
X9.8044Y-5.1151
X9.8445Y-6.0945
X9.8543Y-3.7835
X9.8858Y-6.0531
X9.8959Y-5.9663
X9.9114Y-6.6949
X9.9193Y-6.1791
X9.9264Y-5.9581
X10.0315Y-6.7087
X10.0385Y-7.9513
X10.0411Y-5.8002
X10.0472Y-6.5309
X10.0477Y-5.8245
X10.0564Y-7.9691
X10.0564Y-7.9335
X10.0639Y-4.2964
X10.0655Y-5.7937
X10.0713Y-4.324
X10.072Y-5.818
X10.0742Y-7.9513
X10.0776Y-6.5227
X10.1358Y-2.9587
X10.1358Y-3.0768
X10.1845Y-5.0424
X10.1852Y-6.5364
X10.191Y-5.0667
X10.1926Y-6.564
X10.2089Y-5.0358
X10.2154Y-5.0602
X10.345Y-4.0364
X10.3515Y-4.0608
X10.367Y-7.6982
X10.3693Y-4.0299
X10.3759Y-4.0543
X10.3872Y-7.7184
X10.4521Y-5.7453
X10.4595Y-5.7728
X10.4646Y-3.4941
X10.4891Y-4.7727
X10.4965Y-4.8002
X10.5728Y-6.4913
X10.5793Y-6.5156
X10.5971Y-6.4847
X10.6036Y-6.5091
X10.6633Y-7.4106
X10.6759Y-7.4324
X10.6851Y-7.398
X10.6977Y-7.4198
X10.7332Y-5.4853
X10.7397Y-5.5097
X10.756Y-3.9815
X10.7576Y-5.4788
X10.7618Y-3.0709
X10.7634Y-4.0091
X10.7641Y-5.5031
X10.8071Y-2.9508
X10.8642Y-3.0591
X10.8766Y-4.7275
X10.8773Y-6.2215
X10.8831Y-4.7518
X10.8847Y-6.2491
X10.901Y-4.721
X10.9075Y-4.7453
X11.029Y-3.6914
X11.0355Y-3.7157
X11.0461Y-7.2512
X11.0533Y-3.6849
X11.0599Y-3.7092
X11.0603Y-7.2759
X11.1299Y-2.9626
X11.1299Y-3.1476
X11.1442Y-5.4304
X11.1516Y-5.458
X11.1731Y-4.4276
X11.1805Y-4.4552
X11.2648Y-6.1764
X11.2714Y-6.2007
X11.2892Y-6.1699
X11.2957Y-6.1942
X11.4115Y-7.0506
X11.4172Y-5.1403
X11.418Y-7.075
X11.4237Y-5.1646
X11.4358Y-7.0441
X11.44Y-3.6365
X11.4416Y-5.1338
X11.4423Y-7.0684
X11.4474Y-3.6641
X11.4481Y-5.1581
X11.5256Y-3.0531
X11.5606Y-4.3825
X11.5613Y-5.8765
X11.5669Y-2.9587
X11.5671Y-4.4068
X11.5687Y-5.9041
X11.585Y-4.3759
X11.5915Y-4.4003
X11.6142Y-3.0413
X11.7939Y-3.6482
X11.8004Y-3.6725
X11.8182Y-3.6417
X11.8224Y-6.9953
X11.8247Y-3.666
X11.8282Y-5.0854
X11.8298Y-7.0229
X11.8356Y-5.113
X11.8622Y-3.1161
X11.938Y-4.3844
X11.9454Y-4.412
X11.9489Y-5.8314
X11.9554Y-5.8557
X11.9732Y-5.8248
X11.9797Y-5.8492
X12.1821Y-5.0971
X12.1886Y-5.1214
X12.2049Y-3.5933
X12.2065Y-5.0906
X12.2123Y-3.6209
X12.213Y-5.1149
X12.3169Y-3.0433
X12.3255Y-4.3393
X12.3262Y-5.8333
X12.332Y-4.3636
X12.3336Y-5.8609
X12.3498Y-4.3328
X12.3543Y-2.9547
X12.3564Y-4.3571
X12.4055Y-3.0256
X12.5669Y-3.6352
X12.5703Y-6.546
X12.5734Y-3.6595
X12.5769Y-6.5703
X12.5912Y-3.6287
X12.5931Y-5.0422
X12.5947Y-6.5395
X12.5977Y-3.653
X12.6005Y-5.0698
X12.6012Y-6.5638
X12.6555Y-3.0984
X12.7109Y-4.3714
X12.7137Y-5.7882
X12.7183Y-4.399
X12.7203Y-5.8125
X12.7381Y-5.7816
X12.7446Y-5.806
X12.9075Y-3.0512
X12.9551Y-5.0841
X12.9616Y-5.1084
X12.9779Y-3.5803
X12.9794Y-5.0776
X12.9814Y-6.4911
X12.9853Y-3.6079
X12.9859Y-5.1019
X12.9887Y-6.5187
X13.0985Y-4.3263
X13.0992Y-5.8203
X13.105Y-4.3506
X13.1066Y-5.8479
X13.1228Y-4.3198
X13.1293Y-4.3441
X13.2776Y-2.9528
X13.3071Y-3.0276
X13.3156Y-3.5316
X13.3221Y-3.556
X13.3399Y-3.5251
X13.3433Y-6.533
X13.3464Y-3.5495
X13.3498Y-6.5573
X13.3661Y-5.0292
X13.3677Y-6.5265
X13.3735Y-5.0568
X13.3742Y-6.5508
X13.4596Y-4.2679
X13.467Y-4.2954
X13.4867Y-5.7752
X13.4932Y-5.7995
X13.511Y-5.7686
X13.5176Y-5.793
X13.7038Y-4.9805
X13.7103Y-5.0049
X13.7266Y-3.4767
X13.7281Y-4.974
X13.734Y-3.5043
X13.7347Y-4.9983
X13.7543Y-6.4781
X13.7617Y-6.5056
X13.8472Y-4.2227
X13.8479Y-5.7168
X13.8537Y-4.2471
X13.8553Y-5.7443
X13.8715Y-4.2162
X13.878Y-4.2405
X14.092Y-6.4294
X14.0985Y-6.4538
X14.1148Y-4.9256
X14.1164Y-6.4229
X14.1222Y-4.9532
X14.1229Y-6.4472
X14.2354Y-5.6716
X14.2419Y-5.6959
X14.2598Y-5.6651
X14.2663Y-5.6894
X14.503Y-6.3745
X14.5104Y-6.4021
T3
X8.2638Y-3.9685
X8.2638Y-4.0197
X8.2638Y-4.0709
X8.315Y-3.9685
X8.315Y-4.0197
X8.315Y-4.0709
X8.3661Y-3.9685
X8.3661Y-4.0197
X8.3661Y-4.0709
T5
X8.0571Y-6.3083
X8.0571Y-6.3783
X8.0571Y-6.4484
X8.0571Y-6.5185
X8.0571Y-6.5886
X8.0571Y-6.6587
X8.0571Y-6.7287
X8.0571Y-6.7988
X8.4783Y-6.2732
X8.4783Y-6.3433
X8.4783Y-6.4134
X8.4783Y-6.4835
X8.4783Y-6.5535
X8.4783Y-6.6236
X8.4783Y-6.6937
X8.4783Y-6.7638
T6
X7.3583Y-3.3366
X7.3583Y-3.4154
X7.3583Y-3.4941
X7.3583Y-3.5728
X7.3583Y-3.6516
X7.3583Y-3.7303
X7.3583Y-3.8091
T7
X7.4803Y-3.2728
X7.4803Y-3.3728
X7.4803Y-3.4728
X7.4803Y-3.5728
X7.4803Y-3.6728
X7.4803Y-3.7728
X7.4803Y-3.8728
X8.0417Y-4.4606
X8.1417Y-4.4606
X8.2417Y-4.4606
X13.4463Y-3.6832
X13.5429Y-3.6573
X13.6395Y-3.6314
X13.7361Y-3.6055
T8
X8.1693Y-5.2913
X8.2677Y-5.2913
X8.3661Y-5.2913
T10
X7.4902Y-2.9429
X7.4902Y-4.2028
X7.6732Y-5.4664
X7.6732Y-7.5257
X8.8622Y-5.4664
X8.8622Y-7.5257
X9.0453Y-2.9429
X9.0453Y-4.2028
T11
X3.4449Y-2.9626
X3.4646Y-6.8504
X6.6378Y-2.9921
X7.6969Y-6.4961
X8.2677Y-8.7205
X8.8386Y-6.4961
X9.8976Y-2.9921
X13.0709Y-6.8504
X13.0906Y-2.9626
T4
G00X6.9953Y-2.689
M15
G01X6.9953Y-2.7126
M16
G05
G00X6.9953Y-2.8437
M15
G01X6.9953Y-2.887
M16
G05
G00X7.3354Y-2.689
M15
G01X7.3354Y-2.7126
M16
G05
G00X7.3354Y-2.8437
M15
G01X7.3354Y-2.887
M16
G05
G00X8.0976Y-2.689
M15
G01X8.0976Y-2.7126
M16
G05
G00X8.0976Y-2.8437
M15
G01X8.0976Y-2.887
M16
G05
G00X8.4378Y-2.689
M15
G01X8.4378Y-2.7126
M16
G05
G00X8.4378Y-2.8437
M15
G01X8.4378Y-2.887
M16
G05
G00X9.2Y-2.689
M15
G01X9.2Y-2.7126
M16
G05
G00X9.2Y-2.8437
M15
G01X9.2Y-2.887
M16
G05
G00X9.5402Y-2.689
M15
G01X9.5402Y-2.7126
M16
G05
G00X9.5402Y-2.8437
M15
G01X9.5402Y-2.887
M16
G05
T9
G00X7.0827Y-6.4272
M15
G01X7.0827Y-6.565
M16
G05
G00X9.4528Y-6.4272
M15
G01X9.4528Y-6.565
M16
G05
T0
M30
