%TF.GenerationSoftware,KiCad,Pcbnew,(7.0.0)*%
%TF.CreationDate,2023-03-10T21:47:00+00:00*%
%TF.ProjectId,Honeydew,486f6e65-7964-4657-972e-6b696361645f,rev?*%
%TF.SameCoordinates,Original*%
%TF.FileFunction,Soldermask,Bot*%
%TF.FilePolarity,Negative*%
%FSLAX46Y46*%
G04 Gerber Fmt 4.6, Leading zero omitted, Abs format (unit mm)*
G04 Created by KiCad (PCBNEW (7.0.0)) date 2023-03-10 21:47:00*
%MOMM*%
%LPD*%
G01*
G04 APERTURE LIST*
G04 Aperture macros list*
%AMRoundRect*
0 Rectangle with rounded corners*
0 $1 Rounding radius*
0 $2 $3 $4 $5 $6 $7 $8 $9 X,Y pos of 4 corners*
0 Add a 4 corners polygon primitive as box body*
4,1,4,$2,$3,$4,$5,$6,$7,$8,$9,$2,$3,0*
0 Add four circle primitives for the rounded corners*
1,1,$1+$1,$2,$3*
1,1,$1+$1,$4,$5*
1,1,$1+$1,$6,$7*
1,1,$1+$1,$8,$9*
0 Add four rect primitives between the rounded corners*
20,1,$1+$1,$2,$3,$4,$5,0*
20,1,$1+$1,$4,$5,$6,$7,0*
20,1,$1+$1,$6,$7,$8,$9,0*
20,1,$1+$1,$8,$9,$2,$3,0*%
%AMRotRect*
0 Rectangle, with rotation*
0 The origin of the aperture is its center*
0 $1 length*
0 $2 width*
0 $3 Rotation angle, in degrees counterclockwise*
0 Add horizontal line*
21,1,$1,$2,0,0,$3*%
G04 Aperture macros list end*
%ADD10C,2.000000*%
%ADD11R,2.500000X6.000000*%
%ADD12C,3.500000*%
%ADD13C,5.600000*%
%ADD14C,1.152000*%
%ADD15C,0.650000*%
%ADD16O,1.000000X2.100000*%
%ADD17O,1.000000X1.600000*%
%ADD18R,1.700000X1.700000*%
%ADD19O,1.700000X1.700000*%
%ADD20C,4.000000*%
%ADD21C,1.750000*%
%ADD22C,3.000000*%
%ADD23C,3.987800*%
%ADD24RotRect,2.550000X2.500000X145.000000*%
%ADD25RotRect,2.550000X2.500000X130.000000*%
%ADD26RotRect,2.550000X2.500000X160.000000*%
%ADD27RotRect,2.550000X2.500000X200.000000*%
%ADD28RotRect,0.900000X1.200000X290.000000*%
%ADD29R,0.300000X1.300000*%
%ADD30R,1.800000X2.200000*%
%ADD31RoundRect,0.140000X-0.212189X-0.058955X0.017173X-0.219557X0.212189X0.058955X-0.017173X0.219557X0*%
%ADD32RoundRect,0.150000X-0.150000X0.512500X-0.150000X-0.512500X0.150000X-0.512500X0.150000X0.512500X0*%
%ADD33RotRect,0.900000X1.200000X250.000000*%
%ADD34RoundRect,0.140000X-0.073414X-0.207631X0.189700X-0.111865X0.073414X0.207631X-0.189700X0.111865X0*%
%ADD35RoundRect,0.140000X-0.189700X-0.111865X0.073414X-0.207631X0.189700X0.111865X-0.073414X0.207631X0*%
%ADD36RoundRect,0.140000X0.140000X0.170000X-0.140000X0.170000X-0.140000X-0.170000X0.140000X-0.170000X0*%
%ADD37RoundRect,0.140000X0.036244X0.217224X-0.206244X0.077224X-0.036244X-0.217224X0.206244X-0.077224X0*%
%ADD38RotRect,1.700000X1.000000X345.000000*%
%ADD39R,1.700000X1.000000*%
%ADD40RoundRect,0.225000X-0.250000X0.225000X-0.250000X-0.225000X0.250000X-0.225000X0.250000X0.225000X0*%
%ADD41RoundRect,0.135000X0.135000X0.185000X-0.135000X0.185000X-0.135000X-0.185000X0.135000X-0.185000X0*%
%ADD42RotRect,1.700000X1.000000X15.000000*%
%ADD43RoundRect,0.140000X0.189700X0.111865X-0.073414X0.207631X-0.189700X-0.111865X0.073414X-0.207631X0*%
%ADD44RotRect,1.700000X1.000000X20.000000*%
%ADD45RotRect,0.900000X1.200000X285.000000*%
%ADD46RotRect,1.700000X1.000000X340.000000*%
%ADD47RotRect,1.700000X1.000000X310.000000*%
%ADD48RotRect,2.550000X2.500000X195.000000*%
%ADD49RotRect,1.700000X1.000000X160.000000*%
%ADD50RotRect,1.700000X1.000000X330.000000*%
%ADD51RotRect,2.550000X2.500000X165.000000*%
%ADD52RotRect,1.700000X1.000000X200.000000*%
%ADD53RoundRect,0.250000X0.475000X-0.250000X0.475000X0.250000X-0.475000X0.250000X-0.475000X-0.250000X0*%
%ADD54RoundRect,0.140000X-0.140000X-0.170000X0.140000X-0.170000X0.140000X0.170000X-0.140000X0.170000X0*%
%ADD55RoundRect,0.140000X-0.170000X0.140000X-0.170000X-0.140000X0.170000X-0.140000X0.170000X0.140000X0*%
%ADD56RoundRect,0.225000X0.225000X0.250000X-0.225000X0.250000X-0.225000X-0.250000X0.225000X-0.250000X0*%
%ADD57RoundRect,0.140000X0.170000X-0.140000X0.170000X0.140000X-0.170000X0.140000X-0.170000X-0.140000X0*%
%ADD58RoundRect,0.225000X0.250000X-0.225000X0.250000X0.225000X-0.250000X0.225000X-0.250000X-0.225000X0*%
%ADD59R,1.000000X1.700000*%
%ADD60RoundRect,0.140000X0.040237X-0.216520X0.220218X-0.002028X-0.040237X0.216520X-0.220218X0.002028X0*%
%ADD61RotRect,0.900000X1.200000X255.000000*%
%ADD62RoundRect,0.140000X0.073414X0.207631X-0.189700X0.111865X-0.073414X-0.207631X0.189700X-0.111865X0*%
%ADD63RoundRect,0.135000X0.185000X-0.135000X0.185000X0.135000X-0.185000X0.135000X-0.185000X-0.135000X0*%
%ADD64R,1.200000X1.200000*%
%ADD65C,1.200000*%
%ADD66RoundRect,0.050000X0.387500X0.050000X-0.387500X0.050000X-0.387500X-0.050000X0.387500X-0.050000X0*%
%ADD67RoundRect,0.050000X0.050000X0.387500X-0.050000X0.387500X-0.050000X-0.387500X0.050000X-0.387500X0*%
%ADD68R,3.200000X3.200000*%
%ADD69RoundRect,0.250000X-0.375000X-0.625000X0.375000X-0.625000X0.375000X0.625000X-0.375000X0.625000X0*%
%ADD70RoundRect,0.225000X0.375000X-0.225000X0.375000X0.225000X-0.375000X0.225000X-0.375000X-0.225000X0*%
%ADD71RoundRect,0.135000X-0.135000X-0.185000X0.135000X-0.185000X0.135000X0.185000X-0.135000X0.185000X0*%
%ADD72RoundRect,0.150000X0.650000X0.150000X-0.650000X0.150000X-0.650000X-0.150000X0.650000X-0.150000X0*%
%ADD73R,1.000000X1.500000*%
%ADD74RoundRect,0.135000X-0.185000X0.135000X-0.185000X-0.135000X0.185000X-0.135000X0.185000X0.135000X0*%
%ADD75RoundRect,0.200000X-0.275000X0.200000X-0.275000X-0.200000X0.275000X-0.200000X0.275000X0.200000X0*%
%ADD76RoundRect,0.140000X0.220218X0.002028X0.040237X0.216520X-0.220218X-0.002028X-0.040237X-0.216520X0*%
%ADD77RotRect,2.550000X2.500000X215.000000*%
%ADD78R,2.550000X2.500000*%
%ADD79RotRect,1.700000X1.000000X210.000000*%
%ADD80RoundRect,0.140000X0.206244X0.077224X-0.036244X0.217224X-0.206244X-0.077224X0.036244X-0.217224X0*%
%ADD81RoundRect,0.140000X0.091230X0.200442X-0.179229X0.127973X-0.091230X-0.200442X0.179229X-0.127973X0*%
%ADD82RoundRect,0.140000X-0.017173X-0.219557X0.212189X-0.058955X0.017173X0.219557X-0.212189X0.058955X0*%
%ADD83RoundRect,0.250000X-0.250000X-0.475000X0.250000X-0.475000X0.250000X0.475000X-0.250000X0.475000X0*%
%ADD84RotRect,0.900000X1.200000X320.000000*%
%ADD85RotRect,1.700000X1.000000X150.000000*%
%ADD86R,1.200000X0.900000*%
%ADD87RotRect,1.700000X1.000000X325.000000*%
%ADD88RotRect,1.700000X1.000000X30.000000*%
%ADD89RotRect,0.900000X1.200000X305.000000*%
%ADD90R,1.200000X1.400000*%
%ADD91RoundRect,0.140000X-0.206244X-0.077224X0.036244X-0.217224X0.206244X0.077224X-0.036244X0.217224X0*%
%ADD92RotRect,2.550000X2.500000X230.000000*%
%ADD93R,2.000000X1.500000*%
%ADD94R,2.000000X3.800000*%
%ADD95RotRect,0.900000X1.200000X235.000000*%
%ADD96R,2.440000X1.120000*%
%ADD97RotRect,1.700000X1.000000X35.000000*%
%ADD98RotRect,1.700000X1.000000X50.000000*%
%ADD99RoundRect,0.140000X0.179229X0.127973X-0.091230X0.200442X-0.179229X-0.127973X0.091230X-0.200442X0*%
%ADD100RotRect,0.900000X1.200000X220.000000*%
%ADD101RoundRect,0.225000X-0.375000X0.225000X-0.375000X-0.225000X0.375000X-0.225000X0.375000X0.225000X0*%
%ADD102RoundRect,0.140000X-0.036244X-0.217224X0.206244X-0.077224X0.036244X0.217224X-0.206244X0.077224X0*%
G04 APERTURE END LIST*
%TO.C,D103*%
G36*
X150885935Y-176027286D02*
G01*
X150627116Y-176993212D01*
X148985042Y-176553219D01*
X149153274Y-175925367D01*
X149581935Y-175677880D01*
X150885935Y-176027286D01*
G37*
%TO.C,D104*%
G36*
X173099788Y-180459404D02*
G01*
X171399788Y-180459404D01*
X171399788Y-179809404D01*
X171749788Y-179459404D01*
X173099788Y-179459404D01*
X173099788Y-180459404D01*
G37*
%TO.C,D105*%
G36*
X195727133Y-177970089D02*
G01*
X194085059Y-178410081D01*
X193916827Y-177782230D01*
X194164314Y-177353569D01*
X195468314Y-177004163D01*
X195727133Y-177970089D01*
G37*
%TO.C,D125*%
G36*
X280659938Y-124592711D02*
G01*
X279062461Y-125174145D01*
X278840147Y-124563345D01*
X279049333Y-124114745D01*
X280317918Y-123653018D01*
X280659938Y-124592711D01*
G37*
%TO.C,D75*%
G36*
X40896641Y-80233016D02*
G01*
X40554621Y-81172708D01*
X38957144Y-80591274D01*
X39179457Y-79980474D01*
X39628056Y-79771288D01*
X40896641Y-80233016D01*
G37*
%TO.C,D102*%
G36*
X128187746Y-159793616D02*
G01*
X129055509Y-160827776D01*
X128289464Y-161470564D01*
X127196725Y-160168288D01*
X127694654Y-159750477D01*
X128187746Y-159793616D01*
G37*
%TO.C,D81*%
G36*
X57786197Y-105608671D02*
G01*
X57563884Y-106219471D01*
X57115285Y-106428657D01*
X55846700Y-105966929D01*
X56188720Y-105027237D01*
X57786197Y-105608671D01*
G37*
%TO.C,D106*%
G36*
X201980496Y-75518114D02*
G01*
X200383019Y-76099548D01*
X200160705Y-75488748D01*
X200369891Y-75040148D01*
X201638476Y-74578421D01*
X201980496Y-75518114D01*
G37*
%TO.C,D67*%
G36*
X184054545Y-110517061D02*
G01*
X183554545Y-111383086D01*
X182082302Y-110533086D01*
X182407302Y-109970169D01*
X182885410Y-109842061D01*
X184054545Y-110517061D01*
G37*
%TO.C,D101*%
G36*
X129933740Y-130178849D02*
G01*
X129711427Y-130789649D01*
X129262828Y-130998835D01*
X127994243Y-130537107D01*
X128336263Y-129597415D01*
X129933740Y-130178849D01*
G37*
%TO.C,D134*%
G36*
X317917480Y-99479097D02*
G01*
X317708294Y-99927697D01*
X316439709Y-100389424D01*
X316097689Y-99449731D01*
X317695166Y-98868297D01*
X317917480Y-99479097D01*
G37*
%TO.C,D78*%
G36*
X72643189Y-48708558D02*
G01*
X72301169Y-49648250D01*
X70703692Y-49066816D01*
X70926005Y-48456016D01*
X71374604Y-48246830D01*
X72643189Y-48708558D01*
G37*
%TO.C,D98*%
G36*
X144790698Y-73278739D02*
G01*
X144448678Y-74218431D01*
X142851201Y-73636997D01*
X143073514Y-73026197D01*
X143522113Y-72817011D01*
X144790698Y-73278739D01*
G37*
%TO.C,D90*%
G36*
X98400766Y-89337125D02*
G01*
X98058746Y-90276817D01*
X96461269Y-89695383D01*
X96683582Y-89084583D01*
X97132181Y-88875397D01*
X98400766Y-89337125D01*
G37*
%TO.C,D100*%
G36*
X131759741Y-109081021D02*
G01*
X131417721Y-110020713D01*
X129820244Y-109439279D01*
X130042557Y-108828479D01*
X130491156Y-108619293D01*
X131759741Y-109081021D01*
G37*
%TO.C,D87*%
G36*
X66111258Y-122353331D02*
G01*
X65769238Y-123293023D01*
X64171761Y-122711589D01*
X64394074Y-122100789D01*
X64842673Y-121891603D01*
X66111258Y-122353331D01*
G37*
%TO.C,D68*%
G36*
X196400007Y-126749989D02*
G01*
X196400007Y-128099989D01*
X195400007Y-128099989D01*
X195400007Y-126399989D01*
X196050007Y-126399989D01*
X196400007Y-126749989D01*
G37*
%TO.C,D84*%
G36*
X90347190Y-71846573D02*
G01*
X90124877Y-72457373D01*
X89676278Y-72666559D01*
X88407693Y-72204831D01*
X88749713Y-71265139D01*
X90347190Y-71846573D01*
G37*
%TO.C,D91*%
G36*
X96574772Y-110434935D02*
G01*
X96352459Y-111045735D01*
X95903860Y-111254921D01*
X94635275Y-110793193D01*
X94977295Y-109853501D01*
X96574772Y-110434935D01*
G37*
%TO.C,D83*%
G36*
X92173199Y-50748759D02*
G01*
X91831179Y-51688451D01*
X90233702Y-51107017D01*
X90456015Y-50496217D01*
X90904614Y-50287031D01*
X92173199Y-50748759D01*
G37*
%TO.C,D95*%
G36*
X114944528Y-99582042D02*
G01*
X114602508Y-100521734D01*
X113005031Y-99940300D01*
X113227344Y-99329500D01*
X113675943Y-99120314D01*
X114944528Y-99582042D01*
G37*
%TO.C,D86*%
G36*
X77316220Y-107648875D02*
G01*
X77093907Y-108259675D01*
X76645308Y-108468861D01*
X75376723Y-108007133D01*
X75718743Y-107067441D01*
X77316220Y-107648875D01*
G37*
%TO.C,D129*%
G36*
X299201901Y-103756939D02*
G01*
X298992715Y-104205539D01*
X297724130Y-104667266D01*
X297382110Y-103727573D01*
X298979587Y-103146139D01*
X299201901Y-103756939D01*
G37*
%TO.C,D93*%
G36*
X127975489Y-63779711D02*
G01*
X127633469Y-64719403D01*
X126035992Y-64137969D01*
X126258305Y-63527169D01*
X126706904Y-63317983D01*
X127975489Y-63779711D01*
G37*
%TO.C,D127*%
G36*
X286170930Y-67954629D02*
G01*
X285961744Y-68403229D01*
X284693159Y-68864956D01*
X284351139Y-67925263D01*
X285948616Y-67343829D01*
X286170930Y-67954629D01*
G37*
%TO.C,D130*%
G36*
X300189958Y-122552527D02*
G01*
X298592481Y-123133961D01*
X298370167Y-122523161D01*
X298579353Y-122074561D01*
X299847938Y-121612834D01*
X300189958Y-122552527D01*
G37*
%TO.C,D124*%
G36*
X279671889Y-105797124D02*
G01*
X279462703Y-106245724D01*
X278194118Y-106707451D01*
X277852098Y-105767758D01*
X279449575Y-105186324D01*
X279671889Y-105797124D01*
G37*
%TO.C,D107*%
G36*
X214023404Y-92524821D02*
G01*
X213814218Y-92973421D01*
X212545633Y-93435148D01*
X212203613Y-92495455D01*
X213801090Y-91914021D01*
X214023404Y-92524821D01*
G37*
%TO.C,D85*%
G36*
X79142233Y-86551038D02*
G01*
X78800213Y-87490730D01*
X77202736Y-86909296D01*
X77425049Y-86298496D01*
X77873648Y-86089310D01*
X79142233Y-86551038D01*
G37*
%TO.C,D92*%
G36*
X94317643Y-137687751D02*
G01*
X93975623Y-138627443D01*
X92378146Y-138046009D01*
X92600459Y-137435209D01*
X93049058Y-137226023D01*
X94317643Y-137687751D01*
G37*
%TO.C,D73*%
G36*
X53927609Y-44430712D02*
G01*
X53585589Y-45370404D01*
X51988112Y-44788970D01*
X52210425Y-44178170D01*
X52659024Y-43968984D01*
X53927609Y-44430712D01*
G37*
%TO.C,D108*%
G36*
X215011441Y-111320399D02*
G01*
X213413964Y-111901833D01*
X213191650Y-111291033D01*
X213400836Y-110842433D01*
X214669421Y-110380706D01*
X215011441Y-111320399D01*
G37*
%TO.C,D112*%
G36*
X230838636Y-83025816D02*
G01*
X230629450Y-83474416D01*
X229360865Y-83936143D01*
X229018845Y-82996450D01*
X230616322Y-82415016D01*
X230838636Y-83025816D01*
G37*
%TO.C,D131*%
G36*
X292843588Y-46670084D02*
G01*
X291246111Y-47251518D01*
X291023797Y-46640718D01*
X291232983Y-46192118D01*
X292501568Y-45730391D01*
X292843588Y-46670084D01*
G37*
%TO.C,D76*%
G36*
X39070651Y-101330851D02*
G01*
X38848338Y-101941651D01*
X38399739Y-102150837D01*
X37131154Y-101689109D01*
X37473174Y-100749417D01*
X39070651Y-101330851D01*
G37*
%TO.C,D89*%
G36*
X109605737Y-74632649D02*
G01*
X109383424Y-75243449D01*
X108934825Y-75452635D01*
X107666240Y-74990907D01*
X108008260Y-74051215D01*
X109605737Y-74632649D01*
G37*
%TO.C,D117*%
G36*
X247382372Y-72780908D02*
G01*
X247173186Y-73229508D01*
X245904601Y-73691235D01*
X245562581Y-72751542D01*
X247160058Y-72170108D01*
X247382372Y-72780908D01*
G37*
%TO.C,D96*%
G36*
X113118529Y-120679839D02*
G01*
X112896216Y-121290639D01*
X112447617Y-121499825D01*
X111179032Y-121038097D01*
X111521052Y-120098405D01*
X113118529Y-120679839D01*
G37*
%TO.C,D77*%
G36*
X27865673Y-116035305D02*
G01*
X27523653Y-116974997D01*
X25926176Y-116393563D01*
X26148489Y-115782763D01*
X26597088Y-115573577D01*
X27865673Y-116035305D01*
G37*
%TO.C,D113*%
G36*
X231826685Y-101821386D02*
G01*
X230229208Y-102402820D01*
X230006894Y-101792020D01*
X230216080Y-101343420D01*
X231484665Y-100881693D01*
X231826685Y-101821386D01*
G37*
%TO.C,D71*%
G36*
X154599998Y-133600002D02*
G01*
X153949998Y-133600002D01*
X153599998Y-133250002D01*
X153599998Y-131900002D01*
X154599998Y-131900002D01*
X154599998Y-133600002D01*
G37*
%TO.C,D82*%
G36*
X46581240Y-120313135D02*
G01*
X46239220Y-121252827D01*
X44641743Y-120671393D01*
X44864056Y-120060593D01*
X45312655Y-119851407D01*
X46581240Y-120313135D01*
G37*
%TO.C,D132*%
G36*
X304886507Y-63676805D02*
G01*
X304677321Y-64125405D01*
X303408736Y-64587132D01*
X303066716Y-63647439D01*
X304664193Y-63066005D01*
X304886507Y-63676805D01*
G37*
%TO.C,D69*%
G36*
X188642703Y-146429832D02*
G01*
X188514595Y-146907940D01*
X187345460Y-147582940D01*
X186845460Y-146716915D01*
X188317703Y-145866915D01*
X188642703Y-146429832D01*
G37*
%TO.C,D122*%
G36*
X266640910Y-69994844D02*
G01*
X266431724Y-70443444D01*
X265163139Y-70905171D01*
X264821119Y-69965478D01*
X266418596Y-69384044D01*
X266640910Y-69994844D01*
G37*
%TO.C,D99*%
G36*
X142964720Y-94376549D02*
G01*
X142742407Y-94987349D01*
X142293808Y-95196535D01*
X141025223Y-94734807D01*
X141367243Y-93795115D01*
X142964720Y-94376549D01*
G37*
%TO.C,D80*%
G36*
X59612241Y-84510844D02*
G01*
X59270221Y-85450536D01*
X57672744Y-84869102D01*
X57895057Y-84258302D01*
X58343656Y-84049116D01*
X59612241Y-84510844D01*
G37*
%TO.C,D109*%
G36*
X227054362Y-128327108D02*
G01*
X226845176Y-128775708D01*
X225576591Y-129237435D01*
X225234571Y-128297742D01*
X226832048Y-127716308D01*
X227054362Y-128327108D01*
G37*
%TO.C,D133*%
G36*
X305874557Y-82472372D02*
G01*
X304277080Y-83053806D01*
X304054766Y-82443006D01*
X304263952Y-81994406D01*
X305532537Y-81532679D01*
X305874557Y-82472372D01*
G37*
%TO.C,D126*%
G36*
X274128029Y-50947931D02*
G01*
X272530552Y-51529365D01*
X272308238Y-50918565D01*
X272517424Y-50469965D01*
X273786009Y-50008238D01*
X274128029Y-50947931D01*
G37*
%TO.C,D111*%
G36*
X218795711Y-66019102D02*
G01*
X217198234Y-66600536D01*
X216975920Y-65989736D01*
X217185106Y-65541136D01*
X218453691Y-65079409D01*
X218795711Y-66019102D01*
G37*
%TO.C,D70*%
G36*
X167917693Y-149466915D02*
G01*
X167592693Y-150029832D01*
X167114585Y-150157940D01*
X165945450Y-149482940D01*
X166445450Y-148616915D01*
X167917693Y-149466915D01*
G37*
%TO.C,D114*%
G36*
X243869587Y-118828111D02*
G01*
X243660401Y-119276711D01*
X242391816Y-119738438D01*
X242049796Y-118798745D01*
X243647273Y-118217311D01*
X243869587Y-118828111D01*
G37*
%TO.C,D123*%
G36*
X267628978Y-88790421D02*
G01*
X266031501Y-89371855D01*
X265809187Y-88761055D01*
X266018373Y-88312455D01*
X267286958Y-87850728D01*
X267628978Y-88790421D01*
G37*
%TO.C,D135*%
G36*
X318905526Y-118274666D02*
G01*
X317308049Y-118856100D01*
X317085735Y-118245300D01*
X317294921Y-117796700D01*
X318563506Y-117334973D01*
X318905526Y-118274666D01*
G37*
%TO.C,D128*%
G36*
X287158990Y-86750226D02*
G01*
X285561513Y-87331660D01*
X285339199Y-86720860D01*
X285548385Y-86272260D01*
X286816970Y-85810533D01*
X287158990Y-86750226D01*
G37*
%TO.C,D97*%
G36*
X113258135Y-146981918D02*
G01*
X112684558Y-147801070D01*
X111292000Y-146825990D01*
X111664825Y-146293542D01*
X112152280Y-146207590D01*
X113258135Y-146981918D01*
G37*
%TO.C,D72*%
G36*
X163154563Y-113283087D02*
G01*
X161682320Y-114133087D01*
X161357320Y-113570170D01*
X161485428Y-113092062D01*
X162654563Y-112417062D01*
X163154563Y-113283087D01*
G37*
%TO.C,D94*%
G36*
X126149476Y-84877535D02*
G01*
X125927163Y-85488335D01*
X125478564Y-85697521D01*
X124209979Y-85235793D01*
X124551999Y-84296101D01*
X126149476Y-84877535D01*
G37*
%TO.C,D119*%
G36*
X260413340Y-108583191D02*
G01*
X260204154Y-109031791D01*
X258935569Y-109493518D01*
X258593549Y-108553825D01*
X260191026Y-107972391D01*
X260413340Y-108583191D01*
G37*
%TO.C,D120*%
G36*
X252453571Y-139927123D02*
G01*
X250856094Y-140508557D01*
X250633780Y-139897757D01*
X250842966Y-139449157D01*
X252111551Y-138987430D01*
X252453571Y-139927123D01*
G37*
%TO.C,D115*%
G36*
X234186833Y-149974903D02*
G01*
X232794274Y-150949983D01*
X232421450Y-150417534D01*
X232507401Y-149930079D01*
X233613256Y-149155751D01*
X234186833Y-149974903D01*
G37*
%TO.C,D116*%
G36*
X235339452Y-55774205D02*
G01*
X233741975Y-56355639D01*
X233519661Y-55744839D01*
X233728847Y-55296239D01*
X234997432Y-54834512D01*
X235339452Y-55774205D01*
G37*
%TO.C,D110*%
G36*
X219263061Y-164380607D02*
G01*
X218170322Y-165682882D01*
X217672393Y-165265071D01*
X217629253Y-164771979D01*
X218497016Y-163737819D01*
X219263061Y-164380607D01*
G37*
%TO.C,D74*%
G36*
X52101604Y-65528545D02*
G01*
X51879291Y-66139345D01*
X51430692Y-66348531D01*
X50162107Y-65886803D01*
X50504127Y-64947111D01*
X52101604Y-65528545D01*
G37*
%TO.C,D79*%
G36*
X70817181Y-69806375D02*
G01*
X70594868Y-70417175D01*
X70146269Y-70626361D01*
X68877684Y-70164633D01*
X69219704Y-69224941D01*
X70817181Y-69806375D01*
G37*
%TO.C,D121*%
G36*
X254597999Y-52988138D02*
G01*
X253000522Y-53569572D01*
X252778208Y-52958772D01*
X252987394Y-52510172D01*
X254255979Y-52048445D01*
X254597999Y-52988138D01*
G37*
%TO.C,D88*%
G36*
X111431743Y-53534824D02*
G01*
X111089723Y-54474516D01*
X109492246Y-53893082D01*
X109714559Y-53282282D01*
X110163158Y-53073096D01*
X111431743Y-53534824D01*
G37*
%TO.C,D118*%
G36*
X248370437Y-91576505D02*
G01*
X246772960Y-92157939D01*
X246550646Y-91547139D01*
X246759832Y-91098539D01*
X248028417Y-90636812D01*
X248370437Y-91576505D01*
G37*
%TD*%
D10*
%TO.C,SW64*%
X200500000Y-130000000D03*
X149500000Y-130000000D03*
X177500000Y-99400000D03*
X172500000Y-99400000D03*
X175000000Y-99400000D03*
D11*
X205099999Y-129999999D03*
D12*
X190100000Y-156153967D03*
X190100000Y-103846033D03*
D13*
X189500000Y-130000000D03*
X160500000Y-130000000D03*
D12*
X159900000Y-156153967D03*
X159900000Y-103846033D03*
D11*
X144899999Y-129999999D03*
%TD*%
D14*
%TO.C,H3*%
X54600005Y-29955003D03*
%TD*%
%TO.C,H2*%
X295250003Y-30005001D03*
%TD*%
D15*
%TO.C,J2*%
X177889999Y-23150005D03*
X172109999Y-23150005D03*
D16*
X179319998Y-23680004D03*
D17*
X179319998Y-19500004D03*
D16*
X170679998Y-23680004D03*
D17*
X170679998Y-19500004D03*
%TD*%
D18*
%TO.C,J4*%
X155000002Y-33580623D03*
D19*
X155000002Y-36120623D03*
X155000002Y-38660623D03*
X155000002Y-41200623D03*
X155000002Y-43740623D03*
X155000002Y-46280623D03*
X155000002Y-48820623D03*
D20*
X155250003Y-25200624D03*
X155250003Y-57200624D03*
X194750003Y-25200624D03*
X194750003Y-57200624D03*
%TD*%
D14*
%TO.C,H1*%
X175000001Y-186655002D03*
%TD*%
D18*
%TO.C,J1*%
X171199997Y-62600002D03*
D19*
X173739997Y-62600002D03*
X176279997Y-62600002D03*
X178819997Y-62600002D03*
%TD*%
D21*
%TO.C,SW25*%
X121027845Y-148071743D03*
D22*
X121860967Y-142453566D03*
D23*
X116866552Y-145157974D03*
D22*
X115202467Y-140892002D03*
D21*
X112705260Y-142244206D03*
D24*
X112519743Y-139013538D03*
X124565806Y-144347515D03*
%TD*%
D21*
%TO.C,SW30*%
X136265365Y-163891517D03*
D22*
X138524190Y-158680403D03*
D23*
X133000004Y-160000011D03*
D22*
X132496736Y-155448701D03*
D21*
X129734643Y-156108505D03*
D25*
X130391605Y-152939905D03*
X140646674Y-161209881D03*
%TD*%
D21*
%TO.C,SW1*%
X61700841Y-43482097D03*
D22*
X61051485Y-37839727D03*
D23*
X56927203Y-41744634D03*
D22*
X54215705Y-38054718D03*
D21*
X52153564Y-40007172D03*
D26*
X51138211Y-36934601D03*
X64154349Y-38969076D03*
%TD*%
D21*
%TO.C,SW24*%
X116202281Y-116534542D03*
D22*
X115552925Y-110892172D03*
D23*
X111428643Y-114797079D03*
D22*
X108717145Y-111107163D03*
D21*
X106655004Y-113059617D03*
D26*
X105639651Y-109987046D03*
X118655789Y-112021521D03*
%TD*%
D21*
%TO.C,SW29*%
X133017485Y-126033574D03*
D22*
X132368129Y-120391204D03*
D23*
X128243847Y-124296111D03*
D22*
X125532349Y-120606195D03*
D21*
X123470208Y-122558649D03*
D26*
X122454855Y-119486078D03*
X135470993Y-121520553D03*
%TD*%
D21*
%TO.C,SW14*%
X80399972Y-103503586D03*
D22*
X79750616Y-97861216D03*
D23*
X75626334Y-101766123D03*
D22*
X72914836Y-98076207D03*
D21*
X70852695Y-100028661D03*
D26*
X69837342Y-96956090D03*
X82853480Y-98990565D03*
%TD*%
D21*
%TO.C,SW19*%
X99658518Y-106289651D03*
D22*
X99009162Y-100647281D03*
D23*
X94884880Y-104552188D03*
D22*
X92173382Y-100862272D03*
D21*
X90111241Y-102814726D03*
D26*
X89095888Y-99742155D03*
X102112026Y-101776630D03*
%TD*%
D21*
%TO.C,SW5*%
X35638900Y-115086695D03*
D22*
X34989544Y-109444325D03*
D23*
X30865262Y-113349232D03*
D22*
X28153764Y-109659316D03*
D21*
X26091623Y-111611770D03*
D26*
X25076270Y-108539199D03*
X38092408Y-110573674D03*
%TD*%
D21*
%TO.C,SW22*%
X129233232Y-80732244D03*
D22*
X128583876Y-75089874D03*
D23*
X124459594Y-78994781D03*
D22*
X121748096Y-75304865D03*
D21*
X119685955Y-77257319D03*
D26*
X118670602Y-74184748D03*
X131686740Y-76219223D03*
%TD*%
D21*
%TO.C,SW27*%
X146048454Y-90231275D03*
D22*
X145399098Y-84588905D03*
D23*
X141274816Y-88493812D03*
D22*
X138563318Y-84803896D03*
D21*
X136501177Y-86756350D03*
D26*
X135485824Y-83683779D03*
X148501962Y-85718254D03*
%TD*%
D21*
%TO.C,SW3*%
X48669856Y-79284399D03*
D22*
X48020500Y-73642029D03*
D23*
X43896218Y-77546936D03*
D22*
X41184720Y-73857020D03*
D21*
X39122579Y-75809474D03*
D26*
X38107226Y-72736903D03*
X51123364Y-74771378D03*
%TD*%
D21*
%TO.C,SW8*%
X67385454Y-83562223D03*
D22*
X66736098Y-77919853D03*
D23*
X62611816Y-81824760D03*
D22*
X59900318Y-78134844D03*
D21*
X57838177Y-80087298D03*
D26*
X56822824Y-77014727D03*
X69838962Y-79049202D03*
%TD*%
D21*
%TO.C,SW13*%
X86915464Y-85602429D03*
D22*
X86266108Y-79960059D03*
D23*
X82141826Y-83864966D03*
D22*
X79430328Y-80175050D03*
D21*
X77368187Y-82127504D03*
D26*
X76352834Y-79054933D03*
X89368972Y-81089408D03*
%TD*%
D21*
%TO.C,SW23*%
X122717754Y-98633426D03*
D22*
X122068398Y-92991056D03*
D23*
X117944116Y-96895963D03*
D22*
X115232618Y-93206047D03*
D21*
X113170477Y-95158501D03*
D26*
X112155124Y-92085930D03*
X125171262Y-94120405D03*
%TD*%
D21*
%TO.C,SW18*%
X106173986Y-88388514D03*
D22*
X105524630Y-82746144D03*
D23*
X101400348Y-86651051D03*
D22*
X98688850Y-82961135D03*
D21*
X96626709Y-84913589D03*
D26*
X95611356Y-81841018D03*
X108627494Y-83875493D03*
%TD*%
D21*
%TO.C,SW28*%
X139532967Y-108132417D03*
D22*
X138883611Y-102490047D03*
D23*
X134759329Y-106394954D03*
D22*
X132047831Y-102705038D03*
D21*
X129985690Y-104657492D03*
D26*
X128970337Y-101584921D03*
X141986475Y-103619396D03*
%TD*%
D21*
%TO.C,SW4*%
X42154398Y-97185559D03*
D22*
X41505042Y-91543189D03*
D23*
X37380760Y-95448096D03*
D22*
X34669262Y-91758180D03*
D21*
X32607121Y-93710634D03*
D26*
X31591768Y-90638063D03*
X44607906Y-92672538D03*
%TD*%
D21*
%TO.C,SW9*%
X60869942Y-101463384D03*
D22*
X60220586Y-95821014D03*
D23*
X56096304Y-99725921D03*
D22*
X53384806Y-96036005D03*
D21*
X51322665Y-97988459D03*
D26*
X50307312Y-94915888D03*
X63323450Y-96950363D03*
%TD*%
D21*
%TO.C,SW10*%
X54354478Y-119364525D03*
D22*
X53705122Y-113722155D03*
D23*
X49580840Y-117627062D03*
D22*
X46869342Y-113937146D03*
D21*
X44807201Y-115889600D03*
D26*
X43791848Y-112817029D03*
X56807986Y-114851504D03*
%TD*%
D21*
%TO.C,SW15*%
X73884492Y-121404723D03*
D22*
X73235136Y-115762353D03*
D23*
X69110854Y-119667260D03*
D22*
X66399356Y-115977344D03*
D21*
X64337215Y-117929798D03*
D26*
X63321862Y-114857227D03*
X76338000Y-116891702D03*
%TD*%
D21*
%TO.C,SW20*%
X102090858Y-136739146D03*
D22*
X101441502Y-131096776D03*
D23*
X97317220Y-135001683D03*
D22*
X94605722Y-131311767D03*
D21*
X92543581Y-133264221D03*
D26*
X91528228Y-130191650D03*
X104544366Y-132226125D03*
%TD*%
D21*
%TO.C,SW11*%
X99946427Y-49800159D03*
D22*
X99297071Y-44157789D03*
D23*
X95172789Y-48062696D03*
D22*
X92461291Y-44372780D03*
D21*
X90399150Y-46325234D03*
D26*
X89383797Y-43252663D03*
X102399935Y-45287138D03*
%TD*%
D21*
%TO.C,SW2*%
X55185356Y-61383249D03*
D22*
X54536000Y-55740879D03*
D23*
X50411718Y-59645786D03*
D22*
X47700220Y-55955870D03*
D21*
X45638079Y-57908324D03*
D26*
X44622726Y-54835753D03*
X57638864Y-56870228D03*
%TD*%
D21*
%TO.C,SW12*%
X93430936Y-67701283D03*
D22*
X92781580Y-62058913D03*
D23*
X88657298Y-65963820D03*
D22*
X85945800Y-62273904D03*
D21*
X83883659Y-64226358D03*
D26*
X82868306Y-61153787D03*
X95884444Y-63188262D03*
%TD*%
D21*
%TO.C,SW21*%
X135748721Y-62831112D03*
D22*
X135099365Y-57188742D03*
D23*
X130975083Y-61093649D03*
D22*
X128263585Y-57403733D03*
D21*
X126201444Y-59356187D03*
D26*
X125186091Y-56283616D03*
X138202229Y-58318091D03*
%TD*%
D21*
%TO.C,SW17*%
X112689479Y-70487377D03*
D22*
X112040123Y-64845007D03*
D23*
X107915841Y-68749914D03*
D22*
X105204343Y-65059998D03*
D21*
X103142202Y-67012452D03*
D26*
X102126849Y-63939881D03*
X115142987Y-65974356D03*
%TD*%
D21*
%TO.C,SW16*%
X119204966Y-52586216D03*
D22*
X118555610Y-46943846D03*
D23*
X114431328Y-50848753D03*
D22*
X111719830Y-47158837D03*
D21*
X109657689Y-49111291D03*
D26*
X108642336Y-46038720D03*
X121658474Y-48073195D03*
%TD*%
D21*
%TO.C,SW6*%
X80416412Y-47759951D03*
D22*
X79767056Y-42117581D03*
D23*
X75642774Y-46022488D03*
D22*
X72931276Y-42332572D03*
D21*
X70869135Y-44285026D03*
D26*
X69853782Y-41212455D03*
X82869920Y-43246930D03*
%TD*%
D21*
%TO.C,SW7*%
X73900926Y-65661092D03*
D22*
X73251570Y-60018722D03*
D23*
X69127288Y-63923629D03*
D22*
X66415790Y-60233713D03*
D21*
X64353649Y-62186167D03*
D26*
X63338296Y-59113596D03*
X76354434Y-61148071D03*
%TD*%
D21*
%TO.C,SW26*%
X152563943Y-72330124D03*
D22*
X151914587Y-66687754D03*
D23*
X147790305Y-70592661D03*
D22*
X145078807Y-66902745D03*
D21*
X143016666Y-68855199D03*
D26*
X142001313Y-65782628D03*
X155017451Y-67817103D03*
%TD*%
D21*
%TO.C,SW31*%
X206983358Y-68855205D03*
D22*
X202859076Y-64950298D03*
D23*
X202209719Y-70592668D03*
D22*
X197760759Y-69508945D03*
D21*
X197436081Y-72330130D03*
D27*
X194683265Y-70629060D03*
X205961940Y-63820946D03*
%TD*%
D28*
%TO.C,D34*%
X211045229Y-118989436D03*
X212173895Y-122090422D03*
%TD*%
D29*
%TO.C,J3*%
X177750001Y-113749996D03*
X177250001Y-113749996D03*
X176750001Y-113749996D03*
X176250001Y-113749996D03*
X175750001Y-113749996D03*
X175250001Y-113749996D03*
X174750001Y-113749996D03*
X174250001Y-113749996D03*
X173750001Y-113749996D03*
X173250001Y-113749996D03*
X172750001Y-113749996D03*
X172250001Y-113749996D03*
D30*
X179650001Y-116999996D03*
X170350001Y-116999996D03*
%TD*%
D31*
%TO.C,C53*%
X117257725Y-152114154D03*
X118044111Y-152664788D03*
%TD*%
D32*
%TO.C,U6*%
X183969303Y-120737638D03*
X184919303Y-120737638D03*
X185869303Y-120737638D03*
X185869303Y-123012638D03*
X183969303Y-123012638D03*
%TD*%
D33*
%TO.C,D16*%
X109637340Y-39898773D03*
X108508674Y-42999759D03*
%TD*%
D21*
%TO.C,SW45*%
X257456434Y-133264218D03*
D22*
X253332152Y-129359311D03*
D23*
X252682795Y-135001681D03*
D22*
X248233835Y-133917958D03*
D21*
X247909157Y-136739143D03*
D27*
X245156341Y-135038073D03*
X256435016Y-128229959D03*
%TD*%
D34*
%TO.C,C90*%
X309039451Y-101050306D03*
X309941555Y-100721966D03*
%TD*%
D35*
%TO.C,C38*%
X51772864Y-124235313D03*
X52674968Y-124563653D03*
%TD*%
D36*
%TO.C,C60*%
X180279795Y-181369382D03*
X179319795Y-181369382D03*
%TD*%
D28*
%TO.C,D57*%
X288877345Y-54339114D03*
X290006011Y-57440100D03*
%TD*%
D21*
%TO.C,SW49*%
X279147317Y-100028672D03*
D22*
X275023035Y-96123765D03*
D23*
X274373678Y-101766135D03*
D22*
X269924718Y-100682412D03*
D21*
X269600040Y-103503597D03*
D27*
X266847224Y-101802527D03*
X278125899Y-94994413D03*
%TD*%
D28*
%TO.C,D58*%
X295392846Y-72240271D03*
X296521512Y-75341257D03*
%TD*%
D37*
%TO.C,C28*%
X169827615Y-110481164D03*
X168996231Y-110961164D03*
%TD*%
D38*
%TO.C,D103*%
X154885733Y-179066052D03*
X155248079Y-177713756D03*
X149573141Y-177642548D03*
%TD*%
D39*
%TO.C,D104*%
X177749787Y-181359403D03*
X177749787Y-179959403D03*
X172249787Y-181359403D03*
%TD*%
D28*
%TO.C,D60*%
X308423809Y-108042556D03*
X309552475Y-111143542D03*
%TD*%
D40*
%TO.C,C9*%
X173200003Y-39850010D03*
X173200003Y-41400010D03*
%TD*%
D41*
%TO.C,R27*%
X185839295Y-124505126D03*
X184819295Y-124505126D03*
%TD*%
D42*
%TO.C,D105*%
X200451624Y-177635913D03*
X200089278Y-176283617D03*
X195139032Y-179059417D03*
%TD*%
D43*
%TO.C,C44*%
X117525464Y-57785354D03*
X116623360Y-57457014D03*
%TD*%
%TO.C,C46*%
X104494482Y-93587640D03*
X103592378Y-93259300D03*
%TD*%
D34*
%TO.C,C85*%
X290323873Y-105328148D03*
X291225977Y-104999808D03*
%TD*%
D44*
%TO.C,D125*%
X285337326Y-123848039D03*
X284858498Y-122532470D03*
X280169016Y-125729150D03*
%TD*%
D45*
%TO.C,D63*%
X186152337Y-166869994D03*
X187006439Y-170057550D03*
%TD*%
D35*
%TO.C,C42*%
X69283006Y-103756620D03*
X70185110Y-104084960D03*
%TD*%
D46*
%TO.C,D75*%
X44616373Y-83608824D03*
X45095201Y-82293255D03*
X39448063Y-81727713D03*
%TD*%
D33*
%TO.C,D14*%
X70832341Y-90816125D03*
X69703675Y-93917111D03*
%TD*%
D47*
%TO.C,D102*%
X130588986Y-165611179D03*
X131661448Y-164711276D03*
X127053654Y-161397934D03*
%TD*%
D21*
%TO.C,SW47*%
X266116359Y-64226370D03*
D22*
X261992077Y-60321463D03*
D23*
X261342720Y-65963833D03*
D22*
X256893760Y-64880110D03*
D21*
X256569082Y-67701295D03*
D27*
X253816266Y-66000225D03*
X265094941Y-59192111D03*
%TD*%
D21*
%TO.C,SW63*%
X201266906Y-171775202D03*
D22*
X197498654Y-167525699D03*
D23*
X196360003Y-173090003D03*
D22*
X192022425Y-171622651D03*
D21*
X191453100Y-174404803D03*
D48*
X188859017Y-172470283D03*
X200688140Y-166671077D03*
%TD*%
D49*
%TO.C,D81*%
X52126966Y-102591119D03*
X51648138Y-103906688D03*
X57295276Y-104472230D03*
%TD*%
D33*
%TO.C,D4*%
X32586765Y-84498073D03*
X31458099Y-87599059D03*
%TD*%
D44*
%TO.C,D106*%
X206657884Y-74773442D03*
X206179056Y-73457873D03*
X201489574Y-76654553D03*
%TD*%
D50*
%TO.C,D67*%
X187131562Y-114487508D03*
X187831562Y-113275072D03*
X182368422Y-111737508D03*
%TD*%
D33*
%TO.C,D19*%
X90090882Y-93602191D03*
X88962216Y-96703177D03*
%TD*%
D21*
%TO.C,SW61*%
X158546905Y-174404787D03*
D22*
X157408254Y-168840483D03*
D23*
X153640001Y-173089986D03*
D22*
X150617224Y-169650434D03*
D21*
X148733098Y-171775185D03*
D51*
X147453816Y-168802800D03*
X160597740Y-169695102D03*
%TD*%
D21*
%TO.C,SW33*%
X220014312Y-104657490D03*
D22*
X215890030Y-100752583D03*
D23*
X215240673Y-106394953D03*
D22*
X210791713Y-105311230D03*
D21*
X210467035Y-108132415D03*
D27*
X207714219Y-106431345D03*
X218992894Y-99623231D03*
%TD*%
D49*
%TO.C,D101*%
X124274509Y-127161297D03*
X123795681Y-128476866D03*
X129442819Y-129042408D03*
%TD*%
D52*
%TO.C,D134*%
X311420299Y-100194401D03*
X311899127Y-101509970D03*
X316588609Y-98313290D03*
%TD*%
D53*
%TO.C,C4*%
X171249793Y-38300003D03*
X171249793Y-36400003D03*
%TD*%
D35*
%TO.C,C47*%
X88541534Y-106542689D03*
X89443638Y-106871029D03*
%TD*%
D34*
%TO.C,C70*%
X234991584Y-120399321D03*
X235893688Y-120070981D03*
%TD*%
D54*
%TO.C,C92*%
X178089298Y-37350006D03*
X179049298Y-37350006D03*
%TD*%
D43*
%TO.C,C39*%
X98266938Y-54999270D03*
X97364834Y-54670930D03*
%TD*%
D55*
%TO.C,C8*%
X178925003Y-38820009D03*
X178925003Y-39780009D03*
%TD*%
D56*
%TO.C,C21*%
X184115002Y-118875141D03*
X182565002Y-118875141D03*
%TD*%
D57*
%TO.C,C7*%
X174000003Y-55879998D03*
X174000003Y-54919998D03*
%TD*%
D46*
%TO.C,D78*%
X76362921Y-52084366D03*
X76841749Y-50768797D03*
X71194611Y-50203255D03*
%TD*%
%TO.C,D98*%
X148510430Y-76654547D03*
X148989258Y-75338978D03*
X143342120Y-74773436D03*
%TD*%
D54*
%TO.C,C19*%
X170720002Y-44423906D03*
X171680002Y-44423906D03*
%TD*%
D35*
%TO.C,C43*%
X71302894Y-126275510D03*
X72204998Y-126603850D03*
%TD*%
%TO.C,C30*%
X44068390Y-61636267D03*
X44970494Y-61964607D03*
%TD*%
D33*
%TO.C,D8*%
X57817819Y-70874783D03*
X56689153Y-73975769D03*
%TD*%
D28*
%TO.C,D39*%
X227860463Y-109490429D03*
X228989129Y-112591415D03*
%TD*%
D46*
%TO.C,D90*%
X102120498Y-92712933D03*
X102599326Y-91397364D03*
X96952188Y-90831822D03*
%TD*%
D58*
%TO.C,C22*%
X182319294Y-122800135D03*
X182319294Y-121250135D03*
%TD*%
D46*
%TO.C,D100*%
X135479473Y-112456829D03*
X135958301Y-111141260D03*
X130311163Y-110575718D03*
%TD*%
D55*
%TO.C,C13*%
X176880003Y-38810004D03*
X176880003Y-39770004D03*
%TD*%
D35*
%TO.C,C50*%
X118116259Y-80985284D03*
X119018363Y-81313624D03*
%TD*%
D46*
%TO.C,D87*%
X69830990Y-125729139D03*
X70309818Y-124413570D03*
X64662680Y-123848028D03*
%TD*%
D59*
%TO.C,D68*%
X194500006Y-132749988D03*
X195900006Y-132749988D03*
X194500006Y-127249988D03*
%TD*%
D21*
%TO.C,SW59*%
X317392904Y-93710621D03*
D22*
X313268622Y-89805714D03*
D23*
X312619265Y-95448084D03*
D22*
X308170305Y-94364361D03*
D21*
X307845627Y-97185546D03*
D27*
X305092811Y-95484476D03*
X316371486Y-88676362D03*
%TD*%
D34*
%TO.C,C80*%
X270793857Y-107368336D03*
X271695961Y-107039996D03*
%TD*%
D28*
%TO.C,D37*%
X214829484Y-73688133D03*
X215958150Y-76789119D03*
%TD*%
%TO.C,D48*%
X257147248Y-78558305D03*
X258275914Y-81659291D03*
%TD*%
D49*
%TO.C,D84*%
X84687959Y-68829021D03*
X84209131Y-70144590D03*
X89856269Y-70710132D03*
%TD*%
D60*
%TO.C,C66*%
X223958299Y-160200722D03*
X224575375Y-159465320D03*
%TD*%
D49*
%TO.C,D91*%
X90915541Y-107417383D03*
X90436713Y-108732952D03*
X96083851Y-109298494D03*
%TD*%
D46*
%TO.C,D83*%
X95892931Y-54124567D03*
X96371759Y-52808998D03*
X90724621Y-52243456D03*
%TD*%
D28*
%TO.C,D50*%
X270178203Y-114360588D03*
X271306869Y-117461574D03*
%TD*%
D61*
%TO.C,D61*%
X147909896Y-162599483D03*
X147055794Y-165787039D03*
%TD*%
D21*
%TO.C,SW38*%
X236829560Y-95158483D03*
D22*
X232705278Y-91253576D03*
D23*
X232055921Y-96895946D03*
D22*
X227606961Y-95812223D03*
D21*
X227282283Y-98633408D03*
D27*
X224529467Y-96932338D03*
X235808142Y-90124224D03*
%TD*%
D62*
%TO.C,C64*%
X222069682Y-109719801D03*
X221167578Y-110048141D03*
%TD*%
D21*
%TO.C,SW50*%
X285662804Y-117929812D03*
D22*
X281538522Y-114024905D03*
D23*
X280889165Y-119667275D03*
D22*
X276440205Y-118583552D03*
D21*
X276115527Y-121404737D03*
D27*
X273362711Y-119703667D03*
X284641386Y-112895553D03*
%TD*%
D46*
%TO.C,D95*%
X118664260Y-102957850D03*
X119143088Y-101642281D03*
X113495950Y-101076739D03*
%TD*%
D63*
%TO.C,R4*%
X170400008Y-97010001D03*
X170400008Y-95990001D03*
%TD*%
D57*
%TO.C,C24*%
X194490004Y-135279998D03*
X194490004Y-134319998D03*
%TD*%
D62*
%TO.C,C67*%
X225853953Y-64418532D03*
X224951849Y-64746872D03*
%TD*%
D49*
%TO.C,D86*%
X71656989Y-104631323D03*
X71178161Y-105946892D03*
X76825299Y-106512434D03*
%TD*%
D35*
%TO.C,C48*%
X99509269Y-141609930D03*
X100411373Y-141938270D03*
%TD*%
%TO.C,C40*%
X82313977Y-67954334D03*
X83216081Y-68282674D03*
%TD*%
D21*
%TO.C,SW58*%
X310877416Y-75809459D03*
D22*
X306753134Y-71904552D03*
D23*
X306103777Y-77546922D03*
D22*
X301654817Y-76463199D03*
D21*
X301330139Y-79284384D03*
D27*
X298577323Y-77583314D03*
X309855998Y-70775200D03*
%TD*%
D52*
%TO.C,D129*%
X292704720Y-104472243D03*
X293183548Y-105787812D03*
X297873030Y-102591132D03*
%TD*%
D28*
%TO.C,D55*%
X289708245Y-112320390D03*
X290836911Y-115421376D03*
%TD*%
D64*
%TO.C,U4*%
X180349999Y-124339999D03*
D65*
X180350000Y-126120000D03*
X180350000Y-127900000D03*
X180350000Y-129680000D03*
X180350000Y-131460000D03*
X180350000Y-133240000D03*
X180350000Y-135020000D03*
X180350000Y-136800000D03*
X169650000Y-137690000D03*
X169650000Y-135910000D03*
X169650000Y-134130000D03*
X169650000Y-132350000D03*
X169650000Y-130570000D03*
X169650000Y-128790000D03*
X169650000Y-127010000D03*
X169650000Y-125230000D03*
%TD*%
D33*
%TO.C,D6*%
X70848775Y-35072486D03*
X69720109Y-38173472D03*
%TD*%
D66*
%TO.C,U3*%
X179737493Y-45000005D03*
X179737493Y-45400005D03*
X179737493Y-45800005D03*
X179737493Y-46200005D03*
X179737493Y-46600005D03*
X179737493Y-47000005D03*
X179737493Y-47400005D03*
X179737493Y-47800005D03*
X179737493Y-48200005D03*
X179737493Y-48600005D03*
X179737493Y-49000005D03*
X179737493Y-49400005D03*
X179737493Y-49800005D03*
X179737493Y-50200005D03*
D67*
X178899993Y-51037505D03*
X178499993Y-51037505D03*
X178099993Y-51037505D03*
X177699993Y-51037505D03*
X177299993Y-51037505D03*
X176899993Y-51037505D03*
X176499993Y-51037505D03*
X176099993Y-51037505D03*
X175699993Y-51037505D03*
X175299993Y-51037505D03*
X174899993Y-51037505D03*
X174499993Y-51037505D03*
X174099993Y-51037505D03*
X173699993Y-51037505D03*
D66*
X172862493Y-50200005D03*
X172862493Y-49800005D03*
X172862493Y-49400005D03*
X172862493Y-49000005D03*
X172862493Y-48600005D03*
X172862493Y-48200005D03*
X172862493Y-47800005D03*
X172862493Y-47400005D03*
X172862493Y-47000005D03*
X172862493Y-46600005D03*
X172862493Y-46200005D03*
X172862493Y-45800005D03*
X172862493Y-45400005D03*
X172862493Y-45000005D03*
D67*
X173699993Y-44162505D03*
X174099993Y-44162505D03*
X174499993Y-44162505D03*
X174899993Y-44162505D03*
X175299993Y-44162505D03*
X175699993Y-44162505D03*
X176099993Y-44162505D03*
X176499993Y-44162505D03*
X176899993Y-44162505D03*
X177299993Y-44162505D03*
X177699993Y-44162505D03*
X178099993Y-44162505D03*
X178499993Y-44162505D03*
X178899993Y-44162505D03*
D68*
X176299992Y-47600004D03*
%TD*%
D21*
%TO.C,SW43*%
X253373285Y-84913584D03*
D22*
X249249003Y-81008677D03*
D23*
X248599646Y-86651047D03*
D22*
X244150686Y-85567324D03*
D21*
X243826008Y-88388509D03*
D27*
X241073192Y-86687439D03*
X252351867Y-79879325D03*
%TD*%
D33*
%TO.C,D28*%
X129965340Y-95444952D03*
X128836674Y-98545938D03*
%TD*%
D54*
%TO.C,C12*%
X170720002Y-41550000D03*
X171680002Y-41550000D03*
%TD*%
D33*
%TO.C,D21*%
X126181089Y-50143663D03*
X125052423Y-53244649D03*
%TD*%
D46*
%TO.C,D93*%
X131695221Y-67155519D03*
X132174049Y-65839950D03*
X126526911Y-65274408D03*
%TD*%
D62*
%TO.C,C62*%
X209038731Y-73917543D03*
X208136627Y-74245883D03*
%TD*%
D33*
%TO.C,D7*%
X64333307Y-52973626D03*
X63204641Y-56074612D03*
%TD*%
%TO.C,D10*%
X44786841Y-106677077D03*
X43658175Y-109778063D03*
%TD*%
D69*
%TO.C,F1*%
X162199798Y-27699673D03*
X164999798Y-27699673D03*
%TD*%
D39*
%TO.C,SW66*%
X171825004Y-77300000D03*
X178125004Y-77300000D03*
X171825004Y-73500000D03*
X178125004Y-73500000D03*
%TD*%
D52*
%TO.C,D127*%
X279673749Y-68669933D03*
X280152577Y-69985502D03*
X284842059Y-66788822D03*
%TD*%
D62*
%TO.C,C81*%
X287718163Y-122992117D03*
X286816059Y-123320457D03*
%TD*%
%TO.C,C84*%
X294217218Y-85149649D03*
X293315114Y-85477989D03*
%TD*%
D54*
%TO.C,C11*%
X170720010Y-42600002D03*
X171680010Y-42600002D03*
%TD*%
D21*
%TO.C,SW57*%
X304361932Y-57908323D03*
D22*
X300237650Y-54003416D03*
D23*
X299588293Y-59645786D03*
D22*
X295139333Y-58562063D03*
D21*
X294814655Y-61383248D03*
D27*
X292061839Y-59682178D03*
X303340514Y-52874064D03*
%TD*%
D70*
%TO.C,D65*%
X169700213Y-30550000D03*
X169700213Y-27250000D03*
%TD*%
D34*
%TO.C,C88*%
X296008482Y-65248012D03*
X296910586Y-64919672D03*
%TD*%
D44*
%TO.C,D130*%
X304867346Y-121807855D03*
X304388518Y-120492286D03*
X299699036Y-123688966D03*
%TD*%
D33*
%TO.C,D18*%
X96606374Y-75701048D03*
X95477708Y-78802034D03*
%TD*%
D52*
%TO.C,D124*%
X273174708Y-106512428D03*
X273653536Y-107827997D03*
X278343018Y-104631317D03*
%TD*%
D71*
%TO.C,R14*%
X166690002Y-132300001D03*
X167710002Y-132300001D03*
%TD*%
D52*
%TO.C,D107*%
X207526223Y-93240125D03*
X208005051Y-94555694D03*
X212694533Y-91359014D03*
%TD*%
D33*
%TO.C,D2*%
X45617723Y-48695780D03*
X44489057Y-51796766D03*
%TD*%
D28*
%TO.C,D47*%
X250631786Y-60657166D03*
X251760452Y-63758152D03*
%TD*%
%TO.C,D56*%
X282361867Y-36437972D03*
X283490533Y-39538958D03*
%TD*%
D72*
%TO.C,U2*%
X187844298Y-37820140D03*
X187844298Y-39090140D03*
X187844298Y-40360140D03*
X187844298Y-41630140D03*
X180644298Y-41630140D03*
X180644298Y-40360140D03*
X180644298Y-39090140D03*
X180644298Y-37820140D03*
%TD*%
D46*
%TO.C,D85*%
X82861965Y-89926846D03*
X83340793Y-88611277D03*
X77693655Y-88045735D03*
%TD*%
%TO.C,D92*%
X98037375Y-141063559D03*
X98516203Y-139747990D03*
X92869065Y-139182448D03*
%TD*%
D62*
%TO.C,C79*%
X274687203Y-87189834D03*
X273785099Y-87518174D03*
%TD*%
D46*
%TO.C,D73*%
X57647341Y-47806520D03*
X58126169Y-46490951D03*
X52479031Y-45925409D03*
%TD*%
D44*
%TO.C,D108*%
X219688829Y-110575727D03*
X219210001Y-109260158D03*
X214520519Y-112456838D03*
%TD*%
D21*
%TO.C,SW52*%
X285646369Y-62186166D03*
D22*
X281522087Y-58281259D03*
D23*
X280872730Y-63923629D03*
D22*
X276423770Y-62839906D03*
D21*
X276099092Y-65661091D03*
D27*
X273346276Y-63960021D03*
X284624951Y-57151907D03*
%TD*%
D28*
%TO.C,D33*%
X204529748Y-101088294D03*
X205658414Y-104189280D03*
%TD*%
D71*
%TO.C,R28*%
X184290001Y-125560001D03*
X185310001Y-125560001D03*
%TD*%
D21*
%TO.C,SW44*%
X259888779Y-102814716D03*
D22*
X255764497Y-98909809D03*
D23*
X255115140Y-104552179D03*
D22*
X250666180Y-103468456D03*
D21*
X250341502Y-106289641D03*
D27*
X247588686Y-104588571D03*
X258867361Y-97780457D03*
%TD*%
D62*
%TO.C,C89*%
X312932791Y-80871791D03*
X312030687Y-81200131D03*
%TD*%
D52*
%TO.C,D112*%
X224341455Y-83741120D03*
X224820283Y-85056689D03*
X229509765Y-81860009D03*
%TD*%
D44*
%TO.C,D131*%
X297520976Y-45925412D03*
X297042148Y-44609843D03*
X292352666Y-47806523D03*
%TD*%
D33*
%TO.C,D17*%
X103121856Y-57799914D03*
X101993190Y-60900900D03*
%TD*%
D73*
%TO.C,JP1*%
X166366014Y-130300001D03*
X167666014Y-130300001D03*
%TD*%
D55*
%TO.C,C14*%
X177899996Y-38820004D03*
X177899996Y-39780004D03*
%TD*%
D63*
%TO.C,R10*%
X181766013Y-133736306D03*
X181766013Y-132716306D03*
%TD*%
D28*
%TO.C,D41*%
X224857739Y-45542083D03*
X225986405Y-48643069D03*
%TD*%
D21*
%TO.C,SW41*%
X240342327Y-49111301D03*
D22*
X236218045Y-45206394D03*
D23*
X235568688Y-50848764D03*
D22*
X231119728Y-49765041D03*
D21*
X230795050Y-52586226D03*
D27*
X228042234Y-50885156D03*
X239320909Y-44077042D03*
%TD*%
D49*
%TO.C,D76*%
X33411420Y-98313299D03*
X32932592Y-99628868D03*
X38579730Y-100194410D03*
%TD*%
D62*
%TO.C,C91*%
X325963758Y-116674082D03*
X325061654Y-117002422D03*
%TD*%
D71*
%TO.C,R12*%
X171440002Y-25850005D03*
X172460002Y-25850005D03*
%TD*%
D74*
%TO.C,R15*%
X169019298Y-60365141D03*
X169019298Y-61385141D03*
%TD*%
D43*
%TO.C,C34*%
X78736920Y-52959071D03*
X77834816Y-52630731D03*
%TD*%
D28*
%TO.C,D54*%
X283192759Y-94419245D03*
X284321425Y-97520231D03*
%TD*%
D40*
%TO.C,C20*%
X175870002Y-19925003D03*
X175870002Y-21475003D03*
%TD*%
D55*
%TO.C,C2*%
X172500016Y-96019989D03*
X172500016Y-96979989D03*
%TD*%
D49*
%TO.C,D89*%
X103946506Y-71615097D03*
X103467678Y-72930666D03*
X109114816Y-73496208D03*
%TD*%
D33*
%TO.C,D1*%
X52133209Y-30794648D03*
X51004543Y-33895634D03*
%TD*%
D75*
%TO.C,R26*%
X174100026Y-19875027D03*
X174100026Y-21525027D03*
%TD*%
D63*
%TO.C,R9*%
X176899997Y-56885004D03*
X176899997Y-55865004D03*
%TD*%
D52*
%TO.C,D117*%
X240885191Y-73496212D03*
X241364019Y-74811781D03*
X246053501Y-71615101D03*
%TD*%
D49*
%TO.C,D96*%
X107459298Y-117662287D03*
X106980470Y-118977856D03*
X112627608Y-119543398D03*
%TD*%
D74*
%TO.C,R1*%
X179600010Y-95989992D03*
X179600010Y-97009992D03*
%TD*%
D46*
%TO.C,D77*%
X31585405Y-119411113D03*
X32064233Y-118095544D03*
X26417095Y-117530002D03*
%TD*%
D74*
%TO.C,R8*%
X174525002Y-40340004D03*
X174525002Y-41360004D03*
%TD*%
D28*
%TO.C,D53*%
X276677267Y-76518103D03*
X277805933Y-79619089D03*
%TD*%
D76*
%TO.C,C58*%
X132207585Y-167555710D03*
X131590509Y-166820308D03*
%TD*%
D44*
%TO.C,D113*%
X236504073Y-101076714D03*
X236025245Y-99761145D03*
X231335763Y-102957825D03*
%TD*%
D59*
%TO.C,D71*%
X155499997Y-127250001D03*
X154099997Y-127250001D03*
X155499997Y-132750001D03*
%TD*%
D36*
%TO.C,C6*%
X179679997Y-59075003D03*
X178719997Y-59075003D03*
%TD*%
D35*
%TO.C,C45*%
X101572513Y-70740414D03*
X102474617Y-71068754D03*
%TD*%
D28*
%TO.C,D32*%
X198014258Y-83187149D03*
X199142924Y-86288135D03*
%TD*%
D21*
%TO.C,SW40*%
X237294745Y-142244192D03*
D22*
X232300330Y-139539784D03*
D23*
X233133452Y-145157960D03*
D22*
X228555599Y-145262640D03*
D21*
X228972160Y-148071728D03*
D77*
X225872875Y-147141102D03*
X235005169Y-137645833D03*
%TD*%
D33*
%TO.C,D23*%
X113150128Y-85945950D03*
X112021462Y-89046936D03*
%TD*%
D21*
%TO.C,SW62*%
X180080019Y-175909994D03*
D22*
X177540019Y-170829994D03*
D23*
X175000019Y-175909994D03*
D22*
X171190019Y-173369994D03*
D21*
X169920019Y-175909994D03*
D78*
X167915018Y-173369993D03*
X180842018Y-170829993D03*
%TD*%
D43*
%TO.C,C54*%
X150884428Y-77529248D03*
X149982324Y-77200908D03*
%TD*%
D46*
%TO.C,D82*%
X50300972Y-123688943D03*
X50779800Y-122373374D03*
X45132662Y-121807832D03*
%TD*%
D35*
%TO.C,C33*%
X33057308Y-119957465D03*
X33959412Y-120285805D03*
%TD*%
D52*
%TO.C,D132*%
X298389326Y-64392109D03*
X298868154Y-65707678D03*
X303557636Y-62510998D03*
%TD*%
D63*
%TO.C,R2*%
X178550017Y-97009998D03*
X178550017Y-95989998D03*
%TD*%
D41*
%TO.C,R6*%
X185060002Y-43850003D03*
X184040002Y-43850003D03*
%TD*%
D79*
%TO.C,D69*%
X182368441Y-148262491D03*
X183068441Y-149474927D03*
X187131581Y-145512491D03*
%TD*%
D62*
%TO.C,C86*%
X307248176Y-120951932D03*
X306346072Y-121280272D03*
%TD*%
D28*
%TO.C,D36*%
X208314004Y-55786988D03*
X209442670Y-58887974D03*
%TD*%
D55*
%TO.C,C15*%
X181025006Y-43820005D03*
X181025006Y-44780005D03*
%TD*%
D34*
%TO.C,C63*%
X205145381Y-94096033D03*
X206047485Y-93767693D03*
%TD*%
D21*
%TO.C,SW46*%
X259600860Y-46325233D03*
D22*
X255476578Y-42420326D03*
D23*
X254827221Y-48062696D03*
D22*
X250378261Y-46978973D03*
D21*
X250053583Y-49800158D03*
D27*
X247300767Y-48099088D03*
X258579442Y-41290974D03*
%TD*%
D43*
%TO.C,C56*%
X137853484Y-113331530D03*
X136951380Y-113003190D03*
%TD*%
D62*
%TO.C,C72*%
X242397692Y-54173621D03*
X241495588Y-54501961D03*
%TD*%
D21*
%TO.C,SW51*%
X279130884Y-44285034D03*
D22*
X275006602Y-40380127D03*
D23*
X274357245Y-46022497D03*
D22*
X269908285Y-44938774D03*
D21*
X269583607Y-47759959D03*
D27*
X266830791Y-46058889D03*
X278109466Y-39250775D03*
%TD*%
D80*
%TO.C,C23*%
X189317620Y-115761176D03*
X188486236Y-115281176D03*
%TD*%
D52*
%TO.C,D122*%
X260143729Y-70710148D03*
X260622557Y-72025717D03*
X265312039Y-68829037D03*
%TD*%
D43*
%TO.C,C31*%
X46990374Y-84483518D03*
X46088270Y-84155178D03*
%TD*%
D28*
%TO.C,D59*%
X301908313Y-90141404D03*
X303036979Y-93242390D03*
%TD*%
D43*
%TO.C,C29*%
X60021340Y-48681230D03*
X59119236Y-48352890D03*
%TD*%
D21*
%TO.C,SW60*%
X323908380Y-111611760D03*
D22*
X319784098Y-107706853D03*
D23*
X319134741Y-113349223D03*
D22*
X314685781Y-112265500D03*
D21*
X314361103Y-115086685D03*
D27*
X311608287Y-113385615D03*
X322886962Y-106577501D03*
%TD*%
D49*
%TO.C,D99*%
X137305489Y-91358997D03*
X136826661Y-92674566D03*
X142473799Y-93240108D03*
%TD*%
D46*
%TO.C,D80*%
X63331973Y-87886652D03*
X63810801Y-86571083D03*
X58163663Y-86005541D03*
%TD*%
D81*
%TO.C,C61*%
X202897995Y-176990750D03*
X201970707Y-177239216D03*
%TD*%
D21*
%TO.C,SW37*%
X230314068Y-77257350D03*
D22*
X226189786Y-73352443D03*
D23*
X225540429Y-78994813D03*
D22*
X221091469Y-77911090D03*
D21*
X220766791Y-80732275D03*
D27*
X218013975Y-79031205D03*
X229292650Y-72223091D03*
%TD*%
D33*
%TO.C,D9*%
X51302327Y-88775927D03*
X50173661Y-91876913D03*
%TD*%
D34*
%TO.C,C83*%
X277292922Y-69525862D03*
X278195026Y-69197522D03*
%TD*%
D52*
%TO.C,D109*%
X220557181Y-129042412D03*
X221036009Y-130357981D03*
X225725491Y-127161301D03*
%TD*%
D82*
%TO.C,C71*%
X239803912Y-147152678D03*
X240590298Y-146602044D03*
%TD*%
D28*
%TO.C,D42*%
X231373240Y-63443232D03*
X232501906Y-66544218D03*
%TD*%
D33*
%TO.C,D22*%
X119665598Y-68044787D03*
X118536932Y-71145773D03*
%TD*%
D40*
%TO.C,C10*%
X169016688Y-41962756D03*
X169016688Y-43512756D03*
%TD*%
D62*
%TO.C,C82*%
X281186259Y-49347335D03*
X280284155Y-49675675D03*
%TD*%
D35*
%TO.C,C32*%
X31037426Y-97438595D03*
X31939530Y-97766935D03*
%TD*%
%TO.C,C55*%
X134931484Y-90484305D03*
X135833588Y-90812645D03*
%TD*%
D33*
%TO.C,D3*%
X39102233Y-66596943D03*
X37973567Y-69697929D03*
%TD*%
D83*
%TO.C,C3*%
X158499795Y-32599667D03*
X160399795Y-32599667D03*
%TD*%
D44*
%TO.C,D133*%
X310551945Y-81727700D03*
X310073117Y-80412131D03*
X305383635Y-83608811D03*
%TD*%
D43*
%TO.C,C36*%
X65705964Y-88761350D03*
X64803860Y-88433010D03*
%TD*%
D33*
%TO.C,D11*%
X90378795Y-37112701D03*
X89250129Y-40213687D03*
%TD*%
D34*
%TO.C,C78*%
X257762894Y-71566054D03*
X258664998Y-71237714D03*
%TD*%
D44*
%TO.C,D126*%
X278805417Y-50203259D03*
X278326589Y-48887690D03*
X273637107Y-52084370D03*
%TD*%
D28*
%TO.C,D49*%
X263662739Y-96459448D03*
X264791405Y-99560434D03*
%TD*%
D57*
%TO.C,C5*%
X181500001Y-56855006D03*
X181500001Y-55895006D03*
%TD*%
D28*
%TO.C,D46*%
X244116285Y-42756021D03*
X245244951Y-45857007D03*
%TD*%
D44*
%TO.C,D111*%
X223473099Y-65274430D03*
X222994271Y-63958861D03*
X218304789Y-67155541D03*
%TD*%
D58*
%TO.C,C93*%
X182980001Y-128145000D03*
X182980001Y-126595000D03*
%TD*%
D84*
%TO.C,D35*%
X205070733Y-160759741D03*
X207598679Y-162880941D03*
%TD*%
D41*
%TO.C,R13*%
X178560003Y-25850002D03*
X177540003Y-25850002D03*
%TD*%
D33*
%TO.C,D27*%
X136480818Y-77543816D03*
X135352152Y-80644802D03*
%TD*%
D85*
%TO.C,D70*%
X162868431Y-145512491D03*
X162168431Y-146724927D03*
X167631571Y-148262491D03*
%TD*%
D32*
%TO.C,U5*%
X174150002Y-30167503D03*
X175100002Y-30167503D03*
X176050002Y-30167503D03*
X176050002Y-32442503D03*
X175100002Y-32442503D03*
X174150002Y-32442503D03*
%TD*%
D34*
%TO.C,C76*%
X258606281Y-138645483D03*
X259508385Y-138317143D03*
%TD*%
%TO.C,C65*%
X218176345Y-129898318D03*
X219078449Y-129569978D03*
%TD*%
D41*
%TO.C,R5*%
X183059999Y-43860005D03*
X182039999Y-43860005D03*
%TD*%
D52*
%TO.C,D114*%
X237372406Y-119543415D03*
X237851234Y-120858984D03*
X242540716Y-117662304D03*
%TD*%
D44*
%TO.C,D123*%
X272306366Y-88045749D03*
X271827538Y-86730180D03*
X267138056Y-89926860D03*
%TD*%
D43*
%TO.C,C49*%
X134069235Y-68030223D03*
X133167131Y-67701883D03*
%TD*%
D44*
%TO.C,D135*%
X323582914Y-117529994D03*
X323104086Y-116214425D03*
X318414604Y-119411105D03*
%TD*%
D86*
%TO.C,D62*%
X166750011Y-167259993D03*
X166750011Y-170559993D03*
%TD*%
D44*
%TO.C,D128*%
X291836378Y-86005554D03*
X291357550Y-84689985D03*
X286668068Y-87886665D03*
%TD*%
D57*
%TO.C,C17*%
X175000003Y-55569338D03*
X175000003Y-54609338D03*
%TD*%
D87*
%TO.C,D97*%
X115977396Y-151205437D03*
X116780403Y-150058624D03*
X111472059Y-148050766D03*
%TD*%
D43*
%TO.C,C51*%
X121038254Y-103832546D03*
X120136150Y-103504206D03*
%TD*%
D35*
%TO.C,C52*%
X105085293Y-116787580D03*
X105987397Y-117115920D03*
%TD*%
D21*
%TO.C,SW54*%
X298677332Y-97988465D03*
D22*
X294553050Y-94083558D03*
D23*
X293903693Y-99725928D03*
D22*
X289454733Y-98642205D03*
D21*
X289130055Y-101463390D03*
D27*
X286377239Y-99762320D03*
X297655914Y-92954206D03*
%TD*%
D28*
%TO.C,D31*%
X191498780Y-65285987D03*
X192627446Y-68386973D03*
%TD*%
D35*
%TO.C,C37*%
X49752992Y-101716421D03*
X50655096Y-102044761D03*
%TD*%
D21*
%TO.C,SW55*%
X305192824Y-115889610D03*
D22*
X301068542Y-111984703D03*
D23*
X300419185Y-117627073D03*
D22*
X295970225Y-116543350D03*
D21*
X295645547Y-119364535D03*
D27*
X292892731Y-117663465D03*
X304171406Y-110855351D03*
%TD*%
D62*
%TO.C,C69*%
X238884913Y-100220806D03*
X237982809Y-100549146D03*
%TD*%
D36*
%TO.C,C16*%
X184666299Y-48600009D03*
X183706299Y-48600009D03*
%TD*%
D21*
%TO.C,SW48*%
X272631839Y-82127517D03*
D22*
X268507557Y-78222610D03*
D23*
X267858200Y-83864980D03*
D22*
X263409240Y-82781257D03*
D21*
X263084562Y-85602442D03*
D27*
X260331746Y-83901372D03*
X271610421Y-77093258D03*
%TD*%
D28*
%TO.C,D43*%
X237888709Y-81344378D03*
X239017375Y-84445364D03*
%TD*%
%TO.C,D52*%
X270161792Y-58616957D03*
X271290458Y-61717943D03*
%TD*%
D43*
%TO.C,C41*%
X85235964Y-90801546D03*
X84333860Y-90473206D03*
%TD*%
D34*
%TO.C,C75*%
X251538736Y-110163805D03*
X252440840Y-109835465D03*
%TD*%
D88*
%TO.C,D72*%
X167631580Y-111737509D03*
X166931580Y-110525073D03*
X162868440Y-114487509D03*
%TD*%
D33*
%TO.C,D29*%
X123449859Y-113346108D03*
X122321193Y-116447094D03*
%TD*%
D89*
%TO.C,D40*%
X221414015Y-142804303D03*
X223306817Y-145507505D03*
%TD*%
D55*
%TO.C,C94*%
X181680000Y-126930006D03*
X181680000Y-127890006D03*
%TD*%
D90*
%TO.C,Y1*%
X180049999Y-55275002D03*
X180049999Y-57475002D03*
X178349999Y-57475002D03*
X178349999Y-55275002D03*
%TD*%
D62*
%TO.C,C74*%
X255428656Y-89975896D03*
X254526552Y-90304236D03*
%TD*%
D54*
%TO.C,C18*%
X168814922Y-48600004D03*
X169774922Y-48600004D03*
%TD*%
D91*
%TO.C,C26*%
X160682387Y-144238831D03*
X161513771Y-144718831D03*
%TD*%
D21*
%TO.C,SW53*%
X292161848Y-80087311D03*
D22*
X288037566Y-76182404D03*
D23*
X287388209Y-81824774D03*
D22*
X282939249Y-80741051D03*
D21*
X282614571Y-83562236D03*
D27*
X279861755Y-81861166D03*
X291140430Y-75053052D03*
%TD*%
D21*
%TO.C,SW35*%
X220265368Y-156108498D03*
D22*
X214741182Y-154788890D03*
D23*
X217000007Y-160000004D03*
D22*
X212605234Y-161285953D03*
D21*
X213734646Y-163891510D03*
D92*
X210500103Y-163794747D03*
X216863666Y-152259410D03*
%TD*%
D21*
%TO.C,SW34*%
X226529794Y-122558634D03*
D22*
X222405512Y-118653727D03*
D23*
X221756155Y-124296097D03*
D22*
X217307195Y-123212374D03*
D21*
X216982517Y-126033559D03*
D27*
X214229701Y-124332489D03*
X225508376Y-117524375D03*
%TD*%
D93*
%TO.C,U1*%
X162549794Y-37310000D03*
X162549794Y-35010000D03*
D94*
X168849794Y-35010000D03*
D93*
X162549794Y-32710000D03*
%TD*%
D63*
%TO.C,R11*%
X168200000Y-127010003D03*
X168200000Y-125990003D03*
%TD*%
D95*
%TO.C,D25*%
X115069983Y-133340310D03*
X113177181Y-136043512D03*
%TD*%
D33*
%TO.C,D24*%
X106634642Y-103847084D03*
X105505976Y-106948070D03*
%TD*%
D35*
%TO.C,C35*%
X62783939Y-65914112D03*
X63686043Y-66242452D03*
%TD*%
D74*
%TO.C,R3*%
X171450012Y-95989997D03*
X171450012Y-97009997D03*
%TD*%
D96*
%TO.C,SW65*%
X179279998Y-81025004D03*
X170669998Y-81025004D03*
%TD*%
D34*
%TO.C,C73*%
X238504354Y-74352119D03*
X239406458Y-74023779D03*
%TD*%
D49*
%TO.C,D94*%
X120490245Y-81859983D03*
X120011417Y-83175552D03*
X125658555Y-83741094D03*
%TD*%
D33*
%TO.C,D26*%
X142996303Y-59642670D03*
X141867637Y-62743656D03*
%TD*%
D52*
%TO.C,D119*%
X253916159Y-109298495D03*
X254394987Y-110614064D03*
X259084469Y-107417384D03*
%TD*%
D28*
%TO.C,D38*%
X221344963Y-91589272D03*
X222473629Y-94690258D03*
%TD*%
D34*
%TO.C,C68*%
X221960612Y-84597034D03*
X222862716Y-84268694D03*
%TD*%
D44*
%TO.C,D120*%
X257130959Y-139182451D03*
X256652131Y-137866882D03*
X251962649Y-141063562D03*
%TD*%
D55*
%TO.C,C1*%
X177500012Y-96020008D03*
X177500012Y-96980008D03*
%TD*%
D21*
%TO.C,SW42*%
X246857802Y-67012448D03*
D22*
X242733520Y-63107541D03*
D23*
X242084163Y-68749911D03*
D22*
X237635203Y-67666188D03*
D21*
X237310525Y-70487373D03*
D27*
X234557709Y-68786303D03*
X245836384Y-61978189D03*
%TD*%
D97*
%TO.C,D115*%
X238512108Y-148045008D03*
X237709101Y-146898195D03*
X234006771Y-151199679D03*
%TD*%
D44*
%TO.C,D116*%
X240016840Y-55029533D03*
X239538012Y-53713964D03*
X234848530Y-56910644D03*
%TD*%
D98*
%TO.C,D110*%
X222941462Y-161397008D03*
X221869000Y-160497105D03*
X219406130Y-165610253D03*
%TD*%
D62*
%TO.C,C87*%
X299901800Y-45069517D03*
X298999696Y-45397857D03*
%TD*%
D33*
%TO.C,D5*%
X26071280Y-102399220D03*
X24942614Y-105500206D03*
%TD*%
D35*
%TO.C,C57*%
X121900512Y-126286601D03*
X122802616Y-126614941D03*
%TD*%
D21*
%TO.C,SW56*%
X297846454Y-40007188D03*
D22*
X293722172Y-36102281D03*
D23*
X293072815Y-41744651D03*
D22*
X288623855Y-40660928D03*
D21*
X288299177Y-43482113D03*
D27*
X285546361Y-41781043D03*
X296825036Y-34972929D03*
%TD*%
D49*
%TO.C,D74*%
X46442373Y-62510993D03*
X45963545Y-63826562D03*
X51610683Y-64392104D03*
%TD*%
D99*
%TO.C,C59*%
X157326944Y-179730519D03*
X156399656Y-179482053D03*
%TD*%
D100*
%TO.C,D30*%
X134323286Y-148120028D03*
X131795340Y-150241228D03*
%TD*%
D62*
%TO.C,C77*%
X261656231Y-51387559D03*
X260754127Y-51715899D03*
%TD*%
D74*
%TO.C,R7*%
X175675001Y-40340010D03*
X175675001Y-41360010D03*
%TD*%
D101*
%TO.C,D64*%
X167200002Y-27250004D03*
X167200002Y-30550004D03*
%TD*%
D28*
%TO.C,D51*%
X263646301Y-40715807D03*
X264774967Y-43816793D03*
%TD*%
D21*
%TO.C,SW36*%
X223798575Y-59356208D03*
D22*
X219674293Y-55451301D03*
D23*
X219024936Y-61093671D03*
D22*
X214575976Y-60009948D03*
D21*
X214251298Y-62831133D03*
D27*
X211498482Y-61130063D03*
X222777157Y-54321949D03*
%TD*%
D49*
%TO.C,D79*%
X65157950Y-66788823D03*
X64679122Y-68104392D03*
X70326260Y-68669934D03*
%TD*%
D21*
%TO.C,SW39*%
X243345035Y-113059635D03*
D22*
X239220753Y-109154728D03*
D23*
X238571396Y-114797098D03*
D22*
X234122436Y-113713375D03*
D21*
X233797758Y-116534560D03*
D27*
X231044942Y-114833490D03*
X242323617Y-108025376D03*
%TD*%
D21*
%TO.C,SW32*%
X213498831Y-86756351D03*
D22*
X209374549Y-82851444D03*
D23*
X208725192Y-88493814D03*
D22*
X204276232Y-87410091D03*
D21*
X203951554Y-90231276D03*
D27*
X201198738Y-88530206D03*
X212477413Y-81722092D03*
%TD*%
D33*
%TO.C,D12*%
X83863300Y-55013841D03*
X82734634Y-58114827D03*
%TD*%
D102*
%TO.C,C25*%
X180172388Y-149518831D03*
X181003772Y-149038831D03*
%TD*%
D28*
%TO.C,D45*%
X241971852Y-129695017D03*
X243100518Y-132796003D03*
%TD*%
%TO.C,D44*%
X244404197Y-99245502D03*
X245532863Y-102346488D03*
%TD*%
D33*
%TO.C,D15*%
X64316871Y-108717259D03*
X63188205Y-111818245D03*
%TD*%
%TO.C,D13*%
X77347822Y-72914970D03*
X76219156Y-76015956D03*
%TD*%
D44*
%TO.C,D121*%
X259275387Y-52243466D03*
X258796559Y-50927897D03*
X254107077Y-54124577D03*
%TD*%
D33*
%TO.C,D20*%
X92523236Y-124051693D03*
X91394570Y-127152679D03*
%TD*%
D70*
%TO.C,D66*%
X159999797Y-30649665D03*
X159999797Y-27349665D03*
%TD*%
D55*
%TO.C,C27*%
X155510005Y-124719999D03*
X155510005Y-125679999D03*
%TD*%
D46*
%TO.C,D88*%
X115151475Y-56910632D03*
X115630303Y-55595063D03*
X109983165Y-55029521D03*
%TD*%
D44*
%TO.C,D118*%
X253047825Y-90831833D03*
X252568997Y-89516264D03*
X247879515Y-92712944D03*
%TD*%
M02*
