M48
; DRILL file {KiCad (7.0.0)} date Wed Mar  8 00:54:44 2023
; FORMAT={-:-/ absolute / inch / decimal}
; #@! TF.CreationDate,2023-03-08T00:54:44+00:00
; #@! TF.GenerationSoftware,Kicad,Pcbnew,(7.0.0)
; #@! TF.FileFunction,NonPlated,1,2,NPTH
FMAT,2
INCH
; #@! TA.AperFunction,NonPlated,NPTH,ComponentDrill
T1C0.0256
; #@! TA.AperFunction,NonPlated,NPTH,ComponentDrill
T2C0.0689
; #@! TA.AperFunction,NonPlated,NPTH,ComponentDrill
T3C0.0787
; #@! TA.AperFunction,NonPlated,NPTH,ComponentDrill
T4C0.1181
; #@! TA.AperFunction,NonPlated,NPTH,ComponentDrill
T5C0.1570
%
G90
G05
T1
X6.5673Y-0.7539
X6.7949Y-0.7539
T2
X0.8186Y-4.2367
X1.0751Y-3.5319
X1.1944Y-4.3735
X1.3316Y-2.8271
X1.451Y-3.6687
X1.5554Y-4.4051
X1.5881Y-2.1224
X1.7075Y-2.964
X1.8119Y-3.7003
X1.8446Y-1.4176
X1.9313Y-4.5419
X1.964Y-2.2592
X2.0684Y-2.9956
X2.1878Y-3.8371
X2.2205Y-1.5544
X2.3243Y-4.4854
X2.3249Y-2.2908
X2.4443Y-3.1324
X2.5808Y-3.7807
X2.5815Y-1.586
X2.7002Y-4.6222
X2.7008Y-2.4276
X2.8373Y-3.0759
X2.9567Y-3.9175
X2.9573Y-1.7228
X3.0938Y-2.3711
X3.2132Y-3.2127
X3.339Y-3.8903
X3.3504Y-1.6663
X3.4348Y-5.0891
X3.4697Y-2.5079
X3.5955Y-3.1856
X3.7149Y-4.0272
X3.7262Y-1.8032
X3.8107Y-5.226
X3.8521Y-2.4808
X3.9714Y-3.3224
X3.9904Y-4.2937
X4.1086Y-1.776
X4.2279Y-2.6176
X4.2286Y-5.4427
X4.2469Y-3.5889
X4.3662Y-4.4305
X4.4844Y-1.9128
X4.5034Y-2.8841
X4.5562Y-5.6721
X4.6227Y-3.7257
X4.6524Y-4.6677
X4.7599Y-2.1794
X4.8793Y-3.021
X4.899Y-5.9885
X4.9089Y-3.9629
X5.0282Y-4.8045
X5.1358Y-2.3162
X5.1561Y-6.2949
X5.1654Y-3.2581
X5.2848Y-4.0997
X5.4219Y-2.5534
X5.5413Y-3.3949
X5.647Y-6.6053
X5.7978Y-2.6902
X6.0333Y-6.7088
X6.4811Y-6.7681
X6.8811Y-6.7681
X7.3289Y-6.7089
X7.5644Y-2.6902
X7.7152Y-6.6053
X7.8209Y-3.3949
X7.9403Y-2.5534
X8.0774Y-4.0997
X8.1968Y-3.2581
X8.2061Y-6.2949
X8.2264Y-2.3162
X8.334Y-4.8045
X8.4533Y-3.9629
X8.4632Y-5.9885
X8.4829Y-3.021
X8.6023Y-2.1794
X8.7098Y-4.6677
X8.7395Y-3.7257
X8.806Y-5.6721
X8.8588Y-2.8841
X8.8778Y-1.9128
X8.996Y-4.4305
X9.1153Y-3.5889
X9.1337Y-5.4427
X9.1343Y-2.6176
X9.2536Y-1.776
X9.3719Y-4.2937
X9.3908Y-3.3224
X9.5101Y-2.4808
X9.5515Y-5.226
X9.636Y-1.8032
X9.6473Y-4.0272
X9.7667Y-3.1856
X9.8925Y-2.5079
X9.9274Y-5.0891
X10.0118Y-1.6663
X10.0232Y-3.8903
X10.149Y-3.2127
X10.2684Y-2.3711
X10.4049Y-1.7228
X10.4055Y-3.9175
X10.5249Y-3.0759
X10.6614Y-2.4276
X10.662Y-4.6222
X10.7807Y-1.586
X10.7814Y-3.7807
X10.9179Y-3.1324
X11.0373Y-2.2908
X11.0379Y-4.4854
X11.1417Y-1.5544
X11.1744Y-3.8371
X11.2938Y-2.9956
X11.3982Y-2.2592
X11.4309Y-4.5419
X11.5176Y-1.4176
X11.5503Y-3.7003
X11.6547Y-2.964
X11.7741Y-2.1224
X11.8068Y-4.4051
X11.9112Y-3.6687
X12.0306Y-2.8271
X12.1678Y-4.3735
X12.2871Y-3.5319
X12.5436Y-4.2367
T3
X5.6772Y-4.9606
X7.685Y-4.9606
T4
X0.8998Y-4.1598
X1.1563Y-3.455
X1.1689Y-4.1514
X1.4128Y-2.7503
X1.4254Y-3.4466
X1.6366Y-4.3282
X1.6693Y-2.0455
X1.6819Y-2.7418
X1.8931Y-3.6235
X1.9057Y-4.3198
X1.9258Y-1.3407
X1.9384Y-2.037
X2.1496Y-2.9187
X2.1622Y-3.615
X2.1949Y-1.3323
X2.4055Y-4.4086
X2.4061Y-2.2139
X2.4187Y-2.9102
X2.662Y-3.7038
X2.6626Y-1.5092
X2.6746Y-4.4001
X2.6753Y-2.2055
X2.9185Y-2.999
X2.9311Y-3.6953
X2.9318Y-1.5007
X3.175Y-2.2942
X3.1876Y-2.9906
X3.4202Y-3.8135
X3.4315Y-1.5895
X3.4442Y-2.2858
X3.516Y-5.0123
X3.6767Y-3.1087
X3.6893Y-3.805
X3.7007Y-1.581
X3.7851Y-5.0038
X3.9332Y-2.4039
X3.9459Y-3.1002
X4.0715Y-4.2168
X4.1898Y-1.6992
X4.2024Y-2.3955
X4.3269Y-5.3894
X4.3281Y-3.512
X4.3407Y-4.2084
X4.4589Y-1.6907
X4.5846Y-2.8073
X4.589Y-5.4509
X4.5972Y-3.5036
X4.7336Y-4.5908
X4.8411Y-2.1025
X4.8537Y-2.7988
X4.9901Y-3.886
X5.0027Y-4.5823
X5.0077Y-5.9625
X5.1102Y-2.094
X5.245Y-6.0898
X5.2466Y-3.1813
X5.2592Y-3.8776
X5.5031Y-2.4765
X5.5157Y-3.1728
X5.7212Y-6.5217
X5.7722Y-2.468
X5.9885Y-6.4898
X6.5311Y-6.6681
X6.7811Y-6.5681
X7.3513Y-6.5993
X7.5669Y-6.438
X7.5772Y-2.5791
X7.7779Y-2.3996
X7.8337Y-3.2839
X8.0344Y-3.1044
X8.0902Y-3.9886
X8.1616Y-6.1924
X8.2392Y-2.2051
X8.2457Y-5.9366
X8.2909Y-3.8092
X8.3467Y-4.6934
X8.4399Y-2.0256
X8.4957Y-2.9099
X8.5475Y-4.5139
X8.6964Y-2.7304
X8.7522Y-3.6147
X8.7896Y-5.5615
X8.8905Y-1.8018
X8.937Y-5.3362
X8.953Y-3.4352
X9.0088Y-4.3194
X9.0913Y-1.6223
X9.1471Y-2.5065
X9.2095Y-4.1399
X9.3478Y-2.3271
X9.4036Y-3.2113
X9.5643Y-5.1149
X9.6043Y-3.0318
X9.6488Y-1.6921
X9.6601Y-3.9161
X9.765Y-4.9354
X9.8495Y-1.5126
X9.8608Y-3.7366
X9.9053Y-2.3969
X10.106Y-2.2174
X10.1618Y-3.1016
X10.3625Y-2.9221
X10.4176Y-1.6118
X10.4183Y-3.8064
X10.6184Y-1.4323
X10.619Y-3.6269
X10.6742Y-2.3165
X10.6748Y-4.5112
X10.8749Y-2.1371
X10.8755Y-4.3317
X10.9307Y-3.0213
X11.1314Y-2.8418
X11.1545Y-1.4433
X11.1872Y-3.7261
X11.3552Y-1.2639
X11.3879Y-3.5466
X11.411Y-2.1481
X11.4437Y-4.4308
X11.6117Y-1.9686
X11.6444Y-4.2514
X11.6675Y-2.8529
X11.8682Y-2.6734
X11.924Y-3.5577
X12.1247Y-3.3782
X12.1805Y-4.2624
X12.3813Y-4.0829
T5
X1.0065Y-4.3051
X1.263Y-3.6003
X1.5195Y-2.8955
X1.7433Y-4.4735
X1.7761Y-2.1908
X1.9999Y-3.7687
X2.0326Y-1.486
X2.2564Y-3.064
X2.5122Y-4.5538
X2.5129Y-2.3592
X2.7688Y-3.8491
X2.7694Y-1.6544
X3.0253Y-3.1443
X3.2818Y-2.4395
X3.527Y-3.9587
X3.5383Y-1.7348
X3.6227Y-5.1575
X3.7835Y-3.254
X4.04Y-2.5492
X4.1783Y-4.3621
X4.2965Y-1.8444
X4.3924Y-5.5574
X4.4348Y-3.6573
X4.6913Y-2.9526
X4.8403Y-4.7361
X4.9478Y-2.2478
X5.0276Y-6.1417
X5.0968Y-4.0313
X5.3533Y-3.3265
X5.6099Y-2.6218
X5.8402Y-6.6571
X6.6811Y-6.7681
X7.522Y-6.6571
X7.7524Y-2.6218
X8.0089Y-3.3265
X8.2654Y-4.0313
X8.3346Y-6.1417
X8.4144Y-2.2478
X8.5219Y-4.7361
X8.6709Y-2.9526
X8.9274Y-3.6573
X8.9698Y-5.5574
X9.0657Y-1.8444
X9.1839Y-4.3621
X9.3222Y-2.5492
X9.5787Y-3.254
X9.7395Y-5.1575
X9.8239Y-1.7348
X9.8352Y-3.9587
X10.0804Y-2.4395
X10.3369Y-3.1443
X10.5928Y-1.6544
X10.5935Y-3.8491
X10.8493Y-2.3592
X10.85Y-4.5538
X11.1058Y-3.064
X11.3296Y-1.486
X11.3624Y-3.7687
X11.5862Y-2.1908
X11.6189Y-4.4735
X11.8427Y-2.8955
X12.0992Y-3.6003
X12.3557Y-4.3051
T0
M30
