M48
; DRILL file {KiCad 7.0.1} date Sat Apr  8 16:00:55 2023
; FORMAT={-:-/ absolute / inch / decimal}
; #@! TF.CreationDate,2023-04-08T16:00:55+01:00
; #@! TF.GenerationSoftware,Kicad,Pcbnew,7.0.1
; #@! TF.FileFunction,NonPlated,1,2,NPTH
FMAT,2
INCH
; #@! TA.AperFunction,NonPlated,NPTH,ComponentDrill
T1C0.0256
; #@! TA.AperFunction,NonPlated,NPTH,ComponentDrill
T2C0.0295
; #@! TA.AperFunction,NonPlated,NPTH,ComponentDrill
T3C0.0354
; #@! TA.AperFunction,NonPlated,NPTH,ComponentDrill
T4C0.0454
; #@! TA.AperFunction,NonPlated,NPTH,ComponentDrill
T5C0.0689
; #@! TA.AperFunction,NonPlated,NPTH,ComponentDrill
T6C0.0787
; #@! TA.AperFunction,NonPlated,NPTH,ComponentDrill
T7C0.1181
; #@! TA.AperFunction,NonPlated,NPTH,ComponentDrill
T8C0.1570
%
G90
G05
T1
X7.0516Y-2.8445
X7.2791Y-2.8445
X8.1539Y-2.8445
X8.3815Y-2.8445
X9.2563Y-2.8445
X9.4839Y-2.8445
T2
X7.7165Y-2.6663
X7.7165Y-2.7746
T3
X8.7598Y-2.7193
X8.878Y-2.7193
T4
X2.9724Y-2.9134
X8.2677Y-7.874
X13.5669Y-2.9134
T5
X2.1144Y-6.1892
X2.3086Y-5.4648
X2.5008Y-6.2928
X2.5027Y-4.7404
X2.6949Y-5.5683
X2.6968Y-4.0159
X2.8632Y-6.2928
X2.889Y-4.8439
X2.8909Y-3.2915
X3.0573Y-5.5684
X3.0832Y-4.1194
X3.2495Y-6.3963
X3.2514Y-4.8439
X3.2773Y-3.395
X3.4436Y-5.6719
X3.4455Y-4.1195
X3.6361Y-6.3058
X3.6378Y-4.9474
X3.6396Y-3.395
X3.8302Y-5.5814
X3.8319Y-4.223
X4.0225Y-6.4093
X4.0244Y-4.8569
X4.026Y-3.4986
X4.2166Y-5.6849
X4.2185Y-4.1325
X4.4107Y-4.9604
X4.4126Y-3.408
X4.5951Y-5.6245
X4.6048Y-4.236
X4.7892Y-4.9001
X4.795Y-6.8104
X4.799Y-3.5116
X4.9815Y-5.7281
X4.9834Y-4.1757
X5.1756Y-5.0036
X5.1775Y-3.4512
X5.1814Y-6.914
X5.2791Y-5.9696
X5.3697Y-4.2792
X5.4732Y-5.2451
X5.5638Y-3.5547
X5.6166Y-7.0935
X5.6655Y-6.0731
X5.6674Y-4.5207
X5.8596Y-5.3487
X5.8615Y-3.7963
X5.963Y-7.2935
X5.9712Y-6.2844
X6.0537Y-4.6242
X6.1653Y-5.56
X6.2478Y-3.8998
X6.332Y-7.5788
X6.3576Y-6.388
X6.3594Y-4.8356
X6.5517Y-5.6635
X6.5536Y-4.1111
X6.6149Y-7.8616
X6.7458Y-4.9391
X6.9399Y-4.2146
X7.2336Y-8.1408
X7.62Y-8.2443
X8.0677Y-8.3035
X8.4677Y-8.3035
X8.9155Y-8.2443
X9.3018Y-8.1408
X9.5955Y-4.2146
X9.7896Y-4.9391
X9.9206Y-7.8616
X9.9819Y-4.1111
X9.9837Y-5.6635
X10.176Y-4.8356
X10.1778Y-6.388
X10.2034Y-7.5788
X10.2876Y-3.8998
X10.3701Y-5.56
X10.4817Y-4.6242
X10.5642Y-6.2844
X10.5725Y-7.2935
X10.674Y-3.7963
X10.6758Y-5.3487
X10.8681Y-4.5207
X10.8699Y-6.0731
X10.9189Y-7.0935
X10.9716Y-3.5547
X11.0622Y-5.2451
X11.1657Y-4.2792
X11.2563Y-5.9696
X11.3541Y-6.914
X11.358Y-3.4512
X11.3598Y-5.0036
X11.5521Y-4.1757
X11.5539Y-5.7281
X11.7365Y-3.5116
X11.7404Y-6.8104
X11.7462Y-4.9001
X11.9306Y-4.236
X11.9403Y-5.6245
X12.1229Y-3.408
X12.1247Y-4.9604
X12.317Y-4.1325
X12.3188Y-5.6849
X12.5095Y-3.4986
X12.5111Y-4.8569
X12.5129Y-6.4093
X12.7036Y-4.223
X12.7052Y-5.5814
X12.8958Y-3.395
X12.8977Y-4.9474
X12.8993Y-6.3058
X13.0899Y-4.1195
X13.0918Y-5.6719
X13.2582Y-3.395
X13.2841Y-4.8439
X13.2859Y-6.3963
X13.4523Y-4.1194
X13.4782Y-5.5684
X13.6445Y-3.2915
X13.6464Y-4.8439
X13.6723Y-6.2928
X13.8386Y-4.0159
X13.8405Y-5.5683
X14.0328Y-4.7404
X14.0346Y-6.2928
X14.2269Y-5.4648
X14.421Y-6.1892
T6
X7.2638Y-6.4961
X9.2717Y-6.4961
T7
X2.1886Y-6.1056
X2.3827Y-5.3811
X2.456Y-6.0737
X2.5768Y-4.6567
X2.6501Y-5.3493
X2.771Y-3.9323
X2.8442Y-4.6248
X2.9373Y-6.2092
X2.9651Y-3.2078
X3.0383Y-3.9004
X3.1314Y-5.4847
X3.2047Y-6.1773
X3.2324Y-3.1759
X3.3256Y-4.7603
X3.3988Y-5.4528
X3.5197Y-4.0358
X3.5929Y-4.7284
X3.7103Y-6.2222
X3.7138Y-3.3114
X3.787Y-4.0039
X3.9044Y-5.4977
X3.9777Y-6.1903
X3.9812Y-3.2795
X4.0985Y-4.7733
X4.1718Y-5.4658
X4.2926Y-4.0488
X4.3659Y-4.7414
X4.4868Y-3.3244
X4.56Y-4.0169
X4.6693Y-5.5409
X4.7541Y-3.2925
X4.8634Y-4.8165
X4.8692Y-6.7268
X4.9367Y-5.509
X5.0575Y-4.092
X5.1308Y-4.7846
X5.1365Y-6.6949
X5.2516Y-3.3676
X5.3249Y-4.0601
X5.3533Y-5.8859
X5.519Y-3.3357
X5.5474Y-5.1615
X5.6207Y-5.8541
X5.7099Y-7.0319
X5.7415Y-4.437
X5.8148Y-5.1296
X5.9356Y-3.7126
X5.9764Y-7.0703
X6.0089Y-4.4052
X6.0454Y-6.2008
X6.203Y-3.6807
X6.2395Y-5.4763
X6.3128Y-6.1689
X6.4336Y-4.7519
X6.4381Y-7.5434
X6.5069Y-5.4445
X6.6277Y-4.0275
X6.6856Y-7.6495
X6.701Y-4.72
X6.8951Y-3.9956
X7.3078Y-8.0571
X7.5751Y-8.0252
X8.1177Y-8.2035
X8.3677Y-8.1035
X8.9379Y-8.1348
X9.1535Y-7.9735
X9.6179Y-4.1051
X9.812Y-4.8296
X9.8335Y-3.9438
X9.8852Y-7.7556
X9.9913Y-7.5081
X10.0061Y-5.554
X10.0276Y-4.6683
X10.2003Y-6.2784
X10.2217Y-5.3927
X10.31Y-3.7903
X10.4159Y-6.1171
X10.5041Y-4.5147
X10.5256Y-3.629
X10.5658Y-7.1819
X10.6982Y-5.2391
X10.7197Y-4.3534
X10.7323Y-6.9703
X10.8924Y-5.9636
X10.9138Y-5.0778
X10.994Y-3.4452
X11.1079Y-5.8023
X11.1881Y-4.1697
X11.2096Y-3.2839
X11.3765Y-6.8044
X11.3822Y-4.8941
X11.4037Y-4.0084
X11.5764Y-5.6185
X11.5921Y-6.6431
X11.5978Y-4.7328
X11.7589Y-3.402
X11.792Y-5.4572
X11.953Y-4.1265
X11.9745Y-3.2407
X12.1471Y-4.8509
X12.1686Y-3.9652
X12.3412Y-5.5754
X12.3627Y-4.6896
X12.5319Y-3.389
X12.5354Y-6.2998
X12.5568Y-5.4141
X12.726Y-4.1135
X12.7475Y-3.2277
X12.751Y-6.1385
X12.9201Y-4.8379
X12.9416Y-3.9522
X13.1142Y-5.5624
X13.1357Y-4.6766
X13.2806Y-3.2855
X13.3083Y-6.2868
X13.3298Y-5.4011
X13.4747Y-4.0099
X13.4962Y-3.1242
X13.5239Y-6.1255
X13.6688Y-4.7343
X13.6903Y-3.8486
X13.8629Y-5.4588
X13.8844Y-4.5731
X14.057Y-6.1832
X14.0785Y-5.2975
X14.2726Y-6.0219
T8
X2.3076Y-6.241
X2.5017Y-5.5166
X2.6959Y-4.7921
X2.89Y-4.0677
X3.0563Y-6.3446
X3.0841Y-3.3432
X3.2505Y-5.6201
X3.4446Y-4.8957
X3.6387Y-4.1712
X3.8293Y-6.3576
X3.8328Y-3.4468
X4.0234Y-5.6331
X4.2175Y-4.9087
X4.4117Y-4.1842
X4.6058Y-3.4598
X4.7883Y-5.6763
X4.9824Y-4.9519
X4.9882Y-6.8622
X5.1765Y-4.2274
X5.3707Y-3.503
X5.4723Y-6.0214
X5.6664Y-5.2969
X5.7898Y-7.1935
X5.8605Y-4.5725
X6.0547Y-3.848
X6.1644Y-6.3362
X6.3585Y-5.6118
X6.4735Y-7.7202
X6.5526Y-4.8873
X6.7467Y-4.1629
X7.4268Y-8.1925
X8.2677Y-8.3035
X9.1087Y-8.1925
X9.7887Y-4.1629
X9.9828Y-4.8873
X10.062Y-7.7202
X10.1769Y-5.6118
X10.371Y-6.3362
X10.4808Y-3.848
X10.6749Y-4.5725
X10.7457Y-7.1935
X10.869Y-5.2969
X11.0631Y-6.0214
X11.1648Y-3.503
X11.3589Y-4.2274
X11.5472Y-6.8622
X11.553Y-4.9519
X11.7471Y-5.6763
X11.9297Y-3.4598
X12.1238Y-4.1842
X12.3179Y-4.9087
X12.512Y-5.6331
X12.7026Y-3.4468
X12.7061Y-6.3576
X12.8968Y-4.1712
X13.0909Y-4.8957
X13.285Y-5.6201
X13.4513Y-3.3432
X13.4791Y-6.3446
X13.6455Y-4.0677
X13.8396Y-4.7921
X14.0337Y-5.5166
X14.2278Y-6.241
T0
M30
