%TF.GenerationSoftware,KiCad,Pcbnew,7.0.6*%
%TF.CreationDate,2023-07-14T15:05:40+01:00*%
%TF.ProjectId,Honeydew,486f6e65-7964-4657-972e-6b696361645f,V2.1*%
%TF.SameCoordinates,Original*%
%TF.FileFunction,Paste,Bot*%
%TF.FilePolarity,Positive*%
%FSLAX46Y46*%
G04 Gerber Fmt 4.6, Leading zero omitted, Abs format (unit mm)*
G04 Created by KiCad (PCBNEW 7.0.6) date 2023-07-14 15:05:40*
%MOMM*%
%LPD*%
G01*
G04 APERTURE LIST*
G04 Aperture macros list*
%AMRoundRect*
0 Rectangle with rounded corners*
0 $1 Rounding radius*
0 $2 $3 $4 $5 $6 $7 $8 $9 X,Y pos of 4 corners*
0 Add a 4 corners polygon primitive as box body*
4,1,4,$2,$3,$4,$5,$6,$7,$8,$9,$2,$3,0*
0 Add four circle primitives for the rounded corners*
1,1,$1+$1,$2,$3*
1,1,$1+$1,$4,$5*
1,1,$1+$1,$6,$7*
1,1,$1+$1,$8,$9*
0 Add four rect primitives between the rounded corners*
20,1,$1+$1,$2,$3,$4,$5,0*
20,1,$1+$1,$4,$5,$6,$7,0*
20,1,$1+$1,$6,$7,$8,$9,0*
20,1,$1+$1,$8,$9,$2,$3,0*%
%AMRotRect*
0 Rectangle, with rotation*
0 The origin of the aperture is its center*
0 $1 length*
0 $2 width*
0 $3 Rotation angle, in degrees counterclockwise*
0 Add horizontal line*
21,1,$1,$2,0,0,$3*%
%AMFreePoly0*
4,1,51,0.532219,0.614745,0.539696,0.609939,0.548497,0.608674,0.568109,0.591679,0.589937,0.577652,0.593629,0.569566,0.600348,0.563745,0.607658,0.538848,0.618438,0.515244,0.617172,0.506443,0.619677,0.497915,0.619677,-0.497915,0.614745,-0.532219,0.609939,-0.539696,0.608674,-0.548497,0.591679,-0.568109,0.577652,-0.589937,0.569566,-0.593629,0.563745,-0.600348,0.538848,-0.607658,
0.515244,-0.618438,0.506443,-0.617172,0.497915,-0.619677,-0.497915,-0.619677,-0.532219,-0.614745,-0.539696,-0.609939,-0.548497,-0.608674,-0.568109,-0.591679,-0.589937,-0.577652,-0.593629,-0.569566,-0.600348,-0.563745,-0.607658,-0.538848,-0.618438,-0.515244,-0.617172,-0.506443,-0.619677,-0.497915,-0.619677,0.397045,-0.616582,0.418565,-0.616895,0.422927,-0.615620,0.425261,-0.614745,0.431349,
-0.598456,0.456693,-0.584014,0.483144,-0.483144,0.584014,-0.465738,0.597042,-0.462875,0.600348,-0.460322,0.601097,-0.455399,0.604783,-0.425958,0.611187,-0.397045,0.619677,0.497915,0.619677,0.532219,0.614745,0.532219,0.614745,$1*%
%AMFreePoly1*
4,1,51,0.532219,0.614745,0.539696,0.609939,0.548497,0.608674,0.568109,0.591679,0.589937,0.577652,0.593629,0.569566,0.600348,0.563745,0.607658,0.538848,0.618438,0.515244,0.617172,0.506443,0.619677,0.497915,0.619677,-0.497915,0.614745,-0.532219,0.609939,-0.539696,0.608674,-0.548497,0.591679,-0.568109,0.577652,-0.589937,0.569566,-0.593629,0.563745,-0.600348,0.538848,-0.607658,
0.515244,-0.618438,0.506443,-0.617172,0.497915,-0.619677,-0.397045,-0.619677,-0.418564,-0.616583,-0.422927,-0.616895,-0.425261,-0.615620,-0.431349,-0.614745,-0.456693,-0.598456,-0.483144,-0.584014,-0.584014,-0.483144,-0.597044,-0.465737,-0.600348,-0.462875,-0.601097,-0.460323,-0.604783,-0.455400,-0.611187,-0.425956,-0.619677,-0.397045,-0.619677,0.497915,-0.614745,0.532219,-0.609939,0.539696,
-0.608674,0.548497,-0.591679,0.568109,-0.577652,0.589937,-0.569566,0.593629,-0.563745,0.600348,-0.538848,0.607658,-0.515244,0.618438,-0.506443,0.617172,-0.497915,0.619677,0.497915,0.619677,0.532219,0.614745,0.532219,0.614745,$1*%
%AMFreePoly2*
4,1,51,0.418565,0.616582,0.422927,0.616895,0.425261,0.615620,0.431349,0.614745,0.456693,0.598456,0.483144,0.584014,0.584014,0.483144,0.597042,0.465738,0.600348,0.462875,0.601097,0.460322,0.604783,0.455399,0.611187,0.425958,0.619677,0.397045,0.619677,-0.497915,0.614745,-0.532219,0.609939,-0.539696,0.608674,-0.548497,0.591679,-0.568109,0.577652,-0.589937,0.569566,-0.593629,
0.563745,-0.600348,0.538848,-0.607658,0.515244,-0.618438,0.506443,-0.617172,0.497915,-0.619677,-0.497915,-0.619677,-0.532219,-0.614745,-0.539696,-0.609939,-0.548497,-0.608674,-0.568109,-0.591679,-0.589937,-0.577652,-0.593629,-0.569566,-0.600348,-0.563745,-0.607658,-0.538848,-0.618438,-0.515244,-0.617172,-0.506443,-0.619677,-0.497915,-0.619677,0.497915,-0.614745,0.532219,-0.609939,0.539696,
-0.608674,0.548497,-0.591679,0.568109,-0.577652,0.589937,-0.569566,0.593629,-0.563745,0.600348,-0.538848,0.607658,-0.515244,0.618438,-0.506443,0.617172,-0.497915,0.619677,0.397045,0.619677,0.418565,0.616582,0.418565,0.616582,$1*%
%AMFreePoly3*
4,1,51,0.532219,0.614745,0.539696,0.609939,0.548497,0.608674,0.568109,0.591679,0.589937,0.577652,0.593629,0.569566,0.600348,0.563745,0.607658,0.538848,0.618438,0.515244,0.617172,0.506443,0.619677,0.497915,0.619677,-0.397045,0.616583,-0.418564,0.616895,-0.422927,0.615620,-0.425261,0.614745,-0.431349,0.598456,-0.456693,0.584014,-0.483144,0.483144,-0.584014,0.465737,-0.597044,
0.462875,-0.600348,0.460323,-0.601097,0.455400,-0.604783,0.425956,-0.611187,0.397045,-0.619677,-0.497915,-0.619677,-0.532219,-0.614745,-0.539696,-0.609939,-0.548497,-0.608674,-0.568109,-0.591679,-0.589937,-0.577652,-0.593629,-0.569566,-0.600348,-0.563745,-0.607658,-0.538848,-0.618438,-0.515244,-0.617172,-0.506443,-0.619677,-0.497915,-0.619677,0.497915,-0.614745,0.532219,-0.609939,0.539696,
-0.608674,0.548497,-0.591679,0.568109,-0.577652,0.589937,-0.569566,0.593629,-0.563745,0.600348,-0.538848,0.607658,-0.515244,0.618438,-0.506443,0.617172,-0.497915,0.619677,0.497915,0.619677,0.532219,0.614745,0.532219,0.614745,$1*%
G04 Aperture macros list end*
%ADD10C,0.010000*%
%ADD11R,2.650000X2.600000*%
%ADD12R,2.550000X2.500000*%
%ADD13RotRect,2.650000X2.600000X330.000000*%
%ADD14RotRect,2.550000X2.500000X150.000000*%
%ADD15RotRect,2.650000X2.600000X315.000000*%
%ADD16RotRect,2.550000X2.500000X135.000000*%
%ADD17RotRect,2.650000X2.600000X345.000000*%
%ADD18RotRect,2.550000X2.500000X165.000000*%
%ADD19RotRect,2.650000X2.600000X15.000000*%
%ADD20RotRect,2.550000X2.500000X195.000000*%
%ADD21RoundRect,0.140000X-0.140000X-0.170000X0.140000X-0.170000X0.140000X0.170000X-0.140000X0.170000X0*%
%ADD22R,0.400000X0.800000*%
%ADD23RotRect,1.700000X1.000000X330.000000*%
%ADD24RoundRect,0.150000X-0.150000X0.512500X-0.150000X-0.512500X0.150000X-0.512500X0.150000X0.512500X0*%
%ADD25RoundRect,0.140000X0.170000X-0.140000X0.170000X0.140000X-0.170000X0.140000X-0.170000X-0.140000X0*%
%ADD26R,0.650000X0.750000*%
%ADD27R,0.300000X0.500000*%
%ADD28RotRect,1.700000X1.000000X195.000000*%
%ADD29RoundRect,0.140000X-0.091230X-0.200442X0.179229X-0.127973X0.091230X0.200442X-0.179229X0.127973X0*%
%ADD30RoundRect,0.150000X0.012244X-0.533860X0.277534X0.456214X-0.012244X0.533860X-0.277534X-0.456214X0*%
%ADD31RotRect,1.700000X1.000000X22.500000*%
%ADD32RoundRect,0.140000X-0.179229X-0.127973X0.091230X-0.200442X0.179229X0.127973X-0.091230X0.200442X0*%
%ADD33RoundRect,0.150000X0.277534X-0.456214X0.012244X0.533860X-0.277534X0.456214X-0.012244X-0.533860X0*%
%ADD34RoundRect,0.225000X0.250000X-0.225000X0.250000X0.225000X-0.250000X0.225000X-0.250000X-0.225000X0*%
%ADD35RoundRect,0.140000X0.091230X0.200442X-0.179229X0.127973X-0.091230X-0.200442X0.179229X-0.127973X0*%
%ADD36RoundRect,0.135000X0.135000X0.185000X-0.135000X0.185000X-0.135000X-0.185000X0.135000X-0.185000X0*%
%ADD37RoundRect,0.135000X-0.135000X-0.185000X0.135000X-0.185000X0.135000X0.185000X-0.135000X0.185000X0*%
%ADD38RotRect,1.700000X1.000000X345.000000*%
%ADD39RoundRect,0.140000X0.179229X0.127973X-0.091230X0.200442X-0.179229X-0.127973X0.091230X-0.200442X0*%
%ADD40RoundRect,0.135000X-0.185000X0.135000X-0.185000X-0.135000X0.185000X-0.135000X0.185000X0.135000X0*%
%ADD41RotRect,2.650000X2.600000X30.000000*%
%ADD42RotRect,2.550000X2.500000X210.000000*%
%ADD43RotRect,1.700000X1.000000X15.000000*%
%ADD44RoundRect,0.140000X0.206244X0.077224X-0.036244X0.217224X-0.206244X-0.077224X0.036244X-0.217224X0*%
%ADD45RotRect,1.700000X1.000000X337.500000*%
%ADD46RoundRect,0.150000X-0.192987X-0.497908X0.430993X0.315279X0.192987X0.497908X-0.430993X-0.315279X0*%
%ADD47RoundRect,0.140000X-0.170000X0.140000X-0.170000X-0.140000X0.170000X-0.140000X0.170000X0.140000X0*%
%ADD48RoundRect,0.140000X0.140000X0.170000X-0.140000X0.170000X-0.140000X-0.170000X0.140000X-0.170000X0*%
%ADD49RoundRect,0.225000X-0.225000X-0.250000X0.225000X-0.250000X0.225000X0.250000X-0.225000X0.250000X0*%
%ADD50RoundRect,0.112500X-0.112500X0.187500X-0.112500X-0.187500X0.112500X-0.187500X0.112500X0.187500X0*%
%ADD51RoundRect,0.135000X0.185000X-0.135000X0.185000X0.135000X-0.185000X0.135000X-0.185000X-0.135000X0*%
%ADD52RoundRect,0.140000X0.036244X0.217224X-0.206244X0.077224X-0.036244X-0.217224X0.206244X-0.077224X0*%
%ADD53RotRect,1.700000X1.000000X30.000000*%
%ADD54RoundRect,0.225000X-0.250000X0.225000X-0.250000X-0.225000X0.250000X-0.225000X0.250000X0.225000X0*%
%ADD55RoundRect,0.140000X-0.021213X0.219203X-0.219203X0.021213X0.021213X-0.219203X0.219203X-0.021213X0*%
%ADD56RoundRect,0.250000X0.250000X0.475000X-0.250000X0.475000X-0.250000X-0.475000X0.250000X-0.475000X0*%
%ADD57RotRect,1.700000X1.000000X165.000000*%
%ADD58RoundRect,0.150000X-0.512500X-0.150000X0.512500X-0.150000X0.512500X0.150000X-0.512500X0.150000X0*%
%ADD59RoundRect,0.150000X0.150000X-0.512500X0.150000X0.512500X-0.150000X0.512500X-0.150000X-0.512500X0*%
%ADD60RotRect,1.700000X1.000000X247.500000*%
%ADD61R,0.650000X0.400000*%
%ADD62R,1.700000X1.000000*%
%ADD63R,0.900000X0.300000*%
%ADD64R,0.250000X1.650000*%
%ADD65RoundRect,0.050000X-0.050000X0.375000X-0.050000X-0.375000X0.050000X-0.375000X0.050000X0.375000X0*%
%ADD66RoundRect,0.050000X-0.275000X0.050000X-0.275000X-0.050000X0.275000X-0.050000X0.275000X0.050000X0*%
%ADD67RotRect,1.700000X1.000000X202.500000*%
%ADD68RoundRect,0.250000X-0.275000X-0.700000X0.275000X-0.700000X0.275000X0.700000X-0.275000X0.700000X0*%
%ADD69RotRect,1.700000X1.000000X315.000000*%
%ADD70RoundRect,0.140000X0.064287X0.210635X-0.194399X0.103484X-0.064287X-0.210635X0.194399X-0.103484X0*%
%ADD71RoundRect,0.150000X-0.825000X-0.150000X0.825000X-0.150000X0.825000X0.150000X-0.825000X0.150000X0*%
%ADD72RoundRect,0.140000X-0.210635X0.064287X-0.103484X-0.194399X0.210635X-0.064287X0.103484X0.194399X0*%
%ADD73RoundRect,0.112500X0.187500X0.112500X-0.187500X0.112500X-0.187500X-0.112500X0.187500X-0.112500X0*%
%ADD74RoundRect,0.140000X0.103484X-0.194399X0.210635X0.064287X-0.103484X0.194399X-0.210635X-0.064287X0*%
%ADD75RoundRect,0.140000X-0.194399X-0.103484X0.064287X-0.210635X0.194399X0.103484X-0.064287X0.210635X0*%
%ADD76R,2.700000X0.800000*%
%ADD77RoundRect,0.140000X0.194399X0.103484X-0.064287X0.210635X-0.194399X-0.103484X0.064287X-0.210635X0*%
%ADD78RoundRect,0.150000X-0.150000X0.587500X-0.150000X-0.587500X0.150000X-0.587500X0.150000X0.587500X0*%
%ADD79RotRect,1.700000X1.000000X45.000000*%
%ADD80RoundRect,0.200000X0.275000X-0.200000X0.275000X0.200000X-0.275000X0.200000X-0.275000X-0.200000X0*%
%ADD81RoundRect,0.140000X0.219203X0.021213X0.021213X0.219203X-0.219203X-0.021213X-0.021213X-0.219203X0*%
%ADD82RotRect,1.700000X1.000000X67.500000*%
%ADD83RoundRect,0.140000X0.210635X-0.064287X0.103484X0.194399X-0.210635X0.064287X-0.103484X-0.194399X0*%
%ADD84R,1.200000X1.400000*%
%ADD85RoundRect,0.150000X0.825000X0.150000X-0.825000X0.150000X-0.825000X-0.150000X0.825000X-0.150000X0*%
%ADD86RoundRect,0.140000X-0.064287X-0.210635X0.194399X-0.103484X0.064287X0.210635X-0.194399X0.103484X0*%
%ADD87RoundRect,0.140000X-0.103484X0.194399X-0.210635X-0.064287X0.103484X-0.194399X0.210635X0.064287X0*%
%ADD88RotRect,1.700000X1.000000X292.500000*%
%ADD89RotRect,1.700000X1.000000X112.500000*%
%ADD90RotRect,2.650000X2.600000X45.000000*%
%ADD91RotRect,2.550000X2.500000X225.000000*%
%ADD92RoundRect,0.250000X-0.262500X-0.450000X0.262500X-0.450000X0.262500X0.450000X-0.262500X0.450000X0*%
%ADD93FreePoly0,180.000000*%
%ADD94FreePoly1,180.000000*%
%ADD95FreePoly2,180.000000*%
%ADD96FreePoly3,180.000000*%
%ADD97RoundRect,0.050000X0.387500X0.050000X-0.387500X0.050000X-0.387500X-0.050000X0.387500X-0.050000X0*%
%ADD98RoundRect,0.050000X0.050000X0.387500X-0.050000X0.387500X-0.050000X-0.387500X0.050000X-0.387500X0*%
%ADD99RoundRect,0.150000X0.512500X0.150000X-0.512500X0.150000X-0.512500X-0.150000X0.512500X-0.150000X0*%
%ADD100R,0.400000X0.650000*%
%ADD101RoundRect,0.150000X0.430993X-0.315279X-0.192987X0.497908X-0.430993X0.315279X0.192987X-0.497908X0*%
%ADD102RoundRect,0.112500X0.112500X-0.187500X0.112500X0.187500X-0.112500X0.187500X-0.112500X-0.187500X0*%
%ADD103RotRect,1.700000X1.000000X157.500000*%
G04 APERTURE END LIST*
%TO.C,J3*%
D10*
X200874984Y-128850033D02*
X200624984Y-128850033D01*
X200624984Y-128200033D01*
X200874984Y-128200033D01*
X200874984Y-128850033D01*
G36*
X200874984Y-128850033D02*
G01*
X200624984Y-128850033D01*
X200624984Y-128200033D01*
X200874984Y-128200033D01*
X200874984Y-128850033D01*
G37*
X200374984Y-128850033D02*
X200124984Y-128850033D01*
X200124984Y-128200033D01*
X200374984Y-128200033D01*
X200374984Y-128850033D01*
G36*
X200374984Y-128850033D02*
G01*
X200124984Y-128850033D01*
X200124984Y-128200033D01*
X200374984Y-128200033D01*
X200374984Y-128850033D01*
G37*
X199874984Y-128850033D02*
X199624984Y-128850033D01*
X199624984Y-128200033D01*
X199874984Y-128200033D01*
X199874984Y-128850033D01*
G36*
X199874984Y-128850033D02*
G01*
X199624984Y-128850033D01*
X199624984Y-128200033D01*
X199874984Y-128200033D01*
X199874984Y-128850033D01*
G37*
X199374984Y-128850033D02*
X199124984Y-128850033D01*
X199124984Y-128200033D01*
X199374984Y-128200033D01*
X199374984Y-128850033D01*
G36*
X199374984Y-128850033D02*
G01*
X199124984Y-128850033D01*
X199124984Y-128200033D01*
X199374984Y-128200033D01*
X199374984Y-128850033D01*
G37*
X198874984Y-128850033D02*
X198624984Y-128850033D01*
X198624984Y-128200033D01*
X198874984Y-128200033D01*
X198874984Y-128850033D01*
G36*
X198874984Y-128850033D02*
G01*
X198624984Y-128850033D01*
X198624984Y-128200033D01*
X198874984Y-128200033D01*
X198874984Y-128850033D01*
G37*
X198374984Y-128850033D02*
X198124984Y-128850033D01*
X198124984Y-128200033D01*
X198374984Y-128200033D01*
X198374984Y-128850033D01*
G36*
X198374984Y-128850033D02*
G01*
X198124984Y-128850033D01*
X198124984Y-128200033D01*
X198374984Y-128200033D01*
X198374984Y-128850033D01*
G37*
X197874984Y-128850033D02*
X197624984Y-128850033D01*
X197624984Y-128200033D01*
X197874984Y-128200033D01*
X197874984Y-128850033D01*
G36*
X197874984Y-128850033D02*
G01*
X197624984Y-128850033D01*
X197624984Y-128200033D01*
X197874984Y-128200033D01*
X197874984Y-128850033D01*
G37*
X197374984Y-128850033D02*
X197124984Y-128850033D01*
X197124984Y-128200033D01*
X197374984Y-128200033D01*
X197374984Y-128850033D01*
G36*
X197374984Y-128850033D02*
G01*
X197124984Y-128850033D01*
X197124984Y-128200033D01*
X197374984Y-128200033D01*
X197374984Y-128850033D01*
G37*
X196874984Y-128850033D02*
X196624984Y-128850033D01*
X196624984Y-128200033D01*
X196874984Y-128200033D01*
X196874984Y-128850033D01*
G36*
X196874984Y-128850033D02*
G01*
X196624984Y-128850033D01*
X196624984Y-128200033D01*
X196874984Y-128200033D01*
X196874984Y-128850033D01*
G37*
X196374984Y-128850033D02*
X196124984Y-128850033D01*
X196124984Y-128200033D01*
X196374984Y-128200033D01*
X196374984Y-128850033D01*
G36*
X196374984Y-128850033D02*
G01*
X196124984Y-128850033D01*
X196124984Y-128200033D01*
X196374984Y-128200033D01*
X196374984Y-128850033D01*
G37*
X195874984Y-128850033D02*
X195624984Y-128850033D01*
X195624984Y-128200033D01*
X195874984Y-128200033D01*
X195874984Y-128850033D01*
G36*
X195874984Y-128850033D02*
G01*
X195624984Y-128850033D01*
X195624984Y-128200033D01*
X195874984Y-128200033D01*
X195874984Y-128850033D01*
G37*
X195374984Y-128850033D02*
X195124984Y-128850033D01*
X195124984Y-128200033D01*
X195374984Y-128200033D01*
X195374984Y-128850033D01*
G36*
X195374984Y-128850033D02*
G01*
X195124984Y-128850033D01*
X195124984Y-128200033D01*
X195374984Y-128200033D01*
X195374984Y-128850033D01*
G37*
%TO.C,D61*%
G36*
X171918156Y-182302328D02*
G01*
X171418156Y-183168353D01*
X169945913Y-182318353D01*
X170270913Y-181755436D01*
X170749021Y-181627328D01*
X171918156Y-182302328D01*
G37*
%TO.C,J2*%
X201474990Y-69800032D02*
X201224990Y-69800032D01*
X201224990Y-69150032D01*
X201474990Y-69150032D01*
X201474990Y-69800032D01*
G36*
X201474990Y-69800032D02*
G01*
X201224990Y-69800032D01*
X201224990Y-69150032D01*
X201474990Y-69150032D01*
X201474990Y-69800032D01*
G37*
X201974990Y-69800032D02*
X201724990Y-69800032D01*
X201724990Y-69150032D01*
X201974990Y-69150032D01*
X201974990Y-69800032D01*
G36*
X201974990Y-69800032D02*
G01*
X201724990Y-69800032D01*
X201724990Y-69150032D01*
X201974990Y-69150032D01*
X201974990Y-69800032D01*
G37*
X202474990Y-69800032D02*
X202224990Y-69800032D01*
X202224990Y-69150032D01*
X202474990Y-69150032D01*
X202474990Y-69800032D01*
G36*
X202474990Y-69800032D02*
G01*
X202224990Y-69800032D01*
X202224990Y-69150032D01*
X202474990Y-69150032D01*
X202474990Y-69800032D01*
G37*
X202974990Y-69800032D02*
X202724990Y-69800032D01*
X202724990Y-69150032D01*
X202974990Y-69150032D01*
X202974990Y-69800032D01*
G36*
X202974990Y-69800032D02*
G01*
X202724990Y-69800032D01*
X202724990Y-69150032D01*
X202974990Y-69150032D01*
X202974990Y-69800032D01*
G37*
X203474990Y-69800032D02*
X203224990Y-69800032D01*
X203224990Y-69150032D01*
X203474990Y-69150032D01*
X203474990Y-69800032D01*
G36*
X203474990Y-69800032D02*
G01*
X203224990Y-69800032D01*
X203224990Y-69150032D01*
X203474990Y-69150032D01*
X203474990Y-69800032D01*
G37*
X203974990Y-69800032D02*
X203724990Y-69800032D01*
X203724990Y-69150032D01*
X203974990Y-69150032D01*
X203974990Y-69800032D01*
G36*
X203974990Y-69800032D02*
G01*
X203724990Y-69800032D01*
X203724990Y-69150032D01*
X203974990Y-69150032D01*
X203974990Y-69800032D01*
G37*
X204474990Y-69800032D02*
X204224990Y-69800032D01*
X204224990Y-69150032D01*
X204474990Y-69150032D01*
X204474990Y-69800032D01*
G36*
X204474990Y-69800032D02*
G01*
X204224990Y-69800032D01*
X204224990Y-69150032D01*
X204474990Y-69150032D01*
X204474990Y-69800032D01*
G37*
X204974990Y-69800032D02*
X204724990Y-69800032D01*
X204724990Y-69150032D01*
X204974990Y-69150032D01*
X204974990Y-69800032D01*
G36*
X204974990Y-69800032D02*
G01*
X204724990Y-69800032D01*
X204724990Y-69150032D01*
X204974990Y-69150032D01*
X204974990Y-69800032D01*
G37*
X205474990Y-69800032D02*
X205224990Y-69800032D01*
X205224990Y-69150032D01*
X205474990Y-69150032D01*
X205474990Y-69800032D01*
G36*
X205474990Y-69800032D02*
G01*
X205224990Y-69800032D01*
X205224990Y-69150032D01*
X205474990Y-69150032D01*
X205474990Y-69800032D01*
G37*
X205974990Y-69800032D02*
X205724990Y-69800032D01*
X205724990Y-69150032D01*
X205974990Y-69150032D01*
X205974990Y-69800032D01*
G36*
X205974990Y-69800032D02*
G01*
X205724990Y-69800032D01*
X205724990Y-69150032D01*
X205974990Y-69150032D01*
X205974990Y-69800032D01*
G37*
X206474990Y-69800032D02*
X206224990Y-69800032D01*
X206224990Y-69150032D01*
X206474990Y-69150032D01*
X206474990Y-69800032D01*
G36*
X206474990Y-69800032D02*
G01*
X206224990Y-69800032D01*
X206224990Y-69150032D01*
X206474990Y-69150032D01*
X206474990Y-69800032D01*
G37*
X206974990Y-69800032D02*
X206724990Y-69800032D01*
X206724990Y-69150032D01*
X206974990Y-69150032D01*
X206974990Y-69800032D01*
G36*
X206974990Y-69800032D02*
G01*
X206724990Y-69800032D01*
X206724990Y-69150032D01*
X206974990Y-69150032D01*
X206974990Y-69800032D01*
G37*
X207474990Y-69800032D02*
X207224990Y-69800032D01*
X207224990Y-69150032D01*
X207474990Y-69150032D01*
X207474990Y-69800032D01*
G36*
X207474990Y-69800032D02*
G01*
X207224990Y-69800032D01*
X207224990Y-69150032D01*
X207474990Y-69150032D01*
X207474990Y-69800032D01*
G37*
X207974990Y-69800032D02*
X207724990Y-69800032D01*
X207724990Y-69150032D01*
X207974990Y-69150032D01*
X207974990Y-69800032D01*
G36*
X207974990Y-69800032D02*
G01*
X207724990Y-69800032D01*
X207724990Y-69150032D01*
X207974990Y-69150032D01*
X207974990Y-69800032D01*
G37*
X208474990Y-69800032D02*
X208224990Y-69800032D01*
X208224990Y-69150032D01*
X208474990Y-69150032D01*
X208474990Y-69800032D01*
G36*
X208474990Y-69800032D02*
G01*
X208224990Y-69800032D01*
X208224990Y-69150032D01*
X208474990Y-69150032D01*
X208474990Y-69800032D01*
G37*
X208974990Y-69800032D02*
X208724990Y-69800032D01*
X208724990Y-69150032D01*
X208974990Y-69150032D01*
X208974990Y-69800032D01*
G36*
X208974990Y-69800032D02*
G01*
X208724990Y-69800032D01*
X208724990Y-69150032D01*
X208974990Y-69150032D01*
X208974990Y-69800032D01*
G37*
X209474990Y-69800032D02*
X209224990Y-69800032D01*
X209224990Y-69150032D01*
X209474990Y-69150032D01*
X209474990Y-69800032D01*
G36*
X209474990Y-69800032D02*
G01*
X209224990Y-69800032D01*
X209224990Y-69150032D01*
X209474990Y-69150032D01*
X209474990Y-69800032D01*
G37*
X209974990Y-69800032D02*
X209724990Y-69800032D01*
X209724990Y-69150032D01*
X209974990Y-69150032D01*
X209974990Y-69800032D01*
G36*
X209974990Y-69800032D02*
G01*
X209724990Y-69800032D01*
X209724990Y-69150032D01*
X209974990Y-69150032D01*
X209974990Y-69800032D01*
G37*
X210474990Y-69800032D02*
X210224990Y-69800032D01*
X210224990Y-69150032D01*
X210474990Y-69150032D01*
X210474990Y-69800032D01*
G36*
X210474990Y-69800032D02*
G01*
X210224990Y-69800032D01*
X210224990Y-69150032D01*
X210474990Y-69150032D01*
X210474990Y-69800032D01*
G37*
X210974990Y-69800032D02*
X210724990Y-69800032D01*
X210724990Y-69150032D01*
X210974990Y-69150032D01*
X210974990Y-69800032D01*
G36*
X210974990Y-69800032D02*
G01*
X210724990Y-69800032D01*
X210724990Y-69150032D01*
X210974990Y-69150032D01*
X210974990Y-69800032D01*
G37*
%TO.C,D54*%
G36*
X256415549Y-156215872D02*
G01*
X256168062Y-156644533D01*
X254864062Y-156993939D01*
X254605243Y-156028013D01*
X256247317Y-155588021D01*
X256415549Y-156215872D01*
G37*
%TO.C,D65*%
G36*
X188935373Y-126081029D02*
G01*
X187364778Y-126731590D01*
X187116034Y-126131069D01*
X187305452Y-125673772D01*
X188552690Y-125157149D01*
X188935373Y-126081029D01*
G37*
%TO.C,D27*%
G36*
X82445700Y-155218262D02*
G01*
X82186881Y-156184188D01*
X80544807Y-155744195D01*
X80713039Y-155116343D01*
X81141700Y-154868856D01*
X82445700Y-155218262D01*
G37*
%TO.C,D32*%
G36*
X310054115Y-83233899D02*
G01*
X308412041Y-83673891D01*
X308243809Y-83046040D01*
X308491296Y-82617379D01*
X309795296Y-82267973D01*
X310054115Y-83233899D01*
G37*
%TO.C,D72*%
G36*
X203936565Y-123702950D02*
G01*
X203553882Y-124626830D01*
X201983286Y-123976268D01*
X202232031Y-123375746D01*
X202689328Y-123186327D01*
X203936565Y-123702950D01*
G37*
%TO.C,D3*%
G36*
X102167714Y-81614743D02*
G01*
X101908895Y-82580669D01*
X100266821Y-82140676D01*
X100435053Y-81512824D01*
X100863714Y-81265337D01*
X102167714Y-81614743D01*
G37*
%TO.C,D53*%
G36*
X273994683Y-148218564D02*
G01*
X273747196Y-148647225D01*
X272443196Y-148996631D01*
X272184377Y-148030705D01*
X273826451Y-147590713D01*
X273994683Y-148218564D01*
G37*
%TO.C,D2*%
G36*
X82534206Y-81284445D02*
G01*
X82275387Y-82250371D01*
X80633313Y-81810378D01*
X80801545Y-81182526D01*
X81230206Y-80935039D01*
X82534206Y-81284445D01*
G37*
%TO.C,D18*%
G36*
X146687615Y-136274829D02*
G01*
X146428796Y-137240755D01*
X144786722Y-136800762D01*
X144954954Y-136172910D01*
X145383615Y-135925423D01*
X146687615Y-136274829D01*
G37*
%TO.C,D50*%
G36*
X330429978Y-138027268D02*
G01*
X330182491Y-138455929D01*
X328878491Y-138805335D01*
X328619672Y-137839409D01*
X330261746Y-137399417D01*
X330429978Y-138027268D01*
G37*
%TO.C,D28*%
G36*
X111881203Y-168035999D02*
G01*
X111622384Y-169001925D01*
X109980310Y-168561932D01*
X110148542Y-167934080D01*
X110577203Y-167686593D01*
X111881203Y-168035999D01*
G37*
%TO.C,D55*%
G36*
X348793311Y-154207044D02*
G01*
X347151237Y-154647036D01*
X346983005Y-154019185D01*
X347230492Y-153590524D01*
X348534492Y-153241118D01*
X348793311Y-154207044D01*
G37*
%TO.C,D31*%
G36*
X329071308Y-80603494D02*
G01*
X327429234Y-81043486D01*
X327261002Y-80415635D01*
X327508489Y-79986974D01*
X328812489Y-79637568D01*
X329071308Y-80603494D01*
G37*
%TO.C,D45*%
G36*
X300281599Y-120365947D02*
G01*
X298639525Y-120805939D01*
X298471293Y-120178088D01*
X298718780Y-119749427D01*
X300022780Y-119400021D01*
X300281599Y-120365947D01*
G37*
%TO.C,D43*%
G36*
X338932311Y-117405261D02*
G01*
X337290237Y-117845253D01*
X337122005Y-117217402D01*
X337369492Y-116788741D01*
X338673492Y-116439335D01*
X338932311Y-117405261D01*
G37*
%TO.C,D51*%
G36*
X310796460Y-138357566D02*
G01*
X310548973Y-138786227D01*
X309244973Y-139135633D01*
X308986154Y-138169707D01*
X310628228Y-137729715D01*
X310796460Y-138357566D01*
G37*
%TO.C,D63*%
G36*
X221290937Y-185068347D02*
G01*
X219818694Y-185918347D01*
X219493694Y-185355430D01*
X219621802Y-184877322D01*
X220790937Y-184202322D01*
X221290937Y-185068347D01*
G37*
%TO.C,D13*%
G36*
X53655988Y-115455830D02*
G01*
X53397169Y-116421756D01*
X51755095Y-115981763D01*
X51923327Y-115353911D01*
X52351988Y-115106424D01*
X53655988Y-115455830D01*
G37*
%TO.C,D52*%
G36*
X291368387Y-139454511D02*
G01*
X291120900Y-139883172D01*
X289816900Y-140232578D01*
X289558081Y-139266652D01*
X291200155Y-138826660D01*
X291368387Y-139454511D01*
G37*
%TO.C,D38*%
G36*
X320568973Y-101225487D02*
G01*
X320321486Y-101654148D01*
X319017486Y-102003554D01*
X318758667Y-101037628D01*
X320400741Y-100597636D01*
X320568973Y-101225487D01*
G37*
%TO.C,D23*%
G36*
X129128237Y-149454185D02*
G01*
X128960005Y-150082037D01*
X128531344Y-150329524D01*
X127227344Y-149980118D01*
X127486163Y-149014192D01*
X129128237Y-149454185D01*
G37*
%TO.C,D56*%
G36*
X329776128Y-156837445D02*
G01*
X328134054Y-157277437D01*
X327965822Y-156649586D01*
X328213309Y-156220925D01*
X329517309Y-155871519D01*
X329776128Y-156837445D01*
G37*
%TO.C,D70*%
G36*
X217624279Y-147232061D02*
G01*
X217813698Y-147689358D01*
X217297075Y-148936595D01*
X216373195Y-148553912D01*
X217023757Y-146983316D01*
X217624279Y-147232061D01*
G37*
%TO.C,D64*%
G36*
X196099987Y-209850023D02*
G01*
X194399987Y-209850023D01*
X194399987Y-209200023D01*
X194749987Y-208850023D01*
X196099987Y-208850023D01*
X196099987Y-209850023D01*
G37*
%TO.C,D34*%
G36*
X270992520Y-84661154D02*
G01*
X269350446Y-85101146D01*
X269182214Y-84473295D01*
X269429701Y-84044634D01*
X270733701Y-83695228D01*
X270992520Y-84661154D01*
G37*
%TO.C,D62*%
G36*
X196100001Y-190800034D02*
G01*
X194400001Y-190800034D01*
X194400001Y-190150034D01*
X194750001Y-189800034D01*
X196100001Y-189800034D01*
X196100001Y-190800034D01*
G37*
%TO.C,D10*%
G36*
X121615534Y-103888408D02*
G01*
X121447302Y-104516260D01*
X121018641Y-104763747D01*
X119714641Y-104414341D01*
X119973460Y-103448415D01*
X121615534Y-103888408D01*
G37*
%TO.C,D69*%
G36*
X208883963Y-159868985D02*
G01*
X208694545Y-160326282D01*
X207447307Y-160842905D01*
X207064624Y-159919025D01*
X208635219Y-159268464D01*
X208883963Y-159868985D01*
G37*
%TO.C,D57*%
G36*
X310142607Y-157167719D02*
G01*
X308500533Y-157607711D01*
X308332301Y-156979860D01*
X308579788Y-156551199D01*
X309883788Y-156201793D01*
X310142607Y-157167719D01*
G37*
%TO.C,D30*%
G36*
X147372840Y-187391430D02*
G01*
X146665733Y-188098537D01*
X145463652Y-186896455D01*
X145923271Y-186436836D01*
X146418246Y-186436836D01*
X147372840Y-187391430D01*
G37*
%TO.C,D42*%
G36*
X246554540Y-119414106D02*
G01*
X246307053Y-119842767D01*
X245003053Y-120192173D01*
X244744234Y-119226247D01*
X246386308Y-118786255D01*
X246554540Y-119414106D01*
G37*
%TO.C,D12*%
G36*
X156568365Y-120649747D02*
G01*
X156400133Y-121277599D01*
X155971472Y-121525086D01*
X154667472Y-121175680D01*
X154926291Y-120209754D01*
X156568365Y-120649747D01*
G37*
%TO.C,D44*%
G36*
X319915119Y-120035653D02*
G01*
X318273045Y-120475645D01*
X318104813Y-119847794D01*
X318352300Y-119419133D01*
X319656300Y-119069727D01*
X319915119Y-120035653D01*
G37*
%TO.C,D5*%
G36*
X138969497Y-91475725D02*
G01*
X138710678Y-92441651D01*
X137068604Y-92001658D01*
X137236836Y-91373806D01*
X137665497Y-91126319D01*
X138969497Y-91475725D01*
G37*
%TO.C,D60*%
G36*
X246647267Y-190785548D02*
G01*
X245445185Y-191987629D01*
X244985566Y-191528010D01*
X244985566Y-191033035D01*
X245940160Y-190078441D01*
X246647267Y-190785548D01*
G37*
%TO.C,D20*%
G36*
X72692925Y-139262911D02*
G01*
X72524693Y-139890763D01*
X72096032Y-140138250D01*
X70792032Y-139788844D01*
X71050851Y-138822918D01*
X72692925Y-139262911D01*
G37*
%TO.C,D11*%
G36*
X138989227Y-112652403D02*
G01*
X138820995Y-113280255D01*
X138392334Y-113527742D01*
X137088334Y-113178336D01*
X137347153Y-112212410D01*
X138989227Y-112652403D01*
G37*
%TO.C,D29*%
G36*
X130901122Y-175377447D02*
G01*
X130401122Y-176243472D01*
X128928879Y-175393472D01*
X129253879Y-174830555D01*
X129731987Y-174702447D01*
X130901122Y-175377447D01*
G37*
%TO.C,D66*%
G36*
X179626800Y-137446146D02*
G01*
X178976238Y-139016742D01*
X178375716Y-138767997D01*
X178186297Y-138310700D01*
X178702920Y-137063463D01*
X179626800Y-137446146D01*
G37*
%TO.C,D33*%
G36*
X290420592Y-83564193D02*
G01*
X288778518Y-84004185D01*
X288610286Y-83376334D01*
X288857773Y-82947673D01*
X290161773Y-82598267D01*
X290420592Y-83564193D01*
G37*
%TO.C,D14*%
G36*
X72673198Y-118086202D02*
G01*
X72414379Y-119052128D01*
X70772305Y-118612135D01*
X70940537Y-117984283D01*
X71369198Y-117736796D01*
X72673198Y-118086202D01*
G37*
%TO.C,D40*%
G36*
X281507367Y-102652752D02*
G01*
X281259880Y-103081413D01*
X279955880Y-103430819D01*
X279697061Y-102464893D01*
X281339135Y-102024901D01*
X281507367Y-102652752D01*
G37*
%TO.C,D25*%
G36*
X43794992Y-152257606D02*
G01*
X43536173Y-153223532D01*
X41894099Y-152783539D01*
X42062331Y-152155687D01*
X42490992Y-151908200D01*
X43794992Y-152257606D01*
G37*
%TO.C,D1*%
G36*
X63517014Y-78654048D02*
G01*
X63258195Y-79619974D01*
X61616121Y-79179981D01*
X61784353Y-78552129D01*
X62213014Y-78304642D01*
X63517014Y-78654048D01*
G37*
%TO.C,D22*%
G36*
X111754527Y-140690157D02*
G01*
X111586295Y-141318009D01*
X111157634Y-141565496D01*
X109853634Y-141216090D01*
X110112453Y-140250164D01*
X111754527Y-140690157D01*
G37*
%TO.C,D58*%
G36*
X280707094Y-169985437D02*
G01*
X279065020Y-170425429D01*
X278896788Y-169797578D01*
X279144275Y-169368917D01*
X280448275Y-169019511D01*
X280707094Y-169985437D01*
G37*
%TO.C,D71*%
G36*
X215326257Y-132305483D02*
G01*
X215842880Y-133552721D01*
X214919000Y-133935404D01*
X214268439Y-132364809D01*
X214868960Y-132116065D01*
X215326257Y-132305483D01*
G37*
%TO.C,D48*%
G36*
X245900693Y-138224259D02*
G01*
X244258619Y-138664251D01*
X244090387Y-138036400D01*
X244337874Y-137607739D01*
X245641874Y-137258333D01*
X245900693Y-138224259D01*
G37*
%TO.C,D36*%
G36*
X236039691Y-101422502D02*
G01*
X234397617Y-101862494D01*
X234229385Y-101234643D01*
X234476872Y-100805982D01*
X235780872Y-100456576D01*
X236039691Y-101422502D01*
G37*
%TO.C,D47*%
G36*
X263479841Y-130226962D02*
G01*
X261837767Y-130666954D01*
X261669535Y-130039103D01*
X261917022Y-129610442D01*
X263221022Y-129261036D01*
X263479841Y-130226962D01*
G37*
%TO.C,D26*%
G36*
X62812189Y-154888002D02*
G01*
X62553370Y-155853928D01*
X60911296Y-155413935D01*
X61079528Y-154786083D01*
X61508189Y-154538596D01*
X62812189Y-154888002D01*
G37*
%TO.C,D9*%
G36*
X102187448Y-102791412D02*
G01*
X102019216Y-103419264D01*
X101590555Y-103666751D01*
X100286555Y-103317345D01*
X100545374Y-102351419D01*
X102187448Y-102791412D01*
G37*
%TO.C,D59*%
G36*
X262307986Y-178143454D02*
G01*
X260835743Y-178993454D01*
X260510743Y-178430537D01*
X260638851Y-177952429D01*
X261807986Y-177277429D01*
X262307986Y-178143454D01*
G37*
%TO.C,D39*%
G36*
X300935456Y-101555786D02*
G01*
X300687969Y-101984447D01*
X299383969Y-102333853D01*
X299125150Y-101367927D01*
X300767224Y-100927935D01*
X300935456Y-101555786D01*
G37*
%TO.C,D17*%
G36*
X129108495Y-128277536D02*
G01*
X128849676Y-129243462D01*
X127207602Y-128803469D01*
X127375834Y-128175617D01*
X127804495Y-127928130D01*
X129108495Y-128277536D01*
G37*
%TO.C,D67*%
G36*
X181731560Y-153635247D02*
G01*
X181131039Y-153883991D01*
X180673742Y-153694573D01*
X180157119Y-152447335D01*
X181080999Y-152064652D01*
X181731560Y-153635247D01*
G37*
%TO.C,D4*%
G36*
X121595788Y-82711701D02*
G01*
X121336969Y-83677627D01*
X119694895Y-83237634D01*
X119863127Y-82609782D01*
X120291788Y-82362295D01*
X121595788Y-82711701D01*
G37*
%TO.C,D46*%
G36*
X280853517Y-121462918D02*
G01*
X279211443Y-121902910D01*
X279043211Y-121275059D01*
X279290698Y-120846398D01*
X280594698Y-120496992D01*
X280853517Y-121462918D01*
G37*
%TO.C,D19*%
G36*
X53675753Y-136632523D02*
G01*
X53507521Y-137260375D01*
X53078860Y-137507862D01*
X51774860Y-137158456D01*
X52033679Y-136192530D01*
X53675753Y-136632523D01*
G37*
%TO.C,D6*%
G36*
X156548617Y-99473051D02*
G01*
X156289798Y-100438977D01*
X154647724Y-99998984D01*
X154815956Y-99371132D01*
X155244617Y-99123645D01*
X156548617Y-99473051D01*
G37*
%TO.C,D24*%
G36*
X146707357Y-157451533D02*
G01*
X146539125Y-158079385D01*
X146110464Y-158326872D01*
X144806464Y-157977466D01*
X145065283Y-157011540D01*
X146707357Y-157451533D01*
G37*
%TO.C,J6*%
X205374992Y-89987528D02*
X205124992Y-89987528D01*
X205124992Y-89337528D01*
X205374992Y-89337528D01*
X205374992Y-89987528D01*
G36*
X205374992Y-89987528D02*
G01*
X205124992Y-89987528D01*
X205124992Y-89337528D01*
X205374992Y-89337528D01*
X205374992Y-89987528D01*
G37*
X204874992Y-89987528D02*
X204624992Y-89987528D01*
X204624992Y-89337528D01*
X204874992Y-89337528D01*
X204874992Y-89987528D01*
G36*
X204874992Y-89987528D02*
G01*
X204624992Y-89987528D01*
X204624992Y-89337528D01*
X204874992Y-89337528D01*
X204874992Y-89987528D01*
G37*
X204374992Y-89987528D02*
X204124992Y-89987528D01*
X204124992Y-89337528D01*
X204374992Y-89337528D01*
X204374992Y-89987528D01*
G36*
X204374992Y-89987528D02*
G01*
X204124992Y-89987528D01*
X204124992Y-89337528D01*
X204374992Y-89337528D01*
X204374992Y-89987528D01*
G37*
X203874992Y-89987528D02*
X203624992Y-89987528D01*
X203624992Y-89337528D01*
X203874992Y-89337528D01*
X203874992Y-89987528D01*
G36*
X203874992Y-89987528D02*
G01*
X203624992Y-89987528D01*
X203624992Y-89337528D01*
X203874992Y-89337528D01*
X203874992Y-89987528D01*
G37*
X203374992Y-89987528D02*
X203124992Y-89987528D01*
X203124992Y-89337528D01*
X203374992Y-89337528D01*
X203374992Y-89987528D01*
G36*
X203374992Y-89987528D02*
G01*
X203124992Y-89987528D01*
X203124992Y-89337528D01*
X203374992Y-89337528D01*
X203374992Y-89987528D01*
G37*
X202874992Y-89987528D02*
X202624992Y-89987528D01*
X202624992Y-89337528D01*
X202874992Y-89337528D01*
X202874992Y-89987528D01*
G36*
X202874992Y-89987528D02*
G01*
X202624992Y-89987528D01*
X202624992Y-89337528D01*
X202874992Y-89337528D01*
X202874992Y-89987528D01*
G37*
X202374992Y-89987528D02*
X202124992Y-89987528D01*
X202124992Y-89337528D01*
X202374992Y-89337528D01*
X202374992Y-89987528D01*
G36*
X202374992Y-89987528D02*
G01*
X202124992Y-89987528D01*
X202124992Y-89337528D01*
X202374992Y-89337528D01*
X202374992Y-89987528D01*
G37*
X201874992Y-89987528D02*
X201624992Y-89987528D01*
X201624992Y-89337528D01*
X201874992Y-89337528D01*
X201874992Y-89987528D01*
G36*
X201874992Y-89987528D02*
G01*
X201624992Y-89987528D01*
X201624992Y-89337528D01*
X201874992Y-89337528D01*
X201874992Y-89987528D01*
G37*
X201374992Y-89987528D02*
X201124992Y-89987528D01*
X201124992Y-89337528D01*
X201374992Y-89337528D01*
X201374992Y-89987528D01*
G36*
X201374992Y-89987528D02*
G01*
X201124992Y-89987528D01*
X201124992Y-89337528D01*
X201374992Y-89337528D01*
X201374992Y-89987528D01*
G37*
X200874992Y-89987528D02*
X200624992Y-89987528D01*
X200624992Y-89337528D01*
X200874992Y-89337528D01*
X200874992Y-89987528D01*
G36*
X200874992Y-89987528D02*
G01*
X200624992Y-89987528D01*
X200624992Y-89337528D01*
X200874992Y-89337528D01*
X200874992Y-89987528D01*
G37*
X200374992Y-89987528D02*
X200124992Y-89987528D01*
X200124992Y-89337528D01*
X200374992Y-89337528D01*
X200374992Y-89987528D01*
G36*
X200374992Y-89987528D02*
G01*
X200124992Y-89987528D01*
X200124992Y-89337528D01*
X200374992Y-89337528D01*
X200374992Y-89987528D01*
G37*
X199874992Y-89987528D02*
X199624992Y-89987528D01*
X199624992Y-89337528D01*
X199874992Y-89337528D01*
X199874992Y-89987528D01*
G36*
X199874992Y-89987528D02*
G01*
X199624992Y-89987528D01*
X199624992Y-89337528D01*
X199874992Y-89337528D01*
X199874992Y-89987528D01*
G37*
X199374992Y-89987528D02*
X199124992Y-89987528D01*
X199124992Y-89337528D01*
X199374992Y-89337528D01*
X199374992Y-89987528D01*
G36*
X199374992Y-89987528D02*
G01*
X199124992Y-89987528D01*
X199124992Y-89337528D01*
X199374992Y-89337528D01*
X199374992Y-89987528D01*
G37*
X198874992Y-89987528D02*
X198624992Y-89987528D01*
X198624992Y-89337528D01*
X198874992Y-89337528D01*
X198874992Y-89987528D01*
G36*
X198874992Y-89987528D02*
G01*
X198624992Y-89987528D01*
X198624992Y-89337528D01*
X198874992Y-89337528D01*
X198874992Y-89987528D01*
G37*
X198374992Y-89987528D02*
X198124992Y-89987528D01*
X198124992Y-89337528D01*
X198374992Y-89337528D01*
X198374992Y-89987528D01*
G36*
X198374992Y-89987528D02*
G01*
X198124992Y-89987528D01*
X198124992Y-89337528D01*
X198374992Y-89337528D01*
X198374992Y-89987528D01*
G37*
X197874992Y-89987528D02*
X197624992Y-89987528D01*
X197624992Y-89337528D01*
X197874992Y-89337528D01*
X197874992Y-89987528D01*
G36*
X197874992Y-89987528D02*
G01*
X197624992Y-89987528D01*
X197624992Y-89337528D01*
X197874992Y-89337528D01*
X197874992Y-89987528D01*
G37*
X197374992Y-89987528D02*
X197124992Y-89987528D01*
X197124992Y-89337528D01*
X197374992Y-89337528D01*
X197374992Y-89987528D01*
G36*
X197374992Y-89987528D02*
G01*
X197124992Y-89987528D01*
X197124992Y-89337528D01*
X197374992Y-89337528D01*
X197374992Y-89987528D01*
G37*
X196874992Y-89987528D02*
X196624992Y-89987528D01*
X196624992Y-89337528D01*
X196874992Y-89337528D01*
X196874992Y-89987528D01*
G36*
X196874992Y-89987528D02*
G01*
X196624992Y-89987528D01*
X196624992Y-89337528D01*
X196874992Y-89337528D01*
X196874992Y-89987528D01*
G37*
X196374992Y-89987528D02*
X196124992Y-89987528D01*
X196124992Y-89337528D01*
X196374992Y-89337528D01*
X196374992Y-89987528D01*
G36*
X196374992Y-89987528D02*
G01*
X196124992Y-89987528D01*
X196124992Y-89337528D01*
X196374992Y-89337528D01*
X196374992Y-89987528D01*
G37*
X195874992Y-89987528D02*
X195624992Y-89987528D01*
X195624992Y-89337528D01*
X195874992Y-89337528D01*
X195874992Y-89987528D01*
G36*
X195874992Y-89987528D02*
G01*
X195624992Y-89987528D01*
X195624992Y-89337528D01*
X195874992Y-89337528D01*
X195874992Y-89987528D01*
G37*
X195374992Y-89987528D02*
X195124992Y-89987528D01*
X195124992Y-89337528D01*
X195374992Y-89337528D01*
X195374992Y-89987528D01*
G36*
X195374992Y-89987528D02*
G01*
X195124992Y-89987528D01*
X195124992Y-89337528D01*
X195374992Y-89337528D01*
X195374992Y-89987528D01*
G37*
X194874992Y-89987528D02*
X194624992Y-89987528D01*
X194624992Y-89337528D01*
X194874992Y-89337528D01*
X194874992Y-89987528D01*
G36*
X194874992Y-89987528D02*
G01*
X194624992Y-89987528D01*
X194624992Y-89337528D01*
X194874992Y-89337528D01*
X194874992Y-89987528D01*
G37*
X194374992Y-89987528D02*
X194124992Y-89987528D01*
X194124992Y-89337528D01*
X194374992Y-89337528D01*
X194374992Y-89987528D01*
G36*
X194374992Y-89987528D02*
G01*
X194124992Y-89987528D01*
X194124992Y-89337528D01*
X194374992Y-89337528D01*
X194374992Y-89987528D01*
G37*
X193874992Y-89987528D02*
X193624992Y-89987528D01*
X193624992Y-89337528D01*
X193874992Y-89337528D01*
X193874992Y-89987528D01*
G36*
X193874992Y-89987528D02*
G01*
X193624992Y-89987528D01*
X193624992Y-89337528D01*
X193874992Y-89337528D01*
X193874992Y-89987528D01*
G37*
X193374992Y-89987528D02*
X193124992Y-89987528D01*
X193124992Y-89337528D01*
X193374992Y-89337528D01*
X193374992Y-89987528D01*
G36*
X193374992Y-89987528D02*
G01*
X193124992Y-89987528D01*
X193124992Y-89337528D01*
X193374992Y-89337528D01*
X193374992Y-89987528D01*
G37*
X192874992Y-89987528D02*
X192624992Y-89987528D01*
X192624992Y-89337528D01*
X192874992Y-89337528D01*
X192874992Y-89987528D01*
G36*
X192874992Y-89987528D02*
G01*
X192624992Y-89987528D01*
X192624992Y-89337528D01*
X192874992Y-89337528D01*
X192874992Y-89987528D01*
G37*
X192374992Y-89987528D02*
X192124992Y-89987528D01*
X192124992Y-89337528D01*
X192374992Y-89337528D01*
X192374992Y-89987528D01*
G36*
X192374992Y-89987528D02*
G01*
X192124992Y-89987528D01*
X192124992Y-89337528D01*
X192374992Y-89337528D01*
X192374992Y-89987528D01*
G37*
X191874992Y-89987528D02*
X191624992Y-89987528D01*
X191624992Y-89337528D01*
X191874992Y-89337528D01*
X191874992Y-89987528D01*
G36*
X191874992Y-89987528D02*
G01*
X191624992Y-89987528D01*
X191624992Y-89337528D01*
X191874992Y-89337528D01*
X191874992Y-89987528D01*
G37*
X191374992Y-89987528D02*
X191124992Y-89987528D01*
X191124992Y-89337528D01*
X191374992Y-89337528D01*
X191374992Y-89987528D01*
G36*
X191374992Y-89987528D02*
G01*
X191124992Y-89987528D01*
X191124992Y-89337528D01*
X191374992Y-89337528D01*
X191374992Y-89987528D01*
G37*
X190874992Y-89987528D02*
X190624992Y-89987528D01*
X190624992Y-89337528D01*
X190874992Y-89337528D01*
X190874992Y-89987528D01*
G36*
X190874992Y-89987528D02*
G01*
X190624992Y-89987528D01*
X190624992Y-89337528D01*
X190874992Y-89337528D01*
X190874992Y-89987528D01*
G37*
%TO.C,D37*%
G36*
X339586146Y-98595098D02*
G01*
X339338659Y-99023759D01*
X338034659Y-99373165D01*
X337775840Y-98407239D01*
X339417914Y-97967247D01*
X339586146Y-98595098D01*
G37*
%TO.C,D15*%
G36*
X92306709Y-118416497D02*
G01*
X92047890Y-119382423D01*
X90405816Y-118942430D01*
X90574048Y-118314578D01*
X91002709Y-118067091D01*
X92306709Y-118416497D01*
G37*
%TO.C,D49*%
G36*
X349447166Y-135396887D02*
G01*
X349199679Y-135825548D01*
X347895679Y-136174954D01*
X347636860Y-135209028D01*
X349278934Y-134769036D01*
X349447166Y-135396887D01*
G37*
%TO.C,D8*%
G36*
X82553942Y-102461128D02*
G01*
X82385710Y-103088980D01*
X81957049Y-103336467D01*
X80653049Y-102987061D01*
X80911868Y-102021135D01*
X82553942Y-102461128D01*
G37*
%TO.C,D16*%
G36*
X111734769Y-119513480D02*
G01*
X111475950Y-120479406D01*
X109833876Y-120039413D01*
X110002108Y-119411561D01*
X110430769Y-119164074D01*
X111734769Y-119513480D01*
G37*
%TO.C,D21*%
G36*
X92326445Y-139593198D02*
G01*
X92158213Y-140221050D01*
X91729552Y-140468537D01*
X90425552Y-140119131D01*
X90684371Y-139153205D01*
X92326445Y-139593198D01*
G37*
%TO.C,D7*%
G36*
X63536752Y-99830746D02*
G01*
X63368520Y-100458598D01*
X62939859Y-100706085D01*
X61635859Y-100356679D01*
X61894678Y-99390753D01*
X63536752Y-99830746D01*
G37*
%TO.C,D41*%
G36*
X264133689Y-111416795D02*
G01*
X263886202Y-111845456D01*
X262582202Y-112194862D01*
X262323383Y-111228936D01*
X263965457Y-110788944D01*
X264133689Y-111416795D01*
G37*
%TO.C,D68*%
G36*
X194016715Y-162023785D02*
G01*
X193767970Y-162624307D01*
X193310673Y-162813726D01*
X192063436Y-162297103D01*
X192446119Y-161373223D01*
X194016715Y-162023785D01*
G37*
%TO.C,D35*%
G36*
X253618813Y-93425195D02*
G01*
X251976739Y-93865187D01*
X251808507Y-93237336D01*
X252055994Y-92808675D01*
X253359994Y-92459269D01*
X253618813Y-93425195D01*
G37*
%TD*%
D11*
%TO.C,SW64*%
X194755020Y-199100020D03*
D12*
X190640020Y-202510020D03*
D11*
X206245020Y-201300020D03*
D12*
X204090020Y-199970020D03*
%TD*%
D13*
%TO.C,SW29*%
X134611312Y-166261196D03*
D14*
X129342617Y-167156842D03*
D13*
X143461943Y-173911452D03*
D14*
X142260659Y-171682138D03*
%TD*%
D15*
%TO.C,SW30*%
X153316073Y-179546082D03*
D16*
X147995094Y-179047572D03*
D15*
X159885095Y-189226374D03*
D16*
X159301732Y-186762107D03*
%TD*%
D17*
%TO.C,SW1*%
X64741329Y-68888155D03*
D18*
X59883971Y-71116921D03*
D17*
X75270415Y-73987022D03*
D18*
X73533074Y-72144586D03*
%TD*%
D17*
%TO.C,SW23*%
X125402306Y-136912500D03*
D18*
X120544948Y-139141266D03*
D17*
X135931392Y-142011367D03*
D18*
X134194051Y-140168931D03*
%TD*%
D17*
%TO.C,SW24*%
X142981429Y-144909845D03*
D18*
X138124071Y-147138611D03*
D17*
X153510515Y-150008712D03*
D18*
X151773174Y-148166276D03*
%TD*%
D17*
%TO.C,SW21*%
X88600525Y-127051509D03*
D18*
X83743167Y-129280275D03*
D17*
X99129611Y-132150376D03*
D18*
X97392270Y-130307940D03*
%TD*%
D17*
%TO.C,SW22*%
X108028601Y-128148470D03*
D18*
X103171243Y-130377236D03*
D17*
X118557687Y-133247337D03*
D18*
X116820346Y-131404901D03*
%TD*%
D17*
%TO.C,SW25*%
X45019313Y-142491714D03*
D18*
X40161955Y-144720480D03*
D17*
X55548399Y-147590581D03*
D18*
X53811058Y-145748145D03*
%TD*%
D17*
%TO.C,SW11*%
X135263295Y-100110722D03*
D18*
X130405937Y-102339488D03*
D17*
X145792381Y-105209589D03*
D18*
X144055040Y-103367153D03*
%TD*%
D17*
%TO.C,SW12*%
X152842440Y-108108061D03*
D18*
X147985082Y-110336827D03*
D17*
X163371526Y-113206928D03*
D18*
X161634185Y-111364492D03*
%TD*%
D17*
%TO.C,SW13*%
X54880299Y-105689945D03*
D18*
X50022941Y-107918711D03*
D17*
X65409385Y-110788812D03*
D18*
X63672044Y-108946376D03*
%TD*%
D17*
%TO.C,SW14*%
X73897514Y-108320313D03*
D18*
X69040156Y-110549079D03*
D17*
X84426600Y-113419180D03*
D18*
X82689259Y-111576744D03*
%TD*%
D17*
%TO.C,SW15*%
X93531028Y-108650607D03*
D18*
X88673670Y-110879373D03*
D17*
X104060114Y-113749474D03*
D18*
X102322773Y-111907038D03*
%TD*%
D17*
%TO.C,SW17*%
X130332810Y-118511639D03*
D18*
X125475452Y-120740405D03*
D17*
X140861896Y-123610506D03*
D18*
X139124555Y-121768070D03*
%TD*%
D17*
%TO.C,SW16*%
X112959077Y-109747591D03*
D18*
X108101719Y-111976357D03*
D17*
X123488163Y-114846458D03*
D18*
X121750822Y-113004022D03*
%TD*%
D17*
%TO.C,SW18*%
X147911927Y-126508940D03*
D18*
X143054569Y-128737706D03*
D17*
X158441013Y-131607807D03*
D18*
X156703672Y-129765371D03*
%TD*%
D17*
%TO.C,SW19*%
X49949820Y-124090842D03*
D18*
X45092462Y-126319608D03*
D17*
X60478906Y-129189709D03*
D18*
X58741565Y-127347273D03*
%TD*%
D17*
%TO.C,SW20*%
X68966995Y-126721221D03*
D18*
X64109637Y-128949987D03*
D17*
X79496081Y-131820088D03*
D18*
X77758740Y-129977652D03*
%TD*%
D17*
%TO.C,SW26*%
X64036508Y-145122112D03*
D18*
X59179150Y-147350878D03*
D17*
X74565594Y-150220979D03*
D18*
X72828253Y-148378543D03*
%TD*%
D17*
%TO.C,SW27*%
X83670016Y-145452372D03*
D18*
X78812658Y-147681138D03*
D17*
X94199102Y-150551239D03*
D18*
X92461761Y-148708803D03*
%TD*%
D17*
%TO.C,SW28*%
X113105522Y-158270106D03*
D18*
X108248164Y-160498872D03*
D17*
X123634608Y-163368973D03*
D18*
X121897267Y-161526537D03*
%TD*%
D17*
%TO.C,SW3*%
X103392030Y-71848860D03*
D18*
X98534672Y-74077626D03*
D17*
X113921116Y-76947727D03*
D18*
X112183775Y-75105291D03*
%TD*%
D17*
%TO.C,SW7*%
X59810823Y-87289059D03*
D18*
X54953465Y-89517825D03*
D17*
X70339909Y-92387926D03*
D18*
X68602568Y-90545490D03*
%TD*%
D17*
%TO.C,SW9*%
X98461524Y-90249716D03*
D18*
X93604166Y-92478482D03*
D17*
X108990610Y-95348583D03*
D18*
X107253269Y-93506147D03*
%TD*%
D17*
%TO.C,SW5*%
X140193803Y-81709832D03*
D18*
X135336445Y-83938598D03*
D17*
X150722889Y-86808699D03*
D18*
X148985548Y-84966263D03*
%TD*%
D17*
%TO.C,SW10*%
X117889598Y-91346725D03*
D18*
X113032240Y-93575491D03*
D17*
X128418684Y-96445592D03*
D18*
X126681343Y-94603156D03*
%TD*%
D17*
%TO.C,SW4*%
X122820102Y-72945812D03*
D18*
X117962744Y-75174578D03*
D17*
X133349188Y-78044679D03*
D18*
X131611847Y-76202243D03*
%TD*%
D17*
%TO.C,SW2*%
X83758520Y-71518559D03*
D18*
X78901162Y-73747325D03*
D17*
X94287606Y-76617426D03*
D18*
X92550265Y-74774990D03*
%TD*%
D17*
%TO.C,SW8*%
X78828013Y-89919448D03*
D18*
X73970655Y-92148214D03*
D17*
X89357099Y-95018315D03*
D18*
X87619758Y-93175879D03*
%TD*%
D17*
%TO.C,SW6*%
X157772936Y-89707166D03*
D18*
X152915578Y-91935932D03*
D17*
X168302022Y-94806033D03*
D18*
X166564681Y-92963597D03*
%TD*%
D19*
%TO.C,SW36*%
X231958219Y-91386915D03*
D20*
X228866008Y-95745763D03*
D19*
X243626109Y-90538121D03*
D20*
X241200310Y-89811195D03*
%TD*%
D21*
%TO.C,C118*%
X170619999Y-82100027D03*
X171579999Y-82100027D03*
%TD*%
D22*
%TO.C,J3*%
X201749984Y-131100033D03*
X194249984Y-131100033D03*
%TD*%
D23*
%TO.C,D61*%
X174995174Y-186272776D03*
X175695174Y-185060340D03*
X170232034Y-183522776D03*
%TD*%
D11*
%TO.C,SW62*%
X194754994Y-180050026D03*
D12*
X190639994Y-183460026D03*
D11*
X206244994Y-182250026D03*
D12*
X204089994Y-180920026D03*
%TD*%
D24*
%TO.C,U6*%
X207549993Y-133262527D03*
X208499993Y-133262527D03*
X209449993Y-133262527D03*
X209449993Y-135537527D03*
X207549993Y-135537527D03*
%TD*%
D25*
%TO.C,C33*%
X195899990Y-78880030D03*
X195899990Y-77920030D03*
%TD*%
D26*
%TO.C,U14*%
X173799994Y-83100037D03*
X172999994Y-83100037D03*
D27*
X172649994Y-82150037D03*
X173149994Y-82150037D03*
X173649994Y-82150037D03*
X174149994Y-82150037D03*
X174149994Y-84050037D03*
X173649994Y-84050037D03*
X173149994Y-84050037D03*
X172649994Y-84050037D03*
%TD*%
D22*
%TO.C,J2*%
X200349990Y-66900032D03*
X211849990Y-66900032D03*
%TD*%
D19*
%TO.C,SW58*%
X276625618Y-159949845D03*
D20*
X273533407Y-164308693D03*
D19*
X288293508Y-159101051D03*
D20*
X285867709Y-158374125D03*
%TD*%
D28*
%TO.C,D54*%
X249880751Y-156362188D03*
X250243097Y-157714484D03*
X255193343Y-154938684D03*
%TD*%
D29*
%TO.C,C90*%
X264822907Y-149071457D03*
X265750195Y-148822991D03*
%TD*%
D30*
%TO.C,D74*%
X117520049Y-72132407D03*
X115684790Y-71640651D03*
X117191233Y-69689047D03*
%TD*%
D31*
%TO.C,D65*%
X193575828Y-125133042D03*
X193040071Y-123839611D03*
X188494491Y-127237801D03*
%TD*%
D19*
%TO.C,SW51*%
X301130633Y-128731259D03*
D20*
X298038422Y-133090107D03*
D19*
X312798523Y-127882465D03*
D20*
X310372724Y-127155539D03*
%TD*%
D32*
%TO.C,C68*%
X64155254Y-136043497D03*
X65082542Y-136291963D03*
%TD*%
D33*
%TO.C,D94*%
X328874354Y-105658693D03*
X327039095Y-106150449D03*
X327367911Y-103707089D03*
%TD*%
D34*
%TO.C,C44*%
X205599989Y-86975029D03*
X205599989Y-85425029D03*
%TD*%
D35*
%TO.C,C109*%
X336432779Y-79562743D03*
X335505491Y-79811209D03*
%TD*%
D21*
%TO.C,C17*%
X203619993Y-80600030D03*
X204579993Y-80600030D03*
%TD*%
D36*
%TO.C,R27*%
X209510009Y-137000026D03*
X208490009Y-137000026D03*
%TD*%
D32*
%TO.C,C55*%
X93649779Y-99572000D03*
X94577067Y-99820466D03*
%TD*%
%TO.C,C54*%
X113077865Y-100669000D03*
X114005153Y-100917466D03*
%TD*%
D37*
%TO.C,R40*%
X229489995Y-190295060D03*
X230509995Y-190295060D03*
%TD*%
D38*
%TO.C,D27*%
X86445499Y-158257029D03*
X86807845Y-156904733D03*
X81132907Y-156833525D03*
%TD*%
D35*
%TO.C,C92*%
X253262162Y-137183515D03*
X252334874Y-137431981D03*
%TD*%
D39*
%TO.C,C71*%
X69448969Y-158633343D03*
X68521681Y-158384877D03*
%TD*%
D40*
%TO.C,R20*%
X186000003Y-73890031D03*
X186000003Y-74910031D03*
%TD*%
D19*
%TO.C,SW39*%
X291269629Y-91929475D03*
D20*
X288177418Y-96288323D03*
D19*
X302937519Y-91080681D03*
D20*
X300511720Y-90353755D03*
%TD*%
D41*
%TO.C,SW63*%
X214751130Y-176431075D03*
D42*
X212892435Y-181441721D03*
D41*
X225801761Y-172591331D03*
D42*
X223270477Y-172517017D03*
%TD*%
D43*
%TO.C,D32*%
X314778607Y-82899724D03*
X314416261Y-81547428D03*
X309466015Y-84323228D03*
%TD*%
D13*
%TO.C,SW61*%
X175628349Y-173186077D03*
D14*
X170359654Y-174081723D03*
D13*
X184478980Y-180836333D03*
D14*
X183277696Y-178607019D03*
%TD*%
D44*
%TO.C,C76*%
X177359422Y-187637778D03*
X176528038Y-187157778D03*
%TD*%
D19*
%TO.C,SW48*%
X241819214Y-128188671D03*
D20*
X238727003Y-132547519D03*
D19*
X253487104Y-127339877D03*
D20*
X251061305Y-126612951D03*
%TD*%
D29*
%TO.C,C101*%
X272335593Y-103505636D03*
X273262881Y-103257170D03*
%TD*%
D45*
%TO.C,D72*%
X207505506Y-127237799D03*
X208041263Y-125944368D03*
X202424169Y-125133040D03*
%TD*%
D37*
%TO.C,R5*%
X216089993Y-72200029D03*
X217109993Y-72200029D03*
%TD*%
D38*
%TO.C,D3*%
X106167513Y-84653510D03*
X106529859Y-83301214D03*
X100854921Y-83230006D03*
%TD*%
D39*
%TO.C,C63*%
X153324391Y-140020176D03*
X152397103Y-139771710D03*
%TD*%
D40*
%TO.C,R8*%
X209099998Y-72690026D03*
X209099998Y-73710026D03*
%TD*%
D21*
%TO.C,C31*%
X191319991Y-72200025D03*
X192279991Y-72200025D03*
%TD*%
%TO.C,C21*%
X209004998Y-131600030D03*
X208044998Y-131600030D03*
%TD*%
D39*
%TO.C,C49*%
X128232567Y-86457049D03*
X127305279Y-86208583D03*
%TD*%
D28*
%TO.C,D53*%
X267459885Y-148364880D03*
X267822231Y-149717176D03*
X272772477Y-146941376D03*
%TD*%
D38*
%TO.C,D2*%
X86534005Y-84323212D03*
X86896351Y-82970916D03*
X81221413Y-82899708D03*
%TD*%
%TO.C,D18*%
X150687414Y-139313596D03*
X151049760Y-137961300D03*
X145374822Y-137890092D03*
%TD*%
D35*
%TO.C,C85*%
X356154780Y-153166290D03*
X355227492Y-153414756D03*
%TD*%
D46*
%TO.C,D87*%
X148370904Y-174009539D03*
X146863532Y-172852892D03*
X149002150Y-171626337D03*
%TD*%
D40*
%TO.C,R23*%
X189199989Y-76590032D03*
X189199989Y-77610032D03*
%TD*%
D47*
%TO.C,C11*%
X207099991Y-73020029D03*
X207099991Y-73980029D03*
%TD*%
D48*
%TO.C,C22*%
X206379996Y-137300028D03*
X205419996Y-137300028D03*
%TD*%
D49*
%TO.C,C10*%
X204324993Y-75400031D03*
X205874993Y-75400031D03*
%TD*%
D50*
%TO.C,D106*%
X221599994Y-72450031D03*
X221599994Y-74550031D03*
%TD*%
D47*
%TO.C,C12*%
X211099991Y-72120030D03*
X211099991Y-73080030D03*
%TD*%
D51*
%TO.C,R32*%
X170499994Y-84710030D03*
X170499994Y-83690030D03*
%TD*%
%TO.C,R44*%
X181000027Y-87510020D03*
X181000027Y-86490020D03*
%TD*%
D19*
%TO.C,SW49*%
X339781334Y-125770570D03*
D20*
X336689123Y-130129418D03*
D19*
X351449224Y-124921776D03*
D20*
X349023425Y-124194850D03*
%TD*%
D30*
%TO.C,D103*%
X188746764Y-179158049D03*
X186911505Y-178666293D03*
X188417948Y-176714689D03*
%TD*%
D21*
%TO.C,C3*%
X174419997Y-72200027D03*
X175379997Y-72200027D03*
%TD*%
D29*
%TO.C,C99*%
X311397190Y-102078383D03*
X312324478Y-101829917D03*
%TD*%
D28*
%TO.C,D50*%
X323895180Y-138173584D03*
X324257526Y-139525880D03*
X329207772Y-136750080D03*
%TD*%
D49*
%TO.C,C40*%
X192624988Y-86337532D03*
X194174988Y-86337532D03*
%TD*%
D38*
%TO.C,D28*%
X115881002Y-171074766D03*
X116243348Y-169722470D03*
X110568410Y-169651262D03*
%TD*%
D52*
%TO.C,C81*%
X269149260Y-175232885D03*
X268317876Y-175712885D03*
%TD*%
D43*
%TO.C,D55*%
X353517803Y-153872869D03*
X353155457Y-152520573D03*
X348205211Y-155296373D03*
%TD*%
%TO.C,D31*%
X333795800Y-80269319D03*
X333433454Y-78917023D03*
X328483208Y-81692823D03*
%TD*%
D30*
%TO.C,D75*%
X153631552Y-84569532D03*
X151796293Y-84077776D03*
X153302736Y-82126172D03*
%TD*%
D39*
%TO.C,C70*%
X50431773Y-156002951D03*
X49504485Y-155754485D03*
%TD*%
D43*
%TO.C,D45*%
X305006091Y-120031772D03*
X304643745Y-118679476D03*
X299693499Y-121455276D03*
%TD*%
D19*
%TO.C,SW47*%
X259398364Y-120191368D03*
D20*
X256306153Y-124550216D03*
D19*
X271066254Y-119342574D03*
D20*
X268640455Y-118615648D03*
%TD*%
D43*
%TO.C,D43*%
X343656803Y-117071086D03*
X343294457Y-115718790D03*
X338344211Y-118494590D03*
%TD*%
D35*
%TO.C,C84*%
X337137598Y-155796693D03*
X336210310Y-156045159D03*
%TD*%
D19*
%TO.C,SW57*%
X306061130Y-147132135D03*
D20*
X302968919Y-151490983D03*
D19*
X317729020Y-146283341D03*
D20*
X315303221Y-145556415D03*
%TD*%
D28*
%TO.C,D51*%
X304261662Y-138503882D03*
X304624008Y-139856178D03*
X309574254Y-137080378D03*
%TD*%
D29*
%TO.C,C100*%
X291763676Y-102408679D03*
X292690964Y-102160213D03*
%TD*%
D53*
%TO.C,D63*%
X225767955Y-183522770D03*
X225067955Y-182310334D03*
X221004815Y-186272770D03*
%TD*%
D51*
%TO.C,R4*%
X212249990Y-113760023D03*
X212249990Y-112740023D03*
%TD*%
D33*
%TO.C,D100*%
X338735358Y-142460475D03*
X336900099Y-142952231D03*
X337228915Y-140508871D03*
%TD*%
D54*
%TO.C,C37*%
X185999997Y-90725022D03*
X185999997Y-92275022D03*
%TD*%
D25*
%TO.C,C38*%
X190999992Y-88080028D03*
X190999992Y-87120028D03*
%TD*%
D39*
%TO.C,C59*%
X79309971Y-121831547D03*
X78382683Y-121583081D03*
%TD*%
D38*
%TO.C,D13*%
X57655787Y-118494597D03*
X58018133Y-117142301D03*
X52343195Y-117071093D03*
%TD*%
D55*
%TO.C,C80*%
X252502117Y-186203491D03*
X251823295Y-186882313D03*
%TD*%
D28*
%TO.C,D52*%
X284833589Y-139600827D03*
X285195935Y-140953123D03*
X290146181Y-138177323D03*
%TD*%
D56*
%TO.C,C122*%
X174650003Y-92100031D03*
X172750003Y-92100031D03*
%TD*%
D30*
%TO.C,D77*%
X112589549Y-90533291D03*
X110754290Y-90041535D03*
X112260733Y-88089931D03*
%TD*%
D28*
%TO.C,D38*%
X314034175Y-101371803D03*
X314396521Y-102724099D03*
X319346767Y-99948299D03*
%TD*%
D51*
%TO.C,R12*%
X194899994Y-78910033D03*
X194899994Y-77890033D03*
%TD*%
D19*
%TO.C,SW43*%
X334850829Y-107369669D03*
D20*
X331758618Y-111728517D03*
D19*
X346518719Y-106520875D03*
D20*
X344092920Y-105793949D03*
%TD*%
D35*
%TO.C,C106*%
X278353996Y-83620397D03*
X277426708Y-83868863D03*
%TD*%
D57*
%TO.C,D23*%
X123227545Y-146941351D03*
X122865199Y-148293647D03*
X128540137Y-148364855D03*
%TD*%
D48*
%TO.C,C79*%
X203479989Y-210750023D03*
X202519989Y-210750023D03*
%TD*%
D43*
%TO.C,D56*%
X334500620Y-156503270D03*
X334138274Y-155150974D03*
X329188028Y-157926774D03*
%TD*%
D58*
%TO.C,U7*%
X170662498Y-74150023D03*
X170662498Y-72250023D03*
X172937498Y-73200023D03*
%TD*%
D29*
%TO.C,C87*%
X321258202Y-138880156D03*
X322185490Y-138631690D03*
%TD*%
D47*
%TO.C,C13*%
X212099993Y-72120030D03*
X212099993Y-73080030D03*
%TD*%
D19*
%TO.C,SW46*%
X276772038Y-111427330D03*
D20*
X273679827Y-115786178D03*
D19*
X288439928Y-110578536D03*
D20*
X286014129Y-109851610D03*
%TD*%
D51*
%TO.C,R9*%
X212199991Y-87610027D03*
X212199991Y-86590027D03*
%TD*%
D29*
%TO.C,C103*%
X237382764Y-120266998D03*
X238310052Y-120018532D03*
%TD*%
D59*
%TO.C,U12*%
X184249985Y-89137521D03*
X183299985Y-89137521D03*
X182349985Y-89137521D03*
X182349985Y-86862521D03*
X184249985Y-86862521D03*
%TD*%
D33*
%TO.C,D104*%
X209062025Y-178602893D03*
X207226766Y-179094649D03*
X207555582Y-176651289D03*
%TD*%
D60*
%TO.C,D70*%
X213762226Y-152505536D03*
X215055657Y-153041293D03*
X215866985Y-147424199D03*
%TD*%
D35*
%TO.C,C108*%
X317415581Y-82193146D03*
X316488293Y-82441612D03*
%TD*%
D30*
%TO.C,D82*%
X63635974Y-126023405D03*
X61800715Y-125531649D03*
X63307158Y-123580045D03*
%TD*%
D33*
%TO.C,D93*%
X249452820Y-103667668D03*
X247617561Y-104159424D03*
X247946377Y-101716064D03*
%TD*%
D61*
%TO.C,Q2*%
X187949992Y-76450031D03*
X187949992Y-77100031D03*
X187949992Y-77750031D03*
X186049992Y-77750031D03*
X186049992Y-77100031D03*
X186049992Y-76450031D03*
%TD*%
D21*
%TO.C,C28*%
X186020006Y-69900026D03*
X186980006Y-69900026D03*
%TD*%
D48*
%TO.C,C77*%
X203479991Y-191700027D03*
X202519991Y-191700027D03*
%TD*%
D33*
%TO.C,D97*%
X333806281Y-124064895D03*
X331971022Y-124556651D03*
X332299838Y-122113291D03*
%TD*%
D39*
%TO.C,C73*%
X118517988Y-171781342D03*
X117590700Y-171532876D03*
%TD*%
D62*
%TO.C,D64*%
X200749987Y-210750023D03*
X200749987Y-209350023D03*
X195249987Y-210750023D03*
%TD*%
D35*
%TO.C,C105*%
X260980289Y-92384442D03*
X260053001Y-92632908D03*
%TD*%
D33*
%TO.C,D95*%
X289804548Y-107055292D03*
X287969289Y-107547048D03*
X288298105Y-105103688D03*
%TD*%
D32*
%TO.C,C67*%
X83788782Y-136373785D03*
X84716070Y-136622251D03*
%TD*%
D43*
%TO.C,D34*%
X275717012Y-84326979D03*
X275354666Y-82974683D03*
X270404420Y-85750483D03*
%TD*%
D21*
%TO.C,C25*%
X214119992Y-72200032D03*
X215079992Y-72200032D03*
%TD*%
D19*
%TO.C,SW37*%
X329920325Y-88968785D03*
D20*
X326828114Y-93327633D03*
D19*
X341588215Y-88119991D03*
D20*
X339162416Y-87393065D03*
%TD*%
D62*
%TO.C,D62*%
X200750001Y-191700034D03*
X200750001Y-190300034D03*
X195250001Y-191700034D03*
%TD*%
D29*
%TO.C,C86*%
X340275381Y-136249776D03*
X341202669Y-136001310D03*
%TD*%
D57*
%TO.C,D10*%
X115714842Y-101375574D03*
X115352496Y-102727870D03*
X121027434Y-102799078D03*
%TD*%
D35*
%TO.C,C97*%
X346293772Y-116364510D03*
X345366484Y-116612976D03*
%TD*%
D63*
%TO.C,U2*%
X217599988Y-73350030D03*
X217599988Y-73850030D03*
X217599988Y-74350030D03*
X217599988Y-74850030D03*
X214799988Y-74850030D03*
X214799988Y-74350030D03*
X214799988Y-73850030D03*
X214799988Y-73350030D03*
D64*
X216199988Y-74100030D03*
%TD*%
D65*
%TO.C,U5*%
X197699992Y-77975029D03*
X198099992Y-77975029D03*
D66*
X198724992Y-78100029D03*
X198724992Y-78500029D03*
X198724992Y-78900029D03*
X198724992Y-79300029D03*
D65*
X198099992Y-79425029D03*
X197699992Y-79425029D03*
D66*
X197074992Y-79300029D03*
X197074992Y-78900029D03*
X197074992Y-78500029D03*
X197074992Y-78100029D03*
%TD*%
D33*
%TO.C,D92*%
X284874054Y-88654413D03*
X283038795Y-89146169D03*
X283367611Y-86702809D03*
%TD*%
D25*
%TO.C,C5*%
X216799991Y-88580031D03*
X216799991Y-87620031D03*
%TD*%
D21*
%TO.C,C30*%
X229019994Y-74500026D03*
X229979994Y-74500026D03*
%TD*%
D30*
%TO.C,D81*%
X143770549Y-121371312D03*
X141935290Y-120879556D03*
X143441733Y-118927952D03*
%TD*%
D37*
%TO.C,R14*%
X205290024Y-133200020D03*
X206310024Y-133200020D03*
%TD*%
D35*
%TO.C,C94*%
X288214987Y-120422165D03*
X287287699Y-120670631D03*
%TD*%
D25*
%TO.C,C45*%
X175199996Y-83080027D03*
X175199996Y-82120027D03*
%TD*%
D39*
%TO.C,C72*%
X89082475Y-158963610D03*
X88155187Y-158715144D03*
%TD*%
%TO.C,C47*%
X89170978Y-85029788D03*
X88243690Y-84781322D03*
%TD*%
D67*
%TO.C,D69*%
X202424169Y-160867012D03*
X202959926Y-162160443D03*
X207505506Y-158762253D03*
%TD*%
D68*
%TO.C,FB1*%
X195824992Y-68500032D03*
X198974992Y-68500032D03*
%TD*%
D30*
%TO.C,D76*%
X73496982Y-89221630D03*
X71661723Y-88729874D03*
X73168166Y-86778270D03*
%TD*%
D33*
%TO.C,D99*%
X259313820Y-140469434D03*
X257478561Y-140961190D03*
X257807377Y-138517830D03*
%TD*%
D43*
%TO.C,D57*%
X314867099Y-156833544D03*
X314504753Y-155481248D03*
X309554507Y-158257048D03*
%TD*%
D19*
%TO.C,SW38*%
X310903143Y-91599178D03*
D20*
X307810932Y-95958026D03*
D19*
X322571033Y-90750384D03*
D20*
X320145234Y-90023458D03*
%TD*%
D35*
%TO.C,C107*%
X297782062Y-82523437D03*
X296854774Y-82771903D03*
%TD*%
%TO.C,C96*%
X327276585Y-118994903D03*
X326349297Y-119243369D03*
%TD*%
D69*
%TO.C,D30*%
X149317384Y-192022979D03*
X150307333Y-191033030D03*
X145428297Y-188133892D03*
%TD*%
D37*
%TO.C,R28*%
X207889994Y-138100034D03*
X208909994Y-138100034D03*
%TD*%
D70*
%TO.C,C117*%
X196098018Y-124088315D03*
X195211094Y-124455691D03*
%TD*%
D28*
%TO.C,D42*%
X240019742Y-119560422D03*
X240382088Y-120912718D03*
X245332334Y-118136918D03*
%TD*%
D19*
%TO.C,SW52*%
X281702558Y-129828205D03*
D20*
X278610347Y-134187053D03*
D19*
X293370448Y-128979411D03*
D20*
X290944649Y-128252485D03*
%TD*%
D57*
%TO.C,D12*%
X150667673Y-118136913D03*
X150305327Y-119489209D03*
X155980265Y-119560417D03*
%TD*%
D21*
%TO.C,C20*%
X197719992Y-70300029D03*
X198679992Y-70300029D03*
%TD*%
D51*
%TO.C,R19*%
X185999992Y-72910047D03*
X185999992Y-71890047D03*
%TD*%
D71*
%TO.C,U10*%
X161524993Y-84745024D03*
X161524993Y-83475024D03*
X161524993Y-82205024D03*
X161524993Y-80935024D03*
X161524993Y-79665024D03*
X161524993Y-78395024D03*
X161524993Y-77125024D03*
X161524993Y-75855024D03*
X166474993Y-75855024D03*
X166474993Y-77125024D03*
X166474993Y-78395024D03*
X166474993Y-79665024D03*
X166474993Y-80935024D03*
X166474993Y-82205024D03*
X166474993Y-83475024D03*
X166474993Y-84745024D03*
%TD*%
D72*
%TO.C,C115*%
X179088285Y-144902007D03*
X179455661Y-145788931D03*
%TD*%
D33*
%TO.C,D98*%
X294735051Y-125456179D03*
X292899792Y-125947935D03*
X293228608Y-123504575D03*
%TD*%
D35*
%TO.C,C82*%
X288068562Y-168944684D03*
X287141274Y-169193150D03*
%TD*%
D30*
%TO.C,D84*%
X138840044Y-139772197D03*
X137004785Y-139280441D03*
X138511228Y-137328837D03*
%TD*%
D51*
%TO.C,R10*%
X204799987Y-146710027D03*
X204799987Y-145690027D03*
%TD*%
D33*
%TO.C,D101*%
X296216107Y-153064599D03*
X294380848Y-153556355D03*
X294709664Y-151112995D03*
%TD*%
D19*
%TO.C,SW34*%
X266911049Y-74625558D03*
D20*
X263818838Y-78984406D03*
D19*
X278578939Y-73776764D03*
D20*
X276153140Y-73049838D03*
%TD*%
D39*
%TO.C,C58*%
X60292759Y-119201180D03*
X59365471Y-118952714D03*
%TD*%
D73*
%TO.C,D108*%
X200999987Y-86550030D03*
X198899987Y-86550030D03*
%TD*%
D33*
%TO.C,D88*%
X319013355Y-68856930D03*
X317178096Y-69348686D03*
X317506912Y-66905326D03*
%TD*%
D43*
%TO.C,D44*%
X324639611Y-119701478D03*
X324277265Y-118349182D03*
X319327019Y-121124982D03*
%TD*%
D74*
%TO.C,C112*%
X212717502Y-155027716D03*
X213084878Y-154140792D03*
%TD*%
D75*
%TO.C,C114*%
X185972302Y-157717530D03*
X186859226Y-158084906D03*
%TD*%
D21*
%TO.C,C43*%
X205219991Y-88237529D03*
X206179991Y-88237529D03*
%TD*%
D36*
%TO.C,R29*%
X196409990Y-88037525D03*
X195389990Y-88037525D03*
%TD*%
D76*
%TO.C,L1*%
X186900029Y-88950020D03*
X186900029Y-86650020D03*
%TD*%
D47*
%TO.C,C2*%
X213349990Y-112770026D03*
X213349990Y-113730026D03*
%TD*%
D77*
%TO.C,C110*%
X210027695Y-128282526D03*
X209140771Y-127915150D03*
%TD*%
D25*
%TO.C,C16*%
X210099993Y-87080029D03*
X210099993Y-86120029D03*
%TD*%
D40*
%TO.C,R1*%
X218049993Y-112740025D03*
X218049993Y-113760025D03*
%TD*%
D32*
%TO.C,C64*%
X138169687Y-154232118D03*
X139096975Y-154480584D03*
%TD*%
D78*
%TO.C,U8*%
X200849994Y-74162530D03*
X202749994Y-74162530D03*
X201799994Y-76037530D03*
%TD*%
D38*
%TO.C,D5*%
X142969296Y-94514492D03*
X143331642Y-93162196D03*
X137656704Y-93090988D03*
%TD*%
D29*
%TO.C,C91*%
X247243770Y-157068763D03*
X248171058Y-156820297D03*
%TD*%
D32*
%TO.C,C66*%
X103216861Y-137470746D03*
X104144149Y-137719212D03*
%TD*%
D48*
%TO.C,C14*%
X216479990Y-76600031D03*
X215519990Y-76600031D03*
%TD*%
D25*
%TO.C,C23*%
X190600002Y-70980021D03*
X190600002Y-70020021D03*
%TD*%
D79*
%TO.C,D60*%
X250571709Y-188133897D03*
X249581760Y-187143948D03*
X246682622Y-192022984D03*
%TD*%
D36*
%TO.C,R36*%
X189209997Y-67900024D03*
X188189997Y-67900024D03*
%TD*%
D57*
%TO.C,D20*%
X66792233Y-136750077D03*
X66429887Y-138102373D03*
X72104825Y-138173581D03*
%TD*%
D80*
%TO.C,R30*%
X202399993Y-88025031D03*
X202399993Y-86375031D03*
%TD*%
D48*
%TO.C,C15*%
X218879992Y-80600032D03*
X217919992Y-80600032D03*
%TD*%
D30*
%TO.C,D80*%
X107659045Y-108934180D03*
X105823786Y-108442424D03*
X107330229Y-106490820D03*
%TD*%
D40*
%TO.C,R43*%
X172800028Y-79790040D03*
X172800028Y-80810040D03*
%TD*%
D32*
%TO.C,C56*%
X74016273Y-99241719D03*
X74943561Y-99490185D03*
%TD*%
D39*
%TO.C,C60*%
X98943492Y-122161835D03*
X98016204Y-121913369D03*
%TD*%
D73*
%TO.C,D107*%
X197649991Y-86550029D03*
X195549991Y-86550029D03*
%TD*%
D57*
%TO.C,D11*%
X133088535Y-110139569D03*
X132726189Y-111491865D03*
X138401127Y-111563073D03*
%TD*%
D41*
%TO.C,SW59*%
X255768179Y-169506182D03*
D42*
X253909484Y-174516828D03*
D41*
X266818810Y-165666438D03*
D42*
X264287526Y-165592124D03*
%TD*%
D36*
%TO.C,R35*%
X187020003Y-67900025D03*
X186000003Y-67900025D03*
%TD*%
D81*
%TO.C,C75*%
X151247787Y-193953387D03*
X150568965Y-193274565D03*
%TD*%
D23*
%TO.C,D29*%
X133978140Y-179347895D03*
X134678140Y-178135459D03*
X129215000Y-176597895D03*
%TD*%
D39*
%TO.C,C50*%
X145606263Y-95221071D03*
X144678975Y-94972605D03*
%TD*%
D51*
%TO.C,R2*%
X215849993Y-113760030D03*
X215849993Y-112740030D03*
%TD*%
D49*
%TO.C,C35*%
X183025028Y-85100023D03*
X184575028Y-85100023D03*
%TD*%
D40*
%TO.C,R26*%
X182399999Y-91390022D03*
X182399999Y-92410022D03*
%TD*%
D48*
%TO.C,C123*%
X232479995Y-191395030D03*
X231519995Y-191395030D03*
%TD*%
D82*
%TO.C,D66*%
X182237769Y-133494522D03*
X180944338Y-132958765D03*
X180133010Y-138575859D03*
%TD*%
D36*
%TO.C,R41*%
X232509995Y-189195030D03*
X231489995Y-189195030D03*
%TD*%
D34*
%TO.C,C126*%
X199299995Y-75875026D03*
X199299995Y-74325026D03*
%TD*%
D25*
%TO.C,C34*%
X190300000Y-66880029D03*
X190300000Y-65920029D03*
%TD*%
D83*
%TO.C,C111*%
X216911712Y-141098047D03*
X216544336Y-140211123D03*
%TD*%
D19*
%TO.C,SW33*%
X286339113Y-73528596D03*
D20*
X283246902Y-77887444D03*
D19*
X298007003Y-72679802D03*
D20*
X295581204Y-71952876D03*
%TD*%
D43*
%TO.C,D33*%
X295145084Y-83230018D03*
X294782738Y-81877722D03*
X289832492Y-84653522D03*
%TD*%
D39*
%TO.C,C51*%
X163185396Y-103218387D03*
X162258108Y-102969921D03*
%TD*%
D35*
%TO.C,C93*%
X270841311Y-129186206D03*
X269914023Y-129434672D03*
%TD*%
D19*
%TO.C,SW32*%
X305972635Y-73198308D03*
D20*
X302880424Y-77557156D03*
D19*
X317640525Y-72349514D03*
D20*
X315214726Y-71622588D03*
%TD*%
D30*
%TO.C,D86*%
X103041814Y-152663183D03*
X101206555Y-152171427D03*
X102712998Y-150219823D03*
%TD*%
D29*
%TO.C,C98*%
X330414369Y-99447982D03*
X331341657Y-99199516D03*
%TD*%
D40*
%TO.C,R33*%
X171599995Y-83690030D03*
X171599995Y-84710030D03*
%TD*%
D30*
%TO.C,D78*%
X148701046Y-102970423D03*
X146865787Y-102478667D03*
X148372230Y-100527063D03*
%TD*%
D19*
%TO.C,SW55*%
X344711834Y-144171449D03*
D20*
X341619623Y-148530297D03*
D19*
X356379724Y-143322655D03*
D20*
X353953925Y-142595729D03*
%TD*%
D36*
%TO.C,R42*%
X230509984Y-189195031D03*
X229489984Y-189195031D03*
%TD*%
D47*
%TO.C,C19*%
X206099991Y-73220030D03*
X206099991Y-74180030D03*
%TD*%
D19*
%TO.C,SW41*%
X254467867Y-101790486D03*
D20*
X251375656Y-106149334D03*
D19*
X266135757Y-100941692D03*
D20*
X263709958Y-100214766D03*
%TD*%
D56*
%TO.C,C120*%
X174649999Y-88100026D03*
X172749999Y-88100026D03*
%TD*%
D38*
%TO.C,D14*%
X76672997Y-121124969D03*
X77035343Y-119772673D03*
X71360405Y-119701465D03*
%TD*%
D33*
%TO.C,D96*%
X254383315Y-122068548D03*
X252548056Y-122560304D03*
X252876872Y-120116944D03*
%TD*%
D29*
%TO.C,C88*%
X301624686Y-139210459D03*
X302551974Y-138961993D03*
%TD*%
D28*
%TO.C,D40*%
X274972569Y-102799068D03*
X275334915Y-104151364D03*
X280285161Y-101375564D03*
%TD*%
D84*
%TO.C,Y1*%
X215349992Y-87000028D03*
X215349992Y-89200028D03*
X213649992Y-89200028D03*
X213649992Y-87000028D03*
%TD*%
D38*
%TO.C,D25*%
X47794791Y-155296373D03*
X48157137Y-153944077D03*
X42482199Y-153872869D03*
%TD*%
D25*
%TO.C,C24*%
X220099992Y-75280029D03*
X220099992Y-74320029D03*
%TD*%
D30*
%TO.C,D83*%
X102728542Y-127335065D03*
X100893283Y-126843309D03*
X102399726Y-124891705D03*
%TD*%
D47*
%TO.C,C36*%
X184599996Y-91420022D03*
X184599996Y-92380022D03*
%TD*%
D32*
%TO.C,C65*%
X120590568Y-146234782D03*
X121517856Y-146483248D03*
%TD*%
D38*
%TO.C,D1*%
X67516813Y-81692815D03*
X67879159Y-80340519D03*
X62204221Y-80269311D03*
%TD*%
D47*
%TO.C,C4*%
X169199996Y-72220021D03*
X169199996Y-73180021D03*
%TD*%
D85*
%TO.C,U11*%
X234474992Y-75855024D03*
X234474992Y-77125024D03*
X234474992Y-78395024D03*
X234474992Y-79665024D03*
X234474992Y-80935024D03*
X234474992Y-82205024D03*
X234474992Y-83475024D03*
X234474992Y-84745024D03*
X229524992Y-84745024D03*
X229524992Y-83475024D03*
X229524992Y-82205024D03*
X229524992Y-80935024D03*
X229524992Y-79665024D03*
X229524992Y-78395024D03*
X229524992Y-77125024D03*
X229524992Y-75855024D03*
%TD*%
D57*
%TO.C,D22*%
X105853835Y-138177323D03*
X105491489Y-139529619D03*
X111166427Y-139600827D03*
%TD*%
D39*
%TO.C,C46*%
X70153793Y-82399390D03*
X69226505Y-82150924D03*
%TD*%
D43*
%TO.C,D58*%
X285431586Y-169651262D03*
X285069240Y-168298966D03*
X280118994Y-171074766D03*
%TD*%
D37*
%TO.C,R39*%
X231490006Y-190295061D03*
X232510006Y-190295061D03*
%TD*%
D30*
%TO.C,D79*%
X68566480Y-107622518D03*
X66731221Y-107130762D03*
X68237664Y-105179158D03*
%TD*%
D86*
%TO.C,C113*%
X199901980Y-161911737D03*
X200788904Y-161544361D03*
%TD*%
D87*
%TO.C,C116*%
X183282494Y-130972330D03*
X182915118Y-131859254D03*
%TD*%
D32*
%TO.C,C52*%
X148030694Y-117430335D03*
X148957982Y-117678801D03*
%TD*%
D40*
%TO.C,R21*%
X187000005Y-73890031D03*
X187000005Y-74910031D03*
%TD*%
D29*
%TO.C,C89*%
X282196613Y-140307404D03*
X283123901Y-140058938D03*
%TD*%
D88*
%TO.C,D71*%
X215866987Y-138575859D03*
X217160418Y-138040102D03*
X213762228Y-133494522D03*
%TD*%
D37*
%TO.C,R16*%
X188190003Y-68900026D03*
X189210003Y-68900026D03*
%TD*%
D48*
%TO.C,C29*%
X166979991Y-86100019D03*
X166019991Y-86100019D03*
%TD*%
D25*
%TO.C,C6*%
X212199994Y-89580030D03*
X212199994Y-88620030D03*
%TD*%
D43*
%TO.C,D48*%
X250625185Y-137890084D03*
X250262839Y-136537788D03*
X245312593Y-139313588D03*
%TD*%
D40*
%TO.C,R22*%
X187999991Y-73890030D03*
X187999991Y-74910030D03*
%TD*%
D39*
%TO.C,C61*%
X118371544Y-123258825D03*
X117444256Y-123010359D03*
%TD*%
D40*
%TO.C,R7*%
X210099999Y-72690025D03*
X210099999Y-73710025D03*
%TD*%
D43*
%TO.C,D36*%
X240764183Y-101088327D03*
X240401837Y-99736031D03*
X235451591Y-102511831D03*
%TD*%
D19*
%TO.C,SW50*%
X320764150Y-128400959D03*
D20*
X317671939Y-132759807D03*
D19*
X332432040Y-127552165D03*
D20*
X330006241Y-126825239D03*
%TD*%
D51*
%TO.C,R24*%
X184799992Y-77525034D03*
X184799992Y-76505034D03*
%TD*%
D43*
%TO.C,D47*%
X268204333Y-129892787D03*
X267841987Y-128540491D03*
X262891741Y-131316291D03*
%TD*%
D51*
%TO.C,R18*%
X186999990Y-72910051D03*
X186999990Y-71890051D03*
%TD*%
D38*
%TO.C,D26*%
X66811988Y-157926769D03*
X67174334Y-156574473D03*
X61499396Y-156503265D03*
%TD*%
D30*
%TO.C,D73*%
X78427486Y-70820745D03*
X76592227Y-70328989D03*
X78098670Y-68377385D03*
%TD*%
D57*
%TO.C,D9*%
X96286756Y-100278578D03*
X95924410Y-101630874D03*
X101599348Y-101702082D03*
%TD*%
D48*
%TO.C,C119*%
X173979999Y-86300029D03*
X173019999Y-86300029D03*
%TD*%
D26*
%TO.C,U9*%
X189199996Y-71100026D03*
X188399996Y-71100026D03*
D27*
X188049996Y-70150026D03*
X188549996Y-70150026D03*
X189049996Y-70150026D03*
X189549996Y-70150026D03*
X189549996Y-72050026D03*
X189049996Y-72050026D03*
X188549996Y-72050026D03*
X188049996Y-72050026D03*
%TD*%
D53*
%TO.C,D59*%
X266785004Y-176597877D03*
X266085004Y-175385441D03*
X262021864Y-179347877D03*
%TD*%
D19*
%TO.C,SW56*%
X325694648Y-146801856D03*
D20*
X322602437Y-151160704D03*
D19*
X337362538Y-145953062D03*
D20*
X334936739Y-145226136D03*
%TD*%
D33*
%TO.C,D90*%
X244522318Y-85266780D03*
X242687059Y-85758536D03*
X243015875Y-83315176D03*
%TD*%
%TO.C,D91*%
X323945283Y-87263130D03*
X322110024Y-87754886D03*
X322438840Y-85311526D03*
%TD*%
D19*
%TO.C,SW45*%
X296200124Y-110330360D03*
D20*
X293107913Y-114689208D03*
D19*
X307868014Y-109481566D03*
D20*
X305442215Y-108754640D03*
%TD*%
D44*
%TO.C,C74*%
X136342390Y-180712891D03*
X135511006Y-180232891D03*
%TD*%
D28*
%TO.C,D39*%
X294400658Y-101702102D03*
X294763004Y-103054398D03*
X299713250Y-100278598D03*
%TD*%
D40*
%TO.C,R25*%
X183499999Y-91390021D03*
X183499999Y-92410021D03*
%TD*%
D38*
%TO.C,D17*%
X133108294Y-131316303D03*
X133470640Y-129964007D03*
X127795702Y-129892799D03*
%TD*%
D89*
%TO.C,D67*%
X180133012Y-147424197D03*
X178839581Y-147959954D03*
X182237771Y-152505534D03*
%TD*%
D38*
%TO.C,D4*%
X125595587Y-85750468D03*
X125957933Y-84398172D03*
X120282995Y-84326964D03*
%TD*%
D43*
%TO.C,D46*%
X285578009Y-121128743D03*
X285215663Y-119776447D03*
X280265417Y-122552247D03*
%TD*%
D57*
%TO.C,D19*%
X47775061Y-134119689D03*
X47412715Y-135471985D03*
X53087653Y-135543193D03*
%TD*%
D52*
%TO.C,C78*%
X228132208Y-182157776D03*
X227300824Y-182637776D03*
%TD*%
D34*
%TO.C,C39*%
X189599993Y-87875030D03*
X189599993Y-86325030D03*
%TD*%
D38*
%TO.C,D6*%
X160548416Y-102511818D03*
X160910762Y-101159522D03*
X155235824Y-101088314D03*
%TD*%
D19*
%TO.C,SW44*%
X315833646Y-110000066D03*
D20*
X312741435Y-114358914D03*
D19*
X327501536Y-109151272D03*
D20*
X325075737Y-108424346D03*
%TD*%
D90*
%TO.C,SW60*%
X238094812Y-184135207D03*
D91*
X237596302Y-189456186D03*
D90*
X247775104Y-177566185D03*
D91*
X245310837Y-178149548D03*
%TD*%
D19*
%TO.C,SW54*%
X246749719Y-146589563D03*
D20*
X243657508Y-150948411D03*
D19*
X258417609Y-145740769D03*
D20*
X255991810Y-145013843D03*
%TD*%
D34*
%TO.C,C42*%
X203999990Y-87975029D03*
X203999990Y-86425029D03*
%TD*%
D37*
%TO.C,R11*%
X205190025Y-135200023D03*
X206210025Y-135200023D03*
%TD*%
D40*
%TO.C,R13*%
X220099990Y-72290032D03*
X220099990Y-73310032D03*
%TD*%
D47*
%TO.C,C7*%
X213099992Y-72120031D03*
X213099992Y-73080031D03*
%TD*%
D57*
%TO.C,D24*%
X140806665Y-154938699D03*
X140444319Y-156290995D03*
X146119257Y-156362203D03*
%TD*%
D92*
%TO.C,R31*%
X192002490Y-69615030D03*
X193827490Y-69615030D03*
%TD*%
D40*
%TO.C,R3*%
X214449993Y-112740033D03*
X214449993Y-113760033D03*
%TD*%
D34*
%TO.C,C26*%
X205099993Y-140875032D03*
X205099993Y-139325032D03*
%TD*%
D21*
%TO.C,C18*%
X204119991Y-76700029D03*
X205079991Y-76700029D03*
%TD*%
D35*
%TO.C,C95*%
X307643069Y-119325196D03*
X306715781Y-119573662D03*
%TD*%
D21*
%TO.C,C124*%
X229519984Y-191395031D03*
X230479984Y-191395031D03*
%TD*%
D22*
%TO.C,J6*%
X206249992Y-92237528D03*
X189749992Y-92237528D03*
%TD*%
D47*
%TO.C,C127*%
X205099990Y-73220032D03*
X205099990Y-74180032D03*
%TD*%
D28*
%TO.C,D37*%
X333051348Y-98741414D03*
X333413694Y-100093710D03*
X338363940Y-97317910D03*
%TD*%
D47*
%TO.C,C1*%
X216949997Y-112770027D03*
X216949997Y-113730027D03*
%TD*%
D19*
%TO.C,SW40*%
X271841542Y-93026446D03*
D20*
X268749331Y-97385294D03*
D19*
X283509432Y-92177652D03*
D20*
X281083633Y-91450726D03*
%TD*%
D32*
%TO.C,C69*%
X45138085Y-133413126D03*
X46065373Y-133661592D03*
%TD*%
D38*
%TO.C,D15*%
X96306508Y-121455264D03*
X96668854Y-120102968D03*
X90993916Y-120031760D03*
%TD*%
D35*
%TO.C,C104*%
X243401163Y-100381753D03*
X242473875Y-100630219D03*
%TD*%
D56*
%TO.C,C121*%
X174649999Y-90100028D03*
X172749999Y-90100028D03*
%TD*%
D25*
%TO.C,C8*%
X209099993Y-87080030D03*
X209099993Y-86120030D03*
%TD*%
D93*
%TO.C,U1*%
X211474998Y-80275028D03*
D94*
X211474998Y-78925028D03*
D95*
X210124998Y-80275028D03*
D96*
X210124998Y-78925028D03*
D97*
X214237498Y-77000028D03*
X214237498Y-77400028D03*
X214237498Y-77800028D03*
X214237498Y-78200028D03*
X214237498Y-78600028D03*
X214237498Y-79000028D03*
X214237498Y-79400028D03*
X214237498Y-79800028D03*
X214237498Y-80200028D03*
X214237498Y-80600028D03*
X214237498Y-81000028D03*
X214237498Y-81400028D03*
X214237498Y-81800028D03*
X214237498Y-82200028D03*
D98*
X213399998Y-83037528D03*
X212999998Y-83037528D03*
X212599998Y-83037528D03*
X212199998Y-83037528D03*
X211799998Y-83037528D03*
X211399998Y-83037528D03*
X210999998Y-83037528D03*
X210599998Y-83037528D03*
X210199998Y-83037528D03*
X209799998Y-83037528D03*
X209399998Y-83037528D03*
X208999998Y-83037528D03*
X208599998Y-83037528D03*
X208199998Y-83037528D03*
D97*
X207362498Y-82200028D03*
X207362498Y-81800028D03*
X207362498Y-81400028D03*
X207362498Y-81000028D03*
X207362498Y-80600028D03*
X207362498Y-80200028D03*
X207362498Y-79800028D03*
X207362498Y-79400028D03*
X207362498Y-79000028D03*
X207362498Y-78600028D03*
X207362498Y-78200028D03*
X207362498Y-77800028D03*
X207362498Y-77400028D03*
X207362498Y-77000028D03*
D98*
X208199998Y-76162528D03*
X208599998Y-76162528D03*
X208999998Y-76162528D03*
X209399998Y-76162528D03*
X209799998Y-76162528D03*
X210199998Y-76162528D03*
X210599998Y-76162528D03*
X210999998Y-76162528D03*
X211399998Y-76162528D03*
X211799998Y-76162528D03*
X212199998Y-76162528D03*
X212599998Y-76162528D03*
X212999998Y-76162528D03*
X213399998Y-76162528D03*
%TD*%
D30*
%TO.C,D85*%
X58715045Y-144388564D03*
X56879786Y-143896808D03*
X58386229Y-141945204D03*
%TD*%
D99*
%TO.C,U13*%
X194037493Y-65950030D03*
X194037493Y-66900030D03*
X194037493Y-67850030D03*
X191762493Y-67850030D03*
X191762493Y-65950030D03*
%TD*%
D19*
%TO.C,SW31*%
X324989831Y-70567904D03*
D20*
X321897620Y-74926752D03*
D19*
X336657721Y-69719110D03*
D20*
X334231922Y-68992184D03*
%TD*%
D28*
%TO.C,D49*%
X342912368Y-135543203D03*
X343274714Y-136895499D03*
X348224960Y-134119699D03*
%TD*%
D57*
%TO.C,D8*%
X76653250Y-99948294D03*
X76290904Y-101300590D03*
X81965842Y-101371798D03*
%TD*%
D38*
%TO.C,D16*%
X115734568Y-122552247D03*
X116096914Y-121199951D03*
X110421976Y-121128743D03*
%TD*%
D39*
%TO.C,C62*%
X135745277Y-132022879D03*
X134817989Y-131774413D03*
%TD*%
D100*
%TO.C,U3*%
X181849988Y-73350026D03*
X181199988Y-73350026D03*
X180549988Y-73350026D03*
X180549988Y-71450026D03*
X181849988Y-71450026D03*
%TD*%
D47*
%TO.C,C27*%
X206399995Y-140220032D03*
X206399995Y-141180032D03*
%TD*%
D32*
%TO.C,C53*%
X130451551Y-109432992D03*
X131378839Y-109681458D03*
%TD*%
D19*
%TO.C,SW35*%
X249537341Y-83389603D03*
D20*
X246445130Y-87748451D03*
D19*
X261205231Y-82540809D03*
D20*
X258779432Y-81813883D03*
%TD*%
D101*
%TO.C,D102*%
X249049964Y-172751012D03*
X247542592Y-173907659D03*
X246911346Y-171524457D03*
%TD*%
D19*
%TO.C,SW53*%
X264328856Y-138592255D03*
D20*
X261236645Y-142951103D03*
D19*
X275996746Y-137743461D03*
D20*
X273570947Y-137016535D03*
%TD*%
D57*
%TO.C,D21*%
X86425753Y-137080364D03*
X86063407Y-138432660D03*
X91738345Y-138503868D03*
%TD*%
D19*
%TO.C,SW42*%
X236888716Y-109787797D03*
D20*
X233796505Y-114146645D03*
D19*
X248556606Y-108939003D03*
D20*
X246130807Y-108212077D03*
%TD*%
D25*
%TO.C,C125*%
X183199995Y-72380030D03*
X183199995Y-71420030D03*
%TD*%
D102*
%TO.C,D105*%
X187800000Y-92350023D03*
X187800000Y-90250023D03*
%TD*%
D39*
%TO.C,C48*%
X108804490Y-85360090D03*
X107877202Y-85111624D03*
%TD*%
D57*
%TO.C,D7*%
X57636060Y-97317912D03*
X57273714Y-98670208D03*
X62948652Y-98741416D03*
%TD*%
D37*
%TO.C,R6*%
X218089989Y-72200030D03*
X219109989Y-72200030D03*
%TD*%
D49*
%TO.C,C41*%
X192624993Y-87937532D03*
X194174993Y-87937532D03*
%TD*%
D28*
%TO.C,D41*%
X257598891Y-111563111D03*
X257961237Y-112915407D03*
X262911483Y-110139607D03*
%TD*%
D29*
%TO.C,C102*%
X254961915Y-112269683D03*
X255889203Y-112021217D03*
%TD*%
D36*
%TO.C,R17*%
X187020003Y-68900025D03*
X186000003Y-68900025D03*
%TD*%
D103*
%TO.C,D68*%
X188494495Y-158762254D03*
X187958738Y-160055685D03*
X193575832Y-160867013D03*
%TD*%
D43*
%TO.C,D35*%
X258343305Y-93091020D03*
X257980959Y-91738724D03*
X253030713Y-94514524D03*
%TD*%
D32*
%TO.C,C57*%
X54999082Y-96611334D03*
X55926370Y-96859800D03*
%TD*%
D47*
%TO.C,C9*%
X208099991Y-73020027D03*
X208099991Y-73980027D03*
%TD*%
D35*
%TO.C,C83*%
X317504070Y-156126976D03*
X316576782Y-156375442D03*
%TD*%
D54*
%TO.C,C32*%
X195899989Y-70525030D03*
X195899989Y-72075030D03*
%TD*%
D33*
%TO.C,D89*%
X279943551Y-70253527D03*
X278108292Y-70745283D03*
X278437108Y-68301923D03*
%TD*%
M02*
