M48
; DRILL file {KiCad (7.0.0)} date Mon Apr 10 02:10:37 2023
; FORMAT={-:-/ absolute / inch / decimal}
; #@! TF.CreationDate,2023-04-10T02:10:37+01:00
; #@! TF.GenerationSoftware,Kicad,Pcbnew,(7.0.0)
; #@! TF.FileFunction,NonPlated,1,2,NPTH
FMAT,2
INCH
; #@! TA.AperFunction,NonPlated,NPTH,ComponentDrill
T1C0.0256
; #@! TA.AperFunction,NonPlated,NPTH,ComponentDrill
T2C0.0295
; #@! TA.AperFunction,NonPlated,NPTH,ComponentDrill
T3C0.0354
; #@! TA.AperFunction,NonPlated,NPTH,ComponentDrill
T4C0.0454
; #@! TA.AperFunction,NonPlated,NPTH,ComponentDrill
T5C0.0689
; #@! TA.AperFunction,NonPlated,NPTH,ComponentDrill
T6C0.0787
; #@! TA.AperFunction,NonPlated,NPTH,ComponentDrill
T7C0.1181
; #@! TA.AperFunction,NonPlated,NPTH,ComponentDrill
T8C0.1570
%
G90
G05
T1
X7.0516Y-2.6575
X7.2791Y-2.6575
X8.1539Y-2.6575
X8.3815Y-2.6575
X9.2563Y-2.6575
X9.4839Y-2.6575
T2
X7.7165Y-2.501
X7.7165Y-2.6093
T3
X8.7598Y-2.55
X8.878Y-2.55
T4
X3.0512Y-2.7441
X8.2677Y-8.4392
X13.4882Y-2.7441
T5
X2.1144Y-5.9924
X2.3086Y-5.2679
X2.5008Y-6.0959
X2.5027Y-4.5435
X2.6949Y-5.3715
X2.6968Y-3.8191
X2.8632Y-6.096
X2.889Y-4.647
X2.8909Y-3.0946
X3.0573Y-5.3715
X3.0832Y-3.9226
X3.2495Y-6.1995
X3.2514Y-4.6471
X3.2773Y-3.1981
X3.4436Y-5.475
X3.4455Y-3.9226
X3.6361Y-6.109
X3.6378Y-4.7506
X3.6396Y-3.1982
X3.8302Y-5.3845
X3.8319Y-4.0261
X4.0225Y-6.2125
X4.0244Y-4.6601
X4.026Y-3.3017
X4.2166Y-5.488
X4.2185Y-3.9356
X4.4107Y-4.7636
X4.4126Y-3.2112
X4.5951Y-5.4277
X4.6048Y-4.0391
X4.7892Y-4.7033
X4.795Y-6.6136
X4.799Y-3.3147
X4.9815Y-5.5312
X4.9834Y-3.9788
X5.1756Y-4.8068
X5.1775Y-3.2544
X5.1814Y-6.7171
X5.2791Y-5.7727
X5.3697Y-4.0823
X5.4732Y-5.0483
X5.5638Y-3.3579
X5.6166Y-6.8966
X5.6655Y-5.8763
X5.6674Y-4.3239
X5.8596Y-5.1518
X5.8615Y-3.5994
X5.963Y-7.0966
X5.9712Y-6.0876
X6.0537Y-4.4274
X6.1653Y-5.3632
X6.2478Y-3.7029
X6.332Y-7.3819
X6.3576Y-6.1911
X6.3594Y-4.6387
X6.5517Y-5.4667
X6.5536Y-3.9143
X6.6149Y-7.6648
X6.7458Y-4.7422
X6.9399Y-4.0178
X7.2336Y-7.9439
X7.62Y-8.0474
X8.0677Y-8.1067
X8.4677Y-8.1067
X8.9155Y-8.0474
X9.3018Y-7.9439
X9.5955Y-4.0178
X9.7896Y-4.7422
X9.9206Y-7.6648
X9.9819Y-3.9143
X9.9837Y-5.4667
X10.176Y-4.6387
X10.1778Y-6.1911
X10.2034Y-7.3819
X10.2876Y-3.7029
X10.3701Y-5.3632
X10.4817Y-4.4274
X10.5642Y-6.0876
X10.5725Y-7.0966
X10.674Y-3.5994
X10.6758Y-5.1518
X10.8681Y-4.3239
X10.8699Y-5.8763
X10.9189Y-6.8966
X10.9716Y-3.3579
X11.0622Y-5.0483
X11.1657Y-4.0823
X11.2563Y-5.7727
X11.3541Y-6.7171
X11.358Y-3.2544
X11.3598Y-4.8068
X11.5521Y-3.9788
X11.5539Y-5.5312
X11.7365Y-3.3147
X11.7404Y-6.6136
X11.7462Y-4.7033
X11.9306Y-4.0392
X11.9403Y-5.4277
X12.1229Y-3.2112
X12.1247Y-4.7636
X12.317Y-3.9356
X12.3188Y-5.488
X12.5095Y-3.3017
X12.5111Y-4.6601
X12.5129Y-6.2125
X12.7036Y-4.0261
X12.7052Y-5.3845
X12.8958Y-3.1982
X12.8977Y-4.7506
X12.8993Y-6.109
X13.0899Y-3.9226
X13.0918Y-5.475
X13.2582Y-3.1981
X13.2841Y-4.6471
X13.2859Y-6.1995
X13.4523Y-3.9226
X13.4782Y-5.3715
X13.6445Y-3.0946
X13.6464Y-4.647
X13.6723Y-6.096
X13.8386Y-3.8191
X13.8405Y-5.3715
X14.0328Y-4.5435
X14.0346Y-6.0959
X14.2269Y-5.2679
X14.421Y-5.9924
T6
X7.2638Y-6.2992
X9.2717Y-6.2992
T7
X2.1886Y-5.9087
X2.3827Y-5.1843
X2.456Y-5.8769
X2.5768Y-4.4599
X2.6501Y-5.1524
X2.771Y-3.7354
X2.8442Y-4.428
X2.9373Y-6.0123
X2.9651Y-3.011
X3.0383Y-3.7035
X3.1314Y-5.2879
X3.2047Y-5.9804
X3.2324Y-2.9791
X3.3256Y-4.5634
X3.3988Y-5.256
X3.5197Y-3.839
X3.5929Y-4.5315
X3.7103Y-6.0253
X3.7138Y-3.1145
X3.787Y-3.8071
X3.9044Y-5.3009
X3.9777Y-5.9934
X3.9812Y-3.0826
X4.0985Y-4.5764
X4.1718Y-5.269
X4.2926Y-3.852
X4.3659Y-4.5445
X4.4868Y-3.1275
X4.56Y-3.8201
X4.6693Y-5.344
X4.7541Y-3.0956
X4.8634Y-4.6196
X4.8692Y-6.5299
X4.9367Y-5.3122
X5.0575Y-3.8952
X5.1308Y-4.5877
X5.1365Y-6.4981
X5.2516Y-3.1707
X5.3249Y-3.8633
X5.3533Y-5.6891
X5.519Y-3.1388
X5.5474Y-4.9646
X5.6207Y-5.6572
X5.7099Y-6.835
X5.7415Y-4.2402
X5.8148Y-4.9328
X5.9356Y-3.5158
X5.9764Y-6.8734
X6.0089Y-4.2083
X6.0454Y-6.0039
X6.203Y-3.4839
X6.2395Y-5.2795
X6.3128Y-5.9721
X6.4336Y-4.5551
X6.4381Y-7.3466
X6.5069Y-5.2476
X6.6277Y-3.8306
X6.6856Y-7.4526
X6.701Y-4.5232
X6.8951Y-3.7987
X7.3078Y-7.8603
X7.5751Y-7.8284
X8.1177Y-8.0067
X8.3677Y-7.9067
X8.9379Y-7.9379
X9.1535Y-7.7766
X9.6179Y-3.9083
X9.812Y-4.6327
X9.8335Y-3.747
X9.8852Y-7.5587
X9.9913Y-7.3112
X10.0061Y-5.3571
X10.0276Y-4.4714
X10.2003Y-6.0816
X10.2217Y-5.1958
X10.31Y-3.5934
X10.4159Y-5.9203
X10.5041Y-4.3178
X10.5256Y-3.4321
X10.5658Y-6.985
X10.6982Y-5.0423
X10.7197Y-4.1565
X10.7323Y-6.7734
X10.8924Y-5.7667
X10.9138Y-4.881
X10.994Y-3.2484
X11.1079Y-5.6054
X11.1881Y-3.9728
X11.2096Y-3.0871
X11.3765Y-6.6076
X11.3822Y-4.6972
X11.4037Y-3.8115
X11.5764Y-5.4217
X11.5921Y-6.4463
X11.5978Y-4.536
X11.7589Y-3.2052
X11.792Y-5.2604
X11.953Y-3.9296
X11.9745Y-3.0439
X12.1471Y-4.6541
X12.1686Y-3.7683
X12.3412Y-5.3785
X12.3627Y-4.4928
X12.5319Y-3.1922
X12.5354Y-6.103
X12.5568Y-5.2172
X12.726Y-3.9166
X12.7475Y-3.0309
X12.751Y-5.9417
X12.9201Y-4.6411
X12.9416Y-3.7553
X13.1142Y-5.3655
X13.1357Y-4.4798
X13.2806Y-3.0886
X13.3083Y-6.0899
X13.3298Y-5.2042
X13.4747Y-3.8131
X13.4962Y-2.9273
X13.5239Y-5.9286
X13.6688Y-4.5375
X13.6903Y-3.6518
X13.8629Y-5.2619
X13.8844Y-4.3762
X14.057Y-5.9864
X14.0785Y-5.1006
X14.2726Y-5.8251
T8
X2.3076Y-6.0442
X2.5017Y-5.3197
X2.6959Y-4.5953
X2.89Y-3.8708
X3.0563Y-6.1477
X3.0841Y-3.1464
X3.2505Y-5.4233
X3.4446Y-4.6988
X3.6387Y-3.9744
X3.8293Y-6.1607
X3.8328Y-3.2499
X4.0234Y-5.4363
X4.2175Y-4.7118
X4.4117Y-3.9874
X4.6058Y-3.2629
X4.7883Y-5.4795
X4.9824Y-4.755
X4.9882Y-6.6654
X5.1765Y-4.0306
X5.3707Y-3.3061
X5.4723Y-5.8245
X5.6664Y-5.1001
X5.7898Y-6.9966
X5.8605Y-4.3756
X6.0547Y-3.6512
X6.1644Y-6.1394
X6.3585Y-5.4149
X6.4735Y-7.5234
X6.5526Y-4.6905
X6.7467Y-3.966
X7.4268Y-7.9957
X8.2677Y-8.1067
X9.1087Y-7.9957
X9.7887Y-3.966
X9.9828Y-4.6905
X10.062Y-7.5234
X10.1769Y-5.4149
X10.371Y-6.1394
X10.4808Y-3.6512
X10.6749Y-4.3756
X10.7457Y-6.9966
X10.869Y-5.1001
X11.0631Y-5.8245
X11.1648Y-3.3061
X11.3589Y-4.0306
X11.5472Y-6.6654
X11.553Y-4.755
X11.7471Y-5.4795
X11.9297Y-3.2629
X12.1238Y-3.9874
X12.3179Y-4.7118
X12.512Y-5.4363
X12.7026Y-3.2499
X12.7061Y-6.1607
X12.8968Y-3.9744
X13.0909Y-4.6988
X13.285Y-5.4233
X13.4513Y-3.1464
X13.4791Y-6.1477
X13.6455Y-3.8708
X13.8396Y-4.5953
X14.0337Y-5.3197
X14.2278Y-6.0442
T0
M30
