M48
; DRILL file {KiCad 7.0.1} date Sat Apr  8 12:31:42 2023
; FORMAT={-:-/ absolute / inch / decimal}
; #@! TF.CreationDate,2023-04-08T12:31:42+01:00
; #@! TF.GenerationSoftware,Kicad,Pcbnew,7.0.1
; #@! TF.FileFunction,Plated,1,2,PTH
FMAT,2
INCH
; #@! TA.AperFunction,Plated,PTH,ViaDrill
T1C0.0098
; #@! TA.AperFunction,Plated,PTH,ViaDrill
T2C0.0118
; #@! TA.AperFunction,Plated,PTH,ComponentDrill
T3C0.0118
; #@! TA.AperFunction,Plated,PTH,ComponentDrill
T4C0.0236
; #@! TA.AperFunction,Plated,PTH,ComponentDrill
T5C0.0276
; #@! TA.AperFunction,Plated,PTH,ComponentDrill
T6C0.0295
; #@! TA.AperFunction,Plated,PTH,ComponentDrill
T7C0.0394
; #@! TA.AperFunction,Plated,PTH,ComponentDrill
T8C0.0413
; #@! TA.AperFunction,Plated,PTH,ComponentDrill
T9C0.0591
; #@! TA.AperFunction,Plated,PTH,ComponentDrill
T10C0.0787
; #@! TA.AperFunction,Plated,PTH,ComponentDrill
T11C0.1260
%
G90
G05
T1
X1.4651Y-4.1563
X1.6592Y-3.4318
X1.8533Y-2.7074
X2.0475Y-1.9829
X2.2138Y-4.2598
X2.2416Y-1.2585
X2.4079Y-3.5354
X2.4764Y-1.0236
X2.6021Y-2.8109
X2.7962Y-2.0865
X2.9868Y-4.2728
X2.9903Y-1.3621
X2.9903Y-1.0848
X3.1809Y-3.5484
X3.375Y-2.824
X3.5691Y-2.0995
X3.7633Y-1.3751
X3.7633Y-1.1068
X3.9458Y-3.5916
X4.1399Y-2.8671
X4.1457Y-4.7775
X4.334Y-2.1427
X4.5281Y-1.4182
X4.5281Y-1.1457
X4.6298Y-3.9366
X4.8239Y-3.2122
X4.9658Y-5.2003
X5.018Y-2.4877
X5.2121Y-1.7633
X5.2121Y-1.5827
X5.3219Y-4.2515
X5.4599Y-4.1948
X5.4732Y-4.1453
X5.5159Y-3.5269
X5.6437Y-5.8203
X5.7101Y-2.8026
X5.8491Y-2.7426
X5.8613Y-2.6969
X5.8619Y-2.5986
X5.9042Y-1.8976
X5.9042Y-2.0781
X5.9877Y-2.6325
X6.1024Y-5.7179
X6.1024Y-5.7638
X6.2362Y-1.378
X6.6713Y-2.0079
X6.6929Y-1.9409
X6.7146Y-1.9173
X6.7372Y-2.0088
X6.7638Y-2.0237
X6.7835Y-1.9449
X6.7992Y-1.8976
X6.7992Y-1.8406
X6.8465Y-1.192
X6.8465Y-1.1211
X6.9126Y-2.3024
X6.9134Y-2.1654
X6.9252Y-1.0897
X6.9488Y-2.2008
X7.0079Y-3.4213
X7.0187Y-2.3455
X7.0354Y-1.622
X7.0394Y-1.126
X7.0434Y-1.8347
X7.0453Y-4.1203
X7.0512Y-1.5984
X7.0866Y-1.0984
X7.1077Y-4.122
X7.1161Y-3.9667
X7.122Y-1.5984
X7.1339Y-1.126
X7.1378Y-1.622
X7.1535Y-3.7677
X7.1614Y-3.8425
X7.1733Y-3.9291
X7.1733Y-3.9606
X7.1772Y-1.7954
X7.2283Y-3.9291
X7.2559Y-3.6614
X7.4331Y-3.9059
X7.6969Y-1.2047
X7.6969Y-1.3819
X7.6972Y-1.5669
X7.6972Y-1.6461
X8.0079Y-5.626
X8.0315Y-5.6457
X8.0315Y-5.7435
X8.0459Y-5.8921
X8.2047Y-2.728
X8.2893Y-2.728
X8.3067Y-2.6991
X8.3199Y-2.7485
X8.3976Y-3.4432
X8.4606Y-3.4432
X8.5945Y-4.1765
X8.679Y-4.1765
X8.6949Y-4.148
X8.7072Y-4.1936
X8.8427Y-1.9244
X8.9495Y-5.4004
X8.9724Y-1.498
X9.0368Y-2.6489
X9.2309Y-3.3733
X9.425Y-4.0978
X9.5348Y-1.6096
X9.6693Y-1.1457
X9.7218Y-4.9034
X9.7289Y-2.334
X9.923Y-3.0585
X10.1171Y-3.7829
X10.2188Y-1.2645
X10.4129Y-1.989
X10.4213Y-1.1181
X10.6013Y-4.6238
X10.607Y-2.7134
X10.8011Y-3.4379
X10.9837Y-1.2213
X11.1778Y-1.9458
X11.2165Y-1.0984
X11.3719Y-2.6702
X11.566Y-3.3947
X11.7126Y-1.0236
X11.7566Y-1.2083
X11.7601Y-4.1191
X11.9508Y-1.9328
X12.1449Y-2.6572
X12.339Y-3.3817
X12.5054Y-1.1048
X12.5331Y-4.1061
X12.6995Y-1.8292
X12.8936Y-2.5537
X13.0877Y-3.2781
X13.2818Y-4.0026
T2
X0.9082Y-4.3921
X0.9147Y-4.3678
X0.9325Y-4.3986
X0.9391Y-4.3743
X1.0522Y-3.6561
X1.0596Y-3.6285
X1.2907Y-4.5533
X1.2964Y-2.9432
X1.2981Y-4.5257
X1.303Y-2.9189
X1.3208Y-2.9498
X1.3273Y-2.9254
X1.4113Y-3.8075
X1.4178Y-3.7832
X1.4356Y-3.8141
X1.4405Y-2.2072
X1.4422Y-3.7897
X1.4479Y-2.1796
X1.6569Y-4.4957
X1.6634Y-4.4713
X1.679Y-3.1044
X1.6813Y-4.5022
X1.6847Y-1.4943
X1.6864Y-3.0769
X1.6878Y-4.4779
X1.6912Y-1.47
X1.709Y-1.5009
X1.7155Y-1.4765
X1.7995Y-2.3586
X1.8009Y-3.7597
X1.806Y-2.3343
X1.8083Y-3.7321
X1.8239Y-2.3652
X1.8304Y-2.3408
X2.0394Y-4.6569
X2.0451Y-3.0468
X2.0468Y-4.6293
X2.0517Y-3.0225
X2.0672Y-1.6555
X2.0695Y-3.0533
X2.0746Y-1.628
X2.076Y-3.029
X2.16Y-3.9111
X2.1665Y-3.8868
X2.1843Y-3.9176
X2.1892Y-2.3108
X2.1909Y-3.8933
X2.1966Y-2.2832
X2.4277Y-3.208
X2.4299Y-4.5087
X2.4334Y-1.5979
X2.4351Y-3.1804
X2.4364Y-4.4843
X2.4399Y-1.5736
X2.4542Y-4.5152
X2.4577Y-1.6044
X2.4607Y-4.4909
X2.4642Y-1.5801
X2.5482Y-2.4622
X2.5548Y-2.4379
X2.5726Y-2.4687
X2.5739Y-3.7727
X2.5791Y-2.4444
X2.5813Y-3.7451
X2.8124Y-4.6699
X2.8159Y-1.7591
X2.8181Y-3.0598
X2.8198Y-4.6423
X2.8233Y-1.7315
X2.8246Y-3.0355
X2.8425Y-3.0663
X2.849Y-3.042
X2.933Y-3.9241
X2.9395Y-3.8998
X2.9573Y-3.9306
X2.9621Y-2.3238
X2.9638Y-3.9063
X2.9695Y-2.2962
X3.2007Y-3.221
X3.2063Y-1.6109
X3.208Y-3.1934
X3.2129Y-1.5866
X3.2307Y-1.6174
X3.2372Y-1.5931
X3.3212Y-2.4752
X3.3277Y-2.4509
X3.3388Y-3.8158
X3.3455Y-2.4817
X3.3462Y-3.7883
X3.3521Y-2.4574
X3.583Y-3.103
X3.5888Y-5.0133
X3.5889Y-1.7721
X3.5895Y-3.0786
X3.5953Y-4.989
X3.5963Y-1.7445
X3.6073Y-3.1095
X3.6131Y-5.0198
X3.6139Y-3.0852
X3.6196Y-4.9955
X3.6979Y-3.9673
X3.7044Y-3.9429
X3.7222Y-3.9738
X3.727Y-2.367
X3.7287Y-3.9495
X3.7344Y-2.3394
X3.9655Y-3.2642
X3.9712Y-1.6541
X3.9713Y-5.1745
X3.9729Y-3.2366
X3.9778Y-1.6298
X3.9787Y-5.1469
X3.9956Y-1.6606
X4.0021Y-1.6363
X4.0228Y-4.1609
X4.0302Y-4.1333
X4.0861Y-2.5184
X4.0926Y-2.4941
X4.1104Y-2.5249
X4.117Y-2.5006
X4.267Y-3.448
X4.2735Y-3.4237
X4.2913Y-3.4545
X4.2979Y-3.4302
X4.3538Y-1.8153
X4.3612Y-1.7877
X4.3662Y-5.2843
X4.3788Y-5.2624
X4.3819Y-4.3123
X4.388Y-5.2969
X4.3884Y-4.288
X4.4006Y-5.275
X4.4062Y-4.3188
X4.411Y-2.712
X4.4127Y-4.2945
X4.4184Y-2.6844
X4.6495Y-3.6092
X4.6552Y-1.9991
X4.6569Y-3.5816
X4.6618Y-1.9748
X4.6796Y-2.0057
X4.6861Y-1.9813
X4.694Y-5.539
X4.7083Y-5.5143
X4.7149Y-4.4757
X4.7223Y-4.4482
X4.7701Y-2.8634
X4.7766Y-2.8391
X4.7944Y-2.87
X4.801Y-2.8456
X4.9591Y-3.7629
X4.9656Y-3.7385
X4.9834Y-3.7694
X4.99Y-3.7451
X5.0378Y-2.1603
X5.0433Y-5.7462
X5.0452Y-2.1328
X5.0611Y-5.7284
X5.0611Y-5.764
X5.074Y-4.6272
X5.079Y-5.7462
X5.0805Y-4.6028
X5.0983Y-4.6337
X5.1031Y-3.0268
X5.1048Y-4.6094
X5.1105Y-2.9993
X5.2766Y-4.5542
X5.294Y-6.0771
X5.3071Y-4.5624
X5.3142Y-6.0569
X5.3416Y-3.9241
X5.3473Y-2.314
X5.349Y-3.8965
X5.3538Y-2.2897
X5.3717Y-2.3205
X5.3782Y-2.2962
X5.428Y-3.9896
X5.4584Y-3.9978
X5.4622Y-3.1783
X5.4687Y-3.1539
X5.4865Y-3.1848
X5.493Y-3.1605
X5.5827Y-0.9075
X5.6142Y-0.9075
X5.6378Y-0.7913
X5.6648Y-3.1053
X5.6954Y-3.1135
X5.7299Y-2.4752
X5.7372Y-2.4476
X5.8052Y-0.9853
X5.8052Y-1.0128
X5.8052Y-0.9577
X5.8162Y-2.5407
X5.8327Y-0.9853
X5.8327Y-1.0128
X5.8327Y-0.9577
X5.8467Y-2.5489
X5.8543Y-6.4685
X5.8543Y-6.437
X5.8543Y-6.4055
X5.8603Y-0.9853
X5.8603Y-1.0128
X5.8858Y-6.4055
X5.8858Y-6.437
X5.8858Y-6.4685
X5.8878Y-0.9853
X5.8878Y-1.0128
X5.9449Y-1.3228
X5.9449Y-1.2953
X5.9449Y-1.3504
X5.9449Y-1.2402
X5.9449Y-1.2677
X5.9843Y-1.0866
X6.0236Y-1.2402
X6.0236Y-1.3504
X6.0236Y-1.2677
X6.0236Y-1.3228
X6.0236Y-1.2953
X6.0273Y-6.3436
X6.0339Y-6.3193
X6.0517Y-6.3502
X6.0582Y-6.3258
X6.0807Y-0.9862
X6.0807Y-1.0138
X6.1083Y-0.9862
X6.1083Y-1.0138
X6.1358Y-0.9862
X6.1358Y-1.0138
X6.1358Y-0.9587
X6.1575Y-5.5709
X6.1575Y-5.6339
X6.1575Y-5.6024
X6.1575Y-3.5354
X6.1575Y-4.2008
X6.1575Y-3.5039
X6.1575Y-3.4724
X6.1575Y-4.2323
X6.1634Y-0.9587
X6.1634Y-1.0138
X6.1634Y-0.9862
X6.189Y-5.6339
X6.189Y-5.5709
X6.189Y-3.4724
X6.189Y-3.5039
X6.189Y-4.2008
X6.189Y-4.2323
X6.189Y-5.6024
X6.189Y-3.5354
X6.2047Y-1.189
X6.2512Y-4.6823
X6.2512Y-4.7075
X6.2764Y-4.7075
X6.2764Y-4.6823
X6.2874Y-4.2323
X6.2874Y-4.2008
X6.2972Y-1.125
X6.3045Y-4.2963
X6.3071Y-1.0778
X6.3189Y-4.2008
X6.3189Y-4.2323
X6.3331Y-4.2963
X6.3701Y-1.439
X6.3701Y-1.4665
X6.3976Y-1.439
X6.3976Y-1.4665
X6.4099Y-6.5048
X6.4134Y-1.1093
X6.4134Y-1.1408
X6.4173Y-6.4773
X6.4173Y-3.1102
X6.4173Y-2.3425
X6.4173Y-2.4055
X6.4173Y-3.0787
X6.4173Y-2.374
X6.4173Y-3.0472
X6.4202Y-5.0463
X6.4252Y-1.439
X6.4252Y-1.4665
X6.4345Y-5.0216
X6.4449Y-1.1093
X6.4449Y-1.1408
X6.4488Y-3.0787
X6.4488Y-2.4055
X6.4488Y-2.3425
X6.4488Y-3.1102
X6.4488Y-3.0472
X6.4488Y-2.374
X6.4606Y-1.3504
X6.4606Y-1.2874
X6.4606Y-1.3189
X6.4764Y-1.1093
X6.4764Y-1.1408
X6.4783Y-0.7185
X6.4902Y-1.876
X6.4902Y-1.6339
X6.4902Y-1.5807
X6.4902Y-1.6063
X6.4902Y-1.8445
X6.4921Y-1.2874
X6.4921Y-1.3189
X6.4921Y-1.3504
X6.5079Y-1.1093
X6.5079Y-1.1408
X6.5177Y-1.6063
X6.5177Y-1.5807
X6.5177Y-1.6339
X6.5276Y-1.439
X6.5276Y-1.4665
X6.5394Y-1.1408
X6.5394Y-1.1093
X6.5422Y-3.8263
X6.5546Y-3.8478
X6.5551Y-1.439
X6.5551Y-1.4665
X6.5667Y-3.8121
X6.5709Y-1.1408
X6.5791Y-3.8336
X6.5827Y-1.439
X6.5827Y-1.4665
X6.5906Y-1.0187
X6.5925Y-0.7185
X6.6181Y-1.8366
X6.6181Y-1.8681
X6.622Y-2.3465
X6.622Y-2.378
X6.6496Y-1.8366
X6.6496Y-1.8681
X6.6575Y-1.125
X6.7205Y-2.6102
X6.7685Y-0.7656
X6.7765Y-1.4606
X6.7766Y-1.4291
X6.8029Y-5.3284
X6.815Y-1.192
X6.8155Y-5.3066
X6.8247Y-5.341
X6.8272Y-1.7461
X6.8317Y-2.0906
X6.8373Y-5.3192
X6.8524Y-0.9016
X6.8524Y-0.9331
X6.8543Y-4.0157
X6.8543Y-4.0472
X6.8543Y-3.9843
X6.8548Y-1.7461
X6.8556Y-3.744
X6.8783Y-3.7313
X6.8819Y-2.7047
X6.8819Y-1.0345
X6.8837Y-1.7835
X6.8842Y-1.8248
X6.8848Y-1.9075
X6.8969Y-2.8354
X6.9067Y-6.5071
X6.9067Y-6.4819
X6.9075Y-1.0128
X6.9075Y-0.9577
X6.9075Y-0.9853
X6.9319Y-6.5071
X6.9319Y-6.4819
X6.935Y-0.9577
X6.935Y-1.0128
X6.935Y-0.9853
X6.9616Y-1.189
X6.9626Y-0.9853
X6.9626Y-1.0128
X6.9685Y-1.062
X6.9902Y-0.9853
X6.9902Y-1.0128
X6.9961Y-1.7027
X7.0126Y-3.8376
X7.0126Y-3.936
X7.0276Y-1.7028
X7.0433Y-2.401
X7.0472Y-1.3228
X7.0472Y-1.2953
X7.0472Y-1.3504
X7.0472Y-1.2402
X7.0472Y-1.2677
X7.0787Y-3.6535
X7.0827Y-2.3898
X7.126Y-1.2402
X7.126Y-1.3228
X7.126Y-1.3504
X7.126Y-1.2677
X7.126Y-1.2953
X7.1339Y-2.5276
X7.1339Y-2.3189
X7.1339Y-2.4449
X7.1339Y-2.3465
X7.1339Y-2.4724
X7.1339Y-2.5
X7.1339Y-2.2911
X7.1567Y-1.6809
X7.1614Y-2.5276
X7.1821Y-1.6478
X7.1831Y-1.0138
X7.1831Y-0.9862
X7.1852Y-2.2522
X7.189Y-2.5276
X7.1968Y-1.6811
X7.2008Y-3.6535
X7.2106Y-1.0138
X7.2106Y-0.9862
X7.2372Y-1.6811
X7.2382Y-1.0138
X7.2382Y-0.9587
X7.2382Y-0.9862
X7.2598Y-3.1575
X7.2598Y-3.2087
X7.2631Y-5.2958
X7.2638Y-1.9252
X7.2657Y-0.9587
X7.2657Y-1.0138
X7.2657Y-0.9862
X7.2717Y-1.6417
X7.2773Y-5.3205
X7.2795Y-2.2911
X7.3071Y-2.2913
X7.3071Y-2.5276
X7.3179Y-6.5638
X7.3179Y-6.5352
X7.3189Y-3.9843
X7.3189Y-4.0157
X7.3189Y-4.0472
X7.3346Y-2.2913
X7.3347Y-2.5275
X7.3359Y-3.7359
X7.3465Y-1.9037
X7.3485Y-3.7141
X7.3577Y-3.7485
X7.3622Y-2.2913
X7.3622Y-2.5
X7.3622Y-2.5276
X7.3622Y-2.3465
X7.3622Y-2.4724
X7.3622Y-2.3189
X7.3622Y-2.4449
X7.3701Y-4.1132
X7.3701Y-4.1417
X7.3703Y-3.7267
X7.3937Y-4.3858
X7.3976Y-4.1417
X7.3976Y-4.1132
X7.4213Y-4.3976
X7.4267Y-3.6654
X7.4267Y-3.5394
X7.4911Y-2.0906
X7.5276Y-1.8525
X7.5276Y-1.825
X7.5492Y-0.8652
X7.5551Y-1.8525
X7.5827Y-1.8525
X7.5925Y-3.9628
X7.5941Y-5.2215
X7.5945Y-3.7008
X7.6065Y-5.243
X7.6102Y-1.8525
X7.6186Y-5.2073
X7.6311Y-5.2288
X7.7387Y-4.0335
X7.753Y-4.0088
X7.7928Y-6.4122
X7.7993Y-6.4365
X7.8171Y-6.4056
X7.8236Y-6.43
X7.8402Y-4.7589
X7.8687Y-4.7589
X7.8969Y-4.3728
X7.8969Y-4.3476
X7.922Y-4.3476
X7.922Y-4.3728
X8.0099Y-0.9587
X8.0099Y-0.9862
X8.0099Y-1.0138
X8.0374Y-0.9862
X8.0374Y-0.9587
X8.0374Y-1.0138
X8.065Y-1.0138
X8.065Y-0.9862
X8.0926Y-1.0138
X8.0926Y-0.9862
X8.1496Y-1.3228
X8.1496Y-1.2953
X8.1496Y-1.3504
X8.1496Y-1.2402
X8.1496Y-1.2677
X8.189Y-1.0866
X8.2038Y-6.3573
X8.2112Y-6.3848
X8.2283Y-1.2402
X8.2283Y-1.3504
X8.2283Y-1.2953
X8.2283Y-1.3228
X8.2283Y-1.2677
X8.2855Y-1.0138
X8.2855Y-0.9862
X8.2874Y-1.7835
X8.313Y-0.9862
X8.313Y-1.0138
X8.3266Y-2.5489
X8.3406Y-0.9862
X8.3406Y-1.0138
X8.3406Y-0.9587
X8.3571Y-2.5407
X8.3681Y-0.9587
X8.3681Y-1.0138
X8.3681Y-0.9862
X8.4718Y-2.3828
X8.4779Y-3.1135
X8.4783Y-2.4071
X8.4961Y-2.3763
X8.5027Y-2.4006
X8.5083Y-3.1054
X8.5354Y-0.7913
X8.5591Y-0.9075
X8.5906Y-0.9075
X8.6159Y-3.119
X8.6233Y-3.1466
X8.7148Y-3.9978
X8.7453Y-3.9896
X8.8574Y-5.9828
X8.86Y-3.8317
X8.8661Y-4.5624
X8.8666Y-3.856
X8.8753Y-6.0006
X8.8753Y-5.965
X8.8828Y-2.3279
X8.8844Y-3.8252
X8.8902Y-2.3555
X8.8909Y-3.8495
X8.8931Y-5.9828
X8.8965Y-4.5542
X9.0034Y-3.0739
X9.0041Y-4.5679
X9.0099Y-3.0982
X9.0115Y-4.5955
X9.0278Y-3.0673
X9.0343Y-3.0917
X9.1639Y-2.0679
X9.1704Y-2.0923
X9.1859Y-5.7297
X9.1882Y-2.0614
X9.1948Y-2.0857
X9.2061Y-5.7499
X9.271Y-3.7768
X9.2784Y-3.8043
X9.308Y-2.8042
X9.3154Y-2.8317
X9.3917Y-4.5227
X9.3982Y-4.5471
X9.416Y-4.5162
X9.4225Y-4.5406
X9.4822Y-5.4421
X9.4948Y-5.4639
X9.504Y-5.4295
X9.5166Y-5.4513
X9.5521Y-3.5168
X9.5586Y-3.5412
X9.5749Y-2.013
X9.5765Y-3.5103
X9.5823Y-2.0406
X9.583Y-3.5346
X9.6955Y-2.759
X9.6962Y-4.253
X9.702Y-2.7833
X9.7036Y-4.2806
X9.7199Y-2.7525
X9.7264Y-2.7768
X9.8479Y-1.7229
X9.8544Y-1.7472
X9.865Y-5.2827
X9.8722Y-1.7164
X9.8788Y-1.7407
X9.8792Y-5.3074
X9.9631Y-3.4619
X9.9705Y-3.4895
X9.992Y-2.4591
X9.9994Y-2.4867
X10.0837Y-4.2079
X10.0903Y-4.2322
X10.1081Y-4.2014
X10.1146Y-4.2257
X10.2304Y-5.0821
X10.2361Y-3.1718
X10.2369Y-5.1065
X10.2426Y-3.1961
X10.2547Y-5.0756
X10.2589Y-1.668
X10.2605Y-3.1653
X10.2612Y-5.0999
X10.2663Y-1.6956
X10.267Y-3.1896
X10.3795Y-2.414
X10.3802Y-3.908
X10.386Y-2.4383
X10.3876Y-3.9356
X10.4039Y-2.4074
X10.4104Y-2.4318
X10.6128Y-1.6797
X10.6193Y-1.704
X10.6371Y-1.6732
X10.6413Y-5.0268
X10.6436Y-1.6975
X10.6471Y-3.1169
X10.6487Y-5.0544
X10.6545Y-3.1444
X10.7569Y-2.4159
X10.7642Y-2.4435
X10.7677Y-3.8629
X10.7743Y-3.8872
X10.7921Y-3.8563
X10.7986Y-3.8807
X11.001Y-3.1286
X11.0075Y-3.1529
X11.0238Y-1.6248
X11.0253Y-3.1221
X11.0312Y-1.6524
X11.0319Y-3.1464
X11.1444Y-2.3708
X11.1451Y-3.8648
X11.1509Y-2.3951
X11.1525Y-3.8924
X11.1687Y-2.3643
X11.1753Y-2.3886
X11.3858Y-1.6667
X11.3892Y-4.5775
X11.3923Y-1.691
X11.3958Y-4.6018
X11.4101Y-1.6602
X11.412Y-3.0737
X11.4136Y-4.571
X11.4166Y-1.6845
X11.4194Y-3.1013
X11.4201Y-4.5953
X11.5298Y-2.4029
X11.5326Y-3.8197
X11.5372Y-2.4305
X11.5392Y-3.844
X11.557Y-3.8131
X11.5635Y-3.8375
X11.774Y-3.1156
X11.7805Y-3.1399
X11.7968Y-1.6118
X11.7983Y-3.1091
X11.8003Y-4.5226
X11.8042Y-1.6394
X11.8048Y-3.1334
X11.8076Y-4.5501
X11.9174Y-2.3578
X11.9181Y-3.8518
X11.9239Y-2.3821
X11.9255Y-3.8794
X11.9417Y-2.3512
X11.9482Y-2.3756
X12.1345Y-1.5631
X12.141Y-1.5875
X12.1588Y-1.5566
X12.1622Y-4.5645
X12.1653Y-1.581
X12.1687Y-4.5888
X12.185Y-3.0607
X12.1865Y-4.558
X12.1924Y-3.0883
X12.1931Y-4.5823
X12.2785Y-2.2994
X12.2859Y-2.3269
X12.3056Y-3.8067
X12.3121Y-3.831
X12.3299Y-3.8001
X12.3365Y-3.8245
X12.5227Y-3.012
X12.5292Y-3.0364
X12.5455Y-1.5082
X12.547Y-3.0055
X12.5529Y-1.5358
X12.5536Y-3.0298
X12.5732Y-4.5096
X12.5806Y-4.5371
X12.6661Y-2.2542
X12.6668Y-3.7482
X12.6726Y-2.2786
X12.6742Y-3.7758
X12.6904Y-2.2477
X12.6969Y-2.272
X12.9109Y-4.4609
X12.9174Y-4.4853
X12.9337Y-2.9571
X12.9353Y-4.4544
X12.9411Y-2.9847
X12.9418Y-4.4787
X13.0543Y-3.7031
X13.0608Y-3.7274
X13.0787Y-3.6966
X13.0852Y-3.7209
X13.3219Y-4.406
X13.3293Y-4.4336
T3
X7.0827Y-2.0
X7.0827Y-2.0512
X7.0827Y-2.1024
X7.1339Y-2.0
X7.1339Y-2.0512
X7.1339Y-2.1024
X7.185Y-2.0
X7.185Y-2.0512
X7.185Y-2.1024
T5
X6.876Y-4.3398
X6.876Y-4.4098
X6.876Y-4.4799
X6.876Y-4.55
X6.876Y-4.6201
X6.876Y-4.6902
X6.876Y-4.7602
X6.876Y-4.8303
X7.2972Y-4.3047
X7.2972Y-4.3748
X7.2972Y-4.4449
X7.2972Y-4.515
X7.2972Y-4.585
X7.2972Y-4.6551
X7.2972Y-4.7252
X7.2972Y-4.7953
T6
X6.1772Y-1.3681
X6.1772Y-1.4469
X6.1772Y-1.5256
X6.1772Y-1.6043
X6.1772Y-1.6831
X6.1772Y-1.7618
X6.1772Y-1.8406
T7
X6.2992Y-1.3043
X6.2992Y-1.4043
X6.2992Y-1.5043
X6.2992Y-1.6043
X6.2992Y-1.7043
X6.2992Y-1.8043
X6.2992Y-1.9043
X6.8606Y-2.4921
X6.9606Y-2.4921
X7.0606Y-2.4921
X12.2652Y-1.7147
X12.3618Y-1.6888
X12.4584Y-1.6629
X12.555Y-1.637
T8
X6.9882Y-3.3228
X7.0866Y-3.3228
X7.185Y-3.3228
T10
X6.3091Y-0.9744
X6.3091Y-2.2343
X6.4921Y-3.4979
X6.4921Y-5.5572
X7.6811Y-3.4979
X7.6811Y-5.5572
X7.8642Y-0.9744
X7.8642Y-2.2343
T11
X2.2638Y-0.9941
X2.2835Y-4.8819
X5.4567Y-1.0236
X6.5157Y-4.5276
X7.0866Y-6.752
X7.6575Y-4.5276
X8.7165Y-1.0236
X11.8898Y-4.8819
X11.9094Y-0.9941
T4
G00X5.8142Y-0.7205
M15
G01X5.8142Y-0.7441
M16
G05
G00X5.8142Y-0.8752
M15
G01X5.8142Y-0.9185
M16
G05
G00X6.1543Y-0.7205
M15
G01X6.1543Y-0.7441
M16
G05
G00X6.1543Y-0.8752
M15
G01X6.1543Y-0.9185
M16
G05
G00X6.9165Y-0.7205
M15
G01X6.9165Y-0.7441
M16
G05
G00X6.9165Y-0.8752
M15
G01X6.9165Y-0.9185
M16
G05
G00X7.2567Y-0.7205
M15
G01X7.2567Y-0.7441
M16
G05
G00X7.2567Y-0.8752
M15
G01X7.2567Y-0.9185
M16
G05
G00X8.0189Y-0.7205
M15
G01X8.0189Y-0.7441
M16
G05
G00X8.0189Y-0.8752
M15
G01X8.0189Y-0.9185
M16
G05
G00X8.3591Y-0.7205
M15
G01X8.3591Y-0.7441
M16
G05
G00X8.3591Y-0.8752
M15
G01X8.3591Y-0.9185
M16
G05
T9
G00X5.9016Y-4.4587
M15
G01X5.9016Y-4.5965
M16
G05
G00X8.2717Y-4.4587
M15
G01X8.2717Y-4.5965
M16
G05
T0
M30
