%TF.GenerationSoftware,KiCad,Pcbnew,(7.0.0)*%
%TF.CreationDate,2023-04-10T23:44:35+01:00*%
%TF.ProjectId,Honeydew,486f6e65-7964-4657-972e-6b696361645f,V2.0*%
%TF.SameCoordinates,Original*%
%TF.FileFunction,Profile,NP*%
%FSLAX46Y46*%
G04 Gerber Fmt 4.6, Leading zero omitted, Abs format (unit mm)*
G04 Created by KiCad (PCBNEW (7.0.0)) date 2023-04-10 23:44:35*
%MOMM*%
%LPD*%
G01*
G04 APERTURE LIST*
%TA.AperFunction,Profile*%
%ADD10C,0.100000*%
%TD*%
%TA.AperFunction,Profile*%
%ADD11C,0.120000*%
%TD*%
G04 APERTURE END LIST*
D10*
X73200000Y-68000001D02*
G75*
G03*
X71267700Y-69484043I0J-1999999D01*
G01*
X231000000Y-65999997D02*
G75*
G03*
X233000000Y-68000000I2000000J-3D01*
G01*
X372534295Y-158324936D02*
X348732301Y-69484043D01*
X188999999Y-62000000D02*
X188999999Y-66000000D01*
X164459492Y-204557465D02*
G75*
G03*
X255540507Y-204557465I45540507J84557466D01*
G01*
X346800000Y-68000000D02*
X233000000Y-68000000D01*
X187000000Y-68000000D02*
X73200000Y-68000000D01*
X47465764Y-158324949D02*
G75*
G03*
X48879916Y-160774427I1931836J-517651D01*
G01*
X309139347Y-177284215D02*
G75*
G03*
X267571000Y-196587318I31404553J-122037585D01*
G01*
X205400000Y-60000000D02*
X191000002Y-59999999D01*
X371120084Y-160774430D02*
X309139347Y-177284217D01*
X348732301Y-69484043D02*
G75*
G03*
X346800000Y-68000000I-1932301J-515957D01*
G01*
X71267699Y-69484043D02*
X47465705Y-158324933D01*
X231000001Y-66000000D02*
X231000001Y-62000000D01*
X231000001Y-62000002D02*
G75*
G03*
X228999998Y-59999999I-2000001J2D01*
G01*
X214600000Y-60000000D02*
X228999998Y-59999999D01*
X214600000Y-66450000D02*
X214600000Y-60000000D01*
X255540507Y-204557466D02*
G75*
G03*
X267570999Y-196587317I-152058807J242588966D01*
G01*
X110860653Y-177284214D02*
X48879916Y-160774427D01*
X152429000Y-196587316D02*
G75*
G03*
X110860653Y-177284214I-72972900J-102734484D01*
G01*
X191000002Y-59999999D02*
G75*
G03*
X188999999Y-62000002I-2J-2000001D01*
G01*
X205400000Y-66450000D02*
X205400000Y-60000000D01*
X371120099Y-160774485D02*
G75*
G03*
X372534294Y-158324936I-517699J1931885D01*
G01*
X152429000Y-196587315D02*
G75*
G03*
X164459492Y-204557464I164089300J234618815D01*
G01*
X187000000Y-68000000D02*
G75*
G03*
X189000000Y-65999997I0J2000000D01*
G01*
%TO.C,D103*%
X186073113Y-205715097D02*
X189550446Y-206646845D01*
X185270774Y-208709467D02*
X186073113Y-205715097D01*
X189550446Y-206646845D02*
X188748107Y-209641215D01*
X188748107Y-209641215D02*
X185270774Y-208709467D01*
%TO.C,D104*%
X208199792Y-209109402D02*
X211799792Y-209109402D01*
X208199792Y-212209402D02*
X208199792Y-209109402D01*
X211799792Y-209109402D02*
X211799792Y-212209402D01*
X211799792Y-212209402D02*
X208199792Y-212209402D01*
%TO.C,D105*%
X230474323Y-206640208D02*
X233951656Y-205708460D01*
X231276662Y-209634578D02*
X230474323Y-206640208D01*
X233951656Y-205708460D02*
X234753995Y-208702830D01*
X234753995Y-208702830D02*
X231276662Y-209634578D01*
%TO.C,D109*%
X321825100Y-160039128D02*
X325302433Y-159107380D01*
X322627439Y-163033498D02*
X321825100Y-160039128D01*
X325302433Y-159107380D02*
X326104772Y-162101750D01*
X326104772Y-162101750D02*
X322627439Y-163033498D01*
%TO.C,D85*%
X65907897Y-119344925D02*
X69385230Y-120276673D01*
X65105558Y-122339295D02*
X65907897Y-119344925D01*
X69385230Y-120276673D02*
X68582891Y-123271043D01*
X68582891Y-123271043D02*
X65105558Y-122339295D01*
%TO.C,D102*%
X160886597Y-192084862D02*
X163432182Y-194630447D01*
X158694566Y-194276893D02*
X160886597Y-192084862D01*
X163432182Y-194630447D02*
X161240151Y-196822478D01*
X161240151Y-196822478D02*
X158694566Y-194276893D01*
%TO.C,D95*%
X82669567Y-144302320D02*
X79192234Y-143370572D01*
X83471906Y-141307950D02*
X82669567Y-144302320D01*
X79192234Y-143370572D02*
X79994573Y-140376202D01*
X79994573Y-140376202D02*
X83471906Y-141307950D01*
%TO.C,D130*%
X247722194Y-104293903D02*
X251199527Y-103362155D01*
X248524533Y-107288273D02*
X247722194Y-104293903D01*
X251199527Y-103362155D02*
X252001866Y-106356525D01*
X252001866Y-106356525D02*
X248524533Y-107288273D01*
%TO.C,D67*%
X219316146Y-140263957D02*
X222433838Y-142063957D01*
X217766146Y-142948635D02*
X219316146Y-140263957D01*
X222433838Y-142063957D02*
X220883838Y-144748635D01*
X220883838Y-144748635D02*
X217766146Y-142948635D01*
%TO.C,D91*%
X156683991Y-162490926D02*
X153206658Y-161559178D01*
X157486330Y-159496556D02*
X156683991Y-162490926D01*
X153206658Y-161559178D02*
X154008997Y-158564808D01*
X154008997Y-158564808D02*
X157486330Y-159496556D01*
%TO.C,D112*%
X359824969Y-140740189D02*
X356347636Y-141671937D01*
X359022630Y-137745819D02*
X359824969Y-140740189D01*
X356347636Y-141671937D02*
X355545297Y-138677567D01*
X355545297Y-138677567D02*
X359022630Y-137745819D01*
%TO.C,D74*%
X94786092Y-85173538D02*
X98263425Y-86105286D01*
X93983753Y-88167908D02*
X94786092Y-85173538D01*
X98263425Y-86105286D02*
X97461086Y-89099656D01*
X97461086Y-89099656D02*
X93983753Y-88167908D01*
%TO.C,D78*%
X168800497Y-103362153D02*
X172277830Y-104293901D01*
X167998158Y-106356523D02*
X168800497Y-103362153D01*
X172277830Y-104293901D02*
X171475491Y-107288271D01*
X171475491Y-107288271D02*
X167998158Y-106356523D01*
%TO.C,D88*%
X123986669Y-123402582D02*
X127464002Y-124334330D01*
X123184330Y-126396952D02*
X123986669Y-123402582D01*
X127464002Y-124334330D02*
X126661663Y-127328700D01*
X126661663Y-127328700D02*
X123184330Y-126396952D01*
%TO.C,D90*%
X158939495Y-140163918D02*
X162416828Y-141095666D01*
X158137156Y-143158288D02*
X158939495Y-140163918D01*
X162416828Y-141095666D02*
X161614489Y-144090036D01*
X161614489Y-144090036D02*
X158137156Y-143158288D01*
%TO.C,D99*%
X94697582Y-159107366D02*
X98174915Y-160039114D01*
X93895243Y-162101736D02*
X94697582Y-159107366D01*
X98174915Y-160039114D02*
X97372576Y-163033484D01*
X97372576Y-163033484D02*
X93895243Y-162101736D01*
%TO.C,D68*%
X231750007Y-158199990D02*
X231750007Y-161799990D01*
X228650007Y-158199990D02*
X231750007Y-158199990D01*
X231750007Y-161799990D02*
X228650007Y-161799990D01*
X228650007Y-161799990D02*
X228650007Y-158199990D01*
%TO.C,D82*%
X112164089Y-107830818D02*
X108686756Y-106899070D01*
X112966428Y-104836448D02*
X112164089Y-107830818D01*
X108686756Y-106899070D02*
X109489095Y-103904700D01*
X109489095Y-103904700D02*
X112966428Y-104836448D01*
%TO.C,D93*%
X121731171Y-145729568D02*
X118253838Y-144797820D01*
X122533510Y-142735198D02*
X121731171Y-145729568D01*
X118253838Y-144797820D02*
X119056177Y-141803450D01*
X119056177Y-141803450D02*
X122533510Y-142735198D01*
%TO.C,D75*%
X114419598Y-85503821D02*
X117896931Y-86435569D01*
X113617259Y-88498191D02*
X114419598Y-85503821D01*
X117896931Y-86435569D02*
X117094592Y-89429939D01*
X117094592Y-89429939D02*
X113617259Y-88498191D01*
%TO.C,D89*%
X141360383Y-132166630D02*
X144837716Y-133098378D01*
X140558044Y-135161000D02*
X141360383Y-132166630D01*
X144837716Y-133098378D02*
X144035377Y-136092748D01*
X144035377Y-136092748D02*
X140558044Y-135161000D01*
%TO.C,D94*%
X102303077Y-144632602D02*
X98825744Y-143700854D01*
X103105416Y-141638232D02*
X102303077Y-144632602D01*
X98825744Y-143700854D02*
X99628083Y-140706484D01*
X99628083Y-140706484D02*
X103105416Y-141638232D01*
%TO.C,D113*%
X340807781Y-143370581D02*
X337330448Y-144302329D01*
X340005442Y-140376211D02*
X340807781Y-143370581D01*
X337330448Y-144302329D02*
X336528109Y-141307959D01*
X336528109Y-141307959D02*
X340005442Y-140376211D01*
%TO.C,U4*%
X214250000Y-168320000D02*
X214250000Y-152570000D01*
X213750000Y-168820000D02*
X206250000Y-168820000D01*
X213750000Y-152070000D02*
X206250000Y-152070000D01*
X205750000Y-152570000D02*
X205750000Y-168320000D01*
X213750000Y-168820000D02*
G75*
G03*
X214250000Y-168320000I-1J500001D01*
G01*
X214250000Y-152570000D02*
G75*
G03*
X213750000Y-152070000I-499998J2D01*
G01*
X205750000Y-168320000D02*
G75*
G03*
X206250000Y-168820000I500000J0D01*
G01*
X206250000Y-152070000D02*
G75*
G03*
X205750000Y-152570000I0J-500000D01*
G01*
%TO.C,D77*%
X151221374Y-95364815D02*
X154698707Y-96296563D01*
X150419035Y-98359185D02*
X151221374Y-95364815D01*
X154698707Y-96296563D02*
X153896368Y-99290933D01*
X153896368Y-99290933D02*
X150419035Y-98359185D01*
%TO.C,D125*%
X330946780Y-106568780D02*
X327469447Y-107500528D01*
X330144441Y-103574410D02*
X330946780Y-106568780D01*
X327469447Y-107500528D02*
X326667108Y-104506158D01*
X326667108Y-104506158D02*
X330144441Y-103574410D01*
%TO.C,D110*%
X341458619Y-159708858D02*
X344935952Y-158777110D01*
X342260958Y-162703228D02*
X341458619Y-159708858D01*
X344935952Y-158777110D02*
X345738291Y-161771480D01*
X345738291Y-161771480D02*
X342260958Y-162703228D01*
%TO.C,D114*%
X321174271Y-143700851D02*
X317696938Y-144632599D01*
X320371932Y-140706481D02*
X321174271Y-143700851D01*
X317696938Y-144632599D02*
X316894599Y-141638229D01*
X316894599Y-141638229D02*
X320371932Y-140706481D01*
%TO.C,D129*%
X256932355Y-124757409D02*
X253455022Y-125689157D01*
X256130016Y-121763039D02*
X256932355Y-124757409D01*
X253455022Y-125689157D02*
X252652683Y-122694787D01*
X252652683Y-122694787D02*
X256130016Y-121763039D01*
%TO.C,D87*%
X104558594Y-122305587D02*
X108035927Y-123237335D01*
X103756255Y-125299957D02*
X104558594Y-122305587D01*
X108035927Y-123237335D02*
X107233588Y-126231705D01*
X107233588Y-126231705D02*
X103756255Y-125299957D01*
%TO.C,D100*%
X124133122Y-171925079D02*
X127610455Y-172856827D01*
X123330783Y-174919449D02*
X124133122Y-171925079D01*
X127610455Y-172856827D02*
X126808116Y-175851197D01*
X126808116Y-175851197D02*
X123330783Y-174919449D01*
%TO.C,D73*%
X75768892Y-82543142D02*
X79246225Y-83474890D01*
X74966553Y-85537512D02*
X75768892Y-82543142D01*
X79246225Y-83474890D02*
X78443886Y-86469260D01*
X78443886Y-86469260D02*
X74966553Y-85537512D01*
%TO.C,D118*%
X257583176Y-141095669D02*
X261060509Y-140163921D01*
X258385515Y-144090039D02*
X257583176Y-141095669D01*
X261060509Y-140163921D02*
X261862848Y-143158291D01*
X261862848Y-143158291D02*
X258385515Y-144090039D01*
%TO.C,D128*%
X274511494Y-116760098D02*
X271034161Y-117691846D01*
X273709155Y-113765728D02*
X274511494Y-116760098D01*
X271034161Y-117691846D02*
X270231822Y-114697476D01*
X270231822Y-114697476D02*
X273709155Y-113765728D01*
%TO.C,D135*%
X340753792Y-83474896D02*
X344231125Y-82543148D01*
X341556131Y-86469266D02*
X340753792Y-83474896D01*
X344231125Y-82543148D02*
X345033464Y-85537518D01*
X345033464Y-85537518D02*
X341556131Y-86469266D01*
%TO.C,D96*%
X63652396Y-141671943D02*
X60175063Y-140740195D01*
X64454735Y-138677573D02*
X63652396Y-141671943D01*
X60175063Y-140740195D02*
X60977402Y-137745825D01*
X60977402Y-137745825D02*
X64454735Y-138677573D01*
D11*
%TO.C,J2*%
X214350000Y-66700000D02*
G75*
G03*
X214600000Y-66450000I0J250000D01*
G01*
X205400000Y-66450000D02*
G75*
G03*
X205650000Y-66700000I249999J-1D01*
G01*
X205650000Y-66700000D02*
X214350000Y-66700000D01*
D10*
%TO.C,D81*%
X131592175Y-108927797D02*
X128114842Y-107996049D01*
X132394514Y-105933427D02*
X131592175Y-108927797D01*
X128114842Y-107996049D02*
X128917181Y-105001679D01*
X128917181Y-105001679D02*
X132394514Y-105933427D01*
%TO.C,D127*%
X291885184Y-107996057D02*
X288407851Y-108927805D01*
X291082845Y-105001687D02*
X291885184Y-107996057D01*
X288407851Y-108927805D02*
X287605512Y-105933435D01*
X287605512Y-105933435D02*
X291082845Y-105001687D01*
%TO.C,D92*%
X139104873Y-154493602D02*
X135627540Y-153561854D01*
X139907212Y-151499232D02*
X139104873Y-154493602D01*
X135627540Y-153561854D02*
X136429879Y-150567484D01*
X136429879Y-150567484D02*
X139907212Y-151499232D01*
%TO.C,D97*%
X56046885Y-156146697D02*
X59524218Y-157078445D01*
X55244546Y-159141067D02*
X56046885Y-156146697D01*
X59524218Y-157078445D02*
X58721879Y-160072815D01*
X58721879Y-160072815D02*
X55244546Y-159141067D01*
%TO.C,D119*%
X275162326Y-133098359D02*
X278639659Y-132166611D01*
X275964665Y-136092729D02*
X275162326Y-133098359D01*
X278639659Y-132166611D02*
X279441998Y-135160981D01*
X279441998Y-135160981D02*
X275964665Y-136092729D01*
%TO.C,D71*%
X188249989Y-161800006D02*
X188249989Y-158200006D01*
X191349989Y-161800006D02*
X188249989Y-161800006D01*
X188249989Y-158200006D02*
X191349989Y-158200006D01*
X191349989Y-158200006D02*
X191349989Y-161800006D01*
%TO.C,D98*%
X75064081Y-158777082D02*
X78541414Y-159708830D01*
X74261742Y-161771452D02*
X75064081Y-158777082D01*
X78541414Y-159708830D02*
X77739075Y-162703200D01*
X77739075Y-162703200D02*
X74261742Y-161771452D01*
%TO.C,D124*%
X349963974Y-103938407D02*
X346486641Y-104870155D01*
X349161635Y-100944037D02*
X349963974Y-103938407D01*
X346486641Y-104870155D02*
X345684302Y-101875785D01*
X345684302Y-101875785D02*
X349161635Y-100944037D01*
%TO.C,D69*%
X222433856Y-177936046D02*
X219316164Y-179736046D01*
X220883856Y-175251368D02*
X222433856Y-177936046D01*
X219316164Y-179736046D02*
X217766164Y-177051368D01*
X217766164Y-177051368D02*
X220883856Y-175251368D01*
%TO.C,D126*%
X311313254Y-106899088D02*
X307835921Y-107830836D01*
X310510915Y-103904718D02*
X311313254Y-106899088D01*
X307835921Y-107830836D02*
X307033582Y-104836466D01*
X307033582Y-104836466D02*
X310510915Y-103904718D01*
%TO.C,D79*%
X166545010Y-125689140D02*
X163067677Y-124757392D01*
X167347349Y-122694770D02*
X166545010Y-125689140D01*
X163067677Y-124757392D02*
X163870016Y-121763022D01*
X163870016Y-121763022D02*
X167347349Y-122694770D01*
%TO.C,D86*%
X84925103Y-121975308D02*
X88402436Y-122907056D01*
X84122764Y-124969678D02*
X84925103Y-121975308D01*
X88402436Y-122907056D02*
X87600097Y-125901426D01*
X87600097Y-125901426D02*
X84122764Y-124969678D01*
%TO.C,D117*%
X266793356Y-161559182D02*
X263316023Y-162490930D01*
X265991017Y-158564812D02*
X266793356Y-161559182D01*
X263316023Y-162490930D02*
X262513684Y-159496560D01*
X262513684Y-159496560D02*
X265991017Y-158564812D01*
%TO.C,D123*%
X350614794Y-120276660D02*
X354092127Y-119344912D01*
X351417133Y-123271030D02*
X350614794Y-120276660D01*
X354092127Y-119344912D02*
X354894466Y-122339282D01*
X354894466Y-122339282D02*
X351417133Y-123271030D01*
%TO.C,D134*%
X321736613Y-86105288D02*
X325213946Y-85173540D01*
X322538952Y-89099658D02*
X321736613Y-86105288D01*
X325213946Y-85173540D02*
X326016285Y-88167910D01*
X326016285Y-88167910D02*
X322538952Y-89099658D01*
%TO.C,D131*%
X265301307Y-96296583D02*
X268778640Y-95364835D01*
X266103646Y-99290953D02*
X265301307Y-96296583D01*
X268778640Y-95364835D02*
X269580979Y-98359205D01*
X269580979Y-98359205D02*
X266103646Y-99290953D01*
%TO.C,D70*%
X200683846Y-179736049D02*
X197566154Y-177936049D01*
X202233846Y-177051371D02*
X200683846Y-179736049D01*
X197566154Y-177936049D02*
X199116154Y-175251371D01*
X199116154Y-175251371D02*
X202233846Y-177051371D01*
%TO.C,D116*%
X284372486Y-153561871D02*
X280895153Y-154493619D01*
X283570147Y-150567501D02*
X284372486Y-153561871D01*
X280895153Y-154493619D02*
X280092814Y-151499249D01*
X280092814Y-151499249D02*
X283570147Y-150567501D01*
%TO.C,D121*%
X311964103Y-123237350D02*
X315441436Y-122305602D01*
X312766442Y-126231720D02*
X311964103Y-123237350D01*
X315441436Y-122305602D02*
X316243775Y-125299972D01*
X316243775Y-125299972D02*
X312766442Y-126231720D01*
%TO.C,D111*%
X360475808Y-157078442D02*
X363953141Y-156146694D01*
X361278147Y-160072812D02*
X360475808Y-157078442D01*
X363953141Y-156146694D02*
X364755480Y-159141064D01*
X364755480Y-159141064D02*
X361278147Y-160072812D01*
%TO.C,D122*%
X331597616Y-122907070D02*
X335074949Y-121975322D01*
X332399955Y-125901440D02*
X331597616Y-122907070D01*
X335074949Y-121975322D02*
X335877288Y-124969692D01*
X335877288Y-124969692D02*
X332399955Y-125901440D01*
%TO.C,D101*%
X143886006Y-179592190D02*
X147003698Y-181392190D01*
X142336006Y-182276868D02*
X143886006Y-179592190D01*
X147003698Y-181392190D02*
X145453698Y-184076868D01*
X145453698Y-184076868D02*
X142336006Y-182276868D01*
%TO.C,D72*%
X197566166Y-142063955D02*
X200683858Y-140263955D01*
X199116166Y-144748633D02*
X197566166Y-142063955D01*
X200683858Y-140263955D02*
X202233858Y-142948633D01*
X202233858Y-142948633D02*
X199116166Y-144748633D01*
%TO.C,D80*%
X148965856Y-117691812D02*
X145488523Y-116760064D01*
X149768195Y-114697442D02*
X148965856Y-117691812D01*
X145488523Y-116760064D02*
X146290862Y-113765694D01*
X146290862Y-113765694D02*
X149768195Y-114697442D01*
%TO.C,D115*%
X301746188Y-144797827D02*
X298268855Y-145729575D01*
X300943849Y-141803457D02*
X301746188Y-144797827D01*
X298268855Y-145729575D02*
X297466516Y-142735205D01*
X297466516Y-142735205D02*
X300943849Y-141803457D01*
%TO.C,D108*%
X292389590Y-172856833D02*
X295866923Y-171925085D01*
X293191929Y-175851203D02*
X292389590Y-172856833D01*
X295866923Y-171925085D02*
X296669262Y-174919455D01*
X296669262Y-174919455D02*
X293191929Y-175851203D01*
%TO.C,D107*%
X272981046Y-181385081D02*
X276098738Y-179585081D01*
X274531046Y-184069759D02*
X272981046Y-181385081D01*
X276098738Y-179585081D02*
X277648738Y-182269759D01*
X277648738Y-182269759D02*
X274531046Y-184069759D01*
%TO.C,D132*%
X282674993Y-87532551D02*
X286152326Y-86600803D01*
X283477332Y-90526921D02*
X282674993Y-87532551D01*
X286152326Y-86600803D02*
X286954665Y-89595173D01*
X286954665Y-89595173D02*
X283477332Y-90526921D01*
%TO.C,D106*%
X256563042Y-194629106D02*
X259108627Y-192083521D01*
X258755073Y-196821137D02*
X256563042Y-194629106D01*
X259108627Y-192083521D02*
X261300658Y-194275552D01*
X261300658Y-194275552D02*
X258755073Y-196821137D01*
%TO.C,D84*%
X73513389Y-104870153D02*
X70036056Y-103938405D01*
X74315728Y-101875783D02*
X73513389Y-104870153D01*
X70036056Y-103938405D02*
X70838395Y-100944035D01*
X70838395Y-100944035D02*
X74315728Y-101875783D01*
%TO.C,D83*%
X92530589Y-107500534D02*
X89053256Y-106568786D01*
X93332928Y-104506164D02*
X92530589Y-107500534D01*
X89053256Y-106568786D02*
X89855595Y-103574416D01*
X89855595Y-103574416D02*
X93332928Y-104506164D01*
%TO.C,D133*%
X302103090Y-86435575D02*
X305580423Y-85503827D01*
X302905429Y-89429945D02*
X302103090Y-86435575D01*
X305580423Y-85503827D02*
X306382762Y-88498197D01*
X306382762Y-88498197D02*
X302905429Y-89429945D01*
%TO.C,D76*%
X133847693Y-86600790D02*
X137325026Y-87532538D01*
X133045354Y-89595160D02*
X133847693Y-86600790D01*
X137325026Y-87532538D02*
X136522687Y-90526908D01*
X136522687Y-90526908D02*
X133045354Y-89595160D01*
%TO.C,D120*%
X292536022Y-124334335D02*
X296013355Y-123402587D01*
X293338361Y-127328705D02*
X292536022Y-124334335D01*
X296013355Y-123402587D02*
X296815694Y-126396957D01*
X296815694Y-126396957D02*
X293338361Y-127328705D01*
%TD*%
M02*
