%TF.GenerationSoftware,KiCad,Pcbnew,(7.0.0)*%
%TF.CreationDate,2023-05-20T22:42:22+01:00*%
%TF.ProjectId,Honeydew,486f6e65-7964-4657-972e-6b696361645f,V2.0*%
%TF.SameCoordinates,Original*%
%TF.FileFunction,Soldermask,Top*%
%TF.FilePolarity,Negative*%
%FSLAX46Y46*%
G04 Gerber Fmt 4.6, Leading zero omitted, Abs format (unit mm)*
G04 Created by KiCad (PCBNEW (7.0.0)) date 2023-05-20 22:42:22*
%MOMM*%
%LPD*%
G01*
G04 APERTURE LIST*
G04 Aperture macros list*
%AMRoundRect*
0 Rectangle with rounded corners*
0 $1 Rounding radius*
0 $2 $3 $4 $5 $6 $7 $8 $9 X,Y pos of 4 corners*
0 Add a 4 corners polygon primitive as box body*
4,1,4,$2,$3,$4,$5,$6,$7,$8,$9,$2,$3,0*
0 Add four circle primitives for the rounded corners*
1,1,$1+$1,$2,$3*
1,1,$1+$1,$4,$5*
1,1,$1+$1,$6,$7*
1,1,$1+$1,$8,$9*
0 Add four rect primitives between the rounded corners*
20,1,$1+$1,$2,$3,$4,$5,0*
20,1,$1+$1,$4,$5,$6,$7,0*
20,1,$1+$1,$6,$7,$8,$9,0*
20,1,$1+$1,$8,$9,$2,$3,0*%
%AMRotRect*
0 Rectangle, with rotation*
0 The origin of the aperture is its center*
0 $1 length*
0 $2 width*
0 $3 Rotation angle, in degrees counterclockwise*
0 Add horizontal line*
21,1,$1,$2,0,0,$3*%
G04 Aperture macros list end*
%ADD10C,4.400000*%
%ADD11C,2.200000*%
%ADD12C,4.000000*%
%ADD13C,4.200000*%
%ADD14C,2.000000*%
%ADD15RotRect,4.400000X4.400000X150.000000*%
%ADD16C,3.200000*%
%ADD17C,1.152000*%
%ADD18RoundRect,0.575000X-0.675000X-0.575000X0.675000X-0.575000X0.675000X0.575000X-0.675000X0.575000X0*%
%ADD19C,5.600000*%
%ADD20R,1.700000X1.700000*%
%ADD21O,1.700000X1.700000*%
%ADD22R,2.200000X2.200000*%
%ADD23C,3.300000*%
%ADD24C,1.750000*%
%ADD25C,3.987800*%
%ADD26C,1.700000*%
%ADD27C,0.900000*%
%ADD28C,1.200000*%
%ADD29R,1.200000X1.200000*%
%ADD30C,0.750000*%
%ADD31O,1.000000X1.800000*%
%ADD32O,1.000000X2.200000*%
G04 APERTURE END LIST*
%TO.C,A1*%
G36*
X204383324Y-106249003D02*
G01*
X204922023Y-106249003D01*
X204942468Y-106771756D01*
X205000028Y-106906679D01*
X205032487Y-106823464D01*
X205079798Y-106213500D01*
X205037613Y-105807464D01*
X204970702Y-105666689D01*
X204928612Y-105971983D01*
X204922023Y-106249003D01*
X204383324Y-106249003D01*
X204371475Y-105997207D01*
X204418677Y-105370798D01*
X204576029Y-105002530D01*
X204689726Y-104886230D01*
X205129520Y-104684637D01*
X205354842Y-104718126D01*
X205523788Y-105077405D01*
X205599931Y-105794948D01*
X205583217Y-106729557D01*
X205473593Y-107740036D01*
X205356216Y-108354579D01*
X205227322Y-109357535D01*
X205369296Y-110000749D01*
X205764579Y-110249575D01*
X206259810Y-110137580D01*
X206779612Y-109822776D01*
X206826405Y-109510180D01*
X206508968Y-109170002D01*
X206160416Y-108675497D01*
X206230432Y-108409587D01*
X206868812Y-108409587D01*
X206980366Y-108872289D01*
X207299081Y-109363499D01*
X207750787Y-109879002D01*
X208095386Y-110165296D01*
X208159969Y-110186003D01*
X208439136Y-110003219D01*
X208872002Y-109546712D01*
X209020856Y-109363499D01*
X209399432Y-108735825D01*
X209426346Y-108335765D01*
X209124913Y-108232773D01*
X208695238Y-108393408D01*
X208070841Y-108547926D01*
X207624699Y-108393408D01*
X207091360Y-108226809D01*
X206868812Y-108409587D01*
X206230432Y-108409587D01*
X206300565Y-108143229D01*
X206635968Y-107773003D01*
X207035325Y-107464498D01*
X207336569Y-107510769D01*
X207651969Y-107773002D01*
X208049080Y-108079947D01*
X208349910Y-108036120D01*
X208676933Y-107764890D01*
X209064079Y-107461675D01*
X209352434Y-107493170D01*
X209740569Y-107843714D01*
X210102249Y-108289373D01*
X210106569Y-108685610D01*
X209955645Y-109009974D01*
X209770078Y-109627794D01*
X209901475Y-110063537D01*
X210206959Y-110186003D01*
X210339059Y-109956592D01*
X210425861Y-109365952D01*
X210445969Y-108818447D01*
X210445968Y-107450892D01*
X211613273Y-107490184D01*
X212578168Y-107631795D01*
X213110151Y-107980194D01*
X213335997Y-108472063D01*
X213531231Y-109195163D01*
X213663373Y-109965715D01*
X213699947Y-110599936D01*
X213626212Y-110900426D01*
X213389971Y-110888170D01*
X213160531Y-110518664D01*
X213011357Y-109938265D01*
X212989858Y-109632645D01*
X212811074Y-108914832D01*
X212373637Y-108364241D01*
X211833762Y-108154003D01*
X211415034Y-108381002D01*
X211092316Y-108954104D01*
X210954426Y-109711460D01*
X210953969Y-109757203D01*
X210804341Y-110371264D01*
X210568204Y-110697957D01*
X210203219Y-110872071D01*
X209807961Y-110674277D01*
X209679204Y-110562691D01*
X209281301Y-110257079D01*
X208978838Y-110307720D01*
X208672733Y-110562691D01*
X208239950Y-110859148D01*
X207890365Y-110778650D01*
X207775496Y-110691121D01*
X207419093Y-110507611D01*
X206926259Y-110537947D01*
X206343780Y-110706606D01*
X205666546Y-110900483D01*
X205287586Y-110893582D01*
X205035191Y-110677952D01*
X205010500Y-110644874D01*
X204734595Y-110388047D01*
X204369453Y-110435565D01*
X204047060Y-110590600D01*
X203359012Y-110795251D01*
X202417007Y-110884160D01*
X202026304Y-110879464D01*
X201217069Y-110812288D01*
X200788959Y-110671380D01*
X200615648Y-110406563D01*
X200596806Y-110311697D01*
X200424095Y-109366959D01*
X200251552Y-108873893D01*
X200058110Y-108776614D01*
X200024522Y-108793605D01*
X199866987Y-109123449D01*
X199782504Y-109753150D01*
X199777969Y-109946993D01*
X199720847Y-110577654D01*
X199578390Y-110924716D01*
X199523969Y-110948003D01*
X199363942Y-110722887D01*
X199275877Y-110161467D01*
X199269969Y-109946993D01*
X199212707Y-109272010D01*
X199070469Y-108841101D01*
X199023415Y-108793605D01*
X198823993Y-108835142D01*
X198648961Y-109266421D01*
X198477659Y-110142315D01*
X198451374Y-110313003D01*
X198314725Y-110629586D01*
X197941038Y-110798300D01*
X197200229Y-110874633D01*
X197126385Y-110878174D01*
X196321474Y-110854807D01*
X195698480Y-110730535D01*
X195522510Y-110640507D01*
X195169116Y-110489157D01*
X194943187Y-110708212D01*
X194651464Y-110926009D01*
X194371135Y-110693939D01*
X194138028Y-110069547D01*
X193994804Y-109184954D01*
X193966869Y-108986527D01*
X195265981Y-108986527D01*
X195425960Y-109590554D01*
X195767534Y-110054962D01*
X196094969Y-110186003D01*
X196476562Y-109977046D01*
X196785172Y-109531277D01*
X196922218Y-108821904D01*
X196696197Y-108275703D01*
X196170040Y-108029826D01*
X196094969Y-108027003D01*
X195589140Y-108223991D01*
X195374393Y-108451777D01*
X195265981Y-108986527D01*
X193966869Y-108986527D01*
X193884870Y-108404076D01*
X193713665Y-108014795D01*
X193426362Y-107900749D01*
X193389366Y-107900003D01*
X192931843Y-108133235D01*
X192591428Y-108757853D01*
X192421647Y-109661237D01*
X192411969Y-109956510D01*
X192266855Y-110629889D01*
X191903694Y-110933016D01*
X191430755Y-110884971D01*
X190956309Y-110504835D01*
X190588626Y-109811691D01*
X190534467Y-109625622D01*
X190307965Y-108734006D01*
X189305481Y-109736490D01*
X187884337Y-110863942D01*
X186335141Y-111511948D01*
X184756608Y-111704424D01*
X183701941Y-111636153D01*
X182983718Y-111397024D01*
X182724608Y-111220032D01*
X182395666Y-110841988D01*
X182837265Y-110841988D01*
X183266811Y-111114335D01*
X183331469Y-111145997D01*
X184465064Y-111418079D01*
X185858257Y-111278616D01*
X186646081Y-111053048D01*
X187681436Y-110533912D01*
X188752647Y-109724631D01*
X189732209Y-108750819D01*
X190492616Y-107738090D01*
X190891616Y-106870456D01*
X191078585Y-105841392D01*
X191057482Y-105013433D01*
X190837630Y-104498683D01*
X190686390Y-104402231D01*
X190470654Y-104464024D01*
X190514198Y-104917372D01*
X190514865Y-104920034D01*
X190539117Y-105840871D01*
X190264717Y-106922664D01*
X189754495Y-107969444D01*
X189370769Y-108488451D01*
X188713709Y-109095740D01*
X187842049Y-109728079D01*
X187326861Y-110037267D01*
X186497790Y-110443516D01*
X185789176Y-110638808D01*
X184954270Y-110674312D01*
X184388372Y-110646616D01*
X183386700Y-110613488D01*
X182873446Y-110676825D01*
X182837265Y-110841988D01*
X182395666Y-110841988D01*
X182327858Y-110764058D01*
X182378969Y-110477963D01*
X182593479Y-110286255D01*
X183452888Y-110286255D01*
X183910881Y-110445964D01*
X184684068Y-110444011D01*
X185613455Y-110300971D01*
X186540048Y-110037419D01*
X187045778Y-109821315D01*
X188350702Y-108957828D01*
X189383842Y-107870115D01*
X190037908Y-106676317D01*
X190110696Y-106446445D01*
X190335661Y-105484803D01*
X190351047Y-104964695D01*
X190228239Y-104852002D01*
X189979268Y-105000019D01*
X189420965Y-105401181D01*
X188640574Y-105991159D01*
X187878739Y-106584415D01*
X186829661Y-107408405D01*
X185785843Y-108223248D01*
X184897280Y-108912078D01*
X184490054Y-109224668D01*
X183881885Y-109729823D01*
X183511272Y-110120203D01*
X183452888Y-110286255D01*
X182593479Y-110286255D01*
X182873502Y-110035998D01*
X183645396Y-109404135D01*
X184620246Y-108637692D01*
X185723648Y-107791990D01*
X186881201Y-106922351D01*
X188018500Y-106084093D01*
X189061141Y-105332538D01*
X189934722Y-104723005D01*
X190564839Y-104310815D01*
X190877088Y-104151289D01*
X190887969Y-104151363D01*
X191218773Y-104460026D01*
X191355308Y-105209283D01*
X191295426Y-106369460D01*
X191127061Y-107455547D01*
X190963135Y-108518772D01*
X190949432Y-109244208D01*
X191084411Y-109778871D01*
X191102298Y-109819369D01*
X191404439Y-110281187D01*
X191650819Y-110263844D01*
X191822640Y-109794830D01*
X191901102Y-108901640D01*
X191903969Y-108647012D01*
X191942870Y-107841376D01*
X192044309Y-107295838D01*
X192157969Y-107138003D01*
X192404647Y-107325458D01*
X192411969Y-107384031D01*
X192597546Y-107550510D01*
X192729469Y-107532246D01*
X193619002Y-107280263D01*
X194134226Y-107236741D01*
X194380468Y-107442776D01*
X194463057Y-107939462D01*
X194473433Y-108212663D01*
X194514231Y-108750467D01*
X194584718Y-108895073D01*
X194626655Y-108789003D01*
X195006672Y-107965301D01*
X195572690Y-107527090D01*
X196212884Y-107448321D01*
X196815426Y-107702949D01*
X197268490Y-108264926D01*
X197460251Y-109108207D01*
X197446917Y-109445898D01*
X197478532Y-110082355D01*
X197682469Y-110372493D01*
X197877146Y-110277947D01*
X197977669Y-109784658D01*
X197999969Y-109079159D01*
X198064859Y-108085586D01*
X198268324Y-107567786D01*
X198623556Y-107509246D01*
X199031974Y-107787487D01*
X199426538Y-108086159D01*
X199732186Y-108024910D01*
X200015963Y-107787487D01*
X200507315Y-107486510D01*
X200838998Y-107636089D01*
X201024721Y-108251835D01*
X201075798Y-108994493D01*
X201103628Y-110313003D01*
X201321177Y-109206416D01*
X201426855Y-108829040D01*
X202063969Y-108829040D01*
X202164401Y-109055735D01*
X202539325Y-108933406D01*
X202557822Y-108923573D01*
X203021098Y-108609378D01*
X203196966Y-108424188D01*
X203161884Y-108100586D01*
X203072985Y-108022687D01*
X202676409Y-108025999D01*
X202273721Y-108332151D01*
X202066236Y-108780263D01*
X202063969Y-108829040D01*
X201426855Y-108829040D01*
X201605543Y-108190942D01*
X201999262Y-107610899D01*
X202554213Y-107396979D01*
X202679269Y-107392002D01*
X203408900Y-107555158D01*
X203769645Y-107972144D01*
X203748454Y-108534240D01*
X203332279Y-109132724D01*
X202925213Y-109441156D01*
X202377635Y-109814358D01*
X202226520Y-110048896D01*
X202414910Y-110235178D01*
X202422338Y-110239362D01*
X203095879Y-110358675D01*
X203751825Y-110043165D01*
X204197735Y-109469502D01*
X204408376Y-108742167D01*
X204452729Y-107655272D01*
X204418834Y-107003597D01*
X204383324Y-106249003D01*
G37*
G36*
X194436588Y-106315290D02*
G01*
X194443969Y-106376003D01*
X194250681Y-106622622D01*
X194189969Y-106630003D01*
X193943349Y-106436715D01*
X193935969Y-106376003D01*
X194129256Y-106129383D01*
X194189969Y-106122003D01*
X194436588Y-106315290D01*
G37*
G36*
X189530657Y-106023612D02*
G01*
X189490969Y-106122003D01*
X189262722Y-106364314D01*
X189221978Y-106376003D01*
X189112881Y-106179485D01*
X189109969Y-106122003D01*
X189305232Y-105877763D01*
X189378959Y-105868003D01*
X189530657Y-106023612D01*
G37*
G36*
X187058399Y-108038613D02*
G01*
X187077969Y-108124022D01*
X186892611Y-108483096D01*
X186823969Y-108535003D01*
X186589538Y-108523392D01*
X186569969Y-108437983D01*
X186755326Y-108078909D01*
X186823969Y-108027003D01*
X187058399Y-108038613D01*
G37*
G36*
X185299969Y-109043003D02*
G01*
X185542280Y-109271249D01*
X185553969Y-109311993D01*
X185357451Y-109421090D01*
X185299969Y-109424003D01*
X185055729Y-109228739D01*
X185045969Y-109155012D01*
X185201578Y-109003314D01*
X185299969Y-109043003D01*
G37*
G36*
X188517302Y-106714669D02*
G01*
X188547701Y-107016108D01*
X188517302Y-107053336D01*
X188366299Y-107018469D01*
X188347969Y-106884003D01*
X188440903Y-106674932D01*
X188517302Y-106714669D01*
G37*
G36*
X188263302Y-107984669D02*
G01*
X188228435Y-108135672D01*
X188093969Y-108154003D01*
X187884898Y-108061068D01*
X187924635Y-107984669D01*
X188226074Y-107954270D01*
X188263302Y-107984669D01*
G37*
%TD*%
D10*
%TO.C,H12*%
X174999991Y-205000009D03*
%TD*%
D11*
%TO.C,SW65*%
X215266272Y-159673370D03*
D12*
X221486472Y-142590050D03*
D13*
X186603919Y-163538232D03*
D12*
X185899408Y-122861302D03*
D11*
X175323370Y-135188347D03*
D14*
X215165028Y-118269247D03*
X210834900Y-115769247D03*
X212999964Y-117019247D03*
D15*
X223807623Y-154490318D03*
D16*
X192875215Y-172064890D03*
X175393597Y-161971523D03*
D15*
X175165317Y-126409313D03*
%TD*%
D17*
%TO.C,H3*%
X65499963Y-65257213D03*
%TD*%
%TO.C,H2*%
X330599970Y-65257212D03*
%TD*%
D18*
%TO.C,SW66*%
X222999991Y-209499997D03*
X222999991Y-200499997D03*
D14*
X220999991Y-207499997D03*
X220999991Y-204999997D03*
X220999991Y-202499997D03*
%TD*%
D19*
%TO.C,H9*%
X158999991Y-197999993D03*
%TD*%
D20*
%TO.C,J4*%
X177999963Y-74580007D03*
D21*
X177999963Y-77120007D03*
X177999963Y-79660007D03*
X177999963Y-82200007D03*
X177999963Y-84740007D03*
X177999963Y-87280007D03*
X177999963Y-89820007D03*
D12*
X178249964Y-66200008D03*
X178249964Y-98200008D03*
X217749964Y-66200008D03*
X217749964Y-98200008D03*
%TD*%
D19*
%TO.C,H8*%
X236999991Y-197999997D03*
%TD*%
D11*
%TO.C,SW67*%
X167999992Y-197999997D03*
X167999992Y-203079997D03*
D22*
X167999991Y-208159996D03*
%TD*%
D17*
%TO.C,H1*%
X197999957Y-195500010D03*
%TD*%
D23*
%TO.C,SW25*%
X139186241Y-169907117D03*
X132416979Y-168931821D03*
D24*
X130047127Y-170496526D03*
D25*
X134446536Y-173036526D03*
D24*
X138845945Y-175576526D03*
%TD*%
D23*
%TO.C,SW30*%
X156791477Y-184251859D03*
X150505297Y-181557782D03*
D24*
X147811221Y-182455808D03*
D25*
X151403323Y-186047910D03*
D24*
X154995425Y-189640012D03*
%TD*%
D23*
%TO.C,SW1*%
X70104012Y-71225758D03*
X63312983Y-72035709D03*
D24*
X61428857Y-74160460D03*
D25*
X66335760Y-75475261D03*
D24*
X71242663Y-76790062D03*
%TD*%
D23*
%TO.C,SW24*%
X130764988Y-139250104D03*
X123973959Y-140060055D03*
D24*
X122089833Y-142184806D03*
D25*
X126996736Y-143499607D03*
D24*
X131903639Y-144814408D03*
%TD*%
D23*
%TO.C,SW29*%
X148344111Y-147247445D03*
X141553082Y-148057396D03*
D24*
X139668956Y-150182147D03*
D25*
X144575859Y-151496948D03*
D24*
X149482762Y-152811749D03*
%TD*%
D23*
%TO.C,SW14*%
X93963207Y-129389110D03*
X87172178Y-130199061D03*
D24*
X85288052Y-132323812D03*
D25*
X90194955Y-133638613D03*
D24*
X95101858Y-134953414D03*
%TD*%
D23*
%TO.C,SW19*%
X113391280Y-130486072D03*
X106600251Y-131296023D03*
D24*
X104716125Y-133420774D03*
D25*
X109623028Y-134735575D03*
D24*
X114529931Y-136050376D03*
%TD*%
D23*
%TO.C,SW5*%
X50381993Y-144829316D03*
X43590964Y-145639267D03*
D24*
X41706838Y-147764018D03*
D25*
X46613741Y-149078819D03*
D24*
X51520644Y-150393620D03*
%TD*%
D23*
%TO.C,SW22*%
X140625976Y-102448324D03*
X133834947Y-103258275D03*
D24*
X131950821Y-105383026D03*
D25*
X136857724Y-106697827D03*
D24*
X141764627Y-108012628D03*
%TD*%
D23*
%TO.C,SW27*%
X158205119Y-110445663D03*
X151414090Y-111255614D03*
D24*
X149529964Y-113380365D03*
D25*
X154436867Y-114695166D03*
D24*
X159343770Y-116009967D03*
%TD*%
D23*
%TO.C,SW3*%
X60242984Y-108027547D03*
X53451955Y-108837498D03*
D24*
X51567829Y-110962249D03*
D25*
X56474732Y-112277050D03*
D24*
X61381635Y-113591851D03*
%TD*%
D23*
%TO.C,SW8*%
X79260195Y-110657918D03*
X72469166Y-111467869D03*
D24*
X70585040Y-113592620D03*
D25*
X75491943Y-114907421D03*
D24*
X80398846Y-116222222D03*
%TD*%
D23*
%TO.C,SW13*%
X98893707Y-110988211D03*
X92102678Y-111798162D03*
D24*
X90218552Y-113922913D03*
D25*
X95125455Y-115237714D03*
D24*
X100032358Y-116552515D03*
%TD*%
D23*
%TO.C,SW23*%
X135695493Y-120849240D03*
X128904464Y-121659191D03*
D24*
X127020338Y-123783942D03*
D25*
X131927241Y-125098743D03*
D24*
X136834144Y-126413544D03*
%TD*%
D23*
%TO.C,SW18*%
X118321761Y-112085192D03*
X111530732Y-112895143D03*
D24*
X109646606Y-115019894D03*
D25*
X114553509Y-116334695D03*
D24*
X119460412Y-117649496D03*
%TD*%
D23*
%TO.C,SW28*%
X153274608Y-128846543D03*
X146483579Y-129656494D03*
D24*
X144599453Y-131781245D03*
D25*
X149506356Y-133096046D03*
D24*
X154413259Y-134410847D03*
%TD*%
D23*
%TO.C,SW4*%
X55312501Y-126428441D03*
X48521472Y-127238392D03*
D24*
X46637346Y-129363143D03*
D25*
X51544249Y-130677944D03*
D24*
X56451152Y-131992745D03*
%TD*%
D23*
%TO.C,SW9*%
X74329675Y-129058825D03*
X67538646Y-129868776D03*
D24*
X65654520Y-131993527D03*
D25*
X70561423Y-133308328D03*
D24*
X75468326Y-134623129D03*
%TD*%
D23*
%TO.C,SW10*%
X69399192Y-147459714D03*
X62608163Y-148269665D03*
D24*
X60724037Y-150394416D03*
D25*
X65630940Y-151709217D03*
D24*
X70537843Y-153024018D03*
%TD*%
D23*
%TO.C,SW15*%
X89032696Y-147789974D03*
X82241667Y-148599925D03*
D24*
X80357541Y-150724676D03*
D25*
X85264444Y-152039477D03*
D24*
X90171347Y-153354278D03*
%TD*%
D23*
%TO.C,SW20*%
X118468204Y-160607709D03*
X111677175Y-161417660D03*
D24*
X109793049Y-163542411D03*
D25*
X114699952Y-164857212D03*
D24*
X119606855Y-166172013D03*
%TD*%
D23*
%TO.C,SW11*%
X108754713Y-74186464D03*
X101963684Y-74996415D03*
D24*
X100079558Y-77121166D03*
D25*
X104986461Y-78435967D03*
D24*
X109893364Y-79750768D03*
%TD*%
D23*
%TO.C,SW2*%
X65173503Y-89626662D03*
X58382474Y-90436613D03*
D24*
X56498348Y-92561364D03*
D25*
X61405251Y-93876165D03*
D24*
X66312154Y-95190966D03*
%TD*%
D23*
%TO.C,SW12*%
X103824203Y-92587316D03*
X97033174Y-93397267D03*
D24*
X95149048Y-95522018D03*
D25*
X100055951Y-96836819D03*
D24*
X104962854Y-98151620D03*
%TD*%
D23*
%TO.C,SW21*%
X145556486Y-84047433D03*
X138765457Y-84857384D03*
D24*
X136881331Y-86982135D03*
D25*
X141788234Y-88296936D03*
D24*
X146695137Y-89611737D03*
%TD*%
D23*
%TO.C,SW17*%
X123252282Y-93684327D03*
X116461253Y-94494278D03*
D24*
X114577127Y-96619029D03*
D25*
X119484030Y-97933830D03*
D24*
X124390933Y-99248631D03*
%TD*%
D23*
%TO.C,SW16*%
X128182782Y-75283416D03*
X121391753Y-76093367D03*
D24*
X119507627Y-78218118D03*
D25*
X124414530Y-79532919D03*
D24*
X129321433Y-80847720D03*
%TD*%
D23*
%TO.C,SW6*%
X89121203Y-73856164D03*
X82330174Y-74666115D03*
D24*
X80446048Y-76790866D03*
D25*
X85352951Y-78105667D03*
D24*
X90259854Y-79420468D03*
%TD*%
D23*
%TO.C,SW7*%
X84190696Y-92257049D03*
X77399667Y-93067000D03*
D24*
X75515541Y-95191751D03*
D25*
X80422444Y-96506552D03*
D24*
X85329347Y-97821353D03*
%TD*%
D23*
%TO.C,SW26*%
X163135617Y-92044767D03*
X156344588Y-92854718D03*
D24*
X154460462Y-94979469D03*
D25*
X159367365Y-96294270D03*
D24*
X164274268Y-97609071D03*
%TD*%
D23*
%TO.C,SW31*%
X237771244Y-90729981D03*
X232295015Y-94826934D03*
D24*
X231725690Y-97609086D03*
D25*
X236632593Y-96294285D03*
D24*
X241539496Y-94979484D03*
%TD*%
D23*
%TO.C,SW62*%
X200539969Y-180920009D03*
X194189969Y-183460009D03*
D24*
X192919969Y-186000009D03*
D25*
X197999969Y-186000009D03*
D24*
X203079969Y-186000009D03*
%TD*%
D23*
%TO.C,SW45*%
X282438648Y-159292911D03*
X276962419Y-163389864D03*
D24*
X276393094Y-166172016D03*
D25*
X281299997Y-164857215D03*
D24*
X286206900Y-163542414D03*
%TD*%
D23*
%TO.C,SW49*%
X306943660Y-128074325D03*
X301467431Y-132171278D03*
D24*
X300898106Y-134953430D03*
D25*
X305805009Y-133638629D03*
D24*
X310711912Y-132323828D03*
%TD*%
D20*
%TO.C,J5*%
X171499990Y-104979996D03*
X171499990Y-107519996D03*
D21*
X171499990Y-110059996D03*
D26*
X171499991Y-112599997D03*
%TD*%
D19*
%TO.C,H7*%
X319482323Y-162625367D03*
%TD*%
D23*
%TO.C,SW47*%
X297082657Y-91272540D03*
X291606428Y-95369493D03*
D24*
X291037103Y-98151645D03*
D25*
X295944006Y-96836844D03*
D24*
X300850909Y-95522043D03*
%TD*%
D23*
%TO.C,SW63*%
X220196060Y-174291995D03*
X215966798Y-179666699D03*
D24*
X216136946Y-182501404D03*
D25*
X220536355Y-179961404D03*
D24*
X224935764Y-177421404D03*
%TD*%
D23*
%TO.C,SW61*%
X180203279Y-176831997D03*
X173434017Y-175856701D03*
D24*
X171064165Y-177421406D03*
D25*
X175463574Y-179961406D03*
D24*
X179862983Y-182501406D03*
%TD*%
D23*
%TO.C,SW33*%
X247632241Y-127531735D03*
X242156012Y-131628688D03*
D24*
X241586687Y-134410840D03*
D25*
X246493590Y-133096039D03*
D24*
X251400493Y-131781238D03*
%TD*%
D19*
%TO.C,H11*%
X211799972Y-143000004D03*
%TD*%
D23*
%TO.C,SW59*%
X345594361Y-125113636D03*
X340118132Y-129210589D03*
D24*
X339548807Y-131992741D03*
D25*
X344455710Y-130677940D03*
D24*
X349362613Y-129363139D03*
%TD*%
D23*
%TO.C,SW38*%
X265211390Y-119534434D03*
X259735161Y-123631387D03*
D24*
X259165836Y-126413539D03*
D25*
X264072739Y-125098738D03*
D24*
X268979642Y-123783937D03*
%TD*%
D23*
%TO.C,SW50*%
X311874157Y-146475200D03*
X306397928Y-150572153D03*
D24*
X305828603Y-153354305D03*
D25*
X310735506Y-152039504D03*
D24*
X315642409Y-150724703D03*
%TD*%
D27*
%TO.C,SW69*%
X213499973Y-57127213D03*
X210499973Y-57127213D03*
%TD*%
D19*
%TO.C,H10*%
X184199972Y-142999959D03*
%TD*%
D23*
%TO.C,SW58*%
X340663858Y-106712733D03*
X335187629Y-110809686D03*
D24*
X334618304Y-113591838D03*
D25*
X339525207Y-112277037D03*
D24*
X344432110Y-110962236D03*
%TD*%
D28*
%TO.C,U4*%
X192649964Y-138230009D03*
X192649964Y-140010009D03*
X192649964Y-141790009D03*
X192649964Y-143570009D03*
X192649964Y-145350009D03*
X192649964Y-147130009D03*
X192649964Y-148910009D03*
X192649964Y-150690009D03*
X203349964Y-149800009D03*
X203349964Y-148020009D03*
X203349964Y-146240009D03*
X203349964Y-144460009D03*
X203349964Y-142680009D03*
X203349964Y-140900009D03*
X203349964Y-139120009D03*
D29*
X203349963Y-137340008D03*
%TD*%
D23*
%TO.C,SW43*%
X282585064Y-110770395D03*
X277108835Y-114867348D03*
D24*
X276539510Y-117649500D03*
D25*
X281446413Y-116334699D03*
D24*
X286353316Y-115019898D03*
%TD*%
D21*
%TO.C,J1*%
X215899991Y-102444996D03*
D20*
X215899991Y-104984996D03*
D26*
X215899992Y-107524997D03*
%TD*%
D30*
%TO.C,SW68*%
X183999969Y-55982217D03*
X183999969Y-58732217D03*
%TD*%
D23*
%TO.C,SW57*%
X335733352Y-88311849D03*
X330257123Y-92408802D03*
D24*
X329687798Y-95190954D03*
D25*
X334594701Y-93876153D03*
D24*
X339501604Y-92561352D03*
%TD*%
D23*
%TO.C,SW52*%
X316716169Y-90942245D03*
X311239940Y-95039198D03*
D24*
X310670615Y-97821350D03*
D25*
X315577518Y-96506549D03*
D24*
X320484421Y-95191748D03*
%TD*%
D23*
%TO.C,SW44*%
X287515585Y-129171271D03*
X282039356Y-133268224D03*
D24*
X281470031Y-136050376D03*
D25*
X286376934Y-134735575D03*
D24*
X291283837Y-133420774D03*
%TD*%
D23*
%TO.C,SW41*%
X272724074Y-73968624D03*
X267247845Y-78065577D03*
D24*
X266678520Y-80847729D03*
D25*
X271585423Y-79532928D03*
D24*
X276492326Y-78218127D03*
%TD*%
D31*
%TO.C,J2*%
X203619961Y-61400005D03*
D32*
X203619961Y-57400005D03*
D31*
X192379961Y-61400005D03*
D32*
X192379961Y-57400005D03*
%TD*%
D19*
%TO.C,H6*%
X76517600Y-162625360D03*
%TD*%
D23*
%TO.C,SW40*%
X261213112Y-167367104D03*
X256983850Y-172741808D03*
D24*
X257153998Y-175576513D03*
D25*
X261553407Y-173036513D03*
D24*
X265952816Y-170496513D03*
%TD*%
D23*
%TO.C,SW46*%
X292152142Y-72871661D03*
X286675913Y-76968614D03*
D24*
X286106588Y-79750766D03*
D25*
X291013491Y-78435965D03*
D24*
X295920394Y-77121164D03*
%TD*%
D23*
%TO.C,SW51*%
X311785663Y-72541371D03*
X306309434Y-76638324D03*
D24*
X305740109Y-79420476D03*
D25*
X310647012Y-78105675D03*
D24*
X315553915Y-76790874D03*
%TD*%
D23*
%TO.C,SW60*%
X350524861Y-143514514D03*
X345048632Y-147611467D03*
D24*
X344479307Y-150393619D03*
D25*
X349386210Y-149078818D03*
D24*
X354293113Y-147764017D03*
%TD*%
D23*
%TO.C,SW37*%
X260280893Y-101133552D03*
X254804664Y-105230505D03*
D24*
X254235339Y-108012657D03*
D25*
X259142242Y-106697856D03*
D24*
X264049145Y-105383055D03*
%TD*%
D19*
%TO.C,H4*%
X223299991Y-67557215D03*
%TD*%
D23*
%TO.C,SW54*%
X326577178Y-127744025D03*
X321100949Y-131840978D03*
D24*
X320531624Y-134623130D03*
D25*
X325438527Y-133308329D03*
D24*
X330345430Y-131993528D03*
%TD*%
D23*
%TO.C,SW55*%
X331507676Y-146144920D03*
X326031447Y-150241873D03*
D24*
X325462122Y-153024025D03*
D25*
X330369025Y-151709224D03*
D24*
X335275928Y-150394423D03*
%TD*%
D23*
%TO.C,SW48*%
X302013153Y-109673423D03*
X296536924Y-113770376D03*
D24*
X295967599Y-116552528D03*
D25*
X300874502Y-115237727D03*
D24*
X305781405Y-113922926D03*
%TD*%
D19*
%TO.C,H5*%
X172699992Y-67557209D03*
%TD*%
D23*
%TO.C,SW53*%
X321646674Y-109343132D03*
X316170445Y-113440085D03*
D24*
X315601120Y-116222237D03*
D25*
X320508023Y-114907436D03*
D24*
X325414926Y-113592635D03*
%TD*%
D23*
%TO.C,SW35*%
X242800583Y-180659756D03*
X240106506Y-186945936D03*
D24*
X241004532Y-189640012D03*
D25*
X244596634Y-186047910D03*
D24*
X248188736Y-182455808D03*
%TD*%
D23*
%TO.C,SW34*%
X252562746Y-145932628D03*
X247086517Y-150029581D03*
D24*
X246517192Y-152811733D03*
D25*
X251424095Y-151496932D03*
D24*
X256330998Y-150182131D03*
%TD*%
D23*
%TO.C,SW42*%
X277654569Y-92369512D03*
X272178340Y-96466465D03*
D24*
X271609015Y-99248617D03*
D25*
X276515918Y-97933816D03*
D24*
X281422821Y-96619015D03*
%TD*%
D23*
%TO.C,SW56*%
X330802862Y-69910970D03*
X325326633Y-74007923D03*
D24*
X324757308Y-76790075D03*
D25*
X329664211Y-75475274D03*
D24*
X334571114Y-74160473D03*
%TD*%
D23*
%TO.C,SW64*%
X200539991Y-199969997D03*
X194189991Y-202509997D03*
D25*
X186093741Y-196794997D03*
D12*
X186093741Y-212034997D03*
D24*
X192919991Y-205049997D03*
D25*
X197999991Y-205049997D03*
D24*
X203079991Y-205049997D03*
D25*
X209906241Y-196794997D03*
D12*
X209906241Y-212034997D03*
%TD*%
D23*
%TO.C,SW36*%
X255350370Y-82732665D03*
X249874141Y-86829618D03*
D24*
X249304816Y-89611770D03*
D25*
X254211719Y-88296969D03*
D24*
X259118622Y-86982168D03*
%TD*%
D23*
%TO.C,SW39*%
X270141884Y-137935321D03*
X264665655Y-142032274D03*
D24*
X264096330Y-144814426D03*
D25*
X269003233Y-143499625D03*
D24*
X273910136Y-142184824D03*
%TD*%
D23*
%TO.C,SW32*%
X242701742Y-109130863D03*
X237225513Y-113227816D03*
D24*
X236656188Y-116009968D03*
D25*
X241563091Y-114695167D03*
D24*
X246469994Y-113380366D03*
%TD*%
M02*
