M48
; DRILL file {KiCad 7.0.6} date Tue Jul 25 15:25:14 2023
; FORMAT={-:-/ absolute / inch / decimal}
; #@! TF.CreationDate,2023-07-25T15:25:14+01:00
; #@! TF.GenerationSoftware,Kicad,Pcbnew,7.0.6
; #@! TF.FileFunction,Plated,1,2,PTH
FMAT,2
INCH
; #@! TA.AperFunction,Plated,PTH,ViaDrill
T1C0.0098
; #@! TA.AperFunction,Plated,PTH,ViaDrill
T2C0.0118
; #@! TA.AperFunction,Plated,PTH,ComponentDrill
T3C0.0118
; #@! TA.AperFunction,Plated,PTH,ComponentDrill
T4C0.0276
; #@! TA.AperFunction,Plated,PTH,ComponentDrill
T5C0.0394
; #@! TA.AperFunction,Plated,PTH,ComponentDrill
T6C0.0433
; #@! TA.AperFunction,Plated,PTH,ComponentDrill
T7C0.0472
; #@! TA.AperFunction,Plated,PTH,ComponentDrill
T8C0.0709
; #@! TA.AperFunction,Plated,PTH,ComponentDrill
T9C0.0787
; #@! TA.AperFunction,Plated,PTH,ComponentDrill
T10C0.0866
; #@! TA.AperFunction,Plated,PTH,ComponentDrill
T11C0.1200
; #@! TA.AperFunction,Plated,PTH,ComponentDrill
T12C0.1260
%
G90
G05
T1
X1.5636Y-5.7632
X1.7577Y-5.0387
X1.9519Y-4.3143
X2.146Y-3.5898
X2.3401Y-2.8654
X2.9177Y-5.9813
X3.0853Y-5.8797
X3.1118Y-5.2569
X3.2794Y-5.1553
X3.3059Y-4.5324
X3.4735Y-4.4308
X3.5Y-3.808
X3.6676Y-3.7064
X3.6941Y-3.0835
X3.6941Y-2.7918
X3.8615Y-2.7052
X3.8618Y-2.982
X4.6496Y-5.313
X4.7283Y-5.5435
X4.8438Y-4.5886
X4.8495Y-6.4989
X4.9224Y-4.8191
X5.0379Y-3.8642
X5.0583Y-6.6397
X5.1165Y-4.0946
X5.232Y-2.8223
X5.232Y-3.1397
X5.3107Y-2.8466
X5.3107Y-3.3702
X5.9183Y-6.2004
X6.0257Y-5.9729
X6.1124Y-5.476
X6.2199Y-5.2485
X6.2456Y-7.499
X6.3065Y-4.7515
X6.414Y-4.524
X6.4803Y-3.4606
X6.4803Y-3.5551
X6.5007Y-4.0271
X6.6081Y-3.7996
X6.6303Y-3.5502
X6.6339Y-3.0866
X6.6732Y-6.9124
X6.6824Y-7.2594
X6.7205Y-3.0866
X6.7598Y-7.4646
X6.8111Y-3.2086
X6.815Y-3.3583
X6.9409Y-3.2835
X6.9528Y-3.0039
X6.9724Y-4.6315
X7.0591Y-3.3582
X7.0827Y-3.3071
X7.2205Y-2.6496
X7.3583Y-3.1732
X7.3583Y-3.2598
X7.374Y-6.622
X7.3819Y-3.2008
X7.3819Y-3.3071
X7.4055Y-3.1732
X7.4055Y-3.2835
X7.4055Y-2.8724
X7.4454Y-7.5065
X7.4454Y-7.6837
X7.5054Y-6.6286
X7.5055Y-7.2907
X7.5055Y-8.0407
X7.5748Y-3.5906
X7.5984Y-3.6142
X7.622Y-3.6378
X7.6457Y-3.1299
X7.6457Y-3.6614
X7.6693Y-3.685
X7.7047Y-5.2205
X7.7087Y-3.1299
X7.7638Y-3.3071
X7.7638Y-3.4764
X7.7795Y-3.7126
X7.7953Y-3.315
X7.7953Y-3.4764
X7.7992Y-5.1575
X7.7992Y-5.2205
X7.8031Y-5.0984
X7.8189Y-3.6142
X7.8307Y-5.2205
X7.8307Y-4.8937
X7.8307Y-4.9882
X7.8307Y-4.9252
X7.8425Y-3.5906
X7.8543Y-5.0039
X7.8543Y-4.9409
X7.8661Y-5.2559
X7.874Y-3.5906
X7.878Y-5.0197
X7.9016Y-4.9843
X7.9055Y-3.5906
X7.9094Y-5.1575
X7.937Y-3.5906
X8.1417Y-3.5551
X8.1732Y-3.5551
X8.2047Y-3.5551
X8.2362Y-3.5551
X8.2677Y-3.5551
X8.5Y-3.748
X8.5079Y-6.6299
X8.5118Y-7.5906
X8.5118Y-7.6969
X8.6417Y-3.6693
X8.6929Y-3.4764
X8.6929Y-3.5079
X8.6929Y-3.5551
X8.7165Y-3.5315
X8.7296Y-4.4528
X8.7559Y-6.2953
X8.7795Y-6.2717
X8.8031Y-6.248
X8.8268Y-6.2244
X8.8504Y-6.3898
X8.874Y-6.3661
X8.8898Y-3.5276
X8.8976Y-6.3425
X8.9016Y-3.3307
X8.9213Y-6.3189
X8.9213Y-3.5605
X8.9246Y-6.8551
X8.9252Y-3.2441
X8.9252Y-3.2764
X8.9442Y-4.3129
X8.9488Y-3.2165
X8.9528Y-4.2296
X8.9646Y-4.4803
X9.0Y-3.5827
X9.0Y-3.5
X9.0118Y-4.3129
X9.028Y-3.835
X9.0512Y-4.4803
X9.072Y-4.0889
X9.0748Y-7.5667
X9.0787Y-7.3858
X9.0787Y-6.7677
X9.1102Y-7.3858
X9.1102Y-6.8307
X9.1142Y-7.5667
X9.2221Y-4.5595
X9.2661Y-4.8133
X9.4021Y-7.5069
X9.4163Y-5.2839
X9.4602Y-5.5378
X9.6104Y-6.0084
X9.6543Y-6.2622
X10.3016Y-2.8307
X10.3016Y-3.3167
X10.4041Y-2.8045
X10.4041Y-3.1751
X10.4958Y-4.0412
X10.5394Y-6.5824
X10.5982Y-3.8996
X10.6899Y-4.7656
X10.7866Y-6.5344
X10.7924Y-4.624
X10.884Y-5.4901
X10.9865Y-5.3485
X11.7505Y-2.6904
X11.7505Y-2.9285
X11.942Y-3.1189
X11.942Y-2.7717
X11.9446Y-3.6529
X12.1361Y-3.8434
X12.1388Y-4.3774
X12.3302Y-4.5678
X12.3329Y-5.1018
X12.5243Y-5.2923
X12.527Y-5.8263
X12.7184Y-6.0167
X13.2722Y-2.8119
X13.4663Y-3.5364
X13.4849Y-3.7876
X13.6604Y-4.2608
X13.679Y-4.5121
X13.8546Y-4.9853
X13.8731Y-5.2365
X14.0487Y-5.7097
X14.0672Y-5.961
T2
X1.6376Y-6.0058
X1.6447Y-5.9792
X1.7535Y-5.2462
X2.0091Y-6.1482
X2.0258Y-4.5569
X2.033Y-4.5303
X2.1179Y-5.4151
X2.125Y-5.3885
X2.1417Y-3.7973
X2.3863Y-6.1094
X2.3934Y-6.0828
X2.3973Y-4.6993
X2.414Y-3.1081
X2.4212Y-3.0814
X2.5022Y-5.3497
X2.5061Y-3.9662
X2.5132Y-3.9396
X2.7578Y-6.2517
X2.7745Y-4.6605
X2.7817Y-4.6339
X2.7855Y-3.2504
X2.8666Y-5.5187
X2.8737Y-5.4921
X2.8904Y-3.9008
X3.146Y-4.8028
X3.1593Y-6.1224
X3.1628Y-3.2116
X3.1664Y-6.0958
X3.1699Y-3.185
X3.2548Y-4.0698
X3.2619Y-4.0432
X3.2752Y-5.3627
X3.5308Y-6.2647
X3.5342Y-3.3539
X3.5475Y-4.6735
X3.5546Y-4.6469
X3.6395Y-5.5317
X3.6467Y-5.5051
X3.6634Y-3.9138
X3.919Y-4.8158
X3.9357Y-3.2246
X3.9429Y-3.198
X4.0278Y-4.0828
X4.0349Y-4.0562
X4.0401Y-5.4059
X4.3072Y-3.367
X4.3124Y-4.7167
X4.3182Y-6.627
X4.3195Y-4.6901
X4.3253Y-6.6004
X4.4044Y-5.5749
X4.4116Y-5.5483
X4.4283Y-3.957
X4.6839Y-4.859
X4.6896Y-6.7694
X4.7006Y-3.2678
X4.7077Y-3.2412
X4.7241Y-5.751
X4.7927Y-4.126
X4.7998Y-4.0994
X4.9964Y-5.0617
X5.0035Y-5.0351
X5.067Y-6.8933
X5.0721Y-3.4101
X5.0807Y-6.8694
X5.0884Y-5.9199
X5.0956Y-5.8933
X5.1123Y-4.3021
X5.3679Y-5.2041
X5.3846Y-3.6128
X5.3889Y-7.1269
X5.3918Y-3.5862
X5.4162Y-6.0658
X5.4767Y-4.471
X5.4838Y-4.4444
X5.6885Y-5.3766
X5.6956Y-5.35
X5.7213Y-7.3442
X5.7408Y-7.3247
X5.7561Y-3.7552
X5.7805Y-6.2348
X5.7877Y-6.2081
X5.8044Y-4.6169
X5.9719Y-7.6532
X6.0145Y-6.1528
X6.0197Y-2.7835
X6.0487Y-6.1619
X6.06Y-5.5189
X6.0767Y-3.9277
X6.0838Y-3.9011
X6.1569Y-5.6211
X6.1688Y-4.7859
X6.1759Y-4.7593
X6.1911Y-5.6302
X6.2283Y-6.628
X6.2717Y-6.5177
X6.378Y-5.0709
X6.4027Y-4.7039
X6.4134Y-2.9882
X6.4369Y-4.713
X6.4482Y-4.07
X6.4606Y-3.2559
X6.5Y-3.185
X6.5079Y-3.3898
X6.5354Y-5.2283
X6.5354Y-6.0709
X6.5451Y-4.1722
X6.5512Y-4.4134
X6.5512Y-5.1693
X6.5794Y-4.1813
X6.5984Y-4.5079
X6.5984Y-3.3898
X6.6123Y-7.2929
X6.6399Y-7.2929
X6.6417Y-6.5177
X6.6535Y-4.5472
X6.6535Y-6.6319
X6.6614Y-2.9055
X6.6811Y-5.6457
X6.6811Y-5.6142
X6.6818Y-7.1659
X6.6956Y-7.142
X6.7047Y-2.8937
X6.7106Y-5.6142
X6.7106Y-5.6457
X6.7126Y-3.2677
X6.7323Y-2.8937
X6.7402Y-5.6457
X6.7402Y-5.6142
X6.7559Y-3.2677
X6.7638Y-6.6319
X6.7677Y-3.4528
X6.7677Y-3.5315
X6.7677Y-3.563
X6.7677Y-3.6102
X6.7677Y-3.6417
X6.7677Y-3.4843
X6.7756Y-6.2323
X6.7756Y-5.6811
X6.7756Y-5.5787
X6.7795Y-6.5177
X6.7874Y-3.3976
X6.8012Y-3.2717
X6.8268Y-3.2717
X6.8465Y-3.1575
X6.8465Y-3.185
X6.8524Y-3.2717
X6.8583Y-6.6496
X6.874Y-3.185
X6.874Y-3.1575
X6.9016Y-3.185
X6.9016Y-3.1575
X6.9232Y-8.126
X6.9232Y-8.1575
X6.937Y-2.8504
X6.9449Y-3.4134
X6.9449Y-3.3346
X6.9449Y-3.7008
X6.9449Y-3.7559
X6.9449Y-3.252
X6.9449Y-4.7559
X6.9547Y-8.1575
X6.9547Y-8.126
X6.9724Y-5.6811
X6.9744Y-2.8366
X6.9961Y-2.7087
X7.002Y-2.7618
X7.0038Y-7.3995
X7.0101Y-5.473
X7.0118Y-5.5787
X7.0356Y-5.4836
X7.0414Y-5.6823
X7.0512Y-5.6142
X7.0512Y-5.6457
X7.0591Y-3.7008
X7.063Y-3.1535
X7.0748Y-3.0866
X7.0827Y-5.6142
X7.0827Y-5.6457
X7.1024Y-3.937
X7.1063Y-3.1142
X7.1102Y-3.2913
X7.1291Y-6.0742
X7.1339Y-2.752
X7.1339Y-2.6732
X7.1339Y-2.7126
X7.1457Y-3.2913
X7.1496Y-3.0827
X7.1496Y-3.6299
X7.1546Y-6.0636
X7.1575Y-2.8071
X7.1732Y-3.3386
X7.1732Y-3.3701
X7.1772Y-3.7559
X7.1772Y-3.0827
X7.1968Y-2.8071
X7.2126Y-3.3858
X7.2165Y-3.4685
X7.2165Y-3.5512
X7.2252Y-5.1338
X7.2402Y-2.7992
X7.2598Y-3.0
X7.2598Y-3.0866
X7.2638Y-5.315
X7.2677Y-2.7992
X7.2913Y-3.563
X7.2953Y-2.7992
X7.2992Y-6.2
X7.311Y-3.0236
X7.315Y-2.9055
X7.315Y-2.9331
X7.315Y-2.9606
X7.3268Y-6.0984
X7.3307Y-3.1969
X7.3425Y-2.9606
X7.3425Y-2.9331
X7.3425Y-2.9055
X7.351Y-4.9638
X7.3543Y-3.563
X7.3543Y-2.6299
X7.3616Y-4.9892
X7.3661Y-7.9843
X7.3701Y-2.9606
X7.3701Y-2.9055
X7.3701Y-2.9331
X7.3852Y-2.5669
X7.4016Y-2.6299
X7.4016Y-2.7953
X7.4173Y-7.6181
X7.437Y-6.0354
X7.437Y-3.4213
X7.4488Y-3.6319
X7.4606Y-2.6929
X7.4764Y-7.6181
X7.4764Y-7.7717
X7.4921Y-3.4213
X7.5Y-2.9646
X7.5Y-2.9961
X7.5079Y-3.3661
X7.5098Y-3.563
X7.5157Y-2.6299
X7.5197Y-3.4055
X7.5984Y-3.1142
X7.6181Y-3.4331
X7.626Y-5.1614
X7.6358Y-3.563
X7.6378Y-2.9764
X7.6384Y-6.4151
X7.6398Y-8.2283
X7.6398Y-7.4783
X7.6398Y-7.5059
X7.6398Y-8.2559
X7.6457Y-3.4331
X7.6489Y-6.3896
X7.6673Y-3.563
X7.6732Y-3.4331
X7.6988Y-3.502
X7.6988Y-3.563
X7.7087Y-4.8622
X7.7242Y-5.169
X7.7244Y-4.7992
X7.7244Y-4.9843
X7.7362Y-4.7559
X7.7401Y-5.1029
X7.748Y-3.0433
X7.7559Y-4.5
X7.7579Y-2.7579
X7.7579Y-2.8484
X7.7756Y-2.878
X7.7854Y-2.8484
X7.7854Y-2.7579
X7.7953Y-6.2874
X7.7992Y-3.563
X7.8031Y-4.5787
X7.811Y-3.0984
X7.811Y-3.1299
X7.813Y-2.7579
X7.813Y-2.8484
X7.8307Y-3.563
X7.8307Y-3.502
X7.8406Y-2.7579
X7.8406Y-2.8484
X7.8476Y-6.3838
X7.8504Y-3.0866
X7.878Y-3.0079
X7.8819Y-3.3661
X7.9055Y-3.0866
X7.9065Y-5.1929
X7.9134Y-3.3858
X7.9291Y-3.4606
X7.9291Y-4.7559
X7.9488Y-3.063
X7.9488Y-3.0
X7.9488Y-3.0315
X7.9528Y-3.3701
X7.9646Y-5.1614
X7.9764Y-7.7835
X7.9843Y-3.3701
X7.9882Y-4.8386
X7.9961Y-3.2402
X8.0118Y-2.8898
X8.0157Y-3.3701
X8.0158Y-4.8504
X8.0354Y-8.2972
X8.0354Y-7.5472
X8.0413Y-3.565
X8.0433Y-3.0433
X8.0472Y-3.3701
X8.0512Y-2.8898
X8.0748Y-5.3701
X8.0748Y-5.4528
X8.0787Y-3.3307
X8.0807Y-3.565
X8.0906Y-2.8898
X8.0906Y-7.6732
X8.0906Y-7.6181
X8.1102Y-3.3307
X8.1142Y-3.5
X8.126Y-5.4961
X8.1299Y-2.8898
X8.1299Y-2.8504
X8.1417Y-3.6319
X8.1417Y-5.1929
X8.1535Y-6.6299
X8.1535Y-6.0354
X8.1575Y-3.0984
X8.1575Y-3.248
X8.1575Y-2.9724
X8.2087Y-5.3583
X8.2087Y-5.2953
X8.2087Y-5.3268
X8.2205Y-3.4055
X8.2205Y-3.4921
X8.229Y-6.2706
X8.2395Y-6.2961
X8.248Y-2.8543
X8.252Y-4.4685
X8.2559Y-5.1811
X8.2598Y-3.4921
X8.2638Y-6.0984
X8.2874Y-2.8543
X8.2914Y-5.0598
X8.3071Y-5.8937
X8.3189Y-3.4803
X8.3189Y-3.5118
X8.3189Y-3.5433
X8.3189Y-3.5748
X8.3268Y-2.8543
X8.3268Y-5.315
X8.3307Y-3.0787
X8.3386Y-7.6732
X8.3465Y-3.6024
X8.3543Y-2.9173
X8.3654Y-6.126
X8.3661Y-3.4016
X8.3661Y-2.8543
X8.378Y-3.6024
X8.3976Y-3.4016
X8.4016Y-3.7795
X8.4055Y-2.8543
X8.4094Y-3.6024
X8.4291Y-3.4016
X8.4359Y-5.1962
X8.437Y-4.4055
X8.4409Y-3.6024
X8.4488Y-2.9567
X8.4606Y-3.4016
X8.4614Y-5.1857
X8.4705Y-4.4213
X8.4724Y-3.6024
X8.4764Y-6.6299
X8.4843Y-3.0551
X8.4843Y-7.6181
X8.4921Y-3.4016
X8.5039Y-3.6024
X8.5236Y-3.4016
X8.5276Y-4.4173
X8.5354Y-3.6024
X8.5492Y-5.5776
X8.555Y-5.7763
X8.563Y-2.9173
X8.5669Y-3.5394
X8.5669Y-3.4449
X8.5669Y-3.4764
X8.5669Y-3.5709
X8.5669Y-3.5079
X8.5804Y-5.7868
X8.6024Y-2.8543
X8.622Y-3.2126
X8.6256Y-7.2975
X8.6378Y-2.8543
X8.6394Y-7.3214
X8.6457Y-4.7559
X8.6614Y-2.9331
X8.689Y-3.7559
X8.689Y-4.7559
X8.874Y-3.0866
X8.8819Y-2.7835
X8.9055Y-3.4685
X8.9055Y-4.2008
X8.9134Y-4.5591
X8.9488Y-6.4488
X8.9724Y-4.4488
X8.9941Y-4.2854
X9.0027Y-7.1594
X9.0072Y-4.1817
X9.0118Y-7.4919
X9.0118Y-7.5352
X9.0394Y-4.4488
X9.0414Y-4.1725
X9.0512Y-6.122
X9.0512Y-5.0512
X9.0551Y-5.1063
X9.0551Y-6.7087
X9.0591Y-4.5118
X9.0945Y-7.4132
X9.15Y-4.7148
X9.1772Y-7.5354
X9.1772Y-7.4919
X9.1843Y-4.7056
X9.1968Y-5.0157
X9.2063Y-3.9816
X9.2126Y-5.0709
X9.2134Y-4.0082
X9.2165Y-3.3622
X9.2323Y-7.0748
X9.2461Y-3.3622
X9.315Y-6.5177
X9.3222Y-4.7412
X9.3622Y-6.628
X9.3954Y-5.6305
X9.4134Y-5.8346
X9.4296Y-5.6214
X9.5383Y-6.1637
X9.5725Y-6.1545
X9.5945Y-5.4305
X9.6016Y-5.4571
X9.6063Y-3.9457
X9.6298Y-7.5446
X9.6493Y-7.5641
X9.7104Y-6.1901
X9.7151Y-4.6788
X9.7222Y-4.7054
X9.7559Y-7.5787
X9.8071Y-3.9213
X9.8984Y-3.6667
X9.9055Y-3.6933
X9.9583Y-7.3136
X9.9945Y-5.3946
X10.0143Y-4.4264
X10.1033Y-6.1277
X10.1104Y-6.1543
X10.2405Y-7.0249
X10.2542Y-7.0488
X10.2866Y-5.1156
X10.2937Y-5.1422
X10.2984Y-3.6309
X10.3898Y-3.7638
X10.4025Y-5.8753
X10.4072Y-4.3639
X10.4143Y-4.3905
X10.4685Y-3.6535
X10.5551Y-3.5551
X10.5824Y-3.3217
X10.5895Y-3.3483
X10.6176Y-6.8867
X10.6866Y-5.0798
X10.6983Y-4.0813
X10.7954Y-5.8128
X10.8025Y-5.8394
X10.9648Y-6.6809
X10.9706Y-4.7706
X10.972Y-6.7075
X10.9777Y-4.7972
X10.9824Y-3.2858
X11.0865Y-5.5302
X11.0912Y-4.0189
X11.0983Y-4.0455
X11.3473Y-3.2785
X11.3544Y-3.3051
X11.3649Y-6.645
X11.3706Y-4.7347
X11.4134Y-3.4882
X11.4632Y-4.0382
X11.4794Y-5.4678
X11.4865Y-5.4944
X11.7355Y-4.7274
X11.7426Y-4.754
X11.7473Y-3.2426
X11.8071Y-3.3819
X11.8514Y-5.487
X11.8561Y-3.9757
X11.8632Y-4.0023
X12.0945Y-3.5
X12.1202Y-3.2655
X12.1237Y-6.1763
X12.1274Y-3.2921
X12.1309Y-6.2029
X12.1355Y-4.6915
X12.2362Y-4.0252
X12.2443Y-5.4246
X12.2514Y-5.4512
X12.5085Y-4.7144
X12.5156Y-4.741
X12.5203Y-3.2296
X12.5237Y-6.1404
X12.6244Y-5.474
X12.629Y-3.9627
X12.6339Y-3.3543
X12.6362Y-3.9893
X12.8689Y-3.1619
X12.8761Y-3.1886
X12.8967Y-6.1633
X12.9038Y-6.1899
X12.9085Y-4.6785
X12.9849Y-3.9216
X13.0173Y-5.4116
X13.0244Y-5.4382
X13.2572Y-4.6108
X13.2643Y-4.6374
X13.269Y-3.1261
X13.2967Y-6.1274
X13.3731Y-5.3705
X13.3777Y-3.8591
X13.3849Y-3.8857
X13.6454Y-6.0597
X13.6525Y-6.0863
X13.6572Y-4.575
X13.766Y-5.308
X13.7731Y-5.3346
X14.0454Y-6.0239
T3
X8.185Y-3.122
X8.185Y-3.1732
X8.185Y-3.2244
X8.2362Y-3.122
X8.2362Y-3.1732
X8.2362Y-3.2244
X8.2874Y-3.122
X8.2874Y-3.1732
X8.2874Y-3.2244
T4
X7.5846Y-5.4421
X7.5846Y-5.5122
X7.5846Y-5.5823
X7.5846Y-5.6524
X7.5846Y-5.7224
X7.5846Y-5.7925
X7.5846Y-5.8626
X7.5846Y-5.9327
X8.0059Y-5.4071
X8.0059Y-5.4772
X8.0059Y-5.5472
X8.0059Y-5.6173
X8.0059Y-5.6874
X8.0059Y-5.7575
X8.0059Y-5.8276
X8.0059Y-5.8976
T5
X6.7874Y-4.3311
X6.7874Y-4.4311
X6.7874Y-4.5311
X6.7874Y-4.6311
X7.0079Y-2.9362
X7.0079Y-3.0362
X7.0079Y-3.1362
X7.0079Y-3.2362
X7.0079Y-3.3362
X7.0079Y-3.4362
X7.0079Y-3.5362
X8.3006Y-4.5578
X8.3858Y-4.6071
X8.4711Y-4.6563
X8.6732Y-4.0339
X8.6732Y-4.1339
X8.6732Y-4.2339
X9.0118Y-7.9724
X9.0118Y-8.0709
X9.0118Y-8.1693
T6
X6.4075Y-7.9843
X6.4075Y-8.1614
X6.6634Y-7.9843
X6.6634Y-8.1614
T7
X6.5354Y-7.7953
X6.5354Y-7.9953
X6.5354Y-8.1953
T9
X7.0177Y-2.6063
X7.0177Y-3.8661
X8.5728Y-2.6063
X8.5728Y-3.8661
T10
X6.7717Y-8.3268
X6.7717Y-7.815
X6.9053Y-6.3768
X7.5935Y-6.7742
X8.8189Y-7.8189
X8.8189Y-8.3268
T11
X7.3265Y-8.3478
X8.264Y-8.3478
T12
X3.0125Y-6.4026
X6.2598Y-7.7953
X6.7697Y-2.6597
X7.252Y-5.6299
X8.3386Y-5.6299
X8.8209Y-2.6597
X9.3307Y-7.7953
X12.578Y-6.4026
T8
G00X9.0866Y-7.8937
M15
G01X9.0945Y-7.8937
M16
G05
G00X9.0866Y-8.248
M15
G01X9.0945Y-8.248
M16
G05
T12
G00X6.8875Y-4.9704
M15
G01X6.8875Y-4.9704
M16
G05
G00X8.8203Y-6.0863
M15
G01X8.8203Y-6.0863
M16
G05
T0
M30
