%TF.GenerationSoftware,KiCad,Pcbnew,(7.0.0)*%
%TF.CreationDate,2023-03-08T00:54:44+00:00*%
%TF.ProjectId,Honeydew,486f6e65-7964-4657-972e-6b696361645f,rev?*%
%TF.SameCoordinates,Original*%
%TF.FileFunction,Legend,Top*%
%TF.FilePolarity,Positive*%
%FSLAX46Y46*%
G04 Gerber Fmt 4.6, Leading zero omitted, Abs format (unit mm)*
G04 Created by KiCad (PCBNEW (7.0.0)) date 2023-03-08 00:54:44*
%MOMM*%
%LPD*%
G01*
G04 APERTURE LIST*
%ADD10C,0.150000*%
%ADD11C,0.300000*%
%ADD12C,0.120000*%
%ADD13C,0.100000*%
%ADD14C,2.000000*%
%ADD15R,2.500000X6.000000*%
%ADD16C,3.500000*%
%ADD17C,5.600000*%
%ADD18C,0.650000*%
%ADD19R,0.600000X1.450000*%
%ADD20R,0.300000X1.450000*%
%ADD21O,1.000000X2.100000*%
%ADD22O,1.000000X1.600000*%
%ADD23R,1.700000X1.700000*%
%ADD24O,1.700000X1.700000*%
%ADD25C,4.000000*%
%ADD26C,1.750000*%
%ADD27C,3.000000*%
%ADD28C,3.987800*%
%ADD29R,1.200000X1.200000*%
%ADD30C,1.200000*%
G04 APERTURE END LIST*
D10*
X144888097Y-42642380D02*
X144888097Y-41642380D01*
X144888097Y-41642380D02*
X145126192Y-41642380D01*
X145126192Y-41642380D02*
X145269049Y-41690000D01*
X145269049Y-41690000D02*
X145364287Y-41785238D01*
X145364287Y-41785238D02*
X145411906Y-41880476D01*
X145411906Y-41880476D02*
X145459525Y-42070952D01*
X145459525Y-42070952D02*
X145459525Y-42213809D01*
X145459525Y-42213809D02*
X145411906Y-42404285D01*
X145411906Y-42404285D02*
X145364287Y-42499523D01*
X145364287Y-42499523D02*
X145269049Y-42594761D01*
X145269049Y-42594761D02*
X145126192Y-42642380D01*
X145126192Y-42642380D02*
X144888097Y-42642380D01*
X146459525Y-42547142D02*
X146411906Y-42594761D01*
X146411906Y-42594761D02*
X146269049Y-42642380D01*
X146269049Y-42642380D02*
X146173811Y-42642380D01*
X146173811Y-42642380D02*
X146030954Y-42594761D01*
X146030954Y-42594761D02*
X145935716Y-42499523D01*
X145935716Y-42499523D02*
X145888097Y-42404285D01*
X145888097Y-42404285D02*
X145840478Y-42213809D01*
X145840478Y-42213809D02*
X145840478Y-42070952D01*
X145840478Y-42070952D02*
X145888097Y-41880476D01*
X145888097Y-41880476D02*
X145935716Y-41785238D01*
X145935716Y-41785238D02*
X146030954Y-41690000D01*
X146030954Y-41690000D02*
X146173811Y-41642380D01*
X146173811Y-41642380D02*
X146269049Y-41642380D01*
X146269049Y-41642380D02*
X146411906Y-41690000D01*
X146411906Y-41690000D02*
X146459525Y-41737619D01*
X143978573Y-35017381D02*
X143978573Y-34017381D01*
X143978573Y-34017381D02*
X144311906Y-34731667D01*
X144311906Y-34731667D02*
X144645239Y-34017381D01*
X144645239Y-34017381D02*
X144645239Y-35017381D01*
X145311906Y-34017381D02*
X145502382Y-34017381D01*
X145502382Y-34017381D02*
X145597620Y-34065001D01*
X145597620Y-34065001D02*
X145692858Y-34160239D01*
X145692858Y-34160239D02*
X145740477Y-34350715D01*
X145740477Y-34350715D02*
X145740477Y-34684048D01*
X145740477Y-34684048D02*
X145692858Y-34874524D01*
X145692858Y-34874524D02*
X145597620Y-34969762D01*
X145597620Y-34969762D02*
X145502382Y-35017381D01*
X145502382Y-35017381D02*
X145311906Y-35017381D01*
X145311906Y-35017381D02*
X145216668Y-34969762D01*
X145216668Y-34969762D02*
X145121430Y-34874524D01*
X145121430Y-34874524D02*
X145073811Y-34684048D01*
X145073811Y-34684048D02*
X145073811Y-34350715D01*
X145073811Y-34350715D02*
X145121430Y-34160239D01*
X145121430Y-34160239D02*
X145216668Y-34065001D01*
X145216668Y-34065001D02*
X145311906Y-34017381D01*
X146121430Y-34969762D02*
X146264287Y-35017381D01*
X146264287Y-35017381D02*
X146502382Y-35017381D01*
X146502382Y-35017381D02*
X146597620Y-34969762D01*
X146597620Y-34969762D02*
X146645239Y-34922143D01*
X146645239Y-34922143D02*
X146692858Y-34826905D01*
X146692858Y-34826905D02*
X146692858Y-34731667D01*
X146692858Y-34731667D02*
X146645239Y-34636429D01*
X146645239Y-34636429D02*
X146597620Y-34588810D01*
X146597620Y-34588810D02*
X146502382Y-34541191D01*
X146502382Y-34541191D02*
X146311906Y-34493572D01*
X146311906Y-34493572D02*
X146216668Y-34445953D01*
X146216668Y-34445953D02*
X146169049Y-34398334D01*
X146169049Y-34398334D02*
X146121430Y-34303096D01*
X146121430Y-34303096D02*
X146121430Y-34207858D01*
X146121430Y-34207858D02*
X146169049Y-34112620D01*
X146169049Y-34112620D02*
X146216668Y-34065001D01*
X146216668Y-34065001D02*
X146311906Y-34017381D01*
X146311906Y-34017381D02*
X146550001Y-34017381D01*
X146550001Y-34017381D02*
X146692858Y-34065001D01*
X147121430Y-35017381D02*
X147121430Y-34017381D01*
X168247620Y-55967380D02*
X168438096Y-55967380D01*
X168438096Y-55967380D02*
X168533334Y-56015000D01*
X168533334Y-56015000D02*
X168628572Y-56110238D01*
X168628572Y-56110238D02*
X168676191Y-56300714D01*
X168676191Y-56300714D02*
X168676191Y-56634047D01*
X168676191Y-56634047D02*
X168628572Y-56824523D01*
X168628572Y-56824523D02*
X168533334Y-56919761D01*
X168533334Y-56919761D02*
X168438096Y-56967380D01*
X168438096Y-56967380D02*
X168247620Y-56967380D01*
X168247620Y-56967380D02*
X168152382Y-56919761D01*
X168152382Y-56919761D02*
X168057144Y-56824523D01*
X168057144Y-56824523D02*
X168009525Y-56634047D01*
X168009525Y-56634047D02*
X168009525Y-56300714D01*
X168009525Y-56300714D02*
X168057144Y-56110238D01*
X168057144Y-56110238D02*
X168152382Y-56015000D01*
X168152382Y-56015000D02*
X168247620Y-55967380D01*
X169580953Y-56967380D02*
X169104763Y-56967380D01*
X169104763Y-56967380D02*
X169104763Y-55967380D01*
X169914287Y-56443571D02*
X170247620Y-56443571D01*
X170390477Y-56967380D02*
X169914287Y-56967380D01*
X169914287Y-56967380D02*
X169914287Y-55967380D01*
X169914287Y-55967380D02*
X170390477Y-55967380D01*
X170819049Y-56967380D02*
X170819049Y-55967380D01*
X170819049Y-55967380D02*
X171057144Y-55967380D01*
X171057144Y-55967380D02*
X171200001Y-56015000D01*
X171200001Y-56015000D02*
X171295239Y-56110238D01*
X171295239Y-56110238D02*
X171342858Y-56205476D01*
X171342858Y-56205476D02*
X171390477Y-56395952D01*
X171390477Y-56395952D02*
X171390477Y-56538809D01*
X171390477Y-56538809D02*
X171342858Y-56729285D01*
X171342858Y-56729285D02*
X171295239Y-56824523D01*
X171295239Y-56824523D02*
X171200001Y-56919761D01*
X171200001Y-56919761D02*
X171057144Y-56967380D01*
X171057144Y-56967380D02*
X170819049Y-56967380D01*
X145102381Y-45192380D02*
X144769048Y-44716190D01*
X144530953Y-45192380D02*
X144530953Y-44192380D01*
X144530953Y-44192380D02*
X144911905Y-44192380D01*
X144911905Y-44192380D02*
X145007143Y-44240000D01*
X145007143Y-44240000D02*
X145054762Y-44287619D01*
X145054762Y-44287619D02*
X145102381Y-44382857D01*
X145102381Y-44382857D02*
X145102381Y-44525714D01*
X145102381Y-44525714D02*
X145054762Y-44620952D01*
X145054762Y-44620952D02*
X145007143Y-44668571D01*
X145007143Y-44668571D02*
X144911905Y-44716190D01*
X144911905Y-44716190D02*
X144530953Y-44716190D01*
X145483334Y-45144761D02*
X145626191Y-45192380D01*
X145626191Y-45192380D02*
X145864286Y-45192380D01*
X145864286Y-45192380D02*
X145959524Y-45144761D01*
X145959524Y-45144761D02*
X146007143Y-45097142D01*
X146007143Y-45097142D02*
X146054762Y-45001904D01*
X146054762Y-45001904D02*
X146054762Y-44906666D01*
X146054762Y-44906666D02*
X146007143Y-44811428D01*
X146007143Y-44811428D02*
X145959524Y-44763809D01*
X145959524Y-44763809D02*
X145864286Y-44716190D01*
X145864286Y-44716190D02*
X145673810Y-44668571D01*
X145673810Y-44668571D02*
X145578572Y-44620952D01*
X145578572Y-44620952D02*
X145530953Y-44573333D01*
X145530953Y-44573333D02*
X145483334Y-44478095D01*
X145483334Y-44478095D02*
X145483334Y-44382857D01*
X145483334Y-44382857D02*
X145530953Y-44287619D01*
X145530953Y-44287619D02*
X145578572Y-44240000D01*
X145578572Y-44240000D02*
X145673810Y-44192380D01*
X145673810Y-44192380D02*
X145911905Y-44192380D01*
X145911905Y-44192380D02*
X146054762Y-44240000D01*
X146340477Y-44192380D02*
X146911905Y-44192380D01*
X146626191Y-45192380D02*
X146626191Y-44192380D01*
X144788096Y-31510003D02*
X144692858Y-31462383D01*
X144692858Y-31462383D02*
X144550001Y-31462383D01*
X144550001Y-31462383D02*
X144407144Y-31510003D01*
X144407144Y-31510003D02*
X144311906Y-31605241D01*
X144311906Y-31605241D02*
X144264287Y-31700479D01*
X144264287Y-31700479D02*
X144216668Y-31890955D01*
X144216668Y-31890955D02*
X144216668Y-32033812D01*
X144216668Y-32033812D02*
X144264287Y-32224288D01*
X144264287Y-32224288D02*
X144311906Y-32319526D01*
X144311906Y-32319526D02*
X144407144Y-32414764D01*
X144407144Y-32414764D02*
X144550001Y-32462383D01*
X144550001Y-32462383D02*
X144645239Y-32462383D01*
X144645239Y-32462383D02*
X144788096Y-32414764D01*
X144788096Y-32414764D02*
X144835715Y-32367145D01*
X144835715Y-32367145D02*
X144835715Y-32033812D01*
X144835715Y-32033812D02*
X144645239Y-32033812D01*
X145264287Y-32462383D02*
X145264287Y-31462383D01*
X145264287Y-31462383D02*
X145835715Y-32462383D01*
X145835715Y-32462383D02*
X145835715Y-31462383D01*
X146311906Y-32462383D02*
X146311906Y-31462383D01*
X146311906Y-31462383D02*
X146550001Y-31462383D01*
X146550001Y-31462383D02*
X146692858Y-31510003D01*
X146692858Y-31510003D02*
X146788096Y-31605241D01*
X146788096Y-31605241D02*
X146835715Y-31700479D01*
X146835715Y-31700479D02*
X146883334Y-31890955D01*
X146883334Y-31890955D02*
X146883334Y-32033812D01*
X146883334Y-32033812D02*
X146835715Y-32224288D01*
X146835715Y-32224288D02*
X146788096Y-32319526D01*
X146788096Y-32319526D02*
X146692858Y-32414764D01*
X146692858Y-32414764D02*
X146550001Y-32462383D01*
X146550001Y-32462383D02*
X146311906Y-32462383D01*
X144264289Y-37519762D02*
X144407146Y-37567381D01*
X144407146Y-37567381D02*
X144645241Y-37567381D01*
X144645241Y-37567381D02*
X144740479Y-37519762D01*
X144740479Y-37519762D02*
X144788098Y-37472143D01*
X144788098Y-37472143D02*
X144835717Y-37376905D01*
X144835717Y-37376905D02*
X144835717Y-37281667D01*
X144835717Y-37281667D02*
X144788098Y-37186429D01*
X144788098Y-37186429D02*
X144740479Y-37138810D01*
X144740479Y-37138810D02*
X144645241Y-37091191D01*
X144645241Y-37091191D02*
X144454765Y-37043572D01*
X144454765Y-37043572D02*
X144359527Y-36995953D01*
X144359527Y-36995953D02*
X144311908Y-36948334D01*
X144311908Y-36948334D02*
X144264289Y-36853096D01*
X144264289Y-36853096D02*
X144264289Y-36757858D01*
X144264289Y-36757858D02*
X144311908Y-36662620D01*
X144311908Y-36662620D02*
X144359527Y-36615001D01*
X144359527Y-36615001D02*
X144454765Y-36567381D01*
X144454765Y-36567381D02*
X144692860Y-36567381D01*
X144692860Y-36567381D02*
X144835717Y-36615001D01*
X145835717Y-37472143D02*
X145788098Y-37519762D01*
X145788098Y-37519762D02*
X145645241Y-37567381D01*
X145645241Y-37567381D02*
X145550003Y-37567381D01*
X145550003Y-37567381D02*
X145407146Y-37519762D01*
X145407146Y-37519762D02*
X145311908Y-37424524D01*
X145311908Y-37424524D02*
X145264289Y-37329286D01*
X145264289Y-37329286D02*
X145216670Y-37138810D01*
X145216670Y-37138810D02*
X145216670Y-36995953D01*
X145216670Y-36995953D02*
X145264289Y-36805477D01*
X145264289Y-36805477D02*
X145311908Y-36710239D01*
X145311908Y-36710239D02*
X145407146Y-36615001D01*
X145407146Y-36615001D02*
X145550003Y-36567381D01*
X145550003Y-36567381D02*
X145645241Y-36567381D01*
X145645241Y-36567381D02*
X145788098Y-36615001D01*
X145788098Y-36615001D02*
X145835717Y-36662620D01*
X146264289Y-37567381D02*
X146264289Y-36567381D01*
X146835717Y-37567381D02*
X146407146Y-36995953D01*
X146835717Y-36567381D02*
X146264289Y-37138810D01*
X167984301Y-64311905D02*
X167936681Y-64407143D01*
X167936681Y-64407143D02*
X167936681Y-64550000D01*
X167936681Y-64550000D02*
X167984301Y-64692857D01*
X167984301Y-64692857D02*
X168079539Y-64788095D01*
X168079539Y-64788095D02*
X168174777Y-64835714D01*
X168174777Y-64835714D02*
X168365253Y-64883333D01*
X168365253Y-64883333D02*
X168508110Y-64883333D01*
X168508110Y-64883333D02*
X168698586Y-64835714D01*
X168698586Y-64835714D02*
X168793824Y-64788095D01*
X168793824Y-64788095D02*
X168889062Y-64692857D01*
X168889062Y-64692857D02*
X168936681Y-64550000D01*
X168936681Y-64550000D02*
X168936681Y-64454762D01*
X168936681Y-64454762D02*
X168889062Y-64311905D01*
X168889062Y-64311905D02*
X168841443Y-64264286D01*
X168841443Y-64264286D02*
X168508110Y-64264286D01*
X168508110Y-64264286D02*
X168508110Y-64454762D01*
X168936681Y-63835714D02*
X167936681Y-63835714D01*
X167936681Y-63835714D02*
X168936681Y-63264286D01*
X168936681Y-63264286D02*
X167936681Y-63264286D01*
X168936681Y-62788095D02*
X167936681Y-62788095D01*
X167936681Y-62788095D02*
X167936681Y-62550000D01*
X167936681Y-62550000D02*
X167984301Y-62407143D01*
X167984301Y-62407143D02*
X168079539Y-62311905D01*
X168079539Y-62311905D02*
X168174777Y-62264286D01*
X168174777Y-62264286D02*
X168365253Y-62216667D01*
X168365253Y-62216667D02*
X168508110Y-62216667D01*
X168508110Y-62216667D02*
X168698586Y-62264286D01*
X168698586Y-62264286D02*
X168793824Y-62311905D01*
X168793824Y-62311905D02*
X168889062Y-62407143D01*
X168889062Y-62407143D02*
X168936681Y-62550000D01*
X168936681Y-62550000D02*
X168936681Y-62788095D01*
X171371442Y-64145238D02*
X171419061Y-64192857D01*
X171419061Y-64192857D02*
X171466680Y-64335714D01*
X171466680Y-64335714D02*
X171466680Y-64430952D01*
X171466680Y-64430952D02*
X171419061Y-64573809D01*
X171419061Y-64573809D02*
X171323823Y-64669047D01*
X171323823Y-64669047D02*
X171228585Y-64716666D01*
X171228585Y-64716666D02*
X171038109Y-64764285D01*
X171038109Y-64764285D02*
X170895252Y-64764285D01*
X170895252Y-64764285D02*
X170704776Y-64716666D01*
X170704776Y-64716666D02*
X170609538Y-64669047D01*
X170609538Y-64669047D02*
X170514300Y-64573809D01*
X170514300Y-64573809D02*
X170466680Y-64430952D01*
X170466680Y-64430952D02*
X170466680Y-64335714D01*
X170466680Y-64335714D02*
X170514300Y-64192857D01*
X170514300Y-64192857D02*
X170561919Y-64145238D01*
X171466680Y-63240476D02*
X171466680Y-63716666D01*
X171466680Y-63716666D02*
X170466680Y-63716666D01*
X171466680Y-62907142D02*
X170466680Y-62907142D01*
X171466680Y-62335714D02*
X170895252Y-62764285D01*
X170466680Y-62335714D02*
X171038109Y-62907142D01*
X166279061Y-64907142D02*
X166326680Y-64764285D01*
X166326680Y-64764285D02*
X166326680Y-64526190D01*
X166326680Y-64526190D02*
X166279061Y-64430952D01*
X166279061Y-64430952D02*
X166231442Y-64383333D01*
X166231442Y-64383333D02*
X166136204Y-64335714D01*
X166136204Y-64335714D02*
X166040966Y-64335714D01*
X166040966Y-64335714D02*
X165945728Y-64383333D01*
X165945728Y-64383333D02*
X165898109Y-64430952D01*
X165898109Y-64430952D02*
X165850490Y-64526190D01*
X165850490Y-64526190D02*
X165802871Y-64716666D01*
X165802871Y-64716666D02*
X165755252Y-64811904D01*
X165755252Y-64811904D02*
X165707633Y-64859523D01*
X165707633Y-64859523D02*
X165612395Y-64907142D01*
X165612395Y-64907142D02*
X165517157Y-64907142D01*
X165517157Y-64907142D02*
X165421919Y-64859523D01*
X165421919Y-64859523D02*
X165374300Y-64811904D01*
X165374300Y-64811904D02*
X165326680Y-64716666D01*
X165326680Y-64716666D02*
X165326680Y-64478571D01*
X165326680Y-64478571D02*
X165374300Y-64335714D01*
X165326680Y-64002380D02*
X166326680Y-63764285D01*
X166326680Y-63764285D02*
X165612395Y-63573809D01*
X165612395Y-63573809D02*
X166326680Y-63383333D01*
X166326680Y-63383333D02*
X165326680Y-63145238D01*
X166326680Y-62764285D02*
X165326680Y-62764285D01*
X165326680Y-62764285D02*
X165326680Y-62526190D01*
X165326680Y-62526190D02*
X165374300Y-62383333D01*
X165374300Y-62383333D02*
X165469538Y-62288095D01*
X165469538Y-62288095D02*
X165564776Y-62240476D01*
X165564776Y-62240476D02*
X165755252Y-62192857D01*
X165755252Y-62192857D02*
X165898109Y-62192857D01*
X165898109Y-62192857D02*
X166088585Y-62240476D01*
X166088585Y-62240476D02*
X166183823Y-62288095D01*
X166183823Y-62288095D02*
X166279061Y-62383333D01*
X166279061Y-62383333D02*
X166326680Y-62526190D01*
X166326680Y-62526190D02*
X166326680Y-62764285D01*
X173036680Y-64788094D02*
X173036680Y-64169047D01*
X173036680Y-64169047D02*
X173417633Y-64502380D01*
X173417633Y-64502380D02*
X173417633Y-64359523D01*
X173417633Y-64359523D02*
X173465252Y-64264285D01*
X173465252Y-64264285D02*
X173512871Y-64216666D01*
X173512871Y-64216666D02*
X173608109Y-64169047D01*
X173608109Y-64169047D02*
X173846204Y-64169047D01*
X173846204Y-64169047D02*
X173941442Y-64216666D01*
X173941442Y-64216666D02*
X173989061Y-64264285D01*
X173989061Y-64264285D02*
X174036680Y-64359523D01*
X174036680Y-64359523D02*
X174036680Y-64645237D01*
X174036680Y-64645237D02*
X173989061Y-64740475D01*
X173989061Y-64740475D02*
X173941442Y-64788094D01*
X173036680Y-63883332D02*
X174036680Y-63549999D01*
X174036680Y-63549999D02*
X173036680Y-63216666D01*
X173036680Y-62978570D02*
X173036680Y-62359523D01*
X173036680Y-62359523D02*
X173417633Y-62692856D01*
X173417633Y-62692856D02*
X173417633Y-62549999D01*
X173417633Y-62549999D02*
X173465252Y-62454761D01*
X173465252Y-62454761D02*
X173512871Y-62407142D01*
X173512871Y-62407142D02*
X173608109Y-62359523D01*
X173608109Y-62359523D02*
X173846204Y-62359523D01*
X173846204Y-62359523D02*
X173941442Y-62407142D01*
X173941442Y-62407142D02*
X173989061Y-62454761D01*
X173989061Y-62454761D02*
X174036680Y-62549999D01*
X174036680Y-62549999D02*
X174036680Y-62835713D01*
X174036680Y-62835713D02*
X173989061Y-62930951D01*
X173989061Y-62930951D02*
X173941442Y-62978570D01*
X166961905Y-156843572D02*
X167295238Y-156843572D01*
X167438095Y-157367381D02*
X166961905Y-157367381D01*
X166961905Y-157367381D02*
X166961905Y-156367381D01*
X166961905Y-156367381D02*
X167438095Y-156367381D01*
X167866667Y-156700715D02*
X167866667Y-157367381D01*
X167866667Y-156795953D02*
X167914286Y-156748334D01*
X167914286Y-156748334D02*
X168009524Y-156700715D01*
X168009524Y-156700715D02*
X168152381Y-156700715D01*
X168152381Y-156700715D02*
X168247619Y-156748334D01*
X168247619Y-156748334D02*
X168295238Y-156843572D01*
X168295238Y-156843572D02*
X168295238Y-157367381D01*
X169200000Y-157319762D02*
X169104762Y-157367381D01*
X169104762Y-157367381D02*
X168914286Y-157367381D01*
X168914286Y-157367381D02*
X168819048Y-157319762D01*
X168819048Y-157319762D02*
X168771429Y-157272143D01*
X168771429Y-157272143D02*
X168723810Y-157176905D01*
X168723810Y-157176905D02*
X168723810Y-156891191D01*
X168723810Y-156891191D02*
X168771429Y-156795953D01*
X168771429Y-156795953D02*
X168819048Y-156748334D01*
X168819048Y-156748334D02*
X168914286Y-156700715D01*
X168914286Y-156700715D02*
X169104762Y-156700715D01*
X169104762Y-156700715D02*
X169200000Y-156748334D01*
X169771429Y-157367381D02*
X169676191Y-157319762D01*
X169676191Y-157319762D02*
X169628572Y-157272143D01*
X169628572Y-157272143D02*
X169580953Y-157176905D01*
X169580953Y-157176905D02*
X169580953Y-156891191D01*
X169580953Y-156891191D02*
X169628572Y-156795953D01*
X169628572Y-156795953D02*
X169676191Y-156748334D01*
X169676191Y-156748334D02*
X169771429Y-156700715D01*
X169771429Y-156700715D02*
X169914286Y-156700715D01*
X169914286Y-156700715D02*
X170009524Y-156748334D01*
X170009524Y-156748334D02*
X170057143Y-156795953D01*
X170057143Y-156795953D02*
X170104762Y-156891191D01*
X170104762Y-156891191D02*
X170104762Y-157176905D01*
X170104762Y-157176905D02*
X170057143Y-157272143D01*
X170057143Y-157272143D02*
X170009524Y-157319762D01*
X170009524Y-157319762D02*
X169914286Y-157367381D01*
X169914286Y-157367381D02*
X169771429Y-157367381D01*
X170961905Y-157367381D02*
X170961905Y-156367381D01*
X170961905Y-157319762D02*
X170866667Y-157367381D01*
X170866667Y-157367381D02*
X170676191Y-157367381D01*
X170676191Y-157367381D02*
X170580953Y-157319762D01*
X170580953Y-157319762D02*
X170533334Y-157272143D01*
X170533334Y-157272143D02*
X170485715Y-157176905D01*
X170485715Y-157176905D02*
X170485715Y-156891191D01*
X170485715Y-156891191D02*
X170533334Y-156795953D01*
X170533334Y-156795953D02*
X170580953Y-156748334D01*
X170580953Y-156748334D02*
X170676191Y-156700715D01*
X170676191Y-156700715D02*
X170866667Y-156700715D01*
X170866667Y-156700715D02*
X170961905Y-156748334D01*
X171819048Y-157319762D02*
X171723810Y-157367381D01*
X171723810Y-157367381D02*
X171533334Y-157367381D01*
X171533334Y-157367381D02*
X171438096Y-157319762D01*
X171438096Y-157319762D02*
X171390477Y-157224524D01*
X171390477Y-157224524D02*
X171390477Y-156843572D01*
X171390477Y-156843572D02*
X171438096Y-156748334D01*
X171438096Y-156748334D02*
X171533334Y-156700715D01*
X171533334Y-156700715D02*
X171723810Y-156700715D01*
X171723810Y-156700715D02*
X171819048Y-156748334D01*
X171819048Y-156748334D02*
X171866667Y-156843572D01*
X171866667Y-156843572D02*
X171866667Y-156938810D01*
X171866667Y-156938810D02*
X171390477Y-157034048D01*
X172295239Y-157367381D02*
X172295239Y-156700715D01*
X172295239Y-156891191D02*
X172342858Y-156795953D01*
X172342858Y-156795953D02*
X172390477Y-156748334D01*
X172390477Y-156748334D02*
X172485715Y-156700715D01*
X172485715Y-156700715D02*
X172580953Y-156700715D01*
D11*
X159887681Y-113313656D02*
X159887681Y-111313656D01*
X159887681Y-112266037D02*
X161030538Y-112266037D01*
X161030538Y-113313656D02*
X161030538Y-111313656D01*
X162268633Y-113313656D02*
X162078157Y-113218418D01*
X162078157Y-113218418D02*
X161982919Y-113123180D01*
X161982919Y-113123180D02*
X161887681Y-112932704D01*
X161887681Y-112932704D02*
X161887681Y-112361275D01*
X161887681Y-112361275D02*
X161982919Y-112170799D01*
X161982919Y-112170799D02*
X162078157Y-112075561D01*
X162078157Y-112075561D02*
X162268633Y-111980323D01*
X162268633Y-111980323D02*
X162554348Y-111980323D01*
X162554348Y-111980323D02*
X162744824Y-112075561D01*
X162744824Y-112075561D02*
X162840062Y-112170799D01*
X162840062Y-112170799D02*
X162935300Y-112361275D01*
X162935300Y-112361275D02*
X162935300Y-112932704D01*
X162935300Y-112932704D02*
X162840062Y-113123180D01*
X162840062Y-113123180D02*
X162744824Y-113218418D01*
X162744824Y-113218418D02*
X162554348Y-113313656D01*
X162554348Y-113313656D02*
X162268633Y-113313656D01*
X163792443Y-111980323D02*
X163792443Y-113313656D01*
X163792443Y-112170799D02*
X163887681Y-112075561D01*
X163887681Y-112075561D02*
X164078157Y-111980323D01*
X164078157Y-111980323D02*
X164363872Y-111980323D01*
X164363872Y-111980323D02*
X164554348Y-112075561D01*
X164554348Y-112075561D02*
X164649586Y-112266037D01*
X164649586Y-112266037D02*
X164649586Y-113313656D01*
X166363872Y-113218418D02*
X166173396Y-113313656D01*
X166173396Y-113313656D02*
X165792443Y-113313656D01*
X165792443Y-113313656D02*
X165601967Y-113218418D01*
X165601967Y-113218418D02*
X165506729Y-113027942D01*
X165506729Y-113027942D02*
X165506729Y-112266037D01*
X165506729Y-112266037D02*
X165601967Y-112075561D01*
X165601967Y-112075561D02*
X165792443Y-111980323D01*
X165792443Y-111980323D02*
X166173396Y-111980323D01*
X166173396Y-111980323D02*
X166363872Y-112075561D01*
X166363872Y-112075561D02*
X166459110Y-112266037D01*
X166459110Y-112266037D02*
X166459110Y-112456514D01*
X166459110Y-112456514D02*
X165506729Y-112646990D01*
X167125777Y-111980323D02*
X167601967Y-113313656D01*
X168078158Y-111980323D02*
X167601967Y-113313656D01*
X167601967Y-113313656D02*
X167411491Y-113789847D01*
X167411491Y-113789847D02*
X167316253Y-113885085D01*
X167316253Y-113885085D02*
X167125777Y-113980323D01*
X169697206Y-113313656D02*
X169697206Y-111313656D01*
X169697206Y-113218418D02*
X169506730Y-113313656D01*
X169506730Y-113313656D02*
X169125777Y-113313656D01*
X169125777Y-113313656D02*
X168935301Y-113218418D01*
X168935301Y-113218418D02*
X168840063Y-113123180D01*
X168840063Y-113123180D02*
X168744825Y-112932704D01*
X168744825Y-112932704D02*
X168744825Y-112361275D01*
X168744825Y-112361275D02*
X168840063Y-112170799D01*
X168840063Y-112170799D02*
X168935301Y-112075561D01*
X168935301Y-112075561D02*
X169125777Y-111980323D01*
X169125777Y-111980323D02*
X169506730Y-111980323D01*
X169506730Y-111980323D02*
X169697206Y-112075561D01*
X171411492Y-113218418D02*
X171221016Y-113313656D01*
X171221016Y-113313656D02*
X170840063Y-113313656D01*
X170840063Y-113313656D02*
X170649587Y-113218418D01*
X170649587Y-113218418D02*
X170554349Y-113027942D01*
X170554349Y-113027942D02*
X170554349Y-112266037D01*
X170554349Y-112266037D02*
X170649587Y-112075561D01*
X170649587Y-112075561D02*
X170840063Y-111980323D01*
X170840063Y-111980323D02*
X171221016Y-111980323D01*
X171221016Y-111980323D02*
X171411492Y-112075561D01*
X171411492Y-112075561D02*
X171506730Y-112266037D01*
X171506730Y-112266037D02*
X171506730Y-112456514D01*
X171506730Y-112456514D02*
X170554349Y-112646990D01*
X172173397Y-111980323D02*
X172554349Y-113313656D01*
X172554349Y-113313656D02*
X172935302Y-112361275D01*
X172935302Y-112361275D02*
X173316254Y-113313656D01*
X173316254Y-113313656D02*
X173697206Y-111980323D01*
X175373397Y-111313656D02*
X176040063Y-113313656D01*
X176040063Y-113313656D02*
X176706730Y-111313656D01*
X178421016Y-113313656D02*
X177278159Y-113313656D01*
X177849587Y-113313656D02*
X177849587Y-111313656D01*
X177849587Y-111313656D02*
X177659111Y-111599371D01*
X177659111Y-111599371D02*
X177468635Y-111789847D01*
X177468635Y-111789847D02*
X177278159Y-111885085D01*
X179278159Y-113123180D02*
X179373397Y-113218418D01*
X179373397Y-113218418D02*
X179278159Y-113313656D01*
X179278159Y-113313656D02*
X179182921Y-113218418D01*
X179182921Y-113218418D02*
X179278159Y-113123180D01*
X179278159Y-113123180D02*
X179278159Y-113313656D01*
X180611492Y-111313656D02*
X180801969Y-111313656D01*
X180801969Y-111313656D02*
X180992445Y-111408895D01*
X180992445Y-111408895D02*
X181087683Y-111504133D01*
X181087683Y-111504133D02*
X181182921Y-111694609D01*
X181182921Y-111694609D02*
X181278159Y-112075561D01*
X181278159Y-112075561D02*
X181278159Y-112551752D01*
X181278159Y-112551752D02*
X181182921Y-112932704D01*
X181182921Y-112932704D02*
X181087683Y-113123180D01*
X181087683Y-113123180D02*
X180992445Y-113218418D01*
X180992445Y-113218418D02*
X180801969Y-113313656D01*
X180801969Y-113313656D02*
X180611492Y-113313656D01*
X180611492Y-113313656D02*
X180421016Y-113218418D01*
X180421016Y-113218418D02*
X180325778Y-113123180D01*
X180325778Y-113123180D02*
X180230540Y-112932704D01*
X180230540Y-112932704D02*
X180135302Y-112551752D01*
X180135302Y-112551752D02*
X180135302Y-112075561D01*
X180135302Y-112075561D02*
X180230540Y-111694609D01*
X180230540Y-111694609D02*
X180325778Y-111504133D01*
X180325778Y-111504133D02*
X180421016Y-111408895D01*
X180421016Y-111408895D02*
X180611492Y-111313656D01*
D10*
X166390475Y-116367381D02*
X166961903Y-116367381D01*
X166676189Y-117367381D02*
X166676189Y-116367381D01*
X167295237Y-117367381D02*
X167295237Y-116700715D01*
X167295237Y-116891191D02*
X167342856Y-116795953D01*
X167342856Y-116795953D02*
X167390475Y-116748334D01*
X167390475Y-116748334D02*
X167485713Y-116700715D01*
X167485713Y-116700715D02*
X167580951Y-116700715D01*
X168342856Y-117367381D02*
X168342856Y-116843572D01*
X168342856Y-116843572D02*
X168295237Y-116748334D01*
X168295237Y-116748334D02*
X168199999Y-116700715D01*
X168199999Y-116700715D02*
X168009523Y-116700715D01*
X168009523Y-116700715D02*
X167914285Y-116748334D01*
X168342856Y-117319762D02*
X168247618Y-117367381D01*
X168247618Y-117367381D02*
X168009523Y-117367381D01*
X168009523Y-117367381D02*
X167914285Y-117319762D01*
X167914285Y-117319762D02*
X167866666Y-117224524D01*
X167866666Y-117224524D02*
X167866666Y-117129286D01*
X167866666Y-117129286D02*
X167914285Y-117034048D01*
X167914285Y-117034048D02*
X168009523Y-116986429D01*
X168009523Y-116986429D02*
X168247618Y-116986429D01*
X168247618Y-116986429D02*
X168342856Y-116938810D01*
X169247618Y-117319762D02*
X169152380Y-117367381D01*
X169152380Y-117367381D02*
X168961904Y-117367381D01*
X168961904Y-117367381D02*
X168866666Y-117319762D01*
X168866666Y-117319762D02*
X168819047Y-117272143D01*
X168819047Y-117272143D02*
X168771428Y-117176905D01*
X168771428Y-117176905D02*
X168771428Y-116891191D01*
X168771428Y-116891191D02*
X168819047Y-116795953D01*
X168819047Y-116795953D02*
X168866666Y-116748334D01*
X168866666Y-116748334D02*
X168961904Y-116700715D01*
X168961904Y-116700715D02*
X169152380Y-116700715D01*
X169152380Y-116700715D02*
X169247618Y-116748334D01*
X169676190Y-117367381D02*
X169676190Y-116367381D01*
X169771428Y-116986429D02*
X170057142Y-117367381D01*
X170057142Y-116700715D02*
X169676190Y-117081667D01*
X170485714Y-117367381D02*
X170485714Y-116367381D01*
X170485714Y-116748334D02*
X170580952Y-116700715D01*
X170580952Y-116700715D02*
X170771428Y-116700715D01*
X170771428Y-116700715D02*
X170866666Y-116748334D01*
X170866666Y-116748334D02*
X170914285Y-116795953D01*
X170914285Y-116795953D02*
X170961904Y-116891191D01*
X170961904Y-116891191D02*
X170961904Y-117176905D01*
X170961904Y-117176905D02*
X170914285Y-117272143D01*
X170914285Y-117272143D02*
X170866666Y-117319762D01*
X170866666Y-117319762D02*
X170771428Y-117367381D01*
X170771428Y-117367381D02*
X170580952Y-117367381D01*
X170580952Y-117367381D02*
X170485714Y-117319762D01*
X171819047Y-117367381D02*
X171819047Y-116843572D01*
X171819047Y-116843572D02*
X171771428Y-116748334D01*
X171771428Y-116748334D02*
X171676190Y-116700715D01*
X171676190Y-116700715D02*
X171485714Y-116700715D01*
X171485714Y-116700715D02*
X171390476Y-116748334D01*
X171819047Y-117319762D02*
X171723809Y-117367381D01*
X171723809Y-117367381D02*
X171485714Y-117367381D01*
X171485714Y-117367381D02*
X171390476Y-117319762D01*
X171390476Y-117319762D02*
X171342857Y-117224524D01*
X171342857Y-117224524D02*
X171342857Y-117129286D01*
X171342857Y-117129286D02*
X171390476Y-117034048D01*
X171390476Y-117034048D02*
X171485714Y-116986429D01*
X171485714Y-116986429D02*
X171723809Y-116986429D01*
X171723809Y-116986429D02*
X171819047Y-116938810D01*
X172438095Y-117367381D02*
X172342857Y-117319762D01*
X172342857Y-117319762D02*
X172295238Y-117224524D01*
X172295238Y-117224524D02*
X172295238Y-116367381D01*
X172961905Y-117367381D02*
X172866667Y-117319762D01*
X172866667Y-117319762D02*
X172819048Y-117224524D01*
X172819048Y-117224524D02*
X172819048Y-116367381D01*
X144311905Y-28967380D02*
X144930952Y-28967380D01*
X144930952Y-28967380D02*
X144597619Y-29348333D01*
X144597619Y-29348333D02*
X144740476Y-29348333D01*
X144740476Y-29348333D02*
X144835714Y-29395952D01*
X144835714Y-29395952D02*
X144883333Y-29443571D01*
X144883333Y-29443571D02*
X144930952Y-29538809D01*
X144930952Y-29538809D02*
X144930952Y-29776904D01*
X144930952Y-29776904D02*
X144883333Y-29872142D01*
X144883333Y-29872142D02*
X144835714Y-29919761D01*
X144835714Y-29919761D02*
X144740476Y-29967380D01*
X144740476Y-29967380D02*
X144454762Y-29967380D01*
X144454762Y-29967380D02*
X144359524Y-29919761D01*
X144359524Y-29919761D02*
X144311905Y-29872142D01*
X145216667Y-28967380D02*
X145550000Y-29967380D01*
X145550000Y-29967380D02*
X145883333Y-28967380D01*
X146121429Y-28967380D02*
X146740476Y-28967380D01*
X146740476Y-28967380D02*
X146407143Y-29348333D01*
X146407143Y-29348333D02*
X146550000Y-29348333D01*
X146550000Y-29348333D02*
X146645238Y-29395952D01*
X146645238Y-29395952D02*
X146692857Y-29443571D01*
X146692857Y-29443571D02*
X146740476Y-29538809D01*
X146740476Y-29538809D02*
X146740476Y-29776904D01*
X146740476Y-29776904D02*
X146692857Y-29872142D01*
X146692857Y-29872142D02*
X146645238Y-29919761D01*
X146645238Y-29919761D02*
X146550000Y-29967380D01*
X146550000Y-29967380D02*
X146264286Y-29967380D01*
X146264286Y-29967380D02*
X146169048Y-29919761D01*
X146169048Y-29919761D02*
X146121429Y-29872142D01*
X166461904Y-105367380D02*
X167033332Y-105367380D01*
X166747618Y-106367380D02*
X166747618Y-105367380D01*
X167366666Y-106367380D02*
X167366666Y-105700714D01*
X167366666Y-105891190D02*
X167414285Y-105795952D01*
X167414285Y-105795952D02*
X167461904Y-105748333D01*
X167461904Y-105748333D02*
X167557142Y-105700714D01*
X167557142Y-105700714D02*
X167652380Y-105700714D01*
X168414285Y-106367380D02*
X168414285Y-105843571D01*
X168414285Y-105843571D02*
X168366666Y-105748333D01*
X168366666Y-105748333D02*
X168271428Y-105700714D01*
X168271428Y-105700714D02*
X168080952Y-105700714D01*
X168080952Y-105700714D02*
X167985714Y-105748333D01*
X168414285Y-106319761D02*
X168319047Y-106367380D01*
X168319047Y-106367380D02*
X168080952Y-106367380D01*
X168080952Y-106367380D02*
X167985714Y-106319761D01*
X167985714Y-106319761D02*
X167938095Y-106224523D01*
X167938095Y-106224523D02*
X167938095Y-106129285D01*
X167938095Y-106129285D02*
X167985714Y-106034047D01*
X167985714Y-106034047D02*
X168080952Y-105986428D01*
X168080952Y-105986428D02*
X168319047Y-105986428D01*
X168319047Y-105986428D02*
X168414285Y-105938809D01*
X169319047Y-106319761D02*
X169223809Y-106367380D01*
X169223809Y-106367380D02*
X169033333Y-106367380D01*
X169033333Y-106367380D02*
X168938095Y-106319761D01*
X168938095Y-106319761D02*
X168890476Y-106272142D01*
X168890476Y-106272142D02*
X168842857Y-106176904D01*
X168842857Y-106176904D02*
X168842857Y-105891190D01*
X168842857Y-105891190D02*
X168890476Y-105795952D01*
X168890476Y-105795952D02*
X168938095Y-105748333D01*
X168938095Y-105748333D02*
X169033333Y-105700714D01*
X169033333Y-105700714D02*
X169223809Y-105700714D01*
X169223809Y-105700714D02*
X169319047Y-105748333D01*
X169747619Y-106367380D02*
X169747619Y-105367380D01*
X169842857Y-105986428D02*
X170128571Y-106367380D01*
X170128571Y-105700714D02*
X169747619Y-106081666D01*
X170557143Y-105700714D02*
X170557143Y-106700714D01*
X170557143Y-105748333D02*
X170652381Y-105700714D01*
X170652381Y-105700714D02*
X170842857Y-105700714D01*
X170842857Y-105700714D02*
X170938095Y-105748333D01*
X170938095Y-105748333D02*
X170985714Y-105795952D01*
X170985714Y-105795952D02*
X171033333Y-105891190D01*
X171033333Y-105891190D02*
X171033333Y-106176904D01*
X171033333Y-106176904D02*
X170985714Y-106272142D01*
X170985714Y-106272142D02*
X170938095Y-106319761D01*
X170938095Y-106319761D02*
X170842857Y-106367380D01*
X170842857Y-106367380D02*
X170652381Y-106367380D01*
X170652381Y-106367380D02*
X170557143Y-106319761D01*
X171890476Y-106367380D02*
X171890476Y-105843571D01*
X171890476Y-105843571D02*
X171842857Y-105748333D01*
X171842857Y-105748333D02*
X171747619Y-105700714D01*
X171747619Y-105700714D02*
X171557143Y-105700714D01*
X171557143Y-105700714D02*
X171461905Y-105748333D01*
X171890476Y-106319761D02*
X171795238Y-106367380D01*
X171795238Y-106367380D02*
X171557143Y-106367380D01*
X171557143Y-106367380D02*
X171461905Y-106319761D01*
X171461905Y-106319761D02*
X171414286Y-106224523D01*
X171414286Y-106224523D02*
X171414286Y-106129285D01*
X171414286Y-106129285D02*
X171461905Y-106034047D01*
X171461905Y-106034047D02*
X171557143Y-105986428D01*
X171557143Y-105986428D02*
X171795238Y-105986428D01*
X171795238Y-105986428D02*
X171890476Y-105938809D01*
X172795238Y-106367380D02*
X172795238Y-105367380D01*
X172795238Y-106319761D02*
X172700000Y-106367380D01*
X172700000Y-106367380D02*
X172509524Y-106367380D01*
X172509524Y-106367380D02*
X172414286Y-106319761D01*
X172414286Y-106319761D02*
X172366667Y-106272142D01*
X172366667Y-106272142D02*
X172319048Y-106176904D01*
X172319048Y-106176904D02*
X172319048Y-105891190D01*
X172319048Y-105891190D02*
X172366667Y-105795952D01*
X172366667Y-105795952D02*
X172414286Y-105748333D01*
X172414286Y-105748333D02*
X172509524Y-105700714D01*
X172509524Y-105700714D02*
X172700000Y-105700714D01*
X172700000Y-105700714D02*
X172795238Y-105748333D01*
X175102382Y-61017380D02*
X175102382Y-60017380D01*
X175102382Y-60017380D02*
X175340477Y-60017380D01*
X175340477Y-60017380D02*
X175483334Y-60065000D01*
X175483334Y-60065000D02*
X175578572Y-60160238D01*
X175578572Y-60160238D02*
X175626191Y-60255476D01*
X175626191Y-60255476D02*
X175673810Y-60445952D01*
X175673810Y-60445952D02*
X175673810Y-60588809D01*
X175673810Y-60588809D02*
X175626191Y-60779285D01*
X175626191Y-60779285D02*
X175578572Y-60874523D01*
X175578572Y-60874523D02*
X175483334Y-60969761D01*
X175483334Y-60969761D02*
X175340477Y-61017380D01*
X175340477Y-61017380D02*
X175102382Y-61017380D01*
X176483334Y-60969761D02*
X176388096Y-61017380D01*
X176388096Y-61017380D02*
X176197620Y-61017380D01*
X176197620Y-61017380D02*
X176102382Y-60969761D01*
X176102382Y-60969761D02*
X176054763Y-60874523D01*
X176054763Y-60874523D02*
X176054763Y-60493571D01*
X176054763Y-60493571D02*
X176102382Y-60398333D01*
X176102382Y-60398333D02*
X176197620Y-60350714D01*
X176197620Y-60350714D02*
X176388096Y-60350714D01*
X176388096Y-60350714D02*
X176483334Y-60398333D01*
X176483334Y-60398333D02*
X176530953Y-60493571D01*
X176530953Y-60493571D02*
X176530953Y-60588809D01*
X176530953Y-60588809D02*
X176054763Y-60684047D01*
X176959525Y-61017380D02*
X176959525Y-60017380D01*
X176959525Y-60398333D02*
X177054763Y-60350714D01*
X177054763Y-60350714D02*
X177245239Y-60350714D01*
X177245239Y-60350714D02*
X177340477Y-60398333D01*
X177340477Y-60398333D02*
X177388096Y-60445952D01*
X177388096Y-60445952D02*
X177435715Y-60541190D01*
X177435715Y-60541190D02*
X177435715Y-60826904D01*
X177435715Y-60826904D02*
X177388096Y-60922142D01*
X177388096Y-60922142D02*
X177340477Y-60969761D01*
X177340477Y-60969761D02*
X177245239Y-61017380D01*
X177245239Y-61017380D02*
X177054763Y-61017380D01*
X177054763Y-61017380D02*
X176959525Y-60969761D01*
X178292858Y-60350714D02*
X178292858Y-61017380D01*
X177864287Y-60350714D02*
X177864287Y-60874523D01*
X177864287Y-60874523D02*
X177911906Y-60969761D01*
X177911906Y-60969761D02*
X178007144Y-61017380D01*
X178007144Y-61017380D02*
X178150001Y-61017380D01*
X178150001Y-61017380D02*
X178245239Y-60969761D01*
X178245239Y-60969761D02*
X178292858Y-60922142D01*
X179197620Y-60350714D02*
X179197620Y-61160238D01*
X179197620Y-61160238D02*
X179150001Y-61255476D01*
X179150001Y-61255476D02*
X179102382Y-61303095D01*
X179102382Y-61303095D02*
X179007144Y-61350714D01*
X179007144Y-61350714D02*
X178864287Y-61350714D01*
X178864287Y-61350714D02*
X178769049Y-61303095D01*
X179197620Y-60969761D02*
X179102382Y-61017380D01*
X179102382Y-61017380D02*
X178911906Y-61017380D01*
X178911906Y-61017380D02*
X178816668Y-60969761D01*
X178816668Y-60969761D02*
X178769049Y-60922142D01*
X178769049Y-60922142D02*
X178721430Y-60826904D01*
X178721430Y-60826904D02*
X178721430Y-60541190D01*
X178721430Y-60541190D02*
X178769049Y-60445952D01*
X178769049Y-60445952D02*
X178816668Y-60398333D01*
X178816668Y-60398333D02*
X178911906Y-60350714D01*
X178911906Y-60350714D02*
X179102382Y-60350714D01*
X179102382Y-60350714D02*
X179197620Y-60398333D01*
X145433334Y-39997143D02*
X145385715Y-40044762D01*
X145385715Y-40044762D02*
X145242858Y-40092381D01*
X145242858Y-40092381D02*
X145147620Y-40092381D01*
X145147620Y-40092381D02*
X145004763Y-40044762D01*
X145004763Y-40044762D02*
X144909525Y-39949524D01*
X144909525Y-39949524D02*
X144861906Y-39854286D01*
X144861906Y-39854286D02*
X144814287Y-39663810D01*
X144814287Y-39663810D02*
X144814287Y-39520953D01*
X144814287Y-39520953D02*
X144861906Y-39330477D01*
X144861906Y-39330477D02*
X144909525Y-39235239D01*
X144909525Y-39235239D02*
X145004763Y-39140001D01*
X145004763Y-39140001D02*
X145147620Y-39092381D01*
X145147620Y-39092381D02*
X145242858Y-39092381D01*
X145242858Y-39092381D02*
X145385715Y-39140001D01*
X145385715Y-39140001D02*
X145433334Y-39187620D01*
X145814287Y-40044762D02*
X145957144Y-40092381D01*
X145957144Y-40092381D02*
X146195239Y-40092381D01*
X146195239Y-40092381D02*
X146290477Y-40044762D01*
X146290477Y-40044762D02*
X146338096Y-39997143D01*
X146338096Y-39997143D02*
X146385715Y-39901905D01*
X146385715Y-39901905D02*
X146385715Y-39806667D01*
X146385715Y-39806667D02*
X146338096Y-39711429D01*
X146338096Y-39711429D02*
X146290477Y-39663810D01*
X146290477Y-39663810D02*
X146195239Y-39616191D01*
X146195239Y-39616191D02*
X146004763Y-39568572D01*
X146004763Y-39568572D02*
X145909525Y-39520953D01*
X145909525Y-39520953D02*
X145861906Y-39473334D01*
X145861906Y-39473334D02*
X145814287Y-39378096D01*
X145814287Y-39378096D02*
X145814287Y-39282858D01*
X145814287Y-39282858D02*
X145861906Y-39187620D01*
X145861906Y-39187620D02*
X145909525Y-39140001D01*
X145909525Y-39140001D02*
X146004763Y-39092381D01*
X146004763Y-39092381D02*
X146242858Y-39092381D01*
X146242858Y-39092381D02*
X146385715Y-39140001D01*
%TO.C,J2*%
X169366666Y-20217380D02*
X169366666Y-20931666D01*
X169366666Y-20931666D02*
X169319047Y-21074523D01*
X169319047Y-21074523D02*
X169223809Y-21169761D01*
X169223809Y-21169761D02*
X169080952Y-21217380D01*
X169080952Y-21217380D02*
X168985714Y-21217380D01*
X169795238Y-20312619D02*
X169842857Y-20265000D01*
X169842857Y-20265000D02*
X169938095Y-20217380D01*
X169938095Y-20217380D02*
X170176190Y-20217380D01*
X170176190Y-20217380D02*
X170271428Y-20265000D01*
X170271428Y-20265000D02*
X170319047Y-20312619D01*
X170319047Y-20312619D02*
X170366666Y-20407857D01*
X170366666Y-20407857D02*
X170366666Y-20503095D01*
X170366666Y-20503095D02*
X170319047Y-20645952D01*
X170319047Y-20645952D02*
X169747619Y-21217380D01*
X169747619Y-21217380D02*
X170366666Y-21217380D01*
%TO.C,J4*%
X168966672Y-15818011D02*
X168966672Y-16532297D01*
X168966672Y-16532297D02*
X168919053Y-16675154D01*
X168919053Y-16675154D02*
X168823815Y-16770392D01*
X168823815Y-16770392D02*
X168680958Y-16818011D01*
X168680958Y-16818011D02*
X168585720Y-16818011D01*
X169871434Y-16151345D02*
X169871434Y-16818011D01*
X169633339Y-15770392D02*
X169395244Y-16484678D01*
X169395244Y-16484678D02*
X170014291Y-16484678D01*
%TO.C,J1*%
X163236663Y-59967380D02*
X163236663Y-60681666D01*
X163236663Y-60681666D02*
X163189044Y-60824523D01*
X163189044Y-60824523D02*
X163093806Y-60919761D01*
X163093806Y-60919761D02*
X162950949Y-60967380D01*
X162950949Y-60967380D02*
X162855711Y-60967380D01*
X164236663Y-60967380D02*
X163665235Y-60967380D01*
X163950949Y-60967380D02*
X163950949Y-59967380D01*
X163950949Y-59967380D02*
X163855711Y-60110238D01*
X163855711Y-60110238D02*
X163760473Y-60205476D01*
X163760473Y-60205476D02*
X163665235Y-60253095D01*
D12*
%TO.C,SW64*%
X179200000Y-156000000D02*
X179200000Y-153900000D01*
X179200000Y-96000000D02*
X179200000Y-98100000D01*
X179200000Y-96000000D02*
X173400000Y-96000000D01*
X160200000Y-156000000D02*
X179200000Y-156000000D01*
X160200000Y-156000000D02*
X160200000Y-153900000D01*
X160200000Y-96000000D02*
X166000000Y-96000000D01*
X160200000Y-96000000D02*
X160200000Y-98100000D01*
X186150000Y-150402633D02*
G75*
G03*
X198908281Y-129601021I-16443344J24398551D01*
G01*
X198908280Y-122398979D02*
G75*
G03*
X186150000Y-101597367I-29208280J-3601021D01*
G01*
X179200000Y-153900000D02*
G75*
G03*
X182589915Y-152479284I-11010900J31027300D01*
G01*
X182589916Y-99520714D02*
G75*
G03*
X179200000Y-98100001I-14330416J-29438686D01*
G01*
X156810085Y-152479283D02*
G75*
G03*
X160200000Y-153899999I14330425J29438637D01*
G01*
X160200000Y-98100000D02*
G75*
G03*
X156810085Y-99520716I11010886J-31027276D01*
G01*
X140491720Y-129601021D02*
G75*
G03*
X153250000Y-150402633I29208282J3601022D01*
G01*
X153250000Y-101597367D02*
G75*
G03*
X140491719Y-122398979I16443344J-24398551D01*
G01*
D13*
X191700000Y-126000000D02*
G75*
G03*
X191700000Y-126000000I-22000000J0D01*
G01*
D12*
%TO.C,J4*%
X147449995Y-18700620D02*
X147449995Y-55700620D01*
X147449995Y-55700620D02*
X191949995Y-55700620D01*
X148369995Y-28250620D02*
X149699995Y-28250620D01*
X148369995Y-29580620D02*
X148369995Y-28250620D01*
X148369995Y-30850620D02*
X148369995Y-46150620D01*
X148369995Y-30850620D02*
X151029995Y-30850620D01*
X148369995Y-46150620D02*
X151029995Y-46150620D01*
X151029995Y-30850620D02*
X151029995Y-46150620D01*
X191949995Y-18700620D02*
X147449995Y-18700620D01*
X191949995Y-55700620D02*
X191949995Y-18700620D01*
%TO.C,J1*%
X164569997Y-61930000D02*
X164569997Y-60600000D01*
X165899997Y-61930000D02*
X164569997Y-61930000D01*
X167169997Y-61930000D02*
X174849997Y-61930000D01*
X167169997Y-61930000D02*
X167169997Y-59270000D01*
X174849997Y-61930000D02*
X174849997Y-59270000D01*
X167169997Y-59270000D02*
X174849997Y-59270000D01*
%TO.C,SW25*%
X109847526Y-131408871D02*
X121315654Y-139438941D01*
X121315654Y-139438941D02*
X113285584Y-150907069D01*
X113285584Y-150907069D02*
X101817456Y-142876999D01*
X101817456Y-142876999D02*
X109847526Y-131408871D01*
%TO.C,SW30*%
X128562804Y-146138180D02*
X137561830Y-156862802D01*
X137561830Y-156862802D02*
X126837208Y-165861828D01*
X126837208Y-165861828D02*
X117838182Y-155137206D01*
X117838182Y-155137206D02*
X128562804Y-146138180D01*
%TO.C,SW1*%
X47443490Y-28772646D02*
X60599186Y-33560928D01*
X60599186Y-33560928D02*
X55810904Y-46716624D01*
X55810904Y-46716624D02*
X42655208Y-41928342D01*
X42655208Y-41928342D02*
X47443490Y-28772646D01*
%TO.C,SW24*%
X101944935Y-101825086D02*
X115100631Y-106613368D01*
X115100631Y-106613368D02*
X110312349Y-119769064D01*
X110312349Y-119769064D02*
X97156653Y-114980782D01*
X97156653Y-114980782D02*
X101944935Y-101825086D01*
%TO.C,SW29*%
X118760136Y-111324114D02*
X131915832Y-116112396D01*
X131915832Y-116112396D02*
X127127550Y-129268092D01*
X127127550Y-129268092D02*
X113971854Y-124479810D01*
X113971854Y-124479810D02*
X118760136Y-111324114D01*
%TO.C,SW14*%
X66142625Y-88794129D02*
X79298321Y-93582411D01*
X79298321Y-93582411D02*
X74510039Y-106738107D01*
X74510039Y-106738107D02*
X61354343Y-101949825D01*
X61354343Y-101949825D02*
X66142625Y-88794129D01*
%TO.C,SW19*%
X85401167Y-91580197D02*
X98556863Y-96368479D01*
X98556863Y-96368479D02*
X93768581Y-109524175D01*
X93768581Y-109524175D02*
X80612885Y-104735893D01*
X80612885Y-104735893D02*
X85401167Y-91580197D01*
%TO.C,SW5*%
X21381554Y-100377240D02*
X34537250Y-105165522D01*
X34537250Y-105165522D02*
X29748968Y-118321218D01*
X29748968Y-118321218D02*
X16593272Y-113532936D01*
X16593272Y-113532936D02*
X21381554Y-100377240D01*
%TO.C,SW22*%
X114975885Y-66022792D02*
X128131581Y-70811074D01*
X128131581Y-70811074D02*
X123343299Y-83966770D01*
X123343299Y-83966770D02*
X110187603Y-79178488D01*
X110187603Y-79178488D02*
X114975885Y-66022792D01*
%TO.C,SW27*%
X131791106Y-75521820D02*
X144946802Y-80310102D01*
X144946802Y-80310102D02*
X140158520Y-93465798D01*
X140158520Y-93465798D02*
X127002824Y-88677516D01*
X127002824Y-88677516D02*
X131791106Y-75521820D01*
%TO.C,SW3*%
X34412510Y-64574943D02*
X47568206Y-69363225D01*
X47568206Y-69363225D02*
X42779924Y-82518921D01*
X42779924Y-82518921D02*
X29624228Y-77730639D01*
X29624228Y-77730639D02*
X34412510Y-64574943D01*
%TO.C,SW8*%
X53128105Y-68852768D02*
X66283801Y-73641050D01*
X66283801Y-73641050D02*
X61495519Y-86796746D01*
X61495519Y-86796746D02*
X48339823Y-82008464D01*
X48339823Y-82008464D02*
X53128105Y-68852768D01*
%TO.C,SW13*%
X72658118Y-70892974D02*
X85813814Y-75681256D01*
X85813814Y-75681256D02*
X81025532Y-88836952D01*
X81025532Y-88836952D02*
X67869836Y-84048670D01*
X67869836Y-84048670D02*
X72658118Y-70892974D01*
%TO.C,SW23*%
X108460406Y-83923973D02*
X121616102Y-88712255D01*
X121616102Y-88712255D02*
X116827820Y-101867951D01*
X116827820Y-101867951D02*
X103672124Y-97079669D01*
X103672124Y-97079669D02*
X108460406Y-83923973D01*
%TO.C,SW18*%
X91916636Y-73679057D02*
X105072332Y-78467339D01*
X105072332Y-78467339D02*
X100284050Y-91623035D01*
X100284050Y-91623035D02*
X87128354Y-86834753D01*
X87128354Y-86834753D02*
X91916636Y-73679057D01*
%TO.C,SW28*%
X125275622Y-93422965D02*
X138431318Y-98211247D01*
X138431318Y-98211247D02*
X133643036Y-111366943D01*
X133643036Y-111366943D02*
X120487340Y-106578661D01*
X120487340Y-106578661D02*
X125275622Y-93422965D01*
%TO.C,SW4*%
X27897054Y-82476109D02*
X41052750Y-87264391D01*
X41052750Y-87264391D02*
X36264468Y-100420087D01*
X36264468Y-100420087D02*
X23108772Y-95631805D01*
X23108772Y-95631805D02*
X27897054Y-82476109D01*
%TO.C,SW9*%
X46612597Y-86753929D02*
X59768293Y-91542211D01*
X59768293Y-91542211D02*
X54980011Y-104697907D01*
X54980011Y-104697907D02*
X41824315Y-99909625D01*
X41824315Y-99909625D02*
X46612597Y-86753929D01*
%TO.C,SW10*%
X40097127Y-104655068D02*
X53252823Y-109443350D01*
X53252823Y-109443350D02*
X48464541Y-122599046D01*
X48464541Y-122599046D02*
X35308845Y-117810764D01*
X35308845Y-117810764D02*
X40097127Y-104655068D01*
%TO.C,SW15*%
X59627145Y-106695269D02*
X72782841Y-111483551D01*
X72782841Y-111483551D02*
X67994559Y-124639247D01*
X67994559Y-124639247D02*
X54838863Y-119850965D01*
X54838863Y-119850965D02*
X59627145Y-106695269D01*
%TO.C,SW20*%
X87833504Y-122029693D02*
X100989200Y-126817975D01*
X100989200Y-126817975D02*
X96200918Y-139973671D01*
X96200918Y-139973671D02*
X83045222Y-135185389D01*
X83045222Y-135185389D02*
X87833504Y-122029693D01*
%TO.C,SW11*%
X85689078Y-35090703D02*
X98844774Y-39878985D01*
X98844774Y-39878985D02*
X94056492Y-53034681D01*
X94056492Y-53034681D02*
X80900796Y-48246399D01*
X80900796Y-48246399D02*
X85689078Y-35090703D01*
%TO.C,SW2*%
X40928010Y-46673794D02*
X54083706Y-51462076D01*
X54083706Y-51462076D02*
X49295424Y-64617772D01*
X49295424Y-64617772D02*
X36139728Y-59829490D01*
X36139728Y-59829490D02*
X40928010Y-46673794D01*
%TO.C,SW12*%
X79173589Y-52991835D02*
X92329285Y-57780117D01*
X92329285Y-57780117D02*
X87541003Y-70935813D01*
X87541003Y-70935813D02*
X74385307Y-66147531D01*
X74385307Y-66147531D02*
X79173589Y-52991835D01*
%TO.C,SW21*%
X121491377Y-48121658D02*
X134647073Y-52909940D01*
X134647073Y-52909940D02*
X129858791Y-66065636D01*
X129858791Y-66065636D02*
X116703095Y-61277354D01*
X116703095Y-61277354D02*
X121491377Y-48121658D01*
%TO.C,SW17*%
X98432135Y-55777921D02*
X111587831Y-60566203D01*
X111587831Y-60566203D02*
X106799549Y-73721899D01*
X106799549Y-73721899D02*
X93643853Y-68933617D01*
X93643853Y-68933617D02*
X98432135Y-55777921D01*
%TO.C,SW16*%
X104947620Y-37876759D02*
X118103316Y-42665041D01*
X118103316Y-42665041D02*
X113315034Y-55820737D01*
X113315034Y-55820737D02*
X100159338Y-51032455D01*
X100159338Y-51032455D02*
X104947620Y-37876759D01*
%TO.C,SW6*%
X66159063Y-33050495D02*
X79314759Y-37838777D01*
X79314759Y-37838777D02*
X74526477Y-50994473D01*
X74526477Y-50994473D02*
X61370781Y-46206191D01*
X61370781Y-46206191D02*
X66159063Y-33050495D01*
%TO.C,SW7*%
X59643578Y-50951635D02*
X72799274Y-55739917D01*
X72799274Y-55739917D02*
X68010992Y-68895613D01*
X68010992Y-68895613D02*
X54855296Y-64107331D01*
X54855296Y-64107331D02*
X59643578Y-50951635D01*
%TO.C,SW26*%
X138306593Y-57620675D02*
X151462289Y-62408957D01*
X151462289Y-62408957D02*
X146674007Y-75564653D01*
X146674007Y-75564653D02*
X133518311Y-70776371D01*
X133518311Y-70776371D02*
X138306593Y-57620675D01*
%TO.C,SW31*%
X187937731Y-62408960D02*
X201093427Y-57620678D01*
X201093427Y-57620678D02*
X205881709Y-70776374D01*
X205881709Y-70776374D02*
X192726013Y-75564656D01*
X192726013Y-75564656D02*
X187937731Y-62408960D01*
%TO.C,SW45*%
X238410802Y-126817971D02*
X251566498Y-122029689D01*
X251566498Y-122029689D02*
X256354780Y-135185385D01*
X256354780Y-135185385D02*
X243199084Y-139973667D01*
X243199084Y-139973667D02*
X238410802Y-126817971D01*
%TO.C,SW49*%
X260101688Y-93582424D02*
X273257384Y-88794142D01*
X273257384Y-88794142D02*
X278045666Y-101949838D01*
X278045666Y-101949838D02*
X264889970Y-106738120D01*
X264889970Y-106738120D02*
X260101688Y-93582424D01*
%TO.C,SW47*%
X247070727Y-57780124D02*
X260226423Y-52991842D01*
X260226423Y-52991842D02*
X265014705Y-66147538D01*
X265014705Y-66147538D02*
X251859009Y-70935820D01*
X251859009Y-70935820D02*
X247070727Y-57780124D01*
%TO.C,SW63*%
X182486792Y-164140251D02*
X196009753Y-160516784D01*
X196009753Y-160516784D02*
X199633220Y-174039745D01*
X199633220Y-174039745D02*
X186110259Y-177663212D01*
X186110259Y-177663212D02*
X182486792Y-164140251D01*
%TO.C,SW61*%
X143390255Y-160516773D02*
X156913216Y-164140240D01*
X156913216Y-164140240D02*
X153289749Y-177663201D01*
X153289749Y-177663201D02*
X139766788Y-174039734D01*
X139766788Y-174039734D02*
X143390255Y-160516773D01*
%TO.C,SW33*%
X200968678Y-98211241D02*
X214124374Y-93422959D01*
X214124374Y-93422959D02*
X218912656Y-106578655D01*
X218912656Y-106578655D02*
X205756960Y-111366937D01*
X205756960Y-111366937D02*
X200968678Y-98211241D01*
%TO.C,SW59*%
X298347268Y-87264378D02*
X311502964Y-82476096D01*
X311502964Y-82476096D02*
X316291246Y-95631792D01*
X316291246Y-95631792D02*
X303135550Y-100420074D01*
X303135550Y-100420074D02*
X298347268Y-87264378D01*
%TO.C,SW38*%
X217783928Y-88712238D02*
X230939624Y-83923956D01*
X230939624Y-83923956D02*
X235727906Y-97079652D01*
X235727906Y-97079652D02*
X222572210Y-101867934D01*
X222572210Y-101867934D02*
X217783928Y-88712238D01*
%TO.C,SW50*%
X266617167Y-111483565D02*
X279772863Y-106695283D01*
X279772863Y-106695283D02*
X284561145Y-119850979D01*
X284561145Y-119850979D02*
X271405449Y-124639261D01*
X271405449Y-124639261D02*
X266617167Y-111483565D01*
%TO.C,SW58*%
X291831788Y-69363215D02*
X304987484Y-64574933D01*
X304987484Y-64574933D02*
X309775766Y-77730629D01*
X309775766Y-77730629D02*
X296620070Y-82518911D01*
X296620070Y-82518911D02*
X291831788Y-69363215D01*
%TO.C,SW43*%
X234327656Y-78467337D02*
X247483352Y-73679055D01*
X247483352Y-73679055D02*
X252271634Y-86834751D01*
X252271634Y-86834751D02*
X239115938Y-91623033D01*
X239115938Y-91623033D02*
X234327656Y-78467337D01*
%TO.C,SW57*%
X285316303Y-51462075D02*
X298471999Y-46673793D01*
X298471999Y-46673793D02*
X303260281Y-59829489D01*
X303260281Y-59829489D02*
X290104585Y-64617771D01*
X290104585Y-64617771D02*
X285316303Y-51462075D01*
%TO.C,SW52*%
X266600742Y-55739920D02*
X279756438Y-50951638D01*
X279756438Y-50951638D02*
X284544720Y-64107334D01*
X284544720Y-64107334D02*
X271389024Y-68895616D01*
X271389024Y-68895616D02*
X266600742Y-55739920D01*
%TO.C,SW44*%
X240843149Y-96368474D02*
X253998845Y-91580192D01*
X253998845Y-91580192D02*
X258787127Y-104735888D01*
X258787127Y-104735888D02*
X245631431Y-109524170D01*
X245631431Y-109524170D02*
X240843149Y-96368474D01*
%TO.C,SW41*%
X221296696Y-42665055D02*
X234452392Y-37876773D01*
X234452392Y-37876773D02*
X239240674Y-51032469D01*
X239240674Y-51032469D02*
X226084978Y-55820751D01*
X226084978Y-55820751D02*
X221296696Y-42665055D01*
%TO.C,SW40*%
X218084356Y-139438933D02*
X229552484Y-131408863D01*
X229552484Y-131408863D02*
X237582554Y-142876991D01*
X237582554Y-142876991D02*
X226114426Y-150907061D01*
X226114426Y-150907061D02*
X218084356Y-139438933D01*
%TO.C,SW62*%
X162700016Y-164909989D02*
X176700016Y-164909989D01*
X176700016Y-164909989D02*
X176700016Y-178909989D01*
X176700016Y-178909989D02*
X162700016Y-178909989D01*
X162700016Y-178909989D02*
X162700016Y-164909989D01*
%TO.C,SW46*%
X240555225Y-39878987D02*
X253710921Y-35090705D01*
X253710921Y-35090705D02*
X258499203Y-48246401D01*
X258499203Y-48246401D02*
X245343507Y-53034683D01*
X245343507Y-53034683D02*
X240555225Y-39878987D01*
%TO.C,SW51*%
X260085255Y-37838787D02*
X273240951Y-33050505D01*
X273240951Y-33050505D02*
X278029233Y-46206201D01*
X278029233Y-46206201D02*
X264873537Y-50994483D01*
X264873537Y-50994483D02*
X260085255Y-37838787D01*
%TO.C,SW60*%
X304862751Y-105165515D02*
X318018447Y-100377233D01*
X318018447Y-100377233D02*
X322806729Y-113532929D01*
X322806729Y-113532929D02*
X309651033Y-118321211D01*
X309651033Y-118321211D02*
X304862751Y-105165515D01*
%TO.C,SW37*%
X211268437Y-70811101D02*
X224424133Y-66022819D01*
X224424133Y-66022819D02*
X229212415Y-79178515D01*
X229212415Y-79178515D02*
X216056719Y-83966797D01*
X216056719Y-83966797D02*
X211268437Y-70811101D01*
%TO.C,SW54*%
X279631703Y-91542217D02*
X292787399Y-86753935D01*
X292787399Y-86753935D02*
X297575681Y-99909631D01*
X297575681Y-99909631D02*
X284419985Y-104697913D01*
X284419985Y-104697913D02*
X279631703Y-91542217D01*
%TO.C,SW55*%
X286147194Y-109443369D02*
X299302890Y-104655087D01*
X299302890Y-104655087D02*
X304091172Y-117810783D01*
X304091172Y-117810783D02*
X290935476Y-122599065D01*
X290935476Y-122599065D02*
X286147194Y-109443369D01*
%TO.C,SW48*%
X253586209Y-75681273D02*
X266741905Y-70892991D01*
X266741905Y-70892991D02*
X271530187Y-84048687D01*
X271530187Y-84048687D02*
X258374491Y-88836969D01*
X258374491Y-88836969D02*
X253586209Y-75681273D01*
%TO.C,SW53*%
X273116219Y-73641065D02*
X286271915Y-68852783D01*
X286271915Y-68852783D02*
X291060197Y-82008479D01*
X291060197Y-82008479D02*
X277904501Y-86796761D01*
X277904501Y-86796761D02*
X273116219Y-73641065D01*
%TO.C,SW35*%
X201838183Y-156862798D02*
X210837209Y-146138176D01*
X210837209Y-146138176D02*
X221561831Y-155137202D01*
X221561831Y-155137202D02*
X212562805Y-165861824D01*
X212562805Y-165861824D02*
X201838183Y-156862798D01*
%TO.C,SW34*%
X207484163Y-116112384D02*
X220639859Y-111324102D01*
X220639859Y-111324102D02*
X225428141Y-124479798D01*
X225428141Y-124479798D02*
X212272445Y-129268080D01*
X212272445Y-129268080D02*
X207484163Y-116112384D01*
%TO.C,SW42*%
X227812172Y-60566199D02*
X240967868Y-55777917D01*
X240967868Y-55777917D02*
X245756150Y-68933613D01*
X245756150Y-68933613D02*
X232600454Y-73721895D01*
X232600454Y-73721895D02*
X227812172Y-60566199D01*
%TO.C,SW56*%
X278800824Y-33560942D02*
X291956520Y-28772660D01*
X291956520Y-28772660D02*
X296744802Y-41928356D01*
X296744802Y-41928356D02*
X283589106Y-46716638D01*
X283589106Y-46716638D02*
X278800824Y-33560942D01*
%TO.C,SW36*%
X204752948Y-52909957D02*
X217908644Y-48121675D01*
X217908644Y-48121675D02*
X222696926Y-61277371D01*
X222696926Y-61277371D02*
X209541230Y-66065653D01*
X209541230Y-66065653D02*
X204752948Y-52909957D01*
%TO.C,SW39*%
X224299403Y-106613391D02*
X237455099Y-101825109D01*
X237455099Y-101825109D02*
X242243381Y-114980805D01*
X242243381Y-114980805D02*
X229087685Y-119769087D01*
X229087685Y-119769087D02*
X224299403Y-106613391D01*
%TO.C,SW32*%
X194453204Y-80310107D02*
X207608900Y-75521825D01*
X207608900Y-75521825D02*
X212397182Y-88677521D01*
X212397182Y-88677521D02*
X199241486Y-93465803D01*
X199241486Y-93465803D02*
X194453204Y-80310107D01*
%TD*%
%LPC*%
%TO.C,A1*%
G36*
X159963376Y-137584667D02*
G01*
X159928509Y-137735670D01*
X159794043Y-137754001D01*
X159584972Y-137661066D01*
X159624709Y-137584667D01*
X159926148Y-137554268D01*
X159963376Y-137584667D01*
G37*
G36*
X160217376Y-136314667D02*
G01*
X160247775Y-136616106D01*
X160217376Y-136653334D01*
X160066373Y-136618467D01*
X160048043Y-136484001D01*
X160140977Y-136274930D01*
X160217376Y-136314667D01*
G37*
G36*
X157000043Y-138643001D02*
G01*
X157242354Y-138871247D01*
X157254043Y-138911991D01*
X157057525Y-139021088D01*
X157000043Y-139024001D01*
X156755803Y-138828737D01*
X156746043Y-138755010D01*
X156901652Y-138603312D01*
X157000043Y-138643001D01*
G37*
G36*
X158758473Y-137638611D02*
G01*
X158778043Y-137724020D01*
X158592685Y-138083094D01*
X158524043Y-138135001D01*
X158289612Y-138123390D01*
X158270043Y-138037981D01*
X158455400Y-137678907D01*
X158524043Y-137627001D01*
X158758473Y-137638611D01*
G37*
G36*
X161230731Y-135623610D02*
G01*
X161191043Y-135722001D01*
X160962796Y-135964312D01*
X160922052Y-135976001D01*
X160812955Y-135779483D01*
X160810043Y-135722001D01*
X161005306Y-135477761D01*
X161079033Y-135468001D01*
X161230731Y-135623610D01*
G37*
G36*
X166136662Y-135915288D02*
G01*
X166144043Y-135976001D01*
X165950755Y-136222620D01*
X165890043Y-136230001D01*
X165643423Y-136036713D01*
X165636043Y-135976001D01*
X165829330Y-135729381D01*
X165890043Y-135722001D01*
X166136662Y-135915288D01*
G37*
G36*
X176083398Y-135849001D02*
G01*
X176622097Y-135849001D01*
X176642542Y-136371754D01*
X176700102Y-136506677D01*
X176732561Y-136423462D01*
X176779872Y-135813498D01*
X176737687Y-135407462D01*
X176670776Y-135266687D01*
X176628686Y-135571981D01*
X176622097Y-135849001D01*
X176083398Y-135849001D01*
X176071549Y-135597205D01*
X176118751Y-134970796D01*
X176276103Y-134602528D01*
X176389800Y-134486228D01*
X176829594Y-134284635D01*
X177054916Y-134318124D01*
X177223862Y-134677403D01*
X177300005Y-135394946D01*
X177283291Y-136329555D01*
X177173667Y-137340034D01*
X177056290Y-137954577D01*
X176927396Y-138957533D01*
X177069370Y-139600747D01*
X177464653Y-139849573D01*
X177959884Y-139737578D01*
X178479686Y-139422774D01*
X178526479Y-139110178D01*
X178209042Y-138770000D01*
X177860490Y-138275495D01*
X177930506Y-138009585D01*
X178568886Y-138009585D01*
X178680440Y-138472287D01*
X178999155Y-138963497D01*
X179450861Y-139479000D01*
X179795460Y-139765294D01*
X179860043Y-139786001D01*
X180139210Y-139603217D01*
X180572076Y-139146710D01*
X180720930Y-138963497D01*
X181099506Y-138335823D01*
X181126420Y-137935763D01*
X180824987Y-137832771D01*
X180395312Y-137993406D01*
X179770915Y-138147924D01*
X179324773Y-137993406D01*
X178791434Y-137826807D01*
X178568886Y-138009585D01*
X177930506Y-138009585D01*
X178000639Y-137743227D01*
X178336042Y-137373001D01*
X178735399Y-137064496D01*
X179036643Y-137110767D01*
X179352043Y-137373000D01*
X179749154Y-137679945D01*
X180049984Y-137636118D01*
X180377007Y-137364888D01*
X180764153Y-137061673D01*
X181052508Y-137093168D01*
X181440643Y-137443712D01*
X181802323Y-137889371D01*
X181806643Y-138285608D01*
X181655719Y-138609972D01*
X181470152Y-139227792D01*
X181601549Y-139663535D01*
X181907033Y-139786001D01*
X182039133Y-139556590D01*
X182125935Y-138965950D01*
X182146043Y-138418445D01*
X182146042Y-137050890D01*
X183313347Y-137090182D01*
X184278242Y-137231793D01*
X184810225Y-137580192D01*
X185036071Y-138072061D01*
X185231305Y-138795161D01*
X185363447Y-139565713D01*
X185400021Y-140199934D01*
X185326286Y-140500424D01*
X185090045Y-140488168D01*
X184860605Y-140118662D01*
X184711431Y-139538263D01*
X184689932Y-139232643D01*
X184511148Y-138514830D01*
X184073711Y-137964239D01*
X183533836Y-137754001D01*
X183115108Y-137981000D01*
X182792390Y-138554102D01*
X182654500Y-139311458D01*
X182654043Y-139357201D01*
X182504415Y-139971262D01*
X182268278Y-140297955D01*
X181903293Y-140472069D01*
X181508035Y-140274275D01*
X181379278Y-140162689D01*
X180981375Y-139857077D01*
X180678912Y-139907718D01*
X180372807Y-140162689D01*
X179940024Y-140459146D01*
X179590439Y-140378648D01*
X179475570Y-140291119D01*
X179119167Y-140107609D01*
X178626333Y-140137945D01*
X178043854Y-140306604D01*
X177366620Y-140500481D01*
X176987660Y-140493580D01*
X176735265Y-140277950D01*
X176710574Y-140244872D01*
X176434669Y-139988045D01*
X176069527Y-140035563D01*
X175747134Y-140190598D01*
X175059086Y-140395249D01*
X174117081Y-140484158D01*
X173726378Y-140479462D01*
X172917143Y-140412286D01*
X172489033Y-140271378D01*
X172315722Y-140006561D01*
X172296880Y-139911695D01*
X172124169Y-138966957D01*
X171951626Y-138473891D01*
X171758184Y-138376612D01*
X171724596Y-138393603D01*
X171567061Y-138723447D01*
X171482578Y-139353148D01*
X171478043Y-139546991D01*
X171420921Y-140177652D01*
X171278464Y-140524714D01*
X171224043Y-140548001D01*
X171064016Y-140322885D01*
X170975951Y-139761465D01*
X170970043Y-139546991D01*
X170912781Y-138872008D01*
X170770543Y-138441099D01*
X170723489Y-138393603D01*
X170524067Y-138435140D01*
X170349035Y-138866419D01*
X170177733Y-139742313D01*
X170151448Y-139913001D01*
X170014799Y-140229584D01*
X169641112Y-140398298D01*
X168900303Y-140474631D01*
X168826459Y-140478172D01*
X168021548Y-140454805D01*
X167398554Y-140330533D01*
X167222584Y-140240505D01*
X166869190Y-140089155D01*
X166643261Y-140308210D01*
X166351538Y-140526007D01*
X166071209Y-140293937D01*
X165838102Y-139669545D01*
X165694878Y-138784952D01*
X165666943Y-138586525D01*
X166966055Y-138586525D01*
X167126034Y-139190552D01*
X167467608Y-139654960D01*
X167795043Y-139786001D01*
X168176636Y-139577044D01*
X168485246Y-139131275D01*
X168622292Y-138421902D01*
X168396271Y-137875701D01*
X167870114Y-137629824D01*
X167795043Y-137627001D01*
X167289214Y-137823989D01*
X167074467Y-138051775D01*
X166966055Y-138586525D01*
X165666943Y-138586525D01*
X165584944Y-138004074D01*
X165413739Y-137614793D01*
X165126436Y-137500747D01*
X165089440Y-137500001D01*
X164631917Y-137733233D01*
X164291502Y-138357851D01*
X164121721Y-139261235D01*
X164112043Y-139556508D01*
X163966929Y-140229887D01*
X163603768Y-140533014D01*
X163130829Y-140484969D01*
X162656383Y-140104833D01*
X162288700Y-139411689D01*
X162234541Y-139225620D01*
X162008039Y-138334004D01*
X161005555Y-139336488D01*
X159584411Y-140463940D01*
X158035215Y-141111946D01*
X156456682Y-141304422D01*
X155402015Y-141236151D01*
X154683792Y-140997022D01*
X154424682Y-140820030D01*
X154095740Y-140441986D01*
X154537339Y-140441986D01*
X154966885Y-140714333D01*
X155031543Y-140745995D01*
X156165138Y-141018077D01*
X157558331Y-140878614D01*
X158346155Y-140653046D01*
X159381510Y-140133910D01*
X160452721Y-139324629D01*
X161432283Y-138350817D01*
X162192690Y-137338088D01*
X162591690Y-136470454D01*
X162778659Y-135441390D01*
X162757556Y-134613431D01*
X162537704Y-134098681D01*
X162386464Y-134002229D01*
X162170728Y-134064022D01*
X162214272Y-134517370D01*
X162214939Y-134520032D01*
X162239191Y-135440869D01*
X161964791Y-136522662D01*
X161454569Y-137569442D01*
X161070843Y-138088449D01*
X160413783Y-138695738D01*
X159542123Y-139328077D01*
X159026935Y-139637265D01*
X158197864Y-140043514D01*
X157489250Y-140238806D01*
X156654344Y-140274310D01*
X156088446Y-140246614D01*
X155086774Y-140213486D01*
X154573520Y-140276823D01*
X154537339Y-140441986D01*
X154095740Y-140441986D01*
X154027932Y-140364056D01*
X154079043Y-140077961D01*
X154293553Y-139886253D01*
X155152962Y-139886253D01*
X155610955Y-140045962D01*
X156384142Y-140044009D01*
X157313529Y-139900969D01*
X158240122Y-139637417D01*
X158745852Y-139421313D01*
X160050776Y-138557826D01*
X161083916Y-137470113D01*
X161737982Y-136276315D01*
X161810770Y-136046443D01*
X162035735Y-135084801D01*
X162051121Y-134564693D01*
X161928313Y-134452000D01*
X161679342Y-134600017D01*
X161121039Y-135001179D01*
X160340648Y-135591157D01*
X159578813Y-136184413D01*
X158529735Y-137008403D01*
X157485917Y-137823246D01*
X156597354Y-138512076D01*
X156190128Y-138824666D01*
X155581959Y-139329821D01*
X155211346Y-139720201D01*
X155152962Y-139886253D01*
X154293553Y-139886253D01*
X154573576Y-139635996D01*
X155345470Y-139004133D01*
X156320320Y-138237690D01*
X157423722Y-137391988D01*
X158581275Y-136522349D01*
X159718574Y-135684091D01*
X160761215Y-134932536D01*
X161634796Y-134323003D01*
X162264913Y-133910813D01*
X162577162Y-133751287D01*
X162588043Y-133751361D01*
X162918847Y-134060024D01*
X163055382Y-134809281D01*
X162995500Y-135969458D01*
X162827135Y-137055545D01*
X162663209Y-138118770D01*
X162649506Y-138844206D01*
X162784485Y-139378869D01*
X162802372Y-139419367D01*
X163104513Y-139881185D01*
X163350893Y-139863842D01*
X163522714Y-139394828D01*
X163601176Y-138501638D01*
X163604043Y-138247010D01*
X163642944Y-137441374D01*
X163744383Y-136895836D01*
X163858043Y-136738001D01*
X164104721Y-136925456D01*
X164112043Y-136984029D01*
X164297620Y-137150508D01*
X164429543Y-137132244D01*
X165319076Y-136880261D01*
X165834300Y-136836739D01*
X166080542Y-137042774D01*
X166163131Y-137539460D01*
X166173507Y-137812661D01*
X166214305Y-138350465D01*
X166284792Y-138495071D01*
X166326729Y-138389001D01*
X166706746Y-137565299D01*
X167272764Y-137127088D01*
X167912958Y-137048319D01*
X168515500Y-137302947D01*
X168968564Y-137864924D01*
X169160325Y-138708205D01*
X169146991Y-139045896D01*
X169178606Y-139682353D01*
X169382543Y-139972491D01*
X169577220Y-139877945D01*
X169677743Y-139384656D01*
X169700043Y-138679157D01*
X169764933Y-137685584D01*
X169968398Y-137167784D01*
X170323630Y-137109244D01*
X170732048Y-137387485D01*
X171126612Y-137686157D01*
X171432260Y-137624908D01*
X171716037Y-137387485D01*
X172207389Y-137086508D01*
X172539072Y-137236087D01*
X172724795Y-137851833D01*
X172775872Y-138594491D01*
X172803702Y-139913001D01*
X173021251Y-138806414D01*
X173126929Y-138429038D01*
X173764043Y-138429038D01*
X173864475Y-138655733D01*
X174239399Y-138533404D01*
X174257896Y-138523571D01*
X174721172Y-138209376D01*
X174897040Y-138024186D01*
X174861958Y-137700584D01*
X174773059Y-137622685D01*
X174376483Y-137625997D01*
X173973795Y-137932149D01*
X173766310Y-138380261D01*
X173764043Y-138429038D01*
X173126929Y-138429038D01*
X173305617Y-137790940D01*
X173699336Y-137210897D01*
X174254287Y-136996977D01*
X174379343Y-136992000D01*
X175108974Y-137155156D01*
X175469719Y-137572142D01*
X175448528Y-138134238D01*
X175032353Y-138732722D01*
X174625287Y-139041154D01*
X174077709Y-139414356D01*
X173926594Y-139648894D01*
X174114984Y-139835176D01*
X174122412Y-139839360D01*
X174795953Y-139958673D01*
X175451899Y-139643163D01*
X175897809Y-139069500D01*
X176108450Y-138342165D01*
X176152803Y-137255270D01*
X176118908Y-136603595D01*
X176083398Y-135849001D01*
G37*
%TD*%
D14*
%TO.C,SW64*%
X195200000Y-126000000D03*
X144200000Y-126000000D03*
X172200000Y-95400000D03*
X167200000Y-95400000D03*
X169700000Y-95400000D03*
D15*
X199799999Y-125999999D03*
D16*
X184800000Y-152153967D03*
X184800000Y-99846033D03*
D17*
X184200000Y-126000000D03*
X155200000Y-126000000D03*
D16*
X154600000Y-152153967D03*
X154600000Y-99846033D03*
D15*
X139599999Y-125999999D03*
%TD*%
D18*
%TO.C,J2*%
X172590000Y-19150000D03*
X166810000Y-19150000D03*
D19*
X172924999Y-20594999D03*
X172149999Y-20594999D03*
D20*
X170949999Y-20594999D03*
X169949999Y-20594999D03*
X169449999Y-20594999D03*
X168449999Y-20594999D03*
D19*
X167249999Y-20594999D03*
X166474999Y-20594999D03*
D20*
X167949999Y-20594999D03*
X168949999Y-20594999D03*
X170449999Y-20594999D03*
X171449999Y-20594999D03*
D21*
X174019999Y-19679999D03*
D22*
X174019999Y-15499999D03*
D21*
X165379999Y-19679999D03*
D22*
X165379999Y-15499999D03*
%TD*%
D23*
%TO.C,J4*%
X149699994Y-29580619D03*
D24*
X149699994Y-32120619D03*
X149699994Y-34660619D03*
X149699994Y-37200619D03*
X149699994Y-39740619D03*
X149699994Y-42280619D03*
X149699994Y-44820619D03*
D25*
X149949995Y-21200620D03*
X149949995Y-53200620D03*
X189449995Y-21200620D03*
X189449995Y-53200620D03*
%TD*%
D23*
%TO.C,J1*%
X165899996Y-60599999D03*
D24*
X168439996Y-60599999D03*
X170979996Y-60599999D03*
X173519996Y-60599999D03*
%TD*%
D26*
%TO.C,SW25*%
X115727847Y-144071738D03*
D27*
X116560969Y-138453562D03*
D28*
X111566555Y-141157970D03*
D27*
X109902470Y-136891998D03*
D26*
X107405263Y-138244202D03*
%TD*%
%TO.C,SW30*%
X130965367Y-159891510D03*
D27*
X133224192Y-154680396D03*
D28*
X127700006Y-156000004D03*
D27*
X127196738Y-151448694D03*
D26*
X124434645Y-152108498D03*
%TD*%
%TO.C,SW1*%
X56400836Y-39482097D03*
D27*
X55751479Y-33839728D03*
D28*
X51627197Y-37744635D03*
D27*
X48915699Y-34054719D03*
D26*
X46853558Y-36007173D03*
%TD*%
%TO.C,SW24*%
X110902281Y-112534537D03*
D27*
X110252924Y-106892168D03*
D28*
X106128642Y-110797075D03*
D27*
X103417144Y-107107159D03*
D26*
X101355003Y-109059613D03*
%TD*%
%TO.C,SW29*%
X127717482Y-122033565D03*
D27*
X127068125Y-116391196D03*
D28*
X122943843Y-120296103D03*
D27*
X120232345Y-116606187D03*
D26*
X118170204Y-118558641D03*
%TD*%
%TO.C,SW14*%
X75099971Y-99503580D03*
D27*
X74450614Y-93861211D03*
D28*
X70326332Y-97766118D03*
D27*
X67614834Y-94076202D03*
D26*
X65552693Y-96028656D03*
%TD*%
%TO.C,SW19*%
X94358513Y-102289648D03*
D27*
X93709156Y-96647279D03*
D28*
X89584874Y-100552186D03*
D27*
X86873376Y-96862270D03*
D26*
X84811235Y-98814724D03*
%TD*%
%TO.C,SW5*%
X30338900Y-111086691D03*
D27*
X29689543Y-105444322D03*
D28*
X25565261Y-109349229D03*
D27*
X22853763Y-105659313D03*
D26*
X20791622Y-107611767D03*
%TD*%
%TO.C,SW22*%
X123933231Y-76732243D03*
D27*
X123283874Y-71089874D03*
D28*
X119159592Y-74994781D03*
D27*
X116448094Y-71304865D03*
D26*
X114385953Y-73257319D03*
%TD*%
%TO.C,SW27*%
X140748452Y-86231271D03*
D27*
X140099095Y-80588902D03*
D28*
X135974813Y-84493809D03*
D27*
X133263315Y-80803893D03*
D26*
X131201174Y-82756347D03*
%TD*%
%TO.C,SW3*%
X43369856Y-75284394D03*
D27*
X42720499Y-69642025D03*
D28*
X38596217Y-73546932D03*
D27*
X35884719Y-69857016D03*
D26*
X33822578Y-71809470D03*
%TD*%
%TO.C,SW8*%
X62085451Y-79562219D03*
D27*
X61436094Y-73919850D03*
D28*
X57311812Y-77824757D03*
D27*
X54600314Y-74134841D03*
D26*
X52538173Y-76087295D03*
%TD*%
%TO.C,SW13*%
X81615464Y-81602425D03*
D27*
X80966107Y-75960056D03*
D28*
X76841825Y-79864963D03*
D27*
X74130327Y-76175047D03*
D26*
X72068186Y-78127501D03*
%TD*%
%TO.C,SW23*%
X117417752Y-94633424D03*
D27*
X116768395Y-88991055D03*
D28*
X112644113Y-92895962D03*
D27*
X109932615Y-89206046D03*
D26*
X107870474Y-91158500D03*
%TD*%
%TO.C,SW18*%
X100873982Y-84388508D03*
D27*
X100224625Y-78746139D03*
D28*
X96100343Y-82651046D03*
D27*
X93388845Y-78961130D03*
D26*
X91326704Y-80913584D03*
%TD*%
%TO.C,SW28*%
X134232968Y-104132416D03*
D27*
X133583611Y-98490047D03*
D28*
X129459329Y-102394954D03*
D27*
X126747831Y-98705038D03*
D26*
X124685690Y-100657492D03*
%TD*%
%TO.C,SW4*%
X36854400Y-93185560D03*
D27*
X36205043Y-87543191D03*
D28*
X32080761Y-91448098D03*
D27*
X29369263Y-87758182D03*
D26*
X27307122Y-89710636D03*
%TD*%
%TO.C,SW9*%
X55569943Y-97463380D03*
D27*
X54920586Y-91821011D03*
D28*
X50796304Y-95725918D03*
D27*
X48084806Y-92036002D03*
D26*
X46022665Y-93988456D03*
%TD*%
%TO.C,SW10*%
X49054473Y-115364519D03*
D27*
X48405116Y-109722150D03*
D28*
X44280834Y-113627057D03*
D27*
X41569336Y-109937141D03*
D26*
X39507195Y-111889595D03*
%TD*%
%TO.C,SW15*%
X68584491Y-117404720D03*
D27*
X67935134Y-111762351D03*
D28*
X63810852Y-115667258D03*
D27*
X61099354Y-111977342D03*
D26*
X59037213Y-113929796D03*
%TD*%
%TO.C,SW20*%
X96790850Y-132739144D03*
D27*
X96141493Y-127096775D03*
D28*
X92017211Y-131001682D03*
D27*
X89305713Y-127311766D03*
D26*
X87243572Y-129264220D03*
%TD*%
%TO.C,SW11*%
X94646424Y-45800154D03*
D27*
X93997067Y-40157785D03*
D28*
X89872785Y-44062692D03*
D27*
X87161287Y-40372776D03*
D26*
X85099146Y-42325230D03*
%TD*%
%TO.C,SW2*%
X49885356Y-57383245D03*
D27*
X49235999Y-51740876D03*
D28*
X45111717Y-55645783D03*
D27*
X42400219Y-51955867D03*
D26*
X40338078Y-53908321D03*
%TD*%
%TO.C,SW12*%
X88130935Y-63701286D03*
D27*
X87481578Y-58058917D03*
D28*
X83357296Y-61963824D03*
D27*
X80645798Y-58273908D03*
D26*
X78583657Y-60226362D03*
%TD*%
%TO.C,SW21*%
X130448723Y-58831109D03*
D27*
X129799366Y-53188740D03*
D28*
X125675084Y-57093647D03*
D27*
X122963586Y-53403731D03*
D26*
X120901445Y-55356185D03*
%TD*%
%TO.C,SW17*%
X107389481Y-66487372D03*
D27*
X106740124Y-60845003D03*
D28*
X102615842Y-64749910D03*
D27*
X99904344Y-61059994D03*
D26*
X97842203Y-63012448D03*
%TD*%
%TO.C,SW16*%
X113904966Y-48586210D03*
D27*
X113255609Y-42943841D03*
D28*
X109131327Y-46848748D03*
D27*
X106419829Y-43158832D03*
D26*
X104357688Y-45111286D03*
%TD*%
%TO.C,SW6*%
X75116409Y-43759946D03*
D27*
X74467052Y-38117577D03*
D28*
X70342770Y-42022484D03*
D27*
X67631272Y-38332568D03*
D26*
X65569131Y-40285022D03*
%TD*%
%TO.C,SW7*%
X68600924Y-61661086D03*
D27*
X67951567Y-56018717D03*
D28*
X63827285Y-59923624D03*
D27*
X61115787Y-56233708D03*
D26*
X59053646Y-58186162D03*
%TD*%
%TO.C,SW26*%
X147263939Y-68330126D03*
D27*
X146614582Y-62687757D03*
D28*
X142490300Y-66592664D03*
D27*
X139778802Y-62902748D03*
D26*
X137716661Y-64855202D03*
%TD*%
%TO.C,SW31*%
X201683359Y-64855205D03*
D27*
X197559077Y-60950297D03*
D28*
X196909720Y-66592667D03*
D27*
X192460760Y-65508944D03*
D26*
X192136081Y-68330129D03*
%TD*%
%TO.C,SW45*%
X252156430Y-129264216D03*
D27*
X248032148Y-125359308D03*
D28*
X247382791Y-131001678D03*
D27*
X242933831Y-129917955D03*
D26*
X242609152Y-132739140D03*
%TD*%
%TO.C,SW49*%
X273847316Y-96028669D03*
D27*
X269723034Y-92123761D03*
D28*
X269073677Y-97766131D03*
D27*
X264624717Y-96682408D03*
D26*
X264300038Y-99503593D03*
%TD*%
%TO.C,SW47*%
X260816355Y-60226369D03*
D27*
X256692073Y-56321461D03*
D28*
X256042716Y-61963831D03*
D27*
X251593756Y-60880108D03*
D26*
X251269077Y-63701293D03*
%TD*%
%TO.C,SW63*%
X195966909Y-167775197D03*
D27*
X192198657Y-163525694D03*
D28*
X191060006Y-169089998D03*
D27*
X186722428Y-167622647D03*
D26*
X186153103Y-170404799D03*
%TD*%
%TO.C,SW61*%
X153246905Y-170404788D03*
D27*
X152108254Y-164840484D03*
D28*
X148340002Y-169089987D03*
D27*
X145317225Y-165650435D03*
D26*
X143433099Y-167775186D03*
%TD*%
%TO.C,SW33*%
X214714306Y-100657486D03*
D27*
X210590024Y-96752578D03*
D28*
X209940667Y-102394948D03*
D27*
X205491707Y-101311225D03*
D26*
X205167028Y-104132410D03*
%TD*%
%TO.C,SW59*%
X312092896Y-89710623D03*
D27*
X307968614Y-85805715D03*
D28*
X307319257Y-91448085D03*
D27*
X302870297Y-90364362D03*
D26*
X302545618Y-93185547D03*
%TD*%
%TO.C,SW38*%
X231529556Y-91158483D03*
D27*
X227405274Y-87253575D03*
D28*
X226755917Y-92895945D03*
D27*
X222306957Y-91812222D03*
D26*
X221982278Y-94633407D03*
%TD*%
%TO.C,SW50*%
X280362795Y-113929810D03*
D27*
X276238513Y-110024902D03*
D28*
X275589156Y-115667272D03*
D27*
X271140196Y-114583549D03*
D26*
X270815517Y-117404734D03*
%TD*%
%TO.C,SW58*%
X305577416Y-71809460D03*
D27*
X301453134Y-67904552D03*
D28*
X300803777Y-73546922D03*
D27*
X296354817Y-72463199D03*
D26*
X296030138Y-75284384D03*
%TD*%
D29*
%TO.C,U4*%
X175049999Y-120339999D03*
D30*
X175050000Y-122120000D03*
X175050000Y-123900000D03*
X175050000Y-125680000D03*
X175050000Y-127460000D03*
X175050000Y-129240000D03*
X175050000Y-131020000D03*
X175050000Y-132800000D03*
X164350000Y-133690000D03*
X164350000Y-131910000D03*
X164350000Y-130130000D03*
X164350000Y-128350000D03*
X164350000Y-126570000D03*
X164350000Y-124790000D03*
X164350000Y-123010000D03*
X164350000Y-121230000D03*
%TD*%
D26*
%TO.C,SW43*%
X248073284Y-80913582D03*
D27*
X243949002Y-77008674D03*
D28*
X243299645Y-82651044D03*
D27*
X238850685Y-81567321D03*
D26*
X238526006Y-84388506D03*
%TD*%
%TO.C,SW57*%
X299061931Y-53908320D03*
D27*
X294937649Y-50003412D03*
D28*
X294288292Y-55645782D03*
D27*
X289839332Y-54562059D03*
D26*
X289514653Y-57383244D03*
%TD*%
%TO.C,SW52*%
X280346370Y-58186165D03*
D27*
X276222088Y-54281257D03*
D28*
X275572731Y-59923627D03*
D27*
X271123771Y-58839904D03*
D26*
X270799092Y-61661089D03*
%TD*%
%TO.C,SW44*%
X254588777Y-98814719D03*
D27*
X250464495Y-94909811D03*
D28*
X249815138Y-100552181D03*
D27*
X245366178Y-99468458D03*
D26*
X245041499Y-102289643D03*
%TD*%
%TO.C,SW41*%
X235042324Y-45111300D03*
D27*
X230918042Y-41206392D03*
D28*
X230268685Y-46848762D03*
D27*
X225819725Y-45765039D03*
D26*
X225495046Y-48586224D03*
%TD*%
%TO.C,SW40*%
X231994747Y-138244194D03*
D27*
X227000333Y-135539785D03*
D28*
X227833455Y-141157962D03*
D27*
X223255602Y-141262642D03*
D26*
X223672163Y-144071730D03*
%TD*%
%TO.C,SW62*%
X174780016Y-171909989D03*
D27*
X172240016Y-166829989D03*
D28*
X169700016Y-171909989D03*
D27*
X165890016Y-169369989D03*
D26*
X164620016Y-171909989D03*
%TD*%
%TO.C,SW46*%
X254300853Y-42325232D03*
D27*
X250176571Y-38420324D03*
D28*
X249527214Y-44062694D03*
D27*
X245078254Y-42978971D03*
D26*
X244753575Y-45800156D03*
%TD*%
%TO.C,SW51*%
X273830883Y-40285032D03*
D27*
X269706601Y-36380124D03*
D28*
X269057244Y-42022494D03*
D27*
X264608284Y-40938771D03*
D26*
X264283605Y-43759956D03*
%TD*%
%TO.C,SW60*%
X318608379Y-107611760D03*
D27*
X314484097Y-103706852D03*
D28*
X313834740Y-109349222D03*
D27*
X309385780Y-108265499D03*
D26*
X309061101Y-111086684D03*
%TD*%
%TO.C,SW37*%
X225014065Y-73257346D03*
D27*
X220889783Y-69352438D03*
D28*
X220240426Y-74994808D03*
D27*
X215791466Y-73911085D03*
D26*
X215466787Y-76732270D03*
%TD*%
%TO.C,SW54*%
X293377331Y-93988462D03*
D27*
X289253049Y-90083554D03*
D28*
X288603692Y-95725924D03*
D27*
X284154732Y-94642201D03*
D26*
X283830053Y-97463386D03*
%TD*%
%TO.C,SW55*%
X299892822Y-111889614D03*
D27*
X295768540Y-107984706D03*
D28*
X295119183Y-113627076D03*
D27*
X290670223Y-112543353D03*
D26*
X290345544Y-115364538D03*
%TD*%
%TO.C,SW48*%
X267331837Y-78127518D03*
D27*
X263207555Y-74222610D03*
D28*
X262558198Y-79864980D03*
D27*
X258109238Y-78781257D03*
D26*
X257784559Y-81602442D03*
%TD*%
%TO.C,SW53*%
X286861847Y-76087310D03*
D27*
X282737565Y-72182402D03*
D28*
X282088208Y-77824772D03*
D27*
X277639248Y-76741049D03*
D26*
X277314569Y-79562234D03*
%TD*%
%TO.C,SW35*%
X214965368Y-152108494D03*
D27*
X209441182Y-150788886D03*
D28*
X211700007Y-156000000D03*
D27*
X207305233Y-157285949D03*
D26*
X208434646Y-159891506D03*
%TD*%
%TO.C,SW34*%
X221229791Y-118558629D03*
D27*
X217105509Y-114653721D03*
D28*
X216456152Y-120296091D03*
D27*
X212007192Y-119212368D03*
D26*
X211682513Y-122033553D03*
%TD*%
%TO.C,SW42*%
X241557800Y-63012444D03*
D27*
X237433518Y-59107536D03*
D28*
X236784161Y-64749906D03*
D27*
X232335201Y-63666183D03*
D26*
X232010522Y-66487368D03*
%TD*%
%TO.C,SW56*%
X292546452Y-36007187D03*
D27*
X288422170Y-32102279D03*
D28*
X287772813Y-37744649D03*
D27*
X283323853Y-36660926D03*
D26*
X282999174Y-39482111D03*
%TD*%
%TO.C,SW36*%
X218498576Y-55356202D03*
D27*
X214374294Y-51451294D03*
D28*
X213724937Y-57093664D03*
D27*
X209275977Y-56009941D03*
D26*
X208951298Y-58831126D03*
%TD*%
%TO.C,SW39*%
X238045031Y-109059636D03*
D27*
X233920749Y-105154728D03*
D28*
X233271392Y-110797098D03*
D27*
X228822432Y-109713375D03*
D26*
X228497753Y-112534560D03*
%TD*%
%TO.C,SW32*%
X208198832Y-82756352D03*
D27*
X204074550Y-78851444D03*
D28*
X203425193Y-84493814D03*
D27*
X198976233Y-83410091D03*
D26*
X198651554Y-86231276D03*
%TD*%
M02*
