%TF.GenerationSoftware,KiCad,Pcbnew,7.0.6*%
%TF.CreationDate,2023-07-14T15:05:40+01:00*%
%TF.ProjectId,Honeydew,486f6e65-7964-4657-972e-6b696361645f,V2.1*%
%TF.SameCoordinates,Original*%
%TF.FileFunction,Profile,NP*%
%FSLAX46Y46*%
G04 Gerber Fmt 4.6, Leading zero omitted, Abs format (unit mm)*
G04 Created by KiCad (PCBNEW 7.0.6) date 2023-07-14 15:05:40*
%MOMM*%
%LPD*%
G01*
G04 APERTURE LIST*
%TA.AperFunction,Profile*%
%ADD10C,0.100000*%
%TD*%
%TA.AperFunction,Profile*%
%ADD11C,0.120000*%
%TD*%
G04 APERTURE END LIST*
D10*
X61199996Y-63557249D02*
G75*
G03*
X59267688Y-65041276I-102J-1999881D01*
G01*
X212299990Y-103900028D02*
G75*
G03*
X212799994Y-103400030I-95J500099D01*
G01*
X183699991Y-95600022D02*
X212299993Y-95600017D01*
X360534280Y-153882178D02*
X336732285Y-65041286D01*
X198799984Y-64557239D02*
G75*
G03*
X197799988Y-63557239I-999990J10D01*
G01*
X183199997Y-103400016D02*
G75*
G03*
X183700006Y-103900028I500198J186D01*
G01*
X183200006Y-103400029D02*
X183200006Y-96100025D01*
X334799989Y-63557241D02*
X214399994Y-63557240D01*
X35465687Y-153882163D02*
G75*
G03*
X36879908Y-156331658I1931807J-517667D01*
G01*
X212800007Y-96100021D02*
G75*
G03*
X212299992Y-95600018I-500112J-109D01*
G01*
X214399994Y-63557225D02*
G75*
G03*
X213399991Y-64557239I1J-1000004D01*
G01*
X212399993Y-66057224D02*
G75*
G03*
X213399989Y-65057240I2J999994D01*
G01*
X230486743Y-214598109D02*
G75*
G03*
X231913666Y-213847850I151J1731780D01*
G01*
X336732236Y-65041299D02*
G75*
G03*
X334799989Y-63557241I-1932142J-515730D01*
G01*
X164086307Y-213847855D02*
G75*
G03*
X165513244Y-214598112I1427087J982125D01*
G01*
X59267688Y-65041276D02*
X35465699Y-153882166D01*
X359120069Y-156331674D02*
X287384404Y-175535150D01*
X198799986Y-65057237D02*
G75*
G03*
X199799989Y-66057239I1000009J7D01*
G01*
X287384406Y-175535159D02*
G75*
G03*
X231913667Y-213847850I28965088J-101249671D01*
G01*
X183699993Y-95600029D02*
G75*
G03*
X183199993Y-96100024I-99J-499901D01*
G01*
X197799988Y-63557239D02*
X61199989Y-63557240D01*
X212399993Y-66057239D02*
X199799989Y-66057239D01*
X108615577Y-175535146D02*
X36879908Y-156331659D01*
X359120059Y-156331637D02*
G75*
G03*
X360534279Y-153882178I-517565J1931808D01*
G01*
X212300003Y-103900030D02*
X183700006Y-103900028D01*
X213399991Y-64557239D02*
X213399989Y-65057240D01*
X165513241Y-214598118D02*
X230486743Y-214598119D01*
X212799988Y-96100021D02*
X212799989Y-103400030D01*
X198799989Y-64557239D02*
X198799992Y-65057237D01*
X164086317Y-213847848D02*
G75*
G03*
X108615577Y-175535147I-84436122J-62937382D01*
G01*
%TO.C,SW64*%
X203500020Y-204200020D02*
X203080020Y-204175020D01*
X203080020Y-205925020D02*
X203500020Y-205900020D01*
D11*
X201244228Y-198645598D02*
X203704228Y-199975599D01*
X200076494Y-201396606D02*
X202295812Y-202624441D01*
X198463553Y-197673440D02*
X201003546Y-198543434D01*
X197536487Y-200526600D02*
X199835812Y-201294442D01*
D10*
X192920020Y-204175020D02*
X192500020Y-204200020D01*
X192500020Y-205900020D02*
X192920020Y-205925020D01*
X203500020Y-205900020D02*
G75*
G03*
X203500020Y-204200020I0J850000D01*
G01*
X203080020Y-204175020D02*
G75*
G03*
X203080020Y-205925020I0J-875000D01*
G01*
D11*
X202295812Y-202624440D02*
G75*
G03*
X203704228Y-199975600I704208J1324420D01*
G01*
X201244228Y-198645600D02*
G75*
G03*
X201003546Y-198543436I-704565J-1325256D01*
G01*
X200076494Y-201396607D02*
G75*
G03*
X199835812Y-201294443I-704012J-1323953D01*
G01*
X198463553Y-197673441D02*
G75*
G03*
X197536487Y-200526599I-463533J-1426579D01*
G01*
D10*
X192920020Y-205925020D02*
G75*
G03*
X192920020Y-204175020I0J875000D01*
G01*
X192500020Y-204200020D02*
G75*
G03*
X192500020Y-205900020I0J-850000D01*
G01*
%TO.C,SW29*%
X139634704Y-175050425D02*
X139283473Y-174818775D01*
X138408473Y-176334319D02*
X138784704Y-176522669D01*
D11*
X140458342Y-169112259D02*
X141923764Y-171494074D01*
X138071550Y-170910835D02*
X139379619Y-173083830D01*
X138536285Y-166880008D02*
X140300987Y-168903441D01*
X136306843Y-168887384D02*
X137914196Y-170702017D01*
D10*
X130484655Y-169738775D02*
X130108424Y-169550425D01*
X129258424Y-171022669D02*
X129609655Y-171254319D01*
D11*
X139379618Y-173083830D02*
G75*
G03*
X141923764Y-171494074I1272073J794878D01*
G01*
D10*
X138784704Y-176522669D02*
G75*
G03*
X139634704Y-175050425I425000J736122D01*
G01*
X139283473Y-174818776D02*
G75*
G03*
X138408473Y-176334318I-437500J-757771D01*
G01*
D11*
X140458340Y-169112260D02*
G75*
G03*
X140300985Y-168903442I-1272137J-794924D01*
G01*
X138071550Y-170910835D02*
G75*
G03*
X137914196Y-170702017I-1272138J-794924D01*
G01*
X138536285Y-166880008D02*
G75*
G03*
X136306843Y-168887384I-1114721J-1003688D01*
G01*
D10*
X129609655Y-171254318D02*
G75*
G03*
X130484655Y-169738776I437500J757771D01*
G01*
X130108424Y-169550425D02*
G75*
G03*
X129258424Y-171022669I-425000J-736122D01*
G01*
%TO.C,SW30*%
X155893477Y-189335976D02*
X155614170Y-189021313D01*
X154376733Y-190258750D02*
X154691396Y-190538057D01*
D11*
X158225961Y-183813320D02*
X159024991Y-186493256D01*
X155454992Y-184932864D02*
X156156076Y-187370369D01*
X156947146Y-181159667D02*
X158128014Y-183570892D01*
X154274123Y-182521621D02*
X155357045Y-184690435D01*
D10*
X148429965Y-181837108D02*
X148115302Y-181557801D01*
X146913221Y-182759882D02*
X147192528Y-183074545D01*
D11*
X156156076Y-187370369D02*
G75*
G03*
X159024991Y-186493256I1434457J438557D01*
G01*
D10*
X154691396Y-190538057D02*
G75*
G03*
X155893477Y-189335976I601040J601041D01*
G01*
X155614170Y-189021313D02*
G75*
G03*
X154376733Y-190258750I-618719J-618718D01*
G01*
D11*
X158225960Y-183813321D02*
G75*
G03*
X158128013Y-183570892I-1434533J-438584D01*
G01*
X155454992Y-184932864D02*
G75*
G03*
X155357045Y-184690435I-1434533J-438584D01*
G01*
X156947145Y-181159667D02*
G75*
G03*
X154274123Y-182521621I-1336511J-680977D01*
G01*
D10*
X147192528Y-183074545D02*
G75*
G03*
X148429965Y-181837108I618719J618718D01*
G01*
X148115302Y-181557801D02*
G75*
G03*
X146913221Y-182759882I-601040J-601041D01*
G01*
%TO.C,SW1*%
X71868373Y-76077749D02*
X71469155Y-75944897D01*
X71016222Y-77635267D02*
X71428381Y-77719823D01*
D11*
X71127036Y-70128747D02*
X73158984Y-72050124D01*
X69287078Y-72483785D02*
X71112987Y-74244184D01*
X68692723Y-68470023D02*
X70920997Y-69967771D01*
X67058794Y-70986022D02*
X69081039Y-72322809D01*
D10*
X61655348Y-73315295D02*
X61243189Y-73230739D01*
X60803197Y-74872813D02*
X61202415Y-75005665D01*
D11*
X71112988Y-74244183D02*
G75*
G03*
X73158983Y-72050125I1022998J1097029D01*
G01*
D10*
X71428381Y-77719822D02*
G75*
G03*
X71868373Y-76077750I219996J821036D01*
G01*
X71469155Y-75944898D02*
G75*
G03*
X71016222Y-77635266I-226467J-845184D01*
G01*
D11*
X71127035Y-70128748D02*
G75*
G03*
X70920996Y-69967772I-1023049J-1097092D01*
G01*
X69287078Y-72483786D02*
G75*
G03*
X69081039Y-72322810I-1023050J-1097091D01*
G01*
X68692723Y-68470023D02*
G75*
G03*
X67058794Y-70986022I-816965J-1257999D01*
G01*
D10*
X61202415Y-75005664D02*
G75*
G03*
X61655348Y-73315296I226467J845184D01*
G01*
X61243189Y-73230740D02*
G75*
G03*
X60803197Y-74872812I-219996J-821036D01*
G01*
%TO.C,SW23*%
X132529350Y-144102094D02*
X132130132Y-143969242D01*
X131677199Y-145659612D02*
X132089358Y-145744168D01*
D11*
X131788013Y-138153092D02*
X133819961Y-140074469D01*
X129948055Y-140508130D02*
X131773964Y-142268529D01*
X129353700Y-136494368D02*
X131581974Y-137992116D01*
X127719771Y-139010367D02*
X129742016Y-140347154D01*
D10*
X122316325Y-141339640D02*
X121904166Y-141255084D01*
X121464174Y-142897158D02*
X121863392Y-143030010D01*
D11*
X131773965Y-142268528D02*
G75*
G03*
X133819960Y-140074470I1022998J1097029D01*
G01*
D10*
X132089358Y-145744167D02*
G75*
G03*
X132529350Y-144102095I219996J821036D01*
G01*
X132130132Y-143969243D02*
G75*
G03*
X131677199Y-145659611I-226467J-845184D01*
G01*
D11*
X131788012Y-138153093D02*
G75*
G03*
X131581973Y-137992117I-1023049J-1097092D01*
G01*
X129948055Y-140508131D02*
G75*
G03*
X129742016Y-140347155I-1023050J-1097091D01*
G01*
X129353700Y-136494368D02*
G75*
G03*
X127719771Y-139010367I-816965J-1257999D01*
G01*
D10*
X121863392Y-143030009D02*
G75*
G03*
X122316325Y-141339641I226467J845184D01*
G01*
X121904166Y-141255085D02*
G75*
G03*
X121464174Y-142897157I-219996J-821036D01*
G01*
%TO.C,SW24*%
X150108473Y-152099439D02*
X149709255Y-151966587D01*
X149256322Y-153656957D02*
X149668481Y-153741513D01*
D11*
X149367136Y-146150437D02*
X151399084Y-148071814D01*
X147527178Y-148505475D02*
X149353087Y-150265874D01*
X146932823Y-144491713D02*
X149161097Y-145989461D01*
X145298894Y-147007712D02*
X147321139Y-148344499D01*
D10*
X139895448Y-149336985D02*
X139483289Y-149252429D01*
X139043297Y-150894503D02*
X139442515Y-151027355D01*
D11*
X149353088Y-150265873D02*
G75*
G03*
X151399083Y-148071815I1022998J1097029D01*
G01*
D10*
X149668481Y-153741512D02*
G75*
G03*
X150108473Y-152099440I219996J821036D01*
G01*
X149709255Y-151966588D02*
G75*
G03*
X149256322Y-153656956I-226467J-845184D01*
G01*
D11*
X149367135Y-146150438D02*
G75*
G03*
X149161096Y-145989462I-1023049J-1097092D01*
G01*
X147527178Y-148505476D02*
G75*
G03*
X147321139Y-148344500I-1023050J-1097091D01*
G01*
X146932823Y-144491713D02*
G75*
G03*
X145298894Y-147007712I-816965J-1257999D01*
G01*
D10*
X139442515Y-151027354D02*
G75*
G03*
X139895448Y-149336986I226467J845184D01*
G01*
X139483289Y-149252430D02*
G75*
G03*
X139043297Y-150894502I-219996J-821036D01*
G01*
%TO.C,SW21*%
X95727569Y-134241103D02*
X95328351Y-134108251D01*
X94875418Y-135798621D02*
X95287577Y-135883177D01*
D11*
X94986232Y-128292101D02*
X97018180Y-130213478D01*
X93146274Y-130647139D02*
X94972183Y-132407538D01*
X92551919Y-126633377D02*
X94780193Y-128131125D01*
X90917990Y-129149376D02*
X92940235Y-130486163D01*
D10*
X85514544Y-131478649D02*
X85102385Y-131394093D01*
X84662393Y-133036167D02*
X85061611Y-133169019D01*
D11*
X94972184Y-132407537D02*
G75*
G03*
X97018179Y-130213479I1022998J1097029D01*
G01*
D10*
X95287577Y-135883176D02*
G75*
G03*
X95727569Y-134241104I219996J821036D01*
G01*
X95328351Y-134108252D02*
G75*
G03*
X94875418Y-135798620I-226467J-845184D01*
G01*
D11*
X94986231Y-128292102D02*
G75*
G03*
X94780192Y-128131126I-1023049J-1097092D01*
G01*
X93146274Y-130647140D02*
G75*
G03*
X92940235Y-130486164I-1023050J-1097091D01*
G01*
X92551919Y-126633377D02*
G75*
G03*
X90917990Y-129149376I-816965J-1257999D01*
G01*
D10*
X85061611Y-133169018D02*
G75*
G03*
X85514544Y-131478650I226467J845184D01*
G01*
X85102385Y-131394094D02*
G75*
G03*
X84662393Y-133036166I-219996J-821036D01*
G01*
%TO.C,SW22*%
X115155645Y-135338064D02*
X114756427Y-135205212D01*
X114303494Y-136895582D02*
X114715653Y-136980138D01*
D11*
X114414308Y-129389062D02*
X116446256Y-131310439D01*
X112574350Y-131744100D02*
X114400259Y-133504499D01*
X111979995Y-127730338D02*
X114208269Y-129228086D01*
X110346066Y-130246337D02*
X112368311Y-131583124D01*
D10*
X104942620Y-132575610D02*
X104530461Y-132491054D01*
X104090469Y-134133128D02*
X104489687Y-134265980D01*
D11*
X114400260Y-133504498D02*
G75*
G03*
X116446255Y-131310440I1022998J1097029D01*
G01*
D10*
X114715653Y-136980137D02*
G75*
G03*
X115155645Y-135338065I219996J821036D01*
G01*
X114756427Y-135205213D02*
G75*
G03*
X114303494Y-136895581I-226467J-845184D01*
G01*
D11*
X114414307Y-129389063D02*
G75*
G03*
X114208268Y-129228087I-1023049J-1097092D01*
G01*
X112574350Y-131744101D02*
G75*
G03*
X112368311Y-131583125I-1023050J-1097091D01*
G01*
X111979995Y-127730338D02*
G75*
G03*
X110346066Y-130246337I-816965J-1257999D01*
G01*
D10*
X104489687Y-134265979D02*
G75*
G03*
X104942620Y-132575611I226467J845184D01*
G01*
X104530461Y-132491055D02*
G75*
G03*
X104090469Y-134133127I-219996J-821036D01*
G01*
%TO.C,SW25*%
X52146357Y-149681308D02*
X51747139Y-149548456D01*
X51294206Y-151238826D02*
X51706365Y-151323382D01*
D11*
X51405020Y-143732306D02*
X53436968Y-145653683D01*
X49565062Y-146087344D02*
X51390971Y-147847743D01*
X48970707Y-142073582D02*
X51198981Y-143571330D01*
X47336778Y-144589581D02*
X49359023Y-145926368D01*
D10*
X41933332Y-146918854D02*
X41521173Y-146834298D01*
X41081181Y-148476372D02*
X41480399Y-148609224D01*
D11*
X51390972Y-147847742D02*
G75*
G03*
X53436967Y-145653684I1022998J1097029D01*
G01*
D10*
X51706365Y-151323381D02*
G75*
G03*
X52146357Y-149681309I219996J821036D01*
G01*
X51747139Y-149548457D02*
G75*
G03*
X51294206Y-151238825I-226467J-845184D01*
G01*
D11*
X51405019Y-143732307D02*
G75*
G03*
X51198980Y-143571331I-1023049J-1097092D01*
G01*
X49565062Y-146087345D02*
G75*
G03*
X49359023Y-145926369I-1023050J-1097091D01*
G01*
X48970707Y-142073582D02*
G75*
G03*
X47336778Y-144589581I-816965J-1257999D01*
G01*
D10*
X41480399Y-148609223D02*
G75*
G03*
X41933332Y-146918855I226467J845184D01*
G01*
X41521173Y-146834299D02*
G75*
G03*
X41081181Y-148476371I-219996J-821036D01*
G01*
%TO.C,SW11*%
X142390339Y-107300316D02*
X141991121Y-107167464D01*
X141538188Y-108857834D02*
X141950347Y-108942390D01*
D11*
X141649002Y-101351314D02*
X143680950Y-103272691D01*
X139809044Y-103706352D02*
X141634953Y-105466751D01*
X139214689Y-99692590D02*
X141442963Y-101190338D01*
X137580760Y-102208589D02*
X139603005Y-103545376D01*
D10*
X132177314Y-104537862D02*
X131765155Y-104453306D01*
X131325163Y-106095380D02*
X131724381Y-106228232D01*
D11*
X141634954Y-105466750D02*
G75*
G03*
X143680949Y-103272692I1022998J1097029D01*
G01*
D10*
X141950347Y-108942389D02*
G75*
G03*
X142390339Y-107300317I219996J821036D01*
G01*
X141991121Y-107167465D02*
G75*
G03*
X141538188Y-108857833I-226467J-845184D01*
G01*
D11*
X141649001Y-101351315D02*
G75*
G03*
X141442962Y-101190339I-1023049J-1097092D01*
G01*
X139809044Y-103706353D02*
G75*
G03*
X139603005Y-103545377I-1023050J-1097091D01*
G01*
X139214689Y-99692590D02*
G75*
G03*
X137580760Y-102208589I-816965J-1257999D01*
G01*
D10*
X131724381Y-106228231D02*
G75*
G03*
X132177314Y-104537863I226467J845184D01*
G01*
X131765155Y-104453307D02*
G75*
G03*
X131325163Y-106095379I-219996J-821036D01*
G01*
%TO.C,SW12*%
X159969484Y-115297655D02*
X159570266Y-115164803D01*
X159117333Y-116855173D02*
X159529492Y-116939729D01*
D11*
X159228147Y-109348653D02*
X161260095Y-111270030D01*
X157388189Y-111703691D02*
X159214098Y-113464090D01*
X156793834Y-107689929D02*
X159022108Y-109187677D01*
X155159905Y-110205928D02*
X157182150Y-111542715D01*
D10*
X149756459Y-112535201D02*
X149344300Y-112450645D01*
X148904308Y-114092719D02*
X149303526Y-114225571D01*
D11*
X159214099Y-113464089D02*
G75*
G03*
X161260094Y-111270031I1022998J1097029D01*
G01*
D10*
X159529492Y-116939728D02*
G75*
G03*
X159969484Y-115297656I219996J821036D01*
G01*
X159570266Y-115164804D02*
G75*
G03*
X159117333Y-116855172I-226467J-845184D01*
G01*
D11*
X159228146Y-109348654D02*
G75*
G03*
X159022107Y-109187678I-1023049J-1097092D01*
G01*
X157388189Y-111703692D02*
G75*
G03*
X157182150Y-111542716I-1023050J-1097091D01*
G01*
X156793834Y-107689929D02*
G75*
G03*
X155159905Y-110205928I-816965J-1257999D01*
G01*
D10*
X149303526Y-114225570D02*
G75*
G03*
X149756459Y-112535202I226467J845184D01*
G01*
X149344300Y-112450646D02*
G75*
G03*
X148904308Y-114092718I-219996J-821036D01*
G01*
%TO.C,SW13*%
X62007343Y-112879539D02*
X61608125Y-112746687D01*
X61155192Y-114437057D02*
X61567351Y-114521613D01*
D11*
X61266006Y-106930537D02*
X63297954Y-108851914D01*
X59426048Y-109285575D02*
X61251957Y-111045974D01*
X58831693Y-105271813D02*
X61059967Y-106769561D01*
X57197764Y-107787812D02*
X59220009Y-109124599D01*
D10*
X51794318Y-110117085D02*
X51382159Y-110032529D01*
X50942167Y-111674603D02*
X51341385Y-111807455D01*
D11*
X61251958Y-111045973D02*
G75*
G03*
X63297953Y-108851915I1022998J1097029D01*
G01*
D10*
X61567351Y-114521612D02*
G75*
G03*
X62007343Y-112879540I219996J821036D01*
G01*
X61608125Y-112746688D02*
G75*
G03*
X61155192Y-114437056I-226467J-845184D01*
G01*
D11*
X61266005Y-106930538D02*
G75*
G03*
X61059966Y-106769562I-1023049J-1097092D01*
G01*
X59426048Y-109285576D02*
G75*
G03*
X59220009Y-109124600I-1023050J-1097091D01*
G01*
X58831693Y-105271813D02*
G75*
G03*
X57197764Y-107787812I-816965J-1257999D01*
G01*
D10*
X51341385Y-111807454D02*
G75*
G03*
X51794318Y-110117086I226467J845184D01*
G01*
X51382159Y-110032530D02*
G75*
G03*
X50942167Y-111674602I-219996J-821036D01*
G01*
%TO.C,SW14*%
X81024558Y-115509907D02*
X80625340Y-115377055D01*
X80172407Y-117067425D02*
X80584566Y-117151981D01*
D11*
X80283221Y-109560905D02*
X82315169Y-111482282D01*
X78443263Y-111915943D02*
X80269172Y-113676342D01*
X77848908Y-107902181D02*
X80077182Y-109399929D01*
X76214979Y-110418180D02*
X78237224Y-111754967D01*
D10*
X70811533Y-112747453D02*
X70399374Y-112662897D01*
X69959382Y-114304971D02*
X70358600Y-114437823D01*
D11*
X80269173Y-113676341D02*
G75*
G03*
X82315168Y-111482283I1022998J1097029D01*
G01*
D10*
X80584566Y-117151980D02*
G75*
G03*
X81024558Y-115509908I219996J821036D01*
G01*
X80625340Y-115377056D02*
G75*
G03*
X80172407Y-117067424I-226467J-845184D01*
G01*
D11*
X80283220Y-109560906D02*
G75*
G03*
X80077181Y-109399930I-1023049J-1097092D01*
G01*
X78443263Y-111915944D02*
G75*
G03*
X78237224Y-111754968I-1023050J-1097091D01*
G01*
X77848908Y-107902181D02*
G75*
G03*
X76214979Y-110418180I-816965J-1257999D01*
G01*
D10*
X70358600Y-114437822D02*
G75*
G03*
X70811533Y-112747454I226467J845184D01*
G01*
X70399374Y-112662898D02*
G75*
G03*
X69959382Y-114304970I-219996J-821036D01*
G01*
%TO.C,SW15*%
X100658072Y-115840201D02*
X100258854Y-115707349D01*
X99805921Y-117397719D02*
X100218080Y-117482275D01*
D11*
X99916735Y-109891199D02*
X101948683Y-111812576D01*
X98076777Y-112246237D02*
X99902686Y-114006636D01*
X97482422Y-108232475D02*
X99710696Y-109730223D01*
X95848493Y-110748474D02*
X97870738Y-112085261D01*
D10*
X90445047Y-113077747D02*
X90032888Y-112993191D01*
X89592896Y-114635265D02*
X89992114Y-114768117D01*
D11*
X99902687Y-114006635D02*
G75*
G03*
X101948682Y-111812577I1022998J1097029D01*
G01*
D10*
X100218080Y-117482274D02*
G75*
G03*
X100658072Y-115840202I219996J821036D01*
G01*
X100258854Y-115707350D02*
G75*
G03*
X99805921Y-117397718I-226467J-845184D01*
G01*
D11*
X99916734Y-109891200D02*
G75*
G03*
X99710695Y-109730224I-1023049J-1097092D01*
G01*
X98076777Y-112246238D02*
G75*
G03*
X97870738Y-112085262I-1023050J-1097091D01*
G01*
X97482422Y-108232475D02*
G75*
G03*
X95848493Y-110748474I-816965J-1257999D01*
G01*
D10*
X89992114Y-114768116D02*
G75*
G03*
X90445047Y-113077748I226467J845184D01*
G01*
X90032888Y-112993192D02*
G75*
G03*
X89592896Y-114635264I-219996J-821036D01*
G01*
%TO.C,SW17*%
X137459854Y-125701233D02*
X137060636Y-125568381D01*
X136607703Y-127258751D02*
X137019862Y-127343307D01*
D11*
X136718517Y-119752231D02*
X138750465Y-121673608D01*
X134878559Y-122107269D02*
X136704468Y-123867668D01*
X134284204Y-118093507D02*
X136512478Y-119591255D01*
X132650275Y-120609506D02*
X134672520Y-121946293D01*
D10*
X127246829Y-122938779D02*
X126834670Y-122854223D01*
X126394678Y-124496297D02*
X126793896Y-124629149D01*
D11*
X136704469Y-123867667D02*
G75*
G03*
X138750464Y-121673609I1022998J1097029D01*
G01*
D10*
X137019862Y-127343306D02*
G75*
G03*
X137459854Y-125701234I219996J821036D01*
G01*
X137060636Y-125568382D02*
G75*
G03*
X136607703Y-127258750I-226467J-845184D01*
G01*
D11*
X136718516Y-119752232D02*
G75*
G03*
X136512477Y-119591256I-1023049J-1097092D01*
G01*
X134878559Y-122107270D02*
G75*
G03*
X134672520Y-121946294I-1023050J-1097091D01*
G01*
X134284204Y-118093507D02*
G75*
G03*
X132650275Y-120609506I-816965J-1257999D01*
G01*
D10*
X126793896Y-124629148D02*
G75*
G03*
X127246829Y-122938780I226467J845184D01*
G01*
X126834670Y-122854224D02*
G75*
G03*
X126394678Y-124496296I-219996J-821036D01*
G01*
%TO.C,SW16*%
X120086121Y-116937185D02*
X119686903Y-116804333D01*
X119233970Y-118494703D02*
X119646129Y-118579259D01*
D11*
X119344784Y-110988183D02*
X121376732Y-112909560D01*
X117504826Y-113343221D02*
X119330735Y-115103620D01*
X116910471Y-109329459D02*
X119138745Y-110827207D01*
X115276542Y-111845458D02*
X117298787Y-113182245D01*
D10*
X109873096Y-114174731D02*
X109460937Y-114090175D01*
X109020945Y-115732249D02*
X109420163Y-115865101D01*
D11*
X119330736Y-115103619D02*
G75*
G03*
X121376731Y-112909561I1022998J1097029D01*
G01*
D10*
X119646129Y-118579258D02*
G75*
G03*
X120086121Y-116937186I219996J821036D01*
G01*
X119686903Y-116804334D02*
G75*
G03*
X119233970Y-118494702I-226467J-845184D01*
G01*
D11*
X119344783Y-110988184D02*
G75*
G03*
X119138744Y-110827208I-1023049J-1097092D01*
G01*
X117504826Y-113343222D02*
G75*
G03*
X117298787Y-113182246I-1023050J-1097091D01*
G01*
X116910471Y-109329459D02*
G75*
G03*
X115276542Y-111845458I-816965J-1257999D01*
G01*
D10*
X109420163Y-115865100D02*
G75*
G03*
X109873096Y-114174732I226467J845184D01*
G01*
X109460937Y-114090176D02*
G75*
G03*
X109020945Y-115732248I-219996J-821036D01*
G01*
%TO.C,SW18*%
X155038971Y-133698534D02*
X154639753Y-133565682D01*
X154186820Y-135256052D02*
X154598979Y-135340608D01*
D11*
X154297634Y-127749532D02*
X156329582Y-129670909D01*
X152457676Y-130104570D02*
X154283585Y-131864969D01*
X151863321Y-126090808D02*
X154091595Y-127588556D01*
X150229392Y-128606807D02*
X152251637Y-129943594D01*
D10*
X144825946Y-130936080D02*
X144413787Y-130851524D01*
X143973795Y-132493598D02*
X144373013Y-132626450D01*
D11*
X154283586Y-131864968D02*
G75*
G03*
X156329581Y-129670910I1022998J1097029D01*
G01*
D10*
X154598979Y-135340607D02*
G75*
G03*
X155038971Y-133698535I219996J821036D01*
G01*
X154639753Y-133565683D02*
G75*
G03*
X154186820Y-135256051I-226467J-845184D01*
G01*
D11*
X154297633Y-127749533D02*
G75*
G03*
X154091594Y-127588557I-1023049J-1097092D01*
G01*
X152457676Y-130104571D02*
G75*
G03*
X152251637Y-129943595I-1023050J-1097091D01*
G01*
X151863321Y-126090808D02*
G75*
G03*
X150229392Y-128606807I-816965J-1257999D01*
G01*
D10*
X144373013Y-132626449D02*
G75*
G03*
X144825946Y-130936081I226467J845184D01*
G01*
X144413787Y-130851525D02*
G75*
G03*
X143973795Y-132493597I-219996J-821036D01*
G01*
%TO.C,SW19*%
X57076864Y-131280436D02*
X56677646Y-131147584D01*
X56224713Y-132837954D02*
X56636872Y-132922510D01*
D11*
X56335527Y-125331434D02*
X58367475Y-127252811D01*
X54495569Y-127686472D02*
X56321478Y-129446871D01*
X53901214Y-123672710D02*
X56129488Y-125170458D01*
X52267285Y-126188709D02*
X54289530Y-127525496D01*
D10*
X46863839Y-128517982D02*
X46451680Y-128433426D01*
X46011688Y-130075500D02*
X46410906Y-130208352D01*
D11*
X56321479Y-129446870D02*
G75*
G03*
X58367474Y-127252812I1022998J1097029D01*
G01*
D10*
X56636872Y-132922509D02*
G75*
G03*
X57076864Y-131280437I219996J821036D01*
G01*
X56677646Y-131147585D02*
G75*
G03*
X56224713Y-132837953I-226467J-845184D01*
G01*
D11*
X56335526Y-125331435D02*
G75*
G03*
X56129487Y-125170459I-1023049J-1097092D01*
G01*
X54495569Y-127686473D02*
G75*
G03*
X54289530Y-127525497I-1023050J-1097091D01*
G01*
X53901214Y-123672710D02*
G75*
G03*
X52267285Y-126188709I-816965J-1257999D01*
G01*
D10*
X46410906Y-130208351D02*
G75*
G03*
X46863839Y-128517983I226467J845184D01*
G01*
X46451680Y-128433427D02*
G75*
G03*
X46011688Y-130075499I-219996J-821036D01*
G01*
%TO.C,SW20*%
X76094039Y-133910815D02*
X75694821Y-133777963D01*
X75241888Y-135468333D02*
X75654047Y-135552889D01*
D11*
X75352702Y-127961813D02*
X77384650Y-129883190D01*
X73512744Y-130316851D02*
X75338653Y-132077250D01*
X72918389Y-126303089D02*
X75146663Y-127800837D01*
X71284460Y-128819088D02*
X73306705Y-130155875D01*
D10*
X65881014Y-131148361D02*
X65468855Y-131063805D01*
X65028863Y-132705879D02*
X65428081Y-132838731D01*
D11*
X75338654Y-132077249D02*
G75*
G03*
X77384649Y-129883191I1022998J1097029D01*
G01*
D10*
X75654047Y-135552888D02*
G75*
G03*
X76094039Y-133910816I219996J821036D01*
G01*
X75694821Y-133777964D02*
G75*
G03*
X75241888Y-135468332I-226467J-845184D01*
G01*
D11*
X75352701Y-127961814D02*
G75*
G03*
X75146662Y-127800838I-1023049J-1097092D01*
G01*
X73512744Y-130316852D02*
G75*
G03*
X73306705Y-130155876I-1023050J-1097091D01*
G01*
X72918389Y-126303089D02*
G75*
G03*
X71284460Y-128819088I-816965J-1257999D01*
G01*
D10*
X65428081Y-132838730D02*
G75*
G03*
X65881014Y-131148362I226467J845184D01*
G01*
X65468855Y-131063806D02*
G75*
G03*
X65028863Y-132705878I-219996J-821036D01*
G01*
%TO.C,SW26*%
X71163552Y-152311706D02*
X70764334Y-152178854D01*
X70311401Y-153869224D02*
X70723560Y-153953780D01*
D11*
X70422215Y-146362704D02*
X72454163Y-148284081D01*
X68582257Y-148717742D02*
X70408166Y-150478141D01*
X67987902Y-144703980D02*
X70216176Y-146201728D01*
X66353973Y-147219979D02*
X68376218Y-148556766D01*
D10*
X60950527Y-149549252D02*
X60538368Y-149464696D01*
X60098376Y-151106770D02*
X60497594Y-151239622D01*
D11*
X70408167Y-150478140D02*
G75*
G03*
X72454162Y-148284082I1022998J1097029D01*
G01*
D10*
X70723560Y-153953779D02*
G75*
G03*
X71163552Y-152311707I219996J821036D01*
G01*
X70764334Y-152178855D02*
G75*
G03*
X70311401Y-153869223I-226467J-845184D01*
G01*
D11*
X70422214Y-146362705D02*
G75*
G03*
X70216175Y-146201729I-1023049J-1097092D01*
G01*
X68582257Y-148717743D02*
G75*
G03*
X68376218Y-148556767I-1023050J-1097091D01*
G01*
X67987902Y-144703980D02*
G75*
G03*
X66353973Y-147219979I-816965J-1257999D01*
G01*
D10*
X60497594Y-151239621D02*
G75*
G03*
X60950527Y-149549253I226467J845184D01*
G01*
X60538368Y-149464697D02*
G75*
G03*
X60098376Y-151106769I-219996J-821036D01*
G01*
%TO.C,SW27*%
X90797060Y-152641966D02*
X90397842Y-152509114D01*
X89944909Y-154199484D02*
X90357068Y-154284040D01*
D11*
X90055723Y-146692964D02*
X92087671Y-148614341D01*
X88215765Y-149048002D02*
X90041674Y-150808401D01*
X87621410Y-145034240D02*
X89849684Y-146531988D01*
X85987481Y-147550239D02*
X88009726Y-148887026D01*
D10*
X80584035Y-149879512D02*
X80171876Y-149794956D01*
X79731884Y-151437030D02*
X80131102Y-151569882D01*
D11*
X90041675Y-150808400D02*
G75*
G03*
X92087670Y-148614342I1022998J1097029D01*
G01*
D10*
X90357068Y-154284039D02*
G75*
G03*
X90797060Y-152641967I219996J821036D01*
G01*
X90397842Y-152509115D02*
G75*
G03*
X89944909Y-154199483I-226467J-845184D01*
G01*
D11*
X90055722Y-146692965D02*
G75*
G03*
X89849683Y-146531989I-1023049J-1097092D01*
G01*
X88215765Y-149048003D02*
G75*
G03*
X88009726Y-148887027I-1023050J-1097091D01*
G01*
X87621410Y-145034240D02*
G75*
G03*
X85987481Y-147550239I-816965J-1257999D01*
G01*
D10*
X80131102Y-151569881D02*
G75*
G03*
X80584035Y-149879513I226467J845184D01*
G01*
X80171876Y-149794957D02*
G75*
G03*
X79731884Y-151437029I-219996J-821036D01*
G01*
%TO.C,SW28*%
X120232566Y-165459700D02*
X119833348Y-165326848D01*
X119380415Y-167017218D02*
X119792574Y-167101774D01*
D11*
X119491229Y-159510698D02*
X121523177Y-161432075D01*
X117651271Y-161865736D02*
X119477180Y-163626135D01*
X117056916Y-157851974D02*
X119285190Y-159349722D01*
X115422987Y-160367973D02*
X117445232Y-161704760D01*
D10*
X110019541Y-162697246D02*
X109607382Y-162612690D01*
X109167390Y-164254764D02*
X109566608Y-164387616D01*
D11*
X119477181Y-163626134D02*
G75*
G03*
X121523176Y-161432076I1022998J1097029D01*
G01*
D10*
X119792574Y-167101773D02*
G75*
G03*
X120232566Y-165459701I219996J821036D01*
G01*
X119833348Y-165326849D02*
G75*
G03*
X119380415Y-167017217I-226467J-845184D01*
G01*
D11*
X119491228Y-159510699D02*
G75*
G03*
X119285189Y-159349723I-1023049J-1097092D01*
G01*
X117651271Y-161865737D02*
G75*
G03*
X117445232Y-161704761I-1023050J-1097091D01*
G01*
X117056916Y-157851974D02*
G75*
G03*
X115422987Y-160367973I-816965J-1257999D01*
G01*
D10*
X109566608Y-164387615D02*
G75*
G03*
X110019541Y-162697247I226467J845184D01*
G01*
X109607382Y-162612691D02*
G75*
G03*
X109167390Y-164254763I-219996J-821036D01*
G01*
%TO.C,SW3*%
X110519074Y-79038454D02*
X110119856Y-78905602D01*
X109666923Y-80595972D02*
X110079082Y-80680528D01*
D11*
X109777737Y-73089452D02*
X111809685Y-75010829D01*
X107937779Y-75444490D02*
X109763688Y-77204889D01*
X107343424Y-71430728D02*
X109571698Y-72928476D01*
X105709495Y-73946727D02*
X107731740Y-75283514D01*
D10*
X100306049Y-76276000D02*
X99893890Y-76191444D01*
X99453898Y-77833518D02*
X99853116Y-77966370D01*
D11*
X109763689Y-77204888D02*
G75*
G03*
X111809684Y-75010830I1022998J1097029D01*
G01*
D10*
X110079082Y-80680527D02*
G75*
G03*
X110519074Y-79038455I219996J821036D01*
G01*
X110119856Y-78905603D02*
G75*
G03*
X109666923Y-80595971I-226467J-845184D01*
G01*
D11*
X109777736Y-73089453D02*
G75*
G03*
X109571697Y-72928477I-1023049J-1097092D01*
G01*
X107937779Y-75444491D02*
G75*
G03*
X107731740Y-75283515I-1023050J-1097091D01*
G01*
X107343424Y-71430728D02*
G75*
G03*
X105709495Y-73946727I-816965J-1257999D01*
G01*
D10*
X99853116Y-77966369D02*
G75*
G03*
X100306049Y-76276001I226467J845184D01*
G01*
X99893890Y-76191445D02*
G75*
G03*
X99453898Y-77833517I-219996J-821036D01*
G01*
%TO.C,SW7*%
X66937867Y-94478653D02*
X66538649Y-94345801D01*
X66085716Y-96036171D02*
X66497875Y-96120727D01*
D11*
X66196530Y-88529651D02*
X68228478Y-90451028D01*
X64356572Y-90884689D02*
X66182481Y-92645088D01*
X63762217Y-86870927D02*
X65990491Y-88368675D01*
X62128288Y-89386926D02*
X64150533Y-90723713D01*
D10*
X56724842Y-91716199D02*
X56312683Y-91631643D01*
X55872691Y-93273717D02*
X56271909Y-93406569D01*
D11*
X66182482Y-92645087D02*
G75*
G03*
X68228477Y-90451029I1022998J1097029D01*
G01*
D10*
X66497875Y-96120726D02*
G75*
G03*
X66937867Y-94478654I219996J821036D01*
G01*
X66538649Y-94345802D02*
G75*
G03*
X66085716Y-96036170I-226467J-845184D01*
G01*
D11*
X66196529Y-88529652D02*
G75*
G03*
X65990490Y-88368676I-1023049J-1097092D01*
G01*
X64356572Y-90884690D02*
G75*
G03*
X64150533Y-90723714I-1023050J-1097091D01*
G01*
X63762217Y-86870927D02*
G75*
G03*
X62128288Y-89386926I-816965J-1257999D01*
G01*
D10*
X56271909Y-93406568D02*
G75*
G03*
X56724842Y-91716200I226467J845184D01*
G01*
X56312683Y-91631644D02*
G75*
G03*
X55872691Y-93273716I-219996J-821036D01*
G01*
%TO.C,SW9*%
X105588568Y-97439310D02*
X105189350Y-97306458D01*
X104736417Y-98996828D02*
X105148576Y-99081384D01*
D11*
X104847231Y-91490308D02*
X106879179Y-93411685D01*
X103007273Y-93845346D02*
X104833182Y-95605745D01*
X102412918Y-89831584D02*
X104641192Y-91329332D01*
X100778989Y-92347583D02*
X102801234Y-93684370D01*
D10*
X95375543Y-94676856D02*
X94963384Y-94592300D01*
X94523392Y-96234374D02*
X94922610Y-96367226D01*
D11*
X104833183Y-95605744D02*
G75*
G03*
X106879178Y-93411686I1022998J1097029D01*
G01*
D10*
X105148576Y-99081383D02*
G75*
G03*
X105588568Y-97439311I219996J821036D01*
G01*
X105189350Y-97306459D02*
G75*
G03*
X104736417Y-98996827I-226467J-845184D01*
G01*
D11*
X104847230Y-91490309D02*
G75*
G03*
X104641191Y-91329333I-1023049J-1097092D01*
G01*
X103007273Y-93845347D02*
G75*
G03*
X102801234Y-93684371I-1023050J-1097091D01*
G01*
X102412918Y-89831584D02*
G75*
G03*
X100778989Y-92347583I-816965J-1257999D01*
G01*
D10*
X94922610Y-96367225D02*
G75*
G03*
X95375543Y-94676857I226467J845184D01*
G01*
X94963384Y-94592301D02*
G75*
G03*
X94523392Y-96234373I-219996J-821036D01*
G01*
%TO.C,SW5*%
X147320847Y-88899426D02*
X146921629Y-88766574D01*
X146468696Y-90456944D02*
X146880855Y-90541500D01*
D11*
X146579510Y-82950424D02*
X148611458Y-84871801D01*
X144739552Y-85305462D02*
X146565461Y-87065861D01*
X144145197Y-81291700D02*
X146373471Y-82789448D01*
X142511268Y-83807699D02*
X144533513Y-85144486D01*
D10*
X137107822Y-86136972D02*
X136695663Y-86052416D01*
X136255671Y-87694490D02*
X136654889Y-87827342D01*
D11*
X146565462Y-87065860D02*
G75*
G03*
X148611457Y-84871802I1022998J1097029D01*
G01*
D10*
X146880855Y-90541499D02*
G75*
G03*
X147320847Y-88899427I219996J821036D01*
G01*
X146921629Y-88766575D02*
G75*
G03*
X146468696Y-90456943I-226467J-845184D01*
G01*
D11*
X146579509Y-82950425D02*
G75*
G03*
X146373470Y-82789449I-1023049J-1097092D01*
G01*
X144739552Y-85305463D02*
G75*
G03*
X144533513Y-85144487I-1023050J-1097091D01*
G01*
X144145197Y-81291700D02*
G75*
G03*
X142511268Y-83807699I-816965J-1257999D01*
G01*
D10*
X136654889Y-87827341D02*
G75*
G03*
X137107822Y-86136973I226467J845184D01*
G01*
X136695663Y-86052417D02*
G75*
G03*
X136255671Y-87694489I-219996J-821036D01*
G01*
%TO.C,SW10*%
X125016642Y-98536319D02*
X124617424Y-98403467D01*
X124164491Y-100093837D02*
X124576650Y-100178393D01*
D11*
X124275305Y-92587317D02*
X126307253Y-94508694D01*
X122435347Y-94942355D02*
X124261256Y-96702754D01*
X121840992Y-90928593D02*
X124069266Y-92426341D01*
X120207063Y-93444592D02*
X122229308Y-94781379D01*
D10*
X114803617Y-95773865D02*
X114391458Y-95689309D01*
X113951466Y-97331383D02*
X114350684Y-97464235D01*
D11*
X124261257Y-96702753D02*
G75*
G03*
X126307252Y-94508695I1022998J1097029D01*
G01*
D10*
X124576650Y-100178392D02*
G75*
G03*
X125016642Y-98536320I219996J821036D01*
G01*
X124617424Y-98403468D02*
G75*
G03*
X124164491Y-100093836I-226467J-845184D01*
G01*
D11*
X124275304Y-92587318D02*
G75*
G03*
X124069265Y-92426342I-1023049J-1097092D01*
G01*
X122435347Y-94942356D02*
G75*
G03*
X122229308Y-94781380I-1023050J-1097091D01*
G01*
X121840992Y-90928593D02*
G75*
G03*
X120207063Y-93444592I-816965J-1257999D01*
G01*
D10*
X114350684Y-97464234D02*
G75*
G03*
X114803617Y-95773866I226467J845184D01*
G01*
X114391458Y-95689310D02*
G75*
G03*
X113951466Y-97331382I-219996J-821036D01*
G01*
%TO.C,SW4*%
X129947146Y-80135406D02*
X129547928Y-80002554D01*
X129094995Y-81692924D02*
X129507154Y-81777480D01*
D11*
X129205809Y-74186404D02*
X131237757Y-76107781D01*
X127365851Y-76541442D02*
X129191760Y-78301841D01*
X126771496Y-72527680D02*
X128999770Y-74025428D01*
X125137567Y-75043679D02*
X127159812Y-76380466D01*
D10*
X119734121Y-77372952D02*
X119321962Y-77288396D01*
X118881970Y-78930470D02*
X119281188Y-79063322D01*
D11*
X129191761Y-78301840D02*
G75*
G03*
X131237756Y-76107782I1022998J1097029D01*
G01*
D10*
X129507154Y-81777479D02*
G75*
G03*
X129947146Y-80135407I219996J821036D01*
G01*
X129547928Y-80002555D02*
G75*
G03*
X129094995Y-81692923I-226467J-845184D01*
G01*
D11*
X129205808Y-74186405D02*
G75*
G03*
X128999769Y-74025429I-1023049J-1097092D01*
G01*
X127365851Y-76541443D02*
G75*
G03*
X127159812Y-76380467I-1023050J-1097091D01*
G01*
X126771496Y-72527680D02*
G75*
G03*
X125137567Y-75043679I-816965J-1257999D01*
G01*
D10*
X119281188Y-79063321D02*
G75*
G03*
X119734121Y-77372953I226467J845184D01*
G01*
X119321962Y-77288397D02*
G75*
G03*
X118881970Y-78930469I-219996J-821036D01*
G01*
%TO.C,SW2*%
X90885564Y-78708153D02*
X90486346Y-78575301D01*
X90033413Y-80265671D02*
X90445572Y-80350227D01*
D11*
X90144227Y-72759151D02*
X92176175Y-74680528D01*
X88304269Y-75114189D02*
X90130178Y-76874588D01*
X87709914Y-71100427D02*
X89938188Y-72598175D01*
X86075985Y-73616426D02*
X88098230Y-74953213D01*
D10*
X80672539Y-75945699D02*
X80260380Y-75861143D01*
X79820388Y-77503217D02*
X80219606Y-77636069D01*
D11*
X90130179Y-76874587D02*
G75*
G03*
X92176174Y-74680529I1022998J1097029D01*
G01*
D10*
X90445572Y-80350226D02*
G75*
G03*
X90885564Y-78708154I219996J821036D01*
G01*
X90486346Y-78575302D02*
G75*
G03*
X90033413Y-80265670I-226467J-845184D01*
G01*
D11*
X90144226Y-72759152D02*
G75*
G03*
X89938187Y-72598176I-1023049J-1097092D01*
G01*
X88304269Y-75114190D02*
G75*
G03*
X88098230Y-74953214I-1023050J-1097091D01*
G01*
X87709914Y-71100427D02*
G75*
G03*
X86075985Y-73616426I-816965J-1257999D01*
G01*
D10*
X80219606Y-77636068D02*
G75*
G03*
X80672539Y-75945700I226467J845184D01*
G01*
X80260380Y-75861144D02*
G75*
G03*
X79820388Y-77503216I-219996J-821036D01*
G01*
%TO.C,SW8*%
X85955057Y-97109042D02*
X85555839Y-96976190D01*
X85102906Y-98666560D02*
X85515065Y-98751116D01*
D11*
X85213720Y-91160040D02*
X87245668Y-93081417D01*
X83373762Y-93515078D02*
X85199671Y-95275477D01*
X82779407Y-89501316D02*
X85007681Y-90999064D01*
X81145478Y-92017315D02*
X83167723Y-93354102D01*
D10*
X75742032Y-94346588D02*
X75329873Y-94262032D01*
X74889881Y-95904106D02*
X75289099Y-96036958D01*
D11*
X85199672Y-95275476D02*
G75*
G03*
X87245667Y-93081418I1022998J1097029D01*
G01*
D10*
X85515065Y-98751115D02*
G75*
G03*
X85955057Y-97109043I219996J821036D01*
G01*
X85555839Y-96976191D02*
G75*
G03*
X85102906Y-98666559I-226467J-845184D01*
G01*
D11*
X85213719Y-91160041D02*
G75*
G03*
X85007680Y-90999065I-1023049J-1097092D01*
G01*
X83373762Y-93515079D02*
G75*
G03*
X83167723Y-93354103I-1023050J-1097091D01*
G01*
X82779407Y-89501316D02*
G75*
G03*
X81145478Y-92017315I-816965J-1257999D01*
G01*
D10*
X75289099Y-96036957D02*
G75*
G03*
X75742032Y-94346589I226467J845184D01*
G01*
X75329873Y-94262033D02*
G75*
G03*
X74889881Y-95904105I-219996J-821036D01*
G01*
%TO.C,SW6*%
X164899980Y-96896760D02*
X164500762Y-96763908D01*
X164047829Y-98454278D02*
X164459988Y-98538834D01*
D11*
X164158643Y-90947758D02*
X166190591Y-92869135D01*
X162318685Y-93302796D02*
X164144594Y-95063195D01*
X161724330Y-89289034D02*
X163952604Y-90786782D01*
X160090401Y-91805033D02*
X162112646Y-93141820D01*
D10*
X154686955Y-94134306D02*
X154274796Y-94049750D01*
X153834804Y-95691824D02*
X154234022Y-95824676D01*
D11*
X164144595Y-95063194D02*
G75*
G03*
X166190590Y-92869136I1022998J1097029D01*
G01*
D10*
X164459988Y-98538833D02*
G75*
G03*
X164899980Y-96896761I219996J821036D01*
G01*
X164500762Y-96763909D02*
G75*
G03*
X164047829Y-98454277I-226467J-845184D01*
G01*
D11*
X164158642Y-90947759D02*
G75*
G03*
X163952603Y-90786783I-1023049J-1097092D01*
G01*
X162318685Y-93302797D02*
G75*
G03*
X162112646Y-93141821I-1023050J-1097091D01*
G01*
X161724330Y-89289034D02*
G75*
G03*
X160090401Y-91805033I-816965J-1257999D01*
G01*
D10*
X154234022Y-95824675D02*
G75*
G03*
X154686955Y-94134307I226467J845184D01*
G01*
X154274796Y-94049751D02*
G75*
G03*
X153834804Y-95691823I-219996J-821036D01*
G01*
%TO.C,SW36*%
X241725218Y-94049764D02*
X241313059Y-94134320D01*
X241765992Y-95824690D02*
X242165210Y-95691838D01*
D11*
X238108700Y-89268447D02*
X240829107Y-89916434D01*
X237692769Y-92227948D02*
X240154252Y-92839544D01*
X235171161Y-89049106D02*
X237849777Y-89232057D01*
X235014136Y-92044989D02*
X237433846Y-92191558D01*
D10*
X231499252Y-96763922D02*
X231100034Y-96896774D01*
X231540026Y-98538848D02*
X231952185Y-98454292D01*
D11*
X240154252Y-92839543D02*
G75*
G03*
X240829107Y-89916435I337428J1461554D01*
G01*
D10*
X242165210Y-95691837D02*
G75*
G03*
X241725218Y-94049765I-219996J821036D01*
G01*
X241313059Y-94134321D02*
G75*
G03*
X241765992Y-95824689I226466J-845184D01*
G01*
D11*
X238108700Y-89268448D02*
G75*
G03*
X237849777Y-89232058I-337441J-1461634D01*
G01*
X237692769Y-92227948D02*
G75*
G03*
X237433846Y-92191558I-337442J-1461634D01*
G01*
X235171161Y-89049105D02*
G75*
G03*
X235014136Y-92044989I-78512J-1497942D01*
G01*
D10*
X231952185Y-98454291D02*
G75*
G03*
X231499252Y-96763923I-226466J845184D01*
G01*
X231100034Y-96896775D02*
G75*
G03*
X231540026Y-98538847I219996J-821036D01*
G01*
%TO.C,D61*%
X170784662Y-184765596D02*
X172284662Y-182167520D01*
X173168989Y-182735821D02*
X174208219Y-183335821D01*
X171718989Y-185247295D02*
X172758219Y-185847295D01*
X175142546Y-183817520D02*
X173642546Y-186415596D01*
X173150688Y-182667520D02*
G75*
G03*
X172284662Y-182167520I-433013J250000D01*
G01*
X170784663Y-184765597D02*
G75*
G03*
X171650687Y-185265596I433012J-249999D01*
G01*
X171718989Y-185247295D02*
G75*
G03*
X171650687Y-185265596I-25000J-43302D01*
G01*
X173150688Y-182667521D02*
G75*
G03*
X173168989Y-182735821I43302J-24999D01*
G01*
X172776520Y-185915595D02*
G75*
G03*
X172758219Y-185847296I-43301J24999D01*
G01*
X174208219Y-183335821D02*
G75*
G03*
X174276520Y-183317520I25000J43301D01*
G01*
X175142545Y-183817519D02*
G75*
G03*
X174276521Y-183317520I-433012J249999D01*
G01*
X172776520Y-185915596D02*
G75*
G03*
X173642546Y-186415596I433013J-250000D01*
G01*
%TO.C,SW62*%
X203499994Y-185150026D02*
X203079994Y-185125026D01*
X203079994Y-186875026D02*
X203499994Y-186850026D01*
D11*
X201244202Y-179595604D02*
X203704202Y-180925605D01*
X200076468Y-182346612D02*
X202295786Y-183574447D01*
X198463527Y-178623446D02*
X201003520Y-179493440D01*
X197536461Y-181476606D02*
X199835786Y-182244448D01*
D10*
X192919994Y-185125026D02*
X192499994Y-185150026D01*
X192499994Y-186850026D02*
X192919994Y-186875026D01*
D11*
X202295786Y-183574446D02*
G75*
G03*
X203704202Y-180925606I704208J1324420D01*
G01*
D10*
X203499994Y-186850026D02*
G75*
G03*
X203499994Y-185150026I0J850000D01*
G01*
X203079994Y-185125026D02*
G75*
G03*
X203079994Y-186875026I0J-875000D01*
G01*
D11*
X201244202Y-179595605D02*
G75*
G03*
X201003520Y-179493441I-704242J-1324494D01*
G01*
X200076468Y-182346612D02*
G75*
G03*
X199835786Y-182244448I-704242J-1324494D01*
G01*
X198463527Y-178623447D02*
G75*
G03*
X197536461Y-181476605I-463533J-1426579D01*
G01*
D10*
X192919994Y-186875026D02*
G75*
G03*
X192919994Y-185125026I0J875000D01*
G01*
X192499994Y-185150026D02*
G75*
G03*
X192499994Y-186850026I0J-850000D01*
G01*
%TO.C,SW58*%
X286392617Y-162612694D02*
X285980458Y-162697250D01*
X286433391Y-164387620D02*
X286832609Y-164254768D01*
D11*
X282776099Y-157831377D02*
X285496506Y-158479364D01*
X282360168Y-160790878D02*
X284821651Y-161402474D01*
X279838560Y-157612036D02*
X282517176Y-157794987D01*
X279681535Y-160607919D02*
X282101245Y-160754488D01*
D10*
X276166651Y-165326852D02*
X275767433Y-165459704D01*
X276207425Y-167101778D02*
X276619584Y-167017222D01*
D11*
X284821651Y-161402473D02*
G75*
G03*
X285496506Y-158479365I337428J1461554D01*
G01*
D10*
X286832609Y-164254767D02*
G75*
G03*
X286392617Y-162612695I-219996J821036D01*
G01*
X285980458Y-162697251D02*
G75*
G03*
X286433391Y-164387619I226466J-845184D01*
G01*
D11*
X282776099Y-157831378D02*
G75*
G03*
X282517176Y-157794988I-337441J-1461634D01*
G01*
X282360168Y-160790878D02*
G75*
G03*
X282101245Y-160754488I-337442J-1461634D01*
G01*
X279838560Y-157612035D02*
G75*
G03*
X279681535Y-160607919I-78512J-1497942D01*
G01*
D10*
X276619584Y-167017221D02*
G75*
G03*
X276166651Y-165326853I-226466J845184D01*
G01*
X275767433Y-165459705D02*
G75*
G03*
X276207425Y-167101777I219996J-821036D01*
G01*
%TO.C,D54*%
X253923769Y-154450644D02*
X254700226Y-157348421D01*
X253673063Y-157571885D02*
X252513952Y-157882468D01*
X252922488Y-154770700D02*
X251763377Y-155081283D01*
X251512671Y-158202524D02*
X250736214Y-155304747D01*
X253734300Y-157607240D02*
G75*
G03*
X254700226Y-157348421I482963J129409D01*
G01*
X253923769Y-154450644D02*
G75*
G03*
X252957843Y-154709463I-482963J-129409D01*
G01*
X252922488Y-154770699D02*
G75*
G03*
X252957843Y-154709463I-12942J48296D01*
G01*
X253734300Y-157607240D02*
G75*
G03*
X253673063Y-157571885I-48297J-12943D01*
G01*
X251702141Y-155045928D02*
G75*
G03*
X251763377Y-155081282I48295J12941D01*
G01*
X252513952Y-157882469D02*
G75*
G03*
X252478598Y-157943705I12941J-48295D01*
G01*
X251512671Y-158202524D02*
G75*
G03*
X252478597Y-157943705I482963J129409D01*
G01*
X251702140Y-155045928D02*
G75*
G03*
X250736214Y-155304747I-482963J-129409D01*
G01*
%TO.C,D65*%
X189816905Y-127555953D02*
X188668855Y-124784314D01*
X189658062Y-124428691D02*
X190766718Y-123969471D01*
X190767844Y-127107941D02*
X191876500Y-126648721D01*
X191717657Y-123521459D02*
X192865707Y-126293098D01*
X189592733Y-124401632D02*
G75*
G03*
X188668855Y-124784314I-461939J-191341D01*
G01*
X189816906Y-127555952D02*
G75*
G03*
X190740784Y-127173270I461939J191341D01*
G01*
X190767844Y-127107942D02*
G75*
G03*
X190740785Y-127173270I19136J-46194D01*
G01*
X189592735Y-124401631D02*
G75*
G03*
X189658062Y-124428691I46194J19136D01*
G01*
X191941827Y-126675781D02*
G75*
G03*
X191876500Y-126648722I-46193J-19134D01*
G01*
X190766718Y-123969471D02*
G75*
G03*
X190793778Y-123904142I-19134J46194D01*
G01*
X191717656Y-123521460D02*
G75*
G03*
X190793778Y-123904142I-461939J-191341D01*
G01*
X191941829Y-126675780D02*
G75*
G03*
X192865707Y-126293098I461939J191341D01*
G01*
%TO.C,SW51*%
X310897632Y-131394108D02*
X310485473Y-131478664D01*
X310938406Y-133169034D02*
X311337624Y-133036182D01*
D11*
X307281114Y-126612791D02*
X310001521Y-127260778D01*
X306865183Y-129572292D02*
X309326666Y-130183888D01*
X304343575Y-126393450D02*
X307022191Y-126576401D01*
X304186550Y-129389333D02*
X306606260Y-129535902D01*
D10*
X300671666Y-134108266D02*
X300272448Y-134241118D01*
X300712440Y-135883192D02*
X301124599Y-135798636D01*
D11*
X309326666Y-130183887D02*
G75*
G03*
X310001521Y-127260779I337428J1461554D01*
G01*
D10*
X311337624Y-133036181D02*
G75*
G03*
X310897632Y-131394109I-219996J821036D01*
G01*
X310485473Y-131478665D02*
G75*
G03*
X310938406Y-133169033I226466J-845184D01*
G01*
D11*
X307281114Y-126612792D02*
G75*
G03*
X307022191Y-126576402I-337441J-1461634D01*
G01*
X306865183Y-129572292D02*
G75*
G03*
X306606260Y-129535902I-337442J-1461634D01*
G01*
X304343575Y-126393449D02*
G75*
G03*
X304186550Y-129389333I-78512J-1497942D01*
G01*
D10*
X301124599Y-135798635D02*
G75*
G03*
X300671666Y-134108267I-226466J845184D01*
G01*
X300272448Y-134241119D02*
G75*
G03*
X300712440Y-135883191I219996J-821036D01*
G01*
%TO.C,D27*%
X81988370Y-157890966D02*
X82764827Y-154993189D01*
X83766108Y-155313245D02*
X84925219Y-155623828D01*
X83015533Y-158114430D02*
X84174644Y-158425013D01*
X85952382Y-155847292D02*
X85175925Y-158745069D01*
X83730752Y-155252008D02*
G75*
G03*
X82764828Y-154993189I-482962J129410D01*
G01*
X81988371Y-157890966D02*
G75*
G03*
X82954295Y-158149785I482962J-129410D01*
G01*
X83015533Y-158114430D02*
G75*
G03*
X82954296Y-158149785I-12940J-48298D01*
G01*
X83730753Y-155252008D02*
G75*
G03*
X83766108Y-155313244I48297J-12940D01*
G01*
X84209998Y-158486250D02*
G75*
G03*
X84174644Y-158425014I-48295J12941D01*
G01*
X84925219Y-155623827D02*
G75*
G03*
X84986455Y-155588473I12941J48295D01*
G01*
X85952381Y-155847292D02*
G75*
G03*
X84986457Y-155588473I-482962J129410D01*
G01*
X84210000Y-158486250D02*
G75*
G03*
X85175924Y-158745069I482962J-129410D01*
G01*
%TO.C,SW39*%
X301036628Y-94592324D02*
X300624469Y-94676880D01*
X301077402Y-96367250D02*
X301476620Y-96234398D01*
D11*
X297420110Y-89811007D02*
X300140517Y-90458994D01*
X297004179Y-92770508D02*
X299465662Y-93382104D01*
X294482571Y-89591666D02*
X297161187Y-89774617D01*
X294325546Y-92587549D02*
X296745256Y-92734118D01*
D10*
X290810662Y-97306482D02*
X290411444Y-97439334D01*
X290851436Y-99081408D02*
X291263595Y-98996852D01*
D11*
X299465662Y-93382103D02*
G75*
G03*
X300140517Y-90458995I337428J1461554D01*
G01*
D10*
X301476620Y-96234397D02*
G75*
G03*
X301036628Y-94592325I-219996J821036D01*
G01*
X300624469Y-94676881D02*
G75*
G03*
X301077402Y-96367249I226466J-845184D01*
G01*
D11*
X297420110Y-89811008D02*
G75*
G03*
X297161187Y-89774618I-337441J-1461634D01*
G01*
X297004179Y-92770508D02*
G75*
G03*
X296745256Y-92734118I-337442J-1461634D01*
G01*
X294482571Y-89591665D02*
G75*
G03*
X294325546Y-92587549I-78512J-1497942D01*
G01*
D10*
X291263595Y-98996851D02*
G75*
G03*
X290810662Y-97306483I-226466J845184D01*
G01*
X290411444Y-97439335D02*
G75*
G03*
X290851436Y-99081407I219996J-821036D01*
G01*
%TO.C,SW63*%
X224874522Y-176475304D02*
X224498291Y-176663654D01*
X225373291Y-178179198D02*
X225724522Y-177947548D01*
D11*
X220143738Y-172792930D02*
X222939161Y-172714745D01*
X220507954Y-175759240D02*
X223043858Y-175712917D01*
X217249523Y-173341354D02*
X219884219Y-172824794D01*
X217873241Y-176275796D02*
X220248436Y-175791104D01*
D10*
X215699473Y-181743654D02*
X215348242Y-181975304D01*
X216198242Y-183447548D02*
X216574473Y-183259198D01*
D11*
X223043858Y-175712916D02*
G75*
G03*
X222939161Y-172714746I-52349J1499085D01*
G01*
D10*
X225724522Y-177947548D02*
G75*
G03*
X224874522Y-176475304I-425000J736122D01*
G01*
X224498291Y-176663655D02*
G75*
G03*
X225373291Y-178179197I437500J-757771D01*
G01*
D11*
X220143738Y-172792931D02*
G75*
G03*
X219884219Y-172824795I52356J-1499166D01*
G01*
X220507954Y-175759240D02*
G75*
G03*
X220248436Y-175791104I52356J-1499166D01*
G01*
X217249523Y-173341355D02*
G75*
G03*
X217873241Y-176275795I311859J-1467220D01*
G01*
D10*
X216574473Y-183259197D02*
G75*
G03*
X215699473Y-181743655I-437500J757771D01*
G01*
X215348242Y-181975304D02*
G75*
G03*
X216198242Y-183447548I425000J-736122D01*
G01*
%TO.C,D32*%
X310735589Y-84811268D02*
X309959132Y-81913491D01*
X310986295Y-81690027D02*
X312145406Y-81379444D01*
X311736870Y-84491212D02*
X312895981Y-84180629D01*
X313146687Y-81059388D02*
X313923144Y-83957165D01*
X310925058Y-81654672D02*
G75*
G03*
X309959132Y-81913491I-482963J-129409D01*
G01*
X310735589Y-84811268D02*
G75*
G03*
X311701515Y-84552449I482963J129409D01*
G01*
X311736870Y-84491213D02*
G75*
G03*
X311701515Y-84552449I12942J-48296D01*
G01*
X310925058Y-81654672D02*
G75*
G03*
X310986295Y-81690027I48297J12943D01*
G01*
X312957217Y-84215984D02*
G75*
G03*
X312895981Y-84180630I-48295J-12941D01*
G01*
X312145406Y-81379443D02*
G75*
G03*
X312180760Y-81318207I-12941J48295D01*
G01*
X313146687Y-81059388D02*
G75*
G03*
X312180761Y-81318207I-482963J-129409D01*
G01*
X312957218Y-84215984D02*
G75*
G03*
X313923144Y-83957165I482963J129409D01*
G01*
%TO.C,SW61*%
X180651741Y-181975306D02*
X180300510Y-181743656D01*
X179425510Y-183259200D02*
X179801741Y-183447550D01*
D11*
X181475379Y-176037140D02*
X182940801Y-178418955D01*
X179088587Y-177835716D02*
X180396656Y-180008711D01*
X179553322Y-173804889D02*
X181318024Y-175828322D01*
X177323880Y-175812265D02*
X178931233Y-177626898D01*
D10*
X171501692Y-176663656D02*
X171125461Y-176475306D01*
X170275461Y-177947550D02*
X170626692Y-178179200D01*
D11*
X180396655Y-180008711D02*
G75*
G03*
X182940801Y-178418955I1272073J794878D01*
G01*
D10*
X179801741Y-183447550D02*
G75*
G03*
X180651741Y-181975306I425000J736122D01*
G01*
X180300510Y-181743657D02*
G75*
G03*
X179425510Y-183259199I-437500J-757771D01*
G01*
D11*
X181475377Y-176037141D02*
G75*
G03*
X181318022Y-175828323I-1272137J-794924D01*
G01*
X179088587Y-177835716D02*
G75*
G03*
X178931233Y-177626898I-1272138J-794924D01*
G01*
X179553322Y-173804889D02*
G75*
G03*
X177323880Y-175812265I-1114721J-1003688D01*
G01*
D10*
X170626692Y-178179199D02*
G75*
G03*
X171501692Y-176663657I437500J757771D01*
G01*
X171125461Y-176475306D02*
G75*
G03*
X170275461Y-177947550I-425000J-736122D01*
G01*
%TO.C,SW48*%
X251586213Y-130851520D02*
X251174054Y-130936076D01*
X251626987Y-132626446D02*
X252026205Y-132493594D01*
D11*
X247969695Y-126070203D02*
X250690102Y-126718190D01*
X247553764Y-129029704D02*
X250015247Y-129641300D01*
X245032156Y-125850862D02*
X247710772Y-126033813D01*
X244875131Y-128846745D02*
X247294841Y-128993314D01*
D10*
X241360247Y-133565678D02*
X240961029Y-133698530D01*
X241401021Y-135340604D02*
X241813180Y-135256048D01*
D11*
X250015247Y-129641299D02*
G75*
G03*
X250690102Y-126718191I337428J1461554D01*
G01*
D10*
X252026205Y-132493593D02*
G75*
G03*
X251586213Y-130851521I-219996J821036D01*
G01*
X251174054Y-130936077D02*
G75*
G03*
X251626987Y-132626445I226466J-845184D01*
G01*
D11*
X247969695Y-126070204D02*
G75*
G03*
X247710772Y-126033814I-337441J-1461634D01*
G01*
X247553764Y-129029704D02*
G75*
G03*
X247294841Y-128993314I-337442J-1461634D01*
G01*
X245032156Y-125850861D02*
G75*
G03*
X244875131Y-128846745I-78512J-1497942D01*
G01*
D10*
X241813180Y-135256047D02*
G75*
G03*
X241360247Y-133565679I-226466J845184D01*
G01*
X240961029Y-133698531D02*
G75*
G03*
X241401021Y-135340603I219996J-821036D01*
G01*
%TO.C,D72*%
X203134290Y-126293096D02*
X204282340Y-123521457D01*
X205233279Y-123969469D02*
X206341935Y-124428689D01*
X204123497Y-126648719D02*
X205232153Y-127107939D01*
X207331142Y-124784312D02*
X206183092Y-127555951D01*
X205206220Y-123904140D02*
G75*
G03*
X204282340Y-123521457I-461940J191341D01*
G01*
X203134289Y-126293096D02*
G75*
G03*
X204058169Y-126675779I461940J-191341D01*
G01*
X204123497Y-126648719D02*
G75*
G03*
X204058170Y-126675779I-19133J-46196D01*
G01*
X205206220Y-123904140D02*
G75*
G03*
X205233279Y-123969468I46195J-19134D01*
G01*
X205259212Y-127173267D02*
G75*
G03*
X205232153Y-127107940I-46193J19134D01*
G01*
X206341935Y-124428688D02*
G75*
G03*
X206407262Y-124401629I19134J46193D01*
G01*
X207331143Y-124784312D02*
G75*
G03*
X206407263Y-124401629I-461940J191341D01*
G01*
X205259212Y-127173268D02*
G75*
G03*
X206183092Y-127555951I461940J-191341D01*
G01*
%TO.C,D3*%
X101710384Y-84287447D02*
X102486841Y-81389670D01*
X103488122Y-81709726D02*
X104647233Y-82020309D01*
X102737547Y-84510911D02*
X103896658Y-84821494D01*
X105674396Y-82243773D02*
X104897939Y-85141550D01*
X103452766Y-81648489D02*
G75*
G03*
X102486842Y-81389670I-482962J129410D01*
G01*
X101710385Y-84287447D02*
G75*
G03*
X102676309Y-84546266I482962J-129410D01*
G01*
X102737547Y-84510911D02*
G75*
G03*
X102676310Y-84546266I-12940J-48298D01*
G01*
X103452767Y-81648489D02*
G75*
G03*
X103488122Y-81709725I48297J-12940D01*
G01*
X103932012Y-84882731D02*
G75*
G03*
X103896658Y-84821495I-48295J12941D01*
G01*
X104647233Y-82020308D02*
G75*
G03*
X104708469Y-81984954I12941J48295D01*
G01*
X105674395Y-82243773D02*
G75*
G03*
X104708471Y-81984954I-482962J129410D01*
G01*
X103932014Y-84882731D02*
G75*
G03*
X104897938Y-85141550I482962J-129410D01*
G01*
%TO.C,D53*%
X271502903Y-146453336D02*
X272279360Y-149351113D01*
X271252197Y-149574577D02*
X270093086Y-149885160D01*
X270501622Y-146773392D02*
X269342511Y-147083975D01*
X269091805Y-150205216D02*
X268315348Y-147307439D01*
X271313434Y-149609932D02*
G75*
G03*
X272279360Y-149351113I482963J129409D01*
G01*
X271502903Y-146453336D02*
G75*
G03*
X270536977Y-146712155I-482963J-129409D01*
G01*
X270501622Y-146773391D02*
G75*
G03*
X270536977Y-146712155I-12942J48296D01*
G01*
X271313434Y-149609932D02*
G75*
G03*
X271252197Y-149574577I-48297J-12943D01*
G01*
X269281275Y-147048620D02*
G75*
G03*
X269342511Y-147083974I48295J12941D01*
G01*
X270093086Y-149885161D02*
G75*
G03*
X270057732Y-149946397I12941J-48295D01*
G01*
X269091805Y-150205216D02*
G75*
G03*
X270057731Y-149946397I482963J129409D01*
G01*
X269281274Y-147048620D02*
G75*
G03*
X268315348Y-147307439I-482963J-129409D01*
G01*
%TO.C,D2*%
X82076876Y-83957149D02*
X82853333Y-81059372D01*
X83854614Y-81379428D02*
X85013725Y-81690011D01*
X83104039Y-84180613D02*
X84263150Y-84491196D01*
X86040888Y-81913475D02*
X85264431Y-84811252D01*
X83819258Y-81318191D02*
G75*
G03*
X82853334Y-81059372I-482962J129410D01*
G01*
X82076877Y-83957149D02*
G75*
G03*
X83042801Y-84215968I482962J-129410D01*
G01*
X83104039Y-84180613D02*
G75*
G03*
X83042802Y-84215968I-12940J-48298D01*
G01*
X83819259Y-81318191D02*
G75*
G03*
X83854614Y-81379427I48297J-12940D01*
G01*
X84298504Y-84552433D02*
G75*
G03*
X84263150Y-84491197I-48295J12941D01*
G01*
X85013725Y-81690010D02*
G75*
G03*
X85074961Y-81654656I12941J48295D01*
G01*
X86040887Y-81913475D02*
G75*
G03*
X85074963Y-81654656I-482962J129410D01*
G01*
X84298506Y-84552433D02*
G75*
G03*
X85264430Y-84811252I482962J-129410D01*
G01*
%TO.C,D18*%
X146230285Y-138947533D02*
X147006742Y-136049756D01*
X148008023Y-136369812D02*
X149167134Y-136680395D01*
X147257448Y-139170997D02*
X148416559Y-139481580D01*
X150194297Y-136903859D02*
X149417840Y-139801636D01*
X147972667Y-136308575D02*
G75*
G03*
X147006743Y-136049756I-482962J129410D01*
G01*
X146230286Y-138947533D02*
G75*
G03*
X147196210Y-139206352I482962J-129410D01*
G01*
X147257448Y-139170997D02*
G75*
G03*
X147196211Y-139206352I-12940J-48298D01*
G01*
X147972668Y-136308575D02*
G75*
G03*
X148008023Y-136369811I48297J-12940D01*
G01*
X148451913Y-139542817D02*
G75*
G03*
X148416559Y-139481581I-48295J12941D01*
G01*
X149167134Y-136680394D02*
G75*
G03*
X149228370Y-136645040I12941J48295D01*
G01*
X150194296Y-136903859D02*
G75*
G03*
X149228372Y-136645040I-482962J129410D01*
G01*
X148451915Y-139542817D02*
G75*
G03*
X149417839Y-139801636I482962J-129410D01*
G01*
%TO.C,SW49*%
X349548333Y-128433419D02*
X349136174Y-128517975D01*
X349589107Y-130208345D02*
X349988325Y-130075493D01*
D11*
X345931815Y-123652102D02*
X348652222Y-124300089D01*
X345515884Y-126611603D02*
X347977367Y-127223199D01*
X342994276Y-123432761D02*
X345672892Y-123615712D01*
X342837251Y-126428644D02*
X345256961Y-126575213D01*
D10*
X339322367Y-131147577D02*
X338923149Y-131280429D01*
X339363141Y-132922503D02*
X339775300Y-132837947D01*
D11*
X347977367Y-127223198D02*
G75*
G03*
X348652222Y-124300090I337428J1461554D01*
G01*
D10*
X349988325Y-130075492D02*
G75*
G03*
X349548333Y-128433420I-219996J821036D01*
G01*
X349136174Y-128517976D02*
G75*
G03*
X349589107Y-130208344I226466J-845184D01*
G01*
D11*
X345931815Y-123652103D02*
G75*
G03*
X345672892Y-123615713I-337441J-1461634D01*
G01*
X345515884Y-126611603D02*
G75*
G03*
X345256961Y-126575213I-337442J-1461634D01*
G01*
X342994276Y-123432760D02*
G75*
G03*
X342837251Y-126428644I-78512J-1497942D01*
G01*
D10*
X339775300Y-132837946D02*
G75*
G03*
X339322367Y-131147578I-226466J845184D01*
G01*
X338923149Y-131280430D02*
G75*
G03*
X339363141Y-132922502I219996J-821036D01*
G01*
%TO.C,D50*%
X327938198Y-136262040D02*
X328714655Y-139159817D01*
X327687492Y-139383281D02*
X326528381Y-139693864D01*
X326936917Y-136582096D02*
X325777806Y-136892679D01*
X325527100Y-140013920D02*
X324750643Y-137116143D01*
X327748729Y-139418636D02*
G75*
G03*
X328714655Y-139159817I482963J129409D01*
G01*
X327938198Y-136262040D02*
G75*
G03*
X326972272Y-136520859I-482963J-129409D01*
G01*
X326936917Y-136582095D02*
G75*
G03*
X326972272Y-136520859I-12942J48296D01*
G01*
X327748729Y-139418636D02*
G75*
G03*
X327687492Y-139383281I-48297J-12943D01*
G01*
X325716570Y-136857324D02*
G75*
G03*
X325777806Y-136892678I48295J12941D01*
G01*
X326528381Y-139693865D02*
G75*
G03*
X326493027Y-139755101I12941J-48295D01*
G01*
X325527100Y-140013920D02*
G75*
G03*
X326493026Y-139755101I482963J129409D01*
G01*
X325716569Y-136857324D02*
G75*
G03*
X324750643Y-137116143I-482963J-129409D01*
G01*
%TO.C,D28*%
X111423873Y-170708703D02*
X112200330Y-167810926D01*
X113201611Y-168130982D02*
X114360722Y-168441565D01*
X112451036Y-170932167D02*
X113610147Y-171242750D01*
X115387885Y-168665029D02*
X114611428Y-171562806D01*
X113166255Y-168069745D02*
G75*
G03*
X112200331Y-167810926I-482962J129410D01*
G01*
X111423874Y-170708703D02*
G75*
G03*
X112389798Y-170967522I482962J-129410D01*
G01*
X112451036Y-170932167D02*
G75*
G03*
X112389799Y-170967522I-12940J-48298D01*
G01*
X113166256Y-168069745D02*
G75*
G03*
X113201611Y-168130981I48297J-12940D01*
G01*
X113645501Y-171303987D02*
G75*
G03*
X113610147Y-171242751I-48295J12941D01*
G01*
X114360722Y-168441564D02*
G75*
G03*
X114421958Y-168406210I12941J48295D01*
G01*
X115387884Y-168665029D02*
G75*
G03*
X114421960Y-168406210I-482962J129410D01*
G01*
X113645503Y-171303987D02*
G75*
G03*
X114611427Y-171562806I482962J-129410D01*
G01*
%TO.C,D55*%
X349474785Y-155784413D02*
X348698328Y-152886636D01*
X349725491Y-152663172D02*
X350884602Y-152352589D01*
X350476066Y-155464357D02*
X351635177Y-155153774D01*
X351885883Y-152032533D02*
X352662340Y-154930310D01*
X349664254Y-152627817D02*
G75*
G03*
X348698328Y-152886636I-482963J-129409D01*
G01*
X349474785Y-155784413D02*
G75*
G03*
X350440711Y-155525594I482963J129409D01*
G01*
X350476066Y-155464358D02*
G75*
G03*
X350440711Y-155525594I12942J-48296D01*
G01*
X349664254Y-152627817D02*
G75*
G03*
X349725491Y-152663172I48297J12943D01*
G01*
X351696413Y-155189129D02*
G75*
G03*
X351635177Y-155153775I-48295J-12941D01*
G01*
X350884602Y-152352588D02*
G75*
G03*
X350919956Y-152291352I-12941J48295D01*
G01*
X351885883Y-152032533D02*
G75*
G03*
X350919957Y-152291352I-482963J-129409D01*
G01*
X351696414Y-155189129D02*
G75*
G03*
X352662340Y-154930310I482963J129409D01*
G01*
%TO.C,D31*%
X329752782Y-82180863D02*
X328976325Y-79283086D01*
X330003488Y-79059622D02*
X331162599Y-78749039D01*
X330754063Y-81860807D02*
X331913174Y-81550224D01*
X332163880Y-78428983D02*
X332940337Y-81326760D01*
X329942251Y-79024267D02*
G75*
G03*
X328976325Y-79283086I-482963J-129409D01*
G01*
X329752782Y-82180863D02*
G75*
G03*
X330718708Y-81922044I482963J129409D01*
G01*
X330754063Y-81860808D02*
G75*
G03*
X330718708Y-81922044I12942J-48296D01*
G01*
X329942251Y-79024267D02*
G75*
G03*
X330003488Y-79059622I48297J12943D01*
G01*
X331974410Y-81585579D02*
G75*
G03*
X331913174Y-81550225I-48295J-12941D01*
G01*
X331162599Y-78749038D02*
G75*
G03*
X331197953Y-78687802I-12941J48295D01*
G01*
X332163880Y-78428983D02*
G75*
G03*
X331197954Y-78687802I-482963J-129409D01*
G01*
X331974411Y-81585579D02*
G75*
G03*
X332940337Y-81326760I482963J129409D01*
G01*
%TO.C,D45*%
X300963073Y-121943316D02*
X300186616Y-119045539D01*
X301213779Y-118822075D02*
X302372890Y-118511492D01*
X301964354Y-121623260D02*
X303123465Y-121312677D01*
X303374171Y-118191436D02*
X304150628Y-121089213D01*
X301152542Y-118786720D02*
G75*
G03*
X300186616Y-119045539I-482963J-129409D01*
G01*
X300963073Y-121943316D02*
G75*
G03*
X301928999Y-121684497I482963J129409D01*
G01*
X301964354Y-121623261D02*
G75*
G03*
X301928999Y-121684497I12942J-48296D01*
G01*
X301152542Y-118786720D02*
G75*
G03*
X301213779Y-118822075I48297J12943D01*
G01*
X303184701Y-121348032D02*
G75*
G03*
X303123465Y-121312678I-48295J-12941D01*
G01*
X302372890Y-118511491D02*
G75*
G03*
X302408244Y-118450255I-12941J48295D01*
G01*
X303374171Y-118191436D02*
G75*
G03*
X302408245Y-118450255I-482963J-129409D01*
G01*
X303184702Y-121348032D02*
G75*
G03*
X304150628Y-121089213I482963J129409D01*
G01*
%TO.C,SW47*%
X269165363Y-122854217D02*
X268753204Y-122938773D01*
X269206137Y-124629143D02*
X269605355Y-124496291D01*
D11*
X265548845Y-118072900D02*
X268269252Y-118720887D01*
X265132914Y-121032401D02*
X267594397Y-121643997D01*
X262611306Y-117853559D02*
X265289922Y-118036510D01*
X262454281Y-120849442D02*
X264873991Y-120996011D01*
D10*
X258939397Y-125568375D02*
X258540179Y-125701227D01*
X258980171Y-127343301D02*
X259392330Y-127258745D01*
D11*
X267594397Y-121643996D02*
G75*
G03*
X268269252Y-118720888I337428J1461554D01*
G01*
D10*
X269605355Y-124496290D02*
G75*
G03*
X269165363Y-122854218I-219996J821036D01*
G01*
X268753204Y-122938774D02*
G75*
G03*
X269206137Y-124629142I226466J-845184D01*
G01*
D11*
X265548845Y-118072901D02*
G75*
G03*
X265289922Y-118036511I-337441J-1461634D01*
G01*
X265132914Y-121032401D02*
G75*
G03*
X264873991Y-120996011I-337442J-1461634D01*
G01*
X262611306Y-117853558D02*
G75*
G03*
X262454281Y-120849442I-78512J-1497942D01*
G01*
D10*
X259392330Y-127258744D02*
G75*
G03*
X258939397Y-125568376I-226466J845184D01*
G01*
X258540179Y-125701228D02*
G75*
G03*
X258980171Y-127343300I219996J-821036D01*
G01*
%TO.C,D43*%
X339613785Y-118982630D02*
X338837328Y-116084853D01*
X339864491Y-115861389D02*
X341023602Y-115550806D01*
X340615066Y-118662574D02*
X341774177Y-118351991D01*
X342024883Y-115230750D02*
X342801340Y-118128527D01*
X339803254Y-115826034D02*
G75*
G03*
X338837328Y-116084853I-482963J-129409D01*
G01*
X339613785Y-118982630D02*
G75*
G03*
X340579711Y-118723811I482963J129409D01*
G01*
X340615066Y-118662575D02*
G75*
G03*
X340579711Y-118723811I12942J-48296D01*
G01*
X339803254Y-115826034D02*
G75*
G03*
X339864491Y-115861389I48297J12943D01*
G01*
X341835413Y-118387346D02*
G75*
G03*
X341774177Y-118351992I-48295J-12941D01*
G01*
X341023602Y-115550805D02*
G75*
G03*
X341058956Y-115489569I-12941J48295D01*
G01*
X342024883Y-115230750D02*
G75*
G03*
X341058957Y-115489569I-482963J-129409D01*
G01*
X341835414Y-118387346D02*
G75*
G03*
X342801340Y-118128527I482963J129409D01*
G01*
%TO.C,SW57*%
X315828129Y-149794984D02*
X315415970Y-149879540D01*
X315868903Y-151569910D02*
X316268121Y-151437058D01*
D11*
X312211611Y-145013667D02*
X314932018Y-145661654D01*
X311795680Y-147973168D02*
X314257163Y-148584764D01*
X309274072Y-144794326D02*
X311952688Y-144977277D01*
X309117047Y-147790209D02*
X311536757Y-147936778D01*
D10*
X305602163Y-152509142D02*
X305202945Y-152641994D01*
X305642937Y-154284068D02*
X306055096Y-154199512D01*
D11*
X314257163Y-148584763D02*
G75*
G03*
X314932018Y-145661655I337428J1461554D01*
G01*
D10*
X316268121Y-151437057D02*
G75*
G03*
X315828129Y-149794985I-219996J821036D01*
G01*
X315415970Y-149879541D02*
G75*
G03*
X315868903Y-151569909I226466J-845184D01*
G01*
D11*
X312211611Y-145013668D02*
G75*
G03*
X311952688Y-144977278I-337441J-1461634D01*
G01*
X311795680Y-147973168D02*
G75*
G03*
X311536757Y-147936778I-337442J-1461634D01*
G01*
X309274072Y-144794325D02*
G75*
G03*
X309117047Y-147790209I-78512J-1497942D01*
G01*
D10*
X306055096Y-154199511D02*
G75*
G03*
X305602163Y-152509143I-226466J845184D01*
G01*
X305202945Y-152641995D02*
G75*
G03*
X305642937Y-154284067I219996J-821036D01*
G01*
%TO.C,D51*%
X308304680Y-136592338D02*
X309081137Y-139490115D01*
X308053974Y-139713579D02*
X306894863Y-140024162D01*
X307303399Y-136912394D02*
X306144288Y-137222977D01*
X305893582Y-140344218D02*
X305117125Y-137446441D01*
X308115211Y-139748934D02*
G75*
G03*
X309081137Y-139490115I482963J129409D01*
G01*
X308304680Y-136592338D02*
G75*
G03*
X307338754Y-136851157I-482963J-129409D01*
G01*
X307303399Y-136912393D02*
G75*
G03*
X307338754Y-136851157I-12942J48296D01*
G01*
X308115211Y-139748934D02*
G75*
G03*
X308053974Y-139713579I-48297J-12943D01*
G01*
X306083052Y-137187622D02*
G75*
G03*
X306144288Y-137222976I48295J12941D01*
G01*
X306894863Y-140024163D02*
G75*
G03*
X306859509Y-140085399I12941J-48295D01*
G01*
X305893582Y-140344218D02*
G75*
G03*
X306859508Y-140085399I482963J129409D01*
G01*
X306083051Y-137187622D02*
G75*
G03*
X305117125Y-137446441I-482963J-129409D01*
G01*
%TO.C,D63*%
X222357443Y-186415590D02*
X220857443Y-183817514D01*
X221791770Y-183335815D02*
X222831000Y-182735815D01*
X223241770Y-185847289D02*
X224281000Y-185247289D01*
X223715327Y-182167514D02*
X225215327Y-184765590D01*
X221723469Y-183317514D02*
G75*
G03*
X220857443Y-183817514I-433013J-250000D01*
G01*
X222357444Y-186415589D02*
G75*
G03*
X223223468Y-185915590I433012J249999D01*
G01*
X223241770Y-185847288D02*
G75*
G03*
X223223468Y-185915590I25001J-43302D01*
G01*
X221723469Y-183317513D02*
G75*
G03*
X221791770Y-183335814I43301J25000D01*
G01*
X224349301Y-185265591D02*
G75*
G03*
X224281000Y-185247290I-43301J-24999D01*
G01*
X222831000Y-182735815D02*
G75*
G03*
X222849301Y-182667514I-25000J43301D01*
G01*
X223715326Y-182167515D02*
G75*
G03*
X222849302Y-182667514I-433012J-249999D01*
G01*
X224349301Y-185265590D02*
G75*
G03*
X225215327Y-184765590I433013J250000D01*
G01*
%TO.C,D13*%
X53198658Y-118128534D02*
X53975115Y-115230757D01*
X54976396Y-115550813D02*
X56135507Y-115861396D01*
X54225821Y-118351998D02*
X55384932Y-118662581D01*
X57162670Y-116084860D02*
X56386213Y-118982637D01*
X54941040Y-115489576D02*
G75*
G03*
X53975116Y-115230757I-482962J129410D01*
G01*
X53198659Y-118128534D02*
G75*
G03*
X54164583Y-118387353I482962J-129410D01*
G01*
X54225821Y-118351998D02*
G75*
G03*
X54164584Y-118387353I-12940J-48298D01*
G01*
X54941041Y-115489576D02*
G75*
G03*
X54976396Y-115550812I48297J-12940D01*
G01*
X55420286Y-118723818D02*
G75*
G03*
X55384932Y-118662582I-48295J12941D01*
G01*
X56135507Y-115861395D02*
G75*
G03*
X56196743Y-115826041I12941J48295D01*
G01*
X57162669Y-116084860D02*
G75*
G03*
X56196745Y-115826041I-482962J129410D01*
G01*
X55420288Y-118723818D02*
G75*
G03*
X56386212Y-118982637I482962J-129410D01*
G01*
%TO.C,D52*%
X288876607Y-137689283D02*
X289653064Y-140587060D01*
X288625901Y-140810524D02*
X287466790Y-141121107D01*
X287875326Y-138009339D02*
X286716215Y-138319922D01*
X286465509Y-141441163D02*
X285689052Y-138543386D01*
X288687138Y-140845879D02*
G75*
G03*
X289653064Y-140587060I482963J129409D01*
G01*
X288876607Y-137689283D02*
G75*
G03*
X287910681Y-137948102I-482963J-129409D01*
G01*
X287875326Y-138009338D02*
G75*
G03*
X287910681Y-137948102I-12942J48296D01*
G01*
X288687138Y-140845879D02*
G75*
G03*
X288625901Y-140810524I-48297J-12943D01*
G01*
X286654979Y-138284567D02*
G75*
G03*
X286716215Y-138319921I48295J12941D01*
G01*
X287466790Y-141121108D02*
G75*
G03*
X287431436Y-141182344I12941J-48295D01*
G01*
X286465509Y-141441163D02*
G75*
G03*
X287431435Y-141182344I482963J129409D01*
G01*
X286654978Y-138284567D02*
G75*
G03*
X285689052Y-138543386I-482963J-129409D01*
G01*
%TO.C,D38*%
X318077193Y-99460259D02*
X318853650Y-102358036D01*
X317826487Y-102581500D02*
X316667376Y-102892083D01*
X317075912Y-99780315D02*
X315916801Y-100090898D01*
X315666095Y-103212139D02*
X314889638Y-100314362D01*
X317887724Y-102616855D02*
G75*
G03*
X318853650Y-102358036I482963J129409D01*
G01*
X318077193Y-99460259D02*
G75*
G03*
X317111267Y-99719078I-482963J-129409D01*
G01*
X317075912Y-99780314D02*
G75*
G03*
X317111267Y-99719078I-12942J48296D01*
G01*
X317887724Y-102616855D02*
G75*
G03*
X317826487Y-102581500I-48297J-12943D01*
G01*
X315855565Y-100055543D02*
G75*
G03*
X315916801Y-100090897I48295J12941D01*
G01*
X316667376Y-102892084D02*
G75*
G03*
X316632022Y-102953320I12941J-48295D01*
G01*
X315666095Y-103212139D02*
G75*
G03*
X316632021Y-102953320I482963J129409D01*
G01*
X315855564Y-100055543D02*
G75*
G03*
X314889638Y-100314362I-482963J-129409D01*
G01*
%TO.C,SW43*%
X344617828Y-110032518D02*
X344205669Y-110117074D01*
X344658602Y-111807444D02*
X345057820Y-111674592D01*
D11*
X341001310Y-105251201D02*
X343721717Y-105899188D01*
X340585379Y-108210702D02*
X343046862Y-108822298D01*
X338063771Y-105031860D02*
X340742387Y-105214811D01*
X337906746Y-108027743D02*
X340326456Y-108174312D01*
D10*
X334391862Y-112746676D02*
X333992644Y-112879528D01*
X334432636Y-114521602D02*
X334844795Y-114437046D01*
D11*
X343046862Y-108822297D02*
G75*
G03*
X343721717Y-105899189I337428J1461554D01*
G01*
D10*
X345057820Y-111674591D02*
G75*
G03*
X344617828Y-110032519I-219996J821036D01*
G01*
X344205669Y-110117075D02*
G75*
G03*
X344658602Y-111807443I226466J-845184D01*
G01*
D11*
X341001310Y-105251202D02*
G75*
G03*
X340742387Y-105214812I-337441J-1461634D01*
G01*
X340585379Y-108210702D02*
G75*
G03*
X340326456Y-108174312I-337442J-1461634D01*
G01*
X338063771Y-105031859D02*
G75*
G03*
X337906746Y-108027743I-78512J-1497942D01*
G01*
D10*
X334844795Y-114437045D02*
G75*
G03*
X334391862Y-112746677I-226466J845184D01*
G01*
X333992644Y-112879529D02*
G75*
G03*
X334432636Y-114521601I219996J-821036D01*
G01*
%TO.C,U4*%
X202249994Y-151320030D02*
X202249994Y-135570030D01*
X201749994Y-151820030D02*
X194249994Y-151820030D01*
X201749994Y-135070030D02*
X194249994Y-135070030D01*
X193749994Y-135570030D02*
X193749994Y-151320030D01*
X201749994Y-151820030D02*
G75*
G03*
X202249994Y-151320030I-1J500001D01*
G01*
X202249994Y-135570030D02*
G75*
G03*
X201749994Y-135070030I-499998J2D01*
G01*
X193749994Y-151320030D02*
G75*
G03*
X194249994Y-151820030I500000J0D01*
G01*
X194249994Y-135070030D02*
G75*
G03*
X193749994Y-135570030I0J-500000D01*
G01*
%TO.C,D23*%
X127684674Y-147307414D02*
X126908217Y-150205191D01*
X125906936Y-149885135D02*
X124747825Y-149574552D01*
X126657511Y-147083950D02*
X125498400Y-146773367D01*
X123720662Y-149351088D02*
X124497119Y-146453311D01*
X125942292Y-149946372D02*
G75*
G03*
X126908216Y-150205191I482962J-129410D01*
G01*
X127684673Y-147307414D02*
G75*
G03*
X126718749Y-147048595I-482962J129410D01*
G01*
X126657511Y-147083950D02*
G75*
G03*
X126718748Y-147048595I12940J48298D01*
G01*
X125942291Y-149946372D02*
G75*
G03*
X125906936Y-149885136I-48297J12940D01*
G01*
X125463046Y-146712130D02*
G75*
G03*
X125498400Y-146773366I48295J-12941D01*
G01*
X124747825Y-149574553D02*
G75*
G03*
X124686589Y-149609907I-12941J-48295D01*
G01*
X123720663Y-149351088D02*
G75*
G03*
X124686587Y-149609907I482962J-129410D01*
G01*
X125463044Y-146712130D02*
G75*
G03*
X124497120Y-146453311I-482962J129410D01*
G01*
%TO.C,D56*%
X330457602Y-158414814D02*
X329681145Y-155517037D01*
X330708308Y-155293573D02*
X331867419Y-154982990D01*
X331458883Y-158094758D02*
X332617994Y-157784175D01*
X332868700Y-154662934D02*
X333645157Y-157560711D01*
X330647071Y-155258218D02*
G75*
G03*
X329681145Y-155517037I-482963J-129409D01*
G01*
X330457602Y-158414814D02*
G75*
G03*
X331423528Y-158155995I482963J129409D01*
G01*
X331458883Y-158094759D02*
G75*
G03*
X331423528Y-158155995I12942J-48296D01*
G01*
X330647071Y-155258218D02*
G75*
G03*
X330708308Y-155293573I48297J12943D01*
G01*
X332679230Y-157819530D02*
G75*
G03*
X332617994Y-157784176I-48295J-12941D01*
G01*
X331867419Y-154982989D02*
G75*
G03*
X331902773Y-154921753I-12941J48295D01*
G01*
X332868700Y-154662934D02*
G75*
G03*
X331902774Y-154921753I-482963J-129409D01*
G01*
X332679231Y-157819530D02*
G75*
G03*
X333645157Y-157560711I482963J129409D01*
G01*
%TO.C,SW46*%
X286539037Y-114090179D02*
X286126878Y-114174735D01*
X286579811Y-115865105D02*
X286979029Y-115732253D01*
D11*
X282922519Y-109308862D02*
X285642926Y-109956849D01*
X282506588Y-112268363D02*
X284968071Y-112879959D01*
X279984980Y-109089521D02*
X282663596Y-109272472D01*
X279827955Y-112085404D02*
X282247665Y-112231973D01*
D10*
X276313071Y-116804337D02*
X275913853Y-116937189D01*
X276353845Y-118579263D02*
X276766004Y-118494707D01*
D11*
X284968071Y-112879958D02*
G75*
G03*
X285642926Y-109956850I337428J1461554D01*
G01*
D10*
X286979029Y-115732252D02*
G75*
G03*
X286539037Y-114090180I-219996J821036D01*
G01*
X286126878Y-114174736D02*
G75*
G03*
X286579811Y-115865104I226466J-845184D01*
G01*
D11*
X282922519Y-109308863D02*
G75*
G03*
X282663596Y-109272473I-337441J-1461634D01*
G01*
X282506588Y-112268363D02*
G75*
G03*
X282247665Y-112231973I-337442J-1461634D01*
G01*
X279984980Y-109089520D02*
G75*
G03*
X279827955Y-112085404I-78512J-1497942D01*
G01*
D10*
X276766004Y-118494706D02*
G75*
G03*
X276313071Y-116804338I-226466J845184D01*
G01*
X275913853Y-116937190D02*
G75*
G03*
X276353845Y-118579262I219996J-821036D01*
G01*
%TO.C,D70*%
X214706929Y-148134320D02*
X217478568Y-149282370D01*
X217030556Y-150233309D02*
X216571336Y-151341965D01*
X214351306Y-149123527D02*
X213892086Y-150232183D01*
X216215713Y-152331172D02*
X213444074Y-151183122D01*
X217095885Y-150206250D02*
G75*
G03*
X217478568Y-149282370I191341J461940D01*
G01*
X214706929Y-148134319D02*
G75*
G03*
X214324246Y-149058199I-191341J-461940D01*
G01*
X214351306Y-149123527D02*
G75*
G03*
X214324246Y-149058200I-46196J19133D01*
G01*
X217095885Y-150206250D02*
G75*
G03*
X217030557Y-150233309I-19134J-46195D01*
G01*
X213826758Y-150259242D02*
G75*
G03*
X213892085Y-150232183I19134J46193D01*
G01*
X216571337Y-151341965D02*
G75*
G03*
X216598396Y-151407292I46193J-19134D01*
G01*
X216215713Y-152331173D02*
G75*
G03*
X216598396Y-151407293I191341J461940D01*
G01*
X213826757Y-150259242D02*
G75*
G03*
X213444074Y-151183122I-191341J-461940D01*
G01*
%TO.C,D64*%
X196349987Y-211550023D02*
X196349987Y-208550023D01*
X197399987Y-208600023D02*
X198599987Y-208600023D01*
X197399987Y-211500023D02*
X198599987Y-211500023D01*
X199649987Y-208550023D02*
X199649987Y-211550023D01*
X197349987Y-208550023D02*
G75*
G03*
X196349987Y-208550023I-500000J0D01*
G01*
X196349987Y-211550023D02*
G75*
G03*
X197349987Y-211550023I500000J0D01*
G01*
X197399987Y-211500023D02*
G75*
G03*
X197349987Y-211550023I1J-50001D01*
G01*
X197349987Y-208550023D02*
G75*
G03*
X197399987Y-208600023I50001J1D01*
G01*
X198649987Y-211550023D02*
G75*
G03*
X198599987Y-211500023I-50000J0D01*
G01*
X198599987Y-208600023D02*
G75*
G03*
X198649987Y-208550023I0J50000D01*
G01*
X199649987Y-208550023D02*
G75*
G03*
X198649987Y-208550023I-500000J0D01*
G01*
X198649987Y-211550023D02*
G75*
G03*
X199649987Y-211550023I500000J0D01*
G01*
%TO.C,D34*%
X271673994Y-86238523D02*
X270897537Y-83340746D01*
X271924700Y-83117282D02*
X273083811Y-82806699D01*
X272675275Y-85918467D02*
X273834386Y-85607884D01*
X274085092Y-82486643D02*
X274861549Y-85384420D01*
X271863463Y-83081927D02*
G75*
G03*
X270897537Y-83340746I-482963J-129409D01*
G01*
X271673994Y-86238523D02*
G75*
G03*
X272639920Y-85979704I482963J129409D01*
G01*
X272675275Y-85918468D02*
G75*
G03*
X272639920Y-85979704I12942J-48296D01*
G01*
X271863463Y-83081927D02*
G75*
G03*
X271924700Y-83117282I48297J12943D01*
G01*
X273895622Y-85643239D02*
G75*
G03*
X273834386Y-85607885I-48295J-12941D01*
G01*
X273083811Y-82806698D02*
G75*
G03*
X273119165Y-82745462I-12941J48295D01*
G01*
X274085092Y-82486643D02*
G75*
G03*
X273119166Y-82745462I-482963J-129409D01*
G01*
X273895623Y-85643239D02*
G75*
G03*
X274861549Y-85384420I482963J129409D01*
G01*
%TO.C,SW37*%
X339687324Y-91631634D02*
X339275165Y-91716190D01*
X339728098Y-93406560D02*
X340127316Y-93273708D01*
D11*
X336070806Y-86850317D02*
X338791213Y-87498304D01*
X335654875Y-89809818D02*
X338116358Y-90421414D01*
X333133267Y-86630976D02*
X335811883Y-86813927D01*
X332976242Y-89626859D02*
X335395952Y-89773428D01*
D10*
X329461358Y-94345792D02*
X329062140Y-94478644D01*
X329502132Y-96120718D02*
X329914291Y-96036162D01*
D11*
X338116358Y-90421413D02*
G75*
G03*
X338791213Y-87498305I337428J1461554D01*
G01*
D10*
X340127316Y-93273707D02*
G75*
G03*
X339687324Y-91631635I-219996J821036D01*
G01*
X339275165Y-91716191D02*
G75*
G03*
X339728098Y-93406559I226466J-845184D01*
G01*
D11*
X336070806Y-86850318D02*
G75*
G03*
X335811883Y-86813928I-337441J-1461634D01*
G01*
X335654875Y-89809818D02*
G75*
G03*
X335395952Y-89773428I-337442J-1461634D01*
G01*
X333133267Y-86630975D02*
G75*
G03*
X332976242Y-89626859I-78512J-1497942D01*
G01*
D10*
X329914291Y-96036161D02*
G75*
G03*
X329461358Y-94345793I-226466J845184D01*
G01*
X329062140Y-94478645D02*
G75*
G03*
X329502132Y-96120717I219996J-821036D01*
G01*
%TO.C,D62*%
X196350001Y-192500034D02*
X196350001Y-189500034D01*
X197400001Y-189550034D02*
X198600001Y-189550034D01*
X197400001Y-192450034D02*
X198600001Y-192450034D01*
X199650001Y-189500034D02*
X199650001Y-192500034D01*
X197350001Y-189500034D02*
G75*
G03*
X196350001Y-189500034I-500000J0D01*
G01*
X196350001Y-192500034D02*
G75*
G03*
X197350001Y-192500034I500000J0D01*
G01*
X197400001Y-192450034D02*
G75*
G03*
X197350001Y-192500034I1J-50001D01*
G01*
X197350001Y-189500034D02*
G75*
G03*
X197400001Y-189550034I50001J1D01*
G01*
X198650001Y-192500034D02*
G75*
G03*
X198600001Y-192450034I-50000J0D01*
G01*
X198600001Y-189550034D02*
G75*
G03*
X198650001Y-189500034I0J50000D01*
G01*
X199650001Y-189500034D02*
G75*
G03*
X198650001Y-189500034I-500000J0D01*
G01*
X198650001Y-192500034D02*
G75*
G03*
X199650001Y-192500034I500000J0D01*
G01*
%TO.C,D10*%
X120171971Y-101741637D02*
X119395514Y-104639414D01*
X118394233Y-104319358D02*
X117235122Y-104008775D01*
X119144808Y-101518173D02*
X117985697Y-101207590D01*
X116207959Y-103785311D02*
X116984416Y-100887534D01*
X118429589Y-104380595D02*
G75*
G03*
X119395513Y-104639414I482962J-129410D01*
G01*
X120171970Y-101741637D02*
G75*
G03*
X119206046Y-101482818I-482962J129410D01*
G01*
X119144808Y-101518173D02*
G75*
G03*
X119206045Y-101482818I12940J48298D01*
G01*
X118429588Y-104380595D02*
G75*
G03*
X118394233Y-104319359I-48297J12940D01*
G01*
X117950343Y-101146353D02*
G75*
G03*
X117985697Y-101207589I48295J-12941D01*
G01*
X117235122Y-104008776D02*
G75*
G03*
X117173886Y-104044130I-12941J-48295D01*
G01*
X116207960Y-103785311D02*
G75*
G03*
X117173884Y-104044130I482962J-129410D01*
G01*
X117950341Y-101146353D02*
G75*
G03*
X116984417Y-100887534I-482962J129410D01*
G01*
%TO.C,D69*%
X206183092Y-158444101D02*
X207331142Y-161215740D01*
X206341935Y-161571363D02*
X205233279Y-162030583D01*
X205232153Y-158892113D02*
X204123497Y-159351333D01*
X204282340Y-162478595D02*
X203134290Y-159706956D01*
X206407264Y-161598422D02*
G75*
G03*
X207331142Y-161215740I461939J191341D01*
G01*
X206183091Y-158444102D02*
G75*
G03*
X205259213Y-158826784I-461939J-191341D01*
G01*
X205232153Y-158892112D02*
G75*
G03*
X205259212Y-158826784I-19136J46194D01*
G01*
X206407262Y-161598423D02*
G75*
G03*
X206341935Y-161571363I-46194J-19136D01*
G01*
X204058170Y-159324273D02*
G75*
G03*
X204123497Y-159351332I46193J19134D01*
G01*
X205233279Y-162030583D02*
G75*
G03*
X205206219Y-162095912I19134J-46194D01*
G01*
X204282341Y-162478594D02*
G75*
G03*
X205206219Y-162095912I461939J191341D01*
G01*
X204058168Y-159324274D02*
G75*
G03*
X203134290Y-159706956I-461939J-191341D01*
G01*
%TO.C,D57*%
X310824081Y-158745088D02*
X310047624Y-155847311D01*
X311074787Y-155623847D02*
X312233898Y-155313264D01*
X311825362Y-158425032D02*
X312984473Y-158114449D01*
X313235179Y-154993208D02*
X314011636Y-157890985D01*
X311013550Y-155588492D02*
G75*
G03*
X310047624Y-155847311I-482963J-129409D01*
G01*
X310824081Y-158745088D02*
G75*
G03*
X311790007Y-158486269I482963J129409D01*
G01*
X311825362Y-158425033D02*
G75*
G03*
X311790007Y-158486269I12942J-48296D01*
G01*
X311013550Y-155588492D02*
G75*
G03*
X311074787Y-155623847I48297J12943D01*
G01*
X313045709Y-158149804D02*
G75*
G03*
X312984473Y-158114450I-48295J-12941D01*
G01*
X312233898Y-155313263D02*
G75*
G03*
X312269252Y-155252027I-12941J48295D01*
G01*
X313235179Y-154993208D02*
G75*
G03*
X312269253Y-155252027I-482963J-129409D01*
G01*
X313045710Y-158149804D02*
G75*
G03*
X314011636Y-157890985I482963J129409D01*
G01*
%TO.C,SW38*%
X320670142Y-94262027D02*
X320257983Y-94346583D01*
X320710916Y-96036953D02*
X321110134Y-95904101D01*
D11*
X317053624Y-89480710D02*
X319774031Y-90128697D01*
X316637693Y-92440211D02*
X319099176Y-93051807D01*
X314116085Y-89261369D02*
X316794701Y-89444320D01*
X313959060Y-92257252D02*
X316378770Y-92403821D01*
D10*
X310444176Y-96976185D02*
X310044958Y-97109037D01*
X310484950Y-98751111D02*
X310897109Y-98666555D01*
D11*
X319099176Y-93051806D02*
G75*
G03*
X319774031Y-90128698I337428J1461554D01*
G01*
D10*
X321110134Y-95904100D02*
G75*
G03*
X320670142Y-94262028I-219996J821036D01*
G01*
X320257983Y-94346584D02*
G75*
G03*
X320710916Y-96036952I226466J-845184D01*
G01*
D11*
X317053624Y-89480711D02*
G75*
G03*
X316794701Y-89444321I-337441J-1461634D01*
G01*
X316637693Y-92440211D02*
G75*
G03*
X316378770Y-92403821I-337442J-1461634D01*
G01*
X314116085Y-89261368D02*
G75*
G03*
X313959060Y-92257252I-78512J-1497942D01*
G01*
D10*
X310897109Y-98666554D02*
G75*
G03*
X310444176Y-96976186I-226466J845184D01*
G01*
X310044958Y-97109038D02*
G75*
G03*
X310484950Y-98751110I219996J-821036D01*
G01*
%TO.C,D30*%
X145640429Y-189477395D02*
X147761749Y-187356075D01*
X148468856Y-188133892D02*
X149317384Y-188982420D01*
X146418246Y-190184502D02*
X147266774Y-191033030D01*
X150095201Y-189689527D02*
X147973881Y-191810847D01*
X148468855Y-188063180D02*
G75*
G03*
X147761749Y-187356075I-353553J353552D01*
G01*
X145640429Y-189477395D02*
G75*
G03*
X146347535Y-190184502I353553J-353553D01*
G01*
X146418246Y-190184502D02*
G75*
G03*
X146347535Y-190184502I-35355J-35357D01*
G01*
X148468857Y-188063182D02*
G75*
G03*
X148468857Y-188133891I35356J-35355D01*
G01*
X147266773Y-191103740D02*
G75*
G03*
X147266774Y-191033030I-35354J35355D01*
G01*
X149317384Y-188982420D02*
G75*
G03*
X149388095Y-188982420I35355J35355D01*
G01*
X150095201Y-189689527D02*
G75*
G03*
X149388095Y-188982420I-353553J353553D01*
G01*
X147266775Y-191103742D02*
G75*
G03*
X147973881Y-191810847I353553J-353552D01*
G01*
%TO.C,D42*%
X244062760Y-117648878D02*
X244839217Y-120546655D01*
X243812054Y-120770119D02*
X242652943Y-121080702D01*
X243061479Y-117968934D02*
X241902368Y-118279517D01*
X241651662Y-121400758D02*
X240875205Y-118502981D01*
X243873291Y-120805474D02*
G75*
G03*
X244839217Y-120546655I482963J129409D01*
G01*
X244062760Y-117648878D02*
G75*
G03*
X243096834Y-117907697I-482963J-129409D01*
G01*
X243061479Y-117968933D02*
G75*
G03*
X243096834Y-117907697I-12942J48296D01*
G01*
X243873291Y-120805474D02*
G75*
G03*
X243812054Y-120770119I-48297J-12943D01*
G01*
X241841132Y-118244162D02*
G75*
G03*
X241902368Y-118279516I48295J12941D01*
G01*
X242652943Y-121080703D02*
G75*
G03*
X242617589Y-121141939I12941J-48295D01*
G01*
X241651662Y-121400758D02*
G75*
G03*
X242617588Y-121141939I482963J129409D01*
G01*
X241841131Y-118244162D02*
G75*
G03*
X240875205Y-118502981I-482963J-129409D01*
G01*
%TO.C,SW52*%
X291469557Y-132491054D02*
X291057398Y-132575610D01*
X291510331Y-134265980D02*
X291909549Y-134133128D01*
D11*
X287853039Y-127709737D02*
X290573446Y-128357724D01*
X287437108Y-130669238D02*
X289898591Y-131280834D01*
X284915500Y-127490396D02*
X287594116Y-127673347D01*
X284758475Y-130486279D02*
X287178185Y-130632848D01*
D10*
X281243591Y-135205212D02*
X280844373Y-135338064D01*
X281284365Y-136980138D02*
X281696524Y-136895582D01*
D11*
X289898591Y-131280833D02*
G75*
G03*
X290573446Y-128357725I337428J1461554D01*
G01*
D10*
X291909549Y-134133127D02*
G75*
G03*
X291469557Y-132491055I-219996J821036D01*
G01*
X291057398Y-132575611D02*
G75*
G03*
X291510331Y-134265979I226466J-845184D01*
G01*
D11*
X287853039Y-127709738D02*
G75*
G03*
X287594116Y-127673348I-337441J-1461634D01*
G01*
X287437108Y-130669238D02*
G75*
G03*
X287178185Y-130632848I-337442J-1461634D01*
G01*
X284915500Y-127490395D02*
G75*
G03*
X284758475Y-130486279I-78512J-1497942D01*
G01*
D10*
X281696524Y-136895581D02*
G75*
G03*
X281243591Y-135205213I-226466J845184D01*
G01*
X280844373Y-135338065D02*
G75*
G03*
X281284365Y-136980137I219996J-821036D01*
G01*
%TO.C,D12*%
X155124802Y-118502976D02*
X154348345Y-121400753D01*
X153347064Y-121080697D02*
X152187953Y-120770114D01*
X154097639Y-118279512D02*
X152938528Y-117968929D01*
X151160790Y-120546650D02*
X151937247Y-117648873D01*
X153382420Y-121141934D02*
G75*
G03*
X154348344Y-121400753I482962J-129410D01*
G01*
X155124801Y-118502976D02*
G75*
G03*
X154158877Y-118244157I-482962J129410D01*
G01*
X154097639Y-118279512D02*
G75*
G03*
X154158876Y-118244157I12940J48298D01*
G01*
X153382419Y-121141934D02*
G75*
G03*
X153347064Y-121080698I-48297J12940D01*
G01*
X152903174Y-117907692D02*
G75*
G03*
X152938528Y-117968928I48295J-12941D01*
G01*
X152187953Y-120770115D02*
G75*
G03*
X152126717Y-120805469I-12941J-48295D01*
G01*
X151160791Y-120546650D02*
G75*
G03*
X152126715Y-120805469I482962J-129410D01*
G01*
X152903172Y-117907692D02*
G75*
G03*
X151937248Y-117648873I-482962J129410D01*
G01*
%TO.C,SW34*%
X276678048Y-77288407D02*
X276265889Y-77372963D01*
X276718822Y-79063333D02*
X277118040Y-78930481D01*
D11*
X273061530Y-72507090D02*
X275781937Y-73155077D01*
X272645599Y-75466591D02*
X275107082Y-76078187D01*
X270123991Y-72287749D02*
X272802607Y-72470700D01*
X269966966Y-75283632D02*
X272386676Y-75430201D01*
D10*
X266452082Y-80002565D02*
X266052864Y-80135417D01*
X266492856Y-81777491D02*
X266905015Y-81692935D01*
D11*
X275107082Y-76078186D02*
G75*
G03*
X275781937Y-73155078I337428J1461554D01*
G01*
D10*
X277118040Y-78930480D02*
G75*
G03*
X276678048Y-77288408I-219996J821036D01*
G01*
X276265889Y-77372964D02*
G75*
G03*
X276718822Y-79063332I226466J-845184D01*
G01*
D11*
X273061530Y-72507091D02*
G75*
G03*
X272802607Y-72470701I-337441J-1461634D01*
G01*
X272645599Y-75466591D02*
G75*
G03*
X272386676Y-75430201I-337442J-1461634D01*
G01*
X270123991Y-72287748D02*
G75*
G03*
X269966966Y-75283632I-78512J-1497942D01*
G01*
D10*
X266905015Y-81692934D02*
G75*
G03*
X266452082Y-80002566I-226466J845184D01*
G01*
X266052864Y-80135418D02*
G75*
G03*
X266492856Y-81777490I219996J-821036D01*
G01*
%TO.C,D44*%
X320596593Y-121613022D02*
X319820136Y-118715245D01*
X320847299Y-118491781D02*
X322006410Y-118181198D01*
X321597874Y-121292966D02*
X322756985Y-120982383D01*
X323007691Y-117861142D02*
X323784148Y-120758919D01*
X320786062Y-118456426D02*
G75*
G03*
X319820136Y-118715245I-482963J-129409D01*
G01*
X320596593Y-121613022D02*
G75*
G03*
X321562519Y-121354203I482963J129409D01*
G01*
X321597874Y-121292967D02*
G75*
G03*
X321562519Y-121354203I12942J-48296D01*
G01*
X320786062Y-118456426D02*
G75*
G03*
X320847299Y-118491781I48297J12943D01*
G01*
X322818221Y-121017738D02*
G75*
G03*
X322756985Y-120982384I-48295J-12941D01*
G01*
X322006410Y-118181197D02*
G75*
G03*
X322041764Y-118119961I-12941J48295D01*
G01*
X323007691Y-117861142D02*
G75*
G03*
X322041765Y-118119961I-482963J-129409D01*
G01*
X322818222Y-121017738D02*
G75*
G03*
X323784148Y-120758919I482963J129409D01*
G01*
%TO.C,D5*%
X138512167Y-94148429D02*
X139288624Y-91250652D01*
X140289905Y-91570708D02*
X141449016Y-91881291D01*
X139539330Y-94371893D02*
X140698441Y-94682476D01*
X142476179Y-92104755D02*
X141699722Y-95002532D01*
X140254549Y-91509471D02*
G75*
G03*
X139288625Y-91250652I-482962J129410D01*
G01*
X138512168Y-94148429D02*
G75*
G03*
X139478092Y-94407248I482962J-129410D01*
G01*
X139539330Y-94371893D02*
G75*
G03*
X139478093Y-94407248I-12940J-48298D01*
G01*
X140254550Y-91509471D02*
G75*
G03*
X140289905Y-91570707I48297J-12940D01*
G01*
X140733795Y-94743713D02*
G75*
G03*
X140698441Y-94682477I-48295J12941D01*
G01*
X141449016Y-91881290D02*
G75*
G03*
X141510252Y-91845936I12941J48295D01*
G01*
X142476178Y-92104755D02*
G75*
G03*
X141510254Y-91845936I-482962J129410D01*
G01*
X140733797Y-94743713D02*
G75*
G03*
X141699721Y-95002532I482962J-129410D01*
G01*
%TO.C,D60*%
X248026125Y-191810852D02*
X245904805Y-189689532D01*
X246682622Y-188982425D02*
X247531150Y-188133897D01*
X248733232Y-191033035D02*
X249581760Y-190184507D01*
X248238257Y-187356080D02*
X250359577Y-189477400D01*
X246611910Y-188982426D02*
G75*
G03*
X245904805Y-189689532I-353552J-353553D01*
G01*
X248026125Y-191810852D02*
G75*
G03*
X248733232Y-191103746I353553J353553D01*
G01*
X248733232Y-191033035D02*
G75*
G03*
X248733232Y-191103746I35357J-35355D01*
G01*
X246611912Y-188982424D02*
G75*
G03*
X246682621Y-188982424I35355J35356D01*
G01*
X249652470Y-190184508D02*
G75*
G03*
X249581760Y-190184507I-35355J-35354D01*
G01*
X247531150Y-188133897D02*
G75*
G03*
X247531150Y-188063186I-35355J35355D01*
G01*
X248238257Y-187356080D02*
G75*
G03*
X247531150Y-188063186I-353553J-353553D01*
G01*
X249652472Y-190184506D02*
G75*
G03*
X250359577Y-189477400I353552J353553D01*
G01*
%TO.C,D20*%
X71249362Y-137116140D02*
X70472905Y-140013917D01*
X69471624Y-139693861D02*
X68312513Y-139383278D01*
X70222199Y-136892676D02*
X69063088Y-136582093D01*
X67285350Y-139159814D02*
X68061807Y-136262037D01*
X69506980Y-139755098D02*
G75*
G03*
X70472904Y-140013917I482962J-129410D01*
G01*
X71249361Y-137116140D02*
G75*
G03*
X70283437Y-136857321I-482962J129410D01*
G01*
X70222199Y-136892676D02*
G75*
G03*
X70283436Y-136857321I12940J48298D01*
G01*
X69506979Y-139755098D02*
G75*
G03*
X69471624Y-139693862I-48297J12940D01*
G01*
X69027734Y-136520856D02*
G75*
G03*
X69063088Y-136582092I48295J-12941D01*
G01*
X68312513Y-139383279D02*
G75*
G03*
X68251277Y-139418633I-12941J-48295D01*
G01*
X67285351Y-139159814D02*
G75*
G03*
X68251275Y-139418633I482962J-129410D01*
G01*
X69027732Y-136520856D02*
G75*
G03*
X68061808Y-136262037I-482962J129410D01*
G01*
%TO.C,D11*%
X137545664Y-110505632D02*
X136769207Y-113403409D01*
X135767926Y-113083353D02*
X134608815Y-112772770D01*
X136518501Y-110282168D02*
X135359390Y-109971585D01*
X133581652Y-112549306D02*
X134358109Y-109651529D01*
X135803282Y-113144590D02*
G75*
G03*
X136769206Y-113403409I482962J-129410D01*
G01*
X137545663Y-110505632D02*
G75*
G03*
X136579739Y-110246813I-482962J129410D01*
G01*
X136518501Y-110282168D02*
G75*
G03*
X136579738Y-110246813I12940J48298D01*
G01*
X135803281Y-113144590D02*
G75*
G03*
X135767926Y-113083354I-48297J12940D01*
G01*
X135324036Y-109910348D02*
G75*
G03*
X135359390Y-109971584I48295J-12941D01*
G01*
X134608815Y-112772771D02*
G75*
G03*
X134547579Y-112808125I-12941J-48295D01*
G01*
X133581653Y-112549306D02*
G75*
G03*
X134547577Y-112808125I482962J-129410D01*
G01*
X135324034Y-109910348D02*
G75*
G03*
X134358110Y-109651529I-482962J129410D01*
G01*
%TO.C,SW59*%
X265891571Y-169550411D02*
X265515340Y-169738761D01*
X266390340Y-171254305D02*
X266741571Y-171022655D01*
D11*
X261160787Y-165868037D02*
X263956210Y-165789852D01*
X261525003Y-168834347D02*
X264060907Y-168788024D01*
X258266572Y-166416461D02*
X260901268Y-165899901D01*
X258890290Y-169350903D02*
X261265485Y-168866211D01*
D10*
X256716522Y-174818761D02*
X256365291Y-175050411D01*
X257215291Y-176522655D02*
X257591522Y-176334305D01*
D11*
X264060907Y-168788023D02*
G75*
G03*
X263956210Y-165789853I-52349J1499085D01*
G01*
D10*
X266741571Y-171022655D02*
G75*
G03*
X265891571Y-169550411I-425000J736122D01*
G01*
X265515340Y-169738762D02*
G75*
G03*
X266390340Y-171254304I437500J-757771D01*
G01*
D11*
X261160787Y-165868038D02*
G75*
G03*
X260901268Y-165899902I52356J-1499166D01*
G01*
X261525003Y-168834347D02*
G75*
G03*
X261265485Y-168866211I52356J-1499166D01*
G01*
X258266572Y-166416462D02*
G75*
G03*
X258890290Y-169350902I311859J-1467220D01*
G01*
D10*
X257591522Y-176334304D02*
G75*
G03*
X256716522Y-174818762I-437500J757771D01*
G01*
X256365291Y-175050411D02*
G75*
G03*
X257215291Y-176522655I425000J-736122D01*
G01*
%TO.C,D29*%
X129767628Y-177840715D02*
X131267628Y-175242639D01*
X132151955Y-175810940D02*
X133191185Y-176410940D01*
X130701955Y-178322414D02*
X131741185Y-178922414D01*
X134125512Y-176892639D02*
X132625512Y-179490715D01*
X132133654Y-175742639D02*
G75*
G03*
X131267628Y-175242639I-433013J250000D01*
G01*
X129767629Y-177840716D02*
G75*
G03*
X130633653Y-178340715I433012J-249999D01*
G01*
X130701955Y-178322414D02*
G75*
G03*
X130633653Y-178340715I-25000J-43302D01*
G01*
X132133654Y-175742640D02*
G75*
G03*
X132151955Y-175810940I43302J-24999D01*
G01*
X131759486Y-178990714D02*
G75*
G03*
X131741185Y-178922415I-43301J24999D01*
G01*
X133191185Y-176410940D02*
G75*
G03*
X133259486Y-176392639I25000J43301D01*
G01*
X134125511Y-176892638D02*
G75*
G03*
X133259487Y-176392639I-433012J249999D01*
G01*
X131759486Y-178990715D02*
G75*
G03*
X132625512Y-179490715I433013J-250000D01*
G01*
%TO.C,D66*%
X181293066Y-137865738D02*
X178521427Y-136717688D01*
X178969439Y-135766749D02*
X179428659Y-134658093D01*
X181648689Y-136876531D02*
X182107909Y-135767875D01*
X179784282Y-133668886D02*
X182555921Y-134816936D01*
X178904110Y-135793808D02*
G75*
G03*
X178521427Y-136717688I-191341J-461940D01*
G01*
X181293066Y-137865739D02*
G75*
G03*
X181675749Y-136941859I191341J461940D01*
G01*
X181648689Y-136876531D02*
G75*
G03*
X181675749Y-136941858I46196J-19133D01*
G01*
X178904110Y-135793808D02*
G75*
G03*
X178969438Y-135766749I19134J46195D01*
G01*
X182173237Y-135740816D02*
G75*
G03*
X182107910Y-135767875I-19134J-46193D01*
G01*
X179428658Y-134658093D02*
G75*
G03*
X179401599Y-134592766I-46193J19134D01*
G01*
X179784282Y-133668885D02*
G75*
G03*
X179401599Y-134592765I-191341J-461940D01*
G01*
X182173238Y-135740816D02*
G75*
G03*
X182555921Y-134816936I191341J461940D01*
G01*
%TO.C,SW33*%
X296106112Y-76191445D02*
X295693953Y-76276001D01*
X296146886Y-77966371D02*
X296546104Y-77833519D01*
D11*
X292489594Y-71410128D02*
X295210001Y-72058115D01*
X292073663Y-74369629D02*
X294535146Y-74981225D01*
X289552055Y-71190787D02*
X292230671Y-71373738D01*
X289395030Y-74186670D02*
X291814740Y-74333239D01*
D10*
X285880146Y-78905603D02*
X285480928Y-79038455D01*
X285920920Y-80680529D02*
X286333079Y-80595973D01*
D11*
X294535146Y-74981224D02*
G75*
G03*
X295210001Y-72058116I337428J1461554D01*
G01*
D10*
X296546104Y-77833518D02*
G75*
G03*
X296106112Y-76191446I-219996J821036D01*
G01*
X295693953Y-76276002D02*
G75*
G03*
X296146886Y-77966370I226466J-845184D01*
G01*
D11*
X292489594Y-71410129D02*
G75*
G03*
X292230671Y-71373739I-337441J-1461634D01*
G01*
X292073663Y-74369629D02*
G75*
G03*
X291814740Y-74333239I-337442J-1461634D01*
G01*
X289552055Y-71190786D02*
G75*
G03*
X289395030Y-74186670I-78512J-1497942D01*
G01*
D10*
X286333079Y-80595972D02*
G75*
G03*
X285880146Y-78905604I-226466J845184D01*
G01*
X285480928Y-79038456D02*
G75*
G03*
X285920920Y-80680528I219996J-821036D01*
G01*
%TO.C,D33*%
X291102066Y-85141562D02*
X290325609Y-82243785D01*
X291352772Y-82020321D02*
X292511883Y-81709738D01*
X292103347Y-84821506D02*
X293262458Y-84510923D01*
X293513164Y-81389682D02*
X294289621Y-84287459D01*
X291291535Y-81984966D02*
G75*
G03*
X290325609Y-82243785I-482963J-129409D01*
G01*
X291102066Y-85141562D02*
G75*
G03*
X292067992Y-84882743I482963J129409D01*
G01*
X292103347Y-84821507D02*
G75*
G03*
X292067992Y-84882743I12942J-48296D01*
G01*
X291291535Y-81984966D02*
G75*
G03*
X291352772Y-82020321I48297J12943D01*
G01*
X293323694Y-84546278D02*
G75*
G03*
X293262458Y-84510924I-48295J-12941D01*
G01*
X292511883Y-81709737D02*
G75*
G03*
X292547237Y-81648501I-12941J48295D01*
G01*
X293513164Y-81389682D02*
G75*
G03*
X292547238Y-81648501I-482963J-129409D01*
G01*
X293323695Y-84546278D02*
G75*
G03*
X294289621Y-84287459I482963J129409D01*
G01*
%TO.C,SW32*%
X315739634Y-75861157D02*
X315327475Y-75945713D01*
X315780408Y-77636083D02*
X316179626Y-77503231D01*
D11*
X312123116Y-71079840D02*
X314843523Y-71727827D01*
X311707185Y-74039341D02*
X314168668Y-74650937D01*
X309185577Y-70860499D02*
X311864193Y-71043450D01*
X309028552Y-73856382D02*
X311448262Y-74002951D01*
D10*
X305513668Y-78575315D02*
X305114450Y-78708167D01*
X305554442Y-80350241D02*
X305966601Y-80265685D01*
D11*
X314168668Y-74650936D02*
G75*
G03*
X314843523Y-71727828I337428J1461554D01*
G01*
D10*
X316179626Y-77503230D02*
G75*
G03*
X315739634Y-75861158I-219996J821036D01*
G01*
X315327475Y-75945714D02*
G75*
G03*
X315780408Y-77636082I226466J-845184D01*
G01*
D11*
X312123116Y-71079841D02*
G75*
G03*
X311864193Y-71043451I-337441J-1461634D01*
G01*
X311707185Y-74039341D02*
G75*
G03*
X311448262Y-74002951I-337442J-1461634D01*
G01*
X309185577Y-70860498D02*
G75*
G03*
X309028552Y-73856382I-78512J-1497942D01*
G01*
D10*
X305966601Y-80265684D02*
G75*
G03*
X305513668Y-78575316I-226466J845184D01*
G01*
X305114450Y-78708168D02*
G75*
G03*
X305554442Y-80350240I219996J-821036D01*
G01*
%TO.C,SW55*%
X354478833Y-146834298D02*
X354066674Y-146918854D01*
X354519607Y-148609224D02*
X354918825Y-148476372D01*
D11*
X350862315Y-142052981D02*
X353582722Y-142700968D01*
X350446384Y-145012482D02*
X352907867Y-145624078D01*
X347924776Y-141833640D02*
X350603392Y-142016591D01*
X347767751Y-144829523D02*
X350187461Y-144976092D01*
D10*
X344252867Y-149548456D02*
X343853649Y-149681308D01*
X344293641Y-151323382D02*
X344705800Y-151238826D01*
D11*
X352907867Y-145624077D02*
G75*
G03*
X353582722Y-142700969I337428J1461554D01*
G01*
D10*
X354918825Y-148476371D02*
G75*
G03*
X354478833Y-146834299I-219996J821036D01*
G01*
X354066674Y-146918855D02*
G75*
G03*
X354519607Y-148609223I226466J-845184D01*
G01*
D11*
X350862315Y-142052982D02*
G75*
G03*
X350603392Y-142016592I-337441J-1461634D01*
G01*
X350446384Y-145012482D02*
G75*
G03*
X350187461Y-144976092I-337442J-1461634D01*
G01*
X347924776Y-141833639D02*
G75*
G03*
X347767751Y-144829523I-78512J-1497942D01*
G01*
D10*
X344705800Y-151238825D02*
G75*
G03*
X344252867Y-149548457I-226466J845184D01*
G01*
X343853649Y-149681309D02*
G75*
G03*
X344293641Y-151323381I219996J-821036D01*
G01*
%TO.C,SW41*%
X264234866Y-104453335D02*
X263822707Y-104537891D01*
X264275640Y-106228261D02*
X264674858Y-106095409D01*
D11*
X260618348Y-99672018D02*
X263338755Y-100320005D01*
X260202417Y-102631519D02*
X262663900Y-103243115D01*
X257680809Y-99452677D02*
X260359425Y-99635628D01*
X257523784Y-102448560D02*
X259943494Y-102595129D01*
D10*
X254008900Y-107167493D02*
X253609682Y-107300345D01*
X254049674Y-108942419D02*
X254461833Y-108857863D01*
D11*
X262663900Y-103243114D02*
G75*
G03*
X263338755Y-100320006I337428J1461554D01*
G01*
D10*
X264674858Y-106095408D02*
G75*
G03*
X264234866Y-104453336I-219996J821036D01*
G01*
X263822707Y-104537892D02*
G75*
G03*
X264275640Y-106228260I226466J-845184D01*
G01*
D11*
X260618348Y-99672019D02*
G75*
G03*
X260359425Y-99635629I-337441J-1461634D01*
G01*
X260202417Y-102631519D02*
G75*
G03*
X259943494Y-102595129I-337442J-1461634D01*
G01*
X257680809Y-99452676D02*
G75*
G03*
X257523784Y-102448560I-78512J-1497942D01*
G01*
D10*
X254461833Y-108857862D02*
G75*
G03*
X254008900Y-107167494I-226466J845184D01*
G01*
X253609682Y-107300346D02*
G75*
G03*
X254049674Y-108942418I219996J-821036D01*
G01*
%TO.C,D14*%
X72215868Y-120758906D02*
X72992325Y-117861129D01*
X73993606Y-118181185D02*
X75152717Y-118491768D01*
X73243031Y-120982370D02*
X74402142Y-121292953D01*
X76179880Y-118715232D02*
X75403423Y-121613009D01*
X73958250Y-118119948D02*
G75*
G03*
X72992326Y-117861129I-482962J129410D01*
G01*
X72215869Y-120758906D02*
G75*
G03*
X73181793Y-121017725I482962J-129410D01*
G01*
X73243031Y-120982370D02*
G75*
G03*
X73181794Y-121017725I-12940J-48298D01*
G01*
X73958251Y-118119948D02*
G75*
G03*
X73993606Y-118181184I48297J-12940D01*
G01*
X74437496Y-121354190D02*
G75*
G03*
X74402142Y-121292954I-48295J12941D01*
G01*
X75152717Y-118491767D02*
G75*
G03*
X75213953Y-118456413I12941J48295D01*
G01*
X76179879Y-118715232D02*
G75*
G03*
X75213955Y-118456413I-482962J129410D01*
G01*
X74437498Y-121354190D02*
G75*
G03*
X75403422Y-121613009I482962J-129410D01*
G01*
%TO.C,D40*%
X279015587Y-100887524D02*
X279792044Y-103785301D01*
X278764881Y-104008765D02*
X277605770Y-104319348D01*
X278014306Y-101207580D02*
X276855195Y-101518163D01*
X276604489Y-104639404D02*
X275828032Y-101741627D01*
X278826118Y-104044120D02*
G75*
G03*
X279792044Y-103785301I482963J129409D01*
G01*
X279015587Y-100887524D02*
G75*
G03*
X278049661Y-101146343I-482963J-129409D01*
G01*
X278014306Y-101207579D02*
G75*
G03*
X278049661Y-101146343I-12942J48296D01*
G01*
X278826118Y-104044120D02*
G75*
G03*
X278764881Y-104008765I-48297J-12943D01*
G01*
X276793959Y-101482808D02*
G75*
G03*
X276855195Y-101518162I48295J12941D01*
G01*
X277605770Y-104319349D02*
G75*
G03*
X277570416Y-104380585I12941J-48295D01*
G01*
X276604489Y-104639404D02*
G75*
G03*
X277570415Y-104380585I482963J129409D01*
G01*
X276793958Y-101482808D02*
G75*
G03*
X275828032Y-101741627I-482963J-129409D01*
G01*
%TO.C,D25*%
X43337662Y-154930310D02*
X44114119Y-152032533D01*
X45115400Y-152352589D02*
X46274511Y-152663172D01*
X44364825Y-155153774D02*
X45523936Y-155464357D01*
X47301674Y-152886636D02*
X46525217Y-155784413D01*
X45080044Y-152291352D02*
G75*
G03*
X44114120Y-152032533I-482962J129410D01*
G01*
X43337663Y-154930310D02*
G75*
G03*
X44303587Y-155189129I482962J-129410D01*
G01*
X44364825Y-155153774D02*
G75*
G03*
X44303588Y-155189129I-12940J-48298D01*
G01*
X45080045Y-152291352D02*
G75*
G03*
X45115400Y-152352588I48297J-12940D01*
G01*
X45559290Y-155525594D02*
G75*
G03*
X45523936Y-155464358I-48295J12941D01*
G01*
X46274511Y-152663171D02*
G75*
G03*
X46335747Y-152627817I12941J48295D01*
G01*
X47301673Y-152886636D02*
G75*
G03*
X46335749Y-152627817I-482962J129410D01*
G01*
X45559292Y-155525594D02*
G75*
G03*
X46525216Y-155784413I482962J-129410D01*
G01*
%TO.C,D1*%
X63059684Y-81326752D02*
X63836141Y-78428975D01*
X64837422Y-78749031D02*
X65996533Y-79059614D01*
X64086847Y-81550216D02*
X65245958Y-81860799D01*
X67023696Y-79283078D02*
X66247239Y-82180855D01*
X64802066Y-78687794D02*
G75*
G03*
X63836142Y-78428975I-482962J129410D01*
G01*
X63059685Y-81326752D02*
G75*
G03*
X64025609Y-81585571I482962J-129410D01*
G01*
X64086847Y-81550216D02*
G75*
G03*
X64025610Y-81585571I-12940J-48298D01*
G01*
X64802067Y-78687794D02*
G75*
G03*
X64837422Y-78749030I48297J-12940D01*
G01*
X65281312Y-81922036D02*
G75*
G03*
X65245958Y-81860800I-48295J12941D01*
G01*
X65996533Y-79059613D02*
G75*
G03*
X66057769Y-79024259I12941J48295D01*
G01*
X67023695Y-79283078D02*
G75*
G03*
X66057771Y-79024259I-482962J129410D01*
G01*
X65281314Y-81922036D02*
G75*
G03*
X66247238Y-82180855I482962J-129410D01*
G01*
%TO.C,D22*%
X110310964Y-138543386D02*
X109534507Y-141441163D01*
X108533226Y-141121107D02*
X107374115Y-140810524D01*
X109283801Y-138319922D02*
X108124690Y-138009339D01*
X106346952Y-140587060D02*
X107123409Y-137689283D01*
X108568582Y-141182344D02*
G75*
G03*
X109534506Y-141441163I482962J-129410D01*
G01*
X110310963Y-138543386D02*
G75*
G03*
X109345039Y-138284567I-482962J129410D01*
G01*
X109283801Y-138319922D02*
G75*
G03*
X109345038Y-138284567I12940J48298D01*
G01*
X108568581Y-141182344D02*
G75*
G03*
X108533226Y-141121108I-48297J12940D01*
G01*
X108089336Y-137948102D02*
G75*
G03*
X108124690Y-138009338I48295J-12941D01*
G01*
X107374115Y-140810525D02*
G75*
G03*
X107312879Y-140845879I-12941J-48295D01*
G01*
X106346953Y-140587060D02*
G75*
G03*
X107312877Y-140845879I482962J-129410D01*
G01*
X108089334Y-137948102D02*
G75*
G03*
X107123410Y-137689283I-482962J129410D01*
G01*
%TO.C,D58*%
X281388568Y-171562806D02*
X280612111Y-168665029D01*
X281639274Y-168441565D02*
X282798385Y-168130982D01*
X282389849Y-171242750D02*
X283548960Y-170932167D01*
X283799666Y-167810926D02*
X284576123Y-170708703D01*
X281578037Y-168406210D02*
G75*
G03*
X280612111Y-168665029I-482963J-129409D01*
G01*
X281388568Y-171562806D02*
G75*
G03*
X282354494Y-171303987I482963J129409D01*
G01*
X282389849Y-171242751D02*
G75*
G03*
X282354494Y-171303987I12942J-48296D01*
G01*
X281578037Y-168406210D02*
G75*
G03*
X281639274Y-168441565I48297J12943D01*
G01*
X283610196Y-170967522D02*
G75*
G03*
X283548960Y-170932168I-48295J-12941D01*
G01*
X282798385Y-168130981D02*
G75*
G03*
X282833739Y-168069745I-12941J48295D01*
G01*
X283799666Y-167810926D02*
G75*
G03*
X282833740Y-168069745I-482963J-129409D01*
G01*
X283610197Y-170967522D02*
G75*
G03*
X284576123Y-170708703I482963J129409D01*
G01*
%TO.C,D71*%
X213444076Y-134816936D02*
X216215715Y-133668886D01*
X216571338Y-134658093D02*
X217030558Y-135766749D01*
X213892088Y-135767875D02*
X214351308Y-136876531D01*
X217478570Y-136717688D02*
X214706931Y-137865738D01*
X216598397Y-134592764D02*
G75*
G03*
X216215715Y-133668886I-191341J461939D01*
G01*
X213444077Y-134816937D02*
G75*
G03*
X213826759Y-135740815I191341J-461939D01*
G01*
X213892087Y-135767875D02*
G75*
G03*
X213826759Y-135740816I-46194J-19136D01*
G01*
X216598398Y-134592766D02*
G75*
G03*
X216571338Y-134658093I19136J-46194D01*
G01*
X214324248Y-136941858D02*
G75*
G03*
X214351307Y-136876531I-19134J46193D01*
G01*
X217030558Y-135766749D02*
G75*
G03*
X217095887Y-135793809I46194J19134D01*
G01*
X217478569Y-136717687D02*
G75*
G03*
X217095887Y-135793809I-191341J461939D01*
G01*
X214324249Y-136941860D02*
G75*
G03*
X214706931Y-137865738I191341J-461939D01*
G01*
%TO.C,D48*%
X246582167Y-139801628D02*
X245805710Y-136903851D01*
X246832873Y-136680387D02*
X247991984Y-136369804D01*
X247583448Y-139481572D02*
X248742559Y-139170989D01*
X248993265Y-136049748D02*
X249769722Y-138947525D01*
X246771636Y-136645032D02*
G75*
G03*
X245805710Y-136903851I-482963J-129409D01*
G01*
X246582167Y-139801628D02*
G75*
G03*
X247548093Y-139542809I482963J129409D01*
G01*
X247583448Y-139481573D02*
G75*
G03*
X247548093Y-139542809I12942J-48296D01*
G01*
X246771636Y-136645032D02*
G75*
G03*
X246832873Y-136680387I48297J12943D01*
G01*
X248803795Y-139206344D02*
G75*
G03*
X248742559Y-139170990I-48295J-12941D01*
G01*
X247991984Y-136369803D02*
G75*
G03*
X248027338Y-136308567I-12941J48295D01*
G01*
X248993265Y-136049748D02*
G75*
G03*
X248027339Y-136308567I-482963J-129409D01*
G01*
X248803796Y-139206344D02*
G75*
G03*
X249769722Y-138947525I482963J129409D01*
G01*
%TO.C,D36*%
X236721165Y-102999871D02*
X235944708Y-100102094D01*
X236971871Y-99878630D02*
X238130982Y-99568047D01*
X237722446Y-102679815D02*
X238881557Y-102369232D01*
X239132263Y-99247991D02*
X239908720Y-102145768D01*
X236910634Y-99843275D02*
G75*
G03*
X235944708Y-100102094I-482963J-129409D01*
G01*
X236721165Y-102999871D02*
G75*
G03*
X237687091Y-102741052I482963J129409D01*
G01*
X237722446Y-102679816D02*
G75*
G03*
X237687091Y-102741052I12942J-48296D01*
G01*
X236910634Y-99843275D02*
G75*
G03*
X236971871Y-99878630I48297J12943D01*
G01*
X238942793Y-102404587D02*
G75*
G03*
X238881557Y-102369233I-48295J-12941D01*
G01*
X238130982Y-99568046D02*
G75*
G03*
X238166336Y-99506810I-12941J48295D01*
G01*
X239132263Y-99247991D02*
G75*
G03*
X238166337Y-99506810I-482963J-129409D01*
G01*
X238942794Y-102404587D02*
G75*
G03*
X239908720Y-102145768I482963J129409D01*
G01*
%TO.C,SW50*%
X330531149Y-131063808D02*
X330118990Y-131148364D01*
X330571923Y-132838734D02*
X330971141Y-132705882D01*
D11*
X326914631Y-126282491D02*
X329635038Y-126930478D01*
X326498700Y-129241992D02*
X328960183Y-129853588D01*
X323977092Y-126063150D02*
X326655708Y-126246101D01*
X323820067Y-129059033D02*
X326239777Y-129205602D01*
D10*
X320305183Y-133777966D02*
X319905965Y-133910818D01*
X320345957Y-135552892D02*
X320758116Y-135468336D01*
D11*
X328960183Y-129853587D02*
G75*
G03*
X329635038Y-126930479I337428J1461554D01*
G01*
D10*
X330971141Y-132705881D02*
G75*
G03*
X330531149Y-131063809I-219996J821036D01*
G01*
X330118990Y-131148365D02*
G75*
G03*
X330571923Y-132838733I226466J-845184D01*
G01*
D11*
X326914631Y-126282492D02*
G75*
G03*
X326655708Y-126246102I-337441J-1461634D01*
G01*
X326498700Y-129241992D02*
G75*
G03*
X326239777Y-129205602I-337442J-1461634D01*
G01*
X323977092Y-126063149D02*
G75*
G03*
X323820067Y-129059033I-78512J-1497942D01*
G01*
D10*
X320758116Y-135468335D02*
G75*
G03*
X320305183Y-133777967I-226466J845184D01*
G01*
X319905965Y-133910819D02*
G75*
G03*
X320345957Y-135552891I219996J-821036D01*
G01*
%TO.C,D47*%
X264161315Y-131804331D02*
X263384858Y-128906554D01*
X264412021Y-128683090D02*
X265571132Y-128372507D01*
X265162596Y-131484275D02*
X266321707Y-131173692D01*
X266572413Y-128052451D02*
X267348870Y-130950228D01*
X264350784Y-128647735D02*
G75*
G03*
X263384858Y-128906554I-482963J-129409D01*
G01*
X264161315Y-131804331D02*
G75*
G03*
X265127241Y-131545512I482963J129409D01*
G01*
X265162596Y-131484276D02*
G75*
G03*
X265127241Y-131545512I12942J-48296D01*
G01*
X264350784Y-128647735D02*
G75*
G03*
X264412021Y-128683090I48297J12943D01*
G01*
X266382943Y-131209047D02*
G75*
G03*
X266321707Y-131173693I-48295J-12941D01*
G01*
X265571132Y-128372506D02*
G75*
G03*
X265606486Y-128311270I-12941J48295D01*
G01*
X266572413Y-128052451D02*
G75*
G03*
X265606487Y-128311270I-482963J-129409D01*
G01*
X266382944Y-131209047D02*
G75*
G03*
X267348870Y-130950228I482963J129409D01*
G01*
%TO.C,D26*%
X62354859Y-157560706D02*
X63131316Y-154662929D01*
X64132597Y-154982985D02*
X65291708Y-155293568D01*
X63382022Y-157784170D02*
X64541133Y-158094753D01*
X66318871Y-155517032D02*
X65542414Y-158414809D01*
X64097241Y-154921748D02*
G75*
G03*
X63131317Y-154662929I-482962J129410D01*
G01*
X62354860Y-157560706D02*
G75*
G03*
X63320784Y-157819525I482962J-129410D01*
G01*
X63382022Y-157784170D02*
G75*
G03*
X63320785Y-157819525I-12940J-48298D01*
G01*
X64097242Y-154921748D02*
G75*
G03*
X64132597Y-154982984I48297J-12940D01*
G01*
X64576487Y-158155990D02*
G75*
G03*
X64541133Y-158094754I-48295J12941D01*
G01*
X65291708Y-155293567D02*
G75*
G03*
X65352944Y-155258213I12941J48295D01*
G01*
X66318870Y-155517032D02*
G75*
G03*
X65352946Y-155258213I-482962J129410D01*
G01*
X64576489Y-158155990D02*
G75*
G03*
X65542413Y-158414809I482962J-129410D01*
G01*
%TO.C,D9*%
X100743885Y-100644641D02*
X99967428Y-103542418D01*
X98966147Y-103222362D02*
X97807036Y-102911779D01*
X99716722Y-100421177D02*
X98557611Y-100110594D01*
X96779873Y-102688315D02*
X97556330Y-99790538D01*
X99001503Y-103283599D02*
G75*
G03*
X99967427Y-103542418I482962J-129410D01*
G01*
X100743884Y-100644641D02*
G75*
G03*
X99777960Y-100385822I-482962J129410D01*
G01*
X99716722Y-100421177D02*
G75*
G03*
X99777959Y-100385822I12940J48298D01*
G01*
X99001502Y-103283599D02*
G75*
G03*
X98966147Y-103222363I-48297J12940D01*
G01*
X98522257Y-100049357D02*
G75*
G03*
X98557611Y-100110593I48295J-12941D01*
G01*
X97807036Y-102911780D02*
G75*
G03*
X97745800Y-102947134I-12941J-48295D01*
G01*
X96779874Y-102688315D02*
G75*
G03*
X97745798Y-102947134I482962J-129410D01*
G01*
X98522255Y-100049357D02*
G75*
G03*
X97556331Y-99790538I-482962J129410D01*
G01*
%TO.C,D59*%
X263374492Y-179490697D02*
X261874492Y-176892621D01*
X262808819Y-176410922D02*
X263848049Y-175810922D01*
X264258819Y-178922396D02*
X265298049Y-178322396D01*
X264732376Y-175242621D02*
X266232376Y-177840697D01*
X262740518Y-176392621D02*
G75*
G03*
X261874492Y-176892621I-433013J-250000D01*
G01*
X263374493Y-179490696D02*
G75*
G03*
X264240517Y-178990697I433012J249999D01*
G01*
X264258819Y-178922395D02*
G75*
G03*
X264240517Y-178990697I25001J-43302D01*
G01*
X262740518Y-176392620D02*
G75*
G03*
X262808819Y-176410921I43301J25000D01*
G01*
X265366350Y-178340698D02*
G75*
G03*
X265298049Y-178322397I-43301J-24999D01*
G01*
X263848049Y-175810922D02*
G75*
G03*
X263866350Y-175742621I-25000J43301D01*
G01*
X264732375Y-175242622D02*
G75*
G03*
X263866351Y-175742621I-433012J-249999D01*
G01*
X265366350Y-178340697D02*
G75*
G03*
X266232376Y-177840697I433013J250000D01*
G01*
%TO.C,SW56*%
X335461647Y-149464705D02*
X335049488Y-149549261D01*
X335502421Y-151239631D02*
X335901639Y-151106779D01*
D11*
X331845129Y-144683388D02*
X334565536Y-145331375D01*
X331429198Y-147642889D02*
X333890681Y-148254485D01*
X328907590Y-144464047D02*
X331586206Y-144646998D01*
X328750565Y-147459930D02*
X331170275Y-147606499D01*
D10*
X325235681Y-152178863D02*
X324836463Y-152311715D01*
X325276455Y-153953789D02*
X325688614Y-153869233D01*
D11*
X333890681Y-148254484D02*
G75*
G03*
X334565536Y-145331376I337428J1461554D01*
G01*
D10*
X335901639Y-151106778D02*
G75*
G03*
X335461647Y-149464706I-219996J821036D01*
G01*
X335049488Y-149549262D02*
G75*
G03*
X335502421Y-151239630I226466J-845184D01*
G01*
D11*
X331845129Y-144683389D02*
G75*
G03*
X331586206Y-144646999I-337441J-1461634D01*
G01*
X331429198Y-147642889D02*
G75*
G03*
X331170275Y-147606499I-337442J-1461634D01*
G01*
X328907590Y-144464046D02*
G75*
G03*
X328750565Y-147459930I-78512J-1497942D01*
G01*
D10*
X325688614Y-153869232D02*
G75*
G03*
X325235681Y-152178864I-226466J845184D01*
G01*
X324836463Y-152311716D02*
G75*
G03*
X325276455Y-153953788I219996J-821036D01*
G01*
%TO.C,SW45*%
X305967123Y-112993209D02*
X305554964Y-113077765D01*
X306007897Y-114768135D02*
X306407115Y-114635283D01*
D11*
X302350605Y-108211892D02*
X305071012Y-108859879D01*
X301934674Y-111171393D02*
X304396157Y-111782989D01*
X299413066Y-107992551D02*
X302091682Y-108175502D01*
X299256041Y-110988434D02*
X301675751Y-111135003D01*
D10*
X295741157Y-115707367D02*
X295341939Y-115840219D01*
X295781931Y-117482293D02*
X296194090Y-117397737D01*
D11*
X304396157Y-111782988D02*
G75*
G03*
X305071012Y-108859880I337428J1461554D01*
G01*
D10*
X306407115Y-114635282D02*
G75*
G03*
X305967123Y-112993210I-219996J821036D01*
G01*
X305554964Y-113077766D02*
G75*
G03*
X306007897Y-114768134I226466J-845184D01*
G01*
D11*
X302350605Y-108211893D02*
G75*
G03*
X302091682Y-108175503I-337441J-1461634D01*
G01*
X301934674Y-111171393D02*
G75*
G03*
X301675751Y-111135003I-337442J-1461634D01*
G01*
X299413066Y-107992550D02*
G75*
G03*
X299256041Y-110988434I-78512J-1497942D01*
G01*
D10*
X296194090Y-117397736D02*
G75*
G03*
X295741157Y-115707368I-226466J845184D01*
G01*
X295341939Y-115840220D02*
G75*
G03*
X295781931Y-117482292I219996J-821036D01*
G01*
%TO.C,D39*%
X298443676Y-99790558D02*
X299220133Y-102688335D01*
X298192970Y-102911799D02*
X297033859Y-103222382D01*
X297442395Y-100110614D02*
X296283284Y-100421197D01*
X296032578Y-103542438D02*
X295256121Y-100644661D01*
X298254207Y-102947154D02*
G75*
G03*
X299220133Y-102688335I482963J129409D01*
G01*
X298443676Y-99790558D02*
G75*
G03*
X297477750Y-100049377I-482963J-129409D01*
G01*
X297442395Y-100110613D02*
G75*
G03*
X297477750Y-100049377I-12942J48296D01*
G01*
X298254207Y-102947154D02*
G75*
G03*
X298192970Y-102911799I-48297J-12943D01*
G01*
X296222048Y-100385842D02*
G75*
G03*
X296283284Y-100421196I48295J12941D01*
G01*
X297033859Y-103222383D02*
G75*
G03*
X296998505Y-103283619I12941J-48295D01*
G01*
X296032578Y-103542438D02*
G75*
G03*
X296998504Y-103283619I482963J129409D01*
G01*
X296222047Y-100385842D02*
G75*
G03*
X295256121Y-100644661I-482963J-129409D01*
G01*
%TO.C,D17*%
X128651165Y-130950240D02*
X129427622Y-128052463D01*
X130428903Y-128372519D02*
X131588014Y-128683102D01*
X129678328Y-131173704D02*
X130837439Y-131484287D01*
X132615177Y-128906566D02*
X131838720Y-131804343D01*
X130393547Y-128311282D02*
G75*
G03*
X129427623Y-128052463I-482962J129410D01*
G01*
X128651166Y-130950240D02*
G75*
G03*
X129617090Y-131209059I482962J-129410D01*
G01*
X129678328Y-131173704D02*
G75*
G03*
X129617091Y-131209059I-12940J-48298D01*
G01*
X130393548Y-128311282D02*
G75*
G03*
X130428903Y-128372518I48297J-12940D01*
G01*
X130872793Y-131545524D02*
G75*
G03*
X130837439Y-131484288I-48295J12941D01*
G01*
X131588014Y-128683101D02*
G75*
G03*
X131649250Y-128647747I12941J48295D01*
G01*
X132615176Y-128906566D02*
G75*
G03*
X131649252Y-128647747I-482962J129410D01*
G01*
X130872795Y-131545524D02*
G75*
G03*
X131838719Y-131804343I482962J-129410D01*
G01*
%TO.C,D67*%
X182555923Y-151183120D02*
X179784284Y-152331170D01*
X179428661Y-151341963D02*
X178969441Y-150233307D01*
X182107911Y-150232181D02*
X181648691Y-149123525D01*
X178521429Y-149282368D02*
X181293068Y-148134318D01*
X179401602Y-151407292D02*
G75*
G03*
X179784284Y-152331170I191341J-461939D01*
G01*
X182555922Y-151183119D02*
G75*
G03*
X182173240Y-150259241I-191341J461939D01*
G01*
X182107912Y-150232181D02*
G75*
G03*
X182173240Y-150259240I46194J19136D01*
G01*
X179401601Y-151407290D02*
G75*
G03*
X179428661Y-151341963I-19136J46194D01*
G01*
X181675751Y-149058198D02*
G75*
G03*
X181648692Y-149123525I19134J-46193D01*
G01*
X178969441Y-150233307D02*
G75*
G03*
X178904112Y-150206247I-46194J-19134D01*
G01*
X178521430Y-149282369D02*
G75*
G03*
X178904112Y-150206247I191341J-461939D01*
G01*
X181675750Y-149058196D02*
G75*
G03*
X181293068Y-148134318I-191341J461939D01*
G01*
%TO.C,D4*%
X121138458Y-85384405D02*
X121914915Y-82486628D01*
X122916196Y-82806684D02*
X124075307Y-83117267D01*
X122165621Y-85607869D02*
X123324732Y-85918452D01*
X125102470Y-83340731D02*
X124326013Y-86238508D01*
X122880840Y-82745447D02*
G75*
G03*
X121914916Y-82486628I-482962J129410D01*
G01*
X121138459Y-85384405D02*
G75*
G03*
X122104383Y-85643224I482962J-129410D01*
G01*
X122165621Y-85607869D02*
G75*
G03*
X122104384Y-85643224I-12940J-48298D01*
G01*
X122880841Y-82745447D02*
G75*
G03*
X122916196Y-82806683I48297J-12940D01*
G01*
X123360086Y-85979689D02*
G75*
G03*
X123324732Y-85918453I-48295J12941D01*
G01*
X124075307Y-83117266D02*
G75*
G03*
X124136543Y-83081912I12941J48295D01*
G01*
X125102469Y-83340731D02*
G75*
G03*
X124136545Y-83081912I-482962J129410D01*
G01*
X123360088Y-85979689D02*
G75*
G03*
X124326012Y-86238508I482962J-129410D01*
G01*
%TO.C,D46*%
X281534991Y-123040287D02*
X280758534Y-120142510D01*
X281785697Y-119919046D02*
X282944808Y-119608463D01*
X282536272Y-122720231D02*
X283695383Y-122409648D01*
X283946089Y-119288407D02*
X284722546Y-122186184D01*
X281724460Y-119883691D02*
G75*
G03*
X280758534Y-120142510I-482963J-129409D01*
G01*
X281534991Y-123040287D02*
G75*
G03*
X282500917Y-122781468I482963J129409D01*
G01*
X282536272Y-122720232D02*
G75*
G03*
X282500917Y-122781468I12942J-48296D01*
G01*
X281724460Y-119883691D02*
G75*
G03*
X281785697Y-119919046I48297J12943D01*
G01*
X283756619Y-122445003D02*
G75*
G03*
X283695383Y-122409649I-48295J-12941D01*
G01*
X282944808Y-119608462D02*
G75*
G03*
X282980162Y-119547226I-12941J48295D01*
G01*
X283946089Y-119288407D02*
G75*
G03*
X282980163Y-119547226I-482963J-129409D01*
G01*
X283756620Y-122445003D02*
G75*
G03*
X284722546Y-122186184I482963J129409D01*
G01*
%TO.C,D19*%
X52232190Y-134485752D02*
X51455733Y-137383529D01*
X50454452Y-137063473D02*
X49295341Y-136752890D01*
X51205027Y-134262288D02*
X50045916Y-133951705D01*
X48268178Y-136529426D02*
X49044635Y-133631649D01*
X50489808Y-137124710D02*
G75*
G03*
X51455732Y-137383529I482962J-129410D01*
G01*
X52232189Y-134485752D02*
G75*
G03*
X51266265Y-134226933I-482962J129410D01*
G01*
X51205027Y-134262288D02*
G75*
G03*
X51266264Y-134226933I12940J48298D01*
G01*
X50489807Y-137124710D02*
G75*
G03*
X50454452Y-137063474I-48297J12940D01*
G01*
X50010562Y-133890468D02*
G75*
G03*
X50045916Y-133951704I48295J-12941D01*
G01*
X49295341Y-136752891D02*
G75*
G03*
X49234105Y-136788245I-12941J-48295D01*
G01*
X48268179Y-136529426D02*
G75*
G03*
X49234103Y-136788245I482962J-129410D01*
G01*
X50010560Y-133890468D02*
G75*
G03*
X49044636Y-133631649I-482962J129410D01*
G01*
%TO.C,D6*%
X156091287Y-102145755D02*
X156867744Y-99247978D01*
X157869025Y-99568034D02*
X159028136Y-99878617D01*
X157118450Y-102369219D02*
X158277561Y-102679802D01*
X160055299Y-100102081D02*
X159278842Y-102999858D01*
X157833669Y-99506797D02*
G75*
G03*
X156867745Y-99247978I-482962J129410D01*
G01*
X156091288Y-102145755D02*
G75*
G03*
X157057212Y-102404574I482962J-129410D01*
G01*
X157118450Y-102369219D02*
G75*
G03*
X157057213Y-102404574I-12940J-48298D01*
G01*
X157833670Y-99506797D02*
G75*
G03*
X157869025Y-99568033I48297J-12940D01*
G01*
X158312915Y-102741039D02*
G75*
G03*
X158277561Y-102679803I-48295J12941D01*
G01*
X159028136Y-99878616D02*
G75*
G03*
X159089372Y-99843262I12941J48295D01*
G01*
X160055298Y-100102081D02*
G75*
G03*
X159089374Y-99843262I-482962J129410D01*
G01*
X158312917Y-102741039D02*
G75*
G03*
X159278841Y-102999858I482962J-129410D01*
G01*
%TO.C,SW44*%
X325600645Y-112662915D02*
X325188486Y-112747471D01*
X325641419Y-114437841D02*
X326040637Y-114304989D01*
D11*
X321984127Y-107881598D02*
X324704534Y-108529585D01*
X321568196Y-110841099D02*
X324029679Y-111452695D01*
X319046588Y-107662257D02*
X321725204Y-107845208D01*
X318889563Y-110658140D02*
X321309273Y-110804709D01*
D10*
X315374679Y-115377073D02*
X314975461Y-115509925D01*
X315415453Y-117151999D02*
X315827612Y-117067443D01*
D11*
X324029679Y-111452694D02*
G75*
G03*
X324704534Y-108529586I337428J1461554D01*
G01*
D10*
X326040637Y-114304988D02*
G75*
G03*
X325600645Y-112662916I-219996J821036D01*
G01*
X325188486Y-112747472D02*
G75*
G03*
X325641419Y-114437840I226466J-845184D01*
G01*
D11*
X321984127Y-107881599D02*
G75*
G03*
X321725204Y-107845209I-337441J-1461634D01*
G01*
X321568196Y-110841099D02*
G75*
G03*
X321309273Y-110804709I-337442J-1461634D01*
G01*
X319046588Y-107662256D02*
G75*
G03*
X318889563Y-110658140I-78512J-1497942D01*
G01*
D10*
X315827612Y-117067442D02*
G75*
G03*
X315374679Y-115377074I-226466J845184D01*
G01*
X314975461Y-115509926D02*
G75*
G03*
X315415453Y-117151998I219996J-821036D01*
G01*
%TO.C,SW60*%
X247884706Y-181557803D02*
X247570043Y-181837110D01*
X248807480Y-183074547D02*
X249086787Y-182759884D01*
D11*
X242362050Y-179225319D02*
X245041986Y-178426289D01*
X243481594Y-181996288D02*
X245919099Y-181295204D01*
X239708397Y-180504134D02*
X242119622Y-179323266D01*
X241070351Y-183177157D02*
X243239165Y-182094235D01*
D10*
X240385838Y-189021315D02*
X240106531Y-189335978D01*
X241308612Y-190538059D02*
X241623275Y-190258752D01*
D11*
X245919099Y-181295204D02*
G75*
G03*
X245041986Y-178426289I-438557J1434457D01*
G01*
D10*
X249086787Y-182759884D02*
G75*
G03*
X247884706Y-181557803I-601041J601040D01*
G01*
X247570043Y-181837110D02*
G75*
G03*
X248807480Y-183074547I618718J-618719D01*
G01*
D11*
X242362051Y-179225320D02*
G75*
G03*
X242119622Y-179323267I438584J-1434533D01*
G01*
X243481594Y-181996288D02*
G75*
G03*
X243239165Y-182094235I438584J-1434533D01*
G01*
X239708397Y-180504135D02*
G75*
G03*
X241070351Y-183177157I680977J-1336511D01*
G01*
D10*
X241623275Y-190258752D02*
G75*
G03*
X240385838Y-189021315I-618718J618719D01*
G01*
X240106531Y-189335978D02*
G75*
G03*
X241308612Y-190538059I601041J-601040D01*
G01*
%TO.C,SW54*%
X256516718Y-149252412D02*
X256104559Y-149336968D01*
X256557492Y-151027338D02*
X256956710Y-150894486D01*
D11*
X252900200Y-144471095D02*
X255620607Y-145119082D01*
X252484269Y-147430596D02*
X254945752Y-148042192D01*
X249962661Y-144251754D02*
X252641277Y-144434705D01*
X249805636Y-147247637D02*
X252225346Y-147394206D01*
D10*
X246290752Y-151966570D02*
X245891534Y-152099422D01*
X246331526Y-153741496D02*
X246743685Y-153656940D01*
D11*
X254945752Y-148042191D02*
G75*
G03*
X255620607Y-145119083I337428J1461554D01*
G01*
D10*
X256956710Y-150894485D02*
G75*
G03*
X256516718Y-149252413I-219996J821036D01*
G01*
X256104559Y-149336969D02*
G75*
G03*
X256557492Y-151027337I226466J-845184D01*
G01*
D11*
X252900200Y-144471096D02*
G75*
G03*
X252641277Y-144434706I-337441J-1461634D01*
G01*
X252484269Y-147430596D02*
G75*
G03*
X252225346Y-147394206I-337442J-1461634D01*
G01*
X249962661Y-144251753D02*
G75*
G03*
X249805636Y-147247637I-78512J-1497942D01*
G01*
D10*
X246743685Y-153656939D02*
G75*
G03*
X246290752Y-151966571I-226466J845184D01*
G01*
X245891534Y-152099423D02*
G75*
G03*
X246331526Y-153741495I219996J-821036D01*
G01*
%TO.C,D24*%
X145263794Y-155304762D02*
X144487337Y-158202539D01*
X143486056Y-157882483D02*
X142326945Y-157571900D01*
X144236631Y-155081298D02*
X143077520Y-154770715D01*
X141299782Y-157348436D02*
X142076239Y-154450659D01*
X143521412Y-157943720D02*
G75*
G03*
X144487336Y-158202539I482962J-129410D01*
G01*
X145263793Y-155304762D02*
G75*
G03*
X144297869Y-155045943I-482962J129410D01*
G01*
X144236631Y-155081298D02*
G75*
G03*
X144297868Y-155045943I12940J48298D01*
G01*
X143521411Y-157943720D02*
G75*
G03*
X143486056Y-157882484I-48297J12940D01*
G01*
X143042166Y-154709478D02*
G75*
G03*
X143077520Y-154770714I48295J-12941D01*
G01*
X142326945Y-157571901D02*
G75*
G03*
X142265709Y-157607255I-12941J-48295D01*
G01*
X141299783Y-157348436D02*
G75*
G03*
X142265707Y-157607255I482962J-129410D01*
G01*
X143042164Y-154709478D02*
G75*
G03*
X142076240Y-154450659I-482962J129410D01*
G01*
%TO.C,D37*%
X337094366Y-96829870D02*
X337870823Y-99727647D01*
X336843660Y-99951111D02*
X335684549Y-100261694D01*
X336093085Y-97149926D02*
X334933974Y-97460509D01*
X334683268Y-100581750D02*
X333906811Y-97683973D01*
X336904897Y-99986466D02*
G75*
G03*
X337870823Y-99727647I482963J129409D01*
G01*
X337094366Y-96829870D02*
G75*
G03*
X336128440Y-97088689I-482963J-129409D01*
G01*
X336093085Y-97149925D02*
G75*
G03*
X336128440Y-97088689I-12942J48296D01*
G01*
X336904897Y-99986466D02*
G75*
G03*
X336843660Y-99951111I-48297J-12943D01*
G01*
X334872738Y-97425154D02*
G75*
G03*
X334933974Y-97460508I48295J12941D01*
G01*
X335684549Y-100261695D02*
G75*
G03*
X335649195Y-100322931I12941J-48295D01*
G01*
X334683268Y-100581750D02*
G75*
G03*
X335649194Y-100322931I482963J129409D01*
G01*
X334872737Y-97425154D02*
G75*
G03*
X333906811Y-97683973I-482963J-129409D01*
G01*
%TO.C,SW40*%
X281608541Y-95689295D02*
X281196382Y-95773851D01*
X281649315Y-97464221D02*
X282048533Y-97331369D01*
D11*
X277992023Y-90907978D02*
X280712430Y-91555965D01*
X277576092Y-93867479D02*
X280037575Y-94479075D01*
X275054484Y-90688637D02*
X277733100Y-90871588D01*
X274897459Y-93684520D02*
X277317169Y-93831089D01*
D10*
X271382575Y-98403453D02*
X270983357Y-98536305D01*
X271423349Y-100178379D02*
X271835508Y-100093823D01*
D11*
X280037575Y-94479074D02*
G75*
G03*
X280712430Y-91555966I337428J1461554D01*
G01*
D10*
X282048533Y-97331368D02*
G75*
G03*
X281608541Y-95689296I-219996J821036D01*
G01*
X281196382Y-95773852D02*
G75*
G03*
X281649315Y-97464220I226466J-845184D01*
G01*
D11*
X277992023Y-90907979D02*
G75*
G03*
X277733100Y-90871589I-337441J-1461634D01*
G01*
X277576092Y-93867479D02*
G75*
G03*
X277317169Y-93831089I-337442J-1461634D01*
G01*
X275054484Y-90688636D02*
G75*
G03*
X274897459Y-93684520I-78512J-1497942D01*
G01*
D10*
X271835508Y-100093822D02*
G75*
G03*
X271382575Y-98403454I-226466J845184D01*
G01*
X270983357Y-98536306D02*
G75*
G03*
X271423349Y-100178378I219996J-821036D01*
G01*
%TO.C,D15*%
X91849379Y-121089201D02*
X92625836Y-118191424D01*
X93627117Y-118511480D02*
X94786228Y-118822063D01*
X92876542Y-121312665D02*
X94035653Y-121623248D01*
X95813391Y-119045527D02*
X95036934Y-121943304D01*
X93591761Y-118450243D02*
G75*
G03*
X92625837Y-118191424I-482962J129410D01*
G01*
X91849380Y-121089201D02*
G75*
G03*
X92815304Y-121348020I482962J-129410D01*
G01*
X92876542Y-121312665D02*
G75*
G03*
X92815305Y-121348020I-12940J-48298D01*
G01*
X93591762Y-118450243D02*
G75*
G03*
X93627117Y-118511479I48297J-12940D01*
G01*
X94071007Y-121684485D02*
G75*
G03*
X94035653Y-121623249I-48295J12941D01*
G01*
X94786228Y-118822062D02*
G75*
G03*
X94847464Y-118786708I12941J48295D01*
G01*
X95813390Y-119045527D02*
G75*
G03*
X94847466Y-118786708I-482962J129410D01*
G01*
X94071009Y-121684485D02*
G75*
G03*
X95036933Y-121943304I482962J-129410D01*
G01*
%TO.C,SW31*%
X334756830Y-73230753D02*
X334344671Y-73315309D01*
X334797604Y-75005679D02*
X335196822Y-74872827D01*
D11*
X331140312Y-68449436D02*
X333860719Y-69097423D01*
X330724381Y-71408937D02*
X333185864Y-72020533D01*
X328202773Y-68230095D02*
X330881389Y-68413046D01*
X328045748Y-71225978D02*
X330465458Y-71372547D01*
D10*
X324530864Y-75944911D02*
X324131646Y-76077763D01*
X324571638Y-77719837D02*
X324983797Y-77635281D01*
D11*
X333185864Y-72020532D02*
G75*
G03*
X333860719Y-69097424I337428J1461554D01*
G01*
D10*
X335196822Y-74872826D02*
G75*
G03*
X334756830Y-73230754I-219996J821036D01*
G01*
X334344671Y-73315310D02*
G75*
G03*
X334797604Y-75005678I226466J-845184D01*
G01*
D11*
X331140312Y-68449437D02*
G75*
G03*
X330881389Y-68413047I-337441J-1461634D01*
G01*
X330724381Y-71408937D02*
G75*
G03*
X330465458Y-71372547I-337442J-1461634D01*
G01*
X328202773Y-68230094D02*
G75*
G03*
X328045748Y-71225978I-78512J-1497942D01*
G01*
D10*
X324983797Y-77635280D02*
G75*
G03*
X324530864Y-75944912I-226466J845184D01*
G01*
X324131646Y-76077764D02*
G75*
G03*
X324571638Y-77719836I219996J-821036D01*
G01*
%TO.C,D49*%
X346955386Y-133631659D02*
X347731843Y-136529436D01*
X346704680Y-136752900D02*
X345545569Y-137063483D01*
X345954105Y-133951715D02*
X344794994Y-134262298D01*
X344544288Y-137383539D02*
X343767831Y-134485762D01*
X346765917Y-136788255D02*
G75*
G03*
X347731843Y-136529436I482963J129409D01*
G01*
X346955386Y-133631659D02*
G75*
G03*
X345989460Y-133890478I-482963J-129409D01*
G01*
X345954105Y-133951714D02*
G75*
G03*
X345989460Y-133890478I-12942J48296D01*
G01*
X346765917Y-136788255D02*
G75*
G03*
X346704680Y-136752900I-48297J-12943D01*
G01*
X344733758Y-134226943D02*
G75*
G03*
X344794994Y-134262297I48295J12941D01*
G01*
X345545569Y-137063484D02*
G75*
G03*
X345510215Y-137124720I12941J-48295D01*
G01*
X344544288Y-137383539D02*
G75*
G03*
X345510214Y-137124720I482963J129409D01*
G01*
X344733757Y-134226943D02*
G75*
G03*
X343767831Y-134485762I-482963J-129409D01*
G01*
%TO.C,D8*%
X81110379Y-100314357D02*
X80333922Y-103212134D01*
X79332641Y-102892078D02*
X78173530Y-102581495D01*
X80083216Y-100090893D02*
X78924105Y-99780310D01*
X77146367Y-102358031D02*
X77922824Y-99460254D01*
X79367997Y-102953315D02*
G75*
G03*
X80333921Y-103212134I482962J-129410D01*
G01*
X81110378Y-100314357D02*
G75*
G03*
X80144454Y-100055538I-482962J129410D01*
G01*
X80083216Y-100090893D02*
G75*
G03*
X80144453Y-100055538I12940J48298D01*
G01*
X79367996Y-102953315D02*
G75*
G03*
X79332641Y-102892079I-48297J12940D01*
G01*
X78888751Y-99719073D02*
G75*
G03*
X78924105Y-99780309I48295J-12941D01*
G01*
X78173530Y-102581496D02*
G75*
G03*
X78112294Y-102616850I-12941J-48295D01*
G01*
X77146368Y-102358031D02*
G75*
G03*
X78112292Y-102616850I482962J-129410D01*
G01*
X78888749Y-99719073D02*
G75*
G03*
X77922825Y-99460254I-482962J129410D01*
G01*
%TO.C,D16*%
X111277439Y-122186184D02*
X112053896Y-119288407D01*
X113055177Y-119608463D02*
X114214288Y-119919046D01*
X112304602Y-122409648D02*
X113463713Y-122720231D01*
X115241451Y-120142510D02*
X114464994Y-123040287D01*
X113019821Y-119547226D02*
G75*
G03*
X112053897Y-119288407I-482962J129410D01*
G01*
X111277440Y-122186184D02*
G75*
G03*
X112243364Y-122445003I482962J-129410D01*
G01*
X112304602Y-122409648D02*
G75*
G03*
X112243365Y-122445003I-12940J-48298D01*
G01*
X113019822Y-119547226D02*
G75*
G03*
X113055177Y-119608462I48297J-12940D01*
G01*
X113499067Y-122781468D02*
G75*
G03*
X113463713Y-122720232I-48295J12941D01*
G01*
X114214288Y-119919045D02*
G75*
G03*
X114275524Y-119883691I12941J48295D01*
G01*
X115241450Y-120142510D02*
G75*
G03*
X114275526Y-119883691I-482962J129410D01*
G01*
X113499069Y-122781468D02*
G75*
G03*
X114464993Y-123040287I482962J-129410D01*
G01*
%TO.C,SW35*%
X259304340Y-86052452D02*
X258892181Y-86137008D01*
X259345114Y-87827378D02*
X259744332Y-87694526D01*
D11*
X255687822Y-81271135D02*
X258408229Y-81919122D01*
X255271891Y-84230636D02*
X257733374Y-84842232D01*
X252750283Y-81051794D02*
X255428899Y-81234745D01*
X252593258Y-84047677D02*
X255012968Y-84194246D01*
D10*
X249078374Y-88766610D02*
X248679156Y-88899462D01*
X249119148Y-90541536D02*
X249531307Y-90456980D01*
D11*
X257733374Y-84842231D02*
G75*
G03*
X258408229Y-81919123I337428J1461554D01*
G01*
D10*
X259744332Y-87694525D02*
G75*
G03*
X259304340Y-86052453I-219996J821036D01*
G01*
X258892181Y-86137009D02*
G75*
G03*
X259345114Y-87827377I226466J-845184D01*
G01*
D11*
X255687822Y-81271136D02*
G75*
G03*
X255428899Y-81234746I-337441J-1461634D01*
G01*
X255271891Y-84230636D02*
G75*
G03*
X255012968Y-84194246I-337442J-1461634D01*
G01*
X252750283Y-81051793D02*
G75*
G03*
X252593258Y-84047677I-78512J-1497942D01*
G01*
D10*
X249531307Y-90456979D02*
G75*
G03*
X249078374Y-88766611I-226466J845184D01*
G01*
X248679156Y-88899463D02*
G75*
G03*
X249119148Y-90541535I219996J-821036D01*
G01*
%TO.C,SW53*%
X274095855Y-141255104D02*
X273683696Y-141339660D01*
X274136629Y-143030030D02*
X274535847Y-142897178D01*
D11*
X270479337Y-136473787D02*
X273199744Y-137121774D01*
X270063406Y-139433288D02*
X272524889Y-140044884D01*
X267541798Y-136254446D02*
X270220414Y-136437397D01*
X267384773Y-139250329D02*
X269804483Y-139396898D01*
D10*
X263869889Y-143969262D02*
X263470671Y-144102114D01*
X263910663Y-145744188D02*
X264322822Y-145659632D01*
D11*
X272524889Y-140044883D02*
G75*
G03*
X273199744Y-137121775I337428J1461554D01*
G01*
D10*
X274535847Y-142897177D02*
G75*
G03*
X274095855Y-141255105I-219996J821036D01*
G01*
X273683696Y-141339661D02*
G75*
G03*
X274136629Y-143030029I226466J-845184D01*
G01*
D11*
X270479337Y-136473788D02*
G75*
G03*
X270220414Y-136437398I-337441J-1461634D01*
G01*
X270063406Y-139433288D02*
G75*
G03*
X269804483Y-139396898I-337442J-1461634D01*
G01*
X267541798Y-136254445D02*
G75*
G03*
X267384773Y-139250329I-78512J-1497942D01*
G01*
D10*
X264322822Y-145659631D02*
G75*
G03*
X263869889Y-143969263I-226466J845184D01*
G01*
X263470671Y-144102115D02*
G75*
G03*
X263910663Y-145744187I219996J-821036D01*
G01*
%TO.C,D21*%
X90882882Y-137446427D02*
X90106425Y-140344204D01*
X89105144Y-140024148D02*
X87946033Y-139713565D01*
X89855719Y-137222963D02*
X88696608Y-136912380D01*
X86918870Y-139490101D02*
X87695327Y-136592324D01*
X89140500Y-140085385D02*
G75*
G03*
X90106424Y-140344204I482962J-129410D01*
G01*
X90882881Y-137446427D02*
G75*
G03*
X89916957Y-137187608I-482962J129410D01*
G01*
X89855719Y-137222963D02*
G75*
G03*
X89916956Y-137187608I12940J48298D01*
G01*
X89140499Y-140085385D02*
G75*
G03*
X89105144Y-140024149I-48297J12940D01*
G01*
X88661254Y-136851143D02*
G75*
G03*
X88696608Y-136912379I48295J-12941D01*
G01*
X87946033Y-139713566D02*
G75*
G03*
X87884797Y-139748920I-12941J-48295D01*
G01*
X86918871Y-139490101D02*
G75*
G03*
X87884795Y-139748920I482962J-129410D01*
G01*
X88661252Y-136851143D02*
G75*
G03*
X87695328Y-136592324I-482962J129410D01*
G01*
%TO.C,SW42*%
X246655715Y-112450646D02*
X246243556Y-112535202D01*
X246696489Y-114225572D02*
X247095707Y-114092720D01*
D11*
X243039197Y-107669329D02*
X245759604Y-108317316D01*
X242623266Y-110628830D02*
X245084749Y-111240426D01*
X240101658Y-107449988D02*
X242780274Y-107632939D01*
X239944633Y-110445871D02*
X242364343Y-110592440D01*
D10*
X236429749Y-115164804D02*
X236030531Y-115297656D01*
X236470523Y-116939730D02*
X236882682Y-116855174D01*
D11*
X245084749Y-111240425D02*
G75*
G03*
X245759604Y-108317317I337428J1461554D01*
G01*
D10*
X247095707Y-114092719D02*
G75*
G03*
X246655715Y-112450647I-219996J821036D01*
G01*
X246243556Y-112535203D02*
G75*
G03*
X246696489Y-114225571I226466J-845184D01*
G01*
D11*
X243039197Y-107669330D02*
G75*
G03*
X242780274Y-107632940I-337441J-1461634D01*
G01*
X242623266Y-110628830D02*
G75*
G03*
X242364343Y-110592440I-337442J-1461634D01*
G01*
X240101658Y-107449987D02*
G75*
G03*
X239944633Y-110445871I-78512J-1497942D01*
G01*
D10*
X236882682Y-116855173D02*
G75*
G03*
X236429749Y-115164805I-226466J845184D01*
G01*
X236030531Y-115297657D02*
G75*
G03*
X236470523Y-116939729I219996J-821036D01*
G01*
%TO.C,D7*%
X62093189Y-97683975D02*
X61316732Y-100581752D01*
X60315451Y-100261696D02*
X59156340Y-99951113D01*
X61066026Y-97460511D02*
X59906915Y-97149928D01*
X58129177Y-99727649D02*
X58905634Y-96829872D01*
X60350807Y-100322933D02*
G75*
G03*
X61316731Y-100581752I482962J-129410D01*
G01*
X62093188Y-97683975D02*
G75*
G03*
X61127264Y-97425156I-482962J129410D01*
G01*
X61066026Y-97460511D02*
G75*
G03*
X61127263Y-97425156I12940J48298D01*
G01*
X60350806Y-100322933D02*
G75*
G03*
X60315451Y-100261697I-48297J12940D01*
G01*
X59871561Y-97088691D02*
G75*
G03*
X59906915Y-97149927I48295J-12941D01*
G01*
X59156340Y-99951114D02*
G75*
G03*
X59095104Y-99986468I-12941J-48295D01*
G01*
X58129178Y-99727649D02*
G75*
G03*
X59095102Y-99986468I482962J-129410D01*
G01*
X59871559Y-97088691D02*
G75*
G03*
X58905635Y-96829872I-482962J129410D01*
G01*
%TO.C,D41*%
X261641909Y-109651567D02*
X262418366Y-112549344D01*
X261391203Y-112772808D02*
X260232092Y-113083391D01*
X260640628Y-109971623D02*
X259481517Y-110282206D01*
X259230811Y-113403447D02*
X258454354Y-110505670D01*
X261452440Y-112808163D02*
G75*
G03*
X262418366Y-112549344I482963J129409D01*
G01*
X261641909Y-109651567D02*
G75*
G03*
X260675983Y-109910386I-482963J-129409D01*
G01*
X260640628Y-109971622D02*
G75*
G03*
X260675983Y-109910386I-12942J48296D01*
G01*
X261452440Y-112808163D02*
G75*
G03*
X261391203Y-112772808I-48297J-12943D01*
G01*
X259420281Y-110246851D02*
G75*
G03*
X259481517Y-110282205I48295J12941D01*
G01*
X260232092Y-113083392D02*
G75*
G03*
X260196738Y-113144628I12941J-48295D01*
G01*
X259230811Y-113403447D02*
G75*
G03*
X260196737Y-113144628I482963J129409D01*
G01*
X259420280Y-110246851D02*
G75*
G03*
X258454354Y-110505670I-482963J-129409D01*
G01*
%TO.C,D68*%
X192865711Y-159706957D02*
X191717661Y-162478596D01*
X190766722Y-162030584D02*
X189658066Y-161571364D01*
X191876504Y-159351334D02*
X190767848Y-158892114D01*
X188668859Y-161215741D02*
X189816909Y-158444102D01*
X190793781Y-162095913D02*
G75*
G03*
X191717661Y-162478596I461940J-191341D01*
G01*
X192865712Y-159706957D02*
G75*
G03*
X191941832Y-159324274I-461940J191341D01*
G01*
X191876504Y-159351334D02*
G75*
G03*
X191941831Y-159324274I19133J46196D01*
G01*
X190793781Y-162095913D02*
G75*
G03*
X190766722Y-162030585I-46195J19134D01*
G01*
X190740789Y-158826786D02*
G75*
G03*
X190767848Y-158892113I46193J-19134D01*
G01*
X189658066Y-161571365D02*
G75*
G03*
X189592739Y-161598424I-19134J-46193D01*
G01*
X188668858Y-161215741D02*
G75*
G03*
X189592738Y-161598424I461940J-191341D01*
G01*
X190740789Y-158826785D02*
G75*
G03*
X189816909Y-158444102I-461940J191341D01*
G01*
%TO.C,D35*%
X254300287Y-95002564D02*
X253523830Y-92104787D01*
X254550993Y-91881323D02*
X255710104Y-91570740D01*
X255301568Y-94682508D02*
X256460679Y-94371925D01*
X256711385Y-91250684D02*
X257487842Y-94148461D01*
X254489756Y-91845968D02*
G75*
G03*
X253523830Y-92104787I-482963J-129409D01*
G01*
X254300287Y-95002564D02*
G75*
G03*
X255266213Y-94743745I482963J129409D01*
G01*
X255301568Y-94682509D02*
G75*
G03*
X255266213Y-94743745I12942J-48296D01*
G01*
X254489756Y-91845968D02*
G75*
G03*
X254550993Y-91881323I48297J12943D01*
G01*
X256521915Y-94407280D02*
G75*
G03*
X256460679Y-94371926I-48295J-12941D01*
G01*
X255710104Y-91570739D02*
G75*
G03*
X255745458Y-91509503I-12941J48295D01*
G01*
X256711385Y-91250684D02*
G75*
G03*
X255745459Y-91509503I-482963J-129409D01*
G01*
X256521916Y-94407280D02*
G75*
G03*
X257487842Y-94148461I482963J129409D01*
G01*
%TD*%
M02*
