%TF.GenerationSoftware,KiCad,Pcbnew,7.0.1*%
%TF.CreationDate,2023-04-08T12:31:42+01:00*%
%TF.ProjectId,Honeydew,486f6e65-7964-4657-972e-6b696361645f,rev?*%
%TF.SameCoordinates,Original*%
%TF.FileFunction,Soldermask,Bot*%
%TF.FilePolarity,Negative*%
%FSLAX46Y46*%
G04 Gerber Fmt 4.6, Leading zero omitted, Abs format (unit mm)*
G04 Created by KiCad (PCBNEW 7.0.1) date 2023-04-08 12:31:42*
%MOMM*%
%LPD*%
G01*
G04 APERTURE LIST*
G04 Aperture macros list*
%AMRoundRect*
0 Rectangle with rounded corners*
0 $1 Rounding radius*
0 $2 $3 $4 $5 $6 $7 $8 $9 X,Y pos of 4 corners*
0 Add a 4 corners polygon primitive as box body*
4,1,4,$2,$3,$4,$5,$6,$7,$8,$9,$2,$3,0*
0 Add four circle primitives for the rounded corners*
1,1,$1+$1,$2,$3*
1,1,$1+$1,$4,$5*
1,1,$1+$1,$6,$7*
1,1,$1+$1,$8,$9*
0 Add four rect primitives between the rounded corners*
20,1,$1+$1,$2,$3,$4,$5,0*
20,1,$1+$1,$4,$5,$6,$7,0*
20,1,$1+$1,$6,$7,$8,$9,0*
20,1,$1+$1,$8,$9,$2,$3,0*%
%AMHorizOval*
0 Thick line with rounded ends*
0 $1 width*
0 $2 $3 position (X,Y) of the first rounded end (center of the circle)*
0 $4 $5 position (X,Y) of the second rounded end (center of the circle)*
0 Add line between two ends*
20,1,$1,$2,$3,$4,$5,0*
0 Add two circle primitives to create the rounded ends*
1,1,$1,$2,$3*
1,1,$1,$4,$5*%
%AMRotRect*
0 Rectangle, with rotation*
0 The origin of the aperture is its center*
0 $1 length*
0 $2 width*
0 $3 Rotation angle, in degrees counterclockwise*
0 Add horizontal line*
21,1,$1,$2,0,0,$3*%
G04 Aperture macros list end*
%ADD10C,0.100000*%
%ADD11RoundRect,0.250000X0.650000X-0.325000X0.650000X0.325000X-0.650000X0.325000X-0.650000X-0.325000X0*%
%ADD12R,1.700000X1.700000*%
%ADD13O,1.700000X1.700000*%
%ADD14C,4.000000*%
%ADD15C,2.000000*%
%ADD16R,2.500000X6.000000*%
%ADD17C,3.500000*%
%ADD18C,5.600000*%
%ADD19C,1.152000*%
%ADD20RotRect,1.700000X1.700000X285.000000*%
%ADD21HorizOval,1.700000X0.000000X0.000000X0.000000X0.000000X0*%
%ADD22RoundRect,0.250000X0.625000X-0.350000X0.625000X0.350000X-0.625000X0.350000X-0.625000X-0.350000X0*%
%ADD23O,1.750000X1.200000*%
%ADD24C,1.750000*%
%ADD25C,3.000000*%
%ADD26C,3.987800*%
%ADD27RotRect,2.550000X2.500000X150.000000*%
%ADD28RotRect,2.550000X2.500000X135.000000*%
%ADD29RotRect,2.550000X2.500000X165.000000*%
%ADD30RotRect,2.550000X2.500000X195.000000*%
%ADD31RoundRect,0.112500X-0.157195X0.151994X-0.060138X-0.210228X0.157195X-0.151994X0.060138X0.210228X0*%
%ADD32R,0.300000X1.300000*%
%ADD33R,1.800000X2.200000*%
%ADD34R,2.550000X2.500000*%
%ADD35RoundRect,0.140000X0.206244X0.077224X-0.036244X0.217224X-0.206244X-0.077224X0.036244X-0.217224X0*%
%ADD36RoundRect,0.150000X-0.150000X0.512500X-0.150000X-0.512500X0.150000X-0.512500X0.150000X0.512500X0*%
%ADD37RoundRect,0.112500X-0.060138X0.210228X-0.157195X-0.151994X0.060138X-0.210228X0.157195X0.151994X0*%
%ADD38RoundRect,0.140000X0.091230X0.200442X-0.179229X0.127973X-0.091230X-0.200442X0.179229X-0.127973X0*%
%ADD39RoundRect,0.140000X0.179229X0.127973X-0.091230X0.200442X-0.179229X-0.127973X0.091230X-0.200442X0*%
%ADD40RoundRect,0.140000X-0.140000X-0.170000X0.140000X-0.170000X0.140000X0.170000X-0.140000X0.170000X0*%
%ADD41RoundRect,0.140000X0.036244X0.217224X-0.206244X0.077224X-0.036244X-0.217224X0.206244X-0.077224X0*%
%ADD42RotRect,1.700000X1.000000X345.000000*%
%ADD43R,1.700000X1.000000*%
%ADD44RoundRect,0.225000X-0.250000X0.225000X-0.250000X-0.225000X0.250000X-0.225000X0.250000X0.225000X0*%
%ADD45RoundRect,0.135000X0.135000X0.185000X-0.135000X0.185000X-0.135000X-0.185000X0.135000X-0.185000X0*%
%ADD46RotRect,1.700000X1.000000X15.000000*%
%ADD47RoundRect,0.140000X-0.091230X-0.200442X0.179229X-0.127973X0.091230X0.200442X-0.179229X0.127973X0*%
%ADD48RotRect,1.700000X1.000000X315.000000*%
%ADD49RotRect,1.700000X1.000000X165.000000*%
%ADD50RotRect,1.700000X1.000000X330.000000*%
%ADD51RotRect,1.700000X1.000000X195.000000*%
%ADD52RoundRect,0.140000X-0.179229X-0.127973X0.091230X-0.200442X0.179229X0.127973X-0.091230X0.200442X0*%
%ADD53RoundRect,0.140000X-0.170000X0.140000X-0.170000X-0.140000X0.170000X-0.140000X0.170000X0.140000X0*%
%ADD54RoundRect,0.225000X0.225000X0.250000X-0.225000X0.250000X-0.225000X-0.250000X0.225000X-0.250000X0*%
%ADD55RoundRect,0.140000X0.170000X-0.140000X0.170000X0.140000X-0.170000X0.140000X-0.170000X-0.140000X0*%
%ADD56RoundRect,0.218750X0.381250X-0.218750X0.381250X0.218750X-0.381250X0.218750X-0.381250X-0.218750X0*%
%ADD57RoundRect,0.112500X0.187500X0.112500X-0.187500X0.112500X-0.187500X-0.112500X0.187500X-0.112500X0*%
%ADD58RoundRect,0.225000X0.250000X-0.225000X0.250000X0.225000X-0.250000X0.225000X-0.250000X-0.225000X0*%
%ADD59R,1.500000X2.000000*%
%ADD60R,3.800000X2.000000*%
%ADD61R,1.000000X1.700000*%
%ADD62C,0.650000*%
%ADD63R,0.550000X1.450000*%
%ADD64R,0.300000X1.450000*%
%ADD65O,1.000000X1.600000*%
%ADD66O,1.000000X2.100000*%
%ADD67RoundRect,0.140000X0.021213X-0.219203X0.219203X-0.021213X-0.021213X0.219203X-0.219203X0.021213X0*%
%ADD68R,1.000000X0.800000*%
%ADD69C,0.900000*%
%ADD70R,0.700000X1.500000*%
%ADD71RoundRect,0.135000X0.185000X-0.135000X0.185000X0.135000X-0.185000X0.135000X-0.185000X-0.135000X0*%
%ADD72RoundRect,0.225000X-0.225000X-0.250000X0.225000X-0.250000X0.225000X0.250000X-0.225000X0.250000X0*%
%ADD73RoundRect,0.135000X-0.185000X0.135000X-0.185000X-0.135000X0.185000X-0.135000X0.185000X0.135000X0*%
%ADD74R,1.200000X1.200000*%
%ADD75C,1.200000*%
%ADD76RoundRect,0.050000X0.387500X0.050000X-0.387500X0.050000X-0.387500X-0.050000X0.387500X-0.050000X0*%
%ADD77RoundRect,0.050000X0.050000X0.387500X-0.050000X0.387500X-0.050000X-0.387500X0.050000X-0.387500X0*%
%ADD78R,3.200000X3.200000*%
%ADD79RoundRect,0.150000X0.150000X-0.587500X0.150000X0.587500X-0.150000X0.587500X-0.150000X-0.587500X0*%
%ADD80C,0.750000*%
%ADD81R,1.550000X1.000000*%
%ADD82RoundRect,0.150000X-0.200000X0.150000X-0.200000X-0.150000X0.200000X-0.150000X0.200000X0.150000X0*%
%ADD83RoundRect,0.135000X-0.135000X-0.185000X0.135000X-0.185000X0.135000X0.185000X-0.135000X0.185000X0*%
%ADD84RoundRect,0.150000X0.650000X0.150000X-0.650000X0.150000X-0.650000X-0.150000X0.650000X-0.150000X0*%
%ADD85RoundRect,0.075000X-0.075000X0.350000X-0.075000X-0.350000X0.075000X-0.350000X0.075000X0.350000X0*%
%ADD86R,2.400000X1.600000*%
%ADD87RoundRect,0.150000X0.512500X0.150000X-0.512500X0.150000X-0.512500X-0.150000X0.512500X-0.150000X0*%
%ADD88R,1.000000X1.500000*%
%ADD89R,0.300000X0.550000*%
%ADD90RoundRect,0.050000X0.375000X0.050000X-0.375000X0.050000X-0.375000X-0.050000X0.375000X-0.050000X0*%
%ADD91RoundRect,0.050000X0.050000X0.275000X-0.050000X0.275000X-0.050000X-0.275000X0.050000X-0.275000X0*%
%ADD92RoundRect,0.140000X0.140000X0.170000X-0.140000X0.170000X-0.140000X-0.170000X0.140000X-0.170000X0*%
%ADD93RoundRect,0.140000X0.219203X0.021213X0.021213X0.219203X-0.219203X-0.021213X-0.021213X-0.219203X0*%
%ADD94RotRect,2.550000X2.500000X210.000000*%
%ADD95RotRect,1.700000X1.000000X210.000000*%
%ADD96RoundRect,0.218750X-0.218750X-0.381250X0.218750X-0.381250X0.218750X0.381250X-0.218750X0.381250X0*%
%ADD97RoundRect,0.112500X-0.212132X0.053033X0.053033X-0.212132X0.212132X-0.053033X-0.053033X0.212132X0*%
%ADD98RotRect,1.700000X1.000000X150.000000*%
%ADD99RoundRect,0.112500X-0.112500X0.187500X-0.112500X-0.187500X0.112500X-0.187500X0.112500X0.187500X0*%
%ADD100RotRect,1.700000X1.000000X30.000000*%
%ADD101RoundRect,0.112500X-0.191178X0.106130X-0.003678X-0.218630X0.191178X-0.106130X0.003678X0.218630X0*%
%ADD102R,1.200000X1.400000*%
%ADD103RoundRect,0.140000X-0.206244X-0.077224X0.036244X-0.217224X0.206244X0.077224X-0.036244X0.217224X0*%
%ADD104RotRect,2.550000X2.500000X225.000000*%
%ADD105RoundRect,0.112500X-0.003678X0.218630X-0.191178X-0.106130X0.003678X-0.218630X0.191178X0.106130X0*%
%ADD106RotRect,1.700000X1.000000X45.000000*%
%ADD107RoundRect,0.112500X0.053033X0.212132X-0.212132X-0.053033X-0.053033X-0.212132X0.212132X0.053033X0*%
%ADD108RoundRect,0.140000X-0.036244X-0.217224X0.206244X-0.077224X0.036244X0.217224X-0.206244X0.077224X0*%
G04 APERTURE END LIST*
%TO.C,D103*%
D10*
X155885933Y-161027287D02*
X155627114Y-161993213D01*
X153985040Y-161553220D01*
X154153272Y-160925368D01*
X154581933Y-160677881D01*
X155885933Y-161027287D01*
G36*
X155885933Y-161027287D02*
G01*
X155627114Y-161993213D01*
X153985040Y-161553220D01*
X154153272Y-160925368D01*
X154581933Y-160677881D01*
X155885933Y-161027287D01*
G37*
%TO.C,D104*%
X178099790Y-165459400D02*
X176399790Y-165459400D01*
X176399790Y-164809400D01*
X176749790Y-164459400D01*
X178099790Y-164459400D01*
X178099790Y-165459400D01*
G36*
X178099790Y-165459400D02*
G01*
X176399790Y-165459400D01*
X176399790Y-164809400D01*
X176749790Y-164459400D01*
X178099790Y-164459400D01*
X178099790Y-165459400D01*
G37*
%TO.C,D105*%
X200727135Y-162970088D02*
X199085061Y-163410080D01*
X198916829Y-162782229D01*
X199164316Y-162353568D01*
X200468316Y-162004162D01*
X200727135Y-162970088D01*
G36*
X200727135Y-162970088D02*
G01*
X199085061Y-163410080D01*
X198916829Y-162782229D01*
X199164316Y-162353568D01*
X200468316Y-162004162D01*
X200727135Y-162970088D01*
G37*
%TO.C,D125*%
X292077913Y-116369007D02*
X290435839Y-116808999D01*
X290267607Y-116181148D01*
X290515094Y-115752487D01*
X291819094Y-115403081D01*
X292077913Y-116369007D01*
G36*
X292077913Y-116369007D02*
G01*
X290435839Y-116808999D01*
X290267607Y-116181148D01*
X290515094Y-115752487D01*
X291819094Y-115403081D01*
X292077913Y-116369007D01*
G37*
%TO.C,D75*%
X35720716Y-74657114D02*
X35461897Y-75623040D01*
X33819823Y-75183047D01*
X33988055Y-74555195D01*
X34416716Y-74307708D01*
X35720716Y-74657114D01*
G36*
X35720716Y-74657114D02*
G01*
X35461897Y-75623040D01*
X33819823Y-75183047D01*
X33988055Y-74555195D01*
X34416716Y-74307708D01*
X35720716Y-74657114D01*
G37*
%TO.C,D102*%
X130568398Y-147261637D02*
X129861291Y-147968744D01*
X128659210Y-146766662D01*
X129118829Y-146307043D01*
X129613804Y-146307043D01*
X130568398Y-147261637D01*
G36*
X130568398Y-147261637D02*
G01*
X129861291Y-147968744D01*
X128659210Y-146766662D01*
X129118829Y-146307043D01*
X129613804Y-146307043D01*
X130568398Y-147261637D01*
G37*
%TO.C,D81*%
X54757636Y-98464195D02*
X54589404Y-99092047D01*
X54160743Y-99339534D01*
X52856743Y-98990128D01*
X53115562Y-98024202D01*
X54757636Y-98464195D01*
G36*
X54757636Y-98464195D02*
G01*
X54589404Y-99092047D01*
X54160743Y-99339534D01*
X52856743Y-98990128D01*
X53115562Y-98024202D01*
X54757636Y-98464195D01*
G37*
%TO.C,D106*%
X217975006Y-60623783D02*
X216332932Y-61063775D01*
X216164700Y-60435924D01*
X216412187Y-60007263D01*
X217716187Y-59657857D01*
X217975006Y-60623783D01*
G36*
X217975006Y-60623783D02*
G01*
X216332932Y-61063775D01*
X216164700Y-60435924D01*
X216412187Y-60007263D01*
X217716187Y-59657857D01*
X217975006Y-60623783D01*
G37*
%TO.C,D67*%
X189054544Y-95517065D02*
X188554544Y-96383090D01*
X187082301Y-95533090D01*
X187407301Y-94970173D01*
X187885409Y-94842065D01*
X189054544Y-95517065D01*
G36*
X189054544Y-95517065D02*
G01*
X188554544Y-96383090D01*
X187082301Y-95533090D01*
X187407301Y-94970173D01*
X187885409Y-94842065D01*
X189054544Y-95517065D01*
G37*
%TO.C,D101*%
X128772062Y-116652799D02*
X128603830Y-117280651D01*
X128175169Y-117528138D01*
X126871169Y-117178732D01*
X127129988Y-116212806D01*
X128772062Y-116652799D01*
G36*
X128772062Y-116652799D02*
G01*
X128603830Y-117280651D01*
X128175169Y-117528138D01*
X126871169Y-117178732D01*
X127129988Y-116212806D01*
X128772062Y-116652799D01*
G37*
%TO.C,D134*%
X331382461Y-94598166D02*
X331134974Y-95026827D01*
X329830974Y-95376233D01*
X329572155Y-94410307D01*
X331214229Y-93970315D01*
X331382461Y-94598166D01*
G36*
X331382461Y-94598166D02*
G01*
X331134974Y-95026827D01*
X329830974Y-95376233D01*
X329572155Y-94410307D01*
X331214229Y-93970315D01*
X331382461Y-94598166D01*
G37*
%TO.C,D78*%
X64598913Y-40485729D02*
X64340094Y-41451655D01*
X62698020Y-41011662D01*
X62866252Y-40383810D01*
X63294913Y-40136323D01*
X64598913Y-40485729D01*
G36*
X64598913Y-40485729D02*
G01*
X64340094Y-41451655D01*
X62698020Y-41011662D01*
X62866252Y-40383810D01*
X63294913Y-40136323D01*
X64598913Y-40485729D01*
G37*
%TO.C,D98*%
X138613316Y-58674344D02*
X138354497Y-59640270D01*
X136712423Y-59200277D01*
X136880655Y-58572425D01*
X137309316Y-58324938D01*
X138613316Y-58674344D01*
G36*
X138613316Y-58674344D02*
G01*
X138354497Y-59640270D01*
X136712423Y-59200277D01*
X136880655Y-58572425D01*
X137309316Y-58324938D01*
X138613316Y-58674344D01*
G37*
%TO.C,D90*%
X93799490Y-78714772D02*
X93540671Y-79680698D01*
X91898597Y-79240705D01*
X92066829Y-78612853D01*
X92495490Y-78365366D01*
X93799490Y-78714772D01*
G36*
X93799490Y-78714772D02*
G01*
X93540671Y-79680698D01*
X91898597Y-79240705D01*
X92066829Y-78612853D01*
X92495490Y-78365366D01*
X93799490Y-78714772D01*
G37*
%TO.C,D100*%
X128752314Y-95476110D02*
X128493495Y-96442036D01*
X126851421Y-96002043D01*
X127019653Y-95374191D01*
X127448314Y-95126704D01*
X128752314Y-95476110D01*
G36*
X128752314Y-95476110D02*
G01*
X128493495Y-96442036D01*
X126851421Y-96002043D01*
X127019653Y-95374191D01*
X127448314Y-95126704D01*
X128752314Y-95476110D01*
G37*
%TO.C,D87*%
X64510401Y-114419555D02*
X64251582Y-115385481D01*
X62609508Y-114945488D01*
X62777740Y-114317636D01*
X63206401Y-114070149D01*
X64510401Y-114419555D01*
G36*
X64510401Y-114419555D02*
G01*
X64251582Y-115385481D01*
X62609508Y-114945488D01*
X62777740Y-114317636D01*
X63206401Y-114070149D01*
X64510401Y-114419555D01*
G37*
%TO.C,D68*%
X201400007Y-111749988D02*
X201400007Y-113099988D01*
X200400007Y-113099988D01*
X200400007Y-111399988D01*
X201050007Y-111399988D01*
X201400007Y-111749988D01*
G36*
X201400007Y-111749988D02*
G01*
X201400007Y-113099988D01*
X200400007Y-113099988D01*
X200400007Y-111399988D01*
X201050007Y-111399988D01*
X201400007Y-111749988D01*
G37*
%TO.C,D84*%
X84252158Y-61992691D02*
X84083926Y-62620543D01*
X83655265Y-62868030D01*
X82351265Y-62518624D01*
X82610084Y-61552698D01*
X84252158Y-61992691D01*
G36*
X84252158Y-61992691D02*
G01*
X84083926Y-62620543D01*
X83655265Y-62868030D01*
X82351265Y-62518624D01*
X82610084Y-61552698D01*
X84252158Y-61992691D01*
G37*
%TO.C,D91*%
X93819242Y-99891442D02*
X93651010Y-100519294D01*
X93222349Y-100766781D01*
X91918349Y-100417375D01*
X92177168Y-99451449D01*
X93819242Y-99891442D01*
G36*
X93819242Y-99891442D02*
G01*
X93651010Y-100519294D01*
X93222349Y-100766781D01*
X91918349Y-100417375D01*
X92177168Y-99451449D01*
X93819242Y-99891442D01*
G37*
%TO.C,D83*%
X84232418Y-40816011D02*
X83973599Y-41781937D01*
X82331525Y-41341944D01*
X82499757Y-40714092D01*
X82928418Y-40466605D01*
X84232418Y-40816011D01*
G36*
X84232418Y-40816011D02*
G01*
X83973599Y-41781937D01*
X82331525Y-41341944D01*
X82499757Y-40714092D01*
X82928418Y-40466605D01*
X84232418Y-40816011D01*
G37*
%TO.C,D95*%
X111173203Y-87478821D02*
X110914384Y-88444747D01*
X109272310Y-88004754D01*
X109440542Y-87376902D01*
X109869203Y-87129415D01*
X111173203Y-87478821D01*
G36*
X111173203Y-87478821D02*
G01*
X110914384Y-88444747D01*
X109272310Y-88004754D01*
X109440542Y-87376902D01*
X109869203Y-87129415D01*
X111173203Y-87478821D01*
G37*
%TO.C,D86*%
X74391148Y-98794475D02*
X74222916Y-99422327D01*
X73794255Y-99669814D01*
X72490255Y-99320408D01*
X72749074Y-98354482D01*
X74391148Y-98794475D01*
G36*
X74391148Y-98794475D02*
G01*
X74222916Y-99422327D01*
X73794255Y-99669814D01*
X72490255Y-99320408D01*
X72749074Y-98354482D01*
X74391148Y-98794475D01*
G37*
%TO.C,D129*%
X312365272Y-97228556D02*
X312117785Y-97657217D01*
X310813785Y-98006623D01*
X310554966Y-97040697D01*
X312197040Y-96600705D01*
X312365272Y-97228556D01*
G36*
X312365272Y-97228556D02*
G01*
X312117785Y-97657217D01*
X310813785Y-98006623D01*
X310554966Y-97040697D01*
X312197040Y-96600705D01*
X312365272Y-97228556D01*
G37*
%TO.C,D93*%
X121034195Y-50677006D02*
X120775376Y-51642932D01*
X119133302Y-51202939D01*
X119301534Y-50575087D01*
X119730195Y-50327600D01*
X121034195Y-50677006D01*
G36*
X121034195Y-50677006D02*
G01*
X120775376Y-51642932D01*
X119133302Y-51202939D01*
X119301534Y-50575087D01*
X119730195Y-50327600D01*
X121034195Y-50677006D01*
G37*
%TO.C,D127*%
X302504273Y-60426755D02*
X302256786Y-60855416D01*
X300952786Y-61204822D01*
X300693967Y-60238896D01*
X302336041Y-59798904D01*
X302504273Y-60426755D01*
G36*
X302504273Y-60426755D02*
G01*
X302256786Y-60855416D01*
X300952786Y-61204822D01*
X300693967Y-60238896D01*
X302336041Y-59798904D01*
X302504273Y-60426755D01*
G37*
%TO.C,D130*%
X311711430Y-116038740D02*
X310069356Y-116478732D01*
X309901124Y-115850881D01*
X310148611Y-115422220D01*
X311452611Y-115072814D01*
X311711430Y-116038740D01*
G36*
X311711430Y-116038740D02*
G01*
X310069356Y-116478732D01*
X309901124Y-115850881D01*
X310148611Y-115422220D01*
X311452611Y-115072814D01*
X311711430Y-116038740D01*
G37*
%TO.C,D124*%
X292731763Y-97558827D02*
X292484276Y-97987488D01*
X291180276Y-98336894D01*
X290921457Y-97370968D01*
X292563531Y-96930976D01*
X292731763Y-97558827D01*
G36*
X292731763Y-97558827D02*
G01*
X292484276Y-97987488D01*
X291180276Y-98336894D01*
X290921457Y-97370968D01*
X292563531Y-96930976D01*
X292731763Y-97558827D01*
G37*
%TO.C,D107*%
X228489848Y-78615386D02*
X228242361Y-79044047D01*
X226938361Y-79393453D01*
X226679542Y-78427527D01*
X228321616Y-77987535D01*
X228489848Y-78615386D01*
G36*
X228489848Y-78615386D02*
G01*
X228242361Y-79044047D01*
X226938361Y-79393453D01*
X226679542Y-78427527D01*
X228321616Y-77987535D01*
X228489848Y-78615386D01*
G37*
%TO.C,D85*%
X74371413Y-77617778D02*
X74112594Y-78583704D01*
X72470520Y-78143711D01*
X72638752Y-77515859D01*
X73067413Y-77268372D01*
X74371413Y-77617778D01*
G36*
X74371413Y-77617778D02*
G01*
X74112594Y-78583704D01*
X72470520Y-78143711D01*
X72638752Y-77515859D01*
X73067413Y-77268372D01*
X74371413Y-77617778D01*
G37*
%TO.C,D92*%
X93945942Y-127237270D02*
X93687123Y-128203196D01*
X92045049Y-127763203D01*
X92213281Y-127135351D01*
X92641942Y-126887864D01*
X93945942Y-127237270D01*
G36*
X93945942Y-127237270D02*
G01*
X93687123Y-128203196D01*
X92045049Y-127763203D01*
X92213281Y-127135351D01*
X92641942Y-126887864D01*
X93945942Y-127237270D01*
G37*
%TO.C,D73*%
X45581711Y-37855332D02*
X45322892Y-38821258D01*
X43680818Y-38381265D01*
X43849050Y-37753413D01*
X44277711Y-37505926D01*
X45581711Y-37855332D01*
G36*
X45581711Y-37855332D02*
G01*
X45322892Y-38821258D01*
X43680818Y-38381265D01*
X43849050Y-37753413D01*
X44277711Y-37505926D01*
X45581711Y-37855332D01*
G37*
%TO.C,D108*%
X227835988Y-97425550D02*
X226193914Y-97865542D01*
X226025682Y-97237691D01*
X226273169Y-96809030D01*
X227577169Y-96459624D01*
X227835988Y-97425550D01*
G36*
X227835988Y-97425550D02*
G01*
X226193914Y-97865542D01*
X226025682Y-97237691D01*
X226273169Y-96809030D01*
X227577169Y-96459624D01*
X227835988Y-97425550D01*
G37*
%TO.C,D112*%
X246068986Y-70618074D02*
X245821499Y-71046735D01*
X244517499Y-71396141D01*
X244258680Y-70430215D01*
X245900754Y-69990223D01*
X246068986Y-70618074D01*
G36*
X246068986Y-70618074D02*
G01*
X245821499Y-71046735D01*
X244517499Y-71396141D01*
X244258680Y-70430215D01*
X245900754Y-69990223D01*
X246068986Y-70618074D01*
G37*
%TO.C,D131*%
X311006605Y-39804775D02*
X309364531Y-40244767D01*
X309196299Y-39616916D01*
X309443786Y-39188255D01*
X310747786Y-38838849D01*
X311006605Y-39804775D01*
G36*
X311006605Y-39804775D02*
G01*
X309364531Y-40244767D01*
X309196299Y-39616916D01*
X309443786Y-39188255D01*
X310747786Y-38838849D01*
X311006605Y-39804775D01*
G37*
%TO.C,D76*%
X35740465Y-95833818D02*
X35572233Y-96461670D01*
X35143572Y-96709157D01*
X33839572Y-96359751D01*
X34098391Y-95393825D01*
X35740465Y-95833818D01*
G36*
X35740465Y-95833818D02*
G01*
X35572233Y-96461670D01*
X35143572Y-96709157D01*
X33839572Y-96359751D01*
X34098391Y-95393825D01*
X35740465Y-95833818D01*
G37*
%TO.C,D89*%
X103680246Y-63089670D02*
X103512014Y-63717522D01*
X103083353Y-63965009D01*
X101779353Y-63615603D01*
X102038172Y-62649677D01*
X103680246Y-63089670D01*
G36*
X103680246Y-63089670D02*
G01*
X103512014Y-63717522D01*
X103083353Y-63965009D01*
X101779353Y-63615603D01*
X102038172Y-62649677D01*
X103680246Y-63089670D01*
G37*
%TO.C,D117*%
X263442677Y-61854032D02*
X263195190Y-62282693D01*
X261891190Y-62632099D01*
X261632371Y-61666173D01*
X263274445Y-61226181D01*
X263442677Y-61854032D01*
G36*
X263442677Y-61854032D02*
G01*
X263195190Y-62282693D01*
X261891190Y-62632099D01*
X261632371Y-61666173D01*
X263274445Y-61226181D01*
X263442677Y-61854032D01*
G37*
%TO.C,D96*%
X111192944Y-108655475D02*
X111024712Y-109283327D01*
X110596051Y-109530814D01*
X109292051Y-109181408D01*
X109550870Y-108215482D01*
X111192944Y-108655475D01*
G36*
X111192944Y-108655475D02*
G01*
X111024712Y-109283327D01*
X110596051Y-109530814D01*
X109292051Y-109181408D01*
X109550870Y-108215482D01*
X111192944Y-108655475D01*
G37*
%TO.C,D77*%
X25859704Y-111458889D02*
X25600885Y-112424815D01*
X23958811Y-111984822D01*
X24127043Y-111356970D01*
X24555704Y-111109483D01*
X25859704Y-111458889D01*
G36*
X25859704Y-111458889D02*
G01*
X25600885Y-112424815D01*
X23958811Y-111984822D01*
X24127043Y-111356970D01*
X24555704Y-111109483D01*
X25859704Y-111458889D01*
G37*
%TO.C,D113*%
X245415138Y-89428239D02*
X243773064Y-89868231D01*
X243604832Y-89240380D01*
X243852319Y-88811719D01*
X245156319Y-88462313D01*
X245415138Y-89428239D01*
G36*
X245415138Y-89428239D02*
G01*
X243773064Y-89868231D01*
X243604832Y-89240380D01*
X243852319Y-88811719D01*
X245156319Y-88462313D01*
X245415138Y-89428239D01*
G37*
%TO.C,D71*%
X159599989Y-118600006D02*
X158949989Y-118600006D01*
X158599989Y-118250006D01*
X158599989Y-116900006D01*
X159599989Y-116900006D01*
X159599989Y-118600006D01*
G36*
X159599989Y-118600006D02*
G01*
X158949989Y-118600006D01*
X158599989Y-118250006D01*
X158599989Y-116900006D01*
X159599989Y-116900006D01*
X159599989Y-118600006D01*
G37*
%TO.C,D82*%
X44876900Y-114089273D02*
X44618081Y-115055199D01*
X42976007Y-114615206D01*
X43144239Y-113987354D01*
X43572900Y-113739867D01*
X44876900Y-114089273D01*
G36*
X44876900Y-114089273D02*
G01*
X44618081Y-115055199D01*
X42976007Y-114615206D01*
X43144239Y-113987354D01*
X43572900Y-113739867D01*
X44876900Y-114089273D01*
G37*
%TO.C,D132*%
X321521466Y-57796384D02*
X321273979Y-58225045D01*
X319969979Y-58574451D01*
X319711160Y-57608525D01*
X321353234Y-57168533D01*
X321521466Y-57796384D01*
G36*
X321521466Y-57796384D02*
G01*
X321273979Y-58225045D01*
X319969979Y-58574451D01*
X319711160Y-57608525D01*
X321353234Y-57168533D01*
X321521466Y-57796384D01*
G37*
%TO.C,D69*%
X193642700Y-131429827D02*
X193514592Y-131907935D01*
X192345457Y-132582935D01*
X191845457Y-131716910D01*
X193317700Y-130866910D01*
X193642700Y-131429827D01*
G36*
X193642700Y-131429827D02*
G01*
X193514592Y-131907935D01*
X192345457Y-132582935D01*
X191845457Y-131716910D01*
X193317700Y-130866910D01*
X193642700Y-131429827D01*
G37*
%TO.C,D122*%
X282870745Y-60757064D02*
X282623258Y-61185725D01*
X281319258Y-61535131D01*
X281060439Y-60569205D01*
X282702513Y-60129213D01*
X282870745Y-60757064D01*
G36*
X282870745Y-60757064D02*
G01*
X282623258Y-61185725D01*
X281319258Y-61535131D01*
X281060439Y-60569205D01*
X282702513Y-60129213D01*
X282870745Y-60757064D01*
G37*
%TO.C,D99*%
X138633081Y-79851013D02*
X138464849Y-80478865D01*
X138036188Y-80726352D01*
X136732188Y-80376946D01*
X136991007Y-79411020D01*
X138633081Y-79851013D01*
G36*
X138633081Y-79851013D02*
G01*
X138464849Y-80478865D01*
X138036188Y-80726352D01*
X136732188Y-80376946D01*
X136991007Y-79411020D01*
X138633081Y-79851013D01*
G37*
%TO.C,D80*%
X54737924Y-77287499D02*
X54479105Y-78253425D01*
X52837031Y-77813432D01*
X53005263Y-77185580D01*
X53433924Y-76938093D01*
X54737924Y-77287499D01*
G36*
X54737924Y-77287499D02*
G01*
X54479105Y-78253425D01*
X52837031Y-77813432D01*
X53005263Y-77185580D01*
X53433924Y-76938093D01*
X54737924Y-77287499D01*
G37*
%TO.C,D109*%
X238350847Y-115417157D02*
X238103360Y-115845818D01*
X236799360Y-116195224D01*
X236540541Y-115229298D01*
X238182615Y-114789306D01*
X238350847Y-115417157D01*
G36*
X238350847Y-115417157D02*
G01*
X238103360Y-115845818D01*
X236799360Y-116195224D01*
X236540541Y-115229298D01*
X238182615Y-114789306D01*
X238350847Y-115417157D01*
G37*
%TO.C,D133*%
X320867605Y-76606541D02*
X319225531Y-77046533D01*
X319057299Y-76418682D01*
X319304786Y-75990021D01*
X320608786Y-75640615D01*
X320867605Y-76606541D01*
G36*
X320867605Y-76606541D02*
G01*
X319225531Y-77046533D01*
X319057299Y-76418682D01*
X319304786Y-75990021D01*
X320608786Y-75640615D01*
X320867605Y-76606541D01*
G37*
%TO.C,D126*%
X291989426Y-42435171D02*
X290347352Y-42875163D01*
X290179120Y-42247312D01*
X290426607Y-41818651D01*
X291730607Y-41469245D01*
X291989426Y-42435171D01*
G36*
X291989426Y-42435171D02*
G01*
X290347352Y-42875163D01*
X290179120Y-42247312D01*
X290426607Y-41818651D01*
X291730607Y-41469245D01*
X291989426Y-42435171D01*
G37*
%TO.C,D111*%
X235554119Y-52626464D02*
X233912045Y-53066456D01*
X233743813Y-52438605D01*
X233991300Y-52009944D01*
X235295300Y-51660538D01*
X235554119Y-52626464D01*
G36*
X235554119Y-52626464D02*
G01*
X233912045Y-53066456D01*
X233743813Y-52438605D01*
X233991300Y-52009944D01*
X235295300Y-51660538D01*
X235554119Y-52626464D01*
G37*
%TO.C,D70*%
X172917690Y-134466914D02*
X172592690Y-135029831D01*
X172114582Y-135157939D01*
X170945447Y-134482939D01*
X171445447Y-133616914D01*
X172917690Y-134466914D01*
G36*
X172917690Y-134466914D02*
G01*
X172592690Y-135029831D01*
X172114582Y-135157939D01*
X170945447Y-134482939D01*
X171445447Y-133616914D01*
X172917690Y-134466914D01*
G37*
%TO.C,D114*%
X255929979Y-107419847D02*
X255682492Y-107848508D01*
X254378492Y-108197914D01*
X254119673Y-107231988D01*
X255761747Y-106791996D01*
X255929979Y-107419847D01*
G36*
X255929979Y-107419847D02*
G01*
X255682492Y-107848508D01*
X254378492Y-108197914D01*
X254119673Y-107231988D01*
X255761747Y-106791996D01*
X255929979Y-107419847D01*
G37*
%TO.C,D123*%
X282216915Y-79567231D02*
X280574841Y-80007223D01*
X280406609Y-79379372D01*
X280654096Y-78950711D01*
X281958096Y-78601305D01*
X282216915Y-79567231D01*
G36*
X282216915Y-79567231D02*
G01*
X280574841Y-80007223D01*
X280406609Y-79379372D01*
X280654096Y-78950711D01*
X281958096Y-78601305D01*
X282216915Y-79567231D01*
G37*
%TO.C,D135*%
X330728621Y-113408324D02*
X329086547Y-113848316D01*
X328918315Y-113220465D01*
X329165802Y-112791804D01*
X330469802Y-112442398D01*
X330728621Y-113408324D01*
G36*
X330728621Y-113408324D02*
G01*
X329086547Y-113848316D01*
X328918315Y-113220465D01*
X329165802Y-112791804D01*
X330469802Y-112442398D01*
X330728621Y-113408324D01*
G37*
%TO.C,D128*%
X301850426Y-79236952D02*
X300208352Y-79676944D01*
X300040120Y-79049093D01*
X300287607Y-78620432D01*
X301591607Y-78271026D01*
X301850426Y-79236952D01*
G36*
X301850426Y-79236952D02*
G01*
X300208352Y-79676944D01*
X300040120Y-79049093D01*
X300287607Y-78620432D01*
X301591607Y-78271026D01*
X301850426Y-79236952D01*
G37*
%TO.C,D97*%
X113624402Y-134845298D02*
X113124402Y-135711323D01*
X111652159Y-134861323D01*
X111977159Y-134298406D01*
X112455267Y-134170298D01*
X113624402Y-134845298D01*
G36*
X113624402Y-134845298D02*
G01*
X113124402Y-135711323D01*
X111652159Y-134861323D01*
X111977159Y-134298406D01*
X112455267Y-134170298D01*
X113624402Y-134845298D01*
G37*
%TO.C,D72*%
X168154563Y-98283088D02*
X166682320Y-99133088D01*
X166357320Y-98570171D01*
X166485428Y-98092063D01*
X167654563Y-97417063D01*
X168154563Y-98283088D01*
G36*
X168154563Y-98283088D02*
G01*
X166682320Y-99133088D01*
X166357320Y-98570171D01*
X166485428Y-98092063D01*
X167654563Y-97417063D01*
X168154563Y-98283088D01*
G37*
%TO.C,D94*%
X121053927Y-71853686D02*
X120885695Y-72481538D01*
X120457034Y-72729025D01*
X119153034Y-72379619D01*
X119411853Y-71413693D01*
X121053927Y-71853686D01*
G36*
X121053927Y-71853686D02*
G01*
X120885695Y-72481538D01*
X120457034Y-72729025D01*
X119153034Y-72379619D01*
X119411853Y-71413693D01*
X121053927Y-71853686D01*
G37*
%TO.C,D119*%
X273303679Y-98655801D02*
X273056192Y-99084462D01*
X271752192Y-99433868D01*
X271493373Y-98467942D01*
X273135447Y-98027950D01*
X273303679Y-98655801D01*
G36*
X273303679Y-98655801D02*
G01*
X273056192Y-99084462D01*
X271752192Y-99433868D01*
X271493373Y-98467942D01*
X273135447Y-98027950D01*
X273303679Y-98655801D01*
G37*
%TO.C,D120*%
X262642400Y-129186715D02*
X261000326Y-129626707D01*
X260832094Y-128998856D01*
X261079581Y-128570195D01*
X262383581Y-128220789D01*
X262642400Y-129186715D01*
G36*
X262642400Y-129186715D02*
G01*
X261000326Y-129626707D01*
X260832094Y-128998856D01*
X261079581Y-128570195D01*
X262383581Y-128220789D01*
X262642400Y-129186715D01*
G37*
%TO.C,D115*%
X243569444Y-137604213D02*
X242097201Y-138454213D01*
X241772201Y-137891296D01*
X241900309Y-137413188D01*
X243069444Y-136738188D01*
X243569444Y-137604213D01*
G36*
X243569444Y-137604213D02*
G01*
X242097201Y-138454213D01*
X241772201Y-137891296D01*
X241900309Y-137413188D01*
X243069444Y-136738188D01*
X243569444Y-137604213D01*
G37*
%TO.C,D116*%
X252927804Y-43862432D02*
X251285730Y-44302424D01*
X251117498Y-43674573D01*
X251364985Y-43245912D01*
X252668985Y-42896506D01*
X252927804Y-43862432D01*
G36*
X252927804Y-43862432D02*
G01*
X251285730Y-44302424D01*
X251117498Y-43674573D01*
X251364985Y-43245912D01*
X252668985Y-42896506D01*
X252927804Y-43862432D01*
G37*
%TO.C,D110*%
X227446924Y-150654408D02*
X226244842Y-151856489D01*
X225785223Y-151396870D01*
X225785223Y-150901895D01*
X226739817Y-149947301D01*
X227446924Y-150654408D01*
G36*
X227446924Y-150654408D02*
G01*
X226244842Y-151856489D01*
X225785223Y-151396870D01*
X225785223Y-150901895D01*
X226739817Y-149947301D01*
X227446924Y-150654408D01*
G37*
%TO.C,D74*%
X45601460Y-59032026D02*
X45433228Y-59659878D01*
X45004567Y-59907365D01*
X43700567Y-59557959D01*
X43959386Y-58592033D01*
X45601460Y-59032026D01*
G36*
X45601460Y-59032026D02*
G01*
X45433228Y-59659878D01*
X45004567Y-59907365D01*
X43700567Y-59557959D01*
X43959386Y-58592033D01*
X45601460Y-59032026D01*
G37*
%TO.C,D79*%
X64618660Y-61662409D02*
X64450428Y-62290261D01*
X64021767Y-62537748D01*
X62717767Y-62188342D01*
X62976586Y-61222416D01*
X64618660Y-61662409D01*
G36*
X64618660Y-61662409D02*
G01*
X64450428Y-62290261D01*
X64021767Y-62537748D01*
X62717767Y-62188342D01*
X62976586Y-61222416D01*
X64618660Y-61662409D01*
G37*
%TO.C,D121*%
X272355900Y-42765457D02*
X270713826Y-43205449D01*
X270545594Y-42577598D01*
X270793081Y-42148937D01*
X272097081Y-41799531D01*
X272355900Y-42765457D01*
G36*
X272355900Y-42765457D02*
G01*
X270713826Y-43205449D01*
X270545594Y-42577598D01*
X270793081Y-42148937D01*
X272097081Y-41799531D01*
X272355900Y-42765457D01*
G37*
%TO.C,D88*%
X103660513Y-41912980D02*
X103401694Y-42878906D01*
X101759620Y-42438913D01*
X101927852Y-41811061D01*
X102356513Y-41563574D01*
X103660513Y-41912980D01*
G36*
X103660513Y-41912980D02*
G01*
X103401694Y-42878906D01*
X101759620Y-42438913D01*
X101927852Y-41811061D01*
X102356513Y-41563574D01*
X103660513Y-41912980D01*
G37*
%TO.C,D118*%
X262788834Y-80664216D02*
X261146760Y-81104208D01*
X260978528Y-80476357D01*
X261226015Y-80047696D01*
X262530015Y-79698290D01*
X262788834Y-80664216D01*
G36*
X262788834Y-80664216D02*
G01*
X261146760Y-81104208D01*
X260978528Y-80476357D01*
X261226015Y-80047696D01*
X262530015Y-79698290D01*
X262788834Y-80664216D01*
G37*
%TD*%
D11*
%TO.C,C104*%
X166500000Y-35625000D03*
X166500000Y-32675000D03*
%TD*%
%TO.C,C97*%
X162500000Y-32675000D03*
X162500000Y-35625000D03*
%TD*%
D12*
%TO.C,J7*%
X160000000Y-33129999D03*
D13*
X160000000Y-35669999D03*
X160000000Y-38209999D03*
X160000000Y-40749999D03*
X160000000Y-43289999D03*
X160000000Y-45829999D03*
X160000000Y-48369999D03*
D14*
X160250000Y-24749999D03*
X160250000Y-56749999D03*
X199750000Y-24749999D03*
X199750000Y-56749999D03*
%TD*%
D15*
%TO.C,SW64*%
X205500000Y-115000000D03*
X154500000Y-115000000D03*
X182500000Y-84400000D03*
X177500000Y-84400000D03*
X180000000Y-84400000D03*
D16*
X210100000Y-115000000D03*
D17*
X195100000Y-141153967D03*
X195100000Y-88846033D03*
D18*
X194500000Y-115000000D03*
X165500000Y-115000000D03*
D17*
X164900000Y-141153967D03*
X164900000Y-88846033D03*
D16*
X149900000Y-115000000D03*
%TD*%
D19*
%TO.C,H3*%
X45499998Y-24000000D03*
%TD*%
%TO.C,H2*%
X314599997Y-23999998D03*
%TD*%
D18*
%TO.C,H8*%
X302499998Y-25249999D03*
%TD*%
D20*
%TO.C,J9*%
X318897585Y-41580037D03*
D21*
X316444133Y-42237437D03*
X313990682Y-42894838D03*
X311537230Y-43552238D03*
%TD*%
D18*
%TO.C,H10*%
X180000000Y-171500000D03*
%TD*%
D22*
%TO.C,J4*%
X156899997Y-46750000D03*
D23*
X156899997Y-44750000D03*
X156899997Y-42750000D03*
X156899997Y-40750000D03*
X156899997Y-38750000D03*
X156899997Y-36750000D03*
X156899997Y-34750000D03*
%TD*%
D19*
%TO.C,H1*%
X180000000Y-150000000D03*
%TD*%
D24*
%TO.C,SW25*%
X121459521Y-135253809D03*
D25*
X121799817Y-129584400D03*
D26*
X117060112Y-132713809D03*
D25*
X115030555Y-128609104D03*
D24*
X112660703Y-130173809D03*
D27*
X112194322Y-126971604D03*
X124659432Y-131235400D03*
%TD*%
D24*
%TO.C,SW30*%
X138017842Y-149685348D03*
D25*
X139813894Y-144297195D03*
D26*
X134425740Y-146093246D03*
D25*
X133527714Y-141603118D03*
D24*
X130833638Y-142501144D03*
D28*
X131211940Y-139287343D03*
X142148760Y-146632061D03*
%TD*%
D24*
%TO.C,SW1*%
X53242695Y-36232841D03*
D25*
X52104044Y-30668537D03*
D26*
X48335792Y-34918040D03*
D25*
X45313015Y-31478488D03*
D24*
X43428889Y-33603239D03*
D29*
X42149608Y-30630855D03*
X55293531Y-31523158D03*
%TD*%
D24*
%TO.C,SW24*%
X113903674Y-104257190D03*
D25*
X112765023Y-98692886D03*
D26*
X108996771Y-102942389D03*
D25*
X105973994Y-99502837D03*
D24*
X104089868Y-101627588D03*
D29*
X102810587Y-98655204D03*
X115954510Y-99547507D03*
%TD*%
D24*
%TO.C,SW29*%
X131482793Y-112254533D03*
D25*
X130344142Y-106690229D03*
D26*
X126575890Y-110939732D03*
D25*
X123553113Y-107500180D03*
D24*
X121668987Y-109624931D03*
D29*
X120389706Y-106652547D03*
X133533629Y-107544850D03*
%TD*%
D24*
%TO.C,SW14*%
X77101882Y-94396195D03*
D25*
X75963231Y-88831891D03*
D26*
X72194979Y-93081394D03*
D25*
X69172202Y-89641842D03*
D24*
X67288076Y-91766593D03*
D29*
X66008795Y-88794209D03*
X79152718Y-89686512D03*
%TD*%
D24*
%TO.C,SW19*%
X96529963Y-95493158D03*
D25*
X95391312Y-89928854D03*
D26*
X91623060Y-94178357D03*
D25*
X88600283Y-90738805D03*
D24*
X86716157Y-92863556D03*
D29*
X85436876Y-89891172D03*
X98580799Y-90783475D03*
%TD*%
D24*
%TO.C,SW5*%
X33520676Y-109836406D03*
D25*
X32382025Y-104272102D03*
D26*
X28613773Y-108521605D03*
D25*
X25590996Y-105082053D03*
D24*
X23706870Y-107206804D03*
D29*
X22427589Y-104234420D03*
X35571512Y-105126723D03*
%TD*%
D24*
%TO.C,SW22*%
X123764663Y-67455406D03*
D25*
X122626012Y-61891102D03*
D26*
X118857760Y-66140605D03*
D25*
X115834983Y-62701053D03*
D24*
X113950857Y-64825804D03*
D29*
X112671576Y-61853420D03*
X125815499Y-62745723D03*
%TD*%
D24*
%TO.C,SW27*%
X141343796Y-75452746D03*
D25*
X140205145Y-69888442D03*
D26*
X136436893Y-74137945D03*
D25*
X133414116Y-70698393D03*
D24*
X131529990Y-72823144D03*
D29*
X130250709Y-69850760D03*
X143394632Y-70743063D03*
%TD*%
D24*
%TO.C,SW3*%
X43381668Y-73034635D03*
D25*
X42243017Y-67470331D03*
D26*
X38474765Y-71719834D03*
D25*
X35451988Y-68280282D03*
D24*
X33567862Y-70405033D03*
D29*
X32288581Y-67432649D03*
X45432504Y-68324952D03*
%TD*%
D24*
%TO.C,SW8*%
X62398882Y-75665008D03*
D25*
X61260231Y-70100704D03*
D26*
X57491979Y-74350207D03*
D25*
X54469202Y-70910655D03*
D24*
X52585076Y-73035406D03*
D29*
X51305795Y-70063022D03*
X64449718Y-70955325D03*
%TD*%
D24*
%TO.C,SW13*%
X82032396Y-75995293D03*
D25*
X80893745Y-70430989D03*
D26*
X77125493Y-74680492D03*
D25*
X74102716Y-71240940D03*
D24*
X72218590Y-73365691D03*
D29*
X70939309Y-70393307D03*
X84083232Y-71285610D03*
%TD*%
D24*
%TO.C,SW23*%
X118834177Y-85856333D03*
D25*
X117695526Y-80292029D03*
D26*
X113927274Y-84541532D03*
D25*
X110904497Y-81101980D03*
D24*
X109020371Y-83226731D03*
D29*
X107741090Y-80254347D03*
X120885013Y-81146650D03*
%TD*%
D24*
%TO.C,SW18*%
X101460449Y-77092279D03*
D25*
X100321798Y-71527975D03*
D26*
X96553546Y-75777478D03*
D25*
X93530769Y-72337926D03*
D24*
X91646643Y-74462677D03*
D29*
X90367362Y-71490293D03*
X103511285Y-72382596D03*
%TD*%
D24*
%TO.C,SW28*%
X136413290Y-93853635D03*
D25*
X135274639Y-88289331D03*
D26*
X131506387Y-92538834D03*
D25*
X128483610Y-89099282D03*
D24*
X126599484Y-91224033D03*
D29*
X125320203Y-88251649D03*
X138464126Y-89143952D03*
%TD*%
D24*
%TO.C,SW4*%
X38451186Y-91435529D03*
D25*
X37312535Y-85871225D03*
D26*
X33544283Y-90120728D03*
D25*
X30521506Y-86681176D03*
D24*
X28637380Y-88805927D03*
D29*
X27358099Y-85833543D03*
X40502022Y-86725846D03*
%TD*%
D24*
%TO.C,SW9*%
X57468351Y-94065912D03*
D25*
X56329700Y-88501608D03*
D26*
X52561448Y-92751111D03*
D25*
X49538671Y-89311559D03*
D24*
X47654545Y-91436310D03*
D29*
X46375264Y-88463926D03*
X59519187Y-89356229D03*
%TD*%
D24*
%TO.C,SW10*%
X52537873Y-112466796D03*
D25*
X51399222Y-106902492D03*
D26*
X47630970Y-111151995D03*
D25*
X44608193Y-107712443D03*
D24*
X42724067Y-109837194D03*
D29*
X41444786Y-106864810D03*
X54588709Y-107757113D03*
%TD*%
D24*
%TO.C,SW15*%
X72171383Y-112797070D03*
D25*
X71032732Y-107232766D03*
D26*
X67264480Y-111482269D03*
D25*
X64241703Y-108042717D03*
D24*
X62357577Y-110167468D03*
D29*
X61078296Y-107195084D03*
X74222219Y-108087387D03*
%TD*%
D24*
%TO.C,SW20*%
X101606896Y-125614798D03*
D25*
X100468245Y-120050494D03*
D26*
X96699993Y-124299997D03*
D25*
X93677216Y-120860445D03*
D24*
X91793090Y-122985196D03*
D29*
X90513809Y-120012812D03*
X103657732Y-120905115D03*
%TD*%
D24*
%TO.C,SW11*%
X91893395Y-39193545D03*
D25*
X90754744Y-33629241D03*
D26*
X86986492Y-37878744D03*
D25*
X83963715Y-34439192D03*
D24*
X82079589Y-36563943D03*
D29*
X80800308Y-33591559D03*
X93944231Y-34483862D03*
%TD*%
D24*
%TO.C,SW2*%
X48312187Y-54633741D03*
D25*
X47173536Y-49069437D03*
D26*
X43405284Y-53318940D03*
D25*
X40382507Y-49879388D03*
D24*
X38498381Y-52004139D03*
D29*
X37219100Y-49031755D03*
X50363023Y-49924058D03*
%TD*%
D24*
%TO.C,SW12*%
X86962889Y-57594407D03*
D25*
X85824238Y-52030103D03*
D26*
X82055986Y-56279606D03*
D25*
X79033209Y-52840054D03*
D24*
X77149083Y-54964805D03*
D29*
X75869802Y-51992421D03*
X89013725Y-52884724D03*
%TD*%
D24*
%TO.C,SW21*%
X128695173Y-49054528D03*
D25*
X127556522Y-43490224D03*
D26*
X123788270Y-47739727D03*
D25*
X120765493Y-44300175D03*
D24*
X118881367Y-46424926D03*
D29*
X117602086Y-43452542D03*
X130746009Y-44344845D03*
%TD*%
D24*
%TO.C,SW17*%
X106390970Y-58691407D03*
D25*
X105252319Y-53127103D03*
D26*
X101484067Y-57376606D03*
D25*
X98461290Y-53937054D03*
D24*
X96577164Y-56061805D03*
D29*
X95297883Y-53089421D03*
X108441806Y-53981724D03*
%TD*%
D24*
%TO.C,SW16*%
X111321469Y-40290500D03*
D25*
X110182818Y-34726196D03*
D26*
X106414566Y-38975699D03*
D25*
X103391789Y-35536147D03*
D24*
X101507663Y-37660898D03*
D29*
X100228382Y-34688514D03*
X113372305Y-35580817D03*
%TD*%
D24*
%TO.C,SW6*%
X72259883Y-38863245D03*
D25*
X71121232Y-33298941D03*
D26*
X67352980Y-37548444D03*
D25*
X64330203Y-34108892D03*
D24*
X62446077Y-36233643D03*
D29*
X61166796Y-33261259D03*
X74310719Y-34153562D03*
%TD*%
D24*
%TO.C,SW7*%
X67329382Y-57264132D03*
D25*
X66190731Y-51699828D03*
D26*
X62422479Y-55949331D03*
D25*
X59399702Y-52509779D03*
D24*
X57515576Y-54634530D03*
D29*
X56236295Y-51662146D03*
X69380218Y-52554449D03*
%TD*%
D24*
%TO.C,SW26*%
X146274302Y-57051855D03*
D25*
X145135651Y-51487551D03*
D26*
X141367399Y-55737054D03*
D25*
X138344622Y-52297502D03*
D24*
X136460496Y-54422253D03*
D29*
X135181215Y-51449869D03*
X148325138Y-52342172D03*
%TD*%
D24*
%TO.C,SW31*%
X223539533Y-54422260D03*
D25*
X219771281Y-50172757D03*
D26*
X218632630Y-55737061D03*
D25*
X214295052Y-54269710D03*
D24*
X213725727Y-57051862D03*
D30*
X211131645Y-55117342D03*
X222960768Y-49318137D03*
%TD*%
D31*
%TO.C,D34*%
X223371757Y-105299287D03*
X223915277Y-107327731D03*
%TD*%
D32*
%TO.C,J3*%
X182749998Y-98749996D03*
X182249998Y-98749996D03*
X181749998Y-98749996D03*
X181249998Y-98749996D03*
X180749998Y-98749996D03*
X180249998Y-98749996D03*
X179749998Y-98749996D03*
X179249998Y-98749996D03*
X178749998Y-98749996D03*
X178249998Y-98749996D03*
X177749998Y-98749996D03*
X177249998Y-98749996D03*
D33*
X184649998Y-101999996D03*
X175349998Y-101999996D03*
%TD*%
D24*
%TO.C,SW62*%
X185080019Y-160909993D03*
D25*
X182540019Y-155829993D03*
D26*
X180000019Y-160909993D03*
D25*
X176190019Y-158369993D03*
D24*
X174920019Y-160909993D03*
D34*
X172915019Y-158369993D03*
X185842019Y-155829993D03*
%TD*%
D35*
%TO.C,C53*%
X118887454Y-140089419D03*
X118056070Y-139609419D03*
%TD*%
D36*
%TO.C,U6*%
X188969306Y-105512500D03*
X189919306Y-105512500D03*
X190869306Y-105512500D03*
X190869306Y-107787500D03*
X188969306Y-107787500D03*
%TD*%
D37*
%TO.C,D16*%
X100529182Y-29064767D03*
X99985662Y-31093211D03*
%TD*%
D24*
%TO.C,SW45*%
X268206929Y-122985195D03*
D25*
X264438677Y-118735692D03*
D26*
X263300026Y-124299996D03*
D25*
X258962448Y-122832645D03*
D24*
X258393123Y-125614797D03*
D30*
X255799041Y-123680277D03*
X267628164Y-117881072D03*
%TD*%
D38*
%TO.C,C90*%
X323328581Y-95141162D03*
X322401293Y-95389628D03*
%TD*%
D39*
%TO.C,C38*%
X51317889Y-117792516D03*
X50390601Y-117544050D03*
%TD*%
D40*
%TO.C,C60*%
X184319799Y-166369386D03*
X185279799Y-166369386D03*
%TD*%
D31*
%TO.C,D57*%
X306542345Y-47678495D03*
X307085865Y-49706939D03*
%TD*%
D24*
%TO.C,SW49*%
X292711942Y-91766613D03*
D25*
X288943690Y-87517110D03*
D26*
X287805039Y-93081414D03*
D25*
X283467461Y-91614063D03*
D24*
X282898136Y-94396215D03*
D30*
X280304054Y-92461695D03*
X292133177Y-86662490D03*
%TD*%
D31*
%TO.C,D58*%
X311472869Y-66079393D03*
X312016389Y-68107837D03*
%TD*%
D41*
%TO.C,C28*%
X174827606Y-95481169D03*
X173996222Y-95961169D03*
%TD*%
D42*
%TO.C,D103*%
X159885732Y-164066054D03*
X160248078Y-162713758D03*
X154573140Y-162642550D03*
%TD*%
D43*
%TO.C,D104*%
X182749790Y-166359400D03*
X182749790Y-164959400D03*
X177249790Y-166359400D03*
%TD*%
D31*
%TO.C,D60*%
X321333868Y-102881167D03*
X321877388Y-104909611D03*
%TD*%
D44*
%TO.C,C9*%
X178099822Y-44124365D03*
X178099822Y-45674365D03*
%TD*%
D45*
%TO.C,R27*%
X190839292Y-109279987D03*
X189819292Y-109279987D03*
%TD*%
D46*
%TO.C,D105*%
X205451627Y-162635913D03*
X205089281Y-161283617D03*
X200139035Y-164059417D03*
%TD*%
D39*
%TO.C,C44*%
X110101494Y-45616234D03*
X109174206Y-45367768D03*
%TD*%
%TO.C,C46*%
X100240478Y-82418007D03*
X99313190Y-82169541D03*
%TD*%
D47*
%TO.C,C85*%
X303384087Y-98020018D03*
X304311375Y-97771552D03*
%TD*%
D46*
%TO.C,D125*%
X296802405Y-116034832D03*
X296440059Y-114682536D03*
X291489813Y-117458336D03*
%TD*%
D18*
%TO.C,H7*%
X301999998Y-124000000D03*
%TD*%
D31*
%TO.C,D63*%
X191307628Y-152449548D03*
X191851148Y-154477992D03*
%TD*%
D39*
%TO.C,C42*%
X66976563Y-95865643D03*
X66049275Y-95617177D03*
%TD*%
D42*
%TO.C,D75*%
X39720515Y-77695881D03*
X40082861Y-76343585D03*
X34407923Y-76272377D03*
%TD*%
D37*
%TO.C,D14*%
X66309583Y-83170445D03*
X65766063Y-85198889D03*
%TD*%
D48*
%TO.C,D102*%
X132512942Y-151893186D03*
X133502891Y-150903237D03*
X128623855Y-148004099D03*
%TD*%
D24*
%TO.C,SW47*%
X282850945Y-54964821D03*
D25*
X279082693Y-50715318D03*
D26*
X277944042Y-56279622D03*
D25*
X273606464Y-54812271D03*
D24*
X273037139Y-57594423D03*
D30*
X270443057Y-55659903D03*
X282272180Y-49860698D03*
%TD*%
D24*
%TO.C,SW63*%
X206266899Y-156775204D03*
D25*
X202498647Y-152525701D03*
D26*
X201359996Y-158090005D03*
D25*
X197022418Y-156622654D03*
D24*
X196453093Y-159404806D03*
D30*
X193859011Y-157470286D03*
X205688134Y-151671081D03*
%TD*%
D49*
%TO.C,D81*%
X48856944Y-95951361D03*
X48494598Y-97303657D03*
X54169536Y-97374865D03*
%TD*%
D37*
%TO.C,D4*%
X27658894Y-80209758D03*
X27115374Y-82238202D03*
%TD*%
D46*
%TO.C,D106*%
X222699498Y-60289608D03*
X222337152Y-58937312D03*
X217386906Y-61713112D03*
%TD*%
D50*
%TO.C,D67*%
X192131562Y-99487513D03*
X192831562Y-98275077D03*
X187368422Y-96737513D03*
%TD*%
D37*
%TO.C,D19*%
X85737663Y-84267420D03*
X85194143Y-86295864D03*
%TD*%
D24*
%TO.C,SW61*%
X163546901Y-159404783D03*
D25*
X162408250Y-153840479D03*
D26*
X158639998Y-158089982D03*
D25*
X155617221Y-154650430D03*
D24*
X153733095Y-156775181D03*
D29*
X152453814Y-153802797D03*
X165597737Y-154695100D03*
%TD*%
D24*
%TO.C,SW33*%
X233400530Y-91224024D03*
D25*
X229632278Y-86974521D03*
D26*
X228493627Y-92538825D03*
D25*
X224156049Y-91071474D03*
D24*
X223586724Y-93853626D03*
D30*
X220992642Y-91919106D03*
X232821765Y-86119901D03*
%TD*%
D49*
%TO.C,D101*%
X122871370Y-114139965D03*
X122509024Y-115492261D03*
X128183962Y-115563469D03*
%TD*%
D51*
%TO.C,D134*%
X324847663Y-94744482D03*
X325210009Y-96096778D03*
X330160255Y-93320978D03*
%TD*%
D52*
%TO.C,C47*%
X85477345Y-96714150D03*
X86404633Y-96962616D03*
%TD*%
D47*
%TO.C,C70*%
X246948820Y-108211317D03*
X247876108Y-107962851D03*
%TD*%
D40*
%TO.C,C92*%
X183019998Y-41853203D03*
X183979998Y-41853203D03*
%TD*%
D52*
%TO.C,C39*%
X89746140Y-44270780D03*
X90673428Y-44519246D03*
%TD*%
D53*
%TO.C,C8*%
X183824828Y-43320001D03*
X183824828Y-44280001D03*
%TD*%
D54*
%TO.C,C21*%
X189114994Y-103650000D03*
X187564994Y-103650000D03*
%TD*%
D55*
%TO.C,C7*%
X178899825Y-60379992D03*
X178899825Y-59419992D03*
%TD*%
D42*
%TO.C,D78*%
X68598712Y-43524496D03*
X68961058Y-42172200D03*
X63286120Y-42100992D03*
%TD*%
%TO.C,D98*%
X142613115Y-61713111D03*
X142975461Y-60360815D03*
X137300523Y-60289607D03*
%TD*%
D40*
%TO.C,C19*%
X175470000Y-48399999D03*
X176430000Y-48399999D03*
%TD*%
D39*
%TO.C,C43*%
X70951406Y-118122796D03*
X70024118Y-117874330D03*
%TD*%
D40*
%TO.C,C98*%
X171920001Y-20125672D03*
X172880001Y-20125672D03*
%TD*%
D39*
%TO.C,C30*%
X38186869Y-56103169D03*
X37259581Y-55854703D03*
%TD*%
D37*
%TO.C,D8*%
X51606578Y-64439278D03*
X51063058Y-66467722D03*
%TD*%
D56*
%TO.C,FB2*%
X146100000Y-23862499D03*
X146100000Y-21737499D03*
%TD*%
D31*
%TO.C,D39*%
X240950899Y-97301972D03*
X241494419Y-99330416D03*
%TD*%
D42*
%TO.C,D90*%
X97799289Y-81753539D03*
X98161635Y-80401243D03*
X92486697Y-80330035D03*
%TD*%
D57*
%TO.C,D136*%
X175727500Y-68700000D03*
X173627500Y-68700000D03*
%TD*%
D58*
%TO.C,C22*%
X187319294Y-107574999D03*
X187319294Y-106024999D03*
%TD*%
D42*
%TO.C,D100*%
X132752113Y-98514877D03*
X133114459Y-97162581D03*
X127439521Y-97091373D03*
%TD*%
D53*
%TO.C,C13*%
X181779825Y-43309993D03*
X181779825Y-44269993D03*
%TD*%
D52*
%TO.C,C50*%
X112712049Y-68676392D03*
X113639337Y-68924858D03*
%TD*%
D42*
%TO.C,D87*%
X68510200Y-117458322D03*
X68872546Y-116106026D03*
X63197608Y-116034818D03*
%TD*%
D59*
%TO.C,U1*%
X165200000Y-38800000D03*
X167500000Y-38800000D03*
D60*
X167500000Y-45100000D03*
D59*
X169800000Y-38800000D03*
%TD*%
D61*
%TO.C,D68*%
X199500007Y-117749988D03*
X200900007Y-117749988D03*
X199500007Y-112249988D03*
%TD*%
D24*
%TO.C,SW59*%
X331362649Y-88805924D03*
D25*
X327594397Y-84556421D03*
D26*
X326455746Y-90120725D03*
D25*
X322118168Y-88653374D03*
D24*
X321548843Y-91435526D03*
D30*
X318954761Y-89501006D03*
X330783884Y-83701801D03*
%TD*%
D47*
%TO.C,C80*%
X283750583Y-98350286D03*
X284677871Y-98101820D03*
%TD*%
D31*
%TO.C,D37*%
X231089887Y-60500193D03*
X231633407Y-62528637D03*
%TD*%
%TO.C,D48*%
X272822157Y-69040063D03*
X273365677Y-71068507D03*
%TD*%
D62*
%TO.C,J6*%
X205110001Y-22250000D03*
X210890001Y-22250000D03*
D63*
X204775001Y-23700000D03*
X205550001Y-23700000D03*
D64*
X206750001Y-23700000D03*
X207750001Y-23700000D03*
X208250001Y-23700000D03*
X209250001Y-23700000D03*
D63*
X210450001Y-23700000D03*
X211225001Y-23700000D03*
D64*
X209750001Y-23700000D03*
X208750001Y-23700000D03*
X207250001Y-23700000D03*
X206250001Y-23700000D03*
D65*
X203680001Y-18600000D03*
D66*
X203680001Y-22780000D03*
D65*
X212320001Y-18600000D03*
D66*
X212320001Y-22780000D03*
%TD*%
D49*
%TO.C,D84*%
X78351466Y-59479857D03*
X77989120Y-60832153D03*
X83664058Y-60903361D03*
%TD*%
D67*
%TO.C,C66*%
X232488596Y-146899642D03*
X233167418Y-146220820D03*
%TD*%
D49*
%TO.C,D91*%
X87918550Y-97378608D03*
X87556204Y-98730904D03*
X93231142Y-98802112D03*
%TD*%
D42*
%TO.C,D83*%
X88232217Y-43854778D03*
X88594563Y-42502482D03*
X82919625Y-42431274D03*
%TD*%
D31*
%TO.C,D50*%
X282683145Y-105841834D03*
X283226665Y-107870278D03*
%TD*%
D37*
%TO.C,D61*%
X152754603Y-148179036D03*
X152211083Y-150207480D03*
%TD*%
D24*
%TO.C,SW38*%
X250979681Y-83226722D03*
D25*
X247211429Y-78977219D03*
D26*
X246072778Y-84541523D03*
D25*
X241735200Y-83074172D03*
D24*
X241165875Y-85856324D03*
D30*
X238571793Y-83921804D03*
X250400916Y-78122599D03*
%TD*%
D38*
%TO.C,C64*%
X235006871Y-96446217D03*
X234079583Y-96694683D03*
%TD*%
D24*
%TO.C,SW50*%
X297642445Y-110167486D03*
D25*
X293874193Y-105917983D03*
D26*
X292735542Y-111482287D03*
D25*
X288397964Y-110014936D03*
D24*
X287828639Y-112797088D03*
D30*
X285234557Y-110862568D03*
X297063680Y-105063363D03*
%TD*%
D42*
%TO.C,D95*%
X115173002Y-90517588D03*
X115535348Y-89165292D03*
X109860410Y-89094084D03*
%TD*%
D68*
%TO.C,SW65*%
X190350001Y-17969999D03*
X190350001Y-20179999D03*
D69*
X192500001Y-19069999D03*
X195500001Y-19069999D03*
D68*
X197650001Y-17969999D03*
X197650001Y-20179999D03*
D70*
X191750001Y-20829999D03*
X194750001Y-20829999D03*
X196250001Y-20829999D03*
%TD*%
D71*
%TO.C,R4*%
X177399782Y-81869397D03*
X177399782Y-80849397D03*
%TD*%
D53*
%TO.C,C24*%
X199489999Y-119319996D03*
X199489999Y-120279996D03*
%TD*%
D38*
%TO.C,C67*%
X242725009Y-51647150D03*
X241797721Y-51895616D03*
%TD*%
D49*
%TO.C,D86*%
X68490456Y-96281641D03*
X68128110Y-97633937D03*
X73803048Y-97705145D03*
%TD*%
D52*
%TO.C,C48*%
X99459650Y-130692051D03*
X100386938Y-130940517D03*
%TD*%
D72*
%TO.C,C99*%
X171625000Y-23300000D03*
X173175000Y-23300000D03*
%TD*%
D52*
%TO.C,C40*%
X75910286Y-58815409D03*
X76837574Y-59063875D03*
%TD*%
D73*
%TO.C,R15*%
X171399999Y-24965669D03*
X171399999Y-25985669D03*
%TD*%
D24*
%TO.C,SW58*%
X326432145Y-70405014D03*
D25*
X322663893Y-66155511D03*
D26*
X321525242Y-71719815D03*
D25*
X317187664Y-70252464D03*
D24*
X316618339Y-73034616D03*
D30*
X314024257Y-71100096D03*
X325853380Y-65300891D03*
%TD*%
D51*
%TO.C,D129*%
X305830474Y-97374872D03*
X306192820Y-98727168D03*
X311143066Y-95951368D03*
%TD*%
D31*
%TO.C,D55*%
X302316686Y-105511553D03*
X302860206Y-107539997D03*
%TD*%
D74*
%TO.C,U4*%
X185350000Y-109340000D03*
D75*
X185350000Y-111120000D03*
X185350000Y-112900000D03*
X185350000Y-114680000D03*
X185350000Y-116460000D03*
X185350000Y-118240000D03*
X185350000Y-120020000D03*
X185350000Y-121800000D03*
X174650000Y-122690000D03*
X174650000Y-120910000D03*
X174650000Y-119130000D03*
X174650000Y-117350000D03*
X174650000Y-115570000D03*
X174650000Y-113790000D03*
X174650000Y-112010000D03*
X174650000Y-110230000D03*
%TD*%
D37*
%TO.C,D6*%
X61467576Y-27637496D03*
X60924056Y-29665940D03*
%TD*%
D76*
%TO.C,U3*%
X184637320Y-49499999D03*
X184637320Y-49899999D03*
X184637320Y-50299999D03*
X184637320Y-50699999D03*
X184637320Y-51099999D03*
X184637320Y-51499999D03*
X184637320Y-51899999D03*
X184637320Y-52299999D03*
X184637320Y-52699999D03*
X184637320Y-53099999D03*
X184637320Y-53499999D03*
X184637320Y-53899999D03*
X184637320Y-54299999D03*
X184637320Y-54699999D03*
D77*
X183799820Y-55537499D03*
X183399820Y-55537499D03*
X182999820Y-55537499D03*
X182599820Y-55537499D03*
X182199820Y-55537499D03*
X181799820Y-55537499D03*
X181399820Y-55537499D03*
X180999820Y-55537499D03*
X180599820Y-55537499D03*
X180199820Y-55537499D03*
X179799820Y-55537499D03*
X179399820Y-55537499D03*
X178999820Y-55537499D03*
X178599820Y-55537499D03*
D76*
X177762320Y-54699999D03*
X177762320Y-54299999D03*
X177762320Y-53899999D03*
X177762320Y-53499999D03*
X177762320Y-53099999D03*
X177762320Y-52699999D03*
X177762320Y-52299999D03*
X177762320Y-51899999D03*
X177762320Y-51499999D03*
X177762320Y-51099999D03*
X177762320Y-50699999D03*
X177762320Y-50299999D03*
X177762320Y-49899999D03*
X177762320Y-49499999D03*
D77*
X178599820Y-48662499D03*
X178999820Y-48662499D03*
X179399820Y-48662499D03*
X179799820Y-48662499D03*
X180199820Y-48662499D03*
X180599820Y-48662499D03*
X180999820Y-48662499D03*
X181399820Y-48662499D03*
X181799820Y-48662499D03*
X182199820Y-48662499D03*
X182599820Y-48662499D03*
X182999820Y-48662499D03*
X183399820Y-48662499D03*
X183799820Y-48662499D03*
D78*
X181199820Y-52099999D03*
%TD*%
D79*
%TO.C,Q5*%
X170050001Y-25449999D03*
X168150001Y-25449999D03*
X169100001Y-23574999D03*
%TD*%
D24*
%TO.C,SW43*%
X268353353Y-74462679D03*
D25*
X264585101Y-70213176D03*
D26*
X263446450Y-75777480D03*
D25*
X259108872Y-74310129D03*
D24*
X258539547Y-77092281D03*
D30*
X255945465Y-75157761D03*
X267774588Y-69358556D03*
%TD*%
D37*
%TO.C,D28*%
X125620992Y-82627880D03*
X125077472Y-84656324D03*
%TD*%
D40*
%TO.C,C12*%
X175440000Y-45299999D03*
X176400000Y-45299999D03*
%TD*%
D37*
%TO.C,D21*%
X117902879Y-37828789D03*
X117359359Y-39857233D03*
%TD*%
D42*
%TO.C,D93*%
X125033994Y-53715773D03*
X125396340Y-52363477D03*
X119721402Y-52292269D03*
%TD*%
D38*
%TO.C,C62*%
X225145871Y-59644471D03*
X224218583Y-59892937D03*
%TD*%
D37*
%TO.C,D7*%
X56537088Y-46038378D03*
X55993568Y-48066822D03*
%TD*%
%TO.C,D10*%
X41745570Y-101241056D03*
X41202050Y-103269500D03*
%TD*%
D36*
%TO.C,U10*%
X168149998Y-27538171D03*
X169099998Y-27538171D03*
X170049998Y-27538171D03*
X170049998Y-29813171D03*
X168149998Y-29813171D03*
%TD*%
D56*
%TO.C,FB3*%
X213900001Y-23862499D03*
X213900001Y-21737499D03*
%TD*%
D80*
%TO.C,SW66*%
X166000000Y-20475000D03*
X166000000Y-17725000D03*
D81*
X168625000Y-18250000D03*
X163375000Y-18250000D03*
X168625000Y-19950000D03*
X163375000Y-19950000D03*
%TD*%
D51*
%TO.C,D127*%
X295969475Y-60573071D03*
X296331821Y-61925367D03*
X301282067Y-59149567D03*
%TD*%
D47*
%TO.C,C81*%
X298321486Y-115638130D03*
X299248774Y-115389664D03*
%TD*%
%TO.C,C84*%
X308094006Y-78506099D03*
X309021294Y-78257633D03*
%TD*%
D40*
%TO.C,C11*%
X175440007Y-46349999D03*
X176400007Y-46349999D03*
%TD*%
D24*
%TO.C,SW57*%
X321501637Y-52004139D03*
D25*
X317733385Y-47754636D03*
D26*
X316594734Y-53318940D03*
D25*
X312257156Y-51851589D03*
D24*
X311687831Y-54633741D03*
D30*
X309093749Y-52699221D03*
X320922872Y-46900016D03*
%TD*%
D47*
%TO.C,C88*%
X312540279Y-58587840D03*
X313467567Y-58339374D03*
%TD*%
D82*
%TO.C,D66*%
X213900000Y-19899999D03*
X213900000Y-18499999D03*
%TD*%
D46*
%TO.C,D130*%
X316435922Y-115704565D03*
X316073576Y-114352269D03*
X311123330Y-117128069D03*
%TD*%
D37*
%TO.C,D18*%
X90668176Y-65866536D03*
X90124656Y-67894980D03*
%TD*%
D51*
%TO.C,D124*%
X286196965Y-97705143D03*
X286559311Y-99057439D03*
X291509557Y-96281639D03*
%TD*%
D83*
%TO.C,R14*%
X182189997Y-86999994D03*
X183209997Y-86999994D03*
%TD*%
D51*
%TO.C,D107*%
X221955050Y-78761702D03*
X222317396Y-80113998D03*
X227267642Y-77338198D03*
%TD*%
D37*
%TO.C,D2*%
X37519883Y-43407984D03*
X36976363Y-45436428D03*
%TD*%
D31*
%TO.C,D47*%
X267891668Y-50639183D03*
X268435188Y-52667627D03*
%TD*%
D62*
%TO.C,J5*%
X149110000Y-22250000D03*
X154890000Y-22250000D03*
D63*
X148775000Y-23700000D03*
X149550000Y-23700000D03*
D64*
X150750000Y-23700000D03*
X151750000Y-23700000D03*
X152250000Y-23700000D03*
X153250000Y-23700000D03*
D63*
X154450000Y-23700000D03*
X155225000Y-23700000D03*
D64*
X153750000Y-23700000D03*
X152750000Y-23700000D03*
X151250000Y-23700000D03*
X150250000Y-23700000D03*
D65*
X147680000Y-18600000D03*
D66*
X147680000Y-22780000D03*
D65*
X156320000Y-18600000D03*
D66*
X156320000Y-22780000D03*
%TD*%
D31*
%TO.C,D56*%
X301611852Y-29277609D03*
X302155372Y-31306053D03*
%TD*%
D84*
%TO.C,U2*%
X192799998Y-42448204D03*
X192799998Y-43718204D03*
X192799998Y-44988204D03*
X192799998Y-46258204D03*
X185599998Y-46258204D03*
X185599998Y-44988204D03*
X185599998Y-43718204D03*
X185599998Y-42448204D03*
%TD*%
D42*
%TO.C,D85*%
X78371212Y-80656545D03*
X78733558Y-79304249D03*
X73058620Y-79233041D03*
%TD*%
D85*
%TO.C,U9*%
X163524999Y-27125670D03*
X164174999Y-27125670D03*
X164824999Y-27125670D03*
X165474999Y-27125670D03*
X165474999Y-30025670D03*
X164824999Y-30025670D03*
X164174999Y-30025670D03*
X163524999Y-30025670D03*
D86*
X164499999Y-28575670D03*
%TD*%
D42*
%TO.C,D92*%
X97945741Y-130276037D03*
X98308087Y-128923741D03*
X92633149Y-128852533D03*
%TD*%
D38*
%TO.C,C79*%
X289387782Y-78587902D03*
X288460494Y-78836368D03*
%TD*%
D42*
%TO.C,D73*%
X49581510Y-40894099D03*
X49943856Y-39541803D03*
X44268918Y-39470595D03*
%TD*%
D87*
%TO.C,U7*%
X188637496Y-90549998D03*
X188637496Y-91499998D03*
X188637496Y-92449998D03*
X186362496Y-92449998D03*
X186362496Y-90549998D03*
%TD*%
D46*
%TO.C,D108*%
X232560480Y-97091375D03*
X232198134Y-95739079D03*
X227247888Y-98514879D03*
%TD*%
D24*
%TO.C,SW52*%
X302484457Y-54634528D03*
D25*
X298716205Y-50385025D03*
D26*
X297577554Y-55949329D03*
D25*
X293239976Y-54481978D03*
D24*
X292670651Y-57264130D03*
D30*
X290076569Y-55329610D03*
X301905692Y-49530405D03*
%TD*%
D31*
%TO.C,D33*%
X218441261Y-86898399D03*
X218984781Y-88926843D03*
%TD*%
D83*
%TO.C,R28*%
X189290000Y-110334860D03*
X190310000Y-110334860D03*
%TD*%
D24*
%TO.C,SW44*%
X273283870Y-92863560D03*
D25*
X269515618Y-88614057D03*
D26*
X268376967Y-94178361D03*
D25*
X264039389Y-92711010D03*
D24*
X263470064Y-95493162D03*
D30*
X260875982Y-93558642D03*
X272705105Y-87759437D03*
%TD*%
D38*
%TO.C,C89*%
X328038484Y-75627223D03*
X327111196Y-75875689D03*
%TD*%
D51*
%TO.C,D112*%
X239534188Y-70764390D03*
X239896534Y-72116686D03*
X244846780Y-69340886D03*
%TD*%
D46*
%TO.C,D131*%
X315731097Y-39470600D03*
X315368751Y-38118304D03*
X310418505Y-40894104D03*
%TD*%
D37*
%TO.C,D17*%
X95598673Y-47465658D03*
X95055153Y-49494102D03*
%TD*%
D88*
%TO.C,JP1*%
X180649997Y-86999999D03*
X179349997Y-86999999D03*
%TD*%
D83*
%TO.C,R18*%
X171489999Y-29175670D03*
X172509999Y-29175670D03*
%TD*%
D53*
%TO.C,C14*%
X182799822Y-43319992D03*
X182799822Y-44279992D03*
%TD*%
D71*
%TO.C,R10*%
X186766006Y-118736310D03*
X186766006Y-117716310D03*
%TD*%
D89*
%TO.C,U5*%
X180999998Y-26684999D03*
X180499998Y-26684999D03*
X179999998Y-26684999D03*
X179499998Y-26684999D03*
X178999998Y-26684999D03*
X178999998Y-25914999D03*
X179499998Y-25914999D03*
X179999998Y-25914999D03*
X180499998Y-25914999D03*
X180999998Y-25914999D03*
%TD*%
D31*
%TO.C,D41*%
X243533062Y-33335263D03*
X244076582Y-35363707D03*
%TD*%
D82*
%TO.C,D65*%
X146100000Y-19900000D03*
X146100000Y-18500000D03*
%TD*%
D90*
%TO.C,U8*%
X176424998Y-29175669D03*
X176424998Y-29575669D03*
D91*
X176299998Y-30200669D03*
X175899998Y-30200669D03*
X175499998Y-30200669D03*
X175099998Y-30200669D03*
D90*
X174974998Y-29575669D03*
X174974998Y-29175669D03*
D91*
X175099998Y-28550669D03*
X175499998Y-28550669D03*
X175899998Y-28550669D03*
X176299998Y-28550669D03*
%TD*%
D54*
%TO.C,C3*%
X171325000Y-36700000D03*
X169775000Y-36700000D03*
%TD*%
D24*
%TO.C,SW41*%
X258492358Y-37660914D03*
D25*
X254724106Y-33411411D03*
D26*
X253585455Y-38975715D03*
D25*
X249247877Y-37508364D03*
D24*
X248678552Y-40290516D03*
D30*
X246084470Y-38355996D03*
X257913593Y-32556791D03*
%TD*%
D45*
%TO.C,R12*%
X173410000Y-24600000D03*
X172390000Y-24600000D03*
%TD*%
D49*
%TO.C,D76*%
X29839773Y-93320984D03*
X29477427Y-94673280D03*
X35152365Y-94744488D03*
%TD*%
D38*
%TO.C,C91*%
X337899496Y-112429003D03*
X336972208Y-112677469D03*
%TD*%
D62*
%TO.C,J2*%
X177110001Y-22249999D03*
X182890001Y-22249999D03*
D63*
X176775001Y-23699999D03*
X177550001Y-23699999D03*
D64*
X178750001Y-23699999D03*
X179750001Y-23699999D03*
X180250001Y-23699999D03*
X181250001Y-23699999D03*
D63*
X182450001Y-23699999D03*
X183225001Y-23699999D03*
D64*
X181750001Y-23699999D03*
X180750001Y-23699999D03*
X179250001Y-23699999D03*
X178250001Y-23699999D03*
D65*
X175680001Y-18599999D03*
D66*
X175680001Y-22779999D03*
D65*
X184320001Y-18599999D03*
D66*
X184320001Y-22779999D03*
%TD*%
D39*
%TO.C,C34*%
X71039916Y-44188958D03*
X70112628Y-43940492D03*
%TD*%
D31*
%TO.C,D54*%
X297386173Y-87110659D03*
X297929693Y-89139103D03*
%TD*%
D18*
%TO.C,H6*%
X57499999Y-25249999D03*
%TD*%
D54*
%TO.C,C101*%
X143775000Y-23899999D03*
X142225000Y-23899999D03*
%TD*%
D92*
%TO.C,C2*%
X179379784Y-81959404D03*
X178419784Y-81959404D03*
%TD*%
D45*
%TO.C,R13*%
X175210000Y-70300000D03*
X174190000Y-70300000D03*
%TD*%
D49*
%TO.C,D89*%
X97779554Y-60576836D03*
X97417208Y-61929132D03*
X103092146Y-62000340D03*
%TD*%
D37*
%TO.C,D1*%
X42450388Y-25007107D03*
X41906868Y-27035551D03*
%TD*%
D71*
%TO.C,R9*%
X181799998Y-61409998D03*
X181799998Y-60389998D03*
%TD*%
D51*
%TO.C,D117*%
X256907879Y-62000348D03*
X257270225Y-63352644D03*
X262220471Y-60576844D03*
%TD*%
D89*
%TO.C,U12*%
X208999997Y-26684999D03*
X208499997Y-26684999D03*
X207999997Y-26684999D03*
X207499997Y-26684999D03*
X206999997Y-26684999D03*
X206999997Y-25914999D03*
X207499997Y-25914999D03*
X207999997Y-25914999D03*
X208499997Y-25914999D03*
X208999997Y-25914999D03*
%TD*%
D49*
%TO.C,D96*%
X105292252Y-106142641D03*
X104929906Y-107494937D03*
X110604844Y-107566145D03*
%TD*%
D73*
%TO.C,R1*%
X182599783Y-80849404D03*
X182599783Y-81869404D03*
%TD*%
D42*
%TO.C,D77*%
X29859503Y-114497656D03*
X30221849Y-113145360D03*
X24546911Y-113074152D03*
%TD*%
D73*
%TO.C,R8*%
X179424822Y-44839995D03*
X179424822Y-45859995D03*
%TD*%
D55*
%TO.C,C95*%
X166799998Y-28155673D03*
X166799998Y-27195673D03*
%TD*%
D31*
%TO.C,D53*%
X292455661Y-68709785D03*
X292999181Y-70738229D03*
%TD*%
D93*
%TO.C,C58*%
X134294861Y-153689257D03*
X133616039Y-153010435D03*
%TD*%
D46*
%TO.C,D113*%
X250139630Y-89094064D03*
X249777284Y-87741768D03*
X244827038Y-90517568D03*
%TD*%
D61*
%TO.C,D71*%
X160499989Y-112250006D03*
X159099989Y-112250006D03*
X160499989Y-117750006D03*
%TD*%
D92*
%TO.C,C6*%
X184579997Y-63599991D03*
X183619997Y-63599991D03*
%TD*%
D39*
%TO.C,C45*%
X96265643Y-60160853D03*
X95338355Y-59912387D03*
%TD*%
D31*
%TO.C,D32*%
X213510749Y-68497514D03*
X214054269Y-70525958D03*
%TD*%
D24*
%TO.C,SW40*%
X247339312Y-130173790D03*
D25*
X242599608Y-127044381D03*
D26*
X242939903Y-132713790D03*
D25*
X238370346Y-132419085D03*
D24*
X238540494Y-135253790D03*
D94*
X235534113Y-134056585D03*
X245459223Y-125393381D03*
%TD*%
D89*
%TO.C,U11*%
X152999998Y-26684999D03*
X152499998Y-26684999D03*
X151999998Y-26684999D03*
X151499998Y-26684999D03*
X150999998Y-26684999D03*
X150999998Y-25914999D03*
X151499998Y-25914999D03*
X151999998Y-25914999D03*
X152499998Y-25914999D03*
X152999998Y-25914999D03*
%TD*%
D37*
%TO.C,D23*%
X108041880Y-74630565D03*
X107498360Y-76659009D03*
%TD*%
D79*
%TO.C,Q1*%
X161849999Y-29713171D03*
X159949999Y-29713171D03*
X160899999Y-27838171D03*
%TD*%
D52*
%TO.C,C54*%
X144127025Y-62129104D03*
X145054313Y-62377570D03*
%TD*%
D42*
%TO.C,D82*%
X48876699Y-117128040D03*
X49239045Y-115775744D03*
X43564107Y-115704536D03*
%TD*%
D52*
%TO.C,C33*%
X31373422Y-114913648D03*
X32300710Y-115162114D03*
%TD*%
D51*
%TO.C,D132*%
X314986668Y-57942700D03*
X315349014Y-59294996D03*
X320299260Y-56519196D03*
%TD*%
D45*
%TO.C,R2*%
X181609788Y-80759407D03*
X180589788Y-80759407D03*
%TD*%
D95*
%TO.C,D69*%
X187368439Y-133262487D03*
X188068439Y-134474923D03*
X192131579Y-130512487D03*
%TD*%
D38*
%TO.C,C86*%
X318882289Y-115059397D03*
X317955001Y-115307863D03*
%TD*%
D45*
%TO.C,R16*%
X164310000Y-25000000D03*
X163290000Y-25000000D03*
%TD*%
D31*
%TO.C,D36*%
X226159384Y-42099306D03*
X226702904Y-44127750D03*
%TD*%
D53*
%TO.C,C15*%
X185924831Y-48319999D03*
X185924831Y-49279999D03*
%TD*%
D38*
%TO.C,C63*%
X220435963Y-79158381D03*
X219508675Y-79406847D03*
%TD*%
D24*
%TO.C,SW46*%
X277920432Y-36563942D03*
D25*
X274152180Y-32314439D03*
D26*
X273013529Y-37878743D03*
D25*
X268675951Y-36411392D03*
D24*
X268106626Y-39193544D03*
D30*
X265512544Y-37259024D03*
X277341667Y-31459819D03*
%TD*%
D39*
%TO.C,C56*%
X135193326Y-99179335D03*
X134266038Y-98930869D03*
%TD*%
D47*
%TO.C,C72*%
X259171401Y-43131573D03*
X260098689Y-42883107D03*
%TD*%
D24*
%TO.C,SW51*%
X297553945Y-36233657D03*
D25*
X293785693Y-31984154D03*
D26*
X292647042Y-37548458D03*
D25*
X288309464Y-36081107D03*
D24*
X287740139Y-38863259D03*
D30*
X285146057Y-36928739D03*
X296975180Y-31129534D03*
%TD*%
D35*
%TO.C,C23*%
X194317617Y-100761175D03*
X193486233Y-100281175D03*
%TD*%
D51*
%TO.C,D122*%
X276335947Y-60903380D03*
X276698293Y-62255676D03*
X281648539Y-59479876D03*
%TD*%
D39*
%TO.C,C31*%
X42161715Y-78360341D03*
X41234427Y-78111875D03*
%TD*%
D31*
%TO.C,D59*%
X316403351Y-84480271D03*
X316946871Y-86508715D03*
%TD*%
D39*
%TO.C,C29*%
X52022717Y-41558576D03*
X51095429Y-41310110D03*
%TD*%
D24*
%TO.C,SW60*%
X336293143Y-107206797D03*
D25*
X332524891Y-102957294D03*
D26*
X331386240Y-108521598D03*
D25*
X327048662Y-107054247D03*
D24*
X326479337Y-109836399D03*
D30*
X323885255Y-107901879D03*
X335714378Y-102102674D03*
%TD*%
D49*
%TO.C,D99*%
X132732389Y-77338179D03*
X132370043Y-78690475D03*
X138044981Y-78761683D03*
%TD*%
D42*
%TO.C,D80*%
X58737723Y-80326266D03*
X59100069Y-78973970D03*
X53425131Y-78902762D03*
%TD*%
D38*
%TO.C,C61*%
X207897991Y-161990750D03*
X206970703Y-162239216D03*
%TD*%
D24*
%TO.C,SW37*%
X246049176Y-64825840D03*
D25*
X242280924Y-60576337D03*
D26*
X241142273Y-66140641D03*
D25*
X236804695Y-64673290D03*
D24*
X236235370Y-67455442D03*
D30*
X233641288Y-65520922D03*
X245470411Y-59721717D03*
%TD*%
D37*
%TO.C,D9*%
X46676072Y-82840162D03*
X46132552Y-84868606D03*
%TD*%
D47*
%TO.C,C83*%
X293523097Y-61218240D03*
X294450385Y-60969774D03*
%TD*%
D40*
%TO.C,C100*%
X143820001Y-20099999D03*
X144780001Y-20099999D03*
%TD*%
D51*
%TO.C,D109*%
X231816049Y-115563473D03*
X232178395Y-116915769D03*
X237128641Y-114139969D03*
%TD*%
D41*
%TO.C,C71*%
X250242511Y-134802283D03*
X249411127Y-135282283D03*
%TD*%
D72*
%TO.C,C4*%
X167225000Y-47250000D03*
X165675000Y-47250000D03*
%TD*%
D31*
%TO.C,D42*%
X248463585Y-51736155D03*
X249007105Y-53764599D03*
%TD*%
D37*
%TO.C,D22*%
X112972369Y-56229661D03*
X112428849Y-58258105D03*
%TD*%
D44*
%TO.C,C10*%
X173750000Y-46775000D03*
X173750000Y-45225000D03*
%TD*%
D38*
%TO.C,C82*%
X299160298Y-41455830D03*
X298233010Y-41704296D03*
%TD*%
D52*
%TO.C,C32*%
X27398581Y-92656512D03*
X28325869Y-92904978D03*
%TD*%
D96*
%TO.C,FB1*%
X170937501Y-21575671D03*
X173062501Y-21575671D03*
%TD*%
D52*
%TO.C,C55*%
X130291182Y-76673718D03*
X131218470Y-76922184D03*
%TD*%
D40*
%TO.C,C20*%
X175419998Y-26975670D03*
X176379998Y-26975670D03*
%TD*%
D37*
%TO.C,D3*%
X32589380Y-61808889D03*
X32045860Y-63837333D03*
%TD*%
D92*
%TO.C,C102*%
X216180001Y-20099999D03*
X215220001Y-20099999D03*
%TD*%
D46*
%TO.C,D133*%
X325592097Y-76272366D03*
X325229751Y-74920070D03*
X320279505Y-77695870D03*
%TD*%
D52*
%TO.C,C36*%
X60251634Y-80742262D03*
X61178922Y-80990728D03*
%TD*%
D37*
%TO.C,D11*%
X81101099Y-27967789D03*
X80557579Y-29996233D03*
%TD*%
D38*
%TO.C,C78*%
X274816864Y-61300051D03*
X273889576Y-61548517D03*
%TD*%
D46*
%TO.C,D126*%
X296713918Y-42100996D03*
X296351572Y-40748700D03*
X291401326Y-43524500D03*
%TD*%
D31*
%TO.C,D49*%
X277752657Y-87440953D03*
X278296177Y-89469397D03*
%TD*%
D72*
%TO.C,C103*%
X216224998Y-23899998D03*
X217774998Y-23899998D03*
%TD*%
D55*
%TO.C,C5*%
X186400002Y-61379998D03*
X186400002Y-60419998D03*
%TD*%
D31*
%TO.C,D46*%
X262961155Y-32238295D03*
X263504675Y-34266739D03*
%TD*%
D92*
%TO.C,C96*%
X175180000Y-71400000D03*
X174220000Y-71400000D03*
%TD*%
D46*
%TO.C,D111*%
X240278611Y-52292289D03*
X239916265Y-50939993D03*
X234966019Y-53715793D03*
%TD*%
D58*
%TO.C,C93*%
X187000000Y-113174999D03*
X187000000Y-111624999D03*
%TD*%
D97*
%TO.C,D35*%
X214048443Y-146234644D03*
X215533367Y-147719568D03*
%TD*%
D37*
%TO.C,D27*%
X130551489Y-64227000D03*
X130007969Y-66255444D03*
%TD*%
D98*
%TO.C,D70*%
X167868429Y-130512491D03*
X167168429Y-131724927D03*
X172631569Y-133262491D03*
%TD*%
D38*
%TO.C,C76*%
X269810691Y-128197734D03*
X268883403Y-128446200D03*
%TD*%
D47*
%TO.C,C65*%
X229369669Y-116208618D03*
X230296957Y-115960152D03*
%TD*%
D71*
%TO.C,R5*%
X189099996Y-48809998D03*
X189099996Y-47789998D03*
%TD*%
D51*
%TO.C,D114*%
X249395181Y-107566163D03*
X249757527Y-108918459D03*
X254707773Y-106142659D03*
%TD*%
D46*
%TO.C,D123*%
X286941407Y-79233056D03*
X286579061Y-77880760D03*
X281628815Y-80656560D03*
%TD*%
D39*
%TO.C,C49*%
X127475206Y-54380236D03*
X126547918Y-54131770D03*
%TD*%
D46*
%TO.C,D135*%
X335453113Y-113074149D03*
X335090767Y-111721853D03*
X330140521Y-114497653D03*
%TD*%
D18*
%TO.C,H4*%
X221399998Y-25999998D03*
%TD*%
D99*
%TO.C,D62*%
X171750012Y-152859990D03*
X171750012Y-154959990D03*
%TD*%
D46*
%TO.C,D128*%
X306574918Y-78902777D03*
X306212572Y-77550481D03*
X301262326Y-80326281D03*
%TD*%
D55*
%TO.C,C17*%
X179899826Y-60069328D03*
X179899826Y-59109328D03*
%TD*%
D50*
%TO.C,D97*%
X116701420Y-138815746D03*
X117401420Y-137603310D03*
X111938280Y-136065746D03*
%TD*%
D52*
%TO.C,C51*%
X116686906Y-90933576D03*
X117614194Y-91182042D03*
%TD*%
%TO.C,C52*%
X102851040Y-105478168D03*
X103778328Y-105726634D03*
%TD*%
D24*
%TO.C,SW54*%
X312345464Y-91436315D03*
D25*
X308577212Y-87186812D03*
D26*
X307438561Y-92751116D03*
D25*
X303100983Y-91283765D03*
D24*
X302531658Y-94065917D03*
D30*
X299937576Y-92131397D03*
X311766699Y-86332192D03*
%TD*%
D18*
%TO.C,H9*%
X58000000Y-123999998D03*
%TD*%
D31*
%TO.C,D31*%
X208580261Y-50096611D03*
X209123781Y-52125055D03*
%TD*%
D52*
%TO.C,C37*%
X46415758Y-95286891D03*
X47343046Y-95535357D03*
%TD*%
D24*
%TO.C,SW55*%
X317275964Y-109837201D03*
D25*
X313507712Y-105587698D03*
D26*
X312369061Y-111152002D03*
D25*
X308031483Y-109684651D03*
D24*
X307462158Y-112466803D03*
D30*
X304868076Y-110532283D03*
X316697199Y-104733078D03*
%TD*%
D47*
%TO.C,C69*%
X251658721Y-88697382D03*
X252586009Y-88448916D03*
%TD*%
D92*
%TO.C,C16*%
X189679998Y-53099992D03*
X188719998Y-53099992D03*
%TD*%
D24*
%TO.C,SW48*%
X287781444Y-73365710D03*
D25*
X284013192Y-69116207D03*
D26*
X282874541Y-74680511D03*
D25*
X278536963Y-73213160D03*
D24*
X277967638Y-75995312D03*
D30*
X275373556Y-74060792D03*
X287202679Y-68261587D03*
%TD*%
D83*
%TO.C,R17*%
X171489996Y-30275673D03*
X172509996Y-30275673D03*
%TD*%
D31*
%TO.C,D43*%
X253394068Y-70137042D03*
X253937588Y-72165486D03*
%TD*%
%TO.C,D52*%
X287525174Y-50308897D03*
X288068694Y-52337341D03*
%TD*%
D39*
%TO.C,C41*%
X80812411Y-81321005D03*
X79885123Y-81072539D03*
%TD*%
D38*
%TO.C,C75*%
X265252376Y-99208453D03*
X264325088Y-99456919D03*
%TD*%
D18*
%TO.C,H5*%
X138599997Y-25999998D03*
%TD*%
D100*
%TO.C,D72*%
X172631581Y-96737511D03*
X171931581Y-95525075D03*
X167868441Y-99487511D03*
%TD*%
D37*
%TO.C,D29*%
X120690496Y-101028774D03*
X120146976Y-103057218D03*
%TD*%
D101*
%TO.C,D40*%
X231770198Y-129867287D03*
X232820198Y-131685941D03*
%TD*%
D53*
%TO.C,C94*%
X188299993Y-112319995D03*
X188299993Y-113279995D03*
%TD*%
D102*
%TO.C,Y1*%
X184950007Y-59800000D03*
X184950007Y-62000000D03*
X183250007Y-62000000D03*
X183250007Y-59800000D03*
%TD*%
D38*
%TO.C,C74*%
X269959695Y-79684866D03*
X269032407Y-79933332D03*
%TD*%
D40*
%TO.C,C18*%
X174119884Y-53099994D03*
X175079884Y-53099994D03*
%TD*%
D103*
%TO.C,C26*%
X165682379Y-129238830D03*
X166513763Y-129718830D03*
%TD*%
D24*
%TO.C,SW53*%
X307414958Y-73035418D03*
D25*
X303646706Y-68785915D03*
D26*
X302508055Y-74350219D03*
D25*
X298170477Y-72882868D03*
D24*
X297601152Y-75665020D03*
D30*
X295007070Y-73730500D03*
X306836193Y-67931295D03*
%TD*%
D24*
%TO.C,SW35*%
X229166388Y-142501135D03*
D25*
X223778235Y-140705083D03*
D26*
X225574286Y-146093237D03*
D25*
X221084158Y-146991263D03*
D24*
X221982184Y-149685339D03*
D104*
X218768383Y-149307037D03*
X226113101Y-138370217D03*
%TD*%
D24*
%TO.C,SW34*%
X238331036Y-109624914D03*
D25*
X234562784Y-105375411D03*
D26*
X233424133Y-110939715D03*
D25*
X229086555Y-109472364D03*
D24*
X228517230Y-112254516D03*
D30*
X225923148Y-110319996D03*
X237752271Y-104520791D03*
%TD*%
D71*
%TO.C,R11*%
X173199998Y-112010004D03*
X173199998Y-110990004D03*
%TD*%
D105*
%TO.C,D25*%
X113940409Y-121617301D03*
X112890409Y-123435955D03*
%TD*%
D37*
%TO.C,D24*%
X103111377Y-93031442D03*
X102567857Y-95059886D03*
%TD*%
D52*
%TO.C,C35*%
X56276750Y-58485099D03*
X57204038Y-58733565D03*
%TD*%
D45*
%TO.C,R3*%
X179409784Y-80759399D03*
X178389784Y-80759399D03*
%TD*%
D83*
%TO.C,R25*%
X171489998Y-28075670D03*
X172509998Y-28075670D03*
%TD*%
D12*
%TO.C,J1*%
X174259997Y-63299363D03*
D13*
X176799997Y-63299363D03*
X179339997Y-63299363D03*
%TD*%
D47*
%TO.C,C73*%
X254461497Y-62645491D03*
X255388785Y-62397025D03*
%TD*%
D82*
%TO.C,D64*%
X174100000Y-19899999D03*
X174100000Y-18499999D03*
%TD*%
D49*
%TO.C,D94*%
X115153235Y-69340852D03*
X114790889Y-70693148D03*
X120465827Y-70764356D03*
%TD*%
D37*
%TO.C,D26*%
X135481997Y-45826110D03*
X134938477Y-47854554D03*
%TD*%
D51*
%TO.C,D119*%
X266768881Y-98802117D03*
X267131227Y-100154413D03*
X272081473Y-97378613D03*
%TD*%
D31*
%TO.C,D38*%
X236020387Y-78901066D03*
X236563907Y-80929510D03*
%TD*%
D47*
%TO.C,C68*%
X237087812Y-71409547D03*
X238015100Y-71161081D03*
%TD*%
D46*
%TO.C,D120*%
X267366892Y-128852540D03*
X267004546Y-127500244D03*
X262054300Y-130276044D03*
%TD*%
D40*
%TO.C,C1*%
X180619789Y-81959403D03*
X181579789Y-81959403D03*
%TD*%
D24*
%TO.C,SW42*%
X263422857Y-56061796D03*
D25*
X259654605Y-51812293D03*
D26*
X258515954Y-57376597D03*
D25*
X254178376Y-55909246D03*
D24*
X253609051Y-58691398D03*
D30*
X251014969Y-56756878D03*
X262844092Y-50957673D03*
%TD*%
D100*
%TO.C,D115*%
X248046462Y-136058636D03*
X247346462Y-134846200D03*
X243283322Y-138808636D03*
%TD*%
D46*
%TO.C,D116*%
X257652296Y-43528257D03*
X257289950Y-42175961D03*
X252339704Y-44951761D03*
%TD*%
D106*
%TO.C,D110*%
X231371366Y-148002757D03*
X230381417Y-147012808D03*
X227482279Y-151891844D03*
%TD*%
D83*
%TO.C,R6*%
X194490000Y-42600000D03*
X195510000Y-42600000D03*
%TD*%
D47*
%TO.C,C87*%
X317250162Y-39073923D03*
X318177450Y-38825457D03*
%TD*%
D37*
%TO.C,D5*%
X22728388Y-98610650D03*
X22184868Y-100639094D03*
%TD*%
D83*
%TO.C,R26*%
X171489998Y-26975670D03*
X172509998Y-26975670D03*
%TD*%
D39*
%TO.C,C57*%
X121357459Y-113723975D03*
X120430171Y-113475509D03*
%TD*%
D24*
%TO.C,SW56*%
X316571143Y-33603261D03*
D25*
X312802891Y-29353758D03*
D26*
X311664240Y-34918062D03*
D25*
X307326662Y-33450711D03*
D24*
X306757337Y-36232863D03*
D30*
X304163255Y-34298343D03*
X315992378Y-28499138D03*
%TD*%
D49*
%TO.C,D74*%
X39700768Y-56519192D03*
X39338422Y-57871488D03*
X45013360Y-57942696D03*
%TD*%
D39*
%TO.C,C59*%
X162326942Y-164730524D03*
X161399654Y-164482058D03*
%TD*%
D107*
%TO.C,D30*%
X134284317Y-134567399D03*
X132799393Y-136052323D03*
%TD*%
D38*
%TO.C,C77*%
X279526762Y-41786137D03*
X278599474Y-42034603D03*
%TD*%
D73*
%TO.C,R7*%
X180574823Y-44840006D03*
X180574823Y-45860006D03*
%TD*%
D31*
%TO.C,D51*%
X282594666Y-31907996D03*
X283138186Y-33936440D03*
%TD*%
D24*
%TO.C,SW36*%
X241118654Y-46424958D03*
D25*
X237350402Y-42175455D03*
D26*
X236211751Y-47739759D03*
D25*
X231874173Y-46272408D03*
D24*
X231304848Y-49054560D03*
D30*
X228710766Y-47120040D03*
X240539889Y-41320835D03*
%TD*%
D49*
%TO.C,D79*%
X58717968Y-59149575D03*
X58355622Y-60501871D03*
X64030560Y-60573079D03*
%TD*%
D24*
%TO.C,SW39*%
X255910176Y-101627606D03*
D25*
X252141924Y-97378103D03*
D26*
X251003273Y-102942407D03*
D25*
X246665695Y-101475056D03*
D24*
X246096370Y-104257208D03*
D30*
X243502288Y-102322688D03*
X255331411Y-96523483D03*
%TD*%
D24*
%TO.C,SW32*%
X228470028Y-72823151D03*
D25*
X224701776Y-68573648D03*
D26*
X223563125Y-74137952D03*
D25*
X219225547Y-72670601D03*
D24*
X218656222Y-75452753D03*
D30*
X216062140Y-73518233D03*
X227891263Y-67719028D03*
%TD*%
D37*
%TO.C,D12*%
X76170582Y-46368683D03*
X75627062Y-48397127D03*
%TD*%
D108*
%TO.C,C25*%
X185172382Y-134518831D03*
X186003766Y-134038831D03*
%TD*%
D31*
%TO.C,D45*%
X253247644Y-118659562D03*
X253791164Y-120688006D03*
%TD*%
%TO.C,D44*%
X258324579Y-88537907D03*
X258868099Y-90566351D03*
%TD*%
D37*
%TO.C,D15*%
X61379097Y-101571318D03*
X60835577Y-103599762D03*
%TD*%
%TO.C,D13*%
X71240083Y-64769550D03*
X70696563Y-66797994D03*
%TD*%
D46*
%TO.C,D121*%
X277080392Y-42431282D03*
X276718046Y-41078986D03*
X271767800Y-43854786D03*
%TD*%
D37*
%TO.C,D20*%
X90814612Y-114389060D03*
X90271092Y-116417504D03*
%TD*%
D55*
%TO.C,C27*%
X160510003Y-110680002D03*
X160510003Y-109720002D03*
%TD*%
D42*
%TO.C,D88*%
X107660312Y-44951747D03*
X108022658Y-43599451D03*
X102347720Y-43528243D03*
%TD*%
D46*
%TO.C,D118*%
X267513326Y-80330041D03*
X267150980Y-78977745D03*
X262200734Y-81753545D03*
%TD*%
M02*
