M48
; DRILL file {KiCad 7.0.5} date Thu Jul  6 12:29:14 2023
; FORMAT={-:-/ absolute / inch / decimal}
; #@! TF.CreationDate,2023-07-06T12:29:14+01:00
; #@! TF.GenerationSoftware,Kicad,Pcbnew,7.0.5
; #@! TF.FileFunction,Plated,1,2,PTH
FMAT,2
INCH
; #@! TA.AperFunction,Plated,PTH,ViaDrill
T1C0.0098
; #@! TA.AperFunction,Plated,PTH,ViaDrill
T2C0.0118
; #@! TA.AperFunction,Plated,PTH,ComponentDrill
T3C0.0118
; #@! TA.AperFunction,Plated,PTH,ComponentDrill
T4C0.0236
; #@! TA.AperFunction,Plated,PTH,ComponentDrill
T5C0.0276
; #@! TA.AperFunction,Plated,PTH,ComponentDrill
T6C0.0394
; #@! TA.AperFunction,Plated,PTH,ComponentDrill
T7C0.0472
; #@! TA.AperFunction,Plated,PTH,ComponentDrill
T8C0.0709
; #@! TA.AperFunction,Plated,PTH,ComponentDrill
T9C0.0787
; #@! TA.AperFunction,Plated,PTH,ComponentDrill
T10C0.0866
; #@! TA.AperFunction,Plated,PTH,ComponentDrill
T11C0.1181
; #@! TA.AperFunction,Plated,PTH,ComponentDrill
T12C0.1200
; #@! TA.AperFunction,Plated,PTH,ComponentDrill
T13C0.1260
%
G90
G05
T1
X2.6811Y-2.563
X2.6811Y-2.7205
X2.9331Y-2.6693
X3.6811Y-2.7717
X4.4567Y-2.7835
X5.2205Y-2.8268
X5.9055Y-3.1732
X5.9548Y-6.1775
X6.1321Y-5.5158
X6.3431Y-4.7286
X6.5204Y-4.067
X6.6026Y-3.435
X6.6137Y-7.5714
X6.6303Y-3.5502
X6.6824Y-7.2594
X6.8031Y-3.5512
X6.815Y-3.7047
X6.9724Y-4.6315
X7.0098Y-2.7539
X7.0455Y-3.6811
X7.0512Y-3.0
X7.0827Y-3.2992
X7.1046Y-3.622
X7.1181Y-3.3543
X7.1339Y-2.9016
X7.1417Y-3.3386
X7.2047Y-3.1732
X7.2441Y-3.2598
X7.2815Y-2.5295
X7.2913Y-3.2598
X7.3386Y-3.1969
X7.3386Y-3.3071
X7.3504Y-3.0039
X7.3622Y-3.1762
X7.3622Y-3.2835
X7.374Y-6.622
X7.4291Y-3.0472
X7.4488Y-2.4173
X7.4606Y-2.8858
X7.4803Y-3.0039
X7.4803Y-3.0472
X7.4843Y-2.8622
X7.5748Y-3.5906
X7.5984Y-3.6142
X7.622Y-3.6378
X7.6457Y-3.6614
X7.6693Y-3.685
X7.7047Y-5.2205
X7.748Y-3.7323
X7.752Y-4.6339
X7.7598Y-2.5315
X7.7598Y-2.815
X7.7638Y-3.4764
X7.7835Y-5.1024
X7.7953Y-3.4764
X7.7992Y-5.1575
X7.7992Y-5.2205
X7.811Y-2.5315
X7.8189Y-3.6142
X7.8189Y-3.3164
X7.8307Y-5.2205
X7.8307Y-2.815
X7.8307Y-4.8465
X7.8307Y-4.9173
X7.8425Y-3.5906
X7.8445Y-3.3282
X7.8543Y-4.8661
X7.8543Y-4.937
X7.8661Y-5.2559
X7.878Y-4.8898
X7.878Y-4.9567
X7.9094Y-5.1575
X7.9213Y-3.6378
X7.9528Y-3.6378
X7.9843Y-3.6378
X8.0Y-3.4343
X8.0197Y-3.6378
X8.0646Y-6.6283
X8.0902Y-3.2697
X8.1457Y-3.4606
X8.1968Y-3.3792
X8.2559Y-3.5315
X8.2795Y-3.5079
X8.3031Y-3.4843
X8.4311Y-3.6516
X8.5079Y-6.6299
X8.5157Y-3.7008
X8.5283Y-3.7684
X8.6053Y-3.5445
X8.6417Y-3.3228
X8.6417Y-3.6379
X8.6653Y-3.3031
X8.6654Y-3.6614
X8.689Y-3.0157
X8.7126Y-3.0
X8.7296Y-4.4528
X8.7362Y-2.9843
X8.7362Y-3.6102
X8.7362Y-3.6732
X8.7362Y-3.6417
X8.7559Y-6.2953
X8.7795Y-6.2717
X8.8031Y-6.248
X8.8268Y-6.2244
X8.8504Y-6.3898
X8.874Y-6.3661
X8.8976Y-6.3425
X8.9173Y-3.563
X8.9213Y-6.3189
X8.9442Y-4.3129
X8.9528Y-4.2296
X8.9646Y-4.4803
X8.9921Y-3.4016
X9.0118Y-4.3129
X9.0512Y-4.4803
X9.063Y-6.8748
X9.063Y-7.5354
X9.0854Y-4.124
X9.0945Y-6.874
X9.0945Y-7.5354
X9.1654Y-7.25
X9.1654Y-7.4035
X9.2613Y-4.78
X9.2677Y-3.4134
X9.4726Y-5.569
X9.6495Y-6.2289
X9.9528Y-3.1024
X10.6417Y-2.7559
X11.4094Y-2.7126
X12.189Y-2.6969
T2
X1.6376Y-6.0058
X1.6447Y-5.9792
X1.7535Y-5.2462
X2.0091Y-6.1482
X2.0258Y-4.5569
X2.033Y-4.5303
X2.1179Y-5.4151
X2.125Y-5.3885
X2.1417Y-3.7973
X2.3863Y-6.1094
X2.3934Y-6.0828
X2.3973Y-4.6993
X2.414Y-3.1081
X2.4212Y-3.0814
X2.5022Y-5.3497
X2.5061Y-3.9662
X2.5132Y-3.9396
X2.7578Y-6.2517
X2.7745Y-4.6605
X2.7817Y-4.6339
X2.7855Y-3.2504
X2.8666Y-5.5187
X2.8737Y-5.4921
X2.8904Y-3.9008
X3.146Y-4.8028
X3.1593Y-6.1224
X3.1628Y-3.2116
X3.1664Y-6.0958
X3.1699Y-3.185
X3.2548Y-4.0698
X3.2619Y-4.0432
X3.2752Y-5.3627
X3.5308Y-6.2647
X3.5342Y-3.3539
X3.5475Y-4.6735
X3.5546Y-4.6469
X3.6395Y-5.5317
X3.6467Y-5.5051
X3.6634Y-3.9138
X3.919Y-4.8158
X3.9357Y-3.2246
X3.9429Y-3.198
X4.0278Y-4.0828
X4.0349Y-4.0562
X4.0401Y-5.4059
X4.3072Y-3.367
X4.3124Y-4.7167
X4.3182Y-6.627
X4.3195Y-4.6901
X4.3253Y-6.6004
X4.4044Y-5.5749
X4.4116Y-5.5483
X4.4283Y-3.957
X4.6839Y-4.859
X4.6896Y-6.7694
X4.7006Y-3.2678
X4.7077Y-3.2412
X4.7241Y-5.751
X4.7927Y-4.126
X4.7998Y-4.0994
X4.9964Y-5.0617
X5.0035Y-5.0351
X5.067Y-6.8932
X5.0721Y-3.4101
X5.0807Y-6.8694
X5.0884Y-5.9199
X5.0956Y-5.8933
X5.1123Y-4.3021
X5.3679Y-5.2041
X5.3846Y-3.6128
X5.3889Y-7.1269
X5.3918Y-3.5862
X5.4162Y-6.0658
X5.4767Y-4.471
X5.4838Y-4.4444
X5.6885Y-5.3766
X5.6956Y-5.35
X5.7213Y-7.3442
X5.7408Y-7.3247
X5.7561Y-3.7552
X5.7805Y-6.2348
X5.7877Y-6.2081
X5.8044Y-4.6169
X5.9719Y-7.6532
X6.0144Y-6.1528
X6.0487Y-6.1619
X6.06Y-5.5189
X6.0767Y-3.9277
X6.0838Y-3.9011
X6.1569Y-5.6211
X6.1688Y-4.7859
X6.1759Y-4.7593
X6.1911Y-5.6302
X6.378Y-5.0709
X6.3812Y-8.0835
X6.4027Y-4.7039
X6.4063Y-8.1085
X6.4369Y-4.713
X6.4482Y-4.07
X6.5079Y-7.2244
X6.5354Y-5.2283
X6.5354Y-6.0709
X6.5354Y-7.2244
X6.5451Y-4.1722
X6.5512Y-4.4134
X6.5512Y-5.1693
X6.5794Y-4.1813
X6.5984Y-4.5079
X6.6083Y-2.9862
X6.6535Y-4.5472
X6.6634Y-3.2534
X6.6811Y-5.6457
X6.6811Y-5.6142
X6.6818Y-7.1659
X6.6929Y-2.8661
X6.6929Y-2.8937
X6.6956Y-7.142
X6.7047Y-3.3898
X6.7106Y-5.6142
X6.7106Y-5.6457
X6.7205Y-2.8661
X6.7205Y-3.7047
X6.7205Y-3.748
X6.7402Y-5.6142
X6.7402Y-5.6457
X6.7441Y-4.0118
X6.7441Y-3.9331
X6.7441Y-3.9646
X6.7441Y-3.8543
X6.7441Y-3.8858
X6.7441Y-4.0433
X6.748Y-2.8661
X6.752Y-4.1693
X6.7559Y-3.6417
X6.7579Y-3.813
X6.7579Y-3.7854
X6.7756Y-6.2323
X6.7756Y-5.6811
X6.7756Y-5.5787
X6.7953Y-3.3898
X6.8012Y-3.6181
X6.8031Y-3.2126
X6.8031Y-3.0118
X6.8031Y-3.1634
X6.8031Y-3.061
X6.8031Y-3.1122
X6.8268Y-3.6181
X6.8268Y-2.8898
X6.8425Y-2.815
X6.8465Y-3.5118
X6.8465Y-3.5394
X6.8524Y-3.6181
X6.8543Y-2.8898
X6.874Y-3.5118
X6.874Y-3.5394
X6.9016Y-3.5394
X6.9016Y-3.5118
X6.9449Y-3.561
X6.9449Y-4.7559
X6.9528Y-3.2323
X6.9528Y-3.1496
X6.9606Y-2.8792
X6.9724Y-5.6811
X6.9764Y-3.3858
X7.0038Y-7.3995
X7.0101Y-5.473
X7.0118Y-5.5787
X7.0356Y-5.4836
X7.0394Y-3.2874
X7.0414Y-5.6823
X7.0512Y-5.6142
X7.0512Y-5.6457
X7.0827Y-5.6142
X7.0827Y-5.6457
X7.0846Y-2.752
X7.0945Y-3.2638
X7.1024Y-3.937
X7.1291Y-6.0742
X7.1496Y-3.1969
X7.1496Y-3.6299
X7.1546Y-6.0636
X7.1574Y-4.1695
X7.1654Y-2.9803
X7.1693Y-2.748
X7.1732Y-3.3386
X7.1732Y-3.3701
X7.185Y-2.2244
X7.185Y-3.1142
X7.185Y-3.1457
X7.189Y-3.7717
X7.1949Y-2.5866
X7.1949Y-2.626
X7.1949Y-2.5472
X7.2126Y-2.6949
X7.2146Y-2.8976
X7.2165Y-3.4685
X7.2165Y-3.5512
X7.2252Y-5.1338
X7.2264Y-2.9528
X7.252Y-2.6949
X7.2638Y-5.315
X7.2874Y-3.5669
X7.2953Y-3.3858
X7.2992Y-6.2
X7.2992Y-2.6732
X7.2992Y-2.998
X7.3002Y-3.0472
X7.3031Y-2.2244
X7.3268Y-2.6732
X7.3268Y-6.0984
X7.3504Y-3.5669
X7.351Y-4.9638
X7.3543Y-2.6732
X7.3616Y-4.9892
X7.3661Y-2.7874
X7.3661Y-2.815
X7.3661Y-2.4567
X7.3661Y-2.8425
X7.3701Y-2.8819
X7.3701Y-2.9331
X7.3937Y-2.815
X7.3937Y-2.8425
X7.3937Y-2.7874
X7.4173Y-2.4567
X7.4213Y-6.9488
X7.4213Y-2.7874
X7.4213Y-2.8425
X7.4213Y-2.815
X7.437Y-6.0354
X7.437Y-3.3543
X7.437Y-3.4213
X7.4488Y-3.6299
X7.4921Y-3.4213
X7.5Y-7.622
X7.5098Y-3.563
X7.5118Y-2.7362
X7.5118Y-2.7047
X7.5197Y-3.4055
X7.5256Y-2.4547
X7.5433Y-2.748
X7.5433Y-2.9173
X7.5787Y-2.7913
X7.5787Y-2.8858
X7.6024Y-2.5433
X7.6024Y-2.5748
X7.6024Y-2.6063
X7.6063Y-2.7598
X7.6102Y-2.4764
X7.6102Y-2.5079
X7.6102Y-2.6732
X7.6142Y-3.3543
X7.6181Y-3.4311
X7.622Y-2.9685
X7.626Y-5.1614
X7.6299Y-3.1311
X7.6339Y-3.0118
X7.6339Y-3.0957
X7.6358Y-3.563
X7.6384Y-6.4151
X7.6398Y-8.2283
X7.6398Y-8.2559
X7.6398Y-7.4783
X7.6398Y-7.5059
X7.6417Y-2.4764
X7.6417Y-2.5079
X7.6437Y-3.4311
X7.6489Y-6.3896
X7.6575Y-2.9082
X7.6614Y-3.0957
X7.6673Y-3.563
X7.6693Y-3.4311
X7.6693Y-2.7047
X7.687Y-5.1693
X7.689Y-3.0957
X7.6988Y-3.502
X7.6988Y-3.563
X7.7008Y-2.5551
X7.7008Y-2.5276
X7.7008Y-2.5
X7.7047Y-4.374
X7.7087Y-4.8622
X7.7103Y-2.9601
X7.7244Y-2.7047
X7.7244Y-4.9843
X7.7244Y-4.7992
X7.7313Y-3.0967
X7.7326Y-2.9378
X7.7362Y-4.7559
X7.7401Y-5.1029
X7.7549Y-2.9155
X7.7559Y-4.4528
X7.7638Y-3.0918
X7.7756Y-2.8937
X7.7953Y-2.663
X7.7953Y-6.2874
X7.7992Y-3.563
X7.8189Y-4.2717
X7.8228Y-3.1378
X7.8307Y-3.502
X7.8307Y-3.563
X7.8476Y-6.3838
X7.8581Y-2.7905
X7.886Y-2.7627
X7.8898Y-2.5276
X7.8898Y-2.5551
X7.8898Y-2.5
X7.8913Y-2.9684
X7.9016Y-4.9134
X7.9055Y-4.4882
X7.9065Y-5.1929
X7.9134Y-3.2756
X7.9138Y-2.7348
X7.9213Y-2.6654
X7.9291Y-4.7559
X7.937Y-3.3991
X7.9429Y-2.5965
X7.9488Y-2.4764
X7.9488Y-2.5079
X7.9528Y-2.8465
X7.9646Y-5.1614
X7.9803Y-2.4764
X7.9803Y-2.5079
X7.9803Y-4.3346
X7.9831Y-3.0603
X7.9882Y-4.8386
X8.0Y-3.3989
X8.0157Y-4.8504
X8.0177Y-3.372
X8.0354Y-8.2972
X8.0354Y-7.5472
X8.0413Y-3.565
X8.0453Y-3.372
X8.0748Y-5.3701
X8.0748Y-5.4528
X8.0787Y-3.3307
X8.0807Y-3.565
X8.0906Y-7.6181
X8.0917Y-3.1688
X8.0945Y-2.8661
X8.1063Y-3.3307
X8.1181Y-3.5
X8.126Y-5.4961
X8.1299Y-2.8425
X8.1417Y-3.6299
X8.1535Y-6.0354
X8.1693Y-6.9488
X8.2058Y-2.6316
X8.2087Y-5.2953
X8.2087Y-5.3583
X8.2087Y-5.3268
X8.2253Y-2.6121
X8.2281Y-3.322
X8.229Y-6.2706
X8.2395Y-6.2961
X8.2402Y-6.8425
X8.2638Y-6.0984
X8.2677Y-3.1673
X8.2715Y-3.2361
X8.2717Y-5.1732
X8.2894Y-3.3832
X8.291Y-3.2556
X8.2914Y-5.0598
X8.2977Y-3.3359
X8.3071Y-5.8937
X8.3105Y-3.2751
X8.3268Y-5.315
X8.3314Y-3.1679
X8.3465Y-2.9016
X8.3508Y-3.1484
X8.3654Y-6.126
X8.3703Y-3.1289
X8.374Y-3.4685
X8.3898Y-3.1095
X8.3926Y-3.3572
X8.4055Y-2.3189
X8.4055Y-3.4803
X8.4055Y-3.7717
X8.4093Y-3.09
X8.4121Y-3.3767
X8.4288Y-3.0705
X8.4316Y-3.3962
X8.4359Y-5.1962
X8.437Y-3.7205
X8.437Y-3.7717
X8.437Y-4.4055
X8.4483Y-3.09
X8.4511Y-3.3767
X8.4567Y-3.0315
X8.4614Y-5.1857
X8.4678Y-3.1095
X8.4705Y-4.4213
X8.4705Y-3.3572
X8.4764Y-6.6299
X8.5276Y-4.4173
X8.5492Y-5.5776
X8.5527Y-3.1944
X8.5541Y-3.2737
X8.555Y-5.7763
X8.5591Y-3.6181
X8.5736Y-3.2542
X8.5736Y-3.2152
X8.5804Y-5.7868
X8.593Y-3.2347
X8.6256Y-7.2975
X8.6299Y-3.2638
X8.6299Y-3.2047
X8.6394Y-7.3214
X8.6417Y-3.6929
X8.6417Y-3.7756
X8.6457Y-4.378
X8.6457Y-4.7559
X8.687Y-4.2441
X8.689Y-3.6929
X8.689Y-4.7559
X8.7402Y-4.2835
X8.7638Y-3.5118
X8.7638Y-3.5748
X8.7677Y-3.0512
X8.7874Y-3.1358
X8.8346Y-2.9488
X8.8701Y-3.374
X8.8819Y-2.7835
X8.9055Y-4.2008
X8.9134Y-4.5591
X8.9488Y-6.4488
X8.9724Y-4.4488
X8.9843Y-8.0217
X8.9921Y-7.5433
X8.9941Y-4.2854
X9.0027Y-7.1594
X9.0039Y-3.3622
X9.0072Y-4.1817
X9.0276Y-6.7677
X9.0276Y-7.5354
X9.0276Y-7.9094
X9.0276Y-8.1339
X9.0335Y-3.3622
X9.0354Y-2.9528
X9.0394Y-4.4488
X9.0414Y-4.1725
X9.0512Y-5.0512
X9.0512Y-6.122
X9.0551Y-5.1063
X9.0591Y-4.5118
X9.0709Y-8.0217
X9.1181Y-7.2205
X9.1299Y-7.4016
X9.15Y-4.7148
X9.1843Y-4.7056
X9.1929Y-8.0984
X9.1968Y-5.0157
X9.2063Y-3.9816
X9.2126Y-5.0709
X9.2134Y-4.0082
X9.3222Y-4.7412
X9.3954Y-5.6305
X9.4134Y-5.8346
X9.4296Y-5.6214
X9.5383Y-6.1637
X9.5725Y-6.1545
X9.5945Y-5.4305
X9.6016Y-5.4571
X9.6063Y-3.9457
X9.6298Y-7.5446
X9.6493Y-7.5641
X9.7104Y-6.1901
X9.7151Y-4.6788
X9.7222Y-4.7054
X9.8984Y-3.6667
X9.9055Y-3.6933
X9.9583Y-7.3136
X9.9945Y-5.3946
X10.0143Y-4.4264
X10.1033Y-6.1277
X10.1104Y-6.1543
X10.2405Y-7.0249
X10.2542Y-7.0488
X10.2866Y-5.1156
X10.2937Y-5.1422
X10.2984Y-3.6309
X10.4025Y-5.8753
X10.4072Y-4.3639
X10.4143Y-4.3905
X10.5824Y-3.3217
X10.5895Y-3.3483
X10.6176Y-6.8867
X10.6866Y-5.0798
X10.6983Y-4.0813
X10.7954Y-5.8128
X10.8025Y-5.8394
X10.9648Y-6.6809
X10.9706Y-4.7706
X10.972Y-6.7075
X10.9777Y-4.7972
X10.9824Y-3.2858
X11.0865Y-5.5302
X11.0912Y-4.0189
X11.0983Y-4.0455
X11.3473Y-3.2785
X11.3544Y-3.3051
X11.3649Y-6.645
X11.3706Y-4.7347
X11.4632Y-4.0382
X11.4794Y-5.4678
X11.4865Y-5.4944
X11.7355Y-4.7274
X11.7426Y-4.754
X11.7473Y-3.2426
X11.8514Y-5.487
X11.8561Y-3.9757
X11.8632Y-4.0023
X12.1202Y-3.2655
X12.1237Y-6.1763
X12.1274Y-3.2921
X12.1309Y-6.2029
X12.1355Y-4.6915
X12.2362Y-4.0252
X12.2443Y-5.4246
X12.2514Y-5.4512
X12.5085Y-4.7144
X12.5156Y-4.741
X12.5203Y-3.2296
X12.5237Y-6.1404
X12.6244Y-5.474
X12.629Y-3.9627
X12.6362Y-3.9893
X12.8689Y-3.1619
X12.8761Y-3.1885
X12.8967Y-6.1633
X12.9038Y-6.1899
X12.9085Y-4.6785
X12.9849Y-3.9216
X13.0173Y-5.4116
X13.0244Y-5.4382
X13.2572Y-4.6108
X13.2643Y-4.6374
X13.269Y-3.1261
X13.2967Y-6.1274
X13.3731Y-5.3705
X13.3777Y-3.8591
X13.3849Y-3.8857
X13.6454Y-6.0597
X13.6525Y-6.0863
X13.6572Y-4.575
X13.766Y-5.308
X13.7731Y-5.3346
X14.0454Y-6.0239
T3
X1.5057Y-5.7406
X1.5361Y-5.7488
X1.5373Y-5.6227
X1.5665Y-5.7569
X1.5677Y-5.6309
X1.5969Y-5.7651
X1.5981Y-5.639
X1.6285Y-5.6472
X1.6998Y-5.0162
X1.7302Y-5.0243
X1.7314Y-4.8983
X1.7606Y-5.0325
X1.7618Y-4.9064
X1.7911Y-5.0406
X1.7922Y-4.9146
X1.8227Y-4.9227
X1.8939Y-4.2917
X1.9243Y-4.2999
X1.9255Y-4.1738
X1.9548Y-4.308
X1.9559Y-4.182
X1.9852Y-4.3162
X1.9863Y-4.1901
X2.0168Y-4.1983
X2.0727Y-5.789
X2.088Y-3.5673
X2.1031Y-5.7972
X2.1043Y-5.6711
X2.1184Y-3.5754
X2.1196Y-3.4494
X2.1336Y-5.8053
X2.1347Y-5.6793
X2.1489Y-3.5836
X2.15Y-3.4575
X2.164Y-5.8135
X2.1651Y-5.6874
X2.1793Y-3.5917
X2.1805Y-3.4657
X2.1956Y-5.6956
X2.2109Y-3.4738
X2.2544Y-5.8442
X2.2668Y-5.0646
X2.2821Y-2.8428
X2.2848Y-5.8523
X2.286Y-5.7263
X2.2972Y-5.0727
X2.2984Y-4.9467
X2.3126Y-2.851
X2.3137Y-2.7249
X2.3152Y-5.8605
X2.3164Y-5.7344
X2.3277Y-5.0809
X2.3288Y-4.9548
X2.343Y-2.8591
X2.3441Y-2.7331
X2.3457Y-5.8686
X2.3468Y-5.7426
X2.3581Y-5.089
X2.3593Y-4.963
X2.3734Y-2.8673
X2.3746Y-2.7412
X2.3772Y-5.7507
X2.3897Y-4.9711
X2.405Y-2.7494
X2.4485Y-5.1197
X2.4609Y-4.3401
X2.4789Y-5.1279
X2.4801Y-5.0018
X2.4914Y-4.3483
X2.4925Y-4.2222
X2.5093Y-5.136
X2.5105Y-5.01
X2.5218Y-4.3564
X2.5229Y-4.2304
X2.5398Y-5.1442
X2.5409Y-5.0181
X2.5522Y-4.3646
X2.5534Y-4.2385
X2.5714Y-5.0263
X2.5838Y-4.2467
X2.6426Y-4.3953
X2.6551Y-3.6157
X2.673Y-4.4034
X2.6742Y-4.2774
X2.6855Y-3.6238
X2.6866Y-3.4978
X2.7035Y-4.4116
X2.7046Y-4.2855
X2.7159Y-3.632
X2.7171Y-3.5059
X2.7339Y-4.4197
X2.7351Y-4.2937
X2.7463Y-3.6401
X2.7475Y-3.5141
X2.7655Y-4.3018
X2.7779Y-3.5222
X2.8214Y-5.8926
X2.8367Y-3.6708
X2.8492Y-2.8912
X2.8518Y-5.9007
X2.853Y-5.7747
X2.8672Y-3.679
X2.8683Y-3.5529
X2.8796Y-2.8994
X2.8808Y-2.7733
X2.8823Y-5.9089
X2.8834Y-5.7828
X2.8976Y-3.6871
X2.8987Y-3.5611
X2.91Y-2.9075
X2.9112Y-2.7815
X2.9127Y-5.917
X2.9139Y-5.791
X2.928Y-3.6953
X2.9292Y-3.5692
X2.9404Y-2.9157
X2.9416Y-2.7896
X2.9443Y-5.7991
X2.9596Y-3.5774
X2.972Y-2.7978
X3.0155Y-5.1681
X3.0274Y-5.8572
X3.0308Y-2.9464
X3.046Y-5.1763
X3.0471Y-5.0502
X3.0578Y-5.8653
X3.0589Y-5.7393
X3.0613Y-2.9545
X3.0624Y-2.8285
X3.0764Y-5.1844
X3.0775Y-5.0584
X3.0882Y-5.8735
X3.0894Y-5.7474
X3.0917Y-2.9627
X3.0929Y-2.8366
X3.1068Y-5.1926
X3.108Y-5.0665
X3.1186Y-5.8816
X3.1198Y-5.7556
X3.1221Y-2.9708
X3.1233Y-2.8448
X3.1384Y-5.0747
X3.1502Y-5.7637
X3.1537Y-2.853
X3.2096Y-4.4437
X3.2215Y-5.1327
X3.2401Y-4.4518
X3.2412Y-4.3258
X3.2519Y-5.1409
X3.2531Y-5.0148
X3.2705Y-4.46
X3.2717Y-4.3339
X3.2823Y-5.149
X3.2835Y-5.023
X3.3009Y-4.4681
X3.3021Y-4.3421
X3.3127Y-5.1572
X3.3139Y-5.0311
X3.3325Y-4.3502
X3.3443Y-5.0393
X3.4038Y-3.7192
X3.4156Y-4.4083
X3.4342Y-3.7274
X3.4353Y-3.6013
X3.446Y-4.4164
X3.4472Y-4.2904
X3.4646Y-3.7355
X3.4658Y-3.6095
X3.4764Y-4.4246
X3.4776Y-4.2985
X3.495Y-3.7437
X3.4962Y-3.6177
X3.5069Y-4.4327
X3.508Y-4.3067
X3.5266Y-3.6258
X3.5384Y-4.3148
X3.5944Y-5.9056
X3.5979Y-2.9948
X3.6097Y-3.6838
X3.6248Y-5.9137
X3.626Y-5.7877
X3.6283Y-3.0029
X3.6295Y-2.8769
X3.6401Y-3.692
X3.6413Y-3.5659
X3.6552Y-5.9219
X3.6564Y-5.7958
X3.6587Y-3.0111
X3.6599Y-2.8851
X3.6705Y-3.7001
X3.6717Y-3.5741
X3.6857Y-5.93
X3.6868Y-5.804
X3.6891Y-3.0192
X3.6903Y-2.8932
X3.701Y-3.7083
X3.7021Y-3.5822
X3.7172Y-5.8121
X3.7207Y-2.9014
X3.7326Y-3.5904
X3.7885Y-5.1811
X3.8038Y-2.9594
X3.8189Y-5.1893
X3.8201Y-5.0632
X3.8342Y-2.9675
X3.8354Y-2.8415
X3.8493Y-5.1974
X3.8505Y-5.0714
X3.8647Y-2.9757
X3.8658Y-2.8497
X3.8798Y-5.2056
X3.8809Y-5.0795
X3.8951Y-2.9838
X3.8963Y-2.8578
X3.9114Y-5.0877
X3.9267Y-2.866
X3.9826Y-4.4567
X3.9864Y-5.1759
X4.013Y-4.4648
X4.0142Y-4.3388
X4.0168Y-5.1841
X4.0179Y-5.058
X4.0435Y-4.473
X4.0446Y-4.3469
X4.0472Y-5.1922
X4.0484Y-5.0662
X4.0739Y-4.4811
X4.0751Y-4.3551
X4.0776Y-5.2004
X4.0788Y-5.0743
X4.1055Y-4.3632
X4.1092Y-5.0825
X4.1767Y-3.7322
X4.1805Y-4.4515
X4.1862Y-6.3618
X4.2072Y-3.7404
X4.2083Y-3.6143
X4.2109Y-4.4596
X4.2121Y-4.3336
X4.2167Y-6.37
X4.2178Y-6.2439
X4.2376Y-3.7485
X4.2387Y-3.6225
X4.2413Y-4.4678
X4.2425Y-4.3417
X4.2471Y-6.3781
X4.2482Y-6.2521
X4.268Y-3.7567
X4.2692Y-3.6307
X4.2717Y-4.4759
X4.2729Y-4.3499
X4.2775Y-6.3863
X4.2787Y-6.2602
X4.2996Y-3.6388
X4.3033Y-4.358
X4.3091Y-6.2684
X4.3708Y-3.0078
X4.3746Y-3.727
X4.4013Y-3.0159
X4.4024Y-2.8899
X4.405Y-3.7352
X4.4062Y-3.6091
X4.4317Y-3.0241
X4.4329Y-2.8981
X4.4354Y-3.7433
X4.4366Y-3.6173
X4.4621Y-3.0323
X4.4633Y-2.9062
X4.4659Y-3.7515
X4.467Y-3.6254
X4.4937Y-2.9144
X4.4974Y-3.6336
X4.5534Y-5.2243
X4.5687Y-3.0026
X4.5838Y-5.2325
X4.585Y-5.1064
X4.5991Y-3.0107
X4.6003Y-2.8847
X4.6142Y-5.2406
X4.6154Y-5.1146
X4.6295Y-3.0189
X4.6307Y-2.8928
X4.6447Y-5.2488
X4.6458Y-5.1227
X4.66Y-3.027
X4.6611Y-2.901
X4.6704Y-5.5209
X4.6762Y-5.1309
X4.6916Y-2.9091
X4.7008Y-5.5291
X4.702Y-5.4031
X4.7312Y-5.5373
X4.7324Y-5.4112
X4.7475Y-4.4999
X4.7533Y-6.4102
X4.7616Y-5.5454
X4.7628Y-5.4194
X4.7779Y-4.508
X4.7791Y-4.382
X4.7837Y-6.4184
X4.7849Y-6.2923
X4.7932Y-5.4275
X4.8083Y-4.5162
X4.8095Y-4.3901
X4.8141Y-6.4265
X4.8153Y-6.3005
X4.8388Y-4.5243
X4.8399Y-4.3983
X4.8445Y-6.4347
X4.8457Y-6.3086
X4.8645Y-4.7965
X4.8704Y-4.4064
X4.8761Y-6.3168
X4.8949Y-4.8047
X4.8961Y-4.6786
X4.9253Y-4.8128
X4.9265Y-4.6868
X4.9416Y-3.7754
X4.9557Y-4.821
X4.9569Y-4.6949
X4.972Y-3.7836
X4.9732Y-3.6575
X4.9873Y-4.7031
X5.0025Y-3.7917
X5.0036Y-3.6657
X5.0082Y-6.6029
X5.0329Y-3.7999
X5.0341Y-3.6738
X5.0355Y-6.6187
X5.0586Y-4.0721
X5.0627Y-6.6344
X5.0645Y-3.682
X5.0692Y-6.4972
X5.089Y-4.0802
X5.09Y-6.6502
X5.0902Y-3.9542
X5.0965Y-6.513
X5.1194Y-4.0884
X5.1206Y-3.9623
X5.1238Y-6.5287
X5.1357Y-3.051
X5.1499Y-4.0965
X5.151Y-3.9705
X5.151Y-6.5445
X5.1662Y-3.0591
X5.1673Y-2.9331
X5.1814Y-3.9786
X5.1966Y-3.0673
X5.1977Y-2.9412
X5.227Y-3.0754
X5.2282Y-2.9494
X5.2374Y-5.5694
X5.2527Y-3.3476
X5.2586Y-2.9575
X5.2678Y-5.5775
X5.269Y-5.4515
X5.2831Y-3.3558
X5.2843Y-3.2297
X5.2982Y-5.5857
X5.2994Y-5.4596
X5.3136Y-3.3639
X5.3147Y-3.2379
X5.3287Y-5.5938
X5.3298Y-5.4678
X5.344Y-3.3721
X5.3451Y-3.246
X5.3602Y-5.4759
X5.3625Y-5.8358
X5.3756Y-3.2542
X5.3929Y-5.844
X5.394Y-5.7179
X5.4233Y-5.8521
X5.4245Y-5.7261
X5.4315Y-4.8449
X5.4537Y-5.8603
X5.4549Y-5.7342
X5.4619Y-4.8531
X5.4631Y-4.727
X5.4853Y-5.7424
X5.4924Y-4.8612
X5.4935Y-4.7352
X5.5228Y-4.8694
X5.5239Y-4.7433
X5.5434Y-6.7964
X5.5544Y-4.7515
X5.5566Y-5.1114
X5.5706Y-6.8122
X5.587Y-5.1195
X5.5882Y-4.9935
X5.5979Y-6.8279
X5.6044Y-6.6907
X5.6174Y-5.1277
X5.6186Y-5.0016
X5.6252Y-6.8437
X5.6256Y-4.1205
X5.6317Y-6.7065
X5.6478Y-5.1358
X5.649Y-5.0098
X5.656Y-4.1286
X5.6572Y-4.0026
X5.6589Y-6.7222
X5.6794Y-5.0179
X5.6862Y-6.738
X5.6865Y-4.1368
X5.6876Y-4.0107
X5.7169Y-4.1449
X5.7181Y-4.0189
X5.7397Y-7.0486
X5.7485Y-4.027
X5.7507Y-4.3869
X5.762Y-7.0708
X5.7811Y-4.3951
X5.7823Y-4.269
X5.7843Y-7.0931
X5.8065Y-7.1154
X5.8115Y-4.4032
X5.8127Y-4.2772
X5.8197Y-3.396
X5.826Y-6.9623
X5.842Y-4.4114
X5.8431Y-4.2853
X5.8483Y-6.9845
X5.8502Y-3.4042
X5.8513Y-3.2781
X5.8706Y-7.0068
X5.8735Y-4.2935
X5.8806Y-3.4123
X5.8817Y-3.2863
X5.8928Y-7.0291
X5.911Y-3.4205
X5.9122Y-3.2944
X5.9295Y-5.8842
X5.9426Y-3.3026
X5.9448Y-3.6625
X5.9599Y-5.8924
X5.9611Y-5.7663
X5.9752Y-3.6706
X5.9764Y-3.5446
X5.9903Y-5.9005
X5.9915Y-5.7745
X6.0056Y-3.6788
X6.0068Y-3.5527
X6.0208Y-5.9087
X6.0219Y-5.7826
X6.0361Y-3.6869
X6.0372Y-3.5609
X6.0523Y-5.7908
X6.0677Y-3.569
X6.1236Y-5.1598
X6.154Y-5.1679
X6.1552Y-5.0419
X6.1844Y-5.1761
X6.1856Y-5.05
X6.2066Y-7.374
X6.2149Y-5.1842
X6.216Y-5.0582
X6.2288Y-7.3963
X6.2465Y-5.0663
X6.2511Y-7.4185
X6.2734Y-7.4408
X6.2929Y-7.2877
X6.3151Y-7.31
X6.3177Y-4.4353
X6.3374Y-7.3322
X6.3481Y-4.4435
X6.3493Y-4.3174
X6.3597Y-7.3545
X6.3786Y-4.4516
X6.3797Y-4.3256
X6.409Y-4.4598
X6.4101Y-4.3337
X6.4406Y-4.3419
X6.5118Y-3.7109
X6.5422Y-3.719
X6.5434Y-3.593
X6.5727Y-3.7272
X6.5738Y-3.6011
X6.6031Y-3.7353
X6.6043Y-3.6093
X6.623Y-6.8756
X6.6347Y-3.6174
X6.6503Y-6.8913
X6.6776Y-6.907
X6.6841Y-6.7699
X6.7049Y-6.9228
X6.7113Y-6.7856
X6.7386Y-6.8014
X6.7659Y-6.8171
X7.1582Y-7.0691
X7.1855Y-7.0848
X7.2128Y-7.1006
X7.2192Y-6.9634
X7.24Y-7.1163
X7.2465Y-6.9791
X7.2738Y-6.9949
X7.3011Y-7.0106
X7.4437Y-7.1618
X7.4437Y-7.2839
X7.4437Y-7.9118
X7.4437Y-8.0339
X7.4752Y-7.1618
X7.4752Y-7.2839
X7.4752Y-7.9118
X7.4752Y-8.0339
X7.5067Y-7.1618
X7.5067Y-7.2839
X7.5067Y-7.9118
X7.5067Y-8.0339
X7.5382Y-7.1618
X7.5382Y-7.2839
X7.5382Y-7.9118
X7.5382Y-8.0339
X8.0039Y-7.0618
X8.0039Y-7.1839
X8.0039Y-7.8118
X8.0039Y-7.9339
X8.0221Y-3.0603
X8.0354Y-7.0618
X8.0354Y-7.1839
X8.0354Y-7.8118
X8.0354Y-7.9339
X8.0583Y-3.0241
X8.0583Y-3.0965
X8.0669Y-7.0618
X8.0669Y-7.1839
X8.0669Y-7.8118
X8.0669Y-7.9339
X8.0945Y-2.9879
X8.0945Y-3.0603
X8.0945Y-3.1327
X8.0984Y-7.0618
X8.0984Y-7.1839
X8.0984Y-7.8118
X8.0984Y-7.9339
X8.1307Y-3.0241
X8.1307Y-3.0965
X8.1669Y-3.0603
X8.2975Y-7.1214
X8.3248Y-7.1057
X8.3521Y-7.0899
X8.3586Y-7.2271
X8.3794Y-7.0742
X8.3858Y-7.2114
X8.4131Y-7.1956
X8.4404Y-7.1799
X8.7327Y-6.7547
X8.76Y-6.739
X8.7873Y-6.7232
X8.7938Y-6.8604
X8.8146Y-6.7075
X8.821Y-6.8447
X8.8483Y-6.8289
X8.8756Y-6.8132
X8.935Y-3.7266
X8.9654Y-3.7184
X8.9666Y-3.8445
X8.9958Y-3.7103
X8.997Y-3.8363
X9.0262Y-3.7021
X9.0274Y-3.8282
X9.0578Y-3.82
X9.1291Y-4.451
X9.1595Y-4.4429
X9.1607Y-4.5689
X9.1899Y-4.4347
X9.1911Y-4.5608
X9.2204Y-4.4266
X9.2215Y-4.5526
X9.2519Y-4.5444
X9.2673Y-7.4595
X9.2896Y-7.4372
X9.3119Y-7.4149
X9.3232Y-5.1755
X9.3341Y-7.3926
X9.3536Y-5.1673
X9.3536Y-7.5458
X9.3548Y-5.2933
X9.3759Y-7.5235
X9.384Y-5.1592
X9.3852Y-5.2852
X9.3982Y-7.5012
X9.4145Y-5.151
X9.4156Y-5.277
X9.4204Y-7.4789
X9.4461Y-5.2689
X9.4502Y-3.485
X9.4807Y-3.4768
X9.4818Y-3.6029
X9.5111Y-3.4687
X9.5122Y-3.5947
X9.5173Y-5.8999
X9.5415Y-3.4605
X9.5427Y-3.5866
X9.5477Y-5.8918
X9.5489Y-6.0178
X9.5731Y-3.5784
X9.5782Y-5.8836
X9.5793Y-6.0096
X9.5928Y-6.9926
X9.6086Y-5.8754
X9.6097Y-6.0015
X9.615Y-6.9703
X9.6271Y-3.4117
X9.6373Y-6.9481
X9.6402Y-5.9933
X9.6444Y-4.2094
X9.6575Y-3.4036
X9.6587Y-3.5296
X9.6596Y-6.9258
X9.6748Y-4.2013
X9.6759Y-4.3273
X9.6791Y-7.0789
X9.6879Y-3.3954
X9.6891Y-3.5215
X9.7013Y-7.0566
X9.7052Y-4.1931
X9.7064Y-4.3192
X9.7183Y-3.3873
X9.7195Y-3.5133
X9.7236Y-7.0344
X9.7356Y-4.185
X9.7368Y-4.311
X9.7459Y-7.0121
X9.7499Y-3.5051
X9.7672Y-4.3029
X9.8212Y-4.1362
X9.8385Y-4.9339
X9.8516Y-4.128
X9.8528Y-4.254
X9.8689Y-4.9257
X9.8701Y-5.0518
X9.882Y-4.1199
X9.8832Y-4.2459
X9.8993Y-4.9176
X9.9005Y-5.0436
X9.9124Y-6.8488
X9.9124Y-4.1117
X9.9136Y-4.2377
X9.9297Y-4.9094
X9.9309Y-5.0355
X9.9397Y-6.833
X9.944Y-4.2296
X9.9613Y-5.0273
X9.9669Y-6.8173
X9.9734Y-6.9545
X9.9942Y-6.8016
X10.0007Y-6.9387
X10.0153Y-4.8606
X10.028Y-6.923
X10.0326Y-5.6583
X10.0457Y-4.8525
X10.0469Y-4.9785
X10.0552Y-6.9072
X10.063Y-5.6502
X10.0642Y-5.7762
X10.0761Y-4.8443
X10.0773Y-4.9703
X10.0934Y-5.642
X10.0946Y-5.768
X10.1066Y-4.8361
X10.1077Y-4.9622
X10.1238Y-5.6339
X10.125Y-5.7599
X10.1382Y-4.954
X10.1423Y-3.1701
X10.1554Y-5.7517
X10.1728Y-3.162
X10.1739Y-3.288
X10.2032Y-3.1538
X10.2043Y-3.2799
X10.2094Y-5.585
X10.2336Y-3.1457
X10.2348Y-3.2717
X10.2398Y-5.5769
X10.241Y-5.7029
X10.2652Y-3.2636
X10.2703Y-5.5687
X10.2714Y-5.6948
X10.3007Y-5.5606
X10.3018Y-5.6866
X10.3111Y-3.0667
X10.3323Y-5.6785
X10.3364Y-3.8946
X10.3415Y-3.0585
X10.3427Y-3.1846
X10.3476Y-6.4821
X10.3669Y-3.8864
X10.368Y-4.0125
X10.3719Y-3.0504
X10.3731Y-3.1764
X10.3748Y-6.4663
X10.3973Y-3.8783
X10.3985Y-4.0043
X10.4021Y-6.4506
X10.4023Y-3.0422
X10.4035Y-3.1683
X10.4086Y-6.5878
X10.4277Y-3.8701
X10.4289Y-3.9962
X10.4294Y-6.4348
X10.4339Y-3.1601
X10.4359Y-6.572
X10.4593Y-3.988
X10.4631Y-6.5563
X10.4904Y-6.5405
X10.5052Y-3.7911
X10.5306Y-4.619
X10.5356Y-3.783
X10.5368Y-3.909
X10.561Y-4.6109
X10.5621Y-4.7369
X10.566Y-3.7748
X10.5672Y-3.9009
X10.5914Y-4.6027
X10.5926Y-4.7287
X10.5965Y-3.7667
X10.5976Y-3.8927
X10.6218Y-4.5946
X10.623Y-4.7206
X10.628Y-3.8846
X10.6534Y-4.7124
X10.6935Y-6.4259
X10.6993Y-4.5156
X10.724Y-6.4177
X10.7247Y-5.3435
X10.7251Y-6.5438
X10.7297Y-4.5074
X10.7309Y-4.6335
X10.7544Y-6.4096
X10.7551Y-5.3353
X10.7555Y-6.5356
X10.7563Y-5.4613
X10.7601Y-4.4993
X10.7613Y-4.6253
X10.7848Y-6.4014
X10.7855Y-5.3272
X10.786Y-6.5275
X10.7867Y-5.4532
X10.7906Y-4.4911
X10.7917Y-4.6171
X10.8159Y-5.319
X10.8164Y-6.5193
X10.8171Y-5.445
X10.8222Y-4.609
X10.8263Y-2.8251
X10.8475Y-5.4369
X10.8568Y-2.8169
X10.8579Y-2.943
X10.8872Y-2.8088
X10.8883Y-2.9348
X10.8934Y-5.24
X10.9176Y-2.8006
X10.9188Y-2.9267
X10.9238Y-5.2319
X10.925Y-5.3579
X10.9492Y-2.9185
X10.9543Y-5.2237
X10.9554Y-5.3497
X10.9847Y-5.2156
X10.9858Y-5.3416
X11.0163Y-5.3334
X11.0204Y-3.5495
X11.0509Y-3.5414
X11.052Y-3.6674
X11.076Y-3.0235
X11.0813Y-3.5332
X11.0825Y-3.6593
X11.1064Y-3.0153
X11.1075Y-3.1414
X11.1117Y-3.5251
X11.1129Y-3.6511
X11.1368Y-3.0072
X11.138Y-3.1332
X11.1433Y-3.643
X11.1672Y-2.999
X11.1684Y-3.1251
X11.1988Y-3.1169
X11.2088Y-6.1843
X11.2146Y-4.274
X11.2392Y-6.1762
X11.2404Y-6.3022
X11.245Y-4.2658
X11.2461Y-4.3919
X11.2696Y-6.168
X11.2701Y-3.7479
X11.2708Y-6.294
X11.2754Y-4.2577
X11.2766Y-4.3837
X11.3001Y-6.1599
X11.3005Y-3.7398
X11.3012Y-6.2859
X11.3017Y-3.8658
X11.3058Y-4.2495
X11.307Y-4.3756
X11.3309Y-3.7316
X11.3317Y-6.2777
X11.3321Y-3.8577
X11.3374Y-4.3674
X11.3613Y-3.7235
X11.3625Y-3.8495
X11.3929Y-3.8414
X11.4087Y-4.9984
X11.4391Y-4.9903
X11.4403Y-5.1163
X11.4642Y-4.4724
X11.4695Y-4.9821
X11.4707Y-5.1082
X11.4946Y-4.4642
X11.4958Y-4.5903
X11.4999Y-4.974
X11.5011Y-5.1
X11.525Y-4.4561
X11.5262Y-4.5821
X11.5315Y-5.0918
X11.5555Y-4.4479
X11.5566Y-4.574
X11.587Y-4.5658
X11.5912Y-2.7819
X11.6216Y-2.7737
X11.6228Y-2.8998
X11.6521Y-2.7656
X11.6532Y-2.8916
X11.6583Y-5.1968
X11.6825Y-2.7574
X11.6837Y-2.8835
X11.6887Y-5.1887
X11.6899Y-5.3147
X11.7141Y-2.8753
X11.7191Y-5.1805
X11.7203Y-5.3066
X11.7496Y-5.1724
X11.7507Y-5.2984
X11.7812Y-5.2903
X11.7853Y-3.5063
X11.8158Y-3.4982
X11.8169Y-3.6242
X11.8462Y-3.49
X11.8473Y-3.6161
X11.8489Y-3.0105
X11.8524Y-5.9213
X11.8766Y-3.4819
X11.8778Y-3.6079
X11.8793Y-3.0023
X11.8805Y-3.1284
X11.8828Y-5.9131
X11.884Y-6.0392
X11.9082Y-3.5998
X11.9098Y-2.9942
X11.9109Y-3.1202
X11.9133Y-5.905
X11.9144Y-6.031
X11.9402Y-2.986
X11.9414Y-3.1121
X11.9437Y-5.8968
X11.9448Y-6.0228
X11.9718Y-3.1039
X11.9753Y-6.0147
X11.9794Y-4.2308
X12.0099Y-4.2226
X12.011Y-4.3487
X12.0403Y-4.2145
X12.0415Y-4.3405
X12.043Y-3.7349
X12.0707Y-4.2063
X12.0719Y-4.3324
X12.0735Y-3.7268
X12.0746Y-3.8528
X12.1023Y-4.3242
X12.1039Y-3.7186
X12.1051Y-3.8447
X12.1343Y-3.7105
X12.1355Y-3.8365
X12.1659Y-3.8284
X12.1736Y-4.9552
X12.204Y-4.9471
X12.2051Y-5.0731
X12.2344Y-4.9389
X12.2356Y-5.065
X12.2372Y-4.4594
X12.2648Y-4.9308
X12.266Y-5.0568
X12.2676Y-4.4512
X12.2687Y-4.5773
X12.2964Y-5.0487
X12.298Y-4.4431
X12.2992Y-4.5691
X12.3284Y-4.4349
X12.3296Y-4.561
X12.36Y-4.5528
X12.3642Y-2.7689
X12.3677Y-5.6797
X12.3946Y-2.7607
X12.3958Y-2.8868
X12.3981Y-5.6715
X12.3993Y-5.7976
X12.425Y-2.7526
X12.4262Y-2.8786
X12.4285Y-5.6634
X12.4297Y-5.7894
X12.4313Y-5.1838
X12.4555Y-2.7444
X12.4566Y-2.8705
X12.4589Y-5.6552
X12.4601Y-5.7813
X12.4617Y-5.1757
X12.4629Y-5.3017
X12.487Y-2.8623
X12.4905Y-5.7731
X12.4921Y-5.1675
X12.4933Y-5.2936
X12.5225Y-5.1594
X12.5237Y-5.2854
X12.5541Y-5.2773
X12.5583Y-3.4933
X12.5887Y-3.4852
X12.5899Y-3.6112
X12.5976Y-2.9069
X12.6192Y-3.477
X12.6203Y-3.6031
X12.6254Y-5.9083
X12.6281Y-2.8988
X12.6292Y-3.0248
X12.6496Y-3.4689
X12.6507Y-3.5949
X12.6558Y-5.9001
X12.657Y-6.0262
X12.6585Y-2.8906
X12.6596Y-3.0167
X12.6812Y-3.5868
X12.6862Y-5.892
X12.6874Y-6.018
X12.6889Y-2.8825
X12.6901Y-3.0085
X12.7167Y-5.8838
X12.7178Y-6.0098
X12.7205Y-3.0004
X12.7482Y-6.0017
X12.7524Y-4.2178
X12.7828Y-4.2096
X12.784Y-4.3357
X12.7917Y-3.6314
X12.8133Y-4.2015
X12.8144Y-4.3275
X12.8222Y-3.6232
X12.8233Y-3.7493
X12.8437Y-4.1933
X12.8449Y-4.3194
X12.8526Y-3.6151
X12.8538Y-3.7411
X12.8753Y-4.3112
X12.883Y-3.6069
X12.8842Y-3.733
X12.9146Y-3.7248
X12.9465Y-4.9422
X12.977Y-4.9341
X12.9781Y-5.0601
X12.9859Y-4.3558
X13.0074Y-4.9259
X13.0085Y-5.052
X13.0163Y-4.3477
X13.0175Y-4.4737
X13.0378Y-4.9178
X13.039Y-5.0438
X13.0467Y-4.3395
X13.0479Y-4.4655
X13.0694Y-5.0357
X13.0771Y-4.3314
X13.0783Y-4.4574
X13.1087Y-4.4492
X13.1129Y-2.6653
X13.1406Y-5.6667
X13.1433Y-2.6572
X13.1445Y-2.7832
X13.1711Y-5.6585
X13.1722Y-5.7846
X13.1737Y-2.649
X13.1749Y-2.7751
X13.18Y-5.0803
X13.2015Y-5.6504
X13.2027Y-5.7764
X13.2042Y-2.6409
X13.2053Y-2.7669
X13.2104Y-5.0721
X13.2116Y-5.1981
X13.2319Y-5.6422
X13.2331Y-5.7683
X13.2358Y-2.7588
X13.2408Y-5.064
X13.242Y-5.19
X13.2635Y-5.7601
X13.2712Y-5.0558
X13.2724Y-5.1818
X13.3028Y-5.1737
X13.307Y-3.3898
X13.3374Y-3.3816
X13.3386Y-3.5077
X13.3679Y-3.3735
X13.369Y-3.4995
X13.3741Y-5.8047
X13.3983Y-3.3653
X13.3994Y-3.4914
X13.4045Y-5.7966
X13.4057Y-5.9226
X13.4299Y-3.4832
X13.4349Y-5.7884
X13.4361Y-5.9144
X13.4654Y-5.7802
X13.4665Y-5.9063
X13.4969Y-5.8981
X13.5011Y-4.1142
X13.5316Y-4.1061
X13.5327Y-4.2321
X13.562Y-4.0979
X13.5631Y-4.224
X13.5924Y-4.0898
X13.5936Y-4.2158
X13.624Y-4.2077
X13.6952Y-4.8387
X13.7257Y-4.8305
X13.7268Y-4.9566
X13.7561Y-4.8224
X13.7573Y-4.9484
X13.7865Y-4.8142
X13.7877Y-4.9403
X13.8181Y-4.9321
X13.8894Y-5.5631
X13.9198Y-5.555
X13.9209Y-5.681
X13.9502Y-5.5468
X13.9514Y-5.6728
X13.9806Y-5.5387
X13.9818Y-5.6647
X14.0122Y-5.6565
T5
X7.5846Y-5.4421
X7.5846Y-5.5122
X7.5846Y-5.5823
X7.5846Y-5.6524
X7.5846Y-5.7224
X7.5846Y-5.7925
X7.5846Y-5.8626
X7.5846Y-5.9327
X8.0059Y-5.4071
X8.0059Y-5.4772
X8.0059Y-5.5472
X8.0059Y-5.6173
X8.0059Y-5.6874
X8.0059Y-5.7575
X8.0059Y-5.8276
X8.0059Y-5.8976
T6
X6.752Y-4.3315
X6.752Y-4.4315
X6.752Y-4.5315
X6.752Y-4.6315
X7.0079Y-2.9362
X7.0079Y-3.0362
X7.0079Y-3.1362
X7.0079Y-3.2362
X7.0079Y-3.3362
X7.0079Y-3.4362
X7.0079Y-3.5362
X8.3006Y-4.5578
X8.3858Y-4.6071
X8.4711Y-4.6563
X8.6181Y-4.0333
X8.6181Y-4.1333
X8.6181Y-4.2333
X8.7008Y-7.9724
X8.7008Y-8.0709
X8.7008Y-8.1693
T7
X6.6142Y-7.7953
X6.6142Y-7.9953
X6.6142Y-8.1953
T9
X7.0177Y-2.6063
X7.0177Y-3.8661
X8.5728Y-2.6063
X8.5728Y-3.8661
T10
X6.8898Y-8.0709
X6.9053Y-6.3768
X7.5935Y-6.7742
T11
X1.7162Y-5.7338
X1.9103Y-5.0094
X1.9835Y-5.7019
X2.1044Y-4.2849
X2.1777Y-4.9775
X2.2985Y-3.5605
X2.3718Y-4.2531
X2.4649Y-5.8374
X2.4926Y-2.8361
X2.5659Y-3.5286
X2.659Y-5.1129
X2.7323Y-5.8055
X2.76Y-2.8042
X2.8531Y-4.3885
X2.9264Y-5.0811
X3.0472Y-3.6641
X3.1205Y-4.3566
X3.2379Y-5.8504
X3.2413Y-2.9396
X3.3146Y-3.6322
X3.432Y-5.1259
X3.5052Y-5.8185
X3.5087Y-2.9077
X3.6261Y-4.4015
X3.6993Y-5.0941
X3.8202Y-3.6771
X3.8935Y-4.3696
X4.0143Y-2.9526
X4.0876Y-3.6452
X4.1969Y-5.1691
X4.2817Y-2.9207
X4.391Y-4.4447
X4.3967Y-6.355
X4.4642Y-5.1372
X4.5851Y-3.7202
X4.6583Y-4.4128
X4.6641Y-6.3231
X4.7792Y-2.9958
X4.8525Y-3.6884
X4.8809Y-5.5142
X5.0466Y-2.9639
X5.075Y-4.7897
X5.1482Y-5.4823
X5.2133Y-6.6509
X5.2691Y-4.0653
X5.3423Y-4.7578
X5.4632Y-3.3408
X5.4798Y-6.6893
X5.5365Y-4.0334
X5.573Y-5.829
X5.7306Y-3.309
X5.7671Y-5.1046
X5.8403Y-5.7971
X5.9254Y-7.1479
X5.9612Y-4.3801
X6.0344Y-5.0727
X6.1553Y-3.6557
X6.1729Y-7.254
X6.2285Y-4.3483
X6.4227Y-3.6238
X6.8281Y-6.9235
X7.0946Y-6.9619
X7.6453Y-7.2228
X7.6453Y-7.9728
X7.8953Y-7.1228
X7.8953Y-7.8728
X8.5026Y-7.0735
X8.6691Y-6.8619
X9.1455Y-3.7333
X9.3396Y-4.4578
X9.3611Y-3.572
X9.453Y-7.3601
X9.5337Y-5.1822
X9.5552Y-4.2965
X9.5591Y-7.1126
X9.7278Y-5.9067
X9.7493Y-5.0209
X9.8376Y-3.4185
X9.9434Y-5.7454
X10.0317Y-4.1429
X10.0532Y-3.2572
X10.1175Y-6.8009
X10.2258Y-4.8674
X10.2473Y-3.9816
X10.284Y-6.5893
X10.4199Y-5.5918
X10.4414Y-4.7061
X10.5216Y-3.0734
X10.6355Y-5.4305
X10.7157Y-3.7979
X10.7372Y-2.9122
X10.904Y-6.4327
X10.9098Y-4.5223
X10.9313Y-3.6366
X11.1039Y-5.2468
X11.1196Y-6.2714
X11.1254Y-4.361
X11.2865Y-3.0303
X11.3195Y-5.0855
X11.4806Y-3.7547
X11.5021Y-2.869
X11.6747Y-4.4791
X11.6962Y-3.5934
X11.8688Y-5.2036
X11.8903Y-4.3179
X12.0594Y-3.0173
X12.0629Y-5.928
X12.0844Y-5.0423
X12.2535Y-3.7417
X12.275Y-2.856
X12.2785Y-5.7667
X12.4477Y-4.4661
X12.4691Y-3.5804
X12.6418Y-5.1906
X12.6633Y-4.3048
X12.8081Y-2.9137
X12.8359Y-5.915
X12.8574Y-5.0293
X13.0022Y-3.6381
X13.0237Y-2.7524
X13.0515Y-5.7537
X13.1964Y-4.3626
X13.2178Y-3.4768
X13.3905Y-5.087
X13.412Y-4.2013
X13.5846Y-5.8115
X13.6061Y-4.9257
X13.8002Y-5.6502
T12
X7.3265Y-8.3478
X8.264Y-8.3478
T13
X3.0125Y-6.4026
X6.2598Y-7.7953
X6.7697Y-2.6597
X7.252Y-5.6299
X8.3386Y-5.6299
X8.8209Y-2.6597
X9.3307Y-7.7953
X12.578Y-6.4026
T4
G00X7.574Y-2.2362
M15
G01X7.574Y-2.2835
M16
G05
G00X7.574Y-2.4016
M15
G01X7.574Y-2.4331
M16
G05
G00X8.0165Y-2.2362
M15
G01X8.0165Y-2.2835
M16
G05
G00X8.0165Y-2.4016
M15
G01X8.0165Y-2.4331
M16
G05
T8
G00X8.7756Y-7.8937
M15
G01X8.7835Y-7.8937
M16
G05
G00X8.7756Y-8.248
M15
G01X8.7835Y-8.248
M16
G05
T13
G00X6.8963Y-4.9767
M15
G01X6.8963Y-4.9767
M16
G05
G00X8.8113Y-6.0823
M15
G01X8.8113Y-6.0823
M16
G05
T0
M30
