M48
; DRILL file {KiCad (7.0.0)} date Wed Mar 15 00:03:34 2023
; FORMAT={-:-/ absolute / inch / decimal}
; #@! TF.CreationDate,2023-03-15T00:03:34+00:00
; #@! TF.GenerationSoftware,Kicad,Pcbnew,(7.0.0)
; #@! TF.FileFunction,NonPlated,1,2,NPTH
FMAT,2
INCH
; #@! TA.AperFunction,NonPlated,NPTH,ComponentDrill
T1C0.0256
; #@! TA.AperFunction,NonPlated,NPTH,ComponentDrill
T2C0.0454
; #@! TA.AperFunction,NonPlated,NPTH,ComponentDrill
T3C0.0689
; #@! TA.AperFunction,NonPlated,NPTH,ComponentDrill
T4C0.0787
; #@! TA.AperFunction,NonPlated,NPTH,ComponentDrill
T5C0.1181
; #@! TA.AperFunction,NonPlated,NPTH,ComponentDrill
T6C0.1570
%
G90
G05
T1
X6.9728Y-1.1555
X7.2004Y-1.1555
T2
X2.3465Y-1.4234
X7.0866Y-7.5927
X11.8209Y-1.4254
T3
X1.2241Y-4.6383
X1.4806Y-3.9335
X1.6Y-4.7751
X1.7371Y-3.2287
X1.8565Y-4.0703
X1.9609Y-4.8067
X1.9936Y-2.524
X2.113Y-3.3656
X2.2174Y-4.1019
X2.2501Y-1.8192
X2.3368Y-4.9435
X2.3695Y-2.6608
X2.4739Y-3.3972
X2.5933Y-4.2387
X2.626Y-1.956
X2.7298Y-4.887
X2.7305Y-2.6924
X2.8498Y-3.534
X2.9863Y-4.1823
X2.987Y-1.9876
X3.1057Y-5.0238
X3.1063Y-2.8292
X3.2428Y-3.4775
X3.3622Y-4.3191
X3.3629Y-2.1244
X3.4994Y-2.7727
X3.6187Y-3.6143
X3.7445Y-4.2919
X3.7559Y-2.0679
X3.8403Y-5.4907
X3.8752Y-2.9095
X4.0011Y-3.5872
X4.1204Y-4.4288
X4.1317Y-2.2048
X4.2162Y-5.6276
X4.2576Y-2.8824
X4.3769Y-3.724
X4.3959Y-4.6953
X4.5141Y-2.1776
X4.6334Y-3.0192
X4.6341Y-5.8443
X4.6524Y-3.9905
X4.7717Y-4.8321
X4.89Y-2.3144
X4.9089Y-3.2857
X4.9617Y-6.0737
X5.0283Y-4.1273
X5.0579Y-5.0693
X5.1654Y-2.581
X5.2848Y-3.4226
X5.3045Y-6.3901
X5.3144Y-4.3645
X5.4338Y-5.2061
X5.5413Y-2.7178
X5.5616Y-6.6965
X5.5709Y-3.6597
X5.6903Y-4.5013
X5.8274Y-2.955
X5.9468Y-3.7965
X6.0525Y-7.0069
X6.2033Y-3.0918
X6.4389Y-7.1104
X6.8866Y-7.1697
X7.2866Y-7.1697
X7.7344Y-7.1105
X7.9699Y-3.0918
X8.1207Y-7.0069
X8.2264Y-3.7965
X8.3458Y-2.955
X8.483Y-4.5013
X8.6023Y-3.6597
X8.6116Y-6.6965
X8.6319Y-2.7178
X8.7395Y-5.2061
X8.8588Y-4.3645
X8.8687Y-6.3901
X8.8885Y-3.4226
X9.0078Y-2.581
X9.1153Y-5.0693
X9.145Y-4.1273
X9.2115Y-6.0737
X9.2643Y-3.2857
X9.2833Y-2.3144
X9.4015Y-4.8321
X9.5208Y-3.9905
X9.5392Y-5.8443
X9.5398Y-3.0192
X9.6591Y-2.1776
X9.7774Y-4.6953
X9.7963Y-3.724
X9.9157Y-2.8824
X9.9571Y-5.6276
X10.0415Y-2.2048
X10.0528Y-4.4288
X10.1722Y-3.5872
X10.298Y-2.9095
X10.3329Y-5.4907
X10.4174Y-2.0679
X10.4287Y-4.2919
X10.5545Y-3.6143
X10.6739Y-2.7727
X10.8104Y-2.1244
X10.811Y-4.3191
X10.9304Y-3.4775
X11.0669Y-2.8292
X11.0675Y-5.0238
X11.1863Y-1.9876
X11.1869Y-4.1823
X11.3234Y-3.534
X11.4428Y-2.6924
X11.4434Y-4.887
X11.5472Y-1.956
X11.5799Y-4.2387
X11.6993Y-3.3972
X11.8037Y-2.6608
X11.8364Y-4.9435
X11.9231Y-1.8192
X11.9558Y-4.1019
X12.0602Y-3.3656
X12.1796Y-2.524
X12.2123Y-4.8067
X12.3168Y-4.0703
X12.4361Y-3.2287
X12.5733Y-4.7751
X12.6926Y-3.9335
X12.9491Y-4.6383
T4
X6.0827Y-5.3622
X8.0906Y-5.3622
T5
X1.3053Y-4.5614
X1.5618Y-3.8566
X1.5744Y-4.553
X1.8183Y-3.1519
X1.8309Y-3.8482
X2.0421Y-4.7298
X2.0748Y-2.4471
X2.0874Y-3.1434
X2.2986Y-4.0251
X2.3112Y-4.7214
X2.3313Y-1.7423
X2.3439Y-2.4386
X2.5551Y-3.3203
X2.5677Y-4.0166
X2.6005Y-1.7339
X2.811Y-4.8102
X2.8116Y-2.6155
X2.8243Y-3.3118
X3.0675Y-4.1054
X3.0682Y-1.9108
X3.0801Y-4.8017
X3.0808Y-2.6071
X3.324Y-3.4006
X3.3366Y-4.0969
X3.3373Y-1.9023
X3.5805Y-2.6958
X3.5932Y-3.3922
X3.8257Y-4.2151
X3.8371Y-1.9911
X3.8497Y-2.6874
X3.9215Y-5.4139
X4.0822Y-3.5103
X4.0948Y-4.2066
X4.1062Y-1.9826
X4.1906Y-5.4054
X4.3388Y-2.8055
X4.3514Y-3.5018
X4.4771Y-4.6184
X4.5953Y-2.1008
X4.6079Y-2.7971
X4.7324Y-5.791
X4.7336Y-3.9136
X4.7462Y-4.61
X4.8644Y-2.0923
X4.9901Y-3.2089
X4.9945Y-5.8525
X5.0027Y-3.9052
X5.1391Y-4.9924
X5.2466Y-2.5041
X5.2592Y-3.2004
X5.3956Y-4.2876
X5.4082Y-4.9839
X5.4133Y-6.3641
X5.5157Y-2.4956
X5.6506Y-6.4914
X5.6521Y-3.5829
X5.6647Y-4.2792
X5.9086Y-2.8781
X5.9212Y-3.5744
X6.1267Y-6.9233
X6.1777Y-2.8696
X6.394Y-6.8914
X6.9366Y-7.0697
X7.1866Y-6.9697
X7.7568Y-7.0009
X7.9724Y-6.8396
X7.9827Y-2.9807
X8.1834Y-2.8012
X8.2392Y-3.6855
X8.4399Y-3.506
X8.4957Y-4.3902
X8.5671Y-6.594
X8.6447Y-2.6067
X8.6512Y-6.3382
X8.6965Y-4.2108
X8.7523Y-5.095
X8.8454Y-2.4272
X8.9012Y-3.3115
X8.953Y-4.9155
X9.102Y-3.132
X9.1578Y-4.0163
X9.1951Y-5.9631
X9.2961Y-2.2034
X9.3425Y-5.7378
X9.3585Y-3.8368
X9.4143Y-4.721
X9.4968Y-2.0239
X9.5526Y-2.9081
X9.615Y-4.5415
X9.7533Y-2.7287
X9.8091Y-3.6129
X9.9698Y-5.5165
X10.0098Y-3.4334
X10.0543Y-2.0937
X10.0656Y-4.3177
X10.1706Y-5.337
X10.255Y-1.9142
X10.2663Y-4.1382
X10.3108Y-2.7985
X10.5115Y-2.619
X10.5673Y-3.5032
X10.768Y-3.3237
X10.8232Y-2.0134
X10.8238Y-4.208
X11.0239Y-1.8339
X11.0245Y-4.0285
X11.0797Y-2.7181
X11.0803Y-4.9128
X11.2804Y-2.5387
X11.281Y-4.7333
X11.3362Y-3.4229
X11.5369Y-3.2434
X11.56Y-1.8449
X11.5927Y-4.1277
X11.7607Y-1.6655
X11.7934Y-3.9482
X11.8165Y-2.5497
X11.8492Y-4.8324
X12.0172Y-2.3702
X12.0499Y-4.653
X12.073Y-3.2545
X12.2737Y-3.075
X12.3295Y-3.9593
X12.5303Y-3.7798
X12.5861Y-4.664
X12.7868Y-4.4845
T6
X1.412Y-4.7067
X1.6685Y-4.0019
X1.925Y-3.2971
X2.1489Y-4.8751
X2.1816Y-2.5924
X2.4054Y-4.1703
X2.4381Y-1.8876
X2.6619Y-3.4656
X2.9178Y-4.9554
X2.9184Y-2.7608
X3.1743Y-4.2507
X3.1749Y-2.056
X3.4308Y-3.5459
X3.6873Y-2.8411
X3.9325Y-4.3603
X3.9438Y-2.1364
X4.0282Y-5.5591
X4.189Y-3.6556
X4.4455Y-2.9508
X4.5838Y-4.7637
X4.702Y-2.246
X4.7979Y-5.959
X4.8403Y-4.0589
X5.0968Y-3.3541
X5.2458Y-5.1377
X5.3533Y-2.6494
X5.4331Y-6.5433
X5.5023Y-4.4329
X5.7589Y-3.7281
X6.0154Y-3.0234
X6.2457Y-7.0587
X7.0866Y-7.1697
X7.9276Y-7.0587
X8.1579Y-3.0234
X8.4144Y-3.7281
X8.6709Y-4.4329
X8.7402Y-6.5433
X8.8199Y-2.6494
X8.9274Y-5.1377
X9.0764Y-3.3542
X9.3329Y-4.0589
X9.3753Y-5.959
X9.4712Y-2.246
X9.5894Y-4.7637
X9.7277Y-2.9508
X9.9842Y-3.6556
X10.145Y-5.5591
X10.2294Y-2.1364
X10.2408Y-4.3603
X10.4859Y-2.8411
X10.7424Y-3.5459
X10.9983Y-2.056
X10.999Y-4.2507
X11.2548Y-2.7608
X11.2555Y-4.9554
X11.5113Y-3.4656
X11.7352Y-1.8876
X11.7679Y-4.1703
X11.9917Y-2.5924
X12.0244Y-4.8751
X12.2482Y-3.2971
X12.5047Y-4.0019
X12.7612Y-4.7067
T0
M30
