M48
; DRILL file {KiCad (7.0.0)} date Wed Mar 15 00:03:34 2023
; FORMAT={-:-/ absolute / inch / decimal}
; #@! TF.CreationDate,2023-03-15T00:03:34+00:00
; #@! TF.GenerationSoftware,Kicad,Pcbnew,(7.0.0)
; #@! TF.FileFunction,Plated,1,2,PTH
FMAT,2
INCH
; #@! TA.AperFunction,Plated,PTH,ViaDrill
T1C0.0098
; #@! TA.AperFunction,Plated,PTH,ViaDrill
T2C0.0118
; #@! TA.AperFunction,Plated,PTH,ComponentDrill
T3C0.0118
; #@! TA.AperFunction,Plated,PTH,ComponentDrill
T4C0.0236
; #@! TA.AperFunction,Plated,PTH,ComponentDrill
T5C0.0276
; #@! TA.AperFunction,Plated,PTH,ComponentDrill
T6C0.0295
; #@! TA.AperFunction,Plated,PTH,ComponentDrill
T7C0.0394
; #@! TA.AperFunction,Plated,PTH,ComponentDrill
T8C0.0413
; #@! TA.AperFunction,Plated,PTH,ComponentDrill
T9C0.0591
; #@! TA.AperFunction,Plated,PTH,ComponentDrill
T10C0.0787
; #@! TA.AperFunction,Plated,PTH,ComponentDrill
T11C0.1260
%
G90
G05
T1
X1.7594Y-4.6204
X2.016Y-3.9156
X2.2725Y-3.2109
X2.4963Y-4.7888
X2.529Y-2.5061
X2.7528Y-4.0841
X2.7854Y-1.6146
X2.7855Y-1.8013
X3.0093Y-3.3793
X3.2652Y-4.8692
X3.2658Y-2.6745
X3.5217Y-4.1644
X3.5223Y-1.9698
X3.5224Y-1.7835
X3.7782Y-3.4596
X4.0347Y-2.7548
X4.2799Y-4.2741
X4.2912Y-2.0501
X4.2913Y-1.8638
X4.3757Y-5.4729
X4.5364Y-3.5693
X4.7929Y-2.8645
X4.9312Y-4.6774
X5.0494Y-2.1598
X5.0496Y-1.974
X5.1558Y-5.9656
X5.1877Y-3.9726
X5.4443Y-3.2679
X5.5933Y-5.0514
X5.7008Y-2.5631
X5.7008Y-2.3764
X5.7319Y-4.952
X5.7742Y-4.967
X5.7771Y-6.6423
X5.8498Y-4.3466
X6.0854Y-6.614
X6.1024Y-6.5526
X6.1063Y-3.6419
X6.1956Y-6.4833
X6.1956Y-6.7635
X6.2434Y-3.542
X6.2752Y-3.4519
X6.287Y-3.5579
X6.3626Y-2.7504
X6.3628Y-2.9371
X6.5271Y-3.5437
X6.6693Y-5.2953
X6.7441Y-1.9961
X6.7677Y-1.9725
X6.7996Y-5.4252
X6.9134Y-2.2146
X6.9528Y-2.254
X7.0079Y-1.4469
X7.0098Y-2.4213
X7.0118Y-1.124
X7.0323Y-4.9487
X7.0354Y-1.2756
X7.0434Y-1.9017
X7.0689Y-1.2756
X7.1043Y-1.2756
X7.1077Y-4.9567
X7.1161Y-4.7933
X7.1535Y-4.5634
X7.1614Y-1.124
X7.1622Y-4.6477
X7.1624Y-2.0258
X7.1731Y-1.8692
X7.1732Y-4.7677
X7.2343Y-4.7677
X7.4252Y-5.252
X7.5157Y-1.9705
X7.7908Y-3.5598
X7.8803Y-3.56
X7.9236Y-3.5443
X7.9724Y-6.5781
X7.9724Y-6.483
X8.0318Y-4.2235
X8.1023Y-4.2239
X8.161Y-2.6233
X8.3046Y-4.9701
X8.3686Y-2.7339
X8.3934Y-4.9706
X8.4368Y-4.954
X8.6251Y-3.4387
X8.698Y-2.2949
X8.7779Y-6.1873
X8.8816Y-4.1435
X9.0306Y-2.36
X9.1381Y-4.8483
X9.2871Y-3.0647
X9.3744Y-1.8823
X9.5039Y-5.6249
X9.5436Y-3.7695
X9.6819Y-1.9566
X9.8001Y-4.4743
X9.9384Y-2.6614
X10.1366Y-1.7709
X10.1949Y-3.3662
X10.3557Y-5.2697
X10.4401Y-1.8469
X10.4514Y-4.0709
X10.6966Y-2.5517
X10.9531Y-3.2565
X10.9677Y-1.6681
X11.209Y-1.7666
X11.2097Y-3.9612
X11.4655Y-2.4714
X11.4662Y-4.666
X11.5303Y-1.5205
X11.722Y-3.1762
X11.9458Y-1.5982
X11.9786Y-3.8809
X12.2024Y-2.303
X12.2351Y-4.5857
X12.4589Y-3.0077
X12.7154Y-3.7125
X12.9719Y-4.4173
T2
X1.1841Y-4.8068
X1.1927Y-4.7831
X1.2078Y-4.8154
X1.2164Y-4.7918
X1.3917Y-4.0861
X1.4015Y-4.0593
X1.5511Y-5.0007
X1.5609Y-4.9739
X1.6971Y-3.3973
X1.7058Y-3.3736
X1.7208Y-3.4059
X1.7294Y-3.3822
X1.7362Y-4.2683
X1.7448Y-4.2446
X1.7599Y-4.2769
X1.7685Y-4.2532
X1.9048Y-2.6766
X1.9145Y-2.6498
X1.9209Y-4.9752
X1.9296Y-4.9516
X1.9446Y-4.9839
X1.9532Y-4.9602
X2.0642Y-3.5912
X2.0739Y-3.5644
X2.1286Y-4.2546
X2.1383Y-4.2277
X2.2102Y-1.9877
X2.2188Y-1.9641
X2.2338Y-1.9964
X2.2425Y-1.9727
X2.2493Y-2.8588
X2.2579Y-2.8351
X2.2729Y-2.8674
X2.2816Y-2.8437
X2.288Y-5.1692
X2.2977Y-5.1423
X2.434Y-3.5657
X2.4426Y-3.542
X2.4576Y-3.5743
X2.4663Y-3.5506
X2.4731Y-4.4367
X2.4817Y-4.413
X2.4967Y-4.4453
X2.5054Y-4.4217
X2.5772Y-2.1817
X2.587Y-2.1548
X2.6416Y-2.845
X2.6514Y-2.8182
X2.6898Y-5.0556
X2.6985Y-5.0319
X2.7135Y-5.0642
X2.7221Y-5.0405
X2.801Y-3.7596
X2.8108Y-3.7328
X2.8975Y-4.3349
X2.9072Y-4.3081
X2.947Y-2.1562
X2.9556Y-2.1325
X2.9707Y-2.1648
X2.9793Y-2.1411
X2.9861Y-3.0272
X2.9947Y-3.0035
X3.0098Y-3.0358
X3.0184Y-3.0121
X3.0569Y-5.2495
X3.0666Y-5.2227
X3.2029Y-3.646
X3.2115Y-3.6223
X3.2265Y-3.6546
X3.2352Y-3.631
X3.242Y-4.517
X3.2506Y-4.4934
X3.2656Y-4.5257
X3.2743Y-4.502
X3.314Y-2.3501
X3.3238Y-2.3233
X3.4105Y-2.9253
X3.4203Y-2.8985
X3.5699Y-3.8399
X3.5797Y-3.8131
X3.6557Y-4.4446
X3.6654Y-4.4178
X3.7159Y-2.2365
X3.7245Y-2.2128
X3.7396Y-2.2451
X3.7482Y-2.2214
X3.755Y-3.1075
X3.7636Y-3.0838
X3.7787Y-3.1161
X3.7873Y-3.0924
X3.8003Y-5.6593
X3.8089Y-5.6356
X3.824Y-5.6679
X3.8326Y-5.6442
X3.9611Y-3.7557
X3.9697Y-3.732
X3.9848Y-3.7643
X3.9934Y-3.7407
X4.0002Y-4.6267
X4.0088Y-4.6031
X4.0239Y-4.6353
X4.0325Y-4.6117
X4.0829Y-2.4304
X4.0927Y-2.4036
X4.1674Y-5.8532
X4.1687Y-3.035
X4.1771Y-5.8264
X4.1785Y-3.0082
X4.307Y-4.8479
X4.3168Y-4.8211
X4.3281Y-3.9496
X4.3379Y-3.9228
X4.4741Y-2.3462
X4.4827Y-2.3225
X4.4978Y-2.3548
X4.5064Y-2.3311
X4.5132Y-3.2172
X4.5218Y-3.1935
X4.5369Y-3.2258
X4.5455Y-3.2021
X4.5512Y-5.997
X4.5657Y-5.9763
X4.5718Y-6.0114
X4.5863Y-5.9908
X4.6124Y-4.1591
X4.621Y-4.1354
X4.6361Y-4.1677
X4.6447Y-4.144
X4.6515Y-5.0301
X4.6601Y-5.0064
X4.6752Y-5.0387
X4.6838Y-5.015
X4.82Y-3.4384
X4.8298Y-3.4116
X4.8411Y-2.5401
X4.8509Y-2.5133
X4.8555Y-6.2793
X4.8719Y-6.2559
X4.969Y-5.2219
X4.9788Y-5.1951
X4.9794Y-4.353
X4.9892Y-4.3262
X5.1254Y-2.7495
X5.1341Y-2.7258
X5.1491Y-2.7581
X5.1577Y-2.7345
X5.1645Y-3.6205
X5.1731Y-3.5969
X5.1855Y-6.5161
X5.1882Y-3.6292
X5.1968Y-3.6055
X5.2017Y-6.5354
X5.2048Y-6.5
X5.221Y-6.5193
X5.2744Y-4.533
X5.283Y-4.5094
X5.2981Y-4.5416
X5.3067Y-4.518
X5.3135Y-5.4041
X5.3221Y-5.3804
X5.3372Y-5.4127
X5.3458Y-5.389
X5.4064Y-6.8676
X5.4282Y-6.8493
X5.4821Y-3.8124
X5.4918Y-3.7855
X5.4925Y-2.9434
X5.5022Y-2.9166
X5.5218Y-5.349
X5.5495Y-5.3591
X5.6415Y-4.727
X5.6512Y-4.7001
X5.7218Y-4.7998
X5.7495Y-4.8099
X5.7875Y-3.1235
X5.7961Y-3.0998
X5.8111Y-3.1321
X5.8197Y-3.1084
X5.8265Y-3.9945
X5.8352Y-3.9708
X5.8502Y-4.0031
X5.8588Y-3.9795
X6.0274Y-7.1783
X6.0339Y-7.154
X6.0348Y-3.9395
X6.0517Y-7.1848
X6.0582Y-7.1605
X6.0625Y-3.9496
X6.1545Y-3.3174
X6.1642Y-3.2906
X6.2348Y-3.3902
X6.2512Y-5.5422
X6.2512Y-5.517
X6.2626Y-3.4003
X6.2764Y-5.5422
X6.2764Y-5.517
X6.2886Y-5.0364
X6.2886Y-5.062
X6.3045Y-5.1309
X6.3141Y-5.0364
X6.3141Y-5.062
X6.3331Y-5.1309
X6.4099Y-7.3395
X6.4173Y-7.3119
X6.4202Y-5.881
X6.4345Y-5.8563
X6.4488Y-1.4026
X6.4488Y-1.4364
X6.4646Y-1.6949
X6.4646Y-1.7205
X6.4646Y-1.7461
X6.4901Y-1.6949
X6.4901Y-1.7205
X6.4901Y-1.7461
X6.5157Y-1.6949
X6.5157Y-1.7461
X6.5157Y-1.7205
X6.5422Y-4.661
X6.5492Y-1.4606
X6.5492Y-1.4862
X6.5546Y-4.6824
X6.5667Y-4.6468
X6.5748Y-1.4606
X6.5748Y-1.4862
X6.5791Y-4.6683
X6.6004Y-1.4606
X6.6004Y-1.4862
X6.626Y-1.4606
X6.626Y-1.4862
X6.6597Y-7.3851
X6.6597Y-7.4107
X6.6717Y-1.6949
X6.6717Y-1.7461
X6.6717Y-1.7205
X6.6852Y-7.3851
X6.6852Y-7.4107
X6.6886Y-1.9316
X6.6886Y-2.5563
X6.6972Y-1.6949
X6.6972Y-1.7461
X6.6972Y-1.7205
X6.7228Y-1.6949
X6.7228Y-1.7461
X6.7228Y-1.7205
X6.7378Y-3.9945
X6.8029Y-6.1631
X6.8155Y-6.1413
X6.8157Y-2.1575
X6.8247Y-6.1757
X6.8331Y-1.835
X6.8373Y-6.1539
X6.8504Y-2.6644
X6.8556Y-4.5787
X6.8583Y-1.4792
X6.8607Y-1.835
X6.8783Y-4.566
X6.8819Y-1.4792
X6.8907Y-1.9931
X6.8907Y-1.8543
X6.8913Y-1.8957
X6.9065Y-2.9331
X6.9065Y-3.0433
X6.9065Y-2.9607
X6.9065Y-2.9882
X6.9065Y-3.0158
X6.9065Y-3.0709
X6.9067Y-7.3417
X6.9067Y-7.3165
X6.9262Y-1.5236
X6.9319Y-7.3417
X6.9319Y-7.3165
X6.9469Y-3.9947
X6.9537Y-1.5236
X6.9902Y-1.2796
X6.9902Y-1.254
X6.998Y-1.7687
X7.0126Y-4.7707
X7.0126Y-4.6723
X7.0256Y-1.7687
X7.0433Y-2.468
X7.0453Y-1.063
X7.0453Y-1.0906
X7.0453Y-1.1181
X7.0728Y-1.063
X7.0827Y-2.4567
X7.0856Y-3.2874
X7.0862Y-4.488
X7.0866Y-1.3289
X7.0866Y-1.4084
X7.0866Y-1.5196
X7.1004Y-1.063
X7.128Y-1.063
X7.128Y-1.0906
X7.128Y-1.1181
X7.1339Y-2.5935
X7.1339Y-2.4124
X7.1339Y-2.5384
X7.1339Y-2.3849
X7.1339Y-2.5109
X7.1339Y-2.566
X7.1339Y-2.3571
X7.1567Y-1.7479
X7.1614Y-2.5935
X7.1809Y-1.7146
X7.1831Y-1.254
X7.1831Y-1.2796
X7.1852Y-2.3192
X7.189Y-2.5935
X7.1968Y-1.7481
X7.2047Y-4.488
X7.2372Y-1.7481
X7.2631Y-6.1305
X7.2657Y-1.6951
X7.2667Y-2.9331
X7.2667Y-3.0433
X7.2667Y-2.9607
X7.2667Y-2.9882
X7.2667Y-3.0158
X7.2667Y-3.0709
X7.2773Y-6.1552
X7.2795Y-2.3571
X7.2953Y-1.9695
X7.3071Y-2.3573
X7.3071Y-2.5935
X7.3179Y-7.3984
X7.3179Y-7.3699
X7.3346Y-2.3573
X7.3347Y-2.5935
X7.3359Y-4.5706
X7.3485Y-4.5488
X7.3496Y-5.217
X7.3577Y-4.5832
X7.3622Y-2.3573
X7.3622Y-2.4124
X7.3622Y-2.566
X7.3622Y-2.5935
X7.3622Y-2.3849
X7.3622Y-2.5384
X7.3622Y-2.5109
X7.3701Y-4.9567
X7.3701Y-4.9853
X7.3703Y-4.5614
X7.374Y-2.8977
X7.3976Y-4.9853
X7.3976Y-4.9567
X7.4867Y-2.1575
X7.5423Y-1.8841
X7.5423Y-1.9097
X7.5679Y-1.9097
X7.5935Y-1.9097
X7.5941Y-6.0562
X7.6065Y-6.0777
X7.6187Y-6.042
X7.6191Y-1.9097
X7.6311Y-6.0635
X7.7387Y-4.8682
X7.753Y-4.8434
X7.7928Y-7.2468
X7.7993Y-7.2712
X7.8171Y-7.2403
X7.8236Y-7.2647
X7.8402Y-5.5935
X7.8687Y-5.5935
X7.8969Y-5.2075
X7.8969Y-5.1823
X7.9108Y-3.4003
X7.922Y-5.1823
X7.922Y-5.2075
X7.9385Y-3.3902
X8.039Y-3.2229
X8.0476Y-3.2466
X8.0627Y-3.2143
X8.0713Y-3.2379
X8.1106Y-3.9496
X8.1383Y-3.9395
X8.2038Y-7.1919
X8.2112Y-7.2195
X8.2467Y-3.9438
X8.2565Y-3.9706
X8.4238Y-4.8098
X8.4437Y-3.1324
X8.4515Y-4.7997
X8.4534Y-3.1592
X8.552Y-4.6324
X8.5607Y-4.6561
X8.5757Y-4.6238
X8.5843Y-4.6475
X8.6236Y-5.3592
X8.6288Y-3.865
X8.6375Y-3.8887
X8.6514Y-5.3491
X8.6525Y-3.8564
X8.6611Y-3.8801
X8.701Y-2.8489
X8.7097Y-2.8726
X8.7247Y-2.8403
X8.7333Y-2.864
X8.737Y-6.7756
X8.7532Y-6.7563
X8.7563Y-6.7918
X8.7597Y-5.3533
X8.7695Y-5.3801
X8.7725Y-6.7725
X8.9087Y-3.5698
X8.9185Y-3.5966
X8.9567Y-4.5419
X8.9665Y-4.5687
X9.0421Y-6.4948
X9.064Y-6.5132
X9.1057Y-2.7584
X9.1155Y-2.7852
X9.1419Y-5.2745
X9.1505Y-5.2982
X9.1656Y-5.2659
X9.1742Y-5.2896
X9.2141Y-4.2585
X9.2227Y-4.2821
X9.2377Y-4.2498
X9.2464Y-4.2735
X9.2909Y-3.491
X9.2995Y-3.5147
X9.3122Y-6.1825
X9.3145Y-3.4824
X9.3232Y-3.5061
X9.3266Y-6.2031
X9.3328Y-6.168
X9.3473Y-6.1887
X9.3524Y-2.4456
X9.361Y-2.4692
X9.376Y-2.437
X9.3847Y-2.4606
X9.4218Y-4.9793
X9.4315Y-5.0061
X9.5601Y-3.1664
X9.5698Y-3.1933
X9.6187Y-4.1679
X9.6285Y-4.1948
X9.6796Y-5.9903
X9.696Y-6.0137
X9.757Y-2.3551
X9.7668Y-2.3819
X9.8039Y-4.9006
X9.8125Y-4.9242
X9.8276Y-4.8919
X9.8362Y-4.9156
X9.8654Y-3.8551
X9.874Y-3.8788
X9.8891Y-3.8465
X9.8977Y-3.8702
X9.9422Y-3.0877
X9.9508Y-3.1114
X9.9659Y-3.0791
X9.9745Y-3.1027
X10.0261Y-5.7587
X10.0348Y-5.7824
X10.0498Y-5.7501
X10.0584Y-5.7737
X10.0731Y-4.576
X10.0829Y-4.6028
X10.1106Y-2.3359
X10.1192Y-2.3596
X10.1343Y-2.3273
X10.1429Y-2.3509
X10.2701Y-3.7646
X10.2798Y-3.7914
X10.3183Y-3.0567
X10.328Y-3.0836
X10.4307Y-5.6678
X10.4404Y-5.6946
X10.4552Y-4.4972
X10.4638Y-4.5209
X10.4789Y-4.4886
X10.4875Y-4.5123
X10.5152Y-2.2454
X10.525Y-2.2722
X10.6236Y-3.7454
X10.6322Y-3.7691
X10.6473Y-3.7368
X10.6559Y-3.7605
X10.7004Y-2.978
X10.709Y-3.0017
X10.7241Y-2.9694
X10.7327Y-2.993
X10.8313Y-4.4663
X10.8411Y-4.4931
X10.8795Y-2.2556
X10.8881Y-2.2792
X10.9031Y-2.2469
X10.9118Y-2.2706
X11.0283Y-3.6549
X11.038Y-3.6817
X11.0872Y-2.9764
X11.0969Y-3.0032
X11.1366Y-5.155
X11.1453Y-5.1786
X11.1603Y-5.1463
X11.1689Y-5.17
X11.2134Y-4.3875
X11.2221Y-4.4112
X11.2371Y-4.3789
X11.2457Y-4.4026
X11.2841Y-2.165
X11.2939Y-2.1919
X11.3925Y-3.6651
X11.4011Y-3.6888
X11.4162Y-3.6565
X11.4248Y-3.6802
X11.4693Y-2.8977
X11.4779Y-2.9213
X11.493Y-2.889
X11.5016Y-2.9127
X11.5413Y-5.0644
X11.5511Y-5.0913
X11.6002Y-4.386
X11.61Y-4.4128
X11.6163Y-2.0871
X11.6249Y-2.1108
X11.64Y-2.0785
X11.6486Y-2.1022
X11.7972Y-3.5746
X11.8069Y-3.6014
X11.824Y-2.808
X11.8338Y-2.8348
X11.9055Y-5.0746
X11.9142Y-5.0983
X11.9292Y-5.066
X11.9378Y-5.0897
X11.9823Y-4.3072
X11.991Y-4.3309
X12.006Y-4.2986
X12.0146Y-4.3223
X12.021Y-1.9966
X12.0307Y-2.0234
X12.1293Y-3.4967
X12.138Y-3.5204
X12.153Y-3.4881
X12.1616Y-3.5117
X12.2061Y-2.7292
X12.2148Y-2.7529
X12.2298Y-2.7206
X12.2384Y-2.7443
X12.3102Y-4.9841
X12.32Y-5.0109
X12.337Y-4.2175
X12.3468Y-4.2444
X12.534Y-3.4062
X12.5438Y-3.433
X12.6424Y-4.9062
X12.651Y-4.9299
X12.666Y-4.8976
X12.6747Y-4.9213
X12.7192Y-4.1388
X12.7278Y-4.1625
X12.7428Y-4.1302
X12.7515Y-4.1538
X13.047Y-4.8157
X13.0568Y-4.8425
T3
X7.0827Y-2.067
X7.0827Y-2.1181
X7.0827Y-2.1693
X7.1339Y-2.067
X7.1339Y-2.1181
X7.1339Y-2.1693
X7.185Y-2.067
X7.185Y-2.1181
X7.185Y-2.1693
T5
X6.876Y-5.1744
X6.876Y-5.2445
X6.876Y-5.3146
X6.876Y-5.3847
X6.876Y-5.4547
X6.876Y-5.5248
X6.876Y-5.5949
X6.876Y-5.665
X7.2972Y-5.1394
X7.2972Y-5.2095
X7.2972Y-5.2796
X7.2972Y-5.3496
X7.2972Y-5.4197
X7.2972Y-5.4898
X7.2972Y-5.5599
X7.2972Y-5.6299
T6
X6.1437Y-1.63
X6.1437Y-1.7087
X6.1437Y-1.7875
X6.1437Y-1.8662
X6.1437Y-1.9449
X6.1437Y-2.0237
X6.1437Y-2.1024
T7
X6.2992Y-1.5661
X6.2992Y-1.6661
X6.2992Y-1.7661
X6.2992Y-1.8661
X6.2992Y-1.9661
X6.2992Y-2.0661
X6.2992Y-2.1661
X6.9331Y-2.7087
X7.0331Y-2.7087
X7.1331Y-2.7087
X7.2331Y-2.7087
T8
X6.9882Y-4.1575
X7.0866Y-4.1575
X7.185Y-4.1575
T10
X6.3091Y-1.2362
X6.3091Y-2.4961
X6.4921Y-4.3325
X6.4921Y-6.3919
X7.6811Y-4.3325
X7.6811Y-6.3919
X7.8642Y-1.2362
X7.8642Y-2.4961
T11
X6.5157Y-5.3622
X7.6575Y-5.3622
T4
G00X6.9165Y-1.0236
M15
G01X6.9165Y-1.0
M16
G05
G00X6.9165Y-1.1981
M15
G01X6.9165Y-1.1547
M16
G05
G00X7.2567Y-1.0236
M15
G01X7.2567Y-1.0
M16
G05
G00X7.2567Y-1.1981
M15
G01X7.2567Y-1.1547
M16
G05
T9
G00X5.9016Y-5.2933
M15
G01X5.9016Y-5.4311
M16
G05
G00X8.2717Y-5.2933
M15
G01X8.2717Y-5.4311
M16
G05
T0
M30
