M48
; DRILL file {KiCad (7.0.0)} date Wed Apr 19 00:26:00 2023
; FORMAT={-:-/ absolute / inch / decimal}
; #@! TF.CreationDate,2023-04-19T00:26:00+01:00
; #@! TF.GenerationSoftware,Kicad,Pcbnew,(7.0.0)
; #@! TF.FileFunction,NonPlated,1,2,NPTH
FMAT,2
INCH
; #@! TA.AperFunction,NonPlated,NPTH,ComponentDrill
T1C0.0295
; #@! TA.AperFunction,NonPlated,NPTH,ComponentDrill
T2C0.0354
; #@! TA.AperFunction,NonPlated,NPTH,ComponentDrill
T3C0.0454
; #@! TA.AperFunction,NonPlated,NPTH,ComponentDrill
T4C0.0689
; #@! TA.AperFunction,NonPlated,NPTH,ComponentDrill
T5C0.0866
; #@! TA.AperFunction,NonPlated,NPTH,ComponentDrill
T6C0.1181
; #@! TA.AperFunction,NonPlated,NPTH,ComponentDrill
T7C0.1200
; #@! TA.AperFunction,NonPlated,NPTH,ComponentDrill
T8C0.1570
; #@! TA.AperFunction,NonPlated,NPTH,ComponentDrill
T9C0.1575
; #@! TA.AperFunction,NonPlated,NPTH,ComponentDrill
T10C0.1654
%
G90
G05
T1
X7.9134Y-2.4796
X7.9134Y-2.5879
T2
X8.9567Y-2.5247
X9.0748Y-2.5247
T3
X3.248Y-2.8448
X8.4646Y-7.9724
X13.685Y-2.8448
T4
X2.3113Y-6.0931
X2.5054Y-5.3686
X2.6977Y-6.1966
X2.6995Y-4.6442
X2.8918Y-5.4722
X2.8936Y-3.9197
X3.06Y-6.1966
X3.0859Y-4.7477
X3.0878Y-3.1953
X3.2541Y-5.4722
X3.28Y-4.0233
X3.4464Y-6.3002
X3.4482Y-4.7477
X3.4741Y-3.2988
X3.6405Y-5.5757
X3.6423Y-4.0233
X3.833Y-6.2096
X3.8346Y-4.8513
X3.8365Y-3.2989
X4.0271Y-5.4852
X4.0287Y-4.1268
X4.2193Y-6.3132
X4.2212Y-4.7607
X4.2228Y-3.4024
X4.4135Y-5.5887
X4.4153Y-4.0363
X4.6076Y-4.8643
X4.6094Y-3.3119
X4.792Y-5.5284
X4.8017Y-4.1398
X4.9861Y-4.8039
X4.9919Y-6.7143
X4.9958Y-3.4154
X5.1783Y-5.6319
X5.1802Y-4.0795
X5.3725Y-4.9075
X5.3743Y-3.355
X5.3782Y-6.8178
X5.476Y-5.8734
X5.5666Y-4.183
X5.6701Y-5.149
X5.7607Y-3.4586
X5.7893Y-6.9881
X5.8623Y-5.9769
X5.8642Y-4.4245
X6.0565Y-5.2525
X6.0583Y-3.7001
X6.1357Y-7.1881
X6.1681Y-6.1883
X6.2506Y-4.5281
X6.3622Y-5.4638
X6.4447Y-3.8036
X6.4886Y-7.4589
X6.5544Y-6.2918
X6.5563Y-4.7394
X6.7486Y-5.5674
X6.7504Y-4.0149
X6.7715Y-7.7417
X6.9427Y-4.8429
X7.1368Y-4.1185
X7.4041Y-7.2607
X7.7505Y-7.4607
X8.2646Y-8.3484
X8.2646Y-7.5984
X8.6646Y-8.3484
X8.6646Y-7.5984
X9.1786Y-7.4607
X9.525Y-7.2607
X9.7924Y-4.1185
X9.9865Y-4.8429
X10.1577Y-7.7417
X10.1787Y-4.0149
X10.1806Y-5.5674
X10.3728Y-4.7394
X10.3747Y-6.2918
X10.4405Y-7.4589
X10.4844Y-3.8036
X10.5669Y-5.4638
X10.6786Y-4.5281
X10.7611Y-6.1883
X10.7935Y-7.1881
X10.8708Y-3.7001
X10.8727Y-5.2525
X11.0649Y-4.4245
X11.0668Y-5.9769
X11.1399Y-6.9881
X11.1684Y-3.4586
X11.259Y-5.149
X11.3626Y-4.183
X11.4532Y-5.8734
X11.5509Y-6.8178
X11.5548Y-3.355
X11.5567Y-4.9075
X11.7489Y-4.0795
X11.7508Y-5.6319
X11.9333Y-3.4154
X11.9373Y-6.7143
X11.943Y-4.8039
X12.1274Y-4.1398
X12.1372Y-5.5284
X12.3197Y-3.3119
X12.3216Y-4.8643
X12.5138Y-4.0363
X12.5157Y-5.5887
X12.7063Y-3.4024
X12.7079Y-4.7607
X12.7098Y-6.3132
X12.9004Y-4.1268
X12.902Y-5.4852
X13.0927Y-3.2989
X13.0945Y-4.8513
X13.0962Y-6.2096
X13.2868Y-4.0233
X13.2886Y-5.5757
X13.455Y-3.2988
X13.4809Y-4.7477
X13.4828Y-6.3002
X13.6491Y-4.0233
X13.675Y-5.4722
X13.8414Y-3.1953
X13.8432Y-4.7477
X13.8691Y-6.1966
X14.0355Y-3.9197
X14.0374Y-5.4722
X14.2296Y-4.6442
X14.2315Y-6.1966
X14.4237Y-5.3686
X14.6178Y-6.0931
T5
X7.5718Y-5.598
X9.1443Y-6.5619
T6
X2.3855Y-6.0094
X2.5796Y-5.285
X2.6528Y-5.9775
X2.7737Y-4.5605
X2.847Y-5.2531
X2.9678Y-3.8361
X3.0411Y-4.5286
X3.1342Y-6.113
X3.1619Y-3.1116
X3.2352Y-3.8042
X3.3283Y-5.3885
X3.4015Y-6.0811
X3.4293Y-3.0798
X3.5224Y-4.6641
X3.5957Y-5.3566
X3.7165Y-3.9396
X3.7898Y-4.6322
X3.9072Y-6.126
X3.9106Y-3.2152
X3.9839Y-3.9078
X4.1013Y-5.4015
X4.1745Y-6.0941
X4.178Y-3.1833
X4.2954Y-4.6771
X4.3686Y-5.3696
X4.4895Y-3.9526
X4.5627Y-4.6452
X4.6836Y-3.2282
X4.7569Y-3.9208
X4.8662Y-5.4447
X4.951Y-3.1963
X5.0603Y-4.7203
X5.066Y-6.6306
X5.1335Y-5.4128
X5.2544Y-3.9958
X5.3276Y-4.6884
X5.3334Y-6.5987
X5.4485Y-3.2714
X5.5217Y-3.9639
X5.5502Y-5.7898
X5.7159Y-3.2395
X5.7443Y-5.0653
X5.8175Y-5.7579
X5.8826Y-6.9264
X5.9384Y-4.3409
X6.0116Y-5.0334
X6.1325Y-3.6164
X6.1491Y-6.9648
X6.2057Y-4.309
X6.2422Y-6.1046
X6.3999Y-3.5845
X6.4364Y-5.3802
X6.5096Y-6.0727
X6.5947Y-7.4235
X6.6305Y-4.6557
X6.7037Y-5.3483
X6.8246Y-3.9313
X6.8422Y-7.5296
X6.8978Y-4.6238
X7.092Y-3.8994
X7.4974Y-7.1991
X7.7639Y-7.2375
X8.3146Y-8.2484
X8.3146Y-7.4984
X8.5646Y-8.1484
X8.5646Y-7.3984
X9.1719Y-7.3491
X9.3384Y-7.1375
X9.8148Y-4.0089
X10.0089Y-4.7334
X10.0304Y-3.8476
X10.1223Y-7.6357
X10.203Y-5.4578
X10.2245Y-4.5721
X10.2284Y-7.3882
X10.3971Y-6.1823
X10.4186Y-5.2965
X10.5069Y-3.6941
X10.6127Y-6.021
X10.701Y-4.4185
X10.7225Y-3.5328
X10.7868Y-7.0764
X10.8951Y-5.143
X10.9166Y-4.2572
X10.9533Y-6.8648
X11.0892Y-5.8674
X11.1107Y-4.9817
X11.1909Y-3.349
X11.3048Y-5.7061
X11.385Y-4.0735
X11.4065Y-3.1877
X11.5733Y-6.7083
X11.5791Y-4.7979
X11.6006Y-3.9122
X11.7732Y-5.5224
X11.7889Y-6.547
X11.7947Y-4.6366
X11.9557Y-3.3059
X11.9888Y-5.3611
X12.1499Y-4.0303
X12.1713Y-3.1446
X12.344Y-4.7547
X12.3655Y-3.869
X12.5381Y-5.4792
X12.5596Y-4.5934
X12.7287Y-3.2928
X12.7322Y-6.2036
X12.7537Y-5.3179
X12.9228Y-4.0173
X12.9443Y-3.1315
X12.9478Y-6.0423
X13.1169Y-4.7417
X13.1384Y-3.856
X13.3111Y-5.4662
X13.3325Y-4.5804
X13.4774Y-3.1893
X13.5052Y-6.1906
X13.5267Y-5.3049
X13.6715Y-3.9137
X13.693Y-3.028
X13.7208Y-6.0293
X13.8657Y-4.6382
X13.8871Y-3.7524
X14.0598Y-5.3626
X14.0813Y-4.4769
X14.2539Y-6.0871
X14.2754Y-5.2013
X14.4695Y-5.9258
T7
X7.9946Y-8.6234
X8.9346Y-8.6234
T8
X2.5045Y-6.1448
X2.6986Y-5.4204
X2.8927Y-4.6959
X3.0868Y-3.9715
X3.2532Y-6.2484
X3.2809Y-3.2471
X3.4473Y-5.5239
X3.6414Y-4.7995
X3.8355Y-4.0751
X4.0262Y-6.2614
X4.0296Y-3.3506
X4.2203Y-5.537
X4.4144Y-4.8125
X4.6085Y-4.0881
X4.8026Y-3.3636
X4.9852Y-5.5801
X5.1793Y-4.8557
X5.185Y-6.766
X5.3734Y-4.1313
X5.5675Y-3.4068
X5.6692Y-5.9252
X5.8633Y-5.2007
X5.9625Y-7.0881
X6.0574Y-4.4763
X6.2515Y-3.7518
X6.3613Y-6.24
X6.5554Y-5.5156
X6.6301Y-7.6003
X6.7495Y-4.7911
X6.9436Y-4.0667
X7.5773Y-7.3607
X7.9946Y-8.0246
X8.4646Y-8.3484
X8.4646Y-7.5984
X8.9346Y-8.0246
X9.3518Y-7.3607
X9.9855Y-4.0667
X10.1797Y-4.7911
X10.2991Y-7.6003
X10.3738Y-5.5156
X10.5679Y-6.24
X10.6776Y-3.7518
X10.8717Y-4.4763
X10.9667Y-7.0881
X11.0659Y-5.2007
X11.26Y-5.9252
X11.3616Y-3.4068
X11.5557Y-4.1313
X11.7441Y-6.766
X11.7499Y-4.8557
X11.944Y-5.5801
X12.1265Y-3.3636
X12.3206Y-4.0881
X12.5147Y-4.8125
X12.7089Y-5.537
X12.8995Y-3.3506
X12.903Y-6.2614
X13.0936Y-4.0751
X13.2877Y-4.7995
X13.4818Y-5.5239
X13.6482Y-3.2471
X13.6759Y-6.2484
X13.8423Y-3.9715
X14.0364Y-4.6959
X14.2305Y-5.4204
X14.4247Y-6.1448
T9
X7.9882Y-5.1126
X9.3892Y-5.8894
T10
X8.0159Y-6.7141
T0
M30
