M48
; DRILL file {KiCad (7.0.0)} date Thu Mar  9 16:38:34 2023
; FORMAT={-:-/ absolute / inch / decimal}
; #@! TF.CreationDate,2023-03-09T16:38:34+00:00
; #@! TF.GenerationSoftware,Kicad,Pcbnew,(7.0.0)
; #@! TF.FileFunction,NonPlated,1,2,NPTH
FMAT,2
INCH
; #@! TA.AperFunction,NonPlated,NPTH,ComponentDrill
T1C0.0256
; #@! TA.AperFunction,NonPlated,NPTH,ComponentDrill
T2C0.0454
; #@! TA.AperFunction,NonPlated,NPTH,ComponentDrill
T3C0.0689
; #@! TA.AperFunction,NonPlated,NPTH,ComponentDrill
T4C0.0787
; #@! TA.AperFunction,NonPlated,NPTH,ComponentDrill
T5C0.1181
; #@! TA.AperFunction,NonPlated,NPTH,ComponentDrill
T6C0.1570
%
G90
G05
T1
X6.7346Y-0.9289
X6.9622Y-0.9289
T2
X2.1083Y-1.1969
X6.8484Y-7.3661
X11.5827Y-1.1988
T3
X0.9859Y-4.4117
X1.2424Y-3.7069
X1.3618Y-4.5485
X1.4989Y-3.0021
X1.6183Y-3.8437
X1.7227Y-4.5801
X1.7554Y-2.2974
X1.8748Y-3.139
X1.9792Y-3.8753
X2.012Y-1.5926
X2.0986Y-4.7169
X2.1313Y-2.4342
X2.2358Y-3.1706
X2.3551Y-4.0121
X2.3878Y-1.7294
X2.4916Y-4.6604
X2.4923Y-2.4658
X2.6116Y-3.3074
X2.7481Y-3.9557
X2.7488Y-1.761
X2.8675Y-4.7972
X2.8681Y-2.6026
X3.0047Y-3.2509
X3.124Y-4.0925
X3.1247Y-1.8978
X3.2612Y-2.5461
X3.3805Y-3.3877
X3.5063Y-4.0653
X3.5177Y-1.8413
X3.6021Y-5.2641
X3.637Y-2.6829
X3.7629Y-3.3606
X3.8822Y-4.2022
X3.8936Y-1.9782
X3.978Y-5.401
X4.0194Y-2.6558
X4.1387Y-3.4974
X4.1577Y-4.4687
X4.2759Y-1.951
X4.3953Y-2.7926
X4.3959Y-5.6177
X4.4142Y-3.7639
X4.5336Y-4.6055
X4.6518Y-2.0878
X4.6707Y-3.0591
X4.7235Y-5.8471
X4.7901Y-3.9007
X4.8197Y-4.8427
X4.9272Y-2.3544
X5.0466Y-3.196
X5.0663Y-6.1635
X5.0762Y-4.1379
X5.1956Y-4.9795
X5.3031Y-2.4912
X5.3234Y-6.4699
X5.3327Y-3.4331
X5.4521Y-4.2747
X5.5892Y-2.7284
X5.7086Y-3.5699
X5.8143Y-6.7803
X5.9651Y-2.8652
X6.2007Y-6.8838
X6.6484Y-6.9431
X7.0484Y-6.9431
X7.4962Y-6.8839
X7.7317Y-2.8652
X7.8826Y-6.7803
X7.9883Y-3.5699
X8.1076Y-2.7284
X8.2448Y-4.2747
X8.3641Y-3.4331
X8.3734Y-6.4699
X8.3938Y-2.4912
X8.5013Y-4.9795
X8.6206Y-4.1379
X8.6305Y-6.1635
X8.6503Y-3.196
X8.7696Y-2.3544
X8.8772Y-4.8427
X8.9068Y-3.9007
X8.9733Y-5.8471
X9.0261Y-3.0591
X9.0451Y-2.0878
X9.1633Y-4.6055
X9.2827Y-3.7639
X9.301Y-5.6177
X9.3016Y-2.7926
X9.421Y-1.951
X9.5392Y-4.4687
X9.5581Y-3.4974
X9.6775Y-2.6558
X9.7189Y-5.401
X9.8033Y-1.9782
X9.8146Y-4.2022
X9.934Y-3.3606
X10.0598Y-2.6829
X10.0947Y-5.2641
X10.1792Y-1.8413
X10.1905Y-4.0653
X10.3163Y-3.3877
X10.4357Y-2.5461
X10.5722Y-1.8978
X10.5728Y-4.0925
X10.6922Y-3.2509
X10.8287Y-2.6026
X10.8294Y-4.7972
X10.9481Y-1.761
X10.9487Y-3.9557
X11.0852Y-3.3074
X11.2046Y-2.4658
X11.2052Y-4.6604
X11.309Y-1.7294
X11.3417Y-4.0121
X11.4611Y-3.1706
X11.5655Y-2.4342
X11.5982Y-4.7169
X11.6849Y-1.5926
X11.7176Y-3.8753
X11.8221Y-3.139
X11.9414Y-2.2974
X11.9741Y-4.5801
X12.0786Y-3.8437
X12.1979Y-3.0021
X12.3351Y-4.5485
X12.4544Y-3.7069
X12.711Y-4.4117
T4
X5.8445Y-5.1356
X7.8524Y-5.1356
T5
X1.0671Y-4.3348
X1.3236Y-3.63
X1.3362Y-4.3264
X1.5801Y-2.9253
X1.5927Y-3.6216
X1.8039Y-4.5032
X1.8366Y-2.2205
X1.8492Y-2.9168
X2.0604Y-3.7985
X2.073Y-4.4948
X2.0931Y-1.5157
X2.1057Y-2.212
X2.3169Y-3.0937
X2.3296Y-3.79
X2.3623Y-1.5073
X2.5728Y-4.5836
X2.5735Y-2.3889
X2.5861Y-3.0852
X2.8293Y-3.8788
X2.83Y-1.6842
X2.8419Y-4.5751
X2.8426Y-2.3805
X3.0858Y-3.174
X3.0984Y-3.8703
X3.0991Y-1.6757
X3.3424Y-2.4692
X3.355Y-3.1656
X3.5875Y-3.9885
X3.5989Y-1.7645
X3.6115Y-2.4608
X3.6833Y-5.1873
X3.844Y-3.2837
X3.8567Y-3.98
X3.868Y-1.756
X3.9524Y-5.1788
X4.1006Y-2.5789
X4.1132Y-3.2752
X4.2389Y-4.3918
X4.3571Y-1.8742
X4.3697Y-2.5705
X4.4942Y-5.5644
X4.4954Y-3.687
X4.508Y-4.3834
X4.6262Y-1.8657
X4.7519Y-2.9823
X4.7563Y-5.6259
X4.7645Y-3.6786
X4.9009Y-4.7658
X5.0084Y-2.2775
X5.021Y-2.9738
X5.1574Y-4.061
X5.17Y-4.7573
X5.1751Y-6.1375
X5.2775Y-2.269
X5.4124Y-6.2648
X5.4139Y-3.3563
X5.4265Y-4.0526
X5.6704Y-2.6515
X5.683Y-3.3478
X5.8885Y-6.6967
X5.9396Y-2.643
X6.1558Y-6.6648
X6.6984Y-6.8431
X6.9484Y-6.7431
X7.5186Y-6.7743
X7.7342Y-6.613
X7.7445Y-2.7541
X7.9452Y-2.5746
X8.001Y-3.4589
X8.2018Y-3.2794
X8.2575Y-4.1636
X8.3289Y-6.3674
X8.4065Y-2.3801
X8.413Y-6.1116
X8.4583Y-3.9842
X8.5141Y-4.8684
X8.6073Y-2.2006
X8.663Y-3.0849
X8.7148Y-4.6889
X8.8638Y-2.9054
X8.9196Y-3.7897
X8.9569Y-5.7365
X9.0579Y-1.9768
X9.1043Y-5.5112
X9.1203Y-3.6102
X9.1761Y-4.4944
X9.2586Y-1.7973
X9.3144Y-2.6815
X9.3768Y-4.3149
X9.5151Y-2.5021
X9.5709Y-3.3863
X9.7316Y-5.2899
X9.7716Y-3.2068
X9.8161Y-1.8671
X9.8274Y-4.0911
X9.9324Y-5.1104
X10.0168Y-1.6876
X10.0281Y-3.9116
X10.0726Y-2.5719
X10.2733Y-2.3924
X10.3291Y-3.2766
X10.5298Y-3.0972
X10.585Y-1.7868
X10.5856Y-3.9814
X10.7857Y-1.6073
X10.7863Y-3.8019
X10.8415Y-2.4915
X10.8421Y-4.6862
X11.0422Y-2.3121
X11.0429Y-4.5067
X11.098Y-3.1963
X11.2987Y-3.0168
X11.3218Y-1.6183
X11.3545Y-3.9011
X11.5225Y-1.4389
X11.5552Y-3.7216
X11.5783Y-2.3231
X11.611Y-4.6058
X11.779Y-2.1436
X11.8118Y-4.4264
X11.8348Y-3.0279
X12.0356Y-2.8484
X12.0914Y-3.7327
X12.2921Y-3.5532
X12.3479Y-4.4374
X12.5486Y-4.2579
T6
X1.1738Y-4.4801
X1.4303Y-3.7753
X1.6869Y-3.0705
X1.9107Y-4.6485
X1.9434Y-2.3658
X2.1672Y-3.9437
X2.1999Y-1.661
X2.4237Y-3.239
X2.6796Y-4.7288
X2.6802Y-2.5342
X2.9361Y-4.0241
X2.9367Y-1.8294
X3.1926Y-3.3193
X3.4491Y-2.6145
X3.6943Y-4.1337
X3.7056Y-1.9098
X3.79Y-5.3325
X3.9508Y-3.429
X4.2073Y-2.7242
X4.3456Y-4.5371
X4.4638Y-2.0194
X4.5597Y-5.7324
X4.6021Y-3.8323
X4.8586Y-3.1276
X5.0076Y-4.9111
X5.1152Y-2.4228
X5.1949Y-6.3167
X5.2641Y-4.2063
X5.5207Y-3.5015
X5.7772Y-2.7968
X6.0075Y-6.8321
X6.8484Y-6.9431
X7.6894Y-6.8321
X7.9197Y-2.7968
X8.1762Y-3.5015
X8.4327Y-4.2063
X8.502Y-6.3167
X8.5817Y-2.4228
X8.6892Y-4.9111
X8.8382Y-3.1276
X9.0947Y-3.8323
X9.1371Y-5.7324
X9.233Y-2.0194
X9.3512Y-4.5371
X9.4895Y-2.7242
X9.746Y-3.429
X9.9068Y-5.3325
X9.9912Y-1.9098
X10.0026Y-4.1337
X10.2477Y-2.6145
X10.5043Y-3.3193
X10.7601Y-1.8294
X10.7608Y-4.0241
X11.0166Y-2.5342
X11.0173Y-4.7288
X11.2732Y-3.239
X11.497Y-1.661
X11.5297Y-3.9437
X11.7535Y-2.3658
X11.7862Y-4.6485
X12.01Y-3.0705
X12.2665Y-3.7753
X12.523Y-4.4801
T0
M30
