M48
; DRILL file {KiCad (7.0.0)} date Fri Mar 10 23:57:20 2023
; FORMAT={-:-/ absolute / inch / decimal}
; #@! TF.CreationDate,2023-03-10T23:57:20+00:00
; #@! TF.GenerationSoftware,Kicad,Pcbnew,(7.0.0)
; #@! TF.FileFunction,Plated,1,2,PTH
FMAT,2
INCH
; #@! TA.AperFunction,Plated,PTH,ViaDrill
T1C0.0098
; #@! TA.AperFunction,Plated,PTH,ViaDrill
T2C0.0118
; #@! TA.AperFunction,Plated,PTH,ComponentDrill
T3C0.0118
; #@! TA.AperFunction,Plated,PTH,ComponentDrill
T4C0.0236
; #@! TA.AperFunction,Plated,PTH,ComponentDrill
T5C0.0276
; #@! TA.AperFunction,Plated,PTH,ComponentDrill
T6C0.0295
; #@! TA.AperFunction,Plated,PTH,ComponentDrill
T7C0.0394
; #@! TA.AperFunction,Plated,PTH,ComponentDrill
T8C0.0413
; #@! TA.AperFunction,Plated,PTH,ComponentDrill
T9C0.0591
; #@! TA.AperFunction,Plated,PTH,ComponentDrill
T10C0.0787
; #@! TA.AperFunction,Plated,PTH,ComponentDrill
T11C0.1260
%
G90
G05
T1
X1.5626Y-4.3763
X1.8191Y-3.6715
X2.0756Y-2.9668
X2.2994Y-4.5447
X2.3321Y-2.262
X2.5559Y-3.8399
X2.5886Y-1.3705
X2.5887Y-1.5572
X2.8125Y-3.1352
X3.0683Y-4.625
X3.069Y-2.4304
X3.3248Y-3.9203
X3.3255Y-1.7256
X3.3256Y-1.5394
X3.5814Y-3.2155
X3.8379Y-2.5107
X4.0831Y-4.03
X4.0944Y-1.806
X4.0945Y-1.6197
X4.1788Y-5.2288
X4.3396Y-3.3252
X4.5961Y-2.6204
X4.7344Y-4.4333
X4.8526Y-1.9156
X4.8528Y-1.7299
X4.959Y-5.7215
X4.9909Y-3.7285
X5.2474Y-3.0238
X5.3964Y-4.8073
X5.5039Y-2.319
X5.5039Y-2.1323
X5.535Y-4.7079
X5.5773Y-4.7229
X5.5802Y-6.3982
X5.6529Y-4.1025
X5.8886Y-6.3699
X5.9055Y-6.3085
X5.9094Y-3.3977
X5.9987Y-6.5194
X5.9987Y-6.2392
X6.0465Y-3.2979
X6.0784Y-3.2078
X6.0902Y-3.3138
X6.1657Y-2.5063
X6.1659Y-2.693
X6.3303Y-3.2996
X6.4724Y-5.0512
X6.5512Y-1.752
X6.5748Y-1.7283
X6.6028Y-5.1811
X6.6811Y-1.2366
X6.7205Y-1.9705
X6.7598Y-2.0098
X6.8228Y-1.0177
X6.8354Y-4.7046
X6.8505Y-2.1398
X6.8505Y-1.6575
X6.8799Y-0.9193
X6.8996Y-1.0157
X6.9108Y-4.7126
X6.9193Y-4.5492
X6.939Y-1.0177
X6.9567Y-4.3193
X6.9654Y-4.4035
X6.9695Y-1.7817
X6.9764Y-4.5236
X6.9802Y-1.6251
X7.0374Y-4.5236
X7.2283Y-5.0079
X7.3228Y-1.7264
X7.5939Y-3.3157
X7.6835Y-3.3159
X7.7268Y-3.3001
X7.7756Y-6.2389
X7.7756Y-6.334
X7.8349Y-3.9793
X7.9054Y-3.9797
X7.9642Y-2.3791
X8.1077Y-4.726
X8.1717Y-2.4898
X8.1966Y-4.7265
X8.24Y-4.7098
X8.4282Y-3.1946
X8.5012Y-2.0508
X8.5811Y-5.9432
X8.6847Y-3.8994
X8.8337Y-2.1158
X8.9412Y-4.6041
X9.0902Y-2.8206
X9.1776Y-1.6382
X9.3071Y-5.3808
X9.3467Y-3.5254
X9.485Y-1.7125
X9.6033Y-4.2302
X9.7416Y-2.4173
X9.9398Y-1.5268
X9.9981Y-3.122
X10.1588Y-5.0256
X10.2433Y-1.6028
X10.2546Y-3.8268
X10.4998Y-2.3076
X10.7563Y-3.0124
X10.7709Y-1.424
X11.0122Y-1.5225
X11.0128Y-3.7171
X11.2687Y-2.2273
X11.2693Y-4.4219
X11.3335Y-1.2764
X11.5252Y-2.932
X11.749Y-1.3541
X11.7817Y-3.6368
X12.0055Y-2.0588
X12.0382Y-4.3416
X12.262Y-2.7636
X12.5185Y-3.4684
X12.775Y-4.1732
T2
X0.9873Y-4.5627
X0.9959Y-4.539
X1.0109Y-4.5713
X1.0195Y-4.5476
X1.1949Y-3.842
X1.2046Y-3.8152
X1.3543Y-4.7566
X1.364Y-4.7298
X1.5003Y-3.1532
X1.5089Y-3.1295
X1.524Y-3.1618
X1.5326Y-3.1381
X1.5394Y-4.0242
X1.548Y-4.0005
X1.5631Y-4.0328
X1.5717Y-4.0091
X1.7079Y-2.4325
X1.7177Y-2.4057
X1.7241Y-4.7311
X1.7327Y-4.7074
X1.7478Y-4.7397
X1.7564Y-4.7161
X1.8673Y-3.3471
X1.8771Y-3.3203
X1.9317Y-4.0104
X1.9415Y-3.9836
X2.0133Y-1.7436
X2.0219Y-1.7199
X2.037Y-1.7522
X2.0456Y-1.7286
X2.0524Y-2.6146
X2.061Y-2.591
X2.0761Y-2.6233
X2.0847Y-2.5996
X2.0911Y-4.925
X2.1009Y-4.8982
X2.2371Y-3.3216
X2.2457Y-3.2979
X2.2608Y-3.3302
X2.2694Y-3.3065
X2.2762Y-4.1926
X2.2848Y-4.1689
X2.2999Y-4.2012
X2.3085Y-4.1775
X2.3803Y-1.9375
X2.3901Y-1.9107
X2.4447Y-2.6009
X2.4545Y-2.5741
X2.493Y-4.8114
X2.5016Y-4.7878
X2.5167Y-4.8201
X2.5253Y-4.7964
X2.6041Y-3.5155
X2.6139Y-3.4887
X2.7006Y-4.0908
X2.7104Y-4.0639
X2.7501Y-1.912
X2.7588Y-1.8884
X2.7738Y-1.9207
X2.7824Y-1.897
X2.7892Y-2.7831
X2.7979Y-2.7594
X2.8129Y-2.7917
X2.8215Y-2.768
X2.86Y-5.0054
X2.8698Y-4.9785
X3.006Y-3.4019
X3.0146Y-3.3782
X3.0297Y-3.4105
X3.0383Y-3.3868
X3.0451Y-4.2729
X3.0537Y-4.2492
X3.0688Y-4.2815
X3.0774Y-4.2579
X3.1172Y-2.106
X3.1269Y-2.0791
X3.2136Y-2.6812
X3.2234Y-2.6544
X3.373Y-3.5958
X3.3828Y-3.569
X3.4588Y-4.2005
X3.4686Y-4.1736
X3.519Y-1.9924
X3.5277Y-1.9687
X3.5427Y-2.001
X3.5513Y-1.9773
X3.5581Y-2.8634
X3.5668Y-2.8397
X3.5818Y-2.872
X3.5904Y-2.8483
X3.6035Y-5.4152
X3.6121Y-5.3915
X3.6271Y-5.4238
X3.6358Y-5.4001
X3.7642Y-3.5116
X3.7728Y-3.4879
X3.7879Y-3.5202
X3.7965Y-3.4965
X3.8033Y-4.3826
X3.8119Y-4.3589
X3.827Y-4.3912
X3.8356Y-4.3676
X3.8861Y-2.1863
X3.8958Y-2.1595
X3.9705Y-5.6091
X3.9719Y-2.7909
X3.9803Y-5.5823
X3.9816Y-2.7641
X4.1102Y-4.6038
X4.1199Y-4.577
X4.1313Y-3.7055
X4.141Y-3.6787
X4.2773Y-2.1021
X4.2859Y-2.0784
X4.3009Y-2.1107
X4.3096Y-2.087
X4.3164Y-2.9731
X4.325Y-2.9494
X4.34Y-2.9817
X4.3486Y-2.958
X4.3544Y-5.7528
X4.3688Y-5.7322
X4.375Y-5.7673
X4.3894Y-5.7467
X4.4156Y-3.9149
X4.4242Y-3.8913
X4.4392Y-3.9236
X4.4479Y-3.8999
X4.4547Y-4.786
X4.4633Y-4.7623
X4.4783Y-4.7946
X4.4869Y-4.7709
X4.6232Y-3.1943
X4.6329Y-3.1674
X4.6443Y-2.296
X4.654Y-2.2692
X4.6587Y-6.0351
X4.6751Y-6.0118
X4.7722Y-4.9778
X4.7819Y-4.951
X4.7826Y-4.1089
X4.7923Y-4.082
X4.9286Y-2.5054
X4.9372Y-2.4817
X4.9523Y-2.514
X4.9609Y-2.4903
X4.9677Y-3.3764
X4.9763Y-3.3527
X4.9886Y-6.272
X4.9914Y-3.385
X5.0Y-3.3614
X5.0048Y-6.2913
X5.0079Y-6.2558
X5.0241Y-6.2751
X5.0776Y-4.2889
X5.0862Y-4.2652
X5.1012Y-4.2975
X5.1099Y-4.2739
X5.1167Y-5.1599
X5.1253Y-5.1363
X5.1403Y-5.1685
X5.149Y-5.1449
X5.2095Y-6.6235
X5.2314Y-6.6051
X5.2852Y-3.5682
X5.295Y-3.5414
X5.2956Y-2.6993
X5.3054Y-2.6725
X5.3249Y-5.1049
X5.3526Y-5.115
X5.4446Y-4.4828
X5.4544Y-4.456
X5.5249Y-4.5556
X5.5527Y-4.5657
X5.5906Y-2.8794
X5.5992Y-2.8557
X5.6143Y-2.888
X5.6229Y-2.8643
X5.6297Y-3.7504
X5.6383Y-3.7267
X5.6534Y-3.759
X5.662Y-3.7353
X5.8305Y-6.9342
X5.837Y-6.9098
X5.8379Y-3.6954
X5.8548Y-6.9407
X5.8614Y-6.9164
X5.8657Y-3.7055
X5.9576Y-3.0733
X5.9674Y-3.0465
X6.038Y-3.1461
X6.0543Y-5.2728
X6.0543Y-5.298
X6.0657Y-3.1562
X6.0795Y-5.298
X6.0795Y-5.2728
X6.0917Y-4.7923
X6.0917Y-4.8179
X6.1077Y-4.8868
X6.1173Y-4.7923
X6.1173Y-4.8179
X6.1362Y-4.8868
X6.2067Y-1.2665
X6.2067Y-1.3004
X6.213Y-7.0954
X6.2204Y-7.0678
X6.2234Y-5.6369
X6.2376Y-5.6122
X6.2653Y-1.4689
X6.2653Y-1.4433
X6.2653Y-1.4945
X6.2909Y-1.4689
X6.2909Y-1.4433
X6.2909Y-1.4945
X6.3165Y-1.4689
X6.3165Y-1.4433
X6.3165Y-1.4945
X6.3453Y-4.4169
X6.3504Y-1.2102
X6.3504Y-1.2358
X6.3577Y-4.4383
X6.3699Y-4.4027
X6.376Y-1.2102
X6.376Y-1.2358
X6.3823Y-4.4242
X6.4016Y-1.2102
X6.4016Y-1.2358
X6.4272Y-1.2102
X6.4272Y-1.2358
X6.4606Y-1.4689
X6.4606Y-1.4433
X6.4606Y-1.4945
X6.4628Y-7.1409
X6.4628Y-7.1665
X6.4862Y-1.4689
X6.4862Y-1.4433
X6.4862Y-1.4945
X6.4884Y-7.1409
X6.4884Y-7.1665
X6.4957Y-1.687
X6.4957Y-2.3122
X6.4957Y-2.4646
X6.5118Y-1.4689
X6.5118Y-1.4433
X6.5118Y-1.4945
X6.5409Y-3.7504
X6.5709Y-1.235
X6.5945Y-1.235
X6.606Y-5.919
X6.6186Y-5.8972
X6.6228Y-1.9134
X6.6279Y-5.9316
X6.6402Y-1.6164
X6.6405Y-5.9098
X6.6543Y-2.4646
X6.6588Y-4.3345
X6.6678Y-1.6164
X6.6815Y-4.3219
X6.6978Y-1.749
X6.6978Y-1.6358
X6.6984Y-1.6772
X6.7096Y-2.689
X6.7096Y-2.7992
X6.7096Y-2.7165
X6.7096Y-2.7441
X6.7096Y-2.8268
X6.7096Y-2.7717
X6.7098Y-7.0976
X6.7098Y-7.0724
X6.7256Y-1.0177
X6.7283Y-1.5413
X6.735Y-7.0976
X6.735Y-7.0724
X6.7437Y-1.0638
X6.7437Y-1.0886
X6.7437Y-1.1134
X6.75Y-3.7506
X6.7559Y-1.5413
X6.7685Y-1.0638
X6.7685Y-1.0886
X6.7685Y-1.1134
X6.7933Y-1.0638
X6.7933Y-1.0886
X6.7933Y-1.1134
X6.8051Y-1.5335
X6.8157Y-4.4282
X6.8157Y-4.5266
X6.8327Y-1.5335
X6.8504Y-2.2238
X6.8543Y-0.8765
X6.8887Y-3.0433
X6.8894Y-4.2439
X6.8898Y-2.2126
X6.8937Y-1.1477
X6.8937Y-1.2275
X6.8937Y-1.3387
X6.924Y-0.8765
X6.9409Y-2.1407
X6.9409Y-2.1683
X6.9409Y-2.2667
X6.9409Y-2.3494
X6.9409Y-2.2943
X6.9409Y-2.3219
X6.9409Y-2.113
X6.9638Y-1.5038
X6.9685Y-2.3494
X6.988Y-1.4705
X6.9923Y-2.075
X6.9961Y-2.3494
X7.0039Y-1.5039
X7.0079Y-4.2439
X7.0443Y-1.5039
X7.0537Y-1.0177
X7.0662Y-5.8863
X7.0699Y-2.689
X7.0699Y-2.7992
X7.0699Y-2.7165
X7.0699Y-2.7441
X7.0699Y-2.7717
X7.0699Y-2.8268
X7.0728Y-1.451
X7.0805Y-5.9111
X7.0866Y-2.113
X7.1024Y-1.7254
X7.1142Y-2.1132
X7.1142Y-2.3494
X7.1211Y-7.1543
X7.1211Y-7.1258
X7.1391Y-4.3265
X7.1417Y-2.1132
X7.1417Y-2.3494
X7.1517Y-4.3046
X7.1528Y-4.9728
X7.1609Y-4.3391
X7.1693Y-2.1132
X7.1693Y-2.1407
X7.1693Y-2.1683
X7.1693Y-2.2943
X7.1693Y-2.3219
X7.1693Y-2.3494
X7.1693Y-2.2667
X7.1732Y-4.7126
X7.1732Y-4.7411
X7.1735Y-4.3172
X7.1772Y-2.6535
X7.2008Y-4.7126
X7.2008Y-4.7411
X7.2938Y-1.9134
X7.3494Y-1.64
X7.3494Y-1.6656
X7.375Y-1.6656
X7.3973Y-5.8121
X7.4006Y-1.6656
X7.4097Y-5.8335
X7.4218Y-5.7979
X7.4262Y-1.6656
X7.4342Y-5.8194
X7.5419Y-4.624
X7.5562Y-4.5993
X7.5959Y-7.0027
X7.6024Y-7.0271
X7.6202Y-6.9962
X7.6268Y-7.0205
X7.6433Y-5.3494
X7.6718Y-5.3494
X7.7Y-4.9634
X7.7Y-4.9382
X7.7139Y-3.1562
X7.7252Y-4.9382
X7.7252Y-4.9634
X7.7417Y-3.1461
X7.8422Y-2.9788
X7.8508Y-3.0024
X7.8658Y-2.9702
X7.8745Y-2.9938
X7.9137Y-3.7055
X7.9415Y-3.6954
X8.0069Y-6.9478
X8.0143Y-6.9754
X8.0499Y-3.6996
X8.0596Y-3.7265
X8.227Y-4.5657
X8.2468Y-2.8883
X8.2547Y-4.5556
X8.2566Y-2.9151
X8.3552Y-4.3883
X8.3638Y-4.412
X8.3789Y-4.3797
X8.3875Y-4.4034
X8.4268Y-5.115
X8.432Y-3.6209
X8.4406Y-3.6446
X8.4545Y-5.1049
X8.4557Y-3.6123
X8.4643Y-3.6359
X8.5042Y-2.6048
X8.5128Y-2.6285
X8.5279Y-2.5962
X8.5365Y-2.6199
X8.5401Y-6.5315
X8.5563Y-6.5121
X8.5594Y-6.5476
X8.5629Y-5.1092
X8.5727Y-5.136
X8.5756Y-6.5283
X8.7119Y-3.3257
X8.7216Y-3.3525
X8.7599Y-4.2978
X8.7696Y-4.3246
X8.8453Y-6.2507
X8.8672Y-6.2691
X8.9089Y-2.5143
X8.9186Y-2.5411
X8.945Y-5.0304
X8.9536Y-5.0541
X8.9687Y-5.0218
X8.9773Y-5.0455
X9.0172Y-4.0143
X9.0258Y-4.038
X9.0409Y-4.0057
X9.0495Y-4.0294
X9.094Y-3.2469
X9.1026Y-3.2706
X9.1153Y-5.9384
X9.1177Y-3.2383
X9.1263Y-3.262
X9.1298Y-5.959
X9.136Y-5.9239
X9.1504Y-5.9446
X9.1555Y-2.2015
X9.1641Y-2.2251
X9.1792Y-2.1928
X9.1878Y-2.2165
X9.2249Y-4.7352
X9.2347Y-4.762
X9.3632Y-2.9223
X9.373Y-2.9491
X9.4219Y-3.9238
X9.4316Y-3.9506
X9.4828Y-5.7462
X9.4992Y-5.7696
X9.5602Y-2.1109
X9.5699Y-2.1378
X9.607Y-4.6564
X9.6157Y-4.6801
X9.6307Y-4.6478
X9.6393Y-4.6715
X9.6685Y-3.611
X9.6772Y-3.6347
X9.6922Y-3.6024
X9.7008Y-3.626
X9.7453Y-2.8436
X9.754Y-2.8672
X9.769Y-2.8349
X9.7776Y-2.8586
X9.8293Y-5.5146
X9.8379Y-5.5382
X9.853Y-5.5059
X9.8616Y-5.5296
X9.8762Y-4.3319
X9.886Y-4.3587
X9.9137Y-2.0918
X9.9223Y-2.1154
X9.9374Y-2.0831
X9.946Y-2.1068
X10.0732Y-3.5205
X10.083Y-3.5473
X10.1214Y-2.8126
X10.1312Y-2.8394
X10.2338Y-5.4237
X10.2436Y-5.4505
X10.2584Y-4.2531
X10.267Y-4.2768
X10.2821Y-4.2445
X10.2907Y-4.2682
X10.3184Y-2.0012
X10.3282Y-2.0281
X10.4268Y-3.5013
X10.4354Y-3.525
X10.4504Y-3.4927
X10.459Y-3.5164
X10.5036Y-2.7339
X10.5122Y-2.7575
X10.5272Y-2.7253
X10.5358Y-2.7489
X10.6345Y-4.2222
X10.6442Y-4.249
X10.6826Y-2.0114
X10.6912Y-2.0351
X10.7063Y-2.0028
X10.7149Y-2.0265
X10.8314Y-3.4108
X10.8412Y-3.4376
X10.8903Y-2.7323
X10.9001Y-2.7591
X10.9398Y-4.9108
X10.9484Y-4.9345
X10.9635Y-4.9022
X10.9721Y-4.9259
X11.0166Y-4.1434
X11.0252Y-4.1671
X11.0403Y-4.1348
X11.0489Y-4.1585
X11.0873Y-1.9209
X11.0971Y-1.9477
X11.1957Y-3.421
X11.2043Y-3.4447
X11.2193Y-3.4124
X11.2279Y-3.436
X11.2725Y-2.6535
X11.2811Y-2.6772
X11.2961Y-2.6449
X11.3047Y-2.6686
X11.3444Y-4.8203
X11.3542Y-4.8471
X11.4033Y-4.1418
X11.4131Y-4.1687
X11.4195Y-1.843
X11.4281Y-1.8667
X11.4431Y-1.8344
X11.4517Y-1.8581
X11.6003Y-3.3305
X11.6101Y-3.3573
X11.6272Y-2.5639
X11.6369Y-2.5907
X11.7087Y-4.8305
X11.7173Y-4.8542
X11.7324Y-4.8219
X11.741Y-4.8456
X11.7855Y-4.0631
X11.7941Y-4.0868
X11.8092Y-4.0545
X11.8178Y-4.0781
X11.8241Y-1.7525
X11.8339Y-1.7793
X11.9325Y-3.2526
X11.9411Y-3.2762
X11.9562Y-3.2439
X11.9648Y-3.2676
X12.0093Y-2.4851
X12.0179Y-2.5088
X12.033Y-2.4765
X12.0416Y-2.5002
X12.1133Y-4.74
X12.1231Y-4.7668
X12.1402Y-3.9734
X12.1499Y-4.0002
X12.3372Y-3.162
X12.3469Y-3.1889
X12.4455Y-4.6621
X12.4541Y-4.6858
X12.4692Y-4.6535
X12.4778Y-4.6772
X12.5223Y-3.8947
X12.5309Y-3.9183
X12.546Y-3.8861
X12.5546Y-3.9097
X12.8502Y-4.5716
X12.8599Y-4.5984
T3
X6.8898Y-1.8228
X6.8898Y-1.874
X6.8898Y-1.9252
X6.9409Y-1.8228
X6.9409Y-1.874
X6.9409Y-1.9252
X6.9921Y-1.8228
X6.9921Y-1.874
X6.9921Y-1.9252
T5
X6.6791Y-4.9303
X6.6791Y-5.0004
X6.6791Y-5.0705
X6.6791Y-5.1406
X6.6791Y-5.2106
X6.6791Y-5.2807
X6.6791Y-5.3508
X6.6791Y-5.4209
X7.1004Y-4.8953
X7.1004Y-4.9654
X7.1004Y-5.0354
X7.1004Y-5.1055
X7.1004Y-5.1756
X7.1004Y-5.2457
X7.1004Y-5.3157
X7.1004Y-5.3858
T6
X5.9469Y-1.3859
X5.9469Y-1.4646
X5.9469Y-1.5433
X5.9469Y-1.6221
X5.9469Y-1.7008
X5.9469Y-1.7796
X5.9469Y-1.8583
T7
X6.1024Y-1.3221
X6.1024Y-1.4221
X6.1024Y-1.5221
X6.1024Y-1.6221
X6.1024Y-1.7221
X6.1024Y-1.8221
X6.1024Y-1.9221
X6.7402Y-2.4646
X6.8402Y-2.4646
X6.9402Y-2.4646
X7.0402Y-2.4646
T8
X6.7913Y-3.9134
X6.8898Y-3.9134
X6.9882Y-3.9134
T10
X6.1122Y-0.9922
X6.1122Y-2.252
X6.2953Y-4.0884
X6.2953Y-6.1478
X7.4843Y-4.0884
X7.4843Y-6.1478
X7.6673Y-0.9922
X7.6673Y-2.252
T11
X6.3189Y-5.1181
X7.4606Y-5.1181
T4
G00X6.7197Y-0.7795
M15
G01X6.7197Y-0.7559
M16
G05
G00X6.7197Y-0.9539
M15
G01X6.7197Y-0.9106
M16
G05
G00X7.0598Y-0.7795
M15
G01X7.0598Y-0.7559
M16
G05
G00X7.0598Y-0.9539
M15
G01X7.0598Y-0.9106
M16
G05
T9
G00X5.7047Y-5.0492
M15
G01X5.7047Y-5.187
M16
G05
G00X8.0748Y-5.0492
M15
G01X8.0748Y-5.187
M16
G05
T0
M30
