%TF.GenerationSoftware,KiCad,Pcbnew,7.0.6*%
%TF.CreationDate,2023-07-29T11:05:59+01:00*%
%TF.ProjectId,Honeydew,486f6e65-7964-4657-972e-6b696361645f,V3.0*%
%TF.SameCoordinates,Original*%
%TF.FileFunction,Legend,Top*%
%TF.FilePolarity,Positive*%
%FSLAX46Y46*%
G04 Gerber Fmt 4.6, Leading zero omitted, Abs format (unit mm)*
G04 Created by KiCad (PCBNEW 7.0.6) date 2023-07-29 11:05:59*
%MOMM*%
%LPD*%
G01*
G04 APERTURE LIST*
G04 Aperture macros list*
%AMRoundRect*
0 Rectangle with rounded corners*
0 $1 Rounding radius*
0 $2 $3 $4 $5 $6 $7 $8 $9 X,Y pos of 4 corners*
0 Add a 4 corners polygon primitive as box body*
4,1,4,$2,$3,$4,$5,$6,$7,$8,$9,$2,$3,0*
0 Add four circle primitives for the rounded corners*
1,1,$1+$1,$2,$3*
1,1,$1+$1,$4,$5*
1,1,$1+$1,$6,$7*
1,1,$1+$1,$8,$9*
0 Add four rect primitives between the rounded corners*
20,1,$1+$1,$2,$3,$4,$5,0*
20,1,$1+$1,$4,$5,$6,$7,0*
20,1,$1+$1,$6,$7,$8,$9,0*
20,1,$1+$1,$8,$9,$2,$3,0*%
G04 Aperture macros list end*
%ADD10C,0.120000*%
%ADD11C,0.150000*%
%ADD12C,0.300000*%
%ADD13C,0.100000*%
%ADD14C,0.127000*%
%ADD15C,0.200000*%
%ADD16C,1.152000*%
%ADD17C,4.400000*%
%ADD18C,2.000000*%
%ADD19RoundRect,0.575000X-0.675000X-0.575000X0.675000X-0.575000X0.675000X0.575000X-0.675000X0.575000X0*%
%ADD20C,6.000000*%
%ADD21R,1.550000X1.300000*%
%ADD22C,0.500000*%
%ADD23R,2.200000X2.200000*%
%ADD24C,2.200000*%
%ADD25R,1.700000X1.700000*%
%ADD26O,1.700000X1.700000*%
%ADD27C,4.000000*%
%ADD28RoundRect,0.250000X0.625000X-0.350000X0.625000X0.350000X-0.625000X0.350000X-0.625000X-0.350000X0*%
%ADD29O,1.750000X1.200000*%
%ADD30C,3.987800*%
%ADD31C,3.000000*%
%ADD32C,1.700000*%
%ADD33C,0.520000*%
%ADD34O,2.200000X1.100000*%
%ADD35C,0.990600*%
G04 APERTURE END LIST*
D10*
X181099981Y-56430013D02*
X175749968Y-56430011D01*
X206340003Y-93100002D02*
X207810011Y-93100008D01*
X207810011Y-93800015D02*
X207810016Y-93100012D01*
X214899960Y-90430003D02*
X181099971Y-90430003D01*
X214899960Y-90430003D02*
X214899965Y-56430017D01*
X181099971Y-90430001D02*
X181099981Y-56430013D01*
X203360015Y-93800015D02*
X203360012Y-93100011D01*
X203360012Y-93100011D02*
X204840003Y-93100013D01*
D11*
X209513869Y-93585719D02*
X209513869Y-92823815D01*
X209894822Y-93204767D02*
X209132917Y-93204767D01*
X208894822Y-91871434D02*
X208894822Y-92347624D01*
X208894822Y-92347624D02*
X209371012Y-92395243D01*
X209371012Y-92395243D02*
X209323393Y-92347624D01*
X209323393Y-92347624D02*
X209275774Y-92252386D01*
X209275774Y-92252386D02*
X209275774Y-92014291D01*
X209275774Y-92014291D02*
X209323393Y-91919053D01*
X209323393Y-91919053D02*
X209371012Y-91871434D01*
X209371012Y-91871434D02*
X209466250Y-91823815D01*
X209466250Y-91823815D02*
X209704345Y-91823815D01*
X209704345Y-91823815D02*
X209799583Y-91871434D01*
X209799583Y-91871434D02*
X209847203Y-91919053D01*
X209847203Y-91919053D02*
X209894822Y-92014291D01*
X209894822Y-92014291D02*
X209894822Y-92252386D01*
X209894822Y-92252386D02*
X209847203Y-92347624D01*
X209847203Y-92347624D02*
X209799583Y-92395243D01*
X208894822Y-91538100D02*
X209894822Y-91204767D01*
X209894822Y-91204767D02*
X208894822Y-90871434D01*
X188037438Y-92961904D02*
X187989819Y-93057142D01*
X187989819Y-93057142D02*
X187989819Y-93199999D01*
X187989819Y-93199999D02*
X188037438Y-93342856D01*
X188037438Y-93342856D02*
X188132676Y-93438094D01*
X188132676Y-93438094D02*
X188227914Y-93485713D01*
X188227914Y-93485713D02*
X188418390Y-93533332D01*
X188418390Y-93533332D02*
X188561247Y-93533332D01*
X188561247Y-93533332D02*
X188751723Y-93485713D01*
X188751723Y-93485713D02*
X188846961Y-93438094D01*
X188846961Y-93438094D02*
X188942200Y-93342856D01*
X188942200Y-93342856D02*
X188989819Y-93199999D01*
X188989819Y-93199999D02*
X188989819Y-93104761D01*
X188989819Y-93104761D02*
X188942200Y-92961904D01*
X188942200Y-92961904D02*
X188894580Y-92914285D01*
X188894580Y-92914285D02*
X188561247Y-92914285D01*
X188561247Y-92914285D02*
X188561247Y-93104761D01*
X188989819Y-92485713D02*
X187989819Y-92485713D01*
X187989819Y-92485713D02*
X188989819Y-91914285D01*
X188989819Y-91914285D02*
X187989819Y-91914285D01*
X188989819Y-91438094D02*
X187989819Y-91438094D01*
X187989819Y-91438094D02*
X187989819Y-91199999D01*
X187989819Y-91199999D02*
X188037438Y-91057142D01*
X188037438Y-91057142D02*
X188132676Y-90961904D01*
X188132676Y-90961904D02*
X188227914Y-90914285D01*
X188227914Y-90914285D02*
X188418390Y-90866666D01*
X188418390Y-90866666D02*
X188561247Y-90866666D01*
X188561247Y-90866666D02*
X188751723Y-90914285D01*
X188751723Y-90914285D02*
X188846961Y-90961904D01*
X188846961Y-90961904D02*
X188942200Y-91057142D01*
X188942200Y-91057142D02*
X188989819Y-91199999D01*
X188989819Y-91199999D02*
X188989819Y-91438094D01*
X186259580Y-92895238D02*
X186307200Y-92942857D01*
X186307200Y-92942857D02*
X186354819Y-93085714D01*
X186354819Y-93085714D02*
X186354819Y-93180952D01*
X186354819Y-93180952D02*
X186307200Y-93323809D01*
X186307200Y-93323809D02*
X186211961Y-93419047D01*
X186211961Y-93419047D02*
X186116723Y-93466666D01*
X186116723Y-93466666D02*
X185926247Y-93514285D01*
X185926247Y-93514285D02*
X185783390Y-93514285D01*
X185783390Y-93514285D02*
X185592914Y-93466666D01*
X185592914Y-93466666D02*
X185497676Y-93419047D01*
X185497676Y-93419047D02*
X185402438Y-93323809D01*
X185402438Y-93323809D02*
X185354819Y-93180952D01*
X185354819Y-93180952D02*
X185354819Y-93085714D01*
X185354819Y-93085714D02*
X185402438Y-92942857D01*
X185402438Y-92942857D02*
X185450057Y-92895238D01*
X186354819Y-91990476D02*
X186354819Y-92466666D01*
X186354819Y-92466666D02*
X185354819Y-92466666D01*
X186354819Y-91657142D02*
X185354819Y-91657142D01*
X186354819Y-91085714D02*
X185783390Y-91514285D01*
X185354819Y-91085714D02*
X185926247Y-91657142D01*
X191407200Y-93557142D02*
X191454819Y-93414285D01*
X191454819Y-93414285D02*
X191454819Y-93176190D01*
X191454819Y-93176190D02*
X191407200Y-93080952D01*
X191407200Y-93080952D02*
X191359580Y-93033333D01*
X191359580Y-93033333D02*
X191264342Y-92985714D01*
X191264342Y-92985714D02*
X191169104Y-92985714D01*
X191169104Y-92985714D02*
X191073866Y-93033333D01*
X191073866Y-93033333D02*
X191026247Y-93080952D01*
X191026247Y-93080952D02*
X190978628Y-93176190D01*
X190978628Y-93176190D02*
X190931009Y-93366666D01*
X190931009Y-93366666D02*
X190883390Y-93461904D01*
X190883390Y-93461904D02*
X190835771Y-93509523D01*
X190835771Y-93509523D02*
X190740533Y-93557142D01*
X190740533Y-93557142D02*
X190645295Y-93557142D01*
X190645295Y-93557142D02*
X190550057Y-93509523D01*
X190550057Y-93509523D02*
X190502438Y-93461904D01*
X190502438Y-93461904D02*
X190454819Y-93366666D01*
X190454819Y-93366666D02*
X190454819Y-93128571D01*
X190454819Y-93128571D02*
X190502438Y-92985714D01*
X190454819Y-92652380D02*
X191454819Y-92414285D01*
X191454819Y-92414285D02*
X190740533Y-92223809D01*
X190740533Y-92223809D02*
X191454819Y-92033333D01*
X191454819Y-92033333D02*
X190454819Y-91795238D01*
X191454819Y-91414285D02*
X190454819Y-91414285D01*
X190454819Y-91414285D02*
X190454819Y-91176190D01*
X190454819Y-91176190D02*
X190502438Y-91033333D01*
X190502438Y-91033333D02*
X190597676Y-90938095D01*
X190597676Y-90938095D02*
X190692914Y-90890476D01*
X190692914Y-90890476D02*
X190883390Y-90842857D01*
X190883390Y-90842857D02*
X191026247Y-90842857D01*
X191026247Y-90842857D02*
X191216723Y-90890476D01*
X191216723Y-90890476D02*
X191311961Y-90938095D01*
X191311961Y-90938095D02*
X191407200Y-91033333D01*
X191407200Y-91033333D02*
X191454819Y-91176190D01*
X191454819Y-91176190D02*
X191454819Y-91414285D01*
D12*
X187190466Y-66359640D02*
X187190466Y-64359640D01*
X187190466Y-65312021D02*
X188333323Y-65312021D01*
X188333323Y-66359640D02*
X188333323Y-64359640D01*
X189571418Y-66359640D02*
X189380942Y-66264402D01*
X189380942Y-66264402D02*
X189285704Y-66169163D01*
X189285704Y-66169163D02*
X189190466Y-65978687D01*
X189190466Y-65978687D02*
X189190466Y-65407259D01*
X189190466Y-65407259D02*
X189285704Y-65216782D01*
X189285704Y-65216782D02*
X189380942Y-65121544D01*
X189380942Y-65121544D02*
X189571418Y-65026306D01*
X189571418Y-65026306D02*
X189857133Y-65026306D01*
X189857133Y-65026306D02*
X190047609Y-65121544D01*
X190047609Y-65121544D02*
X190142847Y-65216782D01*
X190142847Y-65216782D02*
X190238085Y-65407259D01*
X190238085Y-65407259D02*
X190238085Y-65978687D01*
X190238085Y-65978687D02*
X190142847Y-66169163D01*
X190142847Y-66169163D02*
X190047609Y-66264402D01*
X190047609Y-66264402D02*
X189857133Y-66359640D01*
X189857133Y-66359640D02*
X189571418Y-66359640D01*
X191095228Y-65026306D02*
X191095228Y-66359640D01*
X191095228Y-65216782D02*
X191190466Y-65121544D01*
X191190466Y-65121544D02*
X191380942Y-65026306D01*
X191380942Y-65026306D02*
X191666657Y-65026306D01*
X191666657Y-65026306D02*
X191857133Y-65121544D01*
X191857133Y-65121544D02*
X191952371Y-65312021D01*
X191952371Y-65312021D02*
X191952371Y-66359640D01*
X193666657Y-66264402D02*
X193476181Y-66359640D01*
X193476181Y-66359640D02*
X193095228Y-66359640D01*
X193095228Y-66359640D02*
X192904752Y-66264402D01*
X192904752Y-66264402D02*
X192809514Y-66073925D01*
X192809514Y-66073925D02*
X192809514Y-65312021D01*
X192809514Y-65312021D02*
X192904752Y-65121544D01*
X192904752Y-65121544D02*
X193095228Y-65026306D01*
X193095228Y-65026306D02*
X193476181Y-65026306D01*
X193476181Y-65026306D02*
X193666657Y-65121544D01*
X193666657Y-65121544D02*
X193761895Y-65312021D01*
X193761895Y-65312021D02*
X193761895Y-65502497D01*
X193761895Y-65502497D02*
X192809514Y-65692973D01*
X194428562Y-65026306D02*
X194904752Y-66359640D01*
X195380943Y-65026306D02*
X194904752Y-66359640D01*
X194904752Y-66359640D02*
X194714276Y-66835830D01*
X194714276Y-66835830D02*
X194619038Y-66931068D01*
X194619038Y-66931068D02*
X194428562Y-67026306D01*
X196999991Y-66359640D02*
X196999991Y-64359640D01*
X196999991Y-66264402D02*
X196809515Y-66359640D01*
X196809515Y-66359640D02*
X196428562Y-66359640D01*
X196428562Y-66359640D02*
X196238086Y-66264402D01*
X196238086Y-66264402D02*
X196142848Y-66169163D01*
X196142848Y-66169163D02*
X196047610Y-65978687D01*
X196047610Y-65978687D02*
X196047610Y-65407259D01*
X196047610Y-65407259D02*
X196142848Y-65216782D01*
X196142848Y-65216782D02*
X196238086Y-65121544D01*
X196238086Y-65121544D02*
X196428562Y-65026306D01*
X196428562Y-65026306D02*
X196809515Y-65026306D01*
X196809515Y-65026306D02*
X196999991Y-65121544D01*
X198714277Y-66264402D02*
X198523801Y-66359640D01*
X198523801Y-66359640D02*
X198142848Y-66359640D01*
X198142848Y-66359640D02*
X197952372Y-66264402D01*
X197952372Y-66264402D02*
X197857134Y-66073925D01*
X197857134Y-66073925D02*
X197857134Y-65312021D01*
X197857134Y-65312021D02*
X197952372Y-65121544D01*
X197952372Y-65121544D02*
X198142848Y-65026306D01*
X198142848Y-65026306D02*
X198523801Y-65026306D01*
X198523801Y-65026306D02*
X198714277Y-65121544D01*
X198714277Y-65121544D02*
X198809515Y-65312021D01*
X198809515Y-65312021D02*
X198809515Y-65502497D01*
X198809515Y-65502497D02*
X197857134Y-65692973D01*
X199476182Y-65026306D02*
X199857134Y-66359640D01*
X199857134Y-66359640D02*
X200238087Y-65407259D01*
X200238087Y-65407259D02*
X200619039Y-66359640D01*
X200619039Y-66359640D02*
X200999991Y-65026306D01*
X202999992Y-64359640D02*
X203666658Y-66359640D01*
X203666658Y-66359640D02*
X204333325Y-64359640D01*
X204809516Y-64359640D02*
X206047611Y-64359640D01*
X206047611Y-64359640D02*
X205380944Y-65121544D01*
X205380944Y-65121544D02*
X205666659Y-65121544D01*
X205666659Y-65121544D02*
X205857135Y-65216782D01*
X205857135Y-65216782D02*
X205952373Y-65312021D01*
X205952373Y-65312021D02*
X206047611Y-65502497D01*
X206047611Y-65502497D02*
X206047611Y-65978687D01*
X206047611Y-65978687D02*
X205952373Y-66169163D01*
X205952373Y-66169163D02*
X205857135Y-66264402D01*
X205857135Y-66264402D02*
X205666659Y-66359640D01*
X205666659Y-66359640D02*
X205095230Y-66359640D01*
X205095230Y-66359640D02*
X204904754Y-66264402D01*
X204904754Y-66264402D02*
X204809516Y-66169163D01*
X206904754Y-66169163D02*
X206999992Y-66264402D01*
X206999992Y-66264402D02*
X206904754Y-66359640D01*
X206904754Y-66359640D02*
X206809516Y-66264402D01*
X206809516Y-66264402D02*
X206904754Y-66169163D01*
X206904754Y-66169163D02*
X206904754Y-66359640D01*
X208238087Y-64359640D02*
X208428564Y-64359640D01*
X208428564Y-64359640D02*
X208619040Y-64454878D01*
X208619040Y-64454878D02*
X208714278Y-64550116D01*
X208714278Y-64550116D02*
X208809516Y-64740592D01*
X208809516Y-64740592D02*
X208904754Y-65121544D01*
X208904754Y-65121544D02*
X208904754Y-65597735D01*
X208904754Y-65597735D02*
X208809516Y-65978687D01*
X208809516Y-65978687D02*
X208714278Y-66169163D01*
X208714278Y-66169163D02*
X208619040Y-66264402D01*
X208619040Y-66264402D02*
X208428564Y-66359640D01*
X208428564Y-66359640D02*
X208238087Y-66359640D01*
X208238087Y-66359640D02*
X208047611Y-66264402D01*
X208047611Y-66264402D02*
X207952373Y-66169163D01*
X207952373Y-66169163D02*
X207857135Y-65978687D01*
X207857135Y-65978687D02*
X207761897Y-65597735D01*
X207761897Y-65597735D02*
X207761897Y-65121544D01*
X207761897Y-65121544D02*
X207857135Y-64740592D01*
X207857135Y-64740592D02*
X207952373Y-64550116D01*
X207952373Y-64550116D02*
X208047611Y-64454878D01*
X208047611Y-64454878D02*
X208238087Y-64359640D01*
D11*
X212494824Y-92890481D02*
X212018633Y-93223814D01*
X212494824Y-93461909D02*
X211494824Y-93461909D01*
X211494824Y-93461909D02*
X211494824Y-93080957D01*
X211494824Y-93080957D02*
X211542443Y-92985719D01*
X211542443Y-92985719D02*
X211590062Y-92938100D01*
X211590062Y-92938100D02*
X211685300Y-92890481D01*
X211685300Y-92890481D02*
X211828157Y-92890481D01*
X211828157Y-92890481D02*
X211923395Y-92938100D01*
X211923395Y-92938100D02*
X211971014Y-92985719D01*
X211971014Y-92985719D02*
X212018633Y-93080957D01*
X212018633Y-93080957D02*
X212018633Y-93461909D01*
X211542443Y-91938100D02*
X211494824Y-92033338D01*
X211494824Y-92033338D02*
X211494824Y-92176195D01*
X211494824Y-92176195D02*
X211542443Y-92319052D01*
X211542443Y-92319052D02*
X211637681Y-92414290D01*
X211637681Y-92414290D02*
X211732919Y-92461909D01*
X211732919Y-92461909D02*
X211923395Y-92509528D01*
X211923395Y-92509528D02*
X212066252Y-92509528D01*
X212066252Y-92509528D02*
X212256728Y-92461909D01*
X212256728Y-92461909D02*
X212351966Y-92414290D01*
X212351966Y-92414290D02*
X212447205Y-92319052D01*
X212447205Y-92319052D02*
X212494824Y-92176195D01*
X212494824Y-92176195D02*
X212494824Y-92080957D01*
X212494824Y-92080957D02*
X212447205Y-91938100D01*
X212447205Y-91938100D02*
X212399585Y-91890481D01*
X212399585Y-91890481D02*
X212066252Y-91890481D01*
X212066252Y-91890481D02*
X212066252Y-92080957D01*
X211971014Y-91128576D02*
X212018633Y-90985719D01*
X212018633Y-90985719D02*
X212066252Y-90938100D01*
X212066252Y-90938100D02*
X212161490Y-90890481D01*
X212161490Y-90890481D02*
X212304347Y-90890481D01*
X212304347Y-90890481D02*
X212399585Y-90938100D01*
X212399585Y-90938100D02*
X212447205Y-90985719D01*
X212447205Y-90985719D02*
X212494824Y-91080957D01*
X212494824Y-91080957D02*
X212494824Y-91461909D01*
X212494824Y-91461909D02*
X211494824Y-91461909D01*
X211494824Y-91461909D02*
X211494824Y-91128576D01*
X211494824Y-91128576D02*
X211542443Y-91033338D01*
X211542443Y-91033338D02*
X211590062Y-90985719D01*
X211590062Y-90985719D02*
X211685300Y-90938100D01*
X211685300Y-90938100D02*
X211780538Y-90938100D01*
X211780538Y-90938100D02*
X211875776Y-90985719D01*
X211875776Y-90985719D02*
X211923395Y-91033338D01*
X211923395Y-91033338D02*
X211971014Y-91128576D01*
X211971014Y-91128576D02*
X211971014Y-91461909D01*
X205152438Y-92961904D02*
X205104819Y-93057142D01*
X205104819Y-93057142D02*
X205104819Y-93199999D01*
X205104819Y-93199999D02*
X205152438Y-93342856D01*
X205152438Y-93342856D02*
X205247676Y-93438094D01*
X205247676Y-93438094D02*
X205342914Y-93485713D01*
X205342914Y-93485713D02*
X205533390Y-93533332D01*
X205533390Y-93533332D02*
X205676247Y-93533332D01*
X205676247Y-93533332D02*
X205866723Y-93485713D01*
X205866723Y-93485713D02*
X205961961Y-93438094D01*
X205961961Y-93438094D02*
X206057200Y-93342856D01*
X206057200Y-93342856D02*
X206104819Y-93199999D01*
X206104819Y-93199999D02*
X206104819Y-93104761D01*
X206104819Y-93104761D02*
X206057200Y-92961904D01*
X206057200Y-92961904D02*
X206009580Y-92914285D01*
X206009580Y-92914285D02*
X205676247Y-92914285D01*
X205676247Y-92914285D02*
X205676247Y-93104761D01*
X206104819Y-92485713D02*
X205104819Y-92485713D01*
X205104819Y-92485713D02*
X206104819Y-91914285D01*
X206104819Y-91914285D02*
X205104819Y-91914285D01*
X206104819Y-91438094D02*
X205104819Y-91438094D01*
X205104819Y-91438094D02*
X205104819Y-91199999D01*
X205104819Y-91199999D02*
X205152438Y-91057142D01*
X205152438Y-91057142D02*
X205247676Y-90961904D01*
X205247676Y-90961904D02*
X205342914Y-90914285D01*
X205342914Y-90914285D02*
X205533390Y-90866666D01*
X205533390Y-90866666D02*
X205676247Y-90866666D01*
X205676247Y-90866666D02*
X205866723Y-90914285D01*
X205866723Y-90914285D02*
X205961961Y-90961904D01*
X205961961Y-90961904D02*
X206057200Y-91057142D01*
X206057200Y-91057142D02*
X206104819Y-91199999D01*
X206104819Y-91199999D02*
X206104819Y-91438094D01*
D13*
X223009503Y-201394874D02*
X223009503Y-200594874D01*
X223009503Y-200975826D02*
X223466646Y-200975826D01*
X223466646Y-201394874D02*
X223466646Y-200594874D01*
X224266645Y-201394874D02*
X223809502Y-201394874D01*
X224038074Y-201394874D02*
X224038074Y-200594874D01*
X224038074Y-200594874D02*
X223961883Y-200709159D01*
X223961883Y-200709159D02*
X223885693Y-200785350D01*
X223885693Y-200785350D02*
X223809502Y-200823445D01*
X224571407Y-200671064D02*
X224609503Y-200632969D01*
X224609503Y-200632969D02*
X224685693Y-200594874D01*
X224685693Y-200594874D02*
X224876169Y-200594874D01*
X224876169Y-200594874D02*
X224952360Y-200632969D01*
X224952360Y-200632969D02*
X224990455Y-200671064D01*
X224990455Y-200671064D02*
X225028550Y-200747255D01*
X225028550Y-200747255D02*
X225028550Y-200823445D01*
X225028550Y-200823445D02*
X224990455Y-200937731D01*
X224990455Y-200937731D02*
X224533312Y-201394874D01*
X224533312Y-201394874D02*
X225028550Y-201394874D01*
X232173174Y-196282377D02*
X232135078Y-196396663D01*
X232135078Y-196396663D02*
X232135078Y-196587139D01*
X232135078Y-196587139D02*
X232173174Y-196663330D01*
X232173174Y-196663330D02*
X232211269Y-196701425D01*
X232211269Y-196701425D02*
X232287459Y-196739520D01*
X232287459Y-196739520D02*
X232363650Y-196739520D01*
X232363650Y-196739520D02*
X232439840Y-196701425D01*
X232439840Y-196701425D02*
X232477935Y-196663330D01*
X232477935Y-196663330D02*
X232516031Y-196587139D01*
X232516031Y-196587139D02*
X232554126Y-196434758D01*
X232554126Y-196434758D02*
X232592221Y-196358568D01*
X232592221Y-196358568D02*
X232630316Y-196320473D01*
X232630316Y-196320473D02*
X232706507Y-196282377D01*
X232706507Y-196282377D02*
X232782697Y-196282377D01*
X232782697Y-196282377D02*
X232858888Y-196320473D01*
X232858888Y-196320473D02*
X232896983Y-196358568D01*
X232896983Y-196358568D02*
X232935078Y-196434758D01*
X232935078Y-196434758D02*
X232935078Y-196625235D01*
X232935078Y-196625235D02*
X232896983Y-196739520D01*
X232935078Y-197006187D02*
X232135078Y-197196663D01*
X232135078Y-197196663D02*
X232706507Y-197349044D01*
X232706507Y-197349044D02*
X232135078Y-197501425D01*
X232135078Y-197501425D02*
X232935078Y-197691902D01*
X232935078Y-198377616D02*
X232935078Y-197996664D01*
X232935078Y-197996664D02*
X232554126Y-197958568D01*
X232554126Y-197958568D02*
X232592221Y-197996664D01*
X232592221Y-197996664D02*
X232630316Y-198072854D01*
X232630316Y-198072854D02*
X232630316Y-198263330D01*
X232630316Y-198263330D02*
X232592221Y-198339521D01*
X232592221Y-198339521D02*
X232554126Y-198377616D01*
X232554126Y-198377616D02*
X232477935Y-198415711D01*
X232477935Y-198415711D02*
X232287459Y-198415711D01*
X232287459Y-198415711D02*
X232211269Y-198377616D01*
X232211269Y-198377616D02*
X232173174Y-198339521D01*
X232173174Y-198339521D02*
X232135078Y-198263330D01*
X232135078Y-198263330D02*
X232135078Y-198072854D01*
X232135078Y-198072854D02*
X232173174Y-197996664D01*
X232173174Y-197996664D02*
X232211269Y-197958568D01*
X232858888Y-198720473D02*
X232896983Y-198758569D01*
X232896983Y-198758569D02*
X232935078Y-198834759D01*
X232935078Y-198834759D02*
X232935078Y-199025235D01*
X232935078Y-199025235D02*
X232896983Y-199101426D01*
X232896983Y-199101426D02*
X232858888Y-199139521D01*
X232858888Y-199139521D02*
X232782697Y-199177616D01*
X232782697Y-199177616D02*
X232706507Y-199177616D01*
X232706507Y-199177616D02*
X232592221Y-199139521D01*
X232592221Y-199139521D02*
X232135078Y-198682378D01*
X232135078Y-198682378D02*
X232135078Y-199177616D01*
X164552353Y-189056810D02*
X164666639Y-189094905D01*
X164666639Y-189094905D02*
X164857115Y-189094905D01*
X164857115Y-189094905D02*
X164933306Y-189056810D01*
X164933306Y-189056810D02*
X164971401Y-189018714D01*
X164971401Y-189018714D02*
X165009496Y-188942524D01*
X165009496Y-188942524D02*
X165009496Y-188866333D01*
X165009496Y-188866333D02*
X164971401Y-188790143D01*
X164971401Y-188790143D02*
X164933306Y-188752048D01*
X164933306Y-188752048D02*
X164857115Y-188713952D01*
X164857115Y-188713952D02*
X164704734Y-188675857D01*
X164704734Y-188675857D02*
X164628544Y-188637762D01*
X164628544Y-188637762D02*
X164590449Y-188599667D01*
X164590449Y-188599667D02*
X164552353Y-188523476D01*
X164552353Y-188523476D02*
X164552353Y-188447286D01*
X164552353Y-188447286D02*
X164590449Y-188371095D01*
X164590449Y-188371095D02*
X164628544Y-188333000D01*
X164628544Y-188333000D02*
X164704734Y-188294905D01*
X164704734Y-188294905D02*
X164895211Y-188294905D01*
X164895211Y-188294905D02*
X165009496Y-188333000D01*
X165276163Y-188294905D02*
X165466639Y-189094905D01*
X165466639Y-189094905D02*
X165619020Y-188523476D01*
X165619020Y-188523476D02*
X165771401Y-189094905D01*
X165771401Y-189094905D02*
X165961878Y-188294905D01*
X166609497Y-188294905D02*
X166457116Y-188294905D01*
X166457116Y-188294905D02*
X166380925Y-188333000D01*
X166380925Y-188333000D02*
X166342830Y-188371095D01*
X166342830Y-188371095D02*
X166266640Y-188485381D01*
X166266640Y-188485381D02*
X166228544Y-188637762D01*
X166228544Y-188637762D02*
X166228544Y-188942524D01*
X166228544Y-188942524D02*
X166266640Y-189018714D01*
X166266640Y-189018714D02*
X166304735Y-189056810D01*
X166304735Y-189056810D02*
X166380925Y-189094905D01*
X166380925Y-189094905D02*
X166533306Y-189094905D01*
X166533306Y-189094905D02*
X166609497Y-189056810D01*
X166609497Y-189056810D02*
X166647592Y-189018714D01*
X166647592Y-189018714D02*
X166685687Y-188942524D01*
X166685687Y-188942524D02*
X166685687Y-188752048D01*
X166685687Y-188752048D02*
X166647592Y-188675857D01*
X166647592Y-188675857D02*
X166609497Y-188637762D01*
X166609497Y-188637762D02*
X166533306Y-188599667D01*
X166533306Y-188599667D02*
X166380925Y-188599667D01*
X166380925Y-188599667D02*
X166304735Y-188637762D01*
X166304735Y-188637762D02*
X166266640Y-188675857D01*
X166266640Y-188675857D02*
X166228544Y-188752048D01*
X167371402Y-188294905D02*
X167219021Y-188294905D01*
X167219021Y-188294905D02*
X167142830Y-188333000D01*
X167142830Y-188333000D02*
X167104735Y-188371095D01*
X167104735Y-188371095D02*
X167028545Y-188485381D01*
X167028545Y-188485381D02*
X166990449Y-188637762D01*
X166990449Y-188637762D02*
X166990449Y-188942524D01*
X166990449Y-188942524D02*
X167028545Y-189018714D01*
X167028545Y-189018714D02*
X167066640Y-189056810D01*
X167066640Y-189056810D02*
X167142830Y-189094905D01*
X167142830Y-189094905D02*
X167295211Y-189094905D01*
X167295211Y-189094905D02*
X167371402Y-189056810D01*
X167371402Y-189056810D02*
X167409497Y-189018714D01*
X167409497Y-189018714D02*
X167447592Y-188942524D01*
X167447592Y-188942524D02*
X167447592Y-188752048D01*
X167447592Y-188752048D02*
X167409497Y-188675857D01*
X167409497Y-188675857D02*
X167371402Y-188637762D01*
X167371402Y-188637762D02*
X167295211Y-188599667D01*
X167295211Y-188599667D02*
X167142830Y-188599667D01*
X167142830Y-188599667D02*
X167066640Y-188637762D01*
X167066640Y-188637762D02*
X167028545Y-188675857D01*
X167028545Y-188675857D02*
X166990449Y-188752048D01*
X177733333Y-65164895D02*
X177733333Y-65736323D01*
X177733333Y-65736323D02*
X177695238Y-65850609D01*
X177695238Y-65850609D02*
X177619047Y-65926800D01*
X177619047Y-65926800D02*
X177504762Y-65964895D01*
X177504762Y-65964895D02*
X177428571Y-65964895D01*
X178038095Y-65164895D02*
X178533333Y-65164895D01*
X178533333Y-65164895D02*
X178266667Y-65469657D01*
X178266667Y-65469657D02*
X178380952Y-65469657D01*
X178380952Y-65469657D02*
X178457143Y-65507752D01*
X178457143Y-65507752D02*
X178495238Y-65545847D01*
X178495238Y-65545847D02*
X178533333Y-65622038D01*
X178533333Y-65622038D02*
X178533333Y-65812514D01*
X178533333Y-65812514D02*
X178495238Y-65888704D01*
X178495238Y-65888704D02*
X178457143Y-65926800D01*
X178457143Y-65926800D02*
X178380952Y-65964895D01*
X178380952Y-65964895D02*
X178152381Y-65964895D01*
X178152381Y-65964895D02*
X178076190Y-65926800D01*
X178076190Y-65926800D02*
X178038095Y-65888704D01*
D11*
X169514286Y-75407200D02*
X169657143Y-75454819D01*
X169657143Y-75454819D02*
X169895238Y-75454819D01*
X169895238Y-75454819D02*
X169990476Y-75407200D01*
X169990476Y-75407200D02*
X170038095Y-75359580D01*
X170038095Y-75359580D02*
X170085714Y-75264342D01*
X170085714Y-75264342D02*
X170085714Y-75169104D01*
X170085714Y-75169104D02*
X170038095Y-75073866D01*
X170038095Y-75073866D02*
X169990476Y-75026247D01*
X169990476Y-75026247D02*
X169895238Y-74978628D01*
X169895238Y-74978628D02*
X169704762Y-74931009D01*
X169704762Y-74931009D02*
X169609524Y-74883390D01*
X169609524Y-74883390D02*
X169561905Y-74835771D01*
X169561905Y-74835771D02*
X169514286Y-74740533D01*
X169514286Y-74740533D02*
X169514286Y-74645295D01*
X169514286Y-74645295D02*
X169561905Y-74550057D01*
X169561905Y-74550057D02*
X169609524Y-74502438D01*
X169609524Y-74502438D02*
X169704762Y-74454819D01*
X169704762Y-74454819D02*
X169942857Y-74454819D01*
X169942857Y-74454819D02*
X170085714Y-74502438D01*
X171085714Y-75359580D02*
X171038095Y-75407200D01*
X171038095Y-75407200D02*
X170895238Y-75454819D01*
X170895238Y-75454819D02*
X170800000Y-75454819D01*
X170800000Y-75454819D02*
X170657143Y-75407200D01*
X170657143Y-75407200D02*
X170561905Y-75311961D01*
X170561905Y-75311961D02*
X170514286Y-75216723D01*
X170514286Y-75216723D02*
X170466667Y-75026247D01*
X170466667Y-75026247D02*
X170466667Y-74883390D01*
X170466667Y-74883390D02*
X170514286Y-74692914D01*
X170514286Y-74692914D02*
X170561905Y-74597676D01*
X170561905Y-74597676D02*
X170657143Y-74502438D01*
X170657143Y-74502438D02*
X170800000Y-74454819D01*
X170800000Y-74454819D02*
X170895238Y-74454819D01*
X170895238Y-74454819D02*
X171038095Y-74502438D01*
X171038095Y-74502438D02*
X171085714Y-74550057D01*
X171514286Y-75454819D02*
X171514286Y-74454819D01*
X172085714Y-75454819D02*
X171657143Y-74883390D01*
X172085714Y-74454819D02*
X171514286Y-75026247D01*
X170252380Y-81354819D02*
X169919047Y-80878628D01*
X169680952Y-81354819D02*
X169680952Y-80354819D01*
X169680952Y-80354819D02*
X170061904Y-80354819D01*
X170061904Y-80354819D02*
X170157142Y-80402438D01*
X170157142Y-80402438D02*
X170204761Y-80450057D01*
X170204761Y-80450057D02*
X170252380Y-80545295D01*
X170252380Y-80545295D02*
X170252380Y-80688152D01*
X170252380Y-80688152D02*
X170204761Y-80783390D01*
X170204761Y-80783390D02*
X170157142Y-80831009D01*
X170157142Y-80831009D02*
X170061904Y-80878628D01*
X170061904Y-80878628D02*
X169680952Y-80878628D01*
X170633333Y-81307200D02*
X170776190Y-81354819D01*
X170776190Y-81354819D02*
X171014285Y-81354819D01*
X171014285Y-81354819D02*
X171109523Y-81307200D01*
X171109523Y-81307200D02*
X171157142Y-81259580D01*
X171157142Y-81259580D02*
X171204761Y-81164342D01*
X171204761Y-81164342D02*
X171204761Y-81069104D01*
X171204761Y-81069104D02*
X171157142Y-80973866D01*
X171157142Y-80973866D02*
X171109523Y-80926247D01*
X171109523Y-80926247D02*
X171014285Y-80878628D01*
X171014285Y-80878628D02*
X170823809Y-80831009D01*
X170823809Y-80831009D02*
X170728571Y-80783390D01*
X170728571Y-80783390D02*
X170680952Y-80735771D01*
X170680952Y-80735771D02*
X170633333Y-80640533D01*
X170633333Y-80640533D02*
X170633333Y-80545295D01*
X170633333Y-80545295D02*
X170680952Y-80450057D01*
X170680952Y-80450057D02*
X170728571Y-80402438D01*
X170728571Y-80402438D02*
X170823809Y-80354819D01*
X170823809Y-80354819D02*
X171061904Y-80354819D01*
X171061904Y-80354819D02*
X171204761Y-80402438D01*
X171490476Y-80354819D02*
X172061904Y-80354819D01*
X171776190Y-81354819D02*
X171776190Y-80354819D01*
X170038095Y-79354819D02*
X170038095Y-78354819D01*
X170038095Y-78354819D02*
X170276190Y-78354819D01*
X170276190Y-78354819D02*
X170419047Y-78402438D01*
X170419047Y-78402438D02*
X170514285Y-78497676D01*
X170514285Y-78497676D02*
X170561904Y-78592914D01*
X170561904Y-78592914D02*
X170609523Y-78783390D01*
X170609523Y-78783390D02*
X170609523Y-78926247D01*
X170609523Y-78926247D02*
X170561904Y-79116723D01*
X170561904Y-79116723D02*
X170514285Y-79211961D01*
X170514285Y-79211961D02*
X170419047Y-79307200D01*
X170419047Y-79307200D02*
X170276190Y-79354819D01*
X170276190Y-79354819D02*
X170038095Y-79354819D01*
X171609523Y-79259580D02*
X171561904Y-79307200D01*
X171561904Y-79307200D02*
X171419047Y-79354819D01*
X171419047Y-79354819D02*
X171323809Y-79354819D01*
X171323809Y-79354819D02*
X171180952Y-79307200D01*
X171180952Y-79307200D02*
X171085714Y-79211961D01*
X171085714Y-79211961D02*
X171038095Y-79116723D01*
X171038095Y-79116723D02*
X170990476Y-78926247D01*
X170990476Y-78926247D02*
X170990476Y-78783390D01*
X170990476Y-78783390D02*
X171038095Y-78592914D01*
X171038095Y-78592914D02*
X171085714Y-78497676D01*
X171085714Y-78497676D02*
X171180952Y-78402438D01*
X171180952Y-78402438D02*
X171323809Y-78354819D01*
X171323809Y-78354819D02*
X171419047Y-78354819D01*
X171419047Y-78354819D02*
X171561904Y-78402438D01*
X171561904Y-78402438D02*
X171609523Y-78450057D01*
X169228572Y-73454819D02*
X169228572Y-72454819D01*
X169228572Y-72454819D02*
X169561905Y-73169104D01*
X169561905Y-73169104D02*
X169895238Y-72454819D01*
X169895238Y-72454819D02*
X169895238Y-73454819D01*
X170561905Y-72454819D02*
X170752381Y-72454819D01*
X170752381Y-72454819D02*
X170847619Y-72502438D01*
X170847619Y-72502438D02*
X170942857Y-72597676D01*
X170942857Y-72597676D02*
X170990476Y-72788152D01*
X170990476Y-72788152D02*
X170990476Y-73121485D01*
X170990476Y-73121485D02*
X170942857Y-73311961D01*
X170942857Y-73311961D02*
X170847619Y-73407200D01*
X170847619Y-73407200D02*
X170752381Y-73454819D01*
X170752381Y-73454819D02*
X170561905Y-73454819D01*
X170561905Y-73454819D02*
X170466667Y-73407200D01*
X170466667Y-73407200D02*
X170371429Y-73311961D01*
X170371429Y-73311961D02*
X170323810Y-73121485D01*
X170323810Y-73121485D02*
X170323810Y-72788152D01*
X170323810Y-72788152D02*
X170371429Y-72597676D01*
X170371429Y-72597676D02*
X170466667Y-72502438D01*
X170466667Y-72502438D02*
X170561905Y-72454819D01*
X171371429Y-73407200D02*
X171514286Y-73454819D01*
X171514286Y-73454819D02*
X171752381Y-73454819D01*
X171752381Y-73454819D02*
X171847619Y-73407200D01*
X171847619Y-73407200D02*
X171895238Y-73359580D01*
X171895238Y-73359580D02*
X171942857Y-73264342D01*
X171942857Y-73264342D02*
X171942857Y-73169104D01*
X171942857Y-73169104D02*
X171895238Y-73073866D01*
X171895238Y-73073866D02*
X171847619Y-73026247D01*
X171847619Y-73026247D02*
X171752381Y-72978628D01*
X171752381Y-72978628D02*
X171561905Y-72931009D01*
X171561905Y-72931009D02*
X171466667Y-72883390D01*
X171466667Y-72883390D02*
X171419048Y-72835771D01*
X171419048Y-72835771D02*
X171371429Y-72740533D01*
X171371429Y-72740533D02*
X171371429Y-72645295D01*
X171371429Y-72645295D02*
X171419048Y-72550057D01*
X171419048Y-72550057D02*
X171466667Y-72502438D01*
X171466667Y-72502438D02*
X171561905Y-72454819D01*
X171561905Y-72454819D02*
X171800000Y-72454819D01*
X171800000Y-72454819D02*
X171942857Y-72502438D01*
X172371429Y-73454819D02*
X172371429Y-72454819D01*
X170038095Y-70502438D02*
X169942857Y-70454819D01*
X169942857Y-70454819D02*
X169800000Y-70454819D01*
X169800000Y-70454819D02*
X169657143Y-70502438D01*
X169657143Y-70502438D02*
X169561905Y-70597676D01*
X169561905Y-70597676D02*
X169514286Y-70692914D01*
X169514286Y-70692914D02*
X169466667Y-70883390D01*
X169466667Y-70883390D02*
X169466667Y-71026247D01*
X169466667Y-71026247D02*
X169514286Y-71216723D01*
X169514286Y-71216723D02*
X169561905Y-71311961D01*
X169561905Y-71311961D02*
X169657143Y-71407200D01*
X169657143Y-71407200D02*
X169800000Y-71454819D01*
X169800000Y-71454819D02*
X169895238Y-71454819D01*
X169895238Y-71454819D02*
X170038095Y-71407200D01*
X170038095Y-71407200D02*
X170085714Y-71359580D01*
X170085714Y-71359580D02*
X170085714Y-71026247D01*
X170085714Y-71026247D02*
X169895238Y-71026247D01*
X170514286Y-71454819D02*
X170514286Y-70454819D01*
X170514286Y-70454819D02*
X171085714Y-71454819D01*
X171085714Y-71454819D02*
X171085714Y-70454819D01*
X171561905Y-71454819D02*
X171561905Y-70454819D01*
X171561905Y-70454819D02*
X171800000Y-70454819D01*
X171800000Y-70454819D02*
X171942857Y-70502438D01*
X171942857Y-70502438D02*
X172038095Y-70597676D01*
X172038095Y-70597676D02*
X172085714Y-70692914D01*
X172085714Y-70692914D02*
X172133333Y-70883390D01*
X172133333Y-70883390D02*
X172133333Y-71026247D01*
X172133333Y-71026247D02*
X172085714Y-71216723D01*
X172085714Y-71216723D02*
X172038095Y-71311961D01*
X172038095Y-71311961D02*
X171942857Y-71407200D01*
X171942857Y-71407200D02*
X171800000Y-71454819D01*
X171800000Y-71454819D02*
X171561905Y-71454819D01*
X169514286Y-69073866D02*
X170276191Y-69073866D01*
X169895238Y-69454819D02*
X169895238Y-68692914D01*
X171228571Y-68454819D02*
X170752381Y-68454819D01*
X170752381Y-68454819D02*
X170704762Y-68931009D01*
X170704762Y-68931009D02*
X170752381Y-68883390D01*
X170752381Y-68883390D02*
X170847619Y-68835771D01*
X170847619Y-68835771D02*
X171085714Y-68835771D01*
X171085714Y-68835771D02*
X171180952Y-68883390D01*
X171180952Y-68883390D02*
X171228571Y-68931009D01*
X171228571Y-68931009D02*
X171276190Y-69026247D01*
X171276190Y-69026247D02*
X171276190Y-69264342D01*
X171276190Y-69264342D02*
X171228571Y-69359580D01*
X171228571Y-69359580D02*
X171180952Y-69407200D01*
X171180952Y-69407200D02*
X171085714Y-69454819D01*
X171085714Y-69454819D02*
X170847619Y-69454819D01*
X170847619Y-69454819D02*
X170752381Y-69407200D01*
X170752381Y-69407200D02*
X170704762Y-69359580D01*
X171561905Y-68454819D02*
X171895238Y-69454819D01*
X171895238Y-69454819D02*
X172228571Y-68454819D01*
X170633333Y-77259580D02*
X170585714Y-77307200D01*
X170585714Y-77307200D02*
X170442857Y-77354819D01*
X170442857Y-77354819D02*
X170347619Y-77354819D01*
X170347619Y-77354819D02*
X170204762Y-77307200D01*
X170204762Y-77307200D02*
X170109524Y-77211961D01*
X170109524Y-77211961D02*
X170061905Y-77116723D01*
X170061905Y-77116723D02*
X170014286Y-76926247D01*
X170014286Y-76926247D02*
X170014286Y-76783390D01*
X170014286Y-76783390D02*
X170061905Y-76592914D01*
X170061905Y-76592914D02*
X170109524Y-76497676D01*
X170109524Y-76497676D02*
X170204762Y-76402438D01*
X170204762Y-76402438D02*
X170347619Y-76354819D01*
X170347619Y-76354819D02*
X170442857Y-76354819D01*
X170442857Y-76354819D02*
X170585714Y-76402438D01*
X170585714Y-76402438D02*
X170633333Y-76450057D01*
X171014286Y-77307200D02*
X171157143Y-77354819D01*
X171157143Y-77354819D02*
X171395238Y-77354819D01*
X171395238Y-77354819D02*
X171490476Y-77307200D01*
X171490476Y-77307200D02*
X171538095Y-77259580D01*
X171538095Y-77259580D02*
X171585714Y-77164342D01*
X171585714Y-77164342D02*
X171585714Y-77069104D01*
X171585714Y-77069104D02*
X171538095Y-76973866D01*
X171538095Y-76973866D02*
X171490476Y-76926247D01*
X171490476Y-76926247D02*
X171395238Y-76878628D01*
X171395238Y-76878628D02*
X171204762Y-76831009D01*
X171204762Y-76831009D02*
X171109524Y-76783390D01*
X171109524Y-76783390D02*
X171061905Y-76735771D01*
X171061905Y-76735771D02*
X171014286Y-76640533D01*
X171014286Y-76640533D02*
X171014286Y-76545295D01*
X171014286Y-76545295D02*
X171061905Y-76450057D01*
X171061905Y-76450057D02*
X171109524Y-76402438D01*
X171109524Y-76402438D02*
X171204762Y-76354819D01*
X171204762Y-76354819D02*
X171442857Y-76354819D01*
X171442857Y-76354819D02*
X171585714Y-76402438D01*
D13*
X173333333Y-65564895D02*
X173333333Y-66136323D01*
X173333333Y-66136323D02*
X173295238Y-66250609D01*
X173295238Y-66250609D02*
X173219047Y-66326800D01*
X173219047Y-66326800D02*
X173104762Y-66364895D01*
X173104762Y-66364895D02*
X173028571Y-66364895D01*
X174057143Y-65831561D02*
X174057143Y-66364895D01*
X173866667Y-65526800D02*
X173676190Y-66098228D01*
X173676190Y-66098228D02*
X174171429Y-66098228D01*
D10*
%TO.C,SW52*%
X228899974Y-192829997D02*
X229399974Y-192829997D01*
X228899974Y-193729997D02*
X228899974Y-192829997D01*
X231799974Y-194729997D02*
X231799974Y-200729997D01*
X229399974Y-202629997D02*
X228899974Y-202629997D01*
X228899974Y-202629997D02*
X228899974Y-201729997D01*
%TO.C,SW67*%
X169229979Y-198779980D02*
X169229979Y-196779980D01*
X168499979Y-201009980D02*
X163499979Y-201009980D01*
X168499979Y-194549980D02*
X163499979Y-194549980D01*
X162769979Y-198779980D02*
X162769979Y-196779980D01*
D14*
%TO.C,SW66*%
X163099973Y-202209998D02*
X163099973Y-189409998D01*
X168899973Y-202209998D02*
X163099973Y-202209998D01*
X163099973Y-189409998D02*
X168899973Y-189409998D01*
X168899973Y-189409998D02*
X168899973Y-202209998D01*
D15*
X166099973Y-202809998D02*
G75*
G03*
X166099973Y-202809998I-100000J0D01*
G01*
D10*
%TO.C,J3*%
X175750000Y-56450000D02*
X175750000Y-66350000D01*
X175750000Y-83550000D02*
X175750000Y-93450000D01*
X175750000Y-93450000D02*
X220250000Y-93450000D01*
X220250000Y-56450000D02*
X175750000Y-56450000D01*
X220250000Y-93450000D02*
X220250000Y-56450000D01*
%TO.C,J4*%
X172090000Y-83010000D02*
X179910000Y-83010000D01*
X173690000Y-83010000D02*
X173690000Y-82090000D01*
X179910000Y-83010000D02*
X179910000Y-66890000D01*
X176050000Y-82250000D02*
X177650000Y-82250000D01*
X177650000Y-82250000D02*
X177650000Y-81250000D01*
X172090000Y-82090000D02*
X172090000Y-83010000D01*
X173690000Y-82090000D02*
X172090000Y-82090000D01*
X173690000Y-81810000D02*
X173690000Y-82090000D01*
X173690000Y-81810000D02*
X172475000Y-81810000D01*
X177650000Y-81750000D02*
X179910000Y-81750000D01*
X176050000Y-81250000D02*
X176050000Y-82250000D01*
X177650000Y-81250000D02*
X176050000Y-81250000D01*
X177650000Y-81250000D02*
X179910000Y-81250000D01*
X175550000Y-80450000D02*
X175550000Y-69450000D01*
X179910000Y-80450000D02*
X175550000Y-80450000D01*
X175550000Y-69450000D02*
X179910000Y-69450000D01*
X176050000Y-68650000D02*
X176050000Y-67650000D01*
X177650000Y-68650000D02*
X176050000Y-68650000D01*
X172090000Y-67810000D02*
X173690000Y-67810000D01*
X173690000Y-67810000D02*
X173690000Y-68090000D01*
X176050000Y-67650000D02*
X177650000Y-67650000D01*
X177650000Y-67650000D02*
X177650000Y-68650000D01*
X172090000Y-66890000D02*
X172090000Y-67810000D01*
X173690000Y-66890000D02*
X173690000Y-67810000D01*
X179910000Y-66890000D02*
X172090000Y-66890000D01*
%TO.C,SW57*%
X131884366Y-156204349D02*
X144008722Y-163204349D01*
X144008722Y-163204349D02*
X137008722Y-175328705D01*
X137008722Y-175328705D02*
X124884366Y-168328705D01*
X124884366Y-168328705D02*
X131884366Y-156204349D01*
%TO.C,SW58*%
X151403329Y-168878415D02*
X161302824Y-178777910D01*
X161302824Y-178777910D02*
X151403329Y-188677405D01*
X151403329Y-188677405D02*
X141503834Y-178777910D01*
X141503834Y-178777910D02*
X151403329Y-168878415D01*
%TO.C,SW1*%
X61386018Y-59632047D02*
X74908979Y-63255514D01*
X74908979Y-63255514D02*
X71285512Y-76778475D01*
X71285512Y-76778475D02*
X57762551Y-73155008D01*
X57762551Y-73155008D02*
X61386018Y-59632047D01*
%TO.C,SW41*%
X122046994Y-127656391D02*
X135569955Y-131279858D01*
X135569955Y-131279858D02*
X131946488Y-144802819D01*
X131946488Y-144802819D02*
X118423527Y-141179352D01*
X118423527Y-141179352D02*
X122046994Y-127656391D01*
%TO.C,SW42*%
X139626117Y-135653736D02*
X153149078Y-139277203D01*
X153149078Y-139277203D02*
X149525611Y-152800164D01*
X149525611Y-152800164D02*
X136002650Y-149176697D01*
X136002650Y-149176697D02*
X139626117Y-135653736D01*
%TO.C,SW39*%
X85245214Y-117795402D02*
X98768175Y-121418869D01*
X98768175Y-121418869D02*
X95144708Y-134941830D01*
X95144708Y-134941830D02*
X81621747Y-131318363D01*
X81621747Y-131318363D02*
X85245214Y-117795402D01*
%TO.C,SW40*%
X104673290Y-118892363D02*
X118196251Y-122515830D01*
X118196251Y-122515830D02*
X114572784Y-136038791D01*
X114572784Y-136038791D02*
X101049823Y-132415324D01*
X101049823Y-132415324D02*
X104673290Y-118892363D01*
%TO.C,SW53*%
X41664001Y-133235606D02*
X55186962Y-136859073D01*
X55186962Y-136859073D02*
X51563495Y-150382034D01*
X51563495Y-150382034D02*
X38040534Y-146758567D01*
X38040534Y-146758567D02*
X41664001Y-133235606D01*
%TO.C,SW17*%
X131907983Y-90854613D02*
X145430944Y-94478080D01*
X145430944Y-94478080D02*
X141807477Y-108001041D01*
X141807477Y-108001041D02*
X128284516Y-104377574D01*
X128284516Y-104377574D02*
X131907983Y-90854613D01*
%TO.C,SW18*%
X149487129Y-98851953D02*
X163010090Y-102475420D01*
X163010090Y-102475420D02*
X159386623Y-115998381D01*
X159386623Y-115998381D02*
X145863662Y-112374914D01*
X145863662Y-112374914D02*
X149487129Y-98851953D01*
%TO.C,SW25*%
X51524989Y-96433839D02*
X65047950Y-100057306D01*
X65047950Y-100057306D02*
X61424483Y-113580267D01*
X61424483Y-113580267D02*
X47901522Y-109956800D01*
X47901522Y-109956800D02*
X51524989Y-96433839D01*
%TO.C,SW26*%
X70542203Y-99064205D02*
X84065164Y-102687672D01*
X84065164Y-102687672D02*
X80441697Y-116210633D01*
X80441697Y-116210633D02*
X66918736Y-112587166D01*
X66918736Y-112587166D02*
X70542203Y-99064205D01*
%TO.C,SW27*%
X90175716Y-99394498D02*
X103698677Y-103017965D01*
X103698677Y-103017965D02*
X100075210Y-116540926D01*
X100075210Y-116540926D02*
X86552249Y-112917459D01*
X86552249Y-112917459D02*
X90175716Y-99394498D01*
%TO.C,SW29*%
X126977499Y-109255531D02*
X140500460Y-112878998D01*
X140500460Y-112878998D02*
X136876993Y-126401959D01*
X136876993Y-126401959D02*
X123354032Y-122778492D01*
X123354032Y-122778492D02*
X126977499Y-109255531D01*
%TO.C,SW28*%
X109603766Y-100491483D02*
X123126727Y-104114950D01*
X123126727Y-104114950D02*
X119503260Y-117637911D01*
X119503260Y-117637911D02*
X105980299Y-114014444D01*
X105980299Y-114014444D02*
X109603766Y-100491483D01*
%TO.C,SW30*%
X144556615Y-117252832D02*
X158079576Y-120876299D01*
X158079576Y-120876299D02*
X154456109Y-134399260D01*
X154456109Y-134399260D02*
X140933148Y-130775793D01*
X140933148Y-130775793D02*
X144556615Y-117252832D01*
%TO.C,SW37*%
X46594509Y-114834734D02*
X60117470Y-118458201D01*
X60117470Y-118458201D02*
X56494003Y-131981162D01*
X56494003Y-131981162D02*
X42971042Y-128357695D01*
X42971042Y-128357695D02*
X46594509Y-114834734D01*
%TO.C,SW38*%
X65611686Y-117465114D02*
X79134647Y-121088581D01*
X79134647Y-121088581D02*
X75511180Y-134611542D01*
X75511180Y-134611542D02*
X61988219Y-130988075D01*
X61988219Y-130988075D02*
X65611686Y-117465114D01*
%TO.C,SW54*%
X60681196Y-135866003D02*
X74204157Y-139489470D01*
X74204157Y-139489470D02*
X70580690Y-153012431D01*
X70580690Y-153012431D02*
X57057729Y-149388964D01*
X57057729Y-149388964D02*
X60681196Y-135866003D01*
%TO.C,SW55*%
X80314704Y-136196265D02*
X93837665Y-139819732D01*
X93837665Y-139819732D02*
X90214198Y-153342693D01*
X90214198Y-153342693D02*
X76691237Y-149719226D01*
X76691237Y-149719226D02*
X80314704Y-136196265D01*
%TO.C,SW56*%
X109750211Y-149013999D02*
X123273172Y-152637466D01*
X123273172Y-152637466D02*
X119649705Y-166160427D01*
X119649705Y-166160427D02*
X106126744Y-162536960D01*
X106126744Y-162536960D02*
X109750211Y-149013999D01*
%TO.C,SW3*%
X100036718Y-62592751D02*
X113559679Y-66216218D01*
X113559679Y-66216218D02*
X109936212Y-79739179D01*
X109936212Y-79739179D02*
X96413251Y-76115712D01*
X96413251Y-76115712D02*
X100036718Y-62592751D01*
%TO.C,SW13*%
X56455511Y-78032951D02*
X69978472Y-81656418D01*
X69978472Y-81656418D02*
X66355005Y-95179379D01*
X66355005Y-95179379D02*
X52832044Y-91555912D01*
X52832044Y-91555912D02*
X56455511Y-78032951D01*
%TO.C,SW15*%
X95106211Y-80993608D02*
X108629172Y-84617075D01*
X108629172Y-84617075D02*
X105005705Y-98140036D01*
X105005705Y-98140036D02*
X91482744Y-94516569D01*
X91482744Y-94516569D02*
X95106211Y-80993608D01*
%TO.C,SW5*%
X136838492Y-72453725D02*
X150361453Y-76077192D01*
X150361453Y-76077192D02*
X146737986Y-89600153D01*
X146737986Y-89600153D02*
X133215025Y-85976686D01*
X133215025Y-85976686D02*
X136838492Y-72453725D01*
%TO.C,SW16*%
X114534287Y-82090618D02*
X128057248Y-85714085D01*
X128057248Y-85714085D02*
X124433781Y-99237046D01*
X124433781Y-99237046D02*
X110910820Y-95613579D01*
X110910820Y-95613579D02*
X114534287Y-82090618D01*
%TO.C,SW4*%
X119464791Y-63689704D02*
X132987752Y-67313171D01*
X132987752Y-67313171D02*
X129364285Y-80836132D01*
X129364285Y-80836132D02*
X115841324Y-77212665D01*
X115841324Y-77212665D02*
X119464791Y-63689704D01*
%TO.C,SW2*%
X80403208Y-62262451D02*
X93926169Y-65885918D01*
X93926169Y-65885918D02*
X90302702Y-79408879D01*
X90302702Y-79408879D02*
X76779741Y-75785412D01*
X76779741Y-75785412D02*
X80403208Y-62262451D01*
%TO.C,SW14*%
X75472702Y-80663341D02*
X88995663Y-84286808D01*
X88995663Y-84286808D02*
X85372196Y-97809769D01*
X85372196Y-97809769D02*
X71849235Y-94186302D01*
X71849235Y-94186302D02*
X75472702Y-80663341D01*
%TO.C,SW6*%
X154417625Y-80451059D02*
X167940586Y-84074526D01*
X167940586Y-84074526D02*
X164317119Y-97597487D01*
X164317119Y-97597487D02*
X150794158Y-93974020D01*
X150794158Y-93974020D02*
X154417625Y-80451059D01*
%TO.C,SW7*%
X228059388Y-84074538D02*
X241582349Y-80451071D01*
X241582349Y-80451071D02*
X245205816Y-93974032D01*
X245205816Y-93974032D02*
X231682855Y-97597499D01*
X231682855Y-97597499D02*
X228059388Y-84074538D01*
%TO.C,SW44*%
X190999975Y-171730005D02*
X204999975Y-171730005D01*
X204999975Y-171730005D02*
X204999975Y-185730005D01*
X204999975Y-185730005D02*
X190999975Y-185730005D01*
X190999975Y-185730005D02*
X190999975Y-171730005D01*
%TO.C,SW62*%
X272726788Y-152637470D02*
X286249749Y-149014003D01*
X286249749Y-149014003D02*
X289873216Y-162536964D01*
X289873216Y-162536964D02*
X276350255Y-166160431D01*
X276350255Y-166160431D02*
X272726788Y-152637470D01*
%TO.C,SW49*%
X297231802Y-121418885D02*
X310754763Y-117795418D01*
X310754763Y-117795418D02*
X314378230Y-131318379D01*
X314378230Y-131318379D02*
X300855269Y-134941846D01*
X300855269Y-134941846D02*
X297231802Y-121418885D01*
%TO.C,SW22*%
X287370800Y-84617100D02*
X300893761Y-80993633D01*
X300893761Y-80993633D02*
X304517228Y-94516594D01*
X304517228Y-94516594D02*
X290994267Y-98140061D01*
X290994267Y-98140061D02*
X287370800Y-84617100D01*
%TO.C,SW45*%
X210974184Y-170129229D02*
X223098540Y-163129229D01*
X223098540Y-163129229D02*
X230098540Y-175253585D01*
X230098540Y-175253585D02*
X217974184Y-182253585D01*
X217974184Y-182253585D02*
X210974184Y-170129229D01*
%TO.C,SW43*%
X172901404Y-163129232D02*
X185025760Y-170129232D01*
X185025760Y-170129232D02*
X178025760Y-182253588D01*
X178025760Y-182253588D02*
X165901404Y-175253588D01*
X165901404Y-175253588D02*
X172901404Y-163129232D01*
%TO.C,SW31*%
X237920382Y-120876295D02*
X251443343Y-117252828D01*
X251443343Y-117252828D02*
X255066810Y-130775789D01*
X255066810Y-130775789D02*
X241543849Y-134399256D01*
X241543849Y-134399256D02*
X237920382Y-120876295D01*
%TO.C,SW51*%
X335882502Y-118458194D02*
X349405463Y-114834727D01*
X349405463Y-114834727D02*
X353028930Y-128357688D01*
X353028930Y-128357688D02*
X339505969Y-131981155D01*
X339505969Y-131981155D02*
X335882502Y-118458194D01*
%TO.C,SW32*%
X255499533Y-112878991D02*
X269022494Y-109255524D01*
X269022494Y-109255524D02*
X272645961Y-122778485D01*
X272645961Y-122778485D02*
X259123000Y-126401952D01*
X259123000Y-126401952D02*
X255499533Y-112878991D01*
%TO.C,SW63*%
X302162299Y-139819760D02*
X315685260Y-136196293D01*
X315685260Y-136196293D02*
X319308727Y-149719254D01*
X319308727Y-149719254D02*
X305785766Y-153342721D01*
X305785766Y-153342721D02*
X302162299Y-139819760D01*
%TO.C,SW36*%
X330951997Y-100057292D02*
X344474958Y-96433825D01*
X344474958Y-96433825D02*
X348098425Y-109956786D01*
X348098425Y-109956786D02*
X334575464Y-113580253D01*
X334575464Y-113580253D02*
X330951997Y-100057292D01*
%TO.C,SW33*%
X272873207Y-104114954D02*
X286396168Y-100491487D01*
X286396168Y-100491487D02*
X290019635Y-114014448D01*
X290019635Y-114014448D02*
X276496674Y-117637915D01*
X276496674Y-117637915D02*
X272873207Y-104114954D01*
%TO.C,SW24*%
X326021492Y-81656409D02*
X339544453Y-78032942D01*
X339544453Y-78032942D02*
X343167920Y-91555903D01*
X343167920Y-91555903D02*
X329644959Y-95179370D01*
X329644959Y-95179370D02*
X326021492Y-81656409D01*
%TO.C,SW23*%
X307004312Y-84286804D02*
X320527273Y-80663337D01*
X320527273Y-80663337D02*
X324150740Y-94186298D01*
X324150740Y-94186298D02*
X310627779Y-97809765D01*
X310627779Y-97809765D02*
X307004312Y-84286804D01*
%TO.C,SW48*%
X277803727Y-122515828D02*
X291326688Y-118892361D01*
X291326688Y-118892361D02*
X294950155Y-132415322D01*
X294950155Y-132415322D02*
X281427194Y-136038789D01*
X281427194Y-136038789D02*
X277803727Y-122515828D01*
%TO.C,SW9*%
X263012217Y-67313182D02*
X276535178Y-63689715D01*
X276535178Y-63689715D02*
X280158645Y-77212676D01*
X280158645Y-77212676D02*
X266635684Y-80836143D01*
X266635684Y-80836143D02*
X263012217Y-67313182D01*
%TO.C,SW61*%
X251991233Y-163204334D02*
X264115589Y-156204334D01*
X264115589Y-156204334D02*
X271115589Y-168328690D01*
X271115589Y-168328690D02*
X258991233Y-175328690D01*
X258991233Y-175328690D02*
X251991233Y-163204334D01*
%TO.C,SW10*%
X282440282Y-66216222D02*
X295963243Y-62592755D01*
X295963243Y-62592755D02*
X299586710Y-76115716D01*
X299586710Y-76115716D02*
X286063749Y-79739183D01*
X286063749Y-79739183D02*
X282440282Y-66216222D01*
%TO.C,SW11*%
X302073804Y-65885932D02*
X315596765Y-62262465D01*
X315596765Y-62262465D02*
X319220232Y-75785426D01*
X319220232Y-75785426D02*
X305697271Y-79408893D01*
X305697271Y-79408893D02*
X302073804Y-65885932D01*
%TO.C,SW65*%
X340813004Y-136859073D02*
X354335965Y-133235606D01*
X354335965Y-133235606D02*
X357959432Y-146758567D01*
X357959432Y-146758567D02*
X344436471Y-150382034D01*
X344436471Y-150382034D02*
X340813004Y-136859073D01*
%TO.C,SW20*%
X250569038Y-94478110D02*
X264091999Y-90854643D01*
X264091999Y-90854643D02*
X267715466Y-104377604D01*
X267715466Y-104377604D02*
X254192505Y-108001071D01*
X254192505Y-108001071D02*
X250569038Y-94478110D01*
%TO.C,SW50*%
X316865319Y-121088582D02*
X330388280Y-117465115D01*
X330388280Y-117465115D02*
X334011747Y-130988076D01*
X334011747Y-130988076D02*
X320488786Y-134611543D01*
X320488786Y-134611543D02*
X316865319Y-121088582D01*
%TO.C,SW64*%
X321795817Y-139489479D02*
X335318778Y-135866012D01*
X335318778Y-135866012D02*
X338942245Y-149388973D01*
X338942245Y-149388973D02*
X325419284Y-153012440D01*
X325419284Y-153012440D02*
X321795817Y-139489479D01*
%TO.C,SW34*%
X292301294Y-103017985D02*
X305824255Y-99394518D01*
X305824255Y-99394518D02*
X309447722Y-112917479D01*
X309447722Y-112917479D02*
X295924761Y-116540946D01*
X295924761Y-116540946D02*
X292301294Y-103017985D01*
%TO.C,SW35*%
X311934815Y-102687690D02*
X325457776Y-99064223D01*
X325457776Y-99064223D02*
X329081243Y-112587184D01*
X329081243Y-112587184D02*
X315558282Y-116210651D01*
X315558282Y-116210651D02*
X311934815Y-102687690D01*
%TO.C,SW60*%
X234697144Y-178777910D02*
X244596639Y-168878415D01*
X244596639Y-168878415D02*
X254496134Y-178777910D01*
X254496134Y-178777910D02*
X244596639Y-188677405D01*
X244596639Y-188677405D02*
X234697144Y-178777910D01*
%TO.C,SW46*%
X242850889Y-139277189D02*
X256373850Y-135653722D01*
X256373850Y-135653722D02*
X259997317Y-149176683D01*
X259997317Y-149176683D02*
X246474356Y-152800150D01*
X246474356Y-152800150D02*
X242850889Y-139277189D01*
%TO.C,SW21*%
X267942712Y-85714072D02*
X281465673Y-82090605D01*
X281465673Y-82090605D02*
X285089140Y-95613566D01*
X285089140Y-95613566D02*
X271566179Y-99237033D01*
X271566179Y-99237033D02*
X267942712Y-85714072D01*
%TO.C,SW12*%
X321090999Y-63255528D02*
X334613960Y-59632061D01*
X334613960Y-59632061D02*
X338237427Y-73155022D01*
X338237427Y-73155022D02*
X324714466Y-76778489D01*
X324714466Y-76778489D02*
X321090999Y-63255528D01*
%TO.C,SW59*%
X191000000Y-190780000D02*
X205000000Y-190780000D01*
X205000000Y-190780000D02*
X205000000Y-204780000D01*
X205000000Y-204780000D02*
X191000000Y-204780000D01*
X191000000Y-204780000D02*
X191000000Y-190780000D01*
%TO.C,SW8*%
X245638509Y-76077228D02*
X259161470Y-72453761D01*
X259161470Y-72453761D02*
X262784937Y-85976722D01*
X262784937Y-85976722D02*
X249261976Y-89600189D01*
X249261976Y-89600189D02*
X245638509Y-76077228D01*
%TO.C,SW47*%
X260430025Y-131279880D02*
X273952986Y-127656413D01*
X273952986Y-127656413D02*
X277576453Y-141179374D01*
X277576453Y-141179374D02*
X264053492Y-144802841D01*
X264053492Y-144802841D02*
X260430025Y-131279880D01*
%TO.C,SW19*%
X232989884Y-102475422D02*
X246512845Y-98851955D01*
X246512845Y-98851955D02*
X250136312Y-112374916D01*
X250136312Y-112374916D02*
X236613351Y-115998383D01*
X236613351Y-115998383D02*
X232989884Y-102475422D01*
%TD*%
%LPC*%
%TO.C,A1*%
G36*
X188263333Y-60684666D02*
G01*
X188228466Y-60835669D01*
X188094000Y-60854000D01*
X187884929Y-60761065D01*
X187924666Y-60684666D01*
X188226105Y-60654267D01*
X188263333Y-60684666D01*
G37*
G36*
X188517333Y-59414666D02*
G01*
X188547732Y-59716105D01*
X188517333Y-59753333D01*
X188366330Y-59718466D01*
X188348000Y-59584000D01*
X188440934Y-59374929D01*
X188517333Y-59414666D01*
G37*
G36*
X185300000Y-61743000D02*
G01*
X185542311Y-61971246D01*
X185554000Y-62011990D01*
X185357482Y-62121087D01*
X185300000Y-62124000D01*
X185055760Y-61928736D01*
X185046000Y-61855009D01*
X185201609Y-61703311D01*
X185300000Y-61743000D01*
G37*
G36*
X187058430Y-60738610D02*
G01*
X187078000Y-60824019D01*
X186892642Y-61183093D01*
X186824000Y-61235000D01*
X186589569Y-61223389D01*
X186570000Y-61137980D01*
X186755357Y-60778906D01*
X186824000Y-60727000D01*
X187058430Y-60738610D01*
G37*
G36*
X189530688Y-58723609D02*
G01*
X189491000Y-58822000D01*
X189262753Y-59064311D01*
X189222009Y-59076000D01*
X189112912Y-58879482D01*
X189110000Y-58822000D01*
X189305263Y-58577760D01*
X189378990Y-58568000D01*
X189530688Y-58723609D01*
G37*
G36*
X194436619Y-59015287D02*
G01*
X194444000Y-59076000D01*
X194250712Y-59322619D01*
X194190000Y-59330000D01*
X193943380Y-59136712D01*
X193936000Y-59076000D01*
X194129287Y-58829380D01*
X194190000Y-58822000D01*
X194436619Y-59015287D01*
G37*
G36*
X190888000Y-56851360D02*
G01*
X191218804Y-57160023D01*
X191355339Y-57909280D01*
X191295457Y-59069457D01*
X191127092Y-60155544D01*
X190963166Y-61218769D01*
X190949463Y-61944205D01*
X191084442Y-62478868D01*
X191102329Y-62519366D01*
X191404470Y-62981184D01*
X191650850Y-62963841D01*
X191822671Y-62494827D01*
X191901133Y-61601637D01*
X191904000Y-61347009D01*
X191942901Y-60541373D01*
X192044340Y-59995835D01*
X192158000Y-59838000D01*
X192404678Y-60025455D01*
X192412000Y-60084028D01*
X192597577Y-60250507D01*
X192729500Y-60232243D01*
X193619033Y-59980260D01*
X194134257Y-59936738D01*
X194380499Y-60142773D01*
X194463088Y-60639459D01*
X194473464Y-60912660D01*
X194514262Y-61450464D01*
X194584749Y-61595070D01*
X194626686Y-61489000D01*
X195006703Y-60665298D01*
X195572721Y-60227087D01*
X196212915Y-60148318D01*
X196815457Y-60402946D01*
X197268521Y-60964923D01*
X197460282Y-61808204D01*
X197446948Y-62145895D01*
X197478563Y-62782352D01*
X197682500Y-63072490D01*
X197877177Y-62977944D01*
X197977700Y-62484655D01*
X198000000Y-61779156D01*
X198064890Y-60785583D01*
X198268355Y-60267783D01*
X198623587Y-60209243D01*
X199032005Y-60487484D01*
X199426569Y-60786156D01*
X199732217Y-60724907D01*
X200015994Y-60487484D01*
X200507346Y-60186507D01*
X200839029Y-60336086D01*
X201024752Y-60951832D01*
X201075829Y-61694490D01*
X201103659Y-63013000D01*
X201321208Y-61906413D01*
X201426886Y-61529037D01*
X202064000Y-61529037D01*
X202164432Y-61755732D01*
X202539356Y-61633403D01*
X202557853Y-61623570D01*
X203021129Y-61309375D01*
X203196997Y-61124185D01*
X203161915Y-60800583D01*
X203073016Y-60722684D01*
X202676440Y-60725996D01*
X202273752Y-61032148D01*
X202066267Y-61480260D01*
X202064000Y-61529037D01*
X201426886Y-61529037D01*
X201605574Y-60890939D01*
X201999293Y-60310896D01*
X202554244Y-60096976D01*
X202679300Y-60091999D01*
X203408931Y-60255155D01*
X203769676Y-60672141D01*
X203748485Y-61234237D01*
X203332310Y-61832721D01*
X202925244Y-62141153D01*
X202377666Y-62514355D01*
X202226551Y-62748893D01*
X202414941Y-62935175D01*
X202422369Y-62939359D01*
X203095910Y-63058672D01*
X203751856Y-62743162D01*
X204197766Y-62169499D01*
X204408407Y-61442164D01*
X204452760Y-60355269D01*
X204418865Y-59703594D01*
X204383355Y-58949000D01*
X204922054Y-58949000D01*
X204942499Y-59471753D01*
X205000059Y-59606676D01*
X205032518Y-59523461D01*
X205079829Y-58913497D01*
X205037644Y-58507461D01*
X204970733Y-58366686D01*
X204928643Y-58671980D01*
X204922054Y-58949000D01*
X204383355Y-58949000D01*
X204371506Y-58697204D01*
X204418708Y-58070795D01*
X204576060Y-57702527D01*
X204689757Y-57586227D01*
X205129551Y-57384634D01*
X205354873Y-57418123D01*
X205523819Y-57777402D01*
X205599962Y-58494945D01*
X205583248Y-59429554D01*
X205473624Y-60440033D01*
X205356247Y-61054576D01*
X205227353Y-62057532D01*
X205369327Y-62700746D01*
X205764610Y-62949572D01*
X206259841Y-62837577D01*
X206779643Y-62522773D01*
X206826436Y-62210177D01*
X206508999Y-61869999D01*
X206160447Y-61375494D01*
X206230463Y-61109584D01*
X206868843Y-61109584D01*
X206980397Y-61572286D01*
X207299112Y-62063496D01*
X207750818Y-62578999D01*
X208095417Y-62865293D01*
X208160000Y-62886000D01*
X208439167Y-62703216D01*
X208872033Y-62246709D01*
X209020887Y-62063496D01*
X209399463Y-61435822D01*
X209426377Y-61035762D01*
X209124944Y-60932770D01*
X208695269Y-61093405D01*
X208070872Y-61247923D01*
X207624730Y-61093405D01*
X207091391Y-60926806D01*
X206868843Y-61109584D01*
X206230463Y-61109584D01*
X206300596Y-60843226D01*
X206635999Y-60473000D01*
X207035356Y-60164495D01*
X207336600Y-60210766D01*
X207652000Y-60472999D01*
X208049111Y-60779944D01*
X208349941Y-60736117D01*
X208676964Y-60464887D01*
X209064110Y-60161672D01*
X209352465Y-60193167D01*
X209740600Y-60543711D01*
X210102280Y-60989370D01*
X210106600Y-61385607D01*
X209955676Y-61709971D01*
X209770109Y-62327791D01*
X209901506Y-62763534D01*
X210206990Y-62886000D01*
X210339090Y-62656589D01*
X210425892Y-62065949D01*
X210446000Y-61518444D01*
X210445999Y-60150889D01*
X211613304Y-60190181D01*
X212578199Y-60331792D01*
X213110182Y-60680191D01*
X213336028Y-61172060D01*
X213531262Y-61895160D01*
X213663404Y-62665712D01*
X213699978Y-63299933D01*
X213626243Y-63600423D01*
X213390002Y-63588167D01*
X213160562Y-63218661D01*
X213011388Y-62638262D01*
X212989889Y-62332642D01*
X212811105Y-61614829D01*
X212373668Y-61064238D01*
X211833793Y-60854000D01*
X211415065Y-61080999D01*
X211092347Y-61654101D01*
X210954457Y-62411457D01*
X210954000Y-62457200D01*
X210804372Y-63071261D01*
X210568235Y-63397954D01*
X210203250Y-63572068D01*
X209807992Y-63374274D01*
X209679235Y-63262688D01*
X209281332Y-62957076D01*
X208978869Y-63007717D01*
X208672764Y-63262688D01*
X208239981Y-63559145D01*
X207890396Y-63478647D01*
X207775527Y-63391118D01*
X207419124Y-63207608D01*
X206926290Y-63237944D01*
X206343811Y-63406603D01*
X205666577Y-63600480D01*
X205287617Y-63593579D01*
X205035222Y-63377949D01*
X205010531Y-63344871D01*
X204734626Y-63088044D01*
X204369484Y-63135562D01*
X204047091Y-63290597D01*
X203359043Y-63495248D01*
X202417038Y-63584157D01*
X202026335Y-63579461D01*
X201217100Y-63512285D01*
X200788990Y-63371377D01*
X200615679Y-63106560D01*
X200596837Y-63011694D01*
X200424126Y-62066956D01*
X200251583Y-61573890D01*
X200058141Y-61476611D01*
X200024553Y-61493602D01*
X199867018Y-61823446D01*
X199782535Y-62453147D01*
X199778000Y-62646990D01*
X199720878Y-63277651D01*
X199578421Y-63624713D01*
X199524000Y-63648000D01*
X199363973Y-63422884D01*
X199275908Y-62861464D01*
X199270000Y-62646990D01*
X199212738Y-61972007D01*
X199070500Y-61541098D01*
X199023446Y-61493602D01*
X198824024Y-61535139D01*
X198648992Y-61966418D01*
X198477690Y-62842312D01*
X198451405Y-63013000D01*
X198314756Y-63329583D01*
X197941069Y-63498297D01*
X197200260Y-63574630D01*
X197126416Y-63578171D01*
X196321505Y-63554804D01*
X195698511Y-63430532D01*
X195522541Y-63340504D01*
X195169147Y-63189154D01*
X194943218Y-63408209D01*
X194651495Y-63626006D01*
X194371166Y-63393936D01*
X194138059Y-62769544D01*
X193994835Y-61884951D01*
X193966900Y-61686524D01*
X195266012Y-61686524D01*
X195425991Y-62290551D01*
X195767565Y-62754959D01*
X196095000Y-62886000D01*
X196476593Y-62677043D01*
X196785203Y-62231274D01*
X196922249Y-61521901D01*
X196696228Y-60975700D01*
X196170071Y-60729823D01*
X196095000Y-60727000D01*
X195589171Y-60923988D01*
X195374424Y-61151774D01*
X195266012Y-61686524D01*
X193966900Y-61686524D01*
X193884901Y-61104073D01*
X193713696Y-60714792D01*
X193426393Y-60600746D01*
X193389397Y-60600000D01*
X192931874Y-60833232D01*
X192591459Y-61457850D01*
X192421678Y-62361234D01*
X192412000Y-62656507D01*
X192266886Y-63329886D01*
X191903725Y-63633013D01*
X191430786Y-63584968D01*
X190956340Y-63204832D01*
X190588657Y-62511688D01*
X190534498Y-62325619D01*
X190307996Y-61434003D01*
X189305512Y-62436487D01*
X187884368Y-63563939D01*
X186335172Y-64211945D01*
X184756639Y-64404421D01*
X183701972Y-64336150D01*
X182983749Y-64097021D01*
X182724639Y-63920029D01*
X182395697Y-63541985D01*
X182837296Y-63541985D01*
X183266842Y-63814332D01*
X183331500Y-63845994D01*
X184465095Y-64118076D01*
X185858288Y-63978613D01*
X186646112Y-63753045D01*
X187681467Y-63233909D01*
X188752678Y-62424628D01*
X189732240Y-61450816D01*
X190492647Y-60438087D01*
X190891647Y-59570453D01*
X191078616Y-58541389D01*
X191057513Y-57713430D01*
X190837661Y-57198680D01*
X190686421Y-57102228D01*
X190470685Y-57164021D01*
X190514229Y-57617369D01*
X190514896Y-57620031D01*
X190539148Y-58540868D01*
X190264748Y-59622661D01*
X189754526Y-60669441D01*
X189370800Y-61188448D01*
X188713740Y-61795737D01*
X187842080Y-62428076D01*
X187326892Y-62737264D01*
X186497821Y-63143513D01*
X185789207Y-63338805D01*
X184954301Y-63374309D01*
X184388403Y-63346613D01*
X183386731Y-63313485D01*
X182873477Y-63376822D01*
X182837296Y-63541985D01*
X182395697Y-63541985D01*
X182327889Y-63464055D01*
X182379000Y-63177960D01*
X182593510Y-62986252D01*
X183452919Y-62986252D01*
X183910912Y-63145961D01*
X184684099Y-63144008D01*
X185613486Y-63000968D01*
X186540079Y-62737416D01*
X187045809Y-62521312D01*
X188350733Y-61657825D01*
X189383873Y-60570112D01*
X190037939Y-59376314D01*
X190110727Y-59146442D01*
X190335692Y-58184800D01*
X190351078Y-57664692D01*
X190228270Y-57551999D01*
X189979299Y-57700016D01*
X189420996Y-58101178D01*
X188640605Y-58691156D01*
X187878770Y-59284412D01*
X186829692Y-60108402D01*
X185785874Y-60923245D01*
X184897311Y-61612075D01*
X184490085Y-61924665D01*
X183881916Y-62429820D01*
X183511303Y-62820200D01*
X183452919Y-62986252D01*
X182593510Y-62986252D01*
X182873533Y-62735995D01*
X183645427Y-62104132D01*
X184620277Y-61337689D01*
X185723679Y-60491987D01*
X186881232Y-59622348D01*
X188018531Y-58784090D01*
X189061172Y-58032535D01*
X189934753Y-57423002D01*
X190564870Y-57010812D01*
X190877119Y-56851286D01*
X190888000Y-56851360D01*
G37*
%TD*%
D16*
%TO.C,H3*%
X61099970Y-57987214D03*
%TD*%
D17*
%TO.C,H12*%
X223999979Y-204229979D03*
%TD*%
D16*
%TO.C,H2*%
X334999973Y-57987214D03*
%TD*%
D18*
%TO.C,SW52*%
X228899974Y-195229997D03*
X228899974Y-197729997D03*
X228899974Y-200229997D03*
D19*
X230899974Y-193229997D03*
X230899974Y-202229997D03*
%TD*%
D20*
%TO.C,H9*%
X158999973Y-190729980D03*
%TD*%
D17*
%TO.C,H14*%
X171999995Y-204230010D03*
%TD*%
D21*
%TO.C,SW67*%
X169979979Y-200029980D03*
D18*
X169249979Y-200029980D03*
X162749979Y-200029980D03*
D21*
X162019979Y-200029980D03*
X169979979Y-195529980D03*
D18*
X169249979Y-195529980D03*
X162749979Y-195529980D03*
D21*
X162019979Y-195529980D03*
%TD*%
D22*
%TO.C,H20*%
X181210000Y-214750000D03*
X180470000Y-214750000D03*
X179730000Y-214750000D03*
X178990000Y-214750000D03*
%TD*%
D20*
%TO.C,H8*%
X236999974Y-190729981D03*
%TD*%
D23*
%TO.C,SW66*%
X165999973Y-200889998D03*
D24*
X165999973Y-195809998D03*
X165999973Y-190729998D03*
%TD*%
D22*
%TO.C,H19*%
X214790000Y-207278097D03*
X215530000Y-207278097D03*
X216270000Y-207278097D03*
X217010000Y-207278097D03*
%TD*%
%TO.C,H21*%
X178990000Y-207278097D03*
X179730000Y-207278097D03*
X180470000Y-207278097D03*
X181210000Y-207278097D03*
%TD*%
D17*
%TO.C,H15*%
X223999973Y-191330009D03*
%TD*%
%TO.C,H13*%
X171999999Y-191230010D03*
%TD*%
D22*
%TO.C,H18*%
X217010000Y-214750000D03*
X216270000Y-214750000D03*
X215530000Y-214750000D03*
X214790000Y-214750000D03*
%TD*%
D20*
%TO.C,H10*%
X304050002Y-59629981D03*
%TD*%
D16*
%TO.C,H1*%
X197999965Y-188230010D03*
%TD*%
D25*
%TO.C,J3*%
X178000000Y-67330000D03*
D26*
X178000000Y-69870000D03*
X178000000Y-72410000D03*
X178000000Y-74950000D03*
X178000000Y-77490000D03*
X178000000Y-80030000D03*
X178000000Y-82570000D03*
D27*
X178250000Y-58950000D03*
X178250000Y-90950000D03*
X217750000Y-58950000D03*
X217750000Y-90950000D03*
%TD*%
D20*
%TO.C,H11*%
X92050000Y-59629980D03*
%TD*%
D28*
%TO.C,J4*%
X173550000Y-80950000D03*
D29*
X173550000Y-78950000D03*
X173550000Y-76950000D03*
X173550000Y-74950000D03*
X173550000Y-72950000D03*
X173550000Y-70950000D03*
X173550000Y-68950000D03*
%TD*%
D30*
%TO.C,SW57*%
X134446544Y-165766527D03*
D31*
X132416987Y-161661822D03*
%TD*%
D30*
%TO.C,SW58*%
X151403329Y-178777910D03*
D31*
X150505303Y-174287782D03*
%TD*%
D30*
%TO.C,SW1*%
X66335765Y-68205261D03*
D31*
X63312988Y-64765709D03*
%TD*%
D30*
%TO.C,SW41*%
X126996741Y-136229605D03*
D31*
X123973964Y-132790053D03*
%TD*%
D30*
%TO.C,SW42*%
X144575864Y-144226950D03*
D31*
X141553087Y-140787398D03*
%TD*%
D30*
%TO.C,SW39*%
X90194961Y-126368616D03*
D31*
X87172184Y-122929064D03*
%TD*%
D30*
%TO.C,SW40*%
X109623037Y-127465577D03*
D31*
X106600260Y-124026025D03*
%TD*%
D30*
%TO.C,SW53*%
X46613748Y-141808820D03*
D31*
X43590971Y-138369268D03*
%TD*%
D30*
%TO.C,SW17*%
X136857730Y-99427827D03*
D31*
X133834953Y-95988275D03*
%TD*%
D30*
%TO.C,SW18*%
X154436876Y-107425167D03*
D31*
X151414099Y-103985615D03*
%TD*%
D30*
%TO.C,SW25*%
X56474736Y-105007053D03*
D31*
X53451959Y-101567501D03*
%TD*%
D30*
%TO.C,SW26*%
X75491950Y-107637419D03*
D31*
X72469173Y-104197867D03*
%TD*%
D30*
%TO.C,SW27*%
X95125463Y-107967712D03*
D31*
X92102686Y-104528160D03*
%TD*%
D30*
%TO.C,SW29*%
X131927246Y-117828745D03*
D31*
X128904469Y-114389193D03*
%TD*%
D30*
%TO.C,SW28*%
X114553513Y-109064697D03*
D31*
X111530736Y-105625145D03*
%TD*%
D30*
%TO.C,SW30*%
X149506362Y-125826046D03*
D31*
X146483585Y-122386494D03*
%TD*%
D30*
%TO.C,SW37*%
X51544256Y-123407948D03*
D31*
X48521479Y-119968396D03*
%TD*%
D30*
%TO.C,SW38*%
X70561433Y-126038328D03*
D31*
X67538656Y-122598776D03*
%TD*%
D30*
%TO.C,SW54*%
X65630943Y-144439217D03*
D31*
X62608166Y-140999665D03*
%TD*%
D30*
%TO.C,SW55*%
X85264451Y-144769479D03*
D31*
X82241674Y-141329927D03*
%TD*%
D30*
%TO.C,SW56*%
X114699958Y-157587213D03*
D31*
X111677181Y-154147661D03*
%TD*%
D30*
%TO.C,SW3*%
X104986465Y-71165965D03*
D31*
X101963688Y-67726413D03*
%TD*%
D30*
%TO.C,SW13*%
X61405258Y-86606165D03*
D31*
X58382481Y-83166613D03*
%TD*%
D30*
%TO.C,SW15*%
X100055958Y-89566822D03*
D31*
X97033181Y-86127270D03*
%TD*%
D30*
%TO.C,SW5*%
X141788239Y-81026939D03*
D31*
X138765462Y-77587387D03*
%TD*%
D30*
%TO.C,SW16*%
X119484034Y-90663832D03*
D31*
X116461257Y-87224280D03*
%TD*%
D30*
%TO.C,SW4*%
X124414538Y-72262918D03*
D31*
X121391761Y-68823366D03*
%TD*%
D30*
%TO.C,SW2*%
X85352955Y-70835665D03*
D31*
X82330178Y-67396113D03*
%TD*%
D30*
%TO.C,SW14*%
X80422449Y-89236555D03*
D31*
X77399672Y-85797003D03*
%TD*%
D30*
%TO.C,SW6*%
X159367372Y-89024273D03*
D31*
X156344595Y-85584721D03*
%TD*%
D30*
%TO.C,SW7*%
X236632602Y-89024285D03*
D31*
X232295024Y-87556934D03*
%TD*%
D30*
%TO.C,SW44*%
X197999975Y-178730005D03*
D31*
X194189975Y-176190005D03*
%TD*%
D30*
%TO.C,SW62*%
X281300002Y-157587217D03*
D31*
X276962424Y-156119866D03*
%TD*%
D30*
%TO.C,SW49*%
X305805016Y-126368632D03*
D31*
X301467438Y-124901281D03*
%TD*%
D32*
%TO.C,J5*%
X211940000Y-95100000D03*
D26*
X209400000Y-95100000D03*
D25*
X206860000Y-95100000D03*
X204320000Y-95100000D03*
%TD*%
D20*
%TO.C,H7*%
X320299974Y-155930010D03*
%TD*%
D30*
%TO.C,SW22*%
X295944014Y-89566847D03*
D31*
X291606436Y-88099496D03*
%TD*%
D30*
%TO.C,SW45*%
X220536362Y-172691407D03*
D31*
X215966805Y-172396702D03*
%TD*%
D30*
%TO.C,SW43*%
X175463582Y-172691410D03*
D31*
X173434025Y-168586705D03*
%TD*%
D20*
%TO.C,H17*%
X188200000Y-218200000D03*
%TD*%
D30*
%TO.C,SW31*%
X246493596Y-125826042D03*
D31*
X242156018Y-124358691D03*
%TD*%
D30*
%TO.C,SW51*%
X344455716Y-123407941D03*
D31*
X340118138Y-121940590D03*
%TD*%
D30*
%TO.C,SW32*%
X264072747Y-117828738D03*
D31*
X259735169Y-116361387D03*
%TD*%
D30*
%TO.C,SW63*%
X310735513Y-144769507D03*
D31*
X306397935Y-143302156D03*
%TD*%
D30*
%TO.C,SW36*%
X339525211Y-105007039D03*
D31*
X335187633Y-103539688D03*
%TD*%
D30*
%TO.C,SW33*%
X281446421Y-109064701D03*
D31*
X277108843Y-107597350D03*
%TD*%
D32*
%TO.C,J1*%
X190955000Y-95000000D03*
D25*
X188415000Y-95000000D03*
D26*
X185875000Y-95000000D03*
%TD*%
D30*
%TO.C,SW24*%
X334594706Y-86606156D03*
D31*
X330257128Y-85138805D03*
%TD*%
D30*
%TO.C,SW23*%
X315577526Y-89236551D03*
D31*
X311239948Y-87769200D03*
%TD*%
D30*
%TO.C,SW48*%
X286376941Y-127465575D03*
D31*
X282039363Y-125998224D03*
%TD*%
D30*
%TO.C,SW9*%
X271585431Y-72262929D03*
D31*
X267247853Y-70795578D03*
%TD*%
D20*
%TO.C,H6*%
X75699978Y-155929979D03*
%TD*%
%TO.C,H16*%
X207800000Y-218200000D03*
%TD*%
D30*
%TO.C,SW61*%
X261553411Y-165766512D03*
D31*
X256983854Y-165471807D03*
%TD*%
D33*
%TO.C,J7*%
X201750000Y-218200000D03*
X194250000Y-218200000D03*
D34*
X200400000Y-220350000D03*
X200400000Y-216050000D03*
X195600000Y-220350000D03*
X195600000Y-216050000D03*
%TD*%
D30*
%TO.C,SW10*%
X291013496Y-71165969D03*
D31*
X286675918Y-69698618D03*
%TD*%
D30*
%TO.C,SW11*%
X310647018Y-70835679D03*
D31*
X306309440Y-69368328D03*
%TD*%
D35*
%TO.C,J9*%
X190940000Y-98900000D03*
X185860000Y-99916000D03*
X185860000Y-97884000D03*
%TD*%
D30*
%TO.C,SW65*%
X349386218Y-141808820D03*
D31*
X345048640Y-140341469D03*
%TD*%
D30*
%TO.C,SW20*%
X259142252Y-99427857D03*
D31*
X254804674Y-97960506D03*
%TD*%
D20*
%TO.C,H4*%
X225549999Y-59629979D03*
%TD*%
D30*
%TO.C,SW50*%
X325438533Y-126038329D03*
D31*
X321100955Y-124570978D03*
%TD*%
D30*
%TO.C,SW64*%
X330369031Y-144439226D03*
D31*
X326031453Y-142971875D03*
%TD*%
D30*
%TO.C,SW34*%
X300874508Y-107967732D03*
D31*
X296536930Y-106500381D03*
%TD*%
D20*
%TO.C,H5*%
X170449998Y-59629980D03*
%TD*%
D30*
%TO.C,SW35*%
X320508029Y-107637437D03*
D31*
X316170451Y-106170086D03*
%TD*%
D30*
%TO.C,SW60*%
X244596639Y-178777910D03*
D31*
X240106511Y-179675936D03*
%TD*%
D30*
%TO.C,SW46*%
X251424103Y-144226936D03*
D31*
X247086525Y-142759585D03*
%TD*%
D30*
%TO.C,SW21*%
X276515926Y-90663819D03*
D31*
X272178348Y-89196468D03*
%TD*%
D30*
%TO.C,SW12*%
X329664213Y-68205275D03*
D31*
X325326635Y-66737924D03*
%TD*%
D27*
%TO.C,SW59*%
X209906250Y-204765000D03*
D30*
X209906250Y-189525000D03*
X198000000Y-197780000D03*
D31*
X194190000Y-195240000D03*
D27*
X186093750Y-204765000D03*
D30*
X186093750Y-189525000D03*
%TD*%
%TO.C,SW8*%
X254211723Y-81026975D03*
D31*
X249874145Y-79559624D03*
%TD*%
D30*
%TO.C,SW47*%
X269003239Y-136229627D03*
D31*
X264665661Y-134762276D03*
%TD*%
D30*
%TO.C,SW19*%
X241563098Y-107425169D03*
D31*
X237225520Y-105957818D03*
%TD*%
%LPD*%
M02*
