M48
; DRILL file {KiCad (7.0.0)} date Fri May 19 21:54:14 2023
; FORMAT={-:-/ absolute / inch / decimal}
; #@! TF.CreationDate,2023-05-19T21:54:14+01:00
; #@! TF.GenerationSoftware,Kicad,Pcbnew,(7.0.0)
; #@! TF.FileFunction,Plated,1,2,PTH
FMAT,2
INCH
; #@! TA.AperFunction,Plated,PTH,ViaDrill
T1C0.0098
; #@! TA.AperFunction,Plated,PTH,ViaDrill
T2C0.0118
; #@! TA.AperFunction,Plated,PTH,ComponentDrill
T3C0.0118
; #@! TA.AperFunction,Plated,PTH,ComponentDrill
T4C0.0236
; #@! TA.AperFunction,Plated,PTH,ComponentDrill
T5C0.0276
; #@! TA.AperFunction,Plated,PTH,ComponentDrill
T6C0.0394
; #@! TA.AperFunction,Plated,PTH,ComponentDrill
T7C0.0787
; #@! TA.AperFunction,Plated,PTH,ComponentDrill
T8C0.0866
; #@! TA.AperFunction,Plated,PTH,ComponentDrill
T9C0.1181
; #@! TA.AperFunction,Plated,PTH,ComponentDrill
T10C0.1200
; #@! TA.AperFunction,Plated,PTH,ComponentDrill
T11C0.1260
%
G90
G05
T1
X2.4387Y-2.2907
X2.4606Y-2.2106
X2.7362Y-2.2756
X3.4843Y-2.378
X4.2598Y-2.3898
X5.0236Y-2.4331
X5.7087Y-2.7795
X5.758Y-5.7838
X5.9353Y-5.1221
X6.1462Y-4.3349
X6.3235Y-3.6732
X6.4057Y-3.0413
X6.4168Y-7.1777
X6.4334Y-3.1565
X6.4855Y-6.8657
X6.6063Y-3.1339
X6.6142Y-3.2874
X6.7343Y-2.3602
X6.7756Y-4.0394
X6.878Y-2.8516
X6.8849Y-2.624
X6.9075Y-3.1339
X6.9252Y-3.3465
X6.9291Y-3.1142
X6.9508Y-3.0945
X6.9685Y-2.7776
X6.9843Y-2.6004
X6.9882Y-3.4094
X7.0117Y-3.3857
X7.0866Y-6.3622
X7.1004Y-2.1339
X7.171Y-2.7005
X7.1713Y-2.777
X7.2303Y-2.8386
X7.2487Y-2.8591
X7.2736Y-2.2736
X7.3307Y-2.5748
X7.3465Y-2.7776
X7.3465Y-2.8051
X7.3622Y-2.6398
X7.3661Y-2.3957
X7.3661Y-2.4291
X7.3917Y-4.2264
X7.4193Y-3.2677
X7.4272Y-2.5138
X7.4429Y-3.2835
X7.4665Y-3.2992
X7.4783Y-2.4488
X7.4854Y-4.1831
X7.5276Y-4.8071
X7.5453Y-2.3701
X7.563Y-2.1378
X7.5642Y-3.0684
X7.5768Y-3.2992
X7.5866Y-4.7087
X7.5883Y-3.0861
X7.6064Y-4.7639
X7.6083Y-3.2815
X7.6102Y-4.8268
X7.6142Y-2.1378
X7.6221Y-2.9227
X7.626Y-4.3248
X7.6378Y-4.8268
X7.6457Y-3.189
X7.6476Y-2.2677
X7.6476Y-4.3445
X7.6476Y-2.9345
X7.6516Y-4.5374
X7.6597Y-4.5111
X7.6713Y-4.8602
X7.6772Y-4.3937
X7.6772Y-4.4606
X7.6831Y-2.9837
X7.7028Y-3.0861
X7.7126Y-4.7638
X7.8678Y-6.4803
X7.8934Y-2.876
X7.9238Y-2.9064
X7.9508Y-3.2102
X7.9862Y-3.2889
X8.0133Y-3.2101
X8.0433Y-3.2244
X8.0937Y-3.1442
X8.1181Y-3.1654
X8.2106Y-6.2913
X8.2402Y-3.0984
X8.2638Y-3.0748
X8.3937Y-3.0394
X8.3937Y-3.3455
X8.4252Y-3.0394
X8.4252Y-3.3661
X8.5276Y-3.3228
X8.5328Y-4.0591
X8.6614Y-3.189
X8.7216Y-3.1677
X8.7323Y-5.7441
X8.7323Y-5.8701
X8.7473Y-3.9192
X8.7559Y-5.8386
X8.7559Y-5.7205
X8.7559Y-3.8359
X8.7677Y-4.0866
X8.8149Y-3.9192
X8.8543Y-4.0866
X8.8886Y-3.7303
X8.9685Y-6.8563
X8.9685Y-7.0098
X9.0644Y-4.3863
X9.0709Y-3.0197
X9.2758Y-5.1753
X9.4526Y-5.8352
X9.7559Y-2.7087
X10.4449Y-2.3622
X11.2126Y-2.3189
X11.9921Y-2.3032
T2
X1.4407Y-5.6121
X1.4479Y-5.5855
X1.5567Y-4.8525
X1.8122Y-5.7545
X1.829Y-4.1632
X1.8361Y-4.1366
X1.921Y-5.0214
X1.9281Y-4.9948
X1.9449Y-3.4036
X2.1894Y-5.7157
X2.1966Y-5.6891
X2.2005Y-4.3056
X2.2172Y-2.7143
X2.2243Y-2.6877
X2.3054Y-4.956
X2.3092Y-3.5725
X2.3164Y-3.5459
X2.5609Y-5.858
X2.5777Y-4.2668
X2.5848Y-4.2402
X2.5887Y-2.8567
X2.6697Y-5.125
X2.6769Y-5.0984
X2.6936Y-3.5071
X2.9492Y-4.4091
X2.9624Y-5.7287
X2.9659Y-2.8179
X2.9696Y-5.7021
X2.973Y-2.7913
X3.058Y-3.6761
X3.0651Y-3.6495
X3.0783Y-4.969
X3.3339Y-5.871
X3.3374Y-2.9602
X3.3507Y-4.2798
X3.3578Y-4.2532
X3.4427Y-5.138
X3.4498Y-5.1114
X3.4666Y-3.5201
X3.7221Y-4.4221
X3.7389Y-2.8309
X3.746Y-2.8043
X3.8309Y-3.6891
X3.8381Y-3.6625
X3.8432Y-5.0122
X4.1104Y-2.9732
X4.1155Y-4.323
X4.1213Y-6.2333
X4.1227Y-4.2964
X4.1284Y-6.2067
X4.2076Y-5.1812
X4.2147Y-5.1546
X4.2315Y-3.5633
X4.487Y-4.4653
X4.4928Y-6.3757
X4.5038Y-2.8741
X4.5109Y-2.8475
X4.5272Y-5.3573
X4.5958Y-3.7323
X4.6029Y-3.7057
X4.7995Y-4.668
X4.8067Y-4.6414
X4.8701Y-6.4995
X4.8753Y-3.0164
X4.8839Y-6.4757
X4.8916Y-5.5262
X4.8987Y-5.4996
X4.9155Y-3.9084
X5.171Y-4.8104
X5.1878Y-3.2191
X5.1921Y-6.7332
X5.1949Y-3.1925
X5.2193Y-5.6721
X5.2798Y-4.0773
X5.2869Y-4.0507
X5.4916Y-4.9829
X5.4988Y-4.9563
X5.5245Y-6.9505
X5.544Y-6.931
X5.5593Y-3.3615
X5.5837Y-5.8411
X5.5908Y-5.8144
X5.6076Y-4.2232
X5.775Y-7.2595
X5.8176Y-5.7591
X5.8518Y-5.7682
X5.8631Y-5.1252
X5.8799Y-3.534
X5.887Y-3.5074
X5.9601Y-5.2274
X5.9719Y-4.3922
X5.979Y-4.3656
X5.9882Y-5.3976
X5.9943Y-5.2365
X6.1811Y-4.6772
X6.2058Y-4.3102
X6.2401Y-4.3193
X6.2513Y-3.6763
X6.3071Y-7.7835
X6.311Y-6.8307
X6.3386Y-4.8346
X6.3386Y-5.6772
X6.3386Y-6.8307
X6.3425Y-7.7835
X6.3483Y-3.7785
X6.3543Y-4.0197
X6.3543Y-4.7756
X6.3825Y-3.7876
X6.3858Y-2.4764
X6.3858Y-2.5039
X6.4016Y-4.1142
X6.4114Y-2.5925
X6.4488Y-5.7087
X6.4567Y-4.1535
X6.4665Y-2.8597
X6.4724Y-2.4724
X6.485Y-6.7722
X6.4882Y-5.6535
X6.4882Y-5.6811
X6.4987Y-6.7483
X6.5Y-2.4724
X6.5079Y-2.9961
X6.5138Y-5.6535
X6.5138Y-5.6811
X6.5217Y-3.3307
X6.5236Y-3.2126
X6.5394Y-5.6535
X6.5394Y-5.6811
X6.5472Y-3.4941
X6.5472Y-3.5728
X6.5472Y-3.4154
X6.5472Y-3.5256
X6.5472Y-3.4469
X6.5472Y-3.6043
X6.5591Y-3.2244
X6.561Y-3.374
X6.561Y-3.3465
X6.5787Y-5.8386
X6.5787Y-5.185
X6.5787Y-5.2874
X6.5827Y-2.4961
X6.5984Y-2.9961
X6.5984Y-3.6457
X6.6043Y-3.2008
X6.6063Y-2.8189
X6.6063Y-2.6181
X6.6063Y-2.7697
X6.6063Y-2.6673
X6.6063Y-2.7185
X6.6102Y-2.4961
X6.6142Y-2.4213
X6.6299Y-3.2008
X6.6496Y-3.0945
X6.6496Y-3.122
X6.6555Y-3.2008
X6.6575Y-6.1535
X6.6732Y-5.2205
X6.6732Y-5.252
X6.6772Y-3.0945
X6.6772Y-3.122
X6.7047Y-5.2205
X6.7047Y-5.252
X6.7047Y-4.1811
X6.7047Y-3.122
X6.7047Y-3.0945
X6.748Y-3.1673
X6.748Y-3.2362
X6.748Y-3.5433
X6.748Y-4.3622
X6.7559Y-2.5276
X6.7559Y-2.8386
X6.7559Y-2.7559
X6.7756Y-5.2874
X6.7795Y-2.9921
X6.8069Y-7.0058
X6.8091Y-2.3583
X6.8133Y-5.0793
X6.815Y-5.185
X6.8387Y-5.0899
X6.8425Y-2.8937
X6.8425Y-3.6457
X6.8445Y-5.2886
X6.8543Y-5.2205
X6.8543Y-5.252
X6.8622Y-2.8248
X6.8622Y-2.7185
X6.8858Y-5.2205
X6.8858Y-5.252
X6.8996Y-2.5807
X6.9323Y-5.6805
X6.9331Y-2.5098
X6.9341Y-2.5541
X6.9578Y-5.6699
X6.965Y-2.8113
X6.9665Y-3.1944
X6.9783Y-2.7185
X6.9783Y-2.6693
X6.9823Y-2.9232
X6.9823Y-2.8957
X6.9882Y-1.8307
X6.9921Y-6.1535
X6.9941Y-3.4503
X7.0Y-2.7795
X7.0138Y-2.1929
X7.0138Y-2.2323
X7.0138Y-2.1535
X7.0138Y-2.3012
X7.0177Y-2.5039
X7.0197Y-2.8681
X7.0197Y-3.252
X7.0276Y-2.5571
X7.0283Y-4.7401
X7.0394Y-3.0315
X7.0531Y-2.3012
X7.0669Y-3.1339
X7.0669Y-4.9213
X7.0965Y-2.6535
X7.1004Y-2.6043
X7.1004Y-3.126
X7.1023Y-5.8063
X7.1063Y-1.8307
X7.1161Y-2.5354
X7.1181Y-2.2795
X7.1299Y-5.7047
X7.1378Y-2.7185
X7.1378Y-2.7795
X7.1457Y-2.2795
X7.1496Y-2.0886
X7.1542Y-4.5701
X7.1575Y-6.4331
X7.1594Y-3.126
X7.1647Y-4.5955
X7.1732Y-2.2795
X7.1831Y-2.3957
X7.1831Y-2.4232
X7.1831Y-2.4508
X7.2008Y-2.7185
X7.2067Y-2.0591
X7.2106Y-2.4232
X7.2106Y-2.4508
X7.2106Y-2.3957
X7.2244Y-6.5551
X7.2382Y-2.3957
X7.2382Y-2.4508
X7.2382Y-2.4232
X7.2421Y-2.2854
X7.2638Y-3.0768
X7.2835Y-2.4646
X7.2835Y-2.9508
X7.2835Y-2.6024
X7.2835Y-2.9798
X7.2933Y-3.1378
X7.3189Y-2.3465
X7.3189Y-2.378
X7.3189Y-2.752
X7.3327Y-2.1496
X7.3366Y-2.9055
X7.3366Y-2.061
X7.3819Y-2.3228
X7.3976Y-2.6417
X7.4055Y-2.1772
X7.4055Y-2.2067
X7.4173Y-2.0906
X7.4213Y-3.0374
X7.4311Y-3.1707
X7.4415Y-6.0214
X7.4429Y-7.8346
X7.4429Y-7.8622
X7.4429Y-7.0846
X7.4429Y-7.1122
X7.4449Y-2.0906
X7.4468Y-3.0374
X7.4488Y-4.7367
X7.4488Y-2.2717
X7.4508Y-2.4783
X7.4521Y-5.9959
X7.4705Y-3.1707
X7.4724Y-3.0374
X7.4862Y-2.6575
X7.4862Y-2.2894
X7.4902Y-4.7756
X7.5039Y-2.1614
X7.5039Y-2.1339
X7.5039Y-2.1063
X7.5079Y-4.1102
X7.5099Y-3.1707
X7.5118Y-2.4488
X7.5118Y-4.4685
X7.5135Y-2.5664
X7.5138Y-2.2894
X7.5157Y-4.3622
X7.5236Y-2.6575
X7.5236Y-3.2323
X7.5276Y-4.5906
X7.5276Y-4.4055
X7.5315Y-3.3381
X7.5315Y-2.9601
X7.5357Y-2.5441
X7.5433Y-4.7092
X7.5453Y-2.4567
X7.5472Y-2.6948
X7.558Y-2.5218
X7.5591Y-2.3976
X7.5787Y-2.6693
X7.5787Y-2.5
X7.5925Y-3.1688
X7.5984Y-2.2677
X7.5984Y-5.8937
X7.6181Y-3.1688
X7.624Y-2.7421
X7.6378Y-2.3228
X7.6496Y-2.9857
X7.6508Y-5.9901
X7.6613Y-2.3968
X7.6752Y-3.0408
X7.6831Y-2.3209
X7.6831Y-3.277
X7.6891Y-2.369
X7.6929Y-2.1339
X7.6929Y-2.1614
X7.6929Y-2.1063
X7.6944Y-2.5747
X7.7008Y-4.4173
X7.7097Y-4.7992
X7.7146Y-2.878
X7.717Y-2.3411
X7.7303Y-3.0704
X7.7303Y-3.1924
X7.7402Y-3.0054
X7.7461Y-2.2028
X7.752Y-2.0906
X7.7556Y-2.4449
X7.7795Y-2.0906
X7.7863Y-2.6666
X7.7913Y-4.4449
X7.8032Y-3.0074
X7.8189Y-4.4567
X7.8209Y-2.9783
X7.8386Y-7.9035
X7.8386Y-7.1535
X7.8445Y-3.1713
X7.8484Y-2.9783
X7.878Y-4.9764
X7.878Y-5.0591
X7.8819Y-2.937
X7.8839Y-3.1713
X7.8949Y-2.7751
X7.9036Y-3.279
X7.9094Y-2.937
X7.9199Y-2.4383
X7.9291Y-5.1024
X7.9331Y-3.1058
X7.9331Y-3.0546
X7.9724Y-6.5551
X7.9961Y-3.0039
X7.9961Y-3.1654
X8.009Y-2.2379
X8.0118Y-4.9016
X8.0118Y-4.9646
X8.0118Y-4.9331
X8.0177Y-3.2933
X8.0285Y-2.2184
X8.0313Y-2.9283
X8.0321Y-5.8769
X8.0427Y-5.9024
X8.0433Y-6.4488
X8.0669Y-3.25
X8.0669Y-5.7047
X8.0709Y-2.7736
X8.0746Y-2.8424
X8.0748Y-4.7795
X8.0886Y-3.3504
X8.0925Y-2.9895
X8.0941Y-2.8619
X8.0945Y-4.6661
X8.1009Y-2.9422
X8.1136Y-2.8814
X8.1299Y-4.9213
X8.1345Y-2.7742
X8.1454Y-2.4745
X8.154Y-2.7547
X8.1685Y-5.7323
X8.1735Y-2.7352
X8.193Y-2.7158
X8.1957Y-2.9635
X8.2087Y-1.9252
X8.2125Y-2.6963
X8.2126Y-3.6969
X8.2152Y-2.983
X8.2165Y-4.0236
X8.2165Y-3.1181
X8.2165Y-3.4016
X8.2319Y-2.6768
X8.2347Y-3.0025
X8.2391Y-4.8025
X8.2514Y-2.6963
X8.2542Y-2.983
X8.2598Y-2.6378
X8.2646Y-4.792
X8.2709Y-2.7158
X8.2736Y-2.5433
X8.2736Y-4.0276
X8.2737Y-2.9635
X8.2874Y-3.1181
X8.3307Y-4.0236
X8.3523Y-5.1839
X8.3558Y-2.8007
X8.3572Y-2.88
X8.3581Y-5.3826
X8.3767Y-2.8605
X8.3767Y-2.8215
X8.3819Y-3.0709
X8.3836Y-5.3931
X8.3962Y-2.841
X8.4288Y-6.9038
X8.4331Y-2.811
X8.4331Y-2.8701
X8.4425Y-6.9277
X8.4488Y-3.9843
X8.4488Y-3.5433
X8.4488Y-4.3622
X8.4508Y-3.1988
X8.4528Y-3.3465
X8.4902Y-3.8504
X8.4921Y-3.2992
X8.4921Y-3.3465
X8.4921Y-4.3622
X8.5433Y-2.5925
X8.5728Y-2.6555
X8.5748Y-3.8563
X8.5906Y-2.7421
X8.5906Y-2.8927
X8.6496Y-3.8583
X8.6575Y-2.5591
X8.6693Y-2.9778
X8.7047Y-5.9055
X8.7756Y-4.0551
X8.7972Y-3.8917
X8.8059Y-6.7657
X8.8071Y-2.5591
X8.8071Y-2.9685
X8.8103Y-3.788
X8.8366Y-2.9685
X8.8425Y-4.0551
X8.8446Y-3.7788
X8.8543Y-4.6575
X8.8543Y-5.6811
X8.8583Y-4.7126
X8.8622Y-4.1181
X8.9331Y-7.0079
X8.9532Y-4.3211
X8.9874Y-4.3119
X9.0Y-4.622
X9.0094Y-3.5879
X9.0157Y-4.6772
X9.0166Y-3.6145
X9.1253Y-4.3475
X9.1986Y-5.2368
X9.2087Y-5.4016
X9.2328Y-5.2277
X9.3414Y-5.77
X9.3537Y-5.7475
X9.3756Y-5.7608
X9.3977Y-5.0368
X9.4048Y-5.0634
X9.4094Y-3.552
X9.4329Y-7.1509
X9.4524Y-7.1704
X9.5136Y-5.7964
X9.5182Y-4.2851
X9.5254Y-4.3117
X9.7015Y-3.273
X9.7087Y-3.2996
X9.7614Y-6.9199
X9.7977Y-5.0009
X9.8174Y-4.0327
X9.9065Y-5.7339
X9.9136Y-5.7606
X10.0436Y-6.6312
X10.0574Y-6.6551
X10.0897Y-4.7219
X10.0969Y-4.7485
X10.1015Y-3.2372
X10.2057Y-5.4816
X10.2103Y-3.9702
X10.2175Y-3.9968
X10.3855Y-2.928
X10.3927Y-2.9546
X10.4207Y-6.493
X10.4898Y-4.6861
X10.5014Y-3.6876
X10.5986Y-5.4191
X10.6057Y-5.4457
X10.768Y-6.2872
X10.7738Y-4.3769
X10.7751Y-6.3138
X10.7809Y-4.4035
X10.7855Y-2.8921
X10.8897Y-5.1365
X10.8943Y-3.6252
X10.9015Y-3.6518
X11.1504Y-2.8848
X11.1575Y-2.9114
X11.168Y-6.2513
X11.1738Y-4.341
X11.2663Y-3.6445
X11.2826Y-5.0741
X11.2897Y-5.1007
X11.5386Y-4.3337
X11.5458Y-4.3603
X11.5504Y-2.8489
X11.6546Y-5.0933
X11.6592Y-3.582
X11.6663Y-3.6086
X11.9234Y-2.8718
X11.9269Y-5.7826
X11.9305Y-2.8984
X11.934Y-5.8092
X11.9387Y-4.2978
X12.0393Y-3.6314
X12.0474Y-5.0309
X12.0546Y-5.0575
X12.3116Y-4.3207
X12.3187Y-4.3473
X12.3234Y-2.8359
X12.3269Y-5.7467
X12.4275Y-5.0803
X12.4322Y-3.569
X12.4393Y-3.5956
X12.6721Y-2.7682
X12.6792Y-2.7948
X12.6998Y-5.7696
X12.707Y-5.7962
X12.7116Y-4.2848
X12.788Y-3.5279
X12.8204Y-5.0179
X12.8276Y-5.0445
X13.0603Y-4.2171
X13.0675Y-4.2437
X13.0721Y-2.7324
X13.0999Y-5.7337
X13.1762Y-4.9768
X13.1809Y-3.4654
X13.188Y-3.492
X13.4485Y-5.666
X13.4557Y-5.6926
X13.4603Y-4.1813
X13.5691Y-4.9143
X13.5763Y-4.9409
X13.8486Y-5.6301
T3
X1.3429Y-5.356
X1.3745Y-5.2381
X1.379Y-5.3657
X1.4106Y-5.2478
X1.4151Y-5.3754
X1.4467Y-5.2575
X1.537Y-4.6316
X1.5686Y-4.5137
X1.5731Y-4.6413
X1.6047Y-4.5234
X1.6092Y-4.6509
X1.6408Y-4.533
X1.7311Y-3.9071
X1.7627Y-3.7892
X1.7672Y-3.9168
X1.7988Y-3.7989
X1.8033Y-3.9265
X1.8349Y-3.8086
X1.8603Y-5.3912
X1.8919Y-5.2733
X1.8965Y-5.4008
X1.9252Y-3.1827
X1.9281Y-5.2829
X1.9326Y-5.4105
X1.9568Y-3.0648
X1.9613Y-3.1924
X1.9642Y-5.2926
X1.9929Y-3.0745
X1.9975Y-3.202
X2.0291Y-3.0842
X2.0545Y-4.6667
X2.086Y-4.5488
X2.0906Y-4.6764
X2.0916Y-5.4596
X2.1193Y-2.4582
X2.1222Y-4.5585
X2.1232Y-5.3417
X2.1267Y-4.6861
X2.1277Y-5.4693
X2.1509Y-2.3404
X2.1554Y-2.4679
X2.1583Y-4.5682
X2.1593Y-5.3514
X2.1638Y-5.4789
X2.187Y-2.35
X2.1916Y-2.4776
X2.1954Y-5.3611
X2.2232Y-2.3597
X2.2486Y-3.9423
X2.2802Y-3.8244
X2.2847Y-3.9519
X2.2857Y-4.7351
X2.3163Y-3.8341
X2.3173Y-4.6172
X2.3208Y-3.9616
X2.3218Y-4.7448
X2.3524Y-3.8437
X2.3534Y-4.6269
X2.3579Y-4.7545
X2.3895Y-4.6366
X2.4427Y-3.2178
X2.4743Y-3.0999
X2.4788Y-3.2275
X2.4798Y-4.0107
X2.5104Y-3.1096
X2.5114Y-3.8928
X2.5149Y-3.2372
X2.5159Y-4.0204
X2.5465Y-3.1193
X2.5475Y-3.9025
X2.5521Y-4.0301
X2.5836Y-3.9122
X2.6091Y-5.4947
X2.6368Y-2.4934
X2.6406Y-5.3768
X2.6452Y-5.5044
X2.6684Y-2.3755
X2.6729Y-2.5031
X2.6739Y-3.2862
X2.6768Y-5.3865
X2.6813Y-5.5141
X2.7045Y-2.3852
X2.7055Y-3.1684
X2.7091Y-2.5127
X2.71Y-3.2959
X2.7129Y-5.3962
X2.7406Y-2.3948
X2.7416Y-3.178
X2.7462Y-3.3056
X2.7778Y-3.1877
X2.8032Y-4.7703
X2.8348Y-4.6524
X2.8393Y-4.7799
X2.8645Y-5.4726
X2.868Y-2.5618
X2.8709Y-4.6621
X2.8754Y-4.7896
X2.8961Y-5.3547
X2.8996Y-2.4439
X2.9007Y-5.4823
X2.9042Y-2.5715
X2.907Y-4.6717
X2.9323Y-5.3644
X2.9357Y-2.4536
X2.9368Y-5.4919
X2.9403Y-2.5812
X2.9684Y-5.3741
X2.9719Y-2.4633
X2.9973Y-4.0458
X3.0289Y-3.9279
X3.0334Y-4.0555
X3.0587Y-4.7481
X3.065Y-3.9376
X3.0695Y-4.0652
X3.0902Y-4.6303
X3.0948Y-4.7578
X3.1011Y-3.9473
X3.1264Y-4.6399
X3.1309Y-4.7675
X3.1625Y-4.6496
X3.1914Y-3.3214
X3.223Y-3.2035
X3.2275Y-3.3311
X3.2528Y-4.0237
X3.2591Y-3.2132
X3.2636Y-3.3407
X3.2844Y-3.9058
X3.2889Y-4.0334
X3.2952Y-3.2228
X3.3205Y-3.9155
X3.325Y-4.0431
X3.3566Y-3.9252
X3.382Y-5.5077
X3.3855Y-2.5969
X3.4136Y-5.3898
X3.4171Y-2.479
X3.4182Y-5.5174
X3.4216Y-2.6066
X3.4469Y-3.2992
X3.4497Y-5.3995
X3.4532Y-2.4887
X3.4543Y-5.5271
X3.4578Y-2.6163
X3.4785Y-3.1814
X3.483Y-3.3089
X3.4859Y-5.4092
X3.4894Y-2.4984
X3.5146Y-3.191
X3.5191Y-3.3186
X3.5507Y-3.2007
X3.5761Y-4.7833
X3.6077Y-4.6654
X3.6123Y-4.7929
X3.641Y-2.5748
X3.6439Y-4.6751
X3.6484Y-4.8026
X3.6726Y-2.4569
X3.6771Y-2.5845
X3.68Y-4.6847
X3.7087Y-2.4666
X3.7133Y-2.5942
X3.7448Y-2.4763
X3.7703Y-4.0588
X3.8018Y-3.9409
X3.8064Y-4.0685
X3.8235Y-4.7913
X3.838Y-3.9506
X3.8425Y-4.0782
X3.8551Y-4.6734
X3.8597Y-4.801
X3.8741Y-3.9603
X3.8913Y-4.6831
X3.8958Y-4.8107
X3.9274Y-4.6928
X3.9644Y-3.3344
X3.996Y-3.2165
X4.0005Y-3.3441
X4.0177Y-4.0669
X4.0234Y-5.9772
X4.0321Y-3.2262
X4.0366Y-3.3537
X4.0492Y-3.949
X4.0538Y-4.0766
X4.055Y-5.8593
X4.0596Y-5.9869
X4.0682Y-3.2359
X4.0854Y-3.9587
X4.0899Y-4.0862
X4.0911Y-5.869
X4.0957Y-5.9966
X4.1215Y-3.9684
X4.1273Y-5.8787
X4.1585Y-2.6099
X4.1901Y-2.492
X4.1946Y-2.6196
X4.2118Y-3.3424
X4.2262Y-2.5017
X4.2307Y-2.6293
X4.2434Y-3.2246
X4.2479Y-3.3521
X4.2623Y-2.5114
X4.2795Y-3.2342
X4.284Y-3.3618
X4.3156Y-3.2439
X4.341Y-4.8265
X4.3726Y-4.7086
X4.3771Y-4.8361
X4.4059Y-2.618
X4.4087Y-4.7182
X4.4133Y-4.8458
X4.4375Y-2.5001
X4.442Y-2.6277
X4.4449Y-4.7279
X4.4736Y-2.5098
X4.4781Y-2.6374
X4.5075Y-5.1364
X4.5097Y-2.5195
X4.5351Y-4.102
X4.5391Y-5.0185
X4.5409Y-6.0123
X4.5437Y-5.146
X4.5667Y-3.9841
X4.5713Y-4.1117
X4.5725Y-5.8945
X4.5753Y-5.0282
X4.577Y-6.022
X4.5798Y-5.1557
X4.6029Y-3.9938
X4.6074Y-4.1214
X4.6086Y-5.9041
X4.6114Y-5.0378
X4.6132Y-6.0317
X4.639Y-4.0035
X4.6447Y-5.9138
X4.7017Y-4.4119
X4.7293Y-3.3776
X4.7333Y-4.294
X4.7378Y-4.4216
X4.7608Y-3.2597
X4.7654Y-3.3872
X4.7694Y-4.3037
X4.7739Y-4.4313
X4.797Y-3.2694
X4.8015Y-3.3969
X4.8055Y-4.3134
X4.8331Y-3.279
X4.8419Y-6.2268
X4.8742Y-6.2455
X4.8958Y-3.6875
X4.9029Y-6.1211
X4.9066Y-6.2642
X4.9234Y-2.6531
X4.9274Y-3.5696
X4.9319Y-3.6972
X4.9353Y-6.1398
X4.955Y-2.5352
X4.9595Y-2.6628
X4.9635Y-3.5793
X4.9677Y-6.1585
X4.968Y-3.7068
X4.9911Y-2.5449
X4.9956Y-2.6725
X4.9996Y-3.589
X5.025Y-5.1715
X5.0272Y-2.5546
X5.0566Y-5.0536
X5.0612Y-5.1812
X5.0899Y-2.963
X5.0927Y-5.0633
X5.0973Y-5.1909
X5.1215Y-2.8451
X5.126Y-2.9727
X5.1289Y-5.073
X5.1576Y-2.8548
X5.1621Y-2.9824
X5.1937Y-2.8645
X5.1996Y-5.4512
X5.2191Y-4.4471
X5.2312Y-5.3333
X5.2358Y-5.4609
X5.2507Y-4.3292
X5.2553Y-4.4567
X5.2674Y-5.343
X5.2719Y-5.4706
X5.2869Y-4.3388
X5.2914Y-4.4664
X5.3035Y-5.3527
X5.323Y-4.3485
X5.3326Y-6.3947
X5.365Y-6.4134
X5.3936Y-6.289
X5.3938Y-4.7268
X5.3974Y-6.4321
X5.4133Y-3.7226
X5.4253Y-4.6089
X5.426Y-6.3077
X5.4299Y-4.7365
X5.4448Y-3.6047
X5.4494Y-3.7323
X5.4584Y-6.3264
X5.4615Y-4.6186
X5.466Y-4.7461
X5.481Y-3.6144
X5.4855Y-3.742
X5.4976Y-4.6283
X5.5171Y-3.6241
X5.5678Y-6.6798
X5.5879Y-4.0023
X5.5942Y-6.7062
X5.6074Y-2.9982
X5.6195Y-3.8844
X5.6207Y-6.7327
X5.624Y-4.012
X5.639Y-2.8803
X5.6435Y-3.0078
X5.6541Y-6.5935
X5.6556Y-3.8941
X5.6601Y-4.0217
X5.6751Y-2.89
X5.6796Y-3.0175
X5.6805Y-6.6199
X5.6917Y-3.9038
X5.707Y-6.6464
X5.7112Y-2.8996
X5.7171Y-5.4864
X5.7487Y-5.3685
X5.7532Y-5.496
X5.782Y-3.2779
X5.7848Y-5.3781
X5.7894Y-5.5057
X5.8136Y-3.16
X5.8181Y-3.2876
X5.821Y-5.3878
X5.8497Y-3.1697
X5.8542Y-3.2973
X5.8858Y-3.1794
X5.9112Y-4.7619
X5.9428Y-4.644
X5.9474Y-4.7716
X5.9789Y-4.6537
X5.9835Y-4.7813
X5.9984Y-6.9689
X6.0151Y-4.6634
X6.0248Y-6.9954
X6.0513Y-7.0218
X6.0847Y-6.8826
X6.1053Y-4.0375
X6.1111Y-6.9091
X6.1369Y-3.9196
X6.1376Y-6.9355
X6.1415Y-4.0471
X6.1731Y-3.9293
X6.1776Y-4.0568
X6.2092Y-3.9389
X6.2995Y-3.313
X6.331Y-3.1951
X6.3356Y-3.3227
X6.3672Y-3.2048
X6.3717Y-3.3324
X6.4033Y-3.2145
X6.4567Y-6.4995
X6.4891Y-6.5182
X6.5177Y-6.3938
X6.5215Y-6.5369
X6.5501Y-6.4125
X6.5825Y-6.4312
X6.9474Y-6.6673
X6.9798Y-6.686
X7.0085Y-6.5616
X7.0122Y-6.7047
X7.0409Y-6.5803
X7.0733Y-6.599
X7.2821Y-7.5181
X7.2821Y-7.6402
X7.2821Y-6.7681
X7.2821Y-6.8902
X7.3195Y-7.5181
X7.3195Y-7.6402
X7.3195Y-6.7681
X7.3195Y-6.8902
X7.3569Y-7.5181
X7.3569Y-7.6402
X7.3569Y-6.7681
X7.3569Y-6.8902
X7.791Y-7.4181
X7.791Y-7.5402
X7.791Y-6.6681
X7.791Y-6.7902
X7.8253Y-2.6666
X7.8284Y-7.4181
X7.8284Y-7.5402
X7.8284Y-6.6681
X7.8284Y-6.7902
X7.8614Y-2.6304
X7.8614Y-2.7028
X7.8658Y-7.4181
X7.8658Y-7.5402
X7.8658Y-6.6681
X7.8658Y-6.7902
X7.8976Y-2.5942
X7.8976Y-2.6666
X7.8976Y-2.739
X7.9338Y-2.6304
X7.9338Y-2.7028
X7.97Y-2.6666
X8.1312Y-6.7101
X8.1636Y-6.6914
X8.1922Y-6.8158
X8.196Y-6.6727
X8.2246Y-6.7971
X8.257Y-6.7784
X8.522Y-6.369
X8.5544Y-6.3503
X8.583Y-6.4747
X8.5867Y-6.3316
X8.6154Y-6.456
X8.6478Y-6.4373
X8.7722Y-3.3238
X8.8037Y-3.4416
X8.8083Y-3.3141
X8.8399Y-3.432
X8.8444Y-3.3044
X8.876Y-3.4223
X8.9663Y-4.0482
X8.9979Y-4.1661
X9.0024Y-4.0385
X9.034Y-4.1564
X9.0385Y-4.0288
X9.0701Y-4.1467
X9.0954Y-7.0408
X9.1218Y-7.0144
X9.1483Y-6.988
X9.1604Y-4.7726
X9.1817Y-7.1271
X9.192Y-4.8905
X9.1965Y-4.763
X9.2081Y-7.1007
X9.2281Y-4.8808
X9.2326Y-4.7533
X9.2346Y-7.0743
X9.2379Y-3.0954
X9.2642Y-4.8712
X9.2695Y-3.2133
X9.274Y-3.0858
X9.3056Y-3.2036
X9.3101Y-3.0761
X9.3417Y-3.194
X9.3545Y-5.4971
X9.3846Y-6.6103
X9.3861Y-5.615
X9.3906Y-5.4874
X9.411Y-6.5838
X9.4222Y-5.6053
X9.4268Y-5.4777
X9.432Y-3.8199
X9.4374Y-6.5574
X9.4583Y-5.5956
X9.4636Y-3.9378
X9.4642Y-3.0089
X9.4681Y-3.8102
X9.4709Y-6.6966
X9.4958Y-3.1268
X9.4973Y-6.6701
X9.4997Y-3.9281
X9.5004Y-2.9992
X9.5042Y-3.8005
X9.5237Y-6.6437
X9.532Y-3.1171
X9.5358Y-3.9184
X9.5365Y-2.9895
X9.5681Y-3.1074
X9.6261Y-4.5443
X9.6577Y-4.6622
X9.6584Y-3.7333
X9.6622Y-4.5346
X9.69Y-3.8512
X9.6938Y-4.6525
X9.6945Y-3.7237
X9.6984Y-4.525
X9.7261Y-3.8415
X9.7299Y-4.6429
X9.7306Y-3.714
X9.7461Y-6.4375
X9.7622Y-3.8319
X9.7784Y-6.4188
X9.8071Y-6.5432
X9.8108Y-6.4001
X9.8202Y-5.2688
X9.8395Y-6.5245
X9.8518Y-5.3867
X9.8525Y-4.4578
X9.8563Y-5.2591
X9.8719Y-6.5058
X9.8841Y-4.5757
X9.8879Y-5.377
X9.8886Y-4.4481
X9.8925Y-5.2494
X9.9202Y-4.566
X9.9241Y-5.3673
X9.9247Y-4.4384
X9.93Y-2.7806
X9.9563Y-4.5563
X9.9616Y-2.8985
X9.9661Y-2.7709
X9.9977Y-2.8888
X10.0022Y-2.7612
X10.0338Y-2.8791
X10.0466Y-5.1822
X10.0782Y-5.3001
X10.0827Y-5.1725
X10.1143Y-5.2904
X10.1188Y-5.1629
X10.1241Y-3.505
X10.1368Y-6.0964
X10.1483Y-2.6639
X10.1504Y-5.2808
X10.1557Y-3.6229
X10.1602Y-3.4953
X10.1692Y-6.0777
X10.1798Y-2.7817
X10.1844Y-2.6542
X10.1918Y-3.6132
X10.1963Y-3.4857
X10.1978Y-6.2021
X10.2016Y-6.059
X10.216Y-2.7721
X10.2205Y-2.6445
X10.2279Y-3.6036
X10.2302Y-6.1834
X10.2521Y-2.7624
X10.2626Y-6.1647
X10.3182Y-4.2295
X10.3424Y-3.3883
X10.3498Y-4.3474
X10.3543Y-4.2198
X10.374Y-3.5062
X10.3785Y-3.3786
X10.3859Y-4.3377
X10.3904Y-4.2101
X10.4101Y-3.4965
X10.4146Y-3.3689
X10.422Y-4.328
X10.4462Y-3.4868
X10.5123Y-4.9539
X10.5307Y-6.0231
X10.5365Y-4.1127
X10.5439Y-5.0718
X10.5484Y-4.9442
X10.5623Y-6.141
X10.5668Y-6.0134
X10.5681Y-4.2306
X10.5726Y-4.1031
X10.58Y-5.0621
X10.5846Y-4.9346
X10.5984Y-6.1313
X10.603Y-6.0037
X10.6042Y-4.221
X10.6087Y-4.0934
X10.614Y-2.4355
X10.6161Y-5.0524
X10.6346Y-6.1216
X10.6403Y-4.2113
X10.6456Y-2.5534
X10.6501Y-2.4259
X10.6817Y-2.5437
X10.6862Y-2.4162
X10.7178Y-2.5341
X10.7306Y-4.8372
X10.7622Y-4.9551
X10.7667Y-4.8275
X10.7983Y-4.9454
X10.8029Y-4.8178
X10.8081Y-3.16
X10.8344Y-4.9357
X10.8397Y-3.2779
X10.8442Y-3.1503
X10.8758Y-3.2682
X10.8803Y-3.1406
X10.9119Y-3.2585
X10.9131Y-2.6207
X10.9447Y-2.7386
X10.9493Y-2.611
X10.9809Y-2.7289
X10.9854Y-2.6013
X10.9964Y-5.7948
X11.0022Y-3.8844
X11.017Y-2.7192
X11.028Y-5.9127
X11.0326Y-5.7851
X11.0338Y-4.0023
X11.0383Y-3.8747
X11.0641Y-5.903
X11.0687Y-5.7754
X11.0699Y-3.9926
X11.0744Y-3.8651
X11.1003Y-5.8933
X11.106Y-3.983
X11.1073Y-3.3451
X11.1388Y-3.463
X11.1434Y-3.3354
X11.175Y-3.4533
X11.1795Y-3.3258
X11.1963Y-4.6089
X11.2111Y-3.4436
X11.2279Y-4.7268
X11.2324Y-4.5992
X11.264Y-4.7171
X11.2686Y-4.5895
X11.3002Y-4.7074
X11.3014Y-4.0696
X11.333Y-4.1874
X11.3375Y-4.0599
X11.3691Y-4.1778
X11.3736Y-4.0502
X11.3789Y-2.3924
X11.4052Y-4.1681
X11.4104Y-2.5102
X11.415Y-2.3827
X11.4466Y-2.5006
X11.4511Y-2.373
X11.4827Y-2.4909
X11.4955Y-4.794
X11.5271Y-4.9119
X11.5316Y-4.7843
X11.5632Y-4.9022
X11.5677Y-4.7746
X11.573Y-3.1168
X11.5993Y-4.8925
X11.6046Y-3.2347
X11.6091Y-3.1071
X11.6407Y-3.225
X11.6452Y-3.0974
X11.6768Y-3.2153
X11.6861Y-2.6077
X11.6896Y-5.5184
X11.7177Y-2.7256
X11.7212Y-5.6363
X11.7222Y-2.598
X11.7257Y-5.5088
X11.7538Y-2.7159
X11.7573Y-5.6267
X11.7584Y-2.5883
X11.7618Y-5.4991
X11.7671Y-3.8412
X11.79Y-2.7062
X11.7934Y-5.617
X11.7987Y-3.9591
X11.8032Y-3.8316
X11.8348Y-3.9494
X11.8393Y-3.8219
X11.8709Y-3.9398
X11.8802Y-3.3321
X11.9118Y-3.45
X11.9164Y-3.3224
X11.9479Y-3.4403
X11.9525Y-3.3127
X11.9612Y-4.5657
X11.9841Y-3.4306
X11.9928Y-4.6836
X11.9973Y-4.556
X12.0289Y-4.6739
X12.0334Y-4.5463
X12.065Y-4.6642
X12.0743Y-4.0566
X12.1059Y-4.1744
X12.1105Y-4.0469
X12.1421Y-4.1648
X12.1466Y-4.0372
X12.1518Y-2.3793
X12.1553Y-5.2901
X12.1782Y-4.1551
X12.1834Y-2.4972
X12.1869Y-5.408
X12.188Y-2.3697
X12.1914Y-5.2804
X12.2195Y-2.4876
X12.223Y-5.3983
X12.2241Y-2.36
X12.2276Y-5.2708
X12.2557Y-2.4779
X12.2592Y-5.3887
X12.2685Y-4.781
X12.3Y-4.8989
X12.3046Y-4.7713
X12.3362Y-4.8892
X12.3407Y-4.7616
X12.3459Y-3.1038
X12.3723Y-4.8795
X12.3775Y-3.2217
X12.3821Y-3.0941
X12.4137Y-3.212
X12.4182Y-3.0844
X12.4348Y-2.5041
X12.4498Y-3.2023
X12.4626Y-5.5054
X12.4664Y-2.622
X12.4709Y-2.4944
X12.4942Y-5.6233
X12.4987Y-5.4958
X12.5025Y-2.6123
X12.5071Y-2.4847
X12.5303Y-5.6136
X12.5348Y-5.4861
X12.5387Y-2.6026
X12.5401Y-3.8282
X12.5664Y-5.604
X12.5716Y-3.9461
X12.5762Y-3.8186
X12.6078Y-3.9364
X12.6123Y-3.8089
X12.6289Y-3.2285
X12.6439Y-3.9268
X12.6605Y-3.3464
X12.6651Y-3.2189
X12.6966Y-3.3368
X12.7012Y-3.2092
X12.7328Y-3.3271
X12.7342Y-4.5527
X12.7658Y-4.6706
X12.7703Y-4.543
X12.8019Y-4.6609
X12.8064Y-4.5333
X12.823Y-3.953
X12.838Y-4.6512
X12.8546Y-4.0709
X12.8592Y-3.9433
X12.8908Y-4.0612
X12.8953Y-3.9336
X12.9005Y-2.2758
X12.9269Y-4.0515
X12.9283Y-5.2771
X12.9321Y-2.3937
X12.9367Y-2.2661
X12.9599Y-5.395
X12.9644Y-5.2674
X12.9682Y-2.384
X12.9728Y-2.2564
X12.996Y-5.3853
X13.0005Y-5.2578
X13.0044Y-2.3743
X13.0172Y-4.6774
X13.0321Y-5.3757
X13.0488Y-4.7953
X13.0533Y-4.6678
X13.0849Y-4.7856
X13.0894Y-4.6581
X13.0946Y-3.0002
X13.121Y-4.776
X13.1262Y-3.1181
X13.1308Y-2.9906
X13.1624Y-3.1084
X13.1669Y-2.9809
X13.1985Y-3.0988
X13.2113Y-5.4019
X13.2429Y-5.5198
X13.2474Y-5.3922
X13.279Y-5.5101
X13.2835Y-5.3825
X13.2888Y-3.7247
X13.3151Y-5.5004
X13.3204Y-3.8426
X13.3249Y-3.715
X13.3565Y-3.8329
X13.361Y-3.7053
X13.3926Y-3.8232
X13.4829Y-4.4491
X13.5145Y-4.567
X13.519Y-4.4394
X13.5506Y-4.5573
X13.5551Y-4.4298
X13.5867Y-4.5477
X13.677Y-5.1736
X13.7086Y-5.2915
X13.7131Y-5.1639
X13.7447Y-5.2818
X13.7492Y-5.1542
X13.7808Y-5.2721
T5
X7.3878Y-5.0484
X7.3878Y-5.1185
X7.3878Y-5.1886
X7.3878Y-5.2587
X7.3878Y-5.3287
X7.3878Y-5.3988
X7.3878Y-5.4689
X7.3878Y-5.539
X7.8091Y-5.0134
X7.8091Y-5.0835
X7.8091Y-5.1535
X7.8091Y-5.2236
X7.8091Y-5.2937
X7.8091Y-5.3638
X7.8091Y-5.4339
X7.8091Y-5.5039
T6
X6.5551Y-3.7394
X6.5551Y-3.8394
X6.5551Y-3.9394
X6.5551Y-4.0394
X6.811Y-2.5425
X6.811Y-2.6425
X6.811Y-2.7425
X6.811Y-2.8425
X6.811Y-2.9425
X6.811Y-3.0425
X6.811Y-3.1425
X8.1037Y-4.1641
X8.189Y-4.2134
X8.2742Y-4.2626
X8.3031Y-3.6396
X8.3031Y-3.7396
X8.3031Y-3.8396
T7
X6.8209Y-2.2126
X6.8209Y-3.4724
X8.376Y-2.2126
X8.376Y-3.4724
T8
X6.7084Y-5.9831
X7.3967Y-6.3805
T9
X1.5193Y-5.3401
X1.7134Y-4.6157
X1.7867Y-5.3082
X1.9076Y-3.8912
X1.9808Y-4.5838
X2.1017Y-3.1668
X2.1749Y-3.8594
X2.268Y-5.4437
X2.2958Y-2.4424
X2.369Y-3.1349
X2.4622Y-4.7192
X2.5354Y-5.4118
X2.5632Y-2.4105
X2.6563Y-3.9948
X2.7295Y-4.6874
X2.8504Y-3.2704
X2.9236Y-3.9629
X3.041Y-5.4567
X3.0445Y-2.5459
X3.1177Y-3.2385
X3.2351Y-4.7322
X3.3084Y-5.4248
X3.3119Y-2.514
X3.4292Y-4.0078
X3.5025Y-4.7004
X3.6234Y-3.2834
X3.6966Y-3.9759
X3.8175Y-2.5589
X3.8907Y-3.2515
X4.0Y-4.7754
X4.0848Y-2.527
X4.1941Y-4.051
X4.1999Y-5.9613
X4.2674Y-4.7435
X4.3882Y-3.3265
X4.4615Y-4.0191
X4.4673Y-5.9294
X4.5824Y-2.6021
X4.6556Y-3.2947
X4.684Y-5.1205
X4.8497Y-2.5702
X4.8781Y-4.396
X4.9514Y-5.0886
X5.0164Y-6.2572
X5.0722Y-3.6716
X5.1455Y-4.3641
X5.2664Y-2.9471
X5.2829Y-6.2956
X5.3396Y-3.6397
X5.3761Y-5.4353
X5.5337Y-2.9153
X5.5702Y-4.7109
X5.6435Y-5.4034
X5.7286Y-6.7542
X5.7643Y-3.9864
X5.8376Y-4.679
X5.9584Y-3.262
X5.976Y-6.8603
X6.0317Y-3.9546
X6.2258Y-3.2301
X6.6313Y-6.5298
X6.8978Y-6.5682
X7.4484Y-7.5791
X7.4484Y-6.8291
X7.6984Y-7.4791
X7.6984Y-6.7291
X8.3058Y-6.6798
X8.4723Y-6.4682
X8.9486Y-3.3396
X9.1427Y-4.0641
X9.1642Y-3.1783
X9.2562Y-6.9664
X9.3369Y-4.7885
X9.3583Y-3.9028
X9.3622Y-6.7189
X9.531Y-5.513
X9.5525Y-4.6272
X9.6407Y-3.0248
X9.7466Y-5.3517
X9.8348Y-3.7492
X9.8563Y-2.8635
X9.9206Y-6.4072
X10.0289Y-4.4737
X10.0504Y-3.5879
X10.0871Y-6.1956
X10.2231Y-5.1981
X10.2445Y-4.3124
X10.3247Y-2.6797
X10.4387Y-5.0368
X10.5188Y-3.4042
X10.5403Y-2.5184
X10.7072Y-6.039
X10.7129Y-4.1286
X10.7344Y-3.2429
X10.9071Y-4.8531
X10.9228Y-5.8777
X10.9285Y-3.9673
X11.0896Y-2.6366
X11.1227Y-4.6918
X11.2837Y-3.361
X11.3052Y-2.4753
X11.4778Y-4.0854
X11.4993Y-3.1997
X11.6719Y-4.8099
X11.6934Y-3.9242
X11.8626Y-2.6236
X11.8661Y-5.5343
X11.8875Y-4.6486
X12.0567Y-3.348
X12.0782Y-2.4623
X12.0817Y-5.373
X12.2508Y-4.0724
X12.2723Y-3.1867
X12.4449Y-4.7969
X12.4664Y-3.9111
X12.6113Y-2.52
X12.639Y-5.5213
X12.6605Y-4.6356
X12.8054Y-3.2444
X12.8269Y-2.3587
X12.8546Y-5.36
X12.9995Y-3.9689
X13.021Y-3.0831
X13.1936Y-4.6933
X13.2151Y-3.8076
X13.3877Y-5.4178
X13.4092Y-4.532
X13.6033Y-5.2565
T10
X7.1297Y-7.9541
X8.0672Y-7.9541
T11
X2.8157Y-6.0089
X6.063Y-7.4016
X6.6024Y-2.266
X7.0551Y-5.2362
X8.1417Y-5.2362
X8.5945Y-2.266
X9.1339Y-7.4016
X12.3812Y-6.0089
T4
G00X7.3772Y-1.8425
M15
G01X7.3772Y-1.8898
M16
G05
G00X7.3772Y-2.0079
M15
G01X7.3772Y-2.0394
M16
G05
G00X7.8197Y-1.8425
M15
G01X7.8197Y-1.8898
M16
G05
G00X7.8197Y-2.0079
M15
G01X7.8197Y-2.0394
M16
G05
T11
G00X6.6994Y-4.583
M15
G01X6.6994Y-4.583
M16
G05
G00X8.6145Y-5.6886
M15
G01X8.6145Y-5.6886
M16
G05
T0
M30
