%TF.GenerationSoftware,KiCad,Pcbnew,7.0.5*%
%TF.CreationDate,2023-06-11T11:23:04+01:00*%
%TF.ProjectId,Honeydew,486f6e65-7964-4657-972e-6b696361645f,V2.0*%
%TF.SameCoordinates,Original*%
%TF.FileFunction,Paste,Bot*%
%TF.FilePolarity,Positive*%
%FSLAX46Y46*%
G04 Gerber Fmt 4.6, Leading zero omitted, Abs format (unit mm)*
G04 Created by KiCad (PCBNEW 7.0.5) date 2023-06-11 11:23:04*
%MOMM*%
%LPD*%
G01*
G04 APERTURE LIST*
G04 Aperture macros list*
%AMRoundRect*
0 Rectangle with rounded corners*
0 $1 Rounding radius*
0 $2 $3 $4 $5 $6 $7 $8 $9 X,Y pos of 4 corners*
0 Add a 4 corners polygon primitive as box body*
4,1,4,$2,$3,$4,$5,$6,$7,$8,$9,$2,$3,0*
0 Add four circle primitives for the rounded corners*
1,1,$1+$1,$2,$3*
1,1,$1+$1,$4,$5*
1,1,$1+$1,$6,$7*
1,1,$1+$1,$8,$9*
0 Add four rect primitives between the rounded corners*
20,1,$1+$1,$2,$3,$4,$5,0*
20,1,$1+$1,$4,$5,$6,$7,0*
20,1,$1+$1,$6,$7,$8,$9,0*
20,1,$1+$1,$8,$9,$2,$3,0*%
%AMRotRect*
0 Rectangle, with rotation*
0 The origin of the aperture is its center*
0 $1 length*
0 $2 width*
0 $3 Rotation angle, in degrees counterclockwise*
0 Add horizontal line*
21,1,$1,$2,0,0,$3*%
%AMFreePoly0*
4,1,51,0.532219,0.614745,0.539696,0.609939,0.548496,0.608674,0.568109,0.591679,0.589937,0.577652,0.593629,0.569566,0.600348,0.563745,0.607658,0.538848,0.618438,0.515244,0.617172,0.506443,0.619677,0.497915,0.619677,-0.497915,0.614745,-0.532219,0.609939,-0.539696,0.608674,-0.548496,0.591679,-0.568109,0.577652,-0.589937,0.569566,-0.593629,0.563745,-0.600348,0.538848,-0.607658,
0.515244,-0.618438,0.506443,-0.617172,0.497915,-0.619677,-0.497915,-0.619677,-0.532219,-0.614745,-0.539696,-0.609939,-0.548496,-0.608674,-0.568109,-0.591679,-0.589937,-0.577652,-0.593629,-0.569566,-0.600348,-0.563745,-0.607658,-0.538848,-0.618438,-0.515244,-0.617172,-0.506443,-0.619677,-0.497915,-0.619677,0.397045,-0.616582,0.418565,-0.616895,0.422927,-0.615620,0.425261,-0.614745,0.431349,
-0.598456,0.456693,-0.584014,0.483144,-0.483144,0.584014,-0.465738,0.597042,-0.462875,0.600348,-0.460322,0.601097,-0.455399,0.604783,-0.425958,0.611187,-0.397045,0.619677,0.497915,0.619677,0.532219,0.614745,0.532219,0.614745,$1*%
%AMFreePoly1*
4,1,51,0.532219,0.614745,0.539696,0.609939,0.548496,0.608674,0.568109,0.591679,0.589937,0.577652,0.593629,0.569566,0.600348,0.563745,0.607658,0.538848,0.618438,0.515244,0.617172,0.506443,0.619677,0.497915,0.619677,-0.497915,0.614745,-0.532219,0.609939,-0.539696,0.608674,-0.548496,0.591679,-0.568109,0.577652,-0.589937,0.569566,-0.593629,0.563745,-0.600348,0.538848,-0.607658,
0.515244,-0.618438,0.506443,-0.617172,0.497915,-0.619677,-0.397045,-0.619677,-0.418563,-0.616583,-0.422927,-0.616895,-0.425261,-0.615620,-0.431349,-0.614745,-0.456693,-0.598456,-0.483144,-0.584014,-0.584014,-0.483144,-0.597044,-0.465737,-0.600348,-0.462875,-0.601097,-0.460323,-0.604783,-0.455400,-0.611187,-0.425956,-0.619677,-0.397045,-0.619677,0.497915,-0.614745,0.532219,-0.609939,0.539696,
-0.608674,0.548496,-0.591679,0.568109,-0.577652,0.589937,-0.569566,0.593629,-0.563745,0.600348,-0.538848,0.607658,-0.515244,0.618438,-0.506443,0.617172,-0.497915,0.619677,0.497915,0.619677,0.532219,0.614745,0.532219,0.614745,$1*%
%AMFreePoly2*
4,1,51,0.418565,0.616582,0.422927,0.616895,0.425261,0.615620,0.431349,0.614745,0.456693,0.598456,0.483144,0.584014,0.584014,0.483144,0.597042,0.465738,0.600348,0.462875,0.601097,0.460322,0.604783,0.455399,0.611187,0.425958,0.619677,0.397045,0.619677,-0.497915,0.614745,-0.532219,0.609939,-0.539696,0.608674,-0.548496,0.591679,-0.568109,0.577652,-0.589937,0.569566,-0.593629,
0.563745,-0.600348,0.538848,-0.607658,0.515244,-0.618438,0.506443,-0.617172,0.497915,-0.619677,-0.497915,-0.619677,-0.532219,-0.614745,-0.539696,-0.609939,-0.548496,-0.608674,-0.568109,-0.591679,-0.589937,-0.577652,-0.593629,-0.569566,-0.600348,-0.563745,-0.607658,-0.538848,-0.618438,-0.515244,-0.617172,-0.506443,-0.619677,-0.497915,-0.619677,0.497915,-0.614745,0.532219,-0.609939,0.539696,
-0.608674,0.548496,-0.591679,0.568109,-0.577652,0.589937,-0.569566,0.593629,-0.563745,0.600348,-0.538848,0.607658,-0.515244,0.618438,-0.506443,0.617172,-0.497915,0.619677,0.397045,0.619677,0.418565,0.616582,0.418565,0.616582,$1*%
%AMFreePoly3*
4,1,51,0.532219,0.614745,0.539696,0.609939,0.548496,0.608674,0.568109,0.591679,0.589937,0.577652,0.593629,0.569566,0.600348,0.563745,0.607658,0.538848,0.618438,0.515244,0.617172,0.506443,0.619677,0.497915,0.619677,-0.397045,0.616583,-0.418563,0.616895,-0.422927,0.615620,-0.425261,0.614745,-0.431349,0.598456,-0.456693,0.584014,-0.483144,0.483144,-0.584014,0.465737,-0.597044,
0.462875,-0.600348,0.460323,-0.601097,0.455400,-0.604783,0.425956,-0.611187,0.397045,-0.619677,-0.497915,-0.619677,-0.532219,-0.614745,-0.539696,-0.609939,-0.548496,-0.608674,-0.568109,-0.591679,-0.589937,-0.577652,-0.593629,-0.569566,-0.600348,-0.563745,-0.607658,-0.538848,-0.618438,-0.515244,-0.617172,-0.506443,-0.619677,-0.497915,-0.619677,0.497915,-0.614745,0.532219,-0.609939,0.539696,
-0.608674,0.548496,-0.591679,0.568109,-0.577652,0.589937,-0.569566,0.593629,-0.563745,0.600348,-0.538848,0.607658,-0.515244,0.618438,-0.506443,0.617172,-0.497915,0.619677,0.497915,0.619677,0.532219,0.614745,0.532219,0.614745,$1*%
G04 Aperture macros list end*
%ADD10C,0.010000*%
%ADD11RotRect,2.500000X2.500000X150.000000*%
%ADD12RotRect,2.500000X2.500000X135.000000*%
%ADD13RotRect,2.500000X2.500000X165.000000*%
%ADD14RotRect,2.500000X2.500000X195.000000*%
%ADD15RoundRect,0.112500X-0.157195X0.151994X-0.060138X-0.210228X0.157195X-0.151994X0.060138X0.210228X0*%
%ADD16RoundRect,0.140000X0.170000X-0.140000X0.170000X0.140000X-0.170000X0.140000X-0.170000X-0.140000X0*%
%ADD17RoundRect,0.135000X0.185000X-0.135000X0.185000X0.135000X-0.185000X0.135000X-0.185000X-0.135000X0*%
%ADD18R,0.400000X0.800000*%
%ADD19RotRect,1.700000X1.000000X330.000000*%
%ADD20R,2.500000X2.500000*%
%ADD21RoundRect,0.150000X-0.150000X0.512500X-0.150000X-0.512500X0.150000X-0.512500X0.150000X0.512500X0*%
%ADD22RoundRect,0.112500X-0.060138X0.210228X-0.157195X-0.151994X0.060138X-0.210228X0.157195X0.151994X0*%
%ADD23RoundRect,0.140000X-0.140000X-0.170000X0.140000X-0.170000X0.140000X0.170000X-0.140000X0.170000X0*%
%ADD24R,0.650000X0.750000*%
%ADD25R,0.300000X0.500000*%
%ADD26RotRect,1.700000X1.000000X195.000000*%
%ADD27RoundRect,0.135000X0.135000X0.185000X-0.135000X0.185000X-0.135000X-0.185000X0.135000X-0.185000X0*%
%ADD28RoundRect,0.140000X-0.091230X-0.200442X0.179229X-0.127973X0.091230X0.200442X-0.179229X0.127973X0*%
%ADD29RotRect,1.700000X1.000000X22.500000*%
%ADD30RoundRect,0.140000X-0.179229X-0.127973X0.091230X-0.200442X0.179229X0.127973X-0.091230X0.200442X0*%
%ADD31RoundRect,0.225000X0.250000X-0.225000X0.250000X0.225000X-0.250000X0.225000X-0.250000X-0.225000X0*%
%ADD32RoundRect,0.140000X0.091230X0.200442X-0.179229X0.127973X-0.091230X-0.200442X0.179229X-0.127973X0*%
%ADD33RoundRect,0.225000X-0.335876X-0.017678X-0.017678X-0.335876X0.335876X0.017678X0.017678X0.335876X0*%
%ADD34RotRect,1.700000X1.000000X345.000000*%
%ADD35RoundRect,0.112500X-0.191178X0.106130X-0.003678X-0.218630X0.191178X-0.106130X0.003678X0.218630X0*%
%ADD36RoundRect,0.140000X0.179229X0.127973X-0.091230X0.200442X-0.179229X-0.127973X0.091230X-0.200442X0*%
%ADD37RoundRect,0.135000X-0.185000X0.135000X-0.185000X-0.135000X0.185000X-0.135000X0.185000X0.135000X0*%
%ADD38RotRect,2.500000X2.500000X210.000000*%
%ADD39RotRect,1.700000X1.000000X15.000000*%
%ADD40RoundRect,0.140000X0.206244X0.077224X-0.036244X0.217224X-0.206244X-0.077224X0.036244X-0.217224X0*%
%ADD41RotRect,1.700000X1.000000X337.500000*%
%ADD42RoundRect,0.140000X-0.219203X-0.021213X-0.021213X-0.219203X0.219203X0.021213X0.021213X0.219203X0*%
%ADD43RoundRect,0.225000X-0.225000X-0.250000X0.225000X-0.250000X0.225000X0.250000X-0.225000X0.250000X0*%
%ADD44RoundRect,0.140000X0.219203X0.021213X0.021213X0.219203X-0.219203X-0.021213X-0.021213X-0.219203X0*%
%ADD45RoundRect,0.140000X0.021213X-0.219203X0.219203X-0.021213X-0.021213X0.219203X-0.219203X0.021213X0*%
%ADD46RoundRect,0.135000X-0.135000X-0.185000X0.135000X-0.185000X0.135000X0.185000X-0.135000X0.185000X0*%
%ADD47RoundRect,0.225000X0.225000X0.250000X-0.225000X0.250000X-0.225000X-0.250000X0.225000X-0.250000X0*%
%ADD48RoundRect,0.112500X-0.187500X-0.112500X0.187500X-0.112500X0.187500X0.112500X-0.187500X0.112500X0*%
%ADD49R,0.300000X0.550000*%
%ADD50RoundRect,0.225000X-0.250000X0.225000X-0.250000X-0.225000X0.250000X-0.225000X0.250000X0.225000X0*%
%ADD51RoundRect,0.140000X0.036244X0.217224X-0.206244X0.077224X-0.036244X-0.217224X0.206244X-0.077224X0*%
%ADD52RoundRect,0.112500X-0.003678X0.218630X-0.191178X-0.106130X0.003678X-0.218630X0.191178X0.106130X0*%
%ADD53R,1.000000X0.800000*%
%ADD54R,0.700000X1.500000*%
%ADD55RotRect,1.700000X1.000000X30.000000*%
%ADD56RoundRect,0.112500X-0.112500X0.187500X-0.112500X-0.187500X0.112500X-0.187500X0.112500X0.187500X0*%
%ADD57RoundRect,0.140000X0.140000X0.170000X-0.140000X0.170000X-0.140000X-0.170000X0.140000X-0.170000X0*%
%ADD58RoundRect,0.140000X-0.021213X0.219203X-0.219203X0.021213X0.021213X-0.219203X0.219203X-0.021213X0*%
%ADD59RoundRect,0.250000X0.250000X0.475000X-0.250000X0.475000X-0.250000X-0.475000X0.250000X-0.475000X0*%
%ADD60RotRect,1.700000X1.000000X165.000000*%
%ADD61RoundRect,0.150000X-0.512500X-0.150000X0.512500X-0.150000X0.512500X0.150000X-0.512500X0.150000X0*%
%ADD62FreePoly0,225.000000*%
%ADD63FreePoly1,225.000000*%
%ADD64FreePoly2,225.000000*%
%ADD65FreePoly3,225.000000*%
%ADD66RoundRect,0.050000X0.238649X0.309359X-0.309359X-0.238649X-0.238649X-0.309359X0.309359X0.238649X0*%
%ADD67RoundRect,0.050000X-0.238649X0.309359X-0.309359X0.238649X0.238649X-0.309359X0.309359X-0.238649X0*%
%ADD68RoundRect,0.150000X0.150000X-0.512500X0.150000X0.512500X-0.150000X0.512500X-0.150000X-0.512500X0*%
%ADD69RotRect,1.700000X1.000000X247.500000*%
%ADD70R,0.400000X0.650000*%
%ADD71R,1.700000X1.000000*%
%ADD72RoundRect,0.150000X0.200000X-0.150000X0.200000X0.150000X-0.200000X0.150000X-0.200000X-0.150000X0*%
%ADD73R,1.550000X1.000000*%
%ADD74RoundRect,0.050000X0.375000X0.050000X-0.375000X0.050000X-0.375000X-0.050000X0.375000X-0.050000X0*%
%ADD75RoundRect,0.050000X0.050000X0.275000X-0.050000X0.275000X-0.050000X-0.275000X0.050000X-0.275000X0*%
%ADD76RotRect,1.700000X1.000000X202.500000*%
%ADD77RoundRect,0.218750X-0.218750X-0.381250X0.218750X-0.381250X0.218750X0.381250X-0.218750X0.381250X0*%
%ADD78RotRect,1.700000X1.000000X315.000000*%
%ADD79RoundRect,0.140000X0.064287X0.210635X-0.194399X0.103484X-0.064287X-0.210635X0.194399X-0.103484X0*%
%ADD80RoundRect,0.150000X-0.825000X-0.150000X0.825000X-0.150000X0.825000X0.150000X-0.825000X0.150000X0*%
%ADD81RoundRect,0.140000X-0.210635X0.064287X-0.103484X-0.194399X0.210635X-0.064287X0.103484X0.194399X0*%
%ADD82R,0.600000X1.050000*%
%ADD83R,0.300000X1.050000*%
%ADD84RoundRect,0.112500X0.187500X0.112500X-0.187500X0.112500X-0.187500X-0.112500X0.187500X-0.112500X0*%
%ADD85RoundRect,0.140000X0.103484X-0.194399X0.210635X0.064287X-0.103484X0.194399X-0.210635X-0.064287X0*%
%ADD86RoundRect,0.140000X-0.194399X-0.103484X0.064287X-0.210635X0.194399X0.103484X-0.064287X0.210635X0*%
%ADD87R,2.700000X0.800000*%
%ADD88RoundRect,0.140000X-0.170000X0.140000X-0.170000X-0.140000X0.170000X-0.140000X0.170000X0.140000X0*%
%ADD89RoundRect,0.135000X0.226274X0.035355X0.035355X0.226274X-0.226274X-0.035355X-0.035355X-0.226274X0*%
%ADD90RoundRect,0.140000X0.194399X0.103484X-0.064287X0.210635X-0.194399X-0.103484X0.064287X-0.210635X0*%
%ADD91RoundRect,0.135000X-0.226274X-0.035355X-0.035355X-0.226274X0.226274X0.035355X0.035355X0.226274X0*%
%ADD92RotRect,1.700000X1.000000X45.000000*%
%ADD93RoundRect,0.200000X0.275000X-0.200000X0.275000X0.200000X-0.275000X0.200000X-0.275000X-0.200000X0*%
%ADD94RotRect,1.700000X1.000000X67.500000*%
%ADD95RoundRect,0.140000X0.210635X-0.064287X0.103484X0.194399X-0.210635X0.064287X-0.103484X-0.194399X0*%
%ADD96RoundRect,0.150000X0.353553X0.565685X-0.565685X-0.353553X-0.353553X-0.565685X0.565685X0.353553X0*%
%ADD97RoundRect,0.112500X-0.212132X0.053033X0.053033X-0.212132X0.212132X-0.053033X-0.053033X0.212132X0*%
%ADD98RoundRect,0.150000X0.825000X0.150000X-0.825000X0.150000X-0.825000X-0.150000X0.825000X-0.150000X0*%
%ADD99RoundRect,0.140000X-0.064287X-0.210635X0.194399X-0.103484X0.064287X0.210635X-0.194399X0.103484X0*%
%ADD100RoundRect,0.135000X0.035355X-0.226274X0.226274X-0.035355X-0.035355X0.226274X-0.226274X0.035355X0*%
%ADD101RoundRect,0.140000X-0.103484X0.194399X-0.210635X-0.064287X0.103484X-0.194399X0.210635X0.064287X0*%
%ADD102RotRect,1.700000X1.000000X292.500000*%
%ADD103RotRect,1.700000X1.000000X112.500000*%
%ADD104RotRect,1.400000X1.200000X315.000000*%
%ADD105RotRect,2.500000X2.500000X225.000000*%
%ADD106RoundRect,0.250000X-0.262500X-0.450000X0.262500X-0.450000X0.262500X0.450000X-0.262500X0.450000X0*%
%ADD107RoundRect,0.150000X0.512500X0.150000X-0.512500X0.150000X-0.512500X-0.150000X0.512500X-0.150000X0*%
%ADD108RoundRect,0.112500X0.053033X0.212132X-0.212132X-0.053033X-0.053033X-0.212132X0.212132X0.053033X0*%
%ADD109R,0.650000X0.400000*%
%ADD110RoundRect,0.112500X0.112500X-0.187500X0.112500X0.187500X-0.112500X0.187500X-0.112500X-0.187500X0*%
%ADD111RotRect,1.700000X1.000000X157.500000*%
G04 APERTURE END LIST*
%TO.C,J3*%
D10*
X200874960Y-128850012D02*
X200624960Y-128850012D01*
X200624960Y-128200012D01*
X200874960Y-128200012D01*
X200874960Y-128850012D01*
G36*
X200874960Y-128850012D02*
G01*
X200624960Y-128850012D01*
X200624960Y-128200012D01*
X200874960Y-128200012D01*
X200874960Y-128850012D01*
G37*
X200374960Y-128850012D02*
X200124960Y-128850012D01*
X200124960Y-128200012D01*
X200374960Y-128200012D01*
X200374960Y-128850012D01*
G36*
X200374960Y-128850012D02*
G01*
X200124960Y-128850012D01*
X200124960Y-128200012D01*
X200374960Y-128200012D01*
X200374960Y-128850012D01*
G37*
X199874960Y-128850012D02*
X199624960Y-128850012D01*
X199624960Y-128200012D01*
X199874960Y-128200012D01*
X199874960Y-128850012D01*
G36*
X199874960Y-128850012D02*
G01*
X199624960Y-128850012D01*
X199624960Y-128200012D01*
X199874960Y-128200012D01*
X199874960Y-128850012D01*
G37*
X199374960Y-128850012D02*
X199124960Y-128850012D01*
X199124960Y-128200012D01*
X199374960Y-128200012D01*
X199374960Y-128850012D01*
G36*
X199374960Y-128850012D02*
G01*
X199124960Y-128850012D01*
X199124960Y-128200012D01*
X199374960Y-128200012D01*
X199374960Y-128850012D01*
G37*
X198874960Y-128850012D02*
X198624960Y-128850012D01*
X198624960Y-128200012D01*
X198874960Y-128200012D01*
X198874960Y-128850012D01*
G36*
X198874960Y-128850012D02*
G01*
X198624960Y-128850012D01*
X198624960Y-128200012D01*
X198874960Y-128200012D01*
X198874960Y-128850012D01*
G37*
X198374960Y-128850012D02*
X198124960Y-128850012D01*
X198124960Y-128200012D01*
X198374960Y-128200012D01*
X198374960Y-128850012D01*
G36*
X198374960Y-128850012D02*
G01*
X198124960Y-128850012D01*
X198124960Y-128200012D01*
X198374960Y-128200012D01*
X198374960Y-128850012D01*
G37*
X197874960Y-128850012D02*
X197624960Y-128850012D01*
X197624960Y-128200012D01*
X197874960Y-128200012D01*
X197874960Y-128850012D01*
G36*
X197874960Y-128850012D02*
G01*
X197624960Y-128850012D01*
X197624960Y-128200012D01*
X197874960Y-128200012D01*
X197874960Y-128850012D01*
G37*
X197374960Y-128850012D02*
X197124960Y-128850012D01*
X197124960Y-128200012D01*
X197374960Y-128200012D01*
X197374960Y-128850012D01*
G36*
X197374960Y-128850012D02*
G01*
X197124960Y-128850012D01*
X197124960Y-128200012D01*
X197374960Y-128200012D01*
X197374960Y-128850012D01*
G37*
X196874960Y-128850012D02*
X196624960Y-128850012D01*
X196624960Y-128200012D01*
X196874960Y-128200012D01*
X196874960Y-128850012D01*
G36*
X196874960Y-128850012D02*
G01*
X196624960Y-128850012D01*
X196624960Y-128200012D01*
X196874960Y-128200012D01*
X196874960Y-128850012D01*
G37*
X196374960Y-128850012D02*
X196124960Y-128850012D01*
X196124960Y-128200012D01*
X196374960Y-128200012D01*
X196374960Y-128850012D01*
G36*
X196374960Y-128850012D02*
G01*
X196124960Y-128850012D01*
X196124960Y-128200012D01*
X196374960Y-128200012D01*
X196374960Y-128850012D01*
G37*
X195874960Y-128850012D02*
X195624960Y-128850012D01*
X195624960Y-128200012D01*
X195874960Y-128200012D01*
X195874960Y-128850012D01*
G36*
X195874960Y-128850012D02*
G01*
X195624960Y-128850012D01*
X195624960Y-128200012D01*
X195874960Y-128200012D01*
X195874960Y-128850012D01*
G37*
X195374960Y-128850012D02*
X195124960Y-128850012D01*
X195124960Y-128200012D01*
X195374960Y-128200012D01*
X195374960Y-128850012D01*
G36*
X195374960Y-128850012D02*
G01*
X195124960Y-128850012D01*
X195124960Y-128200012D01*
X195374960Y-128200012D01*
X195374960Y-128850012D01*
G37*
%TO.C,D97*%
G36*
X171918129Y-182302306D02*
G01*
X171418129Y-183168331D01*
X169945886Y-182318331D01*
X170270886Y-181755414D01*
X170748994Y-181627306D01*
X171918129Y-182302306D01*
G37*
%TO.C,D112*%
G36*
X256415522Y-156215851D02*
G01*
X256168035Y-156644512D01*
X254864035Y-156993918D01*
X254605216Y-156027992D01*
X256247290Y-155588000D01*
X256415522Y-156215851D01*
G37*
%TO.C,D138*%
G36*
X188935348Y-126081006D02*
G01*
X187364753Y-126731567D01*
X187116009Y-126131046D01*
X187305427Y-125673749D01*
X188552665Y-125157126D01*
X188935348Y-126081006D01*
G37*
%TO.C,D93*%
G36*
X82445673Y-155218239D02*
G01*
X82186854Y-156184165D01*
X80544780Y-155744172D01*
X80713012Y-155116320D01*
X81141673Y-154868833D01*
X82445673Y-155218239D01*
G37*
%TO.C,D129*%
G36*
X310054088Y-83233876D02*
G01*
X308412014Y-83673868D01*
X308243782Y-83046017D01*
X308491269Y-82617356D01*
X309795269Y-82267950D01*
X310054088Y-83233876D01*
G37*
%TO.C,D131*%
G36*
X203936536Y-123702929D02*
G01*
X203553853Y-124626809D01*
X201983257Y-123976247D01*
X202232002Y-123375725D01*
X202689299Y-123186306D01*
X203936536Y-123702929D01*
G37*
%TO.C,D69*%
G36*
X102167688Y-81614721D02*
G01*
X101908869Y-82580647D01*
X100266795Y-82140654D01*
X100435027Y-81512802D01*
X100863688Y-81265315D01*
X102167688Y-81614721D01*
G37*
%TO.C,D111*%
G36*
X273994657Y-148218544D02*
G01*
X273747170Y-148647205D01*
X272443170Y-148996611D01*
X272184351Y-148030685D01*
X273826425Y-147590693D01*
X273994657Y-148218544D01*
G37*
%TO.C,D68*%
G36*
X82534180Y-81284424D02*
G01*
X82275361Y-82250350D01*
X80633287Y-81810357D01*
X80801519Y-81182505D01*
X81230180Y-80935018D01*
X82534180Y-81284424D01*
G37*
%TO.C,D84*%
G36*
X146687588Y-136274807D02*
G01*
X146428769Y-137240733D01*
X144786695Y-136800740D01*
X144954927Y-136172888D01*
X145383588Y-135925401D01*
X146687588Y-136274807D01*
G37*
%TO.C,D108*%
G36*
X330429954Y-138027246D02*
G01*
X330182467Y-138455907D01*
X328878467Y-138805313D01*
X328619648Y-137839387D01*
X330261722Y-137399395D01*
X330429954Y-138027246D01*
G37*
%TO.C,D94*%
G36*
X111881180Y-168035978D02*
G01*
X111622361Y-169001904D01*
X109980287Y-168561911D01*
X110148519Y-167934059D01*
X110577180Y-167686572D01*
X111881180Y-168035978D01*
G37*
%TO.C,D106*%
G36*
X348793283Y-154207023D02*
G01*
X347151209Y-154647015D01*
X346982977Y-154019164D01*
X347230464Y-153590503D01*
X348534464Y-153241097D01*
X348793283Y-154207023D01*
G37*
%TO.C,D130*%
G36*
X329071285Y-80603473D02*
G01*
X327429211Y-81043465D01*
X327260979Y-80415614D01*
X327508466Y-79986953D01*
X328812466Y-79637547D01*
X329071285Y-80603473D01*
G37*
%TO.C,D116*%
G36*
X300281572Y-120365925D02*
G01*
X298639498Y-120805917D01*
X298471266Y-120178066D01*
X298718753Y-119749405D01*
X300022753Y-119399999D01*
X300281572Y-120365925D01*
G37*
%TO.C,D118*%
G36*
X338932281Y-117405239D02*
G01*
X337290207Y-117845231D01*
X337121975Y-117217380D01*
X337369462Y-116788719D01*
X338673462Y-116439313D01*
X338932281Y-117405239D01*
G37*
%TO.C,D109*%
G36*
X310796433Y-138357542D02*
G01*
X310548946Y-138786203D01*
X309244946Y-139135609D01*
X308986127Y-138169683D01*
X310628201Y-137729691D01*
X310796433Y-138357542D01*
G37*
%TO.C,D99*%
G36*
X221290909Y-185068326D02*
G01*
X219818666Y-185918326D01*
X219493666Y-185355409D01*
X219621774Y-184877301D01*
X220790909Y-184202301D01*
X221290909Y-185068326D01*
G37*
%TO.C,D79*%
G36*
X53655962Y-115455811D02*
G01*
X53397143Y-116421737D01*
X51755069Y-115981744D01*
X51923301Y-115353892D01*
X52351962Y-115106405D01*
X53655962Y-115455811D01*
G37*
%TO.C,D110*%
G36*
X291368359Y-139454490D02*
G01*
X291120872Y-139883151D01*
X289816872Y-140232557D01*
X289558053Y-139266631D01*
X291200127Y-138826639D01*
X291368359Y-139454490D01*
G37*
%TO.C,D120*%
G36*
X320568947Y-101225466D02*
G01*
X320321460Y-101654127D01*
X319017460Y-102003533D01*
X318758641Y-101037607D01*
X320400715Y-100597615D01*
X320568947Y-101225466D01*
G37*
%TO.C,D86*%
G36*
X129128213Y-149454165D02*
G01*
X128959981Y-150082017D01*
X128531320Y-150329504D01*
X127227320Y-149980098D01*
X127486139Y-149014172D01*
X129128213Y-149454165D01*
G37*
%TO.C,D105*%
G36*
X329776103Y-156837424D02*
G01*
X328134029Y-157277416D01*
X327965797Y-156649565D01*
X328213284Y-156220904D01*
X329517284Y-155871498D01*
X329776103Y-156837424D01*
G37*
%TO.C,D133*%
G36*
X217624254Y-147232038D02*
G01*
X217813673Y-147689335D01*
X217297050Y-148936572D01*
X216373170Y-148553889D01*
X217023732Y-146983293D01*
X217624254Y-147232038D01*
G37*
%TO.C,D100*%
G36*
X196099964Y-209850001D02*
G01*
X194399964Y-209850001D01*
X194399964Y-209200001D01*
X194749964Y-208850001D01*
X196099964Y-208850001D01*
X196099964Y-209850001D01*
G37*
%TO.C,D127*%
G36*
X270992495Y-84661131D02*
G01*
X269350421Y-85101123D01*
X269182189Y-84473272D01*
X269429676Y-84044611D01*
X270733676Y-83695205D01*
X270992495Y-84661131D01*
G37*
%TO.C,D98*%
G36*
X196099972Y-190800013D02*
G01*
X194399972Y-190800013D01*
X194399972Y-190150013D01*
X194749972Y-189800013D01*
X196099972Y-189800013D01*
X196099972Y-190800013D01*
G37*
%TO.C,D75*%
G36*
X121615507Y-103888388D02*
G01*
X121447275Y-104516240D01*
X121018614Y-104763727D01*
X119714614Y-104414321D01*
X119973433Y-103448395D01*
X121615507Y-103888388D01*
G37*
%TO.C,D134*%
G36*
X208883935Y-159868966D02*
G01*
X208694517Y-160326263D01*
X207447279Y-160842886D01*
X207064596Y-159919006D01*
X208635191Y-159268445D01*
X208883935Y-159868966D01*
G37*
%TO.C,D104*%
G36*
X310142581Y-157167703D02*
G01*
X308500507Y-157607695D01*
X308332275Y-156979844D01*
X308579762Y-156551183D01*
X309883762Y-156201777D01*
X310142581Y-157167703D01*
G37*
%TO.C,D96*%
G36*
X147372815Y-187391410D02*
G01*
X146665708Y-188098517D01*
X145463627Y-186896435D01*
X145923246Y-186436816D01*
X146418221Y-186436816D01*
X147372815Y-187391410D01*
G37*
%TO.C,D124*%
G36*
X246554515Y-119414086D02*
G01*
X246307028Y-119842747D01*
X245003028Y-120192153D01*
X244744209Y-119226227D01*
X246386283Y-118786235D01*
X246554515Y-119414086D01*
G37*
%TO.C,D73*%
G36*
X156568338Y-120649726D02*
G01*
X156400106Y-121277578D01*
X155971445Y-121525065D01*
X154667445Y-121175659D01*
X154926264Y-120209733D01*
X156568338Y-120649726D01*
G37*
%TO.C,D117*%
G36*
X319915092Y-120035632D02*
G01*
X318273018Y-120475624D01*
X318104786Y-119847773D01*
X318352273Y-119419112D01*
X319656273Y-119069706D01*
X319915092Y-120035632D01*
G37*
%TO.C,D71*%
G36*
X138969468Y-91475703D02*
G01*
X138710649Y-92441629D01*
X137068575Y-92001636D01*
X137236807Y-91373784D01*
X137665468Y-91126297D01*
X138969468Y-91475703D01*
G37*
%TO.C,D101*%
G36*
X246647242Y-190785527D02*
G01*
X245445160Y-191987608D01*
X244985541Y-191527989D01*
X244985541Y-191033014D01*
X245940135Y-190078420D01*
X246647242Y-190785527D01*
G37*
%TO.C,D89*%
G36*
X72692898Y-139262892D02*
G01*
X72524666Y-139890744D01*
X72096005Y-140138231D01*
X70792005Y-139788825D01*
X71050824Y-138822899D01*
X72692898Y-139262892D01*
G37*
%TO.C,D74*%
G36*
X138989202Y-112652383D02*
G01*
X138820970Y-113280235D01*
X138392309Y-113527722D01*
X137088309Y-113178316D01*
X137347128Y-112212390D01*
X138989202Y-112652383D01*
G37*
%TO.C,D95*%
G36*
X130901095Y-175377425D02*
G01*
X130401095Y-176243450D01*
X128928852Y-175393450D01*
X129253852Y-174830533D01*
X129731960Y-174702425D01*
X130901095Y-175377425D01*
G37*
%TO.C,D137*%
G36*
X179626775Y-137446124D02*
G01*
X178976213Y-139016720D01*
X178375691Y-138767975D01*
X178186272Y-138310678D01*
X178702895Y-137063441D01*
X179626775Y-137446124D01*
G37*
%TO.C,D128*%
G36*
X290420566Y-83564170D02*
G01*
X288778492Y-84004162D01*
X288610260Y-83376311D01*
X288857747Y-82947650D01*
X290161747Y-82598244D01*
X290420566Y-83564170D01*
G37*
%TO.C,D80*%
G36*
X72673172Y-118086185D02*
G01*
X72414353Y-119052111D01*
X70772279Y-118612118D01*
X70940511Y-117984266D01*
X71369172Y-117736779D01*
X72673172Y-118086185D01*
G37*
%TO.C,D122*%
G36*
X281507342Y-102652729D02*
G01*
X281259855Y-103081390D01*
X279955855Y-103430796D01*
X279697036Y-102464870D01*
X281339110Y-102024878D01*
X281507342Y-102652729D01*
G37*
%TO.C,D91*%
G36*
X43794965Y-152257585D02*
G01*
X43536146Y-153223511D01*
X41894072Y-152783518D01*
X42062304Y-152155666D01*
X42490965Y-151908179D01*
X43794965Y-152257585D01*
G37*
%TO.C,D67*%
G36*
X63516986Y-78654027D02*
G01*
X63258167Y-79619953D01*
X61616093Y-79179960D01*
X61784325Y-78552108D01*
X62212986Y-78304621D01*
X63516986Y-78654027D01*
G37*
%TO.C,D87*%
G36*
X111754499Y-140690136D02*
G01*
X111586267Y-141317988D01*
X111157606Y-141565475D01*
X109853606Y-141216069D01*
X110112425Y-140250143D01*
X111754499Y-140690136D01*
G37*
%TO.C,D103*%
G36*
X280707070Y-169985417D02*
G01*
X279064996Y-170425409D01*
X278896764Y-169797558D01*
X279144251Y-169368897D01*
X280448251Y-169019491D01*
X280707070Y-169985417D01*
G37*
%TO.C,D132*%
G36*
X215326229Y-132305461D02*
G01*
X215842852Y-133552699D01*
X214918972Y-133935382D01*
X214268411Y-132364787D01*
X214868932Y-132116043D01*
X215326229Y-132305461D01*
G37*
%TO.C,D113*%
G36*
X245900664Y-138224238D02*
G01*
X244258590Y-138664230D01*
X244090358Y-138036379D01*
X244337845Y-137607718D01*
X245641845Y-137258312D01*
X245900664Y-138224238D01*
G37*
%TO.C,D125*%
G36*
X236039664Y-101422480D02*
G01*
X234397590Y-101862472D01*
X234229358Y-101234621D01*
X234476845Y-100805960D01*
X235780845Y-100456554D01*
X236039664Y-101422480D01*
G37*
%TO.C,D114*%
G36*
X263479814Y-130226940D02*
G01*
X261837740Y-130666932D01*
X261669508Y-130039081D01*
X261916995Y-129610420D01*
X263220995Y-129261014D01*
X263479814Y-130226940D01*
G37*
%TO.C,D92*%
G36*
X62812166Y-154887980D02*
G01*
X62553347Y-155853906D01*
X60911273Y-155413913D01*
X61079505Y-154786061D01*
X61508166Y-154538574D01*
X62812166Y-154887980D01*
G37*
%TO.C,D76*%
G36*
X102187421Y-102791391D02*
G01*
X102019189Y-103419243D01*
X101590528Y-103666730D01*
X100286528Y-103317324D01*
X100545347Y-102351398D01*
X102187421Y-102791391D01*
G37*
%TO.C,D102*%
G36*
X262307960Y-178143434D02*
G01*
X260835717Y-178993434D01*
X260510717Y-178430517D01*
X260638825Y-177952409D01*
X261807960Y-177277409D01*
X262307960Y-178143434D01*
G37*
%TO.C,D121*%
G36*
X300935429Y-101555766D02*
G01*
X300687942Y-101984427D01*
X299383942Y-102333833D01*
X299125123Y-101367907D01*
X300767197Y-100927915D01*
X300935429Y-101555766D01*
G37*
%TO.C,D83*%
G36*
X129108468Y-128277514D02*
G01*
X128849649Y-129243440D01*
X127207575Y-128803447D01*
X127375807Y-128175595D01*
X127804468Y-127928108D01*
X129108468Y-128277514D01*
G37*
%TO.C,D136*%
G36*
X181731532Y-153635227D02*
G01*
X181131011Y-153883971D01*
X180673714Y-153694553D01*
X180157091Y-152447315D01*
X181080971Y-152064632D01*
X181731532Y-153635227D01*
G37*
%TO.C,D70*%
G36*
X121595763Y-82711682D02*
G01*
X121336944Y-83677608D01*
X119694870Y-83237615D01*
X119863102Y-82609763D01*
X120291763Y-82362276D01*
X121595763Y-82711682D01*
G37*
%TO.C,D115*%
G36*
X280853492Y-121462896D02*
G01*
X279211418Y-121902888D01*
X279043186Y-121275037D01*
X279290673Y-120846376D01*
X280594673Y-120496970D01*
X280853492Y-121462896D01*
G37*
%TO.C,D90*%
G36*
X53675726Y-136632506D02*
G01*
X53507494Y-137260358D01*
X53078833Y-137507845D01*
X51774833Y-137158439D01*
X52033652Y-136192513D01*
X53675726Y-136632506D01*
G37*
%TO.C,D72*%
G36*
X156548591Y-99473030D02*
G01*
X156289772Y-100438956D01*
X154647698Y-99998963D01*
X154815930Y-99371111D01*
X155244591Y-99123624D01*
X156548591Y-99473030D01*
G37*
%TO.C,D85*%
G36*
X146707329Y-157451511D02*
G01*
X146539097Y-158079363D01*
X146110436Y-158326850D01*
X144806436Y-157977444D01*
X145065255Y-157011518D01*
X146707329Y-157451511D01*
G37*
%TO.C,J6*%
X205374969Y-89987507D02*
X205124969Y-89987507D01*
X205124969Y-89337507D01*
X205374969Y-89337507D01*
X205374969Y-89987507D01*
G36*
X205374969Y-89987507D02*
G01*
X205124969Y-89987507D01*
X205124969Y-89337507D01*
X205374969Y-89337507D01*
X205374969Y-89987507D01*
G37*
X204874969Y-89987507D02*
X204624969Y-89987507D01*
X204624969Y-89337507D01*
X204874969Y-89337507D01*
X204874969Y-89987507D01*
G36*
X204874969Y-89987507D02*
G01*
X204624969Y-89987507D01*
X204624969Y-89337507D01*
X204874969Y-89337507D01*
X204874969Y-89987507D01*
G37*
X204374969Y-89987507D02*
X204124969Y-89987507D01*
X204124969Y-89337507D01*
X204374969Y-89337507D01*
X204374969Y-89987507D01*
G36*
X204374969Y-89987507D02*
G01*
X204124969Y-89987507D01*
X204124969Y-89337507D01*
X204374969Y-89337507D01*
X204374969Y-89987507D01*
G37*
X203874969Y-89987507D02*
X203624969Y-89987507D01*
X203624969Y-89337507D01*
X203874969Y-89337507D01*
X203874969Y-89987507D01*
G36*
X203874969Y-89987507D02*
G01*
X203624969Y-89987507D01*
X203624969Y-89337507D01*
X203874969Y-89337507D01*
X203874969Y-89987507D01*
G37*
X203374969Y-89987507D02*
X203124969Y-89987507D01*
X203124969Y-89337507D01*
X203374969Y-89337507D01*
X203374969Y-89987507D01*
G36*
X203374969Y-89987507D02*
G01*
X203124969Y-89987507D01*
X203124969Y-89337507D01*
X203374969Y-89337507D01*
X203374969Y-89987507D01*
G37*
X202874969Y-89987507D02*
X202624969Y-89987507D01*
X202624969Y-89337507D01*
X202874969Y-89337507D01*
X202874969Y-89987507D01*
G36*
X202874969Y-89987507D02*
G01*
X202624969Y-89987507D01*
X202624969Y-89337507D01*
X202874969Y-89337507D01*
X202874969Y-89987507D01*
G37*
X202374969Y-89987507D02*
X202124969Y-89987507D01*
X202124969Y-89337507D01*
X202374969Y-89337507D01*
X202374969Y-89987507D01*
G36*
X202374969Y-89987507D02*
G01*
X202124969Y-89987507D01*
X202124969Y-89337507D01*
X202374969Y-89337507D01*
X202374969Y-89987507D01*
G37*
X201874969Y-89987507D02*
X201624969Y-89987507D01*
X201624969Y-89337507D01*
X201874969Y-89337507D01*
X201874969Y-89987507D01*
G36*
X201874969Y-89987507D02*
G01*
X201624969Y-89987507D01*
X201624969Y-89337507D01*
X201874969Y-89337507D01*
X201874969Y-89987507D01*
G37*
X201374969Y-89987507D02*
X201124969Y-89987507D01*
X201124969Y-89337507D01*
X201374969Y-89337507D01*
X201374969Y-89987507D01*
G36*
X201374969Y-89987507D02*
G01*
X201124969Y-89987507D01*
X201124969Y-89337507D01*
X201374969Y-89337507D01*
X201374969Y-89987507D01*
G37*
X200874969Y-89987507D02*
X200624969Y-89987507D01*
X200624969Y-89337507D01*
X200874969Y-89337507D01*
X200874969Y-89987507D01*
G36*
X200874969Y-89987507D02*
G01*
X200624969Y-89987507D01*
X200624969Y-89337507D01*
X200874969Y-89337507D01*
X200874969Y-89987507D01*
G37*
X200374969Y-89987507D02*
X200124969Y-89987507D01*
X200124969Y-89337507D01*
X200374969Y-89337507D01*
X200374969Y-89987507D01*
G36*
X200374969Y-89987507D02*
G01*
X200124969Y-89987507D01*
X200124969Y-89337507D01*
X200374969Y-89337507D01*
X200374969Y-89987507D01*
G37*
X199874969Y-89987507D02*
X199624969Y-89987507D01*
X199624969Y-89337507D01*
X199874969Y-89337507D01*
X199874969Y-89987507D01*
G36*
X199874969Y-89987507D02*
G01*
X199624969Y-89987507D01*
X199624969Y-89337507D01*
X199874969Y-89337507D01*
X199874969Y-89987507D01*
G37*
X199374969Y-89987507D02*
X199124969Y-89987507D01*
X199124969Y-89337507D01*
X199374969Y-89337507D01*
X199374969Y-89987507D01*
G36*
X199374969Y-89987507D02*
G01*
X199124969Y-89987507D01*
X199124969Y-89337507D01*
X199374969Y-89337507D01*
X199374969Y-89987507D01*
G37*
X198874969Y-89987507D02*
X198624969Y-89987507D01*
X198624969Y-89337507D01*
X198874969Y-89337507D01*
X198874969Y-89987507D01*
G36*
X198874969Y-89987507D02*
G01*
X198624969Y-89987507D01*
X198624969Y-89337507D01*
X198874969Y-89337507D01*
X198874969Y-89987507D01*
G37*
X198374969Y-89987507D02*
X198124969Y-89987507D01*
X198124969Y-89337507D01*
X198374969Y-89337507D01*
X198374969Y-89987507D01*
G36*
X198374969Y-89987507D02*
G01*
X198124969Y-89987507D01*
X198124969Y-89337507D01*
X198374969Y-89337507D01*
X198374969Y-89987507D01*
G37*
X197874969Y-89987507D02*
X197624969Y-89987507D01*
X197624969Y-89337507D01*
X197874969Y-89337507D01*
X197874969Y-89987507D01*
G36*
X197874969Y-89987507D02*
G01*
X197624969Y-89987507D01*
X197624969Y-89337507D01*
X197874969Y-89337507D01*
X197874969Y-89987507D01*
G37*
X197374969Y-89987507D02*
X197124969Y-89987507D01*
X197124969Y-89337507D01*
X197374969Y-89337507D01*
X197374969Y-89987507D01*
G36*
X197374969Y-89987507D02*
G01*
X197124969Y-89987507D01*
X197124969Y-89337507D01*
X197374969Y-89337507D01*
X197374969Y-89987507D01*
G37*
X196874969Y-89987507D02*
X196624969Y-89987507D01*
X196624969Y-89337507D01*
X196874969Y-89337507D01*
X196874969Y-89987507D01*
G36*
X196874969Y-89987507D02*
G01*
X196624969Y-89987507D01*
X196624969Y-89337507D01*
X196874969Y-89337507D01*
X196874969Y-89987507D01*
G37*
X196374969Y-89987507D02*
X196124969Y-89987507D01*
X196124969Y-89337507D01*
X196374969Y-89337507D01*
X196374969Y-89987507D01*
G36*
X196374969Y-89987507D02*
G01*
X196124969Y-89987507D01*
X196124969Y-89337507D01*
X196374969Y-89337507D01*
X196374969Y-89987507D01*
G37*
X195874969Y-89987507D02*
X195624969Y-89987507D01*
X195624969Y-89337507D01*
X195874969Y-89337507D01*
X195874969Y-89987507D01*
G36*
X195874969Y-89987507D02*
G01*
X195624969Y-89987507D01*
X195624969Y-89337507D01*
X195874969Y-89337507D01*
X195874969Y-89987507D01*
G37*
X195374969Y-89987507D02*
X195124969Y-89987507D01*
X195124969Y-89337507D01*
X195374969Y-89337507D01*
X195374969Y-89987507D01*
G36*
X195374969Y-89987507D02*
G01*
X195124969Y-89987507D01*
X195124969Y-89337507D01*
X195374969Y-89337507D01*
X195374969Y-89987507D01*
G37*
X194874969Y-89987507D02*
X194624969Y-89987507D01*
X194624969Y-89337507D01*
X194874969Y-89337507D01*
X194874969Y-89987507D01*
G36*
X194874969Y-89987507D02*
G01*
X194624969Y-89987507D01*
X194624969Y-89337507D01*
X194874969Y-89337507D01*
X194874969Y-89987507D01*
G37*
X194374969Y-89987507D02*
X194124969Y-89987507D01*
X194124969Y-89337507D01*
X194374969Y-89337507D01*
X194374969Y-89987507D01*
G36*
X194374969Y-89987507D02*
G01*
X194124969Y-89987507D01*
X194124969Y-89337507D01*
X194374969Y-89337507D01*
X194374969Y-89987507D01*
G37*
X193874969Y-89987507D02*
X193624969Y-89987507D01*
X193624969Y-89337507D01*
X193874969Y-89337507D01*
X193874969Y-89987507D01*
G36*
X193874969Y-89987507D02*
G01*
X193624969Y-89987507D01*
X193624969Y-89337507D01*
X193874969Y-89337507D01*
X193874969Y-89987507D01*
G37*
X193374969Y-89987507D02*
X193124969Y-89987507D01*
X193124969Y-89337507D01*
X193374969Y-89337507D01*
X193374969Y-89987507D01*
G36*
X193374969Y-89987507D02*
G01*
X193124969Y-89987507D01*
X193124969Y-89337507D01*
X193374969Y-89337507D01*
X193374969Y-89987507D01*
G37*
X192874969Y-89987507D02*
X192624969Y-89987507D01*
X192624969Y-89337507D01*
X192874969Y-89337507D01*
X192874969Y-89987507D01*
G36*
X192874969Y-89987507D02*
G01*
X192624969Y-89987507D01*
X192624969Y-89337507D01*
X192874969Y-89337507D01*
X192874969Y-89987507D01*
G37*
X192374969Y-89987507D02*
X192124969Y-89987507D01*
X192124969Y-89337507D01*
X192374969Y-89337507D01*
X192374969Y-89987507D01*
G36*
X192374969Y-89987507D02*
G01*
X192124969Y-89987507D01*
X192124969Y-89337507D01*
X192374969Y-89337507D01*
X192374969Y-89987507D01*
G37*
X191874969Y-89987507D02*
X191624969Y-89987507D01*
X191624969Y-89337507D01*
X191874969Y-89337507D01*
X191874969Y-89987507D01*
G36*
X191874969Y-89987507D02*
G01*
X191624969Y-89987507D01*
X191624969Y-89337507D01*
X191874969Y-89337507D01*
X191874969Y-89987507D01*
G37*
X191374969Y-89987507D02*
X191124969Y-89987507D01*
X191124969Y-89337507D01*
X191374969Y-89337507D01*
X191374969Y-89987507D01*
G36*
X191374969Y-89987507D02*
G01*
X191124969Y-89987507D01*
X191124969Y-89337507D01*
X191374969Y-89337507D01*
X191374969Y-89987507D01*
G37*
X190874969Y-89987507D02*
X190624969Y-89987507D01*
X190624969Y-89337507D01*
X190874969Y-89337507D01*
X190874969Y-89987507D01*
G36*
X190874969Y-89987507D02*
G01*
X190624969Y-89987507D01*
X190624969Y-89337507D01*
X190874969Y-89337507D01*
X190874969Y-89987507D01*
G37*
%TO.C,D119*%
G36*
X339586119Y-98595075D02*
G01*
X339338632Y-99023736D01*
X338034632Y-99373142D01*
X337775813Y-98407216D01*
X339417887Y-97967224D01*
X339586119Y-98595075D01*
G37*
%TO.C,D81*%
G36*
X92306681Y-118416477D02*
G01*
X92047862Y-119382403D01*
X90405788Y-118942410D01*
X90574020Y-118314558D01*
X91002681Y-118067071D01*
X92306681Y-118416477D01*
G37*
%TO.C,D107*%
G36*
X349447138Y-135396865D02*
G01*
X349199651Y-135825526D01*
X347895651Y-136174932D01*
X347636832Y-135209006D01*
X349278906Y-134769014D01*
X349447138Y-135396865D01*
G37*
%TO.C,D77*%
G36*
X82553916Y-102461106D02*
G01*
X82385684Y-103088958D01*
X81957023Y-103336445D01*
X80653023Y-102987039D01*
X80911842Y-102021113D01*
X82553916Y-102461106D01*
G37*
%TO.C,D82*%
G36*
X111734741Y-119513459D02*
G01*
X111475922Y-120479385D01*
X109833848Y-120039392D01*
X110002080Y-119411540D01*
X110430741Y-119164053D01*
X111734741Y-119513459D01*
G37*
%TO.C,D88*%
G36*
X92326421Y-139593176D02*
G01*
X92158189Y-140221028D01*
X91729528Y-140468515D01*
X90425528Y-140119109D01*
X90684347Y-139153183D01*
X92326421Y-139593176D01*
G37*
%TO.C,D78*%
G36*
X63536725Y-99830726D02*
G01*
X63368493Y-100458578D01*
X62939832Y-100706065D01*
X61635832Y-100356659D01*
X61894651Y-99390733D01*
X63536725Y-99830726D01*
G37*
%TO.C,D123*%
G36*
X264133662Y-111416775D02*
G01*
X263886175Y-111845436D01*
X262582175Y-112194842D01*
X262323356Y-111228916D01*
X263965430Y-110788924D01*
X264133662Y-111416775D01*
G37*
%TO.C,D135*%
G36*
X194016686Y-162023766D02*
G01*
X193767941Y-162624288D01*
X193310644Y-162813707D01*
X192063407Y-162297084D01*
X192446090Y-161373204D01*
X194016686Y-162023766D01*
G37*
%TO.C,D126*%
G36*
X253618790Y-93425174D02*
G01*
X251976716Y-93865166D01*
X251808484Y-93237315D01*
X252055971Y-92808654D01*
X253359971Y-92459248D01*
X253618790Y-93425174D01*
G37*
%TD*%
D11*
%TO.C,SW25*%
X129580746Y-167294321D03*
X142045856Y-171558117D03*
%TD*%
D12*
%TO.C,SW30*%
X148189523Y-179242007D03*
X159126343Y-186586725D03*
%TD*%
D13*
%TO.C,SW1*%
X60149576Y-71188076D03*
X73293499Y-72080379D03*
%TD*%
%TO.C,SW24*%
X120810552Y-139212422D03*
X133954475Y-140104725D03*
%TD*%
%TO.C,SW29*%
X138389675Y-147209763D03*
X151533598Y-148102066D03*
%TD*%
%TO.C,SW14*%
X84008771Y-129351428D03*
X97152694Y-130243731D03*
%TD*%
%TO.C,SW19*%
X103436844Y-130448390D03*
X116580767Y-131340693D03*
%TD*%
%TO.C,SW5*%
X40427557Y-144791634D03*
X53571480Y-145683937D03*
%TD*%
%TO.C,SW22*%
X130671540Y-102410642D03*
X143815463Y-103302945D03*
%TD*%
%TO.C,SW27*%
X148250683Y-110407981D03*
X161394606Y-111300284D03*
%TD*%
%TO.C,SW3*%
X50288548Y-107989865D03*
X63432471Y-108882168D03*
%TD*%
%TO.C,SW8*%
X69305759Y-110620236D03*
X82449682Y-111512539D03*
%TD*%
%TO.C,SW13*%
X88939271Y-110950529D03*
X102083194Y-111842832D03*
%TD*%
%TO.C,SW23*%
X125741057Y-120811558D03*
X138884980Y-121703861D03*
%TD*%
%TO.C,SW18*%
X108367325Y-112047510D03*
X121511248Y-112939813D03*
%TD*%
%TO.C,SW28*%
X143320172Y-128808861D03*
X156464095Y-129701164D03*
%TD*%
%TO.C,SW4*%
X45358065Y-126390759D03*
X58501988Y-127283062D03*
%TD*%
%TO.C,SW9*%
X64375239Y-129021143D03*
X77519162Y-129913446D03*
%TD*%
%TO.C,SW10*%
X59444756Y-147422032D03*
X72588679Y-148314335D03*
%TD*%
%TO.C,SW15*%
X79078260Y-147752292D03*
X92222183Y-148644595D03*
%TD*%
%TO.C,SW20*%
X108513768Y-160570027D03*
X121657691Y-161462330D03*
%TD*%
%TO.C,SW11*%
X98800277Y-74148782D03*
X111944200Y-75041085D03*
%TD*%
%TO.C,SW2*%
X55219067Y-89588980D03*
X68362990Y-90481283D03*
%TD*%
%TO.C,SW12*%
X93869767Y-92549634D03*
X107013690Y-93441937D03*
%TD*%
%TO.C,SW21*%
X135602050Y-84009751D03*
X148745973Y-84902054D03*
%TD*%
%TO.C,SW17*%
X113297846Y-93646645D03*
X126441769Y-94538948D03*
%TD*%
%TO.C,SW16*%
X118228346Y-75245734D03*
X131372269Y-76138037D03*
%TD*%
%TO.C,SW6*%
X79166767Y-73818482D03*
X92310690Y-74710785D03*
%TD*%
%TO.C,SW7*%
X74236260Y-92219367D03*
X87380183Y-93111670D03*
%TD*%
%TO.C,SW26*%
X153181181Y-92007085D03*
X166325104Y-92899388D03*
%TD*%
D14*
%TO.C,SW31*%
X229131608Y-95674566D03*
X240960731Y-89875361D03*
%TD*%
D15*
%TO.C,D34*%
X242430788Y-145365678D03*
X242974308Y-147394122D03*
%TD*%
D16*
%TO.C,C118*%
X171599969Y-91279993D03*
X171599969Y-90319993D03*
%TD*%
D17*
%TO.C,R34*%
X189599969Y-84160004D03*
X189599969Y-83140004D03*
%TD*%
D18*
%TO.C,J3*%
X201749960Y-131100012D03*
X194249960Y-131100012D03*
%TD*%
D19*
%TO.C,D97*%
X174995147Y-186272754D03*
X175695147Y-185060318D03*
X170232007Y-183522754D03*
%TD*%
D20*
%TO.C,SW62*%
X190914969Y-183460009D03*
X203841969Y-180920009D03*
%TD*%
D21*
%TO.C,U6*%
X207549968Y-133262506D03*
X208499968Y-133262506D03*
X209449968Y-133262506D03*
X209449968Y-135537506D03*
X207549968Y-135537506D03*
%TD*%
D22*
%TO.C,D16*%
X119691727Y-69726420D03*
X119148207Y-71754864D03*
%TD*%
D23*
%TO.C,C33*%
X193169967Y-69000004D03*
X194129967Y-69000004D03*
%TD*%
D24*
%TO.C,U14*%
X173799965Y-91299997D03*
X172999965Y-91299997D03*
D25*
X172649965Y-90349997D03*
X173149965Y-90349997D03*
X173649965Y-90349997D03*
X174149965Y-90349997D03*
X174149965Y-92249997D03*
X173649965Y-92249997D03*
X173149965Y-92249997D03*
X172649965Y-92249997D03*
%TD*%
D14*
%TO.C,SW45*%
X273799012Y-164237496D03*
X285628135Y-158438291D03*
%TD*%
D26*
%TO.C,D112*%
X249880724Y-156362167D03*
X250243070Y-157714463D03*
X255193316Y-154938663D03*
%TD*%
D27*
%TO.C,R38*%
X192809969Y-75400007D03*
X191789969Y-75400007D03*
%TD*%
D28*
%TO.C,C90*%
X264822881Y-149071437D03*
X265750169Y-148822971D03*
%TD*%
D29*
%TO.C,D138*%
X193575803Y-125133019D03*
X193040046Y-123839588D03*
X188494466Y-127237778D03*
%TD*%
D15*
%TO.C,D57*%
X325601377Y-87744876D03*
X326144897Y-89773320D03*
%TD*%
D14*
%TO.C,SW49*%
X298304024Y-133018910D03*
X310133147Y-127219705D03*
%TD*%
D15*
%TO.C,D58*%
X330531890Y-106145777D03*
X331075410Y-108174221D03*
%TD*%
D30*
%TO.C,C68*%
X64155226Y-136043478D03*
X65082514Y-136291944D03*
%TD*%
D31*
%TO.C,C44*%
X205549968Y-86975008D03*
X205549968Y-85425008D03*
%TD*%
D32*
%TO.C,C109*%
X336432751Y-79562722D03*
X335505463Y-79811188D03*
%TD*%
D15*
%TO.C,D60*%
X340392894Y-142947560D03*
X340936414Y-144976004D03*
%TD*%
D33*
%TO.C,C9*%
X197839468Y-74354436D03*
X198935484Y-75450452D03*
%TD*%
D27*
%TO.C,R27*%
X209509983Y-137000004D03*
X208489983Y-137000004D03*
%TD*%
D30*
%TO.C,C55*%
X93649754Y-99571978D03*
X94577042Y-99820444D03*
%TD*%
%TO.C,C54*%
X113077837Y-100668981D03*
X114005125Y-100917447D03*
%TD*%
D17*
%TO.C,R40*%
X229299991Y-206009997D03*
X229299991Y-204989997D03*
%TD*%
D34*
%TO.C,D93*%
X86445472Y-158257006D03*
X86807818Y-156904710D03*
X81132880Y-156833502D03*
%TD*%
D35*
%TO.C,D63*%
X210262586Y-176366702D03*
X211312586Y-178185356D03*
%TD*%
D32*
%TO.C,C92*%
X253262134Y-137183493D03*
X252334846Y-137431959D03*
%TD*%
D36*
%TO.C,C71*%
X69448942Y-158633323D03*
X68521654Y-158384857D03*
%TD*%
D37*
%TO.C,R20*%
X183149969Y-70990007D03*
X183149969Y-72010007D03*
%TD*%
D22*
%TO.C,D14*%
X85472131Y-123832117D03*
X84928611Y-125860561D03*
%TD*%
D14*
%TO.C,SW47*%
X288443021Y-96217125D03*
X300272144Y-90417920D03*
%TD*%
D38*
%TO.C,SW63*%
X213130565Y-181304199D03*
X223055675Y-172640995D03*
%TD*%
D22*
%TO.C,D4*%
X46821438Y-120871460D03*
X46277918Y-122899904D03*
%TD*%
%TO.C,D19*%
X104900208Y-124929081D03*
X104356688Y-126957525D03*
%TD*%
D39*
%TO.C,D129*%
X314778580Y-82899701D03*
X314416234Y-81547405D03*
X309465988Y-84323205D03*
%TD*%
D11*
%TO.C,SW61*%
X170597784Y-174219201D03*
X183062894Y-178482997D03*
%TD*%
D33*
%TO.C,C10*%
X195601957Y-78201996D03*
X196697973Y-79298012D03*
%TD*%
D40*
%TO.C,C76*%
X177359395Y-187637757D03*
X176528011Y-187157757D03*
%TD*%
D14*
%TO.C,SW33*%
X238992605Y-132476320D03*
X250821728Y-126677115D03*
%TD*%
D28*
%TO.C,C101*%
X272335566Y-103505616D03*
X273262854Y-103257150D03*
%TD*%
D41*
%TO.C,D131*%
X207505477Y-127237778D03*
X208041234Y-125944347D03*
X202424140Y-125133019D03*
%TD*%
D34*
%TO.C,D69*%
X106167487Y-84653488D03*
X106529833Y-83301192D03*
X100854895Y-83229984D03*
%TD*%
D36*
%TO.C,C63*%
X153324362Y-140020154D03*
X152397074Y-139771688D03*
%TD*%
D42*
%TO.C,C8*%
X201449259Y-69903202D03*
X202128081Y-70582024D03*
%TD*%
D43*
%TO.C,C31*%
X188524968Y-70000012D03*
X190074968Y-70000012D03*
%TD*%
%TO.C,C21*%
X207749973Y-131400007D03*
X209299973Y-131400007D03*
%TD*%
D44*
%TO.C,C7*%
X210111308Y-85494900D03*
X209432486Y-84816078D03*
%TD*%
D36*
%TO.C,C49*%
X128232540Y-86457029D03*
X127305252Y-86208563D03*
%TD*%
D26*
%TO.C,D111*%
X267459859Y-148364860D03*
X267822205Y-149717156D03*
X272772451Y-146941356D03*
%TD*%
D45*
%TO.C,C19*%
X199110555Y-79239420D03*
X199789377Y-78560598D03*
%TD*%
D22*
%TO.C,D8*%
X70769132Y-105100924D03*
X70225612Y-107129368D03*
%TD*%
D34*
%TO.C,D68*%
X86533979Y-84323191D03*
X86896325Y-82970895D03*
X81221387Y-82899687D03*
%TD*%
%TO.C,D84*%
X150687387Y-139313574D03*
X151049733Y-137961278D03*
X145374795Y-137890070D03*
%TD*%
D32*
%TO.C,C85*%
X356154753Y-153166272D03*
X355227465Y-153414738D03*
%TD*%
D15*
%TO.C,D39*%
X260009925Y-137368363D03*
X260553445Y-139396807D03*
%TD*%
D46*
%TO.C,R23*%
X183639967Y-73050007D03*
X184659967Y-73050007D03*
%TD*%
D47*
%TO.C,C22*%
X206674968Y-137300008D03*
X205124968Y-137300008D03*
%TD*%
D42*
%TO.C,C13*%
X200027960Y-71310333D03*
X200706782Y-71989155D03*
%TD*%
D48*
%TO.C,D142*%
X170749991Y-88699997D03*
X172849991Y-88699997D03*
%TD*%
D27*
%TO.C,R32*%
X171659970Y-93949996D03*
X170639970Y-93949996D03*
%TD*%
D49*
%TO.C,U8*%
X198999968Y-66485006D03*
X198499968Y-66485006D03*
X197999968Y-66485006D03*
X197499968Y-66485006D03*
X196999968Y-66485006D03*
X196999968Y-65715006D03*
X197499968Y-65715006D03*
X197999968Y-65715006D03*
X198499968Y-65715006D03*
X198999968Y-65715006D03*
%TD*%
D14*
%TO.C,SW59*%
X336954725Y-130058221D03*
X348783848Y-124259016D03*
%TD*%
D50*
%TO.C,C3*%
X173799991Y-71724997D03*
X173799991Y-73274997D03*
%TD*%
D15*
%TO.C,D37*%
X250148913Y-100566579D03*
X250692433Y-102595023D03*
%TD*%
D28*
%TO.C,C99*%
X311397166Y-102078361D03*
X312324454Y-101829895D03*
%TD*%
D15*
%TO.C,D48*%
X291881189Y-109106450D03*
X292424709Y-111134894D03*
%TD*%
D26*
%TO.C,D108*%
X323895156Y-138173562D03*
X324257502Y-139525858D03*
X329207748Y-136750058D03*
%TD*%
D43*
%TO.C,C40*%
X192624960Y-86337513D03*
X194174960Y-86337513D03*
%TD*%
D34*
%TO.C,D94*%
X115880979Y-171074745D03*
X116243325Y-169722449D03*
X110568387Y-169651241D03*
%TD*%
D51*
%TO.C,C81*%
X269149232Y-175232863D03*
X268317848Y-175712863D03*
%TD*%
D39*
%TO.C,D106*%
X353517775Y-153872848D03*
X353155429Y-152520552D03*
X348205183Y-155296352D03*
%TD*%
%TO.C,D130*%
X333795777Y-80269298D03*
X333433431Y-78917002D03*
X328483185Y-81692802D03*
%TD*%
D15*
%TO.C,D50*%
X301742172Y-145908218D03*
X302285692Y-147936662D03*
%TD*%
D52*
%TO.C,D61*%
X173439791Y-169266701D03*
X172389791Y-171085355D03*
%TD*%
D36*
%TO.C,C70*%
X50431746Y-156002930D03*
X49504458Y-155754464D03*
%TD*%
D39*
%TO.C,D116*%
X305006064Y-120031750D03*
X304643718Y-118679454D03*
X299693472Y-121455254D03*
%TD*%
D14*
%TO.C,SW38*%
X256571754Y-124479019D03*
X268400877Y-118679814D03*
%TD*%
D39*
%TO.C,D118*%
X343656773Y-117071064D03*
X343294427Y-115718768D03*
X338344181Y-118494568D03*
%TD*%
D32*
%TO.C,C84*%
X337137574Y-155796672D03*
X336210286Y-156045138D03*
%TD*%
D14*
%TO.C,SW50*%
X303234521Y-151419785D03*
X315063644Y-145620580D03*
%TD*%
D53*
%TO.C,SW69*%
X208349973Y-56027213D03*
X208349973Y-58237213D03*
X215649973Y-56027213D03*
X215649973Y-58237213D03*
D54*
X209749973Y-58887213D03*
X212749973Y-58887213D03*
X214249973Y-58887213D03*
%TD*%
D26*
%TO.C,D109*%
X304261635Y-138503858D03*
X304623981Y-139856154D03*
X309574227Y-137080354D03*
%TD*%
D28*
%TO.C,C100*%
X291763650Y-102408656D03*
X292690938Y-102160190D03*
%TD*%
D55*
%TO.C,D99*%
X225767927Y-183522749D03*
X225067927Y-182310313D03*
X221004787Y-186272749D03*
%TD*%
D17*
%TO.C,R4*%
X212249963Y-113760000D03*
X212249963Y-112740000D03*
%TD*%
D56*
%TO.C,D64*%
X190899967Y-196800032D03*
X190899967Y-198900032D03*
%TD*%
D50*
%TO.C,C37*%
X186099971Y-89925005D03*
X186099971Y-91475005D03*
%TD*%
D57*
%TO.C,C38*%
X191079969Y-88150002D03*
X190119969Y-88150002D03*
%TD*%
D36*
%TO.C,C59*%
X79309946Y-121831525D03*
X78382658Y-121583059D03*
%TD*%
D34*
%TO.C,D79*%
X57655761Y-118494578D03*
X58018107Y-117142282D03*
X52343169Y-117071074D03*
%TD*%
D58*
%TO.C,C80*%
X252502090Y-186203470D03*
X251823268Y-186882292D03*
%TD*%
D26*
%TO.C,D110*%
X284833561Y-139600806D03*
X285195907Y-140953102D03*
X290146153Y-138177302D03*
%TD*%
D59*
%TO.C,C122*%
X174049970Y-101149995D03*
X172149970Y-101149995D03*
%TD*%
D26*
%TO.C,D120*%
X314034149Y-101371782D03*
X314396495Y-102724078D03*
X319346741Y-99948278D03*
%TD*%
D27*
%TO.C,R12*%
X192809968Y-73300005D03*
X191789968Y-73300005D03*
%TD*%
D14*
%TO.C,SW58*%
X332024222Y-111657318D03*
X343853345Y-105858113D03*
%TD*%
D32*
%TO.C,C106*%
X278353967Y-83620376D03*
X277426679Y-83868842D03*
%TD*%
D15*
%TO.C,D55*%
X321375714Y-145577943D03*
X321919234Y-147606387D03*
%TD*%
D60*
%TO.C,D86*%
X123227521Y-146941331D03*
X122865175Y-148293627D03*
X128540113Y-148364835D03*
%TD*%
D57*
%TO.C,C79*%
X203479964Y-210750004D03*
X202519964Y-210750004D03*
%TD*%
D39*
%TO.C,D105*%
X334500595Y-156503249D03*
X334138249Y-155150953D03*
X329188003Y-157926753D03*
%TD*%
D61*
%TO.C,U7*%
X169762491Y-73449997D03*
X169762491Y-71549997D03*
X172037491Y-72499997D03*
%TD*%
D28*
%TO.C,C87*%
X321258175Y-138880135D03*
X322185463Y-138631669D03*
%TD*%
D22*
%TO.C,D6*%
X80630129Y-68299159D03*
X80086609Y-70327603D03*
%TD*%
D62*
%TO.C,U1*%
X206554559Y-77730867D03*
D63*
X205599965Y-76776273D03*
D64*
X205599965Y-78685461D03*
D65*
X204645371Y-77730867D03*
D66*
X206192167Y-73461710D03*
X206475010Y-73744553D03*
X206757852Y-74027395D03*
X207040695Y-74310238D03*
X207323538Y-74593081D03*
X207606380Y-74875923D03*
X207889223Y-75158766D03*
X208172066Y-75441609D03*
X208454909Y-75724452D03*
X208737751Y-76007294D03*
X209020594Y-76290137D03*
X209303437Y-76572980D03*
X209586279Y-76855822D03*
X209869122Y-77138665D03*
D67*
X209869122Y-78323069D03*
X209586279Y-78605912D03*
X209303437Y-78888754D03*
X209020594Y-79171597D03*
X208737751Y-79454440D03*
X208454909Y-79737282D03*
X208172066Y-80020125D03*
X207889223Y-80302968D03*
X207606380Y-80585811D03*
X207323538Y-80868653D03*
X207040695Y-81151496D03*
X206757852Y-81434339D03*
X206475010Y-81717181D03*
X206192167Y-82000024D03*
D66*
X205007763Y-82000024D03*
X204724920Y-81717181D03*
X204442078Y-81434339D03*
X204159235Y-81151496D03*
X203876392Y-80868653D03*
X203593550Y-80585811D03*
X203310707Y-80302968D03*
X203027864Y-80020125D03*
X202745021Y-79737282D03*
X202462179Y-79454440D03*
X202179336Y-79171597D03*
X201896493Y-78888754D03*
X201613651Y-78605912D03*
X201330808Y-78323069D03*
D67*
X201330808Y-77138665D03*
X201613651Y-76855822D03*
X201896493Y-76572980D03*
X202179336Y-76290137D03*
X202462179Y-76007294D03*
X202745021Y-75724452D03*
X203027864Y-75441609D03*
X203310707Y-75158766D03*
X203593550Y-74875923D03*
X203876392Y-74593081D03*
X204159235Y-74310238D03*
X204442078Y-74027395D03*
X204724920Y-73744553D03*
X205007763Y-73461710D03*
%TD*%
D14*
%TO.C,SW43*%
X273945428Y-115714980D03*
X285774551Y-109915775D03*
%TD*%
D22*
%TO.C,D28*%
X144783542Y-123289551D03*
X144240022Y-125317995D03*
%TD*%
D45*
%TO.C,C12*%
X197977357Y-78282415D03*
X198656179Y-77603593D03*
%TD*%
D28*
%TO.C,C103*%
X237382736Y-120266978D03*
X238310024Y-120018512D03*
%TD*%
D68*
%TO.C,U12*%
X184749962Y-88037512D03*
X183799962Y-88037512D03*
X182849962Y-88037512D03*
X182849962Y-85762512D03*
X184749962Y-85762512D03*
%TD*%
D22*
%TO.C,D21*%
X137065415Y-78490448D03*
X136521895Y-80518892D03*
%TD*%
D69*
%TO.C,D133*%
X213762201Y-152505513D03*
X215055632Y-153041270D03*
X215866960Y-147424176D03*
%TD*%
D32*
%TO.C,C108*%
X317415557Y-82193125D03*
X316488269Y-82441591D03*
%TD*%
D70*
%TO.C,Q2*%
X183499966Y-74250002D03*
X184149966Y-74250002D03*
X184799966Y-74250002D03*
X184799966Y-76150002D03*
X184149966Y-76150002D03*
X183499966Y-76150002D03*
%TD*%
D23*
%TO.C,C28*%
X183769968Y-66700008D03*
X184729968Y-66700008D03*
%TD*%
D57*
%TO.C,C77*%
X203479965Y-191700005D03*
X202519965Y-191700005D03*
%TD*%
D22*
%TO.C,D7*%
X75699632Y-86700053D03*
X75156112Y-88728497D03*
%TD*%
D36*
%TO.C,C73*%
X118517962Y-171781322D03*
X117590674Y-171532856D03*
%TD*%
D22*
%TO.C,D10*%
X60908123Y-141902713D03*
X60364603Y-143931157D03*
%TD*%
D71*
%TO.C,D100*%
X200749964Y-210750001D03*
X200749964Y-209350001D03*
X195249964Y-210750001D03*
%TD*%
D32*
%TO.C,C105*%
X260980261Y-92384421D03*
X260052973Y-92632887D03*
%TD*%
D72*
%TO.C,D145*%
X195499959Y-66099997D03*
X195499959Y-67499997D03*
%TD*%
D30*
%TO.C,C67*%
X83788755Y-136373764D03*
X84716043Y-136622230D03*
%TD*%
D73*
%TO.C,SW68*%
X186624969Y-56507217D03*
X181374969Y-56507217D03*
X186624969Y-58207217D03*
X181374969Y-58207217D03*
%TD*%
D39*
%TO.C,D127*%
X275716987Y-84326956D03*
X275354641Y-82974660D03*
X270404395Y-85750460D03*
%TD*%
D14*
%TO.C,SW57*%
X327093716Y-93256434D03*
X338922839Y-87457229D03*
%TD*%
D71*
%TO.C,D98*%
X200749972Y-191700013D03*
X200749972Y-190300013D03*
X195249972Y-191700013D03*
%TD*%
D28*
%TO.C,C86*%
X340275354Y-136249754D03*
X341202642Y-136001288D03*
%TD*%
D60*
%TO.C,D75*%
X115714815Y-101375554D03*
X115352469Y-102727850D03*
X121027407Y-102799058D03*
%TD*%
D32*
%TO.C,C97*%
X346293744Y-116364490D03*
X345366456Y-116612956D03*
%TD*%
D74*
%TO.C,U5*%
X194174967Y-71100002D03*
X194174967Y-71500002D03*
D75*
X194049967Y-72125002D03*
X193649967Y-72125002D03*
X193249967Y-72125002D03*
X192849967Y-72125002D03*
D74*
X192724967Y-71500002D03*
X192724967Y-71100002D03*
D75*
X192849967Y-70475002D03*
X193249967Y-70475002D03*
X193649967Y-70475002D03*
X194049967Y-70475002D03*
%TD*%
D16*
%TO.C,C30*%
X222749967Y-76830009D03*
X222749967Y-75870009D03*
%TD*%
D27*
%TO.C,R15*%
X192809970Y-74350009D03*
X191789970Y-74350009D03*
%TD*%
D22*
%TO.C,D18*%
X109830697Y-106528202D03*
X109287177Y-108556646D03*
%TD*%
D27*
%TO.C,R14*%
X197509962Y-114400005D03*
X196489962Y-114400005D03*
%TD*%
D32*
%TO.C,C94*%
X288214960Y-120422145D03*
X287287672Y-120670611D03*
%TD*%
D22*
%TO.C,D2*%
X56682439Y-84069671D03*
X56138919Y-86098115D03*
%TD*%
D16*
%TO.C,C45*%
X175199969Y-91279988D03*
X175199969Y-90319988D03*
%TD*%
D36*
%TO.C,C72*%
X89082447Y-158963589D03*
X88155159Y-158715123D03*
%TD*%
D15*
%TO.C,D47*%
X286950694Y-90705565D03*
X287494214Y-92734009D03*
%TD*%
D36*
%TO.C,C47*%
X89170951Y-85029769D03*
X88243663Y-84781303D03*
%TD*%
D15*
%TO.C,D56*%
X320670880Y-69343996D03*
X321214400Y-71372440D03*
%TD*%
D76*
%TO.C,D134*%
X202424141Y-160866993D03*
X202959898Y-162160424D03*
X207505478Y-158762234D03*
%TD*%
D77*
%TO.C,FB1*%
X192037467Y-64600009D03*
X194162467Y-64600009D03*
%TD*%
D39*
%TO.C,D104*%
X314867073Y-156833528D03*
X314504727Y-155481232D03*
X309554481Y-158257032D03*
%TD*%
D14*
%TO.C,SW52*%
X308076533Y-95886830D03*
X319905656Y-90087625D03*
%TD*%
D32*
%TO.C,C107*%
X297782038Y-82523419D03*
X296854750Y-82771885D03*
%TD*%
D15*
%TO.C,D33*%
X237500290Y-126964793D03*
X238043810Y-128993237D03*
%TD*%
D32*
%TO.C,C96*%
X327276561Y-118994884D03*
X326349273Y-119243350D03*
%TD*%
D78*
%TO.C,D96*%
X149317359Y-192022959D03*
X150307308Y-191033010D03*
X145428272Y-188133872D03*
%TD*%
D46*
%TO.C,R28*%
X207889970Y-138100010D03*
X208909970Y-138100010D03*
%TD*%
D79*
%TO.C,C117*%
X196097992Y-124088294D03*
X195211068Y-124455670D03*
%TD*%
D26*
%TO.C,D124*%
X240019717Y-119560402D03*
X240382063Y-120912698D03*
X245332309Y-118136898D03*
%TD*%
D14*
%TO.C,SW44*%
X278875949Y-134115856D03*
X290705072Y-128316651D03*
%TD*%
D60*
%TO.C,D73*%
X150667646Y-118136892D03*
X150305300Y-119489188D03*
X155980238Y-119560396D03*
%TD*%
D16*
%TO.C,C20*%
X194199967Y-67080000D03*
X194199967Y-66120000D03*
%TD*%
D17*
%TO.C,R19*%
X183149973Y-70060004D03*
X183149973Y-69040004D03*
%TD*%
D80*
%TO.C,U10*%
X166524967Y-84745003D03*
X166524967Y-83475003D03*
X166524967Y-82205003D03*
X166524967Y-80935003D03*
X166524967Y-79665003D03*
X166524967Y-78395003D03*
X166524967Y-77125003D03*
X166524967Y-75855003D03*
X171474967Y-75855003D03*
X171474967Y-77125003D03*
X171474967Y-78395003D03*
X171474967Y-79665003D03*
X171474967Y-80935003D03*
X171474967Y-82205003D03*
X171474967Y-83475003D03*
X171474967Y-84745003D03*
%TD*%
D81*
%TO.C,C115*%
X179088261Y-144901985D03*
X179455637Y-145788909D03*
%TD*%
D22*
%TO.C,D17*%
X114761223Y-88127329D03*
X114217703Y-90155773D03*
%TD*%
D32*
%TO.C,C82*%
X288068535Y-168944662D03*
X287141247Y-169193128D03*
%TD*%
D42*
%TO.C,C14*%
X200742158Y-70610313D03*
X201420980Y-71289135D03*
%TD*%
D17*
%TO.C,R10*%
X204799962Y-146710006D03*
X204799962Y-145690006D03*
%TD*%
D15*
%TO.C,D41*%
X262592087Y-73401652D03*
X263135607Y-75430096D03*
%TD*%
D14*
%TO.C,SW41*%
X264084438Y-78913209D03*
X275913561Y-73114004D03*
%TD*%
D36*
%TO.C,C58*%
X60292731Y-119201156D03*
X59365443Y-118952690D03*
%TD*%
D82*
%TO.C,J2*%
X194799962Y-62650006D03*
X195599962Y-62650006D03*
D83*
X196749962Y-62650006D03*
X197749962Y-62650006D03*
X198249962Y-62650006D03*
X199249962Y-62650006D03*
D82*
X200399962Y-62650006D03*
X201199962Y-62650006D03*
X201199962Y-62650006D03*
X200399962Y-62650006D03*
D83*
X199749962Y-62650006D03*
X198749962Y-62650006D03*
X197249962Y-62650006D03*
X196249962Y-62650006D03*
D82*
X195599962Y-62650006D03*
X194799962Y-62650006D03*
%TD*%
D15*
%TO.C,D54*%
X316445201Y-127177045D03*
X316988721Y-129205489D03*
%TD*%
D84*
%TO.C,D144*%
X198899960Y-86550006D03*
X200999960Y-86550006D03*
%TD*%
D39*
%TO.C,D117*%
X324639584Y-119701457D03*
X324277238Y-118349161D03*
X319326992Y-121124961D03*
%TD*%
D85*
%TO.C,C112*%
X212717478Y-155027698D03*
X213084854Y-154140774D03*
%TD*%
D86*
%TO.C,C114*%
X185972275Y-157717510D03*
X186859199Y-158084886D03*
%TD*%
D23*
%TO.C,C43*%
X205219968Y-88237507D03*
X206179968Y-88237507D03*
%TD*%
D46*
%TO.C,R6*%
X208689965Y-60500010D03*
X209709965Y-60500010D03*
%TD*%
D27*
%TO.C,R29*%
X196409962Y-88037505D03*
X195389962Y-88037505D03*
%TD*%
D87*
%TO.C,L1*%
X187399968Y-88050003D03*
X187399968Y-85750003D03*
%TD*%
D88*
%TO.C,C2*%
X213349963Y-112770006D03*
X213349963Y-113730006D03*
%TD*%
D22*
%TO.C,D1*%
X61612940Y-65668762D03*
X61069420Y-67697206D03*
%TD*%
D89*
%TO.C,R9*%
X212684240Y-83936979D03*
X211962992Y-83215731D03*
%TD*%
D90*
%TO.C,C110*%
X210027668Y-128282506D03*
X209140744Y-127915130D03*
%TD*%
D37*
%TO.C,R1*%
X218049966Y-112740004D03*
X218049966Y-113760004D03*
%TD*%
D30*
%TO.C,C64*%
X138169662Y-154232099D03*
X139096950Y-154480565D03*
%TD*%
D91*
%TO.C,R8*%
X199034471Y-73675615D03*
X199755719Y-74396863D03*
%TD*%
D34*
%TO.C,D71*%
X142969267Y-94514470D03*
X143331613Y-93162174D03*
X137656675Y-93090966D03*
%TD*%
D28*
%TO.C,C91*%
X247243746Y-157068741D03*
X248171034Y-156820275D03*
%TD*%
D30*
%TO.C,C66*%
X103216834Y-137470725D03*
X104144122Y-137719191D03*
%TD*%
D15*
%TO.C,D53*%
X311514688Y-108776173D03*
X312058208Y-110804617D03*
%TD*%
D58*
%TO.C,C6*%
X216198545Y-83519790D03*
X215519723Y-84198612D03*
%TD*%
D16*
%TO.C,C23*%
X188299964Y-67780000D03*
X188299964Y-66820000D03*
%TD*%
D92*
%TO.C,D101*%
X250571684Y-188133876D03*
X249581735Y-187143927D03*
X246682597Y-192022963D03*
%TD*%
D27*
%TO.C,R36*%
X186959960Y-64700003D03*
X185939960Y-64700003D03*
%TD*%
D60*
%TO.C,D89*%
X66792206Y-136750058D03*
X66429860Y-138102354D03*
X72104798Y-138173562D03*
%TD*%
D93*
%TO.C,R30*%
X202399965Y-88025010D03*
X202399965Y-86375010D03*
%TD*%
D30*
%TO.C,C56*%
X74016248Y-99241699D03*
X74943536Y-99490165D03*
%TD*%
D36*
%TO.C,C60*%
X98943464Y-122161815D03*
X98016176Y-121913349D03*
%TD*%
D84*
%TO.C,D143*%
X197649964Y-86550010D03*
X195549964Y-86550010D03*
%TD*%
D60*
%TO.C,D74*%
X133088510Y-110139549D03*
X132726164Y-111491845D03*
X138401102Y-111563053D03*
%TD*%
D15*
%TO.C,D32*%
X232569781Y-108563902D03*
X233113301Y-110592346D03*
%TD*%
D38*
%TO.C,SW40*%
X254147617Y-174379308D03*
X264072727Y-165716104D03*
%TD*%
D27*
%TO.C,R35*%
X184769964Y-64700004D03*
X183749964Y-64700004D03*
%TD*%
D22*
%TO.C,D23*%
X127204423Y-115292261D03*
X126660903Y-117320705D03*
%TD*%
D44*
%TO.C,C75*%
X151247761Y-193953364D03*
X150568939Y-193274542D03*
%TD*%
D19*
%TO.C,D95*%
X133978113Y-179347873D03*
X134678113Y-178135437D03*
X129214973Y-176597873D03*
%TD*%
D36*
%TO.C,C50*%
X145606234Y-95221049D03*
X144678946Y-94972583D03*
%TD*%
D27*
%TO.C,R37*%
X192809971Y-76450005D03*
X191789971Y-76450005D03*
%TD*%
D17*
%TO.C,R2*%
X215849963Y-113760008D03*
X215849963Y-112740008D03*
%TD*%
D43*
%TO.C,C35*%
X183124963Y-83900015D03*
X184674963Y-83900015D03*
%TD*%
D46*
%TO.C,R26*%
X182889970Y-89600008D03*
X183909970Y-89600008D03*
%TD*%
D88*
%TO.C,C123*%
X228199991Y-201519997D03*
X228199991Y-202479997D03*
%TD*%
D94*
%TO.C,D137*%
X182237744Y-133494500D03*
X180944313Y-132958743D03*
X180132985Y-138575837D03*
%TD*%
D37*
%TO.C,R41*%
X230399991Y-201489997D03*
X230399991Y-202509997D03*
%TD*%
D15*
%TO.C,D36*%
X245218409Y-82165697D03*
X245761929Y-84194141D03*
%TD*%
D45*
%TO.C,C15*%
X206604060Y-71494190D03*
X207282882Y-70815368D03*
%TD*%
D16*
%TO.C,C34*%
X186599969Y-62380004D03*
X186599969Y-61420004D03*
%TD*%
D95*
%TO.C,C111*%
X216911685Y-141098027D03*
X216544309Y-140211103D03*
%TD*%
D14*
%TO.C,SW46*%
X283512506Y-77816246D03*
X295341629Y-72017041D03*
%TD*%
D39*
%TO.C,D128*%
X295145058Y-83229995D03*
X294782712Y-81877699D03*
X289832466Y-84653499D03*
%TD*%
D36*
%TO.C,C51*%
X163185370Y-103218371D03*
X162258082Y-102969905D03*
%TD*%
D32*
%TO.C,C93*%
X270841286Y-129186185D03*
X269913998Y-129434651D03*
%TD*%
D14*
%TO.C,SW51*%
X303146027Y-77485956D03*
X314975150Y-71686751D03*
%TD*%
D15*
%TO.C,D59*%
X335462374Y-124546662D03*
X336005894Y-126575106D03*
%TD*%
D28*
%TO.C,C98*%
X330414345Y-99447963D03*
X331341633Y-99199497D03*
%TD*%
D46*
%TO.C,R33*%
X170639968Y-92899998D03*
X171659968Y-92899998D03*
%TD*%
D14*
%TO.C,SW60*%
X341885225Y-148459099D03*
X353714348Y-142659894D03*
%TD*%
D37*
%TO.C,R42*%
X230399992Y-204989997D03*
X230399992Y-206009997D03*
%TD*%
D14*
%TO.C,SW37*%
X251641257Y-106078137D03*
X263470380Y-100278932D03*
%TD*%
D22*
%TO.C,D9*%
X65838598Y-123501837D03*
X65295078Y-125530281D03*
%TD*%
D59*
%TO.C,C120*%
X174049965Y-97149990D03*
X172149965Y-97149990D03*
%TD*%
D34*
%TO.C,D80*%
X76672971Y-121124952D03*
X77035317Y-119772656D03*
X71360379Y-119701448D03*
%TD*%
D28*
%TO.C,C88*%
X301624659Y-139210436D03*
X302551947Y-138961970D03*
%TD*%
D26*
%TO.C,D122*%
X274972544Y-102799045D03*
X275334890Y-104151341D03*
X280285136Y-101375541D03*
%TD*%
D15*
%TO.C,D42*%
X267522607Y-91802539D03*
X268066127Y-93830983D03*
%TD*%
D34*
%TO.C,D91*%
X47794764Y-155296352D03*
X48157110Y-153944056D03*
X42482172Y-153872848D03*
%TD*%
D22*
%TO.C,D22*%
X132134916Y-96891328D03*
X131591396Y-98919772D03*
%TD*%
D57*
%TO.C,C24*%
X173579991Y-87099997D03*
X172619991Y-87099997D03*
%TD*%
D33*
%TO.C,C11*%
X196708669Y-75486131D03*
X197804685Y-76582147D03*
%TD*%
D96*
%TO.C,U2*%
X207081356Y-62807384D03*
X207979382Y-63705410D03*
X208877407Y-64603435D03*
X209775433Y-65501461D03*
X204684264Y-70592630D03*
X203786238Y-69694604D03*
X202888213Y-68796579D03*
X201990187Y-67898553D03*
%TD*%
D22*
%TO.C,D3*%
X51751916Y-102470555D03*
X51208396Y-104498999D03*
%TD*%
D88*
%TO.C,C36*%
X183499968Y-90720012D03*
X183499968Y-91680012D03*
%TD*%
D22*
%TO.C,D11*%
X100263642Y-68629468D03*
X99720122Y-70657912D03*
%TD*%
D30*
%TO.C,C65*%
X120590539Y-146234760D03*
X121517827Y-146483226D03*
%TD*%
D34*
%TO.C,D67*%
X67516785Y-81692794D03*
X67879131Y-80340498D03*
X62204193Y-80269290D03*
%TD*%
D15*
%TO.C,D49*%
X296811682Y-127507346D03*
X297355202Y-129535790D03*
%TD*%
D44*
%TO.C,C5*%
X215915713Y-80663067D03*
X215236891Y-79984245D03*
%TD*%
D15*
%TO.C,D46*%
X282020181Y-72304687D03*
X282563701Y-74333131D03*
%TD*%
D97*
%TO.C,D35*%
X233742557Y-185234736D03*
X235227481Y-186719660D03*
%TD*%
D50*
%TO.C,C4*%
X167999992Y-71724997D03*
X167999992Y-73274997D03*
%TD*%
D98*
%TO.C,U11*%
X229474966Y-75855005D03*
X229474966Y-77125005D03*
X229474966Y-78395005D03*
X229474966Y-79665005D03*
X229474966Y-80935005D03*
X229474966Y-82205005D03*
X229474966Y-83475005D03*
X229474966Y-84745005D03*
X224524966Y-84745005D03*
X224524966Y-83475005D03*
X224524966Y-82205005D03*
X224524966Y-80935005D03*
X224524966Y-79665005D03*
X224524966Y-78395005D03*
X224524966Y-77125005D03*
X224524966Y-75855005D03*
%TD*%
D22*
%TO.C,D27*%
X149714041Y-104888668D03*
X149170521Y-106917112D03*
%TD*%
D60*
%TO.C,D87*%
X105853807Y-138177302D03*
X105491461Y-139529598D03*
X111166399Y-139600806D03*
%TD*%
D36*
%TO.C,C46*%
X70153766Y-82399367D03*
X69226478Y-82150901D03*
%TD*%
D39*
%TO.C,D103*%
X285431562Y-169651242D03*
X285069216Y-168298946D03*
X280118970Y-171074746D03*
%TD*%
D17*
%TO.C,R39*%
X229299992Y-202509997D03*
X229299992Y-201489997D03*
%TD*%
D99*
%TO.C,C113*%
X199901953Y-161911716D03*
X200788877Y-161544340D03*
%TD*%
D100*
%TO.C,R5*%
X207997063Y-70101186D03*
X208718311Y-69379938D03*
%TD*%
D101*
%TO.C,C116*%
X183282469Y-130972308D03*
X182915093Y-131859232D03*
%TD*%
D30*
%TO.C,C52*%
X148030670Y-117430314D03*
X148957958Y-117678780D03*
%TD*%
D37*
%TO.C,R21*%
X184149967Y-70990006D03*
X184149967Y-72010006D03*
%TD*%
D28*
%TO.C,C89*%
X282196585Y-140307383D03*
X283123873Y-140058917D03*
%TD*%
D102*
%TO.C,D132*%
X215866959Y-138575837D03*
X217160390Y-138040080D03*
X213762200Y-133494500D03*
%TD*%
D56*
%TO.C,D62*%
X190899971Y-177750021D03*
X190899971Y-179850021D03*
%TD*%
D46*
%TO.C,R16*%
X185939964Y-65700005D03*
X186959964Y-65700005D03*
%TD*%
D44*
%TO.C,C17*%
X210315903Y-84285265D03*
X209637081Y-83606443D03*
%TD*%
D57*
%TO.C,C29*%
X171979966Y-86099997D03*
X171019966Y-86099997D03*
%TD*%
D39*
%TO.C,D113*%
X250625156Y-137890063D03*
X250262810Y-136537767D03*
X245312564Y-139313567D03*
%TD*%
D37*
%TO.C,R22*%
X185149960Y-70990006D03*
X185149960Y-72010006D03*
%TD*%
D36*
%TO.C,C61*%
X118371519Y-123258805D03*
X117444231Y-123010339D03*
%TD*%
D39*
%TO.C,D125*%
X240764156Y-101088305D03*
X240401810Y-99736009D03*
X235451564Y-102511809D03*
%TD*%
D14*
%TO.C,SW54*%
X317937542Y-132688610D03*
X329766665Y-126889405D03*
%TD*%
D27*
%TO.C,R24*%
X184659968Y-77350004D03*
X183639968Y-77350004D03*
%TD*%
D39*
%TO.C,D114*%
X268204306Y-129892765D03*
X267841960Y-128540469D03*
X262891714Y-131316269D03*
%TD*%
D17*
%TO.C,R18*%
X184149969Y-70060009D03*
X184149969Y-69040009D03*
%TD*%
D34*
%TO.C,D92*%
X66811965Y-157926747D03*
X67174311Y-156574451D03*
X61499373Y-156503243D03*
%TD*%
D15*
%TO.C,D31*%
X227639281Y-90162999D03*
X228182801Y-92191443D03*
%TD*%
D60*
%TO.C,D76*%
X96286729Y-100278557D03*
X95924383Y-101630853D03*
X101599321Y-101702061D03*
%TD*%
D47*
%TO.C,C119*%
X173974969Y-95349990D03*
X172424969Y-95349990D03*
%TD*%
D24*
%TO.C,U9*%
X186899961Y-67900007D03*
X186099961Y-67900007D03*
D25*
X185749961Y-66950007D03*
X186249961Y-66950007D03*
X186749961Y-66950007D03*
X187249961Y-66950007D03*
X187249961Y-68850007D03*
X186749961Y-68850007D03*
X186249961Y-68850007D03*
X185749961Y-68850007D03*
%TD*%
D55*
%TO.C,D102*%
X266784978Y-176597857D03*
X266084978Y-175385421D03*
X262021838Y-179347857D03*
%TD*%
D14*
%TO.C,SW55*%
X322868040Y-151089505D03*
X334697163Y-145290300D03*
%TD*%
D58*
%TO.C,C16*%
X211454812Y-73290235D03*
X210775990Y-73969057D03*
%TD*%
D14*
%TO.C,SW48*%
X293373517Y-114618008D03*
X305202640Y-108818803D03*
%TD*%
D15*
%TO.C,D43*%
X272453092Y-110203431D03*
X272996612Y-112231875D03*
%TD*%
%TO.C,D52*%
X306584204Y-90375290D03*
X307127724Y-92403734D03*
%TD*%
D40*
%TO.C,C74*%
X136342366Y-180712868D03*
X135510982Y-180232868D03*
%TD*%
D26*
%TO.C,D121*%
X294400631Y-101702082D03*
X294762977Y-103054378D03*
X299713223Y-100278578D03*
%TD*%
D22*
%TO.C,D29*%
X139853041Y-141690456D03*
X139309521Y-143718900D03*
%TD*%
D37*
%TO.C,R25*%
X184699965Y-90690007D03*
X184699965Y-91710007D03*
%TD*%
D34*
%TO.C,D83*%
X133108267Y-131316281D03*
X133470613Y-129963985D03*
X127795675Y-129892777D03*
%TD*%
D103*
%TO.C,D136*%
X180132984Y-147424177D03*
X178839553Y-147959934D03*
X182237743Y-152505514D03*
%TD*%
D34*
%TO.C,D70*%
X125595562Y-85750449D03*
X125957908Y-84398153D03*
X120282970Y-84326945D03*
%TD*%
D35*
%TO.C,D40*%
X251279635Y-169441812D03*
X252329635Y-171260466D03*
%TD*%
D39*
%TO.C,D115*%
X285577984Y-121128721D03*
X285215638Y-119776425D03*
X280265392Y-122552225D03*
%TD*%
D60*
%TO.C,D90*%
X47775034Y-134119672D03*
X47412688Y-135471968D03*
X53087626Y-135543176D03*
%TD*%
D51*
%TO.C,C78*%
X228132179Y-182157755D03*
X227300795Y-182637755D03*
%TD*%
D31*
%TO.C,C39*%
X190799967Y-86875003D03*
X190799967Y-85325003D03*
%TD*%
D104*
%TO.C,Y1*%
X213773193Y-80571151D03*
X215328828Y-82126786D03*
X214126747Y-83328867D03*
X212571112Y-81773232D03*
%TD*%
D58*
%TO.C,C25*%
X201289383Y-66410599D03*
X200610561Y-67089421D03*
%TD*%
D34*
%TO.C,D72*%
X160548390Y-102511797D03*
X160910736Y-101159501D03*
X155235798Y-101088293D03*
%TD*%
D45*
%TO.C,C18*%
X201660554Y-83070278D03*
X202339376Y-82391456D03*
%TD*%
D14*
%TO.C,SW53*%
X313007038Y-114287717D03*
X324836161Y-108488512D03*
%TD*%
D105*
%TO.C,SW35*%
X237790731Y-189261710D03*
X245135449Y-178324890D03*
%TD*%
D14*
%TO.C,SW34*%
X243923110Y-150877213D03*
X255752233Y-145078008D03*
%TD*%
D31*
%TO.C,C42*%
X203999966Y-87975006D03*
X203999966Y-86425006D03*
%TD*%
D46*
%TO.C,R11*%
X205189975Y-135300009D03*
X206209975Y-135300009D03*
%TD*%
%TO.C,R13*%
X170589992Y-87099997D03*
X171609992Y-87099997D03*
%TD*%
D52*
%TO.C,D25*%
X132422766Y-162341820D03*
X131372766Y-164160474D03*
%TD*%
D22*
%TO.C,D24*%
X122273921Y-133693116D03*
X121730401Y-135721560D03*
%TD*%
D60*
%TO.C,D85*%
X140806637Y-154938677D03*
X140444291Y-156290973D03*
X146119229Y-156362181D03*
%TD*%
D106*
%TO.C,R31*%
X188287467Y-65100010D03*
X190112467Y-65100010D03*
%TD*%
D37*
%TO.C,R3*%
X214449966Y-112740011D03*
X214449966Y-113760011D03*
%TD*%
D31*
%TO.C,C26*%
X205099967Y-140875011D03*
X205099967Y-139325011D03*
%TD*%
D22*
%TO.C,D26*%
X154644548Y-86487775D03*
X154101028Y-88516219D03*
%TD*%
D32*
%TO.C,C95*%
X307643042Y-119325176D03*
X306715754Y-119573642D03*
%TD*%
D16*
%TO.C,C124*%
X228199992Y-205979997D03*
X228199992Y-205019997D03*
%TD*%
D15*
%TO.C,D38*%
X255079409Y-118967451D03*
X255622929Y-120995895D03*
%TD*%
D18*
%TO.C,J6*%
X206249969Y-92237507D03*
X189749969Y-92237507D03*
%TD*%
D26*
%TO.C,D119*%
X333051321Y-98741391D03*
X333413667Y-100093687D03*
X338363913Y-97317887D03*
%TD*%
D88*
%TO.C,C1*%
X216949971Y-112770004D03*
X216949971Y-113730004D03*
%TD*%
D14*
%TO.C,SW42*%
X269014933Y-97314097D03*
X280844056Y-91514892D03*
%TD*%
D30*
%TO.C,C69*%
X45138056Y-133413103D03*
X46065344Y-133661569D03*
%TD*%
D34*
%TO.C,D81*%
X96306480Y-121455244D03*
X96668826Y-120102948D03*
X90993888Y-120031740D03*
%TD*%
D32*
%TO.C,C104*%
X243401136Y-100381735D03*
X242473848Y-100630201D03*
%TD*%
D59*
%TO.C,C121*%
X174049971Y-99149990D03*
X172149971Y-99149990D03*
%TD*%
D22*
%TO.C,D5*%
X41890925Y-139272324D03*
X41347405Y-141300768D03*
%TD*%
D107*
%TO.C,U13*%
X190337467Y-61400009D03*
X190337467Y-62350009D03*
X190337467Y-63300009D03*
X188062467Y-63300009D03*
X188062467Y-61400009D03*
%TD*%
D14*
%TO.C,SW56*%
X322163226Y-74855555D03*
X333992349Y-69056350D03*
%TD*%
D26*
%TO.C,D107*%
X342912340Y-135543181D03*
X343274686Y-136895477D03*
X348224932Y-134119677D03*
%TD*%
D60*
%TO.C,D77*%
X76653224Y-99948272D03*
X76290878Y-101300568D03*
X81965816Y-101371776D03*
%TD*%
D34*
%TO.C,D82*%
X115734540Y-122552226D03*
X116096886Y-121199930D03*
X110421948Y-121128722D03*
%TD*%
D108*
%TO.C,D30*%
X152216488Y-175193827D03*
X150731564Y-176678751D03*
%TD*%
D91*
%TO.C,R7*%
X199847653Y-72862441D03*
X200568901Y-73583689D03*
%TD*%
D20*
%TO.C,SW64*%
X190914991Y-202509997D03*
X203841991Y-199969997D03*
%TD*%
D36*
%TO.C,C62*%
X135745250Y-132022858D03*
X134817962Y-131774392D03*
%TD*%
D109*
%TO.C,U3*%
X177949992Y-70449997D03*
X177949992Y-71099997D03*
X177949992Y-71749997D03*
X176049992Y-71749997D03*
X176049992Y-70449997D03*
%TD*%
D88*
%TO.C,C27*%
X206399969Y-140220011D03*
X206399969Y-141180011D03*
%TD*%
D15*
%TO.C,D51*%
X301653688Y-71974387D03*
X302197208Y-74002831D03*
%TD*%
D30*
%TO.C,C53*%
X130451528Y-109432973D03*
X131378816Y-109681439D03*
%TD*%
D14*
%TO.C,SW36*%
X246710734Y-87677250D03*
X258539857Y-81878045D03*
%TD*%
%TO.C,SW39*%
X261502248Y-142879906D03*
X273331371Y-137080701D03*
%TD*%
D60*
%TO.C,D88*%
X86425729Y-137080342D03*
X86063383Y-138432638D03*
X91738321Y-138503846D03*
%TD*%
D14*
%TO.C,SW32*%
X234062106Y-114075448D03*
X245891229Y-108276243D03*
%TD*%
D22*
%TO.C,D12*%
X95333139Y-87030338D03*
X94789619Y-89058782D03*
%TD*%
D110*
%TO.C,D141*%
X188099966Y-91550011D03*
X188099966Y-89450011D03*
%TD*%
D36*
%TO.C,C48*%
X108804464Y-85360070D03*
X107877176Y-85111604D03*
%TD*%
D15*
%TO.C,D45*%
X272306669Y-158725952D03*
X272850189Y-160754396D03*
%TD*%
D60*
%TO.C,D78*%
X57636033Y-97317892D03*
X57273687Y-98670188D03*
X62948625Y-98741396D03*
%TD*%
D15*
%TO.C,D44*%
X277383605Y-128604295D03*
X277927125Y-130632739D03*
%TD*%
D43*
%TO.C,C41*%
X192624970Y-87937510D03*
X194174970Y-87937510D03*
%TD*%
D22*
%TO.C,D15*%
X80541632Y-142232993D03*
X79998112Y-144261437D03*
%TD*%
%TO.C,D13*%
X90402639Y-105431216D03*
X89859119Y-107459660D03*
%TD*%
D26*
%TO.C,D123*%
X257598864Y-111563091D03*
X257961210Y-112915387D03*
X262911456Y-110139587D03*
%TD*%
D28*
%TO.C,C102*%
X254961891Y-112269661D03*
X255889179Y-112021195D03*
%TD*%
D27*
%TO.C,R17*%
X184769968Y-65700005D03*
X183749968Y-65700005D03*
%TD*%
D111*
%TO.C,D135*%
X188494466Y-158762235D03*
X187958709Y-160055666D03*
X193575803Y-160866994D03*
%TD*%
D22*
%TO.C,D20*%
X109977142Y-155050716D03*
X109433622Y-157079160D03*
%TD*%
D39*
%TO.C,D126*%
X258343282Y-93090999D03*
X257980936Y-91738703D03*
X253030690Y-94514503D03*
%TD*%
D30*
%TO.C,C57*%
X54999057Y-96611314D03*
X55926345Y-96859780D03*
%TD*%
D32*
%TO.C,C83*%
X317504047Y-156126955D03*
X316576759Y-156375421D03*
%TD*%
D43*
%TO.C,C32*%
X191324971Y-66850007D03*
X192874971Y-66850007D03*
%TD*%
M02*
