%TF.GenerationSoftware,KiCad,Pcbnew,(7.0.0)*%
%TF.CreationDate,2023-03-10T21:47:00+00:00*%
%TF.ProjectId,Honeydew,486f6e65-7964-4657-972e-6b696361645f,rev?*%
%TF.SameCoordinates,Original*%
%TF.FileFunction,Profile,NP*%
%FSLAX46Y46*%
G04 Gerber Fmt 4.6, Leading zero omitted, Abs format (unit mm)*
G04 Created by KiCad (PCBNEW (7.0.0)) date 2023-03-10 21:47:00*
%MOMM*%
%LPD*%
G01*
G04 APERTURE LIST*
%TA.AperFunction,Profile*%
%ADD10C,0.100000*%
%TD*%
%TA.AperFunction,Profile*%
%ADD11C,0.120000*%
%TD*%
G04 APERTURE END LIST*
D10*
X166257183Y-22700620D02*
X138431816Y-22700627D01*
X208023647Y-181956929D02*
G75*
G03*
X218857847Y-175298457I-16278147J38630229D01*
G01*
X166757170Y-18763073D02*
X166757165Y-22200627D01*
X266360765Y-144807660D02*
G75*
G03*
X218857848Y-175298458I47935735J-126929940D01*
G01*
X332492695Y-120734979D02*
G75*
G03*
X333389155Y-118812438I-512995J1409479D01*
G01*
X131142166Y-175298458D02*
G75*
G03*
X141976381Y-181956918I27110934J31969558D01*
G01*
X141976380Y-181956920D02*
G75*
G03*
X208023643Y-181956919I33023630J85937840D01*
G01*
X300948684Y-29683952D02*
G75*
G03*
X299745986Y-28711318I-1409384J-512848D01*
G01*
X266360768Y-144807668D02*
X332492698Y-120734987D01*
X17507439Y-120738487D02*
X83639249Y-144807678D01*
X167257153Y-18263079D02*
X182742866Y-18263085D01*
X138431816Y-22700625D02*
G75*
G03*
X50254050Y-28714870I-1341316J-629749975D01*
G01*
X183242815Y-18763058D02*
G75*
G03*
X182742866Y-18263085I-499715J258D01*
G01*
X299745987Y-28711313D02*
G75*
G03*
X211568236Y-22697080I-86836487J-623737587D01*
G01*
X167257153Y-18263070D02*
G75*
G03*
X166757170Y-18763073I-53J-499930D01*
G01*
X183242868Y-22197084D02*
X183242853Y-18763058D01*
X16610901Y-118815899D02*
G75*
G03*
X17507439Y-120738487I1409399J-513101D01*
G01*
X333389155Y-118812438D02*
X300948685Y-29683952D01*
X50254048Y-28714854D02*
G75*
G03*
X49051354Y-29687511I206752J-1485546D01*
G01*
X183242839Y-22197084D02*
G75*
G03*
X183742863Y-22697061I499961J-16D01*
G01*
X131142168Y-175298456D02*
G75*
G03*
X83639249Y-144807679I-95439368J-96440344D01*
G01*
X211568236Y-22697080D02*
X183742863Y-22697061D01*
X166257183Y-22700665D02*
G75*
G03*
X166757165Y-22200627I317J499665D01*
G01*
X49051354Y-29687511D02*
X16610917Y-118815905D01*
D11*
%TO.C,D103*%
X151073114Y-175715094D02*
X154550447Y-176646842D01*
X150270775Y-178709464D02*
X151073114Y-175715094D01*
X154550447Y-176646842D02*
X153748108Y-179641212D01*
X153748108Y-179641212D02*
X150270775Y-178709464D01*
%TO.C,D104*%
X173199788Y-179109404D02*
X176799788Y-179109404D01*
X173199788Y-182209404D02*
X173199788Y-179109404D01*
X176799788Y-179109404D02*
X176799788Y-182209404D01*
X176799788Y-182209404D02*
X173199788Y-182209404D01*
%TO.C,D105*%
X195474320Y-176640207D02*
X198951653Y-175708459D01*
X196276659Y-179634577D02*
X195474320Y-176640207D01*
X198951653Y-175708459D02*
X199753992Y-178702829D01*
X199753992Y-178702829D02*
X196276659Y-179634577D01*
%TO.C,D125*%
X280292180Y-123289924D02*
X283675073Y-122058651D01*
X281352443Y-126202971D02*
X280292180Y-123289924D01*
X283675073Y-122058651D02*
X284735336Y-124971698D01*
X284735336Y-124971698D02*
X281352443Y-126202971D01*
%TO.C,D75*%
X41110318Y-79938325D02*
X44493211Y-81169598D01*
X40050055Y-82851372D02*
X41110318Y-79938325D01*
X44493211Y-81169598D02*
X43432948Y-84082645D01*
X43432948Y-84082645D02*
X40050055Y-82851372D01*
%TO.C,D102*%
X129387903Y-160679405D02*
X131701939Y-163437165D01*
X127013165Y-162672047D02*
X129387903Y-160679405D01*
X131701939Y-163437165D02*
X129327201Y-165429807D01*
X129327201Y-165429807D02*
X127013165Y-162672047D01*
%TO.C,D81*%
X55633023Y-106261620D02*
X52250130Y-105030347D01*
X56693286Y-103348573D02*
X55633023Y-106261620D01*
X52250130Y-105030347D02*
X53310393Y-102117300D01*
X53310393Y-102117300D02*
X56693286Y-103348573D01*
%TO.C,D106*%
X201612738Y-74215327D02*
X204995631Y-72984054D01*
X202673001Y-77128374D02*
X201612738Y-74215327D01*
X204995631Y-72984054D02*
X206055894Y-75897101D01*
X206055894Y-75897101D02*
X202673001Y-77128374D01*
%TO.C,D67*%
X184316147Y-110263952D02*
X187433839Y-112063952D01*
X182766147Y-112948630D02*
X184316147Y-110263952D01*
X187433839Y-112063952D02*
X185883839Y-114748630D01*
X185883839Y-114748630D02*
X182766147Y-112948630D01*
%TO.C,D101*%
X127780566Y-130831798D02*
X124397673Y-129600525D01*
X128840829Y-127918751D02*
X127780566Y-130831798D01*
X124397673Y-129600525D02*
X125457936Y-126687478D01*
X125457936Y-126687478D02*
X128840829Y-127918751D01*
%TO.C,D134*%
X316465447Y-100752518D02*
X313082554Y-101983791D01*
X315405184Y-97839471D02*
X316465447Y-100752518D01*
X313082554Y-101983791D02*
X312022291Y-99070744D01*
X312022291Y-99070744D02*
X315405184Y-97839471D01*
%TO.C,D78*%
X72856866Y-48413867D02*
X76239759Y-49645140D01*
X71796603Y-51326914D02*
X72856866Y-48413867D01*
X76239759Y-49645140D02*
X75179496Y-52558187D01*
X75179496Y-52558187D02*
X71796603Y-51326914D01*
%TO.C,D98*%
X145004375Y-72984048D02*
X148387268Y-74215321D01*
X143944112Y-75897095D02*
X145004375Y-72984048D01*
X148387268Y-74215321D02*
X147327005Y-77128368D01*
X147327005Y-77128368D02*
X143944112Y-75897095D01*
%TO.C,D90*%
X98614443Y-89042434D02*
X101997336Y-90273707D01*
X97554180Y-91955481D02*
X98614443Y-89042434D01*
X101997336Y-90273707D02*
X100937073Y-93186754D01*
X100937073Y-93186754D02*
X97554180Y-91955481D01*
%TO.C,D100*%
X131973418Y-108786330D02*
X135356311Y-110017603D01*
X130913155Y-111699377D02*
X131973418Y-108786330D01*
X135356311Y-110017603D02*
X134296048Y-112930650D01*
X134296048Y-112930650D02*
X130913155Y-111699377D01*
%TO.C,D87*%
X66324935Y-122058640D02*
X69707828Y-123289913D01*
X65264672Y-124971687D02*
X66324935Y-122058640D01*
X69707828Y-123289913D02*
X68647565Y-126202960D01*
X68647565Y-126202960D02*
X65264672Y-124971687D01*
%TO.C,D68*%
X196750007Y-128199989D02*
X196750007Y-131799989D01*
X193650007Y-128199989D02*
X196750007Y-128199989D01*
X196750007Y-131799989D02*
X193650007Y-131799989D01*
X193650007Y-131799989D02*
X193650007Y-128199989D01*
%TO.C,D84*%
X88194016Y-72499522D02*
X84811123Y-71268249D01*
X89254279Y-69586475D02*
X88194016Y-72499522D01*
X84811123Y-71268249D02*
X85871386Y-68355202D01*
X85871386Y-68355202D02*
X89254279Y-69586475D01*
%TO.C,D91*%
X94421598Y-111087884D02*
X91038705Y-109856611D01*
X95481861Y-108174837D02*
X94421598Y-111087884D01*
X91038705Y-109856611D02*
X92098968Y-106943564D01*
X92098968Y-106943564D02*
X95481861Y-108174837D01*
%TO.C,D83*%
X92386876Y-50454068D02*
X95769769Y-51685341D01*
X91326613Y-53367115D02*
X92386876Y-50454068D01*
X95769769Y-51685341D02*
X94709506Y-54598388D01*
X94709506Y-54598388D02*
X91326613Y-53367115D01*
%TO.C,D95*%
X115158205Y-99287351D02*
X118541098Y-100518624D01*
X114097942Y-102200398D02*
X115158205Y-99287351D01*
X118541098Y-100518624D02*
X117480835Y-103431671D01*
X117480835Y-103431671D02*
X114097942Y-102200398D01*
%TO.C,D86*%
X75163046Y-108301824D02*
X71780153Y-107070551D01*
X76223309Y-105388777D02*
X75163046Y-108301824D01*
X71780153Y-107070551D02*
X72840416Y-104157504D01*
X72840416Y-104157504D02*
X76223309Y-105388777D01*
%TO.C,D129*%
X297749868Y-105030360D02*
X294366975Y-106261633D01*
X296689605Y-102117313D02*
X297749868Y-105030360D01*
X294366975Y-106261633D02*
X293306712Y-103348586D01*
X293306712Y-103348586D02*
X296689605Y-102117313D01*
D10*
%TO.C,U4*%
X179250000Y-138320000D02*
X179250000Y-122570000D01*
X178750000Y-138820000D02*
X171250000Y-138820000D01*
X178750000Y-122070000D02*
X171250000Y-122070000D01*
X170750000Y-122570000D02*
X170750000Y-138320000D01*
X178750000Y-138820000D02*
G75*
G03*
X179250000Y-138320000I-1J500001D01*
G01*
X179250000Y-122570000D02*
G75*
G03*
X178750000Y-122070000I-499998J2D01*
G01*
X170750000Y-138320000D02*
G75*
G03*
X171250000Y-138820000I500000J0D01*
G01*
X171250000Y-122070000D02*
G75*
G03*
X170750000Y-122570000I0J-500000D01*
G01*
D11*
%TO.C,D93*%
X128189166Y-63485020D02*
X131572059Y-64716293D01*
X127128903Y-66398067D02*
X128189166Y-63485020D01*
X131572059Y-64716293D02*
X130511796Y-67629340D01*
X130511796Y-67629340D02*
X127128903Y-66398067D01*
%TO.C,D127*%
X284718897Y-69228050D02*
X281336004Y-70459323D01*
X283658634Y-66315003D02*
X284718897Y-69228050D01*
X281336004Y-70459323D02*
X280275741Y-67546276D01*
X280275741Y-67546276D02*
X283658634Y-66315003D01*
%TO.C,D130*%
X299822200Y-121249740D02*
X303205093Y-120018467D01*
X300882463Y-124162787D02*
X299822200Y-121249740D01*
X303205093Y-120018467D02*
X304265356Y-122931514D01*
X304265356Y-122931514D02*
X300882463Y-124162787D01*
%TO.C,D124*%
X278219856Y-107070545D02*
X274836963Y-108301818D01*
X277159593Y-104157498D02*
X278219856Y-107070545D01*
X274836963Y-108301818D02*
X273776700Y-105388771D01*
X273776700Y-105388771D02*
X277159593Y-104157498D01*
%TO.C,D107*%
X212571371Y-93798242D02*
X209188478Y-95029515D01*
X211511108Y-90885195D02*
X212571371Y-93798242D01*
X209188478Y-95029515D02*
X208128215Y-92116468D01*
X208128215Y-92116468D02*
X211511108Y-90885195D01*
%TO.C,D85*%
X79355910Y-86256347D02*
X82738803Y-87487620D01*
X78295647Y-89169394D02*
X79355910Y-86256347D01*
X82738803Y-87487620D02*
X81678540Y-90400667D01*
X81678540Y-90400667D02*
X78295647Y-89169394D01*
%TO.C,D92*%
X94531320Y-137393060D02*
X97914213Y-138624333D01*
X93471057Y-140306107D02*
X94531320Y-137393060D01*
X97914213Y-138624333D02*
X96853950Y-141537380D01*
X96853950Y-141537380D02*
X93471057Y-140306107D01*
%TO.C,D73*%
X54141286Y-44136021D02*
X57524179Y-45367294D01*
X53081023Y-47049068D02*
X54141286Y-44136021D01*
X57524179Y-45367294D02*
X56463916Y-48280341D01*
X56463916Y-48280341D02*
X53081023Y-47049068D01*
%TO.C,D108*%
X214643683Y-110017612D02*
X218026576Y-108786339D01*
X215703946Y-112930659D02*
X214643683Y-110017612D01*
X218026576Y-108786339D02*
X219086839Y-111699386D01*
X219086839Y-111699386D02*
X215703946Y-112930659D01*
%TO.C,D112*%
X229386603Y-84299237D02*
X226003710Y-85530510D01*
X228326340Y-81386190D02*
X229386603Y-84299237D01*
X226003710Y-85530510D02*
X224943447Y-82617463D01*
X224943447Y-82617463D02*
X228326340Y-81386190D01*
%TO.C,D131*%
X292475830Y-45367297D02*
X295858723Y-44136024D01*
X293536093Y-48280344D02*
X292475830Y-45367297D01*
X295858723Y-44136024D02*
X296918986Y-47049071D01*
X296918986Y-47049071D02*
X293536093Y-48280344D01*
%TO.C,D76*%
X36917477Y-101983800D02*
X33534584Y-100752527D01*
X37977740Y-99070753D02*
X36917477Y-101983800D01*
X33534584Y-100752527D02*
X34594847Y-97839480D01*
X34594847Y-97839480D02*
X37977740Y-99070753D01*
%TO.C,D89*%
X107452563Y-75285598D02*
X104069670Y-74054325D01*
X108512826Y-72372551D02*
X107452563Y-75285598D01*
X104069670Y-74054325D02*
X105129933Y-71141278D01*
X105129933Y-71141278D02*
X108512826Y-72372551D01*
%TO.C,D117*%
X245930339Y-74054329D02*
X242547446Y-75285602D01*
X244870076Y-71141282D02*
X245930339Y-74054329D01*
X242547446Y-75285602D02*
X241487183Y-72372555D01*
X241487183Y-72372555D02*
X244870076Y-71141282D01*
%TO.C,D96*%
X110965355Y-121332788D02*
X107582462Y-120101515D01*
X112025618Y-118419741D02*
X110965355Y-121332788D01*
X107582462Y-120101515D02*
X108642725Y-117188468D01*
X108642725Y-117188468D02*
X112025618Y-118419741D01*
%TO.C,D77*%
X28079350Y-115740614D02*
X31462243Y-116971887D01*
X27019087Y-118653661D02*
X28079350Y-115740614D01*
X31462243Y-116971887D02*
X30401980Y-119884934D01*
X30401980Y-119884934D02*
X27019087Y-118653661D01*
%TO.C,D113*%
X231458927Y-100518599D02*
X234841820Y-99287326D01*
X232519190Y-103431646D02*
X231458927Y-100518599D01*
X234841820Y-99287326D02*
X235902083Y-102200373D01*
X235902083Y-102200373D02*
X232519190Y-103431646D01*
%TO.C,D71*%
X153249998Y-131800002D02*
X153249998Y-128200002D01*
X156349998Y-131800002D02*
X153249998Y-131800002D01*
X153249998Y-128200002D02*
X156349998Y-128200002D01*
X156349998Y-128200002D02*
X156349998Y-131800002D01*
%TO.C,D82*%
X46794917Y-120018444D02*
X50177810Y-121249717D01*
X45734654Y-122931491D02*
X46794917Y-120018444D01*
X50177810Y-121249717D02*
X49117547Y-124162764D01*
X49117547Y-124162764D02*
X45734654Y-122931491D01*
%TO.C,D132*%
X303434474Y-64950226D02*
X300051581Y-66181499D01*
X302374211Y-62037179D02*
X303434474Y-64950226D01*
X300051581Y-66181499D02*
X298991318Y-63268452D01*
X298991318Y-63268452D02*
X302374211Y-62037179D01*
%TO.C,D69*%
X187433858Y-147936049D02*
X184316166Y-149736049D01*
X185883858Y-145251371D02*
X187433858Y-147936049D01*
X184316166Y-149736049D02*
X182766166Y-147051371D01*
X182766166Y-147051371D02*
X185883858Y-145251371D01*
%TO.C,D122*%
X265188877Y-71268265D02*
X261805984Y-72499538D01*
X264128614Y-68355218D02*
X265188877Y-71268265D01*
X261805984Y-72499538D02*
X260745721Y-69586491D01*
X260745721Y-69586491D02*
X264128614Y-68355218D01*
%TO.C,D99*%
X140811546Y-95029498D02*
X137428653Y-93798225D01*
X141871809Y-92116451D02*
X140811546Y-95029498D01*
X137428653Y-93798225D02*
X138488916Y-90885178D01*
X138488916Y-90885178D02*
X141871809Y-92116451D01*
%TO.C,D80*%
X59825918Y-84216153D02*
X63208811Y-85447426D01*
X58765655Y-87129200D02*
X59825918Y-84216153D01*
X63208811Y-85447426D02*
X62148548Y-88360473D01*
X62148548Y-88360473D02*
X58765655Y-87129200D01*
%TO.C,D109*%
X225602329Y-129600529D02*
X222219436Y-130831802D01*
X224542066Y-126687482D02*
X225602329Y-129600529D01*
X222219436Y-130831802D02*
X221159173Y-127918755D01*
X221159173Y-127918755D02*
X224542066Y-126687482D01*
%TO.C,D133*%
X305506799Y-81169585D02*
X308889692Y-79938312D01*
X306567062Y-84082632D02*
X305506799Y-81169585D01*
X308889692Y-79938312D02*
X309949955Y-82851359D01*
X309949955Y-82851359D02*
X306567062Y-84082632D01*
%TO.C,D126*%
X273760271Y-49645144D02*
X277143164Y-48413871D01*
X274820534Y-52558191D02*
X273760271Y-49645144D01*
X277143164Y-48413871D02*
X278203427Y-51326918D01*
X278203427Y-51326918D02*
X274820534Y-52558191D01*
%TO.C,D111*%
X218427953Y-64716315D02*
X221810846Y-63485042D01*
X219488216Y-67629362D02*
X218427953Y-64716315D01*
X221810846Y-63485042D02*
X222871109Y-66398089D01*
X222871109Y-66398089D02*
X219488216Y-67629362D01*
%TO.C,D70*%
X165683848Y-149736049D02*
X162566156Y-147936049D01*
X167233848Y-147051371D02*
X165683848Y-149736049D01*
X162566156Y-147936049D02*
X164116156Y-145251371D01*
X164116156Y-145251371D02*
X167233848Y-147051371D01*
%TO.C,D114*%
X242417554Y-120101532D02*
X239034661Y-121332805D01*
X241357291Y-117188485D02*
X242417554Y-120101532D01*
X239034661Y-121332805D02*
X237974398Y-118419758D01*
X237974398Y-118419758D02*
X241357291Y-117188485D01*
%TO.C,D123*%
X267261220Y-87487634D02*
X270644113Y-86256361D01*
X268321483Y-90400681D02*
X267261220Y-87487634D01*
X270644113Y-86256361D02*
X271704376Y-89169408D01*
X271704376Y-89169408D02*
X268321483Y-90400681D01*
%TO.C,D135*%
X318537768Y-116971879D02*
X321920661Y-115740606D01*
X319598031Y-119884926D02*
X318537768Y-116971879D01*
X321920661Y-115740606D02*
X322980924Y-118653653D01*
X322980924Y-118653653D02*
X319598031Y-119884926D01*
%TO.C,D128*%
X286791232Y-85447439D02*
X290174125Y-84216166D01*
X287851495Y-88360486D02*
X286791232Y-85447439D01*
X290174125Y-84216166D02*
X291234388Y-87129213D01*
X291234388Y-87129213D02*
X287851495Y-88360486D01*
%TO.C,D97*%
X113540802Y-146752573D02*
X116489749Y-148817448D01*
X111762715Y-149291944D02*
X113540802Y-146752573D01*
X116489749Y-148817448D02*
X114711662Y-151356819D01*
X114711662Y-151356819D02*
X111762715Y-149291944D01*
%TO.C,D72*%
X162566165Y-112063953D02*
X165683857Y-110263953D01*
X164116165Y-114748631D02*
X162566165Y-112063953D01*
X165683857Y-110263953D02*
X167233857Y-112948631D01*
X167233857Y-112948631D02*
X164116165Y-114748631D01*
%TO.C,D94*%
X123996302Y-85530484D02*
X120613409Y-84299211D01*
X125056565Y-82617437D02*
X123996302Y-85530484D01*
X120613409Y-84299211D02*
X121673672Y-81386164D01*
X121673672Y-81386164D02*
X125056565Y-82617437D01*
%TO.C,D119*%
X258961307Y-109856612D02*
X255578414Y-111087885D01*
X257901044Y-106943565D02*
X258961307Y-109856612D01*
X255578414Y-111087885D02*
X254518151Y-108174838D01*
X254518151Y-108174838D02*
X257901044Y-106943565D01*
%TO.C,D120*%
X252085813Y-138624336D02*
X255468706Y-137393063D01*
X253146076Y-141537383D02*
X252085813Y-138624336D01*
X255468706Y-137393063D02*
X256528969Y-140306110D01*
X256528969Y-140306110D02*
X253146076Y-141537383D01*
%TO.C,D115*%
X233494420Y-148811690D02*
X236443367Y-146746815D01*
X235272507Y-151351061D02*
X233494420Y-148811690D01*
X236443367Y-146746815D02*
X238221454Y-149286186D01*
X238221454Y-149286186D02*
X235272507Y-151351061D01*
%TO.C,D116*%
X234971694Y-54471418D02*
X238354587Y-53240145D01*
X236031957Y-57384465D02*
X234971694Y-54471418D01*
X238354587Y-53240145D02*
X239414850Y-56153192D01*
X239414850Y-56153192D02*
X236031957Y-57384465D01*
%TO.C,D110*%
X218293179Y-163436239D02*
X220607215Y-160678479D01*
X220667917Y-165428881D02*
X218293179Y-163436239D01*
X220607215Y-160678479D02*
X222981953Y-162671121D01*
X222981953Y-162671121D02*
X220667917Y-165428881D01*
%TO.C,D74*%
X49948430Y-66181494D02*
X46565537Y-64950221D01*
X51008693Y-63268447D02*
X49948430Y-66181494D01*
X46565537Y-64950221D02*
X47625800Y-62037174D01*
X47625800Y-62037174D02*
X51008693Y-63268447D01*
%TO.C,D79*%
X68664007Y-70459324D02*
X65281114Y-69228051D01*
X69724270Y-67546277D02*
X68664007Y-70459324D01*
X65281114Y-69228051D02*
X66341377Y-66315004D01*
X66341377Y-66315004D02*
X69724270Y-67546277D01*
%TO.C,D121*%
X254230241Y-51685351D02*
X257613134Y-50454078D01*
X255290504Y-54598398D02*
X254230241Y-51685351D01*
X257613134Y-50454078D02*
X258673397Y-53367125D01*
X258673397Y-53367125D02*
X255290504Y-54598398D01*
%TO.C,D88*%
X111645420Y-53240133D02*
X115028313Y-54471406D01*
X110585157Y-56153180D02*
X111645420Y-53240133D01*
X115028313Y-54471406D02*
X113968050Y-57384453D01*
X113968050Y-57384453D02*
X110585157Y-56153180D01*
%TO.C,D118*%
X248002679Y-90273718D02*
X251385572Y-89042445D01*
X249062942Y-93186765D02*
X248002679Y-90273718D01*
X251385572Y-89042445D02*
X252445835Y-91955492D01*
X252445835Y-91955492D02*
X249062942Y-93186765D01*
%TD*%
M02*
