M48
; DRILL file {KiCad (7.0.0)} date Sat May 20 22:42:22 2023
; FORMAT={-:-/ absolute / inch / decimal}
; #@! TF.CreationDate,2023-05-20T22:42:22+01:00
; #@! TF.GenerationSoftware,Kicad,Pcbnew,(7.0.0)
; #@! TF.FileFunction,Plated,1,2,PTH
FMAT,2
INCH
; #@! TA.AperFunction,Plated,PTH,ViaDrill
T1C0.0098
; #@! TA.AperFunction,Plated,PTH,ViaDrill
T2C0.0118
; #@! TA.AperFunction,Plated,PTH,ComponentDrill
T3C0.0118
; #@! TA.AperFunction,Plated,PTH,ComponentDrill
T4C0.0236
; #@! TA.AperFunction,Plated,PTH,ComponentDrill
T5C0.0276
; #@! TA.AperFunction,Plated,PTH,ComponentDrill
T6C0.0394
; #@! TA.AperFunction,Plated,PTH,ComponentDrill
T7C0.0472
; #@! TA.AperFunction,Plated,PTH,ComponentDrill
T8C0.0709
; #@! TA.AperFunction,Plated,PTH,ComponentDrill
T9C0.0787
; #@! TA.AperFunction,Plated,PTH,ComponentDrill
T10C0.0866
; #@! TA.AperFunction,Plated,PTH,ComponentDrill
T11C0.1181
; #@! TA.AperFunction,Plated,PTH,ComponentDrill
T12C0.1200
; #@! TA.AperFunction,Plated,PTH,ComponentDrill
T13C0.1260
%
G90
G05
T1
X2.6356Y-2.6844
X2.6575Y-2.6043
X2.9331Y-2.6693
X3.6811Y-2.7717
X4.4567Y-2.7835
X5.2205Y-2.8268
X5.9055Y-3.1732
X5.9548Y-6.1775
X6.1321Y-5.5158
X6.3431Y-4.7286
X6.5204Y-4.067
X6.6026Y-3.435
X6.6137Y-7.5714
X6.6303Y-3.5502
X6.6824Y-7.2594
X6.8031Y-3.5276
X6.811Y-3.6811
X6.9311Y-2.7539
X6.9724Y-4.4331
X7.0748Y-3.2453
X7.0817Y-3.0177
X7.1043Y-3.5276
X7.122Y-3.7402
X7.126Y-3.5079
X7.1476Y-3.4882
X7.1654Y-3.1713
X7.1811Y-2.9941
X7.185Y-3.8031
X7.2086Y-3.7794
X7.2972Y-2.5276
X7.3679Y-3.0942
X7.3681Y-3.1707
X7.374Y-6.622
X7.4272Y-3.2323
X7.4456Y-3.2528
X7.4705Y-2.6673
X7.5276Y-2.9685
X7.5433Y-3.1713
X7.5433Y-3.1988
X7.5591Y-3.0335
X7.563Y-2.7894
X7.563Y-2.8228
X7.5886Y-4.6201
X7.6161Y-3.6614
X7.624Y-2.9075
X7.6398Y-3.6772
X7.6634Y-3.6929
X7.6752Y-2.8425
X7.6822Y-4.5768
X7.7244Y-5.2008
X7.7421Y-2.7638
X7.7598Y-2.5315
X7.761Y-3.4621
X7.7736Y-3.6929
X7.7835Y-5.1024
X7.7852Y-3.4798
X7.8032Y-5.1576
X7.8051Y-3.6752
X7.8071Y-5.2205
X7.811Y-2.5315
X7.8189Y-3.3164
X7.8228Y-4.7185
X7.8346Y-5.2205
X7.8425Y-3.5827
X7.8445Y-2.6614
X7.8445Y-4.7382
X7.8445Y-3.3282
X7.8484Y-4.9311
X7.8565Y-4.9048
X7.8681Y-5.2539
X7.874Y-4.7874
X7.874Y-4.8543
X7.8799Y-3.3774
X7.8996Y-3.4798
X7.9094Y-5.1575
X8.0646Y-6.6283
X8.0902Y-3.2697
X8.1207Y-3.3001
X8.1476Y-3.6039
X8.1831Y-3.6826
X8.2101Y-3.6038
X8.252Y-3.6181
X8.2913Y-3.5433
X8.315Y-3.5669
X8.437Y-3.4921
X8.4606Y-3.4685
X8.5079Y-6.6299
X8.5906Y-3.7392
X8.5984Y-3.4646
X8.622Y-3.4882
X8.622Y-3.7402
X8.689Y-2.9528
X8.7126Y-2.9291
X8.7244Y-3.7165
X8.7296Y-4.4528
X8.7362Y-3.6102
X8.7362Y-3.6732
X8.7362Y-2.9055
X8.7362Y-3.6417
X8.7559Y-6.2953
X8.7795Y-6.2717
X8.8031Y-6.248
X8.8268Y-6.2244
X8.8504Y-6.3898
X8.8583Y-3.5827
X8.874Y-6.3661
X8.8976Y-6.3425
X8.9184Y-3.5614
X8.9213Y-6.3189
X8.9442Y-4.3129
X8.9528Y-4.2296
X8.9646Y-4.4803
X9.0118Y-4.3129
X9.0512Y-4.4803
X9.063Y-6.8748
X9.063Y-7.5354
X9.0854Y-4.124
X9.0945Y-6.874
X9.0945Y-7.5354
X9.1654Y-7.25
X9.1654Y-7.4035
X9.2613Y-4.78
X9.2677Y-3.4134
X9.4726Y-5.569
X9.6495Y-6.2289
X9.9528Y-3.1024
X10.6417Y-2.7559
X11.4094Y-2.7126
X12.189Y-2.6969
T2
X1.6376Y-6.0058
X1.6447Y-5.9792
X1.7535Y-5.2462
X2.0091Y-6.1482
X2.0258Y-4.5569
X2.033Y-4.5303
X2.1179Y-5.4151
X2.125Y-5.3885
X2.1417Y-3.7973
X2.3863Y-6.1094
X2.3934Y-6.0828
X2.3973Y-4.6993
X2.414Y-3.1081
X2.4212Y-3.0814
X2.5022Y-5.3497
X2.5061Y-3.9662
X2.5132Y-3.9396
X2.7578Y-6.2517
X2.7745Y-4.6605
X2.7817Y-4.6339
X2.7855Y-3.2504
X2.8666Y-5.5187
X2.8737Y-5.4921
X2.8904Y-3.9008
X3.146Y-4.8028
X3.1593Y-6.1224
X3.1628Y-3.2116
X3.1664Y-6.0958
X3.1699Y-3.185
X3.2548Y-4.0698
X3.2619Y-4.0432
X3.2752Y-5.3627
X3.5308Y-6.2647
X3.5342Y-3.3539
X3.5475Y-4.6735
X3.5546Y-4.6469
X3.6395Y-5.5317
X3.6467Y-5.5051
X3.6634Y-3.9138
X3.919Y-4.8158
X3.9357Y-3.2246
X3.9429Y-3.198
X4.0278Y-4.0828
X4.0349Y-4.0562
X4.0401Y-5.4059
X4.3072Y-3.367
X4.3124Y-4.7167
X4.3182Y-6.627
X4.3195Y-4.6901
X4.3253Y-6.6004
X4.4044Y-5.5749
X4.4116Y-5.5483
X4.4283Y-3.957
X4.6839Y-4.859
X4.6896Y-6.7694
X4.7006Y-3.2678
X4.7077Y-3.2412
X4.7241Y-5.751
X4.7927Y-4.126
X4.7998Y-4.0994
X4.9964Y-5.0617
X5.0035Y-5.0351
X5.067Y-6.8932
X5.0721Y-3.4101
X5.0807Y-6.8694
X5.0884Y-5.9199
X5.0956Y-5.8933
X5.1123Y-4.3021
X5.3679Y-5.2041
X5.3846Y-3.6128
X5.3889Y-7.1269
X5.3918Y-3.5862
X5.4162Y-6.0658
X5.4767Y-4.471
X5.4838Y-4.4444
X5.6885Y-5.3766
X5.6956Y-5.35
X5.7213Y-7.3442
X5.7408Y-7.3247
X5.7561Y-3.7552
X5.7805Y-6.2348
X5.7877Y-6.2081
X5.8044Y-4.6169
X5.9719Y-7.6532
X6.0144Y-6.1528
X6.0487Y-6.1619
X6.06Y-5.5189
X6.0767Y-3.9277
X6.0838Y-3.9011
X6.1569Y-5.6211
X6.1688Y-4.7859
X6.1759Y-4.7593
X6.1911Y-5.6302
X6.378Y-5.0709
X6.3812Y-8.0835
X6.4027Y-4.7039
X6.4063Y-8.1085
X6.4369Y-4.713
X6.4482Y-4.07
X6.5079Y-7.2244
X6.5354Y-5.2283
X6.5354Y-6.0709
X6.5354Y-7.2244
X6.5451Y-4.1722
X6.5512Y-4.4134
X6.5512Y-5.1693
X6.5794Y-4.1813
X6.5827Y-2.8701
X6.5827Y-2.8976
X6.5984Y-4.5079
X6.6083Y-2.9862
X6.6535Y-4.5472
X6.6634Y-3.2534
X6.6693Y-2.8661
X6.6811Y-5.6457
X6.6811Y-5.6142
X6.6818Y-7.1659
X6.6956Y-7.142
X6.6969Y-2.8661
X6.7047Y-3.3898
X6.7106Y-5.6142
X6.7106Y-5.6457
X6.7185Y-3.7244
X6.7205Y-3.6063
X6.7402Y-5.6142
X6.7402Y-5.6457
X6.7441Y-3.9665
X6.7441Y-3.8878
X6.7441Y-3.9193
X6.7441Y-3.8091
X6.7441Y-3.8406
X6.7441Y-3.998
X6.7559Y-3.6181
X6.7579Y-3.7677
X6.7579Y-3.7402
X6.7756Y-6.2323
X6.7756Y-5.6811
X6.7756Y-5.5787
X6.7795Y-2.8898
X6.7953Y-3.3898
X6.7953Y-4.0394
X6.8012Y-3.5945
X6.8031Y-3.2126
X6.8031Y-3.0118
X6.8031Y-3.1634
X6.8031Y-3.061
X6.8031Y-3.1122
X6.8071Y-2.8898
X6.811Y-2.815
X6.8268Y-3.5945
X6.8465Y-3.4882
X6.8465Y-3.5157
X6.8524Y-3.5945
X6.874Y-3.4882
X6.874Y-3.5157
X6.9016Y-4.5748
X6.9016Y-3.5157
X6.9016Y-3.4882
X6.9449Y-3.561
X6.9449Y-3.6299
X6.9449Y-3.937
X6.9449Y-4.7559
X6.9528Y-2.9213
X6.9528Y-3.2323
X6.9528Y-3.1496
X6.9724Y-5.6811
X6.9764Y-3.3858
X7.0038Y-7.3995
X7.0059Y-2.752
X7.0101Y-5.473
X7.0118Y-5.5787
X7.0356Y-5.4836
X7.0394Y-3.2874
X7.0394Y-4.0394
X7.0414Y-5.6823
X7.0512Y-5.6142
X7.0512Y-5.6457
X7.0591Y-3.2185
X7.0591Y-3.1122
X7.0827Y-5.6142
X7.0827Y-5.6457
X7.0965Y-2.9744
X7.1291Y-6.0742
X7.1299Y-2.9035
X7.1309Y-2.9478
X7.1546Y-6.0636
X7.1618Y-3.205
X7.1634Y-3.5881
X7.1752Y-3.1122
X7.1752Y-3.063
X7.1791Y-3.3169
X7.1791Y-3.2894
X7.185Y-2.2244
X7.1909Y-3.844
X7.1969Y-3.1732
X7.2106Y-2.5866
X7.2106Y-2.626
X7.2106Y-2.5472
X7.2106Y-2.6949
X7.2146Y-2.8976
X7.2165Y-3.2618
X7.2165Y-3.6457
X7.2244Y-2.9508
X7.2252Y-5.1338
X7.2362Y-3.4252
X7.25Y-2.6949
X7.2638Y-3.5276
X7.2638Y-5.315
X7.2933Y-3.0472
X7.2972Y-2.998
X7.2972Y-3.5197
X7.2992Y-6.2
X7.3031Y-2.2244
X7.313Y-2.9291
X7.315Y-2.6732
X7.3268Y-6.0984
X7.3346Y-3.1732
X7.3346Y-3.1122
X7.3425Y-2.6732
X7.3465Y-2.4823
X7.351Y-4.9638
X7.3563Y-3.5197
X7.3616Y-4.9892
X7.3701Y-2.6732
X7.3799Y-2.7894
X7.3799Y-2.8169
X7.3799Y-2.8445
X7.3976Y-3.1122
X7.4035Y-2.4528
X7.4075Y-2.8169
X7.4075Y-2.8445
X7.4075Y-2.7894
X7.4213Y-6.9488
X7.435Y-2.7894
X7.435Y-2.8445
X7.435Y-2.8169
X7.437Y-6.0354
X7.439Y-2.6791
X7.4606Y-3.4705
X7.4803Y-2.8583
X7.4803Y-3.3445
X7.4803Y-2.9961
X7.4803Y-3.3735
X7.4902Y-3.5315
X7.5Y-7.622
X7.5157Y-2.7717
X7.5157Y-3.1457
X7.5157Y-2.7402
X7.5295Y-2.5433
X7.5335Y-3.2992
X7.5335Y-2.4547
X7.5787Y-2.7165
X7.5945Y-3.0354
X7.6024Y-2.5709
X7.6024Y-2.6004
X7.6142Y-2.4843
X7.6181Y-3.4311
X7.628Y-3.5644
X7.6384Y-6.4151
X7.6398Y-8.2283
X7.6398Y-8.2559
X7.6398Y-7.4783
X7.6398Y-7.5059
X7.6417Y-2.4843
X7.6437Y-3.4311
X7.6456Y-5.1304
X7.6457Y-2.6654
X7.6476Y-2.872
X7.6489Y-6.3896
X7.6673Y-3.5644
X7.6693Y-3.4311
X7.6831Y-3.0512
X7.6831Y-2.6831
X7.687Y-5.1693
X7.7008Y-2.5551
X7.7008Y-2.5276
X7.7008Y-2.5
X7.7047Y-4.5039
X7.7067Y-3.5644
X7.7087Y-2.8425
X7.7087Y-4.8622
X7.7103Y-2.9601
X7.7106Y-2.6831
X7.7126Y-4.7559
X7.7205Y-3.0512
X7.7205Y-3.626
X7.7244Y-4.9843
X7.7244Y-4.7992
X7.7284Y-3.7318
X7.7284Y-3.3538
X7.7326Y-2.9378
X7.7401Y-5.1029
X7.7421Y-2.8504
X7.7441Y-3.0885
X7.7549Y-2.9155
X7.7559Y-2.7913
X7.7756Y-3.063
X7.7756Y-2.8937
X7.7894Y-3.5625
X7.7953Y-2.6614
X7.7953Y-6.2874
X7.815Y-3.5625
X7.8209Y-3.1358
X7.8346Y-2.7165
X7.8465Y-3.3794
X7.8476Y-6.3838
X7.8581Y-2.7905
X7.8721Y-3.4345
X7.8799Y-2.7146
X7.8799Y-3.6707
X7.886Y-2.7627
X7.8898Y-2.5276
X7.8898Y-2.5551
X7.8898Y-2.5
X7.8913Y-2.9684
X7.8976Y-4.811
X7.9065Y-5.1929
X7.9114Y-3.2717
X7.9138Y-2.7348
X7.9272Y-3.4641
X7.9272Y-3.5861
X7.937Y-3.3991
X7.9429Y-2.5965
X7.9488Y-2.4843
X7.9525Y-2.8386
X7.9764Y-2.4843
X7.9831Y-3.0603
X7.9882Y-4.8386
X8.0Y-3.4011
X8.0157Y-4.8504
X8.0177Y-3.372
X8.0354Y-8.2972
X8.0354Y-7.5472
X8.0413Y-3.565
X8.0453Y-3.372
X8.0748Y-5.3701
X8.0748Y-5.4528
X8.0787Y-3.3307
X8.0807Y-3.565
X8.0906Y-7.6181
X8.0917Y-3.1688
X8.1004Y-3.6727
X8.1063Y-3.3307
X8.1168Y-2.832
X8.126Y-5.4961
X8.1299Y-3.4995
X8.1299Y-3.4483
X8.1535Y-6.0354
X8.1693Y-6.9488
X8.1929Y-3.3976
X8.1929Y-3.5591
X8.2058Y-2.6316
X8.2087Y-5.2953
X8.2087Y-5.3583
X8.2087Y-5.3268
X8.2146Y-3.687
X8.2253Y-2.6121
X8.2281Y-3.322
X8.229Y-6.2706
X8.2362Y-3.6437
X8.2395Y-6.2961
X8.2402Y-6.8425
X8.2638Y-6.0984
X8.2677Y-3.1673
X8.2715Y-3.2361
X8.2717Y-5.1732
X8.2854Y-3.7441
X8.2894Y-3.3832
X8.291Y-3.2556
X8.2914Y-5.0598
X8.2977Y-3.3359
X8.3071Y-5.8937
X8.3105Y-3.2751
X8.3268Y-5.315
X8.3314Y-3.1679
X8.3465Y-2.9016
X8.3508Y-3.1484
X8.3654Y-6.126
X8.3703Y-3.1289
X8.3898Y-3.1095
X8.3926Y-3.3572
X8.4055Y-2.3189
X8.4093Y-3.09
X8.4094Y-4.0906
X8.4121Y-3.3767
X8.4134Y-4.4173
X8.4134Y-3.5118
X8.4134Y-3.7953
X8.4288Y-3.0705
X8.4316Y-3.3962
X8.4359Y-5.1962
X8.4483Y-3.09
X8.4511Y-3.3767
X8.4567Y-3.0315
X8.4614Y-5.1857
X8.4678Y-3.1095
X8.4705Y-4.4213
X8.4705Y-3.3572
X8.4764Y-6.6299
X8.4843Y-3.5118
X8.5276Y-4.4173
X8.5492Y-5.5776
X8.5527Y-3.1944
X8.5541Y-3.2737
X8.555Y-5.7763
X8.5736Y-3.2542
X8.5736Y-3.2152
X8.5804Y-5.7868
X8.593Y-3.2347
X8.6256Y-7.2975
X8.6299Y-3.2638
X8.6299Y-3.2047
X8.6394Y-7.3214
X8.6457Y-4.378
X8.6457Y-3.937
X8.6457Y-4.7559
X8.687Y-4.2441
X8.689Y-3.6929
X8.689Y-3.7402
X8.689Y-4.7559
X8.7402Y-4.2835
X8.7717Y-3.0512
X8.7874Y-3.1358
X8.8465Y-4.252
X8.8543Y-2.9528
X8.9134Y-4.5591
X8.9488Y-6.4488
X8.9724Y-4.4488
X8.9843Y-8.0217
X8.9921Y-7.5433
X8.9941Y-4.2854
X9.0027Y-7.1594
X9.0039Y-2.9528
X9.0039Y-3.3622
X9.0072Y-4.1817
X9.0276Y-6.7677
X9.0276Y-7.5354
X9.0276Y-7.9094
X9.0276Y-8.1339
X9.0335Y-3.3622
X9.0394Y-4.4488
X9.0414Y-4.1725
X9.0512Y-5.0512
X9.0512Y-6.122
X9.0551Y-5.1063
X9.0591Y-4.5118
X9.0709Y-8.0217
X9.1181Y-7.2205
X9.1299Y-7.4016
X9.15Y-4.7148
X9.1843Y-4.7056
X9.1929Y-8.0984
X9.1968Y-5.0157
X9.2063Y-3.9816
X9.2126Y-5.0709
X9.2134Y-4.0082
X9.3222Y-4.7412
X9.3954Y-5.6305
X9.4134Y-5.8346
X9.4296Y-5.6214
X9.5383Y-6.1637
X9.5725Y-6.1545
X9.5945Y-5.4305
X9.6016Y-5.4571
X9.6063Y-3.9457
X9.6298Y-7.5446
X9.6493Y-7.5641
X9.7104Y-6.1901
X9.7151Y-4.6788
X9.7222Y-4.7054
X9.8984Y-3.6667
X9.9055Y-3.6933
X9.9583Y-7.3136
X9.9945Y-5.3946
X10.0143Y-4.4264
X10.1033Y-6.1277
X10.1104Y-6.1543
X10.2405Y-7.0249
X10.2542Y-7.0488
X10.2866Y-5.1156
X10.2937Y-5.1422
X10.2984Y-3.6309
X10.4025Y-5.8753
X10.4072Y-4.3639
X10.4143Y-4.3905
X10.5824Y-3.3217
X10.5895Y-3.3483
X10.6176Y-6.8867
X10.6866Y-5.0798
X10.6983Y-4.0813
X10.7954Y-5.8128
X10.8025Y-5.8394
X10.9648Y-6.6809
X10.9706Y-4.7706
X10.972Y-6.7075
X10.9777Y-4.7972
X10.9824Y-3.2858
X11.0865Y-5.5302
X11.0912Y-4.0189
X11.0983Y-4.0455
X11.3473Y-3.2785
X11.3544Y-3.3051
X11.3649Y-6.645
X11.3706Y-4.7347
X11.4632Y-4.0382
X11.4794Y-5.4678
X11.4865Y-5.4944
X11.7355Y-4.7274
X11.7426Y-4.754
X11.7473Y-3.2426
X11.8514Y-5.487
X11.8561Y-3.9757
X11.8632Y-4.0023
X12.1202Y-3.2655
X12.1237Y-6.1763
X12.1274Y-3.2921
X12.1309Y-6.2029
X12.1355Y-4.6915
X12.2362Y-4.0252
X12.2443Y-5.4246
X12.2514Y-5.4512
X12.5085Y-4.7144
X12.5156Y-4.741
X12.5203Y-3.2296
X12.5237Y-6.1404
X12.6244Y-5.474
X12.629Y-3.9627
X12.6362Y-3.9893
X12.8689Y-3.1619
X12.8761Y-3.1885
X12.8967Y-6.1633
X12.9038Y-6.1899
X12.9085Y-4.6785
X12.9849Y-3.9216
X13.0173Y-5.4116
X13.0244Y-5.4382
X13.2572Y-4.6108
X13.2643Y-4.6374
X13.269Y-3.1261
X13.2967Y-6.1274
X13.3731Y-5.3705
X13.3777Y-3.8591
X13.3849Y-3.8857
X13.6454Y-6.0597
X13.6525Y-6.0863
X13.6572Y-4.575
X13.766Y-5.308
X13.7731Y-5.3346
X14.0454Y-6.0239
T3
X1.5397Y-5.7497
X1.5713Y-5.6318
X1.5758Y-5.7594
X1.6074Y-5.6415
X1.612Y-5.7691
X1.6436Y-5.6512
X1.7338Y-5.0253
X1.7654Y-4.9074
X1.77Y-5.035
X1.8015Y-4.9171
X1.8061Y-5.0446
X1.8377Y-4.9268
X1.9279Y-4.3008
X1.9595Y-4.1829
X1.9641Y-4.3105
X1.9957Y-4.1926
X2.0002Y-4.3202
X2.0318Y-4.2023
X2.0572Y-5.7849
X2.0888Y-5.667
X2.0933Y-5.7945
X2.1221Y-3.5764
X2.1249Y-5.6766
X2.1294Y-5.8042
X2.1536Y-3.4585
X2.1582Y-3.5861
X2.161Y-5.6863
X2.1898Y-3.4682
X2.1943Y-3.5957
X2.2259Y-3.4779
X2.2513Y-5.0604
X2.2829Y-4.9425
X2.2874Y-5.0701
X2.2884Y-5.8533
X2.3162Y-2.8519
X2.319Y-4.9522
X2.32Y-5.7354
X2.3236Y-5.0798
X2.3246Y-5.863
X2.3478Y-2.7341
X2.3523Y-2.8616
X2.3551Y-4.9619
X2.3561Y-5.7451
X2.3607Y-5.8726
X2.3839Y-2.7437
X2.3884Y-2.8713
X2.3923Y-5.7548
X2.42Y-2.7534
X2.4454Y-4.336
X2.477Y-4.2181
X2.4815Y-4.3456
X2.4825Y-5.1288
X2.5131Y-4.2278
X2.5141Y-5.0109
X2.5177Y-4.3553
X2.5187Y-5.1385
X2.5493Y-4.2374
X2.5503Y-5.0206
X2.5548Y-5.1482
X2.5864Y-5.0303
X2.6395Y-3.6115
X2.6711Y-3.4936
X2.6757Y-3.6212
X2.6767Y-4.4044
X2.7073Y-3.5033
X2.7082Y-4.2865
X2.7118Y-3.6309
X2.7128Y-4.4141
X2.7434Y-3.513
X2.7444Y-4.2962
X2.7489Y-4.4238
X2.7805Y-4.3059
X2.8059Y-5.8884
X2.8336Y-2.8871
X2.8375Y-5.7705
X2.842Y-5.8981
X2.8652Y-2.7692
X2.8698Y-2.8968
X2.8708Y-3.6799
X2.8736Y-5.7802
X2.8782Y-5.9078
X2.9014Y-2.7789
X2.9024Y-3.5621
X2.9059Y-2.9064
X2.9069Y-3.6896
X2.9097Y-5.7899
X2.9375Y-2.7885
X2.9385Y-3.5717
X2.943Y-3.6993
X2.9746Y-3.5814
X3.0Y-5.164
X3.0316Y-5.0461
X3.0361Y-5.1736
X3.0614Y-5.8663
X3.0649Y-2.9555
X3.0677Y-5.0558
X3.0723Y-5.1833
X3.093Y-5.7484
X3.0965Y-2.8376
X3.0975Y-5.876
X3.101Y-2.9652
X3.1039Y-5.0654
X3.1291Y-5.7581
X3.1326Y-2.8473
X3.1337Y-5.8856
X3.1371Y-2.9749
X3.1652Y-5.7678
X3.1687Y-2.857
X3.1941Y-4.4395
X3.2257Y-4.3216
X3.2303Y-4.4492
X3.2555Y-5.1418
X3.2618Y-4.3313
X3.2664Y-4.4589
X3.2871Y-5.024
X3.2916Y-5.1515
X3.298Y-4.341
X3.3232Y-5.0336
X3.3278Y-5.1612
X3.3594Y-5.0433
X3.3882Y-3.7151
X3.4198Y-3.5972
X3.4244Y-3.7248
X3.4496Y-4.4174
X3.456Y-3.6069
X3.4605Y-3.7344
X3.4812Y-4.2995
X3.4858Y-4.4271
X3.4921Y-3.6165
X3.5173Y-4.3092
X3.5219Y-4.4368
X3.5535Y-4.3189
X3.5789Y-5.9014
X3.5824Y-2.9906
X3.6105Y-5.7835
X3.6139Y-2.8727
X3.615Y-5.9111
X3.6185Y-3.0003
X3.6437Y-3.693
X3.6466Y-5.7932
X3.6501Y-2.8824
X3.6511Y-5.9208
X3.6546Y-3.01
X3.6753Y-3.5751
X3.6799Y-3.7026
X3.6827Y-5.8029
X3.6862Y-2.8921
X3.7115Y-3.5847
X3.716Y-3.7123
X3.7476Y-3.5944
X3.773Y-5.177
X3.8046Y-5.0591
X3.8091Y-5.1867
X3.8379Y-2.9685
X3.8407Y-5.0688
X3.8452Y-5.1963
X3.8694Y-2.8506
X3.874Y-2.9782
X3.8768Y-5.0784
X3.9056Y-2.8603
X3.9101Y-2.9879
X3.9417Y-2.87
X3.9671Y-4.4525
X3.9987Y-4.3346
X4.0032Y-4.4622
X4.0204Y-5.185
X4.0348Y-4.3443
X4.0394Y-4.4719
X4.052Y-5.0671
X4.0565Y-5.1947
X4.0709Y-4.354
X4.0881Y-5.0768
X4.0926Y-5.2044
X4.1242Y-5.0865
X4.1612Y-3.7281
X4.1928Y-3.6102
X4.1973Y-3.7378
X4.2145Y-4.4606
X4.2203Y-6.3709
X4.2289Y-3.6199
X4.2335Y-3.7474
X4.2461Y-4.3427
X4.2506Y-4.4703
X4.2519Y-6.253
X4.2564Y-6.3806
X4.2651Y-3.6296
X4.2822Y-4.3524
X4.2868Y-4.4799
X4.288Y-6.2627
X4.2925Y-6.3903
X4.3184Y-4.3621
X4.3241Y-6.2724
X4.3553Y-3.0036
X4.3869Y-2.8857
X4.3915Y-3.0133
X4.4086Y-3.7361
X4.423Y-2.8954
X4.4276Y-3.023
X4.4402Y-3.6183
X4.4448Y-3.7458
X4.4592Y-2.9051
X4.4763Y-3.6279
X4.4809Y-3.7555
X4.5125Y-3.6376
X4.5379Y-5.2202
X4.5695Y-5.1023
X4.574Y-5.2298
X4.6027Y-3.0117
X4.6056Y-5.1119
X4.6101Y-5.2395
X4.6343Y-2.8938
X4.6389Y-3.0214
X4.6417Y-5.1216
X4.6705Y-2.9035
X4.675Y-3.0311
X4.7044Y-5.5301
X4.7066Y-2.9132
X4.732Y-4.4957
X4.736Y-5.4122
X4.7378Y-6.406
X4.7405Y-5.5397
X4.7636Y-4.3778
X4.7681Y-4.5054
X4.7693Y-6.2882
X4.7721Y-5.4219
X4.7739Y-6.4157
X4.7767Y-5.5494
X4.7997Y-4.3875
X4.8042Y-4.5151
X4.8055Y-6.2978
X4.8082Y-5.4315
X4.81Y-6.4254
X4.8358Y-4.3972
X4.8416Y-6.3075
X4.8985Y-4.8056
X4.9261Y-3.7713
X4.9301Y-4.6877
X4.9346Y-4.8153
X4.9577Y-3.6534
X4.9622Y-3.781
X4.9662Y-4.6974
X4.9708Y-4.825
X4.9938Y-3.6631
X4.9984Y-3.7906
X5.0024Y-4.7071
X5.0299Y-3.6727
X5.0387Y-6.6205
X5.0711Y-6.6392
X5.0926Y-4.0812
X5.0997Y-6.5148
X5.1035Y-6.6579
X5.1202Y-3.0468
X5.1242Y-3.9633
X5.1288Y-4.0909
X5.1321Y-6.5335
X5.1518Y-2.9289
X5.1563Y-3.0565
X5.1603Y-3.973
X5.1645Y-6.5522
X5.1649Y-4.1005
X5.1879Y-2.9386
X5.1925Y-3.0662
X5.1965Y-3.9827
X5.2219Y-5.5652
X5.2241Y-2.9483
X5.2535Y-5.4473
X5.258Y-5.5749
X5.2867Y-3.3567
X5.2896Y-5.457
X5.2941Y-5.5846
X5.3183Y-3.2388
X5.3229Y-3.3664
X5.3257Y-5.4667
X5.3545Y-3.2485
X5.359Y-3.3761
X5.3906Y-3.2582
X5.3965Y-5.8449
X5.416Y-4.8408
X5.4281Y-5.727
X5.4326Y-5.8546
X5.4476Y-4.7229
X5.4521Y-4.8504
X5.4642Y-5.7367
X5.4687Y-5.8643
X5.4837Y-4.7325
X5.4882Y-4.8601
X5.5003Y-5.7464
X5.5198Y-4.7422
X5.5295Y-6.7884
X5.5618Y-6.8071
X5.5905Y-6.6827
X5.5906Y-5.1205
X5.5942Y-6.8258
X5.6101Y-4.1163
X5.6222Y-5.0026
X5.6229Y-6.7014
X5.6267Y-5.1302
X5.6417Y-3.9984
X5.6462Y-4.126
X5.6553Y-6.7201
X5.6583Y-5.0123
X5.6629Y-5.1398
X5.6778Y-4.0081
X5.6824Y-4.1357
X5.6944Y-5.022
X5.7139Y-4.0178
X5.7646Y-7.0735
X5.7847Y-4.396
X5.7911Y-7.0999
X5.8042Y-3.3919
X5.8163Y-4.2781
X5.8175Y-7.1264
X5.8208Y-4.4057
X5.8358Y-3.274
X5.8403Y-3.4015
X5.8509Y-6.9872
X5.8524Y-4.2878
X5.857Y-4.4154
X5.8719Y-3.2837
X5.8765Y-3.4112
X5.8774Y-7.0136
X5.8886Y-4.2975
X5.9038Y-7.0401
X5.9081Y-3.2933
X5.914Y-5.8801
X5.9456Y-5.7622
X5.9501Y-5.8897
X5.9788Y-3.6716
X5.9817Y-5.7718
X5.9862Y-5.8994
X6.0104Y-3.5537
X6.015Y-3.6813
X6.0178Y-5.7815
X6.0465Y-3.5634
X6.0511Y-3.691
X6.0827Y-3.5731
X6.1081Y-5.1556
X6.1397Y-5.0377
X6.1442Y-5.1653
X6.1758Y-5.0474
X6.1803Y-5.175
X6.1952Y-7.3626
X6.2119Y-5.0571
X6.2217Y-7.3891
X6.2481Y-7.4155
X6.2815Y-7.2763
X6.3022Y-4.4312
X6.308Y-7.3028
X6.3338Y-4.3133
X6.3344Y-7.3292
X6.3383Y-4.4408
X6.3699Y-4.323
X6.3745Y-4.4505
X6.406Y-4.3326
X6.4963Y-3.7067
X6.5279Y-3.5888
X6.5324Y-3.7164
X6.564Y-3.5985
X6.5686Y-3.7261
X6.6002Y-3.6082
X6.6535Y-6.8932
X6.6859Y-6.9119
X6.7146Y-6.7875
X6.7183Y-6.9306
X6.747Y-6.8062
X6.7794Y-6.8249
X7.1443Y-7.061
X7.1767Y-7.0797
X7.2053Y-6.9553
X7.2091Y-7.0984
X7.2377Y-6.974
X7.2701Y-6.9927
X7.4789Y-7.1618
X7.4789Y-7.2839
X7.4789Y-7.9118
X7.4789Y-8.0339
X7.5163Y-7.1618
X7.5163Y-7.2839
X7.5163Y-7.9118
X7.5163Y-8.0339
X7.5537Y-7.1618
X7.5537Y-7.2839
X7.5537Y-7.9118
X7.5537Y-8.0339
X7.9879Y-7.0618
X7.9879Y-7.1839
X7.9879Y-7.8118
X7.9879Y-7.9339
X8.0221Y-3.0603
X8.0253Y-7.0618
X8.0253Y-7.1839
X8.0253Y-7.8118
X8.0253Y-7.9339
X8.0583Y-3.0241
X8.0583Y-3.0965
X8.0627Y-7.0618
X8.0627Y-7.1839
X8.0627Y-7.8118
X8.0627Y-7.9339
X8.0945Y-2.9879
X8.0945Y-3.0603
X8.0945Y-3.1327
X8.1307Y-3.0241
X8.1307Y-3.0965
X8.1669Y-3.0603
X8.3281Y-7.1038
X8.3605Y-7.0851
X8.3891Y-7.2095
X8.3928Y-7.0664
X8.4215Y-7.1908
X8.4539Y-7.1721
X8.7188Y-6.7627
X8.7512Y-6.744
X8.7798Y-6.8684
X8.7836Y-6.7253
X8.8122Y-6.8497
X8.8446Y-6.831
X8.969Y-3.7175
X9.0006Y-3.8353
X9.0051Y-3.7078
X9.0367Y-3.8257
X9.0413Y-3.6981
X9.0729Y-3.816
X9.1631Y-4.4419
X9.1947Y-4.5598
X9.1992Y-4.4322
X9.2308Y-4.5501
X9.2354Y-4.4225
X9.267Y-4.5404
X9.2922Y-7.4345
X9.3187Y-7.4081
X9.3451Y-7.3817
X9.3572Y-5.1663
X9.3785Y-7.5208
X9.3888Y-5.2842
X9.3934Y-5.1567
X9.405Y-7.4944
X9.425Y-5.2745
X9.4295Y-5.147
X9.4314Y-7.468
X9.4347Y-3.4891
X9.4611Y-5.2649
X9.4663Y-3.607
X9.4708Y-3.4795
X9.5024Y-3.5973
X9.507Y-3.4698
X9.5386Y-3.5877
X9.5514Y-5.8908
X9.5814Y-7.004
X9.5829Y-6.0087
X9.5875Y-5.8811
X9.6079Y-6.9775
X9.6191Y-5.999
X9.6236Y-5.8714
X9.6288Y-4.2136
X9.6343Y-6.9511
X9.6552Y-5.9893
X9.6604Y-4.3315
X9.6611Y-3.4026
X9.665Y-4.2039
X9.6677Y-7.0903
X9.6927Y-3.5205
X9.6942Y-7.0638
X9.6966Y-4.3218
X9.6972Y-3.3929
X9.7011Y-4.1942
X9.7206Y-7.0374
X9.7288Y-3.5108
X9.7327Y-4.3121
X9.7334Y-3.3832
X9.7649Y-3.5011
X9.8229Y-4.938
X9.8545Y-5.0559
X9.8552Y-4.127
X9.8591Y-4.9283
X9.8868Y-4.2449
X9.8907Y-5.0462
X9.8913Y-4.1174
X9.8952Y-4.9187
X9.9229Y-4.2352
X9.9268Y-5.0366
X9.9275Y-4.1077
X9.9429Y-6.8312
X9.9591Y-4.2256
X9.9753Y-6.8125
X10.0039Y-6.9369
X10.0077Y-6.7938
X10.0171Y-5.6625
X10.0363Y-6.9182
X10.0487Y-5.7804
X10.0493Y-4.8515
X10.0532Y-5.6528
X10.0687Y-6.8995
X10.0809Y-4.9694
X10.0848Y-5.7707
X10.0855Y-4.8418
X10.0893Y-5.6431
X10.117Y-4.9597
X10.1209Y-5.761
X10.1216Y-4.8321
X10.1268Y-3.1743
X10.1532Y-4.95
X10.1584Y-3.2922
X10.1629Y-3.1646
X10.1945Y-3.2825
X10.1991Y-3.1549
X10.2307Y-3.2728
X10.2434Y-5.5759
X10.275Y-5.6938
X10.2796Y-5.5662
X10.3112Y-5.6841
X10.3157Y-5.5566
X10.3209Y-3.8987
X10.3337Y-6.4901
X10.3451Y-3.0576
X10.3473Y-5.6745
X10.3525Y-4.0166
X10.3571Y-3.889
X10.3661Y-6.4714
X10.3767Y-3.1754
X10.3812Y-3.0479
X10.3886Y-4.0069
X10.3932Y-3.8794
X10.3947Y-6.5958
X10.3984Y-6.4527
X10.4128Y-3.1658
X10.4174Y-3.0382
X10.4248Y-3.9973
X10.4271Y-6.5771
X10.4489Y-3.1561
X10.4595Y-6.5584
X10.515Y-4.6232
X10.5392Y-3.782
X10.5466Y-4.7411
X10.5512Y-4.6135
X10.5708Y-3.8999
X10.5753Y-3.7723
X10.5828Y-4.7314
X10.5873Y-4.6038
X10.6069Y-3.8902
X10.6115Y-3.7626
X10.6189Y-4.7217
X10.6431Y-3.8805
X10.7092Y-5.3476
X10.7276Y-6.4168
X10.7333Y-4.5064
X10.7407Y-5.4655
X10.7453Y-5.3379
X10.7592Y-6.5347
X10.7637Y-6.4071
X10.7649Y-4.6243
X10.7695Y-4.4968
X10.7769Y-5.4558
X10.7814Y-5.3283
X10.7953Y-6.525
X10.7998Y-6.3974
X10.801Y-4.6147
X10.8056Y-4.4871
X10.8108Y-2.8292
X10.813Y-5.4461
X10.8314Y-6.5153
X10.8372Y-4.605
X10.8424Y-2.9471
X10.8469Y-2.8196
X10.8785Y-2.9374
X10.8831Y-2.8099
X10.9147Y-2.9278
X10.9274Y-5.2309
X10.959Y-5.3488
X10.9636Y-5.2212
X10.9952Y-5.3391
X10.9997Y-5.2115
X11.0049Y-3.5537
X11.0313Y-5.3294
X11.0365Y-3.6716
X11.0411Y-3.544
X11.0726Y-3.6619
X11.0772Y-3.5343
X11.1088Y-3.6522
X11.11Y-3.0144
X11.1416Y-3.1323
X11.1461Y-3.0047
X11.1777Y-3.1226
X11.1822Y-2.995
X11.1933Y-6.1885
X11.199Y-4.2781
X11.2138Y-3.1129
X11.2249Y-6.3064
X11.2294Y-6.1788
X11.2306Y-4.396
X11.2352Y-4.2684
X11.261Y-6.2967
X11.2655Y-6.1691
X11.2668Y-4.3863
X11.2713Y-4.2588
X11.2971Y-6.287
X11.3029Y-4.3767
X11.3041Y-3.7388
X11.3357Y-3.8567
X11.3402Y-3.7291
X11.3718Y-3.847
X11.3764Y-3.7195
X11.3932Y-5.0026
X11.4079Y-3.8373
X11.4247Y-5.1205
X11.4293Y-4.9929
X11.4609Y-5.1108
X11.4654Y-4.9832
X11.497Y-5.1011
X11.4982Y-4.4633
X11.5298Y-4.5811
X11.5343Y-4.4536
X11.5659Y-4.5715
X11.5705Y-4.4439
X11.5757Y-2.7861
X11.6021Y-4.5618
X11.6073Y-2.9039
X11.6118Y-2.7764
X11.6434Y-2.8943
X11.648Y-2.7667
X11.6795Y-2.8846
X11.6923Y-5.1877
X11.7239Y-5.3056
X11.7285Y-5.178
X11.76Y-5.2959
X11.7646Y-5.1683
X11.7698Y-3.5105
X11.7962Y-5.2862
X11.8014Y-3.6284
X11.8059Y-3.5008
X11.8375Y-3.6187
X11.8421Y-3.4911
X11.8737Y-3.609
X11.883Y-3.0014
X11.8864Y-5.9121
X11.9145Y-3.1193
X11.918Y-6.03
X11.9191Y-2.9917
X11.9226Y-5.9025
X11.9507Y-3.1096
X11.9542Y-6.0204
X11.9552Y-2.982
X11.9587Y-5.8928
X11.9639Y-4.2349
X11.9868Y-3.0999
X11.9903Y-6.0107
X11.9955Y-4.3528
X12.0001Y-4.2253
X12.0316Y-4.3431
X12.0362Y-4.2156
X12.0678Y-4.3335
X12.0771Y-3.7258
X12.1087Y-3.8437
X12.1132Y-3.7161
X12.1448Y-3.834
X12.1493Y-3.7064
X12.158Y-4.9594
X12.1809Y-3.8243
X12.1896Y-5.0773
X12.1942Y-4.9497
X12.2258Y-5.0676
X12.2303Y-4.94
X12.2619Y-5.0579
X12.2712Y-4.4503
X12.3028Y-4.5681
X12.3073Y-4.4406
X12.3389Y-4.5585
X12.3434Y-4.4309
X12.3487Y-2.773
X12.3522Y-5.6838
X12.375Y-4.5488
X12.3803Y-2.8909
X12.3837Y-5.8017
X12.3848Y-2.7634
X12.3883Y-5.6741
X12.4164Y-2.8813
X12.4199Y-5.792
X12.4209Y-2.7537
X12.4244Y-5.6645
X12.4525Y-2.8716
X12.456Y-5.7824
X12.4653Y-5.1747
X12.4969Y-5.2926
X12.5014Y-5.165
X12.533Y-5.2829
X12.5376Y-5.1553
X12.5428Y-3.4975
X12.5691Y-5.2732
X12.5744Y-3.6154
X12.5789Y-3.4878
X12.6105Y-3.6057
X12.615Y-3.4781
X12.6317Y-2.8978
X12.6466Y-3.596
X12.6594Y-5.8991
X12.6633Y-3.0157
X12.6678Y-2.8881
X12.691Y-6.017
X12.6955Y-5.8895
X12.6994Y-3.006
X12.7039Y-2.8784
X12.7271Y-6.0073
X12.7317Y-5.8798
X12.7355Y-2.9963
X12.7369Y-4.2219
X12.7633Y-5.9977
X12.7685Y-4.3398
X12.773Y-4.2123
X12.8046Y-4.3301
X12.8092Y-4.2026
X12.8258Y-3.6222
X12.8407Y-4.3205
X12.8574Y-3.7401
X12.8619Y-3.6126
X12.8935Y-3.7305
X12.898Y-3.6029
X12.9296Y-3.7208
X12.931Y-4.9464
X12.9626Y-5.0643
X12.9671Y-4.9367
X12.9987Y-5.0546
X13.0033Y-4.927
X13.0199Y-4.3467
X13.0349Y-5.0449
X13.0515Y-4.4646
X13.056Y-4.337
X13.0876Y-4.4549
X13.0922Y-4.3273
X13.0974Y-2.6695
X13.1237Y-4.4452
X13.1251Y-5.6708
X13.129Y-2.7874
X13.1335Y-2.6598
X13.1567Y-5.7887
X13.1613Y-5.6611
X13.1651Y-2.7777
X13.1696Y-2.6501
X13.1928Y-5.779
X13.1974Y-5.6515
X13.2012Y-2.768
X13.214Y-5.0711
X13.229Y-5.7694
X13.2456Y-5.189
X13.2501Y-5.0615
X13.2817Y-5.1793
X13.2863Y-5.0518
X13.2915Y-3.3939
X13.3179Y-5.1697
X13.3231Y-3.5118
X13.3276Y-3.3843
X13.3592Y-3.5021
X13.3638Y-3.3746
X13.3953Y-3.4925
X13.4081Y-5.7956
X13.4397Y-5.9135
X13.4443Y-5.7859
X13.4758Y-5.9038
X13.4804Y-5.7762
X13.4856Y-4.1184
X13.512Y-5.8941
X13.5172Y-4.2363
X13.5217Y-4.1087
X13.5533Y-4.2266
X13.5579Y-4.099
X13.5895Y-4.2169
X13.6797Y-4.8428
X13.7113Y-4.9607
X13.7159Y-4.8331
X13.7474Y-4.951
X13.752Y-4.8235
X13.7836Y-4.9414
X13.8738Y-5.5673
X13.9054Y-5.6852
X13.91Y-5.5576
X13.9416Y-5.6755
X13.9461Y-5.5479
X13.9777Y-5.6658
T5
X7.5846Y-5.4421
X7.5846Y-5.5122
X7.5846Y-5.5823
X7.5846Y-5.6524
X7.5846Y-5.7224
X7.5846Y-5.7925
X7.5846Y-5.8626
X7.5846Y-5.9327
X8.0059Y-5.4071
X8.0059Y-5.4772
X8.0059Y-5.5472
X8.0059Y-5.6173
X8.0059Y-5.6874
X8.0059Y-5.7575
X8.0059Y-5.8276
X8.0059Y-5.8976
T6
X6.752Y-4.1331
X6.752Y-4.2331
X6.752Y-4.3331
X6.752Y-4.4331
X7.0079Y-2.9362
X7.0079Y-3.0362
X7.0079Y-3.1362
X7.0079Y-3.2362
X7.0079Y-3.3362
X7.0079Y-3.4362
X7.0079Y-3.5362
X8.3006Y-4.5578
X8.3858Y-4.6071
X8.4711Y-4.6563
X8.5Y-4.0333
X8.5Y-4.1333
X8.5Y-4.2333
X8.7008Y-7.9724
X8.7008Y-8.0709
X8.7008Y-8.1693
T7
X6.6142Y-7.7953
X6.6142Y-7.9953
X6.6142Y-8.1953
T9
X7.0177Y-2.6063
X7.0177Y-3.8661
X8.5728Y-2.6063
X8.5728Y-3.8661
T10
X6.8898Y-8.0709
X6.9053Y-6.3768
X7.5935Y-6.7742
T11
X1.7162Y-5.7338
X1.9103Y-5.0094
X1.9835Y-5.7019
X2.1044Y-4.2849
X2.1777Y-4.9775
X2.2985Y-3.5605
X2.3718Y-4.2531
X2.4649Y-5.8374
X2.4926Y-2.8361
X2.5659Y-3.5286
X2.659Y-5.1129
X2.7323Y-5.8055
X2.76Y-2.8042
X2.8531Y-4.3885
X2.9264Y-5.0811
X3.0472Y-3.6641
X3.1205Y-4.3566
X3.2379Y-5.8504
X3.2413Y-2.9396
X3.3146Y-3.6322
X3.432Y-5.1259
X3.5052Y-5.8185
X3.5087Y-2.9077
X3.6261Y-4.4015
X3.6993Y-5.0941
X3.8202Y-3.6771
X3.8935Y-4.3696
X4.0143Y-2.9526
X4.0876Y-3.6452
X4.1969Y-5.1691
X4.2817Y-2.9207
X4.391Y-4.4447
X4.3967Y-6.355
X4.4642Y-5.1372
X4.5851Y-3.7202
X4.6583Y-4.4128
X4.6641Y-6.3231
X4.7792Y-2.9958
X4.8525Y-3.6884
X4.8809Y-5.5142
X5.0466Y-2.9639
X5.075Y-4.7897
X5.1482Y-5.4823
X5.2133Y-6.6509
X5.2691Y-4.0653
X5.3423Y-4.7578
X5.4632Y-3.3408
X5.4798Y-6.6893
X5.5365Y-4.0334
X5.573Y-5.829
X5.7306Y-3.309
X5.7671Y-5.1046
X5.8403Y-5.7971
X5.9254Y-7.1479
X5.9612Y-4.3801
X6.0344Y-5.0727
X6.1553Y-3.6557
X6.1729Y-7.254
X6.2285Y-4.3483
X6.4227Y-3.6238
X6.8281Y-6.9235
X7.0946Y-6.9619
X7.6453Y-7.2228
X7.6453Y-7.9728
X7.8953Y-7.1228
X7.8953Y-7.8728
X8.5026Y-7.0735
X8.6691Y-6.8619
X9.1455Y-3.7333
X9.3396Y-4.4578
X9.3611Y-3.572
X9.453Y-7.3601
X9.5337Y-5.1822
X9.5552Y-4.2965
X9.5591Y-7.1126
X9.7278Y-5.9067
X9.7493Y-5.0209
X9.8376Y-3.4185
X9.9434Y-5.7454
X10.0317Y-4.1429
X10.0532Y-3.2572
X10.1175Y-6.8009
X10.2258Y-4.8674
X10.2473Y-3.9816
X10.284Y-6.5893
X10.4199Y-5.5918
X10.4414Y-4.7061
X10.5216Y-3.0734
X10.6355Y-5.4305
X10.7157Y-3.7979
X10.7372Y-2.9122
X10.904Y-6.4327
X10.9098Y-4.5223
X10.9313Y-3.6366
X11.1039Y-5.2468
X11.1196Y-6.2714
X11.1254Y-4.361
X11.2865Y-3.0303
X11.3195Y-5.0855
X11.4806Y-3.7547
X11.5021Y-2.869
X11.6747Y-4.4791
X11.6962Y-3.5934
X11.8688Y-5.2036
X11.8903Y-4.3179
X12.0594Y-3.0173
X12.0629Y-5.928
X12.0844Y-5.0423
X12.2535Y-3.7417
X12.275Y-2.856
X12.2785Y-5.7667
X12.4477Y-4.4661
X12.4691Y-3.5804
X12.6418Y-5.1906
X12.6633Y-4.3048
X12.8081Y-2.9137
X12.8359Y-5.915
X12.8574Y-5.0293
X13.0022Y-3.6381
X13.0237Y-2.7524
X13.0515Y-5.7537
X13.1964Y-4.3626
X13.2178Y-3.4768
X13.3905Y-5.087
X13.412Y-4.2013
X13.5846Y-5.8115
X13.6061Y-4.9257
X13.8002Y-5.6502
T12
X7.3265Y-8.3478
X8.264Y-8.3478
T13
X3.0125Y-6.4026
X6.2598Y-7.7953
X6.7992Y-2.6597
X7.252Y-5.6299
X8.3386Y-5.6299
X8.7913Y-2.6597
X9.3307Y-7.7953
X12.578Y-6.4026
T4
G00X7.574Y-2.2362
M15
G01X7.574Y-2.2835
M16
G05
G00X7.574Y-2.4016
M15
G01X7.574Y-2.4331
M16
G05
G00X8.0165Y-2.2362
M15
G01X8.0165Y-2.2835
M16
G05
G00X8.0165Y-2.4016
M15
G01X8.0165Y-2.4331
M16
G05
T8
G00X8.7756Y-7.8937
M15
G01X8.7835Y-7.8937
M16
G05
G00X8.7756Y-8.248
M15
G01X8.7835Y-8.248
M16
G05
T13
G00X6.8963Y-4.9767
M15
G01X6.8963Y-4.9767
M16
G05
G00X8.8113Y-6.0823
M15
G01X8.8113Y-6.0823
M16
G05
T0
M30
