%TF.GenerationSoftware,KiCad,Pcbnew,(7.0.0)*%
%TF.CreationDate,2023-03-08T00:54:44+00:00*%
%TF.ProjectId,Honeydew,486f6e65-7964-4657-972e-6b696361645f,rev?*%
%TF.SameCoordinates,Original*%
%TF.FileFunction,Soldermask,Bot*%
%TF.FilePolarity,Negative*%
%FSLAX46Y46*%
G04 Gerber Fmt 4.6, Leading zero omitted, Abs format (unit mm)*
G04 Created by KiCad (PCBNEW (7.0.0)) date 2023-03-08 00:54:44*
%MOMM*%
%LPD*%
G01*
G04 APERTURE LIST*
G04 Aperture macros list*
%AMRoundRect*
0 Rectangle with rounded corners*
0 $1 Rounding radius*
0 $2 $3 $4 $5 $6 $7 $8 $9 X,Y pos of 4 corners*
0 Add a 4 corners polygon primitive as box body*
4,1,4,$2,$3,$4,$5,$6,$7,$8,$9,$2,$3,0*
0 Add four circle primitives for the rounded corners*
1,1,$1+$1,$2,$3*
1,1,$1+$1,$4,$5*
1,1,$1+$1,$6,$7*
1,1,$1+$1,$8,$9*
0 Add four rect primitives between the rounded corners*
20,1,$1+$1,$2,$3,$4,$5,0*
20,1,$1+$1,$4,$5,$6,$7,0*
20,1,$1+$1,$6,$7,$8,$9,0*
20,1,$1+$1,$8,$9,$2,$3,0*%
%AMRotRect*
0 Rectangle, with rotation*
0 The origin of the aperture is its center*
0 $1 length*
0 $2 width*
0 $3 Rotation angle, in degrees counterclockwise*
0 Add horizontal line*
21,1,$1,$2,0,0,$3*%
G04 Aperture macros list end*
%ADD10C,2.000000*%
%ADD11R,2.500000X6.000000*%
%ADD12C,3.500000*%
%ADD13C,5.600000*%
%ADD14C,0.650000*%
%ADD15O,1.000000X2.100000*%
%ADD16O,1.000000X1.600000*%
%ADD17R,1.700000X1.700000*%
%ADD18O,1.700000X1.700000*%
%ADD19C,4.000000*%
%ADD20C,1.750000*%
%ADD21C,3.000000*%
%ADD22C,3.987800*%
%ADD23RotRect,2.550000X2.500000X145.000000*%
%ADD24RotRect,2.550000X2.500000X130.000000*%
%ADD25RotRect,2.550000X2.500000X160.000000*%
%ADD26RotRect,2.550000X2.500000X200.000000*%
%ADD27RotRect,0.900000X1.200000X290.000000*%
%ADD28R,0.300000X1.300000*%
%ADD29R,1.800000X2.200000*%
%ADD30RoundRect,0.140000X-0.212189X-0.058955X0.017173X-0.219557X0.212189X0.058955X-0.017173X0.219557X0*%
%ADD31RoundRect,0.150000X-0.150000X0.512500X-0.150000X-0.512500X0.150000X-0.512500X0.150000X0.512500X0*%
%ADD32RotRect,0.900000X1.200000X250.000000*%
%ADD33RoundRect,0.140000X-0.073414X-0.207631X0.189700X-0.111865X0.073414X0.207631X-0.189700X0.111865X0*%
%ADD34RoundRect,0.140000X-0.189700X-0.111865X0.073414X-0.207631X0.189700X0.111865X-0.073414X0.207631X0*%
%ADD35RoundRect,0.140000X0.140000X0.170000X-0.140000X0.170000X-0.140000X-0.170000X0.140000X-0.170000X0*%
%ADD36RoundRect,0.140000X0.036244X0.217224X-0.206244X0.077224X-0.036244X-0.217224X0.206244X-0.077224X0*%
%ADD37RotRect,1.700000X1.000000X345.000000*%
%ADD38R,1.700000X1.000000*%
%ADD39RoundRect,0.225000X-0.250000X0.225000X-0.250000X-0.225000X0.250000X-0.225000X0.250000X0.225000X0*%
%ADD40RoundRect,0.135000X0.135000X0.185000X-0.135000X0.185000X-0.135000X-0.185000X0.135000X-0.185000X0*%
%ADD41RotRect,1.700000X1.000000X15.000000*%
%ADD42RoundRect,0.140000X0.189700X0.111865X-0.073414X0.207631X-0.189700X-0.111865X0.073414X-0.207631X0*%
%ADD43RotRect,1.700000X1.000000X20.000000*%
%ADD44RotRect,0.900000X1.200000X285.000000*%
%ADD45RotRect,1.700000X1.000000X340.000000*%
%ADD46RotRect,1.700000X1.000000X310.000000*%
%ADD47RotRect,2.550000X2.500000X195.000000*%
%ADD48RotRect,1.700000X1.000000X160.000000*%
%ADD49RotRect,1.700000X1.000000X330.000000*%
%ADD50RotRect,2.550000X2.500000X165.000000*%
%ADD51RotRect,1.700000X1.000000X200.000000*%
%ADD52RoundRect,0.250000X0.475000X-0.250000X0.475000X0.250000X-0.475000X0.250000X-0.475000X-0.250000X0*%
%ADD53RoundRect,0.140000X-0.140000X-0.170000X0.140000X-0.170000X0.140000X0.170000X-0.140000X0.170000X0*%
%ADD54RoundRect,0.140000X-0.170000X0.140000X-0.170000X-0.140000X0.170000X-0.140000X0.170000X0.140000X0*%
%ADD55RoundRect,0.225000X0.225000X0.250000X-0.225000X0.250000X-0.225000X-0.250000X0.225000X-0.250000X0*%
%ADD56RoundRect,0.140000X0.170000X-0.140000X0.170000X0.140000X-0.170000X0.140000X-0.170000X-0.140000X0*%
%ADD57RoundRect,0.225000X0.250000X-0.225000X0.250000X0.225000X-0.250000X0.225000X-0.250000X-0.225000X0*%
%ADD58R,1.000000X1.700000*%
%ADD59RoundRect,0.140000X0.040237X-0.216520X0.220218X-0.002028X-0.040237X0.216520X-0.220218X0.002028X0*%
%ADD60RotRect,0.900000X1.200000X255.000000*%
%ADD61RoundRect,0.140000X0.073414X0.207631X-0.189700X0.111865X-0.073414X-0.207631X0.189700X-0.111865X0*%
%ADD62RoundRect,0.135000X0.185000X-0.135000X0.185000X0.135000X-0.185000X0.135000X-0.185000X-0.135000X0*%
%ADD63R,1.200000X1.200000*%
%ADD64C,1.200000*%
%ADD65RoundRect,0.050000X0.387500X0.050000X-0.387500X0.050000X-0.387500X-0.050000X0.387500X-0.050000X0*%
%ADD66RoundRect,0.050000X0.050000X0.387500X-0.050000X0.387500X-0.050000X-0.387500X0.050000X-0.387500X0*%
%ADD67R,3.200000X3.200000*%
%ADD68RoundRect,0.250000X-0.375000X-0.625000X0.375000X-0.625000X0.375000X0.625000X-0.375000X0.625000X0*%
%ADD69RoundRect,0.225000X0.375000X-0.225000X0.375000X0.225000X-0.375000X0.225000X-0.375000X-0.225000X0*%
%ADD70RoundRect,0.135000X-0.135000X-0.185000X0.135000X-0.185000X0.135000X0.185000X-0.135000X0.185000X0*%
%ADD71RoundRect,0.150000X0.650000X0.150000X-0.650000X0.150000X-0.650000X-0.150000X0.650000X-0.150000X0*%
%ADD72R,1.000000X1.500000*%
%ADD73RoundRect,0.135000X-0.185000X0.135000X-0.185000X-0.135000X0.185000X-0.135000X0.185000X0.135000X0*%
%ADD74RoundRect,0.200000X-0.275000X0.200000X-0.275000X-0.200000X0.275000X-0.200000X0.275000X0.200000X0*%
%ADD75RoundRect,0.140000X0.220218X0.002028X0.040237X0.216520X-0.220218X-0.002028X-0.040237X-0.216520X0*%
%ADD76RotRect,2.550000X2.500000X215.000000*%
%ADD77R,2.550000X2.500000*%
%ADD78RotRect,1.700000X1.000000X210.000000*%
%ADD79RoundRect,0.140000X0.206244X0.077224X-0.036244X0.217224X-0.206244X-0.077224X0.036244X-0.217224X0*%
%ADD80RoundRect,0.140000X0.091230X0.200442X-0.179229X0.127973X-0.091230X-0.200442X0.179229X-0.127973X0*%
%ADD81RoundRect,0.140000X-0.017173X-0.219557X0.212189X-0.058955X0.017173X0.219557X-0.212189X0.058955X0*%
%ADD82RoundRect,0.250000X-0.250000X-0.475000X0.250000X-0.475000X0.250000X0.475000X-0.250000X0.475000X0*%
%ADD83RotRect,0.900000X1.200000X320.000000*%
%ADD84RotRect,1.700000X1.000000X150.000000*%
%ADD85R,1.200000X0.900000*%
%ADD86RotRect,1.700000X1.000000X325.000000*%
%ADD87RotRect,1.700000X1.000000X30.000000*%
%ADD88RotRect,0.900000X1.200000X305.000000*%
%ADD89R,1.200000X1.400000*%
%ADD90RoundRect,0.140000X-0.206244X-0.077224X0.036244X-0.217224X0.206244X0.077224X-0.036244X0.217224X0*%
%ADD91RotRect,2.550000X2.500000X230.000000*%
%ADD92R,2.000000X1.500000*%
%ADD93R,2.000000X3.800000*%
%ADD94RotRect,0.900000X1.200000X235.000000*%
%ADD95R,2.440000X1.120000*%
%ADD96RotRect,1.700000X1.000000X35.000000*%
%ADD97RotRect,1.700000X1.000000X50.000000*%
%ADD98RoundRect,0.140000X0.179229X0.127973X-0.091230X0.200442X-0.179229X-0.127973X0.091230X-0.200442X0*%
%ADD99RotRect,0.900000X1.200000X220.000000*%
%ADD100RoundRect,0.225000X-0.375000X0.225000X-0.375000X-0.225000X0.375000X-0.225000X0.375000X0.225000X0*%
%ADD101RoundRect,0.140000X-0.036244X-0.217224X0.206244X-0.077224X0.036244X0.217224X-0.206244X0.077224X0*%
G04 APERTURE END LIST*
%TO.C,D103*%
G36*
X145585932Y-172027283D02*
G01*
X145327113Y-172993209D01*
X143685039Y-172553216D01*
X143853271Y-171925364D01*
X144281932Y-171677877D01*
X145585932Y-172027283D01*
G37*
%TO.C,D104*%
G36*
X167799786Y-176459401D02*
G01*
X166099786Y-176459401D01*
X166099786Y-175809401D01*
X166449786Y-175459401D01*
X167799786Y-175459401D01*
X167799786Y-176459401D01*
G37*
%TO.C,D105*%
G36*
X190427132Y-173970086D02*
G01*
X188785058Y-174410078D01*
X188616826Y-173782227D01*
X188864313Y-173353566D01*
X190168313Y-173004160D01*
X190427132Y-173970086D01*
G37*
%TO.C,D125*%
G36*
X275359938Y-120592712D02*
G01*
X273762461Y-121174146D01*
X273540147Y-120563346D01*
X273749333Y-120114746D01*
X275017918Y-119653019D01*
X275359938Y-120592712D01*
G37*
%TO.C,D75*%
G36*
X35596639Y-76233013D02*
G01*
X35254619Y-77172705D01*
X33657142Y-76591271D01*
X33879455Y-75980471D01*
X34328054Y-75771285D01*
X35596639Y-76233013D01*
G37*
%TO.C,D102*%
G36*
X122887743Y-155793611D02*
G01*
X123755506Y-156827771D01*
X122989461Y-157470559D01*
X121896722Y-156168283D01*
X122394651Y-155750472D01*
X122887743Y-155793611D01*
G37*
%TO.C,D81*%
G36*
X52486195Y-101608668D02*
G01*
X52263882Y-102219468D01*
X51815283Y-102428654D01*
X50546698Y-101966926D01*
X50888718Y-101027234D01*
X52486195Y-101608668D01*
G37*
%TO.C,D106*%
G36*
X196680491Y-71518116D02*
G01*
X195083014Y-72099550D01*
X194860700Y-71488750D01*
X195069886Y-71040150D01*
X196338471Y-70578423D01*
X196680491Y-71518116D01*
G37*
%TO.C,D67*%
G36*
X178754542Y-106517058D02*
G01*
X178254542Y-107383083D01*
X176782299Y-106533083D01*
X177107299Y-105970166D01*
X177585407Y-105842058D01*
X178754542Y-106517058D01*
G37*
%TO.C,D101*%
G36*
X124633738Y-126178846D02*
G01*
X124411425Y-126789646D01*
X123962826Y-126998832D01*
X122694241Y-126537104D01*
X123036261Y-125597412D01*
X124633738Y-126178846D01*
G37*
%TO.C,D134*%
G36*
X312617478Y-95479093D02*
G01*
X312408292Y-95927693D01*
X311139707Y-96389420D01*
X310797687Y-95449727D01*
X312395164Y-94868293D01*
X312617478Y-95479093D01*
G37*
%TO.C,D78*%
G36*
X67343182Y-44708554D02*
G01*
X67001162Y-45648246D01*
X65403685Y-45066812D01*
X65625998Y-44456012D01*
X66074597Y-44246826D01*
X67343182Y-44708554D01*
G37*
%TO.C,D98*%
G36*
X139490699Y-69278734D02*
G01*
X139148679Y-70218426D01*
X137551202Y-69636992D01*
X137773515Y-69026192D01*
X138222114Y-68817006D01*
X139490699Y-69278734D01*
G37*
%TO.C,D90*%
G36*
X93100764Y-85337123D02*
G01*
X92758744Y-86276815D01*
X91161267Y-85695381D01*
X91383580Y-85084581D01*
X91832179Y-84875395D01*
X93100764Y-85337123D01*
G37*
%TO.C,D100*%
G36*
X126459742Y-105081014D02*
G01*
X126117722Y-106020706D01*
X124520245Y-105439272D01*
X124742558Y-104828472D01*
X125191157Y-104619286D01*
X126459742Y-105081014D01*
G37*
%TO.C,D87*%
G36*
X60811256Y-118353328D02*
G01*
X60469236Y-119293020D01*
X58871759Y-118711586D01*
X59094072Y-118100786D01*
X59542671Y-117891600D01*
X60811256Y-118353328D01*
G37*
%TO.C,D68*%
G36*
X191100002Y-122749986D02*
G01*
X191100002Y-124099986D01*
X190100002Y-124099986D01*
X190100002Y-122399986D01*
X190750002Y-122399986D01*
X191100002Y-122749986D01*
G37*
%TO.C,D84*%
G36*
X85047187Y-67846572D02*
G01*
X84824874Y-68457372D01*
X84376275Y-68666558D01*
X83107690Y-68204830D01*
X83449710Y-67265138D01*
X85047187Y-67846572D01*
G37*
%TO.C,D91*%
G36*
X91274771Y-106434932D02*
G01*
X91052458Y-107045732D01*
X90603859Y-107254918D01*
X89335274Y-106793190D01*
X89677294Y-105853498D01*
X91274771Y-106434932D01*
G37*
%TO.C,D83*%
G36*
X86873197Y-46748758D02*
G01*
X86531177Y-47688450D01*
X84933700Y-47107016D01*
X85156013Y-46496216D01*
X85604612Y-46287030D01*
X86873197Y-46748758D01*
G37*
%TO.C,D95*%
G36*
X109644530Y-95582036D02*
G01*
X109302510Y-96521728D01*
X107705033Y-95940294D01*
X107927346Y-95329494D01*
X108375945Y-95120308D01*
X109644530Y-95582036D01*
G37*
%TO.C,D86*%
G36*
X72016221Y-103648872D02*
G01*
X71793908Y-104259672D01*
X71345309Y-104468858D01*
X70076724Y-104007130D01*
X70418744Y-103067438D01*
X72016221Y-103648872D01*
G37*
%TO.C,D129*%
G36*
X293901901Y-99756936D02*
G01*
X293692715Y-100205536D01*
X292424130Y-100667263D01*
X292082110Y-99727570D01*
X293679587Y-99146136D01*
X293901901Y-99756936D01*
G37*
%TO.C,D93*%
G36*
X122675489Y-59779708D02*
G01*
X122333469Y-60719400D01*
X120735992Y-60137966D01*
X120958305Y-59527166D01*
X121406904Y-59317980D01*
X122675489Y-59779708D01*
G37*
%TO.C,D127*%
G36*
X280870931Y-63954627D02*
G01*
X280661745Y-64403227D01*
X279393160Y-64864954D01*
X279051140Y-63925261D01*
X280648617Y-63343827D01*
X280870931Y-63954627D01*
G37*
%TO.C,D130*%
G36*
X294889958Y-118552525D02*
G01*
X293292481Y-119133959D01*
X293070167Y-118523159D01*
X293279353Y-118074559D01*
X294547938Y-117612832D01*
X294889958Y-118552525D01*
G37*
%TO.C,D124*%
G36*
X274371889Y-101797122D02*
G01*
X274162703Y-102245722D01*
X272894118Y-102707449D01*
X272552098Y-101767756D01*
X274149575Y-101186322D01*
X274371889Y-101797122D01*
G37*
%TO.C,D107*%
G36*
X208723402Y-88524817D02*
G01*
X208514216Y-88973417D01*
X207245631Y-89435144D01*
X206903611Y-88495451D01*
X208501088Y-87914017D01*
X208723402Y-88524817D01*
G37*
%TO.C,D85*%
G36*
X73842231Y-82551034D02*
G01*
X73500211Y-83490726D01*
X71902734Y-82909292D01*
X72125047Y-82298492D01*
X72573646Y-82089306D01*
X73842231Y-82551034D01*
G37*
%TO.C,D92*%
G36*
X89017639Y-133687750D02*
G01*
X88675619Y-134627442D01*
X87078142Y-134046008D01*
X87300455Y-133435208D01*
X87749054Y-133226022D01*
X89017639Y-133687750D01*
G37*
%TO.C,D73*%
G36*
X48627607Y-40430708D02*
G01*
X48285587Y-41370400D01*
X46688110Y-40788966D01*
X46910423Y-40178166D01*
X47359022Y-39968980D01*
X48627607Y-40430708D01*
G37*
%TO.C,D108*%
G36*
X209711443Y-107320395D02*
G01*
X208113966Y-107901829D01*
X207891652Y-107291029D01*
X208100838Y-106842429D01*
X209369423Y-106380702D01*
X209711443Y-107320395D01*
G37*
%TO.C,D112*%
G36*
X225538635Y-79025811D02*
G01*
X225329449Y-79474411D01*
X224060864Y-79936138D01*
X223718844Y-78996445D01*
X225316321Y-78415011D01*
X225538635Y-79025811D01*
G37*
%TO.C,D131*%
G36*
X287543583Y-42670083D02*
G01*
X285946106Y-43251517D01*
X285723792Y-42640717D01*
X285932978Y-42192117D01*
X287201563Y-41730390D01*
X287543583Y-42670083D01*
G37*
%TO.C,D76*%
G36*
X33770648Y-97330849D02*
G01*
X33548335Y-97941649D01*
X33099736Y-98150835D01*
X31831151Y-97689107D01*
X32173171Y-96749415D01*
X33770648Y-97330849D01*
G37*
%TO.C,D89*%
G36*
X104305736Y-70632640D02*
G01*
X104083423Y-71243440D01*
X103634824Y-71452626D01*
X102366239Y-70990898D01*
X102708259Y-70051206D01*
X104305736Y-70632640D01*
G37*
%TO.C,D117*%
G36*
X242082369Y-68780905D02*
G01*
X241873183Y-69229505D01*
X240604598Y-69691232D01*
X240262578Y-68751539D01*
X241860055Y-68170105D01*
X242082369Y-68780905D01*
G37*
%TO.C,D96*%
G36*
X107818526Y-116679831D02*
G01*
X107596213Y-117290631D01*
X107147614Y-117499817D01*
X105879029Y-117038089D01*
X106221049Y-116098397D01*
X107818526Y-116679831D01*
G37*
%TO.C,D77*%
G36*
X22565668Y-112035306D02*
G01*
X22223648Y-112974998D01*
X20626171Y-112393564D01*
X20848484Y-111782764D01*
X21297083Y-111573578D01*
X22565668Y-112035306D01*
G37*
%TO.C,D113*%
G36*
X226526681Y-97821383D02*
G01*
X224929204Y-98402817D01*
X224706890Y-97792017D01*
X224916076Y-97343417D01*
X226184661Y-96881690D01*
X226526681Y-97821383D01*
G37*
%TO.C,D71*%
G36*
X149300000Y-129599997D02*
G01*
X148650000Y-129599997D01*
X148300000Y-129249997D01*
X148300000Y-127899997D01*
X149300000Y-127899997D01*
X149300000Y-129599997D01*
G37*
%TO.C,D82*%
G36*
X41281238Y-116313132D02*
G01*
X40939218Y-117252824D01*
X39341741Y-116671390D01*
X39564054Y-116060590D01*
X40012653Y-115851404D01*
X41281238Y-116313132D01*
G37*
%TO.C,D132*%
G36*
X299586505Y-59676801D02*
G01*
X299377319Y-60125401D01*
X298108734Y-60587128D01*
X297766714Y-59647435D01*
X299364191Y-59066001D01*
X299586505Y-59676801D01*
G37*
%TO.C,D69*%
G36*
X183342703Y-142429833D02*
G01*
X183214595Y-142907941D01*
X182045460Y-143582941D01*
X181545460Y-142716916D01*
X183017703Y-141866916D01*
X183342703Y-142429833D01*
G37*
%TO.C,D122*%
G36*
X261340912Y-65994837D02*
G01*
X261131726Y-66443437D01*
X259863141Y-66905164D01*
X259521121Y-65965471D01*
X261118598Y-65384037D01*
X261340912Y-65994837D01*
G37*
%TO.C,D99*%
G36*
X137664721Y-90376550D02*
G01*
X137442408Y-90987350D01*
X136993809Y-91196536D01*
X135725224Y-90734808D01*
X136067244Y-89795116D01*
X137664721Y-90376550D01*
G37*
%TO.C,D80*%
G36*
X54312237Y-80510840D02*
G01*
X53970217Y-81450532D01*
X52372740Y-80869098D01*
X52595053Y-80258298D01*
X53043652Y-80049112D01*
X54312237Y-80510840D01*
G37*
%TO.C,D109*%
G36*
X221754358Y-124327107D02*
G01*
X221545172Y-124775707D01*
X220276587Y-125237434D01*
X219934567Y-124297741D01*
X221532044Y-123716307D01*
X221754358Y-124327107D01*
G37*
%TO.C,D133*%
G36*
X300574554Y-78472372D02*
G01*
X298977077Y-79053806D01*
X298754763Y-78443006D01*
X298963949Y-77994406D01*
X300232534Y-77532679D01*
X300574554Y-78472372D01*
G37*
%TO.C,D126*%
G36*
X268828026Y-46947925D02*
G01*
X267230549Y-47529359D01*
X267008235Y-46918559D01*
X267217421Y-46469959D01*
X268486006Y-46008232D01*
X268828026Y-46947925D01*
G37*
%TO.C,D111*%
G36*
X213495710Y-62019102D02*
G01*
X211898233Y-62600536D01*
X211675919Y-61989736D01*
X211885105Y-61541136D01*
X213153690Y-61079409D01*
X213495710Y-62019102D01*
G37*
%TO.C,D70*%
G36*
X162617692Y-145466911D02*
G01*
X162292692Y-146029828D01*
X161814584Y-146157936D01*
X160645449Y-145482936D01*
X161145449Y-144616911D01*
X162617692Y-145466911D01*
G37*
%TO.C,D114*%
G36*
X238569590Y-114828104D02*
G01*
X238360404Y-115276704D01*
X237091819Y-115738431D01*
X236749799Y-114798738D01*
X238347276Y-114217304D01*
X238569590Y-114828104D01*
G37*
%TO.C,D123*%
G36*
X262328975Y-84790424D02*
G01*
X260731498Y-85371858D01*
X260509184Y-84761058D01*
X260718370Y-84312458D01*
X261986955Y-83850731D01*
X262328975Y-84790424D01*
G37*
%TO.C,D135*%
G36*
X313605526Y-114274664D02*
G01*
X312008049Y-114856098D01*
X311785735Y-114245298D01*
X311994921Y-113796698D01*
X313263506Y-113334971D01*
X313605526Y-114274664D01*
G37*
%TO.C,D128*%
G36*
X281858984Y-82750220D02*
G01*
X280261507Y-83331654D01*
X280039193Y-82720854D01*
X280248379Y-82272254D01*
X281516964Y-81810527D01*
X281858984Y-82750220D01*
G37*
%TO.C,D97*%
G36*
X107958129Y-142981917D02*
G01*
X107384552Y-143801069D01*
X105991994Y-142825989D01*
X106364819Y-142293541D01*
X106852274Y-142207589D01*
X107958129Y-142981917D01*
G37*
%TO.C,D72*%
G36*
X157854563Y-109283079D02*
G01*
X156382320Y-110133079D01*
X156057320Y-109570162D01*
X156185428Y-109092054D01*
X157354563Y-108417054D01*
X157854563Y-109283079D01*
G37*
%TO.C,D94*%
G36*
X120849475Y-80877532D02*
G01*
X120627162Y-81488332D01*
X120178563Y-81697518D01*
X118909978Y-81235790D01*
X119251998Y-80296098D01*
X120849475Y-80877532D01*
G37*
%TO.C,D119*%
G36*
X255113340Y-104583188D02*
G01*
X254904154Y-105031788D01*
X253635569Y-105493515D01*
X253293549Y-104553822D01*
X254891026Y-103972388D01*
X255113340Y-104583188D01*
G37*
%TO.C,D120*%
G36*
X247153570Y-135927121D02*
G01*
X245556093Y-136508555D01*
X245333779Y-135897755D01*
X245542965Y-135449155D01*
X246811550Y-134987428D01*
X247153570Y-135927121D01*
G37*
%TO.C,D115*%
G36*
X228886833Y-145974902D02*
G01*
X227494274Y-146949982D01*
X227121450Y-146417533D01*
X227207401Y-145930078D01*
X228313256Y-145155750D01*
X228886833Y-145974902D01*
G37*
%TO.C,D116*%
G36*
X230039452Y-51774204D02*
G01*
X228441975Y-52355638D01*
X228219661Y-51744838D01*
X228428847Y-51296238D01*
X229697432Y-50834511D01*
X230039452Y-51774204D01*
G37*
%TO.C,D110*%
G36*
X213963062Y-160380602D02*
G01*
X212870323Y-161682877D01*
X212372394Y-161265066D01*
X212329254Y-160771974D01*
X213197017Y-159737814D01*
X213963062Y-160380602D01*
G37*
%TO.C,D74*%
G36*
X46801603Y-61528542D02*
G01*
X46579290Y-62139342D01*
X46130691Y-62348528D01*
X44862106Y-61886800D01*
X45204126Y-60947108D01*
X46801603Y-61528542D01*
G37*
%TO.C,D79*%
G36*
X65517184Y-65806374D02*
G01*
X65294871Y-66417174D01*
X64846272Y-66626360D01*
X63577687Y-66164632D01*
X63919707Y-65224940D01*
X65517184Y-65806374D01*
G37*
%TO.C,D121*%
G36*
X249297998Y-48988135D02*
G01*
X247700521Y-49569569D01*
X247478207Y-48958769D01*
X247687393Y-48510169D01*
X248955978Y-48048442D01*
X249297998Y-48988135D01*
G37*
%TO.C,D88*%
G36*
X106131742Y-49534821D02*
G01*
X105789722Y-50474513D01*
X104192245Y-49893079D01*
X104414558Y-49282279D01*
X104863157Y-49073093D01*
X106131742Y-49534821D01*
G37*
%TO.C,D118*%
G36*
X243070434Y-87576498D02*
G01*
X241472957Y-88157932D01*
X241250643Y-87547132D01*
X241459829Y-87098532D01*
X242728414Y-86636805D01*
X243070434Y-87576498D01*
G37*
%TD*%
D10*
%TO.C,SW64*%
X195200000Y-126000000D03*
X144200000Y-126000000D03*
X172200000Y-95400000D03*
X167200000Y-95400000D03*
X169700000Y-95400000D03*
D11*
X199799999Y-125999999D03*
D12*
X184800000Y-152153967D03*
X184800000Y-99846033D03*
D13*
X184200000Y-126000000D03*
X155200000Y-126000000D03*
D12*
X154600000Y-152153967D03*
X154600000Y-99846033D03*
D11*
X139599999Y-125999999D03*
%TD*%
D14*
%TO.C,J2*%
X172590000Y-19150000D03*
X166810000Y-19150000D03*
D15*
X174019999Y-19679999D03*
D16*
X174019999Y-15499999D03*
D15*
X165379999Y-19679999D03*
D16*
X165379999Y-15499999D03*
%TD*%
D17*
%TO.C,J4*%
X149699994Y-29580619D03*
D18*
X149699994Y-32120619D03*
X149699994Y-34660619D03*
X149699994Y-37200619D03*
X149699994Y-39740619D03*
X149699994Y-42280619D03*
X149699994Y-44820619D03*
D19*
X149949995Y-21200620D03*
X149949995Y-53200620D03*
X189449995Y-21200620D03*
X189449995Y-53200620D03*
%TD*%
D17*
%TO.C,J1*%
X165899996Y-60599999D03*
D18*
X168439996Y-60599999D03*
X170979996Y-60599999D03*
X173519996Y-60599999D03*
%TD*%
D20*
%TO.C,SW25*%
X115727847Y-144071738D03*
D21*
X116560969Y-138453562D03*
D22*
X111566555Y-141157970D03*
D21*
X109902470Y-136891998D03*
D20*
X107405263Y-138244202D03*
D23*
X107219746Y-135013534D03*
X119265809Y-140347510D03*
%TD*%
D20*
%TO.C,SW30*%
X130965367Y-159891510D03*
D21*
X133224192Y-154680396D03*
D22*
X127700006Y-156000004D03*
D21*
X127196738Y-151448694D03*
D20*
X124434645Y-152108498D03*
D24*
X125091608Y-148939898D03*
X135346676Y-157209874D03*
%TD*%
D20*
%TO.C,SW1*%
X56400836Y-39482097D03*
D21*
X55751479Y-33839728D03*
D22*
X51627197Y-37744635D03*
D21*
X48915699Y-34054719D03*
D20*
X46853558Y-36007173D03*
D25*
X45838205Y-32934602D03*
X58854343Y-34969077D03*
%TD*%
D20*
%TO.C,SW24*%
X110902281Y-112534537D03*
D21*
X110252924Y-106892168D03*
D22*
X106128642Y-110797075D03*
D21*
X103417144Y-107107159D03*
D20*
X101355003Y-109059613D03*
D25*
X100339650Y-105987042D03*
X113355788Y-108021517D03*
%TD*%
D20*
%TO.C,SW29*%
X127717482Y-122033565D03*
D21*
X127068125Y-116391196D03*
D22*
X122943843Y-120296103D03*
D21*
X120232345Y-116606187D03*
D20*
X118170204Y-118558641D03*
D25*
X117154851Y-115486070D03*
X130170989Y-117520545D03*
%TD*%
D20*
%TO.C,SW14*%
X75099971Y-99503580D03*
D21*
X74450614Y-93861211D03*
D22*
X70326332Y-97766118D03*
D21*
X67614834Y-94076202D03*
D20*
X65552693Y-96028656D03*
D25*
X64537340Y-92956085D03*
X77553478Y-94990560D03*
%TD*%
D20*
%TO.C,SW19*%
X94358513Y-102289648D03*
D21*
X93709156Y-96647279D03*
D22*
X89584874Y-100552186D03*
D21*
X86873376Y-96862270D03*
D20*
X84811235Y-98814724D03*
D25*
X83795882Y-95742153D03*
X96812020Y-97776628D03*
%TD*%
D20*
%TO.C,SW5*%
X30338900Y-111086691D03*
D21*
X29689543Y-105444322D03*
D22*
X25565261Y-109349229D03*
D21*
X22853763Y-105659313D03*
D20*
X20791622Y-107611767D03*
D25*
X19776269Y-104539196D03*
X32792407Y-106573671D03*
%TD*%
D20*
%TO.C,SW22*%
X123933231Y-76732243D03*
D21*
X123283874Y-71089874D03*
D22*
X119159592Y-74994781D03*
D21*
X116448094Y-71304865D03*
D20*
X114385953Y-73257319D03*
D25*
X113370600Y-70184748D03*
X126386738Y-72219223D03*
%TD*%
D20*
%TO.C,SW27*%
X140748452Y-86231271D03*
D21*
X140099095Y-80588902D03*
D22*
X135974813Y-84493809D03*
D21*
X133263315Y-80803893D03*
D20*
X131201174Y-82756347D03*
D25*
X130185821Y-79683776D03*
X143201959Y-81718251D03*
%TD*%
D20*
%TO.C,SW3*%
X43369856Y-75284394D03*
D21*
X42720499Y-69642025D03*
D22*
X38596217Y-73546932D03*
D21*
X35884719Y-69857016D03*
D20*
X33822578Y-71809470D03*
D25*
X32807225Y-68736899D03*
X45823363Y-70771374D03*
%TD*%
D20*
%TO.C,SW8*%
X62085451Y-79562219D03*
D21*
X61436094Y-73919850D03*
D22*
X57311812Y-77824757D03*
D21*
X54600314Y-74134841D03*
D20*
X52538173Y-76087295D03*
D25*
X51522820Y-73014724D03*
X64538958Y-75049199D03*
%TD*%
D20*
%TO.C,SW13*%
X81615464Y-81602425D03*
D21*
X80966107Y-75960056D03*
D22*
X76841825Y-79864963D03*
D21*
X74130327Y-76175047D03*
D20*
X72068186Y-78127501D03*
D25*
X71052833Y-75054930D03*
X84068971Y-77089405D03*
%TD*%
D20*
%TO.C,SW23*%
X117417752Y-94633424D03*
D21*
X116768395Y-88991055D03*
D22*
X112644113Y-92895962D03*
D21*
X109932615Y-89206046D03*
D20*
X107870474Y-91158500D03*
D25*
X106855121Y-88085929D03*
X119871259Y-90120404D03*
%TD*%
D20*
%TO.C,SW18*%
X100873982Y-84388508D03*
D21*
X100224625Y-78746139D03*
D22*
X96100343Y-82651046D03*
D21*
X93388845Y-78961130D03*
D20*
X91326704Y-80913584D03*
D25*
X90311351Y-77841013D03*
X103327489Y-79875488D03*
%TD*%
D20*
%TO.C,SW28*%
X134232968Y-104132416D03*
D21*
X133583611Y-98490047D03*
D22*
X129459329Y-102394954D03*
D21*
X126747831Y-98705038D03*
D20*
X124685690Y-100657492D03*
D25*
X123670337Y-97584921D03*
X136686475Y-99619396D03*
%TD*%
D20*
%TO.C,SW4*%
X36854400Y-93185560D03*
D21*
X36205043Y-87543191D03*
D22*
X32080761Y-91448098D03*
D21*
X29369263Y-87758182D03*
D20*
X27307122Y-89710636D03*
D25*
X26291769Y-86638065D03*
X39307907Y-88672540D03*
%TD*%
D20*
%TO.C,SW9*%
X55569943Y-97463380D03*
D21*
X54920586Y-91821011D03*
D22*
X50796304Y-95725918D03*
D21*
X48084806Y-92036002D03*
D20*
X46022665Y-93988456D03*
D25*
X45007312Y-90915885D03*
X58023450Y-92950360D03*
%TD*%
D20*
%TO.C,SW10*%
X49054473Y-115364519D03*
D21*
X48405116Y-109722150D03*
D22*
X44280834Y-113627057D03*
D21*
X41569336Y-109937141D03*
D20*
X39507195Y-111889595D03*
D25*
X38491842Y-108817024D03*
X51507980Y-110851499D03*
%TD*%
D20*
%TO.C,SW15*%
X68584491Y-117404720D03*
D21*
X67935134Y-111762351D03*
D22*
X63810852Y-115667258D03*
D21*
X61099354Y-111977342D03*
D20*
X59037213Y-113929796D03*
D25*
X58021860Y-110857225D03*
X71037998Y-112891700D03*
%TD*%
D20*
%TO.C,SW20*%
X96790850Y-132739144D03*
D21*
X96141493Y-127096775D03*
D22*
X92017211Y-131001682D03*
D21*
X89305713Y-127311766D03*
D20*
X87243572Y-129264220D03*
D25*
X86228219Y-126191649D03*
X99244357Y-128226124D03*
%TD*%
D20*
%TO.C,SW11*%
X94646424Y-45800154D03*
D21*
X93997067Y-40157785D03*
D22*
X89872785Y-44062692D03*
D21*
X87161287Y-40372776D03*
D20*
X85099146Y-42325230D03*
D25*
X84083793Y-39252659D03*
X97099931Y-41287134D03*
%TD*%
D20*
%TO.C,SW2*%
X49885356Y-57383245D03*
D21*
X49235999Y-51740876D03*
D22*
X45111717Y-55645783D03*
D21*
X42400219Y-51955867D03*
D20*
X40338078Y-53908321D03*
D25*
X39322725Y-50835750D03*
X52338863Y-52870225D03*
%TD*%
D20*
%TO.C,SW12*%
X88130935Y-63701286D03*
D21*
X87481578Y-58058917D03*
D22*
X83357296Y-61963824D03*
D21*
X80645798Y-58273908D03*
D20*
X78583657Y-60226362D03*
D25*
X77568304Y-57153791D03*
X90584442Y-59188266D03*
%TD*%
D20*
%TO.C,SW21*%
X130448723Y-58831109D03*
D21*
X129799366Y-53188740D03*
D22*
X125675084Y-57093647D03*
D21*
X122963586Y-53403731D03*
D20*
X120901445Y-55356185D03*
D25*
X119886092Y-52283614D03*
X132902230Y-54318089D03*
%TD*%
D20*
%TO.C,SW17*%
X107389481Y-66487372D03*
D21*
X106740124Y-60845003D03*
D22*
X102615842Y-64749910D03*
D21*
X99904344Y-61059994D03*
D20*
X97842203Y-63012448D03*
D25*
X96826850Y-59939877D03*
X109842988Y-61974352D03*
%TD*%
D20*
%TO.C,SW16*%
X113904966Y-48586210D03*
D21*
X113255609Y-42943841D03*
D22*
X109131327Y-46848748D03*
D21*
X106419829Y-43158832D03*
D20*
X104357688Y-45111286D03*
D25*
X103342335Y-42038715D03*
X116358473Y-44073190D03*
%TD*%
D20*
%TO.C,SW6*%
X75116409Y-43759946D03*
D21*
X74467052Y-38117577D03*
D22*
X70342770Y-42022484D03*
D21*
X67631272Y-38332568D03*
D20*
X65569131Y-40285022D03*
D25*
X64553778Y-37212451D03*
X77569916Y-39246926D03*
%TD*%
D20*
%TO.C,SW7*%
X68600924Y-61661086D03*
D21*
X67951567Y-56018717D03*
D22*
X63827285Y-59923624D03*
D21*
X61115787Y-56233708D03*
D20*
X59053646Y-58186162D03*
D25*
X58038293Y-55113591D03*
X71054431Y-57148066D03*
%TD*%
D20*
%TO.C,SW26*%
X147263939Y-68330126D03*
D21*
X146614582Y-62687757D03*
D22*
X142490300Y-66592664D03*
D21*
X139778802Y-62902748D03*
D20*
X137716661Y-64855202D03*
D25*
X136701308Y-61782631D03*
X149717446Y-63817106D03*
%TD*%
D20*
%TO.C,SW31*%
X201683359Y-64855205D03*
D21*
X197559077Y-60950297D03*
D22*
X196909720Y-66592667D03*
D21*
X192460760Y-65508944D03*
D20*
X192136081Y-68330129D03*
D26*
X189383266Y-66629059D03*
X200661941Y-59820946D03*
%TD*%
D27*
%TO.C,D34*%
X205745228Y-114989430D03*
X206873894Y-118090416D03*
%TD*%
D28*
%TO.C,J3*%
X172450002Y-109749992D03*
X171950002Y-109749992D03*
X171450002Y-109749992D03*
X170950002Y-109749992D03*
X170450002Y-109749992D03*
X169950002Y-109749992D03*
X169450002Y-109749992D03*
X168950002Y-109749992D03*
X168450002Y-109749992D03*
X167950002Y-109749992D03*
X167450002Y-109749992D03*
X166950002Y-109749992D03*
D29*
X174350002Y-112999992D03*
X165050002Y-112999992D03*
%TD*%
D30*
%TO.C,C53*%
X111957724Y-148114152D03*
X112744110Y-148664786D03*
%TD*%
D31*
%TO.C,U6*%
X178669300Y-116737636D03*
X179619300Y-116737636D03*
X180569300Y-116737636D03*
X180569300Y-119012636D03*
X178669300Y-119012636D03*
%TD*%
D32*
%TO.C,D16*%
X104337342Y-35898770D03*
X103208676Y-38999756D03*
%TD*%
D20*
%TO.C,SW45*%
X252156430Y-129264216D03*
D21*
X248032148Y-125359308D03*
D22*
X247382791Y-131001678D03*
D21*
X242933831Y-129917955D03*
D20*
X242609152Y-132739140D03*
D26*
X239856337Y-131038070D03*
X251135012Y-124229957D03*
%TD*%
D33*
%TO.C,C90*%
X303739448Y-97050305D03*
X304641552Y-96721965D03*
%TD*%
D34*
%TO.C,C38*%
X46472861Y-120235308D03*
X47374965Y-120563648D03*
%TD*%
D35*
%TO.C,C60*%
X174979790Y-177369381D03*
X174019790Y-177369381D03*
%TD*%
D27*
%TO.C,D57*%
X283577344Y-50339114D03*
X284706010Y-53440100D03*
%TD*%
D20*
%TO.C,SW49*%
X273847316Y-96028669D03*
D21*
X269723034Y-92123761D03*
D22*
X269073677Y-97766131D03*
D21*
X264624717Y-96682408D03*
D20*
X264300038Y-99503593D03*
D26*
X261547223Y-97802523D03*
X272825898Y-90994410D03*
%TD*%
D27*
%TO.C,D58*%
X290092842Y-68240266D03*
X291221508Y-71341252D03*
%TD*%
D36*
%TO.C,C28*%
X164527614Y-106481162D03*
X163696230Y-106961162D03*
%TD*%
D37*
%TO.C,D103*%
X149585730Y-175066049D03*
X149948076Y-173713753D03*
X144273138Y-173642545D03*
%TD*%
D38*
%TO.C,D104*%
X172449785Y-177359400D03*
X172449785Y-175959400D03*
X166949785Y-177359400D03*
%TD*%
D27*
%TO.C,D60*%
X303123809Y-104042552D03*
X304252475Y-107143538D03*
%TD*%
D39*
%TO.C,C9*%
X167900006Y-37850003D03*
X167900006Y-39400003D03*
%TD*%
D40*
%TO.C,R27*%
X180539296Y-120505126D03*
X179519296Y-120505126D03*
%TD*%
D41*
%TO.C,D105*%
X195151623Y-173635910D03*
X194789277Y-172283614D03*
X189839031Y-175059414D03*
%TD*%
D42*
%TO.C,C44*%
X112225462Y-53785350D03*
X111323358Y-53457010D03*
%TD*%
%TO.C,C46*%
X99194480Y-89587638D03*
X98292376Y-89259298D03*
%TD*%
D33*
%TO.C,C85*%
X285023874Y-101328146D03*
X285925978Y-100999806D03*
%TD*%
D43*
%TO.C,D125*%
X280037326Y-119848040D03*
X279558498Y-118532471D03*
X274869016Y-121729151D03*
%TD*%
D44*
%TO.C,D63*%
X180852337Y-162869994D03*
X181706439Y-166057550D03*
%TD*%
D34*
%TO.C,C42*%
X63983003Y-99756617D03*
X64885107Y-100084957D03*
%TD*%
D45*
%TO.C,D75*%
X39316371Y-79608821D03*
X39795199Y-78293252D03*
X34148061Y-77727710D03*
%TD*%
D32*
%TO.C,D14*%
X65532338Y-86816121D03*
X64403672Y-89917107D03*
%TD*%
D46*
%TO.C,D102*%
X125288983Y-161611174D03*
X126361445Y-160711271D03*
X121753651Y-157397929D03*
%TD*%
D20*
%TO.C,SW47*%
X260816355Y-60226369D03*
D21*
X256692073Y-56321461D03*
D22*
X256042716Y-61963831D03*
D21*
X251593756Y-60880108D03*
D20*
X251269077Y-63701293D03*
D26*
X248516262Y-62000223D03*
X259794937Y-55192110D03*
%TD*%
D20*
%TO.C,SW63*%
X195966909Y-167775197D03*
D21*
X192198657Y-163525694D03*
D22*
X191060006Y-169089998D03*
D21*
X186722428Y-167622647D03*
D20*
X186153103Y-170404799D03*
D47*
X183559020Y-168470278D03*
X195388143Y-162671073D03*
%TD*%
D48*
%TO.C,D81*%
X46826964Y-98591116D03*
X46348136Y-99906685D03*
X51995274Y-100472227D03*
%TD*%
D32*
%TO.C,D4*%
X27286762Y-80498071D03*
X26158096Y-83599057D03*
%TD*%
D43*
%TO.C,D106*%
X201357879Y-70773444D03*
X200879051Y-69457875D03*
X196189569Y-72654555D03*
%TD*%
D49*
%TO.C,D67*%
X181831559Y-110487505D03*
X182531559Y-109275069D03*
X177068419Y-107737505D03*
%TD*%
D32*
%TO.C,D19*%
X84790881Y-89602188D03*
X83662215Y-92703174D03*
%TD*%
D20*
%TO.C,SW61*%
X153246905Y-170404788D03*
D21*
X152108254Y-164840484D03*
D22*
X148340002Y-169089987D03*
D21*
X145317225Y-165650435D03*
D20*
X143433099Y-167775186D03*
D50*
X142153817Y-164802801D03*
X155297740Y-165695104D03*
%TD*%
D20*
%TO.C,SW33*%
X214714306Y-100657486D03*
D21*
X210590024Y-96752578D03*
D22*
X209940667Y-102394948D03*
D21*
X205491707Y-101311225D03*
D20*
X205167028Y-104132410D03*
D26*
X202414213Y-102431340D03*
X213692888Y-95623227D03*
%TD*%
D48*
%TO.C,D101*%
X118974507Y-123161294D03*
X118495679Y-124476863D03*
X124142817Y-125042405D03*
%TD*%
D51*
%TO.C,D134*%
X306120297Y-96194397D03*
X306599125Y-97509966D03*
X311288607Y-94313286D03*
%TD*%
D52*
%TO.C,C4*%
X165949793Y-34300000D03*
X165949793Y-32400000D03*
%TD*%
D34*
%TO.C,C47*%
X83241531Y-102542685D03*
X84143635Y-102871025D03*
%TD*%
D33*
%TO.C,C70*%
X229691579Y-116399320D03*
X230593683Y-116070980D03*
%TD*%
D53*
%TO.C,C92*%
X172789300Y-35350008D03*
X173749300Y-35350008D03*
%TD*%
D42*
%TO.C,C39*%
X92966933Y-50999270D03*
X92064829Y-50670930D03*
%TD*%
D54*
%TO.C,C8*%
X173625001Y-36820005D03*
X173625001Y-37780005D03*
%TD*%
D55*
%TO.C,C21*%
X178815000Y-114875136D03*
X177265000Y-114875136D03*
%TD*%
D56*
%TO.C,C7*%
X168700003Y-53880000D03*
X168700003Y-52920000D03*
%TD*%
D45*
%TO.C,D78*%
X71062914Y-48084362D03*
X71541742Y-46768793D03*
X65894604Y-46203251D03*
%TD*%
%TO.C,D98*%
X143210431Y-72654542D03*
X143689259Y-71338973D03*
X138042121Y-70773431D03*
%TD*%
D53*
%TO.C,C19*%
X165420001Y-42423902D03*
X166380001Y-42423902D03*
%TD*%
D34*
%TO.C,C43*%
X66002892Y-122275509D03*
X66904996Y-122603849D03*
%TD*%
%TO.C,C30*%
X38768388Y-57636267D03*
X39670492Y-57964607D03*
%TD*%
D32*
%TO.C,D8*%
X52517817Y-66874779D03*
X51389151Y-69975765D03*
%TD*%
D27*
%TO.C,D39*%
X222560457Y-105490426D03*
X223689123Y-108591412D03*
%TD*%
D45*
%TO.C,D90*%
X96820496Y-88712931D03*
X97299324Y-87397362D03*
X91652186Y-86831820D03*
%TD*%
D57*
%TO.C,C22*%
X177019294Y-118800131D03*
X177019294Y-117250131D03*
%TD*%
D45*
%TO.C,D100*%
X130179474Y-108456822D03*
X130658302Y-107141253D03*
X125011164Y-106575711D03*
%TD*%
D54*
%TO.C,C13*%
X171580000Y-36810000D03*
X171580000Y-37770000D03*
%TD*%
D34*
%TO.C,C50*%
X112816255Y-76985279D03*
X113718359Y-77313619D03*
%TD*%
D45*
%TO.C,D87*%
X64530988Y-121729136D03*
X65009816Y-120413567D03*
X59362678Y-119848025D03*
%TD*%
D58*
%TO.C,D68*%
X189200001Y-128749985D03*
X190600001Y-128749985D03*
X189200001Y-123249985D03*
%TD*%
D20*
%TO.C,SW59*%
X312092896Y-89710623D03*
D21*
X307968614Y-85805715D03*
D22*
X307319257Y-91448085D03*
D21*
X302870297Y-90364362D03*
D20*
X302545618Y-93185547D03*
D26*
X299792803Y-91484477D03*
X311071478Y-84676364D03*
%TD*%
D33*
%TO.C,C80*%
X265493855Y-103368335D03*
X266395959Y-103039995D03*
%TD*%
D27*
%TO.C,D37*%
X209529483Y-69688127D03*
X210658149Y-72789113D03*
%TD*%
%TO.C,D48*%
X251847244Y-74558304D03*
X252975910Y-77659290D03*
%TD*%
D48*
%TO.C,D84*%
X79387956Y-64829020D03*
X78909128Y-66144589D03*
X84556266Y-66710131D03*
%TD*%
D59*
%TO.C,C66*%
X218658295Y-156200718D03*
X219275371Y-155465316D03*
%TD*%
D48*
%TO.C,D91*%
X85615540Y-103417380D03*
X85136712Y-104732949D03*
X90783850Y-105298491D03*
%TD*%
D45*
%TO.C,D83*%
X90592929Y-50124566D03*
X91071757Y-48808997D03*
X85424619Y-48243455D03*
%TD*%
D27*
%TO.C,D50*%
X264878204Y-110360584D03*
X266006870Y-113461570D03*
%TD*%
D60*
%TO.C,D61*%
X142609890Y-158599482D03*
X141755788Y-161787038D03*
%TD*%
D20*
%TO.C,SW38*%
X231529556Y-91158483D03*
D21*
X227405274Y-87253575D03*
D22*
X226755917Y-92895945D03*
D21*
X222306957Y-91812222D03*
D20*
X221982278Y-94633407D03*
D26*
X219229463Y-92932337D03*
X230508138Y-86124224D03*
%TD*%
D61*
%TO.C,C64*%
X216769680Y-105719798D03*
X215867576Y-106048138D03*
%TD*%
D20*
%TO.C,SW50*%
X280362795Y-113929810D03*
D21*
X276238513Y-110024902D03*
D22*
X275589156Y-115667272D03*
D21*
X271140196Y-114583549D03*
D20*
X270815517Y-117404734D03*
D26*
X268062702Y-115703664D03*
X279341377Y-108895551D03*
%TD*%
D45*
%TO.C,D95*%
X113364262Y-98957844D03*
X113843090Y-97642275D03*
X108195952Y-97076733D03*
%TD*%
D62*
%TO.C,R4*%
X165100012Y-93010000D03*
X165100012Y-91990000D03*
%TD*%
D56*
%TO.C,C24*%
X189190005Y-131279994D03*
X189190005Y-130319994D03*
%TD*%
D61*
%TO.C,C67*%
X220553947Y-60418527D03*
X219651843Y-60746867D03*
%TD*%
D48*
%TO.C,D86*%
X66356990Y-100631320D03*
X65878162Y-101946889D03*
X71525300Y-102512431D03*
%TD*%
D34*
%TO.C,C48*%
X94209265Y-137609928D03*
X95111369Y-137938268D03*
%TD*%
%TO.C,C40*%
X77013977Y-63954331D03*
X77916081Y-64282671D03*
%TD*%
D20*
%TO.C,SW58*%
X305577416Y-71809460D03*
D21*
X301453134Y-67904552D03*
D22*
X300803777Y-73546922D03*
D21*
X296354817Y-72463199D03*
D20*
X296030138Y-75284384D03*
D26*
X293277323Y-73583314D03*
X304555998Y-66775201D03*
%TD*%
D51*
%TO.C,D129*%
X287404720Y-100472240D03*
X287883548Y-101787809D03*
X292573030Y-98591129D03*
%TD*%
D27*
%TO.C,D55*%
X284408245Y-108320384D03*
X285536911Y-111421370D03*
%TD*%
D63*
%TO.C,U4*%
X175049999Y-120339999D03*
D64*
X175050000Y-122120000D03*
X175050000Y-123900000D03*
X175050000Y-125680000D03*
X175050000Y-127460000D03*
X175050000Y-129240000D03*
X175050000Y-131020000D03*
X175050000Y-132800000D03*
X164350000Y-133690000D03*
X164350000Y-131910000D03*
X164350000Y-130130000D03*
X164350000Y-128350000D03*
X164350000Y-126570000D03*
X164350000Y-124790000D03*
X164350000Y-123010000D03*
X164350000Y-121230000D03*
%TD*%
D32*
%TO.C,D6*%
X65548774Y-31072482D03*
X64420108Y-34173468D03*
%TD*%
D65*
%TO.C,U3*%
X174437496Y-43000001D03*
X174437496Y-43400001D03*
X174437496Y-43800001D03*
X174437496Y-44200001D03*
X174437496Y-44600001D03*
X174437496Y-45000001D03*
X174437496Y-45400001D03*
X174437496Y-45800001D03*
X174437496Y-46200001D03*
X174437496Y-46600001D03*
X174437496Y-47000001D03*
X174437496Y-47400001D03*
X174437496Y-47800001D03*
X174437496Y-48200001D03*
D66*
X173599996Y-49037501D03*
X173199996Y-49037501D03*
X172799996Y-49037501D03*
X172399996Y-49037501D03*
X171999996Y-49037501D03*
X171599996Y-49037501D03*
X171199996Y-49037501D03*
X170799996Y-49037501D03*
X170399996Y-49037501D03*
X169999996Y-49037501D03*
X169599996Y-49037501D03*
X169199996Y-49037501D03*
X168799996Y-49037501D03*
X168399996Y-49037501D03*
D65*
X167562496Y-48200001D03*
X167562496Y-47800001D03*
X167562496Y-47400001D03*
X167562496Y-47000001D03*
X167562496Y-46600001D03*
X167562496Y-46200001D03*
X167562496Y-45800001D03*
X167562496Y-45400001D03*
X167562496Y-45000001D03*
X167562496Y-44600001D03*
X167562496Y-44200001D03*
X167562496Y-43800001D03*
X167562496Y-43400001D03*
X167562496Y-43000001D03*
D66*
X168399996Y-42162501D03*
X168799996Y-42162501D03*
X169199996Y-42162501D03*
X169599996Y-42162501D03*
X169999996Y-42162501D03*
X170399996Y-42162501D03*
X170799996Y-42162501D03*
X171199996Y-42162501D03*
X171599996Y-42162501D03*
X171999996Y-42162501D03*
X172399996Y-42162501D03*
X172799996Y-42162501D03*
X173199996Y-42162501D03*
X173599996Y-42162501D03*
D67*
X170999995Y-45600000D03*
%TD*%
D20*
%TO.C,SW43*%
X248073284Y-80913582D03*
D21*
X243949002Y-77008674D03*
D22*
X243299645Y-82651044D03*
D21*
X238850685Y-81567321D03*
D20*
X238526006Y-84388506D03*
D26*
X235773191Y-82687436D03*
X247051866Y-75879323D03*
%TD*%
D32*
%TO.C,D28*%
X124665337Y-91444954D03*
X123536671Y-94545940D03*
%TD*%
D53*
%TO.C,C12*%
X165420001Y-39549997D03*
X166380001Y-39549997D03*
%TD*%
D32*
%TO.C,D21*%
X120881086Y-46143657D03*
X119752420Y-49244643D03*
%TD*%
D45*
%TO.C,D93*%
X126395221Y-63155516D03*
X126874049Y-61839947D03*
X121226911Y-61274405D03*
%TD*%
D61*
%TO.C,C62*%
X203738731Y-69917542D03*
X202836627Y-70245882D03*
%TD*%
D32*
%TO.C,D7*%
X59033299Y-48973625D03*
X57904633Y-52074611D03*
%TD*%
%TO.C,D10*%
X39486841Y-102677076D03*
X38358175Y-105778062D03*
%TD*%
D68*
%TO.C,F1*%
X156899797Y-23699669D03*
X159699797Y-23699669D03*
%TD*%
D38*
%TO.C,SW66*%
X166525001Y-73299999D03*
X172825001Y-73299999D03*
X166525001Y-69499999D03*
X172825001Y-69499999D03*
%TD*%
D51*
%TO.C,D127*%
X274373750Y-64669931D03*
X274852578Y-65985500D03*
X279542060Y-62788820D03*
%TD*%
D61*
%TO.C,C81*%
X282418163Y-118992119D03*
X281516059Y-119320459D03*
%TD*%
%TO.C,C84*%
X288917214Y-81149645D03*
X288015110Y-81477985D03*
%TD*%
D53*
%TO.C,C11*%
X165420007Y-40599997D03*
X166380007Y-40599997D03*
%TD*%
D20*
%TO.C,SW57*%
X299061931Y-53908320D03*
D21*
X294937649Y-50003412D03*
D22*
X294288292Y-55645782D03*
D21*
X289839332Y-54562059D03*
D20*
X289514653Y-57383244D03*
D26*
X286761838Y-55682174D03*
X298040513Y-48874061D03*
%TD*%
D69*
%TO.C,D65*%
X164400209Y-26549998D03*
X164400209Y-23249998D03*
%TD*%
D33*
%TO.C,C88*%
X290708482Y-61248012D03*
X291610586Y-60919672D03*
%TD*%
D43*
%TO.C,D130*%
X299567346Y-117807853D03*
X299088518Y-116492284D03*
X294399036Y-119688964D03*
%TD*%
D32*
%TO.C,D18*%
X91306374Y-71701048D03*
X90177708Y-74802034D03*
%TD*%
D51*
%TO.C,D124*%
X267874708Y-102512426D03*
X268353536Y-103827995D03*
X273043018Y-100631315D03*
%TD*%
D70*
%TO.C,R14*%
X161390000Y-128300000D03*
X162410000Y-128300000D03*
%TD*%
D51*
%TO.C,D107*%
X202226221Y-89240121D03*
X202705049Y-90555690D03*
X207394531Y-87359010D03*
%TD*%
D32*
%TO.C,D2*%
X40317723Y-44695775D03*
X39189057Y-47796761D03*
%TD*%
D27*
%TO.C,D47*%
X245331780Y-56657160D03*
X246460446Y-59758146D03*
%TD*%
%TO.C,D56*%
X277061866Y-32437969D03*
X278190532Y-35538955D03*
%TD*%
D71*
%TO.C,U2*%
X182544300Y-35820136D03*
X182544300Y-37090136D03*
X182544300Y-38360136D03*
X182544300Y-39630136D03*
X175344300Y-39630136D03*
X175344300Y-38360136D03*
X175344300Y-37090136D03*
X175344300Y-35820136D03*
%TD*%
D45*
%TO.C,D85*%
X77561963Y-85926842D03*
X78040791Y-84611273D03*
X72393653Y-84045731D03*
%TD*%
%TO.C,D92*%
X92737371Y-137063558D03*
X93216199Y-135747989D03*
X87569061Y-135182447D03*
%TD*%
D61*
%TO.C,C79*%
X269387202Y-83189834D03*
X268485098Y-83518174D03*
%TD*%
D45*
%TO.C,D73*%
X52347339Y-43806516D03*
X52826167Y-42490947D03*
X47179029Y-41925405D03*
%TD*%
D43*
%TO.C,D108*%
X214388831Y-106575723D03*
X213910003Y-105260154D03*
X209220521Y-108456834D03*
%TD*%
D20*
%TO.C,SW52*%
X280346370Y-58186165D03*
D21*
X276222088Y-54281257D03*
D22*
X275572731Y-59923627D03*
D21*
X271123771Y-58839904D03*
D20*
X270799092Y-61661089D03*
D26*
X268046277Y-59960019D03*
X279324952Y-53151906D03*
%TD*%
D27*
%TO.C,D33*%
X199229744Y-97088288D03*
X200358410Y-100189274D03*
%TD*%
D70*
%TO.C,R28*%
X178990000Y-121560000D03*
X180010000Y-121560000D03*
%TD*%
D20*
%TO.C,SW44*%
X254588777Y-98814719D03*
D21*
X250464495Y-94909811D03*
D22*
X249815138Y-100552181D03*
D21*
X245366178Y-99468458D03*
D20*
X245041499Y-102289643D03*
D26*
X242288684Y-100588573D03*
X253567359Y-93780460D03*
%TD*%
D61*
%TO.C,C89*%
X307632792Y-76871789D03*
X306730688Y-77200129D03*
%TD*%
D51*
%TO.C,D112*%
X219041454Y-79741115D03*
X219520282Y-81056684D03*
X224209764Y-77860004D03*
%TD*%
D43*
%TO.C,D131*%
X292220971Y-41925411D03*
X291742143Y-40609842D03*
X287052661Y-43806522D03*
%TD*%
D32*
%TO.C,D17*%
X97821858Y-53799914D03*
X96693192Y-56900900D03*
%TD*%
D72*
%TO.C,JP1*%
X161066012Y-126299999D03*
X162366012Y-126299999D03*
%TD*%
D54*
%TO.C,C14*%
X172599995Y-36820000D03*
X172599995Y-37780000D03*
%TD*%
D62*
%TO.C,R10*%
X176466011Y-129736304D03*
X176466011Y-128716304D03*
%TD*%
D27*
%TO.C,D41*%
X219557738Y-41542084D03*
X220686404Y-44643070D03*
%TD*%
D20*
%TO.C,SW41*%
X235042324Y-45111300D03*
D21*
X230918042Y-41206392D03*
D22*
X230268685Y-46848762D03*
D21*
X225819725Y-45765039D03*
D20*
X225495046Y-48586224D03*
D26*
X222742231Y-46885154D03*
X234020906Y-40077041D03*
%TD*%
D48*
%TO.C,D76*%
X28111417Y-94313297D03*
X27632589Y-95628866D03*
X33279727Y-96194408D03*
%TD*%
D61*
%TO.C,C91*%
X320663757Y-112674082D03*
X319761653Y-113002422D03*
%TD*%
D70*
%TO.C,R12*%
X166490000Y-25400000D03*
X167510000Y-25400000D03*
%TD*%
D73*
%TO.C,R15*%
X163719300Y-58365136D03*
X163719300Y-59385136D03*
%TD*%
D42*
%TO.C,C34*%
X73436917Y-48959067D03*
X72534813Y-48630727D03*
%TD*%
D27*
%TO.C,D54*%
X277892758Y-90419245D03*
X279021424Y-93520231D03*
%TD*%
D39*
%TO.C,C20*%
X170570000Y-15925000D03*
X170570000Y-17475000D03*
%TD*%
D54*
%TO.C,C2*%
X167200016Y-92019985D03*
X167200016Y-92979985D03*
%TD*%
D48*
%TO.C,D89*%
X98646505Y-67615088D03*
X98167677Y-68930657D03*
X103814815Y-69496199D03*
%TD*%
D32*
%TO.C,D1*%
X46833206Y-26794643D03*
X45704540Y-29895629D03*
%TD*%
D74*
%TO.C,R26*%
X168800022Y-15875022D03*
X168800022Y-17525022D03*
%TD*%
D62*
%TO.C,R9*%
X171599997Y-54885003D03*
X171599997Y-53865003D03*
%TD*%
D51*
%TO.C,D117*%
X235585188Y-69496209D03*
X236064016Y-70811778D03*
X240753498Y-67615098D03*
%TD*%
D48*
%TO.C,D96*%
X102159295Y-113662279D03*
X101680467Y-114977848D03*
X107327605Y-115543390D03*
%TD*%
D73*
%TO.C,R1*%
X174300008Y-91989990D03*
X174300008Y-93009990D03*
%TD*%
D45*
%TO.C,D77*%
X26285400Y-115411114D03*
X26764228Y-114095545D03*
X21117090Y-113530003D03*
%TD*%
D73*
%TO.C,R8*%
X169225000Y-38340000D03*
X169225000Y-39360000D03*
%TD*%
D27*
%TO.C,D53*%
X271377267Y-72518101D03*
X272505933Y-75619087D03*
%TD*%
D75*
%TO.C,C58*%
X126907580Y-163555706D03*
X126290504Y-162820304D03*
%TD*%
D43*
%TO.C,D113*%
X231204069Y-97076711D03*
X230725241Y-95761142D03*
X226035759Y-98957822D03*
%TD*%
D58*
%TO.C,D71*%
X150199999Y-123249996D03*
X148799999Y-123249996D03*
X150199999Y-128749996D03*
%TD*%
D35*
%TO.C,C6*%
X174379999Y-57075003D03*
X173419999Y-57075003D03*
%TD*%
D34*
%TO.C,C45*%
X96272513Y-66740413D03*
X97174617Y-67068753D03*
%TD*%
D27*
%TO.C,D32*%
X192714258Y-79187150D03*
X193842924Y-82288136D03*
%TD*%
D20*
%TO.C,SW40*%
X231994747Y-138244194D03*
D21*
X227000333Y-135539785D03*
D22*
X227833455Y-141157962D03*
D21*
X223255602Y-141262642D03*
D20*
X223672163Y-144071730D03*
D76*
X220572878Y-143141104D03*
X229705172Y-133645835D03*
%TD*%
D32*
%TO.C,D23*%
X107850126Y-81945946D03*
X106721460Y-85046932D03*
%TD*%
D20*
%TO.C,SW62*%
X174780016Y-171909989D03*
D21*
X172240016Y-166829989D03*
D22*
X169700016Y-171909989D03*
D21*
X165890016Y-169369989D03*
D20*
X164620016Y-171909989D03*
D77*
X162615015Y-169369988D03*
X175542015Y-166829988D03*
%TD*%
D42*
%TO.C,C54*%
X145584426Y-73529242D03*
X144682322Y-73200902D03*
%TD*%
D45*
%TO.C,D82*%
X45000970Y-119688940D03*
X45479798Y-118373371D03*
X39832660Y-117807829D03*
%TD*%
D34*
%TO.C,C33*%
X27757304Y-115957468D03*
X28659408Y-116285808D03*
%TD*%
D51*
%TO.C,D132*%
X293089324Y-60392105D03*
X293568152Y-61707674D03*
X298257634Y-58510994D03*
%TD*%
D62*
%TO.C,R2*%
X173250017Y-93009996D03*
X173250017Y-91989996D03*
%TD*%
D40*
%TO.C,R6*%
X179760000Y-41849999D03*
X178740000Y-41849999D03*
%TD*%
D78*
%TO.C,D69*%
X177068441Y-144262492D03*
X177768441Y-145474928D03*
X181831581Y-141512492D03*
%TD*%
D61*
%TO.C,C86*%
X301948175Y-116951928D03*
X301046071Y-117280268D03*
%TD*%
D27*
%TO.C,D36*%
X203014000Y-51786984D03*
X204142666Y-54887970D03*
%TD*%
D54*
%TO.C,C15*%
X175725003Y-41820003D03*
X175725003Y-42780003D03*
%TD*%
D33*
%TO.C,C63*%
X199845383Y-90096029D03*
X200747487Y-89767689D03*
%TD*%
D20*
%TO.C,SW46*%
X254300853Y-42325232D03*
D21*
X250176571Y-38420324D03*
D22*
X249527214Y-44062694D03*
D21*
X245078254Y-42978971D03*
D20*
X244753575Y-45800156D03*
D26*
X242000760Y-44099086D03*
X253279435Y-37290973D03*
%TD*%
D42*
%TO.C,C56*%
X132553482Y-109331529D03*
X131651378Y-109003189D03*
%TD*%
D61*
%TO.C,C72*%
X237097691Y-50173617D03*
X236195587Y-50501957D03*
%TD*%
D20*
%TO.C,SW51*%
X273830883Y-40285032D03*
D21*
X269706601Y-36380124D03*
D22*
X269057244Y-42022494D03*
D21*
X264608284Y-40938771D03*
D20*
X264283605Y-43759956D03*
D26*
X261530790Y-42058886D03*
X272809465Y-35250773D03*
%TD*%
D79*
%TO.C,C23*%
X184017620Y-111761173D03*
X183186236Y-111281173D03*
%TD*%
D51*
%TO.C,D122*%
X254843731Y-66710141D03*
X255322559Y-68025710D03*
X260012041Y-64829030D03*
%TD*%
D42*
%TO.C,C31*%
X41690372Y-80483515D03*
X40788268Y-80155175D03*
%TD*%
D27*
%TO.C,D59*%
X296608313Y-86141404D03*
X297736979Y-89242390D03*
%TD*%
D42*
%TO.C,C29*%
X54721338Y-44681225D03*
X53819234Y-44352885D03*
%TD*%
D20*
%TO.C,SW60*%
X318608379Y-107611760D03*
D21*
X314484097Y-103706852D03*
D22*
X313834740Y-109349222D03*
D21*
X309385780Y-108265499D03*
D20*
X309061101Y-111086684D03*
D26*
X306308286Y-109385614D03*
X317586961Y-102577501D03*
%TD*%
D48*
%TO.C,D99*%
X132005490Y-87358998D03*
X131526662Y-88674567D03*
X137173800Y-89240109D03*
%TD*%
D45*
%TO.C,D80*%
X58031969Y-83886648D03*
X58510797Y-82571079D03*
X52863659Y-82005537D03*
%TD*%
D80*
%TO.C,C61*%
X197597996Y-172990751D03*
X196670708Y-173239217D03*
%TD*%
D20*
%TO.C,SW37*%
X225014065Y-73257346D03*
D21*
X220889783Y-69352438D03*
D22*
X220240426Y-74994808D03*
D21*
X215791466Y-73911085D03*
D20*
X215466787Y-76732270D03*
D26*
X212713972Y-75031200D03*
X223992647Y-68223087D03*
%TD*%
D32*
%TO.C,D9*%
X46002326Y-84775927D03*
X44873660Y-87876913D03*
%TD*%
D33*
%TO.C,C83*%
X271992918Y-65525856D03*
X272895022Y-65197516D03*
%TD*%
D51*
%TO.C,D109*%
X215257177Y-125042411D03*
X215736005Y-126357980D03*
X220425487Y-123161300D03*
%TD*%
D81*
%TO.C,C71*%
X234503909Y-143152678D03*
X235290295Y-142602044D03*
%TD*%
D27*
%TO.C,D42*%
X226073235Y-59443225D03*
X227201901Y-62544211D03*
%TD*%
D32*
%TO.C,D22*%
X114365598Y-64044787D03*
X113236932Y-67145773D03*
%TD*%
D39*
%TO.C,C10*%
X163716687Y-39962757D03*
X163716687Y-41512757D03*
%TD*%
D61*
%TO.C,C82*%
X275886257Y-45347332D03*
X274984153Y-45675672D03*
%TD*%
D34*
%TO.C,C32*%
X25737427Y-93438590D03*
X26639531Y-93766930D03*
%TD*%
%TO.C,C55*%
X129631486Y-86484303D03*
X130533590Y-86812643D03*
%TD*%
D32*
%TO.C,D3*%
X33802231Y-62596940D03*
X32673565Y-65697926D03*
%TD*%
D82*
%TO.C,C3*%
X153199792Y-28599665D03*
X155099792Y-28599665D03*
%TD*%
D43*
%TO.C,D133*%
X305251942Y-77727700D03*
X304773114Y-76412131D03*
X300083632Y-79608811D03*
%TD*%
D42*
%TO.C,C36*%
X60405963Y-84761349D03*
X59503859Y-84433009D03*
%TD*%
D32*
%TO.C,D11*%
X85078794Y-33112698D03*
X83950128Y-36213684D03*
%TD*%
D33*
%TO.C,C78*%
X252462895Y-67566048D03*
X253364999Y-67237708D03*
%TD*%
D43*
%TO.C,D126*%
X273505414Y-46203253D03*
X273026586Y-44887684D03*
X268337104Y-48084364D03*
%TD*%
D27*
%TO.C,D49*%
X258362739Y-92459444D03*
X259491405Y-95560430D03*
%TD*%
D56*
%TO.C,C5*%
X176199998Y-54855002D03*
X176199998Y-53895002D03*
%TD*%
D27*
%TO.C,D46*%
X238816282Y-38756017D03*
X239944948Y-41857003D03*
%TD*%
D43*
%TO.C,D111*%
X218173098Y-61274430D03*
X217694270Y-59958861D03*
X213004788Y-63155541D03*
%TD*%
D57*
%TO.C,C93*%
X177680000Y-124145000D03*
X177680000Y-122595000D03*
%TD*%
D83*
%TO.C,D35*%
X199770731Y-156759740D03*
X202298677Y-158880940D03*
%TD*%
D40*
%TO.C,R13*%
X173110000Y-25400000D03*
X172090000Y-25400000D03*
%TD*%
D32*
%TO.C,D27*%
X131180816Y-73543811D03*
X130052150Y-76644797D03*
%TD*%
D84*
%TO.C,D70*%
X157568430Y-141512487D03*
X156868430Y-142724923D03*
X162331570Y-144262487D03*
%TD*%
D31*
%TO.C,U5*%
X168850000Y-26660000D03*
X169800000Y-26660000D03*
X170750000Y-26660000D03*
X170750000Y-28935000D03*
X169800000Y-28935000D03*
X168850000Y-28935000D03*
%TD*%
D33*
%TO.C,C76*%
X253306277Y-134645480D03*
X254208381Y-134317140D03*
%TD*%
%TO.C,C65*%
X212876343Y-125898317D03*
X213778447Y-125569977D03*
%TD*%
D40*
%TO.C,R5*%
X177759999Y-41860002D03*
X176739999Y-41860002D03*
%TD*%
D51*
%TO.C,D114*%
X232072409Y-115543408D03*
X232551237Y-116858977D03*
X237240719Y-113662297D03*
%TD*%
D43*
%TO.C,D123*%
X267006363Y-84045752D03*
X266527535Y-82730183D03*
X261838053Y-85926863D03*
%TD*%
D42*
%TO.C,C49*%
X128769231Y-64030219D03*
X127867127Y-63701879D03*
%TD*%
D43*
%TO.C,D135*%
X318282914Y-113529992D03*
X317804086Y-112214423D03*
X313114604Y-115411103D03*
%TD*%
D85*
%TO.C,D62*%
X161450010Y-163259991D03*
X161450010Y-166559991D03*
%TD*%
D43*
%TO.C,D128*%
X286536372Y-82005548D03*
X286057544Y-80689979D03*
X281368062Y-83886659D03*
%TD*%
D56*
%TO.C,C17*%
X169700003Y-53569340D03*
X169700003Y-52609340D03*
%TD*%
D86*
%TO.C,D97*%
X110677390Y-147205436D03*
X111480397Y-146058623D03*
X106172053Y-144050765D03*
%TD*%
D42*
%TO.C,C51*%
X115738252Y-99832544D03*
X114836148Y-99504204D03*
%TD*%
D34*
%TO.C,C52*%
X99785289Y-112787578D03*
X100687393Y-113115918D03*
%TD*%
D20*
%TO.C,SW54*%
X293377331Y-93988462D03*
D21*
X289253049Y-90083554D03*
D22*
X288603692Y-95725924D03*
D21*
X284154732Y-94642201D03*
D20*
X283830053Y-97463386D03*
D26*
X281077238Y-95762316D03*
X292355913Y-88954203D03*
%TD*%
D27*
%TO.C,D31*%
X186198778Y-61285987D03*
X187327444Y-64386973D03*
%TD*%
D34*
%TO.C,C37*%
X44452991Y-97716419D03*
X45355095Y-98044759D03*
%TD*%
D20*
%TO.C,SW55*%
X299892822Y-111889614D03*
D21*
X295768540Y-107984706D03*
D22*
X295119183Y-113627076D03*
D21*
X290670223Y-112543353D03*
D20*
X290345544Y-115364538D03*
D26*
X287592729Y-113663468D03*
X298871404Y-106855355D03*
%TD*%
D61*
%TO.C,C69*%
X233584909Y-96220805D03*
X232682805Y-96549145D03*
%TD*%
D35*
%TO.C,C16*%
X179366298Y-46600007D03*
X178406298Y-46600007D03*
%TD*%
D20*
%TO.C,SW48*%
X267331837Y-78127518D03*
D21*
X263207555Y-74222610D03*
D22*
X262558198Y-79864980D03*
D21*
X258109238Y-78781257D03*
D20*
X257784559Y-81602442D03*
D26*
X255031744Y-79901372D03*
X266310419Y-73093259D03*
%TD*%
D27*
%TO.C,D43*%
X232588709Y-77344376D03*
X233717375Y-80445362D03*
%TD*%
%TO.C,D52*%
X264861789Y-54616956D03*
X265990455Y-57717942D03*
%TD*%
D42*
%TO.C,C41*%
X79935965Y-86801540D03*
X79033861Y-86473200D03*
%TD*%
D33*
%TO.C,C75*%
X246238733Y-106163800D03*
X247140837Y-105835460D03*
%TD*%
D87*
%TO.C,D72*%
X162331580Y-107737501D03*
X161631580Y-106525065D03*
X157568440Y-110487501D03*
%TD*%
D32*
%TO.C,D29*%
X118149854Y-109346101D03*
X117021188Y-112447087D03*
%TD*%
D88*
%TO.C,D40*%
X216114014Y-138804297D03*
X218006816Y-141507499D03*
%TD*%
D54*
%TO.C,C94*%
X176379999Y-122930002D03*
X176379999Y-123890002D03*
%TD*%
D89*
%TO.C,Y1*%
X174749997Y-53275001D03*
X174749997Y-55475001D03*
X173049997Y-55475001D03*
X173049997Y-53275001D03*
%TD*%
D61*
%TO.C,C74*%
X250128654Y-85975894D03*
X249226550Y-86304234D03*
%TD*%
D53*
%TO.C,C18*%
X163514918Y-46599999D03*
X164474918Y-46599999D03*
%TD*%
D90*
%TO.C,C26*%
X155382389Y-140238826D03*
X156213773Y-140718826D03*
%TD*%
D20*
%TO.C,SW53*%
X286861847Y-76087310D03*
D21*
X282737565Y-72182402D03*
D22*
X282088208Y-77824772D03*
D21*
X277639248Y-76741049D03*
D20*
X277314569Y-79562234D03*
D26*
X274561754Y-77861164D03*
X285840429Y-71053051D03*
%TD*%
D20*
%TO.C,SW35*%
X214965368Y-152108494D03*
D21*
X209441182Y-150788886D03*
D22*
X211700007Y-156000000D03*
D21*
X207305233Y-157285949D03*
D20*
X208434646Y-159891506D03*
D91*
X205200103Y-159794743D03*
X211563665Y-148259406D03*
%TD*%
D20*
%TO.C,SW34*%
X221229791Y-118558629D03*
D21*
X217105509Y-114653721D03*
D22*
X216456152Y-120296091D03*
D21*
X212007192Y-119212368D03*
D20*
X211682513Y-122033553D03*
D26*
X208929698Y-120332483D03*
X220208373Y-113524370D03*
%TD*%
D92*
%TO.C,U1*%
X157249795Y-33309999D03*
X157249795Y-31009999D03*
D93*
X163549795Y-31009999D03*
D92*
X157249795Y-28709999D03*
%TD*%
D62*
%TO.C,R11*%
X162900000Y-123010000D03*
X162900000Y-121990000D03*
%TD*%
D94*
%TO.C,D25*%
X109769983Y-129340303D03*
X107877181Y-132043505D03*
%TD*%
D32*
%TO.C,D24*%
X101334640Y-99847080D03*
X100205974Y-102948066D03*
%TD*%
D34*
%TO.C,C35*%
X57483941Y-61914109D03*
X58386045Y-62242449D03*
%TD*%
D73*
%TO.C,R3*%
X166150007Y-91989992D03*
X166150007Y-93009992D03*
%TD*%
D95*
%TO.C,SW65*%
X173979994Y-77024999D03*
X165369994Y-77024999D03*
%TD*%
D33*
%TO.C,C73*%
X233204355Y-70352115D03*
X234106459Y-70023775D03*
%TD*%
D48*
%TO.C,D94*%
X115190244Y-77859980D03*
X114711416Y-79175549D03*
X120358554Y-79741091D03*
%TD*%
D32*
%TO.C,D26*%
X137696301Y-55642665D03*
X136567635Y-58743651D03*
%TD*%
D51*
%TO.C,D119*%
X248616159Y-105298492D03*
X249094987Y-106614061D03*
X253784469Y-103417381D03*
%TD*%
D27*
%TO.C,D38*%
X216044961Y-87589271D03*
X217173627Y-90690257D03*
%TD*%
D33*
%TO.C,C68*%
X216660611Y-80597031D03*
X217562715Y-80268691D03*
%TD*%
D43*
%TO.C,D120*%
X251830958Y-135182449D03*
X251352130Y-133866880D03*
X246662648Y-137063560D03*
%TD*%
D54*
%TO.C,C1*%
X172200013Y-92020007D03*
X172200013Y-92980007D03*
%TD*%
D20*
%TO.C,SW42*%
X241557800Y-63012444D03*
D21*
X237433518Y-59107536D03*
D22*
X236784161Y-64749906D03*
D21*
X232335201Y-63666183D03*
D20*
X232010522Y-66487368D03*
D26*
X229257707Y-64786298D03*
X240536382Y-57978185D03*
%TD*%
D96*
%TO.C,D115*%
X233212108Y-144045007D03*
X232409101Y-142898194D03*
X228706771Y-147199678D03*
%TD*%
D43*
%TO.C,D116*%
X234716840Y-51029532D03*
X234238012Y-49713963D03*
X229548530Y-52910643D03*
%TD*%
D97*
%TO.C,D110*%
X217641463Y-157397003D03*
X216569001Y-156497100D03*
X214106131Y-161610248D03*
%TD*%
D61*
%TO.C,C87*%
X294601803Y-41069512D03*
X293699699Y-41397852D03*
%TD*%
D32*
%TO.C,D5*%
X20771280Y-98399220D03*
X19642614Y-101500206D03*
%TD*%
D34*
%TO.C,C57*%
X116600510Y-122286600D03*
X117502614Y-122614940D03*
%TD*%
D20*
%TO.C,SW56*%
X292546452Y-36007187D03*
D21*
X288422170Y-32102279D03*
D22*
X287772813Y-37744649D03*
D21*
X283323853Y-36660926D03*
D20*
X282999174Y-39482111D03*
D26*
X280246359Y-37781041D03*
X291525034Y-30972928D03*
%TD*%
D48*
%TO.C,D74*%
X41142372Y-58510990D03*
X40663544Y-59826559D03*
X46310682Y-60392101D03*
%TD*%
D98*
%TO.C,C59*%
X152026941Y-175730518D03*
X151099653Y-175482052D03*
%TD*%
D99*
%TO.C,D30*%
X129023282Y-144120027D03*
X126495336Y-146241227D03*
%TD*%
D61*
%TO.C,C77*%
X256356230Y-47387554D03*
X255454126Y-47715894D03*
%TD*%
D73*
%TO.C,R7*%
X170375000Y-38340006D03*
X170375000Y-39360006D03*
%TD*%
D100*
%TO.C,D64*%
X161900000Y-23250000D03*
X161900000Y-26550000D03*
%TD*%
D27*
%TO.C,D51*%
X258346298Y-36715808D03*
X259474964Y-39816794D03*
%TD*%
D20*
%TO.C,SW36*%
X218498576Y-55356202D03*
D21*
X214374294Y-51451294D03*
D22*
X213724937Y-57093664D03*
D21*
X209275977Y-56009941D03*
D20*
X208951298Y-58831126D03*
D26*
X206198483Y-57130056D03*
X217477158Y-50321943D03*
%TD*%
D48*
%TO.C,D79*%
X59857953Y-62788822D03*
X59379125Y-64104391D03*
X65026263Y-64669933D03*
%TD*%
D20*
%TO.C,SW39*%
X238045031Y-109059636D03*
D21*
X233920749Y-105154728D03*
D22*
X233271392Y-110797098D03*
D21*
X228822432Y-109713375D03*
D20*
X228497753Y-112534560D03*
D26*
X225744938Y-110833490D03*
X237023613Y-104025377D03*
%TD*%
D20*
%TO.C,SW32*%
X208198832Y-82756352D03*
D21*
X204074550Y-78851444D03*
D22*
X203425193Y-84493814D03*
D21*
X198976233Y-83410091D03*
D20*
X198651554Y-86231276D03*
D26*
X195898739Y-84530206D03*
X207177414Y-77722093D03*
%TD*%
D32*
%TO.C,D12*%
X78563300Y-51013838D03*
X77434634Y-54114824D03*
%TD*%
D101*
%TO.C,C25*%
X174872388Y-145518829D03*
X175703772Y-145038829D03*
%TD*%
D27*
%TO.C,D45*%
X236671849Y-125695017D03*
X237800515Y-128796003D03*
%TD*%
%TO.C,D44*%
X239104194Y-95245502D03*
X240232860Y-98346488D03*
%TD*%
D32*
%TO.C,D15*%
X59016869Y-104717257D03*
X57888203Y-107818243D03*
%TD*%
%TO.C,D13*%
X72047823Y-68914971D03*
X70919157Y-72015957D03*
%TD*%
D43*
%TO.C,D121*%
X253975386Y-48243463D03*
X253496558Y-46927894D03*
X248807076Y-50124574D03*
%TD*%
D32*
%TO.C,D20*%
X87223234Y-120051689D03*
X86094568Y-123152675D03*
%TD*%
D69*
%TO.C,D66*%
X154699795Y-26649665D03*
X154699795Y-23349665D03*
%TD*%
D54*
%TO.C,C27*%
X150210001Y-120719999D03*
X150210001Y-121679999D03*
%TD*%
D45*
%TO.C,D88*%
X109851474Y-52910629D03*
X110330302Y-51595060D03*
X104683164Y-51029518D03*
%TD*%
D43*
%TO.C,D118*%
X247747822Y-86831826D03*
X247268994Y-85516257D03*
X242579512Y-88712937D03*
%TD*%
M02*
