M48
; DRILL file {KiCad (7.0.0)} date Mon Apr  3 14:41:28 2023
; FORMAT={-:-/ absolute / inch / decimal}
; #@! TF.CreationDate,2023-04-03T14:41:28+01:00
; #@! TF.GenerationSoftware,Kicad,Pcbnew,(7.0.0)
; #@! TF.FileFunction,Plated,1,2,PTH
FMAT,2
INCH
; #@! TA.AperFunction,Plated,PTH,ViaDrill
T1C0.0098
; #@! TA.AperFunction,Plated,PTH,ViaDrill
T2C0.0118
; #@! TA.AperFunction,Plated,PTH,ComponentDrill
T3C0.0118
; #@! TA.AperFunction,Plated,PTH,ComponentDrill
T4C0.0236
; #@! TA.AperFunction,Plated,PTH,ComponentDrill
T5C0.0276
; #@! TA.AperFunction,Plated,PTH,ComponentDrill
T6C0.0295
; #@! TA.AperFunction,Plated,PTH,ComponentDrill
T7C0.0394
; #@! TA.AperFunction,Plated,PTH,ComponentDrill
T8C0.0413
; #@! TA.AperFunction,Plated,PTH,ComponentDrill
T9C0.0591
; #@! TA.AperFunction,Plated,PTH,ComponentDrill
T10C0.0787
; #@! TA.AperFunction,Plated,PTH,ComponentDrill
T11C0.1260
%
G90
G05
T1
X1.4061Y-4.7468
X1.6002Y-4.0224
X1.7943Y-3.2979
X1.9884Y-2.5735
X2.1548Y-4.8504
X2.1825Y-1.849
X2.1825Y-1.6142
X2.3489Y-4.1259
X2.543Y-3.4015
X2.6149Y-1.4536
X2.6918Y-1.4366
X2.7371Y-2.6771
X2.9277Y-4.8634
X2.9312Y-1.9526
X2.9312Y-1.6753
X3.1219Y-4.1389
X3.316Y-3.4145
X3.5101Y-2.6901
X3.7042Y-1.6974
X3.7042Y-1.9656
X3.8867Y-4.1821
X4.0809Y-3.4577
X4.0866Y-5.368
X4.275Y-2.7332
X4.4691Y-1.7362
X4.4691Y-2.0088
X4.5707Y-4.5272
X4.7649Y-3.8027
X4.9067Y-5.7909
X4.959Y-3.0783
X5.1531Y-2.3538
X5.1531Y-2.1024
X5.2628Y-4.842
X5.4009Y-4.7853
X5.4141Y-4.7359
X5.4569Y-4.1175
X5.5846Y-6.4109
X5.6511Y-3.3931
X5.79Y-3.3331
X5.8022Y-3.2875
X5.8028Y-3.1892
X5.8452Y-2.6687
X5.8452Y-2.385
X5.9055Y-6.3085
X5.9055Y-6.3543
X5.9286Y-3.223
X6.4173Y-1.7559
X6.4409Y-1.7795
X6.4409Y-1.9646
X6.4409Y-2.0118
X6.5626Y-1.9161
X6.5866Y-1.8563
X6.6102Y-1.8346
X6.7165Y-2.1003
X6.7323Y-2.2263
X6.752Y-2.1357
X6.8218Y-2.2804
X6.8465Y-1.5669
X6.8465Y-1.7696
X6.8484Y-4.7108
X6.8543Y-1.5394
X6.8622Y-1.1654
X6.9108Y-4.7126
X6.9193Y-4.5573
X6.9232Y-1.5394
X6.9331Y-1.5669
X6.937Y-1.1654
X6.9567Y-4.3583
X6.9646Y-4.4331
X6.9655Y-1.8938
X6.9742Y-4.5571
X6.9744Y-4.5258
X6.9763Y-1.7372
X7.0374Y-4.5258
X7.0689Y-1.5865
X7.0886Y-3.8169
X7.0906Y-3.6969
X7.1811Y-2.7087
X7.2362Y-4.4965
X7.248Y-1.8386
X7.811Y-6.2165
X7.8346Y-6.2362
X7.8346Y-6.334
X7.8491Y-6.4827
X7.8701Y-3.3185
X7.9547Y-3.3185
X7.9721Y-3.2896
X7.9853Y-3.3391
X8.063Y-4.0337
X8.126Y-4.0337
X8.2598Y-4.7671
X8.3443Y-4.7671
X8.3603Y-4.7385
X8.3725Y-4.7841
X8.5081Y-2.515
X8.6149Y-5.9909
X8.6378Y-2.0709
X8.7022Y-3.2394
X8.8963Y-3.9639
X9.0904Y-4.6883
X9.2001Y-2.2001
X9.3346Y-1.7362
X9.3871Y-5.4939
X9.3943Y-2.9246
X9.5884Y-3.649
X9.7825Y-4.3735
X9.8841Y-1.8551
X10.0783Y-2.5795
X10.0866Y-1.7087
X10.2666Y-5.2143
X10.2724Y-3.304
X10.4665Y-4.0284
X10.649Y-1.8119
X10.8431Y-2.5363
X10.8819Y-1.689
X11.0373Y-3.2608
X11.0843Y-1.452
X11.1574Y-1.4682
X11.2314Y-3.9852
X11.422Y-1.7989
X11.4255Y-4.7097
X11.6142Y-1.6142
X11.6161Y-2.5233
X11.8102Y-3.2478
X12.0043Y-3.9722
X12.1707Y-1.6953
X12.1985Y-4.6967
X12.3648Y-2.4198
X12.5589Y-3.1442
X12.7531Y-3.8687
X12.9472Y-4.5931
T2
X0.8492Y-4.9827
X0.8557Y-4.9583
X0.8735Y-4.9892
X0.88Y-4.9649
X0.9932Y-4.2466
X1.0006Y-4.2191
X1.2317Y-5.1439
X1.2374Y-3.5338
X1.2391Y-5.1163
X1.2439Y-3.5094
X1.2617Y-3.5403
X1.2682Y-3.516
X1.3522Y-4.3981
X1.3588Y-4.3737
X1.3766Y-4.4046
X1.3814Y-2.7978
X1.3831Y-4.3803
X1.3888Y-2.7702
X1.5979Y-5.0862
X1.6044Y-5.0619
X1.6199Y-3.695
X1.6222Y-5.0928
X1.6256Y-2.0849
X1.6273Y-3.6674
X1.6287Y-5.0684
X1.6321Y-2.0606
X1.6499Y-2.0914
X1.6565Y-2.0671
X1.7405Y-2.9492
X1.7419Y-4.3502
X1.747Y-2.9249
X1.7493Y-4.3226
X1.7648Y-2.9557
X1.7713Y-2.9314
X1.9804Y-5.2474
X1.9861Y-3.6373
X1.9878Y-5.2199
X1.9926Y-3.613
X2.0081Y-2.2461
X2.0104Y-3.6439
X2.0155Y-2.2185
X2.0169Y-3.6195
X2.101Y-4.5016
X2.1075Y-4.4773
X2.1253Y-4.5082
X2.1301Y-2.9013
X2.1318Y-4.4838
X2.1375Y-2.8737
X2.3686Y-3.7985
X2.3708Y-5.0992
X2.3743Y-2.1885
X2.376Y-3.771
X2.3774Y-5.0749
X2.3808Y-2.1641
X2.3952Y-5.1058
X2.3987Y-2.195
X2.4017Y-5.0814
X2.4052Y-2.1706
X2.4523Y-1.3203
X2.4792Y-1.3144
X2.4892Y-3.0528
X2.4957Y-3.0284
X2.5061Y-1.3084
X2.5135Y-3.0593
X2.5149Y-4.3632
X2.52Y-3.0349
X2.5222Y-4.3356
X2.5368Y-1.3016
X2.5428Y-1.3285
X2.5488Y-1.3554
X2.5547Y-1.3823
X2.5607Y-1.4092
X2.6589Y-1.4156
X2.7213Y-1.2607
X2.7273Y-1.2876
X2.7333Y-1.3145
X2.7392Y-1.3414
X2.7452Y-1.3683
X2.7521Y-1.2539
X2.7534Y-5.2604
X2.7569Y-2.3496
X2.7591Y-3.6503
X2.7608Y-5.2329
X2.7642Y-2.3221
X2.7656Y-3.626
X2.779Y-1.2479
X2.7834Y-3.6569
X2.7899Y-3.6325
X2.8059Y-1.2419
X2.8739Y-4.5146
X2.8804Y-4.4903
X2.8983Y-4.5212
X2.9031Y-2.9143
X2.9048Y-4.4968
X2.9105Y-2.8867
X2.9199Y-1.265
X2.9348Y-1.3323
X2.9468Y-1.2591
X2.9617Y-1.3263
X2.9737Y-1.2531
X2.9886Y-1.3204
X3.1416Y-3.8115
X3.1473Y-2.2015
X3.149Y-3.784
X3.1538Y-2.1771
X3.1716Y-2.208
X3.1782Y-2.1836
X3.2622Y-3.0658
X3.2687Y-3.0414
X3.2797Y-4.4064
X3.2865Y-3.0723
X3.2871Y-4.3788
X3.293Y-3.0479
X3.4567Y-1.1969
X3.4567Y-1.2323
X3.5239Y-3.6935
X3.5276Y-1.4173
X3.5297Y-5.6039
X3.5298Y-2.3627
X3.5305Y-3.6692
X3.5362Y-5.5795
X3.5372Y-2.3351
X3.5483Y-3.7001
X3.5541Y-5.6104
X3.5548Y-3.6757
X3.5551Y-1.4173
X3.5606Y-5.5861
X3.5827Y-1.4173
X3.6102Y-1.4173
X3.6181Y-1.2717
X3.6181Y-1.3071
X3.6388Y-4.5578
X3.6453Y-4.5335
X3.6631Y-4.5644
X3.668Y-2.9575
X3.6697Y-4.54
X3.6754Y-2.9299
X3.9065Y-3.8547
X3.9122Y-2.2446
X3.9122Y-5.7651
X3.9139Y-3.8272
X3.9187Y-2.2203
X3.9196Y-5.7375
X3.9365Y-2.2512
X3.943Y-2.2268
X3.9638Y-4.7514
X3.9711Y-4.7239
X4.027Y-3.1089
X4.0336Y-3.0846
X4.0514Y-3.1155
X4.0579Y-3.0911
X4.208Y-4.0386
X4.2145Y-4.0142
X4.2323Y-4.0451
X4.2388Y-4.0208
X4.2947Y-2.4058
X4.3021Y-2.3783
X4.3072Y-5.8748
X4.3198Y-5.853
X4.3228Y-4.9029
X4.329Y-5.8874
X4.3293Y-4.8785
X4.3416Y-5.8656
X4.3472Y-4.9094
X4.352Y-3.3025
X4.3537Y-4.8851
X4.3594Y-3.275
X4.5905Y-4.1998
X4.5962Y-2.5897
X4.5979Y-4.1722
X4.6027Y-2.5653
X4.6205Y-2.5962
X4.627Y-2.5719
X4.635Y-6.1295
X4.6492Y-6.1048
X4.6558Y-5.0663
X4.6632Y-5.0387
X4.711Y-3.454
X4.7176Y-3.4296
X4.7354Y-3.4605
X4.7419Y-3.4362
X4.9Y-4.3534
X4.9066Y-4.3291
X4.9244Y-4.36
X4.9309Y-4.3356
X4.9787Y-2.7509
X4.9843Y-6.3368
X4.9861Y-2.7233
X5.0021Y-6.3189
X5.0021Y-6.3546
X5.0149Y-5.2177
X5.0199Y-6.3368
X5.0214Y-5.1934
X5.0392Y-5.2242
X5.0441Y-3.6174
X5.0458Y-5.1999
X5.0515Y-3.5898
X5.2176Y-5.1448
X5.235Y-6.6676
X5.2481Y-5.1529
X5.2551Y-6.6474
X5.2826Y-4.5146
X5.2883Y-2.9045
X5.29Y-4.4871
X5.2948Y-2.8802
X5.3126Y-2.9111
X5.3191Y-2.8867
X5.369Y-4.5802
X5.3994Y-4.5883
X5.4031Y-3.7688
X5.4097Y-3.7445
X5.4275Y-3.7754
X5.434Y-3.751
X5.6058Y-3.6959
X5.6363Y-3.7041
X5.6575Y-7.0591
X5.6575Y-7.0276
X5.6575Y-6.9961
X5.6708Y-3.0657
X5.6782Y-3.0382
X5.689Y-6.9961
X5.689Y-7.0591
X5.689Y-7.0276
X5.7572Y-3.1313
X5.7876Y-3.1394
X5.8305Y-6.9342
X5.837Y-6.9098
X5.8548Y-6.9407
X5.8614Y-6.9164
X5.9606Y-6.1614
X5.9606Y-4.7913
X5.9606Y-6.1929
X5.9606Y-4.126
X5.9606Y-6.2244
X5.9606Y-4.0945
X5.9606Y-4.8228
X5.9606Y-4.063
X5.9724Y-1.1693
X5.9724Y-1.2008
X5.9724Y-1.2323
X5.9921Y-6.1614
X5.9921Y-6.2244
X5.9921Y-4.0945
X5.9921Y-4.7913
X5.9921Y-4.8228
X5.9921Y-6.1929
X5.9921Y-4.063
X5.9921Y-4.126
X6.0039Y-1.2008
X6.0039Y-1.1693
X6.0039Y-1.2323
X6.0543Y-5.2728
X6.0543Y-5.298
X6.0795Y-5.298
X6.0795Y-5.2728
X6.0906Y-4.8228
X6.0906Y-4.7913
X6.1077Y-4.8868
X6.122Y-4.7913
X6.122Y-4.8228
X6.1362Y-4.8868
X6.213Y-7.0954
X6.2204Y-7.0678
X6.2234Y-5.6369
X6.2376Y-5.6122
X6.2677Y-2.2126
X6.2677Y-2.1496
X6.2677Y-3.7047
X6.2677Y-1.5039
X6.2677Y-2.1811
X6.2677Y-3.6732
X6.2677Y-1.4724
X6.2677Y-1.5354
X6.2677Y-3.6417
X6.2992Y-3.6732
X6.2992Y-3.7047
X6.2992Y-2.2126
X6.2992Y-1.4724
X6.2992Y-1.5354
X6.2992Y-2.1811
X6.2992Y-3.6417
X6.2992Y-1.5039
X6.2992Y-2.1496
X6.3453Y-4.4168
X6.3577Y-4.4383
X6.3661Y-1.0945
X6.3661Y-1.1299
X6.3699Y-4.4027
X6.374Y-0.9843
X6.3823Y-4.4242
X6.4016Y-0.9843
X6.4291Y-0.9843
X6.4567Y-1.5984
X6.4567Y-0.9843
X6.4803Y-1.4646
X6.4803Y-1.437
X6.4843Y-1.5984
X6.5Y-2.1772
X6.5Y-2.1457
X6.5079Y-1.4646
X6.5079Y-1.437
X6.5118Y-1.5984
X6.5276Y-1.2047
X6.5276Y-1.1693
X6.5315Y-1.7992
X6.5354Y-1.4646
X6.5354Y-2.6575
X6.5354Y-1.437
X6.5394Y-1.5984
X6.5591Y-1.7992
X6.606Y-5.919
X6.6186Y-5.8972
X6.6279Y-5.9316
X6.6348Y-2.0255
X6.6363Y-1.7016
X6.6405Y-5.9098
X6.6588Y-4.3345
X6.6614Y-2.6575
X6.6638Y-1.7016
X6.6815Y-4.3219
X6.69Y-1.8543
X6.6939Y-1.7205
X6.6945Y-1.7618
X6.7087Y-0.9764
X6.7098Y-7.0976
X6.7098Y-7.0724
X6.7126Y-3.1575
X6.735Y-7.0976
X6.735Y-7.0724
X6.7362Y-0.9764
X6.7638Y-3.1417
X6.7638Y-0.9764
X6.7638Y-3.435
X6.7953Y-1.0866
X6.7953Y-0.9764
X6.7953Y-1.0039
X6.7953Y-1.0315
X6.7953Y-1.0591
X6.8012Y-1.6367
X6.8071Y-1.1811
X6.8157Y-4.4282
X6.8157Y-4.5266
X6.8189Y-1.3898
X6.8189Y-1.3268
X6.8189Y-1.3583
X6.8287Y-1.6367
X6.8465Y-2.3359
X6.8504Y-1.3268
X6.8504Y-1.3898
X6.8504Y-1.3583
X6.8701Y-3.4685
X6.8819Y-4.2441
X6.8819Y-3.1673
X6.8858Y-2.3247
X6.8898Y-1.1378
X6.9291Y-1.3583
X6.9291Y-1.3898
X6.9291Y-1.3268
X6.9331Y-3.3031
X6.937Y-2.2617
X6.937Y-2.4703
X6.937Y-2.3877
X6.937Y-2.2892
X6.937Y-2.4428
X6.937Y-2.4152
X6.937Y-2.2339
X6.9598Y-1.6159
X6.9606Y-1.3898
X6.9606Y-1.3268
X6.9606Y-1.3583
X6.9646Y-2.4703
X6.9724Y-1.1811
X6.9764Y-3.1496
X6.984Y-1.5826
X6.9843Y-1.0039
X6.9843Y-0.9764
X6.9843Y-1.0866
X6.9843Y-1.0315
X6.9843Y-1.0591
X6.9883Y-2.1871
X6.9921Y-2.4703
X7.0Y-1.616
X7.0Y-3.435
X7.0039Y-4.2441
X7.0157Y-0.9764
X7.0403Y-1.616
X7.0433Y-0.9764
X7.063Y-3.748
X7.063Y-3.7992
X7.0662Y-5.8863
X7.0709Y-0.9764
X7.0805Y-5.9111
X7.0827Y-2.2339
X7.1024Y-1.1772
X7.1024Y-1.2461
X7.1102Y-2.2341
X7.1102Y-2.4703
X7.1211Y-7.1543
X7.1211Y-7.1258
X7.1299Y-1.1772
X7.1299Y-1.2461
X7.1378Y-2.2341
X7.1378Y-2.4703
X7.1391Y-4.3265
X7.1496Y-1.8386
X7.1517Y-4.3046
X7.1575Y-1.1772
X7.1575Y-1.2461
X7.1609Y-4.3391
X7.1653Y-2.2341
X7.1653Y-2.4703
X7.1653Y-2.4428
X7.1653Y-2.2892
X7.1653Y-2.4152
X7.1653Y-2.2617
X7.1653Y-2.3877
X7.1732Y-4.7126
X7.1732Y-4.7411
X7.1735Y-4.3172
X7.1969Y-4.9764
X7.2008Y-4.7411
X7.2008Y-4.7126
X7.2244Y-4.9882
X7.2298Y-4.1299
X7.2298Y-4.2559
X7.2825Y-2.0255
X7.3307Y-1.752
X7.3307Y-1.7795
X7.3583Y-1.7795
X7.3858Y-1.7795
X7.3957Y-4.5533
X7.3973Y-5.8121
X7.3976Y-4.2913
X7.4097Y-5.8335
X7.4134Y-1.7795
X7.4218Y-5.7979
X7.4342Y-5.8194
X7.5419Y-4.624
X7.5562Y-4.5993
X7.5959Y-7.0027
X7.6024Y-7.0271
X7.6202Y-6.9962
X7.6268Y-7.0205
X7.6433Y-5.3494
X7.6718Y-5.3494
X7.7Y-4.9634
X7.7Y-4.9382
X7.7252Y-4.9382
X7.7252Y-4.9634
X7.7756Y-1.3583
X7.7756Y-1.3898
X7.7756Y-1.3268
X7.8071Y-1.3583
X7.8071Y-1.3898
X7.8071Y-1.3268
X7.9528Y-2.374
X7.9919Y-3.1394
X8.0069Y-6.9478
X8.0143Y-6.9754
X8.0225Y-3.1312
X8.1372Y-2.9733
X8.1432Y-3.7041
X8.1437Y-2.9977
X8.1615Y-2.9668
X8.168Y-2.9912
X8.1736Y-3.6959
X8.2812Y-3.7096
X8.2886Y-3.7371
X8.3802Y-4.5883
X8.4107Y-4.5801
X8.5228Y-6.5733
X8.5254Y-4.4222
X8.5315Y-5.1529
X8.5319Y-4.4466
X8.5406Y-6.5911
X8.5406Y-6.5555
X8.5482Y-2.9184
X8.5497Y-4.4157
X8.5556Y-2.946
X8.5562Y-4.44
X8.5584Y-6.5733
X8.5619Y-5.1448
X8.6688Y-3.6644
X8.6695Y-5.1584
X8.6753Y-3.6887
X8.6769Y-5.186
X8.6931Y-3.6579
X8.6996Y-3.6822
X8.8292Y-2.6585
X8.8358Y-2.6828
X8.8513Y-6.3203
X8.8536Y-2.652
X8.8601Y-2.6763
X8.8715Y-6.3405
X8.9364Y-4.3673
X8.9438Y-4.3949
X8.9733Y-3.3947
X8.9807Y-3.4223
X9.057Y-5.1133
X9.0635Y-5.1376
X9.0813Y-5.1068
X9.0879Y-5.1311
X9.1475Y-6.0326
X9.1601Y-6.0545
X9.1693Y-6.02
X9.1819Y-6.0419
X9.2175Y-4.1074
X9.224Y-4.1317
X9.2403Y-2.6036
X9.2418Y-4.1008
X9.2476Y-2.6312
X9.2483Y-4.1252
X9.3609Y-3.3496
X9.3616Y-4.8436
X9.3674Y-3.3739
X9.3689Y-4.8712
X9.3852Y-3.343
X9.3917Y-3.3674
X9.5133Y-2.3134
X9.5198Y-2.3378
X9.5303Y-5.8732
X9.5376Y-2.3069
X9.5441Y-2.3313
X9.5446Y-5.8979
X9.6285Y-4.0525
X9.6359Y-4.08
X9.6573Y-3.0497
X9.6647Y-3.0772
X9.7491Y-4.7984
X9.7556Y-4.8228
X9.7734Y-4.7919
X9.78Y-4.8163
X9.8957Y-5.6727
X9.9015Y-3.7623
X9.9022Y-5.697
X9.908Y-3.7867
X9.9201Y-5.6661
X9.9243Y-2.2585
X9.9258Y-3.7558
X9.9266Y-5.6905
X9.9317Y-2.2861
X9.9323Y-3.7801
X10.0449Y-3.0045
X10.0456Y-4.4986
X10.0514Y-3.0289
X10.0529Y-4.5261
X10.0692Y-2.998
X10.0757Y-3.0223
X10.1496Y-1.252
X10.1496Y-1.2874
X10.1575Y-1.1417
X10.1614Y-1.4252
X10.185Y-1.1417
X10.2126Y-1.1417
X10.2402Y-1.1417
X10.2781Y-2.2703
X10.2847Y-2.2946
X10.3025Y-2.2637
X10.3066Y-5.6174
X10.309Y-2.2881
X10.311Y-1.3622
X10.311Y-1.3268
X10.3125Y-3.7074
X10.314Y-5.645
X10.3199Y-3.735
X10.4222Y-3.0065
X10.4296Y-3.034
X10.4331Y-4.4534
X10.4396Y-4.4777
X10.4574Y-4.4469
X10.464Y-4.4712
X10.6664Y-3.7191
X10.6729Y-3.7435
X10.6892Y-2.2154
X10.6907Y-3.7126
X10.6965Y-2.2429
X10.6972Y-3.737
X10.7912Y-1.319
X10.8061Y-1.2518
X10.8098Y-2.9613
X10.8104Y-4.4554
X10.8163Y-2.9857
X10.8178Y-4.4829
X10.8181Y-1.325
X10.833Y-1.2577
X10.8341Y-2.9548
X10.8406Y-2.9791
X10.845Y-1.331
X10.8599Y-1.2637
X10.9736Y-1.2419
X11.0005Y-1.2479
X11.0274Y-1.2539
X11.0343Y-1.3683
X11.0403Y-1.3414
X11.0463Y-1.3145
X11.0511Y-2.2573
X11.0522Y-1.2876
X11.0546Y-5.168
X11.0576Y-2.2816
X11.0582Y-1.2607
X11.0611Y-5.1924
X11.0754Y-2.2507
X11.0774Y-3.6642
X11.0789Y-5.1615
X11.082Y-2.2751
X11.0848Y-3.6918
X11.0855Y-5.1858
X11.1172Y-1.431
X11.1952Y-2.9935
X11.198Y-4.4102
X11.2026Y-3.021
X11.2045Y-4.4346
X11.2188Y-1.4092
X11.2223Y-4.4037
X11.2248Y-1.3823
X11.2288Y-4.428
X11.2308Y-1.3554
X11.2367Y-1.3285
X11.2427Y-1.3016
X11.2734Y-1.3084
X11.3003Y-1.3144
X11.3273Y-1.3203
X11.4393Y-3.7061
X11.4459Y-3.7305
X11.4621Y-2.2023
X11.4637Y-3.6996
X11.4656Y-5.1131
X11.4695Y-2.2299
X11.4702Y-3.724
X11.473Y-5.1407
X11.5827Y-2.9483
X11.5834Y-4.4424
X11.5893Y-2.9727
X11.5908Y-4.4699
X11.6071Y-2.9418
X11.6136Y-2.9661
X11.7998Y-2.1537
X11.8063Y-2.178
X11.8242Y-2.1472
X11.8276Y-5.155
X11.8307Y-2.1715
X11.8341Y-5.1794
X11.8504Y-3.6512
X11.8519Y-5.1485
X11.8577Y-3.6788
X11.8584Y-5.1728
X11.9439Y-2.8899
X11.9513Y-2.9175
X11.971Y-4.3972
X11.9775Y-4.4215
X11.9953Y-4.3907
X12.0018Y-4.415
X12.188Y-3.6026
X12.1946Y-3.6269
X12.2108Y-2.0988
X12.2124Y-3.5961
X12.2182Y-2.1264
X12.2189Y-3.6204
X12.2386Y-5.1001
X12.246Y-5.1277
X12.3314Y-2.8448
X12.3321Y-4.3388
X12.338Y-2.8691
X12.3395Y-4.3664
X12.3558Y-2.8382
X12.3623Y-2.8626
X12.5763Y-5.0515
X12.5828Y-5.0758
X12.5991Y-3.5477
X12.6006Y-5.0449
X12.6064Y-3.5752
X12.6071Y-5.0693
X12.7197Y-4.2937
X12.7262Y-4.318
X12.744Y-4.2871
X12.7505Y-4.3115
X12.9873Y-4.9966
X12.9947Y-5.0241
T3
X6.8858Y-1.9349
X6.8858Y-1.9861
X6.8858Y-2.0373
X6.937Y-1.9349
X6.937Y-1.9861
X6.937Y-2.0373
X6.9882Y-1.9349
X6.9882Y-1.9861
X6.9882Y-2.0373
T5
X6.6791Y-4.9303
X6.6791Y-5.0004
X6.6791Y-5.0705
X6.6791Y-5.1406
X6.6791Y-5.2106
X6.6791Y-5.2807
X6.6791Y-5.3508
X6.6791Y-5.4209
X7.1004Y-4.8953
X7.1004Y-4.9654
X7.1004Y-5.0354
X7.1004Y-5.1055
X7.1004Y-5.1756
X7.1004Y-5.2457
X7.1004Y-5.3157
X7.1004Y-5.3858
T6
X5.8543Y-1.3798
X5.8543Y-1.4585
X5.8543Y-1.5373
X5.8543Y-1.616
X5.8543Y-1.6948
X5.8543Y-1.7735
X5.8543Y-1.8522
T7
X6.1024Y-1.3161
X6.1024Y-1.4161
X6.1024Y-1.5161
X6.1024Y-1.6161
X6.1024Y-1.7161
X6.1024Y-1.8161
X6.1024Y-1.9161
X6.7362Y-2.5766
X6.8362Y-2.5766
X6.9362Y-2.5766
X7.0362Y-2.5766
X11.4283Y-1.5236
X11.5283Y-1.5236
X11.6283Y-1.5236
X11.7283Y-1.5236
T8
X6.7913Y-3.9134
X6.8898Y-3.9134
X6.9882Y-3.9134
T10
X6.1122Y-0.9862
X6.1122Y-2.2461
X6.2953Y-4.0884
X6.2953Y-6.1478
X7.4843Y-4.0884
X7.4843Y-6.1478
X7.6673Y-0.9862
X7.6673Y-2.2461
T11
X6.3189Y-5.1181
X7.3031Y-1.0118
X7.4606Y-5.1181
T4
G00X2.356Y-1.0715
M15
G01X2.3662Y-1.1176
M16
G05
G00X2.3918Y-1.2329
M15
G01X2.3986Y-1.2637
M16
G05
G00X2.788Y-0.9757
M15
G01X2.7982Y-1.0218
M16
G05
G00X2.8238Y-1.1371
M15
G01X2.8306Y-1.1679
M16
G05
G00X6.6685Y-0.7126
M15
G01X6.6685Y-0.7598
M16
G05
G00X6.6685Y-0.878
M15
G01X6.6685Y-0.9094
M16
G05
G00X7.111Y-0.7126
M15
G01X7.111Y-0.7598
M16
G05
G00X7.111Y-0.878
M15
G01X7.111Y-0.9094
M16
G05
G00X10.9557Y-1.1371
M15
G01X10.9489Y-1.1679
M16
G05
G00X10.9915Y-0.9757
M15
G01X10.9813Y-1.0218
M16
G05
G00X11.3878Y-1.2329
M15
G01X11.3809Y-1.2637
M16
G05
G00X11.4236Y-1.0715
M15
G01X11.4133Y-1.1176
M16
G05
T9
G00X5.7047Y-5.0492
M15
G01X5.7047Y-5.187
M16
G05
G00X8.0748Y-5.0492
M15
G01X8.0748Y-5.187
M16
G05
T0
M30
