%TF.GenerationSoftware,KiCad,Pcbnew,(7.0.0)*%
%TF.CreationDate,2023-05-20T22:42:22+01:00*%
%TF.ProjectId,Honeydew,486f6e65-7964-4657-972e-6b696361645f,V2.0*%
%TF.SameCoordinates,Original*%
%TF.FileFunction,Soldermask,Bot*%
%TF.FilePolarity,Negative*%
%FSLAX46Y46*%
G04 Gerber Fmt 4.6, Leading zero omitted, Abs format (unit mm)*
G04 Created by KiCad (PCBNEW (7.0.0)) date 2023-05-20 22:42:22*
%MOMM*%
%LPD*%
G01*
G04 APERTURE LIST*
G04 Aperture macros list*
%AMRoundRect*
0 Rectangle with rounded corners*
0 $1 Rounding radius*
0 $2 $3 $4 $5 $6 $7 $8 $9 X,Y pos of 4 corners*
0 Add a 4 corners polygon primitive as box body*
4,1,4,$2,$3,$4,$5,$6,$7,$8,$9,$2,$3,0*
0 Add four circle primitives for the rounded corners*
1,1,$1+$1,$2,$3*
1,1,$1+$1,$4,$5*
1,1,$1+$1,$6,$7*
1,1,$1+$1,$8,$9*
0 Add four rect primitives between the rounded corners*
20,1,$1+$1,$2,$3,$4,$5,0*
20,1,$1+$1,$4,$5,$6,$7,0*
20,1,$1+$1,$6,$7,$8,$9,0*
20,1,$1+$1,$8,$9,$2,$3,0*%
%AMRotRect*
0 Rectangle, with rotation*
0 The origin of the aperture is its center*
0 $1 length*
0 $2 width*
0 $3 Rotation angle, in degrees counterclockwise*
0 Add horizontal line*
21,1,$1,$2,0,0,$3*%
G04 Aperture macros list end*
%ADD10C,4.400000*%
%ADD11C,2.200000*%
%ADD12C,4.000000*%
%ADD13C,4.200000*%
%ADD14C,2.000000*%
%ADD15RotRect,4.400000X4.400000X150.000000*%
%ADD16C,3.200000*%
%ADD17C,1.152000*%
%ADD18RoundRect,0.135000X0.185000X-0.135000X0.185000X0.135000X-0.185000X0.135000X-0.185000X-0.135000X0*%
%ADD19RoundRect,0.575000X-0.675000X-0.575000X0.675000X-0.575000X0.675000X0.575000X-0.675000X0.575000X0*%
%ADD20C,5.600000*%
%ADD21R,1.700000X1.700000*%
%ADD22O,1.700000X1.700000*%
%ADD23R,2.200000X2.200000*%
%ADD24RoundRect,0.140000X-0.170000X0.140000X-0.170000X-0.140000X0.170000X-0.140000X0.170000X0.140000X0*%
%ADD25RoundRect,0.135000X-0.185000X0.135000X-0.185000X-0.135000X0.185000X-0.135000X0.185000X0.135000X0*%
%ADD26RoundRect,0.140000X0.170000X-0.140000X0.170000X0.140000X-0.170000X0.140000X-0.170000X-0.140000X0*%
%ADD27C,3.300000*%
%ADD28RotRect,2.500000X2.500000X150.000000*%
%ADD29C,1.750000*%
%ADD30C,3.987800*%
%ADD31RotRect,2.500000X2.500000X135.000000*%
%ADD32RotRect,2.500000X2.500000X165.000000*%
%ADD33RotRect,2.500000X2.500000X195.000000*%
%ADD34RoundRect,0.112500X-0.157195X0.151994X-0.060138X-0.210228X0.157195X-0.151994X0.060138X0.210228X0*%
%ADD35R,0.400000X0.800000*%
%ADD36R,0.300000X0.800000*%
%ADD37RotRect,1.700000X1.000000X330.000000*%
%ADD38R,2.500000X2.500000*%
%ADD39RoundRect,0.150000X-0.150000X0.512500X-0.150000X-0.512500X0.150000X-0.512500X0.150000X0.512500X0*%
%ADD40RoundRect,0.112500X-0.060138X0.210228X-0.157195X-0.151994X0.060138X-0.210228X0.157195X0.151994X0*%
%ADD41RoundRect,0.140000X-0.140000X-0.170000X0.140000X-0.170000X0.140000X0.170000X-0.140000X0.170000X0*%
%ADD42R,1.600000X0.900000*%
%ADD43R,0.300000X0.500000*%
%ADD44RotRect,1.700000X1.000000X195.000000*%
%ADD45RoundRect,0.135000X0.135000X0.185000X-0.135000X0.185000X-0.135000X-0.185000X0.135000X-0.185000X0*%
%ADD46RoundRect,0.140000X-0.091230X-0.200442X0.179229X-0.127973X0.091230X0.200442X-0.179229X0.127973X0*%
%ADD47RotRect,1.700000X1.000000X22.500000*%
%ADD48C,1.700000*%
%ADD49RoundRect,0.140000X-0.179229X-0.127973X0.091230X-0.200442X0.179229X0.127973X-0.091230X0.200442X0*%
%ADD50RoundRect,0.225000X0.250000X-0.225000X0.250000X0.225000X-0.250000X0.225000X-0.250000X-0.225000X0*%
%ADD51RoundRect,0.140000X0.091230X0.200442X-0.179229X0.127973X-0.091230X-0.200442X0.179229X-0.127973X0*%
%ADD52RoundRect,0.225000X-0.335876X-0.017678X-0.017678X-0.335876X0.335876X0.017678X0.017678X0.335876X0*%
%ADD53RotRect,1.700000X1.000000X345.000000*%
%ADD54RoundRect,0.112500X-0.191178X0.106130X-0.003678X-0.218630X0.191178X-0.106130X0.003678X0.218630X0*%
%ADD55R,1.000000X1.000000*%
%ADD56RoundRect,0.140000X0.179229X0.127973X-0.091230X0.200442X-0.179229X-0.127973X0.091230X-0.200442X0*%
%ADD57RotRect,2.500000X2.500000X210.000000*%
%ADD58RotRect,1.700000X1.000000X15.000000*%
%ADD59RoundRect,0.140000X0.206244X0.077224X-0.036244X0.217224X-0.206244X-0.077224X0.036244X-0.217224X0*%
%ADD60RotRect,1.700000X1.000000X337.500000*%
%ADD61RoundRect,0.140000X-0.219203X-0.021213X-0.021213X-0.219203X0.219203X0.021213X0.021213X0.219203X0*%
%ADD62RoundRect,0.225000X-0.225000X-0.250000X0.225000X-0.250000X0.225000X0.250000X-0.225000X0.250000X0*%
%ADD63RoundRect,0.140000X0.219203X0.021213X0.021213X0.219203X-0.219203X-0.021213X-0.021213X-0.219203X0*%
%ADD64RoundRect,0.140000X0.021213X-0.219203X0.219203X-0.021213X-0.021213X0.219203X-0.219203X0.021213X0*%
%ADD65RoundRect,0.135000X-0.135000X-0.185000X0.135000X-0.185000X0.135000X0.185000X-0.135000X0.185000X0*%
%ADD66RoundRect,0.225000X0.225000X0.250000X-0.225000X0.250000X-0.225000X-0.250000X0.225000X-0.250000X0*%
%ADD67RoundRect,0.112500X-0.187500X-0.112500X0.187500X-0.112500X0.187500X0.112500X-0.187500X0.112500X0*%
%ADD68R,0.300000X0.550000*%
%ADD69RoundRect,0.225000X-0.250000X0.225000X-0.250000X-0.225000X0.250000X-0.225000X0.250000X0.225000X0*%
%ADD70RoundRect,0.140000X0.036244X0.217224X-0.206244X0.077224X-0.036244X-0.217224X0.206244X-0.077224X0*%
%ADD71RoundRect,0.112500X-0.003678X0.218630X-0.191178X-0.106130X0.003678X-0.218630X0.191178X0.106130X0*%
%ADD72R,0.700000X1.500000*%
%ADD73R,1.000000X0.800000*%
%ADD74C,0.900000*%
%ADD75RotRect,1.700000X1.000000X30.000000*%
%ADD76RoundRect,0.112500X-0.112500X0.187500X-0.112500X-0.187500X0.112500X-0.187500X0.112500X0.187500X0*%
%ADD77RoundRect,0.140000X0.140000X0.170000X-0.140000X0.170000X-0.140000X-0.170000X0.140000X-0.170000X0*%
%ADD78RoundRect,0.140000X-0.021213X0.219203X-0.219203X0.021213X0.021213X-0.219203X0.219203X-0.021213X0*%
%ADD79RoundRect,0.250000X0.250000X0.475000X-0.250000X0.475000X-0.250000X-0.475000X0.250000X-0.475000X0*%
%ADD80C,1.200000*%
%ADD81R,1.200000X1.200000*%
%ADD82RotRect,1.700000X1.000000X165.000000*%
%ADD83RoundRect,0.150000X-0.512500X-0.150000X0.512500X-0.150000X0.512500X0.150000X-0.512500X0.150000X0*%
%ADD84RotRect,3.200000X3.200000X225.000000*%
%ADD85RoundRect,0.050000X-0.238649X0.309359X-0.309359X0.238649X0.238649X-0.309359X0.309359X-0.238649X0*%
%ADD86RoundRect,0.050000X0.238649X0.309359X-0.309359X-0.238649X-0.238649X-0.309359X0.309359X0.238649X0*%
%ADD87RoundRect,0.150000X0.150000X-0.512500X0.150000X0.512500X-0.150000X0.512500X-0.150000X-0.512500X0*%
%ADD88RotRect,1.700000X1.000000X247.500000*%
%ADD89R,0.400000X0.650000*%
%ADD90R,1.700000X1.000000*%
%ADD91RoundRect,0.150000X0.200000X-0.150000X0.200000X0.150000X-0.200000X0.150000X-0.200000X-0.150000X0*%
%ADD92R,1.550000X1.000000*%
%ADD93C,0.750000*%
%ADD94RoundRect,0.050000X0.050000X0.275000X-0.050000X0.275000X-0.050000X-0.275000X0.050000X-0.275000X0*%
%ADD95RoundRect,0.050000X0.375000X0.050000X-0.375000X0.050000X-0.375000X-0.050000X0.375000X-0.050000X0*%
%ADD96RotRect,1.700000X1.000000X202.500000*%
%ADD97RoundRect,0.218750X-0.218750X-0.381250X0.218750X-0.381250X0.218750X0.381250X-0.218750X0.381250X0*%
%ADD98RotRect,1.700000X1.000000X315.000000*%
%ADD99RoundRect,0.140000X0.064287X0.210635X-0.194399X0.103484X-0.064287X-0.210635X0.194399X-0.103484X0*%
%ADD100RoundRect,0.150000X-0.825000X-0.150000X0.825000X-0.150000X0.825000X0.150000X-0.825000X0.150000X0*%
%ADD101RoundRect,0.140000X-0.210635X0.064287X-0.103484X-0.194399X0.210635X-0.064287X0.103484X0.194399X0*%
%ADD102O,1.000000X1.800000*%
%ADD103O,1.000000X2.200000*%
%ADD104R,0.600000X1.050000*%
%ADD105R,0.300000X1.050000*%
%ADD106RoundRect,0.112500X0.187500X0.112500X-0.187500X0.112500X-0.187500X-0.112500X0.187500X-0.112500X0*%
%ADD107RoundRect,0.140000X0.103484X-0.194399X0.210635X0.064287X-0.103484X0.194399X-0.210635X-0.064287X0*%
%ADD108RoundRect,0.140000X-0.194399X-0.103484X0.064287X-0.210635X0.194399X0.103484X-0.064287X0.210635X0*%
%ADD109R,2.700000X0.800000*%
%ADD110RoundRect,0.135000X0.226274X0.035355X0.035355X0.226274X-0.226274X-0.035355X-0.035355X-0.226274X0*%
%ADD111RoundRect,0.140000X0.194399X0.103484X-0.064287X0.210635X-0.194399X-0.103484X0.064287X-0.210635X0*%
%ADD112RoundRect,0.135000X-0.226274X-0.035355X-0.035355X-0.226274X0.226274X0.035355X0.035355X0.226274X0*%
%ADD113RotRect,1.700000X1.000000X45.000000*%
%ADD114RoundRect,0.200000X0.275000X-0.200000X0.275000X0.200000X-0.275000X0.200000X-0.275000X-0.200000X0*%
%ADD115RotRect,1.700000X1.000000X67.500000*%
%ADD116RoundRect,0.140000X0.210635X-0.064287X0.103484X0.194399X-0.210635X0.064287X-0.103484X-0.194399X0*%
%ADD117RoundRect,0.150000X0.353553X0.565685X-0.565685X-0.353553X-0.353553X-0.565685X0.565685X0.353553X0*%
%ADD118RoundRect,0.112500X-0.212132X0.053033X0.053033X-0.212132X0.212132X-0.053033X-0.053033X0.212132X0*%
%ADD119RoundRect,0.150000X0.825000X0.150000X-0.825000X0.150000X-0.825000X-0.150000X0.825000X-0.150000X0*%
%ADD120RoundRect,0.140000X-0.064287X-0.210635X0.194399X-0.103484X0.064287X0.210635X-0.194399X0.103484X0*%
%ADD121RoundRect,0.135000X0.035355X-0.226274X0.226274X-0.035355X-0.035355X0.226274X-0.226274X0.035355X0*%
%ADD122RoundRect,0.140000X-0.103484X0.194399X-0.210635X-0.064287X0.103484X-0.194399X0.210635X0.064287X0*%
%ADD123RotRect,1.700000X1.000000X292.500000*%
%ADD124RotRect,1.700000X1.000000X112.500000*%
%ADD125RotRect,1.400000X1.200000X315.000000*%
%ADD126RotRect,2.500000X2.500000X225.000000*%
%ADD127RoundRect,0.250000X-0.262500X-0.450000X0.262500X-0.450000X0.262500X0.450000X-0.262500X0.450000X0*%
%ADD128RoundRect,0.150000X0.512500X0.150000X-0.512500X0.150000X-0.512500X-0.150000X0.512500X-0.150000X0*%
%ADD129RoundRect,0.112500X0.053033X0.212132X-0.212132X-0.053033X-0.053033X-0.212132X0.212132X0.053033X0*%
%ADD130R,0.650000X0.400000*%
%ADD131RoundRect,0.112500X0.112500X-0.187500X0.112500X0.187500X-0.112500X0.187500X-0.112500X-0.187500X0*%
%ADD132RotRect,1.700000X1.000000X157.500000*%
G04 APERTURE END LIST*
%TO.C,D97*%
G36*
X171918129Y-182302306D02*
G01*
X171418129Y-183168331D01*
X169945886Y-182318331D01*
X170270886Y-181755414D01*
X170748994Y-181627306D01*
X171918129Y-182302306D01*
G37*
%TO.C,D112*%
G36*
X256415522Y-156215851D02*
G01*
X256168035Y-156644512D01*
X254864035Y-156993918D01*
X254605216Y-156027992D01*
X256247290Y-155588000D01*
X256415522Y-156215851D01*
G37*
%TO.C,D138*%
G36*
X188935348Y-126081006D02*
G01*
X187364753Y-126731567D01*
X187116009Y-126131046D01*
X187305427Y-125673749D01*
X188552665Y-125157126D01*
X188935348Y-126081006D01*
G37*
%TO.C,D93*%
G36*
X82445673Y-155218239D02*
G01*
X82186854Y-156184165D01*
X80544780Y-155744172D01*
X80713012Y-155116320D01*
X81141673Y-154868833D01*
X82445673Y-155218239D01*
G37*
%TO.C,D129*%
G36*
X310054088Y-83233876D02*
G01*
X308412014Y-83673868D01*
X308243782Y-83046017D01*
X308491269Y-82617356D01*
X309795269Y-82267950D01*
X310054088Y-83233876D01*
G37*
%TO.C,D131*%
G36*
X203936536Y-123702929D02*
G01*
X203553853Y-124626809D01*
X201983257Y-123976247D01*
X202232002Y-123375725D01*
X202689299Y-123186306D01*
X203936536Y-123702929D01*
G37*
%TO.C,D69*%
G36*
X102167688Y-81614721D02*
G01*
X101908869Y-82580647D01*
X100266795Y-82140654D01*
X100435027Y-81512802D01*
X100863688Y-81265315D01*
X102167688Y-81614721D01*
G37*
%TO.C,D111*%
G36*
X273994657Y-148218544D02*
G01*
X273747170Y-148647205D01*
X272443170Y-148996611D01*
X272184351Y-148030685D01*
X273826425Y-147590693D01*
X273994657Y-148218544D01*
G37*
%TO.C,D68*%
G36*
X82534180Y-81284424D02*
G01*
X82275361Y-82250350D01*
X80633287Y-81810357D01*
X80801519Y-81182505D01*
X81230180Y-80935018D01*
X82534180Y-81284424D01*
G37*
%TO.C,D84*%
G36*
X146687588Y-136274807D02*
G01*
X146428769Y-137240733D01*
X144786695Y-136800740D01*
X144954927Y-136172888D01*
X145383588Y-135925401D01*
X146687588Y-136274807D01*
G37*
%TO.C,D108*%
G36*
X330429954Y-138027246D02*
G01*
X330182467Y-138455907D01*
X328878467Y-138805313D01*
X328619648Y-137839387D01*
X330261722Y-137399395D01*
X330429954Y-138027246D01*
G37*
%TO.C,D94*%
G36*
X111881180Y-168035978D02*
G01*
X111622361Y-169001904D01*
X109980287Y-168561911D01*
X110148519Y-167934059D01*
X110577180Y-167686572D01*
X111881180Y-168035978D01*
G37*
%TO.C,D106*%
G36*
X348793283Y-154207023D02*
G01*
X347151209Y-154647015D01*
X346982977Y-154019164D01*
X347230464Y-153590503D01*
X348534464Y-153241097D01*
X348793283Y-154207023D01*
G37*
%TO.C,D130*%
G36*
X329071285Y-80603473D02*
G01*
X327429211Y-81043465D01*
X327260979Y-80415614D01*
X327508466Y-79986953D01*
X328812466Y-79637547D01*
X329071285Y-80603473D01*
G37*
%TO.C,D116*%
G36*
X300281572Y-120365925D02*
G01*
X298639498Y-120805917D01*
X298471266Y-120178066D01*
X298718753Y-119749405D01*
X300022753Y-119399999D01*
X300281572Y-120365925D01*
G37*
%TO.C,D118*%
G36*
X338932281Y-117405239D02*
G01*
X337290207Y-117845231D01*
X337121975Y-117217380D01*
X337369462Y-116788719D01*
X338673462Y-116439313D01*
X338932281Y-117405239D01*
G37*
%TO.C,D109*%
G36*
X310796433Y-138357542D02*
G01*
X310548946Y-138786203D01*
X309244946Y-139135609D01*
X308986127Y-138169683D01*
X310628201Y-137729691D01*
X310796433Y-138357542D01*
G37*
%TO.C,D99*%
G36*
X221290909Y-185068326D02*
G01*
X219818666Y-185918326D01*
X219493666Y-185355409D01*
X219621774Y-184877301D01*
X220790909Y-184202301D01*
X221290909Y-185068326D01*
G37*
%TO.C,D79*%
G36*
X53655962Y-115455811D02*
G01*
X53397143Y-116421737D01*
X51755069Y-115981744D01*
X51923301Y-115353892D01*
X52351962Y-115106405D01*
X53655962Y-115455811D01*
G37*
%TO.C,D110*%
G36*
X291368359Y-139454490D02*
G01*
X291120872Y-139883151D01*
X289816872Y-140232557D01*
X289558053Y-139266631D01*
X291200127Y-138826639D01*
X291368359Y-139454490D01*
G37*
%TO.C,D120*%
G36*
X320568947Y-101225466D02*
G01*
X320321460Y-101654127D01*
X319017460Y-102003533D01*
X318758641Y-101037607D01*
X320400715Y-100597615D01*
X320568947Y-101225466D01*
G37*
%TO.C,D86*%
G36*
X129128213Y-149454165D02*
G01*
X128959981Y-150082017D01*
X128531320Y-150329504D01*
X127227320Y-149980098D01*
X127486139Y-149014172D01*
X129128213Y-149454165D01*
G37*
%TO.C,D105*%
G36*
X329776103Y-156837424D02*
G01*
X328134029Y-157277416D01*
X327965797Y-156649565D01*
X328213284Y-156220904D01*
X329517284Y-155871498D01*
X329776103Y-156837424D01*
G37*
%TO.C,D133*%
G36*
X217624254Y-147232038D02*
G01*
X217813673Y-147689335D01*
X217297050Y-148936572D01*
X216373170Y-148553889D01*
X217023732Y-146983293D01*
X217624254Y-147232038D01*
G37*
%TO.C,D100*%
G36*
X196099964Y-209850001D02*
G01*
X194399964Y-209850001D01*
X194399964Y-209200001D01*
X194749964Y-208850001D01*
X196099964Y-208850001D01*
X196099964Y-209850001D01*
G37*
%TO.C,D127*%
G36*
X270992495Y-84661131D02*
G01*
X269350421Y-85101123D01*
X269182189Y-84473272D01*
X269429676Y-84044611D01*
X270733676Y-83695205D01*
X270992495Y-84661131D01*
G37*
%TO.C,D98*%
G36*
X196099972Y-190800013D02*
G01*
X194399972Y-190800013D01*
X194399972Y-190150013D01*
X194749972Y-189800013D01*
X196099972Y-189800013D01*
X196099972Y-190800013D01*
G37*
%TO.C,D75*%
G36*
X121615507Y-103888388D02*
G01*
X121447275Y-104516240D01*
X121018614Y-104763727D01*
X119714614Y-104414321D01*
X119973433Y-103448395D01*
X121615507Y-103888388D01*
G37*
%TO.C,D134*%
G36*
X208883935Y-159868966D02*
G01*
X208694517Y-160326263D01*
X207447279Y-160842886D01*
X207064596Y-159919006D01*
X208635191Y-159268445D01*
X208883935Y-159868966D01*
G37*
%TO.C,D104*%
G36*
X310142581Y-157167703D02*
G01*
X308500507Y-157607695D01*
X308332275Y-156979844D01*
X308579762Y-156551183D01*
X309883762Y-156201777D01*
X310142581Y-157167703D01*
G37*
%TO.C,D96*%
G36*
X147372815Y-187391410D02*
G01*
X146665708Y-188098517D01*
X145463627Y-186896435D01*
X145923246Y-186436816D01*
X146418221Y-186436816D01*
X147372815Y-187391410D01*
G37*
%TO.C,D124*%
G36*
X246554515Y-119414086D02*
G01*
X246307028Y-119842747D01*
X245003028Y-120192153D01*
X244744209Y-119226227D01*
X246386283Y-118786235D01*
X246554515Y-119414086D01*
G37*
%TO.C,D73*%
G36*
X156568338Y-120649726D02*
G01*
X156400106Y-121277578D01*
X155971445Y-121525065D01*
X154667445Y-121175659D01*
X154926264Y-120209733D01*
X156568338Y-120649726D01*
G37*
%TO.C,D117*%
G36*
X319915092Y-120035632D02*
G01*
X318273018Y-120475624D01*
X318104786Y-119847773D01*
X318352273Y-119419112D01*
X319656273Y-119069706D01*
X319915092Y-120035632D01*
G37*
%TO.C,D71*%
G36*
X138969468Y-91475703D02*
G01*
X138710649Y-92441629D01*
X137068575Y-92001636D01*
X137236807Y-91373784D01*
X137665468Y-91126297D01*
X138969468Y-91475703D01*
G37*
%TO.C,D101*%
G36*
X246647242Y-190785527D02*
G01*
X245445160Y-191987608D01*
X244985541Y-191527989D01*
X244985541Y-191033014D01*
X245940135Y-190078420D01*
X246647242Y-190785527D01*
G37*
%TO.C,D89*%
G36*
X72692898Y-139262892D02*
G01*
X72524666Y-139890744D01*
X72096005Y-140138231D01*
X70792005Y-139788825D01*
X71050824Y-138822899D01*
X72692898Y-139262892D01*
G37*
%TO.C,D74*%
G36*
X138989202Y-112652383D02*
G01*
X138820970Y-113280235D01*
X138392309Y-113527722D01*
X137088309Y-113178316D01*
X137347128Y-112212390D01*
X138989202Y-112652383D01*
G37*
%TO.C,D95*%
G36*
X130901095Y-175377425D02*
G01*
X130401095Y-176243450D01*
X128928852Y-175393450D01*
X129253852Y-174830533D01*
X129731960Y-174702425D01*
X130901095Y-175377425D01*
G37*
%TO.C,D137*%
G36*
X179626775Y-137446124D02*
G01*
X178976213Y-139016720D01*
X178375691Y-138767975D01*
X178186272Y-138310678D01*
X178702895Y-137063441D01*
X179626775Y-137446124D01*
G37*
%TO.C,D128*%
G36*
X290420566Y-83564170D02*
G01*
X288778492Y-84004162D01*
X288610260Y-83376311D01*
X288857747Y-82947650D01*
X290161747Y-82598244D01*
X290420566Y-83564170D01*
G37*
%TO.C,D80*%
G36*
X72673172Y-118086185D02*
G01*
X72414353Y-119052111D01*
X70772279Y-118612118D01*
X70940511Y-117984266D01*
X71369172Y-117736779D01*
X72673172Y-118086185D01*
G37*
%TO.C,D122*%
G36*
X281507342Y-102652729D02*
G01*
X281259855Y-103081390D01*
X279955855Y-103430796D01*
X279697036Y-102464870D01*
X281339110Y-102024878D01*
X281507342Y-102652729D01*
G37*
%TO.C,D91*%
G36*
X43794965Y-152257585D02*
G01*
X43536146Y-153223511D01*
X41894072Y-152783518D01*
X42062304Y-152155666D01*
X42490965Y-151908179D01*
X43794965Y-152257585D01*
G37*
%TO.C,D67*%
G36*
X63516986Y-78654027D02*
G01*
X63258167Y-79619953D01*
X61616093Y-79179960D01*
X61784325Y-78552108D01*
X62212986Y-78304621D01*
X63516986Y-78654027D01*
G37*
%TO.C,D87*%
G36*
X111754499Y-140690136D02*
G01*
X111586267Y-141317988D01*
X111157606Y-141565475D01*
X109853606Y-141216069D01*
X110112425Y-140250143D01*
X111754499Y-140690136D01*
G37*
%TO.C,D103*%
G36*
X280707070Y-169985417D02*
G01*
X279064996Y-170425409D01*
X278896764Y-169797558D01*
X279144251Y-169368897D01*
X280448251Y-169019491D01*
X280707070Y-169985417D01*
G37*
%TO.C,D132*%
G36*
X215326229Y-132305461D02*
G01*
X215842852Y-133552699D01*
X214918972Y-133935382D01*
X214268411Y-132364787D01*
X214868932Y-132116043D01*
X215326229Y-132305461D01*
G37*
%TO.C,D113*%
G36*
X245900664Y-138224238D02*
G01*
X244258590Y-138664230D01*
X244090358Y-138036379D01*
X244337845Y-137607718D01*
X245641845Y-137258312D01*
X245900664Y-138224238D01*
G37*
%TO.C,D125*%
G36*
X236039664Y-101422480D02*
G01*
X234397590Y-101862472D01*
X234229358Y-101234621D01*
X234476845Y-100805960D01*
X235780845Y-100456554D01*
X236039664Y-101422480D01*
G37*
%TO.C,D114*%
G36*
X263479814Y-130226940D02*
G01*
X261837740Y-130666932D01*
X261669508Y-130039081D01*
X261916995Y-129610420D01*
X263220995Y-129261014D01*
X263479814Y-130226940D01*
G37*
%TO.C,D92*%
G36*
X62812166Y-154887980D02*
G01*
X62553347Y-155853906D01*
X60911273Y-155413913D01*
X61079505Y-154786061D01*
X61508166Y-154538574D01*
X62812166Y-154887980D01*
G37*
%TO.C,D76*%
G36*
X102187421Y-102791391D02*
G01*
X102019189Y-103419243D01*
X101590528Y-103666730D01*
X100286528Y-103317324D01*
X100545347Y-102351398D01*
X102187421Y-102791391D01*
G37*
%TO.C,D102*%
G36*
X262307960Y-178143434D02*
G01*
X260835717Y-178993434D01*
X260510717Y-178430517D01*
X260638825Y-177952409D01*
X261807960Y-177277409D01*
X262307960Y-178143434D01*
G37*
%TO.C,D121*%
G36*
X300935429Y-101555766D02*
G01*
X300687942Y-101984427D01*
X299383942Y-102333833D01*
X299125123Y-101367907D01*
X300767197Y-100927915D01*
X300935429Y-101555766D01*
G37*
%TO.C,D83*%
G36*
X129108468Y-128277514D02*
G01*
X128849649Y-129243440D01*
X127207575Y-128803447D01*
X127375807Y-128175595D01*
X127804468Y-127928108D01*
X129108468Y-128277514D01*
G37*
%TO.C,D136*%
G36*
X181731532Y-153635227D02*
G01*
X181131011Y-153883971D01*
X180673714Y-153694553D01*
X180157091Y-152447315D01*
X181080971Y-152064632D01*
X181731532Y-153635227D01*
G37*
%TO.C,D70*%
G36*
X121595763Y-82711682D02*
G01*
X121336944Y-83677608D01*
X119694870Y-83237615D01*
X119863102Y-82609763D01*
X120291763Y-82362276D01*
X121595763Y-82711682D01*
G37*
%TO.C,D115*%
G36*
X280853492Y-121462896D02*
G01*
X279211418Y-121902888D01*
X279043186Y-121275037D01*
X279290673Y-120846376D01*
X280594673Y-120496970D01*
X280853492Y-121462896D01*
G37*
%TO.C,D90*%
G36*
X53675726Y-136632506D02*
G01*
X53507494Y-137260358D01*
X53078833Y-137507845D01*
X51774833Y-137158439D01*
X52033652Y-136192513D01*
X53675726Y-136632506D01*
G37*
%TO.C,D72*%
G36*
X156548591Y-99473030D02*
G01*
X156289772Y-100438956D01*
X154647698Y-99998963D01*
X154815930Y-99371111D01*
X155244591Y-99123624D01*
X156548591Y-99473030D01*
G37*
%TO.C,D85*%
G36*
X146707329Y-157451511D02*
G01*
X146539097Y-158079363D01*
X146110436Y-158326850D01*
X144806436Y-157977444D01*
X145065255Y-157011518D01*
X146707329Y-157451511D01*
G37*
%TO.C,D119*%
G36*
X339586119Y-98595075D02*
G01*
X339338632Y-99023736D01*
X338034632Y-99373142D01*
X337775813Y-98407216D01*
X339417887Y-97967224D01*
X339586119Y-98595075D01*
G37*
%TO.C,D81*%
G36*
X92306681Y-118416477D02*
G01*
X92047862Y-119382403D01*
X90405788Y-118942410D01*
X90574020Y-118314558D01*
X91002681Y-118067071D01*
X92306681Y-118416477D01*
G37*
%TO.C,D107*%
G36*
X349447138Y-135396865D02*
G01*
X349199651Y-135825526D01*
X347895651Y-136174932D01*
X347636832Y-135209006D01*
X349278906Y-134769014D01*
X349447138Y-135396865D01*
G37*
%TO.C,D77*%
G36*
X82553916Y-102461106D02*
G01*
X82385684Y-103088958D01*
X81957023Y-103336445D01*
X80653023Y-102987039D01*
X80911842Y-102021113D01*
X82553916Y-102461106D01*
G37*
%TO.C,D82*%
G36*
X111734741Y-119513459D02*
G01*
X111475922Y-120479385D01*
X109833848Y-120039392D01*
X110002080Y-119411540D01*
X110430741Y-119164053D01*
X111734741Y-119513459D01*
G37*
%TO.C,D88*%
G36*
X92326421Y-139593176D02*
G01*
X92158189Y-140221028D01*
X91729528Y-140468515D01*
X90425528Y-140119109D01*
X90684347Y-139153183D01*
X92326421Y-139593176D01*
G37*
%TO.C,D78*%
G36*
X63536725Y-99830726D02*
G01*
X63368493Y-100458578D01*
X62939832Y-100706065D01*
X61635832Y-100356659D01*
X61894651Y-99390733D01*
X63536725Y-99830726D01*
G37*
%TO.C,D123*%
G36*
X264133662Y-111416775D02*
G01*
X263886175Y-111845436D01*
X262582175Y-112194842D01*
X262323356Y-111228916D01*
X263965430Y-110788924D01*
X264133662Y-111416775D01*
G37*
%TO.C,D135*%
G36*
X194016686Y-162023766D02*
G01*
X193767941Y-162624288D01*
X193310644Y-162813707D01*
X192063407Y-162297084D01*
X192446090Y-161373204D01*
X194016686Y-162023766D01*
G37*
%TO.C,D126*%
G36*
X253618790Y-93425174D02*
G01*
X251976716Y-93865166D01*
X251808484Y-93237315D01*
X252055971Y-92808654D01*
X253359971Y-92459248D01*
X253618790Y-93425174D01*
G37*
%TD*%
D10*
%TO.C,H12*%
X174999991Y-205000009D03*
%TD*%
D11*
%TO.C,SW65*%
X215266272Y-159673370D03*
D12*
X221486472Y-142590050D03*
D13*
X186603919Y-163538232D03*
D12*
X185899408Y-122861302D03*
D11*
X175323370Y-135188347D03*
D14*
X215165028Y-118269247D03*
X210834900Y-115769247D03*
X212999964Y-117019247D03*
D15*
X223807623Y-154490318D03*
D16*
X192875215Y-172064890D03*
X175393597Y-161971523D03*
D15*
X175165317Y-126409313D03*
%TD*%
D17*
%TO.C,H3*%
X65499963Y-65257213D03*
%TD*%
D18*
%TO.C,R40*%
X229299991Y-204989997D03*
X229299991Y-206009997D03*
%TD*%
D17*
%TO.C,H2*%
X330599970Y-65257212D03*
%TD*%
D19*
%TO.C,SW66*%
X222999991Y-209499997D03*
X222999991Y-200499997D03*
D14*
X220999991Y-207499997D03*
X220999991Y-204999997D03*
X220999991Y-202499997D03*
%TD*%
D20*
%TO.C,H9*%
X158999991Y-197999993D03*
%TD*%
D21*
%TO.C,J4*%
X177999963Y-74580007D03*
D22*
X177999963Y-77120007D03*
X177999963Y-79660007D03*
X177999963Y-82200007D03*
X177999963Y-84740007D03*
X177999963Y-87280007D03*
X177999963Y-89820007D03*
D12*
X178249964Y-66200008D03*
X178249964Y-98200008D03*
X217749964Y-66200008D03*
X217749964Y-98200008D03*
%TD*%
D20*
%TO.C,H8*%
X236999991Y-197999997D03*
%TD*%
D11*
%TO.C,SW67*%
X167999992Y-197999997D03*
X167999992Y-203079997D03*
D23*
X167999991Y-208159996D03*
%TD*%
D24*
%TO.C,C123*%
X228199991Y-201519997D03*
X228199991Y-202479997D03*
%TD*%
D25*
%TO.C,R41*%
X230399991Y-201489997D03*
X230399991Y-202509997D03*
%TD*%
%TO.C,R42*%
X230399992Y-204989997D03*
X230399992Y-206009997D03*
%TD*%
D18*
%TO.C,R39*%
X229299992Y-202509997D03*
X229299992Y-201489997D03*
%TD*%
D17*
%TO.C,H1*%
X197999957Y-195500010D03*
%TD*%
D26*
%TO.C,C124*%
X228199992Y-205979997D03*
X228199992Y-205019997D03*
%TD*%
D27*
%TO.C,SW25*%
X139186241Y-169907117D03*
D28*
X142045855Y-171558116D03*
X129580745Y-167294320D03*
D27*
X132416979Y-168931821D03*
D29*
X130047127Y-170496526D03*
D30*
X134446536Y-173036526D03*
D29*
X138845945Y-175576526D03*
%TD*%
D27*
%TO.C,SW30*%
X156791477Y-184251859D03*
D31*
X159126342Y-186586724D03*
X148189522Y-179242006D03*
D27*
X150505297Y-181557782D03*
D29*
X147811221Y-182455808D03*
D30*
X151403323Y-186047910D03*
D29*
X154995425Y-189640012D03*
%TD*%
D27*
%TO.C,SW1*%
X70104012Y-71225758D03*
D32*
X73293498Y-72080378D03*
X60149575Y-71188075D03*
D27*
X63312983Y-72035709D03*
D29*
X61428857Y-74160460D03*
D30*
X66335760Y-75475261D03*
D29*
X71242663Y-76790062D03*
%TD*%
D27*
%TO.C,SW24*%
X130764988Y-139250104D03*
D32*
X133954474Y-140104724D03*
X120810551Y-139212421D03*
D27*
X123973959Y-140060055D03*
D29*
X122089833Y-142184806D03*
D30*
X126996736Y-143499607D03*
D29*
X131903639Y-144814408D03*
%TD*%
D27*
%TO.C,SW29*%
X148344111Y-147247445D03*
D32*
X151533597Y-148102065D03*
X138389674Y-147209762D03*
D27*
X141553082Y-148057396D03*
D29*
X139668956Y-150182147D03*
D30*
X144575859Y-151496948D03*
D29*
X149482762Y-152811749D03*
%TD*%
D27*
%TO.C,SW14*%
X93963207Y-129389110D03*
D32*
X97152693Y-130243730D03*
X84008770Y-129351427D03*
D27*
X87172178Y-130199061D03*
D29*
X85288052Y-132323812D03*
D30*
X90194955Y-133638613D03*
D29*
X95101858Y-134953414D03*
%TD*%
D27*
%TO.C,SW19*%
X113391280Y-130486072D03*
D32*
X116580766Y-131340692D03*
X103436843Y-130448389D03*
D27*
X106600251Y-131296023D03*
D29*
X104716125Y-133420774D03*
D30*
X109623028Y-134735575D03*
D29*
X114529931Y-136050376D03*
%TD*%
D27*
%TO.C,SW5*%
X50381993Y-144829316D03*
D32*
X53571479Y-145683936D03*
X40427556Y-144791633D03*
D27*
X43590964Y-145639267D03*
D29*
X41706838Y-147764018D03*
D30*
X46613741Y-149078819D03*
D29*
X51520644Y-150393620D03*
%TD*%
D27*
%TO.C,SW22*%
X140625976Y-102448324D03*
D32*
X143815462Y-103302944D03*
X130671539Y-102410641D03*
D27*
X133834947Y-103258275D03*
D29*
X131950821Y-105383026D03*
D30*
X136857724Y-106697827D03*
D29*
X141764627Y-108012628D03*
%TD*%
D27*
%TO.C,SW27*%
X158205119Y-110445663D03*
D32*
X161394605Y-111300283D03*
X148250682Y-110407980D03*
D27*
X151414090Y-111255614D03*
D29*
X149529964Y-113380365D03*
D30*
X154436867Y-114695166D03*
D29*
X159343770Y-116009967D03*
%TD*%
D27*
%TO.C,SW3*%
X60242984Y-108027547D03*
D32*
X63432470Y-108882167D03*
X50288547Y-107989864D03*
D27*
X53451955Y-108837498D03*
D29*
X51567829Y-110962249D03*
D30*
X56474732Y-112277050D03*
D29*
X61381635Y-113591851D03*
%TD*%
D27*
%TO.C,SW8*%
X79260195Y-110657918D03*
D32*
X82449681Y-111512538D03*
X69305758Y-110620235D03*
D27*
X72469166Y-111467869D03*
D29*
X70585040Y-113592620D03*
D30*
X75491943Y-114907421D03*
D29*
X80398846Y-116222222D03*
%TD*%
D27*
%TO.C,SW13*%
X98893707Y-110988211D03*
D32*
X102083193Y-111842831D03*
X88939270Y-110950528D03*
D27*
X92102678Y-111798162D03*
D29*
X90218552Y-113922913D03*
D30*
X95125455Y-115237714D03*
D29*
X100032358Y-116552515D03*
%TD*%
D27*
%TO.C,SW23*%
X135695493Y-120849240D03*
D32*
X138884979Y-121703860D03*
X125741056Y-120811557D03*
D27*
X128904464Y-121659191D03*
D29*
X127020338Y-123783942D03*
D30*
X131927241Y-125098743D03*
D29*
X136834144Y-126413544D03*
%TD*%
D27*
%TO.C,SW18*%
X118321761Y-112085192D03*
D32*
X121511247Y-112939812D03*
X108367324Y-112047509D03*
D27*
X111530732Y-112895143D03*
D29*
X109646606Y-115019894D03*
D30*
X114553509Y-116334695D03*
D29*
X119460412Y-117649496D03*
%TD*%
D27*
%TO.C,SW28*%
X153274608Y-128846543D03*
D32*
X156464094Y-129701163D03*
X143320171Y-128808860D03*
D27*
X146483579Y-129656494D03*
D29*
X144599453Y-131781245D03*
D30*
X149506356Y-133096046D03*
D29*
X154413259Y-134410847D03*
%TD*%
D27*
%TO.C,SW4*%
X55312501Y-126428441D03*
D32*
X58501987Y-127283061D03*
X45358064Y-126390758D03*
D27*
X48521472Y-127238392D03*
D29*
X46637346Y-129363143D03*
D30*
X51544249Y-130677944D03*
D29*
X56451152Y-131992745D03*
%TD*%
D27*
%TO.C,SW9*%
X74329675Y-129058825D03*
D32*
X77519161Y-129913445D03*
X64375238Y-129021142D03*
D27*
X67538646Y-129868776D03*
D29*
X65654520Y-131993527D03*
D30*
X70561423Y-133308328D03*
D29*
X75468326Y-134623129D03*
%TD*%
D27*
%TO.C,SW10*%
X69399192Y-147459714D03*
D32*
X72588678Y-148314334D03*
X59444755Y-147422031D03*
D27*
X62608163Y-148269665D03*
D29*
X60724037Y-150394416D03*
D30*
X65630940Y-151709217D03*
D29*
X70537843Y-153024018D03*
%TD*%
D27*
%TO.C,SW15*%
X89032696Y-147789974D03*
D32*
X92222182Y-148644594D03*
X79078259Y-147752291D03*
D27*
X82241667Y-148599925D03*
D29*
X80357541Y-150724676D03*
D30*
X85264444Y-152039477D03*
D29*
X90171347Y-153354278D03*
%TD*%
D27*
%TO.C,SW20*%
X118468204Y-160607709D03*
D32*
X121657690Y-161462329D03*
X108513767Y-160570026D03*
D27*
X111677175Y-161417660D03*
D29*
X109793049Y-163542411D03*
D30*
X114699952Y-164857212D03*
D29*
X119606855Y-166172013D03*
%TD*%
D27*
%TO.C,SW11*%
X108754713Y-74186464D03*
D32*
X111944199Y-75041084D03*
X98800276Y-74148781D03*
D27*
X101963684Y-74996415D03*
D29*
X100079558Y-77121166D03*
D30*
X104986461Y-78435967D03*
D29*
X109893364Y-79750768D03*
%TD*%
D27*
%TO.C,SW2*%
X65173503Y-89626662D03*
D32*
X68362989Y-90481282D03*
X55219066Y-89588979D03*
D27*
X58382474Y-90436613D03*
D29*
X56498348Y-92561364D03*
D30*
X61405251Y-93876165D03*
D29*
X66312154Y-95190966D03*
%TD*%
D27*
%TO.C,SW12*%
X103824203Y-92587316D03*
D32*
X107013689Y-93441936D03*
X93869766Y-92549633D03*
D27*
X97033174Y-93397267D03*
D29*
X95149048Y-95522018D03*
D30*
X100055951Y-96836819D03*
D29*
X104962854Y-98151620D03*
%TD*%
D27*
%TO.C,SW21*%
X145556486Y-84047433D03*
D32*
X148745972Y-84902053D03*
X135602049Y-84009750D03*
D27*
X138765457Y-84857384D03*
D29*
X136881331Y-86982135D03*
D30*
X141788234Y-88296936D03*
D29*
X146695137Y-89611737D03*
%TD*%
D27*
%TO.C,SW17*%
X123252282Y-93684327D03*
D32*
X126441768Y-94538947D03*
X113297845Y-93646644D03*
D27*
X116461253Y-94494278D03*
D29*
X114577127Y-96619029D03*
D30*
X119484030Y-97933830D03*
D29*
X124390933Y-99248631D03*
%TD*%
D27*
%TO.C,SW16*%
X128182782Y-75283416D03*
D32*
X131372268Y-76138036D03*
X118228345Y-75245733D03*
D27*
X121391753Y-76093367D03*
D29*
X119507627Y-78218118D03*
D30*
X124414530Y-79532919D03*
D29*
X129321433Y-80847720D03*
%TD*%
D27*
%TO.C,SW6*%
X89121203Y-73856164D03*
D32*
X92310689Y-74710784D03*
X79166766Y-73818481D03*
D27*
X82330174Y-74666115D03*
D29*
X80446048Y-76790866D03*
D30*
X85352951Y-78105667D03*
D29*
X90259854Y-79420468D03*
%TD*%
D27*
%TO.C,SW7*%
X84190696Y-92257049D03*
D32*
X87380182Y-93111669D03*
X74236259Y-92219366D03*
D27*
X77399667Y-93067000D03*
D29*
X75515541Y-95191751D03*
D30*
X80422444Y-96506552D03*
D29*
X85329347Y-97821353D03*
%TD*%
D27*
%TO.C,SW26*%
X163135617Y-92044767D03*
D32*
X166325103Y-92899387D03*
X153181180Y-92007084D03*
D27*
X156344588Y-92854718D03*
D29*
X154460462Y-94979469D03*
D30*
X159367365Y-96294270D03*
D29*
X164274268Y-97609071D03*
%TD*%
D27*
%TO.C,SW31*%
X237771244Y-90729981D03*
D33*
X240960730Y-89875360D03*
X229131607Y-95674565D03*
D27*
X232295015Y-94826934D03*
D29*
X231725690Y-97609086D03*
D30*
X236632593Y-96294285D03*
D29*
X241539496Y-94979484D03*
%TD*%
D34*
%TO.C,D34*%
X242974308Y-147394122D03*
X242430788Y-145365678D03*
%TD*%
D26*
%TO.C,C118*%
X171599969Y-90319993D03*
X171599969Y-91279993D03*
%TD*%
D18*
%TO.C,R34*%
X189599969Y-83140004D03*
X189599969Y-84160004D03*
%TD*%
D35*
%TO.C,J3*%
X194249959Y-131100011D03*
X201749959Y-131100011D03*
D36*
X200749959Y-128600011D03*
X200249959Y-128600011D03*
X199749959Y-128600011D03*
X199249959Y-128600011D03*
X198749959Y-128600011D03*
X198249959Y-128600011D03*
X197749959Y-128600011D03*
X197249959Y-128600011D03*
X196749959Y-128600011D03*
X196249959Y-128600011D03*
X195749959Y-128600011D03*
X195249959Y-128600011D03*
%TD*%
D37*
%TO.C,D97*%
X170232006Y-183522753D03*
X175695146Y-185060317D03*
X174995146Y-186272753D03*
%TD*%
D27*
%TO.C,SW62*%
X200539969Y-180920009D03*
D38*
X203841968Y-180920008D03*
X190914968Y-183460008D03*
D27*
X194189969Y-183460009D03*
D29*
X192919969Y-186000009D03*
D30*
X197999969Y-186000009D03*
D29*
X203079969Y-186000009D03*
%TD*%
D39*
%TO.C,U6*%
X207549968Y-135537506D03*
X209449968Y-135537506D03*
X209449968Y-133262506D03*
X208499968Y-133262506D03*
X207549968Y-133262506D03*
%TD*%
D40*
%TO.C,D16*%
X119148207Y-71754864D03*
X119691727Y-69726420D03*
%TD*%
D41*
%TO.C,C33*%
X194129967Y-69000004D03*
X193169967Y-69000004D03*
%TD*%
D42*
%TO.C,U14*%
X173399964Y-91299996D03*
D43*
X172649964Y-92249996D03*
X173149964Y-92249996D03*
X173649964Y-92249996D03*
X174149964Y-92249996D03*
X174149964Y-90349996D03*
X173649964Y-90349996D03*
X173149964Y-90349996D03*
X172649964Y-90349996D03*
%TD*%
D27*
%TO.C,SW45*%
X282438648Y-159292911D03*
D33*
X285628134Y-158438290D03*
X273799011Y-164237495D03*
D27*
X276962419Y-163389864D03*
D29*
X276393094Y-166172016D03*
D30*
X281299997Y-164857215D03*
D29*
X286206900Y-163542414D03*
%TD*%
D44*
%TO.C,D112*%
X255193315Y-154938662D03*
X250243069Y-157714462D03*
X249880723Y-156362166D03*
%TD*%
D45*
%TO.C,R38*%
X191789969Y-75400007D03*
X192809969Y-75400007D03*
%TD*%
D46*
%TO.C,C90*%
X265750169Y-148822971D03*
X264822881Y-149071437D03*
%TD*%
D47*
%TO.C,D138*%
X188494465Y-127237777D03*
X193040045Y-123839587D03*
X193575802Y-125133018D03*
%TD*%
D34*
%TO.C,D57*%
X326144897Y-89773320D03*
X325601377Y-87744876D03*
%TD*%
D27*
%TO.C,SW49*%
X306943660Y-128074325D03*
D33*
X310133146Y-127219704D03*
X298304023Y-133018909D03*
D27*
X301467431Y-132171278D03*
D29*
X300898106Y-134953430D03*
D30*
X305805009Y-133638629D03*
D29*
X310711912Y-132323828D03*
%TD*%
D21*
%TO.C,J5*%
X171499990Y-104979996D03*
X171499990Y-107519996D03*
D22*
X171499990Y-110059996D03*
D48*
X171499991Y-112599997D03*
%TD*%
D34*
%TO.C,D58*%
X331075410Y-108174221D03*
X330531890Y-106145777D03*
%TD*%
D49*
%TO.C,C68*%
X65082514Y-136291944D03*
X64155226Y-136043478D03*
%TD*%
D50*
%TO.C,C44*%
X205549968Y-85425008D03*
X205549968Y-86975008D03*
%TD*%
D51*
%TO.C,C109*%
X335505463Y-79811188D03*
X336432751Y-79562722D03*
%TD*%
D34*
%TO.C,D60*%
X340936414Y-144976004D03*
X340392894Y-142947560D03*
%TD*%
D52*
%TO.C,C9*%
X198935484Y-75450452D03*
X197839468Y-74354436D03*
%TD*%
D45*
%TO.C,R27*%
X208489983Y-137000004D03*
X209509983Y-137000004D03*
%TD*%
D49*
%TO.C,C55*%
X94577042Y-99820444D03*
X93649754Y-99571978D03*
%TD*%
%TO.C,C54*%
X114005125Y-100917447D03*
X113077837Y-100668981D03*
%TD*%
D53*
%TO.C,D93*%
X81132879Y-156833501D03*
X86807817Y-156904709D03*
X86445471Y-158257005D03*
%TD*%
D20*
%TO.C,H7*%
X319482323Y-162625367D03*
%TD*%
D54*
%TO.C,D63*%
X211312586Y-178185356D03*
X210262586Y-176366702D03*
%TD*%
D51*
%TO.C,C92*%
X252334846Y-137431959D03*
X253262134Y-137183493D03*
%TD*%
D55*
%TO.C,JP2*%
X186299964Y-84300006D03*
X186299964Y-83100006D03*
%TD*%
D56*
%TO.C,C71*%
X68521654Y-158384857D03*
X69448942Y-158633323D03*
%TD*%
D25*
%TO.C,R20*%
X183149969Y-72010007D03*
X183149969Y-70990007D03*
%TD*%
D40*
%TO.C,D14*%
X84928611Y-125860561D03*
X85472131Y-123832117D03*
%TD*%
D27*
%TO.C,SW47*%
X297082657Y-91272540D03*
D33*
X300272143Y-90417919D03*
X288443020Y-96217124D03*
D27*
X291606428Y-95369493D03*
D29*
X291037103Y-98151645D03*
D30*
X295944006Y-96836844D03*
D29*
X300850909Y-95522043D03*
%TD*%
D27*
%TO.C,SW63*%
X220196060Y-174291995D03*
D57*
X223055674Y-172640994D03*
X213130564Y-181304198D03*
D27*
X215966798Y-179666699D03*
D29*
X216136946Y-182501404D03*
D30*
X220536355Y-179961404D03*
D29*
X224935764Y-177421404D03*
%TD*%
D40*
%TO.C,D4*%
X46277918Y-122899904D03*
X46821438Y-120871460D03*
%TD*%
%TO.C,D19*%
X104356688Y-126957525D03*
X104900208Y-124929081D03*
%TD*%
D58*
%TO.C,D129*%
X309465987Y-84323204D03*
X314416233Y-81547404D03*
X314778579Y-82899700D03*
%TD*%
D27*
%TO.C,SW61*%
X180203279Y-176831997D03*
D28*
X183062893Y-178482996D03*
X170597783Y-174219200D03*
D27*
X173434017Y-175856701D03*
D29*
X171064165Y-177421406D03*
D30*
X175463574Y-179961406D03*
D29*
X179862983Y-182501406D03*
%TD*%
D52*
%TO.C,C10*%
X196697973Y-79298012D03*
X195601957Y-78201996D03*
%TD*%
D59*
%TO.C,C76*%
X176528011Y-187157757D03*
X177359395Y-187637757D03*
%TD*%
D27*
%TO.C,SW33*%
X247632241Y-127531735D03*
D33*
X250821727Y-126677114D03*
X238992604Y-132476319D03*
D27*
X242156012Y-131628688D03*
D29*
X241586687Y-134410840D03*
D30*
X246493590Y-133096039D03*
D29*
X251400493Y-131781238D03*
%TD*%
D46*
%TO.C,C101*%
X273262854Y-103257150D03*
X272335566Y-103505616D03*
%TD*%
D60*
%TO.C,D131*%
X202424139Y-125133018D03*
X208041233Y-125944346D03*
X207505476Y-127237777D03*
%TD*%
D53*
%TO.C,D69*%
X100854894Y-83229983D03*
X106529832Y-83301191D03*
X106167486Y-84653487D03*
%TD*%
D56*
%TO.C,C63*%
X152397074Y-139771688D03*
X153324362Y-140020154D03*
%TD*%
D61*
%TO.C,C8*%
X202128081Y-70582024D03*
X201449259Y-69903202D03*
%TD*%
D62*
%TO.C,C31*%
X190074968Y-70000012D03*
X188524968Y-70000012D03*
%TD*%
D20*
%TO.C,H11*%
X211799972Y-143000004D03*
%TD*%
D62*
%TO.C,C21*%
X209299973Y-131400007D03*
X207749973Y-131400007D03*
%TD*%
D63*
%TO.C,C7*%
X209432486Y-84816078D03*
X210111308Y-85494900D03*
%TD*%
D56*
%TO.C,C49*%
X127305252Y-86208563D03*
X128232540Y-86457029D03*
%TD*%
D44*
%TO.C,D111*%
X272772450Y-146941355D03*
X267822204Y-149717155D03*
X267459858Y-148364859D03*
%TD*%
D64*
%TO.C,C19*%
X199789377Y-78560598D03*
X199110555Y-79239420D03*
%TD*%
D40*
%TO.C,D8*%
X70225612Y-107129368D03*
X70769132Y-105100924D03*
%TD*%
D53*
%TO.C,D68*%
X81221386Y-82899686D03*
X86896324Y-82970894D03*
X86533978Y-84323190D03*
%TD*%
%TO.C,D84*%
X145374794Y-137890069D03*
X151049732Y-137961277D03*
X150687386Y-139313573D03*
%TD*%
D51*
%TO.C,C85*%
X355227465Y-153414738D03*
X356154753Y-153166272D03*
%TD*%
D34*
%TO.C,D39*%
X260553445Y-139396807D03*
X260009925Y-137368363D03*
%TD*%
D65*
%TO.C,R23*%
X184659967Y-73050007D03*
X183639967Y-73050007D03*
%TD*%
D66*
%TO.C,C22*%
X205124968Y-137300008D03*
X206674968Y-137300008D03*
%TD*%
D61*
%TO.C,C13*%
X200706782Y-71989155D03*
X200027960Y-71310333D03*
%TD*%
D67*
%TO.C,D142*%
X172849991Y-88699997D03*
X170749991Y-88699997D03*
%TD*%
D45*
%TO.C,R32*%
X170639970Y-93949996D03*
X171659970Y-93949996D03*
%TD*%
D68*
%TO.C,U8*%
X198999967Y-65715005D03*
X198499967Y-65715005D03*
X197999967Y-65715005D03*
X197499967Y-65715005D03*
X196999967Y-65715005D03*
X196999967Y-66485005D03*
X197499967Y-66485005D03*
X197999967Y-66485005D03*
X198499967Y-66485005D03*
X198999967Y-66485005D03*
%TD*%
D27*
%TO.C,SW59*%
X345594361Y-125113636D03*
D33*
X348783847Y-124259015D03*
X336954724Y-130058220D03*
D27*
X340118132Y-129210589D03*
D29*
X339548807Y-131992741D03*
D30*
X344455710Y-130677940D03*
D29*
X349362613Y-129363139D03*
%TD*%
D69*
%TO.C,C3*%
X173799991Y-73274997D03*
X173799991Y-71724997D03*
%TD*%
D34*
%TO.C,D37*%
X250692433Y-102595023D03*
X250148913Y-100566579D03*
%TD*%
D46*
%TO.C,C99*%
X312324454Y-101829895D03*
X311397166Y-102078361D03*
%TD*%
D34*
%TO.C,D48*%
X292424709Y-111134894D03*
X291881189Y-109106450D03*
%TD*%
D44*
%TO.C,D108*%
X329207747Y-136750057D03*
X324257501Y-139525857D03*
X323895155Y-138173561D03*
%TD*%
D62*
%TO.C,C40*%
X194174960Y-86337513D03*
X192624960Y-86337513D03*
%TD*%
D53*
%TO.C,D94*%
X110568386Y-169651240D03*
X116243324Y-169722448D03*
X115880978Y-171074744D03*
%TD*%
D70*
%TO.C,C81*%
X268317848Y-175712863D03*
X269149232Y-175232863D03*
%TD*%
D58*
%TO.C,D106*%
X348205182Y-155296351D03*
X353155428Y-152520551D03*
X353517774Y-153872847D03*
%TD*%
%TO.C,D130*%
X328483184Y-81692801D03*
X333433430Y-78917001D03*
X333795776Y-80269297D03*
%TD*%
D34*
%TO.C,D50*%
X302285692Y-147936662D03*
X301742172Y-145908218D03*
%TD*%
D71*
%TO.C,D61*%
X172389791Y-171085355D03*
X173439791Y-169266701D03*
%TD*%
D56*
%TO.C,C70*%
X49504458Y-155754464D03*
X50431746Y-156002930D03*
%TD*%
D58*
%TO.C,D116*%
X299693471Y-121455253D03*
X304643717Y-118679453D03*
X305006063Y-120031749D03*
%TD*%
D27*
%TO.C,SW38*%
X265211390Y-119534434D03*
D33*
X268400876Y-118679813D03*
X256571753Y-124479018D03*
D27*
X259735161Y-123631387D03*
D29*
X259165836Y-126413539D03*
D30*
X264072739Y-125098738D03*
D29*
X268979642Y-123783937D03*
%TD*%
D58*
%TO.C,D118*%
X338344180Y-118494567D03*
X343294426Y-115718767D03*
X343656772Y-117071063D03*
%TD*%
D51*
%TO.C,C84*%
X336210286Y-156045138D03*
X337137574Y-155796672D03*
%TD*%
D27*
%TO.C,SW50*%
X311874157Y-146475200D03*
D33*
X315063643Y-145620579D03*
X303234520Y-151419784D03*
D27*
X306397928Y-150572153D03*
D29*
X305828603Y-153354305D03*
D30*
X310735506Y-152039504D03*
D29*
X315642409Y-150724703D03*
%TD*%
D72*
%TO.C,SW69*%
X214249972Y-58887212D03*
X212749972Y-58887212D03*
X209749972Y-58887212D03*
D73*
X215649972Y-58237212D03*
X215649972Y-56027212D03*
D74*
X213499973Y-57127213D03*
X210499973Y-57127213D03*
D73*
X208349972Y-58237212D03*
X208349972Y-56027212D03*
%TD*%
D44*
%TO.C,D109*%
X309574226Y-137080353D03*
X304623980Y-139856153D03*
X304261634Y-138503857D03*
%TD*%
D20*
%TO.C,H10*%
X184199972Y-142999959D03*
%TD*%
D46*
%TO.C,C100*%
X292690938Y-102160190D03*
X291763650Y-102408656D03*
%TD*%
D75*
%TO.C,D99*%
X221004786Y-186272748D03*
X225067926Y-182310312D03*
X225767926Y-183522748D03*
%TD*%
D18*
%TO.C,R4*%
X212249963Y-112740000D03*
X212249963Y-113760000D03*
%TD*%
D76*
%TO.C,D64*%
X190899967Y-198900032D03*
X190899967Y-196800032D03*
%TD*%
D69*
%TO.C,C37*%
X186099971Y-91475005D03*
X186099971Y-89925005D03*
%TD*%
D77*
%TO.C,C38*%
X190119969Y-88150002D03*
X191079969Y-88150002D03*
%TD*%
D56*
%TO.C,C59*%
X78382658Y-121583059D03*
X79309946Y-121831525D03*
%TD*%
D53*
%TO.C,D79*%
X52343168Y-117071073D03*
X58018106Y-117142281D03*
X57655760Y-118494577D03*
%TD*%
D78*
%TO.C,C80*%
X251823268Y-186882292D03*
X252502090Y-186203470D03*
%TD*%
D44*
%TO.C,D110*%
X290146152Y-138177301D03*
X285195906Y-140953101D03*
X284833560Y-139600805D03*
%TD*%
D79*
%TO.C,C122*%
X172149970Y-101149995D03*
X174049970Y-101149995D03*
%TD*%
D44*
%TO.C,D120*%
X319346740Y-99948277D03*
X314396494Y-102724077D03*
X314034148Y-101371781D03*
%TD*%
D45*
%TO.C,R12*%
X191789968Y-73300005D03*
X192809968Y-73300005D03*
%TD*%
D27*
%TO.C,SW58*%
X340663858Y-106712733D03*
D33*
X343853344Y-105858112D03*
X332024221Y-111657317D03*
D27*
X335187629Y-110809686D03*
D29*
X334618304Y-113591838D03*
D30*
X339525207Y-112277037D03*
D29*
X344432110Y-110962236D03*
%TD*%
D51*
%TO.C,C106*%
X277426679Y-83868842D03*
X278353967Y-83620376D03*
%TD*%
D34*
%TO.C,D55*%
X321919234Y-147606387D03*
X321375714Y-145577943D03*
%TD*%
D80*
%TO.C,U4*%
X192649964Y-138230009D03*
X192649964Y-140010009D03*
X192649964Y-141790009D03*
X192649964Y-143570009D03*
X192649964Y-145350009D03*
X192649964Y-147130009D03*
X192649964Y-148910009D03*
X192649964Y-150690009D03*
X203349964Y-149800009D03*
X203349964Y-148020009D03*
X203349964Y-146240009D03*
X203349964Y-144460009D03*
X203349964Y-142680009D03*
X203349964Y-140900009D03*
X203349964Y-139120009D03*
D81*
X203349963Y-137340008D03*
%TD*%
D82*
%TO.C,D86*%
X128540112Y-148364834D03*
X122865174Y-148293626D03*
X123227520Y-146941330D03*
%TD*%
D77*
%TO.C,C79*%
X202519964Y-210750004D03*
X203479964Y-210750004D03*
%TD*%
D58*
%TO.C,D105*%
X329188002Y-157926752D03*
X334138248Y-155150952D03*
X334500594Y-156503248D03*
%TD*%
D83*
%TO.C,U7*%
X172037491Y-72499997D03*
X169762491Y-71549997D03*
X169762491Y-73449997D03*
%TD*%
D46*
%TO.C,C87*%
X322185463Y-138631669D03*
X321258175Y-138880135D03*
%TD*%
D40*
%TO.C,D6*%
X80086609Y-70327603D03*
X80630129Y-68299159D03*
%TD*%
D84*
%TO.C,U1*%
X205599964Y-77730866D03*
D85*
X205007763Y-73461710D03*
X204724920Y-73744553D03*
X204442078Y-74027395D03*
X204159235Y-74310238D03*
X203876392Y-74593081D03*
X203593550Y-74875923D03*
X203310707Y-75158766D03*
X203027864Y-75441609D03*
X202745021Y-75724452D03*
X202462179Y-76007294D03*
X202179336Y-76290137D03*
X201896493Y-76572980D03*
X201613651Y-76855822D03*
X201330808Y-77138665D03*
D86*
X201330808Y-78323069D03*
X201613651Y-78605912D03*
X201896493Y-78888754D03*
X202179336Y-79171597D03*
X202462179Y-79454440D03*
X202745021Y-79737282D03*
X203027864Y-80020125D03*
X203310707Y-80302968D03*
X203593550Y-80585811D03*
X203876392Y-80868653D03*
X204159235Y-81151496D03*
X204442078Y-81434339D03*
X204724920Y-81717181D03*
X205007763Y-82000024D03*
D85*
X206192167Y-82000024D03*
X206475010Y-81717181D03*
X206757852Y-81434339D03*
X207040695Y-81151496D03*
X207323538Y-80868653D03*
X207606380Y-80585811D03*
X207889223Y-80302968D03*
X208172066Y-80020125D03*
X208454909Y-79737282D03*
X208737751Y-79454440D03*
X209020594Y-79171597D03*
X209303437Y-78888754D03*
X209586279Y-78605912D03*
X209869122Y-78323069D03*
D86*
X209869122Y-77138665D03*
X209586279Y-76855822D03*
X209303437Y-76572980D03*
X209020594Y-76290137D03*
X208737751Y-76007294D03*
X208454909Y-75724452D03*
X208172066Y-75441609D03*
X207889223Y-75158766D03*
X207606380Y-74875923D03*
X207323538Y-74593081D03*
X207040695Y-74310238D03*
X206757852Y-74027395D03*
X206475010Y-73744553D03*
X206192167Y-73461710D03*
%TD*%
D27*
%TO.C,SW43*%
X282585064Y-110770395D03*
D33*
X285774550Y-109915774D03*
X273945427Y-115714979D03*
D27*
X277108835Y-114867348D03*
D29*
X276539510Y-117649500D03*
D30*
X281446413Y-116334699D03*
D29*
X286353316Y-115019898D03*
%TD*%
D40*
%TO.C,D28*%
X144240022Y-125317995D03*
X144783542Y-123289551D03*
%TD*%
D64*
%TO.C,C12*%
X198656179Y-77603593D03*
X197977357Y-78282415D03*
%TD*%
D46*
%TO.C,C103*%
X238310024Y-120018512D03*
X237382736Y-120266978D03*
%TD*%
D87*
%TO.C,U12*%
X184749962Y-85762512D03*
X182849962Y-85762512D03*
X182849962Y-88037512D03*
X183799962Y-88037512D03*
X184749962Y-88037512D03*
%TD*%
D40*
%TO.C,D21*%
X136521895Y-80518892D03*
X137065415Y-78490448D03*
%TD*%
D88*
%TO.C,D133*%
X215866959Y-147424175D03*
X215055631Y-153041269D03*
X213762200Y-152505512D03*
%TD*%
D51*
%TO.C,C108*%
X316488269Y-82441591D03*
X317415557Y-82193125D03*
%TD*%
D89*
%TO.C,Q2*%
X183499965Y-76150001D03*
X184149965Y-76150001D03*
X184799965Y-76150001D03*
X184799965Y-74250001D03*
X184149965Y-74250001D03*
X183499965Y-74250001D03*
%TD*%
D41*
%TO.C,C28*%
X184729968Y-66700008D03*
X183769968Y-66700008D03*
%TD*%
D77*
%TO.C,C77*%
X202519965Y-191700005D03*
X203479965Y-191700005D03*
%TD*%
D40*
%TO.C,D7*%
X75156112Y-88728497D03*
X75699632Y-86700053D03*
%TD*%
D22*
%TO.C,J1*%
X215899991Y-102444996D03*
D21*
X215899991Y-104984996D03*
D48*
X215899992Y-107524997D03*
%TD*%
D56*
%TO.C,C73*%
X117590674Y-171532856D03*
X118517962Y-171781322D03*
%TD*%
D40*
%TO.C,D10*%
X60364603Y-143931157D03*
X60908123Y-141902713D03*
%TD*%
D90*
%TO.C,D100*%
X195249963Y-210750000D03*
X200749963Y-209350000D03*
X200749963Y-210750000D03*
%TD*%
D51*
%TO.C,C105*%
X260052973Y-92632887D03*
X260980261Y-92384421D03*
%TD*%
D91*
%TO.C,D145*%
X195499959Y-67499997D03*
X195499959Y-66099997D03*
%TD*%
D49*
%TO.C,C67*%
X84716043Y-136622230D03*
X83788755Y-136373764D03*
%TD*%
D92*
%TO.C,SW68*%
X181374968Y-58207216D03*
X186624968Y-58207216D03*
X181374968Y-56507216D03*
X186624968Y-56507216D03*
D93*
X183999969Y-55982217D03*
X183999969Y-58732217D03*
%TD*%
D58*
%TO.C,D127*%
X270404394Y-85750459D03*
X275354640Y-82974659D03*
X275716986Y-84326955D03*
%TD*%
D27*
%TO.C,SW57*%
X335733352Y-88311849D03*
D33*
X338922838Y-87457228D03*
X327093715Y-93256433D03*
D27*
X330257123Y-92408802D03*
D29*
X329687798Y-95190954D03*
D30*
X334594701Y-93876153D03*
D29*
X339501604Y-92561352D03*
%TD*%
D90*
%TO.C,D98*%
X195249971Y-191700012D03*
X200749971Y-190300012D03*
X200749971Y-191700012D03*
%TD*%
D46*
%TO.C,C86*%
X341202642Y-136001288D03*
X340275354Y-136249754D03*
%TD*%
D82*
%TO.C,D75*%
X121027406Y-102799057D03*
X115352468Y-102727849D03*
X115714814Y-101375553D03*
%TD*%
D51*
%TO.C,C97*%
X345366456Y-116612956D03*
X346293744Y-116364490D03*
%TD*%
D94*
%TO.C,U5*%
X194049967Y-70475002D03*
X193649967Y-70475002D03*
X193249967Y-70475002D03*
X192849967Y-70475002D03*
D95*
X192724967Y-71100002D03*
X192724967Y-71500002D03*
D94*
X192849967Y-72125002D03*
X193249967Y-72125002D03*
X193649967Y-72125002D03*
X194049967Y-72125002D03*
D95*
X194174967Y-71500002D03*
X194174967Y-71100002D03*
%TD*%
D26*
%TO.C,C30*%
X222749967Y-75870009D03*
X222749967Y-76830009D03*
%TD*%
D45*
%TO.C,R15*%
X191789970Y-74350009D03*
X192809970Y-74350009D03*
%TD*%
D40*
%TO.C,D18*%
X109287177Y-108556646D03*
X109830697Y-106528202D03*
%TD*%
D45*
%TO.C,R14*%
X196489962Y-114400005D03*
X197509962Y-114400005D03*
%TD*%
D51*
%TO.C,C94*%
X287287672Y-120670611D03*
X288214960Y-120422145D03*
%TD*%
D40*
%TO.C,D2*%
X56138919Y-86098115D03*
X56682439Y-84069671D03*
%TD*%
D26*
%TO.C,C45*%
X175199969Y-90319988D03*
X175199969Y-91279988D03*
%TD*%
D56*
%TO.C,C72*%
X88155159Y-158715123D03*
X89082447Y-158963589D03*
%TD*%
D34*
%TO.C,D47*%
X287494214Y-92734009D03*
X286950694Y-90705565D03*
%TD*%
D56*
%TO.C,C47*%
X88243663Y-84781303D03*
X89170951Y-85029769D03*
%TD*%
D34*
%TO.C,D56*%
X321214400Y-71372440D03*
X320670880Y-69343996D03*
%TD*%
D96*
%TO.C,D134*%
X207505477Y-158762233D03*
X202959897Y-162160423D03*
X202424140Y-160866992D03*
%TD*%
D97*
%TO.C,FB1*%
X194162467Y-64600009D03*
X192037467Y-64600009D03*
%TD*%
D58*
%TO.C,D104*%
X309554480Y-158257031D03*
X314504726Y-155481231D03*
X314867072Y-156833527D03*
%TD*%
D27*
%TO.C,SW52*%
X316716169Y-90942245D03*
D33*
X319905655Y-90087624D03*
X308076532Y-95886829D03*
D27*
X311239940Y-95039198D03*
D29*
X310670615Y-97821350D03*
D30*
X315577518Y-96506549D03*
D29*
X320484421Y-95191748D03*
%TD*%
D51*
%TO.C,C107*%
X296854750Y-82771885D03*
X297782038Y-82523419D03*
%TD*%
D34*
%TO.C,D33*%
X238043810Y-128993237D03*
X237500290Y-126964793D03*
%TD*%
D51*
%TO.C,C96*%
X326349273Y-119243350D03*
X327276561Y-118994884D03*
%TD*%
D98*
%TO.C,D96*%
X145428271Y-188133871D03*
X150307307Y-191033009D03*
X149317358Y-192022958D03*
%TD*%
D65*
%TO.C,R28*%
X208909970Y-138100010D03*
X207889970Y-138100010D03*
%TD*%
D99*
%TO.C,C117*%
X195211068Y-124455670D03*
X196097992Y-124088294D03*
%TD*%
D44*
%TO.C,D124*%
X245332308Y-118136897D03*
X240382062Y-120912697D03*
X240019716Y-119560401D03*
%TD*%
D27*
%TO.C,SW44*%
X287515585Y-129171271D03*
D33*
X290705071Y-128316650D03*
X278875948Y-134115855D03*
D27*
X282039356Y-133268224D03*
D29*
X281470031Y-136050376D03*
D30*
X286376934Y-134735575D03*
D29*
X291283837Y-133420774D03*
%TD*%
D82*
%TO.C,D73*%
X155980237Y-119560395D03*
X150305299Y-119489187D03*
X150667645Y-118136891D03*
%TD*%
D26*
%TO.C,C20*%
X194199967Y-66120000D03*
X194199967Y-67080000D03*
%TD*%
D18*
%TO.C,R19*%
X183149973Y-69040004D03*
X183149973Y-70060004D03*
%TD*%
D100*
%TO.C,U10*%
X171474967Y-84745003D03*
X171474967Y-83475003D03*
X171474967Y-82205003D03*
X171474967Y-80935003D03*
X171474967Y-79665003D03*
X171474967Y-78395003D03*
X171474967Y-77125003D03*
X171474967Y-75855003D03*
X166524967Y-75855003D03*
X166524967Y-77125003D03*
X166524967Y-78395003D03*
X166524967Y-79665003D03*
X166524967Y-80935003D03*
X166524967Y-82205003D03*
X166524967Y-83475003D03*
X166524967Y-84745003D03*
%TD*%
D101*
%TO.C,C115*%
X179455637Y-145788909D03*
X179088261Y-144901985D03*
%TD*%
D40*
%TO.C,D17*%
X114217703Y-90155773D03*
X114761223Y-88127329D03*
%TD*%
D51*
%TO.C,C82*%
X287141247Y-169193128D03*
X288068535Y-168944662D03*
%TD*%
D55*
%TO.C,JP1*%
X196199967Y-116300002D03*
X197399967Y-116300002D03*
%TD*%
D61*
%TO.C,C14*%
X201420980Y-71289135D03*
X200742158Y-70610313D03*
%TD*%
D18*
%TO.C,R10*%
X204799962Y-145690006D03*
X204799962Y-146710006D03*
%TD*%
D34*
%TO.C,D41*%
X263135607Y-75430096D03*
X262592087Y-73401652D03*
%TD*%
D27*
%TO.C,SW41*%
X272724074Y-73968624D03*
D33*
X275913560Y-73114003D03*
X264084437Y-78913208D03*
D27*
X267247845Y-78065577D03*
D29*
X266678520Y-80847729D03*
D30*
X271585423Y-79532928D03*
D29*
X276492326Y-78218127D03*
%TD*%
D56*
%TO.C,C58*%
X59365443Y-118952690D03*
X60292731Y-119201156D03*
%TD*%
D102*
%TO.C,J2*%
X203619961Y-61400005D03*
D103*
X203619961Y-57400005D03*
D102*
X192379961Y-61400005D03*
D103*
X192379961Y-57400005D03*
D104*
X194799961Y-62650005D03*
X195599961Y-62650005D03*
D105*
X196249961Y-62650005D03*
X197249961Y-62650005D03*
X198749961Y-62650005D03*
X199749961Y-62650005D03*
D104*
X200399961Y-62650005D03*
X201199961Y-62650005D03*
X201199961Y-62650005D03*
X200399961Y-62650005D03*
D105*
X199249961Y-62650005D03*
X198249961Y-62650005D03*
X197749961Y-62650005D03*
X196749961Y-62650005D03*
D104*
X195599961Y-62650005D03*
X194799961Y-62650005D03*
%TD*%
D34*
%TO.C,D54*%
X316988721Y-129205489D03*
X316445201Y-127177045D03*
%TD*%
D20*
%TO.C,H6*%
X76517600Y-162625360D03*
%TD*%
D106*
%TO.C,D144*%
X198899960Y-86550006D03*
X200999960Y-86550006D03*
%TD*%
D58*
%TO.C,D117*%
X319326991Y-121124960D03*
X324277237Y-118349160D03*
X324639583Y-119701456D03*
%TD*%
D107*
%TO.C,C112*%
X213084854Y-154140774D03*
X212717478Y-155027698D03*
%TD*%
D108*
%TO.C,C114*%
X186859199Y-158084886D03*
X185972275Y-157717510D03*
%TD*%
D41*
%TO.C,C43*%
X206179968Y-88237507D03*
X205219968Y-88237507D03*
%TD*%
D65*
%TO.C,R6*%
X209709965Y-60500010D03*
X208689965Y-60500010D03*
%TD*%
D45*
%TO.C,R29*%
X195389962Y-88037505D03*
X196409962Y-88037505D03*
%TD*%
D109*
%TO.C,L1*%
X187399967Y-85750002D03*
X187399967Y-88050002D03*
%TD*%
D24*
%TO.C,C2*%
X213349963Y-113730006D03*
X213349963Y-112770006D03*
%TD*%
D40*
%TO.C,D1*%
X61069420Y-67697206D03*
X61612940Y-65668762D03*
%TD*%
D110*
%TO.C,R9*%
X211962992Y-83215731D03*
X212684240Y-83936979D03*
%TD*%
D111*
%TO.C,C110*%
X209140744Y-127915130D03*
X210027668Y-128282506D03*
%TD*%
D25*
%TO.C,R1*%
X218049966Y-113760004D03*
X218049966Y-112740004D03*
%TD*%
D49*
%TO.C,C64*%
X139096950Y-154480565D03*
X138169662Y-154232099D03*
%TD*%
D112*
%TO.C,R8*%
X199755719Y-74396863D03*
X199034471Y-73675615D03*
%TD*%
D53*
%TO.C,D71*%
X137656674Y-93090965D03*
X143331612Y-93162173D03*
X142969266Y-94514469D03*
%TD*%
D46*
%TO.C,C91*%
X248171034Y-156820275D03*
X247243746Y-157068741D03*
%TD*%
D49*
%TO.C,C66*%
X104144122Y-137719191D03*
X103216834Y-137470725D03*
%TD*%
D34*
%TO.C,D53*%
X312058208Y-110804617D03*
X311514688Y-108776173D03*
%TD*%
D78*
%TO.C,C6*%
X215519723Y-84198612D03*
X216198545Y-83519790D03*
%TD*%
D26*
%TO.C,C23*%
X188299964Y-66820000D03*
X188299964Y-67780000D03*
%TD*%
D113*
%TO.C,D101*%
X246682596Y-192022962D03*
X249581734Y-187143926D03*
X250571683Y-188133875D03*
%TD*%
D45*
%TO.C,R36*%
X185939960Y-64700003D03*
X186959960Y-64700003D03*
%TD*%
D82*
%TO.C,D89*%
X72104797Y-138173561D03*
X66429859Y-138102353D03*
X66792205Y-136750057D03*
%TD*%
D114*
%TO.C,R30*%
X202399965Y-86375010D03*
X202399965Y-88025010D03*
%TD*%
D49*
%TO.C,C56*%
X74943536Y-99490165D03*
X74016248Y-99241699D03*
%TD*%
D56*
%TO.C,C60*%
X98016176Y-121913349D03*
X98943464Y-122161815D03*
%TD*%
D106*
%TO.C,D143*%
X195549964Y-86550010D03*
X197649964Y-86550010D03*
%TD*%
D82*
%TO.C,D74*%
X138401101Y-111563052D03*
X132726163Y-111491844D03*
X133088509Y-110139548D03*
%TD*%
D34*
%TO.C,D32*%
X233113301Y-110592346D03*
X232569781Y-108563902D03*
%TD*%
D27*
%TO.C,SW40*%
X261213112Y-167367104D03*
D57*
X264072726Y-165716103D03*
X254147616Y-174379307D03*
D27*
X256983850Y-172741808D03*
D29*
X257153998Y-175576513D03*
D30*
X261553407Y-173036513D03*
D29*
X265952816Y-170496513D03*
%TD*%
D45*
%TO.C,R35*%
X183749964Y-64700004D03*
X184769964Y-64700004D03*
%TD*%
D40*
%TO.C,D23*%
X126660903Y-117320705D03*
X127204423Y-115292261D03*
%TD*%
D63*
%TO.C,C75*%
X150568939Y-193274542D03*
X151247761Y-193953364D03*
%TD*%
D37*
%TO.C,D95*%
X129214972Y-176597872D03*
X134678112Y-178135436D03*
X133978112Y-179347872D03*
%TD*%
D56*
%TO.C,C50*%
X144678946Y-94972583D03*
X145606234Y-95221049D03*
%TD*%
D45*
%TO.C,R37*%
X191789971Y-76450005D03*
X192809971Y-76450005D03*
%TD*%
D18*
%TO.C,R2*%
X215849963Y-112740008D03*
X215849963Y-113760008D03*
%TD*%
D62*
%TO.C,C35*%
X184674963Y-83900015D03*
X183124963Y-83900015D03*
%TD*%
D65*
%TO.C,R26*%
X183909970Y-89600008D03*
X182889970Y-89600008D03*
%TD*%
D115*
%TO.C,D137*%
X180132984Y-138575836D03*
X180944312Y-132958742D03*
X182237743Y-133494499D03*
%TD*%
D34*
%TO.C,D36*%
X245761929Y-84194141D03*
X245218409Y-82165697D03*
%TD*%
D64*
%TO.C,C15*%
X207282882Y-70815368D03*
X206604060Y-71494190D03*
%TD*%
D26*
%TO.C,C34*%
X186599969Y-61420004D03*
X186599969Y-62380004D03*
%TD*%
D116*
%TO.C,C111*%
X216544309Y-140211103D03*
X216911685Y-141098027D03*
%TD*%
D27*
%TO.C,SW46*%
X292152142Y-72871661D03*
D33*
X295341628Y-72017040D03*
X283512505Y-77816245D03*
D27*
X286675913Y-76968614D03*
D29*
X286106588Y-79750766D03*
D30*
X291013491Y-78435965D03*
D29*
X295920394Y-77121164D03*
%TD*%
D58*
%TO.C,D128*%
X289832465Y-84653498D03*
X294782711Y-81877698D03*
X295145057Y-83229994D03*
%TD*%
D56*
%TO.C,C51*%
X162258082Y-102969905D03*
X163185370Y-103218371D03*
%TD*%
D51*
%TO.C,C93*%
X269913998Y-129434651D03*
X270841286Y-129186185D03*
%TD*%
D27*
%TO.C,SW51*%
X311785663Y-72541371D03*
D33*
X314975149Y-71686750D03*
X303146026Y-77485955D03*
D27*
X306309434Y-76638324D03*
D29*
X305740109Y-79420476D03*
D30*
X310647012Y-78105675D03*
D29*
X315553915Y-76790874D03*
%TD*%
D34*
%TO.C,D59*%
X336005894Y-126575106D03*
X335462374Y-124546662D03*
%TD*%
D46*
%TO.C,C98*%
X331341633Y-99199497D03*
X330414345Y-99447963D03*
%TD*%
D65*
%TO.C,R33*%
X171659968Y-92899998D03*
X170639968Y-92899998D03*
%TD*%
D27*
%TO.C,SW60*%
X350524861Y-143514514D03*
D33*
X353714347Y-142659893D03*
X341885224Y-148459098D03*
D27*
X345048632Y-147611467D03*
D29*
X344479307Y-150393619D03*
D30*
X349386210Y-149078818D03*
D29*
X354293113Y-147764017D03*
%TD*%
D27*
%TO.C,SW37*%
X260280893Y-101133552D03*
D33*
X263470379Y-100278931D03*
X251641256Y-106078136D03*
D27*
X254804664Y-105230505D03*
D29*
X254235339Y-108012657D03*
D30*
X259142242Y-106697856D03*
D29*
X264049145Y-105383055D03*
%TD*%
D40*
%TO.C,D9*%
X65295078Y-125530281D03*
X65838598Y-123501837D03*
%TD*%
D79*
%TO.C,C120*%
X172149965Y-97149990D03*
X174049965Y-97149990D03*
%TD*%
D53*
%TO.C,D80*%
X71360378Y-119701447D03*
X77035316Y-119772655D03*
X76672970Y-121124951D03*
%TD*%
D46*
%TO.C,C88*%
X302551947Y-138961970D03*
X301624659Y-139210436D03*
%TD*%
D44*
%TO.C,D122*%
X280285135Y-101375540D03*
X275334889Y-104151340D03*
X274972543Y-102799044D03*
%TD*%
D34*
%TO.C,D42*%
X268066127Y-93830983D03*
X267522607Y-91802539D03*
%TD*%
D53*
%TO.C,D91*%
X42482171Y-153872847D03*
X48157109Y-153944055D03*
X47794763Y-155296351D03*
%TD*%
D40*
%TO.C,D22*%
X131591396Y-98919772D03*
X132134916Y-96891328D03*
%TD*%
D77*
%TO.C,C24*%
X172619991Y-87099997D03*
X173579991Y-87099997D03*
%TD*%
D52*
%TO.C,C11*%
X197804685Y-76582147D03*
X196708669Y-75486131D03*
%TD*%
D117*
%TO.C,U2*%
X201990187Y-67898553D03*
X202888213Y-68796579D03*
X203786238Y-69694604D03*
X204684264Y-70592630D03*
X209775433Y-65501461D03*
X208877407Y-64603435D03*
X207979382Y-63705410D03*
X207081356Y-62807384D03*
%TD*%
D40*
%TO.C,D3*%
X51208396Y-104498999D03*
X51751916Y-102470555D03*
%TD*%
D24*
%TO.C,C36*%
X183499968Y-91680012D03*
X183499968Y-90720012D03*
%TD*%
D40*
%TO.C,D11*%
X99720122Y-70657912D03*
X100263642Y-68629468D03*
%TD*%
D49*
%TO.C,C65*%
X121517827Y-146483226D03*
X120590539Y-146234760D03*
%TD*%
D53*
%TO.C,D67*%
X62204192Y-80269289D03*
X67879130Y-80340497D03*
X67516784Y-81692793D03*
%TD*%
D34*
%TO.C,D49*%
X297355202Y-129535790D03*
X296811682Y-127507346D03*
%TD*%
D63*
%TO.C,C5*%
X215236891Y-79984245D03*
X215915713Y-80663067D03*
%TD*%
D34*
%TO.C,D46*%
X282563701Y-74333131D03*
X282020181Y-72304687D03*
%TD*%
D118*
%TO.C,D35*%
X235227481Y-186719660D03*
X233742557Y-185234736D03*
%TD*%
D69*
%TO.C,C4*%
X167999992Y-73274997D03*
X167999992Y-71724997D03*
%TD*%
D119*
%TO.C,U11*%
X224524966Y-75855005D03*
X224524966Y-77125005D03*
X224524966Y-78395005D03*
X224524966Y-79665005D03*
X224524966Y-80935005D03*
X224524966Y-82205005D03*
X224524966Y-83475005D03*
X224524966Y-84745005D03*
X229474966Y-84745005D03*
X229474966Y-83475005D03*
X229474966Y-82205005D03*
X229474966Y-80935005D03*
X229474966Y-79665005D03*
X229474966Y-78395005D03*
X229474966Y-77125005D03*
X229474966Y-75855005D03*
%TD*%
D40*
%TO.C,D27*%
X149170521Y-106917112D03*
X149714041Y-104888668D03*
%TD*%
D82*
%TO.C,D87*%
X111166398Y-139600805D03*
X105491460Y-139529597D03*
X105853806Y-138177301D03*
%TD*%
D56*
%TO.C,C46*%
X69226478Y-82150901D03*
X70153766Y-82399367D03*
%TD*%
D58*
%TO.C,D103*%
X280118969Y-171074745D03*
X285069215Y-168298945D03*
X285431561Y-169651241D03*
%TD*%
D120*
%TO.C,C113*%
X200788877Y-161544340D03*
X199901953Y-161911716D03*
%TD*%
D121*
%TO.C,R5*%
X208718311Y-69379938D03*
X207997063Y-70101186D03*
%TD*%
D122*
%TO.C,C116*%
X182915093Y-131859232D03*
X183282469Y-130972308D03*
%TD*%
D49*
%TO.C,C52*%
X148957958Y-117678780D03*
X148030670Y-117430314D03*
%TD*%
D25*
%TO.C,R21*%
X184149967Y-72010006D03*
X184149967Y-70990006D03*
%TD*%
D46*
%TO.C,C89*%
X283123873Y-140058917D03*
X282196585Y-140307383D03*
%TD*%
D20*
%TO.C,H4*%
X223299991Y-67557215D03*
%TD*%
D123*
%TO.C,D132*%
X213762199Y-133494499D03*
X217160389Y-138040079D03*
X215866958Y-138575836D03*
%TD*%
D76*
%TO.C,D62*%
X190899971Y-179850021D03*
X190899971Y-177750021D03*
%TD*%
D65*
%TO.C,R16*%
X186959964Y-65700005D03*
X185939964Y-65700005D03*
%TD*%
D63*
%TO.C,C17*%
X209637081Y-83606443D03*
X210315903Y-84285265D03*
%TD*%
D77*
%TO.C,C29*%
X171019966Y-86099997D03*
X171979966Y-86099997D03*
%TD*%
D58*
%TO.C,D113*%
X245312563Y-139313566D03*
X250262809Y-136537766D03*
X250625155Y-137890062D03*
%TD*%
D25*
%TO.C,R22*%
X185149960Y-72010006D03*
X185149960Y-70990006D03*
%TD*%
D56*
%TO.C,C61*%
X117444231Y-123010339D03*
X118371519Y-123258805D03*
%TD*%
D58*
%TO.C,D125*%
X235451563Y-102511808D03*
X240401809Y-99736008D03*
X240764155Y-101088304D03*
%TD*%
D27*
%TO.C,SW54*%
X326577178Y-127744025D03*
D33*
X329766664Y-126889404D03*
X317937541Y-132688609D03*
D27*
X321100949Y-131840978D03*
D29*
X320531624Y-134623130D03*
D30*
X325438527Y-133308329D03*
D29*
X330345430Y-131993528D03*
%TD*%
D45*
%TO.C,R24*%
X183639968Y-77350004D03*
X184659968Y-77350004D03*
%TD*%
D58*
%TO.C,D114*%
X262891713Y-131316268D03*
X267841959Y-128540468D03*
X268204305Y-129892764D03*
%TD*%
D18*
%TO.C,R18*%
X184149969Y-69040009D03*
X184149969Y-70060009D03*
%TD*%
D53*
%TO.C,D92*%
X61499372Y-156503242D03*
X67174310Y-156574450D03*
X66811964Y-157926746D03*
%TD*%
D34*
%TO.C,D31*%
X228182801Y-92191443D03*
X227639281Y-90162999D03*
%TD*%
D82*
%TO.C,D76*%
X101599320Y-101702060D03*
X95924382Y-101630852D03*
X96286728Y-100278556D03*
%TD*%
D66*
%TO.C,C119*%
X172424969Y-95349990D03*
X173974969Y-95349990D03*
%TD*%
D42*
%TO.C,U9*%
X186499960Y-67900006D03*
D43*
X185749960Y-68850006D03*
X186249960Y-68850006D03*
X186749960Y-68850006D03*
X187249960Y-68850006D03*
X187249960Y-66950006D03*
X186749960Y-66950006D03*
X186249960Y-66950006D03*
X185749960Y-66950006D03*
%TD*%
D75*
%TO.C,D102*%
X262021837Y-179347856D03*
X266084977Y-175385420D03*
X266784977Y-176597856D03*
%TD*%
D27*
%TO.C,SW55*%
X331507676Y-146144920D03*
D33*
X334697162Y-145290299D03*
X322868039Y-151089504D03*
D27*
X326031447Y-150241873D03*
D29*
X325462122Y-153024025D03*
D30*
X330369025Y-151709224D03*
D29*
X335275928Y-150394423D03*
%TD*%
D78*
%TO.C,C16*%
X210775990Y-73969057D03*
X211454812Y-73290235D03*
%TD*%
D27*
%TO.C,SW48*%
X302013153Y-109673423D03*
D33*
X305202639Y-108818802D03*
X293373516Y-114618007D03*
D27*
X296536924Y-113770376D03*
D29*
X295967599Y-116552528D03*
D30*
X300874502Y-115237727D03*
D29*
X305781405Y-113922926D03*
%TD*%
D34*
%TO.C,D43*%
X272996612Y-112231875D03*
X272453092Y-110203431D03*
%TD*%
%TO.C,D52*%
X307127724Y-92403734D03*
X306584204Y-90375290D03*
%TD*%
D59*
%TO.C,C74*%
X135510982Y-180232868D03*
X136342366Y-180712868D03*
%TD*%
D44*
%TO.C,D121*%
X299713222Y-100278577D03*
X294762976Y-103054377D03*
X294400630Y-101702081D03*
%TD*%
D20*
%TO.C,H5*%
X172699992Y-67557209D03*
%TD*%
D40*
%TO.C,D29*%
X139309521Y-143718900D03*
X139853041Y-141690456D03*
%TD*%
D25*
%TO.C,R25*%
X184699965Y-91710007D03*
X184699965Y-90690007D03*
%TD*%
D53*
%TO.C,D83*%
X127795674Y-129892776D03*
X133470612Y-129963984D03*
X133108266Y-131316280D03*
%TD*%
D124*
%TO.C,D136*%
X182237742Y-152505513D03*
X178839552Y-147959933D03*
X180132983Y-147424176D03*
%TD*%
D53*
%TO.C,D70*%
X120282969Y-84326944D03*
X125957907Y-84398152D03*
X125595561Y-85750448D03*
%TD*%
D54*
%TO.C,D40*%
X252329635Y-171260466D03*
X251279635Y-169441812D03*
%TD*%
D58*
%TO.C,D115*%
X280265391Y-122552224D03*
X285215637Y-119776424D03*
X285577983Y-121128720D03*
%TD*%
D82*
%TO.C,D90*%
X53087625Y-135543175D03*
X47412687Y-135471967D03*
X47775033Y-134119671D03*
%TD*%
D70*
%TO.C,C78*%
X227300795Y-182637755D03*
X228132179Y-182157755D03*
%TD*%
D50*
%TO.C,C39*%
X190799967Y-85325003D03*
X190799967Y-86875003D03*
%TD*%
D125*
%TO.C,Y1*%
X212571111Y-81773231D03*
X214126746Y-83328866D03*
X215328827Y-82126785D03*
X213773192Y-80571150D03*
%TD*%
D78*
%TO.C,C25*%
X200610561Y-67089421D03*
X201289383Y-66410599D03*
%TD*%
D53*
%TO.C,D72*%
X155235797Y-101088292D03*
X160910735Y-101159500D03*
X160548389Y-102511796D03*
%TD*%
D64*
%TO.C,C18*%
X202339376Y-82391456D03*
X201660554Y-83070278D03*
%TD*%
D27*
%TO.C,SW53*%
X321646674Y-109343132D03*
D33*
X324836160Y-108488511D03*
X313007037Y-114287716D03*
D27*
X316170445Y-113440085D03*
D29*
X315601120Y-116222237D03*
D30*
X320508023Y-114907436D03*
D29*
X325414926Y-113592635D03*
%TD*%
D27*
%TO.C,SW35*%
X242800583Y-180659756D03*
D126*
X245135448Y-178324889D03*
X237790730Y-189261709D03*
D27*
X240106506Y-186945936D03*
D29*
X241004532Y-189640012D03*
D30*
X244596634Y-186047910D03*
D29*
X248188736Y-182455808D03*
%TD*%
D27*
%TO.C,SW34*%
X252562746Y-145932628D03*
D33*
X255752232Y-145078007D03*
X243923109Y-150877212D03*
D27*
X247086517Y-150029581D03*
D29*
X246517192Y-152811733D03*
D30*
X251424095Y-151496932D03*
D29*
X256330998Y-150182131D03*
%TD*%
D50*
%TO.C,C42*%
X203999966Y-86425006D03*
X203999966Y-87975006D03*
%TD*%
D65*
%TO.C,R11*%
X206209975Y-135300009D03*
X205189975Y-135300009D03*
%TD*%
%TO.C,R13*%
X171609992Y-87099997D03*
X170589992Y-87099997D03*
%TD*%
D71*
%TO.C,D25*%
X131372766Y-164160474D03*
X132422766Y-162341820D03*
%TD*%
D40*
%TO.C,D24*%
X121730401Y-135721560D03*
X122273921Y-133693116D03*
%TD*%
D82*
%TO.C,D85*%
X146119228Y-156362180D03*
X140444290Y-156290972D03*
X140806636Y-154938676D03*
%TD*%
D127*
%TO.C,R31*%
X190112467Y-65100010D03*
X188287467Y-65100010D03*
%TD*%
D25*
%TO.C,R3*%
X214449966Y-113760011D03*
X214449966Y-112740011D03*
%TD*%
D50*
%TO.C,C26*%
X205099967Y-139325011D03*
X205099967Y-140875011D03*
%TD*%
D40*
%TO.C,D26*%
X154101028Y-88516219D03*
X154644548Y-86487775D03*
%TD*%
D51*
%TO.C,C95*%
X306715754Y-119573642D03*
X307643042Y-119325176D03*
%TD*%
D34*
%TO.C,D38*%
X255622929Y-120995895D03*
X255079409Y-118967451D03*
%TD*%
D35*
%TO.C,J6*%
X189749968Y-92237506D03*
X206249968Y-92237506D03*
D36*
X205249968Y-89737506D03*
X204749968Y-89737506D03*
X204249968Y-89737506D03*
X203749968Y-89737506D03*
X203249968Y-89737506D03*
X202749968Y-89737506D03*
X202249968Y-89737506D03*
X201749968Y-89737506D03*
X201249968Y-89737506D03*
X200749968Y-89737506D03*
X200249968Y-89737506D03*
X199749968Y-89737506D03*
X199249968Y-89737506D03*
X198749968Y-89737506D03*
X198249968Y-89737506D03*
X197749968Y-89737506D03*
X197249968Y-89737506D03*
X196749968Y-89737506D03*
X196249968Y-89737506D03*
X195749968Y-89737506D03*
X195249968Y-89737506D03*
X194749968Y-89737506D03*
X194249968Y-89737506D03*
X193749968Y-89737506D03*
X193249968Y-89737506D03*
X192749968Y-89737506D03*
X192249968Y-89737506D03*
X191749968Y-89737506D03*
X191249968Y-89737506D03*
X190749968Y-89737506D03*
%TD*%
D44*
%TO.C,D119*%
X338363912Y-97317886D03*
X333413666Y-100093686D03*
X333051320Y-98741390D03*
%TD*%
D24*
%TO.C,C1*%
X216949971Y-113730004D03*
X216949971Y-112770004D03*
%TD*%
D27*
%TO.C,SW42*%
X277654569Y-92369512D03*
D33*
X280844055Y-91514891D03*
X269014932Y-97314096D03*
D27*
X272178340Y-96466465D03*
D29*
X271609015Y-99248617D03*
D30*
X276515918Y-97933816D03*
D29*
X281422821Y-96619015D03*
%TD*%
D49*
%TO.C,C69*%
X46065344Y-133661569D03*
X45138056Y-133413103D03*
%TD*%
D53*
%TO.C,D81*%
X90993887Y-120031739D03*
X96668825Y-120102947D03*
X96306479Y-121455243D03*
%TD*%
D51*
%TO.C,C104*%
X242473848Y-100630201D03*
X243401136Y-100381735D03*
%TD*%
D79*
%TO.C,C121*%
X172149971Y-99149990D03*
X174049971Y-99149990D03*
%TD*%
D40*
%TO.C,D5*%
X41347405Y-141300768D03*
X41890925Y-139272324D03*
%TD*%
D128*
%TO.C,U13*%
X188062467Y-61400009D03*
X188062467Y-63300009D03*
X190337467Y-63300009D03*
X190337467Y-62350009D03*
X190337467Y-61400009D03*
%TD*%
D27*
%TO.C,SW56*%
X330802862Y-69910970D03*
D33*
X333992348Y-69056349D03*
X322163225Y-74855554D03*
D27*
X325326633Y-74007923D03*
D29*
X324757308Y-76790075D03*
D30*
X329664211Y-75475274D03*
D29*
X334571114Y-74160473D03*
%TD*%
D44*
%TO.C,D107*%
X348224931Y-134119676D03*
X343274685Y-136895476D03*
X342912339Y-135543180D03*
%TD*%
D82*
%TO.C,D77*%
X81965815Y-101371775D03*
X76290877Y-101300567D03*
X76653223Y-99948271D03*
%TD*%
D53*
%TO.C,D82*%
X110421947Y-121128721D03*
X116096885Y-121199929D03*
X115734539Y-122552225D03*
%TD*%
D129*
%TO.C,D30*%
X150731564Y-176678751D03*
X152216488Y-175193827D03*
%TD*%
D112*
%TO.C,R7*%
X200568901Y-73583689D03*
X199847653Y-72862441D03*
%TD*%
D27*
%TO.C,SW64*%
X200539991Y-199969997D03*
D38*
X203841990Y-199969996D03*
X190914990Y-202509996D03*
D27*
X194189991Y-202509997D03*
D30*
X186093741Y-196794997D03*
D29*
X192919991Y-205049997D03*
D30*
X197999991Y-205049997D03*
D29*
X203079991Y-205049997D03*
D30*
X209906241Y-196794997D03*
%TD*%
D56*
%TO.C,C62*%
X134817962Y-131774392D03*
X135745250Y-132022858D03*
%TD*%
D130*
%TO.C,U3*%
X176049991Y-70449996D03*
X176049991Y-71749996D03*
X177949991Y-71749996D03*
X177949991Y-71099996D03*
X177949991Y-70449996D03*
%TD*%
D24*
%TO.C,C27*%
X206399969Y-141180011D03*
X206399969Y-140220011D03*
%TD*%
D34*
%TO.C,D51*%
X302197208Y-74002831D03*
X301653688Y-71974387D03*
%TD*%
D49*
%TO.C,C53*%
X131378816Y-109681439D03*
X130451528Y-109432973D03*
%TD*%
D27*
%TO.C,SW36*%
X255350370Y-82732665D03*
D33*
X258539856Y-81878044D03*
X246710733Y-87677249D03*
D27*
X249874141Y-86829618D03*
D29*
X249304816Y-89611770D03*
D30*
X254211719Y-88296969D03*
D29*
X259118622Y-86982168D03*
%TD*%
D27*
%TO.C,SW39*%
X270141884Y-137935321D03*
D33*
X273331370Y-137080700D03*
X261502247Y-142879905D03*
D27*
X264665655Y-142032274D03*
D29*
X264096330Y-144814426D03*
D30*
X269003233Y-143499625D03*
D29*
X273910136Y-142184824D03*
%TD*%
D82*
%TO.C,D88*%
X91738320Y-138503845D03*
X86063382Y-138432637D03*
X86425728Y-137080341D03*
%TD*%
D27*
%TO.C,SW32*%
X242701742Y-109130863D03*
D33*
X245891228Y-108276242D03*
X234062105Y-114075447D03*
D27*
X237225513Y-113227816D03*
D29*
X236656188Y-116009968D03*
D30*
X241563091Y-114695167D03*
D29*
X246469994Y-113380366D03*
%TD*%
D40*
%TO.C,D12*%
X94789619Y-89058782D03*
X95333139Y-87030338D03*
%TD*%
D131*
%TO.C,D141*%
X188099966Y-89450011D03*
X188099966Y-91550011D03*
%TD*%
D56*
%TO.C,C48*%
X107877176Y-85111604D03*
X108804464Y-85360070D03*
%TD*%
D34*
%TO.C,D45*%
X272850189Y-160754396D03*
X272306669Y-158725952D03*
%TD*%
D82*
%TO.C,D78*%
X62948624Y-98741395D03*
X57273686Y-98670187D03*
X57636032Y-97317891D03*
%TD*%
D34*
%TO.C,D44*%
X277927125Y-130632739D03*
X277383605Y-128604295D03*
%TD*%
D62*
%TO.C,C41*%
X194174970Y-87937510D03*
X192624970Y-87937510D03*
%TD*%
D40*
%TO.C,D15*%
X79998112Y-144261437D03*
X80541632Y-142232993D03*
%TD*%
%TO.C,D13*%
X89859119Y-107459660D03*
X90402639Y-105431216D03*
%TD*%
D44*
%TO.C,D123*%
X262911455Y-110139586D03*
X257961209Y-112915386D03*
X257598863Y-111563090D03*
%TD*%
D46*
%TO.C,C102*%
X255889179Y-112021195D03*
X254961891Y-112269661D03*
%TD*%
D45*
%TO.C,R17*%
X183749968Y-65700005D03*
X184769968Y-65700005D03*
%TD*%
D132*
%TO.C,D135*%
X193575802Y-160866993D03*
X187958708Y-160055665D03*
X188494465Y-158762234D03*
%TD*%
D40*
%TO.C,D20*%
X109433622Y-157079160D03*
X109977142Y-155050716D03*
%TD*%
D58*
%TO.C,D126*%
X253030689Y-94514502D03*
X257980935Y-91738702D03*
X258343281Y-93090998D03*
%TD*%
D49*
%TO.C,C57*%
X55926345Y-96859780D03*
X54999057Y-96611314D03*
%TD*%
D51*
%TO.C,C83*%
X316576759Y-156375421D03*
X317504047Y-156126955D03*
%TD*%
D62*
%TO.C,C32*%
X192874971Y-66850007D03*
X191324971Y-66850007D03*
%TD*%
M02*
