M48
; DRILL file {KiCad (7.0.0)} date Fri Mar 31 07:04:06 2023
; FORMAT={-:-/ absolute / inch / decimal}
; #@! TF.CreationDate,2023-03-31T07:04:06+01:00
; #@! TF.GenerationSoftware,Kicad,Pcbnew,(7.0.0)
; #@! TF.FileFunction,Plated,1,2,PTH
FMAT,2
INCH
; #@! TA.AperFunction,Plated,PTH,ViaDrill
T1C0.0098
; #@! TA.AperFunction,Plated,PTH,ViaDrill
T2C0.0118
; #@! TA.AperFunction,Plated,PTH,ComponentDrill
T3C0.0118
; #@! TA.AperFunction,Plated,PTH,ComponentDrill
T4C0.0236
; #@! TA.AperFunction,Plated,PTH,ComponentDrill
T5C0.0276
; #@! TA.AperFunction,Plated,PTH,ComponentDrill
T6C0.0295
; #@! TA.AperFunction,Plated,PTH,ComponentDrill
T7C0.0394
; #@! TA.AperFunction,Plated,PTH,ComponentDrill
T8C0.0413
; #@! TA.AperFunction,Plated,PTH,ComponentDrill
T9C0.0591
; #@! TA.AperFunction,Plated,PTH,ComponentDrill
T10C0.0787
; #@! TA.AperFunction,Plated,PTH,ComponentDrill
T11C0.1260
%
G90
G05
T1
X1.602Y-4.4157
X1.8585Y-3.7109
X2.115Y-3.0061
X2.3388Y-4.5841
X2.3715Y-2.3014
X2.5953Y-3.8793
X2.628Y-1.4098
X2.628Y-1.5966
X2.8518Y-3.1745
X3.1077Y-4.6644
X3.1083Y-2.4698
X3.3642Y-3.9596
X3.3649Y-1.765
X3.365Y-1.5787
X3.6207Y-3.2549
X3.8772Y-2.5501
X4.1224Y-4.0693
X4.1338Y-1.8453
X4.1339Y-1.6591
X4.2182Y-5.2681
X4.3789Y-3.3646
X4.6355Y-2.6598
X4.7738Y-4.4727
X4.892Y-1.955
X4.8921Y-1.7693
X4.9983Y-5.7608
X5.0303Y-3.7679
X5.2868Y-3.0631
X5.4358Y-4.8466
X5.5433Y-2.3584
X5.5433Y-2.1717
X5.5861Y-4.7806
X5.6056Y-4.7269
X5.6196Y-6.4376
X5.6923Y-4.1419
X5.928Y-6.4093
X5.9449Y-6.3479
X5.9488Y-3.4371
X6.0381Y-6.2786
X6.0381Y-6.5588
X6.0991Y-3.371
X6.1173Y-3.3211
X6.1177Y-3.2472
X6.2051Y-2.5457
X6.2053Y-2.7323
X6.3697Y-3.3389
X6.5059Y-1.7269
X6.5118Y-5.0906
X6.5787Y-3.8094
X6.5787Y-2.5551
X6.5827Y-1.8506
X6.626Y-1.7913
X6.6421Y-5.2205
X6.6496Y-1.7681
X6.6929Y-2.5551
X6.7559Y-2.0276
X6.7717Y-2.1535
X6.7913Y-2.063
X6.8189Y-3.2293
X6.8504Y-1.2421
X6.8504Y-3.0827
X6.8543Y-0.9143
X6.8612Y-2.2077
X6.8859Y-1.6969
X6.8878Y-4.7502
X6.8917Y-1.124
X6.8957Y-1.0748
X6.9291Y-3.8094
X6.9429Y-1.0747
X6.9502Y-4.752
X6.9587Y-4.5967
X6.9961Y-4.3976
X7.0039Y-4.4724
X7.0039Y-0.9143
X7.0049Y-1.8211
X7.0079Y-3.0827
X7.0136Y-4.5965
X7.0138Y-4.5652
X7.0156Y-1.6645
X7.0768Y-4.5652
X7.1083Y-1.5138
X7.122Y-3.7382
X7.122Y-3.8898
X7.122Y-4.2126
X7.1224Y-4.2878
X7.1457Y-4.2283
X7.2756Y-4.5358
X7.3583Y-1.7657
X7.6333Y-3.355
X7.7229Y-3.3553
X7.7351Y-3.3214
X7.7539Y-3.3732
X7.874Y-6.2783
X7.874Y-6.3734
X7.8743Y-4.0187
X7.9448Y-4.0191
X8.0035Y-2.4185
X8.1471Y-4.7653
X8.2111Y-2.5292
X8.2364Y-4.7648
X8.2481Y-4.7309
X8.267Y-4.7827
X8.4676Y-3.234
X8.5406Y-2.0902
X8.6204Y-5.9826
X8.7241Y-3.9387
X8.8731Y-2.1552
X8.9806Y-4.6435
X9.1296Y-2.86
X9.2169Y-1.6776
X9.3465Y-5.4202
X9.3861Y-3.5648
X9.5244Y-1.7519
X9.6426Y-4.2695
X9.7809Y-2.4566
X9.9791Y-1.5661
X10.0374Y-3.1614
X10.1982Y-5.065
X10.2826Y-1.6422
X10.294Y-3.8662
X10.5391Y-2.347
X10.7957Y-3.0517
X10.8102Y-1.4634
X11.0515Y-1.5619
X11.0522Y-3.7565
X11.308Y-2.2666
X11.3087Y-4.4613
X11.4921Y-1.3157
X11.5646Y-2.9714
X11.7884Y-1.3934
X11.8211Y-3.6762
X12.0449Y-2.0982
X12.0776Y-4.3809
X12.3014Y-2.803
X12.5579Y-3.5078
X12.8144Y-4.2125
T2
X1.0266Y-4.6021
X1.0352Y-4.5784
X1.0503Y-4.6107
X1.0589Y-4.587
X1.2343Y-3.8814
X1.244Y-3.8546
X1.3937Y-4.796
X1.4034Y-4.7692
X1.5397Y-3.1925
X1.5483Y-3.1689
X1.5633Y-3.2012
X1.5719Y-3.1775
X1.5788Y-4.0636
X1.5874Y-4.0399
X1.6024Y-4.0722
X1.611Y-4.0485
X1.7473Y-2.4719
X1.757Y-2.445
X1.7635Y-4.7705
X1.7721Y-4.7468
X1.7871Y-4.7791
X1.7958Y-4.7554
X1.9067Y-3.3865
X1.9164Y-3.3596
X1.9711Y-4.0498
X1.9808Y-4.023
X2.0527Y-1.783
X2.0613Y-1.7593
X2.0764Y-1.7916
X2.085Y-1.7679
X2.0918Y-2.654
X2.1004Y-2.6303
X2.1155Y-2.6626
X2.1241Y-2.639
X2.1305Y-4.9644
X2.1403Y-4.9376
X2.2765Y-3.361
X2.2851Y-3.3373
X2.3002Y-3.3696
X2.3088Y-3.3459
X2.3156Y-4.232
X2.3242Y-4.2083
X2.3393Y-4.2406
X2.3479Y-4.2169
X2.4197Y-1.9769
X2.4295Y-1.9501
X2.4841Y-2.6403
X2.4939Y-2.6135
X2.5324Y-4.8508
X2.541Y-4.8271
X2.556Y-4.8594
X2.5647Y-4.8358
X2.6435Y-3.5549
X2.6533Y-3.5281
X2.74Y-4.1301
X2.7497Y-4.1033
X2.7895Y-1.9514
X2.7981Y-1.9277
X2.8132Y-1.96
X2.8218Y-1.9364
X2.8286Y-2.8224
X2.8372Y-2.7988
X2.8523Y-2.8311
X2.8609Y-2.8074
X2.8994Y-5.0447
X2.9091Y-5.0179
X3.0454Y-3.4413
X3.054Y-3.4176
X3.0691Y-3.4499
X3.0777Y-3.4262
X3.0845Y-4.3123
X3.0931Y-4.2886
X3.1082Y-4.3209
X3.1168Y-4.2972
X3.1565Y-2.1453
X3.1663Y-2.1185
X3.253Y-2.7206
X3.2628Y-2.6938
X3.4124Y-3.6352
X3.4222Y-3.6084
X3.4982Y-4.2398
X3.508Y-4.213
X3.5584Y-2.0317
X3.567Y-2.0081
X3.5821Y-2.0404
X3.5907Y-2.0167
X3.5975Y-2.9028
X3.6061Y-2.8791
X3.6212Y-2.9114
X3.6298Y-2.8877
X3.6428Y-5.4545
X3.6515Y-5.4309
X3.6665Y-5.4631
X3.6751Y-5.4395
X3.8036Y-3.551
X3.8122Y-3.5273
X3.8273Y-3.5596
X3.8359Y-3.5359
X3.8427Y-4.422
X3.8513Y-4.3983
X3.8664Y-4.4306
X3.875Y-4.4069
X3.9254Y-2.2257
X3.9352Y-2.1988
X4.0099Y-5.6485
X4.0112Y-2.8303
X4.0196Y-5.6216
X4.021Y-2.8035
X4.1495Y-4.6432
X4.1593Y-4.6163
X4.1706Y-3.7449
X4.1804Y-3.7181
X4.3166Y-2.1414
X4.3252Y-2.1177
X4.3403Y-2.15
X4.3489Y-2.1264
X4.3557Y-3.0124
X4.3643Y-2.9888
X4.3794Y-3.0211
X4.388Y-2.9974
X4.3937Y-5.7922
X4.4082Y-5.7716
X4.4144Y-5.8067
X4.4288Y-5.786
X4.4549Y-3.9543
X4.4635Y-3.9306
X4.4786Y-3.9629
X4.4872Y-3.9392
X4.494Y-4.8253
X4.5026Y-4.8016
X4.5177Y-4.8339
X4.5263Y-4.8103
X4.6626Y-3.2336
X4.6723Y-3.2068
X4.6837Y-2.3353
X4.6934Y-2.3085
X4.6981Y-6.0745
X4.7144Y-6.0511
X4.8115Y-5.0171
X4.8213Y-4.9903
X4.822Y-4.1482
X4.8317Y-4.1214
X4.968Y-2.5448
X4.9766Y-2.5211
X4.9916Y-2.5534
X5.0003Y-2.5297
X5.0071Y-3.4158
X5.0157Y-3.3921
X5.028Y-6.3114
X5.0307Y-3.4244
X5.0393Y-3.4007
X5.0442Y-6.3307
X5.0473Y-6.2952
X5.0635Y-6.3145
X5.1169Y-4.3283
X5.1256Y-4.3046
X5.1406Y-4.3369
X5.1492Y-4.3132
X5.156Y-5.1993
X5.1647Y-5.1756
X5.1797Y-5.2079
X5.1883Y-5.1842
X5.2489Y-6.6629
X5.2708Y-6.6445
X5.3246Y-3.6076
X5.3343Y-3.5808
X5.335Y-2.7387
X5.3447Y-2.7119
X5.3643Y-5.1443
X5.392Y-5.1544
X5.484Y-4.5222
X5.4937Y-4.4954
X5.5643Y-4.595
X5.5921Y-4.6051
X5.63Y-2.9187
X5.6386Y-2.8951
X5.6536Y-2.9274
X5.6623Y-2.9037
X5.6691Y-3.7898
X5.6777Y-3.7661
X5.6927Y-3.7984
X5.7014Y-3.7747
X5.8699Y-6.9736
X5.8764Y-6.9492
X5.8773Y-3.7347
X5.8942Y-6.9801
X5.9007Y-6.9557
X5.905Y-3.7448
X5.997Y-3.1127
X6.0068Y-3.0858
X6.0773Y-3.1855
X6.0937Y-5.3374
X6.0937Y-5.3122
X6.1051Y-3.1956
X6.1189Y-5.3374
X6.1189Y-5.3122
X6.1311Y-4.8317
X6.1311Y-4.8573
X6.147Y-4.9262
X6.1567Y-4.8317
X6.1567Y-4.8573
X6.1756Y-4.9262
X6.2524Y-7.1347
X6.2598Y-7.1072
X6.2627Y-5.6763
X6.277Y-5.6516
X6.2913Y-1.1978
X6.2913Y-1.2317
X6.3071Y-1.4901
X6.3071Y-1.5157
X6.3071Y-1.5413
X6.3327Y-1.4901
X6.3327Y-1.5157
X6.3327Y-1.5413
X6.3583Y-1.4901
X6.3583Y-1.5413
X6.3583Y-1.5157
X6.3847Y-4.4562
X6.3917Y-1.2559
X6.3917Y-1.2815
X6.3971Y-4.4777
X6.4092Y-4.442
X6.4173Y-1.2559
X6.4173Y-1.2815
X6.4216Y-4.4635
X6.4429Y-1.2559
X6.4429Y-1.2815
X6.4685Y-1.2559
X6.4685Y-1.2815
X6.502Y-1.4901
X6.502Y-1.5413
X6.502Y-1.5157
X6.5022Y-7.1803
X6.5022Y-7.2059
X6.5059Y-2.2913
X6.5276Y-1.5413
X6.5276Y-1.4901
X6.5276Y-1.5157
X6.5278Y-7.1803
X6.5278Y-7.2059
X6.5532Y-1.4901
X6.5532Y-1.5413
X6.5532Y-1.5157
X6.6454Y-5.9583
X6.658Y-5.9365
X6.6672Y-5.9709
X6.6757Y-1.6302
X6.6781Y-1.9528
X6.6798Y-5.9491
X6.6981Y-4.3739
X6.7008Y-1.2744
X6.7032Y-1.6302
X6.7208Y-4.3613
X6.7244Y-1.2744
X6.7333Y-1.7883
X6.7333Y-1.6496
X6.7338Y-1.6909
X6.749Y-2.7283
X6.749Y-2.8386
X6.749Y-2.7559
X6.749Y-2.7835
X6.749Y-2.811
X6.749Y-2.8661
X6.7492Y-7.137
X6.7492Y-7.1118
X6.7687Y-1.3189
X6.7744Y-7.137
X6.7744Y-7.1118
X6.7963Y-1.3189
X6.8327Y-1.0748
X6.8327Y-1.0492
X6.8405Y-1.564
X6.8551Y-4.566
X6.8551Y-4.4675
X6.8681Y-1.564
X6.8858Y-2.2632
X6.8878Y-0.8533
X6.8878Y-0.8809
X6.9154Y-0.8809
X6.9154Y-0.8533
X6.9213Y-4.2835
X6.9252Y-2.252
X6.9291Y-1.2953
X6.9291Y-1.2036
X6.9291Y-1.1239
X6.9429Y-0.8533
X6.9429Y-0.8809
X6.9705Y-0.8533
X6.9705Y-0.8809
X6.9764Y-2.3976
X6.9764Y-2.2165
X6.9764Y-2.3425
X6.9764Y-2.189
X6.9764Y-2.315
X6.9764Y-2.3701
X6.9764Y-2.1612
X6.9992Y-1.5431
X7.0039Y-2.3976
X7.0234Y-1.5098
X7.0256Y-1.0492
X7.0256Y-1.0748
X7.0277Y-2.1144
X7.0315Y-2.3976
X7.0394Y-1.5433
X7.0433Y-4.2835
X7.0797Y-1.5433
X7.1056Y-5.9257
X7.1093Y-2.7283
X7.1093Y-2.8386
X7.1093Y-2.7559
X7.1093Y-2.7835
X7.1093Y-2.811
X7.1093Y-2.8661
X7.1199Y-5.9504
X7.122Y-2.1612
X7.1378Y-1.7648
X7.1496Y-2.1614
X7.1496Y-2.3976
X7.1604Y-7.1937
X7.1604Y-7.1651
X7.1772Y-2.1614
X7.1772Y-2.3976
X7.1784Y-4.3658
X7.191Y-4.344
X7.2003Y-4.3784
X7.2047Y-2.1614
X7.2047Y-2.2165
X7.2047Y-2.3701
X7.2047Y-2.3976
X7.2047Y-2.189
X7.2047Y-2.3425
X7.2047Y-2.315
X7.2126Y-4.752
X7.2126Y-4.7805
X7.2129Y-4.3566
X7.2205Y-2.6929
X7.2362Y-5.0157
X7.2402Y-4.7805
X7.2402Y-4.752
X7.2638Y-5.0276
X7.2815Y-4.2581
X7.3219Y-1.9528
X7.3366Y-4.2502
X7.3681Y-4.3073
X7.3848Y-1.6793
X7.3848Y-1.7049
X7.4104Y-1.7049
X7.435Y-4.5927
X7.436Y-1.7049
X7.4366Y-5.8514
X7.449Y-5.8729
X7.4612Y-5.8373
X7.4616Y-1.7049
X7.4736Y-5.8587
X7.5813Y-4.6634
X7.5955Y-4.6387
X7.6353Y-7.0421
X7.6418Y-7.0664
X7.6596Y-7.0356
X7.6661Y-7.0599
X7.6827Y-5.3888
X7.7112Y-5.3888
X7.7394Y-5.0028
X7.7394Y-4.9776
X7.7533Y-3.1955
X7.7646Y-5.0028
X7.7646Y-4.9776
X7.781Y-3.1854
X7.8815Y-3.0181
X7.8902Y-3.0418
X7.9052Y-3.0095
X7.9138Y-3.0332
X7.9531Y-3.7449
X7.9809Y-3.7348
X8.0463Y-6.9872
X8.0537Y-7.0148
X8.0892Y-3.739
X8.099Y-3.7658
X8.2663Y-4.6051
X8.2862Y-2.9276
X8.2941Y-4.595
X8.296Y-2.9544
X8.3946Y-4.4277
X8.4032Y-4.4514
X8.4182Y-4.4191
X8.4269Y-4.4427
X8.4661Y-5.1544
X8.4714Y-3.6602
X8.48Y-3.6839
X8.4939Y-5.1443
X8.495Y-3.6516
X8.5037Y-3.6753
X8.5436Y-2.6442
X8.5522Y-2.6678
X8.5672Y-2.6355
X8.5758Y-2.6592
X8.5795Y-6.5708
X8.5957Y-6.5515
X8.5988Y-6.587
X8.6023Y-5.1485
X8.612Y-5.1754
X8.615Y-6.5677
X8.7513Y-3.365
X8.761Y-3.3918
X8.7992Y-4.3372
X8.809Y-4.364
X8.8847Y-6.2901
X8.9065Y-6.3084
X8.9482Y-2.5536
X8.958Y-2.5805
X8.9844Y-5.0698
X8.993Y-5.0935
X9.0081Y-5.0612
X9.0167Y-5.0848
X9.0566Y-4.0537
X9.0652Y-4.0774
X9.0803Y-4.0451
X9.0889Y-4.0688
X9.1334Y-3.2863
X9.142Y-3.3099
X9.1547Y-5.9777
X9.1571Y-3.2777
X9.1657Y-3.3013
X9.1692Y-5.9984
X9.1753Y-5.9633
X9.1898Y-5.9839
X9.1949Y-2.2408
X9.2035Y-2.2645
X9.2186Y-2.2322
X9.2272Y-2.2559
X9.2643Y-4.7746
X9.274Y-4.8014
X9.4026Y-2.9617
X9.4123Y-2.9885
X9.4613Y-3.9632
X9.471Y-3.99
X9.5222Y-5.7856
X9.5385Y-5.809
X9.5995Y-2.1503
X9.6093Y-2.1771
X9.6464Y-4.6958
X9.655Y-4.7195
X9.6701Y-4.6872
X9.6787Y-4.7109
X9.7079Y-3.6504
X9.7165Y-3.674
X9.7316Y-3.6417
X9.7402Y-3.6654
X9.7847Y-2.8829
X9.7933Y-2.9066
X9.8084Y-2.8743
X9.817Y-2.898
X9.8687Y-5.5539
X9.8773Y-5.5776
X9.8923Y-5.5453
X9.901Y-5.569
X9.9156Y-4.3712
X9.9254Y-4.398
X9.9531Y-2.1311
X9.9617Y-2.1548
X9.9768Y-2.1225
X9.9854Y-2.1462
X10.1126Y-3.5598
X10.1223Y-3.5867
X10.1608Y-2.852
X10.1706Y-2.8788
X10.2732Y-5.463
X10.283Y-5.4899
X10.2977Y-4.2925
X10.3064Y-4.3161
X10.3214Y-4.2838
X10.33Y-4.3075
X10.3578Y-2.0406
X10.3675Y-2.0674
X10.4661Y-3.5407
X10.4747Y-3.5643
X10.4898Y-3.5321
X10.4984Y-3.5557
X10.5429Y-2.7732
X10.5515Y-2.7969
X10.5666Y-2.7646
X10.5752Y-2.7883
X10.6738Y-4.2615
X10.6836Y-4.2884
X10.722Y-2.0508
X10.7306Y-2.0745
X10.7457Y-2.0422
X10.7543Y-2.0659
X10.8708Y-3.4502
X10.8806Y-3.477
X10.9297Y-2.7717
X10.9395Y-2.7985
X10.9792Y-4.9502
X10.9878Y-4.9739
X11.0028Y-4.9416
X11.0114Y-4.9653
X11.056Y-4.1828
X11.0646Y-4.2065
X11.0796Y-4.1742
X11.0882Y-4.1978
X11.1267Y-1.9603
X11.1364Y-1.9871
X11.235Y-3.4603
X11.2436Y-3.484
X11.2587Y-3.4517
X11.2673Y-3.4754
X11.3118Y-2.6929
X11.3204Y-2.7166
X11.3355Y-2.6843
X11.3441Y-2.708
X11.3838Y-4.8597
X11.3936Y-4.8865
X11.4427Y-4.1812
X11.4525Y-4.208
X11.4588Y-1.8824
X11.4674Y-1.9061
X11.4825Y-1.8738
X11.4911Y-1.8975
X11.6397Y-3.3698
X11.6495Y-3.3967
X11.6665Y-2.6033
X11.6763Y-2.6301
X11.7481Y-4.8699
X11.7567Y-4.8936
X11.7717Y-4.8613
X11.7803Y-4.8849
X11.8249Y-4.1025
X11.8335Y-4.1261
X11.8485Y-4.0938
X11.8571Y-4.1175
X11.8635Y-1.7919
X11.8733Y-1.8187
X11.9719Y-3.2919
X11.9805Y-3.3156
X11.9955Y-3.2833
X12.0042Y-3.307
X12.0487Y-2.5245
X12.0573Y-2.5482
X12.0723Y-2.5159
X12.081Y-2.5396
X12.1527Y-4.7794
X12.1625Y-4.8062
X12.1796Y-4.0128
X12.1893Y-4.0396
X12.3765Y-3.2014
X12.3863Y-3.2282
X12.4849Y-4.7015
X12.4935Y-4.7251
X12.5086Y-4.6929
X12.5172Y-4.7165
X12.5617Y-3.934
X12.5703Y-3.9577
X12.5854Y-3.9254
X12.594Y-3.9491
X12.8896Y-4.611
X12.8993Y-4.6378
T3
X6.9252Y-1.8622
X6.9252Y-1.9134
X6.9252Y-1.9646
X6.9764Y-1.8622
X6.9764Y-1.9134
X6.9764Y-1.9646
X7.0276Y-1.8622
X7.0276Y-1.9134
X7.0276Y-1.9646
T5
X6.7185Y-4.9697
X6.7185Y-5.0398
X6.7185Y-5.1098
X6.7185Y-5.1799
X6.7185Y-5.25
X6.7185Y-5.3201
X6.7185Y-5.3902
X6.7185Y-5.4602
X7.1398Y-4.9346
X7.1398Y-5.0047
X7.1398Y-5.0748
X7.1398Y-5.1449
X7.1398Y-5.215
X7.1398Y-5.285
X7.1398Y-5.3551
X7.1398Y-5.4252
T6
X5.9862Y-1.4252
X5.9862Y-1.504
X5.9862Y-1.5827
X5.9862Y-1.6614
X5.9862Y-1.7402
X5.9862Y-1.8189
X5.9862Y-1.8977
T7
X6.1417Y-1.3614
X6.1417Y-1.4614
X6.1417Y-1.5614
X6.1417Y-1.6614
X6.1417Y-1.7614
X6.1417Y-1.8614
X6.1417Y-1.9614
X6.7756Y-2.5039
X6.8756Y-2.5039
X6.9756Y-2.5039
X7.0756Y-2.5039
T8
X6.8307Y-3.9528
X6.9291Y-3.9528
X7.0276Y-3.9528
T10
X6.1516Y-1.0314
X6.1516Y-2.2913
X6.3346Y-4.1278
X6.3346Y-6.1872
X7.5236Y-4.1278
X7.5236Y-6.1872
X7.7067Y-1.0314
X7.7067Y-2.2913
T11
X6.3583Y-5.1575
X7.5Y-5.1575
T4
G00X6.7591Y-0.8189
M15
G01X6.7591Y-0.7953
M16
G05
G00X6.7591Y-0.9933
M15
G01X6.7591Y-0.95
M16
G05
G00X7.0992Y-0.8189
M15
G01X7.0992Y-0.7953
M16
G05
G00X7.0992Y-0.9933
M15
G01X7.0992Y-0.95
M16
G05
T9
G00X5.7441Y-5.0886
M15
G01X5.7441Y-5.2264
M16
G05
G00X8.1142Y-5.0886
M15
G01X8.1142Y-5.2264
M16
G05
T0
M30
