%TF.GenerationSoftware,KiCad,Pcbnew,(7.0.0)*%
%TF.CreationDate,2023-03-10T21:47:00+00:00*%
%TF.ProjectId,Honeydew,486f6e65-7964-4657-972e-6b696361645f,rev?*%
%TF.SameCoordinates,Original*%
%TF.FileFunction,Legend,Top*%
%TF.FilePolarity,Positive*%
%FSLAX46Y46*%
G04 Gerber Fmt 4.6, Leading zero omitted, Abs format (unit mm)*
G04 Created by KiCad (PCBNEW (7.0.0)) date 2023-03-10 21:47:00*
%MOMM*%
%LPD*%
G01*
G04 APERTURE LIST*
%ADD10C,0.150000*%
%ADD11C,0.300000*%
%ADD12C,0.120000*%
%ADD13C,0.100000*%
%ADD14C,2.000000*%
%ADD15R,2.500000X6.000000*%
%ADD16C,3.500000*%
%ADD17C,5.600000*%
%ADD18C,1.152000*%
%ADD19C,0.650000*%
%ADD20R,0.600000X1.450000*%
%ADD21R,0.300000X1.450000*%
%ADD22O,1.000000X2.100000*%
%ADD23O,1.000000X1.600000*%
%ADD24R,1.700000X1.700000*%
%ADD25O,1.700000X1.700000*%
%ADD26C,4.000000*%
%ADD27C,1.750000*%
%ADD28C,3.000000*%
%ADD29C,3.987800*%
%ADD30R,1.200000X1.200000*%
%ADD31C,1.200000*%
G04 APERTURE END LIST*
D10*
X150188098Y-46642381D02*
X150188098Y-45642381D01*
X150188098Y-45642381D02*
X150426193Y-45642381D01*
X150426193Y-45642381D02*
X150569050Y-45690001D01*
X150569050Y-45690001D02*
X150664288Y-45785239D01*
X150664288Y-45785239D02*
X150711907Y-45880477D01*
X150711907Y-45880477D02*
X150759526Y-46070953D01*
X150759526Y-46070953D02*
X150759526Y-46213810D01*
X150759526Y-46213810D02*
X150711907Y-46404286D01*
X150711907Y-46404286D02*
X150664288Y-46499524D01*
X150664288Y-46499524D02*
X150569050Y-46594762D01*
X150569050Y-46594762D02*
X150426193Y-46642381D01*
X150426193Y-46642381D02*
X150188098Y-46642381D01*
X151759526Y-46547143D02*
X151711907Y-46594762D01*
X151711907Y-46594762D02*
X151569050Y-46642381D01*
X151569050Y-46642381D02*
X151473812Y-46642381D01*
X151473812Y-46642381D02*
X151330955Y-46594762D01*
X151330955Y-46594762D02*
X151235717Y-46499524D01*
X151235717Y-46499524D02*
X151188098Y-46404286D01*
X151188098Y-46404286D02*
X151140479Y-46213810D01*
X151140479Y-46213810D02*
X151140479Y-46070953D01*
X151140479Y-46070953D02*
X151188098Y-45880477D01*
X151188098Y-45880477D02*
X151235717Y-45785239D01*
X151235717Y-45785239D02*
X151330955Y-45690001D01*
X151330955Y-45690001D02*
X151473812Y-45642381D01*
X151473812Y-45642381D02*
X151569050Y-45642381D01*
X151569050Y-45642381D02*
X151711907Y-45690001D01*
X151711907Y-45690001D02*
X151759526Y-45737620D01*
X149278578Y-39017382D02*
X149278578Y-38017382D01*
X149278578Y-38017382D02*
X149611911Y-38731668D01*
X149611911Y-38731668D02*
X149945244Y-38017382D01*
X149945244Y-38017382D02*
X149945244Y-39017382D01*
X150611911Y-38017382D02*
X150802387Y-38017382D01*
X150802387Y-38017382D02*
X150897625Y-38065002D01*
X150897625Y-38065002D02*
X150992863Y-38160240D01*
X150992863Y-38160240D02*
X151040482Y-38350716D01*
X151040482Y-38350716D02*
X151040482Y-38684049D01*
X151040482Y-38684049D02*
X150992863Y-38874525D01*
X150992863Y-38874525D02*
X150897625Y-38969763D01*
X150897625Y-38969763D02*
X150802387Y-39017382D01*
X150802387Y-39017382D02*
X150611911Y-39017382D01*
X150611911Y-39017382D02*
X150516673Y-38969763D01*
X150516673Y-38969763D02*
X150421435Y-38874525D01*
X150421435Y-38874525D02*
X150373816Y-38684049D01*
X150373816Y-38684049D02*
X150373816Y-38350716D01*
X150373816Y-38350716D02*
X150421435Y-38160240D01*
X150421435Y-38160240D02*
X150516673Y-38065002D01*
X150516673Y-38065002D02*
X150611911Y-38017382D01*
X151421435Y-38969763D02*
X151564292Y-39017382D01*
X151564292Y-39017382D02*
X151802387Y-39017382D01*
X151802387Y-39017382D02*
X151897625Y-38969763D01*
X151897625Y-38969763D02*
X151945244Y-38922144D01*
X151945244Y-38922144D02*
X151992863Y-38826906D01*
X151992863Y-38826906D02*
X151992863Y-38731668D01*
X151992863Y-38731668D02*
X151945244Y-38636430D01*
X151945244Y-38636430D02*
X151897625Y-38588811D01*
X151897625Y-38588811D02*
X151802387Y-38541192D01*
X151802387Y-38541192D02*
X151611911Y-38493573D01*
X151611911Y-38493573D02*
X151516673Y-38445954D01*
X151516673Y-38445954D02*
X151469054Y-38398335D01*
X151469054Y-38398335D02*
X151421435Y-38303097D01*
X151421435Y-38303097D02*
X151421435Y-38207859D01*
X151421435Y-38207859D02*
X151469054Y-38112621D01*
X151469054Y-38112621D02*
X151516673Y-38065002D01*
X151516673Y-38065002D02*
X151611911Y-38017382D01*
X151611911Y-38017382D02*
X151850006Y-38017382D01*
X151850006Y-38017382D02*
X151992863Y-38065002D01*
X152421435Y-39017382D02*
X152421435Y-38017382D01*
X173547619Y-57967380D02*
X173738095Y-57967380D01*
X173738095Y-57967380D02*
X173833333Y-58015000D01*
X173833333Y-58015000D02*
X173928571Y-58110238D01*
X173928571Y-58110238D02*
X173976190Y-58300714D01*
X173976190Y-58300714D02*
X173976190Y-58634047D01*
X173976190Y-58634047D02*
X173928571Y-58824523D01*
X173928571Y-58824523D02*
X173833333Y-58919761D01*
X173833333Y-58919761D02*
X173738095Y-58967380D01*
X173738095Y-58967380D02*
X173547619Y-58967380D01*
X173547619Y-58967380D02*
X173452381Y-58919761D01*
X173452381Y-58919761D02*
X173357143Y-58824523D01*
X173357143Y-58824523D02*
X173309524Y-58634047D01*
X173309524Y-58634047D02*
X173309524Y-58300714D01*
X173309524Y-58300714D02*
X173357143Y-58110238D01*
X173357143Y-58110238D02*
X173452381Y-58015000D01*
X173452381Y-58015000D02*
X173547619Y-57967380D01*
X174880952Y-58967380D02*
X174404762Y-58967380D01*
X174404762Y-58967380D02*
X174404762Y-57967380D01*
X175214286Y-58443571D02*
X175547619Y-58443571D01*
X175690476Y-58967380D02*
X175214286Y-58967380D01*
X175214286Y-58967380D02*
X175214286Y-57967380D01*
X175214286Y-57967380D02*
X175690476Y-57967380D01*
X176119048Y-58967380D02*
X176119048Y-57967380D01*
X176119048Y-57967380D02*
X176357143Y-57967380D01*
X176357143Y-57967380D02*
X176500000Y-58015000D01*
X176500000Y-58015000D02*
X176595238Y-58110238D01*
X176595238Y-58110238D02*
X176642857Y-58205476D01*
X176642857Y-58205476D02*
X176690476Y-58395952D01*
X176690476Y-58395952D02*
X176690476Y-58538809D01*
X176690476Y-58538809D02*
X176642857Y-58729285D01*
X176642857Y-58729285D02*
X176595238Y-58824523D01*
X176595238Y-58824523D02*
X176500000Y-58919761D01*
X176500000Y-58919761D02*
X176357143Y-58967380D01*
X176357143Y-58967380D02*
X176119048Y-58967380D01*
X150402382Y-49192380D02*
X150069049Y-48716190D01*
X149830954Y-49192380D02*
X149830954Y-48192380D01*
X149830954Y-48192380D02*
X150211906Y-48192380D01*
X150211906Y-48192380D02*
X150307144Y-48240000D01*
X150307144Y-48240000D02*
X150354763Y-48287619D01*
X150354763Y-48287619D02*
X150402382Y-48382857D01*
X150402382Y-48382857D02*
X150402382Y-48525714D01*
X150402382Y-48525714D02*
X150354763Y-48620952D01*
X150354763Y-48620952D02*
X150307144Y-48668571D01*
X150307144Y-48668571D02*
X150211906Y-48716190D01*
X150211906Y-48716190D02*
X149830954Y-48716190D01*
X150783335Y-49144761D02*
X150926192Y-49192380D01*
X150926192Y-49192380D02*
X151164287Y-49192380D01*
X151164287Y-49192380D02*
X151259525Y-49144761D01*
X151259525Y-49144761D02*
X151307144Y-49097142D01*
X151307144Y-49097142D02*
X151354763Y-49001904D01*
X151354763Y-49001904D02*
X151354763Y-48906666D01*
X151354763Y-48906666D02*
X151307144Y-48811428D01*
X151307144Y-48811428D02*
X151259525Y-48763809D01*
X151259525Y-48763809D02*
X151164287Y-48716190D01*
X151164287Y-48716190D02*
X150973811Y-48668571D01*
X150973811Y-48668571D02*
X150878573Y-48620952D01*
X150878573Y-48620952D02*
X150830954Y-48573333D01*
X150830954Y-48573333D02*
X150783335Y-48478095D01*
X150783335Y-48478095D02*
X150783335Y-48382857D01*
X150783335Y-48382857D02*
X150830954Y-48287619D01*
X150830954Y-48287619D02*
X150878573Y-48240000D01*
X150878573Y-48240000D02*
X150973811Y-48192380D01*
X150973811Y-48192380D02*
X151211906Y-48192380D01*
X151211906Y-48192380D02*
X151354763Y-48240000D01*
X151640478Y-48192380D02*
X152211906Y-48192380D01*
X151926192Y-49192380D02*
X151926192Y-48192380D01*
X150088096Y-35510006D02*
X149992858Y-35462386D01*
X149992858Y-35462386D02*
X149850001Y-35462386D01*
X149850001Y-35462386D02*
X149707144Y-35510006D01*
X149707144Y-35510006D02*
X149611906Y-35605244D01*
X149611906Y-35605244D02*
X149564287Y-35700482D01*
X149564287Y-35700482D02*
X149516668Y-35890958D01*
X149516668Y-35890958D02*
X149516668Y-36033815D01*
X149516668Y-36033815D02*
X149564287Y-36224291D01*
X149564287Y-36224291D02*
X149611906Y-36319529D01*
X149611906Y-36319529D02*
X149707144Y-36414767D01*
X149707144Y-36414767D02*
X149850001Y-36462386D01*
X149850001Y-36462386D02*
X149945239Y-36462386D01*
X149945239Y-36462386D02*
X150088096Y-36414767D01*
X150088096Y-36414767D02*
X150135715Y-36367148D01*
X150135715Y-36367148D02*
X150135715Y-36033815D01*
X150135715Y-36033815D02*
X149945239Y-36033815D01*
X150564287Y-36462386D02*
X150564287Y-35462386D01*
X150564287Y-35462386D02*
X151135715Y-36462386D01*
X151135715Y-36462386D02*
X151135715Y-35462386D01*
X151611906Y-36462386D02*
X151611906Y-35462386D01*
X151611906Y-35462386D02*
X151850001Y-35462386D01*
X151850001Y-35462386D02*
X151992858Y-35510006D01*
X151992858Y-35510006D02*
X152088096Y-35605244D01*
X152088096Y-35605244D02*
X152135715Y-35700482D01*
X152135715Y-35700482D02*
X152183334Y-35890958D01*
X152183334Y-35890958D02*
X152183334Y-36033815D01*
X152183334Y-36033815D02*
X152135715Y-36224291D01*
X152135715Y-36224291D02*
X152088096Y-36319529D01*
X152088096Y-36319529D02*
X151992858Y-36414767D01*
X151992858Y-36414767D02*
X151850001Y-36462386D01*
X151850001Y-36462386D02*
X151611906Y-36462386D01*
X149564293Y-41519761D02*
X149707150Y-41567380D01*
X149707150Y-41567380D02*
X149945245Y-41567380D01*
X149945245Y-41567380D02*
X150040483Y-41519761D01*
X150040483Y-41519761D02*
X150088102Y-41472142D01*
X150088102Y-41472142D02*
X150135721Y-41376904D01*
X150135721Y-41376904D02*
X150135721Y-41281666D01*
X150135721Y-41281666D02*
X150088102Y-41186428D01*
X150088102Y-41186428D02*
X150040483Y-41138809D01*
X150040483Y-41138809D02*
X149945245Y-41091190D01*
X149945245Y-41091190D02*
X149754769Y-41043571D01*
X149754769Y-41043571D02*
X149659531Y-40995952D01*
X149659531Y-40995952D02*
X149611912Y-40948333D01*
X149611912Y-40948333D02*
X149564293Y-40853095D01*
X149564293Y-40853095D02*
X149564293Y-40757857D01*
X149564293Y-40757857D02*
X149611912Y-40662619D01*
X149611912Y-40662619D02*
X149659531Y-40615000D01*
X149659531Y-40615000D02*
X149754769Y-40567380D01*
X149754769Y-40567380D02*
X149992864Y-40567380D01*
X149992864Y-40567380D02*
X150135721Y-40615000D01*
X151135721Y-41472142D02*
X151088102Y-41519761D01*
X151088102Y-41519761D02*
X150945245Y-41567380D01*
X150945245Y-41567380D02*
X150850007Y-41567380D01*
X150850007Y-41567380D02*
X150707150Y-41519761D01*
X150707150Y-41519761D02*
X150611912Y-41424523D01*
X150611912Y-41424523D02*
X150564293Y-41329285D01*
X150564293Y-41329285D02*
X150516674Y-41138809D01*
X150516674Y-41138809D02*
X150516674Y-40995952D01*
X150516674Y-40995952D02*
X150564293Y-40805476D01*
X150564293Y-40805476D02*
X150611912Y-40710238D01*
X150611912Y-40710238D02*
X150707150Y-40615000D01*
X150707150Y-40615000D02*
X150850007Y-40567380D01*
X150850007Y-40567380D02*
X150945245Y-40567380D01*
X150945245Y-40567380D02*
X151088102Y-40615000D01*
X151088102Y-40615000D02*
X151135721Y-40662619D01*
X151564293Y-41567380D02*
X151564293Y-40567380D01*
X152135721Y-41567380D02*
X151707150Y-40995952D01*
X152135721Y-40567380D02*
X151564293Y-41138809D01*
X173284304Y-66311904D02*
X173236684Y-66407142D01*
X173236684Y-66407142D02*
X173236684Y-66549999D01*
X173236684Y-66549999D02*
X173284304Y-66692856D01*
X173284304Y-66692856D02*
X173379542Y-66788094D01*
X173379542Y-66788094D02*
X173474780Y-66835713D01*
X173474780Y-66835713D02*
X173665256Y-66883332D01*
X173665256Y-66883332D02*
X173808113Y-66883332D01*
X173808113Y-66883332D02*
X173998589Y-66835713D01*
X173998589Y-66835713D02*
X174093827Y-66788094D01*
X174093827Y-66788094D02*
X174189065Y-66692856D01*
X174189065Y-66692856D02*
X174236684Y-66549999D01*
X174236684Y-66549999D02*
X174236684Y-66454761D01*
X174236684Y-66454761D02*
X174189065Y-66311904D01*
X174189065Y-66311904D02*
X174141446Y-66264285D01*
X174141446Y-66264285D02*
X173808113Y-66264285D01*
X173808113Y-66264285D02*
X173808113Y-66454761D01*
X174236684Y-65835713D02*
X173236684Y-65835713D01*
X173236684Y-65835713D02*
X174236684Y-65264285D01*
X174236684Y-65264285D02*
X173236684Y-65264285D01*
X174236684Y-64788094D02*
X173236684Y-64788094D01*
X173236684Y-64788094D02*
X173236684Y-64549999D01*
X173236684Y-64549999D02*
X173284304Y-64407142D01*
X173284304Y-64407142D02*
X173379542Y-64311904D01*
X173379542Y-64311904D02*
X173474780Y-64264285D01*
X173474780Y-64264285D02*
X173665256Y-64216666D01*
X173665256Y-64216666D02*
X173808113Y-64216666D01*
X173808113Y-64216666D02*
X173998589Y-64264285D01*
X173998589Y-64264285D02*
X174093827Y-64311904D01*
X174093827Y-64311904D02*
X174189065Y-64407142D01*
X174189065Y-64407142D02*
X174236684Y-64549999D01*
X174236684Y-64549999D02*
X174236684Y-64788094D01*
X176671443Y-66145241D02*
X176719062Y-66192860D01*
X176719062Y-66192860D02*
X176766681Y-66335717D01*
X176766681Y-66335717D02*
X176766681Y-66430955D01*
X176766681Y-66430955D02*
X176719062Y-66573812D01*
X176719062Y-66573812D02*
X176623824Y-66669050D01*
X176623824Y-66669050D02*
X176528586Y-66716669D01*
X176528586Y-66716669D02*
X176338110Y-66764288D01*
X176338110Y-66764288D02*
X176195253Y-66764288D01*
X176195253Y-66764288D02*
X176004777Y-66716669D01*
X176004777Y-66716669D02*
X175909539Y-66669050D01*
X175909539Y-66669050D02*
X175814301Y-66573812D01*
X175814301Y-66573812D02*
X175766681Y-66430955D01*
X175766681Y-66430955D02*
X175766681Y-66335717D01*
X175766681Y-66335717D02*
X175814301Y-66192860D01*
X175814301Y-66192860D02*
X175861920Y-66145241D01*
X176766681Y-65240479D02*
X176766681Y-65716669D01*
X176766681Y-65716669D02*
X175766681Y-65716669D01*
X176766681Y-64907145D02*
X175766681Y-64907145D01*
X176766681Y-64335717D02*
X176195253Y-64764288D01*
X175766681Y-64335717D02*
X176338110Y-64907145D01*
X171579065Y-66907148D02*
X171626684Y-66764291D01*
X171626684Y-66764291D02*
X171626684Y-66526196D01*
X171626684Y-66526196D02*
X171579065Y-66430958D01*
X171579065Y-66430958D02*
X171531446Y-66383339D01*
X171531446Y-66383339D02*
X171436208Y-66335720D01*
X171436208Y-66335720D02*
X171340970Y-66335720D01*
X171340970Y-66335720D02*
X171245732Y-66383339D01*
X171245732Y-66383339D02*
X171198113Y-66430958D01*
X171198113Y-66430958D02*
X171150494Y-66526196D01*
X171150494Y-66526196D02*
X171102875Y-66716672D01*
X171102875Y-66716672D02*
X171055256Y-66811910D01*
X171055256Y-66811910D02*
X171007637Y-66859529D01*
X171007637Y-66859529D02*
X170912399Y-66907148D01*
X170912399Y-66907148D02*
X170817161Y-66907148D01*
X170817161Y-66907148D02*
X170721923Y-66859529D01*
X170721923Y-66859529D02*
X170674304Y-66811910D01*
X170674304Y-66811910D02*
X170626684Y-66716672D01*
X170626684Y-66716672D02*
X170626684Y-66478577D01*
X170626684Y-66478577D02*
X170674304Y-66335720D01*
X170626684Y-66002386D02*
X171626684Y-65764291D01*
X171626684Y-65764291D02*
X170912399Y-65573815D01*
X170912399Y-65573815D02*
X171626684Y-65383339D01*
X171626684Y-65383339D02*
X170626684Y-65145244D01*
X171626684Y-64764291D02*
X170626684Y-64764291D01*
X170626684Y-64764291D02*
X170626684Y-64526196D01*
X170626684Y-64526196D02*
X170674304Y-64383339D01*
X170674304Y-64383339D02*
X170769542Y-64288101D01*
X170769542Y-64288101D02*
X170864780Y-64240482D01*
X170864780Y-64240482D02*
X171055256Y-64192863D01*
X171055256Y-64192863D02*
X171198113Y-64192863D01*
X171198113Y-64192863D02*
X171388589Y-64240482D01*
X171388589Y-64240482D02*
X171483827Y-64288101D01*
X171483827Y-64288101D02*
X171579065Y-64383339D01*
X171579065Y-64383339D02*
X171626684Y-64526196D01*
X171626684Y-64526196D02*
X171626684Y-64764291D01*
X178336682Y-66788094D02*
X178336682Y-66169047D01*
X178336682Y-66169047D02*
X178717635Y-66502380D01*
X178717635Y-66502380D02*
X178717635Y-66359523D01*
X178717635Y-66359523D02*
X178765254Y-66264285D01*
X178765254Y-66264285D02*
X178812873Y-66216666D01*
X178812873Y-66216666D02*
X178908111Y-66169047D01*
X178908111Y-66169047D02*
X179146206Y-66169047D01*
X179146206Y-66169047D02*
X179241444Y-66216666D01*
X179241444Y-66216666D02*
X179289063Y-66264285D01*
X179289063Y-66264285D02*
X179336682Y-66359523D01*
X179336682Y-66359523D02*
X179336682Y-66645237D01*
X179336682Y-66645237D02*
X179289063Y-66740475D01*
X179289063Y-66740475D02*
X179241444Y-66788094D01*
X178336682Y-65883332D02*
X179336682Y-65549999D01*
X179336682Y-65549999D02*
X178336682Y-65216666D01*
X178336682Y-64978570D02*
X178336682Y-64359523D01*
X178336682Y-64359523D02*
X178717635Y-64692856D01*
X178717635Y-64692856D02*
X178717635Y-64549999D01*
X178717635Y-64549999D02*
X178765254Y-64454761D01*
X178765254Y-64454761D02*
X178812873Y-64407142D01*
X178812873Y-64407142D02*
X178908111Y-64359523D01*
X178908111Y-64359523D02*
X179146206Y-64359523D01*
X179146206Y-64359523D02*
X179241444Y-64407142D01*
X179241444Y-64407142D02*
X179289063Y-64454761D01*
X179289063Y-64454761D02*
X179336682Y-64549999D01*
X179336682Y-64549999D02*
X179336682Y-64835713D01*
X179336682Y-64835713D02*
X179289063Y-64930951D01*
X179289063Y-64930951D02*
X179241444Y-64978570D01*
X172261907Y-160843577D02*
X172595240Y-160843577D01*
X172738097Y-161367386D02*
X172261907Y-161367386D01*
X172261907Y-161367386D02*
X172261907Y-160367386D01*
X172261907Y-160367386D02*
X172738097Y-160367386D01*
X173166669Y-160700720D02*
X173166669Y-161367386D01*
X173166669Y-160795958D02*
X173214288Y-160748339D01*
X173214288Y-160748339D02*
X173309526Y-160700720D01*
X173309526Y-160700720D02*
X173452383Y-160700720D01*
X173452383Y-160700720D02*
X173547621Y-160748339D01*
X173547621Y-160748339D02*
X173595240Y-160843577D01*
X173595240Y-160843577D02*
X173595240Y-161367386D01*
X174500002Y-161319767D02*
X174404764Y-161367386D01*
X174404764Y-161367386D02*
X174214288Y-161367386D01*
X174214288Y-161367386D02*
X174119050Y-161319767D01*
X174119050Y-161319767D02*
X174071431Y-161272148D01*
X174071431Y-161272148D02*
X174023812Y-161176910D01*
X174023812Y-161176910D02*
X174023812Y-160891196D01*
X174023812Y-160891196D02*
X174071431Y-160795958D01*
X174071431Y-160795958D02*
X174119050Y-160748339D01*
X174119050Y-160748339D02*
X174214288Y-160700720D01*
X174214288Y-160700720D02*
X174404764Y-160700720D01*
X174404764Y-160700720D02*
X174500002Y-160748339D01*
X175071431Y-161367386D02*
X174976193Y-161319767D01*
X174976193Y-161319767D02*
X174928574Y-161272148D01*
X174928574Y-161272148D02*
X174880955Y-161176910D01*
X174880955Y-161176910D02*
X174880955Y-160891196D01*
X174880955Y-160891196D02*
X174928574Y-160795958D01*
X174928574Y-160795958D02*
X174976193Y-160748339D01*
X174976193Y-160748339D02*
X175071431Y-160700720D01*
X175071431Y-160700720D02*
X175214288Y-160700720D01*
X175214288Y-160700720D02*
X175309526Y-160748339D01*
X175309526Y-160748339D02*
X175357145Y-160795958D01*
X175357145Y-160795958D02*
X175404764Y-160891196D01*
X175404764Y-160891196D02*
X175404764Y-161176910D01*
X175404764Y-161176910D02*
X175357145Y-161272148D01*
X175357145Y-161272148D02*
X175309526Y-161319767D01*
X175309526Y-161319767D02*
X175214288Y-161367386D01*
X175214288Y-161367386D02*
X175071431Y-161367386D01*
X176261907Y-161367386D02*
X176261907Y-160367386D01*
X176261907Y-161319767D02*
X176166669Y-161367386D01*
X176166669Y-161367386D02*
X175976193Y-161367386D01*
X175976193Y-161367386D02*
X175880955Y-161319767D01*
X175880955Y-161319767D02*
X175833336Y-161272148D01*
X175833336Y-161272148D02*
X175785717Y-161176910D01*
X175785717Y-161176910D02*
X175785717Y-160891196D01*
X175785717Y-160891196D02*
X175833336Y-160795958D01*
X175833336Y-160795958D02*
X175880955Y-160748339D01*
X175880955Y-160748339D02*
X175976193Y-160700720D01*
X175976193Y-160700720D02*
X176166669Y-160700720D01*
X176166669Y-160700720D02*
X176261907Y-160748339D01*
X177119050Y-161319767D02*
X177023812Y-161367386D01*
X177023812Y-161367386D02*
X176833336Y-161367386D01*
X176833336Y-161367386D02*
X176738098Y-161319767D01*
X176738098Y-161319767D02*
X176690479Y-161224529D01*
X176690479Y-161224529D02*
X176690479Y-160843577D01*
X176690479Y-160843577D02*
X176738098Y-160748339D01*
X176738098Y-160748339D02*
X176833336Y-160700720D01*
X176833336Y-160700720D02*
X177023812Y-160700720D01*
X177023812Y-160700720D02*
X177119050Y-160748339D01*
X177119050Y-160748339D02*
X177166669Y-160843577D01*
X177166669Y-160843577D02*
X177166669Y-160938815D01*
X177166669Y-160938815D02*
X176690479Y-161034053D01*
X177595241Y-161367386D02*
X177595241Y-160700720D01*
X177595241Y-160891196D02*
X177642860Y-160795958D01*
X177642860Y-160795958D02*
X177690479Y-160748339D01*
X177690479Y-160748339D02*
X177785717Y-160700720D01*
X177785717Y-160700720D02*
X177880955Y-160700720D01*
D11*
X165187682Y-117313656D02*
X165187682Y-115313656D01*
X165187682Y-116266037D02*
X166330539Y-116266037D01*
X166330539Y-117313656D02*
X166330539Y-115313656D01*
X167568634Y-117313656D02*
X167378158Y-117218418D01*
X167378158Y-117218418D02*
X167282920Y-117123180D01*
X167282920Y-117123180D02*
X167187682Y-116932704D01*
X167187682Y-116932704D02*
X167187682Y-116361275D01*
X167187682Y-116361275D02*
X167282920Y-116170799D01*
X167282920Y-116170799D02*
X167378158Y-116075561D01*
X167378158Y-116075561D02*
X167568634Y-115980323D01*
X167568634Y-115980323D02*
X167854349Y-115980323D01*
X167854349Y-115980323D02*
X168044825Y-116075561D01*
X168044825Y-116075561D02*
X168140063Y-116170799D01*
X168140063Y-116170799D02*
X168235301Y-116361275D01*
X168235301Y-116361275D02*
X168235301Y-116932704D01*
X168235301Y-116932704D02*
X168140063Y-117123180D01*
X168140063Y-117123180D02*
X168044825Y-117218418D01*
X168044825Y-117218418D02*
X167854349Y-117313656D01*
X167854349Y-117313656D02*
X167568634Y-117313656D01*
X169092444Y-115980323D02*
X169092444Y-117313656D01*
X169092444Y-116170799D02*
X169187682Y-116075561D01*
X169187682Y-116075561D02*
X169378158Y-115980323D01*
X169378158Y-115980323D02*
X169663873Y-115980323D01*
X169663873Y-115980323D02*
X169854349Y-116075561D01*
X169854349Y-116075561D02*
X169949587Y-116266037D01*
X169949587Y-116266037D02*
X169949587Y-117313656D01*
X171663873Y-117218418D02*
X171473397Y-117313656D01*
X171473397Y-117313656D02*
X171092444Y-117313656D01*
X171092444Y-117313656D02*
X170901968Y-117218418D01*
X170901968Y-117218418D02*
X170806730Y-117027942D01*
X170806730Y-117027942D02*
X170806730Y-116266037D01*
X170806730Y-116266037D02*
X170901968Y-116075561D01*
X170901968Y-116075561D02*
X171092444Y-115980323D01*
X171092444Y-115980323D02*
X171473397Y-115980323D01*
X171473397Y-115980323D02*
X171663873Y-116075561D01*
X171663873Y-116075561D02*
X171759111Y-116266037D01*
X171759111Y-116266037D02*
X171759111Y-116456514D01*
X171759111Y-116456514D02*
X170806730Y-116646990D01*
X172425778Y-115980323D02*
X172901968Y-117313656D01*
X173378159Y-115980323D02*
X172901968Y-117313656D01*
X172901968Y-117313656D02*
X172711492Y-117789847D01*
X172711492Y-117789847D02*
X172616254Y-117885085D01*
X172616254Y-117885085D02*
X172425778Y-117980323D01*
X174997207Y-117313656D02*
X174997207Y-115313656D01*
X174997207Y-117218418D02*
X174806731Y-117313656D01*
X174806731Y-117313656D02*
X174425778Y-117313656D01*
X174425778Y-117313656D02*
X174235302Y-117218418D01*
X174235302Y-117218418D02*
X174140064Y-117123180D01*
X174140064Y-117123180D02*
X174044826Y-116932704D01*
X174044826Y-116932704D02*
X174044826Y-116361275D01*
X174044826Y-116361275D02*
X174140064Y-116170799D01*
X174140064Y-116170799D02*
X174235302Y-116075561D01*
X174235302Y-116075561D02*
X174425778Y-115980323D01*
X174425778Y-115980323D02*
X174806731Y-115980323D01*
X174806731Y-115980323D02*
X174997207Y-116075561D01*
X176711493Y-117218418D02*
X176521017Y-117313656D01*
X176521017Y-117313656D02*
X176140064Y-117313656D01*
X176140064Y-117313656D02*
X175949588Y-117218418D01*
X175949588Y-117218418D02*
X175854350Y-117027942D01*
X175854350Y-117027942D02*
X175854350Y-116266037D01*
X175854350Y-116266037D02*
X175949588Y-116075561D01*
X175949588Y-116075561D02*
X176140064Y-115980323D01*
X176140064Y-115980323D02*
X176521017Y-115980323D01*
X176521017Y-115980323D02*
X176711493Y-116075561D01*
X176711493Y-116075561D02*
X176806731Y-116266037D01*
X176806731Y-116266037D02*
X176806731Y-116456514D01*
X176806731Y-116456514D02*
X175854350Y-116646990D01*
X177473398Y-115980323D02*
X177854350Y-117313656D01*
X177854350Y-117313656D02*
X178235303Y-116361275D01*
X178235303Y-116361275D02*
X178616255Y-117313656D01*
X178616255Y-117313656D02*
X178997207Y-115980323D01*
X180673398Y-115313656D02*
X181340064Y-117313656D01*
X181340064Y-117313656D02*
X182006731Y-115313656D01*
X183721017Y-117313656D02*
X182578160Y-117313656D01*
X183149588Y-117313656D02*
X183149588Y-115313656D01*
X183149588Y-115313656D02*
X182959112Y-115599371D01*
X182959112Y-115599371D02*
X182768636Y-115789847D01*
X182768636Y-115789847D02*
X182578160Y-115885085D01*
X184578160Y-117123180D02*
X184673398Y-117218418D01*
X184673398Y-117218418D02*
X184578160Y-117313656D01*
X184578160Y-117313656D02*
X184482922Y-117218418D01*
X184482922Y-117218418D02*
X184578160Y-117123180D01*
X184578160Y-117123180D02*
X184578160Y-117313656D01*
X185911493Y-115313656D02*
X186101970Y-115313656D01*
X186101970Y-115313656D02*
X186292446Y-115408895D01*
X186292446Y-115408895D02*
X186387684Y-115504133D01*
X186387684Y-115504133D02*
X186482922Y-115694609D01*
X186482922Y-115694609D02*
X186578160Y-116075561D01*
X186578160Y-116075561D02*
X186578160Y-116551752D01*
X186578160Y-116551752D02*
X186482922Y-116932704D01*
X186482922Y-116932704D02*
X186387684Y-117123180D01*
X186387684Y-117123180D02*
X186292446Y-117218418D01*
X186292446Y-117218418D02*
X186101970Y-117313656D01*
X186101970Y-117313656D02*
X185911493Y-117313656D01*
X185911493Y-117313656D02*
X185721017Y-117218418D01*
X185721017Y-117218418D02*
X185625779Y-117123180D01*
X185625779Y-117123180D02*
X185530541Y-116932704D01*
X185530541Y-116932704D02*
X185435303Y-116551752D01*
X185435303Y-116551752D02*
X185435303Y-116075561D01*
X185435303Y-116075561D02*
X185530541Y-115694609D01*
X185530541Y-115694609D02*
X185625779Y-115504133D01*
X185625779Y-115504133D02*
X185721017Y-115408895D01*
X185721017Y-115408895D02*
X185911493Y-115313656D01*
D10*
X171690478Y-120367382D02*
X172261906Y-120367382D01*
X171976192Y-121367382D02*
X171976192Y-120367382D01*
X172595240Y-121367382D02*
X172595240Y-120700716D01*
X172595240Y-120891192D02*
X172642859Y-120795954D01*
X172642859Y-120795954D02*
X172690478Y-120748335D01*
X172690478Y-120748335D02*
X172785716Y-120700716D01*
X172785716Y-120700716D02*
X172880954Y-120700716D01*
X173642859Y-121367382D02*
X173642859Y-120843573D01*
X173642859Y-120843573D02*
X173595240Y-120748335D01*
X173595240Y-120748335D02*
X173500002Y-120700716D01*
X173500002Y-120700716D02*
X173309526Y-120700716D01*
X173309526Y-120700716D02*
X173214288Y-120748335D01*
X173642859Y-121319763D02*
X173547621Y-121367382D01*
X173547621Y-121367382D02*
X173309526Y-121367382D01*
X173309526Y-121367382D02*
X173214288Y-121319763D01*
X173214288Y-121319763D02*
X173166669Y-121224525D01*
X173166669Y-121224525D02*
X173166669Y-121129287D01*
X173166669Y-121129287D02*
X173214288Y-121034049D01*
X173214288Y-121034049D02*
X173309526Y-120986430D01*
X173309526Y-120986430D02*
X173547621Y-120986430D01*
X173547621Y-120986430D02*
X173642859Y-120938811D01*
X174547621Y-121319763D02*
X174452383Y-121367382D01*
X174452383Y-121367382D02*
X174261907Y-121367382D01*
X174261907Y-121367382D02*
X174166669Y-121319763D01*
X174166669Y-121319763D02*
X174119050Y-121272144D01*
X174119050Y-121272144D02*
X174071431Y-121176906D01*
X174071431Y-121176906D02*
X174071431Y-120891192D01*
X174071431Y-120891192D02*
X174119050Y-120795954D01*
X174119050Y-120795954D02*
X174166669Y-120748335D01*
X174166669Y-120748335D02*
X174261907Y-120700716D01*
X174261907Y-120700716D02*
X174452383Y-120700716D01*
X174452383Y-120700716D02*
X174547621Y-120748335D01*
X174976193Y-121367382D02*
X174976193Y-120367382D01*
X175071431Y-120986430D02*
X175357145Y-121367382D01*
X175357145Y-120700716D02*
X174976193Y-121081668D01*
X175785717Y-121367382D02*
X175785717Y-120367382D01*
X175785717Y-120748335D02*
X175880955Y-120700716D01*
X175880955Y-120700716D02*
X176071431Y-120700716D01*
X176071431Y-120700716D02*
X176166669Y-120748335D01*
X176166669Y-120748335D02*
X176214288Y-120795954D01*
X176214288Y-120795954D02*
X176261907Y-120891192D01*
X176261907Y-120891192D02*
X176261907Y-121176906D01*
X176261907Y-121176906D02*
X176214288Y-121272144D01*
X176214288Y-121272144D02*
X176166669Y-121319763D01*
X176166669Y-121319763D02*
X176071431Y-121367382D01*
X176071431Y-121367382D02*
X175880955Y-121367382D01*
X175880955Y-121367382D02*
X175785717Y-121319763D01*
X177119050Y-121367382D02*
X177119050Y-120843573D01*
X177119050Y-120843573D02*
X177071431Y-120748335D01*
X177071431Y-120748335D02*
X176976193Y-120700716D01*
X176976193Y-120700716D02*
X176785717Y-120700716D01*
X176785717Y-120700716D02*
X176690479Y-120748335D01*
X177119050Y-121319763D02*
X177023812Y-121367382D01*
X177023812Y-121367382D02*
X176785717Y-121367382D01*
X176785717Y-121367382D02*
X176690479Y-121319763D01*
X176690479Y-121319763D02*
X176642860Y-121224525D01*
X176642860Y-121224525D02*
X176642860Y-121129287D01*
X176642860Y-121129287D02*
X176690479Y-121034049D01*
X176690479Y-121034049D02*
X176785717Y-120986430D01*
X176785717Y-120986430D02*
X177023812Y-120986430D01*
X177023812Y-120986430D02*
X177119050Y-120938811D01*
X177738098Y-121367382D02*
X177642860Y-121319763D01*
X177642860Y-121319763D02*
X177595241Y-121224525D01*
X177595241Y-121224525D02*
X177595241Y-120367382D01*
X178261908Y-121367382D02*
X178166670Y-121319763D01*
X178166670Y-121319763D02*
X178119051Y-121224525D01*
X178119051Y-121224525D02*
X178119051Y-120367382D01*
X149611908Y-32967383D02*
X150230955Y-32967383D01*
X150230955Y-32967383D02*
X149897622Y-33348336D01*
X149897622Y-33348336D02*
X150040479Y-33348336D01*
X150040479Y-33348336D02*
X150135717Y-33395955D01*
X150135717Y-33395955D02*
X150183336Y-33443574D01*
X150183336Y-33443574D02*
X150230955Y-33538812D01*
X150230955Y-33538812D02*
X150230955Y-33776907D01*
X150230955Y-33776907D02*
X150183336Y-33872145D01*
X150183336Y-33872145D02*
X150135717Y-33919764D01*
X150135717Y-33919764D02*
X150040479Y-33967383D01*
X150040479Y-33967383D02*
X149754765Y-33967383D01*
X149754765Y-33967383D02*
X149659527Y-33919764D01*
X149659527Y-33919764D02*
X149611908Y-33872145D01*
X150516670Y-32967383D02*
X150850003Y-33967383D01*
X150850003Y-33967383D02*
X151183336Y-32967383D01*
X151421432Y-32967383D02*
X152040479Y-32967383D01*
X152040479Y-32967383D02*
X151707146Y-33348336D01*
X151707146Y-33348336D02*
X151850003Y-33348336D01*
X151850003Y-33348336D02*
X151945241Y-33395955D01*
X151945241Y-33395955D02*
X151992860Y-33443574D01*
X151992860Y-33443574D02*
X152040479Y-33538812D01*
X152040479Y-33538812D02*
X152040479Y-33776907D01*
X152040479Y-33776907D02*
X151992860Y-33872145D01*
X151992860Y-33872145D02*
X151945241Y-33919764D01*
X151945241Y-33919764D02*
X151850003Y-33967383D01*
X151850003Y-33967383D02*
X151564289Y-33967383D01*
X151564289Y-33967383D02*
X151469051Y-33919764D01*
X151469051Y-33919764D02*
X151421432Y-33872145D01*
X171761909Y-109367379D02*
X172333337Y-109367379D01*
X172047623Y-110367379D02*
X172047623Y-109367379D01*
X172666671Y-110367379D02*
X172666671Y-109700713D01*
X172666671Y-109891189D02*
X172714290Y-109795951D01*
X172714290Y-109795951D02*
X172761909Y-109748332D01*
X172761909Y-109748332D02*
X172857147Y-109700713D01*
X172857147Y-109700713D02*
X172952385Y-109700713D01*
X173714290Y-110367379D02*
X173714290Y-109843570D01*
X173714290Y-109843570D02*
X173666671Y-109748332D01*
X173666671Y-109748332D02*
X173571433Y-109700713D01*
X173571433Y-109700713D02*
X173380957Y-109700713D01*
X173380957Y-109700713D02*
X173285719Y-109748332D01*
X173714290Y-110319760D02*
X173619052Y-110367379D01*
X173619052Y-110367379D02*
X173380957Y-110367379D01*
X173380957Y-110367379D02*
X173285719Y-110319760D01*
X173285719Y-110319760D02*
X173238100Y-110224522D01*
X173238100Y-110224522D02*
X173238100Y-110129284D01*
X173238100Y-110129284D02*
X173285719Y-110034046D01*
X173285719Y-110034046D02*
X173380957Y-109986427D01*
X173380957Y-109986427D02*
X173619052Y-109986427D01*
X173619052Y-109986427D02*
X173714290Y-109938808D01*
X174619052Y-110319760D02*
X174523814Y-110367379D01*
X174523814Y-110367379D02*
X174333338Y-110367379D01*
X174333338Y-110367379D02*
X174238100Y-110319760D01*
X174238100Y-110319760D02*
X174190481Y-110272141D01*
X174190481Y-110272141D02*
X174142862Y-110176903D01*
X174142862Y-110176903D02*
X174142862Y-109891189D01*
X174142862Y-109891189D02*
X174190481Y-109795951D01*
X174190481Y-109795951D02*
X174238100Y-109748332D01*
X174238100Y-109748332D02*
X174333338Y-109700713D01*
X174333338Y-109700713D02*
X174523814Y-109700713D01*
X174523814Y-109700713D02*
X174619052Y-109748332D01*
X175047624Y-110367379D02*
X175047624Y-109367379D01*
X175142862Y-109986427D02*
X175428576Y-110367379D01*
X175428576Y-109700713D02*
X175047624Y-110081665D01*
X175857148Y-109700713D02*
X175857148Y-110700713D01*
X175857148Y-109748332D02*
X175952386Y-109700713D01*
X175952386Y-109700713D02*
X176142862Y-109700713D01*
X176142862Y-109700713D02*
X176238100Y-109748332D01*
X176238100Y-109748332D02*
X176285719Y-109795951D01*
X176285719Y-109795951D02*
X176333338Y-109891189D01*
X176333338Y-109891189D02*
X176333338Y-110176903D01*
X176333338Y-110176903D02*
X176285719Y-110272141D01*
X176285719Y-110272141D02*
X176238100Y-110319760D01*
X176238100Y-110319760D02*
X176142862Y-110367379D01*
X176142862Y-110367379D02*
X175952386Y-110367379D01*
X175952386Y-110367379D02*
X175857148Y-110319760D01*
X177190481Y-110367379D02*
X177190481Y-109843570D01*
X177190481Y-109843570D02*
X177142862Y-109748332D01*
X177142862Y-109748332D02*
X177047624Y-109700713D01*
X177047624Y-109700713D02*
X176857148Y-109700713D01*
X176857148Y-109700713D02*
X176761910Y-109748332D01*
X177190481Y-110319760D02*
X177095243Y-110367379D01*
X177095243Y-110367379D02*
X176857148Y-110367379D01*
X176857148Y-110367379D02*
X176761910Y-110319760D01*
X176761910Y-110319760D02*
X176714291Y-110224522D01*
X176714291Y-110224522D02*
X176714291Y-110129284D01*
X176714291Y-110129284D02*
X176761910Y-110034046D01*
X176761910Y-110034046D02*
X176857148Y-109986427D01*
X176857148Y-109986427D02*
X177095243Y-109986427D01*
X177095243Y-109986427D02*
X177190481Y-109938808D01*
X178095243Y-110367379D02*
X178095243Y-109367379D01*
X178095243Y-110319760D02*
X178000005Y-110367379D01*
X178000005Y-110367379D02*
X177809529Y-110367379D01*
X177809529Y-110367379D02*
X177714291Y-110319760D01*
X177714291Y-110319760D02*
X177666672Y-110272141D01*
X177666672Y-110272141D02*
X177619053Y-110176903D01*
X177619053Y-110176903D02*
X177619053Y-109891189D01*
X177619053Y-109891189D02*
X177666672Y-109795951D01*
X177666672Y-109795951D02*
X177714291Y-109748332D01*
X177714291Y-109748332D02*
X177809529Y-109700713D01*
X177809529Y-109700713D02*
X178000005Y-109700713D01*
X178000005Y-109700713D02*
X178095243Y-109748332D01*
X180402380Y-63017383D02*
X180402380Y-62017383D01*
X180402380Y-62017383D02*
X180640475Y-62017383D01*
X180640475Y-62017383D02*
X180783332Y-62065003D01*
X180783332Y-62065003D02*
X180878570Y-62160241D01*
X180878570Y-62160241D02*
X180926189Y-62255479D01*
X180926189Y-62255479D02*
X180973808Y-62445955D01*
X180973808Y-62445955D02*
X180973808Y-62588812D01*
X180973808Y-62588812D02*
X180926189Y-62779288D01*
X180926189Y-62779288D02*
X180878570Y-62874526D01*
X180878570Y-62874526D02*
X180783332Y-62969764D01*
X180783332Y-62969764D02*
X180640475Y-63017383D01*
X180640475Y-63017383D02*
X180402380Y-63017383D01*
X181783332Y-62969764D02*
X181688094Y-63017383D01*
X181688094Y-63017383D02*
X181497618Y-63017383D01*
X181497618Y-63017383D02*
X181402380Y-62969764D01*
X181402380Y-62969764D02*
X181354761Y-62874526D01*
X181354761Y-62874526D02*
X181354761Y-62493574D01*
X181354761Y-62493574D02*
X181402380Y-62398336D01*
X181402380Y-62398336D02*
X181497618Y-62350717D01*
X181497618Y-62350717D02*
X181688094Y-62350717D01*
X181688094Y-62350717D02*
X181783332Y-62398336D01*
X181783332Y-62398336D02*
X181830951Y-62493574D01*
X181830951Y-62493574D02*
X181830951Y-62588812D01*
X181830951Y-62588812D02*
X181354761Y-62684050D01*
X182259523Y-63017383D02*
X182259523Y-62017383D01*
X182259523Y-62398336D02*
X182354761Y-62350717D01*
X182354761Y-62350717D02*
X182545237Y-62350717D01*
X182545237Y-62350717D02*
X182640475Y-62398336D01*
X182640475Y-62398336D02*
X182688094Y-62445955D01*
X182688094Y-62445955D02*
X182735713Y-62541193D01*
X182735713Y-62541193D02*
X182735713Y-62826907D01*
X182735713Y-62826907D02*
X182688094Y-62922145D01*
X182688094Y-62922145D02*
X182640475Y-62969764D01*
X182640475Y-62969764D02*
X182545237Y-63017383D01*
X182545237Y-63017383D02*
X182354761Y-63017383D01*
X182354761Y-63017383D02*
X182259523Y-62969764D01*
X183592856Y-62350717D02*
X183592856Y-63017383D01*
X183164285Y-62350717D02*
X183164285Y-62874526D01*
X183164285Y-62874526D02*
X183211904Y-62969764D01*
X183211904Y-62969764D02*
X183307142Y-63017383D01*
X183307142Y-63017383D02*
X183449999Y-63017383D01*
X183449999Y-63017383D02*
X183545237Y-62969764D01*
X183545237Y-62969764D02*
X183592856Y-62922145D01*
X184497618Y-62350717D02*
X184497618Y-63160241D01*
X184497618Y-63160241D02*
X184449999Y-63255479D01*
X184449999Y-63255479D02*
X184402380Y-63303098D01*
X184402380Y-63303098D02*
X184307142Y-63350717D01*
X184307142Y-63350717D02*
X184164285Y-63350717D01*
X184164285Y-63350717D02*
X184069047Y-63303098D01*
X184497618Y-62969764D02*
X184402380Y-63017383D01*
X184402380Y-63017383D02*
X184211904Y-63017383D01*
X184211904Y-63017383D02*
X184116666Y-62969764D01*
X184116666Y-62969764D02*
X184069047Y-62922145D01*
X184069047Y-62922145D02*
X184021428Y-62826907D01*
X184021428Y-62826907D02*
X184021428Y-62541193D01*
X184021428Y-62541193D02*
X184069047Y-62445955D01*
X184069047Y-62445955D02*
X184116666Y-62398336D01*
X184116666Y-62398336D02*
X184211904Y-62350717D01*
X184211904Y-62350717D02*
X184402380Y-62350717D01*
X184402380Y-62350717D02*
X184497618Y-62398336D01*
X150733335Y-43997150D02*
X150685716Y-44044769D01*
X150685716Y-44044769D02*
X150542859Y-44092388D01*
X150542859Y-44092388D02*
X150447621Y-44092388D01*
X150447621Y-44092388D02*
X150304764Y-44044769D01*
X150304764Y-44044769D02*
X150209526Y-43949531D01*
X150209526Y-43949531D02*
X150161907Y-43854293D01*
X150161907Y-43854293D02*
X150114288Y-43663817D01*
X150114288Y-43663817D02*
X150114288Y-43520960D01*
X150114288Y-43520960D02*
X150161907Y-43330484D01*
X150161907Y-43330484D02*
X150209526Y-43235246D01*
X150209526Y-43235246D02*
X150304764Y-43140008D01*
X150304764Y-43140008D02*
X150447621Y-43092388D01*
X150447621Y-43092388D02*
X150542859Y-43092388D01*
X150542859Y-43092388D02*
X150685716Y-43140008D01*
X150685716Y-43140008D02*
X150733335Y-43187627D01*
X151114288Y-44044769D02*
X151257145Y-44092388D01*
X151257145Y-44092388D02*
X151495240Y-44092388D01*
X151495240Y-44092388D02*
X151590478Y-44044769D01*
X151590478Y-44044769D02*
X151638097Y-43997150D01*
X151638097Y-43997150D02*
X151685716Y-43901912D01*
X151685716Y-43901912D02*
X151685716Y-43806674D01*
X151685716Y-43806674D02*
X151638097Y-43711436D01*
X151638097Y-43711436D02*
X151590478Y-43663817D01*
X151590478Y-43663817D02*
X151495240Y-43616198D01*
X151495240Y-43616198D02*
X151304764Y-43568579D01*
X151304764Y-43568579D02*
X151209526Y-43520960D01*
X151209526Y-43520960D02*
X151161907Y-43473341D01*
X151161907Y-43473341D02*
X151114288Y-43378103D01*
X151114288Y-43378103D02*
X151114288Y-43282865D01*
X151114288Y-43282865D02*
X151161907Y-43187627D01*
X151161907Y-43187627D02*
X151209526Y-43140008D01*
X151209526Y-43140008D02*
X151304764Y-43092388D01*
X151304764Y-43092388D02*
X151542859Y-43092388D01*
X151542859Y-43092388D02*
X151685716Y-43140008D01*
%TO.C,J2*%
X174666665Y-24217385D02*
X174666665Y-24931671D01*
X174666665Y-24931671D02*
X174619046Y-25074528D01*
X174619046Y-25074528D02*
X174523808Y-25169766D01*
X174523808Y-25169766D02*
X174380951Y-25217385D01*
X174380951Y-25217385D02*
X174285713Y-25217385D01*
X175095237Y-24312624D02*
X175142856Y-24265005D01*
X175142856Y-24265005D02*
X175238094Y-24217385D01*
X175238094Y-24217385D02*
X175476189Y-24217385D01*
X175476189Y-24217385D02*
X175571427Y-24265005D01*
X175571427Y-24265005D02*
X175619046Y-24312624D01*
X175619046Y-24312624D02*
X175666665Y-24407862D01*
X175666665Y-24407862D02*
X175666665Y-24503100D01*
X175666665Y-24503100D02*
X175619046Y-24645957D01*
X175619046Y-24645957D02*
X175047618Y-25217385D01*
X175047618Y-25217385D02*
X175666665Y-25217385D01*
%TO.C,J4*%
X174266680Y-19818015D02*
X174266680Y-20532301D01*
X174266680Y-20532301D02*
X174219061Y-20675158D01*
X174219061Y-20675158D02*
X174123823Y-20770396D01*
X174123823Y-20770396D02*
X173980966Y-20818015D01*
X173980966Y-20818015D02*
X173885728Y-20818015D01*
X175171442Y-20151349D02*
X175171442Y-20818015D01*
X174933347Y-19770396D02*
X174695252Y-20484682D01*
X174695252Y-20484682D02*
X175314299Y-20484682D01*
%TO.C,J1*%
X168536664Y-61967383D02*
X168536664Y-62681669D01*
X168536664Y-62681669D02*
X168489045Y-62824526D01*
X168489045Y-62824526D02*
X168393807Y-62919764D01*
X168393807Y-62919764D02*
X168250950Y-62967383D01*
X168250950Y-62967383D02*
X168155712Y-62967383D01*
X169536664Y-62967383D02*
X168965236Y-62967383D01*
X169250950Y-62967383D02*
X169250950Y-61967383D01*
X169250950Y-61967383D02*
X169155712Y-62110241D01*
X169155712Y-62110241D02*
X169060474Y-62205479D01*
X169060474Y-62205479D02*
X168965236Y-62253098D01*
D12*
%TO.C,SW64*%
X184500000Y-160000000D02*
X184500000Y-157900000D01*
X184500000Y-100000000D02*
X184500000Y-102100000D01*
X184500000Y-100000000D02*
X178700000Y-100000000D01*
X165500000Y-160000000D02*
X184500000Y-160000000D01*
X165500000Y-160000000D02*
X165500000Y-157900000D01*
X165500000Y-100000000D02*
X171300000Y-100000000D01*
X165500000Y-100000000D02*
X165500000Y-102100000D01*
X191450000Y-154402633D02*
G75*
G03*
X204208281Y-133601021I-16443344J24398551D01*
G01*
X204208280Y-126398979D02*
G75*
G03*
X191450000Y-105597367I-29208280J-3601021D01*
G01*
X184500000Y-157900000D02*
G75*
G03*
X187889915Y-156479284I-11010900J31027300D01*
G01*
X187889914Y-103520719D02*
G75*
G03*
X184500000Y-102100001I-14330214J-29438081D01*
G01*
X162110085Y-156479283D02*
G75*
G03*
X165500000Y-157899999I14330425J29438637D01*
G01*
X165500000Y-102100000D02*
G75*
G03*
X162110085Y-103520716I11010886J-31027276D01*
G01*
X145791720Y-133601021D02*
G75*
G03*
X158550000Y-154402633I29208282J3601022D01*
G01*
X158550000Y-105597367D02*
G75*
G03*
X145791719Y-126398979I16443344J-24398551D01*
G01*
D13*
X197000000Y-130000000D02*
G75*
G03*
X197000000Y-130000000I-22000000J0D01*
G01*
D12*
%TO.C,J4*%
X152750003Y-22700624D02*
X152750003Y-59700624D01*
X152750003Y-59700624D02*
X197250003Y-59700624D01*
X153670003Y-32250624D02*
X155000003Y-32250624D01*
X153670003Y-33580624D02*
X153670003Y-32250624D01*
X153670003Y-34850624D02*
X153670003Y-50150624D01*
X153670003Y-34850624D02*
X156330003Y-34850624D01*
X153670003Y-50150624D02*
X156330003Y-50150624D01*
X156330003Y-34850624D02*
X156330003Y-50150624D01*
X197250003Y-22700624D02*
X152750003Y-22700624D01*
X197250003Y-59700624D02*
X197250003Y-22700624D01*
%TO.C,J1*%
X169869998Y-63930003D02*
X169869998Y-62600003D01*
X171199998Y-63930003D02*
X169869998Y-63930003D01*
X172469998Y-63930003D02*
X180149998Y-63930003D01*
X172469998Y-63930003D02*
X172469998Y-61270003D01*
X180149998Y-63930003D02*
X180149998Y-61270003D01*
X172469998Y-61270003D02*
X180149998Y-61270003D01*
%TO.C,SW25*%
X115147523Y-135408875D02*
X126615652Y-143438946D01*
X126615652Y-143438946D02*
X118585582Y-154907074D01*
X118585582Y-154907074D02*
X107117453Y-146877004D01*
X107117453Y-146877004D02*
X115147523Y-135408875D01*
%TO.C,SW30*%
X133862801Y-150138187D02*
X142861827Y-160862810D01*
X142861827Y-160862810D02*
X132137206Y-169861835D01*
X132137206Y-169861835D02*
X123138179Y-159137213D01*
X123138179Y-159137213D02*
X133862801Y-150138187D01*
%TO.C,SW1*%
X52743496Y-32772645D02*
X65899192Y-37560927D01*
X65899192Y-37560927D02*
X61110910Y-50716624D01*
X61110910Y-50716624D02*
X47955214Y-45928342D01*
X47955214Y-45928342D02*
X52743496Y-32772645D01*
%TO.C,SW24*%
X107244936Y-105825090D02*
X120400632Y-110613372D01*
X120400632Y-110613372D02*
X115612350Y-123769069D01*
X115612350Y-123769069D02*
X102456654Y-118980787D01*
X102456654Y-118980787D02*
X107244936Y-105825090D01*
%TO.C,SW29*%
X124060140Y-115324122D02*
X137215836Y-120112404D01*
X137215836Y-120112404D02*
X132427554Y-133268101D01*
X132427554Y-133268101D02*
X119271858Y-128479819D01*
X119271858Y-128479819D02*
X124060140Y-115324122D01*
%TO.C,SW14*%
X71442627Y-92794134D02*
X84598323Y-97582416D01*
X84598323Y-97582416D02*
X79810041Y-110738113D01*
X79810041Y-110738113D02*
X66654345Y-105949831D01*
X66654345Y-105949831D02*
X71442627Y-92794134D01*
%TO.C,SW19*%
X90701173Y-95580199D02*
X103856869Y-100368481D01*
X103856869Y-100368481D02*
X99068587Y-113524178D01*
X99068587Y-113524178D02*
X85912891Y-108735896D01*
X85912891Y-108735896D02*
X90701173Y-95580199D01*
%TO.C,SW5*%
X26681555Y-104377243D02*
X39837251Y-109165525D01*
X39837251Y-109165525D02*
X35048969Y-122321222D01*
X35048969Y-122321222D02*
X21893273Y-117532940D01*
X21893273Y-117532940D02*
X26681555Y-104377243D01*
%TO.C,SW22*%
X120275887Y-70022792D02*
X133431583Y-74811074D01*
X133431583Y-74811074D02*
X128643301Y-87966771D01*
X128643301Y-87966771D02*
X115487605Y-83178489D01*
X115487605Y-83178489D02*
X120275887Y-70022792D01*
%TO.C,SW27*%
X137091109Y-79521823D02*
X150246805Y-84310105D01*
X150246805Y-84310105D02*
X145458523Y-97465802D01*
X145458523Y-97465802D02*
X132302827Y-92677520D01*
X132302827Y-92677520D02*
X137091109Y-79521823D01*
%TO.C,SW3*%
X39712511Y-68574947D02*
X52868207Y-73363229D01*
X52868207Y-73363229D02*
X48079925Y-86518926D01*
X48079925Y-86518926D02*
X34924229Y-81730644D01*
X34924229Y-81730644D02*
X39712511Y-68574947D01*
%TO.C,SW8*%
X58428109Y-72852771D02*
X71583805Y-77641053D01*
X71583805Y-77641053D02*
X66795523Y-90796750D01*
X66795523Y-90796750D02*
X53639827Y-86008468D01*
X53639827Y-86008468D02*
X58428109Y-72852771D01*
%TO.C,SW13*%
X77958119Y-74892977D02*
X91113815Y-79681259D01*
X91113815Y-79681259D02*
X86325533Y-92836956D01*
X86325533Y-92836956D02*
X73169837Y-88048674D01*
X73169837Y-88048674D02*
X77958119Y-74892977D01*
%TO.C,SW23*%
X113760409Y-87923974D02*
X126916105Y-92712256D01*
X126916105Y-92712256D02*
X122127823Y-105867953D01*
X122127823Y-105867953D02*
X108972127Y-101079671D01*
X108972127Y-101079671D02*
X113760409Y-87923974D01*
%TO.C,SW18*%
X97216641Y-77679062D02*
X110372337Y-82467344D01*
X110372337Y-82467344D02*
X105584055Y-95623041D01*
X105584055Y-95623041D02*
X92428359Y-90834759D01*
X92428359Y-90834759D02*
X97216641Y-77679062D01*
%TO.C,SW28*%
X130575622Y-97422965D02*
X143731318Y-102211247D01*
X143731318Y-102211247D02*
X138943036Y-115366944D01*
X138943036Y-115366944D02*
X125787340Y-110578662D01*
X125787340Y-110578662D02*
X130575622Y-97422965D01*
%TO.C,SW4*%
X33197053Y-86476107D02*
X46352749Y-91264389D01*
X46352749Y-91264389D02*
X41564467Y-104420086D01*
X41564467Y-104420086D02*
X28408771Y-99631804D01*
X28408771Y-99631804D02*
X33197053Y-86476107D01*
%TO.C,SW9*%
X51912597Y-90753932D02*
X65068293Y-95542214D01*
X65068293Y-95542214D02*
X60280011Y-108697911D01*
X60280011Y-108697911D02*
X47124315Y-103909629D01*
X47124315Y-103909629D02*
X51912597Y-90753932D01*
%TO.C,SW10*%
X45397133Y-108655073D02*
X58552829Y-113443355D01*
X58552829Y-113443355D02*
X53764547Y-126599052D01*
X53764547Y-126599052D02*
X40608851Y-121810770D01*
X40608851Y-121810770D02*
X45397133Y-108655073D01*
%TO.C,SW15*%
X64927147Y-110695271D02*
X78082843Y-115483553D01*
X78082843Y-115483553D02*
X73294561Y-128639250D01*
X73294561Y-128639250D02*
X60138865Y-123850968D01*
X60138865Y-123850968D02*
X64927147Y-110695271D01*
%TO.C,SW20*%
X93133513Y-126029694D02*
X106289209Y-130817976D01*
X106289209Y-130817976D02*
X101500927Y-143973673D01*
X101500927Y-143973673D02*
X88345231Y-139185391D01*
X88345231Y-139185391D02*
X93133513Y-126029694D01*
%TO.C,SW11*%
X90989082Y-39090707D02*
X104144778Y-43878989D01*
X104144778Y-43878989D02*
X99356496Y-57034686D01*
X99356496Y-57034686D02*
X86200800Y-52246404D01*
X86200800Y-52246404D02*
X90989082Y-39090707D01*
%TO.C,SW2*%
X46228011Y-50673797D02*
X59383707Y-55462079D01*
X59383707Y-55462079D02*
X54595425Y-68617776D01*
X54595425Y-68617776D02*
X41439729Y-63829494D01*
X41439729Y-63829494D02*
X46228011Y-50673797D01*
%TO.C,SW12*%
X84473591Y-56991831D02*
X97629287Y-61780113D01*
X97629287Y-61780113D02*
X92841005Y-74935810D01*
X92841005Y-74935810D02*
X79685309Y-70147528D01*
X79685309Y-70147528D02*
X84473591Y-56991831D01*
%TO.C,SW21*%
X126791376Y-52121660D02*
X139947072Y-56909942D01*
X139947072Y-56909942D02*
X135158790Y-70065639D01*
X135158790Y-70065639D02*
X122003094Y-65277357D01*
X122003094Y-65277357D02*
X126791376Y-52121660D01*
%TO.C,SW17*%
X103732134Y-59777925D02*
X116887830Y-64566207D01*
X116887830Y-64566207D02*
X112099548Y-77721904D01*
X112099548Y-77721904D02*
X98943852Y-72933622D01*
X98943852Y-72933622D02*
X103732134Y-59777925D01*
%TO.C,SW16*%
X110247621Y-41876764D02*
X123403317Y-46665046D01*
X123403317Y-46665046D02*
X118615035Y-59820743D01*
X118615035Y-59820743D02*
X105459339Y-55032461D01*
X105459339Y-55032461D02*
X110247621Y-41876764D01*
%TO.C,SW6*%
X71459067Y-37050499D02*
X84614763Y-41838781D01*
X84614763Y-41838781D02*
X79826481Y-54994478D01*
X79826481Y-54994478D02*
X66670785Y-50206196D01*
X66670785Y-50206196D02*
X71459067Y-37050499D01*
%TO.C,SW7*%
X64943581Y-54951640D02*
X78099277Y-59739922D01*
X78099277Y-59739922D02*
X73310995Y-72895619D01*
X73310995Y-72895619D02*
X60155299Y-68107337D01*
X60155299Y-68107337D02*
X64943581Y-54951640D01*
%TO.C,SW26*%
X143606598Y-61620672D02*
X156762294Y-66408954D01*
X156762294Y-66408954D02*
X151974012Y-79564651D01*
X151974012Y-79564651D02*
X138818316Y-74776369D01*
X138818316Y-74776369D02*
X143606598Y-61620672D01*
%TO.C,SW31*%
X193237730Y-66408960D02*
X206393426Y-61620678D01*
X206393426Y-61620678D02*
X211181708Y-74776375D01*
X211181708Y-74776375D02*
X198026012Y-79564657D01*
X198026012Y-79564657D02*
X193237730Y-66408960D01*
%TO.C,SW45*%
X243710806Y-130817973D02*
X256866502Y-126029691D01*
X256866502Y-126029691D02*
X261654784Y-139185388D01*
X261654784Y-139185388D02*
X248499088Y-143973670D01*
X248499088Y-143973670D02*
X243710806Y-130817973D01*
%TO.C,SW49*%
X265401689Y-97582427D02*
X278557385Y-92794145D01*
X278557385Y-92794145D02*
X283345667Y-105949842D01*
X283345667Y-105949842D02*
X270189971Y-110738124D01*
X270189971Y-110738124D02*
X265401689Y-97582427D01*
%TO.C,SW47*%
X252370731Y-61780125D02*
X265526427Y-56991843D01*
X265526427Y-56991843D02*
X270314709Y-70147540D01*
X270314709Y-70147540D02*
X257159013Y-74935822D01*
X257159013Y-74935822D02*
X252370731Y-61780125D01*
%TO.C,SW63*%
X187786789Y-168140255D02*
X201309751Y-164516788D01*
X201309751Y-164516788D02*
X204933217Y-178039750D01*
X204933217Y-178039750D02*
X191410256Y-181663217D01*
X191410256Y-181663217D02*
X187786789Y-168140255D01*
%TO.C,SW61*%
X148690254Y-164516772D02*
X162213215Y-168140238D01*
X162213215Y-168140238D02*
X158589749Y-181663200D01*
X158589749Y-181663200D02*
X145066787Y-178039733D01*
X145066787Y-178039733D02*
X148690254Y-164516772D01*
%TO.C,SW33*%
X206268684Y-102211245D02*
X219424380Y-97422963D01*
X219424380Y-97422963D02*
X224212662Y-110578660D01*
X224212662Y-110578660D02*
X211056966Y-115366942D01*
X211056966Y-115366942D02*
X206268684Y-102211245D01*
%TO.C,SW59*%
X303647276Y-91264376D02*
X316802972Y-86476094D01*
X316802972Y-86476094D02*
X321591254Y-99631791D01*
X321591254Y-99631791D02*
X308435558Y-104420073D01*
X308435558Y-104420073D02*
X303647276Y-91264376D01*
%TO.C,SW38*%
X223083932Y-92712238D02*
X236239628Y-87923956D01*
X236239628Y-87923956D02*
X241027910Y-101079653D01*
X241027910Y-101079653D02*
X227872214Y-105867935D01*
X227872214Y-105867935D02*
X223083932Y-92712238D01*
%TO.C,SW50*%
X271917176Y-115483567D02*
X285072872Y-110695285D01*
X285072872Y-110695285D02*
X289861154Y-123850982D01*
X289861154Y-123850982D02*
X276705458Y-128639264D01*
X276705458Y-128639264D02*
X271917176Y-115483567D01*
%TO.C,SW58*%
X297131788Y-73363214D02*
X310287484Y-68574932D01*
X310287484Y-68574932D02*
X315075766Y-81730629D01*
X315075766Y-81730629D02*
X301920070Y-86518911D01*
X301920070Y-86518911D02*
X297131788Y-73363214D01*
%TO.C,SW43*%
X239627657Y-82467339D02*
X252783353Y-77679057D01*
X252783353Y-77679057D02*
X257571635Y-90834754D01*
X257571635Y-90834754D02*
X244415939Y-95623036D01*
X244415939Y-95623036D02*
X239627657Y-82467339D01*
%TO.C,SW57*%
X290616304Y-55462078D02*
X303772000Y-50673796D01*
X303772000Y-50673796D02*
X308560282Y-63829493D01*
X308560282Y-63829493D02*
X295404586Y-68617775D01*
X295404586Y-68617775D02*
X290616304Y-55462078D01*
%TO.C,SW52*%
X271900741Y-59739921D02*
X285056437Y-54951639D01*
X285056437Y-54951639D02*
X289844719Y-68107336D01*
X289844719Y-68107336D02*
X276689023Y-72895618D01*
X276689023Y-72895618D02*
X271900741Y-59739921D01*
%TO.C,SW44*%
X246143151Y-100368471D02*
X259298847Y-95580189D01*
X259298847Y-95580189D02*
X264087129Y-108735886D01*
X264087129Y-108735886D02*
X250931433Y-113524168D01*
X250931433Y-113524168D02*
X246143151Y-100368471D01*
%TO.C,SW41*%
X226596699Y-46665056D02*
X239752395Y-41876774D01*
X239752395Y-41876774D02*
X244540677Y-55032471D01*
X244540677Y-55032471D02*
X231384981Y-59820753D01*
X231384981Y-59820753D02*
X226596699Y-46665056D01*
%TO.C,SW40*%
X223384353Y-143438931D02*
X234852482Y-135408860D01*
X234852482Y-135408860D02*
X242882552Y-146876989D01*
X242882552Y-146876989D02*
X231414423Y-154907060D01*
X231414423Y-154907060D02*
X223384353Y-143438931D01*
%TO.C,SW62*%
X168000019Y-168909994D02*
X182000019Y-168909994D01*
X182000019Y-168909994D02*
X182000019Y-182909994D01*
X182000019Y-182909994D02*
X168000019Y-182909994D01*
X168000019Y-182909994D02*
X168000019Y-168909994D01*
%TO.C,SW46*%
X245855232Y-43878988D02*
X259010928Y-39090706D01*
X259010928Y-39090706D02*
X263799210Y-52246403D01*
X263799210Y-52246403D02*
X250643514Y-57034685D01*
X250643514Y-57034685D02*
X245855232Y-43878988D01*
%TO.C,SW51*%
X265385256Y-41838789D02*
X278540952Y-37050507D01*
X278540952Y-37050507D02*
X283329234Y-50206204D01*
X283329234Y-50206204D02*
X270173538Y-54994486D01*
X270173538Y-54994486D02*
X265385256Y-41838789D01*
%TO.C,SW60*%
X310162752Y-109165515D02*
X323318448Y-104377233D01*
X323318448Y-104377233D02*
X328106730Y-117532930D01*
X328106730Y-117532930D02*
X314951034Y-122321212D01*
X314951034Y-122321212D02*
X310162752Y-109165515D01*
%TO.C,SW37*%
X216568440Y-74811105D02*
X229724136Y-70022823D01*
X229724136Y-70022823D02*
X234512418Y-83178520D01*
X234512418Y-83178520D02*
X221356722Y-87966802D01*
X221356722Y-87966802D02*
X216568440Y-74811105D01*
%TO.C,SW54*%
X284931704Y-95542220D02*
X298087400Y-90753938D01*
X298087400Y-90753938D02*
X302875682Y-103909635D01*
X302875682Y-103909635D02*
X289719986Y-108697917D01*
X289719986Y-108697917D02*
X284931704Y-95542220D01*
%TO.C,SW55*%
X291447196Y-113443365D02*
X304602892Y-108655083D01*
X304602892Y-108655083D02*
X309391174Y-121810780D01*
X309391174Y-121810780D02*
X296235478Y-126599062D01*
X296235478Y-126599062D02*
X291447196Y-113443365D01*
%TO.C,SW48*%
X258886211Y-79681272D02*
X272041907Y-74892990D01*
X272041907Y-74892990D02*
X276830189Y-88048687D01*
X276830189Y-88048687D02*
X263674493Y-92836969D01*
X263674493Y-92836969D02*
X258886211Y-79681272D01*
%TO.C,SW53*%
X278416220Y-77641066D02*
X291571916Y-72852784D01*
X291571916Y-72852784D02*
X296360198Y-86008481D01*
X296360198Y-86008481D02*
X283204502Y-90796763D01*
X283204502Y-90796763D02*
X278416220Y-77641066D01*
%TO.C,SW35*%
X207138183Y-160862802D02*
X216137209Y-150138179D01*
X216137209Y-150138179D02*
X226861832Y-159137206D01*
X226861832Y-159137206D02*
X217862805Y-169861828D01*
X217862805Y-169861828D02*
X207138183Y-160862802D01*
%TO.C,SW34*%
X212784166Y-120112389D02*
X225939862Y-115324107D01*
X225939862Y-115324107D02*
X230728144Y-128479804D01*
X230728144Y-128479804D02*
X217572448Y-133268086D01*
X217572448Y-133268086D02*
X212784166Y-120112389D01*
%TO.C,SW42*%
X233112174Y-64566203D02*
X246267870Y-59777921D01*
X246267870Y-59777921D02*
X251056152Y-72933618D01*
X251056152Y-72933618D02*
X237900456Y-77721900D01*
X237900456Y-77721900D02*
X233112174Y-64566203D01*
%TO.C,SW56*%
X284100826Y-37560943D02*
X297256522Y-32772661D01*
X297256522Y-32772661D02*
X302044804Y-45928358D01*
X302044804Y-45928358D02*
X288889108Y-50716640D01*
X288889108Y-50716640D02*
X284100826Y-37560943D01*
%TO.C,SW36*%
X210052947Y-56909963D02*
X223208643Y-52121681D01*
X223208643Y-52121681D02*
X227996925Y-65277378D01*
X227996925Y-65277378D02*
X214841229Y-70065660D01*
X214841229Y-70065660D02*
X210052947Y-56909963D01*
%TO.C,SW39*%
X229599407Y-110613390D02*
X242755103Y-105825108D01*
X242755103Y-105825108D02*
X247543385Y-118980805D01*
X247543385Y-118980805D02*
X234387689Y-123769087D01*
X234387689Y-123769087D02*
X229599407Y-110613390D01*
%TO.C,SW32*%
X199753203Y-84310106D02*
X212908899Y-79521824D01*
X212908899Y-79521824D02*
X217697181Y-92677521D01*
X217697181Y-92677521D02*
X204541485Y-97465803D01*
X204541485Y-97465803D02*
X199753203Y-84310106D01*
%TD*%
%LPC*%
%TO.C,A1*%
G36*
X165263378Y-141584671D02*
G01*
X165228511Y-141735674D01*
X165094045Y-141754005D01*
X164884974Y-141661070D01*
X164924711Y-141584671D01*
X165226150Y-141554272D01*
X165263378Y-141584671D01*
G37*
G36*
X165517378Y-140314671D02*
G01*
X165547777Y-140616110D01*
X165517378Y-140653338D01*
X165366375Y-140618471D01*
X165348045Y-140484005D01*
X165440979Y-140274934D01*
X165517378Y-140314671D01*
G37*
G36*
X162300045Y-142643005D02*
G01*
X162542356Y-142871251D01*
X162554045Y-142911995D01*
X162357527Y-143021092D01*
X162300045Y-143024005D01*
X162055805Y-142828741D01*
X162046045Y-142755014D01*
X162201654Y-142603316D01*
X162300045Y-142643005D01*
G37*
G36*
X164058475Y-141638615D02*
G01*
X164078045Y-141724024D01*
X163892687Y-142083098D01*
X163824045Y-142135005D01*
X163589614Y-142123394D01*
X163570045Y-142037985D01*
X163755402Y-141678911D01*
X163824045Y-141627005D01*
X164058475Y-141638615D01*
G37*
G36*
X166530733Y-139623614D02*
G01*
X166491045Y-139722005D01*
X166262798Y-139964316D01*
X166222054Y-139976005D01*
X166112957Y-139779487D01*
X166110045Y-139722005D01*
X166305308Y-139477765D01*
X166379035Y-139468005D01*
X166530733Y-139623614D01*
G37*
G36*
X171436664Y-139915292D02*
G01*
X171444045Y-139976005D01*
X171250757Y-140222624D01*
X171190045Y-140230005D01*
X170943425Y-140036717D01*
X170936045Y-139976005D01*
X171129332Y-139729385D01*
X171190045Y-139722005D01*
X171436664Y-139915292D01*
G37*
G36*
X181383400Y-139849005D02*
G01*
X181922099Y-139849005D01*
X181942544Y-140371758D01*
X182000104Y-140506681D01*
X182032563Y-140423466D01*
X182079874Y-139813502D01*
X182037689Y-139407466D01*
X181970778Y-139266691D01*
X181928688Y-139571985D01*
X181922099Y-139849005D01*
X181383400Y-139849005D01*
X181371551Y-139597209D01*
X181418753Y-138970800D01*
X181576105Y-138602532D01*
X181689802Y-138486232D01*
X182129596Y-138284639D01*
X182354918Y-138318128D01*
X182523864Y-138677407D01*
X182600007Y-139394950D01*
X182583293Y-140329559D01*
X182473669Y-141340038D01*
X182356292Y-141954581D01*
X182227398Y-142957537D01*
X182369372Y-143600751D01*
X182764655Y-143849577D01*
X183259886Y-143737582D01*
X183779688Y-143422778D01*
X183826481Y-143110182D01*
X183509044Y-142770004D01*
X183160492Y-142275499D01*
X183230508Y-142009589D01*
X183868888Y-142009589D01*
X183980442Y-142472291D01*
X184299157Y-142963501D01*
X184750863Y-143479004D01*
X185095462Y-143765298D01*
X185160045Y-143786005D01*
X185439212Y-143603221D01*
X185872078Y-143146714D01*
X186020932Y-142963501D01*
X186399508Y-142335827D01*
X186426422Y-141935767D01*
X186124989Y-141832775D01*
X185695314Y-141993410D01*
X185070917Y-142147928D01*
X184624775Y-141993410D01*
X184091436Y-141826811D01*
X183868888Y-142009589D01*
X183230508Y-142009589D01*
X183300641Y-141743231D01*
X183636044Y-141373005D01*
X184035401Y-141064500D01*
X184336645Y-141110771D01*
X184652045Y-141373004D01*
X185049156Y-141679949D01*
X185349986Y-141636122D01*
X185677009Y-141364892D01*
X186064155Y-141061677D01*
X186352510Y-141093172D01*
X186740645Y-141443716D01*
X187102325Y-141889375D01*
X187106645Y-142285612D01*
X186955721Y-142609976D01*
X186770154Y-143227796D01*
X186901551Y-143663539D01*
X187207035Y-143786005D01*
X187339135Y-143556594D01*
X187425937Y-142965954D01*
X187446045Y-142418449D01*
X187446044Y-141050894D01*
X188613349Y-141090186D01*
X189578244Y-141231797D01*
X190110227Y-141580196D01*
X190336073Y-142072065D01*
X190531307Y-142795165D01*
X190663449Y-143565717D01*
X190700023Y-144199938D01*
X190626288Y-144500428D01*
X190390047Y-144488172D01*
X190160607Y-144118666D01*
X190011433Y-143538267D01*
X189989934Y-143232647D01*
X189811150Y-142514834D01*
X189373713Y-141964243D01*
X188833838Y-141754005D01*
X188415110Y-141981004D01*
X188092392Y-142554106D01*
X187954502Y-143311462D01*
X187954045Y-143357205D01*
X187804417Y-143971266D01*
X187568280Y-144297959D01*
X187203295Y-144472073D01*
X186808037Y-144274279D01*
X186679280Y-144162693D01*
X186281377Y-143857081D01*
X185978914Y-143907722D01*
X185672809Y-144162693D01*
X185240026Y-144459150D01*
X184890441Y-144378652D01*
X184775572Y-144291123D01*
X184419169Y-144107613D01*
X183926335Y-144137949D01*
X183343856Y-144306608D01*
X182666622Y-144500485D01*
X182287662Y-144493584D01*
X182035267Y-144277954D01*
X182010576Y-144244876D01*
X181734671Y-143988049D01*
X181369529Y-144035567D01*
X181047136Y-144190602D01*
X180359088Y-144395253D01*
X179417083Y-144484162D01*
X179026380Y-144479466D01*
X178217145Y-144412290D01*
X177789035Y-144271382D01*
X177615724Y-144006565D01*
X177596882Y-143911699D01*
X177424171Y-142966961D01*
X177251628Y-142473895D01*
X177058186Y-142376616D01*
X177024598Y-142393607D01*
X176867063Y-142723451D01*
X176782580Y-143353152D01*
X176778045Y-143546995D01*
X176720923Y-144177656D01*
X176578466Y-144524718D01*
X176524045Y-144548005D01*
X176364018Y-144322889D01*
X176275953Y-143761469D01*
X176270045Y-143546995D01*
X176212783Y-142872012D01*
X176070545Y-142441103D01*
X176023491Y-142393607D01*
X175824069Y-142435144D01*
X175649037Y-142866423D01*
X175477735Y-143742317D01*
X175451450Y-143913005D01*
X175314801Y-144229588D01*
X174941114Y-144398302D01*
X174200305Y-144474635D01*
X174126461Y-144478176D01*
X173321550Y-144454809D01*
X172698556Y-144330537D01*
X172522586Y-144240509D01*
X172169192Y-144089159D01*
X171943263Y-144308214D01*
X171651540Y-144526011D01*
X171371211Y-144293941D01*
X171138104Y-143669549D01*
X170994880Y-142784956D01*
X170966945Y-142586529D01*
X172266057Y-142586529D01*
X172426036Y-143190556D01*
X172767610Y-143654964D01*
X173095045Y-143786005D01*
X173476638Y-143577048D01*
X173785248Y-143131279D01*
X173922294Y-142421906D01*
X173696273Y-141875705D01*
X173170116Y-141629828D01*
X173095045Y-141627005D01*
X172589216Y-141823993D01*
X172374469Y-142051779D01*
X172266057Y-142586529D01*
X170966945Y-142586529D01*
X170884946Y-142004078D01*
X170713741Y-141614797D01*
X170426438Y-141500751D01*
X170389442Y-141500005D01*
X169931919Y-141733237D01*
X169591504Y-142357855D01*
X169421723Y-143261239D01*
X169412045Y-143556512D01*
X169266931Y-144229891D01*
X168903770Y-144533018D01*
X168430831Y-144484973D01*
X167956385Y-144104837D01*
X167588702Y-143411693D01*
X167534543Y-143225624D01*
X167308041Y-142334008D01*
X166305557Y-143336492D01*
X164884413Y-144463944D01*
X163335217Y-145111950D01*
X161756684Y-145304426D01*
X160702017Y-145236155D01*
X159983794Y-144997026D01*
X159724684Y-144820034D01*
X159395742Y-144441990D01*
X159837341Y-144441990D01*
X160266887Y-144714337D01*
X160331545Y-144745999D01*
X161465140Y-145018081D01*
X162858333Y-144878618D01*
X163646157Y-144653050D01*
X164681512Y-144133914D01*
X165752723Y-143324633D01*
X166732285Y-142350821D01*
X167492692Y-141338092D01*
X167891692Y-140470458D01*
X168078661Y-139441394D01*
X168057558Y-138613435D01*
X167837706Y-138098685D01*
X167686466Y-138002233D01*
X167470730Y-138064026D01*
X167514274Y-138517374D01*
X167514941Y-138520036D01*
X167539193Y-139440873D01*
X167264793Y-140522666D01*
X166754571Y-141569446D01*
X166370845Y-142088453D01*
X165713785Y-142695742D01*
X164842125Y-143328081D01*
X164326937Y-143637269D01*
X163497866Y-144043518D01*
X162789252Y-144238810D01*
X161954346Y-144274314D01*
X161388448Y-144246618D01*
X160386776Y-144213490D01*
X159873522Y-144276827D01*
X159837341Y-144441990D01*
X159395742Y-144441990D01*
X159327934Y-144364060D01*
X159379045Y-144077965D01*
X159593555Y-143886257D01*
X160452964Y-143886257D01*
X160910957Y-144045966D01*
X161684144Y-144044013D01*
X162613531Y-143900973D01*
X163540124Y-143637421D01*
X164045854Y-143421317D01*
X165350778Y-142557830D01*
X166383918Y-141470117D01*
X167037984Y-140276319D01*
X167110772Y-140046447D01*
X167335737Y-139084805D01*
X167351123Y-138564697D01*
X167228315Y-138452004D01*
X166979344Y-138600021D01*
X166421041Y-139001183D01*
X165640650Y-139591161D01*
X164878815Y-140184417D01*
X163829737Y-141008407D01*
X162785919Y-141823250D01*
X161897356Y-142512080D01*
X161490130Y-142824670D01*
X160881961Y-143329825D01*
X160511348Y-143720205D01*
X160452964Y-143886257D01*
X159593555Y-143886257D01*
X159873578Y-143636000D01*
X160645472Y-143004137D01*
X161620322Y-142237694D01*
X162723724Y-141391992D01*
X163881277Y-140522353D01*
X165018576Y-139684095D01*
X166061217Y-138932540D01*
X166934798Y-138323007D01*
X167564915Y-137910817D01*
X167877164Y-137751291D01*
X167888045Y-137751365D01*
X168218849Y-138060028D01*
X168355384Y-138809285D01*
X168295502Y-139969462D01*
X168127137Y-141055549D01*
X167963211Y-142118774D01*
X167949508Y-142844210D01*
X168084487Y-143378873D01*
X168102374Y-143419371D01*
X168404515Y-143881189D01*
X168650895Y-143863846D01*
X168822716Y-143394832D01*
X168901178Y-142501642D01*
X168904045Y-142247014D01*
X168942946Y-141441378D01*
X169044385Y-140895840D01*
X169158045Y-140738005D01*
X169404723Y-140925460D01*
X169412045Y-140984033D01*
X169597622Y-141150512D01*
X169729545Y-141132248D01*
X170619078Y-140880265D01*
X171134302Y-140836743D01*
X171380544Y-141042778D01*
X171463133Y-141539464D01*
X171473509Y-141812665D01*
X171514307Y-142350469D01*
X171584794Y-142495075D01*
X171626731Y-142389005D01*
X172006748Y-141565303D01*
X172572766Y-141127092D01*
X173212960Y-141048323D01*
X173815502Y-141302951D01*
X174268566Y-141864928D01*
X174460327Y-142708209D01*
X174446993Y-143045900D01*
X174478608Y-143682357D01*
X174682545Y-143972495D01*
X174877222Y-143877949D01*
X174977745Y-143384660D01*
X175000045Y-142679161D01*
X175064935Y-141685588D01*
X175268400Y-141167788D01*
X175623632Y-141109248D01*
X176032050Y-141387489D01*
X176426614Y-141686161D01*
X176732262Y-141624912D01*
X177016039Y-141387489D01*
X177507391Y-141086512D01*
X177839074Y-141236091D01*
X178024797Y-141851837D01*
X178075874Y-142594495D01*
X178103704Y-143913005D01*
X178321253Y-142806418D01*
X178426931Y-142429042D01*
X179064045Y-142429042D01*
X179164477Y-142655737D01*
X179539401Y-142533408D01*
X179557898Y-142523575D01*
X180021174Y-142209380D01*
X180197042Y-142024190D01*
X180161960Y-141700588D01*
X180073061Y-141622689D01*
X179676485Y-141626001D01*
X179273797Y-141932153D01*
X179066312Y-142380265D01*
X179064045Y-142429042D01*
X178426931Y-142429042D01*
X178605619Y-141790944D01*
X178999338Y-141210901D01*
X179554289Y-140996981D01*
X179679345Y-140992004D01*
X180408976Y-141155160D01*
X180769721Y-141572146D01*
X180748530Y-142134242D01*
X180332355Y-142732726D01*
X179925289Y-143041158D01*
X179377711Y-143414360D01*
X179226596Y-143648898D01*
X179414986Y-143835180D01*
X179422414Y-143839364D01*
X180095955Y-143958677D01*
X180751901Y-143643167D01*
X181197811Y-143069504D01*
X181408452Y-142342169D01*
X181452805Y-141255274D01*
X181418910Y-140603599D01*
X181383400Y-139849005D01*
G37*
%TD*%
D14*
%TO.C,SW64*%
X200500000Y-130000000D03*
X149500000Y-130000000D03*
X177500000Y-99400000D03*
X172500000Y-99400000D03*
X175000000Y-99400000D03*
D15*
X205099999Y-129999999D03*
D16*
X190100000Y-156153967D03*
X190100000Y-103846033D03*
D17*
X189500000Y-130000000D03*
X160500000Y-130000000D03*
D16*
X159900000Y-156153967D03*
X159900000Y-103846033D03*
D15*
X144899999Y-129999999D03*
%TD*%
D18*
%TO.C,H3*%
X54600005Y-29955003D03*
%TD*%
%TO.C,H2*%
X295250003Y-30005001D03*
%TD*%
D19*
%TO.C,J2*%
X177889999Y-23150005D03*
X172109999Y-23150005D03*
D20*
X178224998Y-24595004D03*
X177449998Y-24595004D03*
D21*
X176249998Y-24595004D03*
X175249998Y-24595004D03*
X174749998Y-24595004D03*
X173749998Y-24595004D03*
D20*
X172549998Y-24595004D03*
X171774998Y-24595004D03*
D21*
X173249998Y-24595004D03*
X174249998Y-24595004D03*
X175749998Y-24595004D03*
X176749998Y-24595004D03*
D22*
X179319998Y-23680004D03*
D23*
X179319998Y-19500004D03*
D22*
X170679998Y-23680004D03*
D23*
X170679998Y-19500004D03*
%TD*%
D24*
%TO.C,J4*%
X155000002Y-33580623D03*
D25*
X155000002Y-36120623D03*
X155000002Y-38660623D03*
X155000002Y-41200623D03*
X155000002Y-43740623D03*
X155000002Y-46280623D03*
X155000002Y-48820623D03*
D26*
X155250003Y-25200624D03*
X155250003Y-57200624D03*
X194750003Y-25200624D03*
X194750003Y-57200624D03*
%TD*%
D18*
%TO.C,H1*%
X175000001Y-186655002D03*
%TD*%
D24*
%TO.C,J1*%
X171199997Y-62600002D03*
D25*
X173739997Y-62600002D03*
X176279997Y-62600002D03*
X178819997Y-62600002D03*
%TD*%
D27*
%TO.C,SW25*%
X121027845Y-148071743D03*
D28*
X121860967Y-142453566D03*
D29*
X116866552Y-145157974D03*
D28*
X115202467Y-140892002D03*
D27*
X112705260Y-142244206D03*
%TD*%
%TO.C,SW30*%
X136265365Y-163891517D03*
D28*
X138524190Y-158680403D03*
D29*
X133000004Y-160000011D03*
D28*
X132496736Y-155448701D03*
D27*
X129734643Y-156108505D03*
%TD*%
%TO.C,SW1*%
X61700841Y-43482097D03*
D28*
X61051485Y-37839727D03*
D29*
X56927203Y-41744634D03*
D28*
X54215705Y-38054718D03*
D27*
X52153564Y-40007172D03*
%TD*%
%TO.C,SW24*%
X116202281Y-116534542D03*
D28*
X115552925Y-110892172D03*
D29*
X111428643Y-114797079D03*
D28*
X108717145Y-111107163D03*
D27*
X106655004Y-113059617D03*
%TD*%
%TO.C,SW29*%
X133017485Y-126033574D03*
D28*
X132368129Y-120391204D03*
D29*
X128243847Y-124296111D03*
D28*
X125532349Y-120606195D03*
D27*
X123470208Y-122558649D03*
%TD*%
%TO.C,SW14*%
X80399972Y-103503586D03*
D28*
X79750616Y-97861216D03*
D29*
X75626334Y-101766123D03*
D28*
X72914836Y-98076207D03*
D27*
X70852695Y-100028661D03*
%TD*%
%TO.C,SW19*%
X99658518Y-106289651D03*
D28*
X99009162Y-100647281D03*
D29*
X94884880Y-104552188D03*
D28*
X92173382Y-100862272D03*
D27*
X90111241Y-102814726D03*
%TD*%
%TO.C,SW5*%
X35638900Y-115086695D03*
D28*
X34989544Y-109444325D03*
D29*
X30865262Y-113349232D03*
D28*
X28153764Y-109659316D03*
D27*
X26091623Y-111611770D03*
%TD*%
%TO.C,SW22*%
X129233232Y-80732244D03*
D28*
X128583876Y-75089874D03*
D29*
X124459594Y-78994781D03*
D28*
X121748096Y-75304865D03*
D27*
X119685955Y-77257319D03*
%TD*%
%TO.C,SW27*%
X146048454Y-90231275D03*
D28*
X145399098Y-84588905D03*
D29*
X141274816Y-88493812D03*
D28*
X138563318Y-84803896D03*
D27*
X136501177Y-86756350D03*
%TD*%
%TO.C,SW3*%
X48669856Y-79284399D03*
D28*
X48020500Y-73642029D03*
D29*
X43896218Y-77546936D03*
D28*
X41184720Y-73857020D03*
D27*
X39122579Y-75809474D03*
%TD*%
%TO.C,SW8*%
X67385454Y-83562223D03*
D28*
X66736098Y-77919853D03*
D29*
X62611816Y-81824760D03*
D28*
X59900318Y-78134844D03*
D27*
X57838177Y-80087298D03*
%TD*%
%TO.C,SW13*%
X86915464Y-85602429D03*
D28*
X86266108Y-79960059D03*
D29*
X82141826Y-83864966D03*
D28*
X79430328Y-80175050D03*
D27*
X77368187Y-82127504D03*
%TD*%
%TO.C,SW23*%
X122717754Y-98633426D03*
D28*
X122068398Y-92991056D03*
D29*
X117944116Y-96895963D03*
D28*
X115232618Y-93206047D03*
D27*
X113170477Y-95158501D03*
%TD*%
%TO.C,SW18*%
X106173986Y-88388514D03*
D28*
X105524630Y-82746144D03*
D29*
X101400348Y-86651051D03*
D28*
X98688850Y-82961135D03*
D27*
X96626709Y-84913589D03*
%TD*%
%TO.C,SW28*%
X139532967Y-108132417D03*
D28*
X138883611Y-102490047D03*
D29*
X134759329Y-106394954D03*
D28*
X132047831Y-102705038D03*
D27*
X129985690Y-104657492D03*
%TD*%
%TO.C,SW4*%
X42154398Y-97185559D03*
D28*
X41505042Y-91543189D03*
D29*
X37380760Y-95448096D03*
D28*
X34669262Y-91758180D03*
D27*
X32607121Y-93710634D03*
%TD*%
%TO.C,SW9*%
X60869942Y-101463384D03*
D28*
X60220586Y-95821014D03*
D29*
X56096304Y-99725921D03*
D28*
X53384806Y-96036005D03*
D27*
X51322665Y-97988459D03*
%TD*%
%TO.C,SW10*%
X54354478Y-119364525D03*
D28*
X53705122Y-113722155D03*
D29*
X49580840Y-117627062D03*
D28*
X46869342Y-113937146D03*
D27*
X44807201Y-115889600D03*
%TD*%
%TO.C,SW15*%
X73884492Y-121404723D03*
D28*
X73235136Y-115762353D03*
D29*
X69110854Y-119667260D03*
D28*
X66399356Y-115977344D03*
D27*
X64337215Y-117929798D03*
%TD*%
%TO.C,SW20*%
X102090858Y-136739146D03*
D28*
X101441502Y-131096776D03*
D29*
X97317220Y-135001683D03*
D28*
X94605722Y-131311767D03*
D27*
X92543581Y-133264221D03*
%TD*%
%TO.C,SW11*%
X99946427Y-49800159D03*
D28*
X99297071Y-44157789D03*
D29*
X95172789Y-48062696D03*
D28*
X92461291Y-44372780D03*
D27*
X90399150Y-46325234D03*
%TD*%
%TO.C,SW2*%
X55185356Y-61383249D03*
D28*
X54536000Y-55740879D03*
D29*
X50411718Y-59645786D03*
D28*
X47700220Y-55955870D03*
D27*
X45638079Y-57908324D03*
%TD*%
%TO.C,SW12*%
X93430936Y-67701283D03*
D28*
X92781580Y-62058913D03*
D29*
X88657298Y-65963820D03*
D28*
X85945800Y-62273904D03*
D27*
X83883659Y-64226358D03*
%TD*%
%TO.C,SW21*%
X135748721Y-62831112D03*
D28*
X135099365Y-57188742D03*
D29*
X130975083Y-61093649D03*
D28*
X128263585Y-57403733D03*
D27*
X126201444Y-59356187D03*
%TD*%
%TO.C,SW17*%
X112689479Y-70487377D03*
D28*
X112040123Y-64845007D03*
D29*
X107915841Y-68749914D03*
D28*
X105204343Y-65059998D03*
D27*
X103142202Y-67012452D03*
%TD*%
%TO.C,SW16*%
X119204966Y-52586216D03*
D28*
X118555610Y-46943846D03*
D29*
X114431328Y-50848753D03*
D28*
X111719830Y-47158837D03*
D27*
X109657689Y-49111291D03*
%TD*%
%TO.C,SW6*%
X80416412Y-47759951D03*
D28*
X79767056Y-42117581D03*
D29*
X75642774Y-46022488D03*
D28*
X72931276Y-42332572D03*
D27*
X70869135Y-44285026D03*
%TD*%
%TO.C,SW7*%
X73900926Y-65661092D03*
D28*
X73251570Y-60018722D03*
D29*
X69127288Y-63923629D03*
D28*
X66415790Y-60233713D03*
D27*
X64353649Y-62186167D03*
%TD*%
%TO.C,SW26*%
X152563943Y-72330124D03*
D28*
X151914587Y-66687754D03*
D29*
X147790305Y-70592661D03*
D28*
X145078807Y-66902745D03*
D27*
X143016666Y-68855199D03*
%TD*%
%TO.C,SW31*%
X206983358Y-68855205D03*
D28*
X202859076Y-64950298D03*
D29*
X202209719Y-70592668D03*
D28*
X197760759Y-69508945D03*
D27*
X197436081Y-72330130D03*
%TD*%
%TO.C,SW45*%
X257456434Y-133264218D03*
D28*
X253332152Y-129359311D03*
D29*
X252682795Y-135001681D03*
D28*
X248233835Y-133917958D03*
D27*
X247909157Y-136739143D03*
%TD*%
%TO.C,SW49*%
X279147317Y-100028672D03*
D28*
X275023035Y-96123765D03*
D29*
X274373678Y-101766135D03*
D28*
X269924718Y-100682412D03*
D27*
X269600040Y-103503597D03*
%TD*%
%TO.C,SW47*%
X266116359Y-64226370D03*
D28*
X261992077Y-60321463D03*
D29*
X261342720Y-65963833D03*
D28*
X256893760Y-64880110D03*
D27*
X256569082Y-67701295D03*
%TD*%
%TO.C,SW63*%
X201266906Y-171775202D03*
D28*
X197498654Y-167525699D03*
D29*
X196360003Y-173090003D03*
D28*
X192022425Y-171622651D03*
D27*
X191453100Y-174404803D03*
%TD*%
%TO.C,SW61*%
X158546905Y-174404787D03*
D28*
X157408254Y-168840483D03*
D29*
X153640001Y-173089986D03*
D28*
X150617224Y-169650434D03*
D27*
X148733098Y-171775185D03*
%TD*%
%TO.C,SW33*%
X220014312Y-104657490D03*
D28*
X215890030Y-100752583D03*
D29*
X215240673Y-106394953D03*
D28*
X210791713Y-105311230D03*
D27*
X210467035Y-108132415D03*
%TD*%
%TO.C,SW59*%
X317392904Y-93710621D03*
D28*
X313268622Y-89805714D03*
D29*
X312619265Y-95448084D03*
D28*
X308170305Y-94364361D03*
D27*
X307845627Y-97185546D03*
%TD*%
%TO.C,SW38*%
X236829560Y-95158483D03*
D28*
X232705278Y-91253576D03*
D29*
X232055921Y-96895946D03*
D28*
X227606961Y-95812223D03*
D27*
X227282283Y-98633408D03*
%TD*%
%TO.C,SW50*%
X285662804Y-117929812D03*
D28*
X281538522Y-114024905D03*
D29*
X280889165Y-119667275D03*
D28*
X276440205Y-118583552D03*
D27*
X276115527Y-121404737D03*
%TD*%
%TO.C,SW58*%
X310877416Y-75809459D03*
D28*
X306753134Y-71904552D03*
D29*
X306103777Y-77546922D03*
D28*
X301654817Y-76463199D03*
D27*
X301330139Y-79284384D03*
%TD*%
D30*
%TO.C,U4*%
X180349999Y-124339999D03*
D31*
X180350000Y-126120000D03*
X180350000Y-127900000D03*
X180350000Y-129680000D03*
X180350000Y-131460000D03*
X180350000Y-133240000D03*
X180350000Y-135020000D03*
X180350000Y-136800000D03*
X169650000Y-137690000D03*
X169650000Y-135910000D03*
X169650000Y-134130000D03*
X169650000Y-132350000D03*
X169650000Y-130570000D03*
X169650000Y-128790000D03*
X169650000Y-127010000D03*
X169650000Y-125230000D03*
%TD*%
D27*
%TO.C,SW43*%
X253373285Y-84913584D03*
D28*
X249249003Y-81008677D03*
D29*
X248599646Y-86651047D03*
D28*
X244150686Y-85567324D03*
D27*
X243826008Y-88388509D03*
%TD*%
%TO.C,SW57*%
X304361932Y-57908323D03*
D28*
X300237650Y-54003416D03*
D29*
X299588293Y-59645786D03*
D28*
X295139333Y-58562063D03*
D27*
X294814655Y-61383248D03*
%TD*%
%TO.C,SW52*%
X285646369Y-62186166D03*
D28*
X281522087Y-58281259D03*
D29*
X280872730Y-63923629D03*
D28*
X276423770Y-62839906D03*
D27*
X276099092Y-65661091D03*
%TD*%
%TO.C,SW44*%
X259888779Y-102814716D03*
D28*
X255764497Y-98909809D03*
D29*
X255115140Y-104552179D03*
D28*
X250666180Y-103468456D03*
D27*
X250341502Y-106289641D03*
%TD*%
%TO.C,SW41*%
X240342327Y-49111301D03*
D28*
X236218045Y-45206394D03*
D29*
X235568688Y-50848764D03*
D28*
X231119728Y-49765041D03*
D27*
X230795050Y-52586226D03*
%TD*%
%TO.C,SW40*%
X237294745Y-142244192D03*
D28*
X232300330Y-139539784D03*
D29*
X233133452Y-145157960D03*
D28*
X228555599Y-145262640D03*
D27*
X228972160Y-148071728D03*
%TD*%
%TO.C,SW62*%
X180080019Y-175909994D03*
D28*
X177540019Y-170829994D03*
D29*
X175000019Y-175909994D03*
D28*
X171190019Y-173369994D03*
D27*
X169920019Y-175909994D03*
%TD*%
%TO.C,SW46*%
X259600860Y-46325233D03*
D28*
X255476578Y-42420326D03*
D29*
X254827221Y-48062696D03*
D28*
X250378261Y-46978973D03*
D27*
X250053583Y-49800158D03*
%TD*%
%TO.C,SW51*%
X279130884Y-44285034D03*
D28*
X275006602Y-40380127D03*
D29*
X274357245Y-46022497D03*
D28*
X269908285Y-44938774D03*
D27*
X269583607Y-47759959D03*
%TD*%
%TO.C,SW60*%
X323908380Y-111611760D03*
D28*
X319784098Y-107706853D03*
D29*
X319134741Y-113349223D03*
D28*
X314685781Y-112265500D03*
D27*
X314361103Y-115086685D03*
%TD*%
%TO.C,SW37*%
X230314068Y-77257350D03*
D28*
X226189786Y-73352443D03*
D29*
X225540429Y-78994813D03*
D28*
X221091469Y-77911090D03*
D27*
X220766791Y-80732275D03*
%TD*%
%TO.C,SW54*%
X298677332Y-97988465D03*
D28*
X294553050Y-94083558D03*
D29*
X293903693Y-99725928D03*
D28*
X289454733Y-98642205D03*
D27*
X289130055Y-101463390D03*
%TD*%
%TO.C,SW55*%
X305192824Y-115889610D03*
D28*
X301068542Y-111984703D03*
D29*
X300419185Y-117627073D03*
D28*
X295970225Y-116543350D03*
D27*
X295645547Y-119364535D03*
%TD*%
%TO.C,SW48*%
X272631839Y-82127517D03*
D28*
X268507557Y-78222610D03*
D29*
X267858200Y-83864980D03*
D28*
X263409240Y-82781257D03*
D27*
X263084562Y-85602442D03*
%TD*%
%TO.C,SW53*%
X292161848Y-80087311D03*
D28*
X288037566Y-76182404D03*
D29*
X287388209Y-81824774D03*
D28*
X282939249Y-80741051D03*
D27*
X282614571Y-83562236D03*
%TD*%
%TO.C,SW35*%
X220265368Y-156108498D03*
D28*
X214741182Y-154788890D03*
D29*
X217000007Y-160000004D03*
D28*
X212605234Y-161285953D03*
D27*
X213734646Y-163891510D03*
%TD*%
%TO.C,SW34*%
X226529794Y-122558634D03*
D28*
X222405512Y-118653727D03*
D29*
X221756155Y-124296097D03*
D28*
X217307195Y-123212374D03*
D27*
X216982517Y-126033559D03*
%TD*%
%TO.C,SW42*%
X246857802Y-67012448D03*
D28*
X242733520Y-63107541D03*
D29*
X242084163Y-68749911D03*
D28*
X237635203Y-67666188D03*
D27*
X237310525Y-70487373D03*
%TD*%
%TO.C,SW56*%
X297846454Y-40007188D03*
D28*
X293722172Y-36102281D03*
D29*
X293072815Y-41744651D03*
D28*
X288623855Y-40660928D03*
D27*
X288299177Y-43482113D03*
%TD*%
%TO.C,SW36*%
X223798575Y-59356208D03*
D28*
X219674293Y-55451301D03*
D29*
X219024936Y-61093671D03*
D28*
X214575976Y-60009948D03*
D27*
X214251298Y-62831133D03*
%TD*%
%TO.C,SW39*%
X243345035Y-113059635D03*
D28*
X239220753Y-109154728D03*
D29*
X238571396Y-114797098D03*
D28*
X234122436Y-113713375D03*
D27*
X233797758Y-116534560D03*
%TD*%
%TO.C,SW32*%
X213498831Y-86756351D03*
D28*
X209374549Y-82851444D03*
D29*
X208725192Y-88493814D03*
D28*
X204276232Y-87410091D03*
D27*
X203951554Y-90231276D03*
%TD*%
M02*
