%TF.GenerationSoftware,KiCad,Pcbnew,(7.0.0)*%
%TF.CreationDate,2023-04-19T00:26:00+01:00*%
%TF.ProjectId,Honeydew,486f6e65-7964-4657-972e-6b696361645f,V2.0*%
%TF.SameCoordinates,Original*%
%TF.FileFunction,Legend,Top*%
%TF.FilePolarity,Positive*%
%FSLAX46Y46*%
G04 Gerber Fmt 4.6, Leading zero omitted, Abs format (unit mm)*
G04 Created by KiCad (PCBNEW (7.0.0)) date 2023-04-19 00:26:00*
%MOMM*%
%LPD*%
G01*
G04 APERTURE LIST*
G04 Aperture macros list*
%AMRotRect*
0 Rectangle, with rotation*
0 The origin of the aperture is its center*
0 $1 length*
0 $2 width*
0 $3 Rotation angle, in degrees counterclockwise*
0 Add horizontal line*
21,1,$1,$2,0,0,$3*%
G04 Aperture macros list end*
%ADD10C,0.120000*%
%ADD11C,0.150000*%
%ADD12C,0.300000*%
%ADD13C,0.100000*%
%ADD14C,2.200000*%
%ADD15C,4.000000*%
%ADD16C,4.200000*%
%ADD17C,2.000000*%
%ADD18RotRect,4.400000X4.400000X150.000000*%
%ADD19C,3.200000*%
%ADD20C,1.152000*%
%ADD21R,1.700000X1.700000*%
%ADD22O,1.700000X1.700000*%
%ADD23C,5.600000*%
%ADD24C,1.750000*%
%ADD25C,3.000000*%
%ADD26C,3.987800*%
%ADD27C,1.700000*%
%ADD28C,0.900000*%
%ADD29R,1.200000X1.200000*%
%ADD30C,1.200000*%
%ADD31C,0.750000*%
%ADD32O,1.000000X2.200000*%
%ADD33O,1.000000X1.800000*%
%ADD34C,3.048000*%
G04 APERTURE END LIST*
D10*
X231900000Y-104700000D02*
X198100000Y-104700000D01*
X235650000Y-93350000D02*
X237050000Y-93350000D01*
X243300000Y-126600000D02*
X243300000Y-128070009D01*
X231900000Y-70700000D02*
X231900000Y-104700000D01*
X242599993Y-128070009D02*
X243299991Y-128070008D01*
X198100000Y-104700000D02*
X198100000Y-70700000D01*
X235650000Y-95900000D02*
X237050000Y-95900000D01*
X235650000Y-98450000D02*
X237050000Y-98450000D01*
X242599991Y-123620009D02*
X243299991Y-123620009D01*
X243299991Y-123620009D02*
X243299991Y-125100000D01*
D11*
X242814286Y-129686428D02*
X243576191Y-129686428D01*
X243195238Y-130067380D02*
X243195238Y-129305476D01*
X244528571Y-129067380D02*
X244052381Y-129067380D01*
X244052381Y-129067380D02*
X244004762Y-129543571D01*
X244004762Y-129543571D02*
X244052381Y-129495952D01*
X244052381Y-129495952D02*
X244147619Y-129448333D01*
X244147619Y-129448333D02*
X244385714Y-129448333D01*
X244385714Y-129448333D02*
X244480952Y-129495952D01*
X244480952Y-129495952D02*
X244528571Y-129543571D01*
X244528571Y-129543571D02*
X244576190Y-129638809D01*
X244576190Y-129638809D02*
X244576190Y-129876904D01*
X244576190Y-129876904D02*
X244528571Y-129972142D01*
X244528571Y-129972142D02*
X244480952Y-130019761D01*
X244480952Y-130019761D02*
X244385714Y-130067380D01*
X244385714Y-130067380D02*
X244147619Y-130067380D01*
X244147619Y-130067380D02*
X244052381Y-130019761D01*
X244052381Y-130019761D02*
X244004762Y-129972142D01*
X244861905Y-129067380D02*
X245195238Y-130067380D01*
X245195238Y-130067380D02*
X245528571Y-129067380D01*
X193065000Y-84861904D02*
X193017380Y-84957142D01*
X193017380Y-84957142D02*
X193017380Y-85099999D01*
X193017380Y-85099999D02*
X193065000Y-85242856D01*
X193065000Y-85242856D02*
X193160238Y-85338094D01*
X193160238Y-85338094D02*
X193255476Y-85385713D01*
X193255476Y-85385713D02*
X193445952Y-85433332D01*
X193445952Y-85433332D02*
X193588809Y-85433332D01*
X193588809Y-85433332D02*
X193779285Y-85385713D01*
X193779285Y-85385713D02*
X193874523Y-85338094D01*
X193874523Y-85338094D02*
X193969761Y-85242856D01*
X193969761Y-85242856D02*
X194017380Y-85099999D01*
X194017380Y-85099999D02*
X194017380Y-85004761D01*
X194017380Y-85004761D02*
X193969761Y-84861904D01*
X193969761Y-84861904D02*
X193922142Y-84814285D01*
X193922142Y-84814285D02*
X193588809Y-84814285D01*
X193588809Y-84814285D02*
X193588809Y-85004761D01*
X194017380Y-84385713D02*
X193017380Y-84385713D01*
X193017380Y-84385713D02*
X194017380Y-83814285D01*
X194017380Y-83814285D02*
X193017380Y-83814285D01*
X194017380Y-83338094D02*
X193017380Y-83338094D01*
X193017380Y-83338094D02*
X193017380Y-83099999D01*
X193017380Y-83099999D02*
X193065000Y-82957142D01*
X193065000Y-82957142D02*
X193160238Y-82861904D01*
X193160238Y-82861904D02*
X193255476Y-82814285D01*
X193255476Y-82814285D02*
X193445952Y-82766666D01*
X193445952Y-82766666D02*
X193588809Y-82766666D01*
X193588809Y-82766666D02*
X193779285Y-82814285D01*
X193779285Y-82814285D02*
X193874523Y-82861904D01*
X193874523Y-82861904D02*
X193969761Y-82957142D01*
X193969761Y-82957142D02*
X194017380Y-83099999D01*
X194017380Y-83099999D02*
X194017380Y-83338094D01*
X196786428Y-82885713D02*
X196786428Y-82123809D01*
X197167380Y-82504761D02*
X196405476Y-82504761D01*
X196167380Y-81171428D02*
X196167380Y-81647618D01*
X196167380Y-81647618D02*
X196643571Y-81695237D01*
X196643571Y-81695237D02*
X196595952Y-81647618D01*
X196595952Y-81647618D02*
X196548333Y-81552380D01*
X196548333Y-81552380D02*
X196548333Y-81314285D01*
X196548333Y-81314285D02*
X196595952Y-81219047D01*
X196595952Y-81219047D02*
X196643571Y-81171428D01*
X196643571Y-81171428D02*
X196738809Y-81123809D01*
X196738809Y-81123809D02*
X196976904Y-81123809D01*
X196976904Y-81123809D02*
X197072142Y-81171428D01*
X197072142Y-81171428D02*
X197119761Y-81219047D01*
X197119761Y-81219047D02*
X197167380Y-81314285D01*
X197167380Y-81314285D02*
X197167380Y-81552380D01*
X197167380Y-81552380D02*
X197119761Y-81647618D01*
X197119761Y-81647618D02*
X197072142Y-81695237D01*
X196167380Y-80838094D02*
X197167380Y-80504761D01*
X197167380Y-80504761D02*
X196167380Y-80171428D01*
X238038094Y-95415000D02*
X237942856Y-95367380D01*
X237942856Y-95367380D02*
X237799999Y-95367380D01*
X237799999Y-95367380D02*
X237657142Y-95415000D01*
X237657142Y-95415000D02*
X237561904Y-95510238D01*
X237561904Y-95510238D02*
X237514285Y-95605476D01*
X237514285Y-95605476D02*
X237466666Y-95795952D01*
X237466666Y-95795952D02*
X237466666Y-95938809D01*
X237466666Y-95938809D02*
X237514285Y-96129285D01*
X237514285Y-96129285D02*
X237561904Y-96224523D01*
X237561904Y-96224523D02*
X237657142Y-96319761D01*
X237657142Y-96319761D02*
X237799999Y-96367380D01*
X237799999Y-96367380D02*
X237895237Y-96367380D01*
X237895237Y-96367380D02*
X238038094Y-96319761D01*
X238038094Y-96319761D02*
X238085713Y-96272142D01*
X238085713Y-96272142D02*
X238085713Y-95938809D01*
X238085713Y-95938809D02*
X237895237Y-95938809D01*
X238514285Y-96367380D02*
X238514285Y-95367380D01*
X238514285Y-95367380D02*
X239085713Y-96367380D01*
X239085713Y-96367380D02*
X239085713Y-95367380D01*
X239561904Y-96367380D02*
X239561904Y-95367380D01*
X239561904Y-95367380D02*
X239799999Y-95367380D01*
X239799999Y-95367380D02*
X239942856Y-95415000D01*
X239942856Y-95415000D02*
X240038094Y-95510238D01*
X240038094Y-95510238D02*
X240085713Y-95605476D01*
X240085713Y-95605476D02*
X240133332Y-95795952D01*
X240133332Y-95795952D02*
X240133332Y-95938809D01*
X240133332Y-95938809D02*
X240085713Y-96129285D01*
X240085713Y-96129285D02*
X240038094Y-96224523D01*
X240038094Y-96224523D02*
X239942856Y-96319761D01*
X239942856Y-96319761D02*
X239799999Y-96367380D01*
X239799999Y-96367380D02*
X239561904Y-96367380D01*
X238204760Y-93772142D02*
X238157141Y-93819761D01*
X238157141Y-93819761D02*
X238014284Y-93867380D01*
X238014284Y-93867380D02*
X237919046Y-93867380D01*
X237919046Y-93867380D02*
X237776189Y-93819761D01*
X237776189Y-93819761D02*
X237680951Y-93724523D01*
X237680951Y-93724523D02*
X237633332Y-93629285D01*
X237633332Y-93629285D02*
X237585713Y-93438809D01*
X237585713Y-93438809D02*
X237585713Y-93295952D01*
X237585713Y-93295952D02*
X237633332Y-93105476D01*
X237633332Y-93105476D02*
X237680951Y-93010238D01*
X237680951Y-93010238D02*
X237776189Y-92915000D01*
X237776189Y-92915000D02*
X237919046Y-92867380D01*
X237919046Y-92867380D02*
X238014284Y-92867380D01*
X238014284Y-92867380D02*
X238157141Y-92915000D01*
X238157141Y-92915000D02*
X238204760Y-92962619D01*
X239109522Y-93867380D02*
X238633332Y-93867380D01*
X238633332Y-93867380D02*
X238633332Y-92867380D01*
X239442856Y-93867380D02*
X239442856Y-92867380D01*
X240014284Y-93867380D02*
X239585713Y-93295952D01*
X240014284Y-92867380D02*
X239442856Y-93438809D01*
X197117380Y-97347619D02*
X196641190Y-97680952D01*
X197117380Y-97919047D02*
X196117380Y-97919047D01*
X196117380Y-97919047D02*
X196117380Y-97538095D01*
X196117380Y-97538095D02*
X196165000Y-97442857D01*
X196165000Y-97442857D02*
X196212619Y-97395238D01*
X196212619Y-97395238D02*
X196307857Y-97347619D01*
X196307857Y-97347619D02*
X196450714Y-97347619D01*
X196450714Y-97347619D02*
X196545952Y-97395238D01*
X196545952Y-97395238D02*
X196593571Y-97442857D01*
X196593571Y-97442857D02*
X196641190Y-97538095D01*
X196641190Y-97538095D02*
X196641190Y-97919047D01*
X197069761Y-96966666D02*
X197117380Y-96823809D01*
X197117380Y-96823809D02*
X197117380Y-96585714D01*
X197117380Y-96585714D02*
X197069761Y-96490476D01*
X197069761Y-96490476D02*
X197022142Y-96442857D01*
X197022142Y-96442857D02*
X196926904Y-96395238D01*
X196926904Y-96395238D02*
X196831666Y-96395238D01*
X196831666Y-96395238D02*
X196736428Y-96442857D01*
X196736428Y-96442857D02*
X196688809Y-96490476D01*
X196688809Y-96490476D02*
X196641190Y-96585714D01*
X196641190Y-96585714D02*
X196593571Y-96776190D01*
X196593571Y-96776190D02*
X196545952Y-96871428D01*
X196545952Y-96871428D02*
X196498333Y-96919047D01*
X196498333Y-96919047D02*
X196403095Y-96966666D01*
X196403095Y-96966666D02*
X196307857Y-96966666D01*
X196307857Y-96966666D02*
X196212619Y-96919047D01*
X196212619Y-96919047D02*
X196165000Y-96871428D01*
X196165000Y-96871428D02*
X196117380Y-96776190D01*
X196117380Y-96776190D02*
X196117380Y-96538095D01*
X196117380Y-96538095D02*
X196165000Y-96395238D01*
X196117380Y-96109523D02*
X196117380Y-95538095D01*
X197117380Y-95823809D02*
X196117380Y-95823809D01*
X237492220Y-98919766D02*
X237635077Y-98967385D01*
X237635077Y-98967385D02*
X237873172Y-98967385D01*
X237873172Y-98967385D02*
X237968410Y-98919766D01*
X237968410Y-98919766D02*
X238016029Y-98872147D01*
X238016029Y-98872147D02*
X238063648Y-98776909D01*
X238063648Y-98776909D02*
X238063648Y-98681671D01*
X238063648Y-98681671D02*
X238016029Y-98586433D01*
X238016029Y-98586433D02*
X237968410Y-98538814D01*
X237968410Y-98538814D02*
X237873172Y-98491195D01*
X237873172Y-98491195D02*
X237682696Y-98443576D01*
X237682696Y-98443576D02*
X237587458Y-98395957D01*
X237587458Y-98395957D02*
X237539839Y-98348338D01*
X237539839Y-98348338D02*
X237492220Y-98253100D01*
X237492220Y-98253100D02*
X237492220Y-98157862D01*
X237492220Y-98157862D02*
X237539839Y-98062624D01*
X237539839Y-98062624D02*
X237587458Y-98015005D01*
X237587458Y-98015005D02*
X237682696Y-97967385D01*
X237682696Y-97967385D02*
X237920791Y-97967385D01*
X237920791Y-97967385D02*
X238063648Y-98015005D01*
X238396982Y-97967385D02*
X238635077Y-98967385D01*
X238635077Y-98967385D02*
X238825553Y-98253100D01*
X238825553Y-98253100D02*
X239016029Y-98967385D01*
X239016029Y-98967385D02*
X239254125Y-97967385D01*
X239635077Y-98967385D02*
X239635077Y-97967385D01*
X239635077Y-97967385D02*
X239873172Y-97967385D01*
X239873172Y-97967385D02*
X240016029Y-98015005D01*
X240016029Y-98015005D02*
X240111267Y-98110243D01*
X240111267Y-98110243D02*
X240158886Y-98205481D01*
X240158886Y-98205481D02*
X240206505Y-98395957D01*
X240206505Y-98395957D02*
X240206505Y-98538814D01*
X240206505Y-98538814D02*
X240158886Y-98729290D01*
X240158886Y-98729290D02*
X240111267Y-98824528D01*
X240111267Y-98824528D02*
X240016029Y-98919766D01*
X240016029Y-98919766D02*
X239873172Y-98967385D01*
X239873172Y-98967385D02*
X239635077Y-98967385D01*
D12*
X204352374Y-93484765D02*
X204352374Y-91484765D01*
X204352374Y-92437146D02*
X205495231Y-92437146D01*
X205495231Y-93484765D02*
X205495231Y-91484765D01*
X206733326Y-93484765D02*
X206542850Y-93389527D01*
X206542850Y-93389527D02*
X206447612Y-93294289D01*
X206447612Y-93294289D02*
X206352374Y-93103813D01*
X206352374Y-93103813D02*
X206352374Y-92532384D01*
X206352374Y-92532384D02*
X206447612Y-92341908D01*
X206447612Y-92341908D02*
X206542850Y-92246670D01*
X206542850Y-92246670D02*
X206733326Y-92151432D01*
X206733326Y-92151432D02*
X207019041Y-92151432D01*
X207019041Y-92151432D02*
X207209517Y-92246670D01*
X207209517Y-92246670D02*
X207304755Y-92341908D01*
X207304755Y-92341908D02*
X207399993Y-92532384D01*
X207399993Y-92532384D02*
X207399993Y-93103813D01*
X207399993Y-93103813D02*
X207304755Y-93294289D01*
X207304755Y-93294289D02*
X207209517Y-93389527D01*
X207209517Y-93389527D02*
X207019041Y-93484765D01*
X207019041Y-93484765D02*
X206733326Y-93484765D01*
X208257136Y-92151432D02*
X208257136Y-93484765D01*
X208257136Y-92341908D02*
X208352374Y-92246670D01*
X208352374Y-92246670D02*
X208542850Y-92151432D01*
X208542850Y-92151432D02*
X208828565Y-92151432D01*
X208828565Y-92151432D02*
X209019041Y-92246670D01*
X209019041Y-92246670D02*
X209114279Y-92437146D01*
X209114279Y-92437146D02*
X209114279Y-93484765D01*
X210828565Y-93389527D02*
X210638089Y-93484765D01*
X210638089Y-93484765D02*
X210257136Y-93484765D01*
X210257136Y-93484765D02*
X210066660Y-93389527D01*
X210066660Y-93389527D02*
X209971422Y-93199051D01*
X209971422Y-93199051D02*
X209971422Y-92437146D01*
X209971422Y-92437146D02*
X210066660Y-92246670D01*
X210066660Y-92246670D02*
X210257136Y-92151432D01*
X210257136Y-92151432D02*
X210638089Y-92151432D01*
X210638089Y-92151432D02*
X210828565Y-92246670D01*
X210828565Y-92246670D02*
X210923803Y-92437146D01*
X210923803Y-92437146D02*
X210923803Y-92627623D01*
X210923803Y-92627623D02*
X209971422Y-92818099D01*
X211590470Y-92151432D02*
X212066660Y-93484765D01*
X212542851Y-92151432D02*
X212066660Y-93484765D01*
X212066660Y-93484765D02*
X211876184Y-93960956D01*
X211876184Y-93960956D02*
X211780946Y-94056194D01*
X211780946Y-94056194D02*
X211590470Y-94151432D01*
X214161899Y-93484765D02*
X214161899Y-91484765D01*
X214161899Y-93389527D02*
X213971423Y-93484765D01*
X213971423Y-93484765D02*
X213590470Y-93484765D01*
X213590470Y-93484765D02*
X213399994Y-93389527D01*
X213399994Y-93389527D02*
X213304756Y-93294289D01*
X213304756Y-93294289D02*
X213209518Y-93103813D01*
X213209518Y-93103813D02*
X213209518Y-92532384D01*
X213209518Y-92532384D02*
X213304756Y-92341908D01*
X213304756Y-92341908D02*
X213399994Y-92246670D01*
X213399994Y-92246670D02*
X213590470Y-92151432D01*
X213590470Y-92151432D02*
X213971423Y-92151432D01*
X213971423Y-92151432D02*
X214161899Y-92246670D01*
X215876185Y-93389527D02*
X215685709Y-93484765D01*
X215685709Y-93484765D02*
X215304756Y-93484765D01*
X215304756Y-93484765D02*
X215114280Y-93389527D01*
X215114280Y-93389527D02*
X215019042Y-93199051D01*
X215019042Y-93199051D02*
X215019042Y-92437146D01*
X215019042Y-92437146D02*
X215114280Y-92246670D01*
X215114280Y-92246670D02*
X215304756Y-92151432D01*
X215304756Y-92151432D02*
X215685709Y-92151432D01*
X215685709Y-92151432D02*
X215876185Y-92246670D01*
X215876185Y-92246670D02*
X215971423Y-92437146D01*
X215971423Y-92437146D02*
X215971423Y-92627623D01*
X215971423Y-92627623D02*
X215019042Y-92818099D01*
X216638090Y-92151432D02*
X217019042Y-93484765D01*
X217019042Y-93484765D02*
X217399995Y-92532384D01*
X217399995Y-92532384D02*
X217780947Y-93484765D01*
X217780947Y-93484765D02*
X218161899Y-92151432D01*
X219838090Y-91484765D02*
X220504756Y-93484765D01*
X220504756Y-93484765D02*
X221171423Y-91484765D01*
X221742852Y-91675242D02*
X221838090Y-91580004D01*
X221838090Y-91580004D02*
X222028566Y-91484765D01*
X222028566Y-91484765D02*
X222504757Y-91484765D01*
X222504757Y-91484765D02*
X222695233Y-91580004D01*
X222695233Y-91580004D02*
X222790471Y-91675242D01*
X222790471Y-91675242D02*
X222885709Y-91865718D01*
X222885709Y-91865718D02*
X222885709Y-92056194D01*
X222885709Y-92056194D02*
X222790471Y-92341908D01*
X222790471Y-92341908D02*
X221647614Y-93484765D01*
X221647614Y-93484765D02*
X222885709Y-93484765D01*
X223742852Y-93294289D02*
X223838090Y-93389527D01*
X223838090Y-93389527D02*
X223742852Y-93484765D01*
X223742852Y-93484765D02*
X223647614Y-93389527D01*
X223647614Y-93389527D02*
X223742852Y-93294289D01*
X223742852Y-93294289D02*
X223742852Y-93484765D01*
X225076185Y-91484765D02*
X225266662Y-91484765D01*
X225266662Y-91484765D02*
X225457138Y-91580004D01*
X225457138Y-91580004D02*
X225552376Y-91675242D01*
X225552376Y-91675242D02*
X225647614Y-91865718D01*
X225647614Y-91865718D02*
X225742852Y-92246670D01*
X225742852Y-92246670D02*
X225742852Y-92722861D01*
X225742852Y-92722861D02*
X225647614Y-93103813D01*
X225647614Y-93103813D02*
X225552376Y-93294289D01*
X225552376Y-93294289D02*
X225457138Y-93389527D01*
X225457138Y-93389527D02*
X225266662Y-93484765D01*
X225266662Y-93484765D02*
X225076185Y-93484765D01*
X225076185Y-93484765D02*
X224885709Y-93389527D01*
X224885709Y-93389527D02*
X224790471Y-93294289D01*
X224790471Y-93294289D02*
X224695233Y-93103813D01*
X224695233Y-93103813D02*
X224599995Y-92722861D01*
X224599995Y-92722861D02*
X224599995Y-92246670D01*
X224599995Y-92246670D02*
X224695233Y-91865718D01*
X224695233Y-91865718D02*
X224790471Y-91675242D01*
X224790471Y-91675242D02*
X224885709Y-91580004D01*
X224885709Y-91580004D02*
X225076185Y-91484765D01*
D11*
X193917380Y-95111904D02*
X192917380Y-95111904D01*
X192917380Y-95111904D02*
X192917380Y-94873809D01*
X192917380Y-94873809D02*
X192965000Y-94730952D01*
X192965000Y-94730952D02*
X193060238Y-94635714D01*
X193060238Y-94635714D02*
X193155476Y-94588095D01*
X193155476Y-94588095D02*
X193345952Y-94540476D01*
X193345952Y-94540476D02*
X193488809Y-94540476D01*
X193488809Y-94540476D02*
X193679285Y-94588095D01*
X193679285Y-94588095D02*
X193774523Y-94635714D01*
X193774523Y-94635714D02*
X193869761Y-94730952D01*
X193869761Y-94730952D02*
X193917380Y-94873809D01*
X193917380Y-94873809D02*
X193917380Y-95111904D01*
X193822142Y-93540476D02*
X193869761Y-93588095D01*
X193869761Y-93588095D02*
X193917380Y-93730952D01*
X193917380Y-93730952D02*
X193917380Y-93826190D01*
X193917380Y-93826190D02*
X193869761Y-93969047D01*
X193869761Y-93969047D02*
X193774523Y-94064285D01*
X193774523Y-94064285D02*
X193679285Y-94111904D01*
X193679285Y-94111904D02*
X193488809Y-94159523D01*
X193488809Y-94159523D02*
X193345952Y-94159523D01*
X193345952Y-94159523D02*
X193155476Y-94111904D01*
X193155476Y-94111904D02*
X193060238Y-94064285D01*
X193060238Y-94064285D02*
X192965000Y-93969047D01*
X192965000Y-93969047D02*
X192917380Y-93826190D01*
X192917380Y-93826190D02*
X192917380Y-93730952D01*
X192917380Y-93730952D02*
X192965000Y-93588095D01*
X192965000Y-93588095D02*
X193012619Y-93540476D01*
X243509523Y-132667380D02*
X243176190Y-132191190D01*
X242938095Y-132667380D02*
X242938095Y-131667380D01*
X242938095Y-131667380D02*
X243319047Y-131667380D01*
X243319047Y-131667380D02*
X243414285Y-131715000D01*
X243414285Y-131715000D02*
X243461904Y-131762619D01*
X243461904Y-131762619D02*
X243509523Y-131857857D01*
X243509523Y-131857857D02*
X243509523Y-132000714D01*
X243509523Y-132000714D02*
X243461904Y-132095952D01*
X243461904Y-132095952D02*
X243414285Y-132143571D01*
X243414285Y-132143571D02*
X243319047Y-132191190D01*
X243319047Y-132191190D02*
X242938095Y-132191190D01*
X244461904Y-131715000D02*
X244366666Y-131667380D01*
X244366666Y-131667380D02*
X244223809Y-131667380D01*
X244223809Y-131667380D02*
X244080952Y-131715000D01*
X244080952Y-131715000D02*
X243985714Y-131810238D01*
X243985714Y-131810238D02*
X243938095Y-131905476D01*
X243938095Y-131905476D02*
X243890476Y-132095952D01*
X243890476Y-132095952D02*
X243890476Y-132238809D01*
X243890476Y-132238809D02*
X243938095Y-132429285D01*
X243938095Y-132429285D02*
X243985714Y-132524523D01*
X243985714Y-132524523D02*
X244080952Y-132619761D01*
X244080952Y-132619761D02*
X244223809Y-132667380D01*
X244223809Y-132667380D02*
X244319047Y-132667380D01*
X244319047Y-132667380D02*
X244461904Y-132619761D01*
X244461904Y-132619761D02*
X244509523Y-132572142D01*
X244509523Y-132572142D02*
X244509523Y-132238809D01*
X244509523Y-132238809D02*
X244319047Y-132238809D01*
X245271428Y-132143571D02*
X245414285Y-132191190D01*
X245414285Y-132191190D02*
X245461904Y-132238809D01*
X245461904Y-132238809D02*
X245509523Y-132334047D01*
X245509523Y-132334047D02*
X245509523Y-132476904D01*
X245509523Y-132476904D02*
X245461904Y-132572142D01*
X245461904Y-132572142D02*
X245414285Y-132619761D01*
X245414285Y-132619761D02*
X245319047Y-132667380D01*
X245319047Y-132667380D02*
X244938095Y-132667380D01*
X244938095Y-132667380D02*
X244938095Y-131667380D01*
X244938095Y-131667380D02*
X245271428Y-131667380D01*
X245271428Y-131667380D02*
X245366666Y-131715000D01*
X245366666Y-131715000D02*
X245414285Y-131762619D01*
X245414285Y-131762619D02*
X245461904Y-131857857D01*
X245461904Y-131857857D02*
X245461904Y-131953095D01*
X245461904Y-131953095D02*
X245414285Y-132048333D01*
X245414285Y-132048333D02*
X245366666Y-132095952D01*
X245366666Y-132095952D02*
X245271428Y-132143571D01*
X245271428Y-132143571D02*
X244938095Y-132143571D01*
X197022142Y-92016666D02*
X197069761Y-92064285D01*
X197069761Y-92064285D02*
X197117380Y-92207142D01*
X197117380Y-92207142D02*
X197117380Y-92302380D01*
X197117380Y-92302380D02*
X197069761Y-92445237D01*
X197069761Y-92445237D02*
X196974523Y-92540475D01*
X196974523Y-92540475D02*
X196879285Y-92588094D01*
X196879285Y-92588094D02*
X196688809Y-92635713D01*
X196688809Y-92635713D02*
X196545952Y-92635713D01*
X196545952Y-92635713D02*
X196355476Y-92588094D01*
X196355476Y-92588094D02*
X196260238Y-92540475D01*
X196260238Y-92540475D02*
X196165000Y-92445237D01*
X196165000Y-92445237D02*
X196117380Y-92302380D01*
X196117380Y-92302380D02*
X196117380Y-92207142D01*
X196117380Y-92207142D02*
X196165000Y-92064285D01*
X196165000Y-92064285D02*
X196212619Y-92016666D01*
X197069761Y-91635713D02*
X197117380Y-91492856D01*
X197117380Y-91492856D02*
X197117380Y-91254761D01*
X197117380Y-91254761D02*
X197069761Y-91159523D01*
X197069761Y-91159523D02*
X197022142Y-91111904D01*
X197022142Y-91111904D02*
X196926904Y-91064285D01*
X196926904Y-91064285D02*
X196831666Y-91064285D01*
X196831666Y-91064285D02*
X196736428Y-91111904D01*
X196736428Y-91111904D02*
X196688809Y-91159523D01*
X196688809Y-91159523D02*
X196641190Y-91254761D01*
X196641190Y-91254761D02*
X196593571Y-91445237D01*
X196593571Y-91445237D02*
X196545952Y-91540475D01*
X196545952Y-91540475D02*
X196498333Y-91588094D01*
X196498333Y-91588094D02*
X196403095Y-91635713D01*
X196403095Y-91635713D02*
X196307857Y-91635713D01*
X196307857Y-91635713D02*
X196212619Y-91588094D01*
X196212619Y-91588094D02*
X196165000Y-91540475D01*
X196165000Y-91540475D02*
X196117380Y-91445237D01*
X196117380Y-91445237D02*
X196117380Y-91207142D01*
X196117380Y-91207142D02*
X196165000Y-91064285D01*
X197167380Y-88271427D02*
X196167380Y-88271427D01*
X196167380Y-88271427D02*
X196881666Y-87938094D01*
X196881666Y-87938094D02*
X196167380Y-87604761D01*
X196167380Y-87604761D02*
X197167380Y-87604761D01*
X196167380Y-86938094D02*
X196167380Y-86747618D01*
X196167380Y-86747618D02*
X196215000Y-86652380D01*
X196215000Y-86652380D02*
X196310238Y-86557142D01*
X196310238Y-86557142D02*
X196500714Y-86509523D01*
X196500714Y-86509523D02*
X196834047Y-86509523D01*
X196834047Y-86509523D02*
X197024523Y-86557142D01*
X197024523Y-86557142D02*
X197119761Y-86652380D01*
X197119761Y-86652380D02*
X197167380Y-86747618D01*
X197167380Y-86747618D02*
X197167380Y-86938094D01*
X197167380Y-86938094D02*
X197119761Y-87033332D01*
X197119761Y-87033332D02*
X197024523Y-87128570D01*
X197024523Y-87128570D02*
X196834047Y-87176189D01*
X196834047Y-87176189D02*
X196500714Y-87176189D01*
X196500714Y-87176189D02*
X196310238Y-87128570D01*
X196310238Y-87128570D02*
X196215000Y-87033332D01*
X196215000Y-87033332D02*
X196167380Y-86938094D01*
X197119761Y-86128570D02*
X197167380Y-85985713D01*
X197167380Y-85985713D02*
X197167380Y-85747618D01*
X197167380Y-85747618D02*
X197119761Y-85652380D01*
X197119761Y-85652380D02*
X197072142Y-85604761D01*
X197072142Y-85604761D02*
X196976904Y-85557142D01*
X196976904Y-85557142D02*
X196881666Y-85557142D01*
X196881666Y-85557142D02*
X196786428Y-85604761D01*
X196786428Y-85604761D02*
X196738809Y-85652380D01*
X196738809Y-85652380D02*
X196691190Y-85747618D01*
X196691190Y-85747618D02*
X196643571Y-85938094D01*
X196643571Y-85938094D02*
X196595952Y-86033332D01*
X196595952Y-86033332D02*
X196548333Y-86080951D01*
X196548333Y-86080951D02*
X196453095Y-86128570D01*
X196453095Y-86128570D02*
X196357857Y-86128570D01*
X196357857Y-86128570D02*
X196262619Y-86080951D01*
X196262619Y-86080951D02*
X196215000Y-86033332D01*
X196215000Y-86033332D02*
X196167380Y-85938094D01*
X196167380Y-85938094D02*
X196167380Y-85699999D01*
X196167380Y-85699999D02*
X196215000Y-85557142D01*
X197167380Y-85128570D02*
X196167380Y-85128570D01*
X211590479Y-159267379D02*
X212161907Y-159267379D01*
X211876193Y-160267379D02*
X211876193Y-159267379D01*
X212495241Y-160267379D02*
X212495241Y-159600713D01*
X212495241Y-159791189D02*
X212542860Y-159695951D01*
X212542860Y-159695951D02*
X212590479Y-159648332D01*
X212590479Y-159648332D02*
X212685717Y-159600713D01*
X212685717Y-159600713D02*
X212780955Y-159600713D01*
X213542860Y-160267379D02*
X213542860Y-159743570D01*
X213542860Y-159743570D02*
X213495241Y-159648332D01*
X213495241Y-159648332D02*
X213400003Y-159600713D01*
X213400003Y-159600713D02*
X213209527Y-159600713D01*
X213209527Y-159600713D02*
X213114289Y-159648332D01*
X213542860Y-160219760D02*
X213447622Y-160267379D01*
X213447622Y-160267379D02*
X213209527Y-160267379D01*
X213209527Y-160267379D02*
X213114289Y-160219760D01*
X213114289Y-160219760D02*
X213066670Y-160124522D01*
X213066670Y-160124522D02*
X213066670Y-160029284D01*
X213066670Y-160029284D02*
X213114289Y-159934046D01*
X213114289Y-159934046D02*
X213209527Y-159886427D01*
X213209527Y-159886427D02*
X213447622Y-159886427D01*
X213447622Y-159886427D02*
X213542860Y-159838808D01*
X214447622Y-160219760D02*
X214352384Y-160267379D01*
X214352384Y-160267379D02*
X214161908Y-160267379D01*
X214161908Y-160267379D02*
X214066670Y-160219760D01*
X214066670Y-160219760D02*
X214019051Y-160172141D01*
X214019051Y-160172141D02*
X213971432Y-160076903D01*
X213971432Y-160076903D02*
X213971432Y-159791189D01*
X213971432Y-159791189D02*
X214019051Y-159695951D01*
X214019051Y-159695951D02*
X214066670Y-159648332D01*
X214066670Y-159648332D02*
X214161908Y-159600713D01*
X214161908Y-159600713D02*
X214352384Y-159600713D01*
X214352384Y-159600713D02*
X214447622Y-159648332D01*
X214876194Y-160267379D02*
X214876194Y-159267379D01*
X214971432Y-159886427D02*
X215257146Y-160267379D01*
X215257146Y-159600713D02*
X214876194Y-159981665D01*
X215685718Y-160267379D02*
X215685718Y-159267379D01*
X215685718Y-159648332D02*
X215780956Y-159600713D01*
X215780956Y-159600713D02*
X215971432Y-159600713D01*
X215971432Y-159600713D02*
X216066670Y-159648332D01*
X216066670Y-159648332D02*
X216114289Y-159695951D01*
X216114289Y-159695951D02*
X216161908Y-159791189D01*
X216161908Y-159791189D02*
X216161908Y-160076903D01*
X216161908Y-160076903D02*
X216114289Y-160172141D01*
X216114289Y-160172141D02*
X216066670Y-160219760D01*
X216066670Y-160219760D02*
X215971432Y-160267379D01*
X215971432Y-160267379D02*
X215780956Y-160267379D01*
X215780956Y-160267379D02*
X215685718Y-160219760D01*
X217019051Y-160267379D02*
X217019051Y-159743570D01*
X217019051Y-159743570D02*
X216971432Y-159648332D01*
X216971432Y-159648332D02*
X216876194Y-159600713D01*
X216876194Y-159600713D02*
X216685718Y-159600713D01*
X216685718Y-159600713D02*
X216590480Y-159648332D01*
X217019051Y-160219760D02*
X216923813Y-160267379D01*
X216923813Y-160267379D02*
X216685718Y-160267379D01*
X216685718Y-160267379D02*
X216590480Y-160219760D01*
X216590480Y-160219760D02*
X216542861Y-160124522D01*
X216542861Y-160124522D02*
X216542861Y-160029284D01*
X216542861Y-160029284D02*
X216590480Y-159934046D01*
X216590480Y-159934046D02*
X216685718Y-159886427D01*
X216685718Y-159886427D02*
X216923813Y-159886427D01*
X216923813Y-159886427D02*
X217019051Y-159838808D01*
X217638099Y-160267379D02*
X217542861Y-160219760D01*
X217542861Y-160219760D02*
X217495242Y-160124522D01*
X217495242Y-160124522D02*
X217495242Y-159267379D01*
X218161909Y-160267379D02*
X218066671Y-160219760D01*
X218066671Y-160219760D02*
X218019052Y-160124522D01*
X218019052Y-160124522D02*
X218019052Y-159267379D01*
X243438095Y-125415000D02*
X243342857Y-125367380D01*
X243342857Y-125367380D02*
X243200000Y-125367380D01*
X243200000Y-125367380D02*
X243057143Y-125415000D01*
X243057143Y-125415000D02*
X242961905Y-125510238D01*
X242961905Y-125510238D02*
X242914286Y-125605476D01*
X242914286Y-125605476D02*
X242866667Y-125795952D01*
X242866667Y-125795952D02*
X242866667Y-125938809D01*
X242866667Y-125938809D02*
X242914286Y-126129285D01*
X242914286Y-126129285D02*
X242961905Y-126224523D01*
X242961905Y-126224523D02*
X243057143Y-126319761D01*
X243057143Y-126319761D02*
X243200000Y-126367380D01*
X243200000Y-126367380D02*
X243295238Y-126367380D01*
X243295238Y-126367380D02*
X243438095Y-126319761D01*
X243438095Y-126319761D02*
X243485714Y-126272142D01*
X243485714Y-126272142D02*
X243485714Y-125938809D01*
X243485714Y-125938809D02*
X243295238Y-125938809D01*
X243914286Y-126367380D02*
X243914286Y-125367380D01*
X243914286Y-125367380D02*
X244485714Y-126367380D01*
X244485714Y-126367380D02*
X244485714Y-125367380D01*
X244961905Y-126367380D02*
X244961905Y-125367380D01*
X244961905Y-125367380D02*
X245200000Y-125367380D01*
X245200000Y-125367380D02*
X245342857Y-125415000D01*
X245342857Y-125415000D02*
X245438095Y-125510238D01*
X245438095Y-125510238D02*
X245485714Y-125605476D01*
X245485714Y-125605476D02*
X245533333Y-125795952D01*
X245533333Y-125795952D02*
X245533333Y-125938809D01*
X245533333Y-125938809D02*
X245485714Y-126129285D01*
X245485714Y-126129285D02*
X245438095Y-126224523D01*
X245438095Y-126224523D02*
X245342857Y-126319761D01*
X245342857Y-126319761D02*
X245200000Y-126367380D01*
X245200000Y-126367380D02*
X244961905Y-126367380D01*
X193919761Y-90485713D02*
X193967380Y-90342856D01*
X193967380Y-90342856D02*
X193967380Y-90104761D01*
X193967380Y-90104761D02*
X193919761Y-90009523D01*
X193919761Y-90009523D02*
X193872142Y-89961904D01*
X193872142Y-89961904D02*
X193776904Y-89914285D01*
X193776904Y-89914285D02*
X193681666Y-89914285D01*
X193681666Y-89914285D02*
X193586428Y-89961904D01*
X193586428Y-89961904D02*
X193538809Y-90009523D01*
X193538809Y-90009523D02*
X193491190Y-90104761D01*
X193491190Y-90104761D02*
X193443571Y-90295237D01*
X193443571Y-90295237D02*
X193395952Y-90390475D01*
X193395952Y-90390475D02*
X193348333Y-90438094D01*
X193348333Y-90438094D02*
X193253095Y-90485713D01*
X193253095Y-90485713D02*
X193157857Y-90485713D01*
X193157857Y-90485713D02*
X193062619Y-90438094D01*
X193062619Y-90438094D02*
X193015000Y-90390475D01*
X193015000Y-90390475D02*
X192967380Y-90295237D01*
X192967380Y-90295237D02*
X192967380Y-90057142D01*
X192967380Y-90057142D02*
X193015000Y-89914285D01*
X193872142Y-88914285D02*
X193919761Y-88961904D01*
X193919761Y-88961904D02*
X193967380Y-89104761D01*
X193967380Y-89104761D02*
X193967380Y-89199999D01*
X193967380Y-89199999D02*
X193919761Y-89342856D01*
X193919761Y-89342856D02*
X193824523Y-89438094D01*
X193824523Y-89438094D02*
X193729285Y-89485713D01*
X193729285Y-89485713D02*
X193538809Y-89533332D01*
X193538809Y-89533332D02*
X193395952Y-89533332D01*
X193395952Y-89533332D02*
X193205476Y-89485713D01*
X193205476Y-89485713D02*
X193110238Y-89438094D01*
X193110238Y-89438094D02*
X193015000Y-89342856D01*
X193015000Y-89342856D02*
X192967380Y-89199999D01*
X192967380Y-89199999D02*
X192967380Y-89104761D01*
X192967380Y-89104761D02*
X193015000Y-88961904D01*
X193015000Y-88961904D02*
X193062619Y-88914285D01*
X193967380Y-88485713D02*
X192967380Y-88485713D01*
X193967380Y-87914285D02*
X193395952Y-88342856D01*
X192967380Y-87914285D02*
X193538809Y-88485713D01*
X232452381Y-100767380D02*
X232452381Y-99767380D01*
X232452381Y-99767380D02*
X232690476Y-99767380D01*
X232690476Y-99767380D02*
X232833333Y-99815000D01*
X232833333Y-99815000D02*
X232928571Y-99910238D01*
X232928571Y-99910238D02*
X232976190Y-100005476D01*
X232976190Y-100005476D02*
X233023809Y-100195952D01*
X233023809Y-100195952D02*
X233023809Y-100338809D01*
X233023809Y-100338809D02*
X232976190Y-100529285D01*
X232976190Y-100529285D02*
X232928571Y-100624523D01*
X232928571Y-100624523D02*
X232833333Y-100719761D01*
X232833333Y-100719761D02*
X232690476Y-100767380D01*
X232690476Y-100767380D02*
X232452381Y-100767380D01*
X233833333Y-100719761D02*
X233738095Y-100767380D01*
X233738095Y-100767380D02*
X233547619Y-100767380D01*
X233547619Y-100767380D02*
X233452381Y-100719761D01*
X233452381Y-100719761D02*
X233404762Y-100624523D01*
X233404762Y-100624523D02*
X233404762Y-100243571D01*
X233404762Y-100243571D02*
X233452381Y-100148333D01*
X233452381Y-100148333D02*
X233547619Y-100100714D01*
X233547619Y-100100714D02*
X233738095Y-100100714D01*
X233738095Y-100100714D02*
X233833333Y-100148333D01*
X233833333Y-100148333D02*
X233880952Y-100243571D01*
X233880952Y-100243571D02*
X233880952Y-100338809D01*
X233880952Y-100338809D02*
X233404762Y-100434047D01*
X234309524Y-100767380D02*
X234309524Y-99767380D01*
X234309524Y-100148333D02*
X234404762Y-100100714D01*
X234404762Y-100100714D02*
X234595238Y-100100714D01*
X234595238Y-100100714D02*
X234690476Y-100148333D01*
X234690476Y-100148333D02*
X234738095Y-100195952D01*
X234738095Y-100195952D02*
X234785714Y-100291190D01*
X234785714Y-100291190D02*
X234785714Y-100576904D01*
X234785714Y-100576904D02*
X234738095Y-100672142D01*
X234738095Y-100672142D02*
X234690476Y-100719761D01*
X234690476Y-100719761D02*
X234595238Y-100767380D01*
X234595238Y-100767380D02*
X234404762Y-100767380D01*
X234404762Y-100767380D02*
X234309524Y-100719761D01*
X235642857Y-100100714D02*
X235642857Y-100767380D01*
X235214286Y-100100714D02*
X235214286Y-100624523D01*
X235214286Y-100624523D02*
X235261905Y-100719761D01*
X235261905Y-100719761D02*
X235357143Y-100767380D01*
X235357143Y-100767380D02*
X235500000Y-100767380D01*
X235500000Y-100767380D02*
X235595238Y-100719761D01*
X235595238Y-100719761D02*
X235642857Y-100672142D01*
X236547619Y-100100714D02*
X236547619Y-100910238D01*
X236547619Y-100910238D02*
X236500000Y-101005476D01*
X236500000Y-101005476D02*
X236452381Y-101053095D01*
X236452381Y-101053095D02*
X236357143Y-101100714D01*
X236357143Y-101100714D02*
X236214286Y-101100714D01*
X236214286Y-101100714D02*
X236119048Y-101053095D01*
X236547619Y-100719761D02*
X236452381Y-100767380D01*
X236452381Y-100767380D02*
X236261905Y-100767380D01*
X236261905Y-100767380D02*
X236166667Y-100719761D01*
X236166667Y-100719761D02*
X236119048Y-100672142D01*
X236119048Y-100672142D02*
X236071429Y-100576904D01*
X236071429Y-100576904D02*
X236071429Y-100291190D01*
X236071429Y-100291190D02*
X236119048Y-100195952D01*
X236119048Y-100195952D02*
X236166667Y-100148333D01*
X236166667Y-100148333D02*
X236261905Y-100100714D01*
X236261905Y-100100714D02*
X236452381Y-100100714D01*
X236452381Y-100100714D02*
X236547619Y-100148333D01*
D13*
%TO.C,SW65*%
X213552380Y-179255809D02*
X213666666Y-179293904D01*
X213666666Y-179293904D02*
X213857142Y-179293904D01*
X213857142Y-179293904D02*
X213933333Y-179255809D01*
X213933333Y-179255809D02*
X213971428Y-179217714D01*
X213971428Y-179217714D02*
X214009523Y-179141523D01*
X214009523Y-179141523D02*
X214009523Y-179065333D01*
X214009523Y-179065333D02*
X213971428Y-178989142D01*
X213971428Y-178989142D02*
X213933333Y-178951047D01*
X213933333Y-178951047D02*
X213857142Y-178912952D01*
X213857142Y-178912952D02*
X213704761Y-178874857D01*
X213704761Y-178874857D02*
X213628571Y-178836761D01*
X213628571Y-178836761D02*
X213590476Y-178798666D01*
X213590476Y-178798666D02*
X213552380Y-178722476D01*
X213552380Y-178722476D02*
X213552380Y-178646285D01*
X213552380Y-178646285D02*
X213590476Y-178570095D01*
X213590476Y-178570095D02*
X213628571Y-178532000D01*
X213628571Y-178532000D02*
X213704761Y-178493904D01*
X213704761Y-178493904D02*
X213895238Y-178493904D01*
X213895238Y-178493904D02*
X214009523Y-178532000D01*
X214276190Y-178493904D02*
X214466666Y-179293904D01*
X214466666Y-179293904D02*
X214619047Y-178722476D01*
X214619047Y-178722476D02*
X214771428Y-179293904D01*
X214771428Y-179293904D02*
X214961905Y-178493904D01*
X215609524Y-178493904D02*
X215457143Y-178493904D01*
X215457143Y-178493904D02*
X215380952Y-178532000D01*
X215380952Y-178532000D02*
X215342857Y-178570095D01*
X215342857Y-178570095D02*
X215266667Y-178684380D01*
X215266667Y-178684380D02*
X215228571Y-178836761D01*
X215228571Y-178836761D02*
X215228571Y-179141523D01*
X215228571Y-179141523D02*
X215266667Y-179217714D01*
X215266667Y-179217714D02*
X215304762Y-179255809D01*
X215304762Y-179255809D02*
X215380952Y-179293904D01*
X215380952Y-179293904D02*
X215533333Y-179293904D01*
X215533333Y-179293904D02*
X215609524Y-179255809D01*
X215609524Y-179255809D02*
X215647619Y-179217714D01*
X215647619Y-179217714D02*
X215685714Y-179141523D01*
X215685714Y-179141523D02*
X215685714Y-178951047D01*
X215685714Y-178951047D02*
X215647619Y-178874857D01*
X215647619Y-178874857D02*
X215609524Y-178836761D01*
X215609524Y-178836761D02*
X215533333Y-178798666D01*
X215533333Y-178798666D02*
X215380952Y-178798666D01*
X215380952Y-178798666D02*
X215304762Y-178836761D01*
X215304762Y-178836761D02*
X215266667Y-178874857D01*
X215266667Y-178874857D02*
X215228571Y-178951047D01*
X216409524Y-178493904D02*
X216028572Y-178493904D01*
X216028572Y-178493904D02*
X215990476Y-178874857D01*
X215990476Y-178874857D02*
X216028572Y-178836761D01*
X216028572Y-178836761D02*
X216104762Y-178798666D01*
X216104762Y-178798666D02*
X216295238Y-178798666D01*
X216295238Y-178798666D02*
X216371429Y-178836761D01*
X216371429Y-178836761D02*
X216409524Y-178874857D01*
X216409524Y-178874857D02*
X216447619Y-178951047D01*
X216447619Y-178951047D02*
X216447619Y-179141523D01*
X216447619Y-179141523D02*
X216409524Y-179217714D01*
X216409524Y-179217714D02*
X216371429Y-179255809D01*
X216371429Y-179255809D02*
X216295238Y-179293904D01*
X216295238Y-179293904D02*
X216104762Y-179293904D01*
X216104762Y-179293904D02*
X216028572Y-179255809D01*
X216028572Y-179255809D02*
X215990476Y-179217714D01*
%TO.C,J4*%
X214733333Y-69693904D02*
X214733333Y-70265333D01*
X214733333Y-70265333D02*
X214695238Y-70379619D01*
X214695238Y-70379619D02*
X214619047Y-70455809D01*
X214619047Y-70455809D02*
X214504762Y-70493904D01*
X214504762Y-70493904D02*
X214428571Y-70493904D01*
X215457143Y-69960571D02*
X215457143Y-70493904D01*
X215266667Y-69655809D02*
X215076190Y-70227238D01*
X215076190Y-70227238D02*
X215571429Y-70227238D01*
%TO.C,A1*%
G36*
X205263333Y-87984666D02*
G01*
X205228466Y-88135669D01*
X205094000Y-88154000D01*
X204884929Y-88061065D01*
X204924666Y-87984666D01*
X205226105Y-87954267D01*
X205263333Y-87984666D01*
G37*
G36*
X205517333Y-86714666D02*
G01*
X205547732Y-87016105D01*
X205517333Y-87053333D01*
X205366330Y-87018466D01*
X205348000Y-86884000D01*
X205440934Y-86674929D01*
X205517333Y-86714666D01*
G37*
G36*
X202300000Y-89043000D02*
G01*
X202542311Y-89271246D01*
X202554000Y-89311990D01*
X202357482Y-89421087D01*
X202300000Y-89424000D01*
X202055760Y-89228736D01*
X202046000Y-89155009D01*
X202201609Y-89003311D01*
X202300000Y-89043000D01*
G37*
G36*
X204058430Y-88038610D02*
G01*
X204078000Y-88124019D01*
X203892642Y-88483093D01*
X203824000Y-88535000D01*
X203589569Y-88523389D01*
X203570000Y-88437980D01*
X203755357Y-88078906D01*
X203824000Y-88027000D01*
X204058430Y-88038610D01*
G37*
G36*
X206530688Y-86023609D02*
G01*
X206491000Y-86122000D01*
X206262753Y-86364311D01*
X206222009Y-86376000D01*
X206112912Y-86179482D01*
X206110000Y-86122000D01*
X206305263Y-85877760D01*
X206378990Y-85868000D01*
X206530688Y-86023609D01*
G37*
G36*
X211436619Y-86315287D02*
G01*
X211444000Y-86376000D01*
X211250712Y-86622619D01*
X211190000Y-86630000D01*
X210943380Y-86436712D01*
X210936000Y-86376000D01*
X211129287Y-86129380D01*
X211190000Y-86122000D01*
X211436619Y-86315287D01*
G37*
G36*
X221383355Y-86249000D02*
G01*
X221922054Y-86249000D01*
X221942499Y-86771753D01*
X222000059Y-86906676D01*
X222032518Y-86823461D01*
X222079829Y-86213497D01*
X222037644Y-85807461D01*
X221970733Y-85666686D01*
X221928643Y-85971980D01*
X221922054Y-86249000D01*
X221383355Y-86249000D01*
X221371506Y-85997204D01*
X221418708Y-85370795D01*
X221576060Y-85002527D01*
X221689757Y-84886227D01*
X222129551Y-84684634D01*
X222354873Y-84718123D01*
X222523819Y-85077402D01*
X222599962Y-85794945D01*
X222583248Y-86729554D01*
X222473624Y-87740033D01*
X222356247Y-88354576D01*
X222227353Y-89357532D01*
X222369327Y-90000746D01*
X222764610Y-90249572D01*
X223259841Y-90137577D01*
X223779643Y-89822773D01*
X223826436Y-89510177D01*
X223508999Y-89169999D01*
X223160447Y-88675494D01*
X223230463Y-88409584D01*
X223868843Y-88409584D01*
X223980397Y-88872286D01*
X224299112Y-89363496D01*
X224750818Y-89878999D01*
X225095417Y-90165293D01*
X225160000Y-90186000D01*
X225439167Y-90003216D01*
X225872033Y-89546709D01*
X226020887Y-89363496D01*
X226399463Y-88735822D01*
X226426377Y-88335762D01*
X226124944Y-88232770D01*
X225695269Y-88393405D01*
X225070872Y-88547923D01*
X224624730Y-88393405D01*
X224091391Y-88226806D01*
X223868843Y-88409584D01*
X223230463Y-88409584D01*
X223300596Y-88143226D01*
X223635999Y-87773000D01*
X224035356Y-87464495D01*
X224336600Y-87510766D01*
X224652000Y-87772999D01*
X225049111Y-88079944D01*
X225349941Y-88036117D01*
X225676964Y-87764887D01*
X226064110Y-87461672D01*
X226352465Y-87493167D01*
X226740600Y-87843711D01*
X227102280Y-88289370D01*
X227106600Y-88685607D01*
X226955676Y-89009971D01*
X226770109Y-89627791D01*
X226901506Y-90063534D01*
X227206990Y-90186000D01*
X227339090Y-89956589D01*
X227425892Y-89365949D01*
X227446000Y-88818444D01*
X227445999Y-87450889D01*
X228613304Y-87490181D01*
X229578199Y-87631792D01*
X230110182Y-87980191D01*
X230336028Y-88472060D01*
X230531262Y-89195160D01*
X230663404Y-89965712D01*
X230699978Y-90599933D01*
X230626243Y-90900423D01*
X230390002Y-90888167D01*
X230160562Y-90518661D01*
X230011388Y-89938262D01*
X229989889Y-89632642D01*
X229811105Y-88914829D01*
X229373668Y-88364238D01*
X228833793Y-88154000D01*
X228415065Y-88380999D01*
X228092347Y-88954101D01*
X227954457Y-89711457D01*
X227954000Y-89757200D01*
X227804372Y-90371261D01*
X227568235Y-90697954D01*
X227203250Y-90872068D01*
X226807992Y-90674274D01*
X226679235Y-90562688D01*
X226281332Y-90257076D01*
X225978869Y-90307717D01*
X225672764Y-90562688D01*
X225239981Y-90859145D01*
X224890396Y-90778647D01*
X224775527Y-90691118D01*
X224419124Y-90507608D01*
X223926290Y-90537944D01*
X223343811Y-90706603D01*
X222666577Y-90900480D01*
X222287617Y-90893579D01*
X222035222Y-90677949D01*
X222010531Y-90644871D01*
X221734626Y-90388044D01*
X221369484Y-90435562D01*
X221047091Y-90590597D01*
X220359043Y-90795248D01*
X219417038Y-90884157D01*
X219026335Y-90879461D01*
X218217100Y-90812285D01*
X217788990Y-90671377D01*
X217615679Y-90406560D01*
X217596837Y-90311694D01*
X217424126Y-89366956D01*
X217251583Y-88873890D01*
X217058141Y-88776611D01*
X217024553Y-88793602D01*
X216867018Y-89123446D01*
X216782535Y-89753147D01*
X216778000Y-89946990D01*
X216720878Y-90577651D01*
X216578421Y-90924713D01*
X216524000Y-90948000D01*
X216363973Y-90722884D01*
X216275908Y-90161464D01*
X216270000Y-89946990D01*
X216212738Y-89272007D01*
X216070500Y-88841098D01*
X216023446Y-88793602D01*
X215824024Y-88835139D01*
X215648992Y-89266418D01*
X215477690Y-90142312D01*
X215451405Y-90313000D01*
X215314756Y-90629583D01*
X214941069Y-90798297D01*
X214200260Y-90874630D01*
X214126416Y-90878171D01*
X213321505Y-90854804D01*
X212698511Y-90730532D01*
X212522541Y-90640504D01*
X212169147Y-90489154D01*
X211943218Y-90708209D01*
X211651495Y-90926006D01*
X211371166Y-90693936D01*
X211138059Y-90069544D01*
X210994835Y-89184951D01*
X210966900Y-88986524D01*
X212266012Y-88986524D01*
X212425991Y-89590551D01*
X212767565Y-90054959D01*
X213095000Y-90186000D01*
X213476593Y-89977043D01*
X213785203Y-89531274D01*
X213922249Y-88821901D01*
X213696228Y-88275700D01*
X213170071Y-88029823D01*
X213095000Y-88027000D01*
X212589171Y-88223988D01*
X212374424Y-88451774D01*
X212266012Y-88986524D01*
X210966900Y-88986524D01*
X210884901Y-88404073D01*
X210713696Y-88014792D01*
X210426393Y-87900746D01*
X210389397Y-87900000D01*
X209931874Y-88133232D01*
X209591459Y-88757850D01*
X209421678Y-89661234D01*
X209412000Y-89956507D01*
X209266886Y-90629886D01*
X208903725Y-90933013D01*
X208430786Y-90884968D01*
X207956340Y-90504832D01*
X207588657Y-89811688D01*
X207534498Y-89625619D01*
X207307996Y-88734003D01*
X206305512Y-89736487D01*
X204884368Y-90863939D01*
X203335172Y-91511945D01*
X201756639Y-91704421D01*
X200701972Y-91636150D01*
X199983749Y-91397021D01*
X199724639Y-91220029D01*
X199395697Y-90841985D01*
X199837296Y-90841985D01*
X200266842Y-91114332D01*
X200331500Y-91145994D01*
X201465095Y-91418076D01*
X202858288Y-91278613D01*
X203646112Y-91053045D01*
X204681467Y-90533909D01*
X205752678Y-89724628D01*
X206732240Y-88750816D01*
X207492647Y-87738087D01*
X207891647Y-86870453D01*
X208078616Y-85841389D01*
X208057513Y-85013430D01*
X207837661Y-84498680D01*
X207686421Y-84402228D01*
X207470685Y-84464021D01*
X207514229Y-84917369D01*
X207514896Y-84920031D01*
X207539148Y-85840868D01*
X207264748Y-86922661D01*
X206754526Y-87969441D01*
X206370800Y-88488448D01*
X205713740Y-89095737D01*
X204842080Y-89728076D01*
X204326892Y-90037264D01*
X203497821Y-90443513D01*
X202789207Y-90638805D01*
X201954301Y-90674309D01*
X201388403Y-90646613D01*
X200386731Y-90613485D01*
X199873477Y-90676822D01*
X199837296Y-90841985D01*
X199395697Y-90841985D01*
X199327889Y-90764055D01*
X199379000Y-90477960D01*
X199593510Y-90286252D01*
X200452919Y-90286252D01*
X200910912Y-90445961D01*
X201684099Y-90444008D01*
X202613486Y-90300968D01*
X203540079Y-90037416D01*
X204045809Y-89821312D01*
X205350733Y-88957825D01*
X206383873Y-87870112D01*
X207037939Y-86676314D01*
X207110727Y-86446442D01*
X207335692Y-85484800D01*
X207351078Y-84964692D01*
X207228270Y-84851999D01*
X206979299Y-85000016D01*
X206420996Y-85401178D01*
X205640605Y-85991156D01*
X204878770Y-86584412D01*
X203829692Y-87408402D01*
X202785874Y-88223245D01*
X201897311Y-88912075D01*
X201490085Y-89224665D01*
X200881916Y-89729820D01*
X200511303Y-90120200D01*
X200452919Y-90286252D01*
X199593510Y-90286252D01*
X199873533Y-90035995D01*
X200645427Y-89404132D01*
X201620277Y-88637689D01*
X202723679Y-87791987D01*
X203881232Y-86922348D01*
X205018531Y-86084090D01*
X206061172Y-85332535D01*
X206934753Y-84723002D01*
X207564870Y-84310812D01*
X207877119Y-84151286D01*
X207888000Y-84151360D01*
X208218804Y-84460023D01*
X208355339Y-85209280D01*
X208295457Y-86369457D01*
X208127092Y-87455544D01*
X207963166Y-88518769D01*
X207949463Y-89244205D01*
X208084442Y-89778868D01*
X208102329Y-89819366D01*
X208404470Y-90281184D01*
X208650850Y-90263841D01*
X208822671Y-89794827D01*
X208901133Y-88901637D01*
X208904000Y-88647009D01*
X208942901Y-87841373D01*
X209044340Y-87295835D01*
X209158000Y-87138000D01*
X209404678Y-87325455D01*
X209412000Y-87384028D01*
X209597577Y-87550507D01*
X209729500Y-87532243D01*
X210619033Y-87280260D01*
X211134257Y-87236738D01*
X211380499Y-87442773D01*
X211463088Y-87939459D01*
X211473464Y-88212660D01*
X211514262Y-88750464D01*
X211584749Y-88895070D01*
X211626686Y-88789000D01*
X212006703Y-87965298D01*
X212572721Y-87527087D01*
X213212915Y-87448318D01*
X213815457Y-87702946D01*
X214268521Y-88264923D01*
X214460282Y-89108204D01*
X214446948Y-89445895D01*
X214478563Y-90082352D01*
X214682500Y-90372490D01*
X214877177Y-90277944D01*
X214977700Y-89784655D01*
X215000000Y-89079156D01*
X215064890Y-88085583D01*
X215268355Y-87567783D01*
X215623587Y-87509243D01*
X216032005Y-87787484D01*
X216426569Y-88086156D01*
X216732217Y-88024907D01*
X217015994Y-87787484D01*
X217507346Y-87486507D01*
X217839029Y-87636086D01*
X218024752Y-88251832D01*
X218075829Y-88994490D01*
X218103659Y-90313000D01*
X218321208Y-89206413D01*
X218426886Y-88829037D01*
X219064000Y-88829037D01*
X219164432Y-89055732D01*
X219539356Y-88933403D01*
X219557853Y-88923570D01*
X220021129Y-88609375D01*
X220196997Y-88424185D01*
X220161915Y-88100583D01*
X220073016Y-88022684D01*
X219676440Y-88025996D01*
X219273752Y-88332148D01*
X219066267Y-88780260D01*
X219064000Y-88829037D01*
X218426886Y-88829037D01*
X218605574Y-88190939D01*
X218999293Y-87610896D01*
X219554244Y-87396976D01*
X219679300Y-87391999D01*
X220408931Y-87555155D01*
X220769676Y-87972141D01*
X220748485Y-88534237D01*
X220332310Y-89132721D01*
X219925244Y-89441153D01*
X219377666Y-89814355D01*
X219226551Y-90048893D01*
X219414941Y-90235175D01*
X219422369Y-90239359D01*
X220095910Y-90358672D01*
X220751856Y-90043162D01*
X221197766Y-89469499D01*
X221408407Y-88742164D01*
X221452760Y-87655269D01*
X221418865Y-87003594D01*
X221383355Y-86249000D01*
G37*
%TO.C,SW65*%
X235300000Y-150000000D02*
G75*
G03*
X235300000Y-150000000I-20300000J0D01*
G01*
X243250000Y-150000000D02*
G75*
G03*
X243250000Y-150000000I-28250000J0D01*
G01*
D10*
%TO.C,J4*%
X192750000Y-70700000D02*
X192750000Y-107700000D01*
X192750000Y-107700000D02*
X237250000Y-107700000D01*
X237250000Y-70700000D02*
X192750000Y-70700000D01*
X237250000Y-107700000D02*
X237250000Y-70700000D01*
%TO.C,SW25*%
X148884398Y-170474338D02*
X161008754Y-177474338D01*
X161008754Y-177474338D02*
X154008754Y-189598694D01*
X154008754Y-189598694D02*
X141884398Y-182598694D01*
X141884398Y-182598694D02*
X148884398Y-170474338D01*
%TO.C,SW30*%
X168403356Y-183148409D02*
X178302851Y-193047904D01*
X178302851Y-193047904D02*
X168403356Y-202947399D01*
X168403356Y-202947399D02*
X158503861Y-193047904D01*
X158503861Y-193047904D02*
X168403356Y-183148409D01*
%TO.C,SW1*%
X78386046Y-73902040D02*
X91909007Y-77525507D01*
X91909007Y-77525507D02*
X88285540Y-91048468D01*
X88285540Y-91048468D02*
X74762579Y-87425001D01*
X74762579Y-87425001D02*
X78386046Y-73902040D01*
%TO.C,SW24*%
X139047023Y-141926386D02*
X152569984Y-145549853D01*
X152569984Y-145549853D02*
X148946517Y-159072814D01*
X148946517Y-159072814D02*
X135423556Y-155449347D01*
X135423556Y-155449347D02*
X139047023Y-141926386D01*
%TO.C,SW29*%
X156626146Y-149923724D02*
X170149107Y-153547191D01*
X170149107Y-153547191D02*
X166525640Y-167070152D01*
X166525640Y-167070152D02*
X153002679Y-163446685D01*
X153002679Y-163446685D02*
X156626146Y-149923724D01*
%TO.C,SW14*%
X102245235Y-132065391D02*
X115768196Y-135688858D01*
X115768196Y-135688858D02*
X112144729Y-149211819D01*
X112144729Y-149211819D02*
X98621768Y-145588352D01*
X98621768Y-145588352D02*
X102245235Y-132065391D01*
%TO.C,SW19*%
X121673315Y-133162350D02*
X135196276Y-136785817D01*
X135196276Y-136785817D02*
X131572809Y-150308778D01*
X131572809Y-150308778D02*
X118049848Y-146685311D01*
X118049848Y-146685311D02*
X121673315Y-133162350D01*
%TO.C,SW5*%
X58664026Y-147505601D02*
X72186987Y-151129068D01*
X72186987Y-151129068D02*
X68563520Y-164652029D01*
X68563520Y-164652029D02*
X55040559Y-161028562D01*
X55040559Y-161028562D02*
X58664026Y-147505601D01*
%TO.C,SW22*%
X148908010Y-105124600D02*
X162430971Y-108748067D01*
X162430971Y-108748067D02*
X158807504Y-122271028D01*
X158807504Y-122271028D02*
X145284543Y-118647561D01*
X145284543Y-118647561D02*
X148908010Y-105124600D01*
%TO.C,SW27*%
X166487151Y-113121942D02*
X180010112Y-116745409D01*
X180010112Y-116745409D02*
X176386645Y-130268370D01*
X176386645Y-130268370D02*
X162863684Y-126644903D01*
X162863684Y-126644903D02*
X166487151Y-113121942D01*
%TO.C,SW3*%
X68525016Y-110703829D02*
X82047977Y-114327296D01*
X82047977Y-114327296D02*
X78424510Y-127850257D01*
X78424510Y-127850257D02*
X64901549Y-124226790D01*
X64901549Y-124226790D02*
X68525016Y-110703829D01*
%TO.C,SW8*%
X87542230Y-113334201D02*
X101065191Y-116957668D01*
X101065191Y-116957668D02*
X97441724Y-130480629D01*
X97441724Y-130480629D02*
X83918763Y-126857162D01*
X83918763Y-126857162D02*
X87542230Y-113334201D01*
%TO.C,SW13*%
X107175745Y-113664487D02*
X120698706Y-117287954D01*
X120698706Y-117287954D02*
X117075239Y-130810915D01*
X117075239Y-130810915D02*
X103552278Y-127187448D01*
X103552278Y-127187448D02*
X107175745Y-113664487D01*
%TO.C,SW23*%
X143977527Y-123525527D02*
X157500488Y-127148994D01*
X157500488Y-127148994D02*
X153877021Y-140671955D01*
X153877021Y-140671955D02*
X140354060Y-137048488D01*
X140354060Y-137048488D02*
X143977527Y-123525527D01*
%TO.C,SW18*%
X126603798Y-114761475D02*
X140126759Y-118384942D01*
X140126759Y-118384942D02*
X136503292Y-131907903D01*
X136503292Y-131907903D02*
X122980331Y-128284436D01*
X122980331Y-128284436D02*
X126603798Y-114761475D01*
%TO.C,SW28*%
X161556643Y-131522828D02*
X175079604Y-135146295D01*
X175079604Y-135146295D02*
X171456137Y-148669256D01*
X171456137Y-148669256D02*
X157933176Y-145045789D01*
X157933176Y-145045789D02*
X161556643Y-131522828D01*
%TO.C,SW4*%
X63594538Y-129104723D02*
X77117499Y-132728190D01*
X77117499Y-132728190D02*
X73494032Y-146251151D01*
X73494032Y-146251151D02*
X59971071Y-142627684D01*
X59971071Y-142627684D02*
X63594538Y-129104723D01*
%TO.C,SW9*%
X82611706Y-131735110D02*
X96134667Y-135358577D01*
X96134667Y-135358577D02*
X92511200Y-148881538D01*
X92511200Y-148881538D02*
X78988239Y-145258071D01*
X78988239Y-145258071D02*
X82611706Y-131735110D01*
%TO.C,SW10*%
X77681223Y-150135997D02*
X91204184Y-153759464D01*
X91204184Y-153759464D02*
X87580717Y-167282425D01*
X87580717Y-167282425D02*
X74057756Y-163658958D01*
X74057756Y-163658958D02*
X77681223Y-150135997D01*
%TO.C,SW15*%
X97314729Y-150466260D02*
X110837690Y-154089727D01*
X110837690Y-154089727D02*
X107214223Y-167612688D01*
X107214223Y-167612688D02*
X93691262Y-163989221D01*
X93691262Y-163989221D02*
X97314729Y-150466260D01*
%TO.C,SW20*%
X126750241Y-163283995D02*
X140273202Y-166907462D01*
X140273202Y-166907462D02*
X136649735Y-180430423D01*
X136649735Y-180430423D02*
X123126774Y-176806956D01*
X123126774Y-176806956D02*
X126750241Y-163283995D01*
%TO.C,SW11*%
X117036748Y-76862743D02*
X130559709Y-80486210D01*
X130559709Y-80486210D02*
X126936242Y-94009171D01*
X126936242Y-94009171D02*
X113413281Y-90385704D01*
X113413281Y-90385704D02*
X117036748Y-76862743D01*
%TO.C,SW2*%
X73455535Y-92302940D02*
X86978496Y-95926407D01*
X86978496Y-95926407D02*
X83355029Y-109449368D01*
X83355029Y-109449368D02*
X69832068Y-105825901D01*
X69832068Y-105825901D02*
X73455535Y-92302940D01*
%TO.C,SW12*%
X112106237Y-95263600D02*
X125629198Y-98887067D01*
X125629198Y-98887067D02*
X122005731Y-112410028D01*
X122005731Y-112410028D02*
X108482770Y-108786561D01*
X108482770Y-108786561D02*
X112106237Y-95263600D01*
%TO.C,SW21*%
X153838520Y-86723722D02*
X167361481Y-90347189D01*
X167361481Y-90347189D02*
X163738014Y-103870150D01*
X163738014Y-103870150D02*
X150215053Y-100246683D01*
X150215053Y-100246683D02*
X153838520Y-86723722D01*
%TO.C,SW17*%
X131534319Y-96360607D02*
X145057280Y-99984074D01*
X145057280Y-99984074D02*
X141433813Y-113507035D01*
X141433813Y-113507035D02*
X127910852Y-109883568D01*
X127910852Y-109883568D02*
X131534319Y-96360607D01*
%TO.C,SW16*%
X136464820Y-77959700D02*
X149987781Y-81583167D01*
X149987781Y-81583167D02*
X146364314Y-95106128D01*
X146364314Y-95106128D02*
X132841353Y-91482661D01*
X132841353Y-91482661D02*
X136464820Y-77959700D01*
%TO.C,SW6*%
X97403233Y-76532441D02*
X110926194Y-80155908D01*
X110926194Y-80155908D02*
X107302727Y-93678869D01*
X107302727Y-93678869D02*
X93779766Y-90055402D01*
X93779766Y-90055402D02*
X97403233Y-76532441D01*
%TO.C,SW7*%
X92472729Y-94933326D02*
X105995690Y-98556793D01*
X105995690Y-98556793D02*
X102372223Y-112079754D01*
X102372223Y-112079754D02*
X88849262Y-108456287D01*
X88849262Y-108456287D02*
X92472729Y-94933326D01*
%TO.C,SW26*%
X171417649Y-94721050D02*
X184940610Y-98344517D01*
X184940610Y-98344517D02*
X181317143Y-111867478D01*
X181317143Y-111867478D02*
X167794182Y-108244011D01*
X167794182Y-108244011D02*
X171417649Y-94721050D01*
%TO.C,SW31*%
X245059414Y-98344524D02*
X258582375Y-94721057D01*
X258582375Y-94721057D02*
X262205842Y-108244018D01*
X262205842Y-108244018D02*
X248682881Y-111867485D01*
X248682881Y-111867485D02*
X245059414Y-98344524D01*
%TO.C,SW62*%
X208000001Y-186000002D02*
X222000001Y-186000002D01*
X222000001Y-186000002D02*
X222000001Y-200000002D01*
X222000001Y-200000002D02*
X208000001Y-200000002D01*
X208000001Y-200000002D02*
X208000001Y-186000002D01*
%TO.C,SW45*%
X289726811Y-166907458D02*
X303249772Y-163283991D01*
X303249772Y-163283991D02*
X306873239Y-176806952D01*
X306873239Y-176806952D02*
X293350278Y-180430419D01*
X293350278Y-180430419D02*
X289726811Y-166907458D01*
%TO.C,SW49*%
X314231829Y-135688876D02*
X327754790Y-132065409D01*
X327754790Y-132065409D02*
X331378257Y-145588370D01*
X331378257Y-145588370D02*
X317855296Y-149211837D01*
X317855296Y-149211837D02*
X314231829Y-135688876D01*
%TO.C,SW47*%
X304370826Y-98887092D02*
X317893787Y-95263625D01*
X317893787Y-95263625D02*
X321517254Y-108786586D01*
X321517254Y-108786586D02*
X307994293Y-112410053D01*
X307994293Y-112410053D02*
X304370826Y-98887092D01*
%TO.C,SW63*%
X227974213Y-184399218D02*
X240098569Y-177399218D01*
X240098569Y-177399218D02*
X247098569Y-189523574D01*
X247098569Y-189523574D02*
X234974213Y-196523574D01*
X234974213Y-196523574D02*
X227974213Y-184399218D01*
%TO.C,SW61*%
X189901430Y-177399224D02*
X202025786Y-184399224D01*
X202025786Y-184399224D02*
X195025786Y-196523580D01*
X195025786Y-196523580D02*
X182901430Y-189523580D01*
X182901430Y-189523580D02*
X189901430Y-177399224D01*
%TO.C,SW33*%
X254920412Y-135146290D02*
X268443373Y-131522823D01*
X268443373Y-131522823D02*
X272066840Y-145045784D01*
X272066840Y-145045784D02*
X258543879Y-148669251D01*
X258543879Y-148669251D02*
X254920412Y-135146290D01*
%TO.C,SW59*%
X352882529Y-132728189D02*
X366405490Y-129104722D01*
X366405490Y-129104722D02*
X370028957Y-142627683D01*
X370028957Y-142627683D02*
X356505996Y-146251150D01*
X356505996Y-146251150D02*
X352882529Y-132728189D01*
%TO.C,SW38*%
X272499561Y-127148988D02*
X286022522Y-123525521D01*
X286022522Y-123525521D02*
X289645989Y-137048482D01*
X289645989Y-137048482D02*
X276123028Y-140671949D01*
X276123028Y-140671949D02*
X272499561Y-127148988D01*
%TO.C,SW50*%
X319162327Y-154089753D02*
X332685288Y-150466286D01*
X332685288Y-150466286D02*
X336308755Y-163989247D01*
X336308755Y-163989247D02*
X322785794Y-167612714D01*
X322785794Y-167612714D02*
X319162327Y-154089753D01*
%TO.C,SW58*%
X347952026Y-114327282D02*
X361474987Y-110703815D01*
X361474987Y-110703815D02*
X365098454Y-124226776D01*
X365098454Y-124226776D02*
X351575493Y-127850243D01*
X351575493Y-127850243D02*
X347952026Y-114327282D01*
%TO.C,SW43*%
X289873239Y-118384945D02*
X303396200Y-114761478D01*
X303396200Y-114761478D02*
X307019667Y-128284439D01*
X307019667Y-128284439D02*
X293496706Y-131907906D01*
X293496706Y-131907906D02*
X289873239Y-118384945D01*
%TO.C,SW57*%
X343021518Y-95926400D02*
X356544479Y-92302933D01*
X356544479Y-92302933D02*
X360167946Y-105825894D01*
X360167946Y-105825894D02*
X346644985Y-109449361D01*
X346644985Y-109449361D02*
X343021518Y-95926400D01*
%TO.C,SW52*%
X324004340Y-98556795D02*
X337527301Y-94933328D01*
X337527301Y-94933328D02*
X341150768Y-108456289D01*
X341150768Y-108456289D02*
X327627807Y-112079756D01*
X327627807Y-112079756D02*
X324004340Y-98556795D01*
%TO.C,SW44*%
X294803755Y-136785824D02*
X308326716Y-133162357D01*
X308326716Y-133162357D02*
X311950183Y-146685318D01*
X311950183Y-146685318D02*
X298427222Y-150308785D01*
X298427222Y-150308785D02*
X294803755Y-136785824D01*
%TO.C,SW41*%
X280012240Y-81583175D02*
X293535201Y-77959708D01*
X293535201Y-77959708D02*
X297158668Y-91482669D01*
X297158668Y-91482669D02*
X283635707Y-95106136D01*
X283635707Y-95106136D02*
X280012240Y-81583175D01*
%TO.C,SW40*%
X268991263Y-177474331D02*
X281115619Y-170474331D01*
X281115619Y-170474331D02*
X288115619Y-182598687D01*
X288115619Y-182598687D02*
X275991263Y-189598687D01*
X275991263Y-189598687D02*
X268991263Y-177474331D01*
%TO.C,SW46*%
X299440316Y-80486213D02*
X312963277Y-76862746D01*
X312963277Y-76862746D02*
X316586744Y-90385707D01*
X316586744Y-90385707D02*
X303063783Y-94009174D01*
X303063783Y-94009174D02*
X299440316Y-80486213D01*
%TO.C,SW51*%
X319073831Y-80155924D02*
X332596792Y-76532457D01*
X332596792Y-76532457D02*
X336220259Y-90055418D01*
X336220259Y-90055418D02*
X322697298Y-93678885D01*
X322697298Y-93678885D02*
X319073831Y-80155924D01*
%TO.C,SW60*%
X357813026Y-151129069D02*
X371335987Y-147505602D01*
X371335987Y-147505602D02*
X374959454Y-161028563D01*
X374959454Y-161028563D02*
X361436493Y-164652030D01*
X361436493Y-164652030D02*
X357813026Y-151129069D01*
%TO.C,SW37*%
X267569060Y-108748102D02*
X281092021Y-105124635D01*
X281092021Y-105124635D02*
X284715488Y-118647596D01*
X284715488Y-118647596D02*
X271192527Y-122271063D01*
X271192527Y-122271063D02*
X267569060Y-108748102D01*
%TO.C,SW64*%
X207999997Y-205050005D02*
X221999997Y-205050005D01*
X221999997Y-205050005D02*
X221999997Y-219050005D01*
X221999997Y-219050005D02*
X207999997Y-219050005D01*
X207999997Y-219050005D02*
X207999997Y-205050005D01*
%TO.C,SW54*%
X333865347Y-135358576D02*
X347388308Y-131735109D01*
X347388308Y-131735109D02*
X351011775Y-145258070D01*
X351011775Y-145258070D02*
X337488814Y-148881537D01*
X337488814Y-148881537D02*
X333865347Y-135358576D01*
%TO.C,SW55*%
X338795849Y-153759467D02*
X352318810Y-150136000D01*
X352318810Y-150136000D02*
X355942277Y-163658961D01*
X355942277Y-163658961D02*
X342419316Y-167282428D01*
X342419316Y-167282428D02*
X338795849Y-153759467D01*
%TO.C,SW48*%
X309301324Y-117287974D02*
X322824285Y-113664507D01*
X322824285Y-113664507D02*
X326447752Y-127187468D01*
X326447752Y-127187468D02*
X312924791Y-130810935D01*
X312924791Y-130810935D02*
X309301324Y-117287974D01*
%TO.C,SW53*%
X328934837Y-116957683D02*
X342457798Y-113334216D01*
X342457798Y-113334216D02*
X346081265Y-126857177D01*
X346081265Y-126857177D02*
X332558304Y-130480644D01*
X332558304Y-130480644D02*
X328934837Y-116957683D01*
%TO.C,SW35*%
X251697171Y-193047903D02*
X261596666Y-183148408D01*
X261596666Y-183148408D02*
X271496161Y-193047903D01*
X271496161Y-193047903D02*
X261596666Y-202947398D01*
X261596666Y-202947398D02*
X251697171Y-193047903D01*
%TO.C,SW34*%
X259850917Y-153547179D02*
X273373878Y-149923712D01*
X273373878Y-149923712D02*
X276997345Y-163446673D01*
X276997345Y-163446673D02*
X263474384Y-167070140D01*
X263474384Y-167070140D02*
X259850917Y-153547179D01*
%TO.C,SW42*%
X284942740Y-99984058D02*
X298465701Y-96360591D01*
X298465701Y-96360591D02*
X302089168Y-109883552D01*
X302089168Y-109883552D02*
X288566207Y-113507019D01*
X288566207Y-113507019D02*
X284942740Y-99984058D01*
%TO.C,SW56*%
X338091028Y-77525521D02*
X351613989Y-73902054D01*
X351613989Y-73902054D02*
X355237456Y-87425015D01*
X355237456Y-87425015D02*
X341714495Y-91048482D01*
X341714495Y-91048482D02*
X338091028Y-77525521D01*
%TO.C,SW36*%
X262638537Y-90347221D02*
X276161498Y-86723754D01*
X276161498Y-86723754D02*
X279784965Y-100246715D01*
X279784965Y-100246715D02*
X266262004Y-103870182D01*
X266262004Y-103870182D02*
X262638537Y-90347221D01*
%TO.C,SW39*%
X277430056Y-145549872D02*
X290953017Y-141926405D01*
X290953017Y-141926405D02*
X294576484Y-155449366D01*
X294576484Y-155449366D02*
X281053523Y-159072833D01*
X281053523Y-159072833D02*
X277430056Y-145549872D01*
%TO.C,SW32*%
X249989911Y-116745417D02*
X263512872Y-113121950D01*
X263512872Y-113121950D02*
X267136339Y-126644911D01*
X267136339Y-126644911D02*
X253613378Y-130268378D01*
X253613378Y-130268378D02*
X249989911Y-116745417D01*
%TD*%
%LPC*%
D14*
%TO.C,SW65*%
X232266308Y-166673361D03*
D15*
X238486508Y-149590041D03*
D16*
X203603955Y-170538223D03*
D15*
X202899444Y-129861293D03*
D14*
X192323406Y-142188338D03*
D17*
X232165064Y-125269238D03*
X227834936Y-122769238D03*
X230000000Y-124019238D03*
D18*
X240807659Y-161490309D03*
D19*
X209875251Y-179064881D03*
X192393633Y-168971514D03*
D18*
X192165353Y-133409304D03*
%TD*%
D20*
%TO.C,H3*%
X82499993Y-72257210D03*
%TD*%
D21*
%TO.C,J4*%
X194999999Y-81579999D03*
D22*
X194999999Y-84119999D03*
X194999999Y-86659999D03*
X194999999Y-89199999D03*
X194999999Y-91739999D03*
X194999999Y-94279999D03*
X194999999Y-96819999D03*
D15*
X195250000Y-73200000D03*
X195250000Y-105200000D03*
X234750000Y-73200000D03*
X234750000Y-105200000D03*
%TD*%
D20*
%TO.C,H2*%
X347600000Y-72257205D03*
%TD*%
D23*
%TO.C,H9*%
X174749999Y-207500002D03*
%TD*%
%TO.C,H8*%
X254999999Y-207500006D03*
%TD*%
D20*
%TO.C,H1*%
X214999996Y-202500004D03*
%TD*%
D24*
%TO.C,SW25*%
X155845985Y-182576516D03*
D25*
X156186281Y-176907107D03*
D26*
X151446576Y-180036516D03*
D25*
X149417019Y-175931811D03*
D24*
X147047167Y-177496516D03*
%TD*%
%TO.C,SW30*%
X171995458Y-196640006D03*
D25*
X173791510Y-191251853D03*
D26*
X168403356Y-193047904D03*
D25*
X167505330Y-188557776D03*
D24*
X164811254Y-189455802D03*
%TD*%
%TO.C,SW1*%
X88242696Y-83790055D03*
D25*
X87104045Y-78225751D03*
D26*
X83335793Y-82475254D03*
D25*
X80313016Y-79035702D03*
D24*
X78428890Y-81160453D03*
%TD*%
%TO.C,SW24*%
X148903673Y-151814401D03*
D25*
X147765022Y-146250097D03*
D26*
X143996770Y-150499600D03*
D25*
X140973993Y-147060048D03*
D24*
X139089867Y-149184799D03*
%TD*%
%TO.C,SW29*%
X166482796Y-159811739D03*
D25*
X165344145Y-154247435D03*
D26*
X161575893Y-158496938D03*
D25*
X158553116Y-155057386D03*
D24*
X156668990Y-157182137D03*
%TD*%
%TO.C,SW14*%
X112101885Y-141953406D03*
D25*
X110963234Y-136389102D03*
D26*
X107194982Y-140638605D03*
D25*
X104172205Y-137199053D03*
D24*
X102288079Y-139323804D03*
%TD*%
%TO.C,SW19*%
X131529965Y-143050365D03*
D25*
X130391314Y-137486061D03*
D26*
X126623062Y-141735564D03*
D25*
X123600285Y-138296012D03*
D24*
X121716159Y-140420763D03*
%TD*%
%TO.C,SW5*%
X68520676Y-157393616D03*
D25*
X67382025Y-151829312D03*
D26*
X63613773Y-156078815D03*
D25*
X60590996Y-152639263D03*
D24*
X58706870Y-154764014D03*
%TD*%
%TO.C,SW22*%
X158764660Y-115012615D03*
D25*
X157626009Y-109448311D03*
D26*
X153857757Y-113697814D03*
D25*
X150834980Y-110258262D03*
D24*
X148950854Y-112383013D03*
%TD*%
%TO.C,SW27*%
X176343801Y-123009957D03*
D25*
X175205150Y-117445653D03*
D26*
X171436898Y-121695156D03*
D25*
X168414121Y-118255604D03*
D24*
X166529995Y-120380355D03*
%TD*%
%TO.C,SW3*%
X78381666Y-120591844D03*
D25*
X77243015Y-115027540D03*
D26*
X73474763Y-119277043D03*
D25*
X70451986Y-115837491D03*
D24*
X68567860Y-117962242D03*
%TD*%
%TO.C,SW8*%
X97398880Y-123222216D03*
D25*
X96260229Y-117657912D03*
D26*
X92491977Y-121907415D03*
D25*
X89469200Y-118467863D03*
D24*
X87585074Y-120592614D03*
%TD*%
%TO.C,SW13*%
X117032395Y-123552502D03*
D25*
X115893744Y-117988198D03*
D26*
X112125492Y-122237701D03*
D25*
X109102715Y-118798149D03*
D24*
X107218589Y-120922900D03*
%TD*%
%TO.C,SW23*%
X153834177Y-133413542D03*
D25*
X152695526Y-127849238D03*
D26*
X148927274Y-132098741D03*
D25*
X145904497Y-128659189D03*
D24*
X144020371Y-130783940D03*
%TD*%
%TO.C,SW18*%
X136460448Y-124649490D03*
D25*
X135321797Y-119085186D03*
D26*
X131553545Y-123334689D03*
D25*
X128530768Y-119895137D03*
D24*
X126646642Y-122019888D03*
%TD*%
%TO.C,SW28*%
X171413293Y-141410843D03*
D25*
X170274642Y-135846539D03*
D26*
X166506390Y-140096042D03*
D25*
X163483613Y-136656490D03*
D24*
X161599487Y-138781241D03*
%TD*%
%TO.C,SW4*%
X73451188Y-138992738D03*
D25*
X72312537Y-133428434D03*
D26*
X68544285Y-137677937D03*
D25*
X65521508Y-134238385D03*
D24*
X63637382Y-136363136D03*
%TD*%
%TO.C,SW9*%
X92468356Y-141623125D03*
D25*
X91329705Y-136058821D03*
D26*
X87561453Y-140308324D03*
D25*
X84538676Y-136868772D03*
D24*
X82654550Y-138993523D03*
%TD*%
%TO.C,SW10*%
X87537873Y-160024012D03*
D25*
X86399222Y-154459708D03*
D26*
X82630970Y-158709211D03*
D25*
X79608193Y-155269659D03*
D24*
X77724067Y-157394410D03*
%TD*%
%TO.C,SW15*%
X107171379Y-160354275D03*
D25*
X106032728Y-154789971D03*
D26*
X102264476Y-159039474D03*
D25*
X99241699Y-155599922D03*
D24*
X97357573Y-157724673D03*
%TD*%
%TO.C,SW20*%
X136606891Y-173172010D03*
D25*
X135468240Y-167607706D03*
D26*
X131699988Y-171857209D03*
D25*
X128677211Y-168417657D03*
D24*
X126793085Y-170542408D03*
%TD*%
%TO.C,SW11*%
X126893398Y-86750758D03*
D25*
X125754747Y-81186454D03*
D26*
X121986495Y-85435957D03*
D25*
X118963718Y-81996405D03*
D24*
X117079592Y-84121156D03*
%TD*%
%TO.C,SW2*%
X83312185Y-102190955D03*
D25*
X82173534Y-96626651D03*
D26*
X78405282Y-100876154D03*
D25*
X75382505Y-97436602D03*
D24*
X73498379Y-99561353D03*
%TD*%
%TO.C,SW12*%
X121962887Y-105151615D03*
D25*
X120824236Y-99587311D03*
D26*
X117055984Y-103836814D03*
D25*
X114033207Y-100397262D03*
D24*
X112149081Y-102522013D03*
%TD*%
%TO.C,SW21*%
X163695170Y-96611737D03*
D25*
X162556519Y-91047433D03*
D26*
X158788267Y-95296936D03*
D25*
X155765490Y-91857384D03*
D24*
X153881364Y-93982135D03*
%TD*%
%TO.C,SW17*%
X141390969Y-106248622D03*
D25*
X140252318Y-100684318D03*
D26*
X136484066Y-104933821D03*
D25*
X133461289Y-101494269D03*
D24*
X131577163Y-103619020D03*
%TD*%
%TO.C,SW16*%
X146321470Y-87847715D03*
D25*
X145182819Y-82283411D03*
D26*
X141414567Y-86532914D03*
D25*
X138391790Y-83093362D03*
D24*
X136507664Y-85218113D03*
%TD*%
%TO.C,SW6*%
X107259883Y-86420456D03*
D25*
X106121232Y-80856152D03*
D26*
X102352980Y-85105655D03*
D25*
X99330203Y-81666103D03*
D24*
X97446077Y-83790854D03*
%TD*%
%TO.C,SW7*%
X102329379Y-104821341D03*
D25*
X101190728Y-99257037D03*
D26*
X97422476Y-103506540D03*
D25*
X94399699Y-100066988D03*
D24*
X92515573Y-102191739D03*
%TD*%
%TO.C,SW26*%
X181274299Y-104609065D03*
D25*
X180135648Y-99044761D03*
D26*
X176367396Y-103294264D03*
D25*
X173344619Y-99854712D03*
D24*
X171460493Y-101979463D03*
%TD*%
%TO.C,SW31*%
X258539531Y-101979470D03*
D25*
X254771279Y-97729967D03*
D26*
X253632628Y-103294271D03*
D25*
X249295050Y-101826920D03*
D24*
X248725725Y-104609072D03*
%TD*%
%TO.C,SW62*%
X220080001Y-193000002D03*
D25*
X217540001Y-187920002D03*
D26*
X215000001Y-193000002D03*
D25*
X211190001Y-190460002D03*
D24*
X209920001Y-193000002D03*
%TD*%
%TO.C,SW45*%
X303206928Y-170542404D03*
D25*
X299438676Y-166292901D03*
D26*
X298300025Y-171857205D03*
D25*
X293962447Y-170389854D03*
D24*
X293393122Y-173172006D03*
%TD*%
%TO.C,SW49*%
X327711946Y-139323822D03*
D25*
X323943694Y-135074319D03*
D26*
X322805043Y-140638623D03*
D25*
X318467465Y-139171272D03*
D24*
X317898140Y-141953424D03*
%TD*%
D27*
%TO.C,J5*%
X241600002Y-132200000D03*
D22*
X241600001Y-129659999D03*
D21*
X241600001Y-127119999D03*
X241600001Y-124579999D03*
%TD*%
D23*
%TO.C,H7*%
X336482360Y-169625361D03*
%TD*%
D24*
%TO.C,SW47*%
X317850943Y-102522038D03*
D25*
X314082691Y-98272535D03*
D26*
X312944040Y-103836839D03*
D25*
X308606462Y-102369488D03*
D24*
X308037137Y-105151640D03*
%TD*%
%TO.C,SW63*%
X241935800Y-184421396D03*
D25*
X237196096Y-181291987D03*
D26*
X237536391Y-186961396D03*
D25*
X232966834Y-186666691D03*
D24*
X233136982Y-189501396D03*
%TD*%
%TO.C,SW61*%
X196863017Y-189501402D03*
D25*
X197203313Y-183831993D03*
D26*
X192463608Y-186961402D03*
D25*
X190434051Y-182856697D03*
D24*
X188064199Y-184421402D03*
%TD*%
%TO.C,SW33*%
X268400529Y-138781236D03*
D25*
X264632277Y-134531733D03*
D26*
X263493626Y-140096037D03*
D25*
X259156048Y-138628686D03*
D24*
X258586723Y-141410838D03*
%TD*%
D23*
%TO.C,H11*%
X228799997Y-150000000D03*
%TD*%
D24*
%TO.C,SW59*%
X366362646Y-136363135D03*
D25*
X362594394Y-132113632D03*
D26*
X361455743Y-137677936D03*
D25*
X357118165Y-136210585D03*
D24*
X356548840Y-138992737D03*
%TD*%
%TO.C,SW38*%
X285979678Y-130783934D03*
D25*
X282211426Y-126534431D03*
D26*
X281072775Y-132098735D03*
D25*
X276735197Y-130631384D03*
D24*
X276165872Y-133413536D03*
%TD*%
%TO.C,SW50*%
X332642444Y-157724699D03*
D25*
X328874192Y-153475196D03*
D26*
X327735541Y-159039500D03*
D25*
X323397963Y-157572149D03*
D24*
X322828638Y-160354301D03*
%TD*%
D28*
%TO.C,SW69*%
X227500002Y-64127208D03*
X230500002Y-64127208D03*
%TD*%
D23*
%TO.C,H10*%
X201200001Y-149999954D03*
%TD*%
D24*
%TO.C,SW58*%
X361432143Y-117962228D03*
D25*
X357663891Y-113712725D03*
D26*
X356525240Y-119277029D03*
D25*
X352187662Y-117809678D03*
D24*
X351618337Y-120591830D03*
%TD*%
D29*
%TO.C,U4*%
X220349999Y-144339999D03*
D30*
X220350000Y-146120000D03*
X220350000Y-147900000D03*
X220350000Y-149680000D03*
X220350000Y-151460000D03*
X220350000Y-153240000D03*
X220350000Y-155020000D03*
X220350000Y-156800000D03*
X209650000Y-157690000D03*
X209650000Y-155910000D03*
X209650000Y-154130000D03*
X209650000Y-152350000D03*
X209650000Y-150570000D03*
X209650000Y-148790000D03*
X209650000Y-147010000D03*
X209650000Y-145230000D03*
%TD*%
D24*
%TO.C,SW43*%
X303353356Y-122019891D03*
D25*
X299585104Y-117770388D03*
D26*
X298446453Y-123334692D03*
D25*
X294108875Y-121867341D03*
D24*
X293539550Y-124649493D03*
%TD*%
D31*
%TO.C,SW68*%
X200999999Y-65732209D03*
X200999999Y-62982209D03*
%TD*%
D24*
%TO.C,SW57*%
X356501635Y-99561346D03*
D25*
X352733383Y-95311843D03*
D26*
X351594732Y-100876147D03*
D25*
X347257154Y-99408796D03*
D24*
X346687829Y-102190948D03*
%TD*%
%TO.C,SW52*%
X337484457Y-102191741D03*
D25*
X333716205Y-97942238D03*
D26*
X332577554Y-103506542D03*
D25*
X328239976Y-102039191D03*
D24*
X327670651Y-104821343D03*
%TD*%
%TO.C,SW44*%
X308283872Y-140420770D03*
D25*
X304515620Y-136171267D03*
D26*
X303376969Y-141735571D03*
D25*
X299039391Y-140268220D03*
D24*
X298470066Y-143050372D03*
%TD*%
%TO.C,SW41*%
X293492357Y-85218121D03*
D25*
X289724105Y-80968618D03*
D26*
X288585454Y-86532922D03*
D25*
X284247876Y-85065571D03*
D24*
X283678551Y-87847723D03*
%TD*%
D32*
%TO.C,J2*%
X209379999Y-64657209D03*
D33*
X209379999Y-68657209D03*
D32*
X220619999Y-64657209D03*
D33*
X220619999Y-68657209D03*
%TD*%
D23*
%TO.C,H6*%
X93517638Y-169625356D03*
%TD*%
D24*
%TO.C,SW40*%
X282952850Y-177496509D03*
D25*
X278213146Y-174367100D03*
D26*
X278553441Y-180036509D03*
D25*
X273983884Y-179741804D03*
D24*
X274154032Y-182576509D03*
%TD*%
%TO.C,SW46*%
X312920433Y-84121159D03*
D25*
X309152181Y-79871656D03*
D26*
X308013530Y-85435960D03*
D25*
X303675952Y-83968609D03*
D24*
X303106627Y-86750761D03*
%TD*%
%TO.C,SW51*%
X332553948Y-83790870D03*
D25*
X328785696Y-79541367D03*
D26*
X327647045Y-85105671D03*
D25*
X323309467Y-83638320D03*
D24*
X322740142Y-86420472D03*
%TD*%
%TO.C,SW60*%
X371293143Y-154764015D03*
D25*
X367524891Y-150514512D03*
D26*
X366386240Y-156078816D03*
D25*
X362048662Y-154611465D03*
D24*
X361479337Y-157393617D03*
%TD*%
%TO.C,SW37*%
X281049177Y-112383048D03*
D25*
X277280925Y-108133545D03*
D26*
X276142274Y-113697849D03*
D25*
X271804696Y-112230498D03*
D24*
X271235371Y-115012650D03*
%TD*%
D34*
%TO.C,SW64*%
X226937997Y-219035005D03*
D26*
X226937997Y-203825005D03*
D24*
X220079997Y-212050005D03*
D25*
X217539997Y-206970005D03*
D26*
X214999997Y-212050005D03*
D25*
X211189997Y-209510005D03*
D24*
X209919997Y-212050005D03*
D34*
X203061997Y-219035005D03*
D26*
X203061997Y-203825005D03*
%TD*%
D23*
%TO.C,H4*%
X249399996Y-74557204D03*
%TD*%
D24*
%TO.C,SW54*%
X347345464Y-138993522D03*
D25*
X343577212Y-134744019D03*
D26*
X342438561Y-140308323D03*
D25*
X338100983Y-138840972D03*
D24*
X337531658Y-141623124D03*
%TD*%
%TO.C,SW55*%
X352275966Y-157394413D03*
D25*
X348507714Y-153144910D03*
D26*
X347369063Y-158709214D03*
D25*
X343031485Y-157241863D03*
D24*
X342462160Y-160024015D03*
%TD*%
%TO.C,SW48*%
X322781441Y-120922920D03*
D25*
X319013189Y-116673417D03*
D26*
X317874538Y-122237721D03*
D25*
X313536960Y-120770370D03*
D24*
X312967635Y-123552522D03*
%TD*%
D23*
%TO.C,H5*%
X180599997Y-74557207D03*
%TD*%
D24*
%TO.C,SW53*%
X342414954Y-120592629D03*
D25*
X338646702Y-116343126D03*
D26*
X337508051Y-121907430D03*
D25*
X333170473Y-120440079D03*
D24*
X332601148Y-123222231D03*
%TD*%
%TO.C,SW35*%
X265188768Y-189455801D03*
D25*
X259800615Y-187659749D03*
D26*
X261596666Y-193047903D03*
D25*
X257106538Y-193945929D03*
D24*
X258004564Y-196640005D03*
%TD*%
%TO.C,SW34*%
X273331034Y-157182125D03*
D25*
X269562782Y-152932622D03*
D26*
X268424131Y-158496926D03*
D25*
X264086553Y-157029575D03*
D24*
X263517228Y-159811727D03*
%TD*%
D22*
%TO.C,J1*%
X234499999Y-93344999D03*
D21*
X234499999Y-95884999D03*
D27*
X234500000Y-98425000D03*
%TD*%
D24*
%TO.C,SW42*%
X298422857Y-103619004D03*
D25*
X294654605Y-99369501D03*
D26*
X293515954Y-104933805D03*
D25*
X289178376Y-103466454D03*
D24*
X288609051Y-106248606D03*
%TD*%
%TO.C,SW56*%
X351571145Y-81160467D03*
D25*
X347802893Y-76910964D03*
D26*
X346664242Y-82475268D03*
D25*
X342326664Y-81007917D03*
D24*
X341757339Y-83790069D03*
%TD*%
%TO.C,SW36*%
X276118654Y-93982167D03*
D25*
X272350402Y-89732664D03*
D26*
X271211751Y-95296968D03*
D25*
X266874173Y-93829617D03*
D24*
X266304848Y-96611769D03*
%TD*%
%TO.C,SW39*%
X290910173Y-149184818D03*
D25*
X287141921Y-144935315D03*
D26*
X286003270Y-150499619D03*
D25*
X281665692Y-149032268D03*
D24*
X281096367Y-151814420D03*
%TD*%
%TO.C,SW32*%
X263470028Y-120380363D03*
D25*
X259701776Y-116130860D03*
D26*
X258563125Y-121695164D03*
D25*
X254225547Y-120227813D03*
D24*
X253656222Y-123009965D03*
%TD*%
M02*
