M48
; DRILL file {KiCad (7.0.0)} date Sun Apr  2 15:15:40 2023
; FORMAT={-:-/ absolute / inch / decimal}
; #@! TF.CreationDate,2023-04-02T15:15:40+01:00
; #@! TF.GenerationSoftware,Kicad,Pcbnew,(7.0.0)
; #@! TF.FileFunction,Plated,1,2,PTH
FMAT,2
INCH
; #@! TA.AperFunction,Plated,PTH,ViaDrill
T1C0.0098
; #@! TA.AperFunction,Plated,PTH,ViaDrill
T2C0.0118
; #@! TA.AperFunction,Plated,PTH,ComponentDrill
T3C0.0118
; #@! TA.AperFunction,Plated,PTH,ComponentDrill
T4C0.0236
; #@! TA.AperFunction,Plated,PTH,ComponentDrill
T5C0.0276
; #@! TA.AperFunction,Plated,PTH,ComponentDrill
T6C0.0295
; #@! TA.AperFunction,Plated,PTH,ComponentDrill
T7C0.0394
; #@! TA.AperFunction,Plated,PTH,ComponentDrill
T8C0.0413
; #@! TA.AperFunction,Plated,PTH,ComponentDrill
T9C0.0591
; #@! TA.AperFunction,Plated,PTH,ComponentDrill
T10C0.0787
; #@! TA.AperFunction,Plated,PTH,ComponentDrill
T11C0.1260
%
G90
G05
T1
X1.4061Y-4.55
X1.6002Y-3.8255
X1.7943Y-3.1011
X1.9884Y-2.3766
X2.1548Y-4.6535
X2.1825Y-1.6522
X2.1825Y-1.4173
X2.3489Y-3.9291
X2.543Y-3.2046
X2.6268Y-1.3106
X2.7037Y-1.2935
X2.7371Y-2.4802
X2.9277Y-4.6665
X2.9312Y-1.4785
X2.9312Y-1.7558
X3.1219Y-3.9421
X3.316Y-3.2177
X3.5101Y-2.4932
X3.7042Y-1.5005
X3.7042Y-1.7688
X3.8867Y-3.9853
X4.0809Y-3.2608
X4.0866Y-5.1712
X4.275Y-2.5364
X4.4691Y-1.8119
X4.4691Y-1.5394
X4.5707Y-4.3303
X4.7649Y-3.6059
X4.9067Y-5.594
X4.959Y-2.8814
X5.1531Y-1.9055
X5.1531Y-2.157
X5.2628Y-4.6452
X5.4068Y-4.5663
X5.4216Y-4.5111
X5.4569Y-3.9206
X5.5846Y-6.214
X5.6511Y-3.1963
X5.7951Y-3.1174
X5.8028Y-2.9924
X5.8088Y-3.066
X5.8452Y-2.4718
X5.8452Y-2.1882
X5.8886Y-6.1731
X5.9055Y-6.1116
X5.9286Y-3.0262
X6.4173Y-1.5591
X6.4409Y-1.5827
X6.4409Y-1.7677
X6.4409Y-1.815
X6.4724Y-4.8543
X6.5394Y-2.431
X6.5626Y-1.7193
X6.5866Y-1.6594
X6.6028Y-4.9843
X6.6102Y-1.6378
X6.6535Y-2.431
X6.7165Y-1.9034
X6.7323Y-2.0294
X6.752Y-1.9388
X6.8218Y-2.0835
X6.8465Y-1.3701
X6.8465Y-1.5728
X6.8484Y-4.514
X6.8543Y-1.3425
X6.8622Y-1.0039
X6.9108Y-4.5157
X6.9193Y-4.3604
X6.9232Y-1.3425
X6.9331Y-1.3701
X6.937Y-1.0039
X6.9567Y-4.1614
X6.9646Y-4.2362
X6.9655Y-1.6969
X6.9742Y-4.3603
X6.9744Y-4.3289
X6.9763Y-1.5403
X7.0374Y-4.3289
X7.0591Y-3.5512
X7.0591Y-3.6024
X7.0689Y-1.3896
X7.0827Y-3.6535
X7.0827Y-3.502
X7.2362Y-4.2996
X7.3189Y-1.6416
X7.811Y-6.0197
X7.811Y-6.2835
X7.8346Y-6.0394
X7.8346Y-6.1372
X7.8503Y-3.0986
X7.9498Y-3.0986
X7.9648Y-3.0658
X7.9791Y-3.119
X8.0472Y-3.7913
X8.1292Y-3.7921
X8.248Y-4.5473
X8.3386Y-4.5473
X8.3531Y-4.5147
X8.3673Y-4.5679
X8.5081Y-2.3181
X8.6149Y-5.7941
X8.6378Y-1.874
X8.7022Y-3.0426
X8.8963Y-3.767
X9.0904Y-4.4915
X9.2001Y-2.0033
X9.3346Y-1.5394
X9.3871Y-5.2971
X9.3943Y-2.7277
X9.5884Y-3.4522
X9.7825Y-4.1766
X9.8841Y-1.6582
X10.0783Y-2.3827
X10.0866Y-1.5118
X10.2666Y-5.0175
X10.2724Y-3.1071
X10.4665Y-3.8316
X10.649Y-1.615
X10.8431Y-2.3395
X10.8819Y-1.4921
X11.0373Y-3.0639
X11.075Y-1.2974
X11.148Y-1.3136
X11.2314Y-3.7884
X11.422Y-1.602
X11.4255Y-4.5128
X11.6142Y-1.4173
X11.6161Y-2.3265
X11.8102Y-3.0509
X12.0043Y-3.7754
X12.1707Y-1.4985
X12.1985Y-4.4998
X12.3648Y-2.2229
X12.5589Y-2.9474
X12.7531Y-3.6718
X12.9472Y-4.3963
T2
X0.8492Y-4.7858
X0.8557Y-4.7615
X0.8735Y-4.7923
X0.88Y-4.768
X0.9932Y-4.0498
X1.0006Y-4.0222
X1.2317Y-4.947
X1.2374Y-3.3369
X1.2391Y-4.9194
X1.2439Y-3.3126
X1.2617Y-3.3435
X1.2682Y-3.3191
X1.3522Y-4.2012
X1.3588Y-4.1769
X1.3766Y-4.2078
X1.3814Y-2.6009
X1.3831Y-4.1834
X1.3888Y-2.5733
X1.5979Y-4.8894
X1.6044Y-4.865
X1.6199Y-3.4981
X1.6222Y-4.8959
X1.6256Y-1.888
X1.6273Y-3.4706
X1.6287Y-4.8716
X1.6321Y-1.8637
X1.6499Y-1.8946
X1.6565Y-1.8702
X1.7405Y-2.7523
X1.7419Y-4.1534
X1.747Y-2.728
X1.7493Y-4.1258
X1.7648Y-2.7589
X1.7713Y-2.7345
X1.9804Y-5.0506
X1.9861Y-3.4405
X1.9878Y-5.023
X1.9926Y-3.4162
X2.0081Y-2.0492
X2.0104Y-3.447
X2.0155Y-2.0217
X2.0169Y-3.4227
X2.101Y-4.3048
X2.1075Y-4.2805
X2.1253Y-4.3113
X2.1301Y-2.7045
X2.1318Y-4.287
X2.1375Y-2.6769
X2.3686Y-3.6017
X2.3708Y-4.9024
X2.3743Y-1.9916
X2.376Y-3.5741
X2.3774Y-4.878
X2.3808Y-1.9673
X2.3952Y-4.9089
X2.3987Y-1.9981
X2.4017Y-4.8846
X2.4052Y-1.9738
X2.4599Y-1.1581
X2.4868Y-1.1521
X2.4892Y-2.8559
X2.4957Y-2.8316
X2.5135Y-2.8624
X2.5138Y-1.1461
X2.5149Y-4.1664
X2.52Y-2.8381
X2.5222Y-4.1388
X2.5445Y-1.1393
X2.5505Y-1.1662
X2.5564Y-1.1931
X2.5624Y-1.22
X2.5684Y-1.2469
X2.6708Y-1.2726
X2.729Y-1.0984
X2.735Y-1.1253
X2.7409Y-1.1522
X2.7469Y-1.1791
X2.7529Y-1.206
X2.7534Y-5.0636
X2.7569Y-2.1528
X2.7591Y-3.4535
X2.7597Y-1.0916
X2.7608Y-5.036
X2.7642Y-2.1252
X2.7656Y-3.4292
X2.7834Y-3.46
X2.7867Y-1.0856
X2.7899Y-3.4357
X2.8136Y-1.0797
X2.8739Y-4.3178
X2.8804Y-4.2935
X2.8983Y-4.3243
X2.9031Y-2.7175
X2.9048Y-4.3
X2.9105Y-2.6899
X2.9207Y-1.072
X2.9357Y-1.1393
X2.9477Y-1.0661
X2.9626Y-1.1333
X2.9746Y-1.0601
X2.9895Y-1.1274
X3.1416Y-3.6147
X3.1473Y-2.0046
X3.149Y-3.5871
X3.1538Y-1.9803
X3.1716Y-2.0111
X3.1782Y-1.9868
X3.2622Y-2.8689
X3.2687Y-2.8446
X3.2797Y-4.2095
X3.2865Y-2.8754
X3.2871Y-4.182
X3.293Y-2.8511
X3.4567Y-1.0
X3.4567Y-1.0354
X3.5239Y-3.4967
X3.5276Y-1.2205
X3.5297Y-5.407
X3.5298Y-2.1658
X3.5305Y-3.4723
X3.5362Y-5.3827
X3.5372Y-2.1382
X3.5483Y-3.5032
X3.5541Y-5.4135
X3.5548Y-3.4789
X3.5551Y-1.2205
X3.5606Y-5.3892
X3.5827Y-1.2205
X3.6102Y-1.2205
X3.6181Y-1.0748
X3.6181Y-1.1102
X3.6388Y-4.361
X3.6453Y-4.3366
X3.6631Y-4.3675
X3.668Y-2.7607
X3.6697Y-4.3432
X3.6754Y-2.7331
X3.9065Y-3.6579
X3.9122Y-2.0478
X3.9122Y-5.5682
X3.9139Y-3.6303
X3.9187Y-2.0235
X3.9196Y-5.5406
X3.9365Y-2.0543
X3.943Y-2.03
X3.9638Y-4.5546
X3.9711Y-4.527
X4.027Y-2.9121
X4.0336Y-2.8878
X4.0514Y-2.9186
X4.0579Y-2.8943
X4.208Y-3.8417
X4.2145Y-3.8174
X4.2323Y-3.8482
X4.2388Y-3.8239
X4.2947Y-2.209
X4.3021Y-2.1814
X4.3072Y-5.678
X4.3198Y-5.6561
X4.3228Y-4.706
X4.329Y-5.6906
X4.3293Y-4.6817
X4.3416Y-5.6687
X4.3472Y-4.7125
X4.352Y-3.1057
X4.3537Y-4.6882
X4.3594Y-3.0781
X4.5905Y-4.0029
X4.5962Y-2.3928
X4.5979Y-3.9753
X4.6027Y-2.3685
X4.6205Y-2.3994
X4.627Y-2.375
X4.635Y-5.9327
X4.6492Y-5.908
X4.6558Y-4.8694
X4.6632Y-4.8419
X4.711Y-3.2571
X4.7176Y-3.2328
X4.7354Y-3.2637
X4.7419Y-3.2393
X4.9Y-4.1566
X4.9066Y-4.1322
X4.9244Y-4.1631
X4.9309Y-4.1388
X4.9787Y-2.554
X4.9843Y-6.1399
X4.9861Y-2.5265
X5.0021Y-6.1221
X5.0021Y-6.1577
X5.0149Y-5.0209
X5.0199Y-6.1399
X5.0214Y-4.9965
X5.0392Y-5.0274
X5.0441Y-3.4205
X5.0458Y-5.0031
X5.0515Y-3.393
X5.2176Y-4.9479
X5.235Y-6.4708
X5.2481Y-4.9561
X5.2551Y-6.4506
X5.2826Y-4.3178
X5.2883Y-2.7077
X5.29Y-4.2902
X5.2948Y-2.6834
X5.3126Y-2.7142
X5.3191Y-2.6899
X5.369Y-4.3833
X5.3994Y-4.3915
X5.4031Y-3.572
X5.4097Y-3.5476
X5.4275Y-3.5785
X5.434Y-3.5542
X5.6058Y-3.499
X5.6363Y-3.5072
X5.6708Y-2.8689
X5.6782Y-2.8413
X5.7572Y-2.9344
X5.7876Y-2.9426
X5.8305Y-6.7373
X5.837Y-6.713
X5.8548Y-6.7439
X5.8614Y-6.7195
X5.9724Y-0.9724
X5.9724Y-1.0039
X5.9724Y-1.0354
X6.0039Y-0.9724
X6.0039Y-1.0039
X6.0039Y-1.0354
X6.0543Y-5.1012
X6.0543Y-5.076
X6.0795Y-5.1012
X6.0795Y-5.076
X6.0906Y-4.5945
X6.0906Y-4.626
X6.1077Y-4.69
X6.122Y-4.5945
X6.122Y-4.626
X6.1362Y-4.69
X6.213Y-6.8985
X6.2204Y-6.871
X6.2234Y-5.44
X6.2376Y-5.4153
X6.2756Y-1.2756
X6.2756Y-1.3071
X6.2756Y-1.3386
X6.3071Y-1.2756
X6.3071Y-1.3071
X6.3071Y-1.3386
X6.3453Y-4.22
X6.3577Y-4.2415
X6.3661Y-0.8976
X6.3661Y-0.9331
X6.3699Y-4.2058
X6.374Y-0.7874
X6.3823Y-4.2273
X6.4016Y-0.7874
X6.4291Y-0.7874
X6.4567Y-0.7874
X6.4567Y-1.4016
X6.4567Y-6.9291
X6.4567Y-6.9685
X6.4803Y-1.252
X6.4843Y-1.4016
X6.4961Y-6.9291
X6.4961Y-6.9685
X6.5Y-1.9488
X6.5Y-1.9803
X6.5079Y-1.252
X6.5118Y-1.4016
X6.5276Y-1.0079
X6.5276Y-0.9724
X6.5315Y-1.6024
X6.5354Y-1.252
X6.5394Y-1.4016
X6.5591Y-1.6024
X6.606Y-5.7221
X6.6186Y-5.7003
X6.6279Y-5.7347
X6.6348Y-1.8286
X6.6363Y-1.5047
X6.6405Y-5.7129
X6.6588Y-4.1377
X6.6638Y-1.5047
X6.6815Y-4.125
X6.69Y-1.6575
X6.6939Y-1.5236
X6.6945Y-1.565
X6.7087Y-0.815
X6.7098Y-6.9008
X6.7098Y-6.8756
X6.735Y-6.9008
X6.735Y-6.8756
X6.7362Y-0.815
X6.7638Y-0.815
X6.7835Y-2.9861
X6.7953Y-0.9252
X6.7953Y-0.815
X6.7953Y-0.8425
X6.7953Y-0.8701
X6.7953Y-0.8976
X6.8012Y-1.4398
X6.8071Y-1.0197
X6.815Y-2.8404
X6.8157Y-4.2313
X6.8157Y-4.3297
X6.8189Y-1.1299
X6.8189Y-1.1614
X6.8189Y-1.1929
X6.8287Y-1.4398
X6.8465Y-2.1391
X6.8504Y-1.1299
X6.8504Y-1.1614
X6.8504Y-1.1929
X6.8819Y-4.0472
X6.8858Y-2.1278
X6.8898Y-0.9764
X6.9291Y-1.1299
X6.9291Y-1.1614
X6.9291Y-1.1929
X6.937Y-2.0648
X6.937Y-2.2735
X6.937Y-2.1908
X6.937Y-2.0371
X6.937Y-2.0924
X6.937Y-2.2184
X6.937Y-2.2459
X6.9598Y-1.419
X6.9606Y-1.1299
X6.9606Y-1.1614
X6.9606Y-1.1929
X6.9646Y-2.2735
X6.9646Y-2.8404
X6.9724Y-1.0197
X6.984Y-1.3857
X6.9843Y-0.8425
X6.9843Y-0.8976
X6.9843Y-0.815
X6.9843Y-0.8701
X6.9843Y-0.9252
X6.9883Y-1.9903
X6.9921Y-2.2735
X7.0Y-1.4192
X7.0039Y-4.0472
X7.0157Y-0.815
X7.0403Y-1.4192
X7.0433Y-0.815
X7.0662Y-5.6895
X7.0709Y-0.815
X7.0805Y-5.7142
X7.0827Y-2.0371
X7.0984Y-1.6406
X7.1024Y-0.9567
X7.1024Y-1.0256
X7.1102Y-2.0373
X7.1102Y-2.2735
X7.1211Y-6.9575
X7.1211Y-6.9289
X7.1299Y-0.9567
X7.1299Y-1.0256
X7.1378Y-2.0373
X7.1378Y-2.2735
X7.1391Y-4.1296
X7.1517Y-4.1078
X7.1575Y-0.9567
X7.1575Y-1.0256
X7.1609Y-4.1422
X7.1653Y-2.0373
X7.1653Y-2.2735
X7.1653Y-2.2459
X7.1653Y-2.0924
X7.1653Y-2.2184
X7.1653Y-2.0648
X7.1653Y-2.1908
X7.1732Y-4.5157
X7.1732Y-4.5443
X7.1735Y-4.1204
X7.1772Y-2.315
X7.1969Y-4.7795
X7.2008Y-4.5157
X7.2008Y-4.5443
X7.2244Y-4.7913
X7.2657Y-4.0846
X7.2825Y-1.8286
X7.2972Y-4.014
X7.3307Y-1.5552
X7.3307Y-1.5827
X7.3583Y-1.5827
X7.3858Y-1.5827
X7.3957Y-4.3565
X7.3973Y-5.6152
X7.3976Y-4.0591
X7.4097Y-5.6367
X7.4134Y-1.5827
X7.4218Y-5.601
X7.4342Y-5.6225
X7.5419Y-4.4272
X7.5562Y-4.4025
X7.5959Y-6.8059
X7.6024Y-6.8302
X7.6202Y-6.7993
X7.6268Y-6.8237
X7.6433Y-5.1526
X7.6718Y-5.1526
X7.7Y-4.7665
X7.7Y-4.7413
X7.7252Y-4.7665
X7.7252Y-4.7413
X7.7756Y-1.1299
X7.7756Y-1.1614
X7.7756Y-1.1929
X7.8071Y-1.1299
X7.8071Y-1.1614
X7.8071Y-1.1929
X7.9528Y-2.1772
X7.9919Y-2.9426
X8.0069Y-6.751
X8.0143Y-6.7785
X8.0225Y-2.9344
X8.1372Y-2.7765
X8.1432Y-3.5072
X8.1437Y-2.8008
X8.1615Y-2.77
X8.168Y-2.7943
X8.1736Y-3.4991
X8.2812Y-3.5127
X8.2886Y-3.5403
X8.3802Y-4.3915
X8.4107Y-4.3833
X8.5228Y-6.3765
X8.5254Y-4.2254
X8.5315Y-4.9561
X8.5319Y-4.2497
X8.5406Y-6.3943
X8.5406Y-6.3587
X8.5482Y-2.7216
X8.5497Y-4.2189
X8.5556Y-2.7492
X8.5562Y-4.2432
X8.5584Y-6.3765
X8.5619Y-4.9479
X8.6688Y-3.4676
X8.6695Y-4.9616
X8.6753Y-3.4919
X8.6769Y-4.9892
X8.6931Y-3.461
X8.6996Y-3.4854
X8.8292Y-2.4616
X8.8358Y-2.486
X8.8513Y-6.1234
X8.8536Y-2.4551
X8.8601Y-2.4794
X8.8715Y-6.1436
X8.9364Y-4.1705
X8.9438Y-4.198
X8.9733Y-3.1979
X8.9807Y-3.2254
X9.057Y-4.9164
X9.0635Y-4.9408
X9.0813Y-4.9099
X9.0879Y-4.9343
X9.1475Y-5.8358
X9.1601Y-5.8576
X9.1693Y-5.8232
X9.1819Y-5.845
X9.2175Y-3.9105
X9.224Y-3.9349
X9.2403Y-2.4067
X9.2418Y-3.904
X9.2477Y-2.4343
X9.2483Y-3.9283
X9.3609Y-3.1527
X9.3616Y-4.6467
X9.3674Y-3.177
X9.3689Y-4.6743
X9.3852Y-3.1462
X9.3917Y-3.1705
X9.5133Y-2.1166
X9.5198Y-2.1409
X9.5303Y-5.6764
X9.5376Y-2.1101
X9.5441Y-2.1344
X9.5446Y-5.7011
X9.6285Y-3.8556
X9.6359Y-3.8832
X9.6573Y-2.8528
X9.6647Y-2.8804
X9.7491Y-4.6016
X9.7556Y-4.6259
X9.7734Y-4.5951
X9.78Y-4.6194
X9.8957Y-5.4758
X9.9015Y-3.5655
X9.9022Y-5.5002
X9.908Y-3.5898
X9.9201Y-5.4693
X9.9243Y-2.0617
X9.9258Y-3.559
X9.9266Y-5.4936
X9.9317Y-2.0893
X9.9323Y-3.5833
X10.0449Y-2.8077
X10.0456Y-4.3017
X10.0514Y-2.832
X10.0529Y-4.3293
X10.0692Y-2.8011
X10.0757Y-2.8255
X10.1496Y-1.0551
X10.1496Y-1.0906
X10.1575Y-0.9449
X10.1614Y-1.2283
X10.185Y-0.9449
X10.2126Y-0.9449
X10.2402Y-0.9449
X10.2781Y-2.0734
X10.2847Y-2.0977
X10.3025Y-2.0669
X10.3066Y-5.4205
X10.309Y-2.0912
X10.311Y-1.1299
X10.311Y-1.1654
X10.3125Y-3.5106
X10.314Y-5.4481
X10.3199Y-3.5381
X10.4222Y-2.8096
X10.4296Y-2.8372
X10.4331Y-4.2566
X10.4396Y-4.2809
X10.4574Y-4.25
X10.464Y-4.2744
X10.6664Y-3.5223
X10.6729Y-3.5466
X10.6892Y-2.0185
X10.6907Y-3.5158
X10.6965Y-2.0461
X10.6972Y-3.5401
X10.7901Y-1.1274
X10.805Y-1.0601
X10.8098Y-2.7645
X10.8104Y-4.2585
X10.8163Y-2.7888
X10.817Y-1.1333
X10.8178Y-4.2861
X10.8319Y-1.0661
X10.8341Y-2.758
X10.8406Y-2.7823
X10.8439Y-1.1393
X10.8588Y-1.072
X10.966Y-1.0797
X10.9929Y-1.0856
X11.0198Y-1.0916
X11.0267Y-1.206
X11.0326Y-1.1791
X11.0386Y-1.1522
X11.0446Y-1.1253
X11.0505Y-1.0984
X11.0511Y-2.0604
X11.0546Y-4.9712
X11.0576Y-2.0847
X11.0611Y-4.9955
X11.0754Y-2.0539
X11.0774Y-3.4674
X11.0789Y-4.9647
X11.082Y-2.0782
X11.0848Y-3.495
X11.0855Y-4.989
X11.1078Y-1.2764
X11.1952Y-2.7966
X11.198Y-4.2134
X11.2026Y-2.8242
X11.2045Y-4.2377
X11.2111Y-1.2469
X11.2171Y-1.22
X11.2223Y-4.2068
X11.2231Y-1.1931
X11.2288Y-4.2312
X11.2291Y-1.1662
X11.235Y-1.1393
X11.2658Y-1.1461
X11.2927Y-1.1521
X11.3196Y-1.1581
X11.4393Y-3.5093
X11.4459Y-3.5336
X11.4621Y-2.0055
X11.4637Y-3.5028
X11.4656Y-4.9163
X11.4695Y-2.0331
X11.4702Y-3.5271
X11.473Y-4.9438
X11.5827Y-2.7515
X11.5834Y-4.2455
X11.5893Y-2.7758
X11.5908Y-4.2731
X11.6071Y-2.745
X11.6136Y-2.7693
X11.7998Y-1.9568
X11.8063Y-1.9812
X11.8242Y-1.9503
X11.8276Y-4.9582
X11.8307Y-1.9747
X11.8341Y-4.9825
X11.8504Y-3.4544
X11.8519Y-4.9517
X11.8577Y-3.482
X11.8584Y-4.976
X11.9439Y-2.6931
X11.9513Y-2.7206
X11.971Y-4.2004
X11.9775Y-4.2247
X11.9953Y-4.1938
X12.0018Y-4.2182
X12.188Y-3.4057
X12.1946Y-3.4301
X12.2108Y-1.9019
X12.2124Y-3.3992
X12.2182Y-1.9295
X12.2189Y-3.4235
X12.2386Y-4.9033
X12.246Y-4.9308
X12.3314Y-2.6479
X12.3321Y-4.142
X12.338Y-2.6723
X12.3395Y-4.1695
X12.3558Y-2.6414
X12.3623Y-2.6657
X12.5763Y-4.8546
X12.5828Y-4.879
X12.5991Y-3.3508
X12.6006Y-4.8481
X12.6064Y-3.3784
X12.6071Y-4.8724
X12.7197Y-4.0968
X12.7262Y-4.1211
X12.744Y-4.0903
X12.7505Y-4.1146
X12.9873Y-4.7997
X12.9947Y-4.8273
T3
X6.8858Y-1.7381
X6.8858Y-1.7892
X6.8858Y-1.8404
X6.937Y-1.7381
X6.937Y-1.7892
X6.937Y-1.8404
X6.9882Y-1.7381
X6.9882Y-1.7892
X6.9882Y-1.8404
T5
X6.6791Y-4.7335
X6.6791Y-4.8035
X6.6791Y-4.8736
X6.6791Y-4.9437
X6.6791Y-5.0138
X6.6791Y-5.0839
X6.6791Y-5.1539
X6.6791Y-5.224
X7.1004Y-4.6984
X7.1004Y-4.7685
X7.1004Y-4.8386
X7.1004Y-4.9087
X7.1004Y-4.9787
X7.1004Y-5.0488
X7.1004Y-5.1189
X7.1004Y-5.189
T6
X5.8543Y-1.1829
X5.8543Y-1.2617
X5.8543Y-1.3404
X5.8543Y-1.4192
X5.8543Y-1.4979
X5.8543Y-1.5766
X5.8543Y-1.6554
T7
X6.1024Y-1.1193
X6.1024Y-1.2193
X6.1024Y-1.3193
X6.1024Y-1.4193
X6.1024Y-1.5193
X6.1024Y-1.6193
X6.1024Y-1.7193
X6.7362Y-2.3798
X6.8362Y-2.3798
X6.9362Y-2.3798
X7.0362Y-2.3798
X11.4283Y-1.3268
X11.5283Y-1.3268
X11.6283Y-1.3268
X11.7283Y-1.3268
T8
X6.7913Y-3.7165
X6.8898Y-3.7165
X6.9882Y-3.7165
T10
X6.1122Y-0.7894
X6.1122Y-2.0492
X6.2953Y-3.8916
X6.2953Y-5.9509
X7.4843Y-3.8916
X7.4843Y-5.9509
X7.6673Y-0.7894
X7.6673Y-2.0492
T11
X6.3189Y-4.9213
X7.3031Y-0.8207
X7.4606Y-4.9213
T4
G00X2.3636Y-0.9092
M15
G01X2.3739Y-0.9553
M16
G05
G00X2.3994Y-1.0707
M15
G01X2.4062Y-1.1014
M16
G05
G00X2.7957Y-0.8134
M15
G01X2.8059Y-0.8596
M16
G05
G00X2.8315Y-0.9749
M15
G01X2.8383Y-1.0056
M16
G05
G00X6.6685Y-0.5512
M15
G01X6.6685Y-0.5984
M16
G05
G00X6.6685Y-0.7165
M15
G01X6.6685Y-0.748
M16
G05
G00X7.111Y-0.5512
M15
G01X7.111Y-0.5984
M16
G05
G00X7.111Y-0.7165
M15
G01X7.111Y-0.748
M16
G05
G00X10.9481Y-0.9749
M15
G01X10.9412Y-1.0056
M16
G05
G00X10.9839Y-0.8134
M15
G01X10.9736Y-0.8596
M16
G05
G00X11.3801Y-1.0707
M15
G01X11.3733Y-1.1014
M16
G05
G00X11.4159Y-0.9092
M15
G01X11.4057Y-0.9553
M16
G05
T9
G00X5.7047Y-4.8524
M15
G01X5.7047Y-4.9902
M16
G05
G00X8.0748Y-4.8524
M15
G01X8.0748Y-4.9902
M16
G05
T0
M30
