%TF.GenerationSoftware,KiCad,Pcbnew,(7.0.0)*%
%TF.CreationDate,2023-05-15T20:55:05+01:00*%
%TF.ProjectId,Honeydew,486f6e65-7964-4657-972e-6b696361645f,V2.0*%
%TF.SameCoordinates,Original*%
%TF.FileFunction,Profile,NP*%
%FSLAX46Y46*%
G04 Gerber Fmt 4.6, Leading zero omitted, Abs format (unit mm)*
G04 Created by KiCad (PCBNEW (7.0.0)) date 2023-05-15 20:55:05*
%MOMM*%
%LPD*%
G01*
G04 APERTURE LIST*
%TA.AperFunction,Profile*%
%ADD10C,0.100000*%
%TD*%
G04 APERTURE END LIST*
D10*
X206938031Y-203275008D02*
G75*
G03*
X202937969Y-203275005I-2000031J8D01*
G01*
X56199977Y-53557178D02*
G75*
G03*
X54267673Y-55041255I23J-2000022D01*
G01*
X160513224Y-204598097D02*
X179061974Y-204598095D01*
X207249965Y-93449971D02*
G75*
G03*
X207749971Y-92950012I-65J500071D01*
G01*
X213999975Y-51557211D02*
G75*
G03*
X215999970Y-53557225I2000125J111D01*
G01*
X207249965Y-93450009D02*
X178749975Y-93450010D01*
X355534261Y-143882158D02*
X331732270Y-55041268D01*
X183061977Y-203275003D02*
X183061974Y-204598092D01*
X178249974Y-86800010D02*
X178249968Y-92950008D01*
X178249990Y-92949998D02*
G75*
G03*
X178749975Y-93450010I500110J98D01*
G01*
X329799974Y-53557220D02*
X215999970Y-53557225D01*
X197599970Y-52000009D02*
X197599970Y-45557216D01*
X169999975Y-53557222D02*
X56199977Y-53557218D01*
X30465623Y-143882132D02*
G75*
G03*
X31879893Y-146331640I1931977J-517568D01*
G01*
X207749996Y-86800007D02*
G75*
G03*
X207249981Y-86300004I-500096J-93D01*
G01*
X188399970Y-45557216D02*
X173999977Y-45557216D01*
X225486723Y-204598073D02*
G75*
G03*
X226913652Y-203847831I277J1731573D01*
G01*
X331732264Y-55041269D02*
G75*
G03*
X329799974Y-53557220I-1932364J-516031D01*
G01*
X159086255Y-203847859D02*
G75*
G03*
X160513224Y-204598097I1427345J982659D01*
G01*
X54267672Y-55041255D02*
X30465683Y-143882148D01*
X213999968Y-51557222D02*
X213999980Y-47557213D01*
X354120052Y-146331654D02*
X282384385Y-165535130D01*
X213999971Y-47557216D02*
G75*
G03*
X211999967Y-45557229I-2000071J-84D01*
G01*
X206937970Y-203275008D02*
X206937968Y-204598101D01*
X202937969Y-203275005D02*
X202937968Y-204598101D01*
X197599970Y-45557229D02*
X211999967Y-45557229D01*
X282384386Y-165535134D02*
G75*
G03*
X226913653Y-203847831I28965134J-101249716D01*
G01*
X171999970Y-47557220D02*
X171999972Y-51557215D01*
X179061977Y-203275001D02*
X179061974Y-204598095D01*
X178749973Y-86300074D02*
G75*
G03*
X178249974Y-86800010I-73J-499926D01*
G01*
X103615560Y-165535129D02*
X31879893Y-146331640D01*
X173999977Y-45557270D02*
G75*
G03*
X171999970Y-47557220I-177J-1999830D01*
G01*
X188399970Y-52000009D02*
X188399970Y-45557216D01*
X354120071Y-146331726D02*
G75*
G03*
X355534260Y-143882158I-517771J1931926D01*
G01*
X183062023Y-203275003D02*
G75*
G03*
X179061977Y-203275001I-2000023J-97D01*
G01*
X207249981Y-86300004D02*
X178749973Y-86300007D01*
X207749972Y-92950011D02*
X207749978Y-86800007D01*
X169999973Y-53557172D02*
G75*
G03*
X171999972Y-51557215I-173J2000172D01*
G01*
X206937968Y-204598101D02*
X225486723Y-204598101D01*
X183061974Y-204598092D02*
X202937972Y-204598095D01*
X159086297Y-203847830D02*
G75*
G03*
X103615560Y-165535130I-84436127J-62937390D01*
G01*
%TO.C,J2*%
X197099970Y-52000009D02*
G75*
G03*
X197599970Y-52000009I250000J0D01*
G01*
X188399970Y-52000009D02*
G75*
G03*
X188899970Y-52000009I250000J0D01*
G01*
X188899970Y-52000009D02*
X197099970Y-52000009D01*
%TO.C,D97*%
X167819803Y-175940577D02*
G75*
G03*
X168685829Y-176440577I433013J-250000D01*
G01*
X170185828Y-173842500D02*
G75*
G03*
X169319804Y-173342501I-433012J249999D01*
G01*
X169251503Y-173360801D02*
G75*
G03*
X169319803Y-173342501I25000J43300D01*
G01*
X167819803Y-175940577D02*
G75*
G03*
X167801503Y-175872277I-43300J25000D01*
G01*
X168107369Y-172642502D02*
G75*
G03*
X168125669Y-172710801I43302J-24999D01*
G01*
X166675669Y-175222275D02*
G75*
G03*
X166607368Y-175240577I-24999J-43303D01*
G01*
X165741344Y-174740578D02*
G75*
G03*
X166607368Y-175240577I433012J-249999D01*
G01*
X168107369Y-172642501D02*
G75*
G03*
X167241343Y-172142501I-433013J250000D01*
G01*
X170185829Y-173842501D02*
X168685829Y-176440577D01*
X166675669Y-175222276D02*
X167801503Y-175872276D01*
X168125669Y-172710802D02*
X169251503Y-173360802D01*
X165741343Y-174740577D02*
X167241343Y-172142501D01*
%TO.C,D112*%
X246653824Y-145058851D02*
G75*
G03*
X245687900Y-145317670I-482962J-129409D01*
G01*
X246464358Y-148215447D02*
G75*
G03*
X247430282Y-147956628I482962J129409D01*
G01*
X247465638Y-147895391D02*
G75*
G03*
X247430283Y-147956628I12941J-48296D01*
G01*
X246653827Y-145058851D02*
G75*
G03*
X246715063Y-145094205I48295J12941D01*
G01*
X248782579Y-147594281D02*
G75*
G03*
X248721341Y-147558927I-48297J-12943D01*
G01*
X247970766Y-144757741D02*
G75*
G03*
X248006122Y-144696504I-12942J48297D01*
G01*
X248972046Y-144437685D02*
G75*
G03*
X248006122Y-144696504I-482962J-129409D01*
G01*
X248782580Y-147594281D02*
G75*
G03*
X249748504Y-147335462I482962J129409D01*
G01*
X246464357Y-148215447D02*
X245687900Y-145317670D01*
X247970766Y-144757741D02*
X246715063Y-145094206D01*
X248721341Y-147558926D02*
X247465638Y-147895391D01*
X248972047Y-144437685D02*
X249748504Y-147335462D01*
%TO.C,D138*%
X186988006Y-116656626D02*
G75*
G03*
X187911884Y-116273943I461939J191341D01*
G01*
X186763833Y-113502306D02*
G75*
G03*
X185839955Y-113884988I-461939J-191341D01*
G01*
X185812895Y-113950315D02*
G75*
G03*
X185839954Y-113884988I-19134J46193D01*
G01*
X186988004Y-116656627D02*
G75*
G03*
X186922677Y-116629568I-46193J-19134D01*
G01*
X184546524Y-114420745D02*
G75*
G03*
X184611851Y-114447805I46194J19135D01*
G01*
X185721633Y-117127056D02*
G75*
G03*
X185694574Y-117192384I19136J-46194D01*
G01*
X184770695Y-117575066D02*
G75*
G03*
X185694573Y-117192384I461939J191341D01*
G01*
X184546522Y-114420746D02*
G75*
G03*
X183622644Y-114803429I-461939J-191341D01*
G01*
X186763834Y-113502305D02*
X187911884Y-116273943D01*
X185721633Y-117127056D02*
X186922677Y-116629567D01*
X184611851Y-114447805D02*
X185812895Y-113950316D01*
X184770694Y-117575067D02*
X183622644Y-114803429D01*
%TO.C,D93*%
X79258278Y-148499171D02*
G75*
G03*
X80224202Y-148757990I482962J-129410D01*
G01*
X81000660Y-145860213D02*
G75*
G03*
X80034736Y-145601394I-482962J129410D01*
G01*
X79973497Y-145636749D02*
G75*
G03*
X80034734Y-145601394I12941J48296D01*
G01*
X79258276Y-148499171D02*
G75*
G03*
X79222922Y-148437935I-48295J12941D01*
G01*
X78682439Y-145239047D02*
G75*
G03*
X78717794Y-145300283I48297J-12940D01*
G01*
X77967219Y-148101470D02*
G75*
G03*
X77905981Y-148136824I-12941J-48297D01*
G01*
X76940056Y-147878005D02*
G75*
G03*
X77905980Y-148136824I482962J-129410D01*
G01*
X78682438Y-145239047D02*
G75*
G03*
X77716514Y-144980228I-482962J129410D01*
G01*
X81000660Y-145860213D02*
X80224203Y-148757990D01*
X77967219Y-148101469D02*
X79222922Y-148437934D01*
X78717794Y-145300284D02*
X79973497Y-145636749D01*
X76940056Y-147878005D02*
X77716513Y-144980228D01*
%TO.C,D129*%
X308005498Y-74203023D02*
G75*
G03*
X308971422Y-73944204I482962J129409D01*
G01*
X308194964Y-71046427D02*
G75*
G03*
X307229040Y-71305246I-482962J-129409D01*
G01*
X307193684Y-71366483D02*
G75*
G03*
X307229039Y-71305246I-12941J48296D01*
G01*
X308005495Y-74203023D02*
G75*
G03*
X307944259Y-74167669I-48295J-12941D01*
G01*
X305876743Y-71667593D02*
G75*
G03*
X305937981Y-71702947I48297J12943D01*
G01*
X306688556Y-74504133D02*
G75*
G03*
X306653200Y-74565370I12942J-48297D01*
G01*
X305687276Y-74824189D02*
G75*
G03*
X306653200Y-74565370I482962J129409D01*
G01*
X305876742Y-71667593D02*
G75*
G03*
X304910818Y-71926412I-482962J-129409D01*
G01*
X308194965Y-71046427D02*
X308971422Y-73944204D01*
X306688556Y-74504133D02*
X307944259Y-74167668D01*
X305937981Y-71702948D02*
X307193684Y-71366483D01*
X305687275Y-74824189D02*
X304910818Y-71926412D01*
%TO.C,D131*%
X200305386Y-117192384D02*
G75*
G03*
X201229266Y-117575067I461940J-191341D01*
G01*
X202377317Y-114803429D02*
G75*
G03*
X201453437Y-114420745I-461940J191342D01*
G01*
X201388109Y-114447804D02*
G75*
G03*
X201453436Y-114420745I19134J46193D01*
G01*
X200305386Y-117192384D02*
G75*
G03*
X200278327Y-117127057I-46193J19134D01*
G01*
X200160007Y-113884989D02*
G75*
G03*
X200187065Y-113950315I46194J-19133D01*
G01*
X199077283Y-116629567D02*
G75*
G03*
X199011955Y-116656627I-19133J-46195D01*
G01*
X198088075Y-116273943D02*
G75*
G03*
X199011955Y-116656627I461940J-191342D01*
G01*
X200160006Y-113884988D02*
G75*
G03*
X199236126Y-113502305I-461940J191341D01*
G01*
X202377316Y-114803429D02*
X201229266Y-117575067D01*
X199077283Y-116629567D02*
X200278327Y-117127056D01*
X200187065Y-113950316D02*
X201388109Y-114447805D01*
X198088076Y-116273943D02*
X199236126Y-113502305D01*
%TO.C,D69*%
X98980293Y-74895653D02*
G75*
G03*
X99946217Y-75154472I482962J-129410D01*
G01*
X100722675Y-72256695D02*
G75*
G03*
X99756751Y-71997876I-482962J129410D01*
G01*
X99695512Y-72033231D02*
G75*
G03*
X99756749Y-71997876I12941J48296D01*
G01*
X98980291Y-74895653D02*
G75*
G03*
X98944937Y-74834417I-48295J12941D01*
G01*
X98404454Y-71635529D02*
G75*
G03*
X98439809Y-71696765I48297J-12940D01*
G01*
X97689234Y-74497952D02*
G75*
G03*
X97627996Y-74533306I-12941J-48297D01*
G01*
X96662071Y-74274487D02*
G75*
G03*
X97627995Y-74533306I482962J-129410D01*
G01*
X98404453Y-71635529D02*
G75*
G03*
X97438529Y-71376710I-482962J129410D01*
G01*
X100722675Y-72256695D02*
X99946218Y-75154472D01*
X97689234Y-74497951D02*
X98944937Y-74834416D01*
X98439809Y-71696766D02*
X99695512Y-72033231D01*
X96662071Y-74274487D02*
X97438528Y-71376710D01*
%TO.C,D111*%
X264232959Y-137061544D02*
G75*
G03*
X263267035Y-137320363I-482962J-129409D01*
G01*
X264043493Y-140218140D02*
G75*
G03*
X265009417Y-139959321I482962J129409D01*
G01*
X265044773Y-139898084D02*
G75*
G03*
X265009418Y-139959321I12941J-48296D01*
G01*
X264232962Y-137061544D02*
G75*
G03*
X264294198Y-137096898I48295J12941D01*
G01*
X266361714Y-139596974D02*
G75*
G03*
X266300476Y-139561620I-48297J-12943D01*
G01*
X265549901Y-136760434D02*
G75*
G03*
X265585257Y-136699197I-12942J48297D01*
G01*
X266551181Y-136440378D02*
G75*
G03*
X265585257Y-136699197I-482962J-129409D01*
G01*
X266361715Y-139596974D02*
G75*
G03*
X267327639Y-139338155I482962J129409D01*
G01*
X264043492Y-140218140D02*
X263267035Y-137320363D01*
X265549901Y-136760434D02*
X264294198Y-137096899D01*
X266300476Y-139561619D02*
X265044773Y-139898084D01*
X266551182Y-136440378D02*
X267327639Y-139338155D01*
%TO.C,D68*%
X79346784Y-74565356D02*
G75*
G03*
X80312708Y-74824175I482962J-129410D01*
G01*
X81089166Y-71926398D02*
G75*
G03*
X80123242Y-71667579I-482962J129410D01*
G01*
X80062003Y-71702934D02*
G75*
G03*
X80123240Y-71667579I12941J48296D01*
G01*
X79346782Y-74565356D02*
G75*
G03*
X79311428Y-74504120I-48295J12941D01*
G01*
X78770945Y-71305232D02*
G75*
G03*
X78806300Y-71366468I48297J-12940D01*
G01*
X78055725Y-74167655D02*
G75*
G03*
X77994487Y-74203009I-12941J-48297D01*
G01*
X77028562Y-73944190D02*
G75*
G03*
X77994486Y-74203009I482962J-129410D01*
G01*
X78770944Y-71305232D02*
G75*
G03*
X77805020Y-71046413I-482962J129410D01*
G01*
X81089166Y-71926398D02*
X80312709Y-74824175D01*
X78055725Y-74167654D02*
X79311428Y-74504119D01*
X78806300Y-71366469D02*
X80062003Y-71702934D01*
X77028562Y-73944190D02*
X77805019Y-71046413D01*
%TO.C,D84*%
X143500192Y-129555739D02*
G75*
G03*
X144466116Y-129814558I482962J-129410D01*
G01*
X145242574Y-126916781D02*
G75*
G03*
X144276650Y-126657962I-482962J129410D01*
G01*
X144215411Y-126693317D02*
G75*
G03*
X144276648Y-126657962I12941J48296D01*
G01*
X143500190Y-129555739D02*
G75*
G03*
X143464836Y-129494503I-48295J12941D01*
G01*
X142924353Y-126295615D02*
G75*
G03*
X142959708Y-126356851I48297J-12940D01*
G01*
X142209133Y-129158038D02*
G75*
G03*
X142147895Y-129193392I-12941J-48297D01*
G01*
X141181970Y-128934573D02*
G75*
G03*
X142147894Y-129193392I482962J-129410D01*
G01*
X142924352Y-126295615D02*
G75*
G03*
X141958428Y-126036796I-482962J129410D01*
G01*
X145242574Y-126916781D02*
X144466117Y-129814558D01*
X142209133Y-129158037D02*
X143464836Y-129494502D01*
X142959708Y-126356852D02*
X144215411Y-126693317D01*
X141181970Y-128934573D02*
X141958427Y-126036796D01*
%TO.C,D108*%
X320668256Y-126870246D02*
G75*
G03*
X319702332Y-127129065I-482962J-129409D01*
G01*
X320478790Y-130026842D02*
G75*
G03*
X321444714Y-129768023I482962J129409D01*
G01*
X321480070Y-129706786D02*
G75*
G03*
X321444715Y-129768023I12941J-48296D01*
G01*
X320668259Y-126870246D02*
G75*
G03*
X320729495Y-126905600I48295J12941D01*
G01*
X322797011Y-129405676D02*
G75*
G03*
X322735773Y-129370322I-48297J-12943D01*
G01*
X321985198Y-126569136D02*
G75*
G03*
X322020554Y-126507899I-12942J48297D01*
G01*
X322986478Y-126249080D02*
G75*
G03*
X322020554Y-126507899I-482962J-129409D01*
G01*
X322797012Y-129405676D02*
G75*
G03*
X323762936Y-129146857I482962J129409D01*
G01*
X320478789Y-130026842D02*
X319702332Y-127129065D01*
X321985198Y-126569136D02*
X320729495Y-126905601D01*
X322735773Y-129370321D02*
X321480070Y-129706786D01*
X322986479Y-126249080D02*
X323762936Y-129146857D01*
%TO.C,D94*%
X108693785Y-161316910D02*
G75*
G03*
X109659709Y-161575729I482962J-129410D01*
G01*
X110436167Y-158677952D02*
G75*
G03*
X109470243Y-158419133I-482962J129410D01*
G01*
X109409004Y-158454488D02*
G75*
G03*
X109470241Y-158419133I12941J48296D01*
G01*
X108693783Y-161316910D02*
G75*
G03*
X108658429Y-161255674I-48295J12941D01*
G01*
X108117946Y-158056786D02*
G75*
G03*
X108153301Y-158118022I48297J-12940D01*
G01*
X107402726Y-160919209D02*
G75*
G03*
X107341488Y-160954563I-12941J-48297D01*
G01*
X106375563Y-160695744D02*
G75*
G03*
X107341487Y-160954563I482962J-129410D01*
G01*
X108117945Y-158056786D02*
G75*
G03*
X107152021Y-157797967I-482962J129410D01*
G01*
X110436167Y-158677952D02*
X109659710Y-161575729D01*
X107402726Y-160919208D02*
X108658429Y-161255673D01*
X108153301Y-158118023D02*
X109409004Y-158454488D01*
X106375563Y-160695744D02*
X107152020Y-157797967D01*
%TO.C,D106*%
X346744693Y-145176169D02*
G75*
G03*
X347710617Y-144917350I482962J129409D01*
G01*
X346934159Y-142019573D02*
G75*
G03*
X345968235Y-142278392I-482962J-129409D01*
G01*
X345932879Y-142339629D02*
G75*
G03*
X345968234Y-142278392I-12941J48296D01*
G01*
X346744690Y-145176169D02*
G75*
G03*
X346683454Y-145140815I-48295J-12941D01*
G01*
X344615938Y-142640739D02*
G75*
G03*
X344677176Y-142676093I48297J12943D01*
G01*
X345427751Y-145477279D02*
G75*
G03*
X345392395Y-145538516I12942J-48297D01*
G01*
X344426471Y-145797335D02*
G75*
G03*
X345392395Y-145538516I482962J129409D01*
G01*
X344615937Y-142640739D02*
G75*
G03*
X343650013Y-142899558I-482962J-129409D01*
G01*
X346934160Y-142019573D02*
X347710617Y-144917350D01*
X345427751Y-145477279D02*
X346683454Y-145140814D01*
X344677176Y-142676094D02*
X345932879Y-142339629D01*
X344426470Y-145797335D02*
X343650013Y-142899558D01*
%TO.C,D130*%
X327022694Y-71572620D02*
G75*
G03*
X327988618Y-71313801I482962J129409D01*
G01*
X327212160Y-68416024D02*
G75*
G03*
X326246236Y-68674843I-482962J-129409D01*
G01*
X326210880Y-68736080D02*
G75*
G03*
X326246235Y-68674843I-12941J48296D01*
G01*
X327022691Y-71572620D02*
G75*
G03*
X326961455Y-71537266I-48295J-12941D01*
G01*
X324893939Y-69037190D02*
G75*
G03*
X324955177Y-69072544I48297J12943D01*
G01*
X325705752Y-71873730D02*
G75*
G03*
X325670396Y-71934967I12942J-48297D01*
G01*
X324704472Y-72193786D02*
G75*
G03*
X325670396Y-71934967I482962J129409D01*
G01*
X324893938Y-69037190D02*
G75*
G03*
X323928014Y-69296009I-482962J-129409D01*
G01*
X327212161Y-68416024D02*
X327988618Y-71313801D01*
X325705752Y-71873730D02*
X326961455Y-71537265D01*
X324955177Y-69072545D02*
X326210880Y-68736080D01*
X324704471Y-72193786D02*
X323928014Y-69296009D01*
%TO.C,D116*%
X298232982Y-111335072D02*
G75*
G03*
X299198906Y-111076253I482962J129409D01*
G01*
X298422448Y-108178476D02*
G75*
G03*
X297456524Y-108437295I-482962J-129409D01*
G01*
X297421168Y-108498532D02*
G75*
G03*
X297456523Y-108437295I-12941J48296D01*
G01*
X298232979Y-111335072D02*
G75*
G03*
X298171743Y-111299718I-48295J-12941D01*
G01*
X296104227Y-108799642D02*
G75*
G03*
X296165465Y-108834996I48297J12943D01*
G01*
X296916040Y-111636182D02*
G75*
G03*
X296880684Y-111697419I12942J-48297D01*
G01*
X295914760Y-111956238D02*
G75*
G03*
X296880684Y-111697419I482962J129409D01*
G01*
X296104226Y-108799642D02*
G75*
G03*
X295138302Y-109058461I-482962J-129409D01*
G01*
X298422449Y-108178476D02*
X299198906Y-111076253D01*
X296916040Y-111636182D02*
X298171743Y-111299717D01*
X296165465Y-108834997D02*
X297421168Y-108498532D01*
X295914759Y-111956238D02*
X295138302Y-109058461D01*
%TO.C,D118*%
X336883690Y-108374385D02*
G75*
G03*
X337849614Y-108115566I482962J129409D01*
G01*
X337073156Y-105217789D02*
G75*
G03*
X336107232Y-105476608I-482962J-129409D01*
G01*
X336071876Y-105537845D02*
G75*
G03*
X336107231Y-105476608I-12941J48296D01*
G01*
X336883687Y-108374385D02*
G75*
G03*
X336822451Y-108339031I-48295J-12941D01*
G01*
X334754935Y-105838955D02*
G75*
G03*
X334816173Y-105874309I48297J12943D01*
G01*
X335566748Y-108675495D02*
G75*
G03*
X335531392Y-108736732I12942J-48297D01*
G01*
X334565468Y-108995551D02*
G75*
G03*
X335531392Y-108736732I482962J129409D01*
G01*
X334754934Y-105838955D02*
G75*
G03*
X333789010Y-106097774I-482962J-129409D01*
G01*
X337073157Y-105217789D02*
X337849614Y-108115566D01*
X335566748Y-108675495D02*
X336822451Y-108339030D01*
X334816173Y-105874310D02*
X336071876Y-105537845D01*
X334565467Y-108995551D02*
X333789010Y-106097774D01*
%TO.C,D109*%
X301034735Y-127200542D02*
G75*
G03*
X300068811Y-127459361I-482962J-129409D01*
G01*
X300845269Y-130357138D02*
G75*
G03*
X301811193Y-130098319I482962J129409D01*
G01*
X301846549Y-130037082D02*
G75*
G03*
X301811194Y-130098319I12941J-48296D01*
G01*
X301034738Y-127200542D02*
G75*
G03*
X301095974Y-127235896I48295J12941D01*
G01*
X303163490Y-129735972D02*
G75*
G03*
X303102252Y-129700618I-48297J-12943D01*
G01*
X302351677Y-126899432D02*
G75*
G03*
X302387033Y-126838195I-12942J48297D01*
G01*
X303352957Y-126579376D02*
G75*
G03*
X302387033Y-126838195I-482962J-129409D01*
G01*
X303163491Y-129735972D02*
G75*
G03*
X304129415Y-129477153I482962J129409D01*
G01*
X300845268Y-130357138D02*
X300068811Y-127459361D01*
X302351677Y-126899432D02*
X301095974Y-127235897D01*
X303102252Y-129700617D02*
X301846549Y-130037082D01*
X303352958Y-126579376D02*
X304129415Y-129477153D01*
%TO.C,D99*%
X219392582Y-175240572D02*
G75*
G03*
X220258608Y-174740572I433013J250000D01*
G01*
X218758607Y-172142497D02*
G75*
G03*
X217892583Y-172642496I-433012J-249999D01*
G01*
X217874282Y-172710796D02*
G75*
G03*
X217892582Y-172642496I-25000J43300D01*
G01*
X219392582Y-175240572D02*
G75*
G03*
X219324282Y-175222272I-43300J-25000D01*
G01*
X216680148Y-173342495D02*
G75*
G03*
X216748448Y-173360797I43301J25000D01*
G01*
X218198448Y-175872271D02*
G75*
G03*
X218180147Y-175940572I25002J-43301D01*
G01*
X217314123Y-176440571D02*
G75*
G03*
X218180147Y-175940572I433012J249999D01*
G01*
X216680148Y-173342496D02*
G75*
G03*
X215814122Y-173842496I-433013J-250000D01*
G01*
X218758608Y-172142496D02*
X220258608Y-174740572D01*
X218198448Y-175872271D02*
X219324282Y-175222271D01*
X216748448Y-173360797D02*
X217874282Y-172710797D01*
X217314122Y-176440572D02*
X215814122Y-173842496D01*
%TO.C,D79*%
X50468567Y-108736742D02*
G75*
G03*
X51434491Y-108995561I482962J-129410D01*
G01*
X52210949Y-106097784D02*
G75*
G03*
X51245025Y-105838965I-482962J129410D01*
G01*
X51183786Y-105874320D02*
G75*
G03*
X51245023Y-105838965I12941J48296D01*
G01*
X50468565Y-108736742D02*
G75*
G03*
X50433211Y-108675506I-48295J12941D01*
G01*
X49892728Y-105476618D02*
G75*
G03*
X49928083Y-105537854I48297J-12940D01*
G01*
X49177508Y-108339041D02*
G75*
G03*
X49116270Y-108374395I-12941J-48297D01*
G01*
X48150345Y-108115576D02*
G75*
G03*
X49116269Y-108374395I482962J-129410D01*
G01*
X49892727Y-105476618D02*
G75*
G03*
X48926803Y-105217799I-482962J129410D01*
G01*
X52210949Y-106097784D02*
X51434492Y-108995561D01*
X49177508Y-108339040D02*
X50433211Y-108675505D01*
X49928083Y-105537855D02*
X51183786Y-105874320D01*
X48150345Y-108115576D02*
X48926802Y-105217799D01*
%TO.C,D110*%
X281606661Y-128297490D02*
G75*
G03*
X280640737Y-128556309I-482962J-129409D01*
G01*
X281417195Y-131454086D02*
G75*
G03*
X282383119Y-131195267I482962J129409D01*
G01*
X282418475Y-131134030D02*
G75*
G03*
X282383120Y-131195267I12941J-48296D01*
G01*
X281606664Y-128297490D02*
G75*
G03*
X281667900Y-128332844I48295J12941D01*
G01*
X283735416Y-130832920D02*
G75*
G03*
X283674178Y-130797566I-48297J-12943D01*
G01*
X282923603Y-127996380D02*
G75*
G03*
X282958959Y-127935143I-12942J48297D01*
G01*
X283924883Y-127676324D02*
G75*
G03*
X282958959Y-127935143I-482962J-129409D01*
G01*
X283735417Y-130832920D02*
G75*
G03*
X284701341Y-130574101I482962J129409D01*
G01*
X281417194Y-131454086D02*
X280640737Y-128556309D01*
X282923603Y-127996380D02*
X281667900Y-128332845D01*
X283674178Y-130797565D02*
X282418475Y-131134030D01*
X283924884Y-127676324D02*
X284701341Y-130574101D01*
%TO.C,D120*%
X310807249Y-90068466D02*
G75*
G03*
X309841325Y-90327285I-482962J-129409D01*
G01*
X310617783Y-93225062D02*
G75*
G03*
X311583707Y-92966243I482962J129409D01*
G01*
X311619063Y-92905006D02*
G75*
G03*
X311583708Y-92966243I12941J-48296D01*
G01*
X310807252Y-90068466D02*
G75*
G03*
X310868488Y-90103820I48295J12941D01*
G01*
X312936004Y-92603896D02*
G75*
G03*
X312874766Y-92568542I-48297J-12943D01*
G01*
X312124191Y-89767356D02*
G75*
G03*
X312159547Y-89706119I-12942J48297D01*
G01*
X313125471Y-89447300D02*
G75*
G03*
X312159547Y-89706119I-482962J-129409D01*
G01*
X312936005Y-92603896D02*
G75*
G03*
X313901929Y-92345077I482962J129409D01*
G01*
X310617782Y-93225062D02*
X309841325Y-90327285D01*
X312124191Y-89767356D02*
X310868488Y-90103821D01*
X312874766Y-92568541D02*
X311619063Y-92905006D01*
X313125472Y-89447300D02*
X313901929Y-92345077D01*
%TO.C,U4*%
X189249972Y-125070012D02*
G75*
G03*
X188749972Y-125570012I0J-500000D01*
G01*
X188749972Y-141320012D02*
G75*
G03*
X189249972Y-141820012I500000J0D01*
G01*
X197249972Y-125570012D02*
G75*
G03*
X196749972Y-125070012I-499998J2D01*
G01*
X196749972Y-141820012D02*
G75*
G03*
X197249972Y-141320012I-1J500001D01*
G01*
X188749972Y-125570012D02*
X188749972Y-141320012D01*
X196749972Y-125070012D02*
X189249972Y-125070012D01*
X196749972Y-141820012D02*
X189249972Y-141820012D01*
X197249972Y-141320012D02*
X197249972Y-125570012D01*
%TO.C,D86*%
X120414732Y-136699172D02*
G75*
G03*
X119448808Y-136440353I-482962J129410D01*
G01*
X118672350Y-139338130D02*
G75*
G03*
X119638274Y-139596949I482962J-129410D01*
G01*
X119699513Y-139561594D02*
G75*
G03*
X119638276Y-139596949I-12941J-48296D01*
G01*
X120414734Y-136699172D02*
G75*
G03*
X120450088Y-136760408I48295J-12941D01*
G01*
X120990571Y-139959296D02*
G75*
G03*
X120955216Y-139898060I-48297J12940D01*
G01*
X121705791Y-137096873D02*
G75*
G03*
X121767029Y-137061519I12941J48297D01*
G01*
X122732954Y-137320338D02*
G75*
G03*
X121767030Y-137061519I-482962J129410D01*
G01*
X120990572Y-139959296D02*
G75*
G03*
X121956496Y-140218115I482962J-129410D01*
G01*
X118672350Y-139338130D02*
X119448807Y-136440353D01*
X121705791Y-137096874D02*
X120450088Y-136760409D01*
X120955216Y-139898059D02*
X119699513Y-139561594D01*
X122732954Y-137320338D02*
X121956497Y-140218115D01*
%TO.C,D105*%
X327727513Y-147806571D02*
G75*
G03*
X328693437Y-147547752I482962J129409D01*
G01*
X327916979Y-144649975D02*
G75*
G03*
X326951055Y-144908794I-482962J-129409D01*
G01*
X326915699Y-144970031D02*
G75*
G03*
X326951054Y-144908794I-12941J48296D01*
G01*
X327727510Y-147806571D02*
G75*
G03*
X327666274Y-147771217I-48295J-12941D01*
G01*
X325598758Y-145271141D02*
G75*
G03*
X325659996Y-145306495I48297J12943D01*
G01*
X326410571Y-148107681D02*
G75*
G03*
X326375215Y-148168918I12942J-48297D01*
G01*
X325409291Y-148427737D02*
G75*
G03*
X326375215Y-148168918I482962J129409D01*
G01*
X325598757Y-145271141D02*
G75*
G03*
X324632833Y-145529960I-482962J-129409D01*
G01*
X327916980Y-144649975D02*
X328693437Y-147547752D01*
X326410571Y-148107681D02*
X327666274Y-147771216D01*
X325659996Y-145306496D02*
X326915699Y-144970031D01*
X325409290Y-148427737D02*
X324632833Y-145529960D01*
%TO.C,D133*%
X208807607Y-140305416D02*
G75*
G03*
X208424924Y-141229296I-191341J-461940D01*
G01*
X211196562Y-142377347D02*
G75*
G03*
X211579246Y-141453467I191342J461940D01*
G01*
X211552187Y-141388139D02*
G75*
G03*
X211579246Y-141453466I46193J-19134D01*
G01*
X208807607Y-140305416D02*
G75*
G03*
X208872934Y-140278357I19134J46193D01*
G01*
X212115002Y-140160037D02*
G75*
G03*
X212049676Y-140187095I-19133J-46194D01*
G01*
X209370424Y-139077313D02*
G75*
G03*
X209343364Y-139011985I-46195J19133D01*
G01*
X209726048Y-138088105D02*
G75*
G03*
X209343364Y-139011985I-191342J-461940D01*
G01*
X212115003Y-140160036D02*
G75*
G03*
X212497686Y-139236156I191341J461940D01*
G01*
X211196562Y-142377346D02*
X208424924Y-141229296D01*
X209370424Y-139077313D02*
X208872935Y-140278357D01*
X212049675Y-140187095D02*
X211552186Y-141388139D01*
X209726048Y-138088106D02*
X212497686Y-139236156D01*
%TO.C,D100*%
X193699972Y-201550004D02*
G75*
G03*
X194699972Y-201550004I500000J0D01*
G01*
X194699972Y-198550004D02*
G75*
G03*
X193699972Y-198550004I-500000J0D01*
G01*
X193649972Y-198600004D02*
G75*
G03*
X193699972Y-198550004I0J50000D01*
G01*
X193699972Y-201550004D02*
G75*
G03*
X193649972Y-201500004I-50000J0D01*
G01*
X192299972Y-198550004D02*
G75*
G03*
X192349972Y-198600004I50001J1D01*
G01*
X192349972Y-201500004D02*
G75*
G03*
X192299972Y-201550004I1J-50001D01*
G01*
X191299972Y-201550004D02*
G75*
G03*
X192299972Y-201550004I500000J0D01*
G01*
X192299972Y-198550004D02*
G75*
G03*
X191299972Y-198550004I-500000J0D01*
G01*
X194699972Y-198550004D02*
X194699972Y-201550004D01*
X192349972Y-201500004D02*
X193649972Y-201500004D01*
X192349972Y-198600004D02*
X193649972Y-198600004D01*
X191299972Y-201550004D02*
X191299972Y-198550004D01*
%TO.C,D127*%
X268943905Y-75630277D02*
G75*
G03*
X269909829Y-75371458I482962J129409D01*
G01*
X269133371Y-72473681D02*
G75*
G03*
X268167447Y-72732500I-482962J-129409D01*
G01*
X268132091Y-72793737D02*
G75*
G03*
X268167446Y-72732500I-12941J48296D01*
G01*
X268943902Y-75630277D02*
G75*
G03*
X268882666Y-75594923I-48295J-12941D01*
G01*
X266815150Y-73094847D02*
G75*
G03*
X266876388Y-73130201I48297J12943D01*
G01*
X267626963Y-75931387D02*
G75*
G03*
X267591607Y-75992624I12942J-48297D01*
G01*
X266625683Y-76251443D02*
G75*
G03*
X267591607Y-75992624I482962J129409D01*
G01*
X266815149Y-73094847D02*
G75*
G03*
X265849225Y-73353666I-482962J-129409D01*
G01*
X269133372Y-72473681D02*
X269909829Y-75371458D01*
X267626963Y-75931387D02*
X268882666Y-75594922D01*
X266876388Y-73130202D02*
X268132091Y-72793737D01*
X266625682Y-76251443D02*
X265849225Y-73353666D01*
%TO.C,D98*%
X193699981Y-182500016D02*
G75*
G03*
X194699981Y-182500016I500000J0D01*
G01*
X194699981Y-179500016D02*
G75*
G03*
X193699981Y-179500016I-500000J0D01*
G01*
X193649981Y-179550016D02*
G75*
G03*
X193699981Y-179500016I0J50000D01*
G01*
X193699981Y-182500016D02*
G75*
G03*
X193649981Y-182450016I-50000J0D01*
G01*
X192299981Y-179500016D02*
G75*
G03*
X192349981Y-179550016I50001J1D01*
G01*
X192349981Y-182450016D02*
G75*
G03*
X192299981Y-182500016I1J-50001D01*
G01*
X191299981Y-182500016D02*
G75*
G03*
X192299981Y-182500016I500000J0D01*
G01*
X192299981Y-179500016D02*
G75*
G03*
X191299981Y-179500016I-500000J0D01*
G01*
X194699981Y-179500016D02*
X194699981Y-182500016D01*
X192349981Y-182450016D02*
X193649981Y-182450016D01*
X192349981Y-179550016D02*
X193649981Y-179550016D01*
X191299981Y-182500016D02*
X191299981Y-179500016D01*
%TO.C,D75*%
X112902027Y-91133395D02*
G75*
G03*
X111936103Y-90874576I-482962J129410D01*
G01*
X111159645Y-93772353D02*
G75*
G03*
X112125569Y-94031172I482962J-129410D01*
G01*
X112186808Y-93995817D02*
G75*
G03*
X112125571Y-94031172I-12941J-48296D01*
G01*
X112902029Y-91133395D02*
G75*
G03*
X112937383Y-91194631I48295J-12941D01*
G01*
X113477866Y-94393519D02*
G75*
G03*
X113442511Y-94332283I-48297J12940D01*
G01*
X114193086Y-91531096D02*
G75*
G03*
X114254324Y-91495742I12941J48297D01*
G01*
X115220249Y-91754561D02*
G75*
G03*
X114254325Y-91495742I-482962J129410D01*
G01*
X113477867Y-94393519D02*
G75*
G03*
X114443791Y-94652338I482962J-129410D01*
G01*
X111159645Y-93772353D02*
X111936102Y-90874576D01*
X114193086Y-91531097D02*
X112937383Y-91194632D01*
X113442511Y-94332282D02*
X112186808Y-93995817D01*
X115220249Y-91754561D02*
X114443792Y-94652338D01*
%TO.C,D134*%
X199011955Y-149343392D02*
G75*
G03*
X198088077Y-149726075I-461939J-191341D01*
G01*
X199236128Y-152497712D02*
G75*
G03*
X200160006Y-152115030I461939J191341D01*
G01*
X200187066Y-152049703D02*
G75*
G03*
X200160007Y-152115030I19134J-46193D01*
G01*
X199011957Y-149343391D02*
G75*
G03*
X199077284Y-149370450I46193J19134D01*
G01*
X201453437Y-151579273D02*
G75*
G03*
X201388110Y-151552213I-46194J-19135D01*
G01*
X200278328Y-148872962D02*
G75*
G03*
X200305387Y-148807634I-19136J46194D01*
G01*
X201229266Y-148424952D02*
G75*
G03*
X200305388Y-148807634I-461939J-191341D01*
G01*
X201453439Y-151579272D02*
G75*
G03*
X202377317Y-151196589I461939J191341D01*
G01*
X199236127Y-152497713D02*
X198088077Y-149726075D01*
X200278328Y-148872962D02*
X199077284Y-149370451D01*
X201388110Y-151552213D02*
X200187066Y-152049702D01*
X201229267Y-148424951D02*
X202377317Y-151196589D01*
%TO.C,D104*%
X308093990Y-148136850D02*
G75*
G03*
X309059914Y-147878031I482962J129409D01*
G01*
X308283456Y-144980254D02*
G75*
G03*
X307317532Y-145239073I-482962J-129409D01*
G01*
X307282176Y-145300310D02*
G75*
G03*
X307317531Y-145239073I-12941J48296D01*
G01*
X308093987Y-148136850D02*
G75*
G03*
X308032751Y-148101496I-48295J-12941D01*
G01*
X305965235Y-145601420D02*
G75*
G03*
X306026473Y-145636774I48297J12943D01*
G01*
X306777048Y-148437960D02*
G75*
G03*
X306741692Y-148499197I12942J-48297D01*
G01*
X305775768Y-148758016D02*
G75*
G03*
X306741692Y-148499197I482962J129409D01*
G01*
X305965234Y-145601420D02*
G75*
G03*
X304999310Y-145860239I-482962J-129409D01*
G01*
X308283457Y-144980254D02*
X309059914Y-147878031D01*
X306777048Y-148437960D02*
X308032751Y-148101495D01*
X306026473Y-145636775D02*
X307282176Y-145300310D01*
X305775767Y-148758016D02*
X304999310Y-145860239D01*
%TO.C,D96*%
X142302113Y-181139079D02*
G75*
G03*
X143009219Y-181846186I353553J-353553D01*
G01*
X145130539Y-179724864D02*
G75*
G03*
X144423433Y-179017759I-353553J353552D01*
G01*
X144352723Y-179017758D02*
G75*
G03*
X144423433Y-179017759I35355J35355D01*
G01*
X142302113Y-181139079D02*
G75*
G03*
X142302112Y-181068369I-35356J35355D01*
G01*
X143433483Y-178027809D02*
G75*
G03*
X143433483Y-178098520I35357J-35355D01*
G01*
X141382873Y-180149130D02*
G75*
G03*
X141312164Y-180149130I-35355J-35356D01*
G01*
X140605057Y-179442024D02*
G75*
G03*
X141312163Y-180149129I353553J-353552D01*
G01*
X143433483Y-178027809D02*
G75*
G03*
X142726377Y-177320702I-353553J353553D01*
G01*
X145130540Y-179724865D02*
X143009219Y-181846186D01*
X141382874Y-180149129D02*
X142302113Y-181068368D01*
X143433483Y-178098520D02*
X144352722Y-179017759D01*
X140605056Y-179442023D02*
X142726377Y-177320702D01*
%TO.C,D124*%
X236792817Y-108257086D02*
G75*
G03*
X235826893Y-108515905I-482962J-129409D01*
G01*
X236603351Y-111413682D02*
G75*
G03*
X237569275Y-111154863I482962J129409D01*
G01*
X237604631Y-111093626D02*
G75*
G03*
X237569276Y-111154863I12941J-48296D01*
G01*
X236792820Y-108257086D02*
G75*
G03*
X236854056Y-108292440I48295J12941D01*
G01*
X238921572Y-110792516D02*
G75*
G03*
X238860334Y-110757162I-48297J-12943D01*
G01*
X238109759Y-107955976D02*
G75*
G03*
X238145115Y-107894739I-12942J48297D01*
G01*
X239111039Y-107635920D02*
G75*
G03*
X238145115Y-107894739I-482962J-129409D01*
G01*
X238921573Y-110792516D02*
G75*
G03*
X239887497Y-110533697I482962J129409D01*
G01*
X236603350Y-111413682D02*
X235826893Y-108515905D01*
X238109759Y-107955976D02*
X236854056Y-108292441D01*
X238860334Y-110757161D02*
X237604631Y-111093626D01*
X239111040Y-107635920D02*
X239887497Y-110533697D01*
%TO.C,D73*%
X147854857Y-107894733D02*
G75*
G03*
X146888933Y-107635914I-482962J129410D01*
G01*
X146112475Y-110533691D02*
G75*
G03*
X147078399Y-110792510I482962J-129410D01*
G01*
X147139638Y-110757155D02*
G75*
G03*
X147078401Y-110792510I-12941J-48296D01*
G01*
X147854859Y-107894733D02*
G75*
G03*
X147890213Y-107955969I48295J-12941D01*
G01*
X148430696Y-111154857D02*
G75*
G03*
X148395341Y-111093621I-48297J12940D01*
G01*
X149145916Y-108292434D02*
G75*
G03*
X149207154Y-108257080I12941J48297D01*
G01*
X150173079Y-108515899D02*
G75*
G03*
X149207155Y-108257080I-482962J129410D01*
G01*
X148430697Y-111154857D02*
G75*
G03*
X149396621Y-111413676I482962J-129410D01*
G01*
X146112475Y-110533691D02*
X146888932Y-107635914D01*
X149145916Y-108292435D02*
X147890213Y-107955970D01*
X148395341Y-111093620D02*
X147139638Y-110757155D01*
X150173079Y-108515899D02*
X149396622Y-111413676D01*
%TO.C,D117*%
X317866501Y-111004779D02*
G75*
G03*
X318832425Y-110745960I482962J129409D01*
G01*
X318055967Y-107848183D02*
G75*
G03*
X317090043Y-108107002I-482962J-129409D01*
G01*
X317054687Y-108168239D02*
G75*
G03*
X317090042Y-108107002I-12941J48296D01*
G01*
X317866498Y-111004779D02*
G75*
G03*
X317805262Y-110969425I-48295J-12941D01*
G01*
X315737746Y-108469349D02*
G75*
G03*
X315798984Y-108504703I48297J12943D01*
G01*
X316549559Y-111305889D02*
G75*
G03*
X316514203Y-111367126I12942J-48297D01*
G01*
X315548279Y-111625945D02*
G75*
G03*
X316514203Y-111367126I482962J129409D01*
G01*
X315737745Y-108469349D02*
G75*
G03*
X314771821Y-108728168I-482962J-129409D01*
G01*
X318055968Y-107848183D02*
X318832425Y-110745960D01*
X316549559Y-111305889D02*
X317805262Y-110969424D01*
X315798984Y-108504704D02*
X317054687Y-108168239D01*
X315548278Y-111625945D02*
X314771821Y-108728168D01*
%TO.C,D71*%
X135782072Y-84756635D02*
G75*
G03*
X136747996Y-85015454I482962J-129410D01*
G01*
X137524454Y-82117677D02*
G75*
G03*
X136558530Y-81858858I-482962J129410D01*
G01*
X136497291Y-81894213D02*
G75*
G03*
X136558528Y-81858858I12941J48296D01*
G01*
X135782070Y-84756635D02*
G75*
G03*
X135746716Y-84695399I-48295J12941D01*
G01*
X135206233Y-81496511D02*
G75*
G03*
X135241588Y-81557747I48297J-12940D01*
G01*
X134491013Y-84358934D02*
G75*
G03*
X134429775Y-84394288I-12941J-48297D01*
G01*
X133463850Y-84135469D02*
G75*
G03*
X134429774Y-84394288I482962J-129410D01*
G01*
X135206232Y-81496511D02*
G75*
G03*
X134240308Y-81237692I-482962J129410D01*
G01*
X137524454Y-82117677D02*
X136747997Y-85015454D01*
X134491013Y-84358933D02*
X135746716Y-84695398D01*
X135241588Y-81557748D02*
X136497291Y-81894213D01*
X133463850Y-84135469D02*
X134240307Y-81237692D01*
%TO.C,D101*%
X244687809Y-180149133D02*
G75*
G03*
X245394916Y-179442027I353553J353553D01*
G01*
X243273594Y-177320707D02*
G75*
G03*
X242566489Y-178027813I-353552J-353553D01*
G01*
X242566488Y-178098523D02*
G75*
G03*
X242566489Y-178027813I-35355J35355D01*
G01*
X244687809Y-180149133D02*
G75*
G03*
X244617099Y-180149134I-35355J-35356D01*
G01*
X241576539Y-179017763D02*
G75*
G03*
X241647250Y-179017763I35355J35357D01*
G01*
X243697860Y-181068373D02*
G75*
G03*
X243697860Y-181139082I35356J-35355D01*
G01*
X242990754Y-181846189D02*
G75*
G03*
X243697859Y-181139083I353552J353553D01*
G01*
X241576539Y-179017763D02*
G75*
G03*
X240869432Y-179724869I-353553J-353553D01*
G01*
X243273595Y-177320706D02*
X245394916Y-179442027D01*
X243697859Y-181068372D02*
X244617098Y-180149133D01*
X241647250Y-179017763D02*
X242566489Y-178098524D01*
X242990753Y-181846190D02*
X240869432Y-179724869D01*
%TO.C,D89*%
X63979418Y-126507899D02*
G75*
G03*
X63013494Y-126249080I-482962J129410D01*
G01*
X62237036Y-129146857D02*
G75*
G03*
X63202960Y-129405676I482962J-129410D01*
G01*
X63264199Y-129370321D02*
G75*
G03*
X63202962Y-129405676I-12941J-48296D01*
G01*
X63979420Y-126507899D02*
G75*
G03*
X64014774Y-126569135I48295J-12941D01*
G01*
X64555257Y-129768023D02*
G75*
G03*
X64519902Y-129706787I-48297J12940D01*
G01*
X65270477Y-126905600D02*
G75*
G03*
X65331715Y-126870246I12941J48297D01*
G01*
X66297640Y-127129065D02*
G75*
G03*
X65331716Y-126870246I-482962J129410D01*
G01*
X64555258Y-129768023D02*
G75*
G03*
X65521182Y-130026842I482962J-129410D01*
G01*
X62237036Y-129146857D02*
X63013493Y-126249080D01*
X65270477Y-126905601D02*
X64014774Y-126569136D01*
X64519902Y-129706786D02*
X63264199Y-129370321D01*
X66297640Y-127129065D02*
X65521183Y-130026842D01*
%TO.C,D74*%
X130275722Y-99897390D02*
G75*
G03*
X129309798Y-99638571I-482962J129410D01*
G01*
X128533340Y-102536348D02*
G75*
G03*
X129499264Y-102795167I482962J-129410D01*
G01*
X129560503Y-102759812D02*
G75*
G03*
X129499266Y-102795167I-12941J-48296D01*
G01*
X130275724Y-99897390D02*
G75*
G03*
X130311078Y-99958626I48295J-12941D01*
G01*
X130851561Y-103157514D02*
G75*
G03*
X130816206Y-103096278I-48297J12940D01*
G01*
X131566781Y-100295091D02*
G75*
G03*
X131628019Y-100259737I12941J48297D01*
G01*
X132593944Y-100518556D02*
G75*
G03*
X131628020Y-100259737I-482962J129410D01*
G01*
X130851562Y-103157514D02*
G75*
G03*
X131817486Y-103416333I482962J-129410D01*
G01*
X128533340Y-102536348D02*
X129309797Y-99638571D01*
X131566781Y-100295092D02*
X130311078Y-99958627D01*
X130816206Y-103096277D02*
X129560503Y-102759812D01*
X132593944Y-100518556D02*
X131817487Y-103416333D01*
%TO.C,D95*%
X126802768Y-169015696D02*
G75*
G03*
X127668794Y-169515696I433013J-250000D01*
G01*
X129168793Y-166917619D02*
G75*
G03*
X128302769Y-166417620I-433012J249999D01*
G01*
X128234468Y-166435920D02*
G75*
G03*
X128302768Y-166417620I25000J43300D01*
G01*
X126802768Y-169015696D02*
G75*
G03*
X126784468Y-168947396I-43300J25000D01*
G01*
X127090334Y-165717621D02*
G75*
G03*
X127108634Y-165785920I43302J-24999D01*
G01*
X125658634Y-168297394D02*
G75*
G03*
X125590333Y-168315696I-24999J-43303D01*
G01*
X124724309Y-167815697D02*
G75*
G03*
X125590333Y-168315696I433012J-249999D01*
G01*
X127090334Y-165717620D02*
G75*
G03*
X126224308Y-165217620I-433013J250000D01*
G01*
X129168794Y-166917620D02*
X127668794Y-169515696D01*
X125658634Y-168297395D02*
X126784468Y-168947395D01*
X127108634Y-165785921D02*
X128234468Y-166435921D01*
X124724308Y-167815696D02*
X126224308Y-165217620D01*
%TO.C,D137*%
X177192356Y-125694603D02*
G75*
G03*
X177575039Y-124770723I191341J461940D01*
G01*
X174803401Y-123622672D02*
G75*
G03*
X174420717Y-124546552I-191342J-461940D01*
G01*
X174447776Y-124611880D02*
G75*
G03*
X174420717Y-124546553I-46193J19134D01*
G01*
X177192356Y-125694603D02*
G75*
G03*
X177127029Y-125721662I-19134J-46193D01*
G01*
X173884961Y-125839982D02*
G75*
G03*
X173950287Y-125812924I19133J46194D01*
G01*
X176629539Y-126922706D02*
G75*
G03*
X176656599Y-126988034I46195J-19133D01*
G01*
X176273915Y-127911914D02*
G75*
G03*
X176656599Y-126988034I191342J461940D01*
G01*
X173884960Y-125839983D02*
G75*
G03*
X173502277Y-126763863I-191341J-461940D01*
G01*
X174803401Y-123622673D02*
X177575039Y-124770723D01*
X176629539Y-126922706D02*
X177127028Y-125721662D01*
X173950288Y-125812924D02*
X174447777Y-124611880D01*
X176273915Y-127911913D02*
X173502277Y-126763863D01*
%TO.C,D128*%
X288371976Y-74533317D02*
G75*
G03*
X289337900Y-74274498I482962J129409D01*
G01*
X288561442Y-71376721D02*
G75*
G03*
X287595518Y-71635540I-482962J-129409D01*
G01*
X287560162Y-71696777D02*
G75*
G03*
X287595517Y-71635540I-12941J48296D01*
G01*
X288371973Y-74533317D02*
G75*
G03*
X288310737Y-74497963I-48295J-12941D01*
G01*
X286243221Y-71997887D02*
G75*
G03*
X286304459Y-72033241I48297J12943D01*
G01*
X287055034Y-74834427D02*
G75*
G03*
X287019678Y-74895664I12942J-48297D01*
G01*
X286053754Y-75154483D02*
G75*
G03*
X287019678Y-74895664I482962J129409D01*
G01*
X286243220Y-71997887D02*
G75*
G03*
X285277296Y-72256706I-482962J-129409D01*
G01*
X288561443Y-71376721D02*
X289337900Y-74274498D01*
X287055034Y-74834427D02*
X288310737Y-74497962D01*
X286304459Y-72033242D02*
X287560162Y-71696777D01*
X286053753Y-75154483D02*
X285277296Y-72256706D01*
%TO.C,D80*%
X69485776Y-111367117D02*
G75*
G03*
X70451700Y-111625936I482962J-129410D01*
G01*
X71228158Y-108728159D02*
G75*
G03*
X70262234Y-108469340I-482962J129410D01*
G01*
X70200995Y-108504695D02*
G75*
G03*
X70262232Y-108469340I12941J48296D01*
G01*
X69485774Y-111367117D02*
G75*
G03*
X69450420Y-111305881I-48295J12941D01*
G01*
X68909937Y-108106993D02*
G75*
G03*
X68945292Y-108168229I48297J-12940D01*
G01*
X68194717Y-110969416D02*
G75*
G03*
X68133479Y-111004770I-12941J-48297D01*
G01*
X67167554Y-110745951D02*
G75*
G03*
X68133478Y-111004770I482962J-129410D01*
G01*
X68909936Y-108106993D02*
G75*
G03*
X67944012Y-107848174I-482962J129410D01*
G01*
X71228158Y-108728159D02*
X70451701Y-111625936D01*
X68194717Y-110969415D02*
X69450420Y-111305880D01*
X68945292Y-108168230D02*
X70200995Y-108504695D01*
X67167554Y-110745951D02*
X67944011Y-107848174D01*
%TO.C,D122*%
X271745644Y-91495729D02*
G75*
G03*
X270779720Y-91754548I-482962J-129409D01*
G01*
X271556178Y-94652325D02*
G75*
G03*
X272522102Y-94393506I482962J129409D01*
G01*
X272557458Y-94332269D02*
G75*
G03*
X272522103Y-94393506I12941J-48296D01*
G01*
X271745647Y-91495729D02*
G75*
G03*
X271806883Y-91531083I48295J12941D01*
G01*
X273874399Y-94031159D02*
G75*
G03*
X273813161Y-93995805I-48297J-12943D01*
G01*
X273062586Y-91194619D02*
G75*
G03*
X273097942Y-91133382I-12942J48297D01*
G01*
X274063866Y-90874563D02*
G75*
G03*
X273097942Y-91133382I-482962J-129409D01*
G01*
X273874400Y-94031159D02*
G75*
G03*
X274840324Y-93772340I482962J129409D01*
G01*
X271556177Y-94652325D02*
X270779720Y-91754548D01*
X273062586Y-91194619D02*
X271806883Y-91531084D01*
X273813161Y-93995804D02*
X272557458Y-94332269D01*
X274063867Y-90874563D02*
X274840324Y-93772340D01*
%TO.C,D91*%
X40607569Y-145538516D02*
G75*
G03*
X41573493Y-145797335I482962J-129410D01*
G01*
X42349951Y-142899558D02*
G75*
G03*
X41384027Y-142640739I-482962J129410D01*
G01*
X41322788Y-142676094D02*
G75*
G03*
X41384025Y-142640739I12941J48296D01*
G01*
X40607567Y-145538516D02*
G75*
G03*
X40572213Y-145477280I-48295J12941D01*
G01*
X40031730Y-142278392D02*
G75*
G03*
X40067085Y-142339628I48297J-12940D01*
G01*
X39316510Y-145140815D02*
G75*
G03*
X39255272Y-145176169I-12941J-48297D01*
G01*
X38289347Y-144917350D02*
G75*
G03*
X39255271Y-145176169I482962J-129410D01*
G01*
X40031729Y-142278392D02*
G75*
G03*
X39065805Y-142019573I-482962J129410D01*
G01*
X42349951Y-142899558D02*
X41573494Y-145797335D01*
X39316510Y-145140814D02*
X40572213Y-145477279D01*
X40067085Y-142339629D02*
X41322788Y-142676094D01*
X38289347Y-144917350D02*
X39065804Y-142019573D01*
%TO.C,D67*%
X60329590Y-71934958D02*
G75*
G03*
X61295514Y-72193777I482962J-129410D01*
G01*
X62071972Y-69296000D02*
G75*
G03*
X61106048Y-69037181I-482962J129410D01*
G01*
X61044809Y-69072536D02*
G75*
G03*
X61106046Y-69037181I12941J48296D01*
G01*
X60329588Y-71934958D02*
G75*
G03*
X60294234Y-71873722I-48295J12941D01*
G01*
X59753751Y-68674834D02*
G75*
G03*
X59789106Y-68736070I48297J-12940D01*
G01*
X59038531Y-71537257D02*
G75*
G03*
X58977293Y-71572611I-12941J-48297D01*
G01*
X58011368Y-71313792D02*
G75*
G03*
X58977292Y-71572611I482962J-129410D01*
G01*
X59753750Y-68674834D02*
G75*
G03*
X58787826Y-68416015I-482962J129410D01*
G01*
X62071972Y-69296000D02*
X61295515Y-72193777D01*
X59038531Y-71537256D02*
X60294234Y-71873721D01*
X59789106Y-68736071D02*
X61044809Y-69072536D01*
X58011368Y-71313792D02*
X58787825Y-68416015D01*
%TO.C,D87*%
X103041019Y-127935143D02*
G75*
G03*
X102075095Y-127676324I-482962J129410D01*
G01*
X101298637Y-130574101D02*
G75*
G03*
X102264561Y-130832920I482962J-129410D01*
G01*
X102325800Y-130797565D02*
G75*
G03*
X102264563Y-130832920I-12941J-48296D01*
G01*
X103041021Y-127935143D02*
G75*
G03*
X103076375Y-127996379I48295J-12941D01*
G01*
X103616858Y-131195267D02*
G75*
G03*
X103581503Y-131134031I-48297J12940D01*
G01*
X104332078Y-128332844D02*
G75*
G03*
X104393316Y-128297490I12941J48297D01*
G01*
X105359241Y-128556309D02*
G75*
G03*
X104393317Y-128297490I-482962J129410D01*
G01*
X103616859Y-131195267D02*
G75*
G03*
X104582783Y-131454086I482962J-129410D01*
G01*
X101298637Y-130574101D02*
X102075094Y-127676324D01*
X104332078Y-128332845D02*
X103076375Y-127996380D01*
X103581503Y-131134030D02*
X102325800Y-130797565D01*
X105359241Y-128556309D02*
X104582784Y-131454086D01*
%TO.C,D103*%
X278658479Y-160954564D02*
G75*
G03*
X279624403Y-160695745I482962J129409D01*
G01*
X278847945Y-157797968D02*
G75*
G03*
X277882021Y-158056787I-482962J-129409D01*
G01*
X277846665Y-158118024D02*
G75*
G03*
X277882020Y-158056787I-12941J48296D01*
G01*
X278658476Y-160954564D02*
G75*
G03*
X278597240Y-160919210I-48295J-12941D01*
G01*
X276529724Y-158419134D02*
G75*
G03*
X276590962Y-158454488I48297J12943D01*
G01*
X277341537Y-161255674D02*
G75*
G03*
X277306181Y-161316911I12942J-48297D01*
G01*
X276340257Y-161575730D02*
G75*
G03*
X277306181Y-161316911I482962J129409D01*
G01*
X276529723Y-158419134D02*
G75*
G03*
X275563799Y-158677953I-482962J-129409D01*
G01*
X278847946Y-157797968D02*
X279624403Y-160695745D01*
X277341537Y-161255674D02*
X278597240Y-160919209D01*
X276590962Y-158454489D02*
X277846665Y-158118024D01*
X276340256Y-161575730D02*
X275563799Y-158677953D01*
%TO.C,D132*%
X209343363Y-126988035D02*
G75*
G03*
X209726046Y-127911913I191341J-461939D01*
G01*
X212497683Y-126763862D02*
G75*
G03*
X212115001Y-125839984I-191341J461939D01*
G01*
X212049674Y-125812924D02*
G75*
G03*
X212115001Y-125839983I46193J19134D01*
G01*
X209343362Y-126988033D02*
G75*
G03*
X209370421Y-126922706I-19134J46193D01*
G01*
X211579244Y-124546553D02*
G75*
G03*
X211552184Y-124611880I19135J-46194D01*
G01*
X208872933Y-125721662D02*
G75*
G03*
X208807605Y-125694603I-46194J-19136D01*
G01*
X208424923Y-124770724D02*
G75*
G03*
X208807605Y-125694602I191341J-461939D01*
G01*
X211579243Y-124546551D02*
G75*
G03*
X211196560Y-123622673I-191341J461939D01*
G01*
X212497684Y-126763863D02*
X209726046Y-127911913D01*
X208872933Y-125721662D02*
X209370422Y-126922706D01*
X211552184Y-124611880D02*
X212049673Y-125812924D01*
X208424922Y-124770723D02*
X211196560Y-123622673D01*
%TO.C,D113*%
X243852074Y-129193385D02*
G75*
G03*
X244817998Y-128934566I482962J129409D01*
G01*
X244041540Y-126036789D02*
G75*
G03*
X243075616Y-126295608I-482962J-129409D01*
G01*
X243040260Y-126356845D02*
G75*
G03*
X243075615Y-126295608I-12941J48296D01*
G01*
X243852071Y-129193385D02*
G75*
G03*
X243790835Y-129158031I-48295J-12941D01*
G01*
X241723319Y-126657955D02*
G75*
G03*
X241784557Y-126693309I48297J12943D01*
G01*
X242535132Y-129494495D02*
G75*
G03*
X242499776Y-129555732I12942J-48297D01*
G01*
X241533852Y-129814551D02*
G75*
G03*
X242499776Y-129555732I482962J129409D01*
G01*
X241723318Y-126657955D02*
G75*
G03*
X240757394Y-126916774I-482962J-129409D01*
G01*
X244041541Y-126036789D02*
X244817998Y-128934566D01*
X242535132Y-129494495D02*
X243790835Y-129158030D01*
X241784557Y-126693310D02*
X243040260Y-126356845D01*
X241533851Y-129814551D02*
X240757394Y-126916774D01*
%TO.C,D125*%
X233991073Y-92391627D02*
G75*
G03*
X234956997Y-92132808I482962J129409D01*
G01*
X234180539Y-89235031D02*
G75*
G03*
X233214615Y-89493850I-482962J-129409D01*
G01*
X233179259Y-89555087D02*
G75*
G03*
X233214614Y-89493850I-12941J48296D01*
G01*
X233991070Y-92391627D02*
G75*
G03*
X233929834Y-92356273I-48295J-12941D01*
G01*
X231862318Y-89856197D02*
G75*
G03*
X231923556Y-89891551I48297J12943D01*
G01*
X232674131Y-92692737D02*
G75*
G03*
X232638775Y-92753974I12942J-48297D01*
G01*
X231672851Y-93012793D02*
G75*
G03*
X232638775Y-92753974I482962J129409D01*
G01*
X231862317Y-89856197D02*
G75*
G03*
X230896393Y-90115016I-482962J-129409D01*
G01*
X234180540Y-89235031D02*
X234956997Y-92132808D01*
X232674131Y-92692737D02*
X233929834Y-92356272D01*
X231923556Y-89891552D02*
X233179259Y-89555087D01*
X231672850Y-93012793D02*
X230896393Y-90115016D01*
%TO.C,D114*%
X261431224Y-121196087D02*
G75*
G03*
X262397148Y-120937268I482962J129409D01*
G01*
X261620690Y-118039491D02*
G75*
G03*
X260654766Y-118298310I-482962J-129409D01*
G01*
X260619410Y-118359547D02*
G75*
G03*
X260654765Y-118298310I-12941J48296D01*
G01*
X261431221Y-121196087D02*
G75*
G03*
X261369985Y-121160733I-48295J-12941D01*
G01*
X259302469Y-118660657D02*
G75*
G03*
X259363707Y-118696011I48297J12943D01*
G01*
X260114282Y-121497197D02*
G75*
G03*
X260078926Y-121558434I12942J-48297D01*
G01*
X259113002Y-121817253D02*
G75*
G03*
X260078926Y-121558434I482962J129409D01*
G01*
X259302468Y-118660657D02*
G75*
G03*
X258336544Y-118919476I-482962J-129409D01*
G01*
X261620691Y-118039491D02*
X262397148Y-120937268D01*
X260114282Y-121497197D02*
X261369985Y-121160732D01*
X259363707Y-118696012D02*
X260619410Y-118359547D01*
X259113001Y-121817253D02*
X258336544Y-118919476D01*
%TO.C,D92*%
X59624770Y-148168912D02*
G75*
G03*
X60590694Y-148427731I482962J-129410D01*
G01*
X61367152Y-145529954D02*
G75*
G03*
X60401228Y-145271135I-482962J129410D01*
G01*
X60339989Y-145306490D02*
G75*
G03*
X60401226Y-145271135I12941J48296D01*
G01*
X59624768Y-148168912D02*
G75*
G03*
X59589414Y-148107676I-48295J12941D01*
G01*
X59048931Y-144908788D02*
G75*
G03*
X59084286Y-144970024I48297J-12940D01*
G01*
X58333711Y-147771211D02*
G75*
G03*
X58272473Y-147806565I-12941J-48297D01*
G01*
X57306548Y-147547746D02*
G75*
G03*
X58272472Y-147806565I482962J-129410D01*
G01*
X59048930Y-144908788D02*
G75*
G03*
X58083006Y-144649969I-482962J129410D01*
G01*
X61367152Y-145529954D02*
X60590695Y-148427731D01*
X58333711Y-147771210D02*
X59589414Y-148107675D01*
X59084286Y-144970025D02*
X60339989Y-145306490D01*
X57306548Y-147547746D02*
X58083005Y-144649969D01*
%TO.C,D76*%
X93473940Y-90036398D02*
G75*
G03*
X92508016Y-89777579I-482962J129410D01*
G01*
X91731558Y-92675356D02*
G75*
G03*
X92697482Y-92934175I482962J-129410D01*
G01*
X92758721Y-92898820D02*
G75*
G03*
X92697484Y-92934175I-12941J-48296D01*
G01*
X93473942Y-90036398D02*
G75*
G03*
X93509296Y-90097634I48295J-12941D01*
G01*
X94049779Y-93296522D02*
G75*
G03*
X94014424Y-93235286I-48297J12940D01*
G01*
X94764999Y-90434099D02*
G75*
G03*
X94826237Y-90398745I12941J48297D01*
G01*
X95792162Y-90657564D02*
G75*
G03*
X94826238Y-90398745I-482962J129410D01*
G01*
X94049780Y-93296522D02*
G75*
G03*
X95015704Y-93555341I482962J-129410D01*
G01*
X91731558Y-92675356D02*
X92508015Y-89777579D01*
X94764999Y-90434100D02*
X93509296Y-90097635D01*
X94014424Y-93235285D02*
X92758721Y-92898820D01*
X95792162Y-90657564D02*
X95015705Y-93555341D01*
%TO.C,D102*%
X260409633Y-168315680D02*
G75*
G03*
X261275659Y-167815680I433013J250000D01*
G01*
X259775658Y-165217605D02*
G75*
G03*
X258909634Y-165717604I-433012J-249999D01*
G01*
X258891333Y-165785904D02*
G75*
G03*
X258909633Y-165717604I-25000J43300D01*
G01*
X260409633Y-168315680D02*
G75*
G03*
X260341333Y-168297380I-43300J-25000D01*
G01*
X257697199Y-166417603D02*
G75*
G03*
X257765499Y-166435905I43301J25000D01*
G01*
X259215499Y-168947379D02*
G75*
G03*
X259197198Y-169015680I25002J-43301D01*
G01*
X258331174Y-169515679D02*
G75*
G03*
X259197198Y-169015680I433012J249999D01*
G01*
X257697199Y-166417604D02*
G75*
G03*
X256831173Y-166917604I-433013J-250000D01*
G01*
X259775659Y-165217604D02*
X261275659Y-167815680D01*
X259215499Y-168947379D02*
X260341333Y-168297379D01*
X257765499Y-166435905D02*
X258891333Y-165785905D01*
X258331173Y-169515680D02*
X256831173Y-166917604D01*
%TO.C,D121*%
X291173731Y-90398766D02*
G75*
G03*
X290207807Y-90657585I-482962J-129409D01*
G01*
X290984265Y-93555362D02*
G75*
G03*
X291950189Y-93296543I482962J129409D01*
G01*
X291985545Y-93235306D02*
G75*
G03*
X291950190Y-93296543I12941J-48296D01*
G01*
X291173734Y-90398766D02*
G75*
G03*
X291234970Y-90434120I48295J12941D01*
G01*
X293302486Y-92934196D02*
G75*
G03*
X293241248Y-92898842I-48297J-12943D01*
G01*
X292490673Y-90097656D02*
G75*
G03*
X292526029Y-90036419I-12942J48297D01*
G01*
X293491953Y-89777600D02*
G75*
G03*
X292526029Y-90036419I-482962J-129409D01*
G01*
X293302487Y-92934196D02*
G75*
G03*
X294268411Y-92675377I482962J129409D01*
G01*
X290984264Y-93555362D02*
X290207807Y-90657585D01*
X292490673Y-90097656D02*
X291234970Y-90434121D01*
X293241248Y-92898841D02*
X291985545Y-93235306D01*
X293491954Y-89777600D02*
X294268411Y-92675377D01*
%TO.C,D83*%
X125921072Y-121558446D02*
G75*
G03*
X126886996Y-121817265I482962J-129410D01*
G01*
X127663454Y-118919488D02*
G75*
G03*
X126697530Y-118660669I-482962J129410D01*
G01*
X126636291Y-118696024D02*
G75*
G03*
X126697528Y-118660669I12941J48296D01*
G01*
X125921070Y-121558446D02*
G75*
G03*
X125885716Y-121497210I-48295J12941D01*
G01*
X125345233Y-118298322D02*
G75*
G03*
X125380588Y-118359558I48297J-12940D01*
G01*
X124630013Y-121160745D02*
G75*
G03*
X124568775Y-121196099I-12941J-48297D01*
G01*
X123602850Y-120937280D02*
G75*
G03*
X124568774Y-121196099I482962J-129410D01*
G01*
X125345232Y-118298322D02*
G75*
G03*
X124379308Y-118039503I-482962J129410D01*
G01*
X127663454Y-118919488D02*
X126886997Y-121817265D01*
X124630013Y-121160744D02*
X125885716Y-121497209D01*
X125380588Y-118359559D02*
X126636291Y-118696024D01*
X123602850Y-120937280D02*
X124379307Y-118039503D01*
%TO.C,D136*%
X176656597Y-139011984D02*
G75*
G03*
X176273914Y-138088106I-191341J461939D01*
G01*
X173502277Y-139236157D02*
G75*
G03*
X173884959Y-140160035I191341J-461939D01*
G01*
X173950286Y-140187095D02*
G75*
G03*
X173884959Y-140160036I-46193J-19134D01*
G01*
X176656598Y-139011986D02*
G75*
G03*
X176629539Y-139077313I19134J-46193D01*
G01*
X174420716Y-141453466D02*
G75*
G03*
X174447776Y-141388139I-19135J46194D01*
G01*
X177127027Y-140278357D02*
G75*
G03*
X177192355Y-140305416I46194J19136D01*
G01*
X177575037Y-141229295D02*
G75*
G03*
X177192355Y-140305417I-191341J461939D01*
G01*
X174420717Y-141453468D02*
G75*
G03*
X174803400Y-142377346I191341J-461939D01*
G01*
X173502276Y-139236156D02*
X176273914Y-138088106D01*
X177127027Y-140278357D02*
X176629538Y-139077313D01*
X174447776Y-141388139D02*
X173950287Y-140187095D01*
X177575038Y-141229296D02*
X174803400Y-142377346D01*
%TO.C,D70*%
X118408368Y-75992614D02*
G75*
G03*
X119374292Y-76251433I482962J-129410D01*
G01*
X120150750Y-73353656D02*
G75*
G03*
X119184826Y-73094837I-482962J129410D01*
G01*
X119123587Y-73130192D02*
G75*
G03*
X119184824Y-73094837I12941J48296D01*
G01*
X118408366Y-75992614D02*
G75*
G03*
X118373012Y-75931378I-48295J12941D01*
G01*
X117832529Y-72732490D02*
G75*
G03*
X117867884Y-72793726I48297J-12940D01*
G01*
X117117309Y-75594913D02*
G75*
G03*
X117056071Y-75630267I-12941J-48297D01*
G01*
X116090146Y-75371448D02*
G75*
G03*
X117056070Y-75630267I482962J-129410D01*
G01*
X117832528Y-72732490D02*
G75*
G03*
X116866604Y-72473671I-482962J129410D01*
G01*
X120150750Y-73353656D02*
X119374293Y-76251433D01*
X117117309Y-75594912D02*
X118373012Y-75931377D01*
X117867884Y-72793727D02*
X119123587Y-73130192D01*
X116090146Y-75371448D02*
X116866603Y-72473671D01*
%TO.C,D115*%
X278804902Y-112432043D02*
G75*
G03*
X279770826Y-112173224I482962J129409D01*
G01*
X278994368Y-109275447D02*
G75*
G03*
X278028444Y-109534266I-482962J-129409D01*
G01*
X277993088Y-109595503D02*
G75*
G03*
X278028443Y-109534266I-12941J48296D01*
G01*
X278804899Y-112432043D02*
G75*
G03*
X278743663Y-112396689I-48295J-12941D01*
G01*
X276676147Y-109896613D02*
G75*
G03*
X276737385Y-109931967I48297J12943D01*
G01*
X277487960Y-112733153D02*
G75*
G03*
X277452604Y-112794390I12942J-48297D01*
G01*
X276486680Y-113053209D02*
G75*
G03*
X277452604Y-112794390I482962J129409D01*
G01*
X276676146Y-109896613D02*
G75*
G03*
X275710222Y-110155432I-482962J-129409D01*
G01*
X278994369Y-109275447D02*
X279770826Y-112173224D01*
X277487960Y-112733153D02*
X278743663Y-112396688D01*
X276737385Y-109931968D02*
X277993088Y-109595503D01*
X276486679Y-113053209D02*
X275710222Y-110155432D01*
%TO.C,D90*%
X44962245Y-123877513D02*
G75*
G03*
X43996321Y-123618694I-482962J129410D01*
G01*
X43219863Y-126516471D02*
G75*
G03*
X44185787Y-126775290I482962J-129410D01*
G01*
X44247026Y-126739935D02*
G75*
G03*
X44185789Y-126775290I-12941J-48296D01*
G01*
X44962247Y-123877513D02*
G75*
G03*
X44997601Y-123938749I48295J-12941D01*
G01*
X45538084Y-127137637D02*
G75*
G03*
X45502729Y-127076401I-48297J12940D01*
G01*
X46253304Y-124275214D02*
G75*
G03*
X46314542Y-124239860I12941J48297D01*
G01*
X47280467Y-124498679D02*
G75*
G03*
X46314543Y-124239860I-482962J129410D01*
G01*
X45538085Y-127137637D02*
G75*
G03*
X46504009Y-127396456I482962J-129410D01*
G01*
X43219863Y-126516471D02*
X43996320Y-123618694D01*
X46253304Y-124275215D02*
X44997601Y-123938750D01*
X45502729Y-127076400D02*
X44247026Y-126739935D01*
X47280467Y-124498679D02*
X46504010Y-127396456D01*
%TO.C,D72*%
X153361196Y-92753961D02*
G75*
G03*
X154327120Y-93012780I482962J-129410D01*
G01*
X155103578Y-90115003D02*
G75*
G03*
X154137654Y-89856184I-482962J129410D01*
G01*
X154076415Y-89891539D02*
G75*
G03*
X154137652Y-89856184I12941J48296D01*
G01*
X153361194Y-92753961D02*
G75*
G03*
X153325840Y-92692725I-48295J12941D01*
G01*
X152785357Y-89493837D02*
G75*
G03*
X152820712Y-89555073I48297J-12940D01*
G01*
X152070137Y-92356260D02*
G75*
G03*
X152008899Y-92391614I-12941J-48297D01*
G01*
X151042974Y-92132795D02*
G75*
G03*
X152008898Y-92391614I482962J-129410D01*
G01*
X152785356Y-89493837D02*
G75*
G03*
X151819432Y-89235018I-482962J129410D01*
G01*
X155103578Y-90115003D02*
X154327121Y-93012780D01*
X152070137Y-92356259D02*
X153325840Y-92692724D01*
X152820712Y-89555074D02*
X154076415Y-89891539D01*
X151042974Y-92132795D02*
X151819431Y-89235018D01*
%TO.C,D85*%
X137993848Y-144696518D02*
G75*
G03*
X137027924Y-144437699I-482962J129410D01*
G01*
X136251466Y-147335476D02*
G75*
G03*
X137217390Y-147594295I482962J-129410D01*
G01*
X137278629Y-147558940D02*
G75*
G03*
X137217392Y-147594295I-12941J-48296D01*
G01*
X137993850Y-144696518D02*
G75*
G03*
X138029204Y-144757754I48295J-12941D01*
G01*
X138569687Y-147956642D02*
G75*
G03*
X138534332Y-147895406I-48297J12940D01*
G01*
X139284907Y-145094219D02*
G75*
G03*
X139346145Y-145058865I12941J48297D01*
G01*
X140312070Y-145317684D02*
G75*
G03*
X139346146Y-145058865I-482962J129410D01*
G01*
X138569688Y-147956642D02*
G75*
G03*
X139535612Y-148215461I482962J-129410D01*
G01*
X136251466Y-147335476D02*
X137027923Y-144437699D01*
X139284907Y-145094220D02*
X138029204Y-144757755D01*
X138534332Y-147895405D02*
X137278629Y-147558940D01*
X140312070Y-145317684D02*
X139535613Y-148215461D01*
%TO.C,D119*%
X329824421Y-87438074D02*
G75*
G03*
X328858497Y-87696893I-482962J-129409D01*
G01*
X329634955Y-90594670D02*
G75*
G03*
X330600879Y-90335851I482962J129409D01*
G01*
X330636235Y-90274614D02*
G75*
G03*
X330600880Y-90335851I12941J-48296D01*
G01*
X329824424Y-87438074D02*
G75*
G03*
X329885660Y-87473428I48295J12941D01*
G01*
X331953176Y-89973504D02*
G75*
G03*
X331891938Y-89938150I-48297J-12943D01*
G01*
X331141363Y-87136964D02*
G75*
G03*
X331176719Y-87075727I-12942J48297D01*
G01*
X332142643Y-86816908D02*
G75*
G03*
X331176719Y-87075727I-482962J-129409D01*
G01*
X331953177Y-89973504D02*
G75*
G03*
X332919101Y-89714685I482962J129409D01*
G01*
X329634954Y-90594670D02*
X328858497Y-87696893D01*
X331141363Y-87136964D02*
X329885660Y-87473429D01*
X331891938Y-89938149D02*
X330636235Y-90274614D01*
X332142644Y-86816908D02*
X332919101Y-89714685D01*
%TO.C,D81*%
X89119286Y-111697408D02*
G75*
G03*
X90085210Y-111956227I482962J-129410D01*
G01*
X90861668Y-109058450D02*
G75*
G03*
X89895744Y-108799631I-482962J129410D01*
G01*
X89834505Y-108834986D02*
G75*
G03*
X89895742Y-108799631I12941J48296D01*
G01*
X89119284Y-111697408D02*
G75*
G03*
X89083930Y-111636172I-48295J12941D01*
G01*
X88543447Y-108437284D02*
G75*
G03*
X88578802Y-108498520I48297J-12940D01*
G01*
X87828227Y-111299707D02*
G75*
G03*
X87766989Y-111335061I-12941J-48297D01*
G01*
X86801064Y-111076242D02*
G75*
G03*
X87766988Y-111335061I482962J-129410D01*
G01*
X88543446Y-108437284D02*
G75*
G03*
X87577522Y-108178465I-482962J129410D01*
G01*
X90861668Y-109058450D02*
X90085211Y-111956227D01*
X87828227Y-111299706D02*
X89083930Y-111636171D01*
X88578802Y-108498521D02*
X89834505Y-108834986D01*
X86801064Y-111076242D02*
X87577521Y-108178465D01*
%TO.C,D107*%
X339685439Y-124239865D02*
G75*
G03*
X338719515Y-124498684I-482962J-129409D01*
G01*
X339495973Y-127396461D02*
G75*
G03*
X340461897Y-127137642I482962J129409D01*
G01*
X340497253Y-127076405D02*
G75*
G03*
X340461898Y-127137642I12941J-48296D01*
G01*
X339685442Y-124239865D02*
G75*
G03*
X339746678Y-124275219I48295J12941D01*
G01*
X341814194Y-126775295D02*
G75*
G03*
X341752956Y-126739941I-48297J-12943D01*
G01*
X341002381Y-123938755D02*
G75*
G03*
X341037737Y-123877518I-12942J48297D01*
G01*
X342003661Y-123618699D02*
G75*
G03*
X341037737Y-123877518I-482962J-129409D01*
G01*
X341814195Y-126775295D02*
G75*
G03*
X342780119Y-126516476I482962J129409D01*
G01*
X339495972Y-127396461D02*
X338719515Y-124498684D01*
X341002381Y-123938755D02*
X339746678Y-124275220D01*
X341752956Y-126739940D02*
X340497253Y-127076405D01*
X342003662Y-123618699D02*
X342780119Y-126516476D01*
%TO.C,D77*%
X73840436Y-89706113D02*
G75*
G03*
X72874512Y-89447294I-482962J129410D01*
G01*
X72098054Y-92345071D02*
G75*
G03*
X73063978Y-92603890I482962J-129410D01*
G01*
X73125217Y-92568535D02*
G75*
G03*
X73063980Y-92603890I-12941J-48296D01*
G01*
X73840438Y-89706113D02*
G75*
G03*
X73875792Y-89767349I48295J-12941D01*
G01*
X74416275Y-92966237D02*
G75*
G03*
X74380920Y-92905001I-48297J12940D01*
G01*
X75131495Y-90103814D02*
G75*
G03*
X75192733Y-90068460I12941J48297D01*
G01*
X76158658Y-90327279D02*
G75*
G03*
X75192734Y-90068460I-482962J129410D01*
G01*
X74416276Y-92966237D02*
G75*
G03*
X75382200Y-93225056I482962J-129410D01*
G01*
X72098054Y-92345071D02*
X72874511Y-89447294D01*
X75131495Y-90103815D02*
X73875792Y-89767350D01*
X74380920Y-92905000D02*
X73125217Y-92568535D01*
X76158658Y-90327279D02*
X75382201Y-93225056D01*
%TO.C,D82*%
X108547346Y-112794390D02*
G75*
G03*
X109513270Y-113053209I482962J-129410D01*
G01*
X110289728Y-110155432D02*
G75*
G03*
X109323804Y-109896613I-482962J129410D01*
G01*
X109262565Y-109931968D02*
G75*
G03*
X109323802Y-109896613I12941J48296D01*
G01*
X108547344Y-112794390D02*
G75*
G03*
X108511990Y-112733154I-48295J12941D01*
G01*
X107971507Y-109534266D02*
G75*
G03*
X108006862Y-109595502I48297J-12940D01*
G01*
X107256287Y-112396689D02*
G75*
G03*
X107195049Y-112432043I-12941J-48297D01*
G01*
X106229124Y-112173224D02*
G75*
G03*
X107195048Y-112432043I482962J-129410D01*
G01*
X107971506Y-109534266D02*
G75*
G03*
X107005582Y-109275447I-482962J129410D01*
G01*
X110289728Y-110155432D02*
X109513271Y-113053209D01*
X107256287Y-112396688D02*
X108511990Y-112733153D01*
X108006862Y-109595503D02*
X109262565Y-109931968D01*
X106229124Y-112173224D02*
X107005581Y-109275447D01*
%TO.C,D88*%
X83612941Y-126838182D02*
G75*
G03*
X82647017Y-126579363I-482962J129410D01*
G01*
X81870559Y-129477140D02*
G75*
G03*
X82836483Y-129735959I482962J-129410D01*
G01*
X82897722Y-129700604D02*
G75*
G03*
X82836485Y-129735959I-12941J-48296D01*
G01*
X83612943Y-126838182D02*
G75*
G03*
X83648297Y-126899418I48295J-12941D01*
G01*
X84188780Y-130098306D02*
G75*
G03*
X84153425Y-130037070I-48297J12940D01*
G01*
X84904000Y-127235883D02*
G75*
G03*
X84965238Y-127200529I12941J48297D01*
G01*
X85931163Y-127459348D02*
G75*
G03*
X84965239Y-127200529I-482962J129410D01*
G01*
X84188781Y-130098306D02*
G75*
G03*
X85154705Y-130357125I482962J-129410D01*
G01*
X81870559Y-129477140D02*
X82647016Y-126579363D01*
X84904000Y-127235884D02*
X83648297Y-126899419D01*
X84153425Y-130037069D02*
X82897722Y-129700604D01*
X85931163Y-127459348D02*
X85154706Y-130357125D01*
%TO.C,D78*%
X54823244Y-87075733D02*
G75*
G03*
X53857320Y-86816914I-482962J129410D01*
G01*
X53080862Y-89714691D02*
G75*
G03*
X54046786Y-89973510I482962J-129410D01*
G01*
X54108025Y-89938155D02*
G75*
G03*
X54046788Y-89973510I-12941J-48296D01*
G01*
X54823246Y-87075733D02*
G75*
G03*
X54858600Y-87136969I48295J-12941D01*
G01*
X55399083Y-90335857D02*
G75*
G03*
X55363728Y-90274621I-48297J12940D01*
G01*
X56114303Y-87473434D02*
G75*
G03*
X56175541Y-87438080I12941J48297D01*
G01*
X57141466Y-87696899D02*
G75*
G03*
X56175542Y-87438080I-482962J129410D01*
G01*
X55399084Y-90335857D02*
G75*
G03*
X56365008Y-90594676I482962J-129410D01*
G01*
X53080862Y-89714691D02*
X53857319Y-86816914D01*
X56114303Y-87473435D02*
X54858600Y-87136970D01*
X55363728Y-90274620D02*
X54108025Y-89938155D01*
X57141466Y-87696899D02*
X56365009Y-90594676D01*
%TO.C,D123*%
X254371964Y-100259775D02*
G75*
G03*
X253406040Y-100518594I-482962J-129409D01*
G01*
X254182498Y-103416371D02*
G75*
G03*
X255148422Y-103157552I482962J129409D01*
G01*
X255183778Y-103096315D02*
G75*
G03*
X255148423Y-103157552I12941J-48296D01*
G01*
X254371967Y-100259775D02*
G75*
G03*
X254433203Y-100295129I48295J12941D01*
G01*
X256500719Y-102795205D02*
G75*
G03*
X256439481Y-102759851I-48297J-12943D01*
G01*
X255688906Y-99958665D02*
G75*
G03*
X255724262Y-99897428I-12942J48297D01*
G01*
X256690186Y-99638609D02*
G75*
G03*
X255724262Y-99897428I-482962J-129409D01*
G01*
X256500720Y-102795205D02*
G75*
G03*
X257466644Y-102536386I482962J129409D01*
G01*
X254182497Y-103416371D02*
X253406040Y-100518594D01*
X255688906Y-99958665D02*
X254433203Y-100295130D01*
X256439481Y-102759850D02*
X255183778Y-103096315D01*
X256690187Y-99638609D02*
X257466644Y-102536386D01*
%TO.C,D135*%
X185694574Y-148807634D02*
G75*
G03*
X184770694Y-148424951I-461940J191341D01*
G01*
X183622643Y-151196589D02*
G75*
G03*
X184546523Y-151579273I461940J-191342D01*
G01*
X184611851Y-151552214D02*
G75*
G03*
X184546524Y-151579273I-19134J-46193D01*
G01*
X185694574Y-148807634D02*
G75*
G03*
X185721633Y-148872961I46193J-19134D01*
G01*
X185839953Y-152115029D02*
G75*
G03*
X185812895Y-152049703I-46194J19133D01*
G01*
X186922677Y-149370451D02*
G75*
G03*
X186988005Y-149343391I19133J46195D01*
G01*
X187911885Y-149726075D02*
G75*
G03*
X186988005Y-149343391I-461940J191342D01*
G01*
X185839954Y-152115030D02*
G75*
G03*
X186763834Y-152497713I461940J-191341D01*
G01*
X183622644Y-151196589D02*
X184770694Y-148424951D01*
X186922677Y-149370451D02*
X185721633Y-148872962D01*
X185812895Y-152049702D02*
X184611851Y-151552213D01*
X187911884Y-149726075D02*
X186763834Y-152497713D01*
%TO.C,D126*%
X251570199Y-84394321D02*
G75*
G03*
X252536123Y-84135502I482962J129409D01*
G01*
X251759665Y-81237725D02*
G75*
G03*
X250793741Y-81496544I-482962J-129409D01*
G01*
X250758385Y-81557781D02*
G75*
G03*
X250793740Y-81496544I-12941J48296D01*
G01*
X251570196Y-84394321D02*
G75*
G03*
X251508960Y-84358967I-48295J-12941D01*
G01*
X249441444Y-81858891D02*
G75*
G03*
X249502682Y-81894245I48297J12943D01*
G01*
X250253257Y-84695431D02*
G75*
G03*
X250217901Y-84756668I12942J-48297D01*
G01*
X249251977Y-85015487D02*
G75*
G03*
X250217901Y-84756668I482962J129409D01*
G01*
X249441443Y-81858891D02*
G75*
G03*
X248475519Y-82117710I-482962J-129409D01*
G01*
X251759666Y-81237725D02*
X252536123Y-84135502D01*
X250253257Y-84695431D02*
X251508960Y-84358966D01*
X249502682Y-81894246D02*
X250758385Y-81557781D01*
X249251976Y-85015487D02*
X248475519Y-82117710D01*
%TD*%
M02*
