M48
; DRILL file {KiCad (7.0.0)} date Mon Apr  3 12:52:17 2023
; FORMAT={-:-/ absolute / inch / decimal}
; #@! TF.CreationDate,2023-04-03T12:52:17+01:00
; #@! TF.GenerationSoftware,Kicad,Pcbnew,(7.0.0)
; #@! TF.FileFunction,NonPlated,1,2,NPTH
FMAT,2
INCH
; #@! TA.AperFunction,NonPlated,NPTH,ComponentDrill
T1C0.0454
; #@! TA.AperFunction,NonPlated,NPTH,ComponentDrill
T2C0.0689
; #@! TA.AperFunction,NonPlated,NPTH,ComponentDrill
T3C0.0787
; #@! TA.AperFunction,NonPlated,NPTH,ComponentDrill
T4C0.1181
; #@! TA.AperFunction,NonPlated,NPTH,ComponentDrill
T5C0.1570
%
G90
G05
T1
X1.9044Y-1.4941
X6.8898Y-7.313
X11.8554Y-1.4941
T2
X0.8743Y-4.8113
X1.0684Y-4.0868
X1.2607Y-4.9148
X1.2625Y-3.3624
X1.4548Y-4.1904
X1.4566Y-2.638
X1.623Y-4.9149
X1.6489Y-3.4659
X1.6507Y-1.9135
X1.8171Y-4.1904
X1.843Y-2.7415
X2.0094Y-5.0184
X2.0112Y-3.466
X2.0371Y-2.017
X2.2035Y-4.2939
X2.2053Y-2.7415
X2.396Y-4.9279
X2.3976Y-3.5695
X2.3995Y-2.0171
X2.5901Y-4.2034
X2.5917Y-2.845
X2.7823Y-5.0314
X2.7842Y-3.479
X2.7858Y-2.1206
X2.9765Y-4.3069
X2.9783Y-2.7545
X3.1706Y-3.5825
X3.1724Y-2.0301
X3.355Y-4.2466
X3.3647Y-2.858
X3.5491Y-3.5222
X3.5548Y-5.4325
X3.5588Y-2.1336
X3.7413Y-4.3501
X3.7432Y-2.7977
X3.9355Y-3.6257
X3.9373Y-2.0733
X3.9412Y-5.536
X4.039Y-4.5916
X4.1296Y-2.9012
X4.2331Y-3.8672
X4.3237Y-2.1768
X4.3764Y-5.7155
X4.4253Y-4.6952
X4.4272Y-3.1427
X4.6195Y-3.9707
X4.6213Y-2.4183
X4.7228Y-5.9155
X4.7311Y-4.9065
X4.8136Y-3.2463
X4.9252Y-4.182
X5.0077Y-2.5218
X5.0919Y-6.2008
X5.1174Y-5.01
X5.1193Y-3.4576
X5.3115Y-4.2856
X5.3134Y-2.7332
X5.3747Y-6.4837
X5.5057Y-3.5611
X5.6998Y-2.8367
X5.8556Y-6.7628
X6.242Y-6.8663
X6.6898Y-6.9256
X7.0898Y-6.9256
X7.5375Y-6.8663
X7.9239Y-6.7628
X8.0798Y-2.8367
X8.2739Y-3.5611
X8.4048Y-6.4837
X8.4661Y-2.7332
X8.468Y-4.2856
X8.6602Y-3.4576
X8.6621Y-5.01
X8.6877Y-6.2008
X8.7718Y-2.5218
X8.8544Y-4.182
X8.966Y-3.2463
X9.0485Y-4.9065
X9.0567Y-5.9155
X9.1582Y-2.4183
X9.1601Y-3.9707
X9.3523Y-3.1427
X9.3542Y-4.6952
X9.4031Y-5.7155
X9.4558Y-2.1768
X9.5464Y-3.8672
X9.65Y-2.9012
X9.7406Y-4.5916
X9.8383Y-5.536
X9.8422Y-2.0733
X9.8441Y-3.6257
X10.0363Y-2.7977
X10.0382Y-4.3501
X10.2207Y-2.1336
X10.2247Y-5.4325
X10.2304Y-3.5222
X10.4148Y-2.858
X10.4246Y-4.2466
X10.6071Y-2.0301
X10.609Y-3.5825
X10.8012Y-2.7545
X10.8031Y-4.3069
X10.9937Y-2.1206
X10.9953Y-3.479
X10.9972Y-5.0314
X11.1878Y-2.845
X11.1894Y-4.2034
X11.3801Y-2.0171
X11.3819Y-3.5695
X11.3836Y-4.9279
X11.5742Y-2.7415
X11.576Y-4.2939
X11.7424Y-2.017
X11.7683Y-3.466
X11.7702Y-5.0184
X11.9365Y-2.7415
X11.9624Y-4.1904
X12.1288Y-1.9135
X12.1306Y-3.4659
X12.1565Y-4.9149
X12.3229Y-2.638
X12.3248Y-4.1904
X12.517Y-3.3624
X12.5189Y-4.9148
X12.7111Y-4.0868
X12.9052Y-4.8113
T3
X5.8858Y-5.1181
X7.8937Y-5.1181
T4
X0.9485Y-4.7276
X1.1426Y-4.0032
X1.2158Y-4.6958
X1.3367Y-3.2788
X1.4099Y-3.9713
X1.5308Y-2.5543
X1.6041Y-3.2469
X1.6972Y-4.8312
X1.7249Y-1.8299
X1.7982Y-2.5224
X1.8913Y-4.1068
X1.9645Y-4.7993
X1.9923Y-1.798
X2.0854Y-3.3823
X2.1586Y-4.0749
X2.2795Y-2.6579
X2.3528Y-3.3504
X2.4701Y-4.8442
X2.4736Y-1.9334
X2.5469Y-2.626
X2.6643Y-4.1198
X2.7375Y-4.8123
X2.741Y-1.9015
X2.8584Y-3.3953
X2.9316Y-4.0879
X3.0525Y-2.6709
X3.1257Y-3.3634
X3.2466Y-1.9464
X3.3199Y-2.639
X3.4291Y-4.1629
X3.514Y-1.9145
X3.6233Y-3.4385
X3.629Y-5.3488
X3.6965Y-4.1311
X3.8174Y-2.7141
X3.8906Y-3.4066
X3.8964Y-5.3169
X4.0115Y-1.9896
X4.0847Y-2.6822
X4.1131Y-4.508
X4.2789Y-1.9577
X4.3073Y-3.7835
X4.3805Y-4.4761
X4.4697Y-5.6539
X4.5014Y-3.0591
X4.5746Y-3.7517
X4.6955Y-2.3347
X4.7362Y-5.6923
X4.7687Y-3.0272
X4.8052Y-4.8228
X4.9629Y-2.3028
X4.9994Y-4.0984
X5.0726Y-4.791
X5.1935Y-3.374
X5.1979Y-6.1655
X5.2667Y-4.0665
X5.3876Y-2.6495
X5.4454Y-6.2715
X5.4608Y-3.3421
X5.6549Y-2.6176
X5.9298Y-6.6792
X6.1972Y-6.6473
X6.7398Y-6.8256
X6.9898Y-6.7256
X7.5599Y-6.7568
X7.7755Y-6.5955
X8.1022Y-2.7272
X8.2963Y-3.4516
X8.3178Y-2.5659
X8.3695Y-6.3776
X8.4755Y-6.1301
X8.4904Y-4.176
X8.5119Y-3.2903
X8.6845Y-4.9005
X8.706Y-4.0147
X8.7943Y-2.4123
X8.9001Y-4.7392
X8.9884Y-3.1367
X9.0099Y-2.251
X9.05Y-5.8039
X9.1825Y-3.8612
X9.204Y-2.9754
X9.2165Y-5.5923
X9.3766Y-4.5856
X9.3981Y-3.6999
X9.4783Y-2.0673
X9.5922Y-4.4243
X9.6724Y-2.7917
X9.6939Y-1.906
X9.8607Y-5.4265
X9.8665Y-3.5161
X9.888Y-2.6304
X10.0606Y-4.2406
X10.0763Y-5.2652
X10.0821Y-3.3548
X10.2431Y-2.0241
X10.2762Y-4.0793
X10.4373Y-2.7485
X10.4587Y-1.8628
X10.6314Y-3.473
X10.6529Y-2.5872
X10.8255Y-4.1974
X10.847Y-3.3117
X11.0161Y-2.0111
X11.0196Y-4.9218
X11.0411Y-4.0361
X11.2102Y-2.7355
X11.2317Y-1.8498
X11.2352Y-4.7606
X11.4043Y-3.46
X11.4258Y-2.5742
X11.5985Y-4.1844
X11.6199Y-3.2987
X11.7648Y-1.9075
X11.7926Y-4.9088
X11.8141Y-4.0231
X11.9589Y-2.632
X11.9804Y-1.7462
X12.0082Y-4.7475
X12.1531Y-3.3564
X12.1745Y-2.4707
X12.3472Y-4.0808
X12.3687Y-3.1951
X12.5413Y-4.8053
X12.5628Y-3.9195
X12.7569Y-4.644
T5
X1.0675Y-4.8631
X1.2616Y-4.1386
X1.4557Y-3.4142
X1.6498Y-2.6897
X1.8162Y-4.9666
X1.8439Y-1.9653
X2.0103Y-4.2422
X2.2044Y-3.5177
X2.3985Y-2.7933
X2.5892Y-4.9796
X2.5926Y-2.0688
X2.7833Y-4.2552
X2.9774Y-3.5307
X3.1715Y-2.8063
X3.3656Y-2.0818
X3.5482Y-4.2984
X3.7423Y-3.5739
X3.748Y-5.4843
X3.9364Y-2.8495
X4.1305Y-2.125
X4.2322Y-4.6434
X4.4263Y-3.919
X4.5496Y-5.8155
X4.6204Y-3.1945
X4.8145Y-2.4701
X4.9242Y-4.9583
X5.1184Y-4.2338
X5.2333Y-6.3423
X5.3125Y-3.5094
X5.5066Y-2.7849
X6.0488Y-6.8146
X6.8898Y-6.9256
X7.7307Y-6.8146
X8.2729Y-2.7849
X8.4671Y-3.5094
X8.5462Y-6.3423
X8.6612Y-4.2338
X8.8553Y-4.9583
X8.965Y-2.4701
X9.1591Y-3.1945
X9.2299Y-5.8155
X9.3533Y-3.919
X9.5474Y-4.6434
X9.649Y-2.125
X9.8431Y-2.8495
X10.0315Y-5.4843
X10.0373Y-3.5739
X10.2314Y-4.2984
X10.4139Y-2.0818
X10.608Y-2.8063
X10.8021Y-3.5307
X10.9963Y-4.2552
X11.1869Y-2.0688
X11.1904Y-4.9796
X11.381Y-2.7933
X11.5751Y-3.5177
X11.7692Y-4.2422
X11.9356Y-1.9653
X11.9633Y-4.9666
X12.1297Y-2.6897
X12.3238Y-3.4142
X12.5179Y-4.1386
X12.7121Y-4.8631
T0
M30
