M48
; DRILL file {KiCad (7.0.0)} date Fri Mar 31 07:04:06 2023
; FORMAT={-:-/ absolute / inch / decimal}
; #@! TF.CreationDate,2023-03-31T07:04:06+01:00
; #@! TF.GenerationSoftware,Kicad,Pcbnew,(7.0.0)
; #@! TF.FileFunction,NonPlated,1,2,NPTH
FMAT,2
INCH
; #@! TA.AperFunction,NonPlated,NPTH,ComponentDrill
T1C0.0256
; #@! TA.AperFunction,NonPlated,NPTH,ComponentDrill
T2C0.0454
; #@! TA.AperFunction,NonPlated,NPTH,ComponentDrill
T3C0.0689
; #@! TA.AperFunction,NonPlated,NPTH,ComponentDrill
T4C0.0787
; #@! TA.AperFunction,NonPlated,NPTH,ComponentDrill
T5C0.1181
; #@! TA.AperFunction,NonPlated,NPTH,ComponentDrill
T6C0.1570
%
G90
G05
T1
X6.8154Y-0.9508
X7.0429Y-0.9508
T2
X2.3819Y-1.2187
X6.9291Y-7.3524
X11.4567Y-1.2205
T3
X1.0666Y-4.4335
X1.3231Y-3.7288
X1.4425Y-4.5703
X1.5796Y-3.024
X1.699Y-3.8656
X1.8034Y-4.602
X1.8361Y-2.3192
X1.9555Y-3.1608
X2.0599Y-3.8972
X2.0927Y-1.6145
X2.1793Y-4.7388
X2.212Y-2.456
X2.3165Y-3.1924
X2.4358Y-4.034
X2.4685Y-1.7513
X2.5723Y-4.6823
X2.573Y-2.4876
X2.6923Y-3.3292
X2.8288Y-3.9775
X2.8295Y-1.7829
X2.9482Y-4.8191
X2.9489Y-2.6245
X3.0854Y-3.2727
X3.2047Y-4.1143
X3.2054Y-1.9197
X3.3419Y-2.568
X3.4612Y-3.4095
X3.5871Y-4.0872
X3.5984Y-1.8632
X3.6828Y-5.286
X3.7178Y-2.7048
X3.8436Y-3.3824
X3.9629Y-4.224
X3.9743Y-2.0
X4.0587Y-5.4228
X4.1001Y-2.6777
X4.2194Y-3.5192
X4.2384Y-4.4905
X4.3566Y-1.9729
X4.476Y-2.8145
X4.4766Y-5.6395
X4.4949Y-3.7858
X4.6143Y-4.6273
X4.7325Y-2.1097
X4.7514Y-3.081
X4.8042Y-5.869
X4.8708Y-3.9226
X4.9004Y-4.8645
X5.0079Y-2.3762
X5.1273Y-3.2178
X5.147Y-6.1854
X5.1569Y-4.1597
X5.2763Y-5.0013
X5.3838Y-2.513
X5.4041Y-6.4918
X5.4134Y-3.455
X5.5328Y-4.2966
X5.6699Y-2.7502
X5.7893Y-3.5918
X5.895Y-6.8022
X6.0458Y-2.887
X6.2814Y-6.9057
X6.7291Y-6.965
X7.1291Y-6.965
X7.5769Y-6.9057
X7.8124Y-2.887
X7.9633Y-6.8022
X8.069Y-3.5918
X8.1883Y-2.7502
X8.3255Y-4.2966
X8.4448Y-3.455
X8.4541Y-6.4918
X8.4745Y-2.513
X8.582Y-5.0013
X8.7014Y-4.1597
X8.7112Y-6.1854
X8.731Y-3.2178
X8.8503Y-2.3762
X8.9579Y-4.8645
X8.9875Y-3.9226
X9.054Y-5.869
X9.1069Y-3.081
X9.1258Y-2.1097
X9.244Y-4.6273
X9.3634Y-3.7858
X9.3817Y-5.6395
X9.3823Y-2.8145
X9.5017Y-1.9729
X9.6199Y-4.4905
X9.6388Y-3.5192
X9.7582Y-2.6777
X9.7996Y-5.4228
X9.884Y-2.0
X9.8953Y-4.224
X10.0147Y-3.3824
X10.1405Y-2.7048
X10.1755Y-5.286
X10.2599Y-1.8632
X10.2712Y-4.0872
X10.397Y-3.4095
X10.5164Y-2.568
X10.6529Y-1.9197
X10.6535Y-4.1143
X10.7729Y-3.2727
X10.9094Y-2.6245
X10.9101Y-4.8191
X11.0288Y-1.7829
X11.0294Y-3.9775
X11.1659Y-3.3292
X11.2853Y-2.4876
X11.2859Y-4.6823
X11.3897Y-1.7513
X11.4224Y-4.034
X11.5418Y-3.1924
X11.6462Y-2.456
X11.679Y-4.7388
X11.7656Y-1.6145
X11.7983Y-3.8972
X11.9028Y-3.1608
X12.0221Y-2.3192
X12.0548Y-4.602
X12.1593Y-3.8656
X12.2786Y-3.024
X12.4158Y-4.5703
X12.5352Y-3.7288
X12.7917Y-4.4335
T4
X5.9252Y-5.1575
X7.9331Y-5.1575
T5
X1.1478Y-4.3567
X1.4043Y-3.6519
X1.4169Y-4.3482
X1.6608Y-2.9471
X1.6734Y-3.6434
X1.8846Y-4.5251
X1.9173Y-2.2424
X1.9299Y-2.9387
X2.1411Y-3.8203
X2.1537Y-4.5166
X2.1738Y-1.5376
X2.1865Y-2.2339
X2.3977Y-3.1155
X2.4103Y-3.8119
X2.443Y-1.5291
X2.6535Y-4.6054
X2.6542Y-2.4108
X2.6668Y-3.1071
X2.91Y-3.9006
X2.9107Y-1.706
X2.9226Y-4.5969
X2.9233Y-2.4023
X3.1665Y-3.1959
X3.1792Y-3.8922
X3.1798Y-1.6975
X3.4231Y-2.4911
X3.4357Y-3.1874
X3.6682Y-4.0103
X3.6796Y-1.7863
X3.6922Y-2.4826
X3.764Y-5.2091
X3.9248Y-3.3056
X3.9374Y-4.0019
X3.9487Y-1.7779
X4.0331Y-5.2007
X4.1813Y-2.6008
X4.1939Y-3.2971
X4.3196Y-4.4137
X4.4378Y-1.896
X4.4504Y-2.5923
X4.5749Y-5.5863
X4.5761Y-3.7089
X4.5887Y-4.4052
X4.7069Y-1.8876
X4.8326Y-3.0041
X4.837Y-5.6478
X4.8452Y-3.7004
X4.9816Y-4.7876
X5.0891Y-2.2994
X5.1017Y-2.9957
X5.2381Y-4.0829
X5.2507Y-4.7792
X5.2558Y-6.1594
X5.3582Y-2.2909
X5.4931Y-6.2866
X5.4946Y-3.3781
X5.5072Y-4.0744
X5.7511Y-2.6733
X5.7637Y-3.3696
X5.9692Y-6.7185
X6.0203Y-2.6649
X6.2365Y-6.6866
X6.7791Y-6.865
X7.0291Y-6.765
X7.5993Y-6.7962
X7.8149Y-6.6349
X7.8252Y-2.7759
X8.0259Y-2.5965
X8.0817Y-3.4807
X8.2825Y-3.3012
X8.3383Y-4.1855
X8.4097Y-6.3892
X8.4872Y-2.402
X8.4937Y-6.1334
X8.539Y-4.006
X8.5948Y-4.8903
X8.688Y-2.2225
X8.7438Y-3.1067
X8.7955Y-4.7108
X8.9445Y-2.9273
X9.0003Y-3.8115
X9.0376Y-5.7584
X9.1386Y-1.9986
X9.1851Y-5.5331
X9.201Y-3.632
X9.2568Y-4.5163
X9.3393Y-1.8191
X9.3951Y-2.7034
X9.4575Y-4.3368
X9.5958Y-2.5239
X9.6516Y-3.4082
X9.8124Y-5.3117
X9.8523Y-3.2287
X9.8968Y-1.8889
X9.9081Y-4.1129
X10.0131Y-5.1323
X10.0975Y-1.7095
X10.1088Y-3.9335
X10.1533Y-2.5937
X10.354Y-2.4142
X10.4098Y-3.2985
X10.6105Y-3.119
X10.6657Y-1.8086
X10.6663Y-4.0032
X10.8664Y-1.6291
X10.867Y-3.8238
X10.9222Y-2.5134
X10.9228Y-4.708
X11.1229Y-2.3339
X11.1236Y-4.5285
X11.1787Y-3.2182
X11.3794Y-3.0387
X11.4025Y-1.6402
X11.4352Y-3.9229
X11.6032Y-1.4607
X11.6359Y-3.7434
X11.659Y-2.345
X11.6917Y-4.6277
X11.8598Y-2.1655
X11.8925Y-4.4482
X11.9155Y-3.0497
X12.1163Y-2.8703
X12.1721Y-3.7545
X12.3728Y-3.575
X12.4286Y-4.4593
X12.6293Y-4.2798
T6
X1.2545Y-4.5019
X1.5111Y-3.7972
X1.7676Y-3.0924
X1.9914Y-4.6704
X2.0241Y-2.3876
X2.2479Y-3.9656
X2.2806Y-1.6829
X2.5044Y-3.2608
X2.7603Y-4.7507
X2.7609Y-2.556
X3.0168Y-4.0459
X3.0174Y-1.8513
X3.2733Y-3.3411
X3.5298Y-2.6364
X3.775Y-4.1556
X3.7863Y-1.9316
X3.8708Y-5.3544
X4.0315Y-3.4508
X4.288Y-2.7461
X4.4263Y-4.5589
X4.5445Y-2.0413
X4.6404Y-5.7543
X4.6828Y-3.8542
X4.9394Y-3.1494
X5.0883Y-4.9329
X5.1959Y-2.4446
X5.2756Y-6.3386
X5.3449Y-4.2281
X5.6014Y-3.5234
X5.8579Y-2.8186
X6.0882Y-6.8539
X6.9291Y-6.965
X7.7701Y-6.8539
X8.0004Y-2.8186
X8.2569Y-3.5234
X8.5134Y-4.2281
X8.5827Y-6.3386
X8.6624Y-2.4446
X8.7699Y-4.9329
X8.9189Y-3.1494
X9.1754Y-3.8542
X9.2179Y-5.7543
X9.3137Y-2.0413
X9.4319Y-4.5589
X9.5702Y-2.7461
X9.8268Y-3.4508
X9.9875Y-5.3544
X10.0719Y-1.9316
X10.0833Y-4.1556
X10.3285Y-2.6364
X10.585Y-3.3411
X10.8408Y-1.8513
X10.8415Y-4.0459
X11.0974Y-2.556
X11.098Y-4.7507
X11.3539Y-3.2608
X11.5777Y-1.6829
X11.6104Y-3.9656
X11.8342Y-2.3876
X11.8669Y-4.6704
X12.0907Y-3.0924
X12.3472Y-3.7972
X12.6037Y-4.5019
T0
M30
