%TF.GenerationSoftware,KiCad,Pcbnew,(7.0.0)*%
%TF.CreationDate,2023-04-19T00:26:00+01:00*%
%TF.ProjectId,Honeydew,486f6e65-7964-4657-972e-6b696361645f,V2.0*%
%TF.SameCoordinates,Original*%
%TF.FileFunction,Profile,NP*%
%FSLAX46Y46*%
G04 Gerber Fmt 4.6, Leading zero omitted, Abs format (unit mm)*
G04 Created by KiCad (PCBNEW (7.0.0)) date 2023-04-19 00:26:00*
%MOMM*%
%LPD*%
G01*
G04 APERTURE LIST*
%TA.AperFunction,Profile*%
%ADD10C,0.100000*%
%TD*%
G04 APERTURE END LIST*
D10*
X78200001Y-70557245D02*
G75*
G03*
X76267697Y-72041250I-201J-1999755D01*
G01*
X224400000Y-120000001D02*
G75*
G03*
X224900001Y-119499999I0J500001D01*
G01*
X235999988Y-68557203D02*
G75*
G03*
X237999997Y-70557212I2000112J103D01*
G01*
X377534290Y-160882147D02*
X353732300Y-72041256D01*
X205100000Y-110200001D02*
X205100000Y-119500000D01*
X351800000Y-70557208D02*
X237999997Y-70557212D01*
X192000000Y-70557211D02*
X78200001Y-70557211D01*
X52465705Y-160882139D02*
G75*
G03*
X53879916Y-163331635I1931995J-517561D01*
G01*
X210399999Y-62557206D02*
X195999999Y-62557210D01*
X247486747Y-221598120D02*
G75*
G03*
X248913675Y-220847819I53J1731920D01*
G01*
X353732318Y-72041251D02*
G75*
G03*
X351800000Y-70557208I-1932218J-515849D01*
G01*
X181086305Y-220847826D02*
G75*
G03*
X182513250Y-221598089I1427095J982126D01*
G01*
X76267697Y-72041250D02*
X52465708Y-160882140D01*
X224900001Y-110200000D02*
G75*
G03*
X224400004Y-109700000I-500001J-1D01*
G01*
X235999998Y-68557208D02*
X236000003Y-64557208D01*
X376120081Y-163331639D02*
X304384407Y-182535123D01*
X235999987Y-64557212D02*
G75*
G03*
X233999997Y-62557213I-1999887J112D01*
G01*
X219599998Y-62557207D02*
X233999997Y-62557213D01*
X304384406Y-182535121D02*
G75*
G03*
X248913675Y-220847819I28965224J-101249839D01*
G01*
X193999996Y-64557212D02*
X194000000Y-68557206D01*
X205600000Y-109700001D02*
G75*
G03*
X205100000Y-110200001I0J-500000D01*
G01*
X219599998Y-69257210D02*
X219599998Y-62557207D01*
X125615586Y-182535119D02*
X53879916Y-163331635D01*
X195999999Y-62557196D02*
G75*
G03*
X193999996Y-64557212I-199J-1999804D01*
G01*
X210399999Y-69257210D02*
X210399999Y-62557206D01*
X205100000Y-119500004D02*
G75*
G03*
X205599996Y-120000000I500000J4D01*
G01*
X376120073Y-163331611D02*
G75*
G03*
X377534290Y-160882147I-517573J1931811D01*
G01*
X224400000Y-109700001D02*
X205600000Y-109700001D01*
X224900001Y-119499999D02*
X224900001Y-110200001D01*
X192000000Y-70557200D02*
G75*
G03*
X194000000Y-68557206I-200J2000200D01*
G01*
X182513250Y-221598089D02*
X247486747Y-221598095D01*
X205599996Y-120000000D02*
X224400000Y-120000000D01*
X181086319Y-220847817D02*
G75*
G03*
X125615586Y-182535119I-84436119J-62937383D01*
G01*
%TO.C,D95*%
X283262288Y-184592468D02*
X280144596Y-186392468D01*
X281712288Y-181907790D02*
X283262288Y-184592468D01*
X280144596Y-186392468D02*
X278594596Y-183707790D01*
X278594596Y-183707790D02*
X281712288Y-181907790D01*
%TO.C,D73*%
X257652679Y-125252000D02*
X261130012Y-124320252D01*
X258455018Y-128246370D02*
X257652679Y-125252000D01*
X261130012Y-124320252D02*
X261932351Y-127314622D01*
X261932351Y-127314622D02*
X258455018Y-128246370D01*
%TO.C,D75*%
X292605510Y-108490641D02*
X296082843Y-107558893D01*
X293407849Y-111485011D02*
X292605510Y-108490641D01*
X296082843Y-107558893D02*
X296885182Y-110553263D01*
X296885182Y-110553263D02*
X293407849Y-111485011D01*
%TO.C,D87*%
X302466521Y-145292411D02*
X305943854Y-144360663D01*
X303268860Y-148286781D02*
X302466521Y-145292411D01*
X305943854Y-144360663D02*
X306746193Y-147355033D01*
X306746193Y-147355033D02*
X303268860Y-148286781D01*
%TO.C,D129*%
X102461088Y-91656864D02*
X98983755Y-90725116D01*
X103263427Y-88662494D02*
X102461088Y-91656864D01*
X98983755Y-90725116D02*
X99786094Y-87730746D01*
X99786094Y-87730746D02*
X103263427Y-88662494D01*
%TO.C,D122*%
X133917175Y-107558904D02*
X137394508Y-108490652D01*
X133114836Y-110553274D02*
X133917175Y-107558904D01*
X137394508Y-108490652D02*
X136592169Y-111485022D01*
X136592169Y-111485022D02*
X133114836Y-110553274D01*
%TO.C,D132*%
X200121462Y-141888802D02*
X198743802Y-145214768D01*
X197257436Y-140702484D02*
X200121462Y-141888802D01*
X198743802Y-145214768D02*
X195879776Y-144028450D01*
X195879776Y-144028450D02*
X197257436Y-140702484D01*
%TO.C,D126*%
X158896378Y-101848145D02*
X155419045Y-100916397D01*
X159698717Y-98853775D02*
X158896378Y-101848145D01*
X155419045Y-100916397D02*
X156221384Y-97922027D01*
X156221384Y-97922027D02*
X159698717Y-98853775D01*
%TO.C,D86*%
X285092829Y-154056445D02*
X288570162Y-153124697D01*
X285895168Y-157050815D02*
X285092829Y-154056445D01*
X288570162Y-153124697D02*
X289372501Y-156119067D01*
X289372501Y-156119067D02*
X285895168Y-157050815D01*
%TO.C,D85*%
X267513689Y-162053760D02*
X270991022Y-161122012D01*
X268316028Y-165048130D02*
X267513689Y-162053760D01*
X270991022Y-161122012D02*
X271793361Y-164116382D01*
X271793361Y-164116382D02*
X268316028Y-165048130D01*
%TO.C,D117*%
X92600087Y-128458620D02*
X89122754Y-127526872D01*
X93402426Y-125464250D02*
X92600087Y-128458620D01*
X89122754Y-127526872D02*
X89925093Y-124532502D01*
X89925093Y-124532502D02*
X93402426Y-125464250D01*
%TO.C,D70*%
X291954681Y-92152381D02*
X288477348Y-93084129D01*
X291152342Y-89158011D02*
X291954681Y-92152381D01*
X288477348Y-93084129D02*
X287675009Y-90089759D01*
X287675009Y-90089759D02*
X291152342Y-89158011D01*
%TO.C,D112*%
X159009002Y-161122028D02*
X162486335Y-162053776D01*
X158206663Y-164116398D02*
X159009002Y-161122028D01*
X162486335Y-162053776D02*
X161683996Y-165048146D01*
X161683996Y-165048146D02*
X158206663Y-164116398D01*
%TO.C,D94*%
X301669253Y-177476667D02*
X298191920Y-178408415D01*
X300866914Y-174482297D02*
X301669253Y-177476667D01*
X298191920Y-178408415D02*
X297389581Y-175414045D01*
X297389581Y-175414045D02*
X300866914Y-174482297D01*
%TO.C,D96*%
X267324231Y-196229881D02*
X264778646Y-198775466D01*
X265132200Y-194037850D02*
X267324231Y-196229881D01*
X264778646Y-198775466D02*
X262586615Y-196583435D01*
X262586615Y-196583435D02*
X265132200Y-194037850D01*
%TO.C,D67*%
X350033465Y-88094731D02*
X346556132Y-89026479D01*
X349231126Y-85100361D02*
X350033465Y-88094731D01*
X346556132Y-89026479D02*
X345753793Y-86032109D01*
X345753793Y-86032109D02*
X349231126Y-85100361D01*
%TO.C,D97*%
X216800000Y-218350005D02*
X213200000Y-218350005D01*
X216800000Y-215250005D02*
X216800000Y-218350005D01*
X213200000Y-218350005D02*
X213200000Y-215250005D01*
X213200000Y-215250005D02*
X216800000Y-215250005D01*
%TO.C,D81*%
X321243766Y-127857185D02*
X317766433Y-128788933D01*
X320441427Y-124862815D02*
X321243766Y-127857185D01*
X317766433Y-128788933D02*
X316964094Y-125794563D01*
X316964094Y-125794563D02*
X320441427Y-124862815D01*
%TO.C,D111*%
X141429884Y-153124687D02*
X144907217Y-154056435D01*
X140627545Y-156119057D02*
X141429884Y-153124687D01*
X144907217Y-154056435D02*
X144104878Y-157050805D01*
X144104878Y-157050805D02*
X140627545Y-156119057D01*
%TO.C,D125*%
X176475504Y-109845473D02*
X172998171Y-108913725D01*
X177277843Y-106851103D02*
X176475504Y-109845473D01*
X172998171Y-108913725D02*
X173800510Y-105919355D01*
X173800510Y-105919355D02*
X177277843Y-106851103D01*
%TO.C,D83*%
X284442006Y-137718196D02*
X280964673Y-138649944D01*
X283639667Y-134723826D02*
X284442006Y-137718196D01*
X280964673Y-138649944D02*
X280162334Y-135655574D01*
X280162334Y-135655574D02*
X283639667Y-134723826D01*
%TO.C,U4*%
X219250000Y-158320000D02*
X219250000Y-142570000D01*
X218750000Y-158820000D02*
X211250000Y-158820000D01*
X218750000Y-142070000D02*
X211250000Y-142070000D01*
X210750000Y-142570000D02*
X210750000Y-158320000D01*
X218750000Y-158820000D02*
G75*
G03*
X219250000Y-158320000I-1J500001D01*
G01*
X219250000Y-142570000D02*
G75*
G03*
X218750000Y-142070000I-499998J2D01*
G01*
X210750000Y-158320000D02*
G75*
G03*
X211250000Y-158820000I500000J0D01*
G01*
X211250000Y-142070000D02*
G75*
G03*
X210750000Y-142570000I0J-500000D01*
G01*
%TO.C,D120*%
X94855588Y-106131634D02*
X98332921Y-107063382D01*
X94053249Y-109126004D02*
X94855588Y-106131634D01*
X98332921Y-107063382D02*
X97530582Y-110057752D01*
X97530582Y-110057752D02*
X94053249Y-109126004D01*
%TO.C,D90*%
X360545295Y-141234772D02*
X364022628Y-140303024D01*
X361347634Y-144229142D02*
X360545295Y-141234772D01*
X364022628Y-140303024D02*
X364824967Y-143297394D01*
X364824967Y-143297394D02*
X361347634Y-144229142D01*
%TO.C,D130*%
X83443901Y-89026459D02*
X79966568Y-88094711D01*
X84246240Y-86032089D02*
X83443901Y-89026459D01*
X79966568Y-88094711D02*
X80768907Y-85100341D01*
X80768907Y-85100341D02*
X84246240Y-86032089D01*
%TO.C,D91*%
X369755465Y-161698270D02*
X366278132Y-162630018D01*
X368953126Y-158703900D02*
X369755465Y-161698270D01*
X366278132Y-162630018D02*
X365475793Y-159635648D01*
X365475793Y-159635648D02*
X368953126Y-158703900D01*
%TO.C,D104*%
X102372583Y-165590684D02*
X98895250Y-164658936D01*
X103174922Y-162596314D02*
X102372583Y-165590684D01*
X98895250Y-164658936D02*
X99697589Y-161664566D01*
X99697589Y-161664566D02*
X103174922Y-162596314D01*
%TO.C,D118*%
X73582873Y-125828251D02*
X70105540Y-124896503D01*
X74385212Y-122833881D02*
X73582873Y-125828251D01*
X70105540Y-124896503D02*
X70907879Y-121902133D01*
X70907879Y-121902133D02*
X74385212Y-122833881D01*
%TO.C,D98*%
X242245239Y-191517354D02*
X239127547Y-193317354D01*
X240695239Y-188832676D02*
X242245239Y-191517354D01*
X239127547Y-193317354D02*
X237577547Y-190632676D01*
X237577547Y-190632676D02*
X240695239Y-188832676D01*
%TO.C,D79*%
X359894465Y-124896485D02*
X356417132Y-125828233D01*
X359092126Y-121902115D02*
X359894465Y-124896485D01*
X356417132Y-125828233D02*
X355614793Y-122833863D01*
X355614793Y-122833863D02*
X359092126Y-121902115D01*
%TO.C,D103*%
X131808096Y-178408411D02*
X128330763Y-177476663D01*
X132610435Y-175414041D02*
X131808096Y-178408411D01*
X128330763Y-177476663D02*
X129133102Y-174482293D01*
X129133102Y-174482293D02*
X132610435Y-175414041D01*
%TO.C,D92*%
X350738287Y-164328673D02*
X347260954Y-165260421D01*
X349935948Y-161334303D02*
X350738287Y-164328673D01*
X347260954Y-165260421D02*
X346458615Y-162266051D01*
X346458615Y-162266051D02*
X349935948Y-161334303D01*
%TO.C,D99*%
X216799999Y-199300004D02*
X213199999Y-199300004D01*
X216799999Y-196200004D02*
X216799999Y-199300004D01*
X213199999Y-199300004D02*
X213199999Y-196200004D01*
X213199999Y-196200004D02*
X216799999Y-196200004D01*
%TO.C,D68*%
X331016268Y-90725126D02*
X327538935Y-91656874D01*
X330213929Y-87730756D02*
X331016268Y-90725126D01*
X327538935Y-91656874D02*
X326736596Y-88662504D01*
X326736596Y-88662504D02*
X330213929Y-87730756D01*
%TO.C,D82*%
X301815678Y-128954146D02*
X298338345Y-129885894D01*
X301013339Y-125959776D02*
X301815678Y-128954146D01*
X298338345Y-129885894D02*
X297536006Y-126891524D01*
X297536006Y-126891524D02*
X301013339Y-125959776D01*
%TO.C,D74*%
X275231827Y-117254684D02*
X278709160Y-116322936D01*
X276034166Y-120249054D02*
X275231827Y-117254684D01*
X278709160Y-116322936D02*
X279511499Y-119317306D01*
X279511499Y-119317306D02*
X276034166Y-120249054D01*
%TO.C,D105*%
X82739074Y-165260412D02*
X79261741Y-164328664D01*
X83541413Y-162266042D02*
X82739074Y-165260412D01*
X79261741Y-164328664D02*
X80064080Y-161334294D01*
X80064080Y-161334294D02*
X83541413Y-162266042D01*
%TO.C,D84*%
X266862856Y-145715493D02*
X263385523Y-146647241D01*
X266060517Y-142721123D02*
X266862856Y-145715493D01*
X263385523Y-146647241D02*
X262583184Y-143652871D01*
X262583184Y-143652871D02*
X266060517Y-142721123D01*
%TO.C,J2*%
X210900000Y-69257210D02*
X219100000Y-69257210D01*
X210400000Y-69257210D02*
G75*
G03*
X210900000Y-69257210I250000J0D01*
G01*
X219100000Y-69257210D02*
G75*
G03*
X219600000Y-69257210I250000J0D01*
G01*
%TO.C,D138*%
X223111201Y-135121461D02*
X219785235Y-133743801D01*
X224297519Y-132257435D02*
X223111201Y-135121461D01*
X219785235Y-133743801D02*
X220971553Y-130879775D01*
X220971553Y-130879775D02*
X224297519Y-132257435D01*
%TO.C,D124*%
X168870007Y-124320245D02*
X172347340Y-125251993D01*
X168067668Y-127314615D02*
X168870007Y-124320245D01*
X172347340Y-125251993D02*
X171545001Y-128246363D01*
X171545001Y-128246363D02*
X168067668Y-127314615D01*
%TO.C,D76*%
X312033595Y-107393669D02*
X315510928Y-106461921D01*
X312835934Y-110388039D02*
X312033595Y-107393669D01*
X315510928Y-106461921D02*
X316313267Y-109456291D01*
X316313267Y-109456291D02*
X312835934Y-110388039D01*
%TO.C,D89*%
X341528112Y-143865160D02*
X345005445Y-142933412D01*
X342330451Y-146859530D02*
X341528112Y-143865160D01*
X345005445Y-142933412D02*
X345807784Y-145927782D01*
X345807784Y-145927782D02*
X342330451Y-146859530D01*
%TO.C,D116*%
X112233603Y-128788910D02*
X108756270Y-127857162D01*
X113035942Y-125794540D02*
X112233603Y-128788910D01*
X108756270Y-127857162D02*
X109558609Y-124862792D01*
X109558609Y-124862792D02*
X113035942Y-125794540D01*
%TO.C,D108*%
X84994565Y-142933408D02*
X88471898Y-143865156D01*
X84192226Y-145927778D02*
X84994565Y-142933408D01*
X88471898Y-143865156D02*
X87669559Y-146859526D01*
X87669559Y-146859526D02*
X84192226Y-145927778D01*
%TO.C,D80*%
X340877281Y-127526888D02*
X337399948Y-128458636D01*
X340074942Y-124532518D02*
X340877281Y-127526888D01*
X337399948Y-128458636D02*
X336597609Y-125464266D01*
X336597609Y-125464266D02*
X340074942Y-124532518D01*
%TO.C,D71*%
X274580981Y-100916433D02*
X271103648Y-101848181D01*
X273778642Y-97922063D02*
X274580981Y-100916433D01*
X271103648Y-101848181D02*
X270301309Y-98853811D01*
X270301309Y-98853811D02*
X273778642Y-97922063D01*
%TO.C,D102*%
X149855417Y-186392473D02*
X146737725Y-184592473D01*
X151405417Y-183707795D02*
X149855417Y-186392473D01*
X146737725Y-184592473D02*
X148287725Y-181907795D01*
X148287725Y-181907795D02*
X151405417Y-183707795D01*
%TO.C,D136*%
X229878543Y-158111199D02*
X231256203Y-154785233D01*
X232742569Y-159297517D02*
X229878543Y-158111199D01*
X231256203Y-154785233D02*
X234120229Y-155971551D01*
X234120229Y-155971551D02*
X232742569Y-159297517D01*
%TO.C,D88*%
X321894593Y-144195460D02*
X325371926Y-143263712D01*
X322696932Y-147189830D02*
X321894593Y-144195460D01*
X325371926Y-143263712D02*
X326174265Y-146258082D01*
X326174265Y-146258082D02*
X322696932Y-147189830D01*
%TO.C,D134*%
X206888804Y-164878540D02*
X210214770Y-166256200D01*
X205702486Y-167742566D02*
X206888804Y-164878540D01*
X210214770Y-166256200D02*
X209028452Y-169120226D01*
X209028452Y-169120226D02*
X205702486Y-167742566D01*
%TO.C,D131*%
X210214768Y-133743801D02*
X206888802Y-135121461D01*
X209028450Y-130879775D02*
X210214768Y-133743801D01*
X206888802Y-135121461D02*
X205702484Y-132257435D01*
X205702484Y-132257435D02*
X209028450Y-130879775D01*
%TO.C,D106*%
X63721880Y-162630027D02*
X60244547Y-161698279D01*
X64524219Y-159635657D02*
X63721880Y-162630027D01*
X60244547Y-161698279D02*
X61046886Y-158703909D01*
X61046886Y-158703909D02*
X64524219Y-159635657D01*
%TO.C,D113*%
X166614496Y-146647245D02*
X163137163Y-145715497D01*
X167416835Y-143652875D02*
X166614496Y-146647245D01*
X163137163Y-145715497D02*
X163939502Y-142721127D01*
X163939502Y-142721127D02*
X167416835Y-143652875D01*
%TO.C,D69*%
X311382752Y-91055413D02*
X307905419Y-91987161D01*
X310580413Y-88061043D02*
X311382752Y-91055413D01*
X307905419Y-91987161D02*
X307103080Y-88992791D01*
X307103080Y-88992791D02*
X310580413Y-88061043D01*
%TO.C,D107*%
X65977395Y-140303027D02*
X69454728Y-141234775D01*
X65175056Y-143297397D02*
X65977395Y-140303027D01*
X69454728Y-141234775D02*
X68652389Y-144229145D01*
X68652389Y-144229145D02*
X65175056Y-143297397D01*
%TO.C,D101*%
X165221374Y-198775468D02*
X162675789Y-196229883D01*
X167413405Y-196583437D02*
X165221374Y-198775468D01*
X162675789Y-196229883D02*
X164867820Y-194037852D01*
X164867820Y-194037852D02*
X167413405Y-196583437D01*
%TO.C,D133*%
X198743801Y-154785234D02*
X200121461Y-158111200D01*
X195879775Y-155971552D02*
X198743801Y-154785234D01*
X200121461Y-158111200D02*
X197257435Y-159297518D01*
X197257435Y-159297518D02*
X195879775Y-155971552D01*
%TO.C,D78*%
X350684288Y-104432988D02*
X354161621Y-103501240D01*
X351486627Y-107427358D02*
X350684288Y-104432988D01*
X354161621Y-103501240D02*
X354963960Y-106495610D01*
X354963960Y-106495610D02*
X351486627Y-107427358D01*
%TO.C,D135*%
X219785235Y-166256202D02*
X223111201Y-164878542D01*
X220971553Y-169120228D02*
X219785235Y-166256202D01*
X223111201Y-164878542D02*
X224297519Y-167742568D01*
X224297519Y-167742568D02*
X220971553Y-169120228D01*
%TO.C,D137*%
X231256202Y-145214769D02*
X229878542Y-141888803D01*
X234120228Y-144028451D02*
X231256202Y-145214769D01*
X229878542Y-141888803D02*
X232742568Y-140702485D01*
X232742568Y-140702485D02*
X234120228Y-144028451D01*
%TO.C,D93*%
X331104769Y-164658958D02*
X327627436Y-165590706D01*
X330302430Y-161664588D02*
X331104769Y-164658958D01*
X327627436Y-165590706D02*
X326825097Y-162596336D01*
X326825097Y-162596336D02*
X330302430Y-161664588D01*
%TO.C,D114*%
X149035380Y-138649956D02*
X145558047Y-137718208D01*
X149837719Y-135655586D02*
X149035380Y-138649956D01*
X145558047Y-137718208D02*
X146360386Y-134723838D01*
X146360386Y-134723838D02*
X149837719Y-135655586D01*
%TO.C,D100*%
X190872455Y-193317360D02*
X187754763Y-191517360D01*
X192422455Y-190632682D02*
X190872455Y-193317360D01*
X187754763Y-191517360D02*
X189304763Y-188832682D01*
X189304763Y-188832682D02*
X192422455Y-190632682D01*
%TO.C,D127*%
X141522671Y-93084117D02*
X138045338Y-92152369D01*
X142325010Y-90089747D02*
X141522671Y-93084117D01*
X138045338Y-92152369D02*
X138847677Y-89157999D01*
X138847677Y-89157999D02*
X142325010Y-90089747D01*
%TO.C,D123*%
X151290872Y-116322905D02*
X154768205Y-117254653D01*
X150488533Y-119317275D02*
X151290872Y-116322905D01*
X154768205Y-117254653D02*
X153965866Y-120249023D01*
X153965866Y-120249023D02*
X150488533Y-119317275D01*
%TO.C,D115*%
X131661650Y-129885896D02*
X128184317Y-128954148D01*
X132463989Y-126891526D02*
X131661650Y-129885896D01*
X128184317Y-128954148D02*
X128986656Y-125959778D01*
X128986656Y-125959778D02*
X132463989Y-126891526D01*
%TO.C,D128*%
X122094597Y-91987163D02*
X118617264Y-91055415D01*
X122896936Y-88992793D02*
X122094597Y-91987163D01*
X118617264Y-91055415D02*
X119419603Y-88061045D01*
X119419603Y-88061045D02*
X122896936Y-88992793D01*
%TO.C,D121*%
X114489099Y-106461904D02*
X117966432Y-107393652D01*
X113686760Y-109456274D02*
X114489099Y-106461904D01*
X117966432Y-107393652D02*
X117164093Y-110388022D01*
X117164093Y-110388022D02*
X113686760Y-109456274D01*
%TO.C,D72*%
X257001853Y-108913730D02*
X253524520Y-109845478D01*
X256199514Y-105919360D02*
X257001853Y-108913730D01*
X253524520Y-109845478D02*
X252722181Y-106851108D01*
X252722181Y-106851108D02*
X256199514Y-105919360D01*
%TO.C,D77*%
X331667109Y-107063372D02*
X335144442Y-106131624D01*
X332469448Y-110057742D02*
X331667109Y-107063372D01*
X335144442Y-106131624D02*
X335946781Y-109125994D01*
X335946781Y-109125994D02*
X332469448Y-110057742D01*
%TO.C,D110*%
X124056171Y-144360657D02*
X127533504Y-145292405D01*
X123253832Y-147355027D02*
X124056171Y-144360657D01*
X127533504Y-145292405D02*
X126731165Y-148286775D01*
X126731165Y-148286775D02*
X123253832Y-147355027D01*
%TO.C,D109*%
X104628088Y-143263690D02*
X108105421Y-144195438D01*
X103825749Y-146258060D02*
X104628088Y-143263690D01*
X108105421Y-144195438D02*
X107303082Y-147189808D01*
X107303082Y-147189808D02*
X103825749Y-146258060D01*
%TO.C,D119*%
X75838397Y-103501243D02*
X79315730Y-104432991D01*
X75036058Y-106495613D02*
X75838397Y-103501243D01*
X79315730Y-104432991D02*
X78513391Y-107427361D01*
X78513391Y-107427361D02*
X75036058Y-106495613D01*
%TD*%
M02*
