%TF.GenerationSoftware,KiCad,Pcbnew,(7.0.0)*%
%TF.CreationDate,2023-03-09T16:38:33+00:00*%
%TF.ProjectId,Honeydew,486f6e65-7964-4657-972e-6b696361645f,rev?*%
%TF.SameCoordinates,Original*%
%TF.FileFunction,Legend,Top*%
%TF.FilePolarity,Positive*%
%FSLAX46Y46*%
G04 Gerber Fmt 4.6, Leading zero omitted, Abs format (unit mm)*
G04 Created by KiCad (PCBNEW (7.0.0)) date 2023-03-09 16:38:33*
%MOMM*%
%LPD*%
G01*
G04 APERTURE LIST*
%ADD10C,0.150000*%
%ADD11C,0.300000*%
%ADD12C,0.120000*%
%ADD13C,0.100000*%
%ADD14C,2.000000*%
%ADD15R,2.500000X6.000000*%
%ADD16C,3.500000*%
%ADD17C,5.600000*%
%ADD18C,1.152000*%
%ADD19C,0.650000*%
%ADD20R,0.600000X1.450000*%
%ADD21R,0.300000X1.450000*%
%ADD22O,1.000000X2.100000*%
%ADD23O,1.000000X1.600000*%
%ADD24R,1.700000X1.700000*%
%ADD25O,1.700000X1.700000*%
%ADD26C,4.000000*%
%ADD27C,1.750000*%
%ADD28C,3.000000*%
%ADD29C,3.987800*%
%ADD30R,1.200000X1.200000*%
%ADD31C,1.200000*%
G04 APERTURE END LIST*
D10*
X149138097Y-47087380D02*
X149138097Y-46087380D01*
X149138097Y-46087380D02*
X149376192Y-46087380D01*
X149376192Y-46087380D02*
X149519049Y-46135000D01*
X149519049Y-46135000D02*
X149614287Y-46230238D01*
X149614287Y-46230238D02*
X149661906Y-46325476D01*
X149661906Y-46325476D02*
X149709525Y-46515952D01*
X149709525Y-46515952D02*
X149709525Y-46658809D01*
X149709525Y-46658809D02*
X149661906Y-46849285D01*
X149661906Y-46849285D02*
X149614287Y-46944523D01*
X149614287Y-46944523D02*
X149519049Y-47039761D01*
X149519049Y-47039761D02*
X149376192Y-47087380D01*
X149376192Y-47087380D02*
X149138097Y-47087380D01*
X150709525Y-46992142D02*
X150661906Y-47039761D01*
X150661906Y-47039761D02*
X150519049Y-47087380D01*
X150519049Y-47087380D02*
X150423811Y-47087380D01*
X150423811Y-47087380D02*
X150280954Y-47039761D01*
X150280954Y-47039761D02*
X150185716Y-46944523D01*
X150185716Y-46944523D02*
X150138097Y-46849285D01*
X150138097Y-46849285D02*
X150090478Y-46658809D01*
X150090478Y-46658809D02*
X150090478Y-46515952D01*
X150090478Y-46515952D02*
X150138097Y-46325476D01*
X150138097Y-46325476D02*
X150185716Y-46230238D01*
X150185716Y-46230238D02*
X150280954Y-46135000D01*
X150280954Y-46135000D02*
X150423811Y-46087380D01*
X150423811Y-46087380D02*
X150519049Y-46087380D01*
X150519049Y-46087380D02*
X150661906Y-46135000D01*
X150661906Y-46135000D02*
X150709525Y-46182619D01*
X148228573Y-39462381D02*
X148228573Y-38462381D01*
X148228573Y-38462381D02*
X148561906Y-39176667D01*
X148561906Y-39176667D02*
X148895239Y-38462381D01*
X148895239Y-38462381D02*
X148895239Y-39462381D01*
X149561906Y-38462381D02*
X149752382Y-38462381D01*
X149752382Y-38462381D02*
X149847620Y-38510001D01*
X149847620Y-38510001D02*
X149942858Y-38605239D01*
X149942858Y-38605239D02*
X149990477Y-38795715D01*
X149990477Y-38795715D02*
X149990477Y-39129048D01*
X149990477Y-39129048D02*
X149942858Y-39319524D01*
X149942858Y-39319524D02*
X149847620Y-39414762D01*
X149847620Y-39414762D02*
X149752382Y-39462381D01*
X149752382Y-39462381D02*
X149561906Y-39462381D01*
X149561906Y-39462381D02*
X149466668Y-39414762D01*
X149466668Y-39414762D02*
X149371430Y-39319524D01*
X149371430Y-39319524D02*
X149323811Y-39129048D01*
X149323811Y-39129048D02*
X149323811Y-38795715D01*
X149323811Y-38795715D02*
X149371430Y-38605239D01*
X149371430Y-38605239D02*
X149466668Y-38510001D01*
X149466668Y-38510001D02*
X149561906Y-38462381D01*
X150371430Y-39414762D02*
X150514287Y-39462381D01*
X150514287Y-39462381D02*
X150752382Y-39462381D01*
X150752382Y-39462381D02*
X150847620Y-39414762D01*
X150847620Y-39414762D02*
X150895239Y-39367143D01*
X150895239Y-39367143D02*
X150942858Y-39271905D01*
X150942858Y-39271905D02*
X150942858Y-39176667D01*
X150942858Y-39176667D02*
X150895239Y-39081429D01*
X150895239Y-39081429D02*
X150847620Y-39033810D01*
X150847620Y-39033810D02*
X150752382Y-38986191D01*
X150752382Y-38986191D02*
X150561906Y-38938572D01*
X150561906Y-38938572D02*
X150466668Y-38890953D01*
X150466668Y-38890953D02*
X150419049Y-38843334D01*
X150419049Y-38843334D02*
X150371430Y-38748096D01*
X150371430Y-38748096D02*
X150371430Y-38652858D01*
X150371430Y-38652858D02*
X150419049Y-38557620D01*
X150419049Y-38557620D02*
X150466668Y-38510001D01*
X150466668Y-38510001D02*
X150561906Y-38462381D01*
X150561906Y-38462381D02*
X150800001Y-38462381D01*
X150800001Y-38462381D02*
X150942858Y-38510001D01*
X151371430Y-39462381D02*
X151371430Y-38462381D01*
X172497620Y-58412380D02*
X172688096Y-58412380D01*
X172688096Y-58412380D02*
X172783334Y-58460000D01*
X172783334Y-58460000D02*
X172878572Y-58555238D01*
X172878572Y-58555238D02*
X172926191Y-58745714D01*
X172926191Y-58745714D02*
X172926191Y-59079047D01*
X172926191Y-59079047D02*
X172878572Y-59269523D01*
X172878572Y-59269523D02*
X172783334Y-59364761D01*
X172783334Y-59364761D02*
X172688096Y-59412380D01*
X172688096Y-59412380D02*
X172497620Y-59412380D01*
X172497620Y-59412380D02*
X172402382Y-59364761D01*
X172402382Y-59364761D02*
X172307144Y-59269523D01*
X172307144Y-59269523D02*
X172259525Y-59079047D01*
X172259525Y-59079047D02*
X172259525Y-58745714D01*
X172259525Y-58745714D02*
X172307144Y-58555238D01*
X172307144Y-58555238D02*
X172402382Y-58460000D01*
X172402382Y-58460000D02*
X172497620Y-58412380D01*
X173830953Y-59412380D02*
X173354763Y-59412380D01*
X173354763Y-59412380D02*
X173354763Y-58412380D01*
X174164287Y-58888571D02*
X174497620Y-58888571D01*
X174640477Y-59412380D02*
X174164287Y-59412380D01*
X174164287Y-59412380D02*
X174164287Y-58412380D01*
X174164287Y-58412380D02*
X174640477Y-58412380D01*
X175069049Y-59412380D02*
X175069049Y-58412380D01*
X175069049Y-58412380D02*
X175307144Y-58412380D01*
X175307144Y-58412380D02*
X175450001Y-58460000D01*
X175450001Y-58460000D02*
X175545239Y-58555238D01*
X175545239Y-58555238D02*
X175592858Y-58650476D01*
X175592858Y-58650476D02*
X175640477Y-58840952D01*
X175640477Y-58840952D02*
X175640477Y-58983809D01*
X175640477Y-58983809D02*
X175592858Y-59174285D01*
X175592858Y-59174285D02*
X175545239Y-59269523D01*
X175545239Y-59269523D02*
X175450001Y-59364761D01*
X175450001Y-59364761D02*
X175307144Y-59412380D01*
X175307144Y-59412380D02*
X175069049Y-59412380D01*
X149352381Y-49637380D02*
X149019048Y-49161190D01*
X148780953Y-49637380D02*
X148780953Y-48637380D01*
X148780953Y-48637380D02*
X149161905Y-48637380D01*
X149161905Y-48637380D02*
X149257143Y-48685000D01*
X149257143Y-48685000D02*
X149304762Y-48732619D01*
X149304762Y-48732619D02*
X149352381Y-48827857D01*
X149352381Y-48827857D02*
X149352381Y-48970714D01*
X149352381Y-48970714D02*
X149304762Y-49065952D01*
X149304762Y-49065952D02*
X149257143Y-49113571D01*
X149257143Y-49113571D02*
X149161905Y-49161190D01*
X149161905Y-49161190D02*
X148780953Y-49161190D01*
X149733334Y-49589761D02*
X149876191Y-49637380D01*
X149876191Y-49637380D02*
X150114286Y-49637380D01*
X150114286Y-49637380D02*
X150209524Y-49589761D01*
X150209524Y-49589761D02*
X150257143Y-49542142D01*
X150257143Y-49542142D02*
X150304762Y-49446904D01*
X150304762Y-49446904D02*
X150304762Y-49351666D01*
X150304762Y-49351666D02*
X150257143Y-49256428D01*
X150257143Y-49256428D02*
X150209524Y-49208809D01*
X150209524Y-49208809D02*
X150114286Y-49161190D01*
X150114286Y-49161190D02*
X149923810Y-49113571D01*
X149923810Y-49113571D02*
X149828572Y-49065952D01*
X149828572Y-49065952D02*
X149780953Y-49018333D01*
X149780953Y-49018333D02*
X149733334Y-48923095D01*
X149733334Y-48923095D02*
X149733334Y-48827857D01*
X149733334Y-48827857D02*
X149780953Y-48732619D01*
X149780953Y-48732619D02*
X149828572Y-48685000D01*
X149828572Y-48685000D02*
X149923810Y-48637380D01*
X149923810Y-48637380D02*
X150161905Y-48637380D01*
X150161905Y-48637380D02*
X150304762Y-48685000D01*
X150590477Y-48637380D02*
X151161905Y-48637380D01*
X150876191Y-49637380D02*
X150876191Y-48637380D01*
X149038096Y-35955003D02*
X148942858Y-35907383D01*
X148942858Y-35907383D02*
X148800001Y-35907383D01*
X148800001Y-35907383D02*
X148657144Y-35955003D01*
X148657144Y-35955003D02*
X148561906Y-36050241D01*
X148561906Y-36050241D02*
X148514287Y-36145479D01*
X148514287Y-36145479D02*
X148466668Y-36335955D01*
X148466668Y-36335955D02*
X148466668Y-36478812D01*
X148466668Y-36478812D02*
X148514287Y-36669288D01*
X148514287Y-36669288D02*
X148561906Y-36764526D01*
X148561906Y-36764526D02*
X148657144Y-36859764D01*
X148657144Y-36859764D02*
X148800001Y-36907383D01*
X148800001Y-36907383D02*
X148895239Y-36907383D01*
X148895239Y-36907383D02*
X149038096Y-36859764D01*
X149038096Y-36859764D02*
X149085715Y-36812145D01*
X149085715Y-36812145D02*
X149085715Y-36478812D01*
X149085715Y-36478812D02*
X148895239Y-36478812D01*
X149514287Y-36907383D02*
X149514287Y-35907383D01*
X149514287Y-35907383D02*
X150085715Y-36907383D01*
X150085715Y-36907383D02*
X150085715Y-35907383D01*
X150561906Y-36907383D02*
X150561906Y-35907383D01*
X150561906Y-35907383D02*
X150800001Y-35907383D01*
X150800001Y-35907383D02*
X150942858Y-35955003D01*
X150942858Y-35955003D02*
X151038096Y-36050241D01*
X151038096Y-36050241D02*
X151085715Y-36145479D01*
X151085715Y-36145479D02*
X151133334Y-36335955D01*
X151133334Y-36335955D02*
X151133334Y-36478812D01*
X151133334Y-36478812D02*
X151085715Y-36669288D01*
X151085715Y-36669288D02*
X151038096Y-36764526D01*
X151038096Y-36764526D02*
X150942858Y-36859764D01*
X150942858Y-36859764D02*
X150800001Y-36907383D01*
X150800001Y-36907383D02*
X150561906Y-36907383D01*
X148514289Y-41964762D02*
X148657146Y-42012381D01*
X148657146Y-42012381D02*
X148895241Y-42012381D01*
X148895241Y-42012381D02*
X148990479Y-41964762D01*
X148990479Y-41964762D02*
X149038098Y-41917143D01*
X149038098Y-41917143D02*
X149085717Y-41821905D01*
X149085717Y-41821905D02*
X149085717Y-41726667D01*
X149085717Y-41726667D02*
X149038098Y-41631429D01*
X149038098Y-41631429D02*
X148990479Y-41583810D01*
X148990479Y-41583810D02*
X148895241Y-41536191D01*
X148895241Y-41536191D02*
X148704765Y-41488572D01*
X148704765Y-41488572D02*
X148609527Y-41440953D01*
X148609527Y-41440953D02*
X148561908Y-41393334D01*
X148561908Y-41393334D02*
X148514289Y-41298096D01*
X148514289Y-41298096D02*
X148514289Y-41202858D01*
X148514289Y-41202858D02*
X148561908Y-41107620D01*
X148561908Y-41107620D02*
X148609527Y-41060001D01*
X148609527Y-41060001D02*
X148704765Y-41012381D01*
X148704765Y-41012381D02*
X148942860Y-41012381D01*
X148942860Y-41012381D02*
X149085717Y-41060001D01*
X150085717Y-41917143D02*
X150038098Y-41964762D01*
X150038098Y-41964762D02*
X149895241Y-42012381D01*
X149895241Y-42012381D02*
X149800003Y-42012381D01*
X149800003Y-42012381D02*
X149657146Y-41964762D01*
X149657146Y-41964762D02*
X149561908Y-41869524D01*
X149561908Y-41869524D02*
X149514289Y-41774286D01*
X149514289Y-41774286D02*
X149466670Y-41583810D01*
X149466670Y-41583810D02*
X149466670Y-41440953D01*
X149466670Y-41440953D02*
X149514289Y-41250477D01*
X149514289Y-41250477D02*
X149561908Y-41155239D01*
X149561908Y-41155239D02*
X149657146Y-41060001D01*
X149657146Y-41060001D02*
X149800003Y-41012381D01*
X149800003Y-41012381D02*
X149895241Y-41012381D01*
X149895241Y-41012381D02*
X150038098Y-41060001D01*
X150038098Y-41060001D02*
X150085717Y-41107620D01*
X150514289Y-42012381D02*
X150514289Y-41012381D01*
X151085717Y-42012381D02*
X150657146Y-41440953D01*
X151085717Y-41012381D02*
X150514289Y-41583810D01*
X172234301Y-66756905D02*
X172186681Y-66852143D01*
X172186681Y-66852143D02*
X172186681Y-66995000D01*
X172186681Y-66995000D02*
X172234301Y-67137857D01*
X172234301Y-67137857D02*
X172329539Y-67233095D01*
X172329539Y-67233095D02*
X172424777Y-67280714D01*
X172424777Y-67280714D02*
X172615253Y-67328333D01*
X172615253Y-67328333D02*
X172758110Y-67328333D01*
X172758110Y-67328333D02*
X172948586Y-67280714D01*
X172948586Y-67280714D02*
X173043824Y-67233095D01*
X173043824Y-67233095D02*
X173139062Y-67137857D01*
X173139062Y-67137857D02*
X173186681Y-66995000D01*
X173186681Y-66995000D02*
X173186681Y-66899762D01*
X173186681Y-66899762D02*
X173139062Y-66756905D01*
X173139062Y-66756905D02*
X173091443Y-66709286D01*
X173091443Y-66709286D02*
X172758110Y-66709286D01*
X172758110Y-66709286D02*
X172758110Y-66899762D01*
X173186681Y-66280714D02*
X172186681Y-66280714D01*
X172186681Y-66280714D02*
X173186681Y-65709286D01*
X173186681Y-65709286D02*
X172186681Y-65709286D01*
X173186681Y-65233095D02*
X172186681Y-65233095D01*
X172186681Y-65233095D02*
X172186681Y-64995000D01*
X172186681Y-64995000D02*
X172234301Y-64852143D01*
X172234301Y-64852143D02*
X172329539Y-64756905D01*
X172329539Y-64756905D02*
X172424777Y-64709286D01*
X172424777Y-64709286D02*
X172615253Y-64661667D01*
X172615253Y-64661667D02*
X172758110Y-64661667D01*
X172758110Y-64661667D02*
X172948586Y-64709286D01*
X172948586Y-64709286D02*
X173043824Y-64756905D01*
X173043824Y-64756905D02*
X173139062Y-64852143D01*
X173139062Y-64852143D02*
X173186681Y-64995000D01*
X173186681Y-64995000D02*
X173186681Y-65233095D01*
X175621442Y-66590238D02*
X175669061Y-66637857D01*
X175669061Y-66637857D02*
X175716680Y-66780714D01*
X175716680Y-66780714D02*
X175716680Y-66875952D01*
X175716680Y-66875952D02*
X175669061Y-67018809D01*
X175669061Y-67018809D02*
X175573823Y-67114047D01*
X175573823Y-67114047D02*
X175478585Y-67161666D01*
X175478585Y-67161666D02*
X175288109Y-67209285D01*
X175288109Y-67209285D02*
X175145252Y-67209285D01*
X175145252Y-67209285D02*
X174954776Y-67161666D01*
X174954776Y-67161666D02*
X174859538Y-67114047D01*
X174859538Y-67114047D02*
X174764300Y-67018809D01*
X174764300Y-67018809D02*
X174716680Y-66875952D01*
X174716680Y-66875952D02*
X174716680Y-66780714D01*
X174716680Y-66780714D02*
X174764300Y-66637857D01*
X174764300Y-66637857D02*
X174811919Y-66590238D01*
X175716680Y-65685476D02*
X175716680Y-66161666D01*
X175716680Y-66161666D02*
X174716680Y-66161666D01*
X175716680Y-65352142D02*
X174716680Y-65352142D01*
X175716680Y-64780714D02*
X175145252Y-65209285D01*
X174716680Y-64780714D02*
X175288109Y-65352142D01*
X170529061Y-67352142D02*
X170576680Y-67209285D01*
X170576680Y-67209285D02*
X170576680Y-66971190D01*
X170576680Y-66971190D02*
X170529061Y-66875952D01*
X170529061Y-66875952D02*
X170481442Y-66828333D01*
X170481442Y-66828333D02*
X170386204Y-66780714D01*
X170386204Y-66780714D02*
X170290966Y-66780714D01*
X170290966Y-66780714D02*
X170195728Y-66828333D01*
X170195728Y-66828333D02*
X170148109Y-66875952D01*
X170148109Y-66875952D02*
X170100490Y-66971190D01*
X170100490Y-66971190D02*
X170052871Y-67161666D01*
X170052871Y-67161666D02*
X170005252Y-67256904D01*
X170005252Y-67256904D02*
X169957633Y-67304523D01*
X169957633Y-67304523D02*
X169862395Y-67352142D01*
X169862395Y-67352142D02*
X169767157Y-67352142D01*
X169767157Y-67352142D02*
X169671919Y-67304523D01*
X169671919Y-67304523D02*
X169624300Y-67256904D01*
X169624300Y-67256904D02*
X169576680Y-67161666D01*
X169576680Y-67161666D02*
X169576680Y-66923571D01*
X169576680Y-66923571D02*
X169624300Y-66780714D01*
X169576680Y-66447380D02*
X170576680Y-66209285D01*
X170576680Y-66209285D02*
X169862395Y-66018809D01*
X169862395Y-66018809D02*
X170576680Y-65828333D01*
X170576680Y-65828333D02*
X169576680Y-65590238D01*
X170576680Y-65209285D02*
X169576680Y-65209285D01*
X169576680Y-65209285D02*
X169576680Y-64971190D01*
X169576680Y-64971190D02*
X169624300Y-64828333D01*
X169624300Y-64828333D02*
X169719538Y-64733095D01*
X169719538Y-64733095D02*
X169814776Y-64685476D01*
X169814776Y-64685476D02*
X170005252Y-64637857D01*
X170005252Y-64637857D02*
X170148109Y-64637857D01*
X170148109Y-64637857D02*
X170338585Y-64685476D01*
X170338585Y-64685476D02*
X170433823Y-64733095D01*
X170433823Y-64733095D02*
X170529061Y-64828333D01*
X170529061Y-64828333D02*
X170576680Y-64971190D01*
X170576680Y-64971190D02*
X170576680Y-65209285D01*
X177286680Y-67233094D02*
X177286680Y-66614047D01*
X177286680Y-66614047D02*
X177667633Y-66947380D01*
X177667633Y-66947380D02*
X177667633Y-66804523D01*
X177667633Y-66804523D02*
X177715252Y-66709285D01*
X177715252Y-66709285D02*
X177762871Y-66661666D01*
X177762871Y-66661666D02*
X177858109Y-66614047D01*
X177858109Y-66614047D02*
X178096204Y-66614047D01*
X178096204Y-66614047D02*
X178191442Y-66661666D01*
X178191442Y-66661666D02*
X178239061Y-66709285D01*
X178239061Y-66709285D02*
X178286680Y-66804523D01*
X178286680Y-66804523D02*
X178286680Y-67090237D01*
X178286680Y-67090237D02*
X178239061Y-67185475D01*
X178239061Y-67185475D02*
X178191442Y-67233094D01*
X177286680Y-66328332D02*
X178286680Y-65994999D01*
X178286680Y-65994999D02*
X177286680Y-65661666D01*
X177286680Y-65423570D02*
X177286680Y-64804523D01*
X177286680Y-64804523D02*
X177667633Y-65137856D01*
X177667633Y-65137856D02*
X177667633Y-64994999D01*
X177667633Y-64994999D02*
X177715252Y-64899761D01*
X177715252Y-64899761D02*
X177762871Y-64852142D01*
X177762871Y-64852142D02*
X177858109Y-64804523D01*
X177858109Y-64804523D02*
X178096204Y-64804523D01*
X178096204Y-64804523D02*
X178191442Y-64852142D01*
X178191442Y-64852142D02*
X178239061Y-64899761D01*
X178239061Y-64899761D02*
X178286680Y-64994999D01*
X178286680Y-64994999D02*
X178286680Y-65280713D01*
X178286680Y-65280713D02*
X178239061Y-65375951D01*
X178239061Y-65375951D02*
X178191442Y-65423570D01*
X171211905Y-161288572D02*
X171545238Y-161288572D01*
X171688095Y-161812381D02*
X171211905Y-161812381D01*
X171211905Y-161812381D02*
X171211905Y-160812381D01*
X171211905Y-160812381D02*
X171688095Y-160812381D01*
X172116667Y-161145715D02*
X172116667Y-161812381D01*
X172116667Y-161240953D02*
X172164286Y-161193334D01*
X172164286Y-161193334D02*
X172259524Y-161145715D01*
X172259524Y-161145715D02*
X172402381Y-161145715D01*
X172402381Y-161145715D02*
X172497619Y-161193334D01*
X172497619Y-161193334D02*
X172545238Y-161288572D01*
X172545238Y-161288572D02*
X172545238Y-161812381D01*
X173450000Y-161764762D02*
X173354762Y-161812381D01*
X173354762Y-161812381D02*
X173164286Y-161812381D01*
X173164286Y-161812381D02*
X173069048Y-161764762D01*
X173069048Y-161764762D02*
X173021429Y-161717143D01*
X173021429Y-161717143D02*
X172973810Y-161621905D01*
X172973810Y-161621905D02*
X172973810Y-161336191D01*
X172973810Y-161336191D02*
X173021429Y-161240953D01*
X173021429Y-161240953D02*
X173069048Y-161193334D01*
X173069048Y-161193334D02*
X173164286Y-161145715D01*
X173164286Y-161145715D02*
X173354762Y-161145715D01*
X173354762Y-161145715D02*
X173450000Y-161193334D01*
X174021429Y-161812381D02*
X173926191Y-161764762D01*
X173926191Y-161764762D02*
X173878572Y-161717143D01*
X173878572Y-161717143D02*
X173830953Y-161621905D01*
X173830953Y-161621905D02*
X173830953Y-161336191D01*
X173830953Y-161336191D02*
X173878572Y-161240953D01*
X173878572Y-161240953D02*
X173926191Y-161193334D01*
X173926191Y-161193334D02*
X174021429Y-161145715D01*
X174021429Y-161145715D02*
X174164286Y-161145715D01*
X174164286Y-161145715D02*
X174259524Y-161193334D01*
X174259524Y-161193334D02*
X174307143Y-161240953D01*
X174307143Y-161240953D02*
X174354762Y-161336191D01*
X174354762Y-161336191D02*
X174354762Y-161621905D01*
X174354762Y-161621905D02*
X174307143Y-161717143D01*
X174307143Y-161717143D02*
X174259524Y-161764762D01*
X174259524Y-161764762D02*
X174164286Y-161812381D01*
X174164286Y-161812381D02*
X174021429Y-161812381D01*
X175211905Y-161812381D02*
X175211905Y-160812381D01*
X175211905Y-161764762D02*
X175116667Y-161812381D01*
X175116667Y-161812381D02*
X174926191Y-161812381D01*
X174926191Y-161812381D02*
X174830953Y-161764762D01*
X174830953Y-161764762D02*
X174783334Y-161717143D01*
X174783334Y-161717143D02*
X174735715Y-161621905D01*
X174735715Y-161621905D02*
X174735715Y-161336191D01*
X174735715Y-161336191D02*
X174783334Y-161240953D01*
X174783334Y-161240953D02*
X174830953Y-161193334D01*
X174830953Y-161193334D02*
X174926191Y-161145715D01*
X174926191Y-161145715D02*
X175116667Y-161145715D01*
X175116667Y-161145715D02*
X175211905Y-161193334D01*
X176069048Y-161764762D02*
X175973810Y-161812381D01*
X175973810Y-161812381D02*
X175783334Y-161812381D01*
X175783334Y-161812381D02*
X175688096Y-161764762D01*
X175688096Y-161764762D02*
X175640477Y-161669524D01*
X175640477Y-161669524D02*
X175640477Y-161288572D01*
X175640477Y-161288572D02*
X175688096Y-161193334D01*
X175688096Y-161193334D02*
X175783334Y-161145715D01*
X175783334Y-161145715D02*
X175973810Y-161145715D01*
X175973810Y-161145715D02*
X176069048Y-161193334D01*
X176069048Y-161193334D02*
X176116667Y-161288572D01*
X176116667Y-161288572D02*
X176116667Y-161383810D01*
X176116667Y-161383810D02*
X175640477Y-161479048D01*
X176545239Y-161812381D02*
X176545239Y-161145715D01*
X176545239Y-161336191D02*
X176592858Y-161240953D01*
X176592858Y-161240953D02*
X176640477Y-161193334D01*
X176640477Y-161193334D02*
X176735715Y-161145715D01*
X176735715Y-161145715D02*
X176830953Y-161145715D01*
D11*
X164137681Y-117758656D02*
X164137681Y-115758656D01*
X164137681Y-116711037D02*
X165280538Y-116711037D01*
X165280538Y-117758656D02*
X165280538Y-115758656D01*
X166518633Y-117758656D02*
X166328157Y-117663418D01*
X166328157Y-117663418D02*
X166232919Y-117568180D01*
X166232919Y-117568180D02*
X166137681Y-117377704D01*
X166137681Y-117377704D02*
X166137681Y-116806275D01*
X166137681Y-116806275D02*
X166232919Y-116615799D01*
X166232919Y-116615799D02*
X166328157Y-116520561D01*
X166328157Y-116520561D02*
X166518633Y-116425323D01*
X166518633Y-116425323D02*
X166804348Y-116425323D01*
X166804348Y-116425323D02*
X166994824Y-116520561D01*
X166994824Y-116520561D02*
X167090062Y-116615799D01*
X167090062Y-116615799D02*
X167185300Y-116806275D01*
X167185300Y-116806275D02*
X167185300Y-117377704D01*
X167185300Y-117377704D02*
X167090062Y-117568180D01*
X167090062Y-117568180D02*
X166994824Y-117663418D01*
X166994824Y-117663418D02*
X166804348Y-117758656D01*
X166804348Y-117758656D02*
X166518633Y-117758656D01*
X168042443Y-116425323D02*
X168042443Y-117758656D01*
X168042443Y-116615799D02*
X168137681Y-116520561D01*
X168137681Y-116520561D02*
X168328157Y-116425323D01*
X168328157Y-116425323D02*
X168613872Y-116425323D01*
X168613872Y-116425323D02*
X168804348Y-116520561D01*
X168804348Y-116520561D02*
X168899586Y-116711037D01*
X168899586Y-116711037D02*
X168899586Y-117758656D01*
X170613872Y-117663418D02*
X170423396Y-117758656D01*
X170423396Y-117758656D02*
X170042443Y-117758656D01*
X170042443Y-117758656D02*
X169851967Y-117663418D01*
X169851967Y-117663418D02*
X169756729Y-117472942D01*
X169756729Y-117472942D02*
X169756729Y-116711037D01*
X169756729Y-116711037D02*
X169851967Y-116520561D01*
X169851967Y-116520561D02*
X170042443Y-116425323D01*
X170042443Y-116425323D02*
X170423396Y-116425323D01*
X170423396Y-116425323D02*
X170613872Y-116520561D01*
X170613872Y-116520561D02*
X170709110Y-116711037D01*
X170709110Y-116711037D02*
X170709110Y-116901514D01*
X170709110Y-116901514D02*
X169756729Y-117091990D01*
X171375777Y-116425323D02*
X171851967Y-117758656D01*
X172328158Y-116425323D02*
X171851967Y-117758656D01*
X171851967Y-117758656D02*
X171661491Y-118234847D01*
X171661491Y-118234847D02*
X171566253Y-118330085D01*
X171566253Y-118330085D02*
X171375777Y-118425323D01*
X173947206Y-117758656D02*
X173947206Y-115758656D01*
X173947206Y-117663418D02*
X173756730Y-117758656D01*
X173756730Y-117758656D02*
X173375777Y-117758656D01*
X173375777Y-117758656D02*
X173185301Y-117663418D01*
X173185301Y-117663418D02*
X173090063Y-117568180D01*
X173090063Y-117568180D02*
X172994825Y-117377704D01*
X172994825Y-117377704D02*
X172994825Y-116806275D01*
X172994825Y-116806275D02*
X173090063Y-116615799D01*
X173090063Y-116615799D02*
X173185301Y-116520561D01*
X173185301Y-116520561D02*
X173375777Y-116425323D01*
X173375777Y-116425323D02*
X173756730Y-116425323D01*
X173756730Y-116425323D02*
X173947206Y-116520561D01*
X175661492Y-117663418D02*
X175471016Y-117758656D01*
X175471016Y-117758656D02*
X175090063Y-117758656D01*
X175090063Y-117758656D02*
X174899587Y-117663418D01*
X174899587Y-117663418D02*
X174804349Y-117472942D01*
X174804349Y-117472942D02*
X174804349Y-116711037D01*
X174804349Y-116711037D02*
X174899587Y-116520561D01*
X174899587Y-116520561D02*
X175090063Y-116425323D01*
X175090063Y-116425323D02*
X175471016Y-116425323D01*
X175471016Y-116425323D02*
X175661492Y-116520561D01*
X175661492Y-116520561D02*
X175756730Y-116711037D01*
X175756730Y-116711037D02*
X175756730Y-116901514D01*
X175756730Y-116901514D02*
X174804349Y-117091990D01*
X176423397Y-116425323D02*
X176804349Y-117758656D01*
X176804349Y-117758656D02*
X177185302Y-116806275D01*
X177185302Y-116806275D02*
X177566254Y-117758656D01*
X177566254Y-117758656D02*
X177947206Y-116425323D01*
X179623397Y-115758656D02*
X180290063Y-117758656D01*
X180290063Y-117758656D02*
X180956730Y-115758656D01*
X182671016Y-117758656D02*
X181528159Y-117758656D01*
X182099587Y-117758656D02*
X182099587Y-115758656D01*
X182099587Y-115758656D02*
X181909111Y-116044371D01*
X181909111Y-116044371D02*
X181718635Y-116234847D01*
X181718635Y-116234847D02*
X181528159Y-116330085D01*
X183528159Y-117568180D02*
X183623397Y-117663418D01*
X183623397Y-117663418D02*
X183528159Y-117758656D01*
X183528159Y-117758656D02*
X183432921Y-117663418D01*
X183432921Y-117663418D02*
X183528159Y-117568180D01*
X183528159Y-117568180D02*
X183528159Y-117758656D01*
X184861492Y-115758656D02*
X185051969Y-115758656D01*
X185051969Y-115758656D02*
X185242445Y-115853895D01*
X185242445Y-115853895D02*
X185337683Y-115949133D01*
X185337683Y-115949133D02*
X185432921Y-116139609D01*
X185432921Y-116139609D02*
X185528159Y-116520561D01*
X185528159Y-116520561D02*
X185528159Y-116996752D01*
X185528159Y-116996752D02*
X185432921Y-117377704D01*
X185432921Y-117377704D02*
X185337683Y-117568180D01*
X185337683Y-117568180D02*
X185242445Y-117663418D01*
X185242445Y-117663418D02*
X185051969Y-117758656D01*
X185051969Y-117758656D02*
X184861492Y-117758656D01*
X184861492Y-117758656D02*
X184671016Y-117663418D01*
X184671016Y-117663418D02*
X184575778Y-117568180D01*
X184575778Y-117568180D02*
X184480540Y-117377704D01*
X184480540Y-117377704D02*
X184385302Y-116996752D01*
X184385302Y-116996752D02*
X184385302Y-116520561D01*
X184385302Y-116520561D02*
X184480540Y-116139609D01*
X184480540Y-116139609D02*
X184575778Y-115949133D01*
X184575778Y-115949133D02*
X184671016Y-115853895D01*
X184671016Y-115853895D02*
X184861492Y-115758656D01*
D10*
X170640475Y-120812381D02*
X171211903Y-120812381D01*
X170926189Y-121812381D02*
X170926189Y-120812381D01*
X171545237Y-121812381D02*
X171545237Y-121145715D01*
X171545237Y-121336191D02*
X171592856Y-121240953D01*
X171592856Y-121240953D02*
X171640475Y-121193334D01*
X171640475Y-121193334D02*
X171735713Y-121145715D01*
X171735713Y-121145715D02*
X171830951Y-121145715D01*
X172592856Y-121812381D02*
X172592856Y-121288572D01*
X172592856Y-121288572D02*
X172545237Y-121193334D01*
X172545237Y-121193334D02*
X172449999Y-121145715D01*
X172449999Y-121145715D02*
X172259523Y-121145715D01*
X172259523Y-121145715D02*
X172164285Y-121193334D01*
X172592856Y-121764762D02*
X172497618Y-121812381D01*
X172497618Y-121812381D02*
X172259523Y-121812381D01*
X172259523Y-121812381D02*
X172164285Y-121764762D01*
X172164285Y-121764762D02*
X172116666Y-121669524D01*
X172116666Y-121669524D02*
X172116666Y-121574286D01*
X172116666Y-121574286D02*
X172164285Y-121479048D01*
X172164285Y-121479048D02*
X172259523Y-121431429D01*
X172259523Y-121431429D02*
X172497618Y-121431429D01*
X172497618Y-121431429D02*
X172592856Y-121383810D01*
X173497618Y-121764762D02*
X173402380Y-121812381D01*
X173402380Y-121812381D02*
X173211904Y-121812381D01*
X173211904Y-121812381D02*
X173116666Y-121764762D01*
X173116666Y-121764762D02*
X173069047Y-121717143D01*
X173069047Y-121717143D02*
X173021428Y-121621905D01*
X173021428Y-121621905D02*
X173021428Y-121336191D01*
X173021428Y-121336191D02*
X173069047Y-121240953D01*
X173069047Y-121240953D02*
X173116666Y-121193334D01*
X173116666Y-121193334D02*
X173211904Y-121145715D01*
X173211904Y-121145715D02*
X173402380Y-121145715D01*
X173402380Y-121145715D02*
X173497618Y-121193334D01*
X173926190Y-121812381D02*
X173926190Y-120812381D01*
X174021428Y-121431429D02*
X174307142Y-121812381D01*
X174307142Y-121145715D02*
X173926190Y-121526667D01*
X174735714Y-121812381D02*
X174735714Y-120812381D01*
X174735714Y-121193334D02*
X174830952Y-121145715D01*
X174830952Y-121145715D02*
X175021428Y-121145715D01*
X175021428Y-121145715D02*
X175116666Y-121193334D01*
X175116666Y-121193334D02*
X175164285Y-121240953D01*
X175164285Y-121240953D02*
X175211904Y-121336191D01*
X175211904Y-121336191D02*
X175211904Y-121621905D01*
X175211904Y-121621905D02*
X175164285Y-121717143D01*
X175164285Y-121717143D02*
X175116666Y-121764762D01*
X175116666Y-121764762D02*
X175021428Y-121812381D01*
X175021428Y-121812381D02*
X174830952Y-121812381D01*
X174830952Y-121812381D02*
X174735714Y-121764762D01*
X176069047Y-121812381D02*
X176069047Y-121288572D01*
X176069047Y-121288572D02*
X176021428Y-121193334D01*
X176021428Y-121193334D02*
X175926190Y-121145715D01*
X175926190Y-121145715D02*
X175735714Y-121145715D01*
X175735714Y-121145715D02*
X175640476Y-121193334D01*
X176069047Y-121764762D02*
X175973809Y-121812381D01*
X175973809Y-121812381D02*
X175735714Y-121812381D01*
X175735714Y-121812381D02*
X175640476Y-121764762D01*
X175640476Y-121764762D02*
X175592857Y-121669524D01*
X175592857Y-121669524D02*
X175592857Y-121574286D01*
X175592857Y-121574286D02*
X175640476Y-121479048D01*
X175640476Y-121479048D02*
X175735714Y-121431429D01*
X175735714Y-121431429D02*
X175973809Y-121431429D01*
X175973809Y-121431429D02*
X176069047Y-121383810D01*
X176688095Y-121812381D02*
X176592857Y-121764762D01*
X176592857Y-121764762D02*
X176545238Y-121669524D01*
X176545238Y-121669524D02*
X176545238Y-120812381D01*
X177211905Y-121812381D02*
X177116667Y-121764762D01*
X177116667Y-121764762D02*
X177069048Y-121669524D01*
X177069048Y-121669524D02*
X177069048Y-120812381D01*
X148561905Y-33412380D02*
X149180952Y-33412380D01*
X149180952Y-33412380D02*
X148847619Y-33793333D01*
X148847619Y-33793333D02*
X148990476Y-33793333D01*
X148990476Y-33793333D02*
X149085714Y-33840952D01*
X149085714Y-33840952D02*
X149133333Y-33888571D01*
X149133333Y-33888571D02*
X149180952Y-33983809D01*
X149180952Y-33983809D02*
X149180952Y-34221904D01*
X149180952Y-34221904D02*
X149133333Y-34317142D01*
X149133333Y-34317142D02*
X149085714Y-34364761D01*
X149085714Y-34364761D02*
X148990476Y-34412380D01*
X148990476Y-34412380D02*
X148704762Y-34412380D01*
X148704762Y-34412380D02*
X148609524Y-34364761D01*
X148609524Y-34364761D02*
X148561905Y-34317142D01*
X149466667Y-33412380D02*
X149800000Y-34412380D01*
X149800000Y-34412380D02*
X150133333Y-33412380D01*
X150371429Y-33412380D02*
X150990476Y-33412380D01*
X150990476Y-33412380D02*
X150657143Y-33793333D01*
X150657143Y-33793333D02*
X150800000Y-33793333D01*
X150800000Y-33793333D02*
X150895238Y-33840952D01*
X150895238Y-33840952D02*
X150942857Y-33888571D01*
X150942857Y-33888571D02*
X150990476Y-33983809D01*
X150990476Y-33983809D02*
X150990476Y-34221904D01*
X150990476Y-34221904D02*
X150942857Y-34317142D01*
X150942857Y-34317142D02*
X150895238Y-34364761D01*
X150895238Y-34364761D02*
X150800000Y-34412380D01*
X150800000Y-34412380D02*
X150514286Y-34412380D01*
X150514286Y-34412380D02*
X150419048Y-34364761D01*
X150419048Y-34364761D02*
X150371429Y-34317142D01*
X170711904Y-109812380D02*
X171283332Y-109812380D01*
X170997618Y-110812380D02*
X170997618Y-109812380D01*
X171616666Y-110812380D02*
X171616666Y-110145714D01*
X171616666Y-110336190D02*
X171664285Y-110240952D01*
X171664285Y-110240952D02*
X171711904Y-110193333D01*
X171711904Y-110193333D02*
X171807142Y-110145714D01*
X171807142Y-110145714D02*
X171902380Y-110145714D01*
X172664285Y-110812380D02*
X172664285Y-110288571D01*
X172664285Y-110288571D02*
X172616666Y-110193333D01*
X172616666Y-110193333D02*
X172521428Y-110145714D01*
X172521428Y-110145714D02*
X172330952Y-110145714D01*
X172330952Y-110145714D02*
X172235714Y-110193333D01*
X172664285Y-110764761D02*
X172569047Y-110812380D01*
X172569047Y-110812380D02*
X172330952Y-110812380D01*
X172330952Y-110812380D02*
X172235714Y-110764761D01*
X172235714Y-110764761D02*
X172188095Y-110669523D01*
X172188095Y-110669523D02*
X172188095Y-110574285D01*
X172188095Y-110574285D02*
X172235714Y-110479047D01*
X172235714Y-110479047D02*
X172330952Y-110431428D01*
X172330952Y-110431428D02*
X172569047Y-110431428D01*
X172569047Y-110431428D02*
X172664285Y-110383809D01*
X173569047Y-110764761D02*
X173473809Y-110812380D01*
X173473809Y-110812380D02*
X173283333Y-110812380D01*
X173283333Y-110812380D02*
X173188095Y-110764761D01*
X173188095Y-110764761D02*
X173140476Y-110717142D01*
X173140476Y-110717142D02*
X173092857Y-110621904D01*
X173092857Y-110621904D02*
X173092857Y-110336190D01*
X173092857Y-110336190D02*
X173140476Y-110240952D01*
X173140476Y-110240952D02*
X173188095Y-110193333D01*
X173188095Y-110193333D02*
X173283333Y-110145714D01*
X173283333Y-110145714D02*
X173473809Y-110145714D01*
X173473809Y-110145714D02*
X173569047Y-110193333D01*
X173997619Y-110812380D02*
X173997619Y-109812380D01*
X174092857Y-110431428D02*
X174378571Y-110812380D01*
X174378571Y-110145714D02*
X173997619Y-110526666D01*
X174807143Y-110145714D02*
X174807143Y-111145714D01*
X174807143Y-110193333D02*
X174902381Y-110145714D01*
X174902381Y-110145714D02*
X175092857Y-110145714D01*
X175092857Y-110145714D02*
X175188095Y-110193333D01*
X175188095Y-110193333D02*
X175235714Y-110240952D01*
X175235714Y-110240952D02*
X175283333Y-110336190D01*
X175283333Y-110336190D02*
X175283333Y-110621904D01*
X175283333Y-110621904D02*
X175235714Y-110717142D01*
X175235714Y-110717142D02*
X175188095Y-110764761D01*
X175188095Y-110764761D02*
X175092857Y-110812380D01*
X175092857Y-110812380D02*
X174902381Y-110812380D01*
X174902381Y-110812380D02*
X174807143Y-110764761D01*
X176140476Y-110812380D02*
X176140476Y-110288571D01*
X176140476Y-110288571D02*
X176092857Y-110193333D01*
X176092857Y-110193333D02*
X175997619Y-110145714D01*
X175997619Y-110145714D02*
X175807143Y-110145714D01*
X175807143Y-110145714D02*
X175711905Y-110193333D01*
X176140476Y-110764761D02*
X176045238Y-110812380D01*
X176045238Y-110812380D02*
X175807143Y-110812380D01*
X175807143Y-110812380D02*
X175711905Y-110764761D01*
X175711905Y-110764761D02*
X175664286Y-110669523D01*
X175664286Y-110669523D02*
X175664286Y-110574285D01*
X175664286Y-110574285D02*
X175711905Y-110479047D01*
X175711905Y-110479047D02*
X175807143Y-110431428D01*
X175807143Y-110431428D02*
X176045238Y-110431428D01*
X176045238Y-110431428D02*
X176140476Y-110383809D01*
X177045238Y-110812380D02*
X177045238Y-109812380D01*
X177045238Y-110764761D02*
X176950000Y-110812380D01*
X176950000Y-110812380D02*
X176759524Y-110812380D01*
X176759524Y-110812380D02*
X176664286Y-110764761D01*
X176664286Y-110764761D02*
X176616667Y-110717142D01*
X176616667Y-110717142D02*
X176569048Y-110621904D01*
X176569048Y-110621904D02*
X176569048Y-110336190D01*
X176569048Y-110336190D02*
X176616667Y-110240952D01*
X176616667Y-110240952D02*
X176664286Y-110193333D01*
X176664286Y-110193333D02*
X176759524Y-110145714D01*
X176759524Y-110145714D02*
X176950000Y-110145714D01*
X176950000Y-110145714D02*
X177045238Y-110193333D01*
X179352382Y-63462380D02*
X179352382Y-62462380D01*
X179352382Y-62462380D02*
X179590477Y-62462380D01*
X179590477Y-62462380D02*
X179733334Y-62510000D01*
X179733334Y-62510000D02*
X179828572Y-62605238D01*
X179828572Y-62605238D02*
X179876191Y-62700476D01*
X179876191Y-62700476D02*
X179923810Y-62890952D01*
X179923810Y-62890952D02*
X179923810Y-63033809D01*
X179923810Y-63033809D02*
X179876191Y-63224285D01*
X179876191Y-63224285D02*
X179828572Y-63319523D01*
X179828572Y-63319523D02*
X179733334Y-63414761D01*
X179733334Y-63414761D02*
X179590477Y-63462380D01*
X179590477Y-63462380D02*
X179352382Y-63462380D01*
X180733334Y-63414761D02*
X180638096Y-63462380D01*
X180638096Y-63462380D02*
X180447620Y-63462380D01*
X180447620Y-63462380D02*
X180352382Y-63414761D01*
X180352382Y-63414761D02*
X180304763Y-63319523D01*
X180304763Y-63319523D02*
X180304763Y-62938571D01*
X180304763Y-62938571D02*
X180352382Y-62843333D01*
X180352382Y-62843333D02*
X180447620Y-62795714D01*
X180447620Y-62795714D02*
X180638096Y-62795714D01*
X180638096Y-62795714D02*
X180733334Y-62843333D01*
X180733334Y-62843333D02*
X180780953Y-62938571D01*
X180780953Y-62938571D02*
X180780953Y-63033809D01*
X180780953Y-63033809D02*
X180304763Y-63129047D01*
X181209525Y-63462380D02*
X181209525Y-62462380D01*
X181209525Y-62843333D02*
X181304763Y-62795714D01*
X181304763Y-62795714D02*
X181495239Y-62795714D01*
X181495239Y-62795714D02*
X181590477Y-62843333D01*
X181590477Y-62843333D02*
X181638096Y-62890952D01*
X181638096Y-62890952D02*
X181685715Y-62986190D01*
X181685715Y-62986190D02*
X181685715Y-63271904D01*
X181685715Y-63271904D02*
X181638096Y-63367142D01*
X181638096Y-63367142D02*
X181590477Y-63414761D01*
X181590477Y-63414761D02*
X181495239Y-63462380D01*
X181495239Y-63462380D02*
X181304763Y-63462380D01*
X181304763Y-63462380D02*
X181209525Y-63414761D01*
X182542858Y-62795714D02*
X182542858Y-63462380D01*
X182114287Y-62795714D02*
X182114287Y-63319523D01*
X182114287Y-63319523D02*
X182161906Y-63414761D01*
X182161906Y-63414761D02*
X182257144Y-63462380D01*
X182257144Y-63462380D02*
X182400001Y-63462380D01*
X182400001Y-63462380D02*
X182495239Y-63414761D01*
X182495239Y-63414761D02*
X182542858Y-63367142D01*
X183447620Y-62795714D02*
X183447620Y-63605238D01*
X183447620Y-63605238D02*
X183400001Y-63700476D01*
X183400001Y-63700476D02*
X183352382Y-63748095D01*
X183352382Y-63748095D02*
X183257144Y-63795714D01*
X183257144Y-63795714D02*
X183114287Y-63795714D01*
X183114287Y-63795714D02*
X183019049Y-63748095D01*
X183447620Y-63414761D02*
X183352382Y-63462380D01*
X183352382Y-63462380D02*
X183161906Y-63462380D01*
X183161906Y-63462380D02*
X183066668Y-63414761D01*
X183066668Y-63414761D02*
X183019049Y-63367142D01*
X183019049Y-63367142D02*
X182971430Y-63271904D01*
X182971430Y-63271904D02*
X182971430Y-62986190D01*
X182971430Y-62986190D02*
X183019049Y-62890952D01*
X183019049Y-62890952D02*
X183066668Y-62843333D01*
X183066668Y-62843333D02*
X183161906Y-62795714D01*
X183161906Y-62795714D02*
X183352382Y-62795714D01*
X183352382Y-62795714D02*
X183447620Y-62843333D01*
X149683334Y-44442143D02*
X149635715Y-44489762D01*
X149635715Y-44489762D02*
X149492858Y-44537381D01*
X149492858Y-44537381D02*
X149397620Y-44537381D01*
X149397620Y-44537381D02*
X149254763Y-44489762D01*
X149254763Y-44489762D02*
X149159525Y-44394524D01*
X149159525Y-44394524D02*
X149111906Y-44299286D01*
X149111906Y-44299286D02*
X149064287Y-44108810D01*
X149064287Y-44108810D02*
X149064287Y-43965953D01*
X149064287Y-43965953D02*
X149111906Y-43775477D01*
X149111906Y-43775477D02*
X149159525Y-43680239D01*
X149159525Y-43680239D02*
X149254763Y-43585001D01*
X149254763Y-43585001D02*
X149397620Y-43537381D01*
X149397620Y-43537381D02*
X149492858Y-43537381D01*
X149492858Y-43537381D02*
X149635715Y-43585001D01*
X149635715Y-43585001D02*
X149683334Y-43632620D01*
X150064287Y-44489762D02*
X150207144Y-44537381D01*
X150207144Y-44537381D02*
X150445239Y-44537381D01*
X150445239Y-44537381D02*
X150540477Y-44489762D01*
X150540477Y-44489762D02*
X150588096Y-44442143D01*
X150588096Y-44442143D02*
X150635715Y-44346905D01*
X150635715Y-44346905D02*
X150635715Y-44251667D01*
X150635715Y-44251667D02*
X150588096Y-44156429D01*
X150588096Y-44156429D02*
X150540477Y-44108810D01*
X150540477Y-44108810D02*
X150445239Y-44061191D01*
X150445239Y-44061191D02*
X150254763Y-44013572D01*
X150254763Y-44013572D02*
X150159525Y-43965953D01*
X150159525Y-43965953D02*
X150111906Y-43918334D01*
X150111906Y-43918334D02*
X150064287Y-43823096D01*
X150064287Y-43823096D02*
X150064287Y-43727858D01*
X150064287Y-43727858D02*
X150111906Y-43632620D01*
X150111906Y-43632620D02*
X150159525Y-43585001D01*
X150159525Y-43585001D02*
X150254763Y-43537381D01*
X150254763Y-43537381D02*
X150492858Y-43537381D01*
X150492858Y-43537381D02*
X150635715Y-43585001D01*
%TO.C,J2*%
X173616666Y-24662380D02*
X173616666Y-25376666D01*
X173616666Y-25376666D02*
X173569047Y-25519523D01*
X173569047Y-25519523D02*
X173473809Y-25614761D01*
X173473809Y-25614761D02*
X173330952Y-25662380D01*
X173330952Y-25662380D02*
X173235714Y-25662380D01*
X174045238Y-24757619D02*
X174092857Y-24710000D01*
X174092857Y-24710000D02*
X174188095Y-24662380D01*
X174188095Y-24662380D02*
X174426190Y-24662380D01*
X174426190Y-24662380D02*
X174521428Y-24710000D01*
X174521428Y-24710000D02*
X174569047Y-24757619D01*
X174569047Y-24757619D02*
X174616666Y-24852857D01*
X174616666Y-24852857D02*
X174616666Y-24948095D01*
X174616666Y-24948095D02*
X174569047Y-25090952D01*
X174569047Y-25090952D02*
X173997619Y-25662380D01*
X173997619Y-25662380D02*
X174616666Y-25662380D01*
%TO.C,J4*%
X173216672Y-20263011D02*
X173216672Y-20977297D01*
X173216672Y-20977297D02*
X173169053Y-21120154D01*
X173169053Y-21120154D02*
X173073815Y-21215392D01*
X173073815Y-21215392D02*
X172930958Y-21263011D01*
X172930958Y-21263011D02*
X172835720Y-21263011D01*
X174121434Y-20596345D02*
X174121434Y-21263011D01*
X173883339Y-20215392D02*
X173645244Y-20929678D01*
X173645244Y-20929678D02*
X174264291Y-20929678D01*
%TO.C,J1*%
X167486663Y-62412380D02*
X167486663Y-63126666D01*
X167486663Y-63126666D02*
X167439044Y-63269523D01*
X167439044Y-63269523D02*
X167343806Y-63364761D01*
X167343806Y-63364761D02*
X167200949Y-63412380D01*
X167200949Y-63412380D02*
X167105711Y-63412380D01*
X168486663Y-63412380D02*
X167915235Y-63412380D01*
X168200949Y-63412380D02*
X168200949Y-62412380D01*
X168200949Y-62412380D02*
X168105711Y-62555238D01*
X168105711Y-62555238D02*
X168010473Y-62650476D01*
X168010473Y-62650476D02*
X167915235Y-62698095D01*
D12*
%TO.C,SW64*%
X183450000Y-160445000D02*
X183450000Y-158345000D01*
X183450000Y-100445000D02*
X183450000Y-102545000D01*
X183450000Y-100445000D02*
X177650000Y-100445000D01*
X164450000Y-160445000D02*
X183450000Y-160445000D01*
X164450000Y-160445000D02*
X164450000Y-158345000D01*
X164450000Y-100445000D02*
X170250000Y-100445000D01*
X164450000Y-100445000D02*
X164450000Y-102545000D01*
X190400000Y-154847633D02*
G75*
G03*
X203158281Y-134046021I-16443344J24398551D01*
G01*
X203158280Y-126843979D02*
G75*
G03*
X190400000Y-106042367I-29208280J-3601021D01*
G01*
X183450000Y-158345000D02*
G75*
G03*
X186839915Y-156924284I-11010900J31027300D01*
G01*
X186839914Y-103965719D02*
G75*
G03*
X183450000Y-102545001I-14330214J-29438081D01*
G01*
X161060085Y-156924283D02*
G75*
G03*
X164450000Y-158344999I14330425J29438637D01*
G01*
X164450000Y-102545000D02*
G75*
G03*
X161060085Y-103965716I11010886J-31027276D01*
G01*
X144741720Y-134046021D02*
G75*
G03*
X157500000Y-154847633I29208282J3601022D01*
G01*
X157500000Y-106042367D02*
G75*
G03*
X144741719Y-126843979I16443344J-24398551D01*
G01*
D13*
X195950000Y-130445000D02*
G75*
G03*
X195950000Y-130445000I-22000000J0D01*
G01*
D12*
%TO.C,J4*%
X151699995Y-23145620D02*
X151699995Y-60145620D01*
X151699995Y-60145620D02*
X196199995Y-60145620D01*
X152619995Y-32695620D02*
X153949995Y-32695620D01*
X152619995Y-34025620D02*
X152619995Y-32695620D01*
X152619995Y-35295620D02*
X152619995Y-50595620D01*
X152619995Y-35295620D02*
X155279995Y-35295620D01*
X152619995Y-50595620D02*
X155279995Y-50595620D01*
X155279995Y-35295620D02*
X155279995Y-50595620D01*
X196199995Y-23145620D02*
X151699995Y-23145620D01*
X196199995Y-60145620D02*
X196199995Y-23145620D01*
%TO.C,J1*%
X168819997Y-64375000D02*
X168819997Y-63045000D01*
X170149997Y-64375000D02*
X168819997Y-64375000D01*
X171419997Y-64375000D02*
X179099997Y-64375000D01*
X171419997Y-64375000D02*
X171419997Y-61715000D01*
X179099997Y-64375000D02*
X179099997Y-61715000D01*
X171419997Y-61715000D02*
X179099997Y-61715000D01*
%TO.C,SW25*%
X114097526Y-135853871D02*
X125565654Y-143883941D01*
X125565654Y-143883941D02*
X117535584Y-155352069D01*
X117535584Y-155352069D02*
X106067456Y-147321999D01*
X106067456Y-147321999D02*
X114097526Y-135853871D01*
%TO.C,SW30*%
X132812804Y-150583180D02*
X141811830Y-161307802D01*
X141811830Y-161307802D02*
X131087208Y-170306828D01*
X131087208Y-170306828D02*
X122088182Y-159582206D01*
X122088182Y-159582206D02*
X132812804Y-150583180D01*
%TO.C,SW1*%
X51693490Y-33217646D02*
X64849186Y-38005928D01*
X64849186Y-38005928D02*
X60060904Y-51161624D01*
X60060904Y-51161624D02*
X46905208Y-46373342D01*
X46905208Y-46373342D02*
X51693490Y-33217646D01*
%TO.C,SW24*%
X106194935Y-106270086D02*
X119350631Y-111058368D01*
X119350631Y-111058368D02*
X114562349Y-124214064D01*
X114562349Y-124214064D02*
X101406653Y-119425782D01*
X101406653Y-119425782D02*
X106194935Y-106270086D01*
%TO.C,SW29*%
X123010136Y-115769114D02*
X136165832Y-120557396D01*
X136165832Y-120557396D02*
X131377550Y-133713092D01*
X131377550Y-133713092D02*
X118221854Y-128924810D01*
X118221854Y-128924810D02*
X123010136Y-115769114D01*
%TO.C,SW14*%
X70392625Y-93239129D02*
X83548321Y-98027411D01*
X83548321Y-98027411D02*
X78760039Y-111183107D01*
X78760039Y-111183107D02*
X65604343Y-106394825D01*
X65604343Y-106394825D02*
X70392625Y-93239129D01*
%TO.C,SW19*%
X89651167Y-96025197D02*
X102806863Y-100813479D01*
X102806863Y-100813479D02*
X98018581Y-113969175D01*
X98018581Y-113969175D02*
X84862885Y-109180893D01*
X84862885Y-109180893D02*
X89651167Y-96025197D01*
%TO.C,SW5*%
X25631554Y-104822240D02*
X38787250Y-109610522D01*
X38787250Y-109610522D02*
X33998968Y-122766218D01*
X33998968Y-122766218D02*
X20843272Y-117977936D01*
X20843272Y-117977936D02*
X25631554Y-104822240D01*
%TO.C,SW22*%
X119225885Y-70467792D02*
X132381581Y-75256074D01*
X132381581Y-75256074D02*
X127593299Y-88411770D01*
X127593299Y-88411770D02*
X114437603Y-83623488D01*
X114437603Y-83623488D02*
X119225885Y-70467792D01*
%TO.C,SW27*%
X136041106Y-79966820D02*
X149196802Y-84755102D01*
X149196802Y-84755102D02*
X144408520Y-97910798D01*
X144408520Y-97910798D02*
X131252824Y-93122516D01*
X131252824Y-93122516D02*
X136041106Y-79966820D01*
%TO.C,SW3*%
X38662510Y-69019943D02*
X51818206Y-73808225D01*
X51818206Y-73808225D02*
X47029924Y-86963921D01*
X47029924Y-86963921D02*
X33874228Y-82175639D01*
X33874228Y-82175639D02*
X38662510Y-69019943D01*
%TO.C,SW8*%
X57378105Y-73297768D02*
X70533801Y-78086050D01*
X70533801Y-78086050D02*
X65745519Y-91241746D01*
X65745519Y-91241746D02*
X52589823Y-86453464D01*
X52589823Y-86453464D02*
X57378105Y-73297768D01*
%TO.C,SW13*%
X76908118Y-75337974D02*
X90063814Y-80126256D01*
X90063814Y-80126256D02*
X85275532Y-93281952D01*
X85275532Y-93281952D02*
X72119836Y-88493670D01*
X72119836Y-88493670D02*
X76908118Y-75337974D01*
%TO.C,SW23*%
X112710406Y-88368973D02*
X125866102Y-93157255D01*
X125866102Y-93157255D02*
X121077820Y-106312951D01*
X121077820Y-106312951D02*
X107922124Y-101524669D01*
X107922124Y-101524669D02*
X112710406Y-88368973D01*
%TO.C,SW18*%
X96166636Y-78124057D02*
X109322332Y-82912339D01*
X109322332Y-82912339D02*
X104534050Y-96068035D01*
X104534050Y-96068035D02*
X91378354Y-91279753D01*
X91378354Y-91279753D02*
X96166636Y-78124057D01*
%TO.C,SW28*%
X129525622Y-97867965D02*
X142681318Y-102656247D01*
X142681318Y-102656247D02*
X137893036Y-115811943D01*
X137893036Y-115811943D02*
X124737340Y-111023661D01*
X124737340Y-111023661D02*
X129525622Y-97867965D01*
%TO.C,SW4*%
X32147054Y-86921109D02*
X45302750Y-91709391D01*
X45302750Y-91709391D02*
X40514468Y-104865087D01*
X40514468Y-104865087D02*
X27358772Y-100076805D01*
X27358772Y-100076805D02*
X32147054Y-86921109D01*
%TO.C,SW9*%
X50862597Y-91198929D02*
X64018293Y-95987211D01*
X64018293Y-95987211D02*
X59230011Y-109142907D01*
X59230011Y-109142907D02*
X46074315Y-104354625D01*
X46074315Y-104354625D02*
X50862597Y-91198929D01*
%TO.C,SW10*%
X44347127Y-109100068D02*
X57502823Y-113888350D01*
X57502823Y-113888350D02*
X52714541Y-127044046D01*
X52714541Y-127044046D02*
X39558845Y-122255764D01*
X39558845Y-122255764D02*
X44347127Y-109100068D01*
%TO.C,SW15*%
X63877145Y-111140269D02*
X77032841Y-115928551D01*
X77032841Y-115928551D02*
X72244559Y-129084247D01*
X72244559Y-129084247D02*
X59088863Y-124295965D01*
X59088863Y-124295965D02*
X63877145Y-111140269D01*
%TO.C,SW20*%
X92083504Y-126474693D02*
X105239200Y-131262975D01*
X105239200Y-131262975D02*
X100450918Y-144418671D01*
X100450918Y-144418671D02*
X87295222Y-139630389D01*
X87295222Y-139630389D02*
X92083504Y-126474693D01*
%TO.C,SW11*%
X89939078Y-39535703D02*
X103094774Y-44323985D01*
X103094774Y-44323985D02*
X98306492Y-57479681D01*
X98306492Y-57479681D02*
X85150796Y-52691399D01*
X85150796Y-52691399D02*
X89939078Y-39535703D01*
%TO.C,SW2*%
X45178010Y-51118794D02*
X58333706Y-55907076D01*
X58333706Y-55907076D02*
X53545424Y-69062772D01*
X53545424Y-69062772D02*
X40389728Y-64274490D01*
X40389728Y-64274490D02*
X45178010Y-51118794D01*
%TO.C,SW12*%
X83423589Y-57436835D02*
X96579285Y-62225117D01*
X96579285Y-62225117D02*
X91791003Y-75380813D01*
X91791003Y-75380813D02*
X78635307Y-70592531D01*
X78635307Y-70592531D02*
X83423589Y-57436835D01*
%TO.C,SW21*%
X125741377Y-52566658D02*
X138897073Y-57354940D01*
X138897073Y-57354940D02*
X134108791Y-70510636D01*
X134108791Y-70510636D02*
X120953095Y-65722354D01*
X120953095Y-65722354D02*
X125741377Y-52566658D01*
%TO.C,SW17*%
X102682135Y-60222921D02*
X115837831Y-65011203D01*
X115837831Y-65011203D02*
X111049549Y-78166899D01*
X111049549Y-78166899D02*
X97893853Y-73378617D01*
X97893853Y-73378617D02*
X102682135Y-60222921D01*
%TO.C,SW16*%
X109197620Y-42321759D02*
X122353316Y-47110041D01*
X122353316Y-47110041D02*
X117565034Y-60265737D01*
X117565034Y-60265737D02*
X104409338Y-55477455D01*
X104409338Y-55477455D02*
X109197620Y-42321759D01*
%TO.C,SW6*%
X70409063Y-37495495D02*
X83564759Y-42283777D01*
X83564759Y-42283777D02*
X78776477Y-55439473D01*
X78776477Y-55439473D02*
X65620781Y-50651191D01*
X65620781Y-50651191D02*
X70409063Y-37495495D01*
%TO.C,SW7*%
X63893578Y-55396635D02*
X77049274Y-60184917D01*
X77049274Y-60184917D02*
X72260992Y-73340613D01*
X72260992Y-73340613D02*
X59105296Y-68552331D01*
X59105296Y-68552331D02*
X63893578Y-55396635D01*
%TO.C,SW26*%
X142556593Y-62065675D02*
X155712289Y-66853957D01*
X155712289Y-66853957D02*
X150924007Y-80009653D01*
X150924007Y-80009653D02*
X137768311Y-75221371D01*
X137768311Y-75221371D02*
X142556593Y-62065675D01*
%TO.C,SW31*%
X192187731Y-66853960D02*
X205343427Y-62065678D01*
X205343427Y-62065678D02*
X210131709Y-75221374D01*
X210131709Y-75221374D02*
X196976013Y-80009656D01*
X196976013Y-80009656D02*
X192187731Y-66853960D01*
%TO.C,SW45*%
X242660802Y-131262971D02*
X255816498Y-126474689D01*
X255816498Y-126474689D02*
X260604780Y-139630385D01*
X260604780Y-139630385D02*
X247449084Y-144418667D01*
X247449084Y-144418667D02*
X242660802Y-131262971D01*
%TO.C,SW49*%
X264351688Y-98027424D02*
X277507384Y-93239142D01*
X277507384Y-93239142D02*
X282295666Y-106394838D01*
X282295666Y-106394838D02*
X269139970Y-111183120D01*
X269139970Y-111183120D02*
X264351688Y-98027424D01*
%TO.C,SW47*%
X251320727Y-62225124D02*
X264476423Y-57436842D01*
X264476423Y-57436842D02*
X269264705Y-70592538D01*
X269264705Y-70592538D02*
X256109009Y-75380820D01*
X256109009Y-75380820D02*
X251320727Y-62225124D01*
%TO.C,SW63*%
X186736792Y-168585251D02*
X200259753Y-164961784D01*
X200259753Y-164961784D02*
X203883220Y-178484745D01*
X203883220Y-178484745D02*
X190360259Y-182108212D01*
X190360259Y-182108212D02*
X186736792Y-168585251D01*
%TO.C,SW61*%
X147640255Y-164961773D02*
X161163216Y-168585240D01*
X161163216Y-168585240D02*
X157539749Y-182108201D01*
X157539749Y-182108201D02*
X144016788Y-178484734D01*
X144016788Y-178484734D02*
X147640255Y-164961773D01*
%TO.C,SW33*%
X205218678Y-102656241D02*
X218374374Y-97867959D01*
X218374374Y-97867959D02*
X223162656Y-111023655D01*
X223162656Y-111023655D02*
X210006960Y-115811937D01*
X210006960Y-115811937D02*
X205218678Y-102656241D01*
%TO.C,SW59*%
X302597268Y-91709378D02*
X315752964Y-86921096D01*
X315752964Y-86921096D02*
X320541246Y-100076792D01*
X320541246Y-100076792D02*
X307385550Y-104865074D01*
X307385550Y-104865074D02*
X302597268Y-91709378D01*
%TO.C,SW38*%
X222033928Y-93157238D02*
X235189624Y-88368956D01*
X235189624Y-88368956D02*
X239977906Y-101524652D01*
X239977906Y-101524652D02*
X226822210Y-106312934D01*
X226822210Y-106312934D02*
X222033928Y-93157238D01*
%TO.C,SW50*%
X270867167Y-115928565D02*
X284022863Y-111140283D01*
X284022863Y-111140283D02*
X288811145Y-124295979D01*
X288811145Y-124295979D02*
X275655449Y-129084261D01*
X275655449Y-129084261D02*
X270867167Y-115928565D01*
%TO.C,SW58*%
X296081788Y-73808215D02*
X309237484Y-69019933D01*
X309237484Y-69019933D02*
X314025766Y-82175629D01*
X314025766Y-82175629D02*
X300870070Y-86963911D01*
X300870070Y-86963911D02*
X296081788Y-73808215D01*
%TO.C,SW43*%
X238577656Y-82912337D02*
X251733352Y-78124055D01*
X251733352Y-78124055D02*
X256521634Y-91279751D01*
X256521634Y-91279751D02*
X243365938Y-96068033D01*
X243365938Y-96068033D02*
X238577656Y-82912337D01*
%TO.C,SW57*%
X289566303Y-55907075D02*
X302721999Y-51118793D01*
X302721999Y-51118793D02*
X307510281Y-64274489D01*
X307510281Y-64274489D02*
X294354585Y-69062771D01*
X294354585Y-69062771D02*
X289566303Y-55907075D01*
%TO.C,SW52*%
X270850742Y-60184920D02*
X284006438Y-55396638D01*
X284006438Y-55396638D02*
X288794720Y-68552334D01*
X288794720Y-68552334D02*
X275639024Y-73340616D01*
X275639024Y-73340616D02*
X270850742Y-60184920D01*
%TO.C,SW44*%
X245093149Y-100813474D02*
X258248845Y-96025192D01*
X258248845Y-96025192D02*
X263037127Y-109180888D01*
X263037127Y-109180888D02*
X249881431Y-113969170D01*
X249881431Y-113969170D02*
X245093149Y-100813474D01*
%TO.C,SW41*%
X225546696Y-47110055D02*
X238702392Y-42321773D01*
X238702392Y-42321773D02*
X243490674Y-55477469D01*
X243490674Y-55477469D02*
X230334978Y-60265751D01*
X230334978Y-60265751D02*
X225546696Y-47110055D01*
%TO.C,SW40*%
X222334356Y-143883933D02*
X233802484Y-135853863D01*
X233802484Y-135853863D02*
X241832554Y-147321991D01*
X241832554Y-147321991D02*
X230364426Y-155352061D01*
X230364426Y-155352061D02*
X222334356Y-143883933D01*
%TO.C,SW62*%
X166950016Y-169354989D02*
X180950016Y-169354989D01*
X180950016Y-169354989D02*
X180950016Y-183354989D01*
X180950016Y-183354989D02*
X166950016Y-183354989D01*
X166950016Y-183354989D02*
X166950016Y-169354989D01*
%TO.C,SW46*%
X244805225Y-44323987D02*
X257960921Y-39535705D01*
X257960921Y-39535705D02*
X262749203Y-52691401D01*
X262749203Y-52691401D02*
X249593507Y-57479683D01*
X249593507Y-57479683D02*
X244805225Y-44323987D01*
%TO.C,SW51*%
X264335255Y-42283787D02*
X277490951Y-37495505D01*
X277490951Y-37495505D02*
X282279233Y-50651201D01*
X282279233Y-50651201D02*
X269123537Y-55439483D01*
X269123537Y-55439483D02*
X264335255Y-42283787D01*
%TO.C,SW60*%
X309112751Y-109610515D02*
X322268447Y-104822233D01*
X322268447Y-104822233D02*
X327056729Y-117977929D01*
X327056729Y-117977929D02*
X313901033Y-122766211D01*
X313901033Y-122766211D02*
X309112751Y-109610515D01*
%TO.C,SW37*%
X215518437Y-75256101D02*
X228674133Y-70467819D01*
X228674133Y-70467819D02*
X233462415Y-83623515D01*
X233462415Y-83623515D02*
X220306719Y-88411797D01*
X220306719Y-88411797D02*
X215518437Y-75256101D01*
%TO.C,SW54*%
X283881703Y-95987217D02*
X297037399Y-91198935D01*
X297037399Y-91198935D02*
X301825681Y-104354631D01*
X301825681Y-104354631D02*
X288669985Y-109142913D01*
X288669985Y-109142913D02*
X283881703Y-95987217D01*
%TO.C,SW55*%
X290397194Y-113888369D02*
X303552890Y-109100087D01*
X303552890Y-109100087D02*
X308341172Y-122255783D01*
X308341172Y-122255783D02*
X295185476Y-127044065D01*
X295185476Y-127044065D02*
X290397194Y-113888369D01*
%TO.C,SW48*%
X257836209Y-80126273D02*
X270991905Y-75337991D01*
X270991905Y-75337991D02*
X275780187Y-88493687D01*
X275780187Y-88493687D02*
X262624491Y-93281969D01*
X262624491Y-93281969D02*
X257836209Y-80126273D01*
%TO.C,SW53*%
X277366219Y-78086065D02*
X290521915Y-73297783D01*
X290521915Y-73297783D02*
X295310197Y-86453479D01*
X295310197Y-86453479D02*
X282154501Y-91241761D01*
X282154501Y-91241761D02*
X277366219Y-78086065D01*
%TO.C,SW35*%
X206088183Y-161307798D02*
X215087209Y-150583176D01*
X215087209Y-150583176D02*
X225811831Y-159582202D01*
X225811831Y-159582202D02*
X216812805Y-170306824D01*
X216812805Y-170306824D02*
X206088183Y-161307798D01*
%TO.C,SW34*%
X211734163Y-120557384D02*
X224889859Y-115769102D01*
X224889859Y-115769102D02*
X229678141Y-128924798D01*
X229678141Y-128924798D02*
X216522445Y-133713080D01*
X216522445Y-133713080D02*
X211734163Y-120557384D01*
%TO.C,SW42*%
X232062172Y-65011199D02*
X245217868Y-60222917D01*
X245217868Y-60222917D02*
X250006150Y-73378613D01*
X250006150Y-73378613D02*
X236850454Y-78166895D01*
X236850454Y-78166895D02*
X232062172Y-65011199D01*
%TO.C,SW56*%
X283050824Y-38005942D02*
X296206520Y-33217660D01*
X296206520Y-33217660D02*
X300994802Y-46373356D01*
X300994802Y-46373356D02*
X287839106Y-51161638D01*
X287839106Y-51161638D02*
X283050824Y-38005942D01*
%TO.C,SW36*%
X209002948Y-57354957D02*
X222158644Y-52566675D01*
X222158644Y-52566675D02*
X226946926Y-65722371D01*
X226946926Y-65722371D02*
X213791230Y-70510653D01*
X213791230Y-70510653D02*
X209002948Y-57354957D01*
%TO.C,SW39*%
X228549403Y-111058391D02*
X241705099Y-106270109D01*
X241705099Y-106270109D02*
X246493381Y-119425805D01*
X246493381Y-119425805D02*
X233337685Y-124214087D01*
X233337685Y-124214087D02*
X228549403Y-111058391D01*
%TO.C,SW32*%
X198703204Y-84755107D02*
X211858900Y-79966825D01*
X211858900Y-79966825D02*
X216647182Y-93122521D01*
X216647182Y-93122521D02*
X203491486Y-97910803D01*
X203491486Y-97910803D02*
X198703204Y-84755107D01*
%TD*%
%LPC*%
%TO.C,A1*%
G36*
X164213376Y-142029667D02*
G01*
X164178509Y-142180670D01*
X164044043Y-142199001D01*
X163834972Y-142106066D01*
X163874709Y-142029667D01*
X164176148Y-141999268D01*
X164213376Y-142029667D01*
G37*
G36*
X164467376Y-140759667D02*
G01*
X164497775Y-141061106D01*
X164467376Y-141098334D01*
X164316373Y-141063467D01*
X164298043Y-140929001D01*
X164390977Y-140719930D01*
X164467376Y-140759667D01*
G37*
G36*
X161250043Y-143088001D02*
G01*
X161492354Y-143316247D01*
X161504043Y-143356991D01*
X161307525Y-143466088D01*
X161250043Y-143469001D01*
X161005803Y-143273737D01*
X160996043Y-143200010D01*
X161151652Y-143048312D01*
X161250043Y-143088001D01*
G37*
G36*
X163008473Y-142083611D02*
G01*
X163028043Y-142169020D01*
X162842685Y-142528094D01*
X162774043Y-142580001D01*
X162539612Y-142568390D01*
X162520043Y-142482981D01*
X162705400Y-142123907D01*
X162774043Y-142072001D01*
X163008473Y-142083611D01*
G37*
G36*
X165480731Y-140068610D02*
G01*
X165441043Y-140167001D01*
X165212796Y-140409312D01*
X165172052Y-140421001D01*
X165062955Y-140224483D01*
X165060043Y-140167001D01*
X165255306Y-139922761D01*
X165329033Y-139913001D01*
X165480731Y-140068610D01*
G37*
G36*
X170386662Y-140360288D02*
G01*
X170394043Y-140421001D01*
X170200755Y-140667620D01*
X170140043Y-140675001D01*
X169893423Y-140481713D01*
X169886043Y-140421001D01*
X170079330Y-140174381D01*
X170140043Y-140167001D01*
X170386662Y-140360288D01*
G37*
G36*
X180333398Y-140294001D02*
G01*
X180872097Y-140294001D01*
X180892542Y-140816754D01*
X180950102Y-140951677D01*
X180982561Y-140868462D01*
X181029872Y-140258498D01*
X180987687Y-139852462D01*
X180920776Y-139711687D01*
X180878686Y-140016981D01*
X180872097Y-140294001D01*
X180333398Y-140294001D01*
X180321549Y-140042205D01*
X180368751Y-139415796D01*
X180526103Y-139047528D01*
X180639800Y-138931228D01*
X181079594Y-138729635D01*
X181304916Y-138763124D01*
X181473862Y-139122403D01*
X181550005Y-139839946D01*
X181533291Y-140774555D01*
X181423667Y-141785034D01*
X181306290Y-142399577D01*
X181177396Y-143402533D01*
X181319370Y-144045747D01*
X181714653Y-144294573D01*
X182209884Y-144182578D01*
X182729686Y-143867774D01*
X182776479Y-143555178D01*
X182459042Y-143215000D01*
X182110490Y-142720495D01*
X182180506Y-142454585D01*
X182818886Y-142454585D01*
X182930440Y-142917287D01*
X183249155Y-143408497D01*
X183700861Y-143924000D01*
X184045460Y-144210294D01*
X184110043Y-144231001D01*
X184389210Y-144048217D01*
X184822076Y-143591710D01*
X184970930Y-143408497D01*
X185349506Y-142780823D01*
X185376420Y-142380763D01*
X185074987Y-142277771D01*
X184645312Y-142438406D01*
X184020915Y-142592924D01*
X183574773Y-142438406D01*
X183041434Y-142271807D01*
X182818886Y-142454585D01*
X182180506Y-142454585D01*
X182250639Y-142188227D01*
X182586042Y-141818001D01*
X182985399Y-141509496D01*
X183286643Y-141555767D01*
X183602043Y-141818000D01*
X183999154Y-142124945D01*
X184299984Y-142081118D01*
X184627007Y-141809888D01*
X185014153Y-141506673D01*
X185302508Y-141538168D01*
X185690643Y-141888712D01*
X186052323Y-142334371D01*
X186056643Y-142730608D01*
X185905719Y-143054972D01*
X185720152Y-143672792D01*
X185851549Y-144108535D01*
X186157033Y-144231001D01*
X186289133Y-144001590D01*
X186375935Y-143410950D01*
X186396043Y-142863445D01*
X186396042Y-141495890D01*
X187563347Y-141535182D01*
X188528242Y-141676793D01*
X189060225Y-142025192D01*
X189286071Y-142517061D01*
X189481305Y-143240161D01*
X189613447Y-144010713D01*
X189650021Y-144644934D01*
X189576286Y-144945424D01*
X189340045Y-144933168D01*
X189110605Y-144563662D01*
X188961431Y-143983263D01*
X188939932Y-143677643D01*
X188761148Y-142959830D01*
X188323711Y-142409239D01*
X187783836Y-142199001D01*
X187365108Y-142426000D01*
X187042390Y-142999102D01*
X186904500Y-143756458D01*
X186904043Y-143802201D01*
X186754415Y-144416262D01*
X186518278Y-144742955D01*
X186153293Y-144917069D01*
X185758035Y-144719275D01*
X185629278Y-144607689D01*
X185231375Y-144302077D01*
X184928912Y-144352718D01*
X184622807Y-144607689D01*
X184190024Y-144904146D01*
X183840439Y-144823648D01*
X183725570Y-144736119D01*
X183369167Y-144552609D01*
X182876333Y-144582945D01*
X182293854Y-144751604D01*
X181616620Y-144945481D01*
X181237660Y-144938580D01*
X180985265Y-144722950D01*
X180960574Y-144689872D01*
X180684669Y-144433045D01*
X180319527Y-144480563D01*
X179997134Y-144635598D01*
X179309086Y-144840249D01*
X178367081Y-144929158D01*
X177976378Y-144924462D01*
X177167143Y-144857286D01*
X176739033Y-144716378D01*
X176565722Y-144451561D01*
X176546880Y-144356695D01*
X176374169Y-143411957D01*
X176201626Y-142918891D01*
X176008184Y-142821612D01*
X175974596Y-142838603D01*
X175817061Y-143168447D01*
X175732578Y-143798148D01*
X175728043Y-143991991D01*
X175670921Y-144622652D01*
X175528464Y-144969714D01*
X175474043Y-144993001D01*
X175314016Y-144767885D01*
X175225951Y-144206465D01*
X175220043Y-143991991D01*
X175162781Y-143317008D01*
X175020543Y-142886099D01*
X174973489Y-142838603D01*
X174774067Y-142880140D01*
X174599035Y-143311419D01*
X174427733Y-144187313D01*
X174401448Y-144358001D01*
X174264799Y-144674584D01*
X173891112Y-144843298D01*
X173150303Y-144919631D01*
X173076459Y-144923172D01*
X172271548Y-144899805D01*
X171648554Y-144775533D01*
X171472584Y-144685505D01*
X171119190Y-144534155D01*
X170893261Y-144753210D01*
X170601538Y-144971007D01*
X170321209Y-144738937D01*
X170088102Y-144114545D01*
X169944878Y-143229952D01*
X169916943Y-143031525D01*
X171216055Y-143031525D01*
X171376034Y-143635552D01*
X171717608Y-144099960D01*
X172045043Y-144231001D01*
X172426636Y-144022044D01*
X172735246Y-143576275D01*
X172872292Y-142866902D01*
X172646271Y-142320701D01*
X172120114Y-142074824D01*
X172045043Y-142072001D01*
X171539214Y-142268989D01*
X171324467Y-142496775D01*
X171216055Y-143031525D01*
X169916943Y-143031525D01*
X169834944Y-142449074D01*
X169663739Y-142059793D01*
X169376436Y-141945747D01*
X169339440Y-141945001D01*
X168881917Y-142178233D01*
X168541502Y-142802851D01*
X168371721Y-143706235D01*
X168362043Y-144001508D01*
X168216929Y-144674887D01*
X167853768Y-144978014D01*
X167380829Y-144929969D01*
X166906383Y-144549833D01*
X166538700Y-143856689D01*
X166484541Y-143670620D01*
X166258039Y-142779004D01*
X165255555Y-143781488D01*
X163834411Y-144908940D01*
X162285215Y-145556946D01*
X160706682Y-145749422D01*
X159652015Y-145681151D01*
X158933792Y-145442022D01*
X158674682Y-145265030D01*
X158345740Y-144886986D01*
X158787339Y-144886986D01*
X159216885Y-145159333D01*
X159281543Y-145190995D01*
X160415138Y-145463077D01*
X161808331Y-145323614D01*
X162596155Y-145098046D01*
X163631510Y-144578910D01*
X164702721Y-143769629D01*
X165682283Y-142795817D01*
X166442690Y-141783088D01*
X166841690Y-140915454D01*
X167028659Y-139886390D01*
X167007556Y-139058431D01*
X166787704Y-138543681D01*
X166636464Y-138447229D01*
X166420728Y-138509022D01*
X166464272Y-138962370D01*
X166464939Y-138965032D01*
X166489191Y-139885869D01*
X166214791Y-140967662D01*
X165704569Y-142014442D01*
X165320843Y-142533449D01*
X164663783Y-143140738D01*
X163792123Y-143773077D01*
X163276935Y-144082265D01*
X162447864Y-144488514D01*
X161739250Y-144683806D01*
X160904344Y-144719310D01*
X160338446Y-144691614D01*
X159336774Y-144658486D01*
X158823520Y-144721823D01*
X158787339Y-144886986D01*
X158345740Y-144886986D01*
X158277932Y-144809056D01*
X158329043Y-144522961D01*
X158543553Y-144331253D01*
X159402962Y-144331253D01*
X159860955Y-144490962D01*
X160634142Y-144489009D01*
X161563529Y-144345969D01*
X162490122Y-144082417D01*
X162995852Y-143866313D01*
X164300776Y-143002826D01*
X165333916Y-141915113D01*
X165987982Y-140721315D01*
X166060770Y-140491443D01*
X166285735Y-139529801D01*
X166301121Y-139009693D01*
X166178313Y-138897000D01*
X165929342Y-139045017D01*
X165371039Y-139446179D01*
X164590648Y-140036157D01*
X163828813Y-140629413D01*
X162779735Y-141453403D01*
X161735917Y-142268246D01*
X160847354Y-142957076D01*
X160440128Y-143269666D01*
X159831959Y-143774821D01*
X159461346Y-144165201D01*
X159402962Y-144331253D01*
X158543553Y-144331253D01*
X158823576Y-144080996D01*
X159595470Y-143449133D01*
X160570320Y-142682690D01*
X161673722Y-141836988D01*
X162831275Y-140967349D01*
X163968574Y-140129091D01*
X165011215Y-139377536D01*
X165884796Y-138768003D01*
X166514913Y-138355813D01*
X166827162Y-138196287D01*
X166838043Y-138196361D01*
X167168847Y-138505024D01*
X167305382Y-139254281D01*
X167245500Y-140414458D01*
X167077135Y-141500545D01*
X166913209Y-142563770D01*
X166899506Y-143289206D01*
X167034485Y-143823869D01*
X167052372Y-143864367D01*
X167354513Y-144326185D01*
X167600893Y-144308842D01*
X167772714Y-143839828D01*
X167851176Y-142946638D01*
X167854043Y-142692010D01*
X167892944Y-141886374D01*
X167994383Y-141340836D01*
X168108043Y-141183001D01*
X168354721Y-141370456D01*
X168362043Y-141429029D01*
X168547620Y-141595508D01*
X168679543Y-141577244D01*
X169569076Y-141325261D01*
X170084300Y-141281739D01*
X170330542Y-141487774D01*
X170413131Y-141984460D01*
X170423507Y-142257661D01*
X170464305Y-142795465D01*
X170534792Y-142940071D01*
X170576729Y-142834001D01*
X170956746Y-142010299D01*
X171522764Y-141572088D01*
X172162958Y-141493319D01*
X172765500Y-141747947D01*
X173218564Y-142309924D01*
X173410325Y-143153205D01*
X173396991Y-143490896D01*
X173428606Y-144127353D01*
X173632543Y-144417491D01*
X173827220Y-144322945D01*
X173927743Y-143829656D01*
X173950043Y-143124157D01*
X174014933Y-142130584D01*
X174218398Y-141612784D01*
X174573630Y-141554244D01*
X174982048Y-141832485D01*
X175376612Y-142131157D01*
X175682260Y-142069908D01*
X175966037Y-141832485D01*
X176457389Y-141531508D01*
X176789072Y-141681087D01*
X176974795Y-142296833D01*
X177025872Y-143039491D01*
X177053702Y-144358001D01*
X177271251Y-143251414D01*
X177376929Y-142874038D01*
X178014043Y-142874038D01*
X178114475Y-143100733D01*
X178489399Y-142978404D01*
X178507896Y-142968571D01*
X178971172Y-142654376D01*
X179147040Y-142469186D01*
X179111958Y-142145584D01*
X179023059Y-142067685D01*
X178626483Y-142070997D01*
X178223795Y-142377149D01*
X178016310Y-142825261D01*
X178014043Y-142874038D01*
X177376929Y-142874038D01*
X177555617Y-142235940D01*
X177949336Y-141655897D01*
X178504287Y-141441977D01*
X178629343Y-141437000D01*
X179358974Y-141600156D01*
X179719719Y-142017142D01*
X179698528Y-142579238D01*
X179282353Y-143177722D01*
X178875287Y-143486154D01*
X178327709Y-143859356D01*
X178176594Y-144093894D01*
X178364984Y-144280176D01*
X178372412Y-144284360D01*
X179045953Y-144403673D01*
X179701899Y-144088163D01*
X180147809Y-143514500D01*
X180358450Y-142787165D01*
X180402803Y-141700270D01*
X180368908Y-141048595D01*
X180333398Y-140294001D01*
G37*
%TD*%
D14*
%TO.C,SW64*%
X199450000Y-130445000D03*
X148450000Y-130445000D03*
X176450000Y-99845000D03*
X171450000Y-99845000D03*
X173950000Y-99845000D03*
D15*
X204049999Y-130444999D03*
D16*
X189050000Y-156598967D03*
X189050000Y-104291033D03*
D17*
X188450000Y-130445000D03*
X159450000Y-130445000D03*
D16*
X158850000Y-156598967D03*
X158850000Y-104291033D03*
D15*
X143849999Y-130444999D03*
%TD*%
D18*
%TO.C,H3*%
X53550000Y-30400000D03*
%TD*%
%TO.C,H2*%
X294200000Y-30450000D03*
%TD*%
D19*
%TO.C,J2*%
X176840000Y-23595000D03*
X171060000Y-23595000D03*
D20*
X177174999Y-25039999D03*
X176399999Y-25039999D03*
D21*
X175199999Y-25039999D03*
X174199999Y-25039999D03*
X173699999Y-25039999D03*
X172699999Y-25039999D03*
D20*
X171499999Y-25039999D03*
X170724999Y-25039999D03*
D21*
X172199999Y-25039999D03*
X173199999Y-25039999D03*
X174699999Y-25039999D03*
X175699999Y-25039999D03*
D22*
X178269999Y-24124999D03*
D23*
X178269999Y-19944999D03*
D22*
X169629999Y-24124999D03*
D23*
X169629999Y-19944999D03*
%TD*%
D24*
%TO.C,J4*%
X153949994Y-34025619D03*
D25*
X153949994Y-36565619D03*
X153949994Y-39105619D03*
X153949994Y-41645619D03*
X153949994Y-44185619D03*
X153949994Y-46725619D03*
X153949994Y-49265619D03*
D26*
X154199995Y-25645620D03*
X154199995Y-57645620D03*
X193699995Y-25645620D03*
X193699995Y-57645620D03*
%TD*%
D18*
%TO.C,H1*%
X173950000Y-187100000D03*
%TD*%
D24*
%TO.C,J1*%
X170149996Y-63044999D03*
D25*
X172689996Y-63044999D03*
X175229996Y-63044999D03*
X177769996Y-63044999D03*
%TD*%
D27*
%TO.C,SW25*%
X119977847Y-148516738D03*
D28*
X120810969Y-142898562D03*
D29*
X115816555Y-145602970D03*
D28*
X114152470Y-141336998D03*
D27*
X111655263Y-142689202D03*
%TD*%
%TO.C,SW30*%
X135215367Y-164336510D03*
D28*
X137474192Y-159125396D03*
D29*
X131950006Y-160445004D03*
D28*
X131446738Y-155893694D03*
D27*
X128684645Y-156553498D03*
%TD*%
%TO.C,SW1*%
X60650836Y-43927097D03*
D28*
X60001479Y-38284728D03*
D29*
X55877197Y-42189635D03*
D28*
X53165699Y-38499719D03*
D27*
X51103558Y-40452173D03*
%TD*%
%TO.C,SW24*%
X115152281Y-116979537D03*
D28*
X114502924Y-111337168D03*
D29*
X110378642Y-115242075D03*
D28*
X107667144Y-111552159D03*
D27*
X105605003Y-113504613D03*
%TD*%
%TO.C,SW29*%
X131967482Y-126478565D03*
D28*
X131318125Y-120836196D03*
D29*
X127193843Y-124741103D03*
D28*
X124482345Y-121051187D03*
D27*
X122420204Y-123003641D03*
%TD*%
%TO.C,SW14*%
X79349971Y-103948580D03*
D28*
X78700614Y-98306211D03*
D29*
X74576332Y-102211118D03*
D28*
X71864834Y-98521202D03*
D27*
X69802693Y-100473656D03*
%TD*%
%TO.C,SW19*%
X98608513Y-106734648D03*
D28*
X97959156Y-101092279D03*
D29*
X93834874Y-104997186D03*
D28*
X91123376Y-101307270D03*
D27*
X89061235Y-103259724D03*
%TD*%
%TO.C,SW5*%
X34588900Y-115531691D03*
D28*
X33939543Y-109889322D03*
D29*
X29815261Y-113794229D03*
D28*
X27103763Y-110104313D03*
D27*
X25041622Y-112056767D03*
%TD*%
%TO.C,SW22*%
X128183231Y-81177243D03*
D28*
X127533874Y-75534874D03*
D29*
X123409592Y-79439781D03*
D28*
X120698094Y-75749865D03*
D27*
X118635953Y-77702319D03*
%TD*%
%TO.C,SW27*%
X144998452Y-90676271D03*
D28*
X144349095Y-85033902D03*
D29*
X140224813Y-88938809D03*
D28*
X137513315Y-85248893D03*
D27*
X135451174Y-87201347D03*
%TD*%
%TO.C,SW3*%
X47619856Y-79729394D03*
D28*
X46970499Y-74087025D03*
D29*
X42846217Y-77991932D03*
D28*
X40134719Y-74302016D03*
D27*
X38072578Y-76254470D03*
%TD*%
%TO.C,SW8*%
X66335451Y-84007219D03*
D28*
X65686094Y-78364850D03*
D29*
X61561812Y-82269757D03*
D28*
X58850314Y-78579841D03*
D27*
X56788173Y-80532295D03*
%TD*%
%TO.C,SW13*%
X85865464Y-86047425D03*
D28*
X85216107Y-80405056D03*
D29*
X81091825Y-84309963D03*
D28*
X78380327Y-80620047D03*
D27*
X76318186Y-82572501D03*
%TD*%
%TO.C,SW23*%
X121667752Y-99078424D03*
D28*
X121018395Y-93436055D03*
D29*
X116894113Y-97340962D03*
D28*
X114182615Y-93651046D03*
D27*
X112120474Y-95603500D03*
%TD*%
%TO.C,SW18*%
X105123982Y-88833508D03*
D28*
X104474625Y-83191139D03*
D29*
X100350343Y-87096046D03*
D28*
X97638845Y-83406130D03*
D27*
X95576704Y-85358584D03*
%TD*%
%TO.C,SW28*%
X138482968Y-108577416D03*
D28*
X137833611Y-102935047D03*
D29*
X133709329Y-106839954D03*
D28*
X130997831Y-103150038D03*
D27*
X128935690Y-105102492D03*
%TD*%
%TO.C,SW4*%
X41104400Y-97630560D03*
D28*
X40455043Y-91988191D03*
D29*
X36330761Y-95893098D03*
D28*
X33619263Y-92203182D03*
D27*
X31557122Y-94155636D03*
%TD*%
%TO.C,SW9*%
X59819943Y-101908380D03*
D28*
X59170586Y-96266011D03*
D29*
X55046304Y-100170918D03*
D28*
X52334806Y-96481002D03*
D27*
X50272665Y-98433456D03*
%TD*%
%TO.C,SW10*%
X53304473Y-119809519D03*
D28*
X52655116Y-114167150D03*
D29*
X48530834Y-118072057D03*
D28*
X45819336Y-114382141D03*
D27*
X43757195Y-116334595D03*
%TD*%
%TO.C,SW15*%
X72834491Y-121849720D03*
D28*
X72185134Y-116207351D03*
D29*
X68060852Y-120112258D03*
D28*
X65349354Y-116422342D03*
D27*
X63287213Y-118374796D03*
%TD*%
%TO.C,SW20*%
X101040850Y-137184144D03*
D28*
X100391493Y-131541775D03*
D29*
X96267211Y-135446682D03*
D28*
X93555713Y-131756766D03*
D27*
X91493572Y-133709220D03*
%TD*%
%TO.C,SW11*%
X98896424Y-50245154D03*
D28*
X98247067Y-44602785D03*
D29*
X94122785Y-48507692D03*
D28*
X91411287Y-44817776D03*
D27*
X89349146Y-46770230D03*
%TD*%
%TO.C,SW2*%
X54135356Y-61828245D03*
D28*
X53485999Y-56185876D03*
D29*
X49361717Y-60090783D03*
D28*
X46650219Y-56400867D03*
D27*
X44588078Y-58353321D03*
%TD*%
%TO.C,SW12*%
X92380935Y-68146286D03*
D28*
X91731578Y-62503917D03*
D29*
X87607296Y-66408824D03*
D28*
X84895798Y-62718908D03*
D27*
X82833657Y-64671362D03*
%TD*%
%TO.C,SW21*%
X134698723Y-63276109D03*
D28*
X134049366Y-57633740D03*
D29*
X129925084Y-61538647D03*
D28*
X127213586Y-57848731D03*
D27*
X125151445Y-59801185D03*
%TD*%
%TO.C,SW17*%
X111639481Y-70932372D03*
D28*
X110990124Y-65290003D03*
D29*
X106865842Y-69194910D03*
D28*
X104154344Y-65504994D03*
D27*
X102092203Y-67457448D03*
%TD*%
%TO.C,SW16*%
X118154966Y-53031210D03*
D28*
X117505609Y-47388841D03*
D29*
X113381327Y-51293748D03*
D28*
X110669829Y-47603832D03*
D27*
X108607688Y-49556286D03*
%TD*%
%TO.C,SW6*%
X79366409Y-48204946D03*
D28*
X78717052Y-42562577D03*
D29*
X74592770Y-46467484D03*
D28*
X71881272Y-42777568D03*
D27*
X69819131Y-44730022D03*
%TD*%
%TO.C,SW7*%
X72850924Y-66106086D03*
D28*
X72201567Y-60463717D03*
D29*
X68077285Y-64368624D03*
D28*
X65365787Y-60678708D03*
D27*
X63303646Y-62631162D03*
%TD*%
%TO.C,SW26*%
X151513939Y-72775126D03*
D28*
X150864582Y-67132757D03*
D29*
X146740300Y-71037664D03*
D28*
X144028802Y-67347748D03*
D27*
X141966661Y-69300202D03*
%TD*%
%TO.C,SW31*%
X205933359Y-69300205D03*
D28*
X201809077Y-65395297D03*
D29*
X201159720Y-71037667D03*
D28*
X196710760Y-69953944D03*
D27*
X196386081Y-72775129D03*
%TD*%
%TO.C,SW45*%
X256406430Y-133709216D03*
D28*
X252282148Y-129804308D03*
D29*
X251632791Y-135446678D03*
D28*
X247183831Y-134362955D03*
D27*
X246859152Y-137184140D03*
%TD*%
%TO.C,SW49*%
X278097316Y-100473669D03*
D28*
X273973034Y-96568761D03*
D29*
X273323677Y-102211131D03*
D28*
X268874717Y-101127408D03*
D27*
X268550038Y-103948593D03*
%TD*%
%TO.C,SW47*%
X265066355Y-64671369D03*
D28*
X260942073Y-60766461D03*
D29*
X260292716Y-66408831D03*
D28*
X255843756Y-65325108D03*
D27*
X255519077Y-68146293D03*
%TD*%
%TO.C,SW63*%
X200216909Y-172220197D03*
D28*
X196448657Y-167970694D03*
D29*
X195310006Y-173534998D03*
D28*
X190972428Y-172067647D03*
D27*
X190403103Y-174849799D03*
%TD*%
%TO.C,SW61*%
X157496905Y-174849788D03*
D28*
X156358254Y-169285484D03*
D29*
X152590002Y-173534987D03*
D28*
X149567225Y-170095435D03*
D27*
X147683099Y-172220186D03*
%TD*%
%TO.C,SW33*%
X218964306Y-105102486D03*
D28*
X214840024Y-101197578D03*
D29*
X214190667Y-106839948D03*
D28*
X209741707Y-105756225D03*
D27*
X209417028Y-108577410D03*
%TD*%
%TO.C,SW59*%
X316342896Y-94155623D03*
D28*
X312218614Y-90250715D03*
D29*
X311569257Y-95893085D03*
D28*
X307120297Y-94809362D03*
D27*
X306795618Y-97630547D03*
%TD*%
%TO.C,SW38*%
X235779556Y-95603483D03*
D28*
X231655274Y-91698575D03*
D29*
X231005917Y-97340945D03*
D28*
X226556957Y-96257222D03*
D27*
X226232278Y-99078407D03*
%TD*%
%TO.C,SW50*%
X284612795Y-118374810D03*
D28*
X280488513Y-114469902D03*
D29*
X279839156Y-120112272D03*
D28*
X275390196Y-119028549D03*
D27*
X275065517Y-121849734D03*
%TD*%
%TO.C,SW58*%
X309827416Y-76254460D03*
D28*
X305703134Y-72349552D03*
D29*
X305053777Y-77991922D03*
D28*
X300604817Y-76908199D03*
D27*
X300280138Y-79729384D03*
%TD*%
D30*
%TO.C,U4*%
X179299999Y-124784999D03*
D31*
X179300000Y-126565000D03*
X179300000Y-128345000D03*
X179300000Y-130125000D03*
X179300000Y-131905000D03*
X179300000Y-133685000D03*
X179300000Y-135465000D03*
X179300000Y-137245000D03*
X168600000Y-138135000D03*
X168600000Y-136355000D03*
X168600000Y-134575000D03*
X168600000Y-132795000D03*
X168600000Y-131015000D03*
X168600000Y-129235000D03*
X168600000Y-127455000D03*
X168600000Y-125675000D03*
%TD*%
D27*
%TO.C,SW43*%
X252323284Y-85358582D03*
D28*
X248199002Y-81453674D03*
D29*
X247549645Y-87096044D03*
D28*
X243100685Y-86012321D03*
D27*
X242776006Y-88833506D03*
%TD*%
%TO.C,SW57*%
X303311931Y-58353320D03*
D28*
X299187649Y-54448412D03*
D29*
X298538292Y-60090782D03*
D28*
X294089332Y-59007059D03*
D27*
X293764653Y-61828244D03*
%TD*%
%TO.C,SW52*%
X284596370Y-62631165D03*
D28*
X280472088Y-58726257D03*
D29*
X279822731Y-64368627D03*
D28*
X275373771Y-63284904D03*
D27*
X275049092Y-66106089D03*
%TD*%
%TO.C,SW44*%
X258838777Y-103259719D03*
D28*
X254714495Y-99354811D03*
D29*
X254065138Y-104997181D03*
D28*
X249616178Y-103913458D03*
D27*
X249291499Y-106734643D03*
%TD*%
%TO.C,SW41*%
X239292324Y-49556300D03*
D28*
X235168042Y-45651392D03*
D29*
X234518685Y-51293762D03*
D28*
X230069725Y-50210039D03*
D27*
X229745046Y-53031224D03*
%TD*%
%TO.C,SW40*%
X236244747Y-142689194D03*
D28*
X231250333Y-139984785D03*
D29*
X232083455Y-145602962D03*
D28*
X227505602Y-145707642D03*
D27*
X227922163Y-148516730D03*
%TD*%
%TO.C,SW62*%
X179030016Y-176354989D03*
D28*
X176490016Y-171274989D03*
D29*
X173950016Y-176354989D03*
D28*
X170140016Y-173814989D03*
D27*
X168870016Y-176354989D03*
%TD*%
%TO.C,SW46*%
X258550853Y-46770232D03*
D28*
X254426571Y-42865324D03*
D29*
X253777214Y-48507694D03*
D28*
X249328254Y-47423971D03*
D27*
X249003575Y-50245156D03*
%TD*%
%TO.C,SW51*%
X278080883Y-44730032D03*
D28*
X273956601Y-40825124D03*
D29*
X273307244Y-46467494D03*
D28*
X268858284Y-45383771D03*
D27*
X268533605Y-48204956D03*
%TD*%
%TO.C,SW60*%
X322858379Y-112056760D03*
D28*
X318734097Y-108151852D03*
D29*
X318084740Y-113794222D03*
D28*
X313635780Y-112710499D03*
D27*
X313311101Y-115531684D03*
%TD*%
%TO.C,SW37*%
X229264065Y-77702346D03*
D28*
X225139783Y-73797438D03*
D29*
X224490426Y-79439808D03*
D28*
X220041466Y-78356085D03*
D27*
X219716787Y-81177270D03*
%TD*%
%TO.C,SW54*%
X297627331Y-98433462D03*
D28*
X293503049Y-94528554D03*
D29*
X292853692Y-100170924D03*
D28*
X288404732Y-99087201D03*
D27*
X288080053Y-101908386D03*
%TD*%
%TO.C,SW55*%
X304142822Y-116334614D03*
D28*
X300018540Y-112429706D03*
D29*
X299369183Y-118072076D03*
D28*
X294920223Y-116988353D03*
D27*
X294595544Y-119809538D03*
%TD*%
%TO.C,SW48*%
X271581837Y-82572518D03*
D28*
X267457555Y-78667610D03*
D29*
X266808198Y-84309980D03*
D28*
X262359238Y-83226257D03*
D27*
X262034559Y-86047442D03*
%TD*%
%TO.C,SW53*%
X291111847Y-80532310D03*
D28*
X286987565Y-76627402D03*
D29*
X286338208Y-82269772D03*
D28*
X281889248Y-81186049D03*
D27*
X281564569Y-84007234D03*
%TD*%
%TO.C,SW35*%
X219215368Y-156553494D03*
D28*
X213691182Y-155233886D03*
D29*
X215950007Y-160445000D03*
D28*
X211555233Y-161730949D03*
D27*
X212684646Y-164336506D03*
%TD*%
%TO.C,SW34*%
X225479791Y-123003629D03*
D28*
X221355509Y-119098721D03*
D29*
X220706152Y-124741091D03*
D28*
X216257192Y-123657368D03*
D27*
X215932513Y-126478553D03*
%TD*%
%TO.C,SW42*%
X245807800Y-67457444D03*
D28*
X241683518Y-63552536D03*
D29*
X241034161Y-69194906D03*
D28*
X236585201Y-68111183D03*
D27*
X236260522Y-70932368D03*
%TD*%
%TO.C,SW56*%
X296796452Y-40452187D03*
D28*
X292672170Y-36547279D03*
D29*
X292022813Y-42189649D03*
D28*
X287573853Y-41105926D03*
D27*
X287249174Y-43927111D03*
%TD*%
%TO.C,SW36*%
X222748576Y-59801202D03*
D28*
X218624294Y-55896294D03*
D29*
X217974937Y-61538664D03*
D28*
X213525977Y-60454941D03*
D27*
X213201298Y-63276126D03*
%TD*%
%TO.C,SW39*%
X242295031Y-113504636D03*
D28*
X238170749Y-109599728D03*
D29*
X237521392Y-115242098D03*
D28*
X233072432Y-114158375D03*
D27*
X232747753Y-116979560D03*
%TD*%
%TO.C,SW32*%
X212448832Y-87201352D03*
D28*
X208324550Y-83296444D03*
D29*
X207675193Y-88938814D03*
D28*
X203226233Y-87855091D03*
D27*
X202901554Y-90676276D03*
%TD*%
M02*
