%TF.GenerationSoftware,KiCad,Pcbnew,7.0.6*%
%TF.CreationDate,2023-07-18T23:13:40+01:00*%
%TF.ProjectId,Honeydew,486f6e65-7964-4657-972e-6b696361645f,V3.0*%
%TF.SameCoordinates,Original*%
%TF.FileFunction,Soldermask,Bot*%
%TF.FilePolarity,Negative*%
%FSLAX46Y46*%
G04 Gerber Fmt 4.6, Leading zero omitted, Abs format (unit mm)*
G04 Created by KiCad (PCBNEW 7.0.6) date 2023-07-18 23:13:40*
%MOMM*%
%LPD*%
G01*
G04 APERTURE LIST*
G04 Aperture macros list*
%AMRoundRect*
0 Rectangle with rounded corners*
0 $1 Rounding radius*
0 $2 $3 $4 $5 $6 $7 $8 $9 X,Y pos of 4 corners*
0 Add a 4 corners polygon primitive as box body*
4,1,4,$2,$3,$4,$5,$6,$7,$8,$9,$2,$3,0*
0 Add four circle primitives for the rounded corners*
1,1,$1+$1,$2,$3*
1,1,$1+$1,$4,$5*
1,1,$1+$1,$6,$7*
1,1,$1+$1,$8,$9*
0 Add four rect primitives between the rounded corners*
20,1,$1+$1,$2,$3,$4,$5,0*
20,1,$1+$1,$4,$5,$6,$7,0*
20,1,$1+$1,$6,$7,$8,$9,0*
20,1,$1+$1,$8,$9,$2,$3,0*%
%AMRotRect*
0 Rectangle, with rotation*
0 The origin of the aperture is its center*
0 $1 length*
0 $2 width*
0 $3 Rotation angle, in degrees counterclockwise*
0 Add horizontal line*
21,1,$1,$2,0,0,$3*%
G04 Aperture macros list end*
%ADD10R,1.200000X1.200000*%
%ADD11C,1.200000*%
%ADD12C,2.200000*%
%ADD13C,4.000000*%
%ADD14C,4.200000*%
%ADD15C,2.000000*%
%ADD16RotRect,4.400000X4.400000X150.000000*%
%ADD17C,3.200000*%
%ADD18C,1.152000*%
%ADD19RoundRect,0.575000X-0.675000X-0.575000X0.675000X-0.575000X0.675000X0.575000X-0.675000X0.575000X0*%
%ADD20C,5.600000*%
%ADD21C,4.400000*%
%ADD22R,2.200000X2.200000*%
%ADD23R,1.700000X1.700000*%
%ADD24O,1.700000X1.700000*%
%ADD25C,3.987800*%
%ADD26C,3.000000*%
%ADD27RotRect,2.650000X2.600000X330.000000*%
%ADD28RotRect,2.550000X2.500000X150.000000*%
%ADD29RotRect,2.650000X2.600000X315.000000*%
%ADD30RotRect,2.550000X2.500000X135.000000*%
%ADD31RotRect,2.650000X2.600000X345.000000*%
%ADD32RotRect,2.550000X2.500000X165.000000*%
%ADD33RotRect,2.650000X2.600000X15.000000*%
%ADD34RotRect,2.550000X2.500000X195.000000*%
%ADD35RoundRect,0.140000X-0.140000X-0.170000X0.140000X-0.170000X0.140000X0.170000X-0.140000X0.170000X0*%
%ADD36R,0.300000X0.800000*%
%ADD37R,0.400000X0.800000*%
%ADD38RotRect,1.700000X1.000000X330.000000*%
%ADD39R,2.650000X2.600000*%
%ADD40R,2.550000X2.500000*%
%ADD41RoundRect,0.150000X-0.150000X0.512500X-0.150000X-0.512500X0.150000X-0.512500X0.150000X0.512500X0*%
%ADD42RoundRect,0.140000X0.170000X-0.140000X0.170000X0.140000X-0.170000X0.140000X-0.170000X-0.140000X0*%
%ADD43R,0.300000X0.500000*%
%ADD44R,1.600000X0.900000*%
%ADD45RotRect,1.700000X1.000000X195.000000*%
%ADD46RoundRect,0.140000X-0.091230X-0.200442X0.179229X-0.127973X0.091230X0.200442X-0.179229X0.127973X0*%
%ADD47RoundRect,0.150000X0.012244X-0.533860X0.277534X0.456214X-0.012244X0.533860X-0.277534X-0.456214X0*%
%ADD48RotRect,1.700000X1.000000X22.500000*%
%ADD49C,1.700000*%
%ADD50RoundRect,0.140000X-0.179229X-0.127973X0.091230X-0.200442X0.179229X0.127973X-0.091230X0.200442X0*%
%ADD51RoundRect,0.150000X0.277534X-0.456214X0.012244X0.533860X-0.277534X0.456214X-0.012244X-0.533860X0*%
%ADD52RoundRect,0.225000X0.250000X-0.225000X0.250000X0.225000X-0.250000X0.225000X-0.250000X-0.225000X0*%
%ADD53RoundRect,0.140000X0.091230X0.200442X-0.179229X0.127973X-0.091230X-0.200442X0.179229X-0.127973X0*%
%ADD54RoundRect,0.135000X0.135000X0.185000X-0.135000X0.185000X-0.135000X-0.185000X0.135000X-0.185000X0*%
%ADD55RoundRect,0.135000X-0.135000X-0.185000X0.135000X-0.185000X0.135000X0.185000X-0.135000X0.185000X0*%
%ADD56RotRect,1.700000X1.000000X345.000000*%
%ADD57RoundRect,0.140000X0.179229X0.127973X-0.091230X0.200442X-0.179229X-0.127973X0.091230X-0.200442X0*%
%ADD58RoundRect,0.135000X-0.185000X0.135000X-0.185000X-0.135000X0.185000X-0.135000X0.185000X0.135000X0*%
%ADD59RotRect,2.650000X2.600000X30.000000*%
%ADD60RotRect,2.550000X2.500000X210.000000*%
%ADD61RotRect,1.700000X1.000000X15.000000*%
%ADD62RoundRect,0.140000X0.206244X0.077224X-0.036244X0.217224X-0.206244X-0.077224X0.036244X-0.217224X0*%
%ADD63RotRect,1.700000X1.000000X337.500000*%
%ADD64RoundRect,0.150000X-0.192987X-0.497908X0.430993X0.315279X0.192987X0.497908X-0.430993X-0.315279X0*%
%ADD65RoundRect,0.140000X-0.170000X0.140000X-0.170000X-0.140000X0.170000X-0.140000X0.170000X0.140000X0*%
%ADD66RoundRect,0.140000X0.140000X0.170000X-0.140000X0.170000X-0.140000X-0.170000X0.140000X-0.170000X0*%
%ADD67RoundRect,0.225000X-0.225000X-0.250000X0.225000X-0.250000X0.225000X0.250000X-0.225000X0.250000X0*%
%ADD68RoundRect,0.112500X-0.112500X0.187500X-0.112500X-0.187500X0.112500X-0.187500X0.112500X0.187500X0*%
%ADD69RoundRect,0.135000X0.185000X-0.135000X0.185000X0.135000X-0.185000X0.135000X-0.185000X-0.135000X0*%
%ADD70RoundRect,0.140000X0.036244X0.217224X-0.206244X0.077224X-0.036244X-0.217224X0.206244X-0.077224X0*%
%ADD71RotRect,1.700000X1.000000X30.000000*%
%ADD72RoundRect,0.225000X-0.250000X0.225000X-0.250000X-0.225000X0.250000X-0.225000X0.250000X0.225000X0*%
%ADD73RoundRect,0.140000X-0.021213X0.219203X-0.219203X0.021213X0.021213X-0.219203X0.219203X-0.021213X0*%
%ADD74RoundRect,0.250000X0.250000X0.475000X-0.250000X0.475000X-0.250000X-0.475000X0.250000X-0.475000X0*%
%ADD75RotRect,1.700000X1.000000X165.000000*%
%ADD76RoundRect,0.150000X-0.512500X-0.150000X0.512500X-0.150000X0.512500X0.150000X-0.512500X0.150000X0*%
%ADD77RoundRect,0.150000X0.150000X-0.512500X0.150000X0.512500X-0.150000X0.512500X-0.150000X-0.512500X0*%
%ADD78RotRect,1.700000X1.000000X247.500000*%
%ADD79R,0.650000X0.400000*%
%ADD80R,1.700000X1.000000*%
%ADD81R,0.900000X0.300000*%
%ADD82R,0.250000X1.650000*%
%ADD83RoundRect,0.050000X-0.050000X0.375000X-0.050000X-0.375000X0.050000X-0.375000X0.050000X0.375000X0*%
%ADD84RoundRect,0.050000X-0.275000X0.050000X-0.275000X-0.050000X0.275000X-0.050000X0.275000X0.050000X0*%
%ADD85RotRect,1.700000X1.000000X202.500000*%
%ADD86RoundRect,0.250000X-0.275000X-0.700000X0.275000X-0.700000X0.275000X0.700000X-0.275000X0.700000X0*%
%ADD87RotRect,1.700000X1.000000X315.000000*%
%ADD88RoundRect,0.140000X0.064287X0.210635X-0.194399X0.103484X-0.064287X-0.210635X0.194399X-0.103484X0*%
%ADD89RoundRect,0.150000X-0.825000X-0.150000X0.825000X-0.150000X0.825000X0.150000X-0.825000X0.150000X0*%
%ADD90RoundRect,0.140000X-0.210635X0.064287X-0.103484X-0.194399X0.210635X-0.064287X0.103484X0.194399X0*%
%ADD91R,1.000000X1.000000*%
%ADD92RoundRect,0.112500X0.187500X0.112500X-0.187500X0.112500X-0.187500X-0.112500X0.187500X-0.112500X0*%
%ADD93RoundRect,0.140000X0.103484X-0.194399X0.210635X0.064287X-0.103484X0.194399X-0.210635X-0.064287X0*%
%ADD94RoundRect,0.140000X-0.194399X-0.103484X0.064287X-0.210635X0.194399X0.103484X-0.064287X0.210635X0*%
%ADD95R,2.700000X0.800000*%
%ADD96RoundRect,0.140000X0.194399X0.103484X-0.064287X0.210635X-0.194399X-0.103484X0.064287X-0.210635X0*%
%ADD97RoundRect,0.150000X-0.150000X0.587500X-0.150000X-0.587500X0.150000X-0.587500X0.150000X0.587500X0*%
%ADD98RotRect,1.700000X1.000000X45.000000*%
%ADD99RoundRect,0.200000X0.275000X-0.200000X0.275000X0.200000X-0.275000X0.200000X-0.275000X-0.200000X0*%
%ADD100RoundRect,0.140000X0.219203X0.021213X0.021213X0.219203X-0.219203X-0.021213X-0.021213X-0.219203X0*%
%ADD101RotRect,1.700000X1.000000X67.500000*%
%ADD102RoundRect,0.140000X0.210635X-0.064287X0.103484X0.194399X-0.210635X0.064287X-0.103484X-0.194399X0*%
%ADD103R,1.200000X1.400000*%
%ADD104RoundRect,0.150000X0.825000X0.150000X-0.825000X0.150000X-0.825000X-0.150000X0.825000X-0.150000X0*%
%ADD105RoundRect,0.140000X-0.064287X-0.210635X0.194399X-0.103484X0.064287X0.210635X-0.194399X0.103484X0*%
%ADD106RoundRect,0.140000X-0.103484X0.194399X-0.210635X-0.064287X0.103484X-0.194399X0.210635X0.064287X0*%
%ADD107RotRect,1.700000X1.000000X292.500000*%
%ADD108RotRect,1.700000X1.000000X112.500000*%
%ADD109RotRect,2.650000X2.600000X45.000000*%
%ADD110RotRect,2.550000X2.500000X225.000000*%
%ADD111RoundRect,0.250000X-0.262500X-0.450000X0.262500X-0.450000X0.262500X0.450000X-0.262500X0.450000X0*%
%ADD112RoundRect,0.050000X0.387500X0.050000X-0.387500X0.050000X-0.387500X-0.050000X0.387500X-0.050000X0*%
%ADD113RoundRect,0.050000X0.050000X0.387500X-0.050000X0.387500X-0.050000X-0.387500X0.050000X-0.387500X0*%
%ADD114R,3.200000X3.200000*%
%ADD115RoundRect,0.150000X0.512500X0.150000X-0.512500X0.150000X-0.512500X-0.150000X0.512500X-0.150000X0*%
%ADD116RoundRect,0.150000X0.430993X-0.315279X-0.192987X0.497908X-0.430993X0.315279X0.192987X-0.497908X0*%
%ADD117RoundRect,0.112500X0.112500X-0.187500X0.112500X0.187500X-0.112500X0.187500X-0.112500X-0.187500X0*%
%ADD118RotRect,1.700000X1.000000X157.500000*%
G04 APERTURE END LIST*
%TO.C,D61*%
G36*
X171918156Y-182302328D02*
G01*
X171418156Y-183168353D01*
X169945913Y-182318353D01*
X170270913Y-181755436D01*
X170749021Y-181627328D01*
X171918156Y-182302328D01*
G37*
%TO.C,D54*%
G36*
X256415549Y-156215872D02*
G01*
X256168062Y-156644533D01*
X254864062Y-156993939D01*
X254605243Y-156028013D01*
X256247317Y-155588021D01*
X256415549Y-156215872D01*
G37*
%TO.C,D65*%
G36*
X188935373Y-126081029D02*
G01*
X187364778Y-126731590D01*
X187116034Y-126131069D01*
X187305452Y-125673772D01*
X188552690Y-125157149D01*
X188935373Y-126081029D01*
G37*
%TO.C,D27*%
G36*
X82445700Y-155218262D02*
G01*
X82186881Y-156184188D01*
X80544807Y-155744195D01*
X80713039Y-155116343D01*
X81141700Y-154868856D01*
X82445700Y-155218262D01*
G37*
%TO.C,D32*%
G36*
X310054115Y-83233899D02*
G01*
X308412041Y-83673891D01*
X308243809Y-83046040D01*
X308491296Y-82617379D01*
X309795296Y-82267973D01*
X310054115Y-83233899D01*
G37*
%TO.C,D72*%
G36*
X203936565Y-123702950D02*
G01*
X203553882Y-124626830D01*
X201983286Y-123976268D01*
X202232031Y-123375746D01*
X202689328Y-123186327D01*
X203936565Y-123702950D01*
G37*
%TO.C,D3*%
G36*
X102167714Y-81614743D02*
G01*
X101908895Y-82580669D01*
X100266821Y-82140676D01*
X100435053Y-81512824D01*
X100863714Y-81265337D01*
X102167714Y-81614743D01*
G37*
%TO.C,D53*%
G36*
X273994683Y-148218564D02*
G01*
X273747196Y-148647225D01*
X272443196Y-148996631D01*
X272184377Y-148030705D01*
X273826451Y-147590713D01*
X273994683Y-148218564D01*
G37*
%TO.C,D2*%
G36*
X82534206Y-81284445D02*
G01*
X82275387Y-82250371D01*
X80633313Y-81810378D01*
X80801545Y-81182526D01*
X81230206Y-80935039D01*
X82534206Y-81284445D01*
G37*
%TO.C,D18*%
G36*
X146687615Y-136274829D02*
G01*
X146428796Y-137240755D01*
X144786722Y-136800762D01*
X144954954Y-136172910D01*
X145383615Y-135925423D01*
X146687615Y-136274829D01*
G37*
%TO.C,D50*%
G36*
X330429978Y-138027268D02*
G01*
X330182491Y-138455929D01*
X328878491Y-138805335D01*
X328619672Y-137839409D01*
X330261746Y-137399417D01*
X330429978Y-138027268D01*
G37*
%TO.C,D28*%
G36*
X111881203Y-168035999D02*
G01*
X111622384Y-169001925D01*
X109980310Y-168561932D01*
X110148542Y-167934080D01*
X110577203Y-167686593D01*
X111881203Y-168035999D01*
G37*
%TO.C,D55*%
G36*
X348793311Y-154207044D02*
G01*
X347151237Y-154647036D01*
X346983005Y-154019185D01*
X347230492Y-153590524D01*
X348534492Y-153241118D01*
X348793311Y-154207044D01*
G37*
%TO.C,D31*%
G36*
X329071308Y-80603494D02*
G01*
X327429234Y-81043486D01*
X327261002Y-80415635D01*
X327508489Y-79986974D01*
X328812489Y-79637568D01*
X329071308Y-80603494D01*
G37*
%TO.C,D45*%
G36*
X300281599Y-120365947D02*
G01*
X298639525Y-120805939D01*
X298471293Y-120178088D01*
X298718780Y-119749427D01*
X300022780Y-119400021D01*
X300281599Y-120365947D01*
G37*
%TO.C,D43*%
G36*
X338932311Y-117405261D02*
G01*
X337290237Y-117845253D01*
X337122005Y-117217402D01*
X337369492Y-116788741D01*
X338673492Y-116439335D01*
X338932311Y-117405261D01*
G37*
%TO.C,D51*%
G36*
X310796460Y-138357566D02*
G01*
X310548973Y-138786227D01*
X309244973Y-139135633D01*
X308986154Y-138169707D01*
X310628228Y-137729715D01*
X310796460Y-138357566D01*
G37*
%TO.C,D63*%
G36*
X221290937Y-185068347D02*
G01*
X219818694Y-185918347D01*
X219493694Y-185355430D01*
X219621802Y-184877322D01*
X220790937Y-184202322D01*
X221290937Y-185068347D01*
G37*
%TO.C,D13*%
G36*
X53655988Y-115455830D02*
G01*
X53397169Y-116421756D01*
X51755095Y-115981763D01*
X51923327Y-115353911D01*
X52351988Y-115106424D01*
X53655988Y-115455830D01*
G37*
%TO.C,D52*%
G36*
X291368387Y-139454511D02*
G01*
X291120900Y-139883172D01*
X289816900Y-140232578D01*
X289558081Y-139266652D01*
X291200155Y-138826660D01*
X291368387Y-139454511D01*
G37*
%TO.C,D38*%
G36*
X320568973Y-101225487D02*
G01*
X320321486Y-101654148D01*
X319017486Y-102003554D01*
X318758667Y-101037628D01*
X320400741Y-100597636D01*
X320568973Y-101225487D01*
G37*
%TO.C,D23*%
G36*
X129128237Y-149454185D02*
G01*
X128960005Y-150082037D01*
X128531344Y-150329524D01*
X127227344Y-149980118D01*
X127486163Y-149014192D01*
X129128237Y-149454185D01*
G37*
%TO.C,D56*%
G36*
X329776128Y-156837445D02*
G01*
X328134054Y-157277437D01*
X327965822Y-156649586D01*
X328213309Y-156220925D01*
X329517309Y-155871519D01*
X329776128Y-156837445D01*
G37*
%TO.C,D70*%
G36*
X217624279Y-147232061D02*
G01*
X217813698Y-147689358D01*
X217297075Y-148936595D01*
X216373195Y-148553912D01*
X217023757Y-146983316D01*
X217624279Y-147232061D01*
G37*
%TO.C,D64*%
G36*
X196099987Y-209850023D02*
G01*
X194399987Y-209850023D01*
X194399987Y-209200023D01*
X194749987Y-208850023D01*
X196099987Y-208850023D01*
X196099987Y-209850023D01*
G37*
%TO.C,D34*%
G36*
X270992520Y-84661154D02*
G01*
X269350446Y-85101146D01*
X269182214Y-84473295D01*
X269429701Y-84044634D01*
X270733701Y-83695228D01*
X270992520Y-84661154D01*
G37*
%TO.C,D62*%
G36*
X196100001Y-190800034D02*
G01*
X194400001Y-190800034D01*
X194400001Y-190150034D01*
X194750001Y-189800034D01*
X196100001Y-189800034D01*
X196100001Y-190800034D01*
G37*
%TO.C,D10*%
G36*
X121615534Y-103888408D02*
G01*
X121447302Y-104516260D01*
X121018641Y-104763747D01*
X119714641Y-104414341D01*
X119973460Y-103448415D01*
X121615534Y-103888408D01*
G37*
%TO.C,D69*%
G36*
X208883963Y-159868985D02*
G01*
X208694545Y-160326282D01*
X207447307Y-160842905D01*
X207064624Y-159919025D01*
X208635219Y-159268464D01*
X208883963Y-159868985D01*
G37*
%TO.C,D57*%
G36*
X310142607Y-157167719D02*
G01*
X308500533Y-157607711D01*
X308332301Y-156979860D01*
X308579788Y-156551199D01*
X309883788Y-156201793D01*
X310142607Y-157167719D01*
G37*
%TO.C,D30*%
G36*
X147372840Y-187391430D02*
G01*
X146665733Y-188098537D01*
X145463652Y-186896455D01*
X145923271Y-186436836D01*
X146418246Y-186436836D01*
X147372840Y-187391430D01*
G37*
%TO.C,D42*%
G36*
X246554540Y-119414106D02*
G01*
X246307053Y-119842767D01*
X245003053Y-120192173D01*
X244744234Y-119226247D01*
X246386308Y-118786255D01*
X246554540Y-119414106D01*
G37*
%TO.C,D12*%
G36*
X156568365Y-120649747D02*
G01*
X156400133Y-121277599D01*
X155971472Y-121525086D01*
X154667472Y-121175680D01*
X154926291Y-120209754D01*
X156568365Y-120649747D01*
G37*
%TO.C,D44*%
G36*
X319915119Y-120035653D02*
G01*
X318273045Y-120475645D01*
X318104813Y-119847794D01*
X318352300Y-119419133D01*
X319656300Y-119069727D01*
X319915119Y-120035653D01*
G37*
%TO.C,D5*%
G36*
X138969497Y-91475725D02*
G01*
X138710678Y-92441651D01*
X137068604Y-92001658D01*
X137236836Y-91373806D01*
X137665497Y-91126319D01*
X138969497Y-91475725D01*
G37*
%TO.C,D60*%
G36*
X246647267Y-190785548D02*
G01*
X245445185Y-191987629D01*
X244985566Y-191528010D01*
X244985566Y-191033035D01*
X245940160Y-190078441D01*
X246647267Y-190785548D01*
G37*
%TO.C,D20*%
G36*
X72692925Y-139262911D02*
G01*
X72524693Y-139890763D01*
X72096032Y-140138250D01*
X70792032Y-139788844D01*
X71050851Y-138822918D01*
X72692925Y-139262911D01*
G37*
%TO.C,D11*%
G36*
X138989227Y-112652403D02*
G01*
X138820995Y-113280255D01*
X138392334Y-113527742D01*
X137088334Y-113178336D01*
X137347153Y-112212410D01*
X138989227Y-112652403D01*
G37*
%TO.C,D29*%
G36*
X130901122Y-175377447D02*
G01*
X130401122Y-176243472D01*
X128928879Y-175393472D01*
X129253879Y-174830555D01*
X129731987Y-174702447D01*
X130901122Y-175377447D01*
G37*
%TO.C,D66*%
G36*
X179626800Y-137446146D02*
G01*
X178976238Y-139016742D01*
X178375716Y-138767997D01*
X178186297Y-138310700D01*
X178702920Y-137063463D01*
X179626800Y-137446146D01*
G37*
%TO.C,D33*%
G36*
X290420592Y-83564193D02*
G01*
X288778518Y-84004185D01*
X288610286Y-83376334D01*
X288857773Y-82947673D01*
X290161773Y-82598267D01*
X290420592Y-83564193D01*
G37*
%TO.C,D14*%
G36*
X72673198Y-118086202D02*
G01*
X72414379Y-119052128D01*
X70772305Y-118612135D01*
X70940537Y-117984283D01*
X71369198Y-117736796D01*
X72673198Y-118086202D01*
G37*
%TO.C,D40*%
G36*
X281507367Y-102652752D02*
G01*
X281259880Y-103081413D01*
X279955880Y-103430819D01*
X279697061Y-102464893D01*
X281339135Y-102024901D01*
X281507367Y-102652752D01*
G37*
%TO.C,D25*%
G36*
X43794992Y-152257606D02*
G01*
X43536173Y-153223532D01*
X41894099Y-152783539D01*
X42062331Y-152155687D01*
X42490992Y-151908200D01*
X43794992Y-152257606D01*
G37*
%TO.C,D1*%
G36*
X63517014Y-78654048D02*
G01*
X63258195Y-79619974D01*
X61616121Y-79179981D01*
X61784353Y-78552129D01*
X62213014Y-78304642D01*
X63517014Y-78654048D01*
G37*
%TO.C,D22*%
G36*
X111754527Y-140690157D02*
G01*
X111586295Y-141318009D01*
X111157634Y-141565496D01*
X109853634Y-141216090D01*
X110112453Y-140250164D01*
X111754527Y-140690157D01*
G37*
%TO.C,D58*%
G36*
X280707094Y-169985437D02*
G01*
X279065020Y-170425429D01*
X278896788Y-169797578D01*
X279144275Y-169368917D01*
X280448275Y-169019511D01*
X280707094Y-169985437D01*
G37*
%TO.C,D71*%
G36*
X215326257Y-132305483D02*
G01*
X215842880Y-133552721D01*
X214919000Y-133935404D01*
X214268439Y-132364809D01*
X214868960Y-132116065D01*
X215326257Y-132305483D01*
G37*
%TO.C,D48*%
G36*
X245900693Y-138224259D02*
G01*
X244258619Y-138664251D01*
X244090387Y-138036400D01*
X244337874Y-137607739D01*
X245641874Y-137258333D01*
X245900693Y-138224259D01*
G37*
%TO.C,D36*%
G36*
X236039691Y-101422502D02*
G01*
X234397617Y-101862494D01*
X234229385Y-101234643D01*
X234476872Y-100805982D01*
X235780872Y-100456576D01*
X236039691Y-101422502D01*
G37*
%TO.C,D47*%
G36*
X263479841Y-130226962D02*
G01*
X261837767Y-130666954D01*
X261669535Y-130039103D01*
X261917022Y-129610442D01*
X263221022Y-129261036D01*
X263479841Y-130226962D01*
G37*
%TO.C,D26*%
G36*
X62812189Y-154888002D02*
G01*
X62553370Y-155853928D01*
X60911296Y-155413935D01*
X61079528Y-154786083D01*
X61508189Y-154538596D01*
X62812189Y-154888002D01*
G37*
%TO.C,D9*%
G36*
X102187448Y-102791412D02*
G01*
X102019216Y-103419264D01*
X101590555Y-103666751D01*
X100286555Y-103317345D01*
X100545374Y-102351419D01*
X102187448Y-102791412D01*
G37*
%TO.C,D59*%
G36*
X262307986Y-178143454D02*
G01*
X260835743Y-178993454D01*
X260510743Y-178430537D01*
X260638851Y-177952429D01*
X261807986Y-177277429D01*
X262307986Y-178143454D01*
G37*
%TO.C,D39*%
G36*
X300935456Y-101555786D02*
G01*
X300687969Y-101984447D01*
X299383969Y-102333853D01*
X299125150Y-101367927D01*
X300767224Y-100927935D01*
X300935456Y-101555786D01*
G37*
%TO.C,D17*%
G36*
X129108495Y-128277536D02*
G01*
X128849676Y-129243462D01*
X127207602Y-128803469D01*
X127375834Y-128175617D01*
X127804495Y-127928130D01*
X129108495Y-128277536D01*
G37*
%TO.C,D67*%
G36*
X181731560Y-153635247D02*
G01*
X181131039Y-153883991D01*
X180673742Y-153694573D01*
X180157119Y-152447335D01*
X181080999Y-152064652D01*
X181731560Y-153635247D01*
G37*
%TO.C,D4*%
G36*
X121595788Y-82711701D02*
G01*
X121336969Y-83677627D01*
X119694895Y-83237634D01*
X119863127Y-82609782D01*
X120291788Y-82362295D01*
X121595788Y-82711701D01*
G37*
%TO.C,D46*%
G36*
X280853517Y-121462918D02*
G01*
X279211443Y-121902910D01*
X279043211Y-121275059D01*
X279290698Y-120846398D01*
X280594698Y-120496992D01*
X280853517Y-121462918D01*
G37*
%TO.C,D19*%
G36*
X53675753Y-136632523D02*
G01*
X53507521Y-137260375D01*
X53078860Y-137507862D01*
X51774860Y-137158456D01*
X52033679Y-136192530D01*
X53675753Y-136632523D01*
G37*
%TO.C,D6*%
G36*
X156548617Y-99473051D02*
G01*
X156289798Y-100438977D01*
X154647724Y-99998984D01*
X154815956Y-99371132D01*
X155244617Y-99123645D01*
X156548617Y-99473051D01*
G37*
%TO.C,D24*%
G36*
X146707357Y-157451533D02*
G01*
X146539125Y-158079385D01*
X146110464Y-158326872D01*
X144806464Y-157977466D01*
X145065283Y-157011540D01*
X146707357Y-157451533D01*
G37*
%TO.C,D37*%
G36*
X339586146Y-98595098D02*
G01*
X339338659Y-99023759D01*
X338034659Y-99373165D01*
X337775840Y-98407239D01*
X339417914Y-97967247D01*
X339586146Y-98595098D01*
G37*
%TO.C,D15*%
G36*
X92306709Y-118416497D02*
G01*
X92047890Y-119382423D01*
X90405816Y-118942430D01*
X90574048Y-118314578D01*
X91002709Y-118067091D01*
X92306709Y-118416497D01*
G37*
%TO.C,D49*%
G36*
X349447166Y-135396887D02*
G01*
X349199679Y-135825548D01*
X347895679Y-136174954D01*
X347636860Y-135209028D01*
X349278934Y-134769036D01*
X349447166Y-135396887D01*
G37*
%TO.C,D8*%
G36*
X82553942Y-102461128D02*
G01*
X82385710Y-103088980D01*
X81957049Y-103336467D01*
X80653049Y-102987061D01*
X80911868Y-102021135D01*
X82553942Y-102461128D01*
G37*
%TO.C,D16*%
G36*
X111734769Y-119513480D02*
G01*
X111475950Y-120479406D01*
X109833876Y-120039413D01*
X110002108Y-119411561D01*
X110430769Y-119164074D01*
X111734769Y-119513480D01*
G37*
%TO.C,D21*%
G36*
X92326445Y-139593198D02*
G01*
X92158213Y-140221050D01*
X91729552Y-140468537D01*
X90425552Y-140119131D01*
X90684371Y-139153205D01*
X92326445Y-139593198D01*
G37*
%TO.C,D7*%
G36*
X63536752Y-99830746D02*
G01*
X63368520Y-100458598D01*
X62939859Y-100706085D01*
X61635859Y-100356679D01*
X61894678Y-99390753D01*
X63536752Y-99830746D01*
G37*
%TO.C,D41*%
G36*
X264133689Y-111416795D02*
G01*
X263886202Y-111845456D01*
X262582202Y-112194862D01*
X262323383Y-111228936D01*
X263965457Y-110788944D01*
X264133689Y-111416795D01*
G37*
%TO.C,D68*%
G36*
X194016715Y-162023785D02*
G01*
X193767970Y-162624307D01*
X193310673Y-162813726D01*
X192063436Y-162297103D01*
X192446119Y-161373223D01*
X194016715Y-162023785D01*
G37*
%TO.C,D35*%
G36*
X253618813Y-93425195D02*
G01*
X251976739Y-93865187D01*
X251808507Y-93237336D01*
X252055994Y-92808675D01*
X253359994Y-92459269D01*
X253618813Y-93425195D01*
G37*
%TD*%
D10*
%TO.C,U4*%
X203349994Y-137340030D03*
D11*
X203349994Y-139120030D03*
X203349994Y-140900030D03*
X203349994Y-142680030D03*
X203349994Y-144460030D03*
X203349994Y-146240030D03*
X203349994Y-148020030D03*
X203349994Y-149800030D03*
X192649994Y-150690030D03*
X192649994Y-148910030D03*
X192649994Y-147130030D03*
X192649994Y-145350030D03*
X192649994Y-143570030D03*
X192649994Y-141790030D03*
X192649994Y-140010030D03*
X192649994Y-138230030D03*
%TD*%
D12*
%TO.C,SW67*%
X215266302Y-159673391D03*
D13*
X221486502Y-142590071D03*
D14*
X186603949Y-163538253D03*
D13*
X185899438Y-122861323D03*
D12*
X175323400Y-135188368D03*
D15*
X215165058Y-118269268D03*
X210834930Y-115769268D03*
X212999994Y-117019268D03*
D16*
X223807654Y-154490340D03*
D17*
X192875245Y-172064911D03*
X175393627Y-161971544D03*
D16*
X175165348Y-126409335D03*
%TD*%
D18*
%TO.C,H3*%
X61099990Y-65257233D03*
%TD*%
%TO.C,H2*%
X334999993Y-65257233D03*
%TD*%
D15*
%TO.C,SW68*%
X228899994Y-202500016D03*
X228899994Y-205000016D03*
X228899994Y-207500016D03*
D19*
X230899994Y-200500016D03*
X230899994Y-209500016D03*
%TD*%
D20*
%TO.C,H9*%
X158999993Y-198000000D03*
%TD*%
D21*
%TO.C,H13*%
X172000015Y-211500029D03*
%TD*%
D15*
%TO.C,SW66*%
X169250000Y-207300000D03*
X162750000Y-207300000D03*
X169250000Y-202800000D03*
X162750000Y-202800000D03*
%TD*%
D20*
%TO.C,H8*%
X236999994Y-198000000D03*
%TD*%
D22*
%TO.C,SW65*%
X165999994Y-208160018D03*
D12*
X165999994Y-203080018D03*
X165999994Y-198000018D03*
%TD*%
D21*
%TO.C,H14*%
X223999994Y-198600030D03*
%TD*%
%TO.C,H12*%
X172000019Y-198500031D03*
%TD*%
D18*
%TO.C,H1*%
X197999986Y-195500031D03*
%TD*%
D21*
%TO.C,H15*%
X223999994Y-211500030D03*
%TD*%
D23*
%TO.C,J4*%
X178000000Y-74580000D03*
D24*
X178000000Y-77120000D03*
X178000000Y-79660000D03*
X178000000Y-82200000D03*
X178000000Y-84740000D03*
X178000000Y-87280000D03*
X178000000Y-89820000D03*
D13*
X178250000Y-66200000D03*
X178250000Y-98200000D03*
X217750000Y-66200000D03*
X217750000Y-98200000D03*
%TD*%
D25*
%TO.C,SW29*%
X134446564Y-173036547D03*
D26*
X132417007Y-168931842D03*
D27*
X134611312Y-166261196D03*
D28*
X129342617Y-167156842D03*
D27*
X143461943Y-173911452D03*
D28*
X142260659Y-171682138D03*
%TD*%
D25*
%TO.C,SW30*%
X151403349Y-186047929D03*
D26*
X150505323Y-181557801D03*
D29*
X153316073Y-179546082D03*
D30*
X147995094Y-179047572D03*
D29*
X159885095Y-189226374D03*
D30*
X159301732Y-186762107D03*
%TD*%
D25*
%TO.C,SW1*%
X66335785Y-75475281D03*
D26*
X63313008Y-72035729D03*
D31*
X64741329Y-68888155D03*
D32*
X59883971Y-71116921D03*
D31*
X75270415Y-73987022D03*
D32*
X73533074Y-72144586D03*
%TD*%
D25*
%TO.C,SW23*%
X126996762Y-143499626D03*
D26*
X123973985Y-140060074D03*
D31*
X125402306Y-136912500D03*
D32*
X120544948Y-139141266D03*
D31*
X135931392Y-142011367D03*
D32*
X134194051Y-140168931D03*
%TD*%
D25*
%TO.C,SW24*%
X144575885Y-151496971D03*
D26*
X141553108Y-148057419D03*
D31*
X142981429Y-144909845D03*
D32*
X138124071Y-147138611D03*
D31*
X153510515Y-150008712D03*
D32*
X151773174Y-148166276D03*
%TD*%
D25*
%TO.C,SW21*%
X90194981Y-133638635D03*
D26*
X87172204Y-130199083D03*
D31*
X88600525Y-127051509D03*
D32*
X83743167Y-129280275D03*
D31*
X99129611Y-132150376D03*
D32*
X97392270Y-130307940D03*
%TD*%
D25*
%TO.C,SW22*%
X109623057Y-134735596D03*
D26*
X106600280Y-131296044D03*
D31*
X108028601Y-128148470D03*
D32*
X103171243Y-130377236D03*
D31*
X118557687Y-133247337D03*
D32*
X116820346Y-131404901D03*
%TD*%
D25*
%TO.C,SW25*%
X46613769Y-149078840D03*
D26*
X43590992Y-145639288D03*
D31*
X45019313Y-142491714D03*
D32*
X40161955Y-144720480D03*
D31*
X55548399Y-147590581D03*
D32*
X53811058Y-145748145D03*
%TD*%
D25*
%TO.C,SW11*%
X136857751Y-106697848D03*
D26*
X133834974Y-103258296D03*
D31*
X135263295Y-100110722D03*
D32*
X130405937Y-102339488D03*
D31*
X145792381Y-105209589D03*
D32*
X144055040Y-103367153D03*
%TD*%
D25*
%TO.C,SW12*%
X154436896Y-114695187D03*
D26*
X151414119Y-111255635D03*
D31*
X152842440Y-108108061D03*
D32*
X147985082Y-110336827D03*
D31*
X163371526Y-113206928D03*
D32*
X161634185Y-111364492D03*
%TD*%
D25*
%TO.C,SW13*%
X56474755Y-112277071D03*
D26*
X53451978Y-108837519D03*
D31*
X54880299Y-105689945D03*
D32*
X50022941Y-107918711D03*
D31*
X65409385Y-110788812D03*
D32*
X63672044Y-108946376D03*
%TD*%
D25*
%TO.C,SW14*%
X75491970Y-114907439D03*
D26*
X72469193Y-111467887D03*
D31*
X73897514Y-108320313D03*
D32*
X69040156Y-110549079D03*
D31*
X84426600Y-113419180D03*
D32*
X82689259Y-111576744D03*
%TD*%
D25*
%TO.C,SW15*%
X95125484Y-115237733D03*
D26*
X92102707Y-111798181D03*
D31*
X93531028Y-108650607D03*
D32*
X88673670Y-110879373D03*
D31*
X104060114Y-113749474D03*
D32*
X102322773Y-111907038D03*
%TD*%
D25*
%TO.C,SW17*%
X131927266Y-125098765D03*
D26*
X128904489Y-121659213D03*
D31*
X130332810Y-118511639D03*
D32*
X125475452Y-120740405D03*
D31*
X140861896Y-123610506D03*
D32*
X139124555Y-121768070D03*
%TD*%
D25*
%TO.C,SW16*%
X114553533Y-116334717D03*
D26*
X111530756Y-112895165D03*
D31*
X112959077Y-109747591D03*
D32*
X108101719Y-111976357D03*
D31*
X123488163Y-114846458D03*
D32*
X121750822Y-113004022D03*
%TD*%
D25*
%TO.C,SW18*%
X149506383Y-133096066D03*
D26*
X146483606Y-129656514D03*
D31*
X147911927Y-126508940D03*
D32*
X143054569Y-128737706D03*
D31*
X158441013Y-131607807D03*
D32*
X156703672Y-129765371D03*
%TD*%
D25*
%TO.C,SW19*%
X51544276Y-130677968D03*
D26*
X48521499Y-127238416D03*
D31*
X49949820Y-124090842D03*
D32*
X45092462Y-126319608D03*
D31*
X60478906Y-129189709D03*
D32*
X58741565Y-127347273D03*
%TD*%
D25*
%TO.C,SW20*%
X70561451Y-133308347D03*
D26*
X67538674Y-129868795D03*
D31*
X68966995Y-126721221D03*
D32*
X64109637Y-128949987D03*
D31*
X79496081Y-131820088D03*
D32*
X77758740Y-129977652D03*
%TD*%
D25*
%TO.C,SW26*%
X65630964Y-151709238D03*
D26*
X62608187Y-148269686D03*
D31*
X64036508Y-145122112D03*
D32*
X59179150Y-147350878D03*
D31*
X74565594Y-150220979D03*
D32*
X72828253Y-148378543D03*
%TD*%
D25*
%TO.C,SW27*%
X85264472Y-152039498D03*
D26*
X82241695Y-148599946D03*
D31*
X83670016Y-145452372D03*
D32*
X78812658Y-147681138D03*
D31*
X94199102Y-150551239D03*
D32*
X92461761Y-148708803D03*
%TD*%
D25*
%TO.C,SW28*%
X114699978Y-164857232D03*
D26*
X111677201Y-161417680D03*
D31*
X113105522Y-158270106D03*
D32*
X108248164Y-160498872D03*
D31*
X123634608Y-163368973D03*
D32*
X121897267Y-161526537D03*
%TD*%
D25*
%TO.C,SW3*%
X104986486Y-78435986D03*
D26*
X101963709Y-74996434D03*
D31*
X103392030Y-71848860D03*
D32*
X98534672Y-74077626D03*
D31*
X113921116Y-76947727D03*
D32*
X112183775Y-75105291D03*
%TD*%
D25*
%TO.C,SW7*%
X61405279Y-93876185D03*
D26*
X58382502Y-90436633D03*
D31*
X59810823Y-87289059D03*
D32*
X54953465Y-89517825D03*
D31*
X70339909Y-92387926D03*
D32*
X68602568Y-90545490D03*
%TD*%
D25*
%TO.C,SW9*%
X100055980Y-96836842D03*
D26*
X97033203Y-93397290D03*
D31*
X98461524Y-90249716D03*
D32*
X93604166Y-92478482D03*
D31*
X108990610Y-95348583D03*
D32*
X107253269Y-93506147D03*
%TD*%
D25*
%TO.C,SW5*%
X141788259Y-88296958D03*
D26*
X138765482Y-84857406D03*
D31*
X140193803Y-81709832D03*
D32*
X135336445Y-83938598D03*
D31*
X150722889Y-86808699D03*
D32*
X148985548Y-84966263D03*
%TD*%
D25*
%TO.C,SW10*%
X119484054Y-97933851D03*
D26*
X116461277Y-94494299D03*
D31*
X117889598Y-91346725D03*
D32*
X113032240Y-93575491D03*
D31*
X128418684Y-96445592D03*
D32*
X126681343Y-94603156D03*
%TD*%
D25*
%TO.C,SW4*%
X124414558Y-79532938D03*
D26*
X121391781Y-76093386D03*
D31*
X122820102Y-72945812D03*
D32*
X117962744Y-75174578D03*
D31*
X133349188Y-78044679D03*
D32*
X131611847Y-76202243D03*
%TD*%
D25*
%TO.C,SW2*%
X85352976Y-78105685D03*
D26*
X82330199Y-74666133D03*
D31*
X83758520Y-71518559D03*
D32*
X78901162Y-73747325D03*
D31*
X94287606Y-76617426D03*
D32*
X92550265Y-74774990D03*
%TD*%
D25*
%TO.C,SW8*%
X80422469Y-96506574D03*
D26*
X77399692Y-93067022D03*
D31*
X78828013Y-89919448D03*
D32*
X73970655Y-92148214D03*
D31*
X89357099Y-95018315D03*
D32*
X87619758Y-93175879D03*
%TD*%
D25*
%TO.C,SW6*%
X159367392Y-96294292D03*
D26*
X156344615Y-92854740D03*
D31*
X157772936Y-89707166D03*
D32*
X152915578Y-91935932D03*
D31*
X168302022Y-94806033D03*
D32*
X166564681Y-92963597D03*
%TD*%
D25*
%TO.C,SW36*%
X236632622Y-96294306D03*
D26*
X232295044Y-94826955D03*
D33*
X231958219Y-91386915D03*
D34*
X228866008Y-95745763D03*
D33*
X243626109Y-90538121D03*
D34*
X241200310Y-89811195D03*
%TD*%
D35*
%TO.C,C118*%
X170619999Y-82100027D03*
X171579999Y-82100027D03*
%TD*%
D36*
%TO.C,J3*%
X195249984Y-128600033D03*
X195749984Y-128600033D03*
X196249984Y-128600033D03*
X196749984Y-128600033D03*
X197249984Y-128600033D03*
X197749984Y-128600033D03*
X198249984Y-128600033D03*
X198749984Y-128600033D03*
X199249984Y-128600033D03*
X199749984Y-128600033D03*
X200249984Y-128600033D03*
X200749984Y-128600033D03*
D37*
X201749984Y-131100033D03*
X194249984Y-131100033D03*
%TD*%
D38*
%TO.C,D61*%
X174995174Y-186272776D03*
X175695174Y-185060340D03*
X170232034Y-183522776D03*
%TD*%
D25*
%TO.C,SW62*%
X197999994Y-186000026D03*
D26*
X194189994Y-183460026D03*
D39*
X194754994Y-180050026D03*
D40*
X190639994Y-183460026D03*
D39*
X206244994Y-182250026D03*
D40*
X204089994Y-180920026D03*
%TD*%
D41*
%TO.C,U6*%
X207549993Y-133262527D03*
X208499993Y-133262527D03*
X209449993Y-133262527D03*
X209449993Y-135537527D03*
X207549993Y-135537527D03*
%TD*%
D42*
%TO.C,C33*%
X192999992Y-77080028D03*
X192999992Y-76120028D03*
%TD*%
D43*
%TO.C,U14*%
X172649994Y-82150037D03*
X173149994Y-82150037D03*
X173649994Y-82150037D03*
X174149994Y-82150037D03*
X174149994Y-84050037D03*
X173649994Y-84050037D03*
X173149994Y-84050037D03*
X172649994Y-84050037D03*
D44*
X173399994Y-83100037D03*
%TD*%
D25*
%TO.C,SW58*%
X281300021Y-164857236D03*
D26*
X276962443Y-163389885D03*
D33*
X276625618Y-159949845D03*
D34*
X273533407Y-164308693D03*
D33*
X288293508Y-159101051D03*
D34*
X285867709Y-158374125D03*
%TD*%
D45*
%TO.C,D54*%
X249880751Y-156362188D03*
X250243097Y-157714484D03*
X255193343Y-154938684D03*
%TD*%
D46*
%TO.C,C90*%
X264822907Y-149071457D03*
X265750195Y-148822991D03*
%TD*%
D47*
%TO.C,D74*%
X117520049Y-72132407D03*
X115684790Y-71640651D03*
X117191233Y-69689047D03*
%TD*%
D48*
%TO.C,D65*%
X193575828Y-125133042D03*
X193040071Y-123839611D03*
X188494491Y-127237801D03*
%TD*%
D25*
%TO.C,SW51*%
X305805036Y-133638650D03*
D26*
X301467458Y-132171299D03*
D33*
X301130633Y-128731259D03*
D34*
X298038422Y-133090107D03*
D33*
X312798523Y-127882465D03*
D34*
X310372724Y-127155539D03*
%TD*%
D49*
%TO.C,J5*%
X172400013Y-117630016D03*
D24*
X172400013Y-115090016D03*
D23*
X172400013Y-112550016D03*
X172400013Y-110010016D03*
%TD*%
D50*
%TO.C,C68*%
X64155254Y-136043497D03*
X65082542Y-136291963D03*
%TD*%
D51*
%TO.C,D94*%
X328874354Y-105658693D03*
X327039095Y-106150449D03*
X327367911Y-103707089D03*
%TD*%
D52*
%TO.C,C44*%
X205599989Y-86975029D03*
X205599989Y-85425029D03*
%TD*%
D53*
%TO.C,C109*%
X336432779Y-79562743D03*
X335505491Y-79811209D03*
%TD*%
D35*
%TO.C,C17*%
X202719994Y-81600030D03*
X203679994Y-81600030D03*
%TD*%
D54*
%TO.C,R27*%
X209510009Y-137000026D03*
X208490009Y-137000026D03*
%TD*%
D50*
%TO.C,C55*%
X93649779Y-99572000D03*
X94577067Y-99820466D03*
%TD*%
%TO.C,C54*%
X113077865Y-100669000D03*
X114005153Y-100917466D03*
%TD*%
D55*
%TO.C,R40*%
X229489995Y-190295060D03*
X230509995Y-190295060D03*
%TD*%
D56*
%TO.C,D27*%
X86445499Y-158257029D03*
X86807845Y-156904733D03*
X81132907Y-156833525D03*
%TD*%
D20*
%TO.C,H7*%
X319482349Y-162625389D03*
%TD*%
D53*
%TO.C,C92*%
X253262162Y-137183515D03*
X252334874Y-137431981D03*
%TD*%
D57*
%TO.C,C71*%
X69448969Y-158633343D03*
X68521681Y-158384877D03*
%TD*%
D58*
%TO.C,R20*%
X181799995Y-73890030D03*
X181799995Y-74910030D03*
%TD*%
D25*
%TO.C,SW39*%
X295944032Y-96836866D03*
D26*
X291606454Y-95369515D03*
D33*
X291269629Y-91929475D03*
D34*
X288177418Y-96288323D03*
D33*
X302937519Y-91080681D03*
D34*
X300511720Y-90353755D03*
%TD*%
D25*
%TO.C,SW63*%
X220536382Y-179961426D03*
D26*
X215966825Y-179666721D03*
D59*
X214751130Y-176431075D03*
D60*
X212892435Y-181441721D03*
D59*
X225801761Y-172591331D03*
D60*
X223270477Y-172517017D03*
%TD*%
D61*
%TO.C,D32*%
X314778607Y-82899724D03*
X314416261Y-81547428D03*
X309466015Y-84323228D03*
%TD*%
D25*
%TO.C,SW61*%
X175463601Y-179961428D03*
D26*
X173434044Y-175856723D03*
D27*
X175628349Y-173186077D03*
D28*
X170359654Y-174081723D03*
D27*
X184478980Y-180836333D03*
D28*
X183277696Y-178607019D03*
%TD*%
D62*
%TO.C,C76*%
X177359422Y-187637778D03*
X176528038Y-187157778D03*
%TD*%
D25*
%TO.C,SW48*%
X246493617Y-133096062D03*
D26*
X242156039Y-131628711D03*
D33*
X241819214Y-128188671D03*
D34*
X238727003Y-132547519D03*
D33*
X253487104Y-127339877D03*
D34*
X251061305Y-126612951D03*
%TD*%
D46*
%TO.C,C101*%
X272335593Y-103505636D03*
X273262881Y-103257170D03*
%TD*%
D63*
%TO.C,D72*%
X207505506Y-127237799D03*
X208041263Y-125944368D03*
X202424169Y-125133040D03*
%TD*%
D55*
%TO.C,R5*%
X214489989Y-73200031D03*
X215509989Y-73200031D03*
%TD*%
D56*
%TO.C,D3*%
X106167513Y-84653510D03*
X106529859Y-83301214D03*
X100854921Y-83230006D03*
%TD*%
D57*
%TO.C,C63*%
X153324391Y-140020176D03*
X152397103Y-139771710D03*
%TD*%
D58*
%TO.C,R8*%
X207499994Y-73690028D03*
X207499994Y-74710028D03*
%TD*%
D35*
%TO.C,C31*%
X187119983Y-72200024D03*
X188079983Y-72200024D03*
%TD*%
D20*
%TO.C,H11*%
X211799999Y-143000025D03*
%TD*%
D35*
%TO.C,C21*%
X208044998Y-131600030D03*
X209004998Y-131600030D03*
%TD*%
D57*
%TO.C,C49*%
X128232567Y-86457049D03*
X127305279Y-86208583D03*
%TD*%
D45*
%TO.C,D53*%
X267459885Y-148364880D03*
X267822231Y-149717176D03*
X272772477Y-146941376D03*
%TD*%
D56*
%TO.C,D2*%
X86534005Y-84323212D03*
X86896351Y-82970916D03*
X81221413Y-82899708D03*
%TD*%
%TO.C,D18*%
X150687414Y-139313596D03*
X151049760Y-137961300D03*
X145374822Y-137890092D03*
%TD*%
D53*
%TO.C,C85*%
X356154780Y-153166290D03*
X355227492Y-153414756D03*
%TD*%
D64*
%TO.C,D87*%
X148370904Y-174009539D03*
X146863532Y-172852892D03*
X149002150Y-171626337D03*
%TD*%
D58*
%TO.C,R23*%
X184999994Y-76590030D03*
X184999994Y-77610030D03*
%TD*%
D65*
%TO.C,C11*%
X205499987Y-74020031D03*
X205499987Y-74980031D03*
%TD*%
D66*
%TO.C,C22*%
X206379996Y-137300028D03*
X205419996Y-137300028D03*
%TD*%
D67*
%TO.C,C10*%
X202724989Y-76400033D03*
X204274989Y-76400033D03*
%TD*%
D68*
%TO.C,D106*%
X219999990Y-73450033D03*
X219999990Y-75550033D03*
%TD*%
D65*
%TO.C,C12*%
X209499987Y-73120032D03*
X209499987Y-74080032D03*
%TD*%
D69*
%TO.C,R32*%
X170499994Y-84710030D03*
X170499994Y-83690030D03*
%TD*%
%TO.C,R44*%
X181000027Y-87510020D03*
X181000027Y-86490020D03*
%TD*%
D25*
%TO.C,SW49*%
X344455737Y-130677961D03*
D26*
X340118159Y-129210610D03*
D33*
X339781334Y-125770570D03*
D34*
X336689123Y-130129418D03*
D33*
X351449224Y-124921776D03*
D34*
X349023425Y-124194850D03*
%TD*%
D47*
%TO.C,D103*%
X188746764Y-179158049D03*
X186911505Y-178666293D03*
X188417948Y-176714689D03*
%TD*%
D65*
%TO.C,C3*%
X174399994Y-73220030D03*
X174399994Y-74180030D03*
%TD*%
D46*
%TO.C,C99*%
X311397190Y-102078383D03*
X312324478Y-101829917D03*
%TD*%
D45*
%TO.C,D50*%
X323895180Y-138173584D03*
X324257526Y-139525880D03*
X329207772Y-136750080D03*
%TD*%
D67*
%TO.C,C40*%
X192624988Y-86337532D03*
X194174988Y-86337532D03*
%TD*%
D56*
%TO.C,D28*%
X115881002Y-171074766D03*
X116243348Y-169722470D03*
X110568410Y-169651262D03*
%TD*%
D70*
%TO.C,C81*%
X269149260Y-175232885D03*
X268317876Y-175712885D03*
%TD*%
D61*
%TO.C,D55*%
X353517803Y-153872869D03*
X353155457Y-152520573D03*
X348205211Y-155296373D03*
%TD*%
%TO.C,D31*%
X333795800Y-80269319D03*
X333433454Y-78917023D03*
X328483208Y-81692823D03*
%TD*%
D47*
%TO.C,D75*%
X153631552Y-84569532D03*
X151796293Y-84077776D03*
X153302736Y-82126172D03*
%TD*%
D57*
%TO.C,C70*%
X50431773Y-156002951D03*
X49504485Y-155754485D03*
%TD*%
D61*
%TO.C,D45*%
X305006091Y-120031772D03*
X304643745Y-118679476D03*
X299693499Y-121455276D03*
%TD*%
D25*
%TO.C,SW47*%
X264072767Y-125098759D03*
D26*
X259735189Y-123631408D03*
D33*
X259398364Y-120191368D03*
D34*
X256306153Y-124550216D03*
D33*
X271066254Y-119342574D03*
D34*
X268640455Y-118615648D03*
%TD*%
D61*
%TO.C,D43*%
X343656803Y-117071086D03*
X343294457Y-115718790D03*
X338344211Y-118494590D03*
%TD*%
D53*
%TO.C,C84*%
X337137598Y-155796693D03*
X336210310Y-156045159D03*
%TD*%
D25*
%TO.C,SW57*%
X310735533Y-152039526D03*
D26*
X306397955Y-150572175D03*
D33*
X306061130Y-147132135D03*
D34*
X302968919Y-151490983D03*
D33*
X317729020Y-146283341D03*
D34*
X315303221Y-145556415D03*
%TD*%
D45*
%TO.C,D51*%
X304261662Y-138503882D03*
X304624008Y-139856178D03*
X309574254Y-137080378D03*
%TD*%
D20*
%TO.C,H10*%
X184199996Y-142999978D03*
%TD*%
D46*
%TO.C,C100*%
X291763676Y-102408679D03*
X292690964Y-102160213D03*
%TD*%
D71*
%TO.C,D63*%
X225767955Y-183522770D03*
X225067955Y-182310334D03*
X221004815Y-186272770D03*
%TD*%
D69*
%TO.C,R4*%
X212249990Y-113760023D03*
X212249990Y-112740023D03*
%TD*%
D51*
%TO.C,D100*%
X338735358Y-142460475D03*
X336900099Y-142952231D03*
X337228915Y-140508871D03*
%TD*%
D72*
%TO.C,C37*%
X185999997Y-90725022D03*
X185999997Y-92275022D03*
%TD*%
D42*
%TO.C,C38*%
X190999992Y-88080028D03*
X190999992Y-87120028D03*
%TD*%
D57*
%TO.C,C59*%
X79309971Y-121831547D03*
X78382683Y-121583081D03*
%TD*%
D56*
%TO.C,D13*%
X57655787Y-118494597D03*
X58018133Y-117142301D03*
X52343195Y-117071093D03*
%TD*%
D73*
%TO.C,C80*%
X252502117Y-186203491D03*
X251823295Y-186882313D03*
%TD*%
D45*
%TO.C,D52*%
X284833589Y-139600827D03*
X285195935Y-140953123D03*
X290146181Y-138177323D03*
%TD*%
D74*
%TO.C,C122*%
X174650003Y-92100031D03*
X172750003Y-92100031D03*
%TD*%
D47*
%TO.C,D77*%
X112589549Y-90533291D03*
X110754290Y-90041535D03*
X112260733Y-88089931D03*
%TD*%
D45*
%TO.C,D38*%
X314034175Y-101371803D03*
X314396521Y-102724099D03*
X319346767Y-99948299D03*
%TD*%
D69*
%TO.C,R12*%
X191999996Y-77110031D03*
X191999996Y-76090031D03*
%TD*%
D25*
%TO.C,SW43*%
X339525232Y-112277060D03*
D26*
X335187654Y-110809709D03*
D33*
X334850829Y-107369669D03*
D34*
X331758618Y-111728517D03*
D33*
X346518719Y-106520875D03*
D34*
X344092920Y-105793949D03*
%TD*%
D53*
%TO.C,C106*%
X278353996Y-83620397D03*
X277426708Y-83868863D03*
%TD*%
D75*
%TO.C,D23*%
X123227545Y-146941351D03*
X122865199Y-148293647D03*
X128540137Y-148364855D03*
%TD*%
D66*
%TO.C,C79*%
X203479989Y-210750023D03*
X202519989Y-210750023D03*
%TD*%
D61*
%TO.C,D56*%
X334500620Y-156503270D03*
X334138274Y-155150974D03*
X329188028Y-157926774D03*
%TD*%
D76*
%TO.C,U7*%
X170662498Y-74150023D03*
X170662498Y-72250023D03*
X172937498Y-73200023D03*
%TD*%
D46*
%TO.C,C87*%
X321258202Y-138880156D03*
X322185490Y-138631690D03*
%TD*%
D36*
%TO.C,J2*%
X202750000Y-69650030D03*
X202250000Y-69650030D03*
X201750000Y-69650030D03*
X201250000Y-69650030D03*
X200750000Y-69650030D03*
X200250000Y-69650030D03*
X199750000Y-69650030D03*
X199250000Y-69650030D03*
X198750000Y-69650030D03*
X198250000Y-69650030D03*
X197750000Y-69650030D03*
X197250000Y-69650030D03*
X196750000Y-69650030D03*
X196250000Y-69650030D03*
X195750000Y-69650030D03*
X195250000Y-69650030D03*
X194750000Y-69650030D03*
X194250000Y-69650030D03*
X193750000Y-69650030D03*
X193250000Y-69650030D03*
D37*
X192250000Y-67150030D03*
X203750000Y-67150030D03*
%TD*%
D65*
%TO.C,C13*%
X210499989Y-73120032D03*
X210499989Y-74080032D03*
%TD*%
D25*
%TO.C,SW46*%
X281446441Y-116334721D03*
D26*
X277108863Y-114867370D03*
D33*
X276772038Y-111427330D03*
D34*
X273679827Y-115786178D03*
D33*
X288439928Y-110578536D03*
D34*
X286014129Y-109851610D03*
%TD*%
D69*
%TO.C,R9*%
X212199987Y-88610029D03*
X212199987Y-87590029D03*
%TD*%
D46*
%TO.C,C103*%
X237382764Y-120266998D03*
X238310052Y-120018532D03*
%TD*%
D77*
%TO.C,U12*%
X184249985Y-89137521D03*
X183299985Y-89137521D03*
X182349985Y-89137521D03*
X182349985Y-86862521D03*
X184249985Y-86862521D03*
%TD*%
D51*
%TO.C,D104*%
X209062025Y-178602893D03*
X207226766Y-179094649D03*
X207555582Y-176651289D03*
%TD*%
D78*
%TO.C,D70*%
X213762226Y-152505536D03*
X215055657Y-153041293D03*
X215866985Y-147424199D03*
%TD*%
D53*
%TO.C,C108*%
X317415581Y-82193146D03*
X316488293Y-82441612D03*
%TD*%
D47*
%TO.C,D82*%
X63635974Y-126023405D03*
X61800715Y-125531649D03*
X63307158Y-123580045D03*
%TD*%
D51*
%TO.C,D93*%
X249452820Y-103667668D03*
X247617561Y-104159424D03*
X247946377Y-101716064D03*
%TD*%
D79*
%TO.C,Q2*%
X183749984Y-76450030D03*
X183749984Y-77100030D03*
X183749984Y-77750030D03*
X181849984Y-77750030D03*
X181849984Y-77100030D03*
X181849984Y-76450030D03*
%TD*%
D35*
%TO.C,C28*%
X181819998Y-69900025D03*
X182779998Y-69900025D03*
%TD*%
D66*
%TO.C,C77*%
X203479991Y-191700027D03*
X202519991Y-191700027D03*
%TD*%
D51*
%TO.C,D97*%
X333806281Y-124064895D03*
X331971022Y-124556651D03*
X332299838Y-122113291D03*
%TD*%
D49*
%TO.C,J1*%
X220299999Y-102460027D03*
D23*
X220299999Y-105000027D03*
D24*
X220299999Y-107540027D03*
%TD*%
D57*
%TO.C,C73*%
X118517988Y-171781342D03*
X117590700Y-171532876D03*
%TD*%
D80*
%TO.C,D64*%
X200749987Y-210750023D03*
X200749987Y-209350023D03*
X195249987Y-210750023D03*
%TD*%
D53*
%TO.C,C105*%
X260980289Y-92384442D03*
X260053001Y-92632908D03*
%TD*%
D51*
%TO.C,D95*%
X289804548Y-107055292D03*
X287969289Y-107547048D03*
X288298105Y-105103688D03*
%TD*%
D50*
%TO.C,C67*%
X83788782Y-136373785D03*
X84716070Y-136622251D03*
%TD*%
D61*
%TO.C,D34*%
X275717012Y-84326979D03*
X275354666Y-82974683D03*
X270404420Y-85750483D03*
%TD*%
D35*
%TO.C,C25*%
X212519988Y-73200034D03*
X213479988Y-73200034D03*
%TD*%
D25*
%TO.C,SW37*%
X334594728Y-93876176D03*
D26*
X330257150Y-92408825D03*
D33*
X329920325Y-88968785D03*
D34*
X326828114Y-93327633D03*
D33*
X341588215Y-88119991D03*
D34*
X339162416Y-87393065D03*
%TD*%
D80*
%TO.C,D62*%
X200750001Y-191700034D03*
X200750001Y-190300034D03*
X195250001Y-191700034D03*
%TD*%
D46*
%TO.C,C86*%
X340275381Y-136249776D03*
X341202669Y-136001310D03*
%TD*%
D75*
%TO.C,D10*%
X115714842Y-101375574D03*
X115352496Y-102727870D03*
X121027434Y-102799078D03*
%TD*%
D53*
%TO.C,C97*%
X346293772Y-116364510D03*
X345366484Y-116612976D03*
%TD*%
D81*
%TO.C,U2*%
X215999984Y-74350032D03*
X215999984Y-74850032D03*
X215999984Y-75350032D03*
X215999984Y-75850032D03*
X213199984Y-75850032D03*
X213199984Y-75350032D03*
X213199984Y-74850032D03*
X213199984Y-74350032D03*
D82*
X214599984Y-75100032D03*
%TD*%
D83*
%TO.C,U5*%
X194799994Y-76175030D03*
X195199994Y-76175030D03*
D84*
X195824994Y-76300030D03*
X195824994Y-76700030D03*
X195824994Y-77100030D03*
X195824994Y-77500030D03*
D83*
X195199994Y-77625030D03*
X194799994Y-77625030D03*
D84*
X194174994Y-77500030D03*
X194174994Y-77100030D03*
X194174994Y-76700030D03*
X194174994Y-76300030D03*
%TD*%
D51*
%TO.C,D92*%
X284874054Y-88654413D03*
X283038795Y-89146169D03*
X283367611Y-86702809D03*
%TD*%
D42*
%TO.C,C5*%
X216799987Y-89580033D03*
X216799987Y-88620033D03*
%TD*%
D35*
%TO.C,C30*%
X229019994Y-74500026D03*
X229979994Y-74500026D03*
%TD*%
D47*
%TO.C,D81*%
X143770549Y-121371312D03*
X141935290Y-120879556D03*
X143441733Y-118927952D03*
%TD*%
D55*
%TO.C,R14*%
X205290024Y-133200020D03*
X206310024Y-133200020D03*
%TD*%
D53*
%TO.C,C94*%
X288214987Y-120422165D03*
X287287699Y-120670631D03*
%TD*%
D42*
%TO.C,C45*%
X175199996Y-83080027D03*
X175199996Y-82120027D03*
%TD*%
D57*
%TO.C,C72*%
X89082475Y-158963610D03*
X88155187Y-158715144D03*
%TD*%
%TO.C,C47*%
X89170978Y-85029788D03*
X88243690Y-84781322D03*
%TD*%
D85*
%TO.C,D69*%
X202424169Y-160867012D03*
X202959926Y-162160443D03*
X207505506Y-158762253D03*
%TD*%
D86*
%TO.C,FB1*%
X191224994Y-72000030D03*
X194374994Y-72000030D03*
%TD*%
D47*
%TO.C,D76*%
X73496982Y-89221630D03*
X71661723Y-88729874D03*
X73168166Y-86778270D03*
%TD*%
D51*
%TO.C,D99*%
X259313820Y-140469434D03*
X257478561Y-140961190D03*
X257807377Y-138517830D03*
%TD*%
D61*
%TO.C,D57*%
X314867099Y-156833544D03*
X314504753Y-155481248D03*
X309554507Y-158257048D03*
%TD*%
D25*
%TO.C,SW38*%
X315577546Y-96506569D03*
D26*
X311239968Y-95039218D03*
D33*
X310903143Y-91599178D03*
D34*
X307810932Y-95958026D03*
D33*
X322571033Y-90750384D03*
D34*
X320145234Y-90023458D03*
%TD*%
D53*
%TO.C,C107*%
X297782062Y-82523437D03*
X296854774Y-82771903D03*
%TD*%
%TO.C,C96*%
X327276585Y-118994903D03*
X326349297Y-119243369D03*
%TD*%
D87*
%TO.C,D30*%
X149317384Y-192022979D03*
X150307333Y-191033030D03*
X145428297Y-188133892D03*
%TD*%
D55*
%TO.C,R28*%
X207889994Y-138100034D03*
X208909994Y-138100034D03*
%TD*%
D88*
%TO.C,C117*%
X196098018Y-124088315D03*
X195211094Y-124455691D03*
%TD*%
D45*
%TO.C,D42*%
X240019742Y-119560422D03*
X240382088Y-120912718D03*
X245332334Y-118136918D03*
%TD*%
D25*
%TO.C,SW52*%
X286376961Y-134735596D03*
D26*
X282039383Y-133268245D03*
D33*
X281702558Y-129828205D03*
D34*
X278610347Y-134187053D03*
D33*
X293370448Y-128979411D03*
D34*
X290944649Y-128252485D03*
%TD*%
D75*
%TO.C,D12*%
X150667673Y-118136913D03*
X150305327Y-119489209D03*
X155980265Y-119560417D03*
%TD*%
D66*
%TO.C,C20*%
X197079994Y-72650030D03*
X196119994Y-72650030D03*
%TD*%
D69*
%TO.C,R19*%
X181799984Y-72910046D03*
X181799984Y-71890046D03*
%TD*%
D89*
%TO.C,U10*%
X161524993Y-84745024D03*
X161524993Y-83475024D03*
X161524993Y-82205024D03*
X161524993Y-80935024D03*
X161524993Y-79665024D03*
X161524993Y-78395024D03*
X161524993Y-77125024D03*
X161524993Y-75855024D03*
X166474993Y-75855024D03*
X166474993Y-77125024D03*
X166474993Y-78395024D03*
X166474993Y-79665024D03*
X166474993Y-80935024D03*
X166474993Y-82205024D03*
X166474993Y-83475024D03*
X166474993Y-84745024D03*
%TD*%
D90*
%TO.C,C115*%
X179088285Y-144902007D03*
X179455661Y-145788931D03*
%TD*%
D51*
%TO.C,D98*%
X294735051Y-125456179D03*
X292899792Y-125947935D03*
X293228608Y-123504575D03*
%TD*%
D53*
%TO.C,C82*%
X288068562Y-168944684D03*
X287141274Y-169193150D03*
%TD*%
D47*
%TO.C,D84*%
X138840044Y-139772197D03*
X137004785Y-139280441D03*
X138511228Y-137328837D03*
%TD*%
D91*
%TO.C,JP1*%
X204100024Y-133200021D03*
X202900024Y-133200021D03*
%TD*%
D69*
%TO.C,R10*%
X204799987Y-146710027D03*
X204799987Y-145690027D03*
%TD*%
D51*
%TO.C,D101*%
X296216107Y-153064599D03*
X294380848Y-153556355D03*
X294709664Y-151112995D03*
%TD*%
D25*
%TO.C,SW34*%
X271585452Y-79532949D03*
D26*
X267247874Y-78065598D03*
D33*
X266911049Y-74625558D03*
D34*
X263818838Y-78984406D03*
D33*
X278578939Y-73776764D03*
D34*
X276153140Y-73049838D03*
%TD*%
D57*
%TO.C,C58*%
X60292759Y-119201180D03*
X59365471Y-118952714D03*
%TD*%
D20*
%TO.C,H6*%
X76517625Y-162625380D03*
%TD*%
D92*
%TO.C,D108*%
X200999987Y-86550030D03*
X198899987Y-86550030D03*
%TD*%
D51*
%TO.C,D88*%
X319013355Y-68856930D03*
X317178096Y-69348686D03*
X317506912Y-66905326D03*
%TD*%
D61*
%TO.C,D44*%
X324639611Y-119701478D03*
X324277265Y-118349182D03*
X319327019Y-121124982D03*
%TD*%
D93*
%TO.C,C112*%
X212717502Y-155027716D03*
X213084878Y-154140792D03*
%TD*%
D94*
%TO.C,C114*%
X185972302Y-157717530D03*
X186859226Y-158084906D03*
%TD*%
D35*
%TO.C,C43*%
X205219991Y-88237529D03*
X206179991Y-88237529D03*
%TD*%
D54*
%TO.C,R29*%
X196409990Y-88037525D03*
X195389990Y-88037525D03*
%TD*%
D95*
%TO.C,L1*%
X186900029Y-88950020D03*
X186900029Y-86650020D03*
%TD*%
D65*
%TO.C,C2*%
X213349990Y-112770026D03*
X213349990Y-113730026D03*
%TD*%
D96*
%TO.C,C110*%
X210027695Y-128282526D03*
X209140771Y-127915150D03*
%TD*%
D42*
%TO.C,C16*%
X209799994Y-88080029D03*
X209799994Y-87120029D03*
%TD*%
D58*
%TO.C,R1*%
X218049993Y-112740025D03*
X218049993Y-113760025D03*
%TD*%
D50*
%TO.C,C64*%
X138169687Y-154232118D03*
X139096975Y-154480584D03*
%TD*%
D97*
%TO.C,U8*%
X199349994Y-76062530D03*
X201249994Y-76062530D03*
X200299994Y-77937530D03*
%TD*%
D56*
%TO.C,D5*%
X142969296Y-94514492D03*
X143331642Y-93162196D03*
X137656704Y-93090988D03*
%TD*%
D46*
%TO.C,C91*%
X247243770Y-157068763D03*
X248171058Y-156820297D03*
%TD*%
D50*
%TO.C,C66*%
X103216861Y-137470746D03*
X104144149Y-137719212D03*
%TD*%
D66*
%TO.C,C14*%
X214879986Y-77600033D03*
X213919986Y-77600033D03*
%TD*%
D42*
%TO.C,C23*%
X186399994Y-70980020D03*
X186399994Y-70020020D03*
%TD*%
D98*
%TO.C,D60*%
X250571709Y-188133897D03*
X249581760Y-187143948D03*
X246682622Y-192022984D03*
%TD*%
D54*
%TO.C,R36*%
X185009989Y-67900023D03*
X183989989Y-67900023D03*
%TD*%
D75*
%TO.C,D20*%
X66792233Y-136750077D03*
X66429887Y-138102373D03*
X72104825Y-138173581D03*
%TD*%
D99*
%TO.C,R30*%
X202399993Y-88025031D03*
X202399993Y-86375031D03*
%TD*%
D66*
%TO.C,C15*%
X218379994Y-81600030D03*
X217419994Y-81600030D03*
%TD*%
D47*
%TO.C,D80*%
X107659045Y-108934180D03*
X105823786Y-108442424D03*
X107330229Y-106490820D03*
%TD*%
D54*
%TO.C,R43*%
X172909994Y-80600030D03*
X171889994Y-80600030D03*
%TD*%
D50*
%TO.C,C56*%
X74016273Y-99241719D03*
X74943561Y-99490185D03*
%TD*%
D57*
%TO.C,C60*%
X98943492Y-122161835D03*
X98016204Y-121913369D03*
%TD*%
D92*
%TO.C,D107*%
X197649991Y-86550029D03*
X195549991Y-86550029D03*
%TD*%
D75*
%TO.C,D11*%
X133088535Y-110139569D03*
X132726189Y-111491865D03*
X138401127Y-111563073D03*
%TD*%
D25*
%TO.C,SW59*%
X261553431Y-173036533D03*
D26*
X256983874Y-172741828D03*
D59*
X255768179Y-169506182D03*
D60*
X253909484Y-174516828D03*
D59*
X266818810Y-165666438D03*
D60*
X264287526Y-165592124D03*
%TD*%
D54*
%TO.C,R35*%
X182809994Y-67900024D03*
X181789994Y-67900024D03*
%TD*%
D100*
%TO.C,C75*%
X151247787Y-193953387D03*
X150568965Y-193274565D03*
%TD*%
D38*
%TO.C,D29*%
X133978140Y-179347895D03*
X134678140Y-178135459D03*
X129215000Y-176597895D03*
%TD*%
D57*
%TO.C,C50*%
X145606263Y-95221071D03*
X144678975Y-94972605D03*
%TD*%
D69*
%TO.C,R2*%
X215849993Y-113760030D03*
X215849993Y-112740030D03*
%TD*%
D67*
%TO.C,C35*%
X183025028Y-85100023D03*
X184575028Y-85100023D03*
%TD*%
D58*
%TO.C,R26*%
X182399999Y-91390022D03*
X182399999Y-92410022D03*
%TD*%
D66*
%TO.C,C123*%
X232479995Y-191395030D03*
X231519995Y-191395030D03*
%TD*%
D101*
%TO.C,D66*%
X182237769Y-133494522D03*
X180944338Y-132958765D03*
X180133010Y-138575859D03*
%TD*%
D54*
%TO.C,R41*%
X232509995Y-189195030D03*
X231489995Y-189195030D03*
%TD*%
D52*
%TO.C,C126*%
X197799995Y-77575030D03*
X197799995Y-76025030D03*
%TD*%
D42*
%TO.C,C34*%
X186099994Y-66780030D03*
X186099994Y-65820030D03*
%TD*%
D102*
%TO.C,C111*%
X216911712Y-141098047D03*
X216544336Y-140211123D03*
%TD*%
D25*
%TO.C,SW33*%
X291013516Y-78435987D03*
D26*
X286675938Y-76968636D03*
D33*
X286339113Y-73528596D03*
D34*
X283246902Y-77887444D03*
D33*
X298007003Y-72679802D03*
D34*
X295581204Y-71952876D03*
%TD*%
D61*
%TO.C,D33*%
X295145084Y-83230018D03*
X294782738Y-81877722D03*
X289832492Y-84653522D03*
%TD*%
D57*
%TO.C,C51*%
X163185396Y-103218387D03*
X162258108Y-102969921D03*
%TD*%
D53*
%TO.C,C93*%
X270841311Y-129186206D03*
X269914023Y-129434672D03*
%TD*%
D25*
%TO.C,SW32*%
X310647038Y-78105699D03*
D26*
X306309460Y-76638348D03*
D33*
X305972635Y-73198308D03*
D34*
X302880424Y-77557156D03*
D33*
X317640525Y-72349514D03*
D34*
X315214726Y-71622588D03*
%TD*%
D47*
%TO.C,D86*%
X103041814Y-152663183D03*
X101206555Y-152171427D03*
X102712998Y-150219823D03*
%TD*%
D46*
%TO.C,C98*%
X330414369Y-99447982D03*
X331341657Y-99199516D03*
%TD*%
D58*
%TO.C,R33*%
X171599995Y-83690030D03*
X171599995Y-84710030D03*
%TD*%
D47*
%TO.C,D78*%
X148701046Y-102970423D03*
X146865787Y-102478667D03*
X148372230Y-100527063D03*
%TD*%
D25*
%TO.C,SW55*%
X349386237Y-149078840D03*
D26*
X345048659Y-147611489D03*
D33*
X344711834Y-144171449D03*
D34*
X341619623Y-148530297D03*
D33*
X356379724Y-143322655D03*
D34*
X353953925Y-142595729D03*
%TD*%
D54*
%TO.C,R42*%
X230509984Y-189195031D03*
X229489984Y-189195031D03*
%TD*%
D65*
%TO.C,C19*%
X204499987Y-74020028D03*
X204499987Y-74980028D03*
%TD*%
D25*
%TO.C,SW41*%
X259142270Y-106697877D03*
D26*
X254804692Y-105230526D03*
D33*
X254467867Y-101790486D03*
D34*
X251375656Y-106149334D03*
D33*
X266135757Y-100941692D03*
D34*
X263709958Y-100214766D03*
%TD*%
D74*
%TO.C,C120*%
X174649999Y-88100026D03*
X172749999Y-88100026D03*
%TD*%
D56*
%TO.C,D14*%
X76672997Y-121124969D03*
X77035343Y-119772673D03*
X71360405Y-119701465D03*
%TD*%
D51*
%TO.C,D96*%
X254383315Y-122068548D03*
X252548056Y-122560304D03*
X252876872Y-120116944D03*
%TD*%
D46*
%TO.C,C88*%
X301624686Y-139210459D03*
X302551974Y-138961993D03*
%TD*%
D45*
%TO.C,D40*%
X274972569Y-102799068D03*
X275334915Y-104151364D03*
X280285161Y-101375564D03*
%TD*%
D103*
%TO.C,Y1*%
X215349988Y-88000030D03*
X215349988Y-90200030D03*
X213649988Y-90200030D03*
X213649988Y-88000030D03*
%TD*%
D56*
%TO.C,D25*%
X47794791Y-155296373D03*
X48157137Y-153944077D03*
X42482199Y-153872869D03*
%TD*%
D42*
%TO.C,C24*%
X218499988Y-76280031D03*
X218499988Y-75320031D03*
%TD*%
D47*
%TO.C,D83*%
X102728542Y-127335065D03*
X100893283Y-126843309D03*
X102399726Y-124891705D03*
%TD*%
D65*
%TO.C,C36*%
X184599996Y-91420022D03*
X184599996Y-92380022D03*
%TD*%
D50*
%TO.C,C65*%
X120590568Y-146234782D03*
X121517856Y-146483248D03*
%TD*%
D56*
%TO.C,D1*%
X67516813Y-81692815D03*
X67879159Y-80340519D03*
X62204221Y-80269311D03*
%TD*%
D65*
%TO.C,C4*%
X169199996Y-72220021D03*
X169199996Y-73180021D03*
%TD*%
D104*
%TO.C,U11*%
X234474992Y-75855024D03*
X234474992Y-77125024D03*
X234474992Y-78395024D03*
X234474992Y-79665024D03*
X234474992Y-80935024D03*
X234474992Y-82205024D03*
X234474992Y-83475024D03*
X234474992Y-84745024D03*
X229524992Y-84745024D03*
X229524992Y-83475024D03*
X229524992Y-82205024D03*
X229524992Y-80935024D03*
X229524992Y-79665024D03*
X229524992Y-78395024D03*
X229524992Y-77125024D03*
X229524992Y-75855024D03*
%TD*%
D75*
%TO.C,D22*%
X105853835Y-138177323D03*
X105491489Y-139529619D03*
X111166427Y-139600827D03*
%TD*%
D57*
%TO.C,C46*%
X70153793Y-82399390D03*
X69226505Y-82150924D03*
%TD*%
D61*
%TO.C,D58*%
X285431586Y-169651262D03*
X285069240Y-168298966D03*
X280118994Y-171074766D03*
%TD*%
D55*
%TO.C,R39*%
X231490006Y-190295061D03*
X232510006Y-190295061D03*
%TD*%
D47*
%TO.C,D79*%
X68566480Y-107622518D03*
X66731221Y-107130762D03*
X68237664Y-105179158D03*
%TD*%
D105*
%TO.C,C113*%
X199901980Y-161911737D03*
X200788904Y-161544361D03*
%TD*%
D106*
%TO.C,C116*%
X183282494Y-130972330D03*
X182915118Y-131859254D03*
%TD*%
D50*
%TO.C,C52*%
X148030694Y-117430335D03*
X148957982Y-117678801D03*
%TD*%
D58*
%TO.C,R21*%
X182799997Y-73890030D03*
X182799997Y-74910030D03*
%TD*%
D46*
%TO.C,C89*%
X282196613Y-140307404D03*
X283123901Y-140058938D03*
%TD*%
D20*
%TO.C,H4*%
X224050020Y-67557236D03*
%TD*%
D107*
%TO.C,D71*%
X215866987Y-138575859D03*
X217160418Y-138040102D03*
X213762228Y-133494522D03*
%TD*%
D55*
%TO.C,R16*%
X183989995Y-68900025D03*
X185009995Y-68900025D03*
%TD*%
D66*
%TO.C,C29*%
X166979991Y-86100019D03*
X166019991Y-86100019D03*
%TD*%
D42*
%TO.C,C6*%
X212199990Y-90580032D03*
X212199990Y-89620032D03*
%TD*%
D61*
%TO.C,D48*%
X250625185Y-137890084D03*
X250262839Y-136537788D03*
X245312593Y-139313588D03*
%TD*%
D58*
%TO.C,R22*%
X183799983Y-73890029D03*
X183799983Y-74910029D03*
%TD*%
D57*
%TO.C,C61*%
X118371544Y-123258825D03*
X117444256Y-123010359D03*
%TD*%
D58*
%TO.C,R7*%
X208499995Y-73690027D03*
X208499995Y-74710027D03*
%TD*%
D61*
%TO.C,D36*%
X240764183Y-101088327D03*
X240401837Y-99736031D03*
X235451591Y-102511831D03*
%TD*%
D25*
%TO.C,SW50*%
X325438553Y-133308350D03*
D26*
X321100975Y-131840999D03*
D33*
X320764150Y-128400959D03*
D34*
X317671939Y-132759807D03*
D33*
X332432040Y-127552165D03*
D34*
X330006241Y-126825239D03*
%TD*%
D55*
%TO.C,R24*%
X182289994Y-79100030D03*
X183309994Y-79100030D03*
%TD*%
D61*
%TO.C,D47*%
X268204333Y-129892787D03*
X267841987Y-128540491D03*
X262891741Y-131316291D03*
%TD*%
D69*
%TO.C,R18*%
X182799982Y-72910050D03*
X182799982Y-71890050D03*
%TD*%
D56*
%TO.C,D26*%
X66811988Y-157926769D03*
X67174334Y-156574473D03*
X61499396Y-156503265D03*
%TD*%
D47*
%TO.C,D73*%
X78427486Y-70820745D03*
X76592227Y-70328989D03*
X78098670Y-68377385D03*
%TD*%
D75*
%TO.C,D9*%
X96286756Y-100278578D03*
X95924410Y-101630874D03*
X101599348Y-101702082D03*
%TD*%
D66*
%TO.C,C119*%
X173979999Y-86300029D03*
X173019999Y-86300029D03*
%TD*%
D43*
%TO.C,U9*%
X183849988Y-70150025D03*
X184349988Y-70150025D03*
X184849988Y-70150025D03*
X185349988Y-70150025D03*
X185349988Y-72050025D03*
X184849988Y-72050025D03*
X184349988Y-72050025D03*
X183849988Y-72050025D03*
D44*
X184599988Y-71100025D03*
%TD*%
D71*
%TO.C,D59*%
X266785004Y-176597877D03*
X266085004Y-175385441D03*
X262021864Y-179347877D03*
%TD*%
D25*
%TO.C,SW56*%
X330369051Y-151709247D03*
D26*
X326031473Y-150241896D03*
D33*
X325694648Y-146801856D03*
D34*
X322602437Y-151160704D03*
D33*
X337362538Y-145953062D03*
D34*
X334936739Y-145226136D03*
%TD*%
D51*
%TO.C,D90*%
X244522318Y-85266780D03*
X242687059Y-85758536D03*
X243015875Y-83315176D03*
%TD*%
%TO.C,D91*%
X323945283Y-87263130D03*
X322110024Y-87754886D03*
X322438840Y-85311526D03*
%TD*%
D25*
%TO.C,SW45*%
X300874527Y-115237751D03*
D26*
X296536949Y-113770400D03*
D33*
X296200124Y-110330360D03*
D34*
X293107913Y-114689208D03*
D33*
X307868014Y-109481566D03*
D34*
X305442215Y-108754640D03*
%TD*%
D62*
%TO.C,C74*%
X136342390Y-180712891D03*
X135511006Y-180232891D03*
%TD*%
D45*
%TO.C,D39*%
X294400658Y-101702102D03*
X294763004Y-103054398D03*
X299713250Y-100278598D03*
%TD*%
D20*
%TO.C,H5*%
X171950018Y-67557229D03*
%TD*%
D58*
%TO.C,R25*%
X183499999Y-91390021D03*
X183499999Y-92410021D03*
%TD*%
D56*
%TO.C,D17*%
X133108294Y-131316303D03*
X133470640Y-129964007D03*
X127795702Y-129892799D03*
%TD*%
D108*
%TO.C,D67*%
X180133012Y-147424197D03*
X178839581Y-147959954D03*
X182237771Y-152505534D03*
%TD*%
D56*
%TO.C,D4*%
X125595587Y-85750468D03*
X125957933Y-84398172D03*
X120282995Y-84326964D03*
%TD*%
D61*
%TO.C,D46*%
X285578009Y-121128743D03*
X285215663Y-119776447D03*
X280265417Y-122552247D03*
%TD*%
D75*
%TO.C,D19*%
X47775061Y-134119689D03*
X47412715Y-135471985D03*
X53087653Y-135543193D03*
%TD*%
D70*
%TO.C,C78*%
X228132208Y-182157776D03*
X227300824Y-182637776D03*
%TD*%
D52*
%TO.C,C39*%
X189599993Y-87875030D03*
X189599993Y-86325030D03*
%TD*%
D56*
%TO.C,D6*%
X160548416Y-102511818D03*
X160910762Y-101159522D03*
X155235824Y-101088314D03*
%TD*%
D25*
%TO.C,SW44*%
X320508049Y-114907457D03*
D26*
X316170471Y-113440106D03*
D33*
X315833646Y-110000066D03*
D34*
X312741435Y-114358914D03*
D33*
X327501536Y-109151272D03*
D34*
X325075737Y-108424346D03*
%TD*%
D25*
%TO.C,SW60*%
X244596659Y-186047931D03*
D26*
X240106531Y-186945957D03*
D109*
X238094812Y-184135207D03*
D110*
X237596302Y-189456186D03*
D109*
X247775104Y-177566185D03*
D110*
X245310837Y-178149548D03*
%TD*%
D25*
%TO.C,SW54*%
X251424122Y-151496954D03*
D26*
X247086544Y-150029603D03*
D33*
X246749719Y-146589563D03*
D34*
X243657508Y-150948411D03*
D33*
X258417609Y-145740769D03*
D34*
X255991810Y-145013843D03*
%TD*%
D52*
%TO.C,C42*%
X203999990Y-87975029D03*
X203999990Y-86425029D03*
%TD*%
D55*
%TO.C,R11*%
X205190025Y-135200023D03*
X206210025Y-135200023D03*
%TD*%
D58*
%TO.C,R13*%
X218499986Y-73290034D03*
X218499986Y-74310034D03*
%TD*%
D65*
%TO.C,C7*%
X211499988Y-73120033D03*
X211499988Y-74080033D03*
%TD*%
D75*
%TO.C,D24*%
X140806665Y-154938699D03*
X140444319Y-156290995D03*
X146119257Y-156362203D03*
%TD*%
D111*
%TO.C,R31*%
X187802482Y-69615029D03*
X189627482Y-69615029D03*
%TD*%
D58*
%TO.C,R3*%
X214449993Y-112740033D03*
X214449993Y-113760033D03*
%TD*%
D52*
%TO.C,C26*%
X205099993Y-140875032D03*
X205099993Y-139325032D03*
%TD*%
D35*
%TO.C,C18*%
X202519987Y-77700031D03*
X203479987Y-77700031D03*
%TD*%
D53*
%TO.C,C95*%
X307643069Y-119325196D03*
X306715781Y-119573662D03*
%TD*%
D35*
%TO.C,C124*%
X229519984Y-191395031D03*
X230479984Y-191395031D03*
%TD*%
D36*
%TO.C,J6*%
X190749992Y-89737528D03*
X191249992Y-89737528D03*
X191749992Y-89737528D03*
X192249992Y-89737528D03*
X192749992Y-89737528D03*
X193249992Y-89737528D03*
X193749992Y-89737528D03*
X194249992Y-89737528D03*
X194749992Y-89737528D03*
X195249992Y-89737528D03*
X195749992Y-89737528D03*
X196249992Y-89737528D03*
X196749992Y-89737528D03*
X197249992Y-89737528D03*
X197749992Y-89737528D03*
X198249992Y-89737528D03*
X198749992Y-89737528D03*
X199249992Y-89737528D03*
X199749992Y-89737528D03*
X200249992Y-89737528D03*
X200749992Y-89737528D03*
X201249992Y-89737528D03*
X201749992Y-89737528D03*
X202249992Y-89737528D03*
X202749992Y-89737528D03*
X203249992Y-89737528D03*
X203749992Y-89737528D03*
X204249992Y-89737528D03*
X204749992Y-89737528D03*
X205249992Y-89737528D03*
D37*
X206249992Y-92237528D03*
X189749992Y-92237528D03*
%TD*%
D65*
%TO.C,C127*%
X203499986Y-74020030D03*
X203499986Y-74980030D03*
%TD*%
D45*
%TO.C,D37*%
X333051348Y-98741414D03*
X333413694Y-100093710D03*
X338363940Y-97317910D03*
%TD*%
D65*
%TO.C,C1*%
X216949997Y-112770027D03*
X216949997Y-113730027D03*
%TD*%
D25*
%TO.C,SW40*%
X276515945Y-97933837D03*
D26*
X272178367Y-96466486D03*
D33*
X271841542Y-93026446D03*
D34*
X268749331Y-97385294D03*
D33*
X283509432Y-92177652D03*
D34*
X281083633Y-91450726D03*
%TD*%
D50*
%TO.C,C69*%
X45138085Y-133413126D03*
X46065373Y-133661592D03*
%TD*%
D56*
%TO.C,D15*%
X96306508Y-121455264D03*
X96668854Y-120102968D03*
X90993916Y-120031760D03*
%TD*%
D53*
%TO.C,C104*%
X243401163Y-100381753D03*
X242473875Y-100630219D03*
%TD*%
D74*
%TO.C,C121*%
X174649999Y-90100028D03*
X172749999Y-90100028D03*
%TD*%
D42*
%TO.C,C8*%
X208799994Y-88080030D03*
X208799994Y-87120030D03*
%TD*%
D112*
%TO.C,U1*%
X212637494Y-78000030D03*
X212637494Y-78400030D03*
X212637494Y-78800030D03*
X212637494Y-79200030D03*
X212637494Y-79600030D03*
X212637494Y-80000030D03*
X212637494Y-80400030D03*
X212637494Y-80800030D03*
X212637494Y-81200030D03*
X212637494Y-81600030D03*
X212637494Y-82000030D03*
X212637494Y-82400030D03*
X212637494Y-82800030D03*
X212637494Y-83200030D03*
D113*
X211799994Y-84037530D03*
X211399994Y-84037530D03*
X210999994Y-84037530D03*
X210599994Y-84037530D03*
X210199994Y-84037530D03*
X209799994Y-84037530D03*
X209399994Y-84037530D03*
X208999994Y-84037530D03*
X208599994Y-84037530D03*
X208199994Y-84037530D03*
X207799994Y-84037530D03*
X207399994Y-84037530D03*
X206999994Y-84037530D03*
X206599994Y-84037530D03*
D112*
X205762494Y-83200030D03*
X205762494Y-82800030D03*
X205762494Y-82400030D03*
X205762494Y-82000030D03*
X205762494Y-81600030D03*
X205762494Y-81200030D03*
X205762494Y-80800030D03*
X205762494Y-80400030D03*
X205762494Y-80000030D03*
X205762494Y-79600030D03*
X205762494Y-79200030D03*
X205762494Y-78800030D03*
X205762494Y-78400030D03*
X205762494Y-78000030D03*
D113*
X206599994Y-77162530D03*
X206999994Y-77162530D03*
X207399994Y-77162530D03*
X207799994Y-77162530D03*
X208199994Y-77162530D03*
X208599994Y-77162530D03*
X208999994Y-77162530D03*
X209399994Y-77162530D03*
X209799994Y-77162530D03*
X210199994Y-77162530D03*
X210599994Y-77162530D03*
X210999994Y-77162530D03*
X211399994Y-77162530D03*
X211799994Y-77162530D03*
D114*
X209199994Y-80600030D03*
%TD*%
D47*
%TO.C,D85*%
X58715045Y-144388564D03*
X56879786Y-143896808D03*
X58386229Y-141945204D03*
%TD*%
D115*
%TO.C,U13*%
X189837487Y-65850031D03*
X189837487Y-66800031D03*
X189837487Y-67750031D03*
X187562487Y-67750031D03*
X187562487Y-65850031D03*
%TD*%
D25*
%TO.C,SW31*%
X329664234Y-75475295D03*
D26*
X325326656Y-74007944D03*
D33*
X324989831Y-70567904D03*
D34*
X321897620Y-74926752D03*
D33*
X336657721Y-69719110D03*
D34*
X334231922Y-68992184D03*
%TD*%
D45*
%TO.C,D49*%
X342912368Y-135543203D03*
X343274714Y-136895499D03*
X348224960Y-134119699D03*
%TD*%
D75*
%TO.C,D8*%
X76653250Y-99948294D03*
X76290904Y-101300590D03*
X81965842Y-101371798D03*
%TD*%
D56*
%TO.C,D16*%
X115734568Y-122552247D03*
X116096914Y-121199951D03*
X110421976Y-121128743D03*
%TD*%
D13*
%TO.C,SW64*%
X209906270Y-212035020D03*
D25*
X209906270Y-196795020D03*
X198000020Y-205050020D03*
D26*
X194190020Y-202510020D03*
D13*
X186093770Y-212035020D03*
D25*
X186093770Y-196795020D03*
D39*
X194755020Y-199100020D03*
D40*
X190640020Y-202510020D03*
D39*
X206245020Y-201300020D03*
D40*
X204090020Y-199970020D03*
%TD*%
D57*
%TO.C,C62*%
X135745277Y-132022879D03*
X134817989Y-131774413D03*
%TD*%
D79*
%TO.C,U3*%
X177149994Y-70150030D03*
X177149994Y-70800030D03*
X177149994Y-71450030D03*
X175249994Y-71450030D03*
X175249994Y-70150030D03*
%TD*%
D65*
%TO.C,C27*%
X206399995Y-140220032D03*
X206399995Y-141180032D03*
%TD*%
D50*
%TO.C,C53*%
X130451551Y-109432992D03*
X131378839Y-109681458D03*
%TD*%
D25*
%TO.C,SW35*%
X254211744Y-88296994D03*
D26*
X249874166Y-86829643D03*
D33*
X249537341Y-83389603D03*
D34*
X246445130Y-87748451D03*
D33*
X261205231Y-82540809D03*
D34*
X258779432Y-81813883D03*
%TD*%
D116*
%TO.C,D102*%
X249049964Y-172751012D03*
X247542592Y-173907659D03*
X246911346Y-171524457D03*
%TD*%
D25*
%TO.C,SW53*%
X269003259Y-143499646D03*
D26*
X264665681Y-142032295D03*
D33*
X264328856Y-138592255D03*
D34*
X261236645Y-142951103D03*
D33*
X275996746Y-137743461D03*
D34*
X273570947Y-137016535D03*
%TD*%
D75*
%TO.C,D21*%
X86425753Y-137080364D03*
X86063407Y-138432660D03*
X91738345Y-138503868D03*
%TD*%
D25*
%TO.C,SW42*%
X241563119Y-114695188D03*
D26*
X237225541Y-113227837D03*
D33*
X236888716Y-109787797D03*
D34*
X233796505Y-114146645D03*
D33*
X248556606Y-108939003D03*
D34*
X246130807Y-108212077D03*
%TD*%
D66*
%TO.C,C125*%
X177079994Y-68800030D03*
X176119994Y-68800030D03*
%TD*%
D117*
%TO.C,D105*%
X187800000Y-92350023D03*
X187800000Y-90250023D03*
%TD*%
D57*
%TO.C,C48*%
X108804490Y-85360090D03*
X107877202Y-85111624D03*
%TD*%
D75*
%TO.C,D7*%
X57636060Y-97317912D03*
X57273714Y-98670208D03*
X62948652Y-98741416D03*
%TD*%
D55*
%TO.C,R6*%
X216489985Y-73200032D03*
X217509985Y-73200032D03*
%TD*%
D67*
%TO.C,C41*%
X192624993Y-87937532D03*
X194174993Y-87937532D03*
%TD*%
D45*
%TO.C,D41*%
X257598891Y-111563111D03*
X257961237Y-112915407D03*
X262911483Y-110139607D03*
%TD*%
D46*
%TO.C,C102*%
X254961915Y-112269683D03*
X255889203Y-112021217D03*
%TD*%
D54*
%TO.C,R17*%
X182809994Y-68900024D03*
X181789994Y-68900024D03*
%TD*%
D118*
%TO.C,D68*%
X188494495Y-158762254D03*
X187958738Y-160055685D03*
X193575832Y-160867013D03*
%TD*%
D61*
%TO.C,D35*%
X258343305Y-93091020D03*
X257980959Y-91738724D03*
X253030713Y-94514524D03*
%TD*%
D50*
%TO.C,C57*%
X54999082Y-96611334D03*
X55926370Y-96859800D03*
%TD*%
D65*
%TO.C,C9*%
X206499987Y-74020029D03*
X206499987Y-74980029D03*
%TD*%
D53*
%TO.C,C83*%
X317504070Y-156126976D03*
X316576782Y-156375442D03*
%TD*%
D72*
%TO.C,C32*%
X189599994Y-72525030D03*
X189599994Y-74075030D03*
%TD*%
D51*
%TO.C,D89*%
X279943551Y-70253527D03*
X278108292Y-70745283D03*
X278437108Y-68301923D03*
%TD*%
M02*
