%TF.GenerationSoftware,KiCad,Pcbnew,(7.0.0)*%
%TF.CreationDate,2023-03-24T23:17:22+00:00*%
%TF.ProjectId,Honeydew,486f6e65-7964-4657-972e-6b696361645f,rev?*%
%TF.SameCoordinates,Original*%
%TF.FileFunction,Paste,Bot*%
%TF.FilePolarity,Positive*%
%FSLAX46Y46*%
G04 Gerber Fmt 4.6, Leading zero omitted, Abs format (unit mm)*
G04 Created by KiCad (PCBNEW (7.0.0)) date 2023-03-24 23:17:22*
%MOMM*%
%LPD*%
G01*
G04 APERTURE LIST*
G04 Aperture macros list*
%AMRoundRect*
0 Rectangle with rounded corners*
0 $1 Rounding radius*
0 $2 $3 $4 $5 $6 $7 $8 $9 X,Y pos of 4 corners*
0 Add a 4 corners polygon primitive as box body*
4,1,4,$2,$3,$4,$5,$6,$7,$8,$9,$2,$3,0*
0 Add four circle primitives for the rounded corners*
1,1,$1+$1,$2,$3*
1,1,$1+$1,$4,$5*
1,1,$1+$1,$6,$7*
1,1,$1+$1,$8,$9*
0 Add four rect primitives between the rounded corners*
20,1,$1+$1,$2,$3,$4,$5,0*
20,1,$1+$1,$4,$5,$6,$7,0*
20,1,$1+$1,$6,$7,$8,$9,0*
20,1,$1+$1,$8,$9,$2,$3,0*%
%AMRotRect*
0 Rectangle, with rotation*
0 The origin of the aperture is its center*
0 $1 length*
0 $2 width*
0 $3 Rotation angle, in degrees counterclockwise*
0 Add horizontal line*
21,1,$1,$2,0,0,$3*%
%AMFreePoly0*
4,1,51,0.532219,0.614745,0.539696,0.609939,0.548497,0.608674,0.568109,0.591679,0.589937,0.577652,0.593629,0.569566,0.600348,0.563745,0.607658,0.538848,0.618438,0.515244,0.617172,0.506443,0.619677,0.497915,0.619677,-0.497915,0.614745,-0.532219,0.609939,-0.539696,0.608674,-0.548497,0.591679,-0.568109,0.577652,-0.589937,0.569566,-0.593629,0.563745,-0.600348,0.538848,-0.607658,
0.515244,-0.618438,0.506443,-0.617172,0.497915,-0.619677,-0.497915,-0.619677,-0.532219,-0.614745,-0.539696,-0.609939,-0.548497,-0.608674,-0.568109,-0.591679,-0.589937,-0.577652,-0.593629,-0.569566,-0.600348,-0.563745,-0.607658,-0.538848,-0.618438,-0.515244,-0.617172,-0.506443,-0.619677,-0.497915,-0.619677,0.397045,-0.616582,0.418565,-0.616895,0.422927,-0.615620,0.425261,-0.614745,0.431349,
-0.598456,0.456693,-0.584014,0.483144,-0.483144,0.584014,-0.465738,0.597042,-0.462875,0.600348,-0.460322,0.601097,-0.455399,0.604783,-0.425958,0.611187,-0.397045,0.619677,0.497915,0.619677,0.532219,0.614745,0.532219,0.614745,$1*%
%AMFreePoly1*
4,1,51,0.532219,0.614745,0.539696,0.609939,0.548497,0.608674,0.568109,0.591679,0.589937,0.577652,0.593629,0.569566,0.600348,0.563745,0.607658,0.538848,0.618438,0.515244,0.617172,0.506443,0.619677,0.497915,0.619677,-0.497915,0.614745,-0.532219,0.609939,-0.539696,0.608674,-0.548497,0.591679,-0.568109,0.577652,-0.589937,0.569566,-0.593629,0.563745,-0.600348,0.538848,-0.607658,
0.515244,-0.618438,0.506443,-0.617172,0.497915,-0.619677,-0.397045,-0.619677,-0.418564,-0.616583,-0.422927,-0.616895,-0.425261,-0.615620,-0.431349,-0.614745,-0.456693,-0.598456,-0.483144,-0.584014,-0.584014,-0.483144,-0.597044,-0.465737,-0.600348,-0.462875,-0.601097,-0.460323,-0.604783,-0.455400,-0.611187,-0.425956,-0.619677,-0.397045,-0.619677,0.497915,-0.614745,0.532219,-0.609939,0.539696,
-0.608674,0.548497,-0.591679,0.568109,-0.577652,0.589937,-0.569566,0.593629,-0.563745,0.600348,-0.538848,0.607658,-0.515244,0.618438,-0.506443,0.617172,-0.497915,0.619677,0.497915,0.619677,0.532219,0.614745,0.532219,0.614745,$1*%
%AMFreePoly2*
4,1,51,0.418565,0.616582,0.422927,0.616895,0.425261,0.615620,0.431349,0.614745,0.456693,0.598456,0.483144,0.584014,0.584014,0.483144,0.597042,0.465738,0.600348,0.462875,0.601097,0.460322,0.604783,0.455399,0.611187,0.425958,0.619677,0.397045,0.619677,-0.497915,0.614745,-0.532219,0.609939,-0.539696,0.608674,-0.548497,0.591679,-0.568109,0.577652,-0.589937,0.569566,-0.593629,
0.563745,-0.600348,0.538848,-0.607658,0.515244,-0.618438,0.506443,-0.617172,0.497915,-0.619677,-0.497915,-0.619677,-0.532219,-0.614745,-0.539696,-0.609939,-0.548497,-0.608674,-0.568109,-0.591679,-0.589937,-0.577652,-0.593629,-0.569566,-0.600348,-0.563745,-0.607658,-0.538848,-0.618438,-0.515244,-0.617172,-0.506443,-0.619677,-0.497915,-0.619677,0.497915,-0.614745,0.532219,-0.609939,0.539696,
-0.608674,0.548497,-0.591679,0.568109,-0.577652,0.589937,-0.569566,0.593629,-0.563745,0.600348,-0.538848,0.607658,-0.515244,0.618438,-0.506443,0.617172,-0.497915,0.619677,0.397045,0.619677,0.418565,0.616582,0.418565,0.616582,$1*%
%AMFreePoly3*
4,1,51,0.532219,0.614745,0.539696,0.609939,0.548497,0.608674,0.568109,0.591679,0.589937,0.577652,0.593629,0.569566,0.600348,0.563745,0.607658,0.538848,0.618438,0.515244,0.617172,0.506443,0.619677,0.497915,0.619677,-0.397045,0.616583,-0.418564,0.616895,-0.422927,0.615620,-0.425261,0.614745,-0.431349,0.598456,-0.456693,0.584014,-0.483144,0.483144,-0.584014,0.465737,-0.597044,
0.462875,-0.600348,0.460323,-0.601097,0.455400,-0.604783,0.425956,-0.611187,0.397045,-0.619677,-0.497915,-0.619677,-0.532219,-0.614745,-0.539696,-0.609939,-0.548497,-0.608674,-0.568109,-0.591679,-0.589937,-0.577652,-0.593629,-0.569566,-0.600348,-0.563745,-0.607658,-0.538848,-0.618438,-0.515244,-0.617172,-0.506443,-0.619677,-0.497915,-0.619677,0.497915,-0.614745,0.532219,-0.609939,0.539696,
-0.608674,0.548497,-0.591679,0.568109,-0.577652,0.589937,-0.569566,0.593629,-0.563745,0.600348,-0.538848,0.607658,-0.515244,0.618438,-0.506443,0.617172,-0.497915,0.619677,0.497915,0.619677,0.532219,0.614745,0.532219,0.614745,$1*%
G04 Aperture macros list end*
%ADD10C,0.100000*%
%ADD11R,0.300000X1.300000*%
%ADD12R,1.800000X2.200000*%
%ADD13R,0.400000X0.650000*%
%ADD14RoundRect,0.250000X-0.700000X0.275000X-0.700000X-0.275000X0.700000X-0.275000X0.700000X0.275000X0*%
%ADD15RotRect,2.550000X2.500000X145.000000*%
%ADD16RotRect,2.550000X2.500000X130.000000*%
%ADD17RotRect,2.550000X2.500000X160.000000*%
%ADD18RotRect,2.550000X2.500000X200.000000*%
%ADD19RotRect,0.900000X1.200000X290.000000*%
%ADD20RoundRect,0.140000X-0.212189X-0.058955X0.017173X-0.219557X0.212189X0.058955X-0.017173X0.219557X0*%
%ADD21RoundRect,0.150000X-0.150000X0.512500X-0.150000X-0.512500X0.150000X-0.512500X0.150000X0.512500X0*%
%ADD22RotRect,0.900000X1.200000X250.000000*%
%ADD23RoundRect,0.140000X-0.073414X-0.207631X0.189700X-0.111865X0.073414X0.207631X-0.189700X0.111865X0*%
%ADD24RoundRect,0.140000X-0.189700X-0.111865X0.073414X-0.207631X0.189700X0.111865X-0.073414X0.207631X0*%
%ADD25RoundRect,0.140000X0.140000X0.170000X-0.140000X0.170000X-0.140000X-0.170000X0.140000X-0.170000X0*%
%ADD26RoundRect,0.140000X0.036244X0.217224X-0.206244X0.077224X-0.036244X-0.217224X0.206244X-0.077224X0*%
%ADD27RotRect,1.700000X1.000000X345.000000*%
%ADD28R,1.700000X1.000000*%
%ADD29RoundRect,0.225000X-0.250000X0.225000X-0.250000X-0.225000X0.250000X-0.225000X0.250000X0.225000X0*%
%ADD30RoundRect,0.135000X0.135000X0.185000X-0.135000X0.185000X-0.135000X-0.185000X0.135000X-0.185000X0*%
%ADD31RotRect,1.700000X1.000000X15.000000*%
%ADD32RoundRect,0.140000X0.189700X0.111865X-0.073414X0.207631X-0.189700X-0.111865X0.073414X-0.207631X0*%
%ADD33RotRect,1.700000X1.000000X20.000000*%
%ADD34RotRect,0.900000X1.200000X285.000000*%
%ADD35RotRect,1.700000X1.000000X340.000000*%
%ADD36RotRect,1.700000X1.000000X310.000000*%
%ADD37RotRect,2.550000X2.500000X195.000000*%
%ADD38RotRect,1.700000X1.000000X160.000000*%
%ADD39RotRect,1.700000X1.000000X330.000000*%
%ADD40RotRect,2.550000X2.500000X165.000000*%
%ADD41RotRect,1.700000X1.000000X200.000000*%
%ADD42RoundRect,0.250000X-0.475000X0.250000X-0.475000X-0.250000X0.475000X-0.250000X0.475000X0.250000X0*%
%ADD43RoundRect,0.140000X-0.140000X-0.170000X0.140000X-0.170000X0.140000X0.170000X-0.140000X0.170000X0*%
%ADD44RoundRect,0.140000X-0.170000X0.140000X-0.170000X-0.140000X0.170000X-0.140000X0.170000X0.140000X0*%
%ADD45RoundRect,0.225000X0.225000X0.250000X-0.225000X0.250000X-0.225000X-0.250000X0.225000X-0.250000X0*%
%ADD46RoundRect,0.140000X0.170000X-0.140000X0.170000X0.140000X-0.170000X0.140000X-0.170000X-0.140000X0*%
%ADD47RoundRect,0.225000X0.250000X-0.225000X0.250000X0.225000X-0.250000X0.225000X-0.250000X-0.225000X0*%
%ADD48R,1.000000X1.700000*%
%ADD49RoundRect,0.140000X0.040237X-0.216520X0.220218X-0.002028X-0.040237X0.216520X-0.220218X0.002028X0*%
%ADD50RotRect,0.900000X1.200000X255.000000*%
%ADD51RoundRect,0.140000X0.073414X0.207631X-0.189700X0.111865X-0.073414X-0.207631X0.189700X-0.111865X0*%
%ADD52RoundRect,0.135000X0.185000X-0.135000X0.185000X0.135000X-0.185000X0.135000X-0.185000X-0.135000X0*%
%ADD53FreePoly0,180.000000*%
%ADD54FreePoly1,180.000000*%
%ADD55FreePoly2,180.000000*%
%ADD56FreePoly3,180.000000*%
%ADD57RoundRect,0.050000X0.387500X0.050000X-0.387500X0.050000X-0.387500X-0.050000X0.387500X-0.050000X0*%
%ADD58RoundRect,0.050000X0.050000X0.387500X-0.050000X0.387500X-0.050000X-0.387500X0.050000X-0.387500X0*%
%ADD59RoundRect,0.250000X0.625000X-0.375000X0.625000X0.375000X-0.625000X0.375000X-0.625000X-0.375000X0*%
%ADD60RoundRect,0.225000X0.375000X-0.225000X0.375000X0.225000X-0.375000X0.225000X-0.375000X-0.225000X0*%
%ADD61RoundRect,0.135000X-0.135000X-0.185000X0.135000X-0.185000X0.135000X0.185000X-0.135000X0.185000X0*%
%ADD62RoundRect,0.150000X0.650000X0.150000X-0.650000X0.150000X-0.650000X-0.150000X0.650000X-0.150000X0*%
%ADD63RoundRect,0.135000X-0.185000X0.135000X-0.185000X-0.135000X0.185000X-0.135000X0.185000X0.135000X0*%
%ADD64RoundRect,0.140000X0.220218X0.002028X0.040237X0.216520X-0.220218X-0.002028X-0.040237X-0.216520X0*%
%ADD65RotRect,2.550000X2.500000X215.000000*%
%ADD66R,2.550000X2.500000*%
%ADD67RotRect,1.700000X1.000000X210.000000*%
%ADD68RoundRect,0.140000X0.206244X0.077224X-0.036244X0.217224X-0.206244X-0.077224X0.036244X-0.217224X0*%
%ADD69RoundRect,0.140000X0.091230X0.200442X-0.179229X0.127973X-0.091230X-0.200442X0.179229X-0.127973X0*%
%ADD70RoundRect,0.140000X-0.017173X-0.219557X0.212189X-0.058955X0.017173X0.219557X-0.212189X0.058955X0*%
%ADD71RoundRect,0.250000X-0.250000X-0.475000X0.250000X-0.475000X0.250000X0.475000X-0.250000X0.475000X0*%
%ADD72RotRect,0.900000X1.200000X320.000000*%
%ADD73RotRect,1.700000X1.000000X150.000000*%
%ADD74R,1.200000X0.900000*%
%ADD75RotRect,1.700000X1.000000X325.000000*%
%ADD76RotRect,1.700000X1.000000X30.000000*%
%ADD77RotRect,0.900000X1.200000X305.000000*%
%ADD78R,1.200000X1.400000*%
%ADD79RoundRect,0.140000X-0.206244X-0.077224X0.036244X-0.217224X0.206244X0.077224X-0.036244X0.217224X0*%
%ADD80RotRect,2.550000X2.500000X230.000000*%
%ADD81R,2.000000X1.500000*%
%ADD82R,2.000000X3.800000*%
%ADD83RotRect,0.900000X1.200000X235.000000*%
%ADD84R,2.440000X1.120000*%
%ADD85RotRect,1.700000X1.000000X35.000000*%
%ADD86RotRect,1.700000X1.000000X50.000000*%
%ADD87RoundRect,0.140000X0.179229X0.127973X-0.091230X0.200442X-0.179229X-0.127973X0.091230X-0.200442X0*%
%ADD88RotRect,0.900000X1.200000X220.000000*%
%ADD89RoundRect,0.225000X-0.375000X0.225000X-0.375000X-0.225000X0.375000X-0.225000X0.375000X0.225000X0*%
%ADD90RoundRect,0.140000X-0.036244X-0.217224X0.206244X-0.077224X0.036244X0.217224X-0.206244X0.077224X0*%
G04 APERTURE END LIST*
%TO.C,D103*%
G36*
X151635934Y-176472288D02*
G01*
X151377115Y-177438214D01*
X149735041Y-176998221D01*
X149903273Y-176370369D01*
X150331934Y-176122882D01*
X151635934Y-176472288D01*
G37*
D10*
X151635934Y-176472288D02*
X151377115Y-177438214D01*
X149735041Y-176998221D01*
X149903273Y-176370369D01*
X150331934Y-176122882D01*
X151635934Y-176472288D01*
%TO.C,D104*%
G36*
X173849788Y-180904405D02*
G01*
X172149788Y-180904405D01*
X172149788Y-180254405D01*
X172499788Y-179904405D01*
X173849788Y-179904405D01*
X173849788Y-180904405D01*
G37*
X173849788Y-180904405D02*
X172149788Y-180904405D01*
X172149788Y-180254405D01*
X172499788Y-179904405D01*
X173849788Y-179904405D01*
X173849788Y-180904405D01*
%TO.C,D105*%
G36*
X196477132Y-178415090D02*
G01*
X194835058Y-178855082D01*
X194666826Y-178227231D01*
X194914313Y-177798570D01*
X196218313Y-177449164D01*
X196477132Y-178415090D01*
G37*
X196477132Y-178415090D02*
X194835058Y-178855082D01*
X194666826Y-178227231D01*
X194914313Y-177798570D01*
X196218313Y-177449164D01*
X196477132Y-178415090D01*
%TO.C,D125*%
G36*
X281409940Y-125037713D02*
G01*
X279812463Y-125619147D01*
X279590149Y-125008347D01*
X279799335Y-124559747D01*
X281067920Y-124098020D01*
X281409940Y-125037713D01*
G37*
X281409940Y-125037713D02*
X279812463Y-125619147D01*
X279590149Y-125008347D01*
X279799335Y-124559747D01*
X281067920Y-124098020D01*
X281409940Y-125037713D01*
%TO.C,D75*%
G36*
X41646643Y-80678015D02*
G01*
X41304623Y-81617707D01*
X39707146Y-81036273D01*
X39929459Y-80425473D01*
X40378058Y-80216287D01*
X41646643Y-80678015D01*
G37*
X41646643Y-80678015D02*
X41304623Y-81617707D01*
X39707146Y-81036273D01*
X39929459Y-80425473D01*
X40378058Y-80216287D01*
X41646643Y-80678015D01*
%TO.C,D102*%
G36*
X128937747Y-160238616D02*
G01*
X129805510Y-161272776D01*
X129039465Y-161915564D01*
X127946726Y-160613288D01*
X128444655Y-160195477D01*
X128937747Y-160238616D01*
G37*
X128937747Y-160238616D02*
X129805510Y-161272776D01*
X129039465Y-161915564D01*
X127946726Y-160613288D01*
X128444655Y-160195477D01*
X128937747Y-160238616D01*
%TO.C,D81*%
G36*
X58536198Y-106053675D02*
G01*
X58313885Y-106664475D01*
X57865286Y-106873661D01*
X56596701Y-106411933D01*
X56938721Y-105472241D01*
X58536198Y-106053675D01*
G37*
X58536198Y-106053675D02*
X58313885Y-106664475D01*
X57865286Y-106873661D01*
X56596701Y-106411933D01*
X56938721Y-105472241D01*
X58536198Y-106053675D01*
%TO.C,D106*%
G36*
X202730499Y-75963111D02*
G01*
X201133022Y-76544545D01*
X200910708Y-75933745D01*
X201119894Y-75485145D01*
X202388479Y-75023418D01*
X202730499Y-75963111D01*
G37*
X202730499Y-75963111D02*
X201133022Y-76544545D01*
X200910708Y-75933745D01*
X201119894Y-75485145D01*
X202388479Y-75023418D01*
X202730499Y-75963111D01*
%TO.C,D67*%
G36*
X184804548Y-110962063D02*
G01*
X184304548Y-111828088D01*
X182832305Y-110978088D01*
X183157305Y-110415171D01*
X183635413Y-110287063D01*
X184804548Y-110962063D01*
G37*
X184804548Y-110962063D02*
X184304548Y-111828088D01*
X182832305Y-110978088D01*
X183157305Y-110415171D01*
X183635413Y-110287063D01*
X184804548Y-110962063D01*
%TO.C,D101*%
G36*
X130683739Y-130623848D02*
G01*
X130461426Y-131234648D01*
X130012827Y-131443834D01*
X128744242Y-130982106D01*
X129086262Y-130042414D01*
X130683739Y-130623848D01*
G37*
X130683739Y-130623848D02*
X130461426Y-131234648D01*
X130012827Y-131443834D01*
X128744242Y-130982106D01*
X129086262Y-130042414D01*
X130683739Y-130623848D01*
%TO.C,D134*%
G36*
X318667478Y-99924100D02*
G01*
X318458292Y-100372700D01*
X317189707Y-100834427D01*
X316847687Y-99894734D01*
X318445164Y-99313300D01*
X318667478Y-99924100D01*
G37*
X318667478Y-99924100D02*
X318458292Y-100372700D01*
X317189707Y-100834427D01*
X316847687Y-99894734D01*
X318445164Y-99313300D01*
X318667478Y-99924100D01*
%TO.C,D78*%
G36*
X73393191Y-49153561D02*
G01*
X73051171Y-50093253D01*
X71453694Y-49511819D01*
X71676007Y-48901019D01*
X72124606Y-48691833D01*
X73393191Y-49153561D01*
G37*
X73393191Y-49153561D02*
X73051171Y-50093253D01*
X71453694Y-49511819D01*
X71676007Y-48901019D01*
X72124606Y-48691833D01*
X73393191Y-49153561D01*
%TO.C,D98*%
G36*
X145540698Y-73723740D02*
G01*
X145198678Y-74663432D01*
X143601201Y-74081998D01*
X143823514Y-73471198D01*
X144272113Y-73262012D01*
X145540698Y-73723740D01*
G37*
X145540698Y-73723740D02*
X145198678Y-74663432D01*
X143601201Y-74081998D01*
X143823514Y-73471198D01*
X144272113Y-73262012D01*
X145540698Y-73723740D01*
%TO.C,D90*%
G36*
X99150764Y-89782129D02*
G01*
X98808744Y-90721821D01*
X97211267Y-90140387D01*
X97433580Y-89529587D01*
X97882179Y-89320401D01*
X99150764Y-89782129D01*
G37*
X99150764Y-89782129D02*
X98808744Y-90721821D01*
X97211267Y-90140387D01*
X97433580Y-89529587D01*
X97882179Y-89320401D01*
X99150764Y-89782129D01*
%TO.C,D100*%
G36*
X132509738Y-109526024D02*
G01*
X132167718Y-110465716D01*
X130570241Y-109884282D01*
X130792554Y-109273482D01*
X131241153Y-109064296D01*
X132509738Y-109526024D01*
G37*
X132509738Y-109526024D02*
X132167718Y-110465716D01*
X130570241Y-109884282D01*
X130792554Y-109273482D01*
X131241153Y-109064296D01*
X132509738Y-109526024D01*
%TO.C,D87*%
G36*
X66861255Y-122798332D02*
G01*
X66519235Y-123738024D01*
X64921758Y-123156590D01*
X65144071Y-122545790D01*
X65592670Y-122336604D01*
X66861255Y-122798332D01*
G37*
X66861255Y-122798332D02*
X66519235Y-123738024D01*
X64921758Y-123156590D01*
X65144071Y-122545790D01*
X65592670Y-122336604D01*
X66861255Y-122798332D01*
%TO.C,D68*%
G36*
X197150009Y-127194989D02*
G01*
X197150009Y-128544989D01*
X196150009Y-128544989D01*
X196150009Y-126844989D01*
X196800009Y-126844989D01*
X197150009Y-127194989D01*
G37*
X197150009Y-127194989D02*
X197150009Y-128544989D01*
X196150009Y-128544989D01*
X196150009Y-126844989D01*
X196800009Y-126844989D01*
X197150009Y-127194989D01*
%TO.C,D84*%
G36*
X91097188Y-72291574D02*
G01*
X90874875Y-72902374D01*
X90426276Y-73111560D01*
X89157691Y-72649832D01*
X89499711Y-71710140D01*
X91097188Y-72291574D01*
G37*
X91097188Y-72291574D02*
X90874875Y-72902374D01*
X90426276Y-73111560D01*
X89157691Y-72649832D01*
X89499711Y-71710140D01*
X91097188Y-72291574D01*
%TO.C,D91*%
G36*
X97324775Y-110879934D02*
G01*
X97102462Y-111490734D01*
X96653863Y-111699920D01*
X95385278Y-111238192D01*
X95727298Y-110298500D01*
X97324775Y-110879934D01*
G37*
X97324775Y-110879934D02*
X97102462Y-111490734D01*
X96653863Y-111699920D01*
X95385278Y-111238192D01*
X95727298Y-110298500D01*
X97324775Y-110879934D01*
%TO.C,D83*%
G36*
X92923200Y-51193758D02*
G01*
X92581180Y-52133450D01*
X90983703Y-51552016D01*
X91206016Y-50941216D01*
X91654615Y-50732030D01*
X92923200Y-51193758D01*
G37*
X92923200Y-51193758D02*
X92581180Y-52133450D01*
X90983703Y-51552016D01*
X91206016Y-50941216D01*
X91654615Y-50732030D01*
X92923200Y-51193758D01*
%TO.C,D95*%
G36*
X115694528Y-100027045D02*
G01*
X115352508Y-100966737D01*
X113755031Y-100385303D01*
X113977344Y-99774503D01*
X114425943Y-99565317D01*
X115694528Y-100027045D01*
G37*
X115694528Y-100027045D02*
X115352508Y-100966737D01*
X113755031Y-100385303D01*
X113977344Y-99774503D01*
X114425943Y-99565317D01*
X115694528Y-100027045D01*
%TO.C,D86*%
G36*
X78066222Y-108093877D02*
G01*
X77843909Y-108704677D01*
X77395310Y-108913863D01*
X76126725Y-108452135D01*
X76468745Y-107512443D01*
X78066222Y-108093877D01*
G37*
X78066222Y-108093877D02*
X77843909Y-108704677D01*
X77395310Y-108913863D01*
X76126725Y-108452135D01*
X76468745Y-107512443D01*
X78066222Y-108093877D01*
%TO.C,D129*%
G36*
X299951903Y-104201937D02*
G01*
X299742717Y-104650537D01*
X298474132Y-105112264D01*
X298132112Y-104172571D01*
X299729589Y-103591137D01*
X299951903Y-104201937D01*
G37*
X299951903Y-104201937D02*
X299742717Y-104650537D01*
X298474132Y-105112264D01*
X298132112Y-104172571D01*
X299729589Y-103591137D01*
X299951903Y-104201937D01*
%TO.C,D93*%
G36*
X128725486Y-64224713D02*
G01*
X128383466Y-65164405D01*
X126785989Y-64582971D01*
X127008302Y-63972171D01*
X127456901Y-63762985D01*
X128725486Y-64224713D01*
G37*
X128725486Y-64224713D02*
X128383466Y-65164405D01*
X126785989Y-64582971D01*
X127008302Y-63972171D01*
X127456901Y-63762985D01*
X128725486Y-64224713D01*
%TO.C,D127*%
G36*
X286920932Y-68399628D02*
G01*
X286711746Y-68848228D01*
X285443161Y-69309955D01*
X285101141Y-68370262D01*
X286698618Y-67788828D01*
X286920932Y-68399628D01*
G37*
X286920932Y-68399628D02*
X286711746Y-68848228D01*
X285443161Y-69309955D01*
X285101141Y-68370262D01*
X286698618Y-67788828D01*
X286920932Y-68399628D01*
%TO.C,D130*%
G36*
X300939961Y-122997527D02*
G01*
X299342484Y-123578961D01*
X299120170Y-122968161D01*
X299329356Y-122519561D01*
X300597941Y-122057834D01*
X300939961Y-122997527D01*
G37*
X300939961Y-122997527D02*
X299342484Y-123578961D01*
X299120170Y-122968161D01*
X299329356Y-122519561D01*
X300597941Y-122057834D01*
X300939961Y-122997527D01*
%TO.C,D124*%
G36*
X280421888Y-106242127D02*
G01*
X280212702Y-106690727D01*
X278944117Y-107152454D01*
X278602097Y-106212761D01*
X280199574Y-105631327D01*
X280421888Y-106242127D01*
G37*
X280421888Y-106242127D02*
X280212702Y-106690727D01*
X278944117Y-107152454D01*
X278602097Y-106212761D01*
X280199574Y-105631327D01*
X280421888Y-106242127D01*
%TO.C,D107*%
G36*
X214773403Y-92969821D02*
G01*
X214564217Y-93418421D01*
X213295632Y-93880148D01*
X212953612Y-92940455D01*
X214551089Y-92359021D01*
X214773403Y-92969821D01*
G37*
X214773403Y-92969821D02*
X214564217Y-93418421D01*
X213295632Y-93880148D01*
X212953612Y-92940455D01*
X214551089Y-92359021D01*
X214773403Y-92969821D01*
%TO.C,D85*%
G36*
X79892235Y-86996041D02*
G01*
X79550215Y-87935733D01*
X77952738Y-87354299D01*
X78175051Y-86743499D01*
X78623650Y-86534313D01*
X79892235Y-86996041D01*
G37*
X79892235Y-86996041D02*
X79550215Y-87935733D01*
X77952738Y-87354299D01*
X78175051Y-86743499D01*
X78623650Y-86534313D01*
X79892235Y-86996041D01*
%TO.C,D92*%
G36*
X95067645Y-138132751D02*
G01*
X94725625Y-139072443D01*
X93128148Y-138491009D01*
X93350461Y-137880209D01*
X93799060Y-137671023D01*
X95067645Y-138132751D01*
G37*
X95067645Y-138132751D02*
X94725625Y-139072443D01*
X93128148Y-138491009D01*
X93350461Y-137880209D01*
X93799060Y-137671023D01*
X95067645Y-138132751D01*
%TO.C,D73*%
G36*
X54677610Y-44875715D02*
G01*
X54335590Y-45815407D01*
X52738113Y-45233973D01*
X52960426Y-44623173D01*
X53409025Y-44413987D01*
X54677610Y-44875715D01*
G37*
X54677610Y-44875715D02*
X54335590Y-45815407D01*
X52738113Y-45233973D01*
X52960426Y-44623173D01*
X53409025Y-44413987D01*
X54677610Y-44875715D01*
%TO.C,D108*%
G36*
X215761442Y-111765399D02*
G01*
X214163965Y-112346833D01*
X213941651Y-111736033D01*
X214150837Y-111287433D01*
X215419422Y-110825706D01*
X215761442Y-111765399D01*
G37*
X215761442Y-111765399D02*
X214163965Y-112346833D01*
X213941651Y-111736033D01*
X214150837Y-111287433D01*
X215419422Y-110825706D01*
X215761442Y-111765399D01*
%TO.C,D112*%
G36*
X231588636Y-83470818D02*
G01*
X231379450Y-83919418D01*
X230110865Y-84381145D01*
X229768845Y-83441452D01*
X231366322Y-82860018D01*
X231588636Y-83470818D01*
G37*
X231588636Y-83470818D02*
X231379450Y-83919418D01*
X230110865Y-84381145D01*
X229768845Y-83441452D01*
X231366322Y-82860018D01*
X231588636Y-83470818D01*
%TO.C,D131*%
G36*
X293593589Y-47115086D02*
G01*
X291996112Y-47696520D01*
X291773798Y-47085720D01*
X291982984Y-46637120D01*
X293251569Y-46175393D01*
X293593589Y-47115086D01*
G37*
X293593589Y-47115086D02*
X291996112Y-47696520D01*
X291773798Y-47085720D01*
X291982984Y-46637120D01*
X293251569Y-46175393D01*
X293593589Y-47115086D01*
%TO.C,D76*%
G36*
X39820653Y-101775852D02*
G01*
X39598340Y-102386652D01*
X39149741Y-102595838D01*
X37881156Y-102134110D01*
X38223176Y-101194418D01*
X39820653Y-101775852D01*
G37*
X39820653Y-101775852D02*
X39598340Y-102386652D01*
X39149741Y-102595838D01*
X37881156Y-102134110D01*
X38223176Y-101194418D01*
X39820653Y-101775852D01*
%TO.C,D89*%
G36*
X110355736Y-75077650D02*
G01*
X110133423Y-75688450D01*
X109684824Y-75897636D01*
X108416239Y-75435908D01*
X108758259Y-74496216D01*
X110355736Y-75077650D01*
G37*
X110355736Y-75077650D02*
X110133423Y-75688450D01*
X109684824Y-75897636D01*
X108416239Y-75435908D01*
X108758259Y-74496216D01*
X110355736Y-75077650D01*
%TO.C,D117*%
G36*
X248132374Y-73225911D02*
G01*
X247923188Y-73674511D01*
X246654603Y-74136238D01*
X246312583Y-73196545D01*
X247910060Y-72615111D01*
X248132374Y-73225911D01*
G37*
X248132374Y-73225911D02*
X247923188Y-73674511D01*
X246654603Y-74136238D01*
X246312583Y-73196545D01*
X247910060Y-72615111D01*
X248132374Y-73225911D01*
%TO.C,D96*%
G36*
X113868530Y-121124839D02*
G01*
X113646217Y-121735639D01*
X113197618Y-121944825D01*
X111929033Y-121483097D01*
X112271053Y-120543405D01*
X113868530Y-121124839D01*
G37*
X113868530Y-121124839D02*
X113646217Y-121735639D01*
X113197618Y-121944825D01*
X111929033Y-121483097D01*
X112271053Y-120543405D01*
X113868530Y-121124839D01*
%TO.C,D77*%
G36*
X28615674Y-116480304D02*
G01*
X28273654Y-117419996D01*
X26676177Y-116838562D01*
X26898490Y-116227762D01*
X27347089Y-116018576D01*
X28615674Y-116480304D01*
G37*
X28615674Y-116480304D02*
X28273654Y-117419996D01*
X26676177Y-116838562D01*
X26898490Y-116227762D01*
X27347089Y-116018576D01*
X28615674Y-116480304D01*
%TO.C,D113*%
G36*
X232576685Y-102266388D02*
G01*
X230979208Y-102847822D01*
X230756894Y-102237022D01*
X230966080Y-101788422D01*
X232234665Y-101326695D01*
X232576685Y-102266388D01*
G37*
X232576685Y-102266388D02*
X230979208Y-102847822D01*
X230756894Y-102237022D01*
X230966080Y-101788422D01*
X232234665Y-101326695D01*
X232576685Y-102266388D01*
%TO.C,D71*%
G36*
X155349998Y-134045005D02*
G01*
X154699998Y-134045005D01*
X154349998Y-133695005D01*
X154349998Y-132345005D01*
X155349998Y-132345005D01*
X155349998Y-134045005D01*
G37*
X155349998Y-134045005D02*
X154699998Y-134045005D01*
X154349998Y-133695005D01*
X154349998Y-132345005D01*
X155349998Y-132345005D01*
X155349998Y-134045005D01*
%TO.C,D82*%
G36*
X47331241Y-120758134D02*
G01*
X46989221Y-121697826D01*
X45391744Y-121116392D01*
X45614057Y-120505592D01*
X46062656Y-120296406D01*
X47331241Y-120758134D01*
G37*
X47331241Y-120758134D02*
X46989221Y-121697826D01*
X45391744Y-121116392D01*
X45614057Y-120505592D01*
X46062656Y-120296406D01*
X47331241Y-120758134D01*
%TO.C,D132*%
G36*
X305636509Y-64121805D02*
G01*
X305427323Y-64570405D01*
X304158738Y-65032132D01*
X303816718Y-64092439D01*
X305414195Y-63511005D01*
X305636509Y-64121805D01*
G37*
X305636509Y-64121805D02*
X305427323Y-64570405D01*
X304158738Y-65032132D01*
X303816718Y-64092439D01*
X305414195Y-63511005D01*
X305636509Y-64121805D01*
%TO.C,D69*%
G36*
X189392703Y-146874833D02*
G01*
X189264595Y-147352941D01*
X188095460Y-148027941D01*
X187595460Y-147161916D01*
X189067703Y-146311916D01*
X189392703Y-146874833D01*
G37*
X189392703Y-146874833D02*
X189264595Y-147352941D01*
X188095460Y-148027941D01*
X187595460Y-147161916D01*
X189067703Y-146311916D01*
X189392703Y-146874833D01*
%TO.C,D122*%
G36*
X267390910Y-70439847D02*
G01*
X267181724Y-70888447D01*
X265913139Y-71350174D01*
X265571119Y-70410481D01*
X267168596Y-69829047D01*
X267390910Y-70439847D01*
G37*
X267390910Y-70439847D02*
X267181724Y-70888447D01*
X265913139Y-71350174D01*
X265571119Y-70410481D01*
X267168596Y-69829047D01*
X267390910Y-70439847D01*
%TO.C,D99*%
G36*
X143714719Y-94821549D02*
G01*
X143492406Y-95432349D01*
X143043807Y-95641535D01*
X141775222Y-95179807D01*
X142117242Y-94240115D01*
X143714719Y-94821549D01*
G37*
X143714719Y-94821549D02*
X143492406Y-95432349D01*
X143043807Y-95641535D01*
X141775222Y-95179807D01*
X142117242Y-94240115D01*
X143714719Y-94821549D01*
%TO.C,D80*%
G36*
X60362240Y-84955845D02*
G01*
X60020220Y-85895537D01*
X58422743Y-85314103D01*
X58645056Y-84703303D01*
X59093655Y-84494117D01*
X60362240Y-84955845D01*
G37*
X60362240Y-84955845D02*
X60020220Y-85895537D01*
X58422743Y-85314103D01*
X58645056Y-84703303D01*
X59093655Y-84494117D01*
X60362240Y-84955845D01*
%TO.C,D109*%
G36*
X227804363Y-128772108D02*
G01*
X227595177Y-129220708D01*
X226326592Y-129682435D01*
X225984572Y-128742742D01*
X227582049Y-128161308D01*
X227804363Y-128772108D01*
G37*
X227804363Y-128772108D02*
X227595177Y-129220708D01*
X226326592Y-129682435D01*
X225984572Y-128742742D01*
X227582049Y-128161308D01*
X227804363Y-128772108D01*
%TO.C,D133*%
G36*
X306624555Y-82917371D02*
G01*
X305027078Y-83498805D01*
X304804764Y-82888005D01*
X305013950Y-82439405D01*
X306282535Y-81977678D01*
X306624555Y-82917371D01*
G37*
X306624555Y-82917371D02*
X305027078Y-83498805D01*
X304804764Y-82888005D01*
X305013950Y-82439405D01*
X306282535Y-81977678D01*
X306624555Y-82917371D01*
%TO.C,D126*%
G36*
X274878030Y-51392932D02*
G01*
X273280553Y-51974366D01*
X273058239Y-51363566D01*
X273267425Y-50914966D01*
X274536010Y-50453239D01*
X274878030Y-51392932D01*
G37*
X274878030Y-51392932D02*
X273280553Y-51974366D01*
X273058239Y-51363566D01*
X273267425Y-50914966D01*
X274536010Y-50453239D01*
X274878030Y-51392932D01*
%TO.C,D111*%
G36*
X219545709Y-66464104D02*
G01*
X217948232Y-67045538D01*
X217725918Y-66434738D01*
X217935104Y-65986138D01*
X219203689Y-65524411D01*
X219545709Y-66464104D01*
G37*
X219545709Y-66464104D02*
X217948232Y-67045538D01*
X217725918Y-66434738D01*
X217935104Y-65986138D01*
X219203689Y-65524411D01*
X219545709Y-66464104D01*
%TO.C,D70*%
G36*
X168667693Y-149911916D02*
G01*
X168342693Y-150474833D01*
X167864585Y-150602941D01*
X166695450Y-149927941D01*
X167195450Y-149061916D01*
X168667693Y-149911916D01*
G37*
X168667693Y-149911916D02*
X168342693Y-150474833D01*
X167864585Y-150602941D01*
X166695450Y-149927941D01*
X167195450Y-149061916D01*
X168667693Y-149911916D01*
%TO.C,D114*%
G36*
X244619589Y-119273111D02*
G01*
X244410403Y-119721711D01*
X243141818Y-120183438D01*
X242799798Y-119243745D01*
X244397275Y-118662311D01*
X244619589Y-119273111D01*
G37*
X244619589Y-119273111D02*
X244410403Y-119721711D01*
X243141818Y-120183438D01*
X242799798Y-119243745D01*
X244397275Y-118662311D01*
X244619589Y-119273111D01*
%TO.C,D123*%
G36*
X268378978Y-89235418D02*
G01*
X266781501Y-89816852D01*
X266559187Y-89206052D01*
X266768373Y-88757452D01*
X268036958Y-88295725D01*
X268378978Y-89235418D01*
G37*
X268378978Y-89235418D02*
X266781501Y-89816852D01*
X266559187Y-89206052D01*
X266768373Y-88757452D01*
X268036958Y-88295725D01*
X268378978Y-89235418D01*
%TO.C,D135*%
G36*
X319655527Y-118719667D02*
G01*
X318058050Y-119301101D01*
X317835736Y-118690301D01*
X318044922Y-118241701D01*
X319313507Y-117779974D01*
X319655527Y-118719667D01*
G37*
X319655527Y-118719667D02*
X318058050Y-119301101D01*
X317835736Y-118690301D01*
X318044922Y-118241701D01*
X319313507Y-117779974D01*
X319655527Y-118719667D01*
%TO.C,D128*%
G36*
X287908993Y-87195227D02*
G01*
X286311516Y-87776661D01*
X286089202Y-87165861D01*
X286298388Y-86717261D01*
X287566973Y-86255534D01*
X287908993Y-87195227D01*
G37*
X287908993Y-87195227D02*
X286311516Y-87776661D01*
X286089202Y-87165861D01*
X286298388Y-86717261D01*
X287566973Y-86255534D01*
X287908993Y-87195227D01*
%TO.C,D97*%
G36*
X114008138Y-147426916D02*
G01*
X113434561Y-148246068D01*
X112042003Y-147270988D01*
X112414828Y-146738540D01*
X112902283Y-146652588D01*
X114008138Y-147426916D01*
G37*
X114008138Y-147426916D02*
X113434561Y-148246068D01*
X112042003Y-147270988D01*
X112414828Y-146738540D01*
X112902283Y-146652588D01*
X114008138Y-147426916D01*
%TO.C,D72*%
G36*
X163904567Y-113728087D02*
G01*
X162432324Y-114578087D01*
X162107324Y-114015170D01*
X162235432Y-113537062D01*
X163404567Y-112862062D01*
X163904567Y-113728087D01*
G37*
X163904567Y-113728087D02*
X162432324Y-114578087D01*
X162107324Y-114015170D01*
X162235432Y-113537062D01*
X163404567Y-112862062D01*
X163904567Y-113728087D01*
%TO.C,D94*%
G36*
X126899477Y-85322535D02*
G01*
X126677164Y-85933335D01*
X126228565Y-86142521D01*
X124959980Y-85680793D01*
X125302000Y-84741101D01*
X126899477Y-85322535D01*
G37*
X126899477Y-85322535D02*
X126677164Y-85933335D01*
X126228565Y-86142521D01*
X124959980Y-85680793D01*
X125302000Y-84741101D01*
X126899477Y-85322535D01*
%TO.C,D119*%
G36*
X261163339Y-109028193D02*
G01*
X260954153Y-109476793D01*
X259685568Y-109938520D01*
X259343548Y-108998827D01*
X260941025Y-108417393D01*
X261163339Y-109028193D01*
G37*
X261163339Y-109028193D02*
X260954153Y-109476793D01*
X259685568Y-109938520D01*
X259343548Y-108998827D01*
X260941025Y-108417393D01*
X261163339Y-109028193D01*
%TO.C,D120*%
G36*
X253203572Y-140372123D02*
G01*
X251606095Y-140953557D01*
X251383781Y-140342757D01*
X251592967Y-139894157D01*
X252861552Y-139432430D01*
X253203572Y-140372123D01*
G37*
X253203572Y-140372123D02*
X251606095Y-140953557D01*
X251383781Y-140342757D01*
X251592967Y-139894157D01*
X252861552Y-139432430D01*
X253203572Y-140372123D01*
%TO.C,D115*%
G36*
X234936831Y-150419904D02*
G01*
X233544272Y-151394984D01*
X233171448Y-150862535D01*
X233257399Y-150375080D01*
X234363254Y-149600752D01*
X234936831Y-150419904D01*
G37*
X234936831Y-150419904D02*
X233544272Y-151394984D01*
X233171448Y-150862535D01*
X233257399Y-150375080D01*
X234363254Y-149600752D01*
X234936831Y-150419904D01*
%TO.C,D116*%
G36*
X236089450Y-56219204D02*
G01*
X234491973Y-56800638D01*
X234269659Y-56189838D01*
X234478845Y-55741238D01*
X235747430Y-55279511D01*
X236089450Y-56219204D01*
G37*
X236089450Y-56219204D02*
X234491973Y-56800638D01*
X234269659Y-56189838D01*
X234478845Y-55741238D01*
X235747430Y-55279511D01*
X236089450Y-56219204D01*
%TO.C,D110*%
G36*
X220013061Y-164825610D02*
G01*
X218920322Y-166127885D01*
X218422393Y-165710074D01*
X218379253Y-165216982D01*
X219247016Y-164182822D01*
X220013061Y-164825610D01*
G37*
X220013061Y-164825610D02*
X218920322Y-166127885D01*
X218422393Y-165710074D01*
X218379253Y-165216982D01*
X219247016Y-164182822D01*
X220013061Y-164825610D01*
%TO.C,D74*%
G36*
X52851605Y-65973546D02*
G01*
X52629292Y-66584346D01*
X52180693Y-66793532D01*
X50912108Y-66331804D01*
X51254128Y-65392112D01*
X52851605Y-65973546D01*
G37*
X52851605Y-65973546D02*
X52629292Y-66584346D01*
X52180693Y-66793532D01*
X50912108Y-66331804D01*
X51254128Y-65392112D01*
X52851605Y-65973546D01*
%TO.C,D79*%
G36*
X71567186Y-70251373D02*
G01*
X71344873Y-70862173D01*
X70896274Y-71071359D01*
X69627689Y-70609631D01*
X69969709Y-69669939D01*
X71567186Y-70251373D01*
G37*
X71567186Y-70251373D02*
X71344873Y-70862173D01*
X70896274Y-71071359D01*
X69627689Y-70609631D01*
X69969709Y-69669939D01*
X71567186Y-70251373D01*
%TO.C,D121*%
G36*
X255348002Y-53433139D02*
G01*
X253750525Y-54014573D01*
X253528211Y-53403773D01*
X253737397Y-52955173D01*
X255005982Y-52493446D01*
X255348002Y-53433139D01*
G37*
X255348002Y-53433139D02*
X253750525Y-54014573D01*
X253528211Y-53403773D01*
X253737397Y-52955173D01*
X255005982Y-52493446D01*
X255348002Y-53433139D01*
%TO.C,D88*%
G36*
X112181744Y-53979823D02*
G01*
X111839724Y-54919515D01*
X110242247Y-54338081D01*
X110464560Y-53727281D01*
X110913159Y-53518095D01*
X112181744Y-53979823D01*
G37*
X112181744Y-53979823D02*
X111839724Y-54919515D01*
X110242247Y-54338081D01*
X110464560Y-53727281D01*
X110913159Y-53518095D01*
X112181744Y-53979823D01*
%TO.C,D118*%
G36*
X249120435Y-92021505D02*
G01*
X247522958Y-92602939D01*
X247300644Y-91992139D01*
X247509830Y-91543539D01*
X248778415Y-91081812D01*
X249120435Y-92021505D01*
G37*
X249120435Y-92021505D02*
X247522958Y-92602939D01*
X247300644Y-91992139D01*
X247509830Y-91543539D01*
X248778415Y-91081812D01*
X249120435Y-92021505D01*
%TD*%
D11*
%TO.C,J3*%
X178500005Y-114194995D03*
X178000005Y-114194995D03*
X177500005Y-114194995D03*
X177000005Y-114194995D03*
X176500005Y-114194995D03*
X176000005Y-114194995D03*
X175500005Y-114194995D03*
X175000005Y-114194995D03*
X174500005Y-114194995D03*
X174000005Y-114194995D03*
X173500005Y-114194995D03*
X173000005Y-114194995D03*
D12*
X180400005Y-117444995D03*
X171100005Y-117444995D03*
%TD*%
D13*
%TO.C,U7*%
X185949999Y-108549999D03*
X185299999Y-108549999D03*
X184649999Y-108549999D03*
X184649999Y-106649999D03*
X185299999Y-106649999D03*
X185949999Y-106649999D03*
%TD*%
D14*
%TO.C,FB1*%
X175750001Y-19569999D03*
X175750001Y-22719999D03*
%TD*%
D15*
%TO.C,SW25*%
X113269743Y-139458540D03*
X125315806Y-144792516D03*
%TD*%
D16*
%TO.C,SW30*%
X131141605Y-153384908D03*
X141396673Y-161654884D03*
%TD*%
D17*
%TO.C,SW1*%
X51888212Y-37379602D03*
X64904350Y-39414077D03*
%TD*%
%TO.C,SW24*%
X106389651Y-110432047D03*
X119405789Y-112466522D03*
%TD*%
%TO.C,SW29*%
X123204855Y-119931082D03*
X136220993Y-121965557D03*
%TD*%
%TO.C,SW14*%
X70587343Y-97401089D03*
X83603481Y-99435564D03*
%TD*%
%TO.C,SW19*%
X89845889Y-100187156D03*
X102862027Y-102221631D03*
%TD*%
%TO.C,SW5*%
X25826270Y-108984198D03*
X38842408Y-111018673D03*
%TD*%
%TO.C,SW22*%
X119420604Y-74629752D03*
X132436742Y-76664227D03*
%TD*%
%TO.C,SW27*%
X136235826Y-84128779D03*
X149251964Y-86163254D03*
%TD*%
%TO.C,SW3*%
X38857227Y-73181903D03*
X51873365Y-75216378D03*
%TD*%
%TO.C,SW8*%
X57572824Y-77459730D03*
X70588962Y-79494205D03*
%TD*%
%TO.C,SW13*%
X77102836Y-79499934D03*
X90118974Y-81534409D03*
%TD*%
%TO.C,SW23*%
X112905127Y-92530933D03*
X125921265Y-94565408D03*
%TD*%
%TO.C,SW18*%
X96361355Y-82286015D03*
X109377493Y-84320490D03*
%TD*%
%TO.C,SW28*%
X129720337Y-102029923D03*
X142736475Y-104064398D03*
%TD*%
%TO.C,SW4*%
X32341767Y-91083064D03*
X45357905Y-93117539D03*
%TD*%
%TO.C,SW9*%
X51057310Y-95360891D03*
X64073448Y-97395366D03*
%TD*%
%TO.C,SW10*%
X44541848Y-113262030D03*
X57557986Y-115296505D03*
%TD*%
%TO.C,SW15*%
X64071860Y-115302228D03*
X77087998Y-117336703D03*
%TD*%
%TO.C,SW20*%
X92278229Y-130636651D03*
X105294367Y-132671126D03*
%TD*%
%TO.C,SW11*%
X90133794Y-43697664D03*
X103149932Y-45732139D03*
%TD*%
%TO.C,SW2*%
X45372727Y-55280756D03*
X58388865Y-57315231D03*
%TD*%
%TO.C,SW12*%
X83618308Y-61598788D03*
X96634446Y-63633263D03*
%TD*%
%TO.C,SW21*%
X125936092Y-56728615D03*
X138952230Y-58763090D03*
%TD*%
%TO.C,SW17*%
X102876853Y-64384882D03*
X115892991Y-66419357D03*
%TD*%
%TO.C,SW16*%
X109392335Y-46483721D03*
X122408473Y-48518196D03*
%TD*%
%TO.C,SW6*%
X70603781Y-41657454D03*
X83619919Y-43691929D03*
%TD*%
%TO.C,SW7*%
X64088294Y-59558596D03*
X77104432Y-61593071D03*
%TD*%
%TO.C,SW26*%
X142751311Y-66227631D03*
X155767449Y-68262106D03*
%TD*%
D18*
%TO.C,SW31*%
X195433266Y-71074060D03*
X206711941Y-64265947D03*
%TD*%
D19*
%TO.C,D34*%
X211795229Y-119434437D03*
X212923895Y-122535423D03*
%TD*%
D20*
%TO.C,C53*%
X118007726Y-152559152D03*
X118794112Y-153109786D03*
%TD*%
D21*
%TO.C,U6*%
X184719303Y-121182640D03*
X185669303Y-121182640D03*
X186619303Y-121182640D03*
X186619303Y-123457640D03*
X184719303Y-123457640D03*
%TD*%
D22*
%TO.C,D16*%
X110387341Y-40343774D03*
X109258675Y-43444760D03*
%TD*%
D18*
%TO.C,SW45*%
X245906340Y-135483074D03*
X257185015Y-128674961D03*
%TD*%
D23*
%TO.C,C90*%
X309789453Y-101495309D03*
X310691557Y-101166969D03*
%TD*%
D24*
%TO.C,C38*%
X52522865Y-124680316D03*
X53424969Y-125008656D03*
%TD*%
D25*
%TO.C,C60*%
X181029798Y-181814386D03*
X180069798Y-181814386D03*
%TD*%
D19*
%TO.C,D57*%
X289627347Y-54784114D03*
X290756013Y-57885100D03*
%TD*%
D18*
%TO.C,SW49*%
X267597222Y-102247528D03*
X278875897Y-95439415D03*
%TD*%
D19*
%TO.C,D58*%
X296142847Y-72685273D03*
X297271513Y-75786259D03*
%TD*%
D26*
%TO.C,C28*%
X170577613Y-110926168D03*
X169746229Y-111406168D03*
%TD*%
D27*
%TO.C,D103*%
X155635732Y-179511054D03*
X155998078Y-178158758D03*
X150323140Y-178087550D03*
%TD*%
D28*
%TO.C,D104*%
X178499787Y-181804404D03*
X178499787Y-180404404D03*
X172999787Y-181804404D03*
%TD*%
D19*
%TO.C,D60*%
X309173810Y-108487555D03*
X310302476Y-111588541D03*
%TD*%
D29*
%TO.C,C9*%
X173849939Y-40069375D03*
X173849939Y-41619375D03*
%TD*%
D30*
%TO.C,R27*%
X186589294Y-124950125D03*
X185569294Y-124950125D03*
%TD*%
D31*
%TO.C,D105*%
X201201623Y-178080914D03*
X200839277Y-176728618D03*
X195889031Y-179504418D03*
%TD*%
D32*
%TO.C,C44*%
X118275467Y-58230354D03*
X117373363Y-57902014D03*
%TD*%
%TO.C,C46*%
X105244483Y-94032640D03*
X104342379Y-93704300D03*
%TD*%
D23*
%TO.C,C85*%
X291073874Y-105773146D03*
X291975978Y-105444806D03*
%TD*%
D33*
%TO.C,D125*%
X286087328Y-124293041D03*
X285608500Y-122977472D03*
X280919018Y-126174152D03*
%TD*%
D34*
%TO.C,D63*%
X186902337Y-167314996D03*
X187756439Y-170502552D03*
%TD*%
D24*
%TO.C,C42*%
X70033006Y-104201624D03*
X70935110Y-104529964D03*
%TD*%
D35*
%TO.C,D75*%
X45366375Y-84053823D03*
X45845203Y-82738254D03*
X40198065Y-82172712D03*
%TD*%
D22*
%TO.C,D14*%
X71582341Y-91261125D03*
X70453675Y-94362111D03*
%TD*%
D36*
%TO.C,D102*%
X131338987Y-166056179D03*
X132411449Y-165156276D03*
X127803655Y-161842934D03*
%TD*%
D18*
%TO.C,SW47*%
X254566265Y-66445229D03*
X265844940Y-59637116D03*
%TD*%
D37*
%TO.C,SW63*%
X189609017Y-172915284D03*
X201438140Y-167116079D03*
%TD*%
D38*
%TO.C,D81*%
X52876967Y-103036123D03*
X52398139Y-104351692D03*
X58045277Y-104917234D03*
%TD*%
D22*
%TO.C,D4*%
X33336767Y-84943075D03*
X32208101Y-88044061D03*
%TD*%
D33*
%TO.C,D106*%
X207407887Y-75218439D03*
X206929059Y-73902870D03*
X202239577Y-77099550D03*
%TD*%
D39*
%TO.C,D67*%
X187881565Y-114932510D03*
X188581565Y-113720074D03*
X183118425Y-112182510D03*
%TD*%
D22*
%TO.C,D19*%
X90840881Y-94047194D03*
X89712215Y-97148180D03*
%TD*%
D40*
%TO.C,SW61*%
X148203818Y-169247799D03*
X161347741Y-170140102D03*
%TD*%
D18*
%TO.C,SW33*%
X208464220Y-106876344D03*
X219742895Y-100068231D03*
%TD*%
D38*
%TO.C,D101*%
X125024508Y-127606296D03*
X124545680Y-128921865D03*
X130192818Y-129487407D03*
%TD*%
D41*
%TO.C,D134*%
X312170297Y-100639404D03*
X312649125Y-101954973D03*
X317338607Y-98758293D03*
%TD*%
D42*
%TO.C,C4*%
X172024998Y-33794375D03*
X172024998Y-35694375D03*
%TD*%
D24*
%TO.C,C47*%
X89291537Y-106987692D03*
X90193641Y-107316032D03*
%TD*%
D23*
%TO.C,C70*%
X235741586Y-120844321D03*
X236643690Y-120515981D03*
%TD*%
D43*
%TO.C,C92*%
X178739236Y-37795006D03*
X179699236Y-37795006D03*
%TD*%
D32*
%TO.C,C39*%
X99016937Y-55444272D03*
X98114833Y-55115932D03*
%TD*%
D44*
%TO.C,C8*%
X179574942Y-39265010D03*
X179574942Y-40225010D03*
%TD*%
D45*
%TO.C,C21*%
X184865000Y-119320143D03*
X183315000Y-119320143D03*
%TD*%
D46*
%TO.C,C7*%
X174649940Y-56325001D03*
X174649940Y-55365001D03*
%TD*%
D35*
%TO.C,D78*%
X77112923Y-52529369D03*
X77591751Y-51213800D03*
X71944613Y-50648258D03*
%TD*%
%TO.C,D98*%
X149260430Y-77099548D03*
X149739258Y-75783979D03*
X144092120Y-75218437D03*
%TD*%
D43*
%TO.C,C19*%
X171369942Y-44868908D03*
X172329942Y-44868908D03*
%TD*%
D24*
%TO.C,C43*%
X72052890Y-126720511D03*
X72954994Y-127048851D03*
%TD*%
%TO.C,C30*%
X44818395Y-62081268D03*
X45720499Y-62409608D03*
%TD*%
D22*
%TO.C,D8*%
X58567817Y-71319782D03*
X57439151Y-74420768D03*
%TD*%
D19*
%TO.C,D39*%
X228610462Y-109935432D03*
X229739128Y-113036418D03*
%TD*%
D35*
%TO.C,D90*%
X102870496Y-93157937D03*
X103349324Y-91842368D03*
X97702186Y-91276826D03*
%TD*%
D47*
%TO.C,C22*%
X183069295Y-123245138D03*
X183069295Y-121695138D03*
%TD*%
D35*
%TO.C,D100*%
X136229470Y-112901832D03*
X136708298Y-111586263D03*
X131061160Y-111020721D03*
%TD*%
D44*
%TO.C,C13*%
X177529941Y-39255002D03*
X177529941Y-40215002D03*
%TD*%
D24*
%TO.C,C50*%
X118866260Y-81430283D03*
X119768364Y-81758623D03*
%TD*%
D35*
%TO.C,D87*%
X70580987Y-126174140D03*
X71059815Y-124858571D03*
X65412677Y-124293029D03*
%TD*%
D48*
%TO.C,D68*%
X195250008Y-133194988D03*
X196650008Y-133194988D03*
X195250008Y-127694988D03*
%TD*%
D18*
%TO.C,SW59*%
X305842810Y-95929478D03*
X317121485Y-89121365D03*
%TD*%
D23*
%TO.C,C80*%
X271543860Y-107813335D03*
X272445964Y-107484995D03*
%TD*%
D19*
%TO.C,D37*%
X215579486Y-74133135D03*
X216708152Y-77234121D03*
%TD*%
%TO.C,D48*%
X257897251Y-79003304D03*
X259025917Y-82104290D03*
%TD*%
D38*
%TO.C,D84*%
X85437957Y-69274022D03*
X84959129Y-70589591D03*
X90606267Y-71155133D03*
%TD*%
D49*
%TO.C,C66*%
X224708300Y-160645725D03*
X225325376Y-159910323D03*
%TD*%
D38*
%TO.C,D91*%
X91665544Y-107862382D03*
X91186716Y-109177951D03*
X96833854Y-109743493D03*
%TD*%
D35*
%TO.C,D83*%
X96642932Y-54569566D03*
X97121760Y-53253997D03*
X91474622Y-52688455D03*
%TD*%
D19*
%TO.C,D50*%
X270928201Y-114805591D03*
X272056867Y-117906577D03*
%TD*%
D50*
%TO.C,D61*%
X148659898Y-163044481D03*
X147805796Y-166232037D03*
%TD*%
D18*
%TO.C,SW38*%
X225279468Y-97377343D03*
X236558143Y-90569230D03*
%TD*%
D51*
%TO.C,C64*%
X222819682Y-110164801D03*
X221917578Y-110493141D03*
%TD*%
D18*
%TO.C,SW50*%
X274112711Y-120148670D03*
X285391386Y-113340557D03*
%TD*%
D35*
%TO.C,D95*%
X119414260Y-103402853D03*
X119893088Y-102087284D03*
X114245950Y-101521742D03*
%TD*%
D52*
%TO.C,R4*%
X171150012Y-97455003D03*
X171150012Y-96435003D03*
%TD*%
D46*
%TO.C,C24*%
X195240003Y-135725001D03*
X195240003Y-134765001D03*
%TD*%
D51*
%TO.C,C67*%
X226603956Y-64863532D03*
X225701852Y-65191872D03*
%TD*%
D38*
%TO.C,D86*%
X72406991Y-105076325D03*
X71928163Y-106391894D03*
X77575301Y-106957436D03*
%TD*%
D24*
%TO.C,C48*%
X100259268Y-142054930D03*
X101161372Y-142383270D03*
%TD*%
%TO.C,C40*%
X83063979Y-68399336D03*
X83966083Y-68727676D03*
%TD*%
D18*
%TO.C,SW58*%
X299327324Y-78028314D03*
X310605999Y-71220201D03*
%TD*%
D41*
%TO.C,D129*%
X293454722Y-104917241D03*
X293933550Y-106232810D03*
X298623032Y-103036130D03*
%TD*%
D19*
%TO.C,D55*%
X290458243Y-112765392D03*
X291586909Y-115866378D03*
%TD*%
D22*
%TO.C,D6*%
X71598774Y-35517488D03*
X70470108Y-38618474D03*
%TD*%
D53*
%TO.C,U3*%
X177624930Y-48720007D03*
D54*
X177624930Y-47370007D03*
D55*
X176274930Y-48720007D03*
D56*
X176274930Y-47370007D03*
D57*
X180387430Y-45445007D03*
X180387430Y-45845007D03*
X180387430Y-46245007D03*
X180387430Y-46645007D03*
X180387430Y-47045007D03*
X180387430Y-47445007D03*
X180387430Y-47845007D03*
X180387430Y-48245007D03*
X180387430Y-48645007D03*
X180387430Y-49045007D03*
X180387430Y-49445007D03*
X180387430Y-49845007D03*
X180387430Y-50245007D03*
X180387430Y-50645007D03*
D58*
X179549930Y-51482507D03*
X179149930Y-51482507D03*
X178749930Y-51482507D03*
X178349930Y-51482507D03*
X177949930Y-51482507D03*
X177549930Y-51482507D03*
X177149930Y-51482507D03*
X176749930Y-51482507D03*
X176349930Y-51482507D03*
X175949930Y-51482507D03*
X175549930Y-51482507D03*
X175149930Y-51482507D03*
X174749930Y-51482507D03*
X174349930Y-51482507D03*
D57*
X173512430Y-50645007D03*
X173512430Y-50245007D03*
X173512430Y-49845007D03*
X173512430Y-49445007D03*
X173512430Y-49045007D03*
X173512430Y-48645007D03*
X173512430Y-48245007D03*
X173512430Y-47845007D03*
X173512430Y-47445007D03*
X173512430Y-47045007D03*
X173512430Y-46645007D03*
X173512430Y-46245007D03*
X173512430Y-45845007D03*
X173512430Y-45445007D03*
D58*
X174349930Y-44607507D03*
X174749930Y-44607507D03*
X175149930Y-44607507D03*
X175549930Y-44607507D03*
X175949930Y-44607507D03*
X176349930Y-44607507D03*
X176749930Y-44607507D03*
X177149930Y-44607507D03*
X177549930Y-44607507D03*
X177949930Y-44607507D03*
X178349930Y-44607507D03*
X178749930Y-44607507D03*
X179149930Y-44607507D03*
X179549930Y-44607507D03*
%TD*%
D18*
%TO.C,SW43*%
X241823190Y-87132439D03*
X253101865Y-80324326D03*
%TD*%
D22*
%TO.C,D28*%
X130715340Y-95889955D03*
X129586674Y-98990941D03*
%TD*%
D43*
%TO.C,C12*%
X171369940Y-41344375D03*
X172329940Y-41344375D03*
%TD*%
D22*
%TO.C,D21*%
X126931090Y-50588663D03*
X125802424Y-53689649D03*
%TD*%
D35*
%TO.C,D93*%
X132445218Y-67600521D03*
X132924046Y-66284952D03*
X127276908Y-65719410D03*
%TD*%
D51*
%TO.C,C62*%
X209788729Y-74362547D03*
X208886625Y-74690887D03*
%TD*%
D22*
%TO.C,D7*%
X65083309Y-53418627D03*
X63954643Y-56519613D03*
%TD*%
%TO.C,D10*%
X45536842Y-107122079D03*
X44408176Y-110223065D03*
%TD*%
D59*
%TO.C,F1*%
X167750000Y-30744999D03*
X167750000Y-27944999D03*
%TD*%
D28*
%TO.C,SW66*%
X172575006Y-77745001D03*
X178875006Y-77745001D03*
X172575006Y-73945001D03*
X178875006Y-73945001D03*
%TD*%
D41*
%TO.C,D127*%
X280423751Y-69114932D03*
X280902579Y-70430501D03*
X285592061Y-67233821D03*
%TD*%
D51*
%TO.C,C81*%
X288468161Y-123437115D03*
X287566057Y-123765455D03*
%TD*%
%TO.C,C84*%
X294967221Y-85594651D03*
X294065117Y-85922991D03*
%TD*%
D43*
%TO.C,C11*%
X171369947Y-42394377D03*
X172329947Y-42394377D03*
%TD*%
D18*
%TO.C,SW57*%
X292811839Y-60127178D03*
X304090514Y-53319065D03*
%TD*%
D60*
%TO.C,D65*%
X172699997Y-30994998D03*
X172699997Y-27694998D03*
%TD*%
D23*
%TO.C,C88*%
X296758481Y-65693014D03*
X297660585Y-65364674D03*
%TD*%
D33*
%TO.C,D130*%
X305617349Y-122252855D03*
X305138521Y-120937286D03*
X300449039Y-124133966D03*
%TD*%
D22*
%TO.C,D18*%
X97356375Y-76146050D03*
X96227709Y-79247036D03*
%TD*%
D41*
%TO.C,D124*%
X273924707Y-106957431D03*
X274403535Y-108273000D03*
X279093017Y-105076320D03*
%TD*%
D61*
%TO.C,R14*%
X167440001Y-132744999D03*
X168460001Y-132744999D03*
%TD*%
D41*
%TO.C,D107*%
X208276222Y-93685125D03*
X208755050Y-95000694D03*
X213444532Y-91804014D03*
%TD*%
D22*
%TO.C,D2*%
X46367720Y-49140783D03*
X45239054Y-52241769D03*
%TD*%
D19*
%TO.C,D47*%
X251381786Y-61102168D03*
X252510452Y-64203154D03*
%TD*%
%TO.C,D56*%
X283111869Y-36882973D03*
X284240535Y-39983959D03*
%TD*%
D62*
%TO.C,U2*%
X188494237Y-38265144D03*
X188494237Y-39535144D03*
X188494237Y-40805144D03*
X188494237Y-42075144D03*
X181294237Y-42075144D03*
X181294237Y-40805144D03*
X181294237Y-39535144D03*
X181294237Y-38265144D03*
%TD*%
D35*
%TO.C,D85*%
X83611967Y-90371849D03*
X84090795Y-89056280D03*
X78443657Y-88490738D03*
%TD*%
%TO.C,D92*%
X98787377Y-141508559D03*
X99266205Y-140192990D03*
X93619067Y-139627448D03*
%TD*%
D51*
%TO.C,C79*%
X275437203Y-87634838D03*
X274535099Y-87963178D03*
%TD*%
D35*
%TO.C,D73*%
X58397342Y-48251523D03*
X58876170Y-46935954D03*
X53229032Y-46370412D03*
%TD*%
D33*
%TO.C,D108*%
X220438830Y-111020727D03*
X219960002Y-109705158D03*
X215270520Y-112901838D03*
%TD*%
D18*
%TO.C,SW52*%
X274096275Y-64405021D03*
X285374950Y-57596908D03*
%TD*%
D19*
%TO.C,D33*%
X205279746Y-101533293D03*
X206408412Y-104634279D03*
%TD*%
D61*
%TO.C,R28*%
X185040000Y-126004999D03*
X186060000Y-126004999D03*
%TD*%
D18*
%TO.C,SW44*%
X248338687Y-105033572D03*
X259617362Y-98225459D03*
%TD*%
D51*
%TO.C,C89*%
X313682789Y-81316791D03*
X312780685Y-81645131D03*
%TD*%
D41*
%TO.C,D112*%
X225091455Y-84186122D03*
X225570283Y-85501691D03*
X230259765Y-82305011D03*
%TD*%
D33*
%TO.C,D131*%
X298270977Y-46370414D03*
X297792149Y-45054845D03*
X293102667Y-48251525D03*
%TD*%
D22*
%TO.C,D17*%
X103871857Y-58244917D03*
X102743191Y-61345903D03*
%TD*%
D44*
%TO.C,C14*%
X178549937Y-39265004D03*
X178549937Y-40225004D03*
%TD*%
D52*
%TO.C,R10*%
X182516012Y-134181309D03*
X182516012Y-133161309D03*
%TD*%
D19*
%TO.C,D41*%
X225607740Y-45987083D03*
X226736406Y-49088069D03*
%TD*%
D18*
%TO.C,SW41*%
X228792233Y-51330157D03*
X240070908Y-44522044D03*
%TD*%
D38*
%TO.C,D76*%
X34161422Y-98758300D03*
X33682594Y-100073869D03*
X39329732Y-100639411D03*
%TD*%
D51*
%TO.C,C91*%
X326713760Y-117119085D03*
X325811656Y-117447425D03*
%TD*%
D63*
%TO.C,R12*%
X173850000Y-21184999D03*
X173850000Y-22204999D03*
%TD*%
%TO.C,R15*%
X169749998Y-59684375D03*
X169749998Y-60704375D03*
%TD*%
D32*
%TO.C,C34*%
X79486921Y-53404070D03*
X78584817Y-53075730D03*
%TD*%
D19*
%TO.C,D54*%
X283942757Y-94864245D03*
X285071423Y-97965231D03*
%TD*%
D44*
%TO.C,C2*%
X173250015Y-96464990D03*
X173250015Y-97424990D03*
%TD*%
D38*
%TO.C,D89*%
X104696505Y-72060098D03*
X104217677Y-73375667D03*
X109864815Y-73941209D03*
%TD*%
D22*
%TO.C,D1*%
X52883206Y-31239650D03*
X51754540Y-34340636D03*
%TD*%
D52*
%TO.C,R9*%
X177549936Y-57330005D03*
X177549936Y-56310005D03*
%TD*%
D41*
%TO.C,D117*%
X241635193Y-73941215D03*
X242114021Y-75256784D03*
X246803503Y-72060104D03*
%TD*%
D38*
%TO.C,D96*%
X108209299Y-118107287D03*
X107730471Y-119422856D03*
X113377609Y-119988398D03*
%TD*%
D63*
%TO.C,R1*%
X180350011Y-96434991D03*
X180350011Y-97454991D03*
%TD*%
D35*
%TO.C,D77*%
X32335406Y-119856112D03*
X32814234Y-118540543D03*
X27167096Y-117975001D03*
%TD*%
D63*
%TO.C,R8*%
X175174941Y-40785003D03*
X175174941Y-41805003D03*
%TD*%
D19*
%TO.C,D53*%
X277427266Y-76963104D03*
X278555932Y-80064090D03*
%TD*%
D64*
%TO.C,C58*%
X132957587Y-168000711D03*
X132340511Y-167265309D03*
%TD*%
D33*
%TO.C,D113*%
X237254073Y-101521716D03*
X236775245Y-100206147D03*
X232085763Y-103402827D03*
%TD*%
D48*
%TO.C,D71*%
X156249997Y-127695004D03*
X154849997Y-127695004D03*
X156249997Y-133195004D03*
%TD*%
D25*
%TO.C,C6*%
X180329935Y-59520001D03*
X179369935Y-59520001D03*
%TD*%
D24*
%TO.C,C45*%
X102322513Y-71185417D03*
X103224617Y-71513757D03*
%TD*%
D19*
%TO.C,D32*%
X198764258Y-83632149D03*
X199892924Y-86733135D03*
%TD*%
D65*
%TO.C,SW40*%
X226622877Y-147586103D03*
X235755171Y-138090834D03*
%TD*%
D22*
%TO.C,D23*%
X113900130Y-86390949D03*
X112771464Y-89491935D03*
%TD*%
D66*
%TO.C,SW62*%
X168665015Y-173814992D03*
X181592015Y-171274992D03*
%TD*%
D32*
%TO.C,C54*%
X151634427Y-77974246D03*
X150732323Y-77645906D03*
%TD*%
D35*
%TO.C,D82*%
X51050973Y-124133942D03*
X51529801Y-122818373D03*
X45882663Y-122252831D03*
%TD*%
D24*
%TO.C,C33*%
X33807309Y-120402465D03*
X34709413Y-120730805D03*
%TD*%
D41*
%TO.C,D132*%
X299139328Y-64837109D03*
X299618156Y-66152678D03*
X304307638Y-62955998D03*
%TD*%
D52*
%TO.C,R2*%
X179300017Y-97454997D03*
X179300017Y-96434997D03*
%TD*%
D30*
%TO.C,R6*%
X185709942Y-44295007D03*
X184689942Y-44295007D03*
%TD*%
D67*
%TO.C,D69*%
X183118441Y-148707492D03*
X183818441Y-149919928D03*
X187881581Y-145957492D03*
%TD*%
D51*
%TO.C,C86*%
X307998174Y-121396933D03*
X307096070Y-121725273D03*
%TD*%
D19*
%TO.C,D36*%
X209064005Y-56231991D03*
X210192671Y-59332977D03*
%TD*%
D44*
%TO.C,C15*%
X181674945Y-44265010D03*
X181674945Y-45225010D03*
%TD*%
D23*
%TO.C,C63*%
X205895383Y-94541035D03*
X206797487Y-94212695D03*
%TD*%
D18*
%TO.C,SW46*%
X248050768Y-48544091D03*
X259329443Y-41735978D03*
%TD*%
D32*
%TO.C,C56*%
X138603485Y-113776528D03*
X137701381Y-113448188D03*
%TD*%
D51*
%TO.C,C72*%
X243147694Y-54618623D03*
X242245590Y-54946963D03*
%TD*%
D18*
%TO.C,SW51*%
X267580793Y-46503890D03*
X278859468Y-39695777D03*
%TD*%
D68*
%TO.C,C23*%
X190067618Y-116206178D03*
X189236234Y-115726178D03*
%TD*%
D41*
%TO.C,D122*%
X260893729Y-71155151D03*
X261372557Y-72470720D03*
X266062039Y-69274040D03*
%TD*%
D32*
%TO.C,C31*%
X47740375Y-84928518D03*
X46838271Y-84600178D03*
%TD*%
D19*
%TO.C,D59*%
X302658313Y-90586405D03*
X303786979Y-93687391D03*
%TD*%
D32*
%TO.C,C29*%
X60771340Y-49126232D03*
X59869236Y-48797892D03*
%TD*%
D18*
%TO.C,SW60*%
X312358286Y-113830615D03*
X323636961Y-107022502D03*
%TD*%
D38*
%TO.C,D99*%
X138055488Y-91803997D03*
X137576660Y-93119566D03*
X143223798Y-93685108D03*
%TD*%
D35*
%TO.C,D80*%
X64081972Y-88331653D03*
X64560800Y-87016084D03*
X58913662Y-86450542D03*
%TD*%
D69*
%TO.C,C61*%
X203647994Y-177435752D03*
X202720706Y-177684218D03*
%TD*%
D18*
%TO.C,SW37*%
X218763975Y-79476207D03*
X230042650Y-72668094D03*
%TD*%
D22*
%TO.C,D9*%
X52052326Y-89220930D03*
X50923660Y-92321916D03*
%TD*%
D23*
%TO.C,C83*%
X278042919Y-69970861D03*
X278945023Y-69642521D03*
%TD*%
D41*
%TO.C,D109*%
X221307182Y-129487412D03*
X221786010Y-130802981D03*
X226475492Y-127606301D03*
%TD*%
D70*
%TO.C,C71*%
X240553912Y-147597680D03*
X241340298Y-147047046D03*
%TD*%
D19*
%TO.C,D42*%
X232123242Y-63888231D03*
X233251908Y-66989217D03*
%TD*%
D22*
%TO.C,D22*%
X120415601Y-68489790D03*
X119286935Y-71590776D03*
%TD*%
D29*
%TO.C,C10*%
X169666628Y-41757130D03*
X169666628Y-43307130D03*
%TD*%
D51*
%TO.C,C82*%
X281936259Y-49792336D03*
X281034155Y-50120676D03*
%TD*%
D24*
%TO.C,C32*%
X31787427Y-97883596D03*
X32689531Y-98211936D03*
%TD*%
%TO.C,C55*%
X135681483Y-90929307D03*
X136583587Y-91257647D03*
%TD*%
D22*
%TO.C,D3*%
X39852233Y-67041945D03*
X38723567Y-70142931D03*
%TD*%
D71*
%TO.C,C3*%
X160399997Y-30294374D03*
X162299997Y-30294374D03*
%TD*%
D33*
%TO.C,D133*%
X311301943Y-82172699D03*
X310823115Y-80857130D03*
X306133633Y-84053810D03*
%TD*%
D32*
%TO.C,C36*%
X66455966Y-89206354D03*
X65553862Y-88878014D03*
%TD*%
D22*
%TO.C,D11*%
X91128798Y-37557702D03*
X90000132Y-40658688D03*
%TD*%
D23*
%TO.C,C78*%
X258512894Y-72011052D03*
X259414998Y-71682712D03*
%TD*%
D33*
%TO.C,D126*%
X279555418Y-50648260D03*
X279076590Y-49332691D03*
X274387108Y-52529371D03*
%TD*%
D19*
%TO.C,D49*%
X264412736Y-96904452D03*
X265541402Y-100005438D03*
%TD*%
D46*
%TO.C,C5*%
X182149938Y-57300006D03*
X182149938Y-56340006D03*
%TD*%
D19*
%TO.C,D46*%
X244866289Y-43201021D03*
X245994955Y-46302007D03*
%TD*%
D33*
%TO.C,D111*%
X224223097Y-65719432D03*
X223744269Y-64403863D03*
X219054787Y-67600543D03*
%TD*%
D47*
%TO.C,C93*%
X183730001Y-128590000D03*
X183730001Y-127040000D03*
%TD*%
D72*
%TO.C,D35*%
X205820733Y-161204746D03*
X208348679Y-163325946D03*
%TD*%
D63*
%TO.C,R13*%
X177650000Y-21184999D03*
X177650000Y-22204999D03*
%TD*%
D22*
%TO.C,D27*%
X137230815Y-77988819D03*
X136102149Y-81089805D03*
%TD*%
D73*
%TO.C,D70*%
X163618431Y-145957492D03*
X162918431Y-147169928D03*
X168381571Y-148707492D03*
%TD*%
D21*
%TO.C,U5*%
X174799998Y-29006875D03*
X175749998Y-29006875D03*
X176699998Y-29006875D03*
X176699998Y-31281875D03*
X175749998Y-31281875D03*
X174799998Y-31281875D03*
%TD*%
D23*
%TO.C,C76*%
X259356283Y-139090481D03*
X260258387Y-138762141D03*
%TD*%
%TO.C,C65*%
X218926343Y-130343318D03*
X219828447Y-130014978D03*
%TD*%
D30*
%TO.C,R5*%
X183709942Y-44305006D03*
X182689942Y-44305006D03*
%TD*%
D41*
%TO.C,D114*%
X238122408Y-119988415D03*
X238601236Y-121303984D03*
X243290718Y-118107304D03*
%TD*%
D33*
%TO.C,D123*%
X273056366Y-88490746D03*
X272577538Y-87175177D03*
X267888056Y-90371857D03*
%TD*%
D32*
%TO.C,C49*%
X134819233Y-68475226D03*
X133917129Y-68146886D03*
%TD*%
D33*
%TO.C,D135*%
X324332915Y-117974995D03*
X323854087Y-116659426D03*
X319164605Y-119856106D03*
%TD*%
D74*
%TO.C,D62*%
X167500012Y-167704994D03*
X167500012Y-171004994D03*
%TD*%
D33*
%TO.C,D128*%
X292586381Y-86450555D03*
X292107553Y-85134986D03*
X287418071Y-88331666D03*
%TD*%
D46*
%TO.C,C17*%
X175649942Y-56014339D03*
X175649942Y-55054339D03*
%TD*%
D75*
%TO.C,D97*%
X116727399Y-151650435D03*
X117530406Y-150503622D03*
X112222062Y-148495764D03*
%TD*%
D32*
%TO.C,C51*%
X121788254Y-104277545D03*
X120886150Y-103949205D03*
%TD*%
D24*
%TO.C,C52*%
X105835292Y-117232580D03*
X106737396Y-117560920D03*
%TD*%
D18*
%TO.C,SW54*%
X287127240Y-100207318D03*
X298405915Y-93399205D03*
%TD*%
D19*
%TO.C,D31*%
X192248783Y-65730990D03*
X193377449Y-68831976D03*
%TD*%
D24*
%TO.C,C37*%
X50502991Y-102161422D03*
X51405095Y-102489762D03*
%TD*%
D18*
%TO.C,SW55*%
X293642731Y-118108465D03*
X304921406Y-111300352D03*
%TD*%
D51*
%TO.C,C69*%
X239634915Y-100665809D03*
X238732811Y-100994149D03*
%TD*%
D25*
%TO.C,C16*%
X185316239Y-49045009D03*
X184356239Y-49045009D03*
%TD*%
D18*
%TO.C,SW48*%
X261081745Y-84346371D03*
X272360420Y-77538258D03*
%TD*%
D19*
%TO.C,D43*%
X238638708Y-81789379D03*
X239767374Y-84890365D03*
%TD*%
%TO.C,D52*%
X270911791Y-59061957D03*
X272040457Y-62162943D03*
%TD*%
D32*
%TO.C,C41*%
X85985960Y-91246547D03*
X85083856Y-90918207D03*
%TD*%
D23*
%TO.C,C75*%
X252288736Y-110608805D03*
X253190840Y-110280465D03*
%TD*%
D76*
%TO.C,D72*%
X168381584Y-112182509D03*
X167681584Y-110970073D03*
X163618444Y-114932509D03*
%TD*%
D22*
%TO.C,D29*%
X124199861Y-113791109D03*
X123071195Y-116892095D03*
%TD*%
D77*
%TO.C,D40*%
X222164016Y-143249300D03*
X224056818Y-145952502D03*
%TD*%
D44*
%TO.C,C94*%
X182430001Y-127375006D03*
X182430001Y-128335006D03*
%TD*%
D78*
%TO.C,Y1*%
X180699940Y-55720002D03*
X180699940Y-57920002D03*
X178999940Y-57920002D03*
X178999940Y-55720002D03*
%TD*%
D51*
%TO.C,C74*%
X256178656Y-90420897D03*
X255276552Y-90749237D03*
%TD*%
D43*
%TO.C,C18*%
X169464862Y-49045006D03*
X170424862Y-49045006D03*
%TD*%
D79*
%TO.C,C26*%
X161432385Y-144683832D03*
X162263769Y-145163832D03*
%TD*%
D18*
%TO.C,SW53*%
X280611757Y-82306165D03*
X291890432Y-75498052D03*
%TD*%
D80*
%TO.C,SW35*%
X211250108Y-164239750D03*
X217613670Y-152704413D03*
%TD*%
D18*
%TO.C,SW34*%
X214979700Y-124777489D03*
X226258375Y-117969376D03*
%TD*%
D81*
%TO.C,U1*%
X163349996Y-37744375D03*
X163349996Y-35444375D03*
D82*
X169649996Y-35444375D03*
D81*
X163349996Y-33144375D03*
%TD*%
D52*
%TO.C,R11*%
X168950001Y-127455002D03*
X168950001Y-126435002D03*
%TD*%
D83*
%TO.C,D25*%
X115819986Y-133785307D03*
X113927184Y-136488509D03*
%TD*%
D22*
%TO.C,D24*%
X107384644Y-104292088D03*
X106255978Y-107393074D03*
%TD*%
D24*
%TO.C,C35*%
X63533939Y-66359112D03*
X64436043Y-66687452D03*
%TD*%
D63*
%TO.C,R3*%
X172200014Y-96434996D03*
X172200014Y-97454996D03*
%TD*%
D84*
%TO.C,SW65*%
X180029998Y-81470007D03*
X171419998Y-81470007D03*
%TD*%
D23*
%TO.C,C73*%
X239254352Y-74797118D03*
X240156456Y-74468778D03*
%TD*%
D38*
%TO.C,D94*%
X121240246Y-82304983D03*
X120761418Y-83620552D03*
X126408556Y-84186094D03*
%TD*%
D22*
%TO.C,D26*%
X143746308Y-60087668D03*
X142617642Y-63188654D03*
%TD*%
D41*
%TO.C,D119*%
X254666158Y-109743497D03*
X255144986Y-111059066D03*
X259834468Y-107862386D03*
%TD*%
D19*
%TO.C,D38*%
X222094963Y-92034270D03*
X223223629Y-95135256D03*
%TD*%
D23*
%TO.C,C68*%
X222710613Y-85042039D03*
X223612717Y-84713699D03*
%TD*%
D33*
%TO.C,D120*%
X257880960Y-139627451D03*
X257402132Y-138311882D03*
X252712650Y-141508562D03*
%TD*%
D44*
%TO.C,C1*%
X178250014Y-96465009D03*
X178250014Y-97425009D03*
%TD*%
D18*
%TO.C,SW42*%
X235307709Y-69231303D03*
X246586384Y-62423190D03*
%TD*%
D85*
%TO.C,D115*%
X239262106Y-148490009D03*
X238459099Y-147343196D03*
X234756769Y-151644680D03*
%TD*%
D33*
%TO.C,D116*%
X240766838Y-55474532D03*
X240288010Y-54158963D03*
X235598528Y-57355643D03*
%TD*%
D86*
%TO.C,D110*%
X223691462Y-161842011D03*
X222619000Y-160942108D03*
X220156130Y-166055256D03*
%TD*%
D51*
%TO.C,C87*%
X300651797Y-45514515D03*
X299749693Y-45842855D03*
%TD*%
D22*
%TO.C,D5*%
X26821280Y-102844223D03*
X25692614Y-105945209D03*
%TD*%
D24*
%TO.C,C57*%
X122650510Y-126731605D03*
X123552614Y-127059945D03*
%TD*%
D18*
%TO.C,SW56*%
X286296361Y-42226045D03*
X297575036Y-35417932D03*
%TD*%
D38*
%TO.C,D74*%
X47192374Y-62955994D03*
X46713546Y-64271563D03*
X52360684Y-64837105D03*
%TD*%
D87*
%TO.C,C59*%
X158076943Y-180175523D03*
X157149655Y-179927057D03*
%TD*%
D88*
%TO.C,D30*%
X135073285Y-148565033D03*
X132545339Y-150686233D03*
%TD*%
D51*
%TO.C,C77*%
X262406230Y-51832559D03*
X261504126Y-52160899D03*
%TD*%
D63*
%TO.C,R7*%
X176324938Y-40785013D03*
X176324938Y-41805013D03*
%TD*%
D89*
%TO.C,D64*%
X170249791Y-27695004D03*
X170249791Y-30995004D03*
%TD*%
D19*
%TO.C,D51*%
X264396301Y-41160806D03*
X265524967Y-44261792D03*
%TD*%
D18*
%TO.C,SW36*%
X212248483Y-61575068D03*
X223527158Y-54766955D03*
%TD*%
D38*
%TO.C,D79*%
X65907955Y-67233821D03*
X65429127Y-68549390D03*
X71076265Y-69114932D03*
%TD*%
D18*
%TO.C,SW39*%
X231794941Y-115278491D03*
X243073616Y-108470378D03*
%TD*%
%TO.C,SW32*%
X201948739Y-88975208D03*
X213227414Y-82167095D03*
%TD*%
D22*
%TO.C,D12*%
X84613302Y-55458845D03*
X83484636Y-58559831D03*
%TD*%
D90*
%TO.C,C25*%
X180922385Y-149963833D03*
X181753769Y-149483833D03*
%TD*%
D19*
%TO.C,D45*%
X242721853Y-130140019D03*
X243850519Y-133241005D03*
%TD*%
%TO.C,D44*%
X245154196Y-99690503D03*
X246282862Y-102791489D03*
%TD*%
D22*
%TO.C,D15*%
X65066874Y-109162259D03*
X63938208Y-112263245D03*
%TD*%
%TO.C,D13*%
X78097819Y-73359973D03*
X76969153Y-76460959D03*
%TD*%
D33*
%TO.C,D121*%
X260025390Y-52688467D03*
X259546562Y-51372898D03*
X254857080Y-54569578D03*
%TD*%
D22*
%TO.C,D20*%
X93273235Y-124496695D03*
X92144569Y-127597681D03*
%TD*%
D89*
%TO.C,D66*%
X165250000Y-27594998D03*
X165250000Y-30894998D03*
%TD*%
D44*
%TO.C,C27*%
X156260003Y-125165001D03*
X156260003Y-126125001D03*
%TD*%
D35*
%TO.C,D88*%
X115901476Y-57355631D03*
X116380304Y-56040062D03*
X110733166Y-55474520D03*
%TD*%
D33*
%TO.C,D118*%
X253797823Y-91276833D03*
X253318995Y-89961264D03*
X248629513Y-93157944D03*
%TD*%
M02*
