%TF.GenerationSoftware,KiCad,Pcbnew,(7.0.0)*%
%TF.CreationDate,2023-03-12T13:42:32+00:00*%
%TF.ProjectId,Honeydew,486f6e65-7964-4657-972e-6b696361645f,rev?*%
%TF.SameCoordinates,Original*%
%TF.FileFunction,Legend,Top*%
%TF.FilePolarity,Positive*%
%FSLAX46Y46*%
G04 Gerber Fmt 4.6, Leading zero omitted, Abs format (unit mm)*
G04 Created by KiCad (PCBNEW (7.0.0)) date 2023-03-12 13:42:32*
%MOMM*%
%LPD*%
G01*
G04 APERTURE LIST*
G04 Aperture macros list*
%AMRoundRect*
0 Rectangle with rounded corners*
0 $1 Rounding radius*
0 $2 $3 $4 $5 $6 $7 $8 $9 X,Y pos of 4 corners*
0 Add a 4 corners polygon primitive as box body*
4,1,4,$2,$3,$4,$5,$6,$7,$8,$9,$2,$3,0*
0 Add four circle primitives for the rounded corners*
1,1,$1+$1,$2,$3*
1,1,$1+$1,$4,$5*
1,1,$1+$1,$6,$7*
1,1,$1+$1,$8,$9*
0 Add four rect primitives between the rounded corners*
20,1,$1+$1,$2,$3,$4,$5,0*
20,1,$1+$1,$4,$5,$6,$7,0*
20,1,$1+$1,$6,$7,$8,$9,0*
20,1,$1+$1,$8,$9,$2,$3,0*%
G04 Aperture macros list end*
%ADD10C,0.150000*%
%ADD11C,0.300000*%
%ADD12C,0.120000*%
%ADD13C,0.100000*%
%ADD14C,2.000000*%
%ADD15R,2.500000X6.000000*%
%ADD16C,3.500000*%
%ADD17C,5.600000*%
%ADD18C,1.152000*%
%ADD19C,0.650000*%
%ADD20R,0.600000X1.450000*%
%ADD21R,0.300000X1.450000*%
%ADD22O,1.000000X2.100000*%
%ADD23O,1.000000X1.600000*%
%ADD24R,1.700000X1.700000*%
%ADD25O,1.700000X1.700000*%
%ADD26C,4.000000*%
%ADD27RoundRect,0.250000X0.625000X-0.350000X0.625000X0.350000X-0.625000X0.350000X-0.625000X-0.350000X0*%
%ADD28O,1.750000X1.200000*%
%ADD29C,1.750000*%
%ADD30C,3.000000*%
%ADD31C,3.987800*%
%ADD32R,1.200000X1.200000*%
%ADD33C,1.200000*%
G04 APERTURE END LIST*
D10*
X152238099Y-51768631D02*
X152238099Y-50768631D01*
X152238099Y-50768631D02*
X152476194Y-50768631D01*
X152476194Y-50768631D02*
X152619051Y-50816251D01*
X152619051Y-50816251D02*
X152714289Y-50911489D01*
X152714289Y-50911489D02*
X152761908Y-51006727D01*
X152761908Y-51006727D02*
X152809527Y-51197203D01*
X152809527Y-51197203D02*
X152809527Y-51340060D01*
X152809527Y-51340060D02*
X152761908Y-51530536D01*
X152761908Y-51530536D02*
X152714289Y-51625774D01*
X152714289Y-51625774D02*
X152619051Y-51721012D01*
X152619051Y-51721012D02*
X152476194Y-51768631D01*
X152476194Y-51768631D02*
X152238099Y-51768631D01*
X153809527Y-51673393D02*
X153761908Y-51721012D01*
X153761908Y-51721012D02*
X153619051Y-51768631D01*
X153619051Y-51768631D02*
X153523813Y-51768631D01*
X153523813Y-51768631D02*
X153380956Y-51721012D01*
X153380956Y-51721012D02*
X153285718Y-51625774D01*
X153285718Y-51625774D02*
X153238099Y-51530536D01*
X153238099Y-51530536D02*
X153190480Y-51340060D01*
X153190480Y-51340060D02*
X153190480Y-51197203D01*
X153190480Y-51197203D02*
X153238099Y-51006727D01*
X153238099Y-51006727D02*
X153285718Y-50911489D01*
X153285718Y-50911489D02*
X153380956Y-50816251D01*
X153380956Y-50816251D02*
X153523813Y-50768631D01*
X153523813Y-50768631D02*
X153619051Y-50768631D01*
X153619051Y-50768631D02*
X153761908Y-50816251D01*
X153761908Y-50816251D02*
X153809527Y-50863870D01*
X151328581Y-45768630D02*
X151328581Y-44768630D01*
X151328581Y-44768630D02*
X151661914Y-45482916D01*
X151661914Y-45482916D02*
X151995247Y-44768630D01*
X151995247Y-44768630D02*
X151995247Y-45768630D01*
X152661914Y-44768630D02*
X152852390Y-44768630D01*
X152852390Y-44768630D02*
X152947628Y-44816250D01*
X152947628Y-44816250D02*
X153042866Y-44911488D01*
X153042866Y-44911488D02*
X153090485Y-45101964D01*
X153090485Y-45101964D02*
X153090485Y-45435297D01*
X153090485Y-45435297D02*
X153042866Y-45625773D01*
X153042866Y-45625773D02*
X152947628Y-45721011D01*
X152947628Y-45721011D02*
X152852390Y-45768630D01*
X152852390Y-45768630D02*
X152661914Y-45768630D01*
X152661914Y-45768630D02*
X152566676Y-45721011D01*
X152566676Y-45721011D02*
X152471438Y-45625773D01*
X152471438Y-45625773D02*
X152423819Y-45435297D01*
X152423819Y-45435297D02*
X152423819Y-45101964D01*
X152423819Y-45101964D02*
X152471438Y-44911488D01*
X152471438Y-44911488D02*
X152566676Y-44816250D01*
X152566676Y-44816250D02*
X152661914Y-44768630D01*
X153471438Y-45721011D02*
X153614295Y-45768630D01*
X153614295Y-45768630D02*
X153852390Y-45768630D01*
X153852390Y-45768630D02*
X153947628Y-45721011D01*
X153947628Y-45721011D02*
X153995247Y-45673392D01*
X153995247Y-45673392D02*
X154042866Y-45578154D01*
X154042866Y-45578154D02*
X154042866Y-45482916D01*
X154042866Y-45482916D02*
X153995247Y-45387678D01*
X153995247Y-45387678D02*
X153947628Y-45340059D01*
X153947628Y-45340059D02*
X153852390Y-45292440D01*
X153852390Y-45292440D02*
X153661914Y-45244821D01*
X153661914Y-45244821D02*
X153566676Y-45197202D01*
X153566676Y-45197202D02*
X153519057Y-45149583D01*
X153519057Y-45149583D02*
X153471438Y-45054345D01*
X153471438Y-45054345D02*
X153471438Y-44959107D01*
X153471438Y-44959107D02*
X153519057Y-44863869D01*
X153519057Y-44863869D02*
X153566676Y-44816250D01*
X153566676Y-44816250D02*
X153661914Y-44768630D01*
X153661914Y-44768630D02*
X153900009Y-44768630D01*
X153900009Y-44768630D02*
X154042866Y-44816250D01*
X154471438Y-45768630D02*
X154471438Y-44768630D01*
X178547619Y-64168006D02*
X178738095Y-64168006D01*
X178738095Y-64168006D02*
X178833333Y-64215626D01*
X178833333Y-64215626D02*
X178928571Y-64310864D01*
X178928571Y-64310864D02*
X178976190Y-64501340D01*
X178976190Y-64501340D02*
X178976190Y-64834673D01*
X178976190Y-64834673D02*
X178928571Y-65025149D01*
X178928571Y-65025149D02*
X178833333Y-65120387D01*
X178833333Y-65120387D02*
X178738095Y-65168006D01*
X178738095Y-65168006D02*
X178547619Y-65168006D01*
X178547619Y-65168006D02*
X178452381Y-65120387D01*
X178452381Y-65120387D02*
X178357143Y-65025149D01*
X178357143Y-65025149D02*
X178309524Y-64834673D01*
X178309524Y-64834673D02*
X178309524Y-64501340D01*
X178309524Y-64501340D02*
X178357143Y-64310864D01*
X178357143Y-64310864D02*
X178452381Y-64215626D01*
X178452381Y-64215626D02*
X178547619Y-64168006D01*
X179880952Y-65168006D02*
X179404762Y-65168006D01*
X179404762Y-65168006D02*
X179404762Y-64168006D01*
X180214286Y-64644197D02*
X180547619Y-64644197D01*
X180690476Y-65168006D02*
X180214286Y-65168006D01*
X180214286Y-65168006D02*
X180214286Y-64168006D01*
X180214286Y-64168006D02*
X180690476Y-64168006D01*
X181119048Y-65168006D02*
X181119048Y-64168006D01*
X181119048Y-64168006D02*
X181357143Y-64168006D01*
X181357143Y-64168006D02*
X181500000Y-64215626D01*
X181500000Y-64215626D02*
X181595238Y-64310864D01*
X181595238Y-64310864D02*
X181642857Y-64406102D01*
X181642857Y-64406102D02*
X181690476Y-64596578D01*
X181690476Y-64596578D02*
X181690476Y-64739435D01*
X181690476Y-64739435D02*
X181642857Y-64929911D01*
X181642857Y-64929911D02*
X181595238Y-65025149D01*
X181595238Y-65025149D02*
X181500000Y-65120387D01*
X181500000Y-65120387D02*
X181357143Y-65168006D01*
X181357143Y-65168006D02*
X181119048Y-65168006D01*
X152452384Y-53768629D02*
X152119051Y-53292439D01*
X151880956Y-53768629D02*
X151880956Y-52768629D01*
X151880956Y-52768629D02*
X152261908Y-52768629D01*
X152261908Y-52768629D02*
X152357146Y-52816249D01*
X152357146Y-52816249D02*
X152404765Y-52863868D01*
X152404765Y-52863868D02*
X152452384Y-52959106D01*
X152452384Y-52959106D02*
X152452384Y-53101963D01*
X152452384Y-53101963D02*
X152404765Y-53197201D01*
X152404765Y-53197201D02*
X152357146Y-53244820D01*
X152357146Y-53244820D02*
X152261908Y-53292439D01*
X152261908Y-53292439D02*
X151880956Y-53292439D01*
X152833337Y-53721010D02*
X152976194Y-53768629D01*
X152976194Y-53768629D02*
X153214289Y-53768629D01*
X153214289Y-53768629D02*
X153309527Y-53721010D01*
X153309527Y-53721010D02*
X153357146Y-53673391D01*
X153357146Y-53673391D02*
X153404765Y-53578153D01*
X153404765Y-53578153D02*
X153404765Y-53482915D01*
X153404765Y-53482915D02*
X153357146Y-53387677D01*
X153357146Y-53387677D02*
X153309527Y-53340058D01*
X153309527Y-53340058D02*
X153214289Y-53292439D01*
X153214289Y-53292439D02*
X153023813Y-53244820D01*
X153023813Y-53244820D02*
X152928575Y-53197201D01*
X152928575Y-53197201D02*
X152880956Y-53149582D01*
X152880956Y-53149582D02*
X152833337Y-53054344D01*
X152833337Y-53054344D02*
X152833337Y-52959106D01*
X152833337Y-52959106D02*
X152880956Y-52863868D01*
X152880956Y-52863868D02*
X152928575Y-52816249D01*
X152928575Y-52816249D02*
X153023813Y-52768629D01*
X153023813Y-52768629D02*
X153261908Y-52768629D01*
X153261908Y-52768629D02*
X153404765Y-52816249D01*
X153690480Y-52768629D02*
X154261908Y-52768629D01*
X153976194Y-53768629D02*
X153976194Y-52768629D01*
X152138101Y-42811253D02*
X152042863Y-42763633D01*
X152042863Y-42763633D02*
X151900006Y-42763633D01*
X151900006Y-42763633D02*
X151757149Y-42811253D01*
X151757149Y-42811253D02*
X151661911Y-42906491D01*
X151661911Y-42906491D02*
X151614292Y-43001729D01*
X151614292Y-43001729D02*
X151566673Y-43192205D01*
X151566673Y-43192205D02*
X151566673Y-43335062D01*
X151566673Y-43335062D02*
X151614292Y-43525538D01*
X151614292Y-43525538D02*
X151661911Y-43620776D01*
X151661911Y-43620776D02*
X151757149Y-43716014D01*
X151757149Y-43716014D02*
X151900006Y-43763633D01*
X151900006Y-43763633D02*
X151995244Y-43763633D01*
X151995244Y-43763633D02*
X152138101Y-43716014D01*
X152138101Y-43716014D02*
X152185720Y-43668395D01*
X152185720Y-43668395D02*
X152185720Y-43335062D01*
X152185720Y-43335062D02*
X151995244Y-43335062D01*
X152614292Y-43763633D02*
X152614292Y-42763633D01*
X152614292Y-42763633D02*
X153185720Y-43763633D01*
X153185720Y-43763633D02*
X153185720Y-42763633D01*
X153661911Y-43763633D02*
X153661911Y-42763633D01*
X153661911Y-42763633D02*
X153900006Y-42763633D01*
X153900006Y-42763633D02*
X154042863Y-42811253D01*
X154042863Y-42811253D02*
X154138101Y-42906491D01*
X154138101Y-42906491D02*
X154185720Y-43001729D01*
X154185720Y-43001729D02*
X154233339Y-43192205D01*
X154233339Y-43192205D02*
X154233339Y-43335062D01*
X154233339Y-43335062D02*
X154185720Y-43525538D01*
X154185720Y-43525538D02*
X154138101Y-43620776D01*
X154138101Y-43620776D02*
X154042863Y-43716014D01*
X154042863Y-43716014D02*
X153900006Y-43763633D01*
X153900006Y-43763633D02*
X153661911Y-43763633D01*
X151614294Y-47720385D02*
X151757151Y-47768004D01*
X151757151Y-47768004D02*
X151995246Y-47768004D01*
X151995246Y-47768004D02*
X152090484Y-47720385D01*
X152090484Y-47720385D02*
X152138103Y-47672766D01*
X152138103Y-47672766D02*
X152185722Y-47577528D01*
X152185722Y-47577528D02*
X152185722Y-47482290D01*
X152185722Y-47482290D02*
X152138103Y-47387052D01*
X152138103Y-47387052D02*
X152090484Y-47339433D01*
X152090484Y-47339433D02*
X151995246Y-47291814D01*
X151995246Y-47291814D02*
X151804770Y-47244195D01*
X151804770Y-47244195D02*
X151709532Y-47196576D01*
X151709532Y-47196576D02*
X151661913Y-47148957D01*
X151661913Y-47148957D02*
X151614294Y-47053719D01*
X151614294Y-47053719D02*
X151614294Y-46958481D01*
X151614294Y-46958481D02*
X151661913Y-46863243D01*
X151661913Y-46863243D02*
X151709532Y-46815624D01*
X151709532Y-46815624D02*
X151804770Y-46768004D01*
X151804770Y-46768004D02*
X152042865Y-46768004D01*
X152042865Y-46768004D02*
X152185722Y-46815624D01*
X153185722Y-47672766D02*
X153138103Y-47720385D01*
X153138103Y-47720385D02*
X152995246Y-47768004D01*
X152995246Y-47768004D02*
X152900008Y-47768004D01*
X152900008Y-47768004D02*
X152757151Y-47720385D01*
X152757151Y-47720385D02*
X152661913Y-47625147D01*
X152661913Y-47625147D02*
X152614294Y-47529909D01*
X152614294Y-47529909D02*
X152566675Y-47339433D01*
X152566675Y-47339433D02*
X152566675Y-47196576D01*
X152566675Y-47196576D02*
X152614294Y-47006100D01*
X152614294Y-47006100D02*
X152661913Y-46910862D01*
X152661913Y-46910862D02*
X152757151Y-46815624D01*
X152757151Y-46815624D02*
X152900008Y-46768004D01*
X152900008Y-46768004D02*
X152995246Y-46768004D01*
X152995246Y-46768004D02*
X153138103Y-46815624D01*
X153138103Y-46815624D02*
X153185722Y-46863243D01*
X153614294Y-47768004D02*
X153614294Y-46768004D01*
X154185722Y-47768004D02*
X153757151Y-47196576D01*
X154185722Y-46768004D02*
X153614294Y-47339433D01*
X178284307Y-72512532D02*
X178236687Y-72607770D01*
X178236687Y-72607770D02*
X178236687Y-72750627D01*
X178236687Y-72750627D02*
X178284307Y-72893484D01*
X178284307Y-72893484D02*
X178379545Y-72988722D01*
X178379545Y-72988722D02*
X178474783Y-73036341D01*
X178474783Y-73036341D02*
X178665259Y-73083960D01*
X178665259Y-73083960D02*
X178808116Y-73083960D01*
X178808116Y-73083960D02*
X178998592Y-73036341D01*
X178998592Y-73036341D02*
X179093830Y-72988722D01*
X179093830Y-72988722D02*
X179189068Y-72893484D01*
X179189068Y-72893484D02*
X179236687Y-72750627D01*
X179236687Y-72750627D02*
X179236687Y-72655389D01*
X179236687Y-72655389D02*
X179189068Y-72512532D01*
X179189068Y-72512532D02*
X179141449Y-72464913D01*
X179141449Y-72464913D02*
X178808116Y-72464913D01*
X178808116Y-72464913D02*
X178808116Y-72655389D01*
X179236687Y-72036341D02*
X178236687Y-72036341D01*
X178236687Y-72036341D02*
X179236687Y-71464913D01*
X179236687Y-71464913D02*
X178236687Y-71464913D01*
X179236687Y-70988722D02*
X178236687Y-70988722D01*
X178236687Y-70988722D02*
X178236687Y-70750627D01*
X178236687Y-70750627D02*
X178284307Y-70607770D01*
X178284307Y-70607770D02*
X178379545Y-70512532D01*
X178379545Y-70512532D02*
X178474783Y-70464913D01*
X178474783Y-70464913D02*
X178665259Y-70417294D01*
X178665259Y-70417294D02*
X178808116Y-70417294D01*
X178808116Y-70417294D02*
X178998592Y-70464913D01*
X178998592Y-70464913D02*
X179093830Y-70512532D01*
X179093830Y-70512532D02*
X179189068Y-70607770D01*
X179189068Y-70607770D02*
X179236687Y-70750627D01*
X179236687Y-70750627D02*
X179236687Y-70988722D01*
X181671446Y-72345866D02*
X181719065Y-72393485D01*
X181719065Y-72393485D02*
X181766684Y-72536342D01*
X181766684Y-72536342D02*
X181766684Y-72631580D01*
X181766684Y-72631580D02*
X181719065Y-72774437D01*
X181719065Y-72774437D02*
X181623827Y-72869675D01*
X181623827Y-72869675D02*
X181528589Y-72917294D01*
X181528589Y-72917294D02*
X181338113Y-72964913D01*
X181338113Y-72964913D02*
X181195256Y-72964913D01*
X181195256Y-72964913D02*
X181004780Y-72917294D01*
X181004780Y-72917294D02*
X180909542Y-72869675D01*
X180909542Y-72869675D02*
X180814304Y-72774437D01*
X180814304Y-72774437D02*
X180766684Y-72631580D01*
X180766684Y-72631580D02*
X180766684Y-72536342D01*
X180766684Y-72536342D02*
X180814304Y-72393485D01*
X180814304Y-72393485D02*
X180861923Y-72345866D01*
X181766684Y-71441104D02*
X181766684Y-71917294D01*
X181766684Y-71917294D02*
X180766684Y-71917294D01*
X181766684Y-71107770D02*
X180766684Y-71107770D01*
X181766684Y-70536342D02*
X181195256Y-70964913D01*
X180766684Y-70536342D02*
X181338113Y-71107770D01*
X176579067Y-73107775D02*
X176626686Y-72964918D01*
X176626686Y-72964918D02*
X176626686Y-72726823D01*
X176626686Y-72726823D02*
X176579067Y-72631585D01*
X176579067Y-72631585D02*
X176531448Y-72583966D01*
X176531448Y-72583966D02*
X176436210Y-72536347D01*
X176436210Y-72536347D02*
X176340972Y-72536347D01*
X176340972Y-72536347D02*
X176245734Y-72583966D01*
X176245734Y-72583966D02*
X176198115Y-72631585D01*
X176198115Y-72631585D02*
X176150496Y-72726823D01*
X176150496Y-72726823D02*
X176102877Y-72917299D01*
X176102877Y-72917299D02*
X176055258Y-73012537D01*
X176055258Y-73012537D02*
X176007639Y-73060156D01*
X176007639Y-73060156D02*
X175912401Y-73107775D01*
X175912401Y-73107775D02*
X175817163Y-73107775D01*
X175817163Y-73107775D02*
X175721925Y-73060156D01*
X175721925Y-73060156D02*
X175674306Y-73012537D01*
X175674306Y-73012537D02*
X175626686Y-72917299D01*
X175626686Y-72917299D02*
X175626686Y-72679204D01*
X175626686Y-72679204D02*
X175674306Y-72536347D01*
X175626686Y-72203013D02*
X176626686Y-71964918D01*
X176626686Y-71964918D02*
X175912401Y-71774442D01*
X175912401Y-71774442D02*
X176626686Y-71583966D01*
X176626686Y-71583966D02*
X175626686Y-71345871D01*
X176626686Y-70964918D02*
X175626686Y-70964918D01*
X175626686Y-70964918D02*
X175626686Y-70726823D01*
X175626686Y-70726823D02*
X175674306Y-70583966D01*
X175674306Y-70583966D02*
X175769544Y-70488728D01*
X175769544Y-70488728D02*
X175864782Y-70441109D01*
X175864782Y-70441109D02*
X176055258Y-70393490D01*
X176055258Y-70393490D02*
X176198115Y-70393490D01*
X176198115Y-70393490D02*
X176388591Y-70441109D01*
X176388591Y-70441109D02*
X176483829Y-70488728D01*
X176483829Y-70488728D02*
X176579067Y-70583966D01*
X176579067Y-70583966D02*
X176626686Y-70726823D01*
X176626686Y-70726823D02*
X176626686Y-70964918D01*
X183336685Y-72988718D02*
X183336685Y-72369671D01*
X183336685Y-72369671D02*
X183717638Y-72703004D01*
X183717638Y-72703004D02*
X183717638Y-72560147D01*
X183717638Y-72560147D02*
X183765257Y-72464909D01*
X183765257Y-72464909D02*
X183812876Y-72417290D01*
X183812876Y-72417290D02*
X183908114Y-72369671D01*
X183908114Y-72369671D02*
X184146209Y-72369671D01*
X184146209Y-72369671D02*
X184241447Y-72417290D01*
X184241447Y-72417290D02*
X184289066Y-72464909D01*
X184289066Y-72464909D02*
X184336685Y-72560147D01*
X184336685Y-72560147D02*
X184336685Y-72845861D01*
X184336685Y-72845861D02*
X184289066Y-72941099D01*
X184289066Y-72941099D02*
X184241447Y-72988718D01*
X183336685Y-72083956D02*
X184336685Y-71750623D01*
X184336685Y-71750623D02*
X183336685Y-71417290D01*
X183336685Y-71179194D02*
X183336685Y-70560147D01*
X183336685Y-70560147D02*
X183717638Y-70893480D01*
X183717638Y-70893480D02*
X183717638Y-70750623D01*
X183717638Y-70750623D02*
X183765257Y-70655385D01*
X183765257Y-70655385D02*
X183812876Y-70607766D01*
X183812876Y-70607766D02*
X183908114Y-70560147D01*
X183908114Y-70560147D02*
X184146209Y-70560147D01*
X184146209Y-70560147D02*
X184241447Y-70607766D01*
X184241447Y-70607766D02*
X184289066Y-70655385D01*
X184289066Y-70655385D02*
X184336685Y-70750623D01*
X184336685Y-70750623D02*
X184336685Y-71036337D01*
X184336685Y-71036337D02*
X184289066Y-71131575D01*
X184289066Y-71131575D02*
X184241447Y-71179194D01*
X177261908Y-167044203D02*
X177595241Y-167044203D01*
X177738098Y-167568012D02*
X177261908Y-167568012D01*
X177261908Y-167568012D02*
X177261908Y-166568012D01*
X177261908Y-166568012D02*
X177738098Y-166568012D01*
X178166670Y-166901346D02*
X178166670Y-167568012D01*
X178166670Y-166996584D02*
X178214289Y-166948965D01*
X178214289Y-166948965D02*
X178309527Y-166901346D01*
X178309527Y-166901346D02*
X178452384Y-166901346D01*
X178452384Y-166901346D02*
X178547622Y-166948965D01*
X178547622Y-166948965D02*
X178595241Y-167044203D01*
X178595241Y-167044203D02*
X178595241Y-167568012D01*
X179500003Y-167520393D02*
X179404765Y-167568012D01*
X179404765Y-167568012D02*
X179214289Y-167568012D01*
X179214289Y-167568012D02*
X179119051Y-167520393D01*
X179119051Y-167520393D02*
X179071432Y-167472774D01*
X179071432Y-167472774D02*
X179023813Y-167377536D01*
X179023813Y-167377536D02*
X179023813Y-167091822D01*
X179023813Y-167091822D02*
X179071432Y-166996584D01*
X179071432Y-166996584D02*
X179119051Y-166948965D01*
X179119051Y-166948965D02*
X179214289Y-166901346D01*
X179214289Y-166901346D02*
X179404765Y-166901346D01*
X179404765Y-166901346D02*
X179500003Y-166948965D01*
X180071432Y-167568012D02*
X179976194Y-167520393D01*
X179976194Y-167520393D02*
X179928575Y-167472774D01*
X179928575Y-167472774D02*
X179880956Y-167377536D01*
X179880956Y-167377536D02*
X179880956Y-167091822D01*
X179880956Y-167091822D02*
X179928575Y-166996584D01*
X179928575Y-166996584D02*
X179976194Y-166948965D01*
X179976194Y-166948965D02*
X180071432Y-166901346D01*
X180071432Y-166901346D02*
X180214289Y-166901346D01*
X180214289Y-166901346D02*
X180309527Y-166948965D01*
X180309527Y-166948965D02*
X180357146Y-166996584D01*
X180357146Y-166996584D02*
X180404765Y-167091822D01*
X180404765Y-167091822D02*
X180404765Y-167377536D01*
X180404765Y-167377536D02*
X180357146Y-167472774D01*
X180357146Y-167472774D02*
X180309527Y-167520393D01*
X180309527Y-167520393D02*
X180214289Y-167568012D01*
X180214289Y-167568012D02*
X180071432Y-167568012D01*
X181261908Y-167568012D02*
X181261908Y-166568012D01*
X181261908Y-167520393D02*
X181166670Y-167568012D01*
X181166670Y-167568012D02*
X180976194Y-167568012D01*
X180976194Y-167568012D02*
X180880956Y-167520393D01*
X180880956Y-167520393D02*
X180833337Y-167472774D01*
X180833337Y-167472774D02*
X180785718Y-167377536D01*
X180785718Y-167377536D02*
X180785718Y-167091822D01*
X180785718Y-167091822D02*
X180833337Y-166996584D01*
X180833337Y-166996584D02*
X180880956Y-166948965D01*
X180880956Y-166948965D02*
X180976194Y-166901346D01*
X180976194Y-166901346D02*
X181166670Y-166901346D01*
X181166670Y-166901346D02*
X181261908Y-166948965D01*
X182119051Y-167520393D02*
X182023813Y-167568012D01*
X182023813Y-167568012D02*
X181833337Y-167568012D01*
X181833337Y-167568012D02*
X181738099Y-167520393D01*
X181738099Y-167520393D02*
X181690480Y-167425155D01*
X181690480Y-167425155D02*
X181690480Y-167044203D01*
X181690480Y-167044203D02*
X181738099Y-166948965D01*
X181738099Y-166948965D02*
X181833337Y-166901346D01*
X181833337Y-166901346D02*
X182023813Y-166901346D01*
X182023813Y-166901346D02*
X182119051Y-166948965D01*
X182119051Y-166948965D02*
X182166670Y-167044203D01*
X182166670Y-167044203D02*
X182166670Y-167139441D01*
X182166670Y-167139441D02*
X181690480Y-167234679D01*
X182595242Y-167568012D02*
X182595242Y-166901346D01*
X182595242Y-167091822D02*
X182642861Y-166996584D01*
X182642861Y-166996584D02*
X182690480Y-166948965D01*
X182690480Y-166948965D02*
X182785718Y-166901346D01*
X182785718Y-166901346D02*
X182880956Y-166901346D01*
D11*
X170187685Y-123514281D02*
X170187685Y-121514281D01*
X170187685Y-122466662D02*
X171330542Y-122466662D01*
X171330542Y-123514281D02*
X171330542Y-121514281D01*
X172568637Y-123514281D02*
X172378161Y-123419043D01*
X172378161Y-123419043D02*
X172282923Y-123323805D01*
X172282923Y-123323805D02*
X172187685Y-123133329D01*
X172187685Y-123133329D02*
X172187685Y-122561900D01*
X172187685Y-122561900D02*
X172282923Y-122371424D01*
X172282923Y-122371424D02*
X172378161Y-122276186D01*
X172378161Y-122276186D02*
X172568637Y-122180948D01*
X172568637Y-122180948D02*
X172854352Y-122180948D01*
X172854352Y-122180948D02*
X173044828Y-122276186D01*
X173044828Y-122276186D02*
X173140066Y-122371424D01*
X173140066Y-122371424D02*
X173235304Y-122561900D01*
X173235304Y-122561900D02*
X173235304Y-123133329D01*
X173235304Y-123133329D02*
X173140066Y-123323805D01*
X173140066Y-123323805D02*
X173044828Y-123419043D01*
X173044828Y-123419043D02*
X172854352Y-123514281D01*
X172854352Y-123514281D02*
X172568637Y-123514281D01*
X174092447Y-122180948D02*
X174092447Y-123514281D01*
X174092447Y-122371424D02*
X174187685Y-122276186D01*
X174187685Y-122276186D02*
X174378161Y-122180948D01*
X174378161Y-122180948D02*
X174663876Y-122180948D01*
X174663876Y-122180948D02*
X174854352Y-122276186D01*
X174854352Y-122276186D02*
X174949590Y-122466662D01*
X174949590Y-122466662D02*
X174949590Y-123514281D01*
X176663876Y-123419043D02*
X176473400Y-123514281D01*
X176473400Y-123514281D02*
X176092447Y-123514281D01*
X176092447Y-123514281D02*
X175901971Y-123419043D01*
X175901971Y-123419043D02*
X175806733Y-123228567D01*
X175806733Y-123228567D02*
X175806733Y-122466662D01*
X175806733Y-122466662D02*
X175901971Y-122276186D01*
X175901971Y-122276186D02*
X176092447Y-122180948D01*
X176092447Y-122180948D02*
X176473400Y-122180948D01*
X176473400Y-122180948D02*
X176663876Y-122276186D01*
X176663876Y-122276186D02*
X176759114Y-122466662D01*
X176759114Y-122466662D02*
X176759114Y-122657139D01*
X176759114Y-122657139D02*
X175806733Y-122847615D01*
X177425781Y-122180948D02*
X177901971Y-123514281D01*
X178378162Y-122180948D02*
X177901971Y-123514281D01*
X177901971Y-123514281D02*
X177711495Y-123990472D01*
X177711495Y-123990472D02*
X177616257Y-124085710D01*
X177616257Y-124085710D02*
X177425781Y-124180948D01*
X179997210Y-123514281D02*
X179997210Y-121514281D01*
X179997210Y-123419043D02*
X179806734Y-123514281D01*
X179806734Y-123514281D02*
X179425781Y-123514281D01*
X179425781Y-123514281D02*
X179235305Y-123419043D01*
X179235305Y-123419043D02*
X179140067Y-123323805D01*
X179140067Y-123323805D02*
X179044829Y-123133329D01*
X179044829Y-123133329D02*
X179044829Y-122561900D01*
X179044829Y-122561900D02*
X179140067Y-122371424D01*
X179140067Y-122371424D02*
X179235305Y-122276186D01*
X179235305Y-122276186D02*
X179425781Y-122180948D01*
X179425781Y-122180948D02*
X179806734Y-122180948D01*
X179806734Y-122180948D02*
X179997210Y-122276186D01*
X181711496Y-123419043D02*
X181521020Y-123514281D01*
X181521020Y-123514281D02*
X181140067Y-123514281D01*
X181140067Y-123514281D02*
X180949591Y-123419043D01*
X180949591Y-123419043D02*
X180854353Y-123228567D01*
X180854353Y-123228567D02*
X180854353Y-122466662D01*
X180854353Y-122466662D02*
X180949591Y-122276186D01*
X180949591Y-122276186D02*
X181140067Y-122180948D01*
X181140067Y-122180948D02*
X181521020Y-122180948D01*
X181521020Y-122180948D02*
X181711496Y-122276186D01*
X181711496Y-122276186D02*
X181806734Y-122466662D01*
X181806734Y-122466662D02*
X181806734Y-122657139D01*
X181806734Y-122657139D02*
X180854353Y-122847615D01*
X182473401Y-122180948D02*
X182854353Y-123514281D01*
X182854353Y-123514281D02*
X183235306Y-122561900D01*
X183235306Y-122561900D02*
X183616258Y-123514281D01*
X183616258Y-123514281D02*
X183997210Y-122180948D01*
X185673401Y-121514281D02*
X186340067Y-123514281D01*
X186340067Y-123514281D02*
X187006734Y-121514281D01*
X188721020Y-123514281D02*
X187578163Y-123514281D01*
X188149591Y-123514281D02*
X188149591Y-121514281D01*
X188149591Y-121514281D02*
X187959115Y-121799996D01*
X187959115Y-121799996D02*
X187768639Y-121990472D01*
X187768639Y-121990472D02*
X187578163Y-122085710D01*
X189578163Y-123323805D02*
X189673401Y-123419043D01*
X189673401Y-123419043D02*
X189578163Y-123514281D01*
X189578163Y-123514281D02*
X189482925Y-123419043D01*
X189482925Y-123419043D02*
X189578163Y-123323805D01*
X189578163Y-123323805D02*
X189578163Y-123514281D01*
X190911496Y-121514281D02*
X191101973Y-121514281D01*
X191101973Y-121514281D02*
X191292449Y-121609520D01*
X191292449Y-121609520D02*
X191387687Y-121704758D01*
X191387687Y-121704758D02*
X191482925Y-121895234D01*
X191482925Y-121895234D02*
X191578163Y-122276186D01*
X191578163Y-122276186D02*
X191578163Y-122752377D01*
X191578163Y-122752377D02*
X191482925Y-123133329D01*
X191482925Y-123133329D02*
X191387687Y-123323805D01*
X191387687Y-123323805D02*
X191292449Y-123419043D01*
X191292449Y-123419043D02*
X191101973Y-123514281D01*
X191101973Y-123514281D02*
X190911496Y-123514281D01*
X190911496Y-123514281D02*
X190721020Y-123419043D01*
X190721020Y-123419043D02*
X190625782Y-123323805D01*
X190625782Y-123323805D02*
X190530544Y-123133329D01*
X190530544Y-123133329D02*
X190435306Y-122752377D01*
X190435306Y-122752377D02*
X190435306Y-122276186D01*
X190435306Y-122276186D02*
X190530544Y-121895234D01*
X190530544Y-121895234D02*
X190625782Y-121704758D01*
X190625782Y-121704758D02*
X190721020Y-121609520D01*
X190721020Y-121609520D02*
X190911496Y-121514281D01*
D10*
X176690481Y-126568010D02*
X177261909Y-126568010D01*
X176976195Y-127568010D02*
X176976195Y-126568010D01*
X177595243Y-127568010D02*
X177595243Y-126901344D01*
X177595243Y-127091820D02*
X177642862Y-126996582D01*
X177642862Y-126996582D02*
X177690481Y-126948963D01*
X177690481Y-126948963D02*
X177785719Y-126901344D01*
X177785719Y-126901344D02*
X177880957Y-126901344D01*
X178642862Y-127568010D02*
X178642862Y-127044201D01*
X178642862Y-127044201D02*
X178595243Y-126948963D01*
X178595243Y-126948963D02*
X178500005Y-126901344D01*
X178500005Y-126901344D02*
X178309529Y-126901344D01*
X178309529Y-126901344D02*
X178214291Y-126948963D01*
X178642862Y-127520391D02*
X178547624Y-127568010D01*
X178547624Y-127568010D02*
X178309529Y-127568010D01*
X178309529Y-127568010D02*
X178214291Y-127520391D01*
X178214291Y-127520391D02*
X178166672Y-127425153D01*
X178166672Y-127425153D02*
X178166672Y-127329915D01*
X178166672Y-127329915D02*
X178214291Y-127234677D01*
X178214291Y-127234677D02*
X178309529Y-127187058D01*
X178309529Y-127187058D02*
X178547624Y-127187058D01*
X178547624Y-127187058D02*
X178642862Y-127139439D01*
X179547624Y-127520391D02*
X179452386Y-127568010D01*
X179452386Y-127568010D02*
X179261910Y-127568010D01*
X179261910Y-127568010D02*
X179166672Y-127520391D01*
X179166672Y-127520391D02*
X179119053Y-127472772D01*
X179119053Y-127472772D02*
X179071434Y-127377534D01*
X179071434Y-127377534D02*
X179071434Y-127091820D01*
X179071434Y-127091820D02*
X179119053Y-126996582D01*
X179119053Y-126996582D02*
X179166672Y-126948963D01*
X179166672Y-126948963D02*
X179261910Y-126901344D01*
X179261910Y-126901344D02*
X179452386Y-126901344D01*
X179452386Y-126901344D02*
X179547624Y-126948963D01*
X179976196Y-127568010D02*
X179976196Y-126568010D01*
X180071434Y-127187058D02*
X180357148Y-127568010D01*
X180357148Y-126901344D02*
X179976196Y-127282296D01*
X180785720Y-127568010D02*
X180785720Y-126568010D01*
X180785720Y-126948963D02*
X180880958Y-126901344D01*
X180880958Y-126901344D02*
X181071434Y-126901344D01*
X181071434Y-126901344D02*
X181166672Y-126948963D01*
X181166672Y-126948963D02*
X181214291Y-126996582D01*
X181214291Y-126996582D02*
X181261910Y-127091820D01*
X181261910Y-127091820D02*
X181261910Y-127377534D01*
X181261910Y-127377534D02*
X181214291Y-127472772D01*
X181214291Y-127472772D02*
X181166672Y-127520391D01*
X181166672Y-127520391D02*
X181071434Y-127568010D01*
X181071434Y-127568010D02*
X180880958Y-127568010D01*
X180880958Y-127568010D02*
X180785720Y-127520391D01*
X182119053Y-127568010D02*
X182119053Y-127044201D01*
X182119053Y-127044201D02*
X182071434Y-126948963D01*
X182071434Y-126948963D02*
X181976196Y-126901344D01*
X181976196Y-126901344D02*
X181785720Y-126901344D01*
X181785720Y-126901344D02*
X181690482Y-126948963D01*
X182119053Y-127520391D02*
X182023815Y-127568010D01*
X182023815Y-127568010D02*
X181785720Y-127568010D01*
X181785720Y-127568010D02*
X181690482Y-127520391D01*
X181690482Y-127520391D02*
X181642863Y-127425153D01*
X181642863Y-127425153D02*
X181642863Y-127329915D01*
X181642863Y-127329915D02*
X181690482Y-127234677D01*
X181690482Y-127234677D02*
X181785720Y-127187058D01*
X181785720Y-127187058D02*
X182023815Y-127187058D01*
X182023815Y-127187058D02*
X182119053Y-127139439D01*
X182738101Y-127568010D02*
X182642863Y-127520391D01*
X182642863Y-127520391D02*
X182595244Y-127425153D01*
X182595244Y-127425153D02*
X182595244Y-126568010D01*
X183261911Y-127568010D02*
X183166673Y-127520391D01*
X183166673Y-127520391D02*
X183119054Y-127425153D01*
X183119054Y-127425153D02*
X183119054Y-126568010D01*
X151661908Y-40768630D02*
X152280955Y-40768630D01*
X152280955Y-40768630D02*
X151947622Y-41149583D01*
X151947622Y-41149583D02*
X152090479Y-41149583D01*
X152090479Y-41149583D02*
X152185717Y-41197202D01*
X152185717Y-41197202D02*
X152233336Y-41244821D01*
X152233336Y-41244821D02*
X152280955Y-41340059D01*
X152280955Y-41340059D02*
X152280955Y-41578154D01*
X152280955Y-41578154D02*
X152233336Y-41673392D01*
X152233336Y-41673392D02*
X152185717Y-41721011D01*
X152185717Y-41721011D02*
X152090479Y-41768630D01*
X152090479Y-41768630D02*
X151804765Y-41768630D01*
X151804765Y-41768630D02*
X151709527Y-41721011D01*
X151709527Y-41721011D02*
X151661908Y-41673392D01*
X152566670Y-40768630D02*
X152900003Y-41768630D01*
X152900003Y-41768630D02*
X153233336Y-40768630D01*
X153471432Y-40768630D02*
X154090479Y-40768630D01*
X154090479Y-40768630D02*
X153757146Y-41149583D01*
X153757146Y-41149583D02*
X153900003Y-41149583D01*
X153900003Y-41149583D02*
X153995241Y-41197202D01*
X153995241Y-41197202D02*
X154042860Y-41244821D01*
X154042860Y-41244821D02*
X154090479Y-41340059D01*
X154090479Y-41340059D02*
X154090479Y-41578154D01*
X154090479Y-41578154D02*
X154042860Y-41673392D01*
X154042860Y-41673392D02*
X153995241Y-41721011D01*
X153995241Y-41721011D02*
X153900003Y-41768630D01*
X153900003Y-41768630D02*
X153614289Y-41768630D01*
X153614289Y-41768630D02*
X153519051Y-41721011D01*
X153519051Y-41721011D02*
X153471432Y-41673392D01*
X176761913Y-115568004D02*
X177333341Y-115568004D01*
X177047627Y-116568004D02*
X177047627Y-115568004D01*
X177666675Y-116568004D02*
X177666675Y-115901338D01*
X177666675Y-116091814D02*
X177714294Y-115996576D01*
X177714294Y-115996576D02*
X177761913Y-115948957D01*
X177761913Y-115948957D02*
X177857151Y-115901338D01*
X177857151Y-115901338D02*
X177952389Y-115901338D01*
X178714294Y-116568004D02*
X178714294Y-116044195D01*
X178714294Y-116044195D02*
X178666675Y-115948957D01*
X178666675Y-115948957D02*
X178571437Y-115901338D01*
X178571437Y-115901338D02*
X178380961Y-115901338D01*
X178380961Y-115901338D02*
X178285723Y-115948957D01*
X178714294Y-116520385D02*
X178619056Y-116568004D01*
X178619056Y-116568004D02*
X178380961Y-116568004D01*
X178380961Y-116568004D02*
X178285723Y-116520385D01*
X178285723Y-116520385D02*
X178238104Y-116425147D01*
X178238104Y-116425147D02*
X178238104Y-116329909D01*
X178238104Y-116329909D02*
X178285723Y-116234671D01*
X178285723Y-116234671D02*
X178380961Y-116187052D01*
X178380961Y-116187052D02*
X178619056Y-116187052D01*
X178619056Y-116187052D02*
X178714294Y-116139433D01*
X179619056Y-116520385D02*
X179523818Y-116568004D01*
X179523818Y-116568004D02*
X179333342Y-116568004D01*
X179333342Y-116568004D02*
X179238104Y-116520385D01*
X179238104Y-116520385D02*
X179190485Y-116472766D01*
X179190485Y-116472766D02*
X179142866Y-116377528D01*
X179142866Y-116377528D02*
X179142866Y-116091814D01*
X179142866Y-116091814D02*
X179190485Y-115996576D01*
X179190485Y-115996576D02*
X179238104Y-115948957D01*
X179238104Y-115948957D02*
X179333342Y-115901338D01*
X179333342Y-115901338D02*
X179523818Y-115901338D01*
X179523818Y-115901338D02*
X179619056Y-115948957D01*
X180047628Y-116568004D02*
X180047628Y-115568004D01*
X180142866Y-116187052D02*
X180428580Y-116568004D01*
X180428580Y-115901338D02*
X180047628Y-116282290D01*
X180857152Y-115901338D02*
X180857152Y-116901338D01*
X180857152Y-115948957D02*
X180952390Y-115901338D01*
X180952390Y-115901338D02*
X181142866Y-115901338D01*
X181142866Y-115901338D02*
X181238104Y-115948957D01*
X181238104Y-115948957D02*
X181285723Y-115996576D01*
X181285723Y-115996576D02*
X181333342Y-116091814D01*
X181333342Y-116091814D02*
X181333342Y-116377528D01*
X181333342Y-116377528D02*
X181285723Y-116472766D01*
X181285723Y-116472766D02*
X181238104Y-116520385D01*
X181238104Y-116520385D02*
X181142866Y-116568004D01*
X181142866Y-116568004D02*
X180952390Y-116568004D01*
X180952390Y-116568004D02*
X180857152Y-116520385D01*
X182190485Y-116568004D02*
X182190485Y-116044195D01*
X182190485Y-116044195D02*
X182142866Y-115948957D01*
X182142866Y-115948957D02*
X182047628Y-115901338D01*
X182047628Y-115901338D02*
X181857152Y-115901338D01*
X181857152Y-115901338D02*
X181761914Y-115948957D01*
X182190485Y-116520385D02*
X182095247Y-116568004D01*
X182095247Y-116568004D02*
X181857152Y-116568004D01*
X181857152Y-116568004D02*
X181761914Y-116520385D01*
X181761914Y-116520385D02*
X181714295Y-116425147D01*
X181714295Y-116425147D02*
X181714295Y-116329909D01*
X181714295Y-116329909D02*
X181761914Y-116234671D01*
X181761914Y-116234671D02*
X181857152Y-116187052D01*
X181857152Y-116187052D02*
X182095247Y-116187052D01*
X182095247Y-116187052D02*
X182190485Y-116139433D01*
X183095247Y-116568004D02*
X183095247Y-115568004D01*
X183095247Y-116520385D02*
X183000009Y-116568004D01*
X183000009Y-116568004D02*
X182809533Y-116568004D01*
X182809533Y-116568004D02*
X182714295Y-116520385D01*
X182714295Y-116520385D02*
X182666676Y-116472766D01*
X182666676Y-116472766D02*
X182619057Y-116377528D01*
X182619057Y-116377528D02*
X182619057Y-116091814D01*
X182619057Y-116091814D02*
X182666676Y-115996576D01*
X182666676Y-115996576D02*
X182714295Y-115948957D01*
X182714295Y-115948957D02*
X182809533Y-115901338D01*
X182809533Y-115901338D02*
X183000009Y-115901338D01*
X183000009Y-115901338D02*
X183095247Y-115948957D01*
X185402382Y-69218009D02*
X185402382Y-68218009D01*
X185402382Y-68218009D02*
X185640477Y-68218009D01*
X185640477Y-68218009D02*
X185783334Y-68265629D01*
X185783334Y-68265629D02*
X185878572Y-68360867D01*
X185878572Y-68360867D02*
X185926191Y-68456105D01*
X185926191Y-68456105D02*
X185973810Y-68646581D01*
X185973810Y-68646581D02*
X185973810Y-68789438D01*
X185973810Y-68789438D02*
X185926191Y-68979914D01*
X185926191Y-68979914D02*
X185878572Y-69075152D01*
X185878572Y-69075152D02*
X185783334Y-69170390D01*
X185783334Y-69170390D02*
X185640477Y-69218009D01*
X185640477Y-69218009D02*
X185402382Y-69218009D01*
X186783334Y-69170390D02*
X186688096Y-69218009D01*
X186688096Y-69218009D02*
X186497620Y-69218009D01*
X186497620Y-69218009D02*
X186402382Y-69170390D01*
X186402382Y-69170390D02*
X186354763Y-69075152D01*
X186354763Y-69075152D02*
X186354763Y-68694200D01*
X186354763Y-68694200D02*
X186402382Y-68598962D01*
X186402382Y-68598962D02*
X186497620Y-68551343D01*
X186497620Y-68551343D02*
X186688096Y-68551343D01*
X186688096Y-68551343D02*
X186783334Y-68598962D01*
X186783334Y-68598962D02*
X186830953Y-68694200D01*
X186830953Y-68694200D02*
X186830953Y-68789438D01*
X186830953Y-68789438D02*
X186354763Y-68884676D01*
X187259525Y-69218009D02*
X187259525Y-68218009D01*
X187259525Y-68598962D02*
X187354763Y-68551343D01*
X187354763Y-68551343D02*
X187545239Y-68551343D01*
X187545239Y-68551343D02*
X187640477Y-68598962D01*
X187640477Y-68598962D02*
X187688096Y-68646581D01*
X187688096Y-68646581D02*
X187735715Y-68741819D01*
X187735715Y-68741819D02*
X187735715Y-69027533D01*
X187735715Y-69027533D02*
X187688096Y-69122771D01*
X187688096Y-69122771D02*
X187640477Y-69170390D01*
X187640477Y-69170390D02*
X187545239Y-69218009D01*
X187545239Y-69218009D02*
X187354763Y-69218009D01*
X187354763Y-69218009D02*
X187259525Y-69170390D01*
X188592858Y-68551343D02*
X188592858Y-69218009D01*
X188164287Y-68551343D02*
X188164287Y-69075152D01*
X188164287Y-69075152D02*
X188211906Y-69170390D01*
X188211906Y-69170390D02*
X188307144Y-69218009D01*
X188307144Y-69218009D02*
X188450001Y-69218009D01*
X188450001Y-69218009D02*
X188545239Y-69170390D01*
X188545239Y-69170390D02*
X188592858Y-69122771D01*
X189497620Y-68551343D02*
X189497620Y-69360867D01*
X189497620Y-69360867D02*
X189450001Y-69456105D01*
X189450001Y-69456105D02*
X189402382Y-69503724D01*
X189402382Y-69503724D02*
X189307144Y-69551343D01*
X189307144Y-69551343D02*
X189164287Y-69551343D01*
X189164287Y-69551343D02*
X189069049Y-69503724D01*
X189497620Y-69170390D02*
X189402382Y-69218009D01*
X189402382Y-69218009D02*
X189211906Y-69218009D01*
X189211906Y-69218009D02*
X189116668Y-69170390D01*
X189116668Y-69170390D02*
X189069049Y-69122771D01*
X189069049Y-69122771D02*
X189021430Y-69027533D01*
X189021430Y-69027533D02*
X189021430Y-68741819D01*
X189021430Y-68741819D02*
X189069049Y-68646581D01*
X189069049Y-68646581D02*
X189116668Y-68598962D01*
X189116668Y-68598962D02*
X189211906Y-68551343D01*
X189211906Y-68551343D02*
X189402382Y-68551343D01*
X189402382Y-68551343D02*
X189497620Y-68598962D01*
X152733342Y-49673391D02*
X152685723Y-49721010D01*
X152685723Y-49721010D02*
X152542866Y-49768629D01*
X152542866Y-49768629D02*
X152447628Y-49768629D01*
X152447628Y-49768629D02*
X152304771Y-49721010D01*
X152304771Y-49721010D02*
X152209533Y-49625772D01*
X152209533Y-49625772D02*
X152161914Y-49530534D01*
X152161914Y-49530534D02*
X152114295Y-49340058D01*
X152114295Y-49340058D02*
X152114295Y-49197201D01*
X152114295Y-49197201D02*
X152161914Y-49006725D01*
X152161914Y-49006725D02*
X152209533Y-48911487D01*
X152209533Y-48911487D02*
X152304771Y-48816249D01*
X152304771Y-48816249D02*
X152447628Y-48768629D01*
X152447628Y-48768629D02*
X152542866Y-48768629D01*
X152542866Y-48768629D02*
X152685723Y-48816249D01*
X152685723Y-48816249D02*
X152733342Y-48863868D01*
X153114295Y-49721010D02*
X153257152Y-49768629D01*
X153257152Y-49768629D02*
X153495247Y-49768629D01*
X153495247Y-49768629D02*
X153590485Y-49721010D01*
X153590485Y-49721010D02*
X153638104Y-49673391D01*
X153638104Y-49673391D02*
X153685723Y-49578153D01*
X153685723Y-49578153D02*
X153685723Y-49482915D01*
X153685723Y-49482915D02*
X153638104Y-49387677D01*
X153638104Y-49387677D02*
X153590485Y-49340058D01*
X153590485Y-49340058D02*
X153495247Y-49292439D01*
X153495247Y-49292439D02*
X153304771Y-49244820D01*
X153304771Y-49244820D02*
X153209533Y-49197201D01*
X153209533Y-49197201D02*
X153161914Y-49149582D01*
X153161914Y-49149582D02*
X153114295Y-49054344D01*
X153114295Y-49054344D02*
X153114295Y-48959106D01*
X153114295Y-48959106D02*
X153161914Y-48863868D01*
X153161914Y-48863868D02*
X153209533Y-48816249D01*
X153209533Y-48816249D02*
X153304771Y-48768629D01*
X153304771Y-48768629D02*
X153542866Y-48768629D01*
X153542866Y-48768629D02*
X153685723Y-48816249D01*
%TO.C,J2*%
X179666669Y-30418012D02*
X179666669Y-31132298D01*
X179666669Y-31132298D02*
X179619050Y-31275155D01*
X179619050Y-31275155D02*
X179523812Y-31370393D01*
X179523812Y-31370393D02*
X179380955Y-31418012D01*
X179380955Y-31418012D02*
X179285717Y-31418012D01*
X180095241Y-30513251D02*
X180142860Y-30465632D01*
X180142860Y-30465632D02*
X180238098Y-30418012D01*
X180238098Y-30418012D02*
X180476193Y-30418012D01*
X180476193Y-30418012D02*
X180571431Y-30465632D01*
X180571431Y-30465632D02*
X180619050Y-30513251D01*
X180619050Y-30513251D02*
X180666669Y-30608489D01*
X180666669Y-30608489D02*
X180666669Y-30703727D01*
X180666669Y-30703727D02*
X180619050Y-30846584D01*
X180619050Y-30846584D02*
X180047622Y-31418012D01*
X180047622Y-31418012D02*
X180666669Y-31418012D01*
%TO.C,J4*%
X179266685Y-26018642D02*
X179266685Y-26732928D01*
X179266685Y-26732928D02*
X179219066Y-26875785D01*
X179219066Y-26875785D02*
X179123828Y-26971023D01*
X179123828Y-26971023D02*
X178980971Y-27018642D01*
X178980971Y-27018642D02*
X178885733Y-27018642D01*
X180171447Y-26351976D02*
X180171447Y-27018642D01*
X179933352Y-25971023D02*
X179695257Y-26685309D01*
X179695257Y-26685309D02*
X180314304Y-26685309D01*
%TO.C,J5*%
X158216671Y-55768631D02*
X158216671Y-56482917D01*
X158216671Y-56482917D02*
X158169052Y-56625774D01*
X158169052Y-56625774D02*
X158073814Y-56721012D01*
X158073814Y-56721012D02*
X157930957Y-56768631D01*
X157930957Y-56768631D02*
X157835719Y-56768631D01*
X159169052Y-55768631D02*
X158692862Y-55768631D01*
X158692862Y-55768631D02*
X158645243Y-56244822D01*
X158645243Y-56244822D02*
X158692862Y-56197203D01*
X158692862Y-56197203D02*
X158788100Y-56149584D01*
X158788100Y-56149584D02*
X159026195Y-56149584D01*
X159026195Y-56149584D02*
X159121433Y-56197203D01*
X159121433Y-56197203D02*
X159169052Y-56244822D01*
X159169052Y-56244822D02*
X159216671Y-56340060D01*
X159216671Y-56340060D02*
X159216671Y-56578155D01*
X159216671Y-56578155D02*
X159169052Y-56673393D01*
X159169052Y-56673393D02*
X159121433Y-56721012D01*
X159121433Y-56721012D02*
X159026195Y-56768631D01*
X159026195Y-56768631D02*
X158788100Y-56768631D01*
X158788100Y-56768631D02*
X158692862Y-56721012D01*
X158692862Y-56721012D02*
X158645243Y-56673393D01*
%TO.C,J1*%
X173536668Y-68168009D02*
X173536668Y-68882295D01*
X173536668Y-68882295D02*
X173489049Y-69025152D01*
X173489049Y-69025152D02*
X173393811Y-69120390D01*
X173393811Y-69120390D02*
X173250954Y-69168009D01*
X173250954Y-69168009D02*
X173155716Y-69168009D01*
X174536668Y-69168009D02*
X173965240Y-69168009D01*
X174250954Y-69168009D02*
X174250954Y-68168009D01*
X174250954Y-68168009D02*
X174155716Y-68310867D01*
X174155716Y-68310867D02*
X174060478Y-68406105D01*
X174060478Y-68406105D02*
X173965240Y-68453724D01*
D12*
%TO.C,SW64*%
X189500003Y-166200624D02*
X189500003Y-164100624D01*
X189500003Y-106200624D02*
X189500003Y-108300624D01*
X189500003Y-106200624D02*
X183700003Y-106200624D01*
X170500003Y-166200624D02*
X189500003Y-166200624D01*
X170500003Y-166200624D02*
X170500003Y-164100624D01*
X170500003Y-106200624D02*
X176300003Y-106200624D01*
X170500003Y-106200624D02*
X170500003Y-108300624D01*
X196450003Y-160603257D02*
G75*
G03*
X209208284Y-139801645I-16443344J24398551D01*
G01*
X209208283Y-132599603D02*
G75*
G03*
X196450003Y-111797991I-29208280J-3601021D01*
G01*
X189500003Y-164100624D02*
G75*
G03*
X192889918Y-162679908I-11010900J31027300D01*
G01*
X192889917Y-109721343D02*
G75*
G03*
X189500003Y-108300625I-14330214J-29438081D01*
G01*
X167110088Y-162679907D02*
G75*
G03*
X170500003Y-164100623I14330425J29438637D01*
G01*
X170500003Y-108300624D02*
G75*
G03*
X167110088Y-109721340I11010886J-31027276D01*
G01*
X150791723Y-139801645D02*
G75*
G03*
X163550003Y-160603257I29208282J3601022D01*
G01*
X163550003Y-111797991D02*
G75*
G03*
X150791722Y-132599603I16443344J-24398551D01*
G01*
D13*
X202000003Y-136200624D02*
G75*
G03*
X202000003Y-136200624I-22000000J0D01*
G01*
D12*
%TO.C,J4*%
X157750008Y-28901251D02*
X157750008Y-65901251D01*
X157750008Y-65901251D02*
X202250008Y-65901251D01*
X202250008Y-28901251D02*
X157750008Y-28901251D01*
X202250008Y-65901251D02*
X202250008Y-28901251D01*
%TO.C,J5*%
X154590005Y-55461251D02*
X162410005Y-55461251D01*
X156190005Y-55461251D02*
X156190005Y-54541251D01*
X162410005Y-55461251D02*
X162410005Y-39341251D01*
X158550005Y-54701251D02*
X160150005Y-54701251D01*
X160150005Y-54701251D02*
X160150005Y-53701251D01*
X154590005Y-54541251D02*
X154590005Y-55461251D01*
X156190005Y-54541251D02*
X154590005Y-54541251D01*
X156190005Y-54261251D02*
X156190005Y-54541251D01*
X156190005Y-54261251D02*
X154975005Y-54261251D01*
X160150005Y-54201251D02*
X162410005Y-54201251D01*
X158550005Y-53701251D02*
X158550005Y-54701251D01*
X160150005Y-53701251D02*
X158550005Y-53701251D01*
X160150005Y-53701251D02*
X162410005Y-53701251D01*
X158050005Y-52901251D02*
X158050005Y-41901251D01*
X162410005Y-52901251D02*
X158050005Y-52901251D01*
X158050005Y-41901251D02*
X162410005Y-41901251D01*
X158550005Y-41101251D02*
X158550005Y-40101251D01*
X160150005Y-41101251D02*
X158550005Y-41101251D01*
X154590005Y-40261251D02*
X156190005Y-40261251D01*
X156190005Y-40261251D02*
X156190005Y-40541251D01*
X158550005Y-40101251D02*
X160150005Y-40101251D01*
X160150005Y-40101251D02*
X160150005Y-41101251D01*
X154590005Y-39341251D02*
X154590005Y-40261251D01*
X156190005Y-39341251D02*
X156190005Y-40261251D01*
X162410005Y-39341251D02*
X154590005Y-39341251D01*
%TO.C,J1*%
X174870002Y-70130629D02*
X174870002Y-68800629D01*
X176200002Y-70130629D02*
X174870002Y-70130629D01*
X177470002Y-70130629D02*
X185150002Y-70130629D01*
X177470002Y-70130629D02*
X177470002Y-67470629D01*
X185150002Y-70130629D02*
X185150002Y-67470629D01*
X177470002Y-67470629D02*
X185150002Y-67470629D01*
%TO.C,SW25*%
X120147526Y-141609502D02*
X131615654Y-149639572D01*
X131615654Y-149639572D02*
X123585584Y-161107700D01*
X123585584Y-161107700D02*
X112117456Y-153077630D01*
X112117456Y-153077630D02*
X120147526Y-141609502D01*
%TO.C,SW30*%
X138862804Y-156338815D02*
X147861830Y-167063437D01*
X147861830Y-167063437D02*
X137137208Y-176062463D01*
X137137208Y-176062463D02*
X128138182Y-165337841D01*
X128138182Y-165337841D02*
X138862804Y-156338815D01*
%TO.C,SW1*%
X57743500Y-38973271D02*
X70899196Y-43761553D01*
X70899196Y-43761553D02*
X66110914Y-56917249D01*
X66110914Y-56917249D02*
X52955218Y-52128967D01*
X52955218Y-52128967D02*
X57743500Y-38973271D01*
%TO.C,SW24*%
X112244939Y-112025717D02*
X125400635Y-116813999D01*
X125400635Y-116813999D02*
X120612353Y-129969695D01*
X120612353Y-129969695D02*
X107456657Y-125181413D01*
X107456657Y-125181413D02*
X112244939Y-112025717D01*
%TO.C,SW29*%
X129060143Y-121524751D02*
X142215839Y-126313033D01*
X142215839Y-126313033D02*
X137427557Y-139468729D01*
X137427557Y-139468729D02*
X124271861Y-134680447D01*
X124271861Y-134680447D02*
X129060143Y-121524751D01*
%TO.C,SW14*%
X76442630Y-98994759D02*
X89598326Y-103783041D01*
X89598326Y-103783041D02*
X84810044Y-116938737D01*
X84810044Y-116938737D02*
X71654348Y-112150455D01*
X71654348Y-112150455D02*
X76442630Y-98994759D01*
%TO.C,SW19*%
X95701177Y-101780825D02*
X108856873Y-106569107D01*
X108856873Y-106569107D02*
X104068591Y-119724803D01*
X104068591Y-119724803D02*
X90912895Y-114936521D01*
X90912895Y-114936521D02*
X95701177Y-101780825D01*
%TO.C,SW5*%
X31681558Y-110577867D02*
X44837254Y-115366149D01*
X44837254Y-115366149D02*
X40048972Y-128521845D01*
X40048972Y-128521845D02*
X26893276Y-123733563D01*
X26893276Y-123733563D02*
X31681558Y-110577867D01*
%TO.C,SW22*%
X125275892Y-76223421D02*
X138431588Y-81011703D01*
X138431588Y-81011703D02*
X133643306Y-94167399D01*
X133643306Y-94167399D02*
X120487610Y-89379117D01*
X120487610Y-89379117D02*
X125275892Y-76223421D01*
%TO.C,SW27*%
X142091114Y-85722449D02*
X155246810Y-90510731D01*
X155246810Y-90510731D02*
X150458528Y-103666427D01*
X150458528Y-103666427D02*
X137302832Y-98878145D01*
X137302832Y-98878145D02*
X142091114Y-85722449D01*
%TO.C,SW3*%
X44712515Y-74775572D02*
X57868211Y-79563854D01*
X57868211Y-79563854D02*
X53079929Y-92719550D01*
X53079929Y-92719550D02*
X39924233Y-87931268D01*
X39924233Y-87931268D02*
X44712515Y-74775572D01*
%TO.C,SW8*%
X63428112Y-79053399D02*
X76583808Y-83841681D01*
X76583808Y-83841681D02*
X71795526Y-96997377D01*
X71795526Y-96997377D02*
X58639830Y-92209095D01*
X58639830Y-92209095D02*
X63428112Y-79053399D01*
%TO.C,SW13*%
X82958124Y-81093604D02*
X96113820Y-85881886D01*
X96113820Y-85881886D02*
X91325538Y-99037582D01*
X91325538Y-99037582D02*
X78169842Y-94249300D01*
X78169842Y-94249300D02*
X82958124Y-81093604D01*
%TO.C,SW23*%
X118760415Y-94124601D02*
X131916111Y-98912883D01*
X131916111Y-98912883D02*
X127127829Y-112068579D01*
X127127829Y-112068579D02*
X113972133Y-107280297D01*
X113972133Y-107280297D02*
X118760415Y-94124601D01*
%TO.C,SW18*%
X102216643Y-83879685D02*
X115372339Y-88667967D01*
X115372339Y-88667967D02*
X110584057Y-101823663D01*
X110584057Y-101823663D02*
X97428361Y-97035381D01*
X97428361Y-97035381D02*
X102216643Y-83879685D01*
%TO.C,SW28*%
X135575624Y-103623592D02*
X148731320Y-108411874D01*
X148731320Y-108411874D02*
X143943038Y-121567570D01*
X143943038Y-121567570D02*
X130787342Y-116779288D01*
X130787342Y-116779288D02*
X135575624Y-103623592D01*
%TO.C,SW4*%
X38197055Y-92676732D02*
X51352751Y-97465014D01*
X51352751Y-97465014D02*
X46564469Y-110620710D01*
X46564469Y-110620710D02*
X33408773Y-105832428D01*
X33408773Y-105832428D02*
X38197055Y-92676732D01*
%TO.C,SW9*%
X56912598Y-96954560D02*
X70068294Y-101742842D01*
X70068294Y-101742842D02*
X65280012Y-114898538D01*
X65280012Y-114898538D02*
X52124316Y-110110256D01*
X52124316Y-110110256D02*
X56912598Y-96954560D01*
%TO.C,SW10*%
X50397136Y-114855699D02*
X63552832Y-119643981D01*
X63552832Y-119643981D02*
X58764550Y-132799677D01*
X58764550Y-132799677D02*
X45608854Y-128011395D01*
X45608854Y-128011395D02*
X50397136Y-114855699D01*
%TO.C,SW15*%
X69927148Y-116895897D02*
X83082844Y-121684179D01*
X83082844Y-121684179D02*
X78294562Y-134839875D01*
X78294562Y-134839875D02*
X65138866Y-130051593D01*
X65138866Y-130051593D02*
X69927148Y-116895897D01*
%TO.C,SW20*%
X98133516Y-132230320D02*
X111289212Y-137018602D01*
X111289212Y-137018602D02*
X106500930Y-150174298D01*
X106500930Y-150174298D02*
X93345234Y-145386016D01*
X93345234Y-145386016D02*
X98133516Y-132230320D01*
%TO.C,SW11*%
X95989082Y-45291332D02*
X109144778Y-50079614D01*
X109144778Y-50079614D02*
X104356496Y-63235310D01*
X104356496Y-63235310D02*
X91200800Y-58447028D01*
X91200800Y-58447028D02*
X95989082Y-45291332D01*
%TO.C,SW2*%
X51228014Y-56874425D02*
X64383710Y-61662707D01*
X64383710Y-61662707D02*
X59595428Y-74818403D01*
X59595428Y-74818403D02*
X46439732Y-70030121D01*
X46439732Y-70030121D02*
X51228014Y-56874425D01*
%TO.C,SW12*%
X89473595Y-63192457D02*
X102629291Y-67980739D01*
X102629291Y-67980739D02*
X97841009Y-81136435D01*
X97841009Y-81136435D02*
X84685313Y-76348153D01*
X84685313Y-76348153D02*
X89473595Y-63192457D01*
%TO.C,SW21*%
X131791380Y-58322285D02*
X144947076Y-63110567D01*
X144947076Y-63110567D02*
X140158794Y-76266263D01*
X140158794Y-76266263D02*
X127003098Y-71477981D01*
X127003098Y-71477981D02*
X131791380Y-58322285D01*
%TO.C,SW17*%
X108732140Y-65978552D02*
X121887836Y-70766834D01*
X121887836Y-70766834D02*
X117099554Y-83922530D01*
X117099554Y-83922530D02*
X103943858Y-79134248D01*
X103943858Y-79134248D02*
X108732140Y-65978552D01*
%TO.C,SW16*%
X115247623Y-48077390D02*
X128403319Y-52865672D01*
X128403319Y-52865672D02*
X123615037Y-66021368D01*
X123615037Y-66021368D02*
X110459341Y-61233086D01*
X110459341Y-61233086D02*
X115247623Y-48077390D01*
%TO.C,SW6*%
X76459069Y-43251124D02*
X89614765Y-48039406D01*
X89614765Y-48039406D02*
X84826483Y-61195102D01*
X84826483Y-61195102D02*
X71670787Y-56406820D01*
X71670787Y-56406820D02*
X76459069Y-43251124D01*
%TO.C,SW7*%
X69943582Y-61152265D02*
X83099278Y-65940547D01*
X83099278Y-65940547D02*
X78310996Y-79096243D01*
X78310996Y-79096243D02*
X65155300Y-74307961D01*
X65155300Y-74307961D02*
X69943582Y-61152265D01*
%TO.C,SW26*%
X148606599Y-67821299D02*
X161762295Y-72609581D01*
X161762295Y-72609581D02*
X156974013Y-85765277D01*
X156974013Y-85765277D02*
X143818317Y-80976995D01*
X143818317Y-80976995D02*
X148606599Y-67821299D01*
%TO.C,SW31*%
X198237734Y-72609585D02*
X211393430Y-67821303D01*
X211393430Y-67821303D02*
X216181712Y-80976999D01*
X216181712Y-80976999D02*
X203026016Y-85765281D01*
X203026016Y-85765281D02*
X198237734Y-72609585D01*
%TO.C,SW45*%
X248710807Y-137018601D02*
X261866503Y-132230319D01*
X261866503Y-132230319D02*
X266654785Y-145386015D01*
X266654785Y-145386015D02*
X253499089Y-150174297D01*
X253499089Y-150174297D02*
X248710807Y-137018601D01*
%TO.C,SW49*%
X270401690Y-103783054D02*
X283557386Y-98994772D01*
X283557386Y-98994772D02*
X288345668Y-112150468D01*
X288345668Y-112150468D02*
X275189972Y-116938750D01*
X275189972Y-116938750D02*
X270401690Y-103783054D01*
%TO.C,SW47*%
X257370733Y-67980754D02*
X270526429Y-63192472D01*
X270526429Y-63192472D02*
X275314711Y-76348168D01*
X275314711Y-76348168D02*
X262159015Y-81136450D01*
X262159015Y-81136450D02*
X257370733Y-67980754D01*
%TO.C,SW63*%
X192786792Y-174340882D02*
X206309753Y-170717415D01*
X206309753Y-170717415D02*
X209933220Y-184240376D01*
X209933220Y-184240376D02*
X196410259Y-187863843D01*
X196410259Y-187863843D02*
X192786792Y-174340882D01*
%TO.C,SW61*%
X153690259Y-170717397D02*
X167213220Y-174340864D01*
X167213220Y-174340864D02*
X163589753Y-187863825D01*
X163589753Y-187863825D02*
X150066792Y-184240358D01*
X150066792Y-184240358D02*
X153690259Y-170717397D01*
%TO.C,SW33*%
X211268687Y-108411871D02*
X224424383Y-103623589D01*
X224424383Y-103623589D02*
X229212665Y-116779285D01*
X229212665Y-116779285D02*
X216056969Y-121567567D01*
X216056969Y-121567567D02*
X211268687Y-108411871D01*
%TO.C,SW59*%
X308647278Y-97465003D02*
X321802974Y-92676721D01*
X321802974Y-92676721D02*
X326591256Y-105832417D01*
X326591256Y-105832417D02*
X313435560Y-110620699D01*
X313435560Y-110620699D02*
X308647278Y-97465003D01*
%TO.C,SW38*%
X228083936Y-98912869D02*
X241239632Y-94124587D01*
X241239632Y-94124587D02*
X246027914Y-107280283D01*
X246027914Y-107280283D02*
X232872218Y-112068565D01*
X232872218Y-112068565D02*
X228083936Y-98912869D01*
%TO.C,SW50*%
X276917178Y-121684196D02*
X290072874Y-116895914D01*
X290072874Y-116895914D02*
X294861156Y-130051610D01*
X294861156Y-130051610D02*
X281705460Y-134839892D01*
X281705460Y-134839892D02*
X276917178Y-121684196D01*
%TO.C,SW58*%
X302131792Y-79563841D02*
X315287488Y-74775559D01*
X315287488Y-74775559D02*
X320075770Y-87931255D01*
X320075770Y-87931255D02*
X306920074Y-92719537D01*
X306920074Y-92719537D02*
X302131792Y-79563841D01*
%TO.C,SW43*%
X244627658Y-88667966D02*
X257783354Y-83879684D01*
X257783354Y-83879684D02*
X262571636Y-97035380D01*
X262571636Y-97035380D02*
X249415940Y-101823662D01*
X249415940Y-101823662D02*
X244627658Y-88667966D01*
%TO.C,SW57*%
X295616307Y-61662704D02*
X308772003Y-56874422D01*
X308772003Y-56874422D02*
X313560285Y-70030118D01*
X313560285Y-70030118D02*
X300404589Y-74818400D01*
X300404589Y-74818400D02*
X295616307Y-61662704D01*
%TO.C,SW52*%
X276900743Y-65940548D02*
X290056439Y-61152266D01*
X290056439Y-61152266D02*
X294844721Y-74307962D01*
X294844721Y-74307962D02*
X281689025Y-79096244D01*
X281689025Y-79096244D02*
X276900743Y-65940548D01*
%TO.C,SW44*%
X251143155Y-106569098D02*
X264298851Y-101780816D01*
X264298851Y-101780816D02*
X269087133Y-114936512D01*
X269087133Y-114936512D02*
X255931437Y-119724794D01*
X255931437Y-119724794D02*
X251143155Y-106569098D01*
%TO.C,SW41*%
X231596700Y-52865683D02*
X244752396Y-48077401D01*
X244752396Y-48077401D02*
X249540678Y-61233097D01*
X249540678Y-61233097D02*
X236384982Y-66021379D01*
X236384982Y-66021379D02*
X231596700Y-52865683D01*
%TO.C,SW40*%
X228384358Y-149639557D02*
X239852486Y-141609487D01*
X239852486Y-141609487D02*
X247882556Y-153077615D01*
X247882556Y-153077615D02*
X236414428Y-161107685D01*
X236414428Y-161107685D02*
X228384358Y-149639557D01*
%TO.C,SW62*%
X173000019Y-175110618D02*
X187000019Y-175110618D01*
X187000019Y-175110618D02*
X187000019Y-189110618D01*
X187000019Y-189110618D02*
X173000019Y-189110618D01*
X173000019Y-189110618D02*
X173000019Y-175110618D01*
%TO.C,SW46*%
X250855236Y-50079618D02*
X264010932Y-45291336D01*
X264010932Y-45291336D02*
X268799214Y-58447032D01*
X268799214Y-58447032D02*
X255643518Y-63235314D01*
X255643518Y-63235314D02*
X250855236Y-50079618D01*
%TO.C,SW51*%
X270385260Y-48039417D02*
X283540956Y-43251135D01*
X283540956Y-43251135D02*
X288329238Y-56406831D01*
X288329238Y-56406831D02*
X275173542Y-61195113D01*
X275173542Y-61195113D02*
X270385260Y-48039417D01*
%TO.C,SW60*%
X315162754Y-115366141D02*
X328318450Y-110577859D01*
X328318450Y-110577859D02*
X333106732Y-123733555D01*
X333106732Y-123733555D02*
X319951036Y-128521837D01*
X319951036Y-128521837D02*
X315162754Y-115366141D01*
%TO.C,SW37*%
X221568443Y-81011734D02*
X234724139Y-76223452D01*
X234724139Y-76223452D02*
X239512421Y-89379148D01*
X239512421Y-89379148D02*
X226356725Y-94167430D01*
X226356725Y-94167430D02*
X221568443Y-81011734D01*
%TO.C,SW54*%
X289931708Y-101742845D02*
X303087404Y-96954563D01*
X303087404Y-96954563D02*
X307875686Y-110110259D01*
X307875686Y-110110259D02*
X294719990Y-114898541D01*
X294719990Y-114898541D02*
X289931708Y-101742845D01*
%TO.C,SW55*%
X296447198Y-119643991D02*
X309602894Y-114855709D01*
X309602894Y-114855709D02*
X314391176Y-128011405D01*
X314391176Y-128011405D02*
X301235480Y-132799687D01*
X301235480Y-132799687D02*
X296447198Y-119643991D01*
%TO.C,SW48*%
X263886213Y-85881898D02*
X277041909Y-81093616D01*
X277041909Y-81093616D02*
X281830191Y-94249312D01*
X281830191Y-94249312D02*
X268674495Y-99037594D01*
X268674495Y-99037594D02*
X263886213Y-85881898D01*
%TO.C,SW53*%
X283416224Y-83841691D02*
X296571920Y-79053409D01*
X296571920Y-79053409D02*
X301360202Y-92209105D01*
X301360202Y-92209105D02*
X288204506Y-96997387D01*
X288204506Y-96997387D02*
X283416224Y-83841691D01*
%TO.C,SW35*%
X212138190Y-167063429D02*
X221137216Y-156338807D01*
X221137216Y-156338807D02*
X231861838Y-165337833D01*
X231861838Y-165337833D02*
X222862812Y-176062455D01*
X222862812Y-176062455D02*
X212138190Y-167063429D01*
%TO.C,SW34*%
X217784168Y-126313015D02*
X230939864Y-121524733D01*
X230939864Y-121524733D02*
X235728146Y-134680429D01*
X235728146Y-134680429D02*
X222572450Y-139468711D01*
X222572450Y-139468711D02*
X217784168Y-126313015D01*
%TO.C,SW42*%
X238112176Y-70766829D02*
X251267872Y-65978547D01*
X251267872Y-65978547D02*
X256056154Y-79134243D01*
X256056154Y-79134243D02*
X242900458Y-83922525D01*
X242900458Y-83922525D02*
X238112176Y-70766829D01*
%TO.C,SW56*%
X289100829Y-43761571D02*
X302256525Y-38973289D01*
X302256525Y-38973289D02*
X307044807Y-52128985D01*
X307044807Y-52128985D02*
X293889111Y-56917267D01*
X293889111Y-56917267D02*
X289100829Y-43761571D01*
%TO.C,SW36*%
X215052950Y-63110595D02*
X228208646Y-58322313D01*
X228208646Y-58322313D02*
X232996928Y-71478009D01*
X232996928Y-71478009D02*
X219841232Y-76266291D01*
X219841232Y-76266291D02*
X215052950Y-63110595D01*
%TO.C,SW39*%
X234599409Y-116814018D02*
X247755105Y-112025736D01*
X247755105Y-112025736D02*
X252543387Y-125181432D01*
X252543387Y-125181432D02*
X239387691Y-129969714D01*
X239387691Y-129969714D02*
X234599409Y-116814018D01*
%TO.C,SW32*%
X204753206Y-90510734D02*
X217908902Y-85722452D01*
X217908902Y-85722452D02*
X222697184Y-98878148D01*
X222697184Y-98878148D02*
X209541488Y-103666430D01*
X209541488Y-103666430D02*
X204753206Y-90510734D01*
%TD*%
%LPC*%
%TO.C,A1*%
G36*
X170263381Y-147785294D02*
G01*
X170228514Y-147936297D01*
X170094048Y-147954628D01*
X169884977Y-147861693D01*
X169924714Y-147785294D01*
X170226153Y-147754895D01*
X170263381Y-147785294D01*
G37*
G36*
X170517381Y-146515294D02*
G01*
X170547780Y-146816733D01*
X170517381Y-146853961D01*
X170366378Y-146819094D01*
X170348048Y-146684628D01*
X170440982Y-146475557D01*
X170517381Y-146515294D01*
G37*
G36*
X167300048Y-148843628D02*
G01*
X167542359Y-149071874D01*
X167554048Y-149112618D01*
X167357530Y-149221715D01*
X167300048Y-149224628D01*
X167055808Y-149029364D01*
X167046048Y-148955637D01*
X167201657Y-148803939D01*
X167300048Y-148843628D01*
G37*
G36*
X169058478Y-147839238D02*
G01*
X169078048Y-147924647D01*
X168892690Y-148283721D01*
X168824048Y-148335628D01*
X168589617Y-148324017D01*
X168570048Y-148238608D01*
X168755405Y-147879534D01*
X168824048Y-147827628D01*
X169058478Y-147839238D01*
G37*
G36*
X171530736Y-145824237D02*
G01*
X171491048Y-145922628D01*
X171262801Y-146164939D01*
X171222057Y-146176628D01*
X171112960Y-145980110D01*
X171110048Y-145922628D01*
X171305311Y-145678388D01*
X171379038Y-145668628D01*
X171530736Y-145824237D01*
G37*
G36*
X176436667Y-146115915D02*
G01*
X176444048Y-146176628D01*
X176250760Y-146423247D01*
X176190048Y-146430628D01*
X175943428Y-146237340D01*
X175936048Y-146176628D01*
X176129335Y-145930008D01*
X176190048Y-145922628D01*
X176436667Y-146115915D01*
G37*
G36*
X186383403Y-146049628D02*
G01*
X186922102Y-146049628D01*
X186942547Y-146572381D01*
X187000107Y-146707304D01*
X187032566Y-146624089D01*
X187079877Y-146014125D01*
X187037692Y-145608089D01*
X186970781Y-145467314D01*
X186928691Y-145772608D01*
X186922102Y-146049628D01*
X186383403Y-146049628D01*
X186371554Y-145797832D01*
X186418756Y-145171423D01*
X186576108Y-144803155D01*
X186689805Y-144686855D01*
X187129599Y-144485262D01*
X187354921Y-144518751D01*
X187523867Y-144878030D01*
X187600010Y-145595573D01*
X187583296Y-146530182D01*
X187473672Y-147540661D01*
X187356295Y-148155204D01*
X187227401Y-149158160D01*
X187369375Y-149801374D01*
X187764658Y-150050200D01*
X188259889Y-149938205D01*
X188779691Y-149623401D01*
X188826484Y-149310805D01*
X188509047Y-148970627D01*
X188160495Y-148476122D01*
X188230511Y-148210212D01*
X188868891Y-148210212D01*
X188980445Y-148672914D01*
X189299160Y-149164124D01*
X189750866Y-149679627D01*
X190095465Y-149965921D01*
X190160048Y-149986628D01*
X190439215Y-149803844D01*
X190872081Y-149347337D01*
X191020935Y-149164124D01*
X191399511Y-148536450D01*
X191426425Y-148136390D01*
X191124992Y-148033398D01*
X190695317Y-148194033D01*
X190070920Y-148348551D01*
X189624778Y-148194033D01*
X189091439Y-148027434D01*
X188868891Y-148210212D01*
X188230511Y-148210212D01*
X188300644Y-147943854D01*
X188636047Y-147573628D01*
X189035404Y-147265123D01*
X189336648Y-147311394D01*
X189652048Y-147573627D01*
X190049159Y-147880572D01*
X190349989Y-147836745D01*
X190677012Y-147565515D01*
X191064158Y-147262300D01*
X191352513Y-147293795D01*
X191740648Y-147644339D01*
X192102328Y-148089998D01*
X192106648Y-148486235D01*
X191955724Y-148810599D01*
X191770157Y-149428419D01*
X191901554Y-149864162D01*
X192207038Y-149986628D01*
X192339138Y-149757217D01*
X192425940Y-149166577D01*
X192446048Y-148619072D01*
X192446047Y-147251517D01*
X193613352Y-147290809D01*
X194578247Y-147432420D01*
X195110230Y-147780819D01*
X195336076Y-148272688D01*
X195531310Y-148995788D01*
X195663452Y-149766340D01*
X195700026Y-150400561D01*
X195626291Y-150701051D01*
X195390050Y-150688795D01*
X195160610Y-150319289D01*
X195011436Y-149738890D01*
X194989937Y-149433270D01*
X194811153Y-148715457D01*
X194373716Y-148164866D01*
X193833841Y-147954628D01*
X193415113Y-148181627D01*
X193092395Y-148754729D01*
X192954505Y-149512085D01*
X192954048Y-149557828D01*
X192804420Y-150171889D01*
X192568283Y-150498582D01*
X192203298Y-150672696D01*
X191808040Y-150474902D01*
X191679283Y-150363316D01*
X191281380Y-150057704D01*
X190978917Y-150108345D01*
X190672812Y-150363316D01*
X190240029Y-150659773D01*
X189890444Y-150579275D01*
X189775575Y-150491746D01*
X189419172Y-150308236D01*
X188926338Y-150338572D01*
X188343859Y-150507231D01*
X187666625Y-150701108D01*
X187287665Y-150694207D01*
X187035270Y-150478577D01*
X187010579Y-150445499D01*
X186734674Y-150188672D01*
X186369532Y-150236190D01*
X186047139Y-150391225D01*
X185359091Y-150595876D01*
X184417086Y-150684785D01*
X184026383Y-150680089D01*
X183217148Y-150612913D01*
X182789038Y-150472005D01*
X182615727Y-150207188D01*
X182596885Y-150112322D01*
X182424174Y-149167584D01*
X182251631Y-148674518D01*
X182058189Y-148577239D01*
X182024601Y-148594230D01*
X181867066Y-148924074D01*
X181782583Y-149553775D01*
X181778048Y-149747618D01*
X181720926Y-150378279D01*
X181578469Y-150725341D01*
X181524048Y-150748628D01*
X181364021Y-150523512D01*
X181275956Y-149962092D01*
X181270048Y-149747618D01*
X181212786Y-149072635D01*
X181070548Y-148641726D01*
X181023494Y-148594230D01*
X180824072Y-148635767D01*
X180649040Y-149067046D01*
X180477738Y-149942940D01*
X180451453Y-150113628D01*
X180314804Y-150430211D01*
X179941117Y-150598925D01*
X179200308Y-150675258D01*
X179126464Y-150678799D01*
X178321553Y-150655432D01*
X177698559Y-150531160D01*
X177522589Y-150441132D01*
X177169195Y-150289782D01*
X176943266Y-150508837D01*
X176651543Y-150726634D01*
X176371214Y-150494564D01*
X176138107Y-149870172D01*
X175994883Y-148985579D01*
X175966948Y-148787152D01*
X177266060Y-148787152D01*
X177426039Y-149391179D01*
X177767613Y-149855587D01*
X178095048Y-149986628D01*
X178476641Y-149777671D01*
X178785251Y-149331902D01*
X178922297Y-148622529D01*
X178696276Y-148076328D01*
X178170119Y-147830451D01*
X178095048Y-147827628D01*
X177589219Y-148024616D01*
X177374472Y-148252402D01*
X177266060Y-148787152D01*
X175966948Y-148787152D01*
X175884949Y-148204701D01*
X175713744Y-147815420D01*
X175426441Y-147701374D01*
X175389445Y-147700628D01*
X174931922Y-147933860D01*
X174591507Y-148558478D01*
X174421726Y-149461862D01*
X174412048Y-149757135D01*
X174266934Y-150430514D01*
X173903773Y-150733641D01*
X173430834Y-150685596D01*
X172956388Y-150305460D01*
X172588705Y-149612316D01*
X172534546Y-149426247D01*
X172308044Y-148534631D01*
X171305560Y-149537115D01*
X169884416Y-150664567D01*
X168335220Y-151312573D01*
X166756687Y-151505049D01*
X165702020Y-151436778D01*
X164983797Y-151197649D01*
X164724687Y-151020657D01*
X164395745Y-150642613D01*
X164837344Y-150642613D01*
X165266890Y-150914960D01*
X165331548Y-150946622D01*
X166465143Y-151218704D01*
X167858336Y-151079241D01*
X168646160Y-150853673D01*
X169681515Y-150334537D01*
X170752726Y-149525256D01*
X171732288Y-148551444D01*
X172492695Y-147538715D01*
X172891695Y-146671081D01*
X173078664Y-145642017D01*
X173057561Y-144814058D01*
X172837709Y-144299308D01*
X172686469Y-144202856D01*
X172470733Y-144264649D01*
X172514277Y-144717997D01*
X172514944Y-144720659D01*
X172539196Y-145641496D01*
X172264796Y-146723289D01*
X171754574Y-147770069D01*
X171370848Y-148289076D01*
X170713788Y-148896365D01*
X169842128Y-149528704D01*
X169326940Y-149837892D01*
X168497869Y-150244141D01*
X167789255Y-150439433D01*
X166954349Y-150474937D01*
X166388451Y-150447241D01*
X165386779Y-150414113D01*
X164873525Y-150477450D01*
X164837344Y-150642613D01*
X164395745Y-150642613D01*
X164327937Y-150564683D01*
X164379048Y-150278588D01*
X164593558Y-150086880D01*
X165452967Y-150086880D01*
X165910960Y-150246589D01*
X166684147Y-150244636D01*
X167613534Y-150101596D01*
X168540127Y-149838044D01*
X169045857Y-149621940D01*
X170350781Y-148758453D01*
X171383921Y-147670740D01*
X172037987Y-146476942D01*
X172110775Y-146247070D01*
X172335740Y-145285428D01*
X172351126Y-144765320D01*
X172228318Y-144652627D01*
X171979347Y-144800644D01*
X171421044Y-145201806D01*
X170640653Y-145791784D01*
X169878818Y-146385040D01*
X168829740Y-147209030D01*
X167785922Y-148023873D01*
X166897359Y-148712703D01*
X166490133Y-149025293D01*
X165881964Y-149530448D01*
X165511351Y-149920828D01*
X165452967Y-150086880D01*
X164593558Y-150086880D01*
X164873581Y-149836623D01*
X165645475Y-149204760D01*
X166620325Y-148438317D01*
X167723727Y-147592615D01*
X168881280Y-146722976D01*
X170018579Y-145884718D01*
X171061220Y-145133163D01*
X171934801Y-144523630D01*
X172564918Y-144111440D01*
X172877167Y-143951914D01*
X172888048Y-143951988D01*
X173218852Y-144260651D01*
X173355387Y-145009908D01*
X173295505Y-146170085D01*
X173127140Y-147256172D01*
X172963214Y-148319397D01*
X172949511Y-149044833D01*
X173084490Y-149579496D01*
X173102377Y-149619994D01*
X173404518Y-150081812D01*
X173650898Y-150064469D01*
X173822719Y-149595455D01*
X173901181Y-148702265D01*
X173904048Y-148447637D01*
X173942949Y-147642001D01*
X174044388Y-147096463D01*
X174158048Y-146938628D01*
X174404726Y-147126083D01*
X174412048Y-147184656D01*
X174597625Y-147351135D01*
X174729548Y-147332871D01*
X175619081Y-147080888D01*
X176134305Y-147037366D01*
X176380547Y-147243401D01*
X176463136Y-147740087D01*
X176473512Y-148013288D01*
X176514310Y-148551092D01*
X176584797Y-148695698D01*
X176626734Y-148589628D01*
X177006751Y-147765926D01*
X177572769Y-147327715D01*
X178212963Y-147248946D01*
X178815505Y-147503574D01*
X179268569Y-148065551D01*
X179460330Y-148908832D01*
X179446996Y-149246523D01*
X179478611Y-149882980D01*
X179682548Y-150173118D01*
X179877225Y-150078572D01*
X179977748Y-149585283D01*
X180000048Y-148879784D01*
X180064938Y-147886211D01*
X180268403Y-147368411D01*
X180623635Y-147309871D01*
X181032053Y-147588112D01*
X181426617Y-147886784D01*
X181732265Y-147825535D01*
X182016042Y-147588112D01*
X182507394Y-147287135D01*
X182839077Y-147436714D01*
X183024800Y-148052460D01*
X183075877Y-148795118D01*
X183103707Y-150113628D01*
X183321256Y-149007041D01*
X183426934Y-148629665D01*
X184064048Y-148629665D01*
X184164480Y-148856360D01*
X184539404Y-148734031D01*
X184557901Y-148724198D01*
X185021177Y-148410003D01*
X185197045Y-148224813D01*
X185161963Y-147901211D01*
X185073064Y-147823312D01*
X184676488Y-147826624D01*
X184273800Y-148132776D01*
X184066315Y-148580888D01*
X184064048Y-148629665D01*
X183426934Y-148629665D01*
X183605622Y-147991567D01*
X183999341Y-147411524D01*
X184554292Y-147197604D01*
X184679348Y-147192627D01*
X185408979Y-147355783D01*
X185769724Y-147772769D01*
X185748533Y-148334865D01*
X185332358Y-148933349D01*
X184925292Y-149241781D01*
X184377714Y-149614983D01*
X184226599Y-149849521D01*
X184414989Y-150035803D01*
X184422417Y-150039987D01*
X185095958Y-150159300D01*
X185751904Y-149843790D01*
X186197814Y-149270127D01*
X186408455Y-148542792D01*
X186452808Y-147455897D01*
X186418913Y-146804222D01*
X186383403Y-146049628D01*
G37*
%TD*%
D14*
%TO.C,SW64*%
X205500003Y-136200624D03*
X154500003Y-136200624D03*
X182500003Y-105600624D03*
X177500003Y-105600624D03*
X180000003Y-105600624D03*
D15*
X210100002Y-136200623D03*
D16*
X195100003Y-162354591D03*
X195100003Y-110046657D03*
D17*
X194500003Y-136200624D03*
X165500003Y-136200624D03*
D16*
X164900003Y-162354591D03*
X164900003Y-110046657D03*
D15*
X149900002Y-136200623D03*
%TD*%
D18*
%TO.C,H3*%
X59600008Y-36155629D03*
%TD*%
%TO.C,H2*%
X300250006Y-36205626D03*
%TD*%
D19*
%TO.C,J2*%
X182890003Y-29350632D03*
X177110003Y-29350632D03*
D20*
X183225002Y-30795631D03*
X182450002Y-30795631D03*
D21*
X181250002Y-30795631D03*
X180250002Y-30795631D03*
X179750002Y-30795631D03*
X178750002Y-30795631D03*
D20*
X177550002Y-30795631D03*
X176775002Y-30795631D03*
D21*
X178250002Y-30795631D03*
X179250002Y-30795631D03*
X180750002Y-30795631D03*
X181750002Y-30795631D03*
D22*
X184320002Y-29880631D03*
D23*
X184320002Y-25700631D03*
D22*
X175680002Y-29880631D03*
D23*
X175680002Y-25700631D03*
%TD*%
D24*
%TO.C,J4*%
X160000007Y-39781250D03*
D25*
X160000007Y-42321250D03*
X160000007Y-44861250D03*
X160000007Y-47401250D03*
X160000007Y-49941250D03*
X160000007Y-52481250D03*
X160000007Y-55021250D03*
D26*
X160250008Y-31401251D03*
X160250008Y-63401251D03*
X199750008Y-31401251D03*
X199750008Y-63401251D03*
%TD*%
D27*
%TO.C,J5*%
X156050005Y-53401251D03*
D28*
X156050004Y-51401250D03*
X156050004Y-49401250D03*
X156050004Y-47401250D03*
X156050004Y-45401250D03*
X156050004Y-43401250D03*
X156050004Y-41401250D03*
%TD*%
D18*
%TO.C,H1*%
X180000002Y-192855629D03*
%TD*%
D24*
%TO.C,J1*%
X176200001Y-68800628D03*
D25*
X178740001Y-68800628D03*
X181280001Y-68800628D03*
X183820001Y-68800628D03*
%TD*%
D29*
%TO.C,SW25*%
X126027847Y-154272369D03*
D30*
X126860969Y-148654193D03*
D31*
X121866555Y-151358601D03*
D30*
X120202470Y-147092629D03*
D29*
X117705263Y-148444833D03*
%TD*%
%TO.C,SW30*%
X141265367Y-170092145D03*
D30*
X143524192Y-164881031D03*
D31*
X138000006Y-166200639D03*
D30*
X137496738Y-161649329D03*
D29*
X134734645Y-162309133D03*
%TD*%
%TO.C,SW1*%
X66700846Y-49682722D03*
D30*
X66051489Y-44040353D03*
D31*
X61927207Y-47945260D03*
D30*
X59215709Y-44255344D03*
D29*
X57153568Y-46207798D03*
%TD*%
%TO.C,SW24*%
X121202285Y-122735168D03*
D30*
X120552928Y-117092799D03*
D31*
X116428646Y-120997706D03*
D30*
X113717148Y-117307790D03*
D29*
X111655007Y-119260244D03*
%TD*%
%TO.C,SW29*%
X138017489Y-132234202D03*
D30*
X137368132Y-126591833D03*
D31*
X133243850Y-130496740D03*
D30*
X130532352Y-126806824D03*
D29*
X128470211Y-128759278D03*
%TD*%
%TO.C,SW14*%
X85399976Y-109704210D03*
D30*
X84750619Y-104061841D03*
D31*
X80626337Y-107966748D03*
D30*
X77914839Y-104276832D03*
D29*
X75852698Y-106229286D03*
%TD*%
%TO.C,SW19*%
X104658523Y-112490276D03*
D30*
X104009166Y-106847907D03*
D31*
X99884884Y-110752814D03*
D30*
X97173386Y-107062898D03*
D29*
X95111245Y-109015352D03*
%TD*%
%TO.C,SW5*%
X40638904Y-121287318D03*
D30*
X39989547Y-115644949D03*
D31*
X35865265Y-119549856D03*
D30*
X33153767Y-115859940D03*
D29*
X31091626Y-117812394D03*
%TD*%
%TO.C,SW22*%
X134233238Y-86932872D03*
D30*
X133583881Y-81290503D03*
D31*
X129459599Y-85195410D03*
D30*
X126748101Y-81505494D03*
D29*
X124685960Y-83457948D03*
%TD*%
%TO.C,SW27*%
X151048460Y-96431900D03*
D30*
X150399103Y-90789531D03*
D31*
X146274821Y-94694438D03*
D30*
X143563323Y-91004522D03*
D29*
X141501182Y-92956976D03*
%TD*%
%TO.C,SW3*%
X53669861Y-85485023D03*
D30*
X53020504Y-79842654D03*
D31*
X48896222Y-83747561D03*
D30*
X46184724Y-80057645D03*
D29*
X44122583Y-82010099D03*
%TD*%
%TO.C,SW8*%
X72385458Y-89762850D03*
D30*
X71736101Y-84120481D03*
D31*
X67611819Y-88025388D03*
D30*
X64900321Y-84335472D03*
D29*
X62838180Y-86287926D03*
%TD*%
%TO.C,SW13*%
X91915470Y-91803055D03*
D30*
X91266113Y-86160686D03*
D31*
X87141831Y-90065593D03*
D30*
X84430333Y-86375677D03*
D29*
X82368192Y-88328131D03*
%TD*%
%TO.C,SW23*%
X127717761Y-104834052D03*
D30*
X127068404Y-99191683D03*
D31*
X122944122Y-103096590D03*
D30*
X120232624Y-99406674D03*
D29*
X118170483Y-101359128D03*
%TD*%
%TO.C,SW18*%
X111173989Y-94589136D03*
D30*
X110524632Y-88946767D03*
D31*
X106400350Y-92851674D03*
D30*
X103688852Y-89161758D03*
D29*
X101626711Y-91114212D03*
%TD*%
%TO.C,SW28*%
X144532970Y-114333043D03*
D30*
X143883613Y-108690674D03*
D31*
X139759331Y-112595581D03*
D30*
X137047833Y-108905665D03*
D29*
X134985692Y-110858119D03*
%TD*%
%TO.C,SW4*%
X47154401Y-103386183D03*
D30*
X46505044Y-97743814D03*
D31*
X42380762Y-101648721D03*
D30*
X39669264Y-97958805D03*
D29*
X37607123Y-99911259D03*
%TD*%
%TO.C,SW9*%
X65869944Y-107664011D03*
D30*
X65220587Y-102021642D03*
D31*
X61096305Y-105926549D03*
D30*
X58384807Y-102236633D03*
D29*
X56322666Y-104189087D03*
%TD*%
%TO.C,SW10*%
X59354482Y-125565150D03*
D30*
X58705125Y-119922781D03*
D31*
X54580843Y-123827688D03*
D30*
X51869345Y-120137772D03*
D29*
X49807204Y-122090226D03*
%TD*%
%TO.C,SW15*%
X78884494Y-127605348D03*
D30*
X78235137Y-121962979D03*
D31*
X74110855Y-125867886D03*
D30*
X71399357Y-122177970D03*
D29*
X69337216Y-124130424D03*
%TD*%
%TO.C,SW20*%
X107090862Y-142939771D03*
D30*
X106441505Y-137297402D03*
D31*
X102317223Y-141202309D03*
D30*
X99605725Y-137512393D03*
D29*
X97543584Y-139464847D03*
%TD*%
%TO.C,SW11*%
X104946428Y-56000783D03*
D30*
X104297071Y-50358414D03*
D31*
X100172789Y-54263321D03*
D30*
X97461291Y-50573405D03*
D29*
X95399150Y-52525859D03*
%TD*%
%TO.C,SW2*%
X60185360Y-67583876D03*
D30*
X59536003Y-61941507D03*
D31*
X55411721Y-65846414D03*
D30*
X52700223Y-62156498D03*
D29*
X50638082Y-64108952D03*
%TD*%
%TO.C,SW12*%
X98430941Y-73901908D03*
D30*
X97781584Y-68259539D03*
D31*
X93657302Y-72164446D03*
D30*
X90945804Y-68474530D03*
D29*
X88883663Y-70426984D03*
%TD*%
%TO.C,SW21*%
X140748726Y-69031736D03*
D30*
X140099369Y-63389367D03*
D31*
X135975087Y-67294274D03*
D30*
X133263589Y-63604358D03*
D29*
X131201448Y-65556812D03*
%TD*%
%TO.C,SW17*%
X117689486Y-76688003D03*
D30*
X117040129Y-71045634D03*
D31*
X112915847Y-74950541D03*
D30*
X110204349Y-71260625D03*
D29*
X108142208Y-73213079D03*
%TD*%
%TO.C,SW16*%
X124204969Y-58786841D03*
D30*
X123555612Y-53144472D03*
D31*
X119431330Y-57049379D03*
D30*
X116719832Y-53359463D03*
D29*
X114657691Y-55311917D03*
%TD*%
%TO.C,SW6*%
X85416415Y-53960575D03*
D30*
X84767058Y-48318206D03*
D31*
X80642776Y-52223113D03*
D30*
X77931278Y-48533197D03*
D29*
X75869137Y-50485651D03*
%TD*%
%TO.C,SW7*%
X78900928Y-71861716D03*
D30*
X78251571Y-66219347D03*
D31*
X74127289Y-70124254D03*
D30*
X71415791Y-66434338D03*
D29*
X69353650Y-68386792D03*
%TD*%
%TO.C,SW26*%
X157563945Y-78530750D03*
D30*
X156914588Y-72888381D03*
D31*
X152790306Y-76793288D03*
D30*
X150078808Y-73103372D03*
D29*
X148016667Y-75055826D03*
%TD*%
%TO.C,SW31*%
X211983362Y-75055830D03*
D30*
X207859080Y-71150922D03*
D31*
X207209723Y-76793292D03*
D30*
X202760763Y-75709569D03*
D29*
X202436084Y-78530754D03*
%TD*%
%TO.C,SW45*%
X262456435Y-139464846D03*
D30*
X258332153Y-135559938D03*
D31*
X257682796Y-141202308D03*
D30*
X253233836Y-140118585D03*
D29*
X252909157Y-142939770D03*
%TD*%
%TO.C,SW49*%
X284147318Y-106229299D03*
D30*
X280023036Y-102324391D03*
D31*
X279373679Y-107966761D03*
D30*
X274924719Y-106883038D03*
D29*
X274600040Y-109704223D03*
%TD*%
%TO.C,SW47*%
X271116361Y-70426999D03*
D30*
X266992079Y-66522091D03*
D31*
X266342722Y-72164461D03*
D30*
X261893762Y-71080738D03*
D29*
X261569083Y-73901923D03*
%TD*%
%TO.C,SW63*%
X206266909Y-177975828D03*
D30*
X202498657Y-173726325D03*
D31*
X201360006Y-179290629D03*
D30*
X197022428Y-177823278D03*
D29*
X196453103Y-180605430D03*
%TD*%
%TO.C,SW61*%
X163546909Y-180605412D03*
D30*
X162408258Y-175041108D03*
D31*
X158640006Y-179290611D03*
D30*
X155617229Y-175851059D03*
D29*
X153733103Y-177975810D03*
%TD*%
%TO.C,SW33*%
X225014315Y-110858116D03*
D30*
X220890033Y-106953208D03*
D31*
X220240676Y-112595578D03*
D30*
X215791716Y-111511855D03*
D29*
X215467037Y-114333040D03*
%TD*%
%TO.C,SW59*%
X322392906Y-99911248D03*
D30*
X318268624Y-96006340D03*
D31*
X317619267Y-101648710D03*
D30*
X313170307Y-100564987D03*
D29*
X312845628Y-103386172D03*
%TD*%
%TO.C,SW38*%
X241829564Y-101359114D03*
D30*
X237705282Y-97454206D03*
D31*
X237055925Y-103096576D03*
D30*
X232606965Y-102012853D03*
D29*
X232282286Y-104834038D03*
%TD*%
%TO.C,SW50*%
X290662806Y-124130441D03*
D30*
X286538524Y-120225533D03*
D31*
X285889167Y-125867903D03*
D30*
X281440207Y-124784180D03*
D29*
X281115528Y-127605365D03*
%TD*%
%TO.C,SW58*%
X315877420Y-82010086D03*
D30*
X311753138Y-78105178D03*
D31*
X311103781Y-83747548D03*
D30*
X306654821Y-82663825D03*
D29*
X306330142Y-85485010D03*
%TD*%
D32*
%TO.C,U4*%
X185350002Y-130540623D03*
D33*
X185350003Y-132320624D03*
X185350003Y-134100624D03*
X185350003Y-135880624D03*
X185350003Y-137660624D03*
X185350003Y-139440624D03*
X185350003Y-141220624D03*
X185350003Y-143000624D03*
X174650003Y-143890624D03*
X174650003Y-142110624D03*
X174650003Y-140330624D03*
X174650003Y-138550624D03*
X174650003Y-136770624D03*
X174650003Y-134990624D03*
X174650003Y-133210624D03*
X174650003Y-131430624D03*
%TD*%
D29*
%TO.C,SW43*%
X258373286Y-91114211D03*
D30*
X254249004Y-87209303D03*
D31*
X253599647Y-92851673D03*
D30*
X249150687Y-91767950D03*
D29*
X248826008Y-94589135D03*
%TD*%
%TO.C,SW57*%
X309361935Y-64108949D03*
D30*
X305237653Y-60204041D03*
D31*
X304588296Y-65846411D03*
D30*
X300139336Y-64762688D03*
D29*
X299814657Y-67583873D03*
%TD*%
%TO.C,SW52*%
X290646371Y-68386793D03*
D30*
X286522089Y-64481885D03*
D31*
X285872732Y-70124255D03*
D30*
X281423772Y-69040532D03*
D29*
X281099093Y-71861717D03*
%TD*%
%TO.C,SW44*%
X264888783Y-109015343D03*
D30*
X260764501Y-105110435D03*
D31*
X260115144Y-110752805D03*
D30*
X255666184Y-109669082D03*
D29*
X255341505Y-112490267D03*
%TD*%
%TO.C,SW41*%
X245342328Y-55311928D03*
D30*
X241218046Y-51407020D03*
D31*
X240568689Y-57049390D03*
D30*
X236119729Y-55965667D03*
D29*
X235795050Y-58786852D03*
%TD*%
%TO.C,SW40*%
X242294749Y-148444818D03*
D30*
X237300335Y-145740409D03*
D31*
X238133457Y-151358586D03*
D30*
X233555604Y-151463266D03*
D29*
X233972165Y-154272354D03*
%TD*%
%TO.C,SW62*%
X185080019Y-182110618D03*
D30*
X182540019Y-177030618D03*
D31*
X180000019Y-182110618D03*
D30*
X176190019Y-179570618D03*
D29*
X174920019Y-182110618D03*
%TD*%
%TO.C,SW46*%
X264600864Y-52525863D03*
D30*
X260476582Y-48620955D03*
D31*
X259827225Y-54263325D03*
D30*
X255378265Y-53179602D03*
D29*
X255053586Y-56000787D03*
%TD*%
%TO.C,SW51*%
X284130888Y-50485662D03*
D30*
X280006606Y-46580754D03*
D31*
X279357249Y-52223124D03*
D30*
X274908289Y-51139401D03*
D29*
X274583610Y-53960586D03*
%TD*%
%TO.C,SW60*%
X328908382Y-117812386D03*
D30*
X324784100Y-113907478D03*
D31*
X324134743Y-119549848D03*
D30*
X319685783Y-118466125D03*
D29*
X319361104Y-121287310D03*
%TD*%
%TO.C,SW37*%
X235314071Y-83457979D03*
D30*
X231189789Y-79553071D03*
D31*
X230540432Y-85195441D03*
D30*
X226091472Y-84111718D03*
D29*
X225766793Y-86932903D03*
%TD*%
%TO.C,SW54*%
X303677336Y-104189090D03*
D30*
X299553054Y-100284182D03*
D31*
X298903697Y-105926552D03*
D30*
X294454737Y-104842829D03*
D29*
X294130058Y-107664014D03*
%TD*%
%TO.C,SW55*%
X310192826Y-122090236D03*
D30*
X306068544Y-118185328D03*
D31*
X305419187Y-123827698D03*
D30*
X300970227Y-122743975D03*
D29*
X300645548Y-125565160D03*
%TD*%
%TO.C,SW48*%
X277631841Y-88328143D03*
D30*
X273507559Y-84423235D03*
D31*
X272858202Y-90065605D03*
D30*
X268409242Y-88981882D03*
D29*
X268084563Y-91803067D03*
%TD*%
%TO.C,SW53*%
X297161852Y-86287936D03*
D30*
X293037570Y-82383028D03*
D31*
X292388213Y-88025398D03*
D30*
X287939253Y-86941675D03*
D29*
X287614574Y-89762860D03*
%TD*%
%TO.C,SW35*%
X225265375Y-162309125D03*
D30*
X219741189Y-160989517D03*
D31*
X222000014Y-166200631D03*
D30*
X217605240Y-167486580D03*
D29*
X218734653Y-170092137D03*
%TD*%
%TO.C,SW34*%
X231529796Y-128759260D03*
D30*
X227405514Y-124854352D03*
D31*
X226756157Y-130496722D03*
D30*
X222307197Y-129412999D03*
D29*
X221982518Y-132234184D03*
%TD*%
%TO.C,SW42*%
X251857804Y-73213074D03*
D30*
X247733522Y-69308166D03*
D31*
X247084165Y-74950536D03*
D30*
X242635205Y-73866813D03*
D29*
X242310526Y-76687998D03*
%TD*%
%TO.C,SW56*%
X302846457Y-46207816D03*
D30*
X298722175Y-42302908D03*
D31*
X298072818Y-47945278D03*
D30*
X293623858Y-46861555D03*
D29*
X293299179Y-49682740D03*
%TD*%
%TO.C,SW36*%
X228798578Y-65556840D03*
D30*
X224674296Y-61651932D03*
D31*
X224024939Y-67294302D03*
D30*
X219575979Y-66210579D03*
D29*
X219251300Y-69031764D03*
%TD*%
%TO.C,SW39*%
X248345037Y-119260263D03*
D30*
X244220755Y-115355355D03*
D31*
X243571398Y-120997725D03*
D30*
X239122438Y-119914002D03*
D29*
X238797759Y-122735187D03*
%TD*%
%TO.C,SW32*%
X218498834Y-92956979D03*
D30*
X214374552Y-89052071D03*
D31*
X213725195Y-94694441D03*
D30*
X209276235Y-93610718D03*
D29*
X208951556Y-96431903D03*
%TD*%
M02*
