%TF.GenerationSoftware,KiCad,Pcbnew,7.0.6*%
%TF.CreationDate,2023-07-29T11:05:59+01:00*%
%TF.ProjectId,Honeydew,486f6e65-7964-4657-972e-6b696361645f,V3.0*%
%TF.SameCoordinates,Original*%
%TF.FileFunction,Other,Comment*%
%FSLAX46Y46*%
G04 Gerber Fmt 4.6, Leading zero omitted, Abs format (unit mm)*
G04 Created by KiCad (PCBNEW 7.0.6) date 2023-07-29 11:05:59*
%MOMM*%
%LPD*%
G01*
G04 APERTURE LIST*
%ADD10C,0.070000*%
%ADD11C,0.100000*%
%ADD12C,0.150000*%
G04 APERTURE END LIST*
D10*
X187161904Y-99081407D02*
X187161904Y-98681407D01*
X187390475Y-99081407D02*
X187219046Y-98852836D01*
X187390475Y-98681407D02*
X187161904Y-98909979D01*
X187561904Y-98871883D02*
X187695237Y-98871883D01*
X187752380Y-99081407D02*
X187561904Y-99081407D01*
X187561904Y-99081407D02*
X187561904Y-98681407D01*
X187561904Y-98681407D02*
X187752380Y-98681407D01*
X187923809Y-98871883D02*
X188057142Y-98871883D01*
X188114285Y-99081407D02*
X187923809Y-99081407D01*
X187923809Y-99081407D02*
X187923809Y-98681407D01*
X187923809Y-98681407D02*
X188114285Y-98681407D01*
X188285714Y-99081407D02*
X188285714Y-98681407D01*
X188285714Y-98681407D02*
X188438095Y-98681407D01*
X188438095Y-98681407D02*
X188476190Y-98700455D01*
X188476190Y-98700455D02*
X188495237Y-98719502D01*
X188495237Y-98719502D02*
X188514285Y-98757598D01*
X188514285Y-98757598D02*
X188514285Y-98814740D01*
X188514285Y-98814740D02*
X188495237Y-98852836D01*
X188495237Y-98852836D02*
X188476190Y-98871883D01*
X188476190Y-98871883D02*
X188438095Y-98890931D01*
X188438095Y-98890931D02*
X188285714Y-98890931D01*
X188761904Y-98681407D02*
X188838095Y-98681407D01*
X188838095Y-98681407D02*
X188876190Y-98700455D01*
X188876190Y-98700455D02*
X188914285Y-98738550D01*
X188914285Y-98738550D02*
X188933333Y-98814740D01*
X188933333Y-98814740D02*
X188933333Y-98948074D01*
X188933333Y-98948074D02*
X188914285Y-99024264D01*
X188914285Y-99024264D02*
X188876190Y-99062360D01*
X188876190Y-99062360D02*
X188838095Y-99081407D01*
X188838095Y-99081407D02*
X188761904Y-99081407D01*
X188761904Y-99081407D02*
X188723809Y-99062360D01*
X188723809Y-99062360D02*
X188685714Y-99024264D01*
X188685714Y-99024264D02*
X188666666Y-98948074D01*
X188666666Y-98948074D02*
X188666666Y-98814740D01*
X188666666Y-98814740D02*
X188685714Y-98738550D01*
X188685714Y-98738550D02*
X188723809Y-98700455D01*
X188723809Y-98700455D02*
X188761904Y-98681407D01*
X189104762Y-98681407D02*
X189104762Y-99005217D01*
X189104762Y-99005217D02*
X189123809Y-99043312D01*
X189123809Y-99043312D02*
X189142857Y-99062360D01*
X189142857Y-99062360D02*
X189180952Y-99081407D01*
X189180952Y-99081407D02*
X189257143Y-99081407D01*
X189257143Y-99081407D02*
X189295238Y-99062360D01*
X189295238Y-99062360D02*
X189314285Y-99043312D01*
X189314285Y-99043312D02*
X189333333Y-99005217D01*
X189333333Y-99005217D02*
X189333333Y-98681407D01*
X189466667Y-98681407D02*
X189695238Y-98681407D01*
X189580952Y-99081407D02*
X189580952Y-98681407D01*
D11*
%TO.C,H3*%
X61749970Y-57987214D02*
G75*
G03*
X61749970Y-57987214I-650000J0D01*
G01*
D12*
%TO.C,H12*%
X226199979Y-204229979D02*
G75*
G03*
X226199979Y-204229979I-2200000J0D01*
G01*
D11*
%TO.C,H2*%
X335649973Y-57987214D02*
G75*
G03*
X335649973Y-57987214I-650000J0D01*
G01*
D12*
%TO.C,H9*%
X161999973Y-190729980D02*
G75*
G03*
X161999973Y-190729980I-3000000J0D01*
G01*
%TO.C,H14*%
X174199995Y-204230010D02*
G75*
G03*
X174199995Y-204230010I-2200000J0D01*
G01*
%TO.C,H8*%
X239999974Y-190729981D02*
G75*
G03*
X239999974Y-190729981I-3000000J0D01*
G01*
%TO.C,H15*%
X226199973Y-191330009D02*
G75*
G03*
X226199973Y-191330009I-2200000J0D01*
G01*
%TO.C,H13*%
X174199999Y-191230010D02*
G75*
G03*
X174199999Y-191230010I-2200000J0D01*
G01*
%TO.C,H10*%
X307050002Y-59629981D02*
G75*
G03*
X307050002Y-59629981I-3000000J0D01*
G01*
D11*
%TO.C,H1*%
X198649965Y-188230010D02*
G75*
G03*
X198649965Y-188230010I-650000J0D01*
G01*
D12*
%TO.C,H11*%
X95050000Y-59629980D02*
G75*
G03*
X95050000Y-59629980I-3000000J0D01*
G01*
%TO.C,H7*%
X323299974Y-155930010D02*
G75*
G03*
X323299974Y-155930010I-3000000J0D01*
G01*
%TO.C,H17*%
X191200000Y-218200000D02*
G75*
G03*
X191200000Y-218200000I-3000000J0D01*
G01*
%TO.C,H6*%
X78699978Y-155929979D02*
G75*
G03*
X78699978Y-155929979I-3000000J0D01*
G01*
%TO.C,H16*%
X210800000Y-218200000D02*
G75*
G03*
X210800000Y-218200000I-3000000J0D01*
G01*
%TO.C,H4*%
X228549999Y-59629979D02*
G75*
G03*
X228549999Y-59629979I-3000000J0D01*
G01*
%TO.C,H5*%
X173449998Y-59629980D02*
G75*
G03*
X173449998Y-59629980I-3000000J0D01*
G01*
%TD*%
M02*
