%TF.GenerationSoftware,KiCad,Pcbnew,(7.0.0)*%
%TF.CreationDate,2023-03-31T07:04:06+01:00*%
%TF.ProjectId,Honeydew,486f6e65-7964-4657-972e-6b696361645f,rev?*%
%TF.SameCoordinates,Original*%
%TF.FileFunction,Profile,NP*%
%FSLAX46Y46*%
G04 Gerber Fmt 4.6, Leading zero omitted, Abs format (unit mm)*
G04 Created by KiCad (PCBNEW (7.0.0)) date 2023-03-31 07:04:06*
%MOMM*%
%LPD*%
G01*
G04 APERTURE LIST*
%TA.AperFunction,Profile*%
%ADD10C,0.100000*%
%TD*%
G04 APERTURE END LIST*
D10*
X50051536Y-30685263D02*
X17611099Y-119813659D01*
X301948419Y-30685280D02*
G75*
G03*
X300745766Y-29712621I-1409319J-512720D01*
G01*
X132142353Y-176296208D02*
G75*
G03*
X84639432Y-145805431I-95439323J-96440282D01*
G01*
X142976472Y-182954561D02*
G75*
G03*
X209023734Y-182954558I33023628J85937761D01*
G01*
X267360566Y-145805425D02*
G75*
G03*
X219857649Y-176296210I47936434J-126931075D01*
G01*
X167757170Y-19763071D02*
X167757163Y-23200630D01*
X138560157Y-23697140D02*
G75*
G03*
X51254234Y-29712621I-469657J-629750360D01*
G01*
X213439843Y-23697137D02*
X184742863Y-23697060D01*
X168257152Y-19263079D02*
X183742866Y-19263084D01*
X334388901Y-119813659D02*
X301948464Y-30685263D01*
X51254236Y-29712638D02*
G75*
G03*
X50051537Y-30685263I206664J-1485462D01*
G01*
X184242916Y-19763058D02*
G75*
G03*
X183742866Y-19263084I-499816J158D01*
G01*
X168257152Y-19263070D02*
G75*
G03*
X167757170Y-19763071I48J-500030D01*
G01*
X184242870Y-23197087D02*
X184242852Y-19763058D01*
X333492373Y-121736225D02*
G75*
G03*
X334388900Y-119813659I-512973J1409525D01*
G01*
X18507623Y-121736239D02*
X84639432Y-145805431D01*
X184242940Y-23197087D02*
G75*
G03*
X184742863Y-23697060I499860J-113D01*
G01*
X17611032Y-119813634D02*
G75*
G03*
X18507602Y-121736292I1409568J-513066D01*
G01*
X167257185Y-23700618D02*
X138560157Y-23697137D01*
X132142347Y-176296214D02*
G75*
G03*
X142976266Y-182954558I27110753J31969214D01*
G01*
X300745766Y-29712618D02*
G75*
G03*
X213439843Y-23697137I-86836266J-623734882D01*
G01*
X167257185Y-23700563D02*
G75*
G03*
X167757163Y-23200630I515J499463D01*
G01*
X209023731Y-182954551D02*
G75*
G03*
X219857647Y-176296208I-16276831J38627551D01*
G01*
X267360568Y-145805431D02*
X333492377Y-121736239D01*
%TO.C,D103*%
X152073113Y-176715096D02*
X155550446Y-177646844D01*
X151270774Y-179709466D02*
X152073113Y-176715096D01*
X155550446Y-177646844D02*
X154748107Y-180641214D01*
X154748107Y-180641214D02*
X151270774Y-179709466D01*
%TO.C,D104*%
X174199788Y-180109405D02*
X177799788Y-180109405D01*
X174199788Y-183209405D02*
X174199788Y-180109405D01*
X177799788Y-180109405D02*
X177799788Y-183209405D01*
X177799788Y-183209405D02*
X174199788Y-183209405D01*
%TO.C,D105*%
X196474319Y-177640208D02*
X199951652Y-176708460D01*
X197276658Y-180634578D02*
X196474319Y-177640208D01*
X199951652Y-176708460D02*
X200753991Y-179702830D01*
X200753991Y-179702830D02*
X197276658Y-180634578D01*
%TO.C,D125*%
X281292182Y-124289926D02*
X284675075Y-123058653D01*
X282352445Y-127202973D02*
X281292182Y-124289926D01*
X284675075Y-123058653D02*
X285735338Y-125971700D01*
X285735338Y-125971700D02*
X282352445Y-127202973D01*
%TO.C,D75*%
X42110320Y-80938324D02*
X45493213Y-82169597D01*
X41050057Y-83851371D02*
X42110320Y-80938324D01*
X45493213Y-82169597D02*
X44432950Y-85082644D01*
X44432950Y-85082644D02*
X41050057Y-83851371D01*
%TO.C,D102*%
X130387904Y-161679405D02*
X132701940Y-164437165D01*
X128013166Y-163672047D02*
X130387904Y-161679405D01*
X132701940Y-164437165D02*
X130327202Y-166429807D01*
X130327202Y-166429807D02*
X128013166Y-163672047D01*
%TO.C,D81*%
X56633024Y-107261624D02*
X53250131Y-106030351D01*
X57693287Y-104348577D02*
X56633024Y-107261624D01*
X53250131Y-106030351D02*
X54310394Y-103117304D01*
X54310394Y-103117304D02*
X57693287Y-104348577D01*
%TO.C,D106*%
X202612741Y-75215324D02*
X205995634Y-73984051D01*
X203673004Y-78128371D02*
X202612741Y-75215324D01*
X205995634Y-73984051D02*
X207055897Y-76897098D01*
X207055897Y-76897098D02*
X203673004Y-78128371D01*
%TO.C,D67*%
X185316150Y-111263954D02*
X188433842Y-113063954D01*
X183766150Y-113948632D02*
X185316150Y-111263954D01*
X188433842Y-113063954D02*
X186883842Y-115748632D01*
X186883842Y-115748632D02*
X183766150Y-113948632D01*
%TO.C,D101*%
X128780565Y-131831797D02*
X125397672Y-130600524D01*
X129840828Y-128918750D02*
X128780565Y-131831797D01*
X125397672Y-130600524D02*
X126457935Y-127687477D01*
X126457935Y-127687477D02*
X129840828Y-128918750D01*
%TO.C,D134*%
X317465445Y-101752521D02*
X314082552Y-102983794D01*
X316405182Y-98839474D02*
X317465445Y-101752521D01*
X314082552Y-102983794D02*
X313022289Y-100070747D01*
X313022289Y-100070747D02*
X316405182Y-98839474D01*
%TO.C,D78*%
X73856868Y-49413870D02*
X77239761Y-50645143D01*
X72796605Y-52326917D02*
X73856868Y-49413870D01*
X77239761Y-50645143D02*
X76179498Y-53558190D01*
X76179498Y-53558190D02*
X72796605Y-52326917D01*
%TO.C,D98*%
X146004375Y-73984049D02*
X149387268Y-75215322D01*
X144944112Y-76897096D02*
X146004375Y-73984049D01*
X149387268Y-75215322D02*
X148327005Y-78128369D01*
X148327005Y-78128369D02*
X144944112Y-76897096D01*
%TO.C,D90*%
X99614441Y-90042438D02*
X102997334Y-91273711D01*
X98554178Y-92955485D02*
X99614441Y-90042438D01*
X102997334Y-91273711D02*
X101937071Y-94186758D01*
X101937071Y-94186758D02*
X98554178Y-92955485D01*
%TO.C,D100*%
X132973415Y-109786333D02*
X136356308Y-111017606D01*
X131913152Y-112699380D02*
X132973415Y-109786333D01*
X136356308Y-111017606D02*
X135296045Y-113930653D01*
X135296045Y-113930653D02*
X131913152Y-112699380D01*
%TO.C,D87*%
X67324932Y-123058641D02*
X70707825Y-124289914D01*
X66264669Y-125971688D02*
X67324932Y-123058641D01*
X70707825Y-124289914D02*
X69647562Y-127202961D01*
X69647562Y-127202961D02*
X66264669Y-125971688D01*
%TO.C,D68*%
X197750009Y-129199989D02*
X197750009Y-132799989D01*
X194650009Y-129199989D02*
X197750009Y-129199989D01*
X197750009Y-132799989D02*
X194650009Y-132799989D01*
X194650009Y-132799989D02*
X194650009Y-129199989D01*
%TO.C,D84*%
X89194014Y-73499523D02*
X85811121Y-72268250D01*
X90254277Y-70586476D02*
X89194014Y-73499523D01*
X85811121Y-72268250D02*
X86871384Y-69355203D01*
X86871384Y-69355203D02*
X90254277Y-70586476D01*
%TO.C,D91*%
X95421601Y-112087883D02*
X92038708Y-110856610D01*
X96481864Y-109174836D02*
X95421601Y-112087883D01*
X92038708Y-110856610D02*
X93098971Y-107943563D01*
X93098971Y-107943563D02*
X96481864Y-109174836D01*
%TO.C,D83*%
X93386877Y-51454067D02*
X96769770Y-52685340D01*
X92326614Y-54367114D02*
X93386877Y-51454067D01*
X96769770Y-52685340D02*
X95709507Y-55598387D01*
X95709507Y-55598387D02*
X92326614Y-54367114D01*
%TO.C,D95*%
X116158205Y-100287354D02*
X119541098Y-101518627D01*
X115097942Y-103200401D02*
X116158205Y-100287354D01*
X119541098Y-101518627D02*
X118480835Y-104431674D01*
X118480835Y-104431674D02*
X115097942Y-103200401D01*
%TO.C,D86*%
X76163048Y-109301826D02*
X72780155Y-108070553D01*
X77223311Y-106388779D02*
X76163048Y-109301826D01*
X72780155Y-108070553D02*
X73840418Y-105157506D01*
X73840418Y-105157506D02*
X77223311Y-106388779D01*
%TO.C,D129*%
X298749870Y-106030358D02*
X295366977Y-107261631D01*
X297689607Y-103117311D02*
X298749870Y-106030358D01*
X295366977Y-107261631D02*
X294306714Y-104348584D01*
X294306714Y-104348584D02*
X297689607Y-103117311D01*
%TO.C,U4*%
X180250000Y-139320000D02*
X180250000Y-123570000D01*
X179750000Y-139820000D02*
X172250000Y-139820000D01*
X179750000Y-123070000D02*
X172250000Y-123070000D01*
X171750000Y-123570000D02*
X171750000Y-139320000D01*
X179750000Y-139820000D02*
G75*
G03*
X180250000Y-139320000I-1J500001D01*
G01*
X180250000Y-123570000D02*
G75*
G03*
X179750000Y-123070000I-499998J2D01*
G01*
X171750000Y-139320000D02*
G75*
G03*
X172250000Y-139820000I500000J0D01*
G01*
X172250000Y-123070000D02*
G75*
G03*
X171750000Y-123570000I0J-500000D01*
G01*
%TO.C,D93*%
X129189163Y-64485022D02*
X132572056Y-65716295D01*
X128128900Y-67398069D02*
X129189163Y-64485022D01*
X132572056Y-65716295D02*
X131511793Y-68629342D01*
X131511793Y-68629342D02*
X128128900Y-67398069D01*
%TO.C,D127*%
X285718899Y-70228049D02*
X282336006Y-71459322D01*
X284658636Y-67315002D02*
X285718899Y-70228049D01*
X282336006Y-71459322D02*
X281275743Y-68546275D01*
X281275743Y-68546275D02*
X284658636Y-67315002D01*
%TO.C,D130*%
X300822203Y-122249740D02*
X304205096Y-121018467D01*
X301882466Y-125162787D02*
X300822203Y-122249740D01*
X304205096Y-121018467D02*
X305265359Y-123931514D01*
X305265359Y-123931514D02*
X301882466Y-125162787D01*
%TO.C,D124*%
X279219855Y-108070548D02*
X275836962Y-109301821D01*
X278159592Y-105157501D02*
X279219855Y-108070548D01*
X275836962Y-109301821D02*
X274776699Y-106388774D01*
X274776699Y-106388774D02*
X278159592Y-105157501D01*
%TO.C,D107*%
X213571370Y-94798242D02*
X210188477Y-96029515D01*
X212511107Y-91885195D02*
X213571370Y-94798242D01*
X210188477Y-96029515D02*
X209128214Y-93116468D01*
X209128214Y-93116468D02*
X212511107Y-91885195D01*
%TO.C,D85*%
X80355912Y-87256350D02*
X83738805Y-88487623D01*
X79295649Y-90169397D02*
X80355912Y-87256350D01*
X83738805Y-88487623D02*
X82678542Y-91400670D01*
X82678542Y-91400670D02*
X79295649Y-90169397D01*
%TO.C,D92*%
X95531322Y-138393060D02*
X98914215Y-139624333D01*
X94471059Y-141306107D02*
X95531322Y-138393060D01*
X98914215Y-139624333D02*
X97853952Y-142537380D01*
X97853952Y-142537380D02*
X94471059Y-141306107D01*
%TO.C,D73*%
X55141287Y-45136024D02*
X58524180Y-46367297D01*
X54081024Y-48049071D02*
X55141287Y-45136024D01*
X58524180Y-46367297D02*
X57463917Y-49280344D01*
X57463917Y-49280344D02*
X54081024Y-48049071D01*
%TO.C,D108*%
X215643684Y-111017612D02*
X219026577Y-109786339D01*
X216703947Y-113930659D02*
X215643684Y-111017612D01*
X219026577Y-109786339D02*
X220086840Y-112699386D01*
X220086840Y-112699386D02*
X216703947Y-113930659D01*
%TO.C,D112*%
X230386603Y-85299239D02*
X227003710Y-86530512D01*
X229326340Y-82386192D02*
X230386603Y-85299239D01*
X227003710Y-86530512D02*
X225943447Y-83617465D01*
X225943447Y-83617465D02*
X229326340Y-82386192D01*
%TO.C,D131*%
X293475831Y-46367299D02*
X296858724Y-45136026D01*
X294536094Y-49280346D02*
X293475831Y-46367299D01*
X296858724Y-45136026D02*
X297918987Y-48049073D01*
X297918987Y-48049073D02*
X294536094Y-49280346D01*
%TO.C,D76*%
X37917479Y-102983801D02*
X34534586Y-101752528D01*
X38977742Y-100070754D02*
X37917479Y-102983801D01*
X34534586Y-101752528D02*
X35594849Y-98839481D01*
X35594849Y-98839481D02*
X38977742Y-100070754D01*
%TO.C,D89*%
X108452562Y-76285599D02*
X105069669Y-75054326D01*
X109512825Y-73372552D02*
X108452562Y-76285599D01*
X105069669Y-75054326D02*
X106129932Y-72141279D01*
X106129932Y-72141279D02*
X109512825Y-73372552D01*
%TO.C,D117*%
X246930341Y-75054332D02*
X243547448Y-76285605D01*
X245870078Y-72141285D02*
X246930341Y-75054332D01*
X243547448Y-76285605D02*
X242487185Y-73372558D01*
X242487185Y-73372558D02*
X245870078Y-72141285D01*
%TO.C,D96*%
X111965356Y-122332788D02*
X108582463Y-121101515D01*
X113025619Y-119419741D02*
X111965356Y-122332788D01*
X108582463Y-121101515D02*
X109642726Y-118188468D01*
X109642726Y-118188468D02*
X113025619Y-119419741D01*
%TO.C,D77*%
X29079351Y-116740613D02*
X32462244Y-117971886D01*
X28019088Y-119653660D02*
X29079351Y-116740613D01*
X32462244Y-117971886D02*
X31401981Y-120884933D01*
X31401981Y-120884933D02*
X28019088Y-119653660D01*
%TO.C,D113*%
X232458927Y-101518601D02*
X235841820Y-100287328D01*
X233519190Y-104431648D02*
X232458927Y-101518601D01*
X235841820Y-100287328D02*
X236902083Y-103200375D01*
X236902083Y-103200375D02*
X233519190Y-104431648D01*
%TO.C,D71*%
X154249998Y-132800005D02*
X154249998Y-129200005D01*
X157349998Y-132800005D02*
X154249998Y-132800005D01*
X154249998Y-129200005D02*
X157349998Y-129200005D01*
X157349998Y-129200005D02*
X157349998Y-132800005D01*
%TO.C,D82*%
X47794918Y-121018443D02*
X51177811Y-122249716D01*
X46734655Y-123931490D02*
X47794918Y-121018443D01*
X51177811Y-122249716D02*
X50117548Y-125162763D01*
X50117548Y-125162763D02*
X46734655Y-123931490D01*
%TO.C,D132*%
X304434476Y-65950226D02*
X301051583Y-67181499D01*
X303374213Y-63037179D02*
X304434476Y-65950226D01*
X301051583Y-67181499D02*
X299991320Y-64268452D01*
X299991320Y-64268452D02*
X303374213Y-63037179D01*
%TO.C,D69*%
X188433858Y-148936050D02*
X185316166Y-150736050D01*
X186883858Y-146251372D02*
X188433858Y-148936050D01*
X185316166Y-150736050D02*
X183766166Y-148051372D01*
X183766166Y-148051372D02*
X186883858Y-146251372D01*
%TO.C,D122*%
X266188877Y-72268268D02*
X262805984Y-73499541D01*
X265128614Y-69355221D02*
X266188877Y-72268268D01*
X262805984Y-73499541D02*
X261745721Y-70586494D01*
X261745721Y-70586494D02*
X265128614Y-69355221D01*
%TO.C,D99*%
X141811545Y-96029498D02*
X138428652Y-94798225D01*
X142871808Y-93116451D02*
X141811545Y-96029498D01*
X138428652Y-94798225D02*
X139488915Y-91885178D01*
X139488915Y-91885178D02*
X142871808Y-93116451D01*
%TO.C,D80*%
X60825917Y-85216154D02*
X64208810Y-86447427D01*
X59765654Y-88129201D02*
X60825917Y-85216154D01*
X64208810Y-86447427D02*
X63148547Y-89360474D01*
X63148547Y-89360474D02*
X59765654Y-88129201D01*
%TO.C,D109*%
X226602330Y-130600529D02*
X223219437Y-131831802D01*
X225542067Y-127687482D02*
X226602330Y-130600529D01*
X223219437Y-131831802D02*
X222159174Y-128918755D01*
X222159174Y-128918755D02*
X225542067Y-127687482D01*
%TO.C,D133*%
X306506797Y-82169584D02*
X309889690Y-80938311D01*
X307567060Y-85082631D02*
X306506797Y-82169584D01*
X309889690Y-80938311D02*
X310949953Y-83851358D01*
X310949953Y-83851358D02*
X307567060Y-85082631D01*
%TO.C,D126*%
X274760272Y-50645145D02*
X278143165Y-49413872D01*
X275820535Y-53558192D02*
X274760272Y-50645145D01*
X278143165Y-49413872D02*
X279203428Y-52326919D01*
X279203428Y-52326919D02*
X275820535Y-53558192D01*
%TO.C,D111*%
X219427951Y-65716317D02*
X222810844Y-64485044D01*
X220488214Y-68629364D02*
X219427951Y-65716317D01*
X222810844Y-64485044D02*
X223871107Y-67398091D01*
X223871107Y-67398091D02*
X220488214Y-68629364D01*
%TO.C,D70*%
X166683848Y-150736050D02*
X163566156Y-148936050D01*
X168233848Y-148051372D02*
X166683848Y-150736050D01*
X163566156Y-148936050D02*
X165116156Y-146251372D01*
X165116156Y-146251372D02*
X168233848Y-148051372D01*
%TO.C,D114*%
X243417556Y-121101532D02*
X240034663Y-122332805D01*
X242357293Y-118188485D02*
X243417556Y-121101532D01*
X240034663Y-122332805D02*
X238974400Y-119419758D01*
X238974400Y-119419758D02*
X242357293Y-118188485D01*
%TO.C,D123*%
X268261220Y-88487631D02*
X271644113Y-87256358D01*
X269321483Y-91400678D02*
X268261220Y-88487631D01*
X271644113Y-87256358D02*
X272704376Y-90169405D01*
X272704376Y-90169405D02*
X269321483Y-91400678D01*
%TO.C,D135*%
X319537769Y-117971880D02*
X322920662Y-116740607D01*
X320598032Y-120884927D02*
X319537769Y-117971880D01*
X322920662Y-116740607D02*
X323980925Y-119653654D01*
X323980925Y-119653654D02*
X320598032Y-120884927D01*
%TO.C,D128*%
X287791235Y-86447440D02*
X291174128Y-85216167D01*
X288851498Y-89360487D02*
X287791235Y-86447440D01*
X291174128Y-85216167D02*
X292234391Y-88129214D01*
X292234391Y-88129214D02*
X288851498Y-89360487D01*
%TO.C,D97*%
X114540805Y-147752571D02*
X117489752Y-149817446D01*
X112762718Y-150291942D02*
X114540805Y-147752571D01*
X117489752Y-149817446D02*
X115711665Y-152356817D01*
X115711665Y-152356817D02*
X112762718Y-150291942D01*
%TO.C,D72*%
X163566169Y-113063953D02*
X166683861Y-111263953D01*
X165116169Y-115748631D02*
X163566169Y-113063953D01*
X166683861Y-111263953D02*
X168233861Y-113948631D01*
X168233861Y-113948631D02*
X165116169Y-115748631D01*
%TO.C,D94*%
X124996303Y-86530484D02*
X121613410Y-85299211D01*
X126056566Y-83617437D02*
X124996303Y-86530484D01*
X121613410Y-85299211D02*
X122673673Y-82386164D01*
X122673673Y-82386164D02*
X126056566Y-83617437D01*
%TO.C,D119*%
X259961306Y-110856614D02*
X256578413Y-112087887D01*
X258901043Y-107943567D02*
X259961306Y-110856614D01*
X256578413Y-112087887D02*
X255518150Y-109174840D01*
X255518150Y-109174840D02*
X258901043Y-107943567D01*
%TO.C,D120*%
X253085814Y-139624336D02*
X256468707Y-138393063D01*
X254146077Y-142537383D02*
X253085814Y-139624336D01*
X256468707Y-138393063D02*
X257528970Y-141306110D01*
X257528970Y-141306110D02*
X254146077Y-142537383D01*
%TO.C,D115*%
X234494418Y-149811691D02*
X237443365Y-147746816D01*
X236272505Y-152351062D02*
X234494418Y-149811691D01*
X237443365Y-147746816D02*
X239221452Y-150286187D01*
X239221452Y-150286187D02*
X236272505Y-152351062D01*
%TO.C,D116*%
X235971692Y-55471417D02*
X239354585Y-54240144D01*
X237031955Y-58384464D02*
X235971692Y-55471417D01*
X239354585Y-54240144D02*
X240414848Y-57153191D01*
X240414848Y-57153191D02*
X237031955Y-58384464D01*
%TO.C,D110*%
X219293179Y-164436242D02*
X221607215Y-161678482D01*
X221667917Y-166428884D02*
X219293179Y-164436242D01*
X221607215Y-161678482D02*
X223981953Y-163671124D01*
X223981953Y-163671124D02*
X221667917Y-166428884D01*
%TO.C,D74*%
X50948431Y-67181495D02*
X47565538Y-65950222D01*
X52008694Y-64268448D02*
X50948431Y-67181495D01*
X47565538Y-65950222D02*
X48625801Y-63037175D01*
X48625801Y-63037175D02*
X52008694Y-64268448D01*
%TO.C,D79*%
X69664012Y-71459322D02*
X66281119Y-70228049D01*
X70724275Y-68546275D02*
X69664012Y-71459322D01*
X66281119Y-70228049D02*
X67341382Y-67315002D01*
X67341382Y-67315002D02*
X70724275Y-68546275D01*
%TO.C,D121*%
X255230244Y-52685352D02*
X258613137Y-51454079D01*
X256290507Y-55598399D02*
X255230244Y-52685352D01*
X258613137Y-51454079D02*
X259673400Y-54367126D01*
X259673400Y-54367126D02*
X256290507Y-55598399D01*
%TO.C,D88*%
X112645421Y-54240132D02*
X116028314Y-55471405D01*
X111585158Y-57153179D02*
X112645421Y-54240132D01*
X116028314Y-55471405D02*
X114968051Y-58384452D01*
X114968051Y-58384452D02*
X111585158Y-57153179D01*
%TO.C,D118*%
X249002677Y-91273718D02*
X252385570Y-90042445D01*
X250062940Y-94186765D02*
X249002677Y-91273718D01*
X252385570Y-90042445D02*
X253445833Y-92955492D01*
X253445833Y-92955492D02*
X250062940Y-94186765D01*
%TD*%
M02*
