M48
; DRILL file {KiCad (7.0.0)} date Wed Apr 19 00:26:00 2023
; FORMAT={-:-/ absolute / inch / decimal}
; #@! TF.CreationDate,2023-04-19T00:26:00+01:00
; #@! TF.GenerationSoftware,Kicad,Pcbnew,(7.0.0)
; #@! TF.FileFunction,Plated,1,2,PTH
FMAT,2
INCH
; #@! TA.AperFunction,Plated,PTH,ViaDrill
T1C0.0098
; #@! TA.AperFunction,Plated,PTH,ViaDrill
T2C0.0118
; #@! TA.AperFunction,Plated,PTH,ComponentDrill
T3C0.0118
; #@! TA.AperFunction,Plated,PTH,ComponentDrill
T4C0.0236
; #@! TA.AperFunction,Plated,PTH,ComponentDrill
T5C0.0276
; #@! TA.AperFunction,Plated,PTH,ComponentDrill
T6C0.0394
; #@! TA.AperFunction,Plated,PTH,ComponentDrill
T7C0.0787
; #@! TA.AperFunction,Plated,PTH,ComponentDrill
T8C0.0866
; #@! TA.AperFunction,Plated,PTH,ComponentDrill
T9C0.1260
%
G90
G05
T1
X3.6024Y-2.9449
X4.3504Y-3.0472
X5.126Y-3.0591
X5.8898Y-3.1024
X6.5748Y-3.4488
X6.7267Y-6.0017
X6.8598Y-6.0374
X6.9817Y-5.2936
X7.0501Y-5.3119
X7.0981Y-7.9741
X7.115Y-4.5528
X7.1444Y-4.4506
X7.2443Y-4.5875
X7.2454Y-7.7191
X7.2719Y-3.6713
X7.2756Y-4.4858
X7.4173Y-3.7283
X7.4173Y-3.5748
X7.4238Y-3.8591
X7.4449Y-4.8071
X7.5163Y-3.8839
X7.6496Y-5.0118
X7.8106Y-3.4783
X7.811Y-3.5118
X7.8346Y-3.6654
X7.9055Y-4.0748
X7.9252Y-3.3228
X7.9528Y-3.8118
X7.9528Y-3.3228
X7.9528Y-7.0315
X7.9706Y-4.185
X8.0394Y-4.0157
X8.0394Y-3.0945
X8.0551Y-3.9921
X8.0827Y-4.2362
X8.0945Y-4.2087
X8.1142Y-3.4567
X8.1161Y-3.9941
X8.1339Y-3.9724
X8.1339Y-4.0157
X8.1614Y-3.5669
X8.1614Y-3.626
X8.1724Y-3.8118
X8.1929Y-3.626
X8.1929Y-3.9285
X8.1929Y-3.5669
X8.2126Y-3.0433
X8.2126Y-3.126
X8.2165Y-3.9528
X8.2244Y-3.626
X8.2244Y-3.5551
X8.2756Y-3.6496
X8.2874Y-3.0039
X8.3858Y-5.4449
X8.3858Y-5.4764
X8.3858Y-3.0709
X8.4094Y-4.1535
X8.4252Y-4.0394
X8.4449Y-2.811
X8.4725Y-5.4332
X8.4814Y-4.9823
X8.4843Y-5.4961
X8.5Y-2.9961
X8.5039Y-2.811
X8.5157Y-5.4882
X8.5433Y-5.063
X8.5433Y-5.1299
X8.5472Y-5.5197
X8.5787Y-5.4331
X8.7339Y-7.126
X8.8189Y-3.937
X8.8386Y-3.9577
X8.9134Y-4.1575
X8.9134Y-3.8346
X8.937Y-4.1417
X8.937Y-5.3661
X8.937Y-3.8504
X8.9606Y-4.126
X8.9606Y-3.8661
X8.9843Y-3.8819
X8.9843Y-4.1063
X9.0079Y-3.8661
X9.0079Y-4.126
X9.0315Y-4.1457
X9.0315Y-3.8504
X9.051Y-3.11
X9.0512Y-2.9843
X9.0551Y-3.8358
X9.0551Y-4.0394
X9.0783Y-6.9602
X9.0984Y-5.2047
X9.4055Y-3.1457
X9.4147Y-3.8834
X9.4984Y-3.861
X9.5354Y-3.1457
X9.5945Y-4.5885
X9.5984Y-6.4134
X9.5984Y-6.5394
X9.622Y-6.3898
X9.622Y-6.5079
X9.6339Y-4.7559
X9.6349Y-7.3814
X9.6811Y-4.5885
X9.7205Y-4.7559
X9.7283Y-8.126
X9.7894Y-4.5595
X9.8752Y-5.3129
X9.937Y-3.689
X9.9436Y-5.2946
X10.0693Y-6.0374
X10.1776Y-6.0084
X10.622Y-3.378
X11.311Y-3.0315
X12.0787Y-2.9882
X12.8583Y-2.9724
X13.5512Y-2.8543
X13.5512Y-3.0079
T2
X2.5011Y-5.5489
X2.5093Y-5.5184
X2.597Y-6.4081
X2.6051Y-6.3776
X2.8894Y-4.1
X2.8975Y-4.0695
X2.9852Y-4.9592
X2.9934Y-4.9288
X3.2498Y-5.6524
X3.258Y-5.622
X3.3457Y-6.5116
X3.3538Y-6.4812
X3.3734Y-3.5103
X3.3816Y-3.4799
X3.6381Y-4.2035
X3.6462Y-4.1731
X3.7339Y-5.0627
X3.7421Y-5.0323
X4.0228Y-5.6654
X4.031Y-5.635
X4.1187Y-6.5246
X4.1221Y-3.6138
X4.1268Y-6.4942
X4.1303Y-3.5834
X4.411Y-4.2165
X4.4192Y-4.1861
X4.5069Y-5.0757
X4.515Y-5.0453
X4.7877Y-5.7086
X4.7959Y-5.6782
X4.8951Y-3.6268
X4.9033Y-3.5964
X5.1759Y-4.2597
X5.1841Y-4.2293
X5.2718Y-5.1189
X5.2775Y-7.0293
X5.2799Y-5.0885
X5.2857Y-6.9988
X5.4717Y-6.0537
X5.4799Y-6.0232
X5.66Y-3.67
X5.6682Y-3.6396
X5.8599Y-4.6048
X5.8681Y-4.5743
X5.9558Y-5.464
X5.9639Y-5.4335
X5.9837Y-7.3663
X5.9994Y-7.339
X6.1638Y-6.3685
X6.1719Y-6.3381
X6.344Y-4.0151
X6.3522Y-3.9847
X6.552Y-4.9196
X6.5602Y-4.8892
X6.5786Y-7.8745
X6.6008Y-7.8523
X6.6378Y-6.5591
X6.6479Y-5.7788
X6.656Y-5.7484
X6.6669Y-6.6052
X6.6883Y-6.6266
X6.8504Y-6.0709
X6.8583Y-5.7402
X6.878Y-5.6693
X6.9173Y-6.4921
X6.9173Y-6.5197
X6.9173Y-6.5472
X6.9173Y-6.6457
X6.9173Y-6.6732
X6.9173Y-6.7008
X7.0079Y-5.1811
X7.0276Y-5.1102
X7.0315Y-6.4921
X7.0315Y-6.5197
X7.0315Y-6.5472
X7.0315Y-6.6457
X7.0315Y-6.6732
X7.0315Y-6.7008
X7.0361Y-4.3299
X7.0433Y-5.3465
X7.0443Y-4.2995
X7.1496Y-6.4567
X7.1496Y-6.4173
X7.1496Y-6.7362
X7.1496Y-6.7756
X7.1693Y-6.437
X7.1693Y-6.7559
X7.189Y-6.4567
X7.189Y-6.4173
X7.189Y-6.7756
X7.189Y-6.7362
X7.2205Y-4.6811
X7.2205Y-5.4449
X7.248Y-4.2874
X7.2717Y-4.6693
X7.2717Y-4.9961
X7.3425Y-4.5
X7.3701Y-3.9803
X7.3701Y-4.6654
X7.3701Y-3.9409
X7.3701Y-4.626
X7.3898Y-3.9606
X7.3898Y-4.6457
X7.4094Y-3.9803
X7.4094Y-4.6654
X7.4094Y-3.9409
X7.4094Y-4.626
X7.4134Y-3.3425
X7.4252Y-3.4606
X7.437Y-3.1535
X7.437Y-3.122
X7.4488Y-3.7362
X7.4803Y-2.8976
X7.4803Y-2.8425
X7.4803Y-2.8701
X7.5236Y-3.6654
X7.563Y-3.1378
X7.563Y-5.0315
X7.5827Y-4.5
X7.5866Y-3.4331
X7.5866Y-2.8701
X7.5866Y-2.8425
X7.5866Y-2.8976
X7.5906Y-4.6299
X7.5985Y-7.6389
X7.6143Y-7.6116
X7.6181Y-3.5079
X7.689Y-3.1102
X7.7126Y-4.5709
X7.7459Y-6.0327
X7.748Y-3.0157
X7.748Y-3.0472
X7.775Y-6.0207
X7.815Y-4.5433
X7.8268Y-4.4488
X7.8268Y-4.5118
X7.8425Y-3.063
X7.8543Y-2.5
X7.8665Y-5.4873
X7.8701Y-3.2953
X7.8858Y-4.0984
X7.8898Y-4.1693
X7.8937Y-2.7441
X7.8956Y-5.4994
X7.9055Y-3.2835
X7.9252Y-3.0276
X7.9488Y-4.9094
X7.9488Y-3.9764
X7.9528Y-4.1614
X7.9606Y-4.0472
X7.9606Y-4.3307
X7.9606Y-4.0984
X7.9724Y-2.5
X7.9764Y-3.8346
X7.9764Y-2.7795
X7.9764Y-4.8701
X7.9764Y-5.4055
X7.9764Y-6.315
X7.9882Y-3.3386
X7.9961Y-3.7874
X8.0039Y-3.0591
X8.0145Y-3.1319
X8.0236Y-7.1024
X8.0315Y-2.8622
X8.0315Y-2.9173
X8.0315Y-2.8898
X8.0464Y-6.5036
X8.0584Y-6.4745
X8.0591Y-4.9488
X8.0709Y-2.9134
X8.0787Y-4.0984
X8.0827Y-3.315
X8.0827Y-3.4528
X8.0984Y-2.9134
X8.1063Y-4.8307
X8.1102Y-3.6496
X8.126Y-2.9134
X8.1339Y-3.0748
X8.1339Y-3.0354
X8.1535Y-2.6929
X8.1535Y-3.0551
X8.1614Y-3.3386
X8.1614Y-4.0866
X8.1654Y-3.9567
X8.1693Y-3.2835
X8.1732Y-3.0748
X8.1732Y-3.0354
X8.185Y-2.6929
X8.2008Y-3.2244
X8.2323Y-3.2244
X8.2362Y-3.5236
X8.2441Y-2.9488
X8.2441Y-2.9764
X8.2598Y-3.287
X8.2598Y-3.3504
X8.2835Y-2.7598
X8.2874Y-2.9173
X8.2874Y-4.0866
X8.2992Y-5.0315
X8.311Y-3.1418
X8.311Y-5.252
X8.311Y-2.7598
X8.3149Y-5.406
X8.315Y-2.9409
X8.3189Y-5.343
X8.3189Y-5.126
X8.3189Y-5.0748
X8.3228Y-3.6339
X8.3386Y-4.0866
X8.3425Y-3.1418
X8.3504Y-2.9606
X8.3563Y-5.4213
X8.3622Y-3.7205
X8.3661Y-4.1575
X8.3701Y-2.7874
X8.3701Y-2.815
X8.3701Y-2.8425
X8.374Y-3.1418
X8.3819Y-2.9606
X8.3858Y-5.0394
X8.4055Y-3.1418
X8.4094Y-5.2997
X8.4094Y-5.3784
X8.4213Y-3.7638
X8.4213Y-3.8504
X8.4252Y-5.0787
X8.4256Y-3.0315
X8.4331Y-3.5591
X8.4331Y-3.4055
X8.4331Y-3.2756
X8.4606Y-3.8228
X8.4606Y-3.9528
X8.4646Y-2.9528
X8.465Y-6.7832
X8.465Y-6.811
X8.4843Y-4.1535
X8.5039Y-3.0315
X8.5039Y-4.9094
X8.5118Y-3.9173
X8.5118Y-3.9449
X8.5118Y-3.7185
X8.5118Y-3.7461
X8.5118Y-3.8898
X8.5118Y-3.7736
X8.5354Y-3.1264
X8.5394Y-3.9449
X8.5394Y-2.9528
X8.5512Y-3.5866
X8.5551Y-4.063
X8.5591Y-2.8425
X8.5591Y-2.7874
X8.5591Y-2.815
X8.5591Y-3.0827
X8.563Y-3.2323
X8.5669Y-3.9449
X8.5669Y-5.0394
X8.5709Y-4.1142
X8.5748Y-3.1264
X8.5797Y-6.595
X8.5918Y-6.6241
X8.6024Y-3.7126
X8.6102Y-5.343
X8.6141Y-5.406
X8.6142Y-3.1264
X8.6181Y-2.7598
X8.622Y-8.5472
X8.622Y-3.0394
X8.622Y-7.8287
X8.622Y-8.5787
X8.622Y-7.7972
X8.6299Y-3.7126
X8.6417Y-5.4961
X8.6457Y-2.7598
X8.6575Y-3.7126
X8.6693Y-4.0512
X8.685Y-3.9449
X8.685Y-3.7126
X8.689Y-3.3386
X8.6969Y-3.0669
X8.7106Y-4.2244
X8.7126Y-3.9449
X8.7126Y-3.7126
X8.7402Y-3.8878
X8.7402Y-3.9449
X8.7402Y-3.9173
X8.7402Y-3.7402
X8.7402Y-3.7677
X8.7402Y-3.7126
X8.7441Y-5.6457
X8.7441Y-5.7283
X8.7717Y-4.189
X8.7874Y-3.9291
X8.7953Y-5.7717
X8.811Y-4.1299
X8.8189Y-7.6988
X8.8189Y-8.4213
X8.8189Y-8.4486
X8.8228Y-3.5236
X8.8543Y-4.0787
X8.8707Y-5.3365
X8.878Y-5.5709
X8.878Y-5.6024
X8.878Y-5.6339
X8.8828Y-5.3074
X8.8937Y-3.2598
X8.9094Y-7.1181
X8.9213Y-3.2598
X8.9213Y-7.189
X8.9252Y-4.7756
X8.9449Y-3.3937
X8.9528Y-6.315
X8.9606Y-5.185
X8.9803Y-4.2402
X9.0157Y-4.6693
X9.0336Y-6.3117
X9.0354Y-5.2165
X9.0551Y-4.7756
X9.0591Y-2.6457
X9.0627Y-6.3237
X9.0906Y-2.6457
X9.1024Y-3.2323
X9.1024Y-3.311
X9.1024Y-3.8898
X9.1541Y-5.7904
X9.1811Y-3.937
X9.1832Y-5.7783
X9.3661Y-3.9291
X9.3701Y-5.0315
X9.3701Y-3.5472
X9.4055Y-3.2087
X9.4134Y-4.6772
X9.4173Y-3.8386
X9.4173Y-3.9291
X9.5027Y-3.4129
X9.5709Y-6.5748
X9.5876Y-7.4541
X9.6034Y-7.4814
X9.6142Y-4.7165
X9.6772Y-4.2913
X9.7047Y-5.4488
X9.7047Y-4.6811
X9.7205Y-6.3504
X9.7441Y-4.8346
X9.8543Y-5.252
X9.8819Y-5.3465
X9.8976Y-5.1142
X9.9213Y-5.185
X10.0472Y-5.6693
X10.0647Y-4.9707
X10.0669Y-5.7402
X10.0729Y-5.0011
X10.0748Y-6.0709
X10.1891Y-4.218
X10.1973Y-4.2484
X10.2355Y-6.6292
X10.248Y-2.8858
X10.2584Y-6.6062
X10.2874Y-6.563
X10.453Y-6.4196
X10.4611Y-6.45
X10.551Y-7.6295
X10.5733Y-7.6518
X10.5773Y-5.6669
X10.5855Y-5.6973
X10.7568Y-4.6559
X10.765Y-4.6863
X10.8812Y-3.9031
X10.8894Y-3.9336
X11.145Y-6.1047
X11.1532Y-6.1352
X11.2025Y-7.1815
X11.2182Y-7.2088
X11.2694Y-5.352
X11.2776Y-5.3824
X11.4408Y-4.3108
X11.449Y-4.3412
X11.5652Y-3.5581
X11.5734Y-3.5885
X11.8291Y-5.7597
X11.8372Y-5.7901
X11.9477Y-6.9173
X11.9534Y-5.007
X11.9558Y-6.9477
X11.9616Y-5.0374
X12.2057Y-4.2676
X12.2139Y-4.2981
X12.3301Y-3.5149
X12.3382Y-3.5453
X12.5939Y-5.7165
X12.6021Y-5.7469
X12.7183Y-4.9638
X12.7265Y-4.9942
X12.9787Y-4.2546
X12.9868Y-4.285
X13.1031Y-3.5019
X13.1065Y-6.4127
X13.1112Y-3.5323
X13.1147Y-6.4431
X13.3669Y-5.7035
X13.3751Y-5.7339
X13.4913Y-4.9508
X13.4994Y-4.9812
X13.5276Y-2.8819
X13.5748Y-2.8819
X13.7274Y-4.1511
X13.7355Y-4.1815
X13.8518Y-3.3983
X13.8599Y-3.4288
X13.8795Y-6.3997
X13.8877Y-6.4301
X14.1156Y-5.6
X14.1238Y-5.6304
X14.24Y-4.8472
X14.2482Y-4.8777
X14.6282Y-6.2961
X14.6364Y-6.3265
T3
X2.209Y-6.0253
X2.2406Y-5.9074
X2.2451Y-6.035
X2.2767Y-5.9171
X2.2813Y-6.0447
X2.3128Y-5.9268
X2.4031Y-5.3009
X2.4347Y-5.183
X2.4392Y-5.3105
X2.4708Y-5.1927
X2.4754Y-5.3202
X2.507Y-5.2023
X2.5972Y-4.5764
X2.6288Y-4.4585
X2.6334Y-4.5861
X2.665Y-4.4682
X2.6695Y-4.5958
X2.7011Y-4.4779
X2.7265Y-6.0604
X2.7581Y-5.9426
X2.7626Y-6.0701
X2.7914Y-3.852
X2.7942Y-5.9522
X2.7987Y-6.0798
X2.8229Y-3.7341
X2.8275Y-3.8617
X2.8303Y-5.9619
X2.8591Y-3.7438
X2.8636Y-3.8713
X2.8952Y-3.7535
X2.9206Y-5.336
X2.9522Y-5.2181
X2.9567Y-5.3457
X2.9577Y-6.1289
X2.9855Y-3.1275
X2.9883Y-5.2278
X2.9893Y-6.011
X2.9929Y-5.3554
X2.9938Y-6.1386
X3.0171Y-3.0096
X3.0216Y-3.1372
X3.0244Y-5.2375
X3.0254Y-6.0207
X3.03Y-6.1482
X3.0532Y-3.0193
X3.0577Y-3.1469
X3.0616Y-6.0303
X3.0893Y-3.029
X3.1147Y-4.6116
X3.1463Y-4.4937
X3.1508Y-4.6212
X3.1518Y-5.4044
X3.1824Y-4.5033
X3.1834Y-5.2865
X3.187Y-4.6309
X3.188Y-5.4141
X3.2186Y-4.513
X3.2195Y-5.2962
X3.2241Y-5.4238
X3.2557Y-5.3059
X3.3088Y-3.8871
X3.3404Y-3.7692
X3.345Y-3.8968
X3.3459Y-4.68
X3.3765Y-3.7789
X3.3775Y-4.5621
X3.3811Y-3.9065
X3.3821Y-4.6897
X3.4127Y-3.7886
X3.4137Y-4.5718
X3.4182Y-4.6993
X3.4498Y-4.5815
X3.4752Y-6.164
X3.5029Y-3.1627
X3.5068Y-6.0461
X3.5113Y-6.1737
X3.5345Y-3.0448
X3.5391Y-3.1723
X3.5401Y-3.9555
X3.5429Y-6.0558
X3.5474Y-6.1834
X3.5707Y-3.0545
X3.5716Y-3.8376
X3.5752Y-3.182
X3.5762Y-3.9652
X3.579Y-6.0655
X3.6068Y-3.0641
X3.6078Y-3.8473
X3.6123Y-3.9749
X3.6439Y-3.857
X3.6693Y-5.4396
X3.7009Y-5.3217
X3.7054Y-5.4492
X3.7307Y-6.1419
X3.7342Y-3.2311
X3.737Y-5.3313
X3.7416Y-5.4589
X3.7623Y-6.024
X3.7658Y-3.1132
X3.7668Y-6.1516
X3.7703Y-3.2408
X3.7731Y-5.341
X3.7984Y-6.0337
X3.8019Y-3.1229
X3.8029Y-6.1612
X3.8064Y-3.2505
X3.8345Y-6.0433
X3.838Y-3.1326
X3.8634Y-4.7151
X3.895Y-4.5972
X3.8995Y-4.7248
X3.9248Y-5.4174
X3.9311Y-4.6069
X3.9357Y-4.7345
X3.9564Y-5.2995
X3.9609Y-5.4271
X3.9673Y-4.6166
X3.9925Y-5.3092
X3.9971Y-5.4368
X4.0286Y-5.3189
X4.0575Y-3.9907
X4.0891Y-3.8728
X4.0937Y-4.0003
X4.1189Y-4.693
X4.1253Y-3.8825
X4.1298Y-4.01
X4.1505Y-4.5751
X4.155Y-4.7027
X4.1614Y-3.8921
X4.1866Y-4.5848
X4.1912Y-4.7123
X4.2228Y-4.5945
X4.2482Y-6.177
X4.2517Y-3.2662
X4.2798Y-6.0591
X4.2832Y-3.1483
X4.2843Y-6.1867
X4.2878Y-3.2759
X4.313Y-3.9685
X4.3159Y-6.0688
X4.3194Y-3.158
X4.3204Y-6.1964
X4.3239Y-3.2856
X4.3446Y-3.8507
X4.3492Y-3.9782
X4.352Y-6.0785
X4.3555Y-3.1677
X4.3807Y-3.8603
X4.3853Y-3.9879
X4.4169Y-3.87
X4.4423Y-5.4526
X4.4739Y-5.3347
X4.4784Y-5.4622
X4.5071Y-3.2441
X4.51Y-5.3444
X4.5145Y-5.4719
X4.5387Y-3.1262
X4.5433Y-3.2538
X4.5461Y-5.354
X4.5749Y-3.1359
X4.5794Y-3.2635
X4.611Y-3.1456
X4.6364Y-4.7281
X4.668Y-4.6102
X4.6725Y-4.7378
X4.6897Y-5.4606
X4.7041Y-4.6199
X4.7086Y-4.7475
X4.7213Y-5.3427
X4.7258Y-5.4703
X4.7402Y-4.6296
X4.7574Y-5.3524
X4.7619Y-5.48
X4.7935Y-5.3621
X4.8305Y-4.0037
X4.8621Y-3.8858
X4.8666Y-4.0134
X4.8838Y-4.7362
X4.8896Y-6.6465
X4.8982Y-3.8955
X4.9028Y-4.023
X4.9154Y-4.6183
X4.9199Y-4.7459
X4.9212Y-6.5286
X4.9257Y-6.6562
X4.9344Y-3.9051
X4.9515Y-4.628
X4.9561Y-4.7555
X4.9573Y-6.5383
X4.9618Y-6.6659
X4.9876Y-4.6376
X4.9934Y-6.548
X5.0246Y-3.2792
X5.0562Y-3.1613
X5.0608Y-3.2889
X5.0779Y-4.0117
X5.0923Y-3.171
X5.0969Y-3.2986
X5.1095Y-3.8938
X5.114Y-4.0214
X5.1285Y-3.1807
X5.1456Y-3.9035
X5.1502Y-4.0311
X5.1818Y-3.9132
X5.2072Y-5.4957
X5.2388Y-5.3779
X5.2433Y-5.5054
X5.272Y-3.2873
X5.2749Y-5.3875
X5.2794Y-5.5151
X5.3036Y-3.1694
X5.3082Y-3.297
X5.311Y-5.3972
X5.3397Y-3.1791
X5.3443Y-3.3066
X5.3737Y-5.8057
X5.3759Y-3.1888
X5.4013Y-4.7713
X5.4053Y-5.6878
X5.407Y-6.6816
X5.4098Y-5.8153
X5.4329Y-4.6534
X5.4374Y-4.781
X5.4386Y-6.5638
X5.4414Y-5.6974
X5.4432Y-6.6913
X5.4459Y-5.825
X5.469Y-4.6631
X5.4735Y-4.7907
X5.4748Y-6.5734
X5.4775Y-5.7071
X5.4793Y-6.701
X5.5051Y-4.6728
X5.5109Y-6.5831
X5.5678Y-5.0812
X5.5954Y-4.0469
X5.5994Y-4.9633
X5.6039Y-5.0909
X5.627Y-3.929
X5.6315Y-4.0565
X5.6355Y-4.973
X5.6401Y-5.1006
X5.6631Y-3.9387
X5.6676Y-4.0662
X5.6716Y-4.9827
X5.6992Y-3.9483
X5.708Y-6.8961
X5.7404Y-6.9148
X5.7619Y-4.3568
X5.769Y-6.7904
X5.7728Y-6.9335
X5.7895Y-3.3224
X5.7935Y-4.2389
X5.798Y-4.3664
X5.8014Y-6.8091
X5.8211Y-3.2045
X5.8256Y-3.3321
X5.8296Y-4.2486
X5.8338Y-6.8278
X5.8342Y-4.3761
X5.8572Y-3.2142
X5.8618Y-3.3418
X5.8658Y-4.2582
X5.8912Y-5.8408
X5.8934Y-3.2239
X5.9228Y-5.7229
X5.9273Y-5.8505
X5.956Y-3.6323
X5.9589Y-5.7326
X5.9634Y-5.8601
X5.9876Y-3.5144
X5.9922Y-3.642
X5.995Y-5.7423
X6.0238Y-3.5241
X6.0283Y-3.6517
X6.0599Y-3.5338
X6.0658Y-6.1205
X6.0853Y-5.1163
X6.0974Y-6.0026
X6.1019Y-6.1302
X6.1169Y-4.9985
X6.1214Y-5.126
X6.1335Y-6.0123
X6.138Y-6.1399
X6.153Y-5.0081
X6.1575Y-5.1357
X6.1696Y-6.022
X6.1891Y-5.0178
X6.1987Y-7.064
X6.2311Y-7.0827
X6.2598Y-6.9583
X6.2599Y-5.3961
X6.2635Y-7.1014
X6.2794Y-4.3919
X6.2915Y-5.2782
X6.2922Y-6.977
X6.296Y-5.4057
X6.311Y-4.274
X6.3155Y-4.4016
X6.3246Y-6.9957
X6.3276Y-5.2879
X6.3322Y-5.4154
X6.3471Y-4.2837
X6.3517Y-4.4113
X6.3637Y-5.2975
X6.3832Y-4.2934
X6.4339Y-7.3491
X6.454Y-4.6716
X6.4604Y-7.3755
X6.4735Y-3.6675
X6.4856Y-4.5537
X6.4868Y-7.402
X6.4901Y-4.6813
X6.5051Y-3.5496
X6.5096Y-3.6771
X6.5202Y-7.2628
X6.5217Y-4.5634
X6.5263Y-4.691
X6.5412Y-3.5592
X6.5458Y-3.6868
X6.5467Y-7.2892
X6.5579Y-4.5731
X6.5731Y-7.3157
X6.5774Y-3.5689
X6.5833Y-6.1556
X6.6148Y-6.0378
X6.6194Y-6.1653
X6.6481Y-3.9472
X6.651Y-6.0474
X6.6555Y-6.175
X6.6797Y-3.8293
X6.6843Y-3.9569
X6.6871Y-6.0571
X6.7158Y-3.839
X6.7204Y-3.9665
X6.752Y-3.8487
X6.7774Y-5.4312
X6.809Y-5.3133
X6.8135Y-5.4409
X6.8451Y-5.323
X6.8496Y-5.4506
X6.8645Y-7.6382
X6.8812Y-5.3327
X6.891Y-7.6647
X6.9174Y-7.6911
X6.9508Y-7.5519
X6.9715Y-4.7068
X6.9773Y-7.5784
X7.0031Y-4.5889
X7.0037Y-7.6048
X7.0076Y-4.7164
X7.0392Y-4.5985
X7.0437Y-4.7261
X7.0753Y-4.6082
X7.1656Y-3.9823
X7.1972Y-3.8644
X7.2017Y-3.992
X7.2333Y-3.8741
X7.2379Y-4.0017
X7.2694Y-3.8838
X7.3228Y-7.1688
X7.3552Y-7.1875
X7.3839Y-7.0631
X7.3876Y-7.2062
X7.4163Y-7.0818
X7.4486Y-7.1005
X7.8136Y-7.3366
X7.846Y-7.3553
X7.8746Y-7.2309
X7.8784Y-7.374
X7.907Y-7.2496
X7.9394Y-7.2683
X8.1482Y-8.1874
X8.1482Y-8.3094
X8.1482Y-7.4374
X8.1482Y-7.5594
X8.1856Y-8.1874
X8.1856Y-8.3094
X8.1856Y-7.4374
X8.1856Y-7.5594
X8.223Y-8.1874
X8.223Y-8.3094
X8.223Y-7.4374
X8.223Y-7.5594
X8.4606Y-3.4331
X8.4606Y-3.4843
X8.4606Y-3.5354
X8.5118Y-3.4331
X8.5118Y-3.4843
X8.5118Y-3.5354
X8.563Y-3.4331
X8.563Y-3.4843
X8.563Y-3.5354
X8.6572Y-8.0874
X8.6572Y-8.2094
X8.6572Y-7.3374
X8.6572Y-7.4594
X8.6946Y-8.0874
X8.6946Y-8.2094
X8.6946Y-7.3374
X8.6946Y-7.4594
X8.732Y-8.0874
X8.732Y-8.2094
X8.732Y-7.3374
X8.732Y-7.4594
X8.9974Y-7.3794
X9.0297Y-7.3607
X9.0584Y-7.4851
X9.0621Y-7.342
X9.0908Y-7.4664
X9.1232Y-7.4477
X9.3881Y-7.0383
X9.4205Y-7.0196
X9.4491Y-7.144
X9.4529Y-7.0009
X9.4815Y-7.1253
X9.5139Y-7.1066
X9.6383Y-3.993
X9.6699Y-4.1109
X9.6744Y-3.9834
X9.706Y-4.1012
X9.7106Y-3.9737
X9.7421Y-4.0916
X9.8324Y-4.7175
X9.864Y-4.8354
X9.8685Y-4.7078
X9.9001Y-4.8257
X9.9047Y-4.6981
X9.9363Y-4.816
X9.9615Y-7.7101
X9.988Y-7.6837
X10.0144Y-7.6572
X10.0265Y-5.4419
X10.0478Y-7.7964
X10.0581Y-5.5598
X10.0627Y-5.4322
X10.0743Y-7.77
X10.0942Y-5.5501
X10.0988Y-5.4226
X10.1007Y-7.7435
X10.104Y-3.7647
X10.1304Y-5.5405
X10.1356Y-3.8826
X10.1401Y-3.755
X10.1717Y-3.8729
X10.1763Y-3.7454
X10.2079Y-3.8633
X10.2206Y-6.1664
X10.2507Y-7.2796
X10.2522Y-6.2843
X10.2568Y-6.1567
X10.2771Y-7.2531
X10.2884Y-6.2746
X10.2929Y-6.147
X10.2981Y-4.4892
X10.3036Y-7.2267
X10.3245Y-6.2649
X10.3297Y-4.6071
X10.3304Y-3.6782
X10.3343Y-4.4795
X10.337Y-7.3659
X10.362Y-3.7961
X10.3634Y-7.3394
X10.3658Y-4.5974
X10.3665Y-3.6685
X10.3704Y-4.4698
X10.3899Y-7.313
X10.3981Y-3.7864
X10.402Y-4.5877
X10.4026Y-3.6588
X10.4342Y-3.7767
X10.4922Y-5.2136
X10.5238Y-5.3315
X10.5245Y-4.4026
X10.5284Y-5.2039
X10.5561Y-4.5205
X10.56Y-5.3218
X10.5606Y-4.393
X10.5645Y-5.1943
X10.5922Y-4.5108
X10.5961Y-5.3121
X10.5968Y-4.3833
X10.6122Y-7.1068
X10.6283Y-4.5012
X10.6446Y-7.0881
X10.6732Y-7.2125
X10.677Y-7.0694
X10.6864Y-5.9381
X10.7056Y-7.1938
X10.7179Y-6.0559
X10.7186Y-5.1271
X10.7225Y-5.9284
X10.738Y-7.1751
X10.7502Y-5.245
X10.7541Y-6.0463
X10.7547Y-5.1174
X10.7586Y-5.9187
X10.7863Y-5.2353
X10.7902Y-6.0366
X10.7909Y-5.1077
X10.7961Y-3.4499
X10.8225Y-5.2256
X10.8277Y-3.5678
X10.8322Y-3.4402
X10.8638Y-3.5581
X10.8684Y-3.4305
X10.8999Y-3.5484
X10.9127Y-5.8515
X10.9443Y-5.9694
X10.9489Y-5.8418
X10.9805Y-5.9597
X10.985Y-5.8322
X10.9902Y-4.1743
X11.003Y-6.7657
X11.0144Y-3.3331
X11.0166Y-5.95
X11.0218Y-4.2922
X11.0263Y-4.1646
X11.0353Y-6.747
X11.046Y-3.451
X11.0505Y-3.3235
X11.0579Y-4.2825
X11.0625Y-4.155
X11.064Y-6.8714
X11.0677Y-6.7283
X11.0821Y-3.4414
X11.0867Y-3.3138
X11.0941Y-4.2728
X11.0964Y-6.8527
X11.1182Y-3.4317
X11.1288Y-6.834
X11.1843Y-4.8988
X11.2085Y-4.0576
X11.2159Y-5.0166
X11.2205Y-4.8891
X11.2401Y-4.1755
X11.2446Y-4.0479
X11.2521Y-5.007
X11.2566Y-4.8794
X11.2762Y-4.1658
X11.2808Y-4.0382
X11.2882Y-4.9973
X11.3124Y-4.1561
X11.3784Y-5.6232
X11.3969Y-6.6924
X11.4026Y-4.782
X11.41Y-5.7411
X11.4146Y-5.6135
X11.4284Y-6.8103
X11.433Y-6.6827
X11.4342Y-4.8999
X11.4388Y-4.7724
X11.4462Y-5.7314
X11.4507Y-5.6038
X11.4646Y-6.8006
X11.4691Y-6.673
X11.4703Y-4.8902
X11.4749Y-4.7627
X11.4801Y-3.1048
X11.4823Y-5.7217
X11.5007Y-6.7909
X11.5065Y-4.8806
X11.5117Y-3.2227
X11.5162Y-3.0952
X11.5478Y-3.213
X11.5524Y-3.0855
X11.584Y-3.2034
X11.5967Y-5.5065
X11.6283Y-5.6244
X11.6329Y-5.4968
X11.6645Y-5.6147
X11.669Y-5.4871
X11.6742Y-3.8293
X11.7006Y-5.605
X11.7058Y-3.9472
X11.7104Y-3.8196
X11.7419Y-3.9375
X11.7465Y-3.8099
X11.7781Y-3.9278
X11.7793Y-3.29
X11.8109Y-3.4078
X11.8154Y-3.2803
X11.847Y-3.3982
X11.8515Y-3.2706
X11.8626Y-6.4641
X11.8683Y-4.5537
X11.8831Y-3.3885
X11.8942Y-6.5819
X11.8987Y-6.4544
X11.8999Y-4.6716
X11.9045Y-4.544
X11.9303Y-6.5723
X11.9348Y-6.4447
X11.9361Y-4.6619
X11.9406Y-4.5344
X11.9664Y-6.5626
X11.9722Y-4.6522
X11.9734Y-4.0144
X12.005Y-4.1323
X12.0095Y-4.0047
X12.0411Y-4.1226
X12.0457Y-3.995
X12.0625Y-5.2782
X12.0772Y-4.1129
X12.094Y-5.3961
X12.0986Y-5.2685
X12.1302Y-5.3864
X12.1347Y-5.2588
X12.1663Y-5.3767
X12.1675Y-4.7388
X12.1991Y-4.8567
X12.2036Y-4.7292
X12.2352Y-4.8471
X12.2398Y-4.7195
X12.245Y-3.0616
X12.2714Y-4.8374
X12.2766Y-3.1795
X12.2811Y-3.052
X12.3127Y-3.1699
X12.3172Y-3.0423
X12.3488Y-3.1602
X12.3616Y-5.4633
X12.3932Y-5.5812
X12.3978Y-5.4536
X12.4293Y-5.5715
X12.4339Y-5.4439
X12.4391Y-3.7861
X12.4655Y-5.5618
X12.4707Y-3.904
X12.4752Y-3.7764
X12.5068Y-3.8943
X12.5114Y-3.7667
X12.543Y-3.8846
X12.5523Y-3.277
X12.5557Y-6.1877
X12.5838Y-3.3948
X12.5873Y-6.3056
X12.5884Y-3.2673
X12.5919Y-6.1781
X12.62Y-3.3852
X12.6235Y-6.2959
X12.6245Y-3.2576
X12.628Y-6.1684
X12.6332Y-4.5105
X12.6561Y-3.3755
X12.6596Y-6.2863
X12.6648Y-4.6284
X12.6694Y-4.5009
X12.7009Y-4.6187
X12.7055Y-4.4912
X12.7371Y-4.6091
X12.7464Y-4.0014
X12.778Y-4.1193
X12.7825Y-3.9917
X12.8141Y-4.1096
X12.8186Y-3.982
X12.8273Y-5.235
X12.8502Y-4.0999
X12.8589Y-5.3529
X12.8635Y-5.2253
X12.8951Y-5.3432
X12.8996Y-5.2156
X12.9312Y-5.3335
X12.9405Y-4.7258
X12.9721Y-4.8437
X12.9766Y-4.7162
X13.0082Y-4.8341
X13.0127Y-4.7065
X13.018Y-3.0486
X13.0215Y-5.9594
X13.0443Y-4.8244
X13.0496Y-3.1665
X13.053Y-6.0773
X13.0541Y-3.039
X13.0576Y-5.9497
X13.0857Y-3.1568
X13.0892Y-6.0676
X13.0902Y-3.0293
X13.0937Y-5.9401
X13.1218Y-3.1472
X13.1253Y-6.0579
X13.1346Y-5.4503
X13.1662Y-5.5682
X13.1707Y-5.4406
X13.2023Y-5.5585
X13.2069Y-5.4309
X13.2121Y-3.7731
X13.2384Y-5.5488
X13.2437Y-3.891
X13.2482Y-3.7634
X13.2798Y-3.8813
X13.2843Y-3.7537
X13.301Y-3.1734
X13.3159Y-3.8716
X13.3287Y-6.1747
X13.3326Y-3.2913
X13.3371Y-3.1637
X13.3603Y-6.2926
X13.3648Y-6.1651
X13.3687Y-3.2816
X13.3732Y-3.154
X13.3964Y-6.2829
X13.401Y-6.1554
X13.4048Y-3.2719
X13.4062Y-4.4975
X13.4326Y-6.2733
X13.4378Y-4.6154
X13.4423Y-4.4878
X13.4739Y-4.6057
X13.4785Y-4.4782
X13.4951Y-3.8978
X13.51Y-4.5961
X13.5267Y-4.0157
X13.5312Y-3.8882
X13.5628Y-4.006
X13.5673Y-3.8785
X13.5989Y-3.9964
X13.6003Y-5.222
X13.6319Y-5.3399
X13.6364Y-5.2123
X13.668Y-5.3302
X13.6726Y-5.2026
X13.6892Y-4.6223
X13.7042Y-5.3205
X13.7208Y-4.7402
X13.7253Y-4.6126
X13.7569Y-4.7305
X13.7614Y-4.6029
X13.7667Y-2.9451
X13.793Y-4.7208
X13.7944Y-5.9464
X13.7983Y-3.063
X13.8028Y-2.9354
X13.826Y-6.0643
X13.8306Y-5.9367
X13.8344Y-3.0533
X13.8389Y-2.9257
X13.8621Y-6.0546
X13.8667Y-5.9271
X13.8705Y-3.0436
X13.8833Y-5.3467
X13.8983Y-6.0449
X13.9149Y-5.4646
X13.9194Y-5.337
X13.951Y-5.4549
X13.9556Y-5.3274
X13.9608Y-3.6695
X13.9871Y-5.4453
X13.9924Y-3.7874
X13.9969Y-3.6598
X14.0285Y-3.7777
X14.033Y-3.6502
X14.0646Y-3.7681
X14.0774Y-6.0712
X14.109Y-6.1891
X14.1135Y-6.0615
X14.1451Y-6.1794
X14.1497Y-6.0518
X14.1549Y-4.394
X14.1813Y-6.1697
X14.1865Y-4.5119
X14.191Y-4.3843
X14.2226Y-4.5022
X14.2272Y-4.3746
X14.2587Y-4.4925
X14.349Y-5.1184
X14.3806Y-5.2363
X14.3851Y-5.1087
X14.4167Y-5.2266
X14.4213Y-5.0991
X14.4529Y-5.2169
X14.5431Y-5.8429
X14.5747Y-5.9607
X14.5793Y-5.8332
X14.6108Y-5.9511
X14.6154Y-5.8235
X14.647Y-5.9414
T5
X8.2539Y-5.7177
X8.2539Y-5.7878
X8.2539Y-5.8579
X8.2539Y-5.928
X8.2539Y-5.998
X8.2539Y-6.0681
X8.2539Y-6.1382
X8.2539Y-6.2083
X8.6752Y-5.6827
X8.6752Y-5.7528
X8.6752Y-5.8228
X8.6752Y-5.8929
X8.6752Y-5.963
X8.6752Y-6.0331
X8.6752Y-6.1031
X8.6752Y-6.1732
T6
X7.6772Y-3.2118
X7.6772Y-3.3118
X7.6772Y-3.4118
X7.6772Y-3.5118
X7.6772Y-3.6118
X7.6772Y-3.7118
X7.6772Y-3.8118
X8.9699Y-4.8334
X9.0551Y-4.8826
X9.1404Y-4.9319
X9.2323Y-3.675
X9.2323Y-3.775
X9.2323Y-3.875
X9.5118Y-4.9047
X9.5118Y-5.0047
X9.5118Y-5.1047
X9.5118Y-5.2047
T7
X7.687Y-2.8819
X7.687Y-4.1417
X9.2421Y-2.8819
X9.2421Y-4.1417
T8
X7.5746Y-6.6524
X8.2628Y-7.0498
T9
X3.6818Y-6.6782
X6.8799Y-8.1693
X7.1102Y-2.9353
X7.9213Y-5.9055
X9.0079Y-5.9055
X9.8189Y-2.9353
X10.0394Y-8.1693
X13.2473Y-6.6782
T4
G00X8.2433Y-2.5219
M15
G01X8.2433Y-2.5692
M16
G05
G00X8.2433Y-2.6873
M15
G01X8.2433Y-2.7188
M16
G05
G00X8.6858Y-2.5219
M15
G01X8.6858Y-2.5692
M16
G05
G00X8.6858Y-2.6873
M15
G01X8.6858Y-2.7188
M16
G05
T9
G00X7.5656Y-5.2523
M15
G01X7.5656Y-5.2523
M16
G05
G00X9.4806Y-6.3579
M15
G01X9.4806Y-6.3579
M16
G05
T0
M30
