%TF.GenerationSoftware,KiCad,Pcbnew,(7.0.0)*%
%TF.CreationDate,2023-03-31T07:04:05+01:00*%
%TF.ProjectId,Honeydew,486f6e65-7964-4657-972e-6b696361645f,rev?*%
%TF.SameCoordinates,Original*%
%TF.FileFunction,Legend,Top*%
%TF.FilePolarity,Positive*%
%FSLAX46Y46*%
G04 Gerber Fmt 4.6, Leading zero omitted, Abs format (unit mm)*
G04 Created by KiCad (PCBNEW (7.0.0)) date 2023-03-31 07:04:05*
%MOMM*%
%LPD*%
G01*
G04 APERTURE LIST*
G04 Aperture macros list*
%AMRoundRect*
0 Rectangle with rounded corners*
0 $1 Rounding radius*
0 $2 $3 $4 $5 $6 $7 $8 $9 X,Y pos of 4 corners*
0 Add a 4 corners polygon primitive as box body*
4,1,4,$2,$3,$4,$5,$6,$7,$8,$9,$2,$3,0*
0 Add four circle primitives for the rounded corners*
1,1,$1+$1,$2,$3*
1,1,$1+$1,$4,$5*
1,1,$1+$1,$6,$7*
1,1,$1+$1,$8,$9*
0 Add four rect primitives between the rounded corners*
20,1,$1+$1,$2,$3,$4,$5,0*
20,1,$1+$1,$4,$5,$6,$7,0*
20,1,$1+$1,$6,$7,$8,$9,0*
20,1,$1+$1,$8,$9,$2,$3,0*%
G04 Aperture macros list end*
%ADD10C,0.150000*%
%ADD11C,0.300000*%
%ADD12C,0.120000*%
%ADD13C,2.000000*%
%ADD14R,2.500000X6.000000*%
%ADD15C,3.500000*%
%ADD16C,5.600000*%
%ADD17C,1.152000*%
%ADD18C,0.650000*%
%ADD19R,0.600000X1.450000*%
%ADD20R,0.300000X1.450000*%
%ADD21O,1.000000X2.100000*%
%ADD22O,1.000000X1.600000*%
%ADD23R,1.700000X1.700000*%
%ADD24O,1.700000X1.700000*%
%ADD25C,4.000000*%
%ADD26RoundRect,0.250000X0.625000X-0.350000X0.625000X0.350000X-0.625000X0.350000X-0.625000X-0.350000X0*%
%ADD27O,1.750000X1.200000*%
%ADD28C,1.750000*%
%ADD29C,3.000000*%
%ADD30C,3.987800*%
%ADD31R,1.200000X1.200000*%
%ADD32C,1.200000*%
G04 APERTURE END LIST*
D10*
X148238096Y-46568005D02*
X148238096Y-45568005D01*
X148238096Y-45568005D02*
X148476191Y-45568005D01*
X148476191Y-45568005D02*
X148619048Y-45615625D01*
X148619048Y-45615625D02*
X148714286Y-45710863D01*
X148714286Y-45710863D02*
X148761905Y-45806101D01*
X148761905Y-45806101D02*
X148809524Y-45996577D01*
X148809524Y-45996577D02*
X148809524Y-46139434D01*
X148809524Y-46139434D02*
X148761905Y-46329910D01*
X148761905Y-46329910D02*
X148714286Y-46425148D01*
X148714286Y-46425148D02*
X148619048Y-46520386D01*
X148619048Y-46520386D02*
X148476191Y-46568005D01*
X148476191Y-46568005D02*
X148238096Y-46568005D01*
X149809524Y-46472767D02*
X149761905Y-46520386D01*
X149761905Y-46520386D02*
X149619048Y-46568005D01*
X149619048Y-46568005D02*
X149523810Y-46568005D01*
X149523810Y-46568005D02*
X149380953Y-46520386D01*
X149380953Y-46520386D02*
X149285715Y-46425148D01*
X149285715Y-46425148D02*
X149238096Y-46329910D01*
X149238096Y-46329910D02*
X149190477Y-46139434D01*
X149190477Y-46139434D02*
X149190477Y-45996577D01*
X149190477Y-45996577D02*
X149238096Y-45806101D01*
X149238096Y-45806101D02*
X149285715Y-45710863D01*
X149285715Y-45710863D02*
X149380953Y-45615625D01*
X149380953Y-45615625D02*
X149523810Y-45568005D01*
X149523810Y-45568005D02*
X149619048Y-45568005D01*
X149619048Y-45568005D02*
X149761905Y-45615625D01*
X149761905Y-45615625D02*
X149809524Y-45663244D01*
X147328578Y-40568005D02*
X147328578Y-39568005D01*
X147328578Y-39568005D02*
X147661911Y-40282291D01*
X147661911Y-40282291D02*
X147995244Y-39568005D01*
X147995244Y-39568005D02*
X147995244Y-40568005D01*
X148661911Y-39568005D02*
X148852387Y-39568005D01*
X148852387Y-39568005D02*
X148947625Y-39615625D01*
X148947625Y-39615625D02*
X149042863Y-39710863D01*
X149042863Y-39710863D02*
X149090482Y-39901339D01*
X149090482Y-39901339D02*
X149090482Y-40234672D01*
X149090482Y-40234672D02*
X149042863Y-40425148D01*
X149042863Y-40425148D02*
X148947625Y-40520386D01*
X148947625Y-40520386D02*
X148852387Y-40568005D01*
X148852387Y-40568005D02*
X148661911Y-40568005D01*
X148661911Y-40568005D02*
X148566673Y-40520386D01*
X148566673Y-40520386D02*
X148471435Y-40425148D01*
X148471435Y-40425148D02*
X148423816Y-40234672D01*
X148423816Y-40234672D02*
X148423816Y-39901339D01*
X148423816Y-39901339D02*
X148471435Y-39710863D01*
X148471435Y-39710863D02*
X148566673Y-39615625D01*
X148566673Y-39615625D02*
X148661911Y-39568005D01*
X149471435Y-40520386D02*
X149614292Y-40568005D01*
X149614292Y-40568005D02*
X149852387Y-40568005D01*
X149852387Y-40568005D02*
X149947625Y-40520386D01*
X149947625Y-40520386D02*
X149995244Y-40472767D01*
X149995244Y-40472767D02*
X150042863Y-40377529D01*
X150042863Y-40377529D02*
X150042863Y-40282291D01*
X150042863Y-40282291D02*
X149995244Y-40187053D01*
X149995244Y-40187053D02*
X149947625Y-40139434D01*
X149947625Y-40139434D02*
X149852387Y-40091815D01*
X149852387Y-40091815D02*
X149661911Y-40044196D01*
X149661911Y-40044196D02*
X149566673Y-39996577D01*
X149566673Y-39996577D02*
X149519054Y-39948958D01*
X149519054Y-39948958D02*
X149471435Y-39853720D01*
X149471435Y-39853720D02*
X149471435Y-39758482D01*
X149471435Y-39758482D02*
X149519054Y-39663244D01*
X149519054Y-39663244D02*
X149566673Y-39615625D01*
X149566673Y-39615625D02*
X149661911Y-39568005D01*
X149661911Y-39568005D02*
X149900006Y-39568005D01*
X149900006Y-39568005D02*
X150042863Y-39615625D01*
X150471435Y-40568005D02*
X150471435Y-39568005D01*
X174447555Y-59367380D02*
X174638031Y-59367380D01*
X174638031Y-59367380D02*
X174733269Y-59415000D01*
X174733269Y-59415000D02*
X174828507Y-59510238D01*
X174828507Y-59510238D02*
X174876126Y-59700714D01*
X174876126Y-59700714D02*
X174876126Y-60034047D01*
X174876126Y-60034047D02*
X174828507Y-60224523D01*
X174828507Y-60224523D02*
X174733269Y-60319761D01*
X174733269Y-60319761D02*
X174638031Y-60367380D01*
X174638031Y-60367380D02*
X174447555Y-60367380D01*
X174447555Y-60367380D02*
X174352317Y-60319761D01*
X174352317Y-60319761D02*
X174257079Y-60224523D01*
X174257079Y-60224523D02*
X174209460Y-60034047D01*
X174209460Y-60034047D02*
X174209460Y-59700714D01*
X174209460Y-59700714D02*
X174257079Y-59510238D01*
X174257079Y-59510238D02*
X174352317Y-59415000D01*
X174352317Y-59415000D02*
X174447555Y-59367380D01*
X175780888Y-60367380D02*
X175304698Y-60367380D01*
X175304698Y-60367380D02*
X175304698Y-59367380D01*
X176114222Y-59843571D02*
X176447555Y-59843571D01*
X176590412Y-60367380D02*
X176114222Y-60367380D01*
X176114222Y-60367380D02*
X176114222Y-59367380D01*
X176114222Y-59367380D02*
X176590412Y-59367380D01*
X177018984Y-60367380D02*
X177018984Y-59367380D01*
X177018984Y-59367380D02*
X177257079Y-59367380D01*
X177257079Y-59367380D02*
X177399936Y-59415000D01*
X177399936Y-59415000D02*
X177495174Y-59510238D01*
X177495174Y-59510238D02*
X177542793Y-59605476D01*
X177542793Y-59605476D02*
X177590412Y-59795952D01*
X177590412Y-59795952D02*
X177590412Y-59938809D01*
X177590412Y-59938809D02*
X177542793Y-60129285D01*
X177542793Y-60129285D02*
X177495174Y-60224523D01*
X177495174Y-60224523D02*
X177399936Y-60319761D01*
X177399936Y-60319761D02*
X177257079Y-60367380D01*
X177257079Y-60367380D02*
X177018984Y-60367380D01*
X148452382Y-48568004D02*
X148119049Y-48091814D01*
X147880954Y-48568004D02*
X147880954Y-47568004D01*
X147880954Y-47568004D02*
X148261906Y-47568004D01*
X148261906Y-47568004D02*
X148357144Y-47615624D01*
X148357144Y-47615624D02*
X148404763Y-47663243D01*
X148404763Y-47663243D02*
X148452382Y-47758481D01*
X148452382Y-47758481D02*
X148452382Y-47901338D01*
X148452382Y-47901338D02*
X148404763Y-47996576D01*
X148404763Y-47996576D02*
X148357144Y-48044195D01*
X148357144Y-48044195D02*
X148261906Y-48091814D01*
X148261906Y-48091814D02*
X147880954Y-48091814D01*
X148833335Y-48520385D02*
X148976192Y-48568004D01*
X148976192Y-48568004D02*
X149214287Y-48568004D01*
X149214287Y-48568004D02*
X149309525Y-48520385D01*
X149309525Y-48520385D02*
X149357144Y-48472766D01*
X149357144Y-48472766D02*
X149404763Y-48377528D01*
X149404763Y-48377528D02*
X149404763Y-48282290D01*
X149404763Y-48282290D02*
X149357144Y-48187052D01*
X149357144Y-48187052D02*
X149309525Y-48139433D01*
X149309525Y-48139433D02*
X149214287Y-48091814D01*
X149214287Y-48091814D02*
X149023811Y-48044195D01*
X149023811Y-48044195D02*
X148928573Y-47996576D01*
X148928573Y-47996576D02*
X148880954Y-47948957D01*
X148880954Y-47948957D02*
X148833335Y-47853719D01*
X148833335Y-47853719D02*
X148833335Y-47758481D01*
X148833335Y-47758481D02*
X148880954Y-47663243D01*
X148880954Y-47663243D02*
X148928573Y-47615624D01*
X148928573Y-47615624D02*
X149023811Y-47568004D01*
X149023811Y-47568004D02*
X149261906Y-47568004D01*
X149261906Y-47568004D02*
X149404763Y-47615624D01*
X149690478Y-47568004D02*
X150261906Y-47568004D01*
X149976192Y-48568004D02*
X149976192Y-47568004D01*
X148138098Y-37610627D02*
X148042860Y-37563007D01*
X148042860Y-37563007D02*
X147900003Y-37563007D01*
X147900003Y-37563007D02*
X147757146Y-37610627D01*
X147757146Y-37610627D02*
X147661908Y-37705865D01*
X147661908Y-37705865D02*
X147614289Y-37801103D01*
X147614289Y-37801103D02*
X147566670Y-37991579D01*
X147566670Y-37991579D02*
X147566670Y-38134436D01*
X147566670Y-38134436D02*
X147614289Y-38324912D01*
X147614289Y-38324912D02*
X147661908Y-38420150D01*
X147661908Y-38420150D02*
X147757146Y-38515388D01*
X147757146Y-38515388D02*
X147900003Y-38563007D01*
X147900003Y-38563007D02*
X147995241Y-38563007D01*
X147995241Y-38563007D02*
X148138098Y-38515388D01*
X148138098Y-38515388D02*
X148185717Y-38467769D01*
X148185717Y-38467769D02*
X148185717Y-38134436D01*
X148185717Y-38134436D02*
X147995241Y-38134436D01*
X148614289Y-38563007D02*
X148614289Y-37563007D01*
X148614289Y-37563007D02*
X149185717Y-38563007D01*
X149185717Y-38563007D02*
X149185717Y-37563007D01*
X149661908Y-38563007D02*
X149661908Y-37563007D01*
X149661908Y-37563007D02*
X149900003Y-37563007D01*
X149900003Y-37563007D02*
X150042860Y-37610627D01*
X150042860Y-37610627D02*
X150138098Y-37705865D01*
X150138098Y-37705865D02*
X150185717Y-37801103D01*
X150185717Y-37801103D02*
X150233336Y-37991579D01*
X150233336Y-37991579D02*
X150233336Y-38134436D01*
X150233336Y-38134436D02*
X150185717Y-38324912D01*
X150185717Y-38324912D02*
X150138098Y-38420150D01*
X150138098Y-38420150D02*
X150042860Y-38515388D01*
X150042860Y-38515388D02*
X149900003Y-38563007D01*
X149900003Y-38563007D02*
X149661908Y-38563007D01*
X147614292Y-42519760D02*
X147757149Y-42567379D01*
X147757149Y-42567379D02*
X147995244Y-42567379D01*
X147995244Y-42567379D02*
X148090482Y-42519760D01*
X148090482Y-42519760D02*
X148138101Y-42472141D01*
X148138101Y-42472141D02*
X148185720Y-42376903D01*
X148185720Y-42376903D02*
X148185720Y-42281665D01*
X148185720Y-42281665D02*
X148138101Y-42186427D01*
X148138101Y-42186427D02*
X148090482Y-42138808D01*
X148090482Y-42138808D02*
X147995244Y-42091189D01*
X147995244Y-42091189D02*
X147804768Y-42043570D01*
X147804768Y-42043570D02*
X147709530Y-41995951D01*
X147709530Y-41995951D02*
X147661911Y-41948332D01*
X147661911Y-41948332D02*
X147614292Y-41853094D01*
X147614292Y-41853094D02*
X147614292Y-41757856D01*
X147614292Y-41757856D02*
X147661911Y-41662618D01*
X147661911Y-41662618D02*
X147709530Y-41614999D01*
X147709530Y-41614999D02*
X147804768Y-41567379D01*
X147804768Y-41567379D02*
X148042863Y-41567379D01*
X148042863Y-41567379D02*
X148185720Y-41614999D01*
X149185720Y-42472141D02*
X149138101Y-42519760D01*
X149138101Y-42519760D02*
X148995244Y-42567379D01*
X148995244Y-42567379D02*
X148900006Y-42567379D01*
X148900006Y-42567379D02*
X148757149Y-42519760D01*
X148757149Y-42519760D02*
X148661911Y-42424522D01*
X148661911Y-42424522D02*
X148614292Y-42329284D01*
X148614292Y-42329284D02*
X148566673Y-42138808D01*
X148566673Y-42138808D02*
X148566673Y-41995951D01*
X148566673Y-41995951D02*
X148614292Y-41805475D01*
X148614292Y-41805475D02*
X148661911Y-41710237D01*
X148661911Y-41710237D02*
X148757149Y-41614999D01*
X148757149Y-41614999D02*
X148900006Y-41567379D01*
X148900006Y-41567379D02*
X148995244Y-41567379D01*
X148995244Y-41567379D02*
X149138101Y-41614999D01*
X149138101Y-41614999D02*
X149185720Y-41662618D01*
X149614292Y-42567379D02*
X149614292Y-41567379D01*
X150185720Y-42567379D02*
X149757149Y-41995951D01*
X150185720Y-41567379D02*
X149614292Y-42138808D01*
X174184243Y-67061906D02*
X174136623Y-67157144D01*
X174136623Y-67157144D02*
X174136623Y-67300001D01*
X174136623Y-67300001D02*
X174184243Y-67442858D01*
X174184243Y-67442858D02*
X174279481Y-67538096D01*
X174279481Y-67538096D02*
X174374719Y-67585715D01*
X174374719Y-67585715D02*
X174565195Y-67633334D01*
X174565195Y-67633334D02*
X174708052Y-67633334D01*
X174708052Y-67633334D02*
X174898528Y-67585715D01*
X174898528Y-67585715D02*
X174993766Y-67538096D01*
X174993766Y-67538096D02*
X175089004Y-67442858D01*
X175089004Y-67442858D02*
X175136623Y-67300001D01*
X175136623Y-67300001D02*
X175136623Y-67204763D01*
X175136623Y-67204763D02*
X175089004Y-67061906D01*
X175089004Y-67061906D02*
X175041385Y-67014287D01*
X175041385Y-67014287D02*
X174708052Y-67014287D01*
X174708052Y-67014287D02*
X174708052Y-67204763D01*
X175136623Y-66585715D02*
X174136623Y-66585715D01*
X174136623Y-66585715D02*
X175136623Y-66014287D01*
X175136623Y-66014287D02*
X174136623Y-66014287D01*
X175136623Y-65538096D02*
X174136623Y-65538096D01*
X174136623Y-65538096D02*
X174136623Y-65300001D01*
X174136623Y-65300001D02*
X174184243Y-65157144D01*
X174184243Y-65157144D02*
X174279481Y-65061906D01*
X174279481Y-65061906D02*
X174374719Y-65014287D01*
X174374719Y-65014287D02*
X174565195Y-64966668D01*
X174565195Y-64966668D02*
X174708052Y-64966668D01*
X174708052Y-64966668D02*
X174898528Y-65014287D01*
X174898528Y-65014287D02*
X174993766Y-65061906D01*
X174993766Y-65061906D02*
X175089004Y-65157144D01*
X175089004Y-65157144D02*
X175136623Y-65300001D01*
X175136623Y-65300001D02*
X175136623Y-65538096D01*
X177571382Y-66895241D02*
X177619001Y-66942860D01*
X177619001Y-66942860D02*
X177666620Y-67085717D01*
X177666620Y-67085717D02*
X177666620Y-67180955D01*
X177666620Y-67180955D02*
X177619001Y-67323812D01*
X177619001Y-67323812D02*
X177523763Y-67419050D01*
X177523763Y-67419050D02*
X177428525Y-67466669D01*
X177428525Y-67466669D02*
X177238049Y-67514288D01*
X177238049Y-67514288D02*
X177095192Y-67514288D01*
X177095192Y-67514288D02*
X176904716Y-67466669D01*
X176904716Y-67466669D02*
X176809478Y-67419050D01*
X176809478Y-67419050D02*
X176714240Y-67323812D01*
X176714240Y-67323812D02*
X176666620Y-67180955D01*
X176666620Y-67180955D02*
X176666620Y-67085717D01*
X176666620Y-67085717D02*
X176714240Y-66942860D01*
X176714240Y-66942860D02*
X176761859Y-66895241D01*
X177666620Y-65990479D02*
X177666620Y-66466669D01*
X177666620Y-66466669D02*
X176666620Y-66466669D01*
X177666620Y-65657145D02*
X176666620Y-65657145D01*
X177666620Y-65085717D02*
X177095192Y-65514288D01*
X176666620Y-65085717D02*
X177238049Y-65657145D01*
X172619761Y-67657142D02*
X172667380Y-67514285D01*
X172667380Y-67514285D02*
X172667380Y-67276190D01*
X172667380Y-67276190D02*
X172619761Y-67180952D01*
X172619761Y-67180952D02*
X172572142Y-67133333D01*
X172572142Y-67133333D02*
X172476904Y-67085714D01*
X172476904Y-67085714D02*
X172381666Y-67085714D01*
X172381666Y-67085714D02*
X172286428Y-67133333D01*
X172286428Y-67133333D02*
X172238809Y-67180952D01*
X172238809Y-67180952D02*
X172191190Y-67276190D01*
X172191190Y-67276190D02*
X172143571Y-67466666D01*
X172143571Y-67466666D02*
X172095952Y-67561904D01*
X172095952Y-67561904D02*
X172048333Y-67609523D01*
X172048333Y-67609523D02*
X171953095Y-67657142D01*
X171953095Y-67657142D02*
X171857857Y-67657142D01*
X171857857Y-67657142D02*
X171762619Y-67609523D01*
X171762619Y-67609523D02*
X171715000Y-67561904D01*
X171715000Y-67561904D02*
X171667380Y-67466666D01*
X171667380Y-67466666D02*
X171667380Y-67228571D01*
X171667380Y-67228571D02*
X171715000Y-67085714D01*
X171667380Y-66752380D02*
X172667380Y-66514285D01*
X172667380Y-66514285D02*
X171953095Y-66323809D01*
X171953095Y-66323809D02*
X172667380Y-66133333D01*
X172667380Y-66133333D02*
X171667380Y-65895238D01*
X172667380Y-65514285D02*
X171667380Y-65514285D01*
X171667380Y-65514285D02*
X171667380Y-65276190D01*
X171667380Y-65276190D02*
X171715000Y-65133333D01*
X171715000Y-65133333D02*
X171810238Y-65038095D01*
X171810238Y-65038095D02*
X171905476Y-64990476D01*
X171905476Y-64990476D02*
X172095952Y-64942857D01*
X172095952Y-64942857D02*
X172238809Y-64942857D01*
X172238809Y-64942857D02*
X172429285Y-64990476D01*
X172429285Y-64990476D02*
X172524523Y-65038095D01*
X172524523Y-65038095D02*
X172619761Y-65133333D01*
X172619761Y-65133333D02*
X172667380Y-65276190D01*
X172667380Y-65276190D02*
X172667380Y-65514285D01*
X179236621Y-67538094D02*
X179236621Y-66919047D01*
X179236621Y-66919047D02*
X179617574Y-67252380D01*
X179617574Y-67252380D02*
X179617574Y-67109523D01*
X179617574Y-67109523D02*
X179665193Y-67014285D01*
X179665193Y-67014285D02*
X179712812Y-66966666D01*
X179712812Y-66966666D02*
X179808050Y-66919047D01*
X179808050Y-66919047D02*
X180046145Y-66919047D01*
X180046145Y-66919047D02*
X180141383Y-66966666D01*
X180141383Y-66966666D02*
X180189002Y-67014285D01*
X180189002Y-67014285D02*
X180236621Y-67109523D01*
X180236621Y-67109523D02*
X180236621Y-67395237D01*
X180236621Y-67395237D02*
X180189002Y-67490475D01*
X180189002Y-67490475D02*
X180141383Y-67538094D01*
X179236621Y-66633332D02*
X180236621Y-66299999D01*
X180236621Y-66299999D02*
X179236621Y-65966666D01*
X179236621Y-65728570D02*
X179236621Y-65109523D01*
X179236621Y-65109523D02*
X179617574Y-65442856D01*
X179617574Y-65442856D02*
X179617574Y-65299999D01*
X179617574Y-65299999D02*
X179665193Y-65204761D01*
X179665193Y-65204761D02*
X179712812Y-65157142D01*
X179712812Y-65157142D02*
X179808050Y-65109523D01*
X179808050Y-65109523D02*
X180046145Y-65109523D01*
X180046145Y-65109523D02*
X180141383Y-65157142D01*
X180141383Y-65157142D02*
X180189002Y-65204761D01*
X180189002Y-65204761D02*
X180236621Y-65299999D01*
X180236621Y-65299999D02*
X180236621Y-65585713D01*
X180236621Y-65585713D02*
X180189002Y-65680951D01*
X180189002Y-65680951D02*
X180141383Y-65728570D01*
X173261906Y-161843579D02*
X173595239Y-161843579D01*
X173738096Y-162367388D02*
X173261906Y-162367388D01*
X173261906Y-162367388D02*
X173261906Y-161367388D01*
X173261906Y-161367388D02*
X173738096Y-161367388D01*
X174166668Y-161700722D02*
X174166668Y-162367388D01*
X174166668Y-161795960D02*
X174214287Y-161748341D01*
X174214287Y-161748341D02*
X174309525Y-161700722D01*
X174309525Y-161700722D02*
X174452382Y-161700722D01*
X174452382Y-161700722D02*
X174547620Y-161748341D01*
X174547620Y-161748341D02*
X174595239Y-161843579D01*
X174595239Y-161843579D02*
X174595239Y-162367388D01*
X175500001Y-162319769D02*
X175404763Y-162367388D01*
X175404763Y-162367388D02*
X175214287Y-162367388D01*
X175214287Y-162367388D02*
X175119049Y-162319769D01*
X175119049Y-162319769D02*
X175071430Y-162272150D01*
X175071430Y-162272150D02*
X175023811Y-162176912D01*
X175023811Y-162176912D02*
X175023811Y-161891198D01*
X175023811Y-161891198D02*
X175071430Y-161795960D01*
X175071430Y-161795960D02*
X175119049Y-161748341D01*
X175119049Y-161748341D02*
X175214287Y-161700722D01*
X175214287Y-161700722D02*
X175404763Y-161700722D01*
X175404763Y-161700722D02*
X175500001Y-161748341D01*
X176071430Y-162367388D02*
X175976192Y-162319769D01*
X175976192Y-162319769D02*
X175928573Y-162272150D01*
X175928573Y-162272150D02*
X175880954Y-162176912D01*
X175880954Y-162176912D02*
X175880954Y-161891198D01*
X175880954Y-161891198D02*
X175928573Y-161795960D01*
X175928573Y-161795960D02*
X175976192Y-161748341D01*
X175976192Y-161748341D02*
X176071430Y-161700722D01*
X176071430Y-161700722D02*
X176214287Y-161700722D01*
X176214287Y-161700722D02*
X176309525Y-161748341D01*
X176309525Y-161748341D02*
X176357144Y-161795960D01*
X176357144Y-161795960D02*
X176404763Y-161891198D01*
X176404763Y-161891198D02*
X176404763Y-162176912D01*
X176404763Y-162176912D02*
X176357144Y-162272150D01*
X176357144Y-162272150D02*
X176309525Y-162319769D01*
X176309525Y-162319769D02*
X176214287Y-162367388D01*
X176214287Y-162367388D02*
X176071430Y-162367388D01*
X177261906Y-162367388D02*
X177261906Y-161367388D01*
X177261906Y-162319769D02*
X177166668Y-162367388D01*
X177166668Y-162367388D02*
X176976192Y-162367388D01*
X176976192Y-162367388D02*
X176880954Y-162319769D01*
X176880954Y-162319769D02*
X176833335Y-162272150D01*
X176833335Y-162272150D02*
X176785716Y-162176912D01*
X176785716Y-162176912D02*
X176785716Y-161891198D01*
X176785716Y-161891198D02*
X176833335Y-161795960D01*
X176833335Y-161795960D02*
X176880954Y-161748341D01*
X176880954Y-161748341D02*
X176976192Y-161700722D01*
X176976192Y-161700722D02*
X177166668Y-161700722D01*
X177166668Y-161700722D02*
X177261906Y-161748341D01*
X178119049Y-162319769D02*
X178023811Y-162367388D01*
X178023811Y-162367388D02*
X177833335Y-162367388D01*
X177833335Y-162367388D02*
X177738097Y-162319769D01*
X177738097Y-162319769D02*
X177690478Y-162224531D01*
X177690478Y-162224531D02*
X177690478Y-161843579D01*
X177690478Y-161843579D02*
X177738097Y-161748341D01*
X177738097Y-161748341D02*
X177833335Y-161700722D01*
X177833335Y-161700722D02*
X178023811Y-161700722D01*
X178023811Y-161700722D02*
X178119049Y-161748341D01*
X178119049Y-161748341D02*
X178166668Y-161843579D01*
X178166668Y-161843579D02*
X178166668Y-161938817D01*
X178166668Y-161938817D02*
X177690478Y-162034055D01*
X178595240Y-162367388D02*
X178595240Y-161700722D01*
X178595240Y-161891198D02*
X178642859Y-161795960D01*
X178642859Y-161795960D02*
X178690478Y-161748341D01*
X178690478Y-161748341D02*
X178785716Y-161700722D01*
X178785716Y-161700722D02*
X178880954Y-161700722D01*
D11*
X115352380Y-36984761D02*
X115352380Y-34984761D01*
X115352380Y-35937142D02*
X116495237Y-35937142D01*
X116495237Y-36984761D02*
X116495237Y-34984761D01*
X117733332Y-36984761D02*
X117542856Y-36889523D01*
X117542856Y-36889523D02*
X117447618Y-36794285D01*
X117447618Y-36794285D02*
X117352380Y-36603809D01*
X117352380Y-36603809D02*
X117352380Y-36032380D01*
X117352380Y-36032380D02*
X117447618Y-35841904D01*
X117447618Y-35841904D02*
X117542856Y-35746666D01*
X117542856Y-35746666D02*
X117733332Y-35651428D01*
X117733332Y-35651428D02*
X118019047Y-35651428D01*
X118019047Y-35651428D02*
X118209523Y-35746666D01*
X118209523Y-35746666D02*
X118304761Y-35841904D01*
X118304761Y-35841904D02*
X118399999Y-36032380D01*
X118399999Y-36032380D02*
X118399999Y-36603809D01*
X118399999Y-36603809D02*
X118304761Y-36794285D01*
X118304761Y-36794285D02*
X118209523Y-36889523D01*
X118209523Y-36889523D02*
X118019047Y-36984761D01*
X118019047Y-36984761D02*
X117733332Y-36984761D01*
X119257142Y-35651428D02*
X119257142Y-36984761D01*
X119257142Y-35841904D02*
X119352380Y-35746666D01*
X119352380Y-35746666D02*
X119542856Y-35651428D01*
X119542856Y-35651428D02*
X119828571Y-35651428D01*
X119828571Y-35651428D02*
X120019047Y-35746666D01*
X120019047Y-35746666D02*
X120114285Y-35937142D01*
X120114285Y-35937142D02*
X120114285Y-36984761D01*
X121828571Y-36889523D02*
X121638095Y-36984761D01*
X121638095Y-36984761D02*
X121257142Y-36984761D01*
X121257142Y-36984761D02*
X121066666Y-36889523D01*
X121066666Y-36889523D02*
X120971428Y-36699047D01*
X120971428Y-36699047D02*
X120971428Y-35937142D01*
X120971428Y-35937142D02*
X121066666Y-35746666D01*
X121066666Y-35746666D02*
X121257142Y-35651428D01*
X121257142Y-35651428D02*
X121638095Y-35651428D01*
X121638095Y-35651428D02*
X121828571Y-35746666D01*
X121828571Y-35746666D02*
X121923809Y-35937142D01*
X121923809Y-35937142D02*
X121923809Y-36127619D01*
X121923809Y-36127619D02*
X120971428Y-36318095D01*
X122590476Y-35651428D02*
X123066666Y-36984761D01*
X123542857Y-35651428D02*
X123066666Y-36984761D01*
X123066666Y-36984761D02*
X122876190Y-37460952D01*
X122876190Y-37460952D02*
X122780952Y-37556190D01*
X122780952Y-37556190D02*
X122590476Y-37651428D01*
X125161905Y-36984761D02*
X125161905Y-34984761D01*
X125161905Y-36889523D02*
X124971429Y-36984761D01*
X124971429Y-36984761D02*
X124590476Y-36984761D01*
X124590476Y-36984761D02*
X124400000Y-36889523D01*
X124400000Y-36889523D02*
X124304762Y-36794285D01*
X124304762Y-36794285D02*
X124209524Y-36603809D01*
X124209524Y-36603809D02*
X124209524Y-36032380D01*
X124209524Y-36032380D02*
X124304762Y-35841904D01*
X124304762Y-35841904D02*
X124400000Y-35746666D01*
X124400000Y-35746666D02*
X124590476Y-35651428D01*
X124590476Y-35651428D02*
X124971429Y-35651428D01*
X124971429Y-35651428D02*
X125161905Y-35746666D01*
X126876191Y-36889523D02*
X126685715Y-36984761D01*
X126685715Y-36984761D02*
X126304762Y-36984761D01*
X126304762Y-36984761D02*
X126114286Y-36889523D01*
X126114286Y-36889523D02*
X126019048Y-36699047D01*
X126019048Y-36699047D02*
X126019048Y-35937142D01*
X126019048Y-35937142D02*
X126114286Y-35746666D01*
X126114286Y-35746666D02*
X126304762Y-35651428D01*
X126304762Y-35651428D02*
X126685715Y-35651428D01*
X126685715Y-35651428D02*
X126876191Y-35746666D01*
X126876191Y-35746666D02*
X126971429Y-35937142D01*
X126971429Y-35937142D02*
X126971429Y-36127619D01*
X126971429Y-36127619D02*
X126019048Y-36318095D01*
X127638096Y-35651428D02*
X128019048Y-36984761D01*
X128019048Y-36984761D02*
X128400001Y-36032380D01*
X128400001Y-36032380D02*
X128780953Y-36984761D01*
X128780953Y-36984761D02*
X129161905Y-35651428D01*
X130838096Y-34984761D02*
X131504762Y-36984761D01*
X131504762Y-36984761D02*
X132171429Y-34984761D01*
X133885715Y-36984761D02*
X132742858Y-36984761D01*
X133314286Y-36984761D02*
X133314286Y-34984761D01*
X133314286Y-34984761D02*
X133123810Y-35270476D01*
X133123810Y-35270476D02*
X132933334Y-35460952D01*
X132933334Y-35460952D02*
X132742858Y-35556190D01*
X134742858Y-36794285D02*
X134838096Y-36889523D01*
X134838096Y-36889523D02*
X134742858Y-36984761D01*
X134742858Y-36984761D02*
X134647620Y-36889523D01*
X134647620Y-36889523D02*
X134742858Y-36794285D01*
X134742858Y-36794285D02*
X134742858Y-36984761D01*
X136742858Y-36984761D02*
X135600001Y-36984761D01*
X136171429Y-36984761D02*
X136171429Y-34984761D01*
X136171429Y-34984761D02*
X135980953Y-35270476D01*
X135980953Y-35270476D02*
X135790477Y-35460952D01*
X135790477Y-35460952D02*
X135600001Y-35556190D01*
D10*
X172690478Y-121367386D02*
X173261906Y-121367386D01*
X172976192Y-122367386D02*
X172976192Y-121367386D01*
X173595240Y-122367386D02*
X173595240Y-121700720D01*
X173595240Y-121891196D02*
X173642859Y-121795958D01*
X173642859Y-121795958D02*
X173690478Y-121748339D01*
X173690478Y-121748339D02*
X173785716Y-121700720D01*
X173785716Y-121700720D02*
X173880954Y-121700720D01*
X174642859Y-122367386D02*
X174642859Y-121843577D01*
X174642859Y-121843577D02*
X174595240Y-121748339D01*
X174595240Y-121748339D02*
X174500002Y-121700720D01*
X174500002Y-121700720D02*
X174309526Y-121700720D01*
X174309526Y-121700720D02*
X174214288Y-121748339D01*
X174642859Y-122319767D02*
X174547621Y-122367386D01*
X174547621Y-122367386D02*
X174309526Y-122367386D01*
X174309526Y-122367386D02*
X174214288Y-122319767D01*
X174214288Y-122319767D02*
X174166669Y-122224529D01*
X174166669Y-122224529D02*
X174166669Y-122129291D01*
X174166669Y-122129291D02*
X174214288Y-122034053D01*
X174214288Y-122034053D02*
X174309526Y-121986434D01*
X174309526Y-121986434D02*
X174547621Y-121986434D01*
X174547621Y-121986434D02*
X174642859Y-121938815D01*
X175547621Y-122319767D02*
X175452383Y-122367386D01*
X175452383Y-122367386D02*
X175261907Y-122367386D01*
X175261907Y-122367386D02*
X175166669Y-122319767D01*
X175166669Y-122319767D02*
X175119050Y-122272148D01*
X175119050Y-122272148D02*
X175071431Y-122176910D01*
X175071431Y-122176910D02*
X175071431Y-121891196D01*
X175071431Y-121891196D02*
X175119050Y-121795958D01*
X175119050Y-121795958D02*
X175166669Y-121748339D01*
X175166669Y-121748339D02*
X175261907Y-121700720D01*
X175261907Y-121700720D02*
X175452383Y-121700720D01*
X175452383Y-121700720D02*
X175547621Y-121748339D01*
X175976193Y-122367386D02*
X175976193Y-121367386D01*
X176071431Y-121986434D02*
X176357145Y-122367386D01*
X176357145Y-121700720D02*
X175976193Y-122081672D01*
X176785717Y-122367386D02*
X176785717Y-121367386D01*
X176785717Y-121748339D02*
X176880955Y-121700720D01*
X176880955Y-121700720D02*
X177071431Y-121700720D01*
X177071431Y-121700720D02*
X177166669Y-121748339D01*
X177166669Y-121748339D02*
X177214288Y-121795958D01*
X177214288Y-121795958D02*
X177261907Y-121891196D01*
X177261907Y-121891196D02*
X177261907Y-122176910D01*
X177261907Y-122176910D02*
X177214288Y-122272148D01*
X177214288Y-122272148D02*
X177166669Y-122319767D01*
X177166669Y-122319767D02*
X177071431Y-122367386D01*
X177071431Y-122367386D02*
X176880955Y-122367386D01*
X176880955Y-122367386D02*
X176785717Y-122319767D01*
X178119050Y-122367386D02*
X178119050Y-121843577D01*
X178119050Y-121843577D02*
X178071431Y-121748339D01*
X178071431Y-121748339D02*
X177976193Y-121700720D01*
X177976193Y-121700720D02*
X177785717Y-121700720D01*
X177785717Y-121700720D02*
X177690479Y-121748339D01*
X178119050Y-122319767D02*
X178023812Y-122367386D01*
X178023812Y-122367386D02*
X177785717Y-122367386D01*
X177785717Y-122367386D02*
X177690479Y-122319767D01*
X177690479Y-122319767D02*
X177642860Y-122224529D01*
X177642860Y-122224529D02*
X177642860Y-122129291D01*
X177642860Y-122129291D02*
X177690479Y-122034053D01*
X177690479Y-122034053D02*
X177785717Y-121986434D01*
X177785717Y-121986434D02*
X178023812Y-121986434D01*
X178023812Y-121986434D02*
X178119050Y-121938815D01*
X178738098Y-122367386D02*
X178642860Y-122319767D01*
X178642860Y-122319767D02*
X178595241Y-122224529D01*
X178595241Y-122224529D02*
X178595241Y-121367386D01*
X179261908Y-122367386D02*
X179166670Y-122319767D01*
X179166670Y-122319767D02*
X179119051Y-122224529D01*
X179119051Y-122224529D02*
X179119051Y-121367386D01*
X147661905Y-35568005D02*
X148280952Y-35568005D01*
X148280952Y-35568005D02*
X147947619Y-35948958D01*
X147947619Y-35948958D02*
X148090476Y-35948958D01*
X148090476Y-35948958D02*
X148185714Y-35996577D01*
X148185714Y-35996577D02*
X148233333Y-36044196D01*
X148233333Y-36044196D02*
X148280952Y-36139434D01*
X148280952Y-36139434D02*
X148280952Y-36377529D01*
X148280952Y-36377529D02*
X148233333Y-36472767D01*
X148233333Y-36472767D02*
X148185714Y-36520386D01*
X148185714Y-36520386D02*
X148090476Y-36568005D01*
X148090476Y-36568005D02*
X147804762Y-36568005D01*
X147804762Y-36568005D02*
X147709524Y-36520386D01*
X147709524Y-36520386D02*
X147661905Y-36472767D01*
X148566667Y-35568005D02*
X148900000Y-36568005D01*
X148900000Y-36568005D02*
X149233333Y-35568005D01*
X149471429Y-35568005D02*
X150090476Y-35568005D01*
X150090476Y-35568005D02*
X149757143Y-35948958D01*
X149757143Y-35948958D02*
X149900000Y-35948958D01*
X149900000Y-35948958D02*
X149995238Y-35996577D01*
X149995238Y-35996577D02*
X150042857Y-36044196D01*
X150042857Y-36044196D02*
X150090476Y-36139434D01*
X150090476Y-36139434D02*
X150090476Y-36377529D01*
X150090476Y-36377529D02*
X150042857Y-36472767D01*
X150042857Y-36472767D02*
X149995238Y-36520386D01*
X149995238Y-36520386D02*
X149900000Y-36568005D01*
X149900000Y-36568005D02*
X149614286Y-36568005D01*
X149614286Y-36568005D02*
X149519048Y-36520386D01*
X149519048Y-36520386D02*
X149471429Y-36472767D01*
X172761910Y-110367378D02*
X173333338Y-110367378D01*
X173047624Y-111367378D02*
X173047624Y-110367378D01*
X173666672Y-111367378D02*
X173666672Y-110700712D01*
X173666672Y-110891188D02*
X173714291Y-110795950D01*
X173714291Y-110795950D02*
X173761910Y-110748331D01*
X173761910Y-110748331D02*
X173857148Y-110700712D01*
X173857148Y-110700712D02*
X173952386Y-110700712D01*
X174714291Y-111367378D02*
X174714291Y-110843569D01*
X174714291Y-110843569D02*
X174666672Y-110748331D01*
X174666672Y-110748331D02*
X174571434Y-110700712D01*
X174571434Y-110700712D02*
X174380958Y-110700712D01*
X174380958Y-110700712D02*
X174285720Y-110748331D01*
X174714291Y-111319759D02*
X174619053Y-111367378D01*
X174619053Y-111367378D02*
X174380958Y-111367378D01*
X174380958Y-111367378D02*
X174285720Y-111319759D01*
X174285720Y-111319759D02*
X174238101Y-111224521D01*
X174238101Y-111224521D02*
X174238101Y-111129283D01*
X174238101Y-111129283D02*
X174285720Y-111034045D01*
X174285720Y-111034045D02*
X174380958Y-110986426D01*
X174380958Y-110986426D02*
X174619053Y-110986426D01*
X174619053Y-110986426D02*
X174714291Y-110938807D01*
X175619053Y-111319759D02*
X175523815Y-111367378D01*
X175523815Y-111367378D02*
X175333339Y-111367378D01*
X175333339Y-111367378D02*
X175238101Y-111319759D01*
X175238101Y-111319759D02*
X175190482Y-111272140D01*
X175190482Y-111272140D02*
X175142863Y-111176902D01*
X175142863Y-111176902D02*
X175142863Y-110891188D01*
X175142863Y-110891188D02*
X175190482Y-110795950D01*
X175190482Y-110795950D02*
X175238101Y-110748331D01*
X175238101Y-110748331D02*
X175333339Y-110700712D01*
X175333339Y-110700712D02*
X175523815Y-110700712D01*
X175523815Y-110700712D02*
X175619053Y-110748331D01*
X176047625Y-111367378D02*
X176047625Y-110367378D01*
X176142863Y-110986426D02*
X176428577Y-111367378D01*
X176428577Y-110700712D02*
X176047625Y-111081664D01*
X176857149Y-110700712D02*
X176857149Y-111700712D01*
X176857149Y-110748331D02*
X176952387Y-110700712D01*
X176952387Y-110700712D02*
X177142863Y-110700712D01*
X177142863Y-110700712D02*
X177238101Y-110748331D01*
X177238101Y-110748331D02*
X177285720Y-110795950D01*
X177285720Y-110795950D02*
X177333339Y-110891188D01*
X177333339Y-110891188D02*
X177333339Y-111176902D01*
X177333339Y-111176902D02*
X177285720Y-111272140D01*
X177285720Y-111272140D02*
X177238101Y-111319759D01*
X177238101Y-111319759D02*
X177142863Y-111367378D01*
X177142863Y-111367378D02*
X176952387Y-111367378D01*
X176952387Y-111367378D02*
X176857149Y-111319759D01*
X178190482Y-111367378D02*
X178190482Y-110843569D01*
X178190482Y-110843569D02*
X178142863Y-110748331D01*
X178142863Y-110748331D02*
X178047625Y-110700712D01*
X178047625Y-110700712D02*
X177857149Y-110700712D01*
X177857149Y-110700712D02*
X177761911Y-110748331D01*
X178190482Y-111319759D02*
X178095244Y-111367378D01*
X178095244Y-111367378D02*
X177857149Y-111367378D01*
X177857149Y-111367378D02*
X177761911Y-111319759D01*
X177761911Y-111319759D02*
X177714292Y-111224521D01*
X177714292Y-111224521D02*
X177714292Y-111129283D01*
X177714292Y-111129283D02*
X177761911Y-111034045D01*
X177761911Y-111034045D02*
X177857149Y-110986426D01*
X177857149Y-110986426D02*
X178095244Y-110986426D01*
X178095244Y-110986426D02*
X178190482Y-110938807D01*
X179095244Y-111367378D02*
X179095244Y-110367378D01*
X179095244Y-111319759D02*
X179000006Y-111367378D01*
X179000006Y-111367378D02*
X178809530Y-111367378D01*
X178809530Y-111367378D02*
X178714292Y-111319759D01*
X178714292Y-111319759D02*
X178666673Y-111272140D01*
X178666673Y-111272140D02*
X178619054Y-111176902D01*
X178619054Y-111176902D02*
X178619054Y-110891188D01*
X178619054Y-110891188D02*
X178666673Y-110795950D01*
X178666673Y-110795950D02*
X178714292Y-110748331D01*
X178714292Y-110748331D02*
X178809530Y-110700712D01*
X178809530Y-110700712D02*
X179000006Y-110700712D01*
X179000006Y-110700712D02*
X179095244Y-110748331D01*
X181302318Y-64017384D02*
X181302318Y-63017384D01*
X181302318Y-63017384D02*
X181540413Y-63017384D01*
X181540413Y-63017384D02*
X181683270Y-63065004D01*
X181683270Y-63065004D02*
X181778508Y-63160242D01*
X181778508Y-63160242D02*
X181826127Y-63255480D01*
X181826127Y-63255480D02*
X181873746Y-63445956D01*
X181873746Y-63445956D02*
X181873746Y-63588813D01*
X181873746Y-63588813D02*
X181826127Y-63779289D01*
X181826127Y-63779289D02*
X181778508Y-63874527D01*
X181778508Y-63874527D02*
X181683270Y-63969765D01*
X181683270Y-63969765D02*
X181540413Y-64017384D01*
X181540413Y-64017384D02*
X181302318Y-64017384D01*
X182683270Y-63969765D02*
X182588032Y-64017384D01*
X182588032Y-64017384D02*
X182397556Y-64017384D01*
X182397556Y-64017384D02*
X182302318Y-63969765D01*
X182302318Y-63969765D02*
X182254699Y-63874527D01*
X182254699Y-63874527D02*
X182254699Y-63493575D01*
X182254699Y-63493575D02*
X182302318Y-63398337D01*
X182302318Y-63398337D02*
X182397556Y-63350718D01*
X182397556Y-63350718D02*
X182588032Y-63350718D01*
X182588032Y-63350718D02*
X182683270Y-63398337D01*
X182683270Y-63398337D02*
X182730889Y-63493575D01*
X182730889Y-63493575D02*
X182730889Y-63588813D01*
X182730889Y-63588813D02*
X182254699Y-63684051D01*
X183159461Y-64017384D02*
X183159461Y-63017384D01*
X183159461Y-63398337D02*
X183254699Y-63350718D01*
X183254699Y-63350718D02*
X183445175Y-63350718D01*
X183445175Y-63350718D02*
X183540413Y-63398337D01*
X183540413Y-63398337D02*
X183588032Y-63445956D01*
X183588032Y-63445956D02*
X183635651Y-63541194D01*
X183635651Y-63541194D02*
X183635651Y-63826908D01*
X183635651Y-63826908D02*
X183588032Y-63922146D01*
X183588032Y-63922146D02*
X183540413Y-63969765D01*
X183540413Y-63969765D02*
X183445175Y-64017384D01*
X183445175Y-64017384D02*
X183254699Y-64017384D01*
X183254699Y-64017384D02*
X183159461Y-63969765D01*
X184492794Y-63350718D02*
X184492794Y-64017384D01*
X184064223Y-63350718D02*
X184064223Y-63874527D01*
X184064223Y-63874527D02*
X184111842Y-63969765D01*
X184111842Y-63969765D02*
X184207080Y-64017384D01*
X184207080Y-64017384D02*
X184349937Y-64017384D01*
X184349937Y-64017384D02*
X184445175Y-63969765D01*
X184445175Y-63969765D02*
X184492794Y-63922146D01*
X185397556Y-63350718D02*
X185397556Y-64160242D01*
X185397556Y-64160242D02*
X185349937Y-64255480D01*
X185349937Y-64255480D02*
X185302318Y-64303099D01*
X185302318Y-64303099D02*
X185207080Y-64350718D01*
X185207080Y-64350718D02*
X185064223Y-64350718D01*
X185064223Y-64350718D02*
X184968985Y-64303099D01*
X185397556Y-63969765D02*
X185302318Y-64017384D01*
X185302318Y-64017384D02*
X185111842Y-64017384D01*
X185111842Y-64017384D02*
X185016604Y-63969765D01*
X185016604Y-63969765D02*
X184968985Y-63922146D01*
X184968985Y-63922146D02*
X184921366Y-63826908D01*
X184921366Y-63826908D02*
X184921366Y-63541194D01*
X184921366Y-63541194D02*
X184968985Y-63445956D01*
X184968985Y-63445956D02*
X185016604Y-63398337D01*
X185016604Y-63398337D02*
X185111842Y-63350718D01*
X185111842Y-63350718D02*
X185302318Y-63350718D01*
X185302318Y-63350718D02*
X185397556Y-63398337D01*
X148733340Y-44472766D02*
X148685721Y-44520385D01*
X148685721Y-44520385D02*
X148542864Y-44568004D01*
X148542864Y-44568004D02*
X148447626Y-44568004D01*
X148447626Y-44568004D02*
X148304769Y-44520385D01*
X148304769Y-44520385D02*
X148209531Y-44425147D01*
X148209531Y-44425147D02*
X148161912Y-44329909D01*
X148161912Y-44329909D02*
X148114293Y-44139433D01*
X148114293Y-44139433D02*
X148114293Y-43996576D01*
X148114293Y-43996576D02*
X148161912Y-43806100D01*
X148161912Y-43806100D02*
X148209531Y-43710862D01*
X148209531Y-43710862D02*
X148304769Y-43615624D01*
X148304769Y-43615624D02*
X148447626Y-43568004D01*
X148447626Y-43568004D02*
X148542864Y-43568004D01*
X148542864Y-43568004D02*
X148685721Y-43615624D01*
X148685721Y-43615624D02*
X148733340Y-43663243D01*
X149114293Y-44520385D02*
X149257150Y-44568004D01*
X149257150Y-44568004D02*
X149495245Y-44568004D01*
X149495245Y-44568004D02*
X149590483Y-44520385D01*
X149590483Y-44520385D02*
X149638102Y-44472766D01*
X149638102Y-44472766D02*
X149685721Y-44377528D01*
X149685721Y-44377528D02*
X149685721Y-44282290D01*
X149685721Y-44282290D02*
X149638102Y-44187052D01*
X149638102Y-44187052D02*
X149590483Y-44139433D01*
X149590483Y-44139433D02*
X149495245Y-44091814D01*
X149495245Y-44091814D02*
X149304769Y-44044195D01*
X149304769Y-44044195D02*
X149209531Y-43996576D01*
X149209531Y-43996576D02*
X149161912Y-43948957D01*
X149161912Y-43948957D02*
X149114293Y-43853719D01*
X149114293Y-43853719D02*
X149114293Y-43758481D01*
X149114293Y-43758481D02*
X149161912Y-43663243D01*
X149161912Y-43663243D02*
X149209531Y-43615624D01*
X149209531Y-43615624D02*
X149304769Y-43568004D01*
X149304769Y-43568004D02*
X149542864Y-43568004D01*
X149542864Y-43568004D02*
X149685721Y-43615624D01*
%TO.C,J4*%
X198966666Y-41566130D02*
X198966666Y-42280416D01*
X198966666Y-42280416D02*
X198919047Y-42423273D01*
X198919047Y-42423273D02*
X198823809Y-42518511D01*
X198823809Y-42518511D02*
X198680952Y-42566130D01*
X198680952Y-42566130D02*
X198585714Y-42566130D01*
X199871428Y-41899464D02*
X199871428Y-42566130D01*
X199633333Y-41518511D02*
X199395238Y-42232797D01*
X199395238Y-42232797D02*
X200014285Y-42232797D01*
%TO.C,J5*%
X151716663Y-50516754D02*
X151716663Y-51231040D01*
X151716663Y-51231040D02*
X151669044Y-51373897D01*
X151669044Y-51373897D02*
X151573806Y-51469135D01*
X151573806Y-51469135D02*
X151430949Y-51516754D01*
X151430949Y-51516754D02*
X151335711Y-51516754D01*
X152669044Y-50516754D02*
X152192854Y-50516754D01*
X152192854Y-50516754D02*
X152145235Y-50992945D01*
X152145235Y-50992945D02*
X152192854Y-50945326D01*
X152192854Y-50945326D02*
X152288092Y-50897707D01*
X152288092Y-50897707D02*
X152526187Y-50897707D01*
X152526187Y-50897707D02*
X152621425Y-50945326D01*
X152621425Y-50945326D02*
X152669044Y-50992945D01*
X152669044Y-50992945D02*
X152716663Y-51088183D01*
X152716663Y-51088183D02*
X152716663Y-51326278D01*
X152716663Y-51326278D02*
X152669044Y-51421516D01*
X152669044Y-51421516D02*
X152621425Y-51469135D01*
X152621425Y-51469135D02*
X152526187Y-51516754D01*
X152526187Y-51516754D02*
X152288092Y-51516754D01*
X152288092Y-51516754D02*
X152192854Y-51469135D01*
X152192854Y-51469135D02*
X152145235Y-51421516D01*
D12*
%TO.C,SW64*%
X185500000Y-161000000D02*
X185500000Y-158900000D01*
X185500000Y-101000000D02*
X185500000Y-103100000D01*
X185500000Y-101000000D02*
X179700000Y-101000000D01*
X166500000Y-161000000D02*
X185500000Y-161000000D01*
X166500000Y-161000000D02*
X166500000Y-158900000D01*
X166500000Y-101000000D02*
X172300000Y-101000000D01*
X166500000Y-101000000D02*
X166500000Y-103100000D01*
X192450000Y-155402633D02*
G75*
G03*
X205208281Y-134601021I-16443344J24398551D01*
G01*
X205208280Y-127398979D02*
G75*
G03*
X192450000Y-106597367I-29208280J-3601021D01*
G01*
X185500000Y-158900000D02*
G75*
G03*
X188889915Y-157479284I-11010900J31027300D01*
G01*
X188889914Y-104520719D02*
G75*
G03*
X185500000Y-103100001I-14330214J-29438081D01*
G01*
X163110085Y-157479283D02*
G75*
G03*
X166500000Y-158899999I14330425J29438637D01*
G01*
X166500000Y-103100000D02*
G75*
G03*
X163110085Y-104520716I11010886J-31027276D01*
G01*
X146791720Y-134601021D02*
G75*
G03*
X159550000Y-155402633I29208282J3601022D01*
G01*
X159550000Y-106597367D02*
G75*
G03*
X146791719Y-127398979I16443344J-24398551D01*
G01*
X198000000Y-131000000D02*
G75*
G03*
X198000000Y-131000000I-22000000J0D01*
G01*
%TO.C,J4*%
X153749996Y-23698750D02*
X153749996Y-60698750D01*
X153749996Y-60698750D02*
X198249996Y-60698750D01*
X198249996Y-23698750D02*
X153749996Y-23698750D01*
X198249996Y-60698750D02*
X198249996Y-23698750D01*
%TO.C,J5*%
X150590002Y-50260625D02*
X158410002Y-50260625D01*
X152190002Y-50260625D02*
X152190002Y-49340625D01*
X158410002Y-50260625D02*
X158410002Y-34140625D01*
X154550002Y-49500625D02*
X156150002Y-49500625D01*
X156150002Y-49500625D02*
X156150002Y-48500625D01*
X150590002Y-49340625D02*
X150590002Y-50260625D01*
X152190002Y-49340625D02*
X150590002Y-49340625D01*
X152190002Y-49060625D02*
X152190002Y-49340625D01*
X152190002Y-49060625D02*
X150975002Y-49060625D01*
X156150002Y-49000625D02*
X158410002Y-49000625D01*
X154550002Y-48500625D02*
X154550002Y-49500625D01*
X156150002Y-48500625D02*
X154550002Y-48500625D01*
X156150002Y-48500625D02*
X158410002Y-48500625D01*
X154050002Y-47700625D02*
X154050002Y-36700625D01*
X158410002Y-47700625D02*
X154050002Y-47700625D01*
X154050002Y-36700625D02*
X158410002Y-36700625D01*
X154550002Y-35900625D02*
X154550002Y-34900625D01*
X156150002Y-35900625D02*
X154550002Y-35900625D01*
X150590002Y-35060625D02*
X152190002Y-35060625D01*
X152190002Y-35060625D02*
X152190002Y-35340625D01*
X154550002Y-34900625D02*
X156150002Y-34900625D01*
X156150002Y-34900625D02*
X156150002Y-35900625D01*
X150590002Y-34140625D02*
X150590002Y-35060625D01*
X152190002Y-34140625D02*
X152190002Y-35060625D01*
X158410002Y-34140625D02*
X150590002Y-34140625D01*
%TO.C,SW25*%
X116147523Y-136408877D02*
X127615651Y-144438947D01*
X127615651Y-144438947D02*
X119585581Y-155907075D01*
X119585581Y-155907075D02*
X108117453Y-147877005D01*
X108117453Y-147877005D02*
X116147523Y-136408877D01*
%TO.C,SW30*%
X134862801Y-151138190D02*
X143861827Y-161862812D01*
X143861827Y-161862812D02*
X133137205Y-170861838D01*
X133137205Y-170861838D02*
X124138179Y-160137216D01*
X124138179Y-160137216D02*
X134862801Y-151138190D01*
%TO.C,SW1*%
X53743497Y-33772646D02*
X66899193Y-38560928D01*
X66899193Y-38560928D02*
X62110911Y-51716624D01*
X62110911Y-51716624D02*
X48955215Y-46928342D01*
X48955215Y-46928342D02*
X53743497Y-33772646D01*
%TO.C,SW24*%
X108244936Y-106825091D02*
X121400632Y-111613373D01*
X121400632Y-111613373D02*
X116612350Y-124769069D01*
X116612350Y-124769069D02*
X103456654Y-119980787D01*
X103456654Y-119980787D02*
X108244936Y-106825091D01*
%TO.C,SW29*%
X125060140Y-116324126D02*
X138215836Y-121112408D01*
X138215836Y-121112408D02*
X133427554Y-134268104D01*
X133427554Y-134268104D02*
X120271858Y-129479822D01*
X120271858Y-129479822D02*
X125060140Y-116324126D01*
%TO.C,SW14*%
X72442628Y-93794133D02*
X85598324Y-98582415D01*
X85598324Y-98582415D02*
X80810042Y-111738111D01*
X80810042Y-111738111D02*
X67654346Y-106949829D01*
X67654346Y-106949829D02*
X72442628Y-93794133D01*
%TO.C,SW19*%
X91701174Y-96580200D02*
X104856870Y-101368482D01*
X104856870Y-101368482D02*
X100068588Y-114524178D01*
X100068588Y-114524178D02*
X86912892Y-109735896D01*
X86912892Y-109735896D02*
X91701174Y-96580200D01*
%TO.C,SW5*%
X27681555Y-105377242D02*
X40837251Y-110165524D01*
X40837251Y-110165524D02*
X36048969Y-123321220D01*
X36048969Y-123321220D02*
X22893273Y-118532938D01*
X22893273Y-118532938D02*
X27681555Y-105377242D01*
%TO.C,SW22*%
X121275889Y-71022796D02*
X134431585Y-75811078D01*
X134431585Y-75811078D02*
X129643303Y-88966774D01*
X129643303Y-88966774D02*
X116487607Y-84178492D01*
X116487607Y-84178492D02*
X121275889Y-71022796D01*
%TO.C,SW27*%
X138091111Y-80521823D02*
X151246807Y-85310105D01*
X151246807Y-85310105D02*
X146458525Y-98465801D01*
X146458525Y-98465801D02*
X133302829Y-93677519D01*
X133302829Y-93677519D02*
X138091111Y-80521823D01*
%TO.C,SW3*%
X40712512Y-69574947D02*
X53868208Y-74363229D01*
X53868208Y-74363229D02*
X49079926Y-87518925D01*
X49079926Y-87518925D02*
X35924230Y-82730643D01*
X35924230Y-82730643D02*
X40712512Y-69574947D01*
%TO.C,SW8*%
X59428109Y-73852774D02*
X72583805Y-78641056D01*
X72583805Y-78641056D02*
X67795523Y-91796752D01*
X67795523Y-91796752D02*
X54639827Y-87008470D01*
X54639827Y-87008470D02*
X59428109Y-73852774D01*
%TO.C,SW13*%
X78958121Y-75892978D02*
X92113817Y-80681260D01*
X92113817Y-80681260D02*
X87325535Y-93836956D01*
X87325535Y-93836956D02*
X74169839Y-89048674D01*
X74169839Y-89048674D02*
X78958121Y-75892978D01*
%TO.C,SW23*%
X114760412Y-88923977D02*
X127916108Y-93712259D01*
X127916108Y-93712259D02*
X123127826Y-106867955D01*
X123127826Y-106867955D02*
X109972130Y-102079673D01*
X109972130Y-102079673D02*
X114760412Y-88923977D01*
%TO.C,SW18*%
X98216640Y-78679059D02*
X111372336Y-83467341D01*
X111372336Y-83467341D02*
X106584054Y-96623037D01*
X106584054Y-96623037D02*
X93428358Y-91834755D01*
X93428358Y-91834755D02*
X98216640Y-78679059D01*
%TO.C,SW28*%
X131575622Y-98422967D02*
X144731318Y-103211249D01*
X144731318Y-103211249D02*
X139943036Y-116366945D01*
X139943036Y-116366945D02*
X126787340Y-111578663D01*
X126787340Y-111578663D02*
X131575622Y-98422967D01*
%TO.C,SW4*%
X34197052Y-87476108D02*
X47352748Y-92264390D01*
X47352748Y-92264390D02*
X42564466Y-105420086D01*
X42564466Y-105420086D02*
X29408770Y-100631804D01*
X29408770Y-100631804D02*
X34197052Y-87476108D01*
%TO.C,SW9*%
X52912595Y-91753935D02*
X66068291Y-96542217D01*
X66068291Y-96542217D02*
X61280009Y-109697913D01*
X61280009Y-109697913D02*
X48124313Y-104909631D01*
X48124313Y-104909631D02*
X52912595Y-91753935D01*
%TO.C,SW10*%
X46397133Y-109655074D02*
X59552829Y-114443356D01*
X59552829Y-114443356D02*
X54764547Y-127599052D01*
X54764547Y-127599052D02*
X41608851Y-122810770D01*
X41608851Y-122810770D02*
X46397133Y-109655074D01*
%TO.C,SW15*%
X65927145Y-111695272D02*
X79082841Y-116483554D01*
X79082841Y-116483554D02*
X74294559Y-129639250D01*
X74294559Y-129639250D02*
X61138863Y-124850968D01*
X61138863Y-124850968D02*
X65927145Y-111695272D01*
%TO.C,SW20*%
X94133514Y-127029695D02*
X107289210Y-131817977D01*
X107289210Y-131817977D02*
X102500928Y-144973673D01*
X102500928Y-144973673D02*
X89345232Y-140185391D01*
X89345232Y-140185391D02*
X94133514Y-127029695D01*
%TO.C,SW11*%
X91989079Y-40090708D02*
X105144775Y-44878990D01*
X105144775Y-44878990D02*
X100356493Y-58034686D01*
X100356493Y-58034686D02*
X87200797Y-53246404D01*
X87200797Y-53246404D02*
X91989079Y-40090708D01*
%TO.C,SW2*%
X47228012Y-51673800D02*
X60383708Y-56462082D01*
X60383708Y-56462082D02*
X55595426Y-69617778D01*
X55595426Y-69617778D02*
X42439730Y-64829496D01*
X42439730Y-64829496D02*
X47228012Y-51673800D01*
%TO.C,SW12*%
X85473593Y-57991832D02*
X98629289Y-62780114D01*
X98629289Y-62780114D02*
X93841007Y-75935810D01*
X93841007Y-75935810D02*
X80685311Y-71147528D01*
X80685311Y-71147528D02*
X85473593Y-57991832D01*
%TO.C,SW21*%
X127791377Y-53121659D02*
X140947073Y-57909941D01*
X140947073Y-57909941D02*
X136158791Y-71065637D01*
X136158791Y-71065637D02*
X123003095Y-66277355D01*
X123003095Y-66277355D02*
X127791377Y-53121659D01*
%TO.C,SW17*%
X104732138Y-60777926D02*
X117887834Y-65566208D01*
X117887834Y-65566208D02*
X113099552Y-78721904D01*
X113099552Y-78721904D02*
X99943856Y-73933622D01*
X99943856Y-73933622D02*
X104732138Y-60777926D01*
%TO.C,SW16*%
X111247620Y-42876765D02*
X124403316Y-47665047D01*
X124403316Y-47665047D02*
X119615034Y-60820743D01*
X119615034Y-60820743D02*
X106459338Y-56032461D01*
X106459338Y-56032461D02*
X111247620Y-42876765D01*
%TO.C,SW6*%
X72459066Y-38050498D02*
X85614762Y-42838780D01*
X85614762Y-42838780D02*
X80826480Y-55994476D01*
X80826480Y-55994476D02*
X67670784Y-51206194D01*
X67670784Y-51206194D02*
X72459066Y-38050498D01*
%TO.C,SW7*%
X65943579Y-55951640D02*
X79099275Y-60739922D01*
X79099275Y-60739922D02*
X74310993Y-73895618D01*
X74310993Y-73895618D02*
X61155297Y-69107336D01*
X61155297Y-69107336D02*
X65943579Y-55951640D01*
%TO.C,SW26*%
X144606596Y-62620675D02*
X157762292Y-67408957D01*
X157762292Y-67408957D02*
X152974010Y-80564653D01*
X152974010Y-80564653D02*
X139818314Y-75776371D01*
X139818314Y-75776371D02*
X144606596Y-62620675D01*
%TO.C,SW31*%
X194237731Y-67408961D02*
X207393427Y-62620679D01*
X207393427Y-62620679D02*
X212181709Y-75776375D01*
X212181709Y-75776375D02*
X199026013Y-80564657D01*
X199026013Y-80564657D02*
X194237731Y-67408961D01*
%TO.C,SW62*%
X169000016Y-169909993D02*
X183000016Y-169909993D01*
X183000016Y-169909993D02*
X183000016Y-183909993D01*
X183000016Y-183909993D02*
X169000016Y-183909993D01*
X169000016Y-183909993D02*
X169000016Y-169909993D01*
%TO.C,SW45*%
X244710805Y-131817975D02*
X257866501Y-127029693D01*
X257866501Y-127029693D02*
X262654783Y-140185389D01*
X262654783Y-140185389D02*
X249499087Y-144973671D01*
X249499087Y-144973671D02*
X244710805Y-131817975D01*
%TO.C,SW49*%
X266401687Y-98582429D02*
X279557383Y-93794147D01*
X279557383Y-93794147D02*
X284345665Y-106949843D01*
X284345665Y-106949843D02*
X271189969Y-111738125D01*
X271189969Y-111738125D02*
X266401687Y-98582429D01*
%TO.C,SW47*%
X253370730Y-62780130D02*
X266526426Y-57991848D01*
X266526426Y-57991848D02*
X271314708Y-71147544D01*
X271314708Y-71147544D02*
X258159012Y-75935826D01*
X258159012Y-75935826D02*
X253370730Y-62780130D01*
%TO.C,SW63*%
X188786789Y-169140257D02*
X202309750Y-165516790D01*
X202309750Y-165516790D02*
X205933217Y-179039751D01*
X205933217Y-179039751D02*
X192410256Y-182663218D01*
X192410256Y-182663218D02*
X188786789Y-169140257D01*
%TO.C,SW61*%
X149690256Y-165516771D02*
X163213217Y-169140238D01*
X163213217Y-169140238D02*
X159589750Y-182663199D01*
X159589750Y-182663199D02*
X146066789Y-179039732D01*
X146066789Y-179039732D02*
X149690256Y-165516771D01*
%TO.C,SW33*%
X207268685Y-103211245D02*
X220424381Y-98422963D01*
X220424381Y-98422963D02*
X225212663Y-111578659D01*
X225212663Y-111578659D02*
X212056967Y-116366941D01*
X212056967Y-116366941D02*
X207268685Y-103211245D01*
%TO.C,SW59*%
X304647275Y-92264379D02*
X317802971Y-87476097D01*
X317802971Y-87476097D02*
X322591253Y-100631793D01*
X322591253Y-100631793D02*
X309435557Y-105420075D01*
X309435557Y-105420075D02*
X304647275Y-92264379D01*
%TO.C,SW38*%
X224083933Y-93712244D02*
X237239629Y-88923962D01*
X237239629Y-88923962D02*
X242027911Y-102079658D01*
X242027911Y-102079658D02*
X228872215Y-106867940D01*
X228872215Y-106867940D02*
X224083933Y-93712244D01*
%TO.C,SW50*%
X272917176Y-116483571D02*
X286072872Y-111695289D01*
X286072872Y-111695289D02*
X290861154Y-124850985D01*
X290861154Y-124850985D02*
X277705458Y-129639267D01*
X277705458Y-129639267D02*
X272917176Y-116483571D01*
%TO.C,SW58*%
X298131789Y-74363215D02*
X311287485Y-69574933D01*
X311287485Y-69574933D02*
X316075767Y-82730629D01*
X316075767Y-82730629D02*
X302920071Y-87518911D01*
X302920071Y-87518911D02*
X298131789Y-74363215D01*
%TO.C,SW43*%
X240627655Y-83467340D02*
X253783351Y-78679058D01*
X253783351Y-78679058D02*
X258571633Y-91834754D01*
X258571633Y-91834754D02*
X245415937Y-96623036D01*
X245415937Y-96623036D02*
X240627655Y-83467340D01*
%TO.C,SW57*%
X291616304Y-56462079D02*
X304772000Y-51673797D01*
X304772000Y-51673797D02*
X309560282Y-64829493D01*
X309560282Y-64829493D02*
X296404586Y-69617775D01*
X296404586Y-69617775D02*
X291616304Y-56462079D01*
%TO.C,SW52*%
X272900740Y-60739922D02*
X286056436Y-55951640D01*
X286056436Y-55951640D02*
X290844718Y-69107336D01*
X290844718Y-69107336D02*
X277689022Y-73895618D01*
X277689022Y-73895618D02*
X272900740Y-60739922D01*
%TO.C,SW44*%
X247143152Y-101368473D02*
X260298848Y-96580191D01*
X260298848Y-96580191D02*
X265087130Y-109735887D01*
X265087130Y-109735887D02*
X251931434Y-114524169D01*
X251931434Y-114524169D02*
X247143152Y-101368473D01*
%TO.C,SW41*%
X227596698Y-47665058D02*
X240752394Y-42876776D01*
X240752394Y-42876776D02*
X245540676Y-56032472D01*
X245540676Y-56032472D02*
X232384980Y-60820754D01*
X232384980Y-60820754D02*
X227596698Y-47665058D01*
%TO.C,SW40*%
X224384355Y-144438932D02*
X235852483Y-136408862D01*
X235852483Y-136408862D02*
X243882553Y-147876990D01*
X243882553Y-147876990D02*
X232414425Y-155907060D01*
X232414425Y-155907060D02*
X224384355Y-144438932D01*
%TO.C,SW46*%
X246855233Y-44878992D02*
X260010929Y-40090710D01*
X260010929Y-40090710D02*
X264799211Y-53246406D01*
X264799211Y-53246406D02*
X251643515Y-58034688D01*
X251643515Y-58034688D02*
X246855233Y-44878992D01*
%TO.C,SW51*%
X266385258Y-42838791D02*
X279540954Y-38050509D01*
X279540954Y-38050509D02*
X284329236Y-51206205D01*
X284329236Y-51206205D02*
X271173540Y-55994487D01*
X271173540Y-55994487D02*
X266385258Y-42838791D01*
%TO.C,SW60*%
X311162751Y-110165516D02*
X324318447Y-105377234D01*
X324318447Y-105377234D02*
X329106729Y-118532930D01*
X329106729Y-118532930D02*
X315951033Y-123321212D01*
X315951033Y-123321212D02*
X311162751Y-110165516D01*
%TO.C,SW37*%
X217568440Y-75811108D02*
X230724136Y-71022826D01*
X230724136Y-71022826D02*
X235512418Y-84178522D01*
X235512418Y-84178522D02*
X222356722Y-88966804D01*
X222356722Y-88966804D02*
X217568440Y-75811108D01*
%TO.C,SW54*%
X285931705Y-96542219D02*
X299087401Y-91753937D01*
X299087401Y-91753937D02*
X303875683Y-104909633D01*
X303875683Y-104909633D02*
X290719987Y-109697915D01*
X290719987Y-109697915D02*
X285931705Y-96542219D01*
%TO.C,SW55*%
X292447196Y-114443366D02*
X305602892Y-109655084D01*
X305602892Y-109655084D02*
X310391174Y-122810780D01*
X310391174Y-122810780D02*
X297235478Y-127599062D01*
X297235478Y-127599062D02*
X292447196Y-114443366D01*
%TO.C,SW48*%
X259886210Y-80681272D02*
X273041906Y-75892990D01*
X273041906Y-75892990D02*
X277830188Y-89048686D01*
X277830188Y-89048686D02*
X264674492Y-93836968D01*
X264674492Y-93836968D02*
X259886210Y-80681272D01*
%TO.C,SW53*%
X279416222Y-78641066D02*
X292571918Y-73852784D01*
X292571918Y-73852784D02*
X297360200Y-87008480D01*
X297360200Y-87008480D02*
X284204504Y-91796762D01*
X284204504Y-91796762D02*
X279416222Y-78641066D01*
%TO.C,SW35*%
X208138188Y-161862805D02*
X217137214Y-151138183D01*
X217137214Y-151138183D02*
X227861836Y-160137209D01*
X227861836Y-160137209D02*
X218862810Y-170861831D01*
X218862810Y-170861831D02*
X208138188Y-161862805D01*
%TO.C,SW34*%
X213784165Y-121112390D02*
X226939861Y-116324108D01*
X226939861Y-116324108D02*
X231728143Y-129479804D01*
X231728143Y-129479804D02*
X218572447Y-134268086D01*
X218572447Y-134268086D02*
X213784165Y-121112390D01*
%TO.C,SW42*%
X234112174Y-65566204D02*
X247267870Y-60777922D01*
X247267870Y-60777922D02*
X252056152Y-73933618D01*
X252056152Y-73933618D02*
X238900456Y-78721900D01*
X238900456Y-78721900D02*
X234112174Y-65566204D01*
%TO.C,SW56*%
X285100826Y-38560946D02*
X298256522Y-33772664D01*
X298256522Y-33772664D02*
X303044804Y-46928360D01*
X303044804Y-46928360D02*
X289889108Y-51716642D01*
X289889108Y-51716642D02*
X285100826Y-38560946D01*
%TO.C,SW36*%
X211052948Y-57909969D02*
X224208644Y-53121687D01*
X224208644Y-53121687D02*
X228996926Y-66277383D01*
X228996926Y-66277383D02*
X215841230Y-71065665D01*
X215841230Y-71065665D02*
X211052948Y-57909969D01*
%TO.C,SW39*%
X230599406Y-111613392D02*
X243755102Y-106825110D01*
X243755102Y-106825110D02*
X248543384Y-119980806D01*
X248543384Y-119980806D02*
X235387688Y-124769088D01*
X235387688Y-124769088D02*
X230599406Y-111613392D01*
%TO.C,SW32*%
X200753204Y-85310109D02*
X213908900Y-80521827D01*
X213908900Y-80521827D02*
X218697182Y-93677523D01*
X218697182Y-93677523D02*
X205541486Y-98465805D01*
X205541486Y-98465805D02*
X200753204Y-85310109D01*
%TD*%
%LPC*%
%TO.C,A1*%
G36*
X116263333Y-31334666D02*
G01*
X116228466Y-31485669D01*
X116094000Y-31504000D01*
X115884929Y-31411065D01*
X115924666Y-31334666D01*
X116226105Y-31304267D01*
X116263333Y-31334666D01*
G37*
G36*
X116517333Y-30064666D02*
G01*
X116547732Y-30366105D01*
X116517333Y-30403333D01*
X116366330Y-30368466D01*
X116348000Y-30234000D01*
X116440934Y-30024929D01*
X116517333Y-30064666D01*
G37*
G36*
X113300000Y-32393000D02*
G01*
X113542311Y-32621246D01*
X113554000Y-32661990D01*
X113357482Y-32771087D01*
X113300000Y-32774000D01*
X113055760Y-32578736D01*
X113046000Y-32505009D01*
X113201609Y-32353311D01*
X113300000Y-32393000D01*
G37*
G36*
X115058430Y-31388610D02*
G01*
X115078000Y-31474019D01*
X114892642Y-31833093D01*
X114824000Y-31885000D01*
X114589569Y-31873389D01*
X114570000Y-31787980D01*
X114755357Y-31428906D01*
X114824000Y-31377000D01*
X115058430Y-31388610D01*
G37*
G36*
X117530688Y-29373609D02*
G01*
X117491000Y-29472000D01*
X117262753Y-29714311D01*
X117222009Y-29726000D01*
X117112912Y-29529482D01*
X117110000Y-29472000D01*
X117305263Y-29227760D01*
X117378990Y-29218000D01*
X117530688Y-29373609D01*
G37*
G36*
X122436619Y-29665287D02*
G01*
X122444000Y-29726000D01*
X122250712Y-29972619D01*
X122190000Y-29980000D01*
X121943380Y-29786712D01*
X121936000Y-29726000D01*
X122129287Y-29479380D01*
X122190000Y-29472000D01*
X122436619Y-29665287D01*
G37*
G36*
X132383355Y-29599000D02*
G01*
X132922054Y-29599000D01*
X132942499Y-30121753D01*
X133000059Y-30256676D01*
X133032518Y-30173461D01*
X133079829Y-29563497D01*
X133037644Y-29157461D01*
X132970733Y-29016686D01*
X132928643Y-29321980D01*
X132922054Y-29599000D01*
X132383355Y-29599000D01*
X132371506Y-29347204D01*
X132418708Y-28720795D01*
X132576060Y-28352527D01*
X132689757Y-28236227D01*
X133129551Y-28034634D01*
X133354873Y-28068123D01*
X133523819Y-28427402D01*
X133599962Y-29144945D01*
X133583248Y-30079554D01*
X133473624Y-31090033D01*
X133356247Y-31704576D01*
X133227353Y-32707532D01*
X133369327Y-33350746D01*
X133764610Y-33599572D01*
X134259841Y-33487577D01*
X134779643Y-33172773D01*
X134826436Y-32860177D01*
X134508999Y-32519999D01*
X134160447Y-32025494D01*
X134230463Y-31759584D01*
X134868843Y-31759584D01*
X134980397Y-32222286D01*
X135299112Y-32713496D01*
X135750818Y-33228999D01*
X136095417Y-33515293D01*
X136160000Y-33536000D01*
X136439167Y-33353216D01*
X136872033Y-32896709D01*
X137020887Y-32713496D01*
X137399463Y-32085822D01*
X137426377Y-31685762D01*
X137124944Y-31582770D01*
X136695269Y-31743405D01*
X136070872Y-31897923D01*
X135624730Y-31743405D01*
X135091391Y-31576806D01*
X134868843Y-31759584D01*
X134230463Y-31759584D01*
X134300596Y-31493226D01*
X134635999Y-31123000D01*
X135035356Y-30814495D01*
X135336600Y-30860766D01*
X135652000Y-31122999D01*
X136049111Y-31429944D01*
X136349941Y-31386117D01*
X136676964Y-31114887D01*
X137064110Y-30811672D01*
X137352465Y-30843167D01*
X137740600Y-31193711D01*
X138102280Y-31639370D01*
X138106600Y-32035607D01*
X137955676Y-32359971D01*
X137770109Y-32977791D01*
X137901506Y-33413534D01*
X138206990Y-33536000D01*
X138339090Y-33306589D01*
X138425892Y-32715949D01*
X138446000Y-32168444D01*
X138445999Y-30800889D01*
X139613304Y-30840181D01*
X140578199Y-30981792D01*
X141110182Y-31330191D01*
X141336028Y-31822060D01*
X141531262Y-32545160D01*
X141663404Y-33315712D01*
X141699978Y-33949933D01*
X141626243Y-34250423D01*
X141390002Y-34238167D01*
X141160562Y-33868661D01*
X141011388Y-33288262D01*
X140989889Y-32982642D01*
X140811105Y-32264829D01*
X140373668Y-31714238D01*
X139833793Y-31504000D01*
X139415065Y-31730999D01*
X139092347Y-32304101D01*
X138954457Y-33061457D01*
X138954000Y-33107200D01*
X138804372Y-33721261D01*
X138568235Y-34047954D01*
X138203250Y-34222068D01*
X137807992Y-34024274D01*
X137679235Y-33912688D01*
X137281332Y-33607076D01*
X136978869Y-33657717D01*
X136672764Y-33912688D01*
X136239981Y-34209145D01*
X135890396Y-34128647D01*
X135775527Y-34041118D01*
X135419124Y-33857608D01*
X134926290Y-33887944D01*
X134343811Y-34056603D01*
X133666577Y-34250480D01*
X133287617Y-34243579D01*
X133035222Y-34027949D01*
X133010531Y-33994871D01*
X132734626Y-33738044D01*
X132369484Y-33785562D01*
X132047091Y-33940597D01*
X131359043Y-34145248D01*
X130417038Y-34234157D01*
X130026335Y-34229461D01*
X129217100Y-34162285D01*
X128788990Y-34021377D01*
X128615679Y-33756560D01*
X128596837Y-33661694D01*
X128424126Y-32716956D01*
X128251583Y-32223890D01*
X128058141Y-32126611D01*
X128024553Y-32143602D01*
X127867018Y-32473446D01*
X127782535Y-33103147D01*
X127778000Y-33296990D01*
X127720878Y-33927651D01*
X127578421Y-34274713D01*
X127524000Y-34298000D01*
X127363973Y-34072884D01*
X127275908Y-33511464D01*
X127270000Y-33296990D01*
X127212738Y-32622007D01*
X127070500Y-32191098D01*
X127023446Y-32143602D01*
X126824024Y-32185139D01*
X126648992Y-32616418D01*
X126477690Y-33492312D01*
X126451405Y-33663000D01*
X126314756Y-33979583D01*
X125941069Y-34148297D01*
X125200260Y-34224630D01*
X125126416Y-34228171D01*
X124321505Y-34204804D01*
X123698511Y-34080532D01*
X123522541Y-33990504D01*
X123169147Y-33839154D01*
X122943218Y-34058209D01*
X122651495Y-34276006D01*
X122371166Y-34043936D01*
X122138059Y-33419544D01*
X121994835Y-32534951D01*
X121966900Y-32336524D01*
X123266012Y-32336524D01*
X123425991Y-32940551D01*
X123767565Y-33404959D01*
X124095000Y-33536000D01*
X124476593Y-33327043D01*
X124785203Y-32881274D01*
X124922249Y-32171901D01*
X124696228Y-31625700D01*
X124170071Y-31379823D01*
X124095000Y-31377000D01*
X123589171Y-31573988D01*
X123374424Y-31801774D01*
X123266012Y-32336524D01*
X121966900Y-32336524D01*
X121884901Y-31754073D01*
X121713696Y-31364792D01*
X121426393Y-31250746D01*
X121389397Y-31250000D01*
X120931874Y-31483232D01*
X120591459Y-32107850D01*
X120421678Y-33011234D01*
X120412000Y-33306507D01*
X120266886Y-33979886D01*
X119903725Y-34283013D01*
X119430786Y-34234968D01*
X118956340Y-33854832D01*
X118588657Y-33161688D01*
X118534498Y-32975619D01*
X118307996Y-32084003D01*
X117305512Y-33086487D01*
X115884368Y-34213939D01*
X114335172Y-34861945D01*
X112756639Y-35054421D01*
X111701972Y-34986150D01*
X110983749Y-34747021D01*
X110724639Y-34570029D01*
X110395697Y-34191985D01*
X110837296Y-34191985D01*
X111266842Y-34464332D01*
X111331500Y-34495994D01*
X112465095Y-34768076D01*
X113858288Y-34628613D01*
X114646112Y-34403045D01*
X115681467Y-33883909D01*
X116752678Y-33074628D01*
X117732240Y-32100816D01*
X118492647Y-31088087D01*
X118891647Y-30220453D01*
X119078616Y-29191389D01*
X119057513Y-28363430D01*
X118837661Y-27848680D01*
X118686421Y-27752228D01*
X118470685Y-27814021D01*
X118514229Y-28267369D01*
X118514896Y-28270031D01*
X118539148Y-29190868D01*
X118264748Y-30272661D01*
X117754526Y-31319441D01*
X117370800Y-31838448D01*
X116713740Y-32445737D01*
X115842080Y-33078076D01*
X115326892Y-33387264D01*
X114497821Y-33793513D01*
X113789207Y-33988805D01*
X112954301Y-34024309D01*
X112388403Y-33996613D01*
X111386731Y-33963485D01*
X110873477Y-34026822D01*
X110837296Y-34191985D01*
X110395697Y-34191985D01*
X110327889Y-34114055D01*
X110379000Y-33827960D01*
X110593510Y-33636252D01*
X111452919Y-33636252D01*
X111910912Y-33795961D01*
X112684099Y-33794008D01*
X113613486Y-33650968D01*
X114540079Y-33387416D01*
X115045809Y-33171312D01*
X116350733Y-32307825D01*
X117383873Y-31220112D01*
X118037939Y-30026314D01*
X118110727Y-29796442D01*
X118335692Y-28834800D01*
X118351078Y-28314692D01*
X118228270Y-28201999D01*
X117979299Y-28350016D01*
X117420996Y-28751178D01*
X116640605Y-29341156D01*
X115878770Y-29934412D01*
X114829692Y-30758402D01*
X113785874Y-31573245D01*
X112897311Y-32262075D01*
X112490085Y-32574665D01*
X111881916Y-33079820D01*
X111511303Y-33470200D01*
X111452919Y-33636252D01*
X110593510Y-33636252D01*
X110873533Y-33385995D01*
X111645427Y-32754132D01*
X112620277Y-31987689D01*
X113723679Y-31141987D01*
X114881232Y-30272348D01*
X116018531Y-29434090D01*
X117061172Y-28682535D01*
X117934753Y-28073002D01*
X118564870Y-27660812D01*
X118877119Y-27501286D01*
X118888000Y-27501360D01*
X119218804Y-27810023D01*
X119355339Y-28559280D01*
X119295457Y-29719457D01*
X119127092Y-30805544D01*
X118963166Y-31868769D01*
X118949463Y-32594205D01*
X119084442Y-33128868D01*
X119102329Y-33169366D01*
X119404470Y-33631184D01*
X119650850Y-33613841D01*
X119822671Y-33144827D01*
X119901133Y-32251637D01*
X119904000Y-31997009D01*
X119942901Y-31191373D01*
X120044340Y-30645835D01*
X120158000Y-30488000D01*
X120404678Y-30675455D01*
X120412000Y-30734028D01*
X120597577Y-30900507D01*
X120729500Y-30882243D01*
X121619033Y-30630260D01*
X122134257Y-30586738D01*
X122380499Y-30792773D01*
X122463088Y-31289459D01*
X122473464Y-31562660D01*
X122514262Y-32100464D01*
X122584749Y-32245070D01*
X122626686Y-32139000D01*
X123006703Y-31315298D01*
X123572721Y-30877087D01*
X124212915Y-30798318D01*
X124815457Y-31052946D01*
X125268521Y-31614923D01*
X125460282Y-32458204D01*
X125446948Y-32795895D01*
X125478563Y-33432352D01*
X125682500Y-33722490D01*
X125877177Y-33627944D01*
X125977700Y-33134655D01*
X126000000Y-32429156D01*
X126064890Y-31435583D01*
X126268355Y-30917783D01*
X126623587Y-30859243D01*
X127032005Y-31137484D01*
X127426569Y-31436156D01*
X127732217Y-31374907D01*
X128015994Y-31137484D01*
X128507346Y-30836507D01*
X128839029Y-30986086D01*
X129024752Y-31601832D01*
X129075829Y-32344490D01*
X129103659Y-33663000D01*
X129321208Y-32556413D01*
X129426886Y-32179037D01*
X130064000Y-32179037D01*
X130164432Y-32405732D01*
X130539356Y-32283403D01*
X130557853Y-32273570D01*
X131021129Y-31959375D01*
X131196997Y-31774185D01*
X131161915Y-31450583D01*
X131073016Y-31372684D01*
X130676440Y-31375996D01*
X130273752Y-31682148D01*
X130066267Y-32130260D01*
X130064000Y-32179037D01*
X129426886Y-32179037D01*
X129605574Y-31540939D01*
X129999293Y-30960896D01*
X130554244Y-30746976D01*
X130679300Y-30741999D01*
X131408931Y-30905155D01*
X131769676Y-31322141D01*
X131748485Y-31884237D01*
X131332310Y-32482721D01*
X130925244Y-32791153D01*
X130377666Y-33164355D01*
X130226551Y-33398893D01*
X130414941Y-33585175D01*
X130422369Y-33589359D01*
X131095910Y-33708672D01*
X131751856Y-33393162D01*
X132197766Y-32819499D01*
X132408407Y-32092164D01*
X132452760Y-31005269D01*
X132418865Y-30353594D01*
X132383355Y-29599000D01*
G37*
%TO.C,A2*%
G36*
X228672651Y-34088318D02*
G01*
X228815127Y-34115047D01*
X228804673Y-35432758D01*
X228794218Y-36750469D01*
X228594256Y-36762173D01*
X228473988Y-36763729D01*
X228388484Y-36754739D01*
X228366053Y-36745637D01*
X228359215Y-36700485D01*
X228352973Y-36585576D01*
X228347535Y-36410526D01*
X228343108Y-36184953D01*
X228339898Y-35918474D01*
X228338113Y-35620705D01*
X228337812Y-35433316D01*
X228337812Y-34149236D01*
X228433994Y-34105413D01*
X228544349Y-34081840D01*
X228672651Y-34088318D01*
G37*
G36*
X228692162Y-33075187D02*
G01*
X228781359Y-33109112D01*
X228789205Y-33114902D01*
X228831157Y-33189326D01*
X228851779Y-33303738D01*
X228849918Y-33424898D01*
X228824419Y-33519563D01*
X228804140Y-33545293D01*
X228700633Y-33592310D01*
X228567021Y-33612996D01*
X228476718Y-33606205D01*
X228368252Y-33545545D01*
X228309145Y-33424417D01*
X228298125Y-33314774D01*
X228322208Y-33177260D01*
X228398879Y-33095185D01*
X228534764Y-33062502D01*
X228575937Y-33061335D01*
X228692162Y-33075187D01*
G37*
G36*
X223577921Y-29667646D02*
G01*
X223633523Y-29726003D01*
X223654065Y-29833942D01*
X223654687Y-29866431D01*
X223654687Y-30024131D01*
X223443821Y-29999348D01*
X223232956Y-29974565D01*
X223066790Y-30163339D01*
X222900625Y-30352113D01*
X222900625Y-31016966D01*
X222899699Y-31265519D01*
X222896247Y-31445807D01*
X222889258Y-31568927D01*
X222877722Y-31645975D01*
X222860626Y-31688048D01*
X222837847Y-31705910D01*
X222740217Y-31726720D01*
X222638187Y-31726288D01*
X222571415Y-31704966D01*
X222569895Y-31703542D01*
X222562697Y-31658196D01*
X222556243Y-31544393D01*
X222550814Y-31373049D01*
X222546688Y-31155078D01*
X222544146Y-30901399D01*
X222543437Y-30669271D01*
X222543437Y-29661459D01*
X222692265Y-29673776D01*
X222791896Y-29689525D01*
X222839106Y-29729885D01*
X222860834Y-29818002D01*
X222860937Y-29818687D01*
X222880781Y-29951280D01*
X222980000Y-29844682D01*
X223142760Y-29709796D01*
X223314418Y-29637978D01*
X223480834Y-29633414D01*
X223577921Y-29667646D01*
G37*
G36*
X244226574Y-34078921D02*
G01*
X244324149Y-34113333D01*
X244372785Y-34152990D01*
X244389526Y-34223800D01*
X244391406Y-34329531D01*
X244391406Y-34527969D01*
X244130133Y-34515041D01*
X243982440Y-34511329D01*
X243885431Y-34522803D01*
X243810856Y-34556294D01*
X243741943Y-34608906D01*
X243640650Y-34708957D01*
X243534629Y-34835491D01*
X243498001Y-34885790D01*
X243380976Y-35055880D01*
X243370253Y-35903174D01*
X243359531Y-36750469D01*
X243156147Y-36762292D01*
X243027209Y-36763642D01*
X242956896Y-36745558D01*
X242927944Y-36709437D01*
X242921774Y-36654823D01*
X242916164Y-36531087D01*
X242911310Y-36348481D01*
X242907410Y-36117257D01*
X242904662Y-35847668D01*
X242903262Y-35549965D01*
X242903125Y-35420526D01*
X242903443Y-35058088D01*
X242905243Y-34767168D01*
X242909795Y-34539907D01*
X242918367Y-34368450D01*
X242932228Y-34244938D01*
X242952648Y-34161515D01*
X242980895Y-34110324D01*
X243018239Y-34083506D01*
X243065948Y-34073206D01*
X243120995Y-34071563D01*
X243241846Y-34082634D01*
X243308506Y-34127073D01*
X243335888Y-34221715D01*
X243339687Y-34318445D01*
X243339687Y-34517147D01*
X243528203Y-34317715D01*
X243716433Y-34153610D01*
X243902653Y-34065506D01*
X244094874Y-34050662D01*
X244226574Y-34078921D01*
G37*
G36*
X227674351Y-33265882D02*
G01*
X227677368Y-33382836D01*
X227660116Y-33464319D01*
X227645206Y-33497544D01*
X227621840Y-33521539D01*
X227578334Y-33537806D01*
X227503003Y-33547846D01*
X227384161Y-33553161D01*
X227210124Y-33555253D01*
X226969207Y-33555625D01*
X226949732Y-33555625D01*
X226274062Y-33555625D01*
X226274062Y-34170781D01*
X226274062Y-34785938D01*
X226928150Y-34785938D01*
X227582237Y-34785938D01*
X227607874Y-34888083D01*
X227611268Y-35004766D01*
X227589637Y-35086520D01*
X227571256Y-35122489D01*
X227545942Y-35148158D01*
X227501444Y-35165264D01*
X227425513Y-35175545D01*
X227305897Y-35180738D01*
X227130345Y-35182581D01*
X226910752Y-35182813D01*
X226275740Y-35182813D01*
X226264979Y-35966641D01*
X226254218Y-36750469D01*
X226055535Y-36762129D01*
X225914855Y-36759432D01*
X225822292Y-36735192D01*
X225807488Y-36724426D01*
X225796165Y-36674448D01*
X225786170Y-36555184D01*
X225777532Y-36376714D01*
X225770284Y-36149117D01*
X225764455Y-35882471D01*
X225760078Y-35586856D01*
X225757182Y-35272351D01*
X225755800Y-34949034D01*
X225755962Y-34626985D01*
X225757699Y-34316282D01*
X225761042Y-34027006D01*
X225766022Y-33769234D01*
X225772671Y-33553045D01*
X225781019Y-33388520D01*
X225791096Y-33285736D01*
X225796830Y-33260552D01*
X225835535Y-33158750D01*
X226744703Y-33158750D01*
X227653871Y-33158750D01*
X227674351Y-33265882D01*
G37*
G36*
X230843796Y-34048019D02*
G01*
X230922703Y-34069175D01*
X231001732Y-34087577D01*
X231091273Y-34143845D01*
X231135721Y-34257610D01*
X231131435Y-34418674D01*
X231127591Y-34440089D01*
X231112219Y-34501309D01*
X231083049Y-34531746D01*
X231019590Y-34538198D01*
X230901350Y-34527464D01*
X230873646Y-34524342D01*
X230722301Y-34515371D01*
X230605009Y-34535018D01*
X230500903Y-34593617D01*
X230389118Y-34701500D01*
X230296540Y-34810153D01*
X230143593Y-34996687D01*
X230123750Y-35873578D01*
X230103906Y-36750469D01*
X229903944Y-36762173D01*
X229783675Y-36763729D01*
X229698171Y-36754739D01*
X229675741Y-36745637D01*
X229668896Y-36700480D01*
X229662650Y-36585575D01*
X229657209Y-36410548D01*
X229652782Y-36185023D01*
X229649574Y-35918629D01*
X229647795Y-35620989D01*
X229647500Y-35435563D01*
X229647627Y-35083044D01*
X229648361Y-34801552D01*
X229650226Y-34582737D01*
X229653750Y-34418250D01*
X229659457Y-34299744D01*
X229667873Y-34218868D01*
X229679524Y-34167275D01*
X229694937Y-34136615D01*
X229714637Y-34118539D01*
X229731053Y-34109013D01*
X229830636Y-34084482D01*
X229949335Y-34089572D01*
X230029461Y-34109006D01*
X230069176Y-34143443D01*
X230082651Y-34216211D01*
X230084062Y-34311354D01*
X230084062Y-34507862D01*
X230272578Y-34313254D01*
X230424697Y-34182982D01*
X230585425Y-34089971D01*
X230735272Y-34043271D01*
X230843796Y-34048019D01*
G37*
G36*
X214875914Y-30610184D02*
G01*
X215251570Y-30610184D01*
X215256265Y-30831626D01*
X215292128Y-31037937D01*
X215357959Y-31204283D01*
X215390283Y-31251484D01*
X215520366Y-31353846D01*
X215692420Y-31412503D01*
X215880278Y-31424469D01*
X216057779Y-31386759D01*
X216149723Y-31338135D01*
X216274439Y-31212801D01*
X216352684Y-31040694D01*
X216388059Y-30812275D01*
X216391003Y-30698744D01*
X216368876Y-30421527D01*
X216303254Y-30209592D01*
X216192550Y-30060812D01*
X216035178Y-29973061D01*
X215829552Y-29944211D01*
X215828299Y-29944211D01*
X215630877Y-29978330D01*
X215462490Y-30072637D01*
X215343457Y-30215592D01*
X215340485Y-30221239D01*
X215279243Y-30398444D01*
X215251570Y-30610184D01*
X214875914Y-30610184D01*
X214877087Y-30532965D01*
X214919390Y-30295546D01*
X215025004Y-30057251D01*
X215190831Y-29865668D01*
X215408698Y-29727210D01*
X215670433Y-29648292D01*
X215758430Y-29636990D01*
X216038000Y-29646789D01*
X216285901Y-29726894D01*
X216495292Y-29873624D01*
X216659330Y-30083298D01*
X216688498Y-30137202D01*
X216747270Y-30313634D01*
X216777510Y-30535373D01*
X216778052Y-30773213D01*
X216747729Y-30997954D01*
X216726147Y-31079391D01*
X216630214Y-31289975D01*
X216490486Y-31474612D01*
X216323926Y-31614843D01*
X216167691Y-31687116D01*
X216033571Y-31710262D01*
X215858101Y-31722561D01*
X215675390Y-31723330D01*
X215519551Y-31711889D01*
X215461738Y-31701217D01*
X215290328Y-31622377D01*
X215129029Y-31485367D01*
X215000522Y-31310390D01*
X214980951Y-31273023D01*
X214908280Y-31057084D01*
X214873025Y-30800338D01*
X214875914Y-30610184D01*
G37*
G36*
X213649013Y-28957571D02*
G01*
X213829867Y-28971882D01*
X213978227Y-28993250D01*
X214054682Y-29012948D01*
X214271700Y-29127100D01*
X214430474Y-29293056D01*
X214527863Y-29505488D01*
X214560726Y-29759068D01*
X214555836Y-29862979D01*
X214499526Y-30120869D01*
X214382061Y-30328231D01*
X214203625Y-30484916D01*
X213964404Y-30590771D01*
X213664582Y-30645647D01*
X213590111Y-30650884D01*
X213256562Y-30668391D01*
X213256562Y-31175106D01*
X213255139Y-31389137D01*
X213249871Y-31536485D01*
X213239263Y-31629806D01*
X213221817Y-31681757D01*
X213196035Y-31704995D01*
X213193785Y-31705910D01*
X213075502Y-31725820D01*
X212946494Y-31715038D01*
X212909296Y-31703716D01*
X212895261Y-31659833D01*
X212883336Y-31547878D01*
X212873530Y-31379127D01*
X212865852Y-31164854D01*
X212860310Y-30916334D01*
X212856912Y-30644843D01*
X212855667Y-30361656D01*
X212856582Y-30078047D01*
X212859666Y-29805293D01*
X212864927Y-29554669D01*
X212872373Y-29337448D01*
X212876177Y-29269375D01*
X213256562Y-29269375D01*
X213256562Y-29805156D01*
X213256562Y-30340938D01*
X213504609Y-30340876D01*
X213715201Y-30324091D01*
X213879754Y-30277061D01*
X213891562Y-30271423D01*
X214029314Y-30163974D01*
X214120315Y-30014797D01*
X214163752Y-29842573D01*
X214158813Y-29665984D01*
X214104684Y-29503710D01*
X214000552Y-29374435D01*
X213932549Y-29329578D01*
X213810592Y-29292132D01*
X213633915Y-29271913D01*
X213536345Y-29269375D01*
X213256562Y-29269375D01*
X212876177Y-29269375D01*
X212882014Y-29164908D01*
X212893856Y-29048322D01*
X212907312Y-28999500D01*
X212972071Y-28975258D01*
X213097192Y-28959161D01*
X213264104Y-28950993D01*
X213454235Y-28950536D01*
X213649013Y-28957571D01*
G37*
G36*
X220268621Y-30416111D02*
G01*
X220313683Y-30214533D01*
X220352898Y-30116573D01*
X220503362Y-29906339D01*
X220703775Y-29751354D01*
X220941377Y-29658206D01*
X221203405Y-29633482D01*
X221277103Y-29639442D01*
X221524790Y-29702979D01*
X221722219Y-29827004D01*
X221866368Y-30008218D01*
X221954215Y-30243321D01*
X221978366Y-30405380D01*
X221986690Y-30532676D01*
X221981689Y-30627024D01*
X221953421Y-30693359D01*
X221891947Y-30736614D01*
X221787324Y-30761724D01*
X221629612Y-30773623D01*
X221408870Y-30777246D01*
X221228659Y-30777500D01*
X220603740Y-30777500D01*
X220625870Y-30926328D01*
X220688577Y-31146828D01*
X220801893Y-31306194D01*
X220965582Y-31404248D01*
X221179409Y-31440808D01*
X221293281Y-31437036D01*
X221457554Y-31415110D01*
X221618836Y-31381121D01*
X221696489Y-31358094D01*
X221815604Y-31322391D01*
X221879553Y-31328530D01*
X221904862Y-31384284D01*
X221908437Y-31457783D01*
X221882687Y-31555501D01*
X221801372Y-31628278D01*
X221658390Y-31678627D01*
X221447643Y-31709060D01*
X221273437Y-31719279D01*
X221076570Y-31722885D01*
X220935880Y-31715237D01*
X220828643Y-31693749D01*
X220737315Y-31658282D01*
X220532238Y-31520034D01*
X220375869Y-31327169D01*
X220281517Y-31096114D01*
X220281363Y-31095472D01*
X220250410Y-30884654D01*
X220246846Y-30648843D01*
X220260801Y-30499688D01*
X220597237Y-30499688D01*
X221119156Y-30499688D01*
X221641076Y-30499688D01*
X221619260Y-30337037D01*
X221559496Y-30156616D01*
X221443360Y-30021636D01*
X221285067Y-29941240D01*
X221098834Y-29924571D01*
X221004510Y-29941670D01*
X220838563Y-30016844D01*
X220718865Y-30145318D01*
X220637531Y-30336379D01*
X220623327Y-30390547D01*
X220597237Y-30499688D01*
X220260801Y-30499688D01*
X220268621Y-30416111D01*
G37*
G36*
X233100821Y-29666250D02*
G01*
X233205002Y-29674930D01*
X233270568Y-29696447D01*
X233277101Y-29703017D01*
X233269140Y-29747073D01*
X233237091Y-29855232D01*
X233184625Y-30017235D01*
X233115410Y-30222820D01*
X233033115Y-30461728D01*
X232941407Y-30723699D01*
X232843957Y-30998471D01*
X232744433Y-31275785D01*
X232646503Y-31545380D01*
X232553837Y-31796996D01*
X232470103Y-32020372D01*
X232398970Y-32205249D01*
X232344106Y-32341365D01*
X232309181Y-32418460D01*
X232302027Y-32429996D01*
X232233664Y-32467156D01*
X232131494Y-32482550D01*
X232031253Y-32474997D01*
X231968680Y-32443318D01*
X231967166Y-32441054D01*
X231968749Y-32386923D01*
X231995631Y-32278926D01*
X232042576Y-32136465D01*
X232067192Y-32070563D01*
X232193800Y-31743080D01*
X231833462Y-30781560D01*
X231735837Y-30518174D01*
X231648254Y-30276344D01*
X231574464Y-30066885D01*
X231518221Y-29900613D01*
X231483278Y-29788343D01*
X231473125Y-29743145D01*
X231487847Y-29692030D01*
X231545671Y-29669936D01*
X231627015Y-29666250D01*
X231736210Y-29678190D01*
X231811224Y-29707715D01*
X231819677Y-29715859D01*
X231844432Y-29767469D01*
X231890275Y-29881627D01*
X231952472Y-30045824D01*
X232026293Y-30247551D01*
X232107004Y-30474299D01*
X232112271Y-30489308D01*
X232192078Y-30713202D01*
X232264345Y-30908997D01*
X232324639Y-31065234D01*
X232368525Y-31170457D01*
X232391569Y-31213207D01*
X232392568Y-31213605D01*
X232413584Y-31178160D01*
X232453903Y-31080197D01*
X232508580Y-30932783D01*
X232572674Y-30748980D01*
X232606376Y-30648516D01*
X232704716Y-30351543D01*
X232781870Y-30121286D01*
X232842101Y-29949277D01*
X232889671Y-29827046D01*
X232928843Y-29746125D01*
X232963880Y-29698046D01*
X232999045Y-29674340D01*
X233038601Y-29666538D01*
X233086811Y-29666172D01*
X233100821Y-29666250D01*
G37*
G36*
X226059785Y-30816817D02*
G01*
X226436699Y-30816817D01*
X226465106Y-31023044D01*
X226521971Y-31199489D01*
X226606759Y-31328084D01*
X226657248Y-31367525D01*
X226788798Y-31406468D01*
X226951474Y-31403579D01*
X227110565Y-31361369D01*
X227171558Y-31330327D01*
X227302210Y-31235992D01*
X227388461Y-31132802D01*
X227438633Y-31001930D01*
X227461050Y-30824548D01*
X227464687Y-30667287D01*
X227464687Y-30311359D01*
X227291871Y-30152063D01*
X227182171Y-30059824D01*
X227081537Y-29989947D01*
X227030452Y-29964645D01*
X226898449Y-29951262D01*
X226755502Y-29977622D01*
X226640136Y-30035238D01*
X226618368Y-30055432D01*
X226527586Y-30200114D01*
X226467404Y-30387284D01*
X226437287Y-30598874D01*
X226436699Y-30816817D01*
X226059785Y-30816817D01*
X226056834Y-30750148D01*
X226056498Y-30698125D01*
X226060125Y-30504564D01*
X226073309Y-30363111D01*
X226100805Y-30246640D01*
X226147368Y-30128031D01*
X226162119Y-30095783D01*
X226291597Y-29883583D01*
X226453498Y-29741660D01*
X226655961Y-29664723D01*
X226853317Y-29646406D01*
X227005901Y-29652449D01*
X227116813Y-29677990D01*
X227223310Y-29734146D01*
X227282856Y-29774573D01*
X227464687Y-29902739D01*
X227464687Y-29325806D01*
X227464687Y-28748874D01*
X227633359Y-28761077D01*
X227802031Y-28773281D01*
X227812441Y-30230918D01*
X227822851Y-31688555D01*
X227723233Y-31713558D01*
X227600246Y-31724984D01*
X227529985Y-31679153D01*
X227504752Y-31570282D01*
X227504375Y-31549124D01*
X227504375Y-31405444D01*
X227375390Y-31514205D01*
X227258276Y-31599394D01*
X227136931Y-31668351D01*
X227118696Y-31676483D01*
X226953421Y-31717312D01*
X226757779Y-31725416D01*
X226572245Y-31700943D01*
X226490376Y-31674176D01*
X226340926Y-31573169D01*
X226207659Y-31417853D01*
X226111737Y-31233136D01*
X226108801Y-31224993D01*
X226083604Y-31111067D01*
X226065416Y-30944061D01*
X226059785Y-30816817D01*
G37*
G36*
X223886886Y-30415256D02*
G01*
X224249847Y-30415256D01*
X224268742Y-30459690D01*
X224331707Y-30484933D01*
X224448632Y-30496411D01*
X224629402Y-30499549D01*
X224764945Y-30499688D01*
X225279890Y-30499688D01*
X225256191Y-30370703D01*
X225188754Y-30164493D01*
X225073956Y-30021853D01*
X224944789Y-29952508D01*
X224746695Y-29924578D01*
X224564127Y-29969376D01*
X224411512Y-30080262D01*
X224304721Y-30247108D01*
X224265136Y-30346204D01*
X224249847Y-30415256D01*
X223886886Y-30415256D01*
X223887855Y-30403522D01*
X223913603Y-30297273D01*
X223959806Y-30187120D01*
X223992639Y-30121215D01*
X224134825Y-29916195D01*
X224314931Y-29766422D01*
X224520436Y-29671322D01*
X224738821Y-29630322D01*
X224957568Y-29642849D01*
X225164157Y-29708328D01*
X225346068Y-29826187D01*
X225490783Y-29995852D01*
X225579335Y-30193909D01*
X225628461Y-30408285D01*
X225637145Y-30577790D01*
X225605668Y-30693483D01*
X225562296Y-30736416D01*
X225495487Y-30751251D01*
X225363892Y-30763542D01*
X225182084Y-30772426D01*
X224964634Y-30777041D01*
X224867765Y-30777500D01*
X224250000Y-30777500D01*
X224250000Y-30900486D01*
X224284548Y-31099889D01*
X224382710Y-31259404D01*
X224536258Y-31372900D01*
X224736968Y-31434247D01*
X224971075Y-31437906D01*
X225129064Y-31413159D01*
X225279881Y-31376342D01*
X225348190Y-31352692D01*
X225468140Y-31317645D01*
X225535335Y-31339305D01*
X225556390Y-31421693D01*
X225552868Y-31477118D01*
X225533854Y-31549301D01*
X225483659Y-31599311D01*
X225382017Y-31644562D01*
X225341406Y-31658810D01*
X225179733Y-31696157D01*
X224976099Y-31718476D01*
X224761258Y-31724719D01*
X224565963Y-31713839D01*
X224435935Y-31689643D01*
X224248329Y-31595506D01*
X224083033Y-31440821D01*
X223970569Y-31265720D01*
X223922405Y-31148069D01*
X223893580Y-31024198D01*
X223879522Y-30867496D01*
X223875939Y-30715206D01*
X223877116Y-30533592D01*
X223886886Y-30415256D01*
G37*
G36*
X229454339Y-31084891D02*
G01*
X229451828Y-30867207D01*
X229450794Y-30710305D01*
X229806250Y-30710305D01*
X229806250Y-31084891D01*
X229983957Y-31248695D01*
X230097179Y-31344542D01*
X230188419Y-31394141D01*
X230287399Y-31411469D01*
X230332313Y-31412500D01*
X230461888Y-31398075D01*
X230571555Y-31362237D01*
X230591745Y-31350315D01*
X230703722Y-31226774D01*
X230775992Y-31039496D01*
X230809404Y-30785890D01*
X230812083Y-30678281D01*
X230790963Y-30403831D01*
X230727131Y-30191409D01*
X230621897Y-30043107D01*
X230476571Y-29961014D01*
X230351772Y-29944063D01*
X230254372Y-29968635D01*
X230127129Y-30030959D01*
X229997579Y-30113941D01*
X229893260Y-30200489D01*
X229848759Y-30256290D01*
X229830034Y-30329815D01*
X229815519Y-30460163D01*
X229807321Y-30624809D01*
X229806250Y-30710305D01*
X229450794Y-30710305D01*
X229449806Y-30560484D01*
X229449063Y-30228205D01*
X229449062Y-30216017D01*
X229449062Y-28754950D01*
X229545416Y-28730766D01*
X229655511Y-28721905D01*
X229724010Y-28732685D01*
X229756217Y-28747100D01*
X229778705Y-28774867D01*
X229793211Y-28828610D01*
X229801476Y-28920951D01*
X229805236Y-29064515D01*
X229806229Y-29271927D01*
X229806250Y-29329941D01*
X229806250Y-29901096D01*
X230004484Y-29777867D01*
X230240211Y-29667133D01*
X230466524Y-29634695D01*
X230685779Y-29680352D01*
X230758429Y-29713265D01*
X230937598Y-29837317D01*
X231066725Y-30003094D01*
X231149538Y-30218692D01*
X231189764Y-30492209D01*
X231195091Y-30662052D01*
X231170879Y-30993746D01*
X231098408Y-31265216D01*
X230978721Y-31475174D01*
X230812860Y-31622331D01*
X230601867Y-31705398D01*
X230346785Y-31723086D01*
X230337270Y-31722517D01*
X230180167Y-31705448D01*
X230066636Y-31670142D01*
X229961073Y-31604012D01*
X229927202Y-31577541D01*
X229766562Y-31448447D01*
X229766562Y-31565134D01*
X229741568Y-31668422D01*
X229661309Y-31720466D01*
X229571493Y-31730000D01*
X229497341Y-31716458D01*
X229475520Y-31703542D01*
X229469502Y-31659144D01*
X229463964Y-31544343D01*
X229459066Y-31368106D01*
X229454968Y-31139404D01*
X229454339Y-31084891D01*
G37*
G36*
X244715467Y-35088634D02*
G01*
X245171611Y-35088634D01*
X245184775Y-35132723D01*
X245231539Y-35160393D01*
X245321741Y-35175446D01*
X245465215Y-35181684D01*
X245671797Y-35182906D01*
X245845394Y-35182813D01*
X246525476Y-35182813D01*
X246500291Y-34999067D01*
X246436727Y-34769947D01*
X246319179Y-34595939D01*
X246152419Y-34481451D01*
X245941220Y-34430887D01*
X245882336Y-34428750D01*
X245651563Y-34465017D01*
X245454106Y-34567953D01*
X245301685Y-34728757D01*
X245206746Y-34935998D01*
X245182214Y-35024326D01*
X245171611Y-35088634D01*
X244715467Y-35088634D01*
X244726629Y-34988177D01*
X244750083Y-34896709D01*
X244788355Y-34803984D01*
X244845071Y-34689847D01*
X244847812Y-34684477D01*
X245003233Y-34437717D01*
X245187832Y-34257660D01*
X245410904Y-34138973D01*
X245681745Y-34076324D01*
X245931088Y-34062924D01*
X246228729Y-34097036D01*
X246480619Y-34195227D01*
X246684396Y-34355109D01*
X246837695Y-34574295D01*
X246938155Y-34850398D01*
X246979839Y-35122707D01*
X246989149Y-35251123D01*
X246989330Y-35350079D01*
X246971519Y-35423409D01*
X246926859Y-35474948D01*
X246846490Y-35508532D01*
X246721551Y-35527994D01*
X246543183Y-35537170D01*
X246302527Y-35539895D01*
X246015758Y-35540000D01*
X245165312Y-35540000D01*
X245165533Y-35649141D01*
X245197880Y-35873130D01*
X245286359Y-36078707D01*
X245419508Y-36246651D01*
X245585866Y-36357742D01*
X245588825Y-36358990D01*
X245747217Y-36398242D01*
X245954180Y-36411709D01*
X246183454Y-36400088D01*
X246408783Y-36364075D01*
X246521073Y-36334262D01*
X246685056Y-36284577D01*
X246787839Y-36262613D01*
X246843708Y-36271544D01*
X246866947Y-36314545D01*
X246871840Y-36394789D01*
X246871875Y-36412210D01*
X246859745Y-36519231D01*
X246814793Y-36598532D01*
X246724174Y-36660518D01*
X246575044Y-36715591D01*
X246456739Y-36748450D01*
X246287307Y-36779871D01*
X246083476Y-36799144D01*
X245872398Y-36805561D01*
X245681222Y-36798410D01*
X245537097Y-36776982D01*
X245522500Y-36772887D01*
X245240180Y-36650778D01*
X245014172Y-36473173D01*
X244842171Y-36238105D01*
X244800330Y-36155156D01*
X244761073Y-36060673D01*
X244734819Y-35966698D01*
X244719054Y-35854025D01*
X244711265Y-35703451D01*
X244708939Y-35495770D01*
X244708906Y-35456624D01*
X244709666Y-35247977D01*
X244714365Y-35098547D01*
X244715467Y-35088634D01*
G37*
G36*
X212599809Y-34944688D02*
G01*
X213124555Y-34944688D01*
X213145172Y-35337032D01*
X213210264Y-35664755D01*
X213320620Y-35929506D01*
X213477027Y-36132933D01*
X213680274Y-36276686D01*
X213781980Y-36320460D01*
X213929756Y-36353151D01*
X214121931Y-36367939D01*
X214325514Y-36364562D01*
X214507515Y-36342757D01*
X214573915Y-36326764D01*
X214755810Y-36238870D01*
X214932348Y-36095773D01*
X215079942Y-35919525D01*
X215155703Y-35782949D01*
X215244984Y-35505871D01*
X215294445Y-35196442D01*
X215305214Y-34873271D01*
X215278422Y-34554967D01*
X215215200Y-34260139D01*
X215116676Y-34007396D01*
X215040313Y-33882639D01*
X214871748Y-33717035D01*
X214655791Y-33600683D01*
X214408922Y-33535709D01*
X214147620Y-33524242D01*
X213888366Y-33568408D01*
X213647640Y-33670335D01*
X213604072Y-33697247D01*
X213420755Y-33864198D01*
X213280005Y-34095029D01*
X213183395Y-34385650D01*
X213132496Y-34731974D01*
X213124555Y-34944688D01*
X212599809Y-34944688D01*
X212607683Y-34736960D01*
X212619546Y-34626336D01*
X212684391Y-34263601D01*
X212786178Y-33962487D01*
X212930718Y-33711600D01*
X213123824Y-33499543D01*
X213244161Y-33401725D01*
X213503499Y-33246799D01*
X213790313Y-33150517D01*
X214120211Y-33108178D01*
X214228906Y-33105300D01*
X214603616Y-33133415D01*
X214930249Y-33222456D01*
X215207068Y-33371506D01*
X215432337Y-33579651D01*
X215594235Y-33825814D01*
X215719240Y-34144642D01*
X215795018Y-34501698D01*
X215822317Y-34879140D01*
X215801888Y-35259127D01*
X215734480Y-35623817D01*
X215620842Y-35955369D01*
X215495001Y-36188019D01*
X215388191Y-36349419D01*
X215519840Y-36459325D01*
X215621035Y-36532393D01*
X215764115Y-36621792D01*
X215919568Y-36709167D01*
X215932385Y-36715901D01*
X216090118Y-36800763D01*
X216189654Y-36864456D01*
X216244308Y-36920258D01*
X216267395Y-36981449D01*
X216272204Y-37054801D01*
X216261451Y-37182360D01*
X216221908Y-37257302D01*
X216145311Y-37281139D01*
X216023392Y-37255386D01*
X215847886Y-37181559D01*
X215774828Y-37145919D01*
X215593383Y-37044260D01*
X215398979Y-36918323D01*
X215252192Y-36809741D01*
X215009258Y-36613174D01*
X214818024Y-36697766D01*
X214594581Y-36766448D01*
X214326309Y-36802238D01*
X214041024Y-36804224D01*
X213766547Y-36771490D01*
X213625619Y-36736954D01*
X213334592Y-36619866D01*
X213097849Y-36458886D01*
X212911228Y-36248246D01*
X212770563Y-35982179D01*
X212671689Y-35654919D01*
X212619748Y-35344076D01*
X212596386Y-35035007D01*
X212599809Y-34944688D01*
G37*
G36*
X221850809Y-33127241D02*
G01*
X221959868Y-33168641D01*
X221959910Y-33168672D01*
X221983337Y-33195009D01*
X222001045Y-33241545D01*
X222014038Y-33319024D01*
X222023324Y-33438190D01*
X222029907Y-33609785D01*
X222034793Y-33844554D01*
X222036948Y-33991476D01*
X222047343Y-34764670D01*
X222676912Y-33971632D01*
X222850914Y-33754533D01*
X223011596Y-33557987D01*
X223151597Y-33390691D01*
X223263551Y-33261337D01*
X223340095Y-33178619D01*
X223371443Y-33151618D01*
X223499938Y-33124305D01*
X223639671Y-33131406D01*
X223749392Y-33170529D01*
X223754037Y-33173782D01*
X223801754Y-33214888D01*
X223804890Y-33256238D01*
X223763514Y-33328505D01*
X223754423Y-33342454D01*
X223701340Y-33414275D01*
X223598734Y-33543517D01*
X223448860Y-33727442D01*
X223253975Y-33963311D01*
X223016334Y-34248385D01*
X222738193Y-34579926D01*
X222590415Y-34755417D01*
X222576554Y-34780916D01*
X222577261Y-34816064D01*
X222597303Y-34868423D01*
X222641450Y-34945554D01*
X222714470Y-35055020D01*
X222821133Y-35204382D01*
X222966208Y-35401202D01*
X223154462Y-35653042D01*
X223167276Y-35670122D01*
X223376422Y-35949432D01*
X223542093Y-36172457D01*
X223668867Y-36346088D01*
X223761323Y-36477216D01*
X223824038Y-36572732D01*
X223861592Y-36639526D01*
X223878563Y-36684489D01*
X223879530Y-36714513D01*
X223872461Y-36731445D01*
X223814045Y-36761481D01*
X223706428Y-36773000D01*
X223577179Y-36767662D01*
X223453864Y-36747129D01*
X223364050Y-36713061D01*
X223347109Y-36699797D01*
X223305459Y-36649510D01*
X223224137Y-36544417D01*
X223110188Y-36393882D01*
X222970658Y-36207271D01*
X222812593Y-35993948D01*
X222662500Y-35789848D01*
X222047343Y-34950414D01*
X222036628Y-35807643D01*
X222030552Y-36128364D01*
X222021278Y-36383819D01*
X222009034Y-36570197D01*
X221994047Y-36683689D01*
X221982160Y-36717592D01*
X221920540Y-36746532D01*
X221812776Y-36765026D01*
X221691028Y-36771174D01*
X221587457Y-36763073D01*
X221538020Y-36743854D01*
X221532519Y-36699870D01*
X221527405Y-36584654D01*
X221522798Y-36406353D01*
X221518820Y-36173110D01*
X221515592Y-35893068D01*
X221513233Y-35574373D01*
X221511865Y-35225168D01*
X221511562Y-34959313D01*
X221511676Y-34539821D01*
X221512219Y-34192663D01*
X221513491Y-33910797D01*
X221515793Y-33687182D01*
X221519425Y-33514776D01*
X221524687Y-33386539D01*
X221531880Y-33295429D01*
X221541304Y-33234404D01*
X221553260Y-33196424D01*
X221568048Y-33174447D01*
X221585969Y-33161431D01*
X221588328Y-33160146D01*
X221713148Y-33124092D01*
X221850809Y-33127241D01*
G37*
G36*
X220332814Y-33164845D02*
G01*
X220450544Y-33183214D01*
X220514936Y-33212933D01*
X220526646Y-33253779D01*
X220536036Y-33347900D01*
X220543181Y-33499295D01*
X220548160Y-33711959D01*
X220551049Y-33989890D01*
X220551925Y-34337085D01*
X220550865Y-34757540D01*
X220549561Y-35008793D01*
X220539218Y-36750469D01*
X220320937Y-36750469D01*
X220102656Y-36750469D01*
X220082812Y-35178418D01*
X220062968Y-33606367D01*
X219427968Y-35178418D01*
X218792968Y-36750469D01*
X218586664Y-36762393D01*
X218463314Y-36765787D01*
X218393062Y-36751097D01*
X218350063Y-36708508D01*
X218325453Y-36663175D01*
X218299302Y-36602033D01*
X218248351Y-36475505D01*
X218176034Y-36292386D01*
X218085787Y-36061474D01*
X217981046Y-35791565D01*
X217865245Y-35491454D01*
X217741820Y-35169940D01*
X217718163Y-35108132D01*
X217165781Y-33664233D01*
X217155375Y-35164179D01*
X217151264Y-35608419D01*
X217145596Y-35975216D01*
X217138304Y-36266489D01*
X217129320Y-36484157D01*
X217118577Y-36630138D01*
X217106007Y-36706351D01*
X217100906Y-36717219D01*
X217039118Y-36746372D01*
X216931230Y-36765025D01*
X216809404Y-36771250D01*
X216705804Y-36763120D01*
X216656458Y-36743854D01*
X216650893Y-36699819D01*
X216645726Y-36584654D01*
X216641081Y-36406604D01*
X216637085Y-36173916D01*
X216633863Y-35894832D01*
X216631538Y-35577600D01*
X216630237Y-35230463D01*
X216630000Y-35000439D01*
X216630274Y-34581078D01*
X216631261Y-34234064D01*
X216633208Y-33952369D01*
X216636360Y-33728968D01*
X216640964Y-33556831D01*
X216647266Y-33428934D01*
X216655512Y-33338248D01*
X216665949Y-33277747D01*
X216678823Y-33240404D01*
X216692366Y-33221116D01*
X216756743Y-33184943D01*
X216869495Y-33165020D01*
X217045537Y-33158754D01*
X217051357Y-33158750D01*
X217211675Y-33162106D01*
X217315332Y-33175658D01*
X217384886Y-33204631D01*
X217436804Y-33248047D01*
X217475295Y-33308698D01*
X217537351Y-33433093D01*
X217618334Y-33610778D01*
X217713603Y-33831302D01*
X217818521Y-34084213D01*
X217916827Y-34329531D01*
X218030047Y-34616671D01*
X218142091Y-34900799D01*
X218247103Y-35167069D01*
X218339227Y-35400632D01*
X218412607Y-35586642D01*
X218452680Y-35688191D01*
X218597331Y-36054663D01*
X219049850Y-34953972D01*
X219216463Y-34549642D01*
X219356272Y-34212762D01*
X219472063Y-33937129D01*
X219566620Y-33716542D01*
X219642730Y-33544796D01*
X219703178Y-33415690D01*
X219750750Y-33323020D01*
X219788232Y-33260583D01*
X219818409Y-33222177D01*
X219833806Y-33208359D01*
X219912252Y-33179593D01*
X220038408Y-33162865D01*
X220187016Y-33158006D01*
X220332814Y-33164845D01*
G37*
G36*
X240029030Y-36017756D02*
G01*
X240521875Y-36017756D01*
X240551613Y-36199361D01*
X240642090Y-36331365D01*
X240795193Y-36415717D01*
X240938593Y-36447186D01*
X240999353Y-36440642D01*
X241102234Y-36417972D01*
X241137031Y-36408790D01*
X241262915Y-36356675D01*
X241402463Y-36273793D01*
X241464453Y-36227761D01*
X241633125Y-36090311D01*
X241633125Y-35809298D01*
X241633125Y-35528284D01*
X241251367Y-35555119D01*
X241039672Y-35573681D01*
X240887426Y-35598544D01*
X240774704Y-35635783D01*
X240681581Y-35691473D01*
X240611171Y-35750315D01*
X240550143Y-35830476D01*
X240524562Y-35941681D01*
X240521875Y-36017756D01*
X240029030Y-36017756D01*
X240049088Y-35858639D01*
X240095458Y-35713760D01*
X240176563Y-35592684D01*
X240262498Y-35505847D01*
X240378233Y-35410517D01*
X240498128Y-35341028D01*
X240639111Y-35292236D01*
X240818110Y-35259001D01*
X241052053Y-35236177D01*
X241176718Y-35228111D01*
X241613281Y-35202656D01*
X241602229Y-34965762D01*
X241576453Y-34764751D01*
X241515091Y-34622824D01*
X241409087Y-34524256D01*
X241322747Y-34480408D01*
X241122287Y-34437598D01*
X240880669Y-34456919D01*
X240605008Y-34537490D01*
X240495916Y-34582602D01*
X240355492Y-34642946D01*
X240268689Y-34672143D01*
X240217518Y-34673284D01*
X240183990Y-34649459D01*
X240174609Y-34637808D01*
X240128743Y-34525458D01*
X240153468Y-34413946D01*
X240240137Y-34308797D01*
X240380106Y-34215534D01*
X240564727Y-34139683D01*
X240785355Y-34086766D01*
X241033344Y-34062309D01*
X241076784Y-34061387D01*
X241376888Y-34078334D01*
X241615875Y-34138367D01*
X241801547Y-34245197D01*
X241941705Y-34402534D01*
X241995786Y-34498480D01*
X242024974Y-34562565D01*
X242047505Y-34627408D01*
X242064465Y-34704455D01*
X242076939Y-34805149D01*
X242086013Y-34940935D01*
X242092771Y-35123258D01*
X242098300Y-35363562D01*
X242102949Y-35628356D01*
X242106287Y-35899512D01*
X242107233Y-36148891D01*
X242105908Y-36363953D01*
X242102436Y-36532158D01*
X242096937Y-36640967D01*
X242092781Y-36672275D01*
X242069923Y-36734025D01*
X242026627Y-36761802D01*
X241938980Y-36765740D01*
X241879883Y-36762513D01*
X241765757Y-36751251D01*
X241707552Y-36725973D01*
X241681844Y-36670510D01*
X241672812Y-36619594D01*
X241652968Y-36488719D01*
X241494218Y-36603796D01*
X241367878Y-36684262D01*
X241239842Y-36749167D01*
X241200562Y-36764436D01*
X241015897Y-36800452D01*
X240799406Y-36804063D01*
X240591397Y-36775989D01*
X240508190Y-36752110D01*
X240298255Y-36639248D01*
X240145024Y-36475514D01*
X240053147Y-36269963D01*
X240027279Y-36031649D01*
X240029030Y-36017756D01*
G37*
G36*
X219935222Y-29680405D02*
G01*
X219964622Y-29715859D01*
X219953268Y-29780396D01*
X219920853Y-29905155D01*
X219871436Y-30077481D01*
X219809078Y-30284721D01*
X219737841Y-30514218D01*
X219661783Y-30753321D01*
X219584968Y-30989373D01*
X219511454Y-31209721D01*
X219445303Y-31401710D01*
X219390575Y-31552686D01*
X219351331Y-31649994D01*
X219334218Y-31680391D01*
X219252268Y-31716223D01*
X219150156Y-31730000D01*
X219040419Y-31714500D01*
X218962108Y-31680391D01*
X218930014Y-31626976D01*
X218881698Y-31509973D01*
X218821847Y-31342363D01*
X218755153Y-31137129D01*
X218700464Y-30956094D01*
X218636266Y-30743690D01*
X218578339Y-30565347D01*
X218530531Y-30431851D01*
X218496687Y-30353985D01*
X218481119Y-30340938D01*
X218463804Y-30398246D01*
X218430309Y-30517779D01*
X218384623Y-30684989D01*
X218330735Y-30885330D01*
X218296063Y-31015625D01*
X218231195Y-31248302D01*
X218170781Y-31442271D01*
X218118757Y-31586035D01*
X218079061Y-31668097D01*
X218068456Y-31680391D01*
X217982993Y-31716338D01*
X217880156Y-31730000D01*
X217771956Y-31714605D01*
X217695809Y-31680391D01*
X217671462Y-31633245D01*
X217628523Y-31522666D01*
X217571041Y-31361298D01*
X217503064Y-31161786D01*
X217428641Y-30936773D01*
X217351821Y-30698903D01*
X217276653Y-30460822D01*
X217207185Y-30235173D01*
X217147466Y-30034601D01*
X217101546Y-29871750D01*
X217073471Y-29759263D01*
X217066562Y-29715249D01*
X217104182Y-29681397D01*
X217212606Y-29666723D01*
X217243880Y-29666250D01*
X217421198Y-29666250D01*
X217519717Y-29993672D01*
X217575525Y-30180457D01*
X217642553Y-30406724D01*
X217709929Y-30635717D01*
X217739786Y-30737813D01*
X217791614Y-30913533D01*
X217837193Y-31064473D01*
X217870863Y-31172108D01*
X217885214Y-31214063D01*
X217901551Y-31194814D01*
X217934490Y-31109343D01*
X217980879Y-30968302D01*
X218037565Y-30782345D01*
X218101394Y-30562126D01*
X218169215Y-30318299D01*
X218237873Y-30061518D01*
X218304218Y-29802436D01*
X218310957Y-29775391D01*
X218338964Y-29703880D01*
X218392731Y-29672847D01*
X218494672Y-29666250D01*
X218621333Y-29682466D01*
X218686732Y-29733946D01*
X218687674Y-29735703D01*
X218709551Y-29794492D01*
X218748659Y-29916557D01*
X218800988Y-30088696D01*
X218862527Y-30297706D01*
X218929266Y-30530383D01*
X218931811Y-30539375D01*
X218996591Y-30767485D01*
X219053887Y-30967621D01*
X219100267Y-31127931D01*
X219132302Y-31236567D01*
X219146562Y-31281677D01*
X219146849Y-31282208D01*
X219159414Y-31248686D01*
X219190138Y-31150192D01*
X219235612Y-30998143D01*
X219292428Y-30803953D01*
X219357178Y-30579041D01*
X219366044Y-30547989D01*
X219433742Y-30313410D01*
X219496238Y-30101972D01*
X219549546Y-29926770D01*
X219589674Y-29800898D01*
X219612635Y-29737452D01*
X219613488Y-29735703D01*
X219667418Y-29693309D01*
X219758088Y-29668883D01*
X219856890Y-29664043D01*
X219935222Y-29680405D01*
G37*
G36*
X233115477Y-34086755D02*
G01*
X233315309Y-34162828D01*
X233482433Y-34276077D01*
X233597907Y-34415490D01*
X233626835Y-34480349D01*
X233663238Y-34487411D01*
X233742002Y-34438633D01*
X233786651Y-34401579D01*
X234008122Y-34229217D01*
X234211789Y-34121200D01*
X234413809Y-34070131D01*
X234524960Y-34063625D01*
X234786842Y-34098104D01*
X235008515Y-34198749D01*
X235183974Y-34361366D01*
X235307212Y-34581767D01*
X235320569Y-34618802D01*
X235338812Y-34709655D01*
X235355095Y-34860175D01*
X235369151Y-35057005D01*
X235380711Y-35286789D01*
X235389507Y-35536170D01*
X235395271Y-35791793D01*
X235397734Y-36040300D01*
X235396628Y-36268336D01*
X235391686Y-36462544D01*
X235382639Y-36609568D01*
X235369219Y-36696051D01*
X235362575Y-36710691D01*
X235288634Y-36750219D01*
X235172704Y-36768475D01*
X235049527Y-36764487D01*
X234953850Y-36737282D01*
X234933875Y-36722688D01*
X234916943Y-36678631D01*
X234904025Y-36580677D01*
X234894833Y-36423049D01*
X234889078Y-36199967D01*
X234886474Y-35905653D01*
X234886250Y-35766264D01*
X234885415Y-35462242D01*
X234882465Y-35226847D01*
X234876736Y-35049346D01*
X234867560Y-34919002D01*
X234854272Y-34825082D01*
X234836205Y-34756851D01*
X234821367Y-34720734D01*
X234716207Y-34576312D01*
X234575629Y-34495048D01*
X234410958Y-34475947D01*
X234233516Y-34518016D01*
X234054629Y-34620260D01*
X233885621Y-34781685D01*
X233866905Y-34804530D01*
X233755156Y-34944483D01*
X233735312Y-35847476D01*
X233715468Y-36750469D01*
X233520870Y-36762814D01*
X233373101Y-36759956D01*
X233297194Y-36728404D01*
X233293275Y-36723126D01*
X233283650Y-36669693D01*
X233275076Y-36549059D01*
X233267991Y-36373398D01*
X233262832Y-36154879D01*
X233260038Y-35905677D01*
X233259670Y-35788850D01*
X233257572Y-35450748D01*
X233250606Y-35182625D01*
X233236983Y-34975146D01*
X233214917Y-34818973D01*
X233182621Y-34704772D01*
X233138306Y-34623206D01*
X233080186Y-34564939D01*
X233017989Y-34526444D01*
X232837008Y-34472999D01*
X232649404Y-34497065D01*
X232454059Y-34599034D01*
X232249853Y-34779298D01*
X232227187Y-34803505D01*
X232195547Y-34839678D01*
X232171231Y-34877762D01*
X232153004Y-34928402D01*
X232139633Y-35002242D01*
X232129884Y-35109925D01*
X232122525Y-35262097D01*
X232116320Y-35469401D01*
X232110037Y-35742482D01*
X232108125Y-35830837D01*
X232088281Y-36750469D01*
X231881187Y-36762421D01*
X231758614Y-36765982D01*
X231692918Y-36753307D01*
X231662069Y-36716772D01*
X231651803Y-36683046D01*
X231646610Y-36621618D01*
X231642560Y-36491336D01*
X231639742Y-36302714D01*
X231638245Y-36066266D01*
X231638159Y-35792505D01*
X231639572Y-35491946D01*
X231640615Y-35362348D01*
X231651718Y-34132977D01*
X231755285Y-34096568D01*
X231874886Y-34078069D01*
X231963645Y-34086461D01*
X232028673Y-34111568D01*
X232059357Y-34159964D01*
X232068182Y-34256288D01*
X232068437Y-34293257D01*
X232068437Y-34473752D01*
X232237109Y-34337131D01*
X232433779Y-34193767D01*
X232608107Y-34106288D01*
X232782764Y-34065204D01*
X232901875Y-34058868D01*
X233115477Y-34086755D01*
G37*
G36*
X239623159Y-34099475D02*
G01*
X239682181Y-34149401D01*
X239688437Y-34175820D01*
X239676776Y-34231631D01*
X239644120Y-34351164D01*
X239593963Y-34523325D01*
X239529795Y-34737019D01*
X239455109Y-34981151D01*
X239373398Y-35244625D01*
X239288152Y-35516346D01*
X239202865Y-35785221D01*
X239121028Y-36040152D01*
X239046134Y-36270047D01*
X238981674Y-36463808D01*
X238931141Y-36610343D01*
X238898027Y-36698554D01*
X238888061Y-36718765D01*
X238827119Y-36745958D01*
X238715903Y-36763506D01*
X238583055Y-36770277D01*
X238457217Y-36765136D01*
X238367033Y-36746951D01*
X238352947Y-36739939D01*
X238329133Y-36694803D01*
X238287738Y-36584543D01*
X238232511Y-36420492D01*
X238167203Y-36213981D01*
X238095565Y-35976342D01*
X238060884Y-35857500D01*
X237988187Y-35607728D01*
X237921467Y-35382190D01*
X237864270Y-35192575D01*
X237820142Y-35050569D01*
X237792626Y-34967862D01*
X237786547Y-34952991D01*
X237768948Y-34974535D01*
X237734878Y-35062970D01*
X237687514Y-35208283D01*
X237630030Y-35400460D01*
X237565601Y-35629486D01*
X237528605Y-35766585D01*
X237460372Y-36020160D01*
X237396868Y-36250615D01*
X237341528Y-36445927D01*
X237297783Y-36594073D01*
X237269069Y-36683029D01*
X237261802Y-36700859D01*
X237222998Y-36740847D01*
X237147731Y-36762393D01*
X237017135Y-36770040D01*
X236973306Y-36770313D01*
X236816531Y-36762244D01*
X236712888Y-36739860D01*
X236682871Y-36720703D01*
X236662271Y-36671932D01*
X236621748Y-36556520D01*
X236564332Y-36383808D01*
X236493056Y-36163139D01*
X236410948Y-35903854D01*
X236321039Y-35615296D01*
X236261223Y-35420938D01*
X236156619Y-35078362D01*
X236073800Y-34803688D01*
X236010859Y-34589061D01*
X235965888Y-34426628D01*
X235936979Y-34308533D01*
X235922223Y-34226922D01*
X235919713Y-34173940D01*
X235927540Y-34141735D01*
X235943798Y-34122450D01*
X235945484Y-34121172D01*
X236052682Y-34080433D01*
X236188010Y-34075350D01*
X236307922Y-34107470D01*
X236309362Y-34108233D01*
X236341914Y-34152125D01*
X236388174Y-34258112D01*
X236449298Y-34429540D01*
X236526442Y-34669754D01*
X236620763Y-34982099D01*
X236672862Y-35159952D01*
X236751904Y-35429303D01*
X236824532Y-35671791D01*
X236887659Y-35877509D01*
X236938200Y-36036553D01*
X236973069Y-36139018D01*
X236989136Y-36175000D01*
X237004546Y-36138267D01*
X237036875Y-36034857D01*
X237083226Y-35874957D01*
X237140703Y-35668752D01*
X237206409Y-35426429D01*
X237267948Y-35194407D01*
X237350807Y-34886559D01*
X237426277Y-34621211D01*
X237491908Y-34406241D01*
X237545252Y-34249526D01*
X237583860Y-34158944D01*
X237594921Y-34142689D01*
X237700028Y-34085075D01*
X237831287Y-34076093D01*
X237950493Y-34117917D01*
X237956491Y-34122135D01*
X237992341Y-34179950D01*
X238045693Y-34312532D01*
X238115706Y-34517420D01*
X238201541Y-34792155D01*
X238302359Y-35134277D01*
X238305184Y-35144088D01*
X238382305Y-35409458D01*
X238453535Y-35649591D01*
X238515624Y-35853921D01*
X238565321Y-36011882D01*
X238599372Y-36112908D01*
X238613504Y-36146038D01*
X238631568Y-36117798D01*
X238667873Y-36022644D01*
X238719315Y-35870111D01*
X238782789Y-35669736D01*
X238855192Y-35431055D01*
X238933418Y-35163604D01*
X238934009Y-35161547D01*
X239033914Y-34819560D01*
X239116387Y-34550113D01*
X239182986Y-34348675D01*
X239235267Y-34210714D01*
X239274788Y-34131701D01*
X239295721Y-34109024D01*
X239404749Y-34075004D01*
X239522288Y-34073248D01*
X239623159Y-34099475D01*
G37*
G36*
X202254302Y-31458565D02*
G01*
X203812116Y-31458565D01*
X203816667Y-31735340D01*
X203822146Y-32006735D01*
X203830140Y-32360194D01*
X203839782Y-32645401D01*
X203852777Y-32873480D01*
X203870824Y-33055553D01*
X203895626Y-33202744D01*
X203928885Y-33326176D01*
X203972302Y-33436973D01*
X204027578Y-33546257D01*
X204068705Y-33618394D01*
X204253981Y-33857273D01*
X204502561Y-34054445D01*
X204808366Y-34206759D01*
X205165320Y-34311065D01*
X205497656Y-34359057D01*
X205616718Y-34369219D01*
X205636562Y-34805505D01*
X205656406Y-35241790D01*
X205775468Y-35265563D01*
X205920658Y-35276576D01*
X206065083Y-35259419D01*
X206172821Y-35218815D01*
X206182265Y-35212056D01*
X206208393Y-35154457D01*
X206224665Y-35027800D01*
X206231559Y-34827749D01*
X206231875Y-34761234D01*
X206231875Y-34349375D01*
X206374974Y-34349375D01*
X206532978Y-34333868D01*
X206729515Y-34293060D01*
X206931335Y-34235519D01*
X207105187Y-34169815D01*
X207144380Y-34151094D01*
X207362335Y-34007423D01*
X207570711Y-33812492D01*
X207743624Y-33592723D01*
X207817732Y-33463741D01*
X207876985Y-33327968D01*
X207923732Y-33183376D01*
X207959311Y-33018840D01*
X207985058Y-32823234D01*
X208002309Y-32585433D01*
X208012400Y-32294311D01*
X208016667Y-31938742D01*
X208017026Y-31804313D01*
X208016366Y-31510366D01*
X208013398Y-31286453D01*
X208007551Y-31123251D01*
X207998255Y-31011437D01*
X207984939Y-30941690D01*
X207967031Y-30904686D01*
X207961629Y-30899342D01*
X207887423Y-30873594D01*
X207758847Y-30863024D01*
X207673895Y-30864716D01*
X207442343Y-30876719D01*
X207422500Y-31948281D01*
X207402656Y-33019844D01*
X207290992Y-33247237D01*
X207143802Y-33477139D01*
X206952713Y-33649728D01*
X206710066Y-33770053D01*
X206408198Y-33843161D01*
X206380703Y-33847200D01*
X206231875Y-33868135D01*
X206231875Y-32407052D01*
X206231431Y-32017556D01*
X206229921Y-31700229D01*
X206227076Y-31447866D01*
X206222628Y-31253266D01*
X206216309Y-31109226D01*
X206207849Y-31008542D01*
X206196982Y-30944011D01*
X206183437Y-30908431D01*
X206175692Y-30899342D01*
X206101485Y-30873594D01*
X205972910Y-30863024D01*
X205887957Y-30864716D01*
X205656406Y-30876719D01*
X205646418Y-32325313D01*
X205643698Y-32657781D01*
X205640355Y-32965770D01*
X205636553Y-33240123D01*
X205632453Y-33471686D01*
X205628217Y-33651302D01*
X205624007Y-33769817D01*
X205620002Y-33818033D01*
X205572566Y-33841123D01*
X205470543Y-33839885D01*
X205333607Y-33818021D01*
X205181433Y-33779232D01*
X205033694Y-33727221D01*
X204960852Y-33694013D01*
X204751305Y-33549058D01*
X204591236Y-33348484D01*
X204499144Y-33156025D01*
X204477509Y-33086394D01*
X204459960Y-32995691D01*
X204445770Y-32873980D01*
X204434207Y-32711323D01*
X204424545Y-32497785D01*
X204416052Y-32223430D01*
X204409068Y-31928438D01*
X204386406Y-30876719D01*
X204154854Y-30864716D01*
X204052515Y-30859109D01*
X203972025Y-30859664D01*
X203910960Y-30874705D01*
X203866894Y-30912557D01*
X203837402Y-30981544D01*
X203820058Y-31089991D01*
X203812438Y-31246223D01*
X203812116Y-31458565D01*
X202254302Y-31458565D01*
X202255016Y-31442266D01*
X202266751Y-31174375D01*
X201836313Y-31174375D01*
X201606214Y-31169581D01*
X201448147Y-31155408D01*
X201365248Y-31132168D01*
X201358250Y-31126750D01*
X201325172Y-31051192D01*
X201312197Y-30934639D01*
X201319325Y-30812880D01*
X201346556Y-30721708D01*
X201358250Y-30706062D01*
X201426497Y-30681118D01*
X201570369Y-30665190D01*
X201786594Y-30658605D01*
X201834500Y-30658438D01*
X202263125Y-30658438D01*
X202263125Y-30467070D01*
X202300811Y-30180468D01*
X202411519Y-29920981D01*
X202559647Y-29729067D01*
X202736777Y-29569495D01*
X202910898Y-29469093D01*
X203110800Y-29414304D01*
X203264917Y-29396962D01*
X203533125Y-29377772D01*
X203533125Y-28954480D01*
X203537989Y-28727485D01*
X203552332Y-28571378D01*
X203575783Y-28489843D01*
X203580750Y-28483562D01*
X203656307Y-28450485D01*
X203772861Y-28437510D01*
X203894620Y-28444638D01*
X203985792Y-28471869D01*
X204001437Y-28483562D01*
X204026365Y-28551817D01*
X204042286Y-28695834D01*
X204048887Y-28912480D01*
X204049062Y-28961626D01*
X204049062Y-29392064D01*
X204316953Y-29380329D01*
X204584843Y-29368594D01*
X204596194Y-28933491D01*
X204606736Y-28704906D01*
X204624356Y-28551326D01*
X204648821Y-28474579D01*
X204655725Y-28467770D01*
X204738397Y-28443508D01*
X204856781Y-28437411D01*
X204975928Y-28448157D01*
X205060889Y-28474422D01*
X205072999Y-28483562D01*
X205097928Y-28551817D01*
X205113849Y-28695834D01*
X205120450Y-28912480D01*
X205120625Y-28961626D01*
X205120625Y-29392064D01*
X205388515Y-29380329D01*
X205656406Y-29368594D01*
X205667756Y-28933491D01*
X205678299Y-28704906D01*
X205695919Y-28551326D01*
X205720383Y-28474579D01*
X205727287Y-28467770D01*
X205795250Y-28448346D01*
X205905756Y-28437389D01*
X205942744Y-28436545D01*
X206042221Y-28443594D01*
X206111363Y-28473520D01*
X206155543Y-28538219D01*
X206180133Y-28649591D01*
X206190505Y-28819532D01*
X206192187Y-28988953D01*
X206192187Y-29388438D01*
X206450156Y-29388438D01*
X206708125Y-29388438D01*
X206708125Y-28988953D01*
X206711465Y-28768305D01*
X206725069Y-28614983D01*
X206754309Y-28517090D01*
X206804558Y-28462728D01*
X206881187Y-28439998D01*
X206957568Y-28436545D01*
X207073779Y-28443812D01*
X207158797Y-28461191D01*
X207173024Y-28467770D01*
X207199105Y-28525698D01*
X207218399Y-28660901D01*
X207230671Y-28871549D01*
X207232555Y-28933491D01*
X207243906Y-29368594D01*
X207511796Y-29380329D01*
X207779687Y-29392064D01*
X207779687Y-28961626D01*
X207784481Y-28731527D01*
X207798654Y-28573460D01*
X207821894Y-28490561D01*
X207827312Y-28483562D01*
X207897772Y-28453505D01*
X208011439Y-28438625D01*
X208133367Y-28440247D01*
X208228605Y-28459693D01*
X208244587Y-28467770D01*
X208270668Y-28525698D01*
X208289962Y-28660901D01*
X208302234Y-28871549D01*
X208304118Y-28933491D01*
X208315468Y-29368594D01*
X208577472Y-29391138D01*
X208867602Y-29452084D01*
X209116072Y-29578341D01*
X209318022Y-29764895D01*
X209468593Y-30006728D01*
X209562927Y-30298825D01*
X209584018Y-30430234D01*
X209611024Y-30658438D01*
X210040484Y-30658438D01*
X210241472Y-30659778D01*
X210376294Y-30668834D01*
X210458161Y-30693160D01*
X210500282Y-30740308D01*
X210515867Y-30817833D01*
X210518125Y-30931558D01*
X210511864Y-31031952D01*
X210484659Y-31100243D01*
X210423872Y-31142520D01*
X210316867Y-31164869D01*
X210151007Y-31173379D01*
X210014093Y-31174375D01*
X209605312Y-31174375D01*
X209605312Y-31450888D01*
X209605312Y-31727400D01*
X210051796Y-31738622D01*
X210498281Y-31749844D01*
X210510503Y-31941443D01*
X210513464Y-32066004D01*
X210495547Y-32151075D01*
X210444648Y-32204128D01*
X210348660Y-32232634D01*
X210195478Y-32244065D01*
X210017171Y-32245938D01*
X209605312Y-32245938D01*
X209605312Y-32522450D01*
X209605312Y-32798963D01*
X210051796Y-32810185D01*
X210498281Y-32821406D01*
X210498281Y-33039688D01*
X210498281Y-33257969D01*
X210051796Y-33269190D01*
X209605312Y-33280412D01*
X209605312Y-33556925D01*
X209605312Y-33833438D01*
X209994602Y-33833438D01*
X210209900Y-33837078D01*
X210357699Y-33852523D01*
X210449715Y-33886560D01*
X210497666Y-33945976D01*
X210513269Y-34037558D01*
X210510729Y-34132408D01*
X210498281Y-34329531D01*
X210051796Y-34340753D01*
X209605312Y-34351975D01*
X209605312Y-34628487D01*
X209605312Y-34905000D01*
X210014093Y-34905000D01*
X210222487Y-34908016D01*
X210364244Y-34921122D01*
X210452000Y-34950406D01*
X210498392Y-35001956D01*
X210516057Y-35081859D01*
X210518125Y-35147817D01*
X210515781Y-35262744D01*
X210499943Y-35339837D01*
X210457402Y-35386650D01*
X210374947Y-35410735D01*
X210239370Y-35419647D01*
X210040484Y-35420938D01*
X209611024Y-35420938D01*
X209583733Y-35649141D01*
X209512154Y-35965133D01*
X209380649Y-36229679D01*
X209191780Y-36440214D01*
X208948110Y-36594178D01*
X208652201Y-36689006D01*
X208523828Y-36709331D01*
X208295625Y-36736337D01*
X208295625Y-37165797D01*
X208294284Y-37366785D01*
X208285228Y-37501607D01*
X208260902Y-37583474D01*
X208213754Y-37625595D01*
X208136229Y-37641180D01*
X208022504Y-37643438D01*
X207922110Y-37637177D01*
X207853819Y-37609972D01*
X207811542Y-37549185D01*
X207789193Y-37442180D01*
X207780683Y-37276320D01*
X207779687Y-37139406D01*
X207779687Y-36730625D01*
X207501875Y-36730625D01*
X207224062Y-36730625D01*
X207224062Y-37162941D01*
X207222790Y-37364633D01*
X207213862Y-37500121D01*
X207189613Y-37582574D01*
X207142378Y-37625164D01*
X207064491Y-37641062D01*
X206948285Y-37643437D01*
X206944400Y-37643438D01*
X206848376Y-37634763D01*
X206782124Y-37600761D01*
X206740341Y-37529462D01*
X206717723Y-37408896D01*
X206708964Y-37227093D01*
X206708125Y-37110265D01*
X206708125Y-36730625D01*
X206450156Y-36730625D01*
X206192187Y-36730625D01*
X206192187Y-37110265D01*
X206188343Y-37326951D01*
X206173275Y-37476452D01*
X206141679Y-37570738D01*
X206088250Y-37621779D01*
X206007684Y-37641543D01*
X205955912Y-37643438D01*
X205838521Y-37641251D01*
X205759664Y-37625912D01*
X205711674Y-37584250D01*
X205686885Y-37503094D01*
X205677632Y-37369273D01*
X205676250Y-37169617D01*
X205676250Y-37162941D01*
X205676250Y-36730625D01*
X205398437Y-36730625D01*
X205120625Y-36730625D01*
X205120625Y-37139406D01*
X205117609Y-37347800D01*
X205104503Y-37489557D01*
X205075218Y-37577313D01*
X205023669Y-37623705D01*
X204943766Y-37641370D01*
X204877808Y-37643438D01*
X204763163Y-37641127D01*
X204686150Y-37625415D01*
X204639281Y-37583131D01*
X204615073Y-37501104D01*
X204606036Y-37366165D01*
X204604687Y-37165143D01*
X204604687Y-37162941D01*
X204604687Y-36730625D01*
X204326875Y-36730625D01*
X204049062Y-36730625D01*
X204049062Y-37139406D01*
X204044049Y-37360028D01*
X204029349Y-37512159D01*
X204005470Y-37590929D01*
X204001437Y-37595813D01*
X203933575Y-37626149D01*
X203823915Y-37642513D01*
X203791093Y-37643438D01*
X203676460Y-37632454D01*
X203593245Y-37605148D01*
X203580750Y-37595813D01*
X203555605Y-37527684D01*
X203539582Y-37385757D01*
X203533215Y-37175142D01*
X203533125Y-37142262D01*
X203533125Y-36736337D01*
X203304921Y-36709331D01*
X202992799Y-36639474D01*
X202730711Y-36512225D01*
X202523056Y-36331900D01*
X202374232Y-36102816D01*
X202288636Y-35829287D01*
X202272124Y-35695780D01*
X202252459Y-35420938D01*
X201805632Y-35420938D01*
X201600387Y-35419752D01*
X201461542Y-35411422D01*
X201376120Y-35388789D01*
X201331144Y-35344692D01*
X201313639Y-35271972D01*
X201310628Y-35163470D01*
X201310625Y-35147817D01*
X201316463Y-35049234D01*
X201342255Y-34981547D01*
X201400413Y-34939021D01*
X201503350Y-34915922D01*
X201663478Y-34906517D01*
X201836313Y-34905000D01*
X202266751Y-34905000D01*
X202255016Y-34637109D01*
X202243281Y-34369219D01*
X201808178Y-34357868D01*
X201579593Y-34347326D01*
X201426013Y-34329706D01*
X201349266Y-34305241D01*
X201342457Y-34298337D01*
X201314958Y-34204188D01*
X201314280Y-34079007D01*
X201337524Y-33961004D01*
X201372991Y-33895804D01*
X201421160Y-33866018D01*
X201503777Y-33846959D01*
X201635339Y-33836736D01*
X201830349Y-33833457D01*
X201851054Y-33833438D01*
X202266751Y-33833438D01*
X202255016Y-33565547D01*
X202243281Y-33297656D01*
X201808178Y-33286306D01*
X201602376Y-33279052D01*
X201463032Y-33265708D01*
X201377226Y-33239855D01*
X201332043Y-33195074D01*
X201314563Y-33124948D01*
X201311840Y-33039688D01*
X201315844Y-32942694D01*
X201336467Y-32876554D01*
X201386627Y-32834849D01*
X201479241Y-32811161D01*
X201627227Y-32799072D01*
X201808178Y-32793069D01*
X202243281Y-32781719D01*
X202255016Y-32513828D01*
X202266751Y-32245938D01*
X201865454Y-32245938D01*
X201644401Y-32242622D01*
X201490692Y-32229112D01*
X201392446Y-32200058D01*
X201337778Y-32150112D01*
X201314808Y-32073927D01*
X201311232Y-31996494D01*
X201318499Y-31880283D01*
X201335878Y-31795265D01*
X201342457Y-31781038D01*
X201400385Y-31754957D01*
X201535588Y-31735663D01*
X201746236Y-31723391D01*
X201808178Y-31721507D01*
X202243281Y-31710156D01*
X202254302Y-31458565D01*
G37*
%TD*%
D13*
%TO.C,SW64*%
X201500000Y-131000000D03*
X150500000Y-131000000D03*
X178500000Y-100400000D03*
X173500000Y-100400000D03*
X176000000Y-100400000D03*
D14*
X206099999Y-130999999D03*
D15*
X191100000Y-157153967D03*
X191100000Y-104846033D03*
D16*
X190500000Y-131000000D03*
X161500000Y-131000000D03*
D15*
X160900000Y-157153967D03*
X160900000Y-104846033D03*
D14*
X145899999Y-130999999D03*
%TD*%
D17*
%TO.C,H3*%
X60500000Y-30955004D03*
%TD*%
%TO.C,H2*%
X291000000Y-31000000D03*
%TD*%
D18*
%TO.C,J2*%
X178890000Y-24150007D03*
X173110000Y-24150007D03*
D19*
X179224999Y-25595006D03*
X178449999Y-25595006D03*
D20*
X177249999Y-25595006D03*
X176249999Y-25595006D03*
X175749999Y-25595006D03*
X174749999Y-25595006D03*
D19*
X173549999Y-25595006D03*
X172774999Y-25595006D03*
D20*
X174249999Y-25595006D03*
X175249999Y-25595006D03*
X176749999Y-25595006D03*
X177749999Y-25595006D03*
D21*
X180319999Y-24680006D03*
D22*
X180319999Y-20500006D03*
D21*
X171679999Y-24680006D03*
D22*
X171679999Y-20500006D03*
%TD*%
D23*
%TO.C,J4*%
X155999995Y-34578749D03*
D24*
X155999995Y-37118749D03*
X155999995Y-39658749D03*
X155999995Y-42198749D03*
X155999995Y-44738749D03*
X155999995Y-47278749D03*
X155999995Y-49818749D03*
D25*
X156249996Y-26198750D03*
X156249996Y-58198750D03*
X195749996Y-26198750D03*
X195749996Y-58198750D03*
%TD*%
D26*
%TO.C,J5*%
X152050002Y-48200625D03*
D27*
X152050001Y-46200624D03*
X152050001Y-44200624D03*
X152050001Y-42200624D03*
X152050001Y-40200624D03*
X152050001Y-38200624D03*
X152050001Y-36200624D03*
%TD*%
D17*
%TO.C,H1*%
X176000000Y-186750000D03*
%TD*%
D23*
%TO.C,J1*%
X172099937Y-63600003D03*
D24*
X174639937Y-63600003D03*
X177179937Y-63600003D03*
X179719937Y-63600003D03*
%TD*%
D28*
%TO.C,SW25*%
X122027844Y-149071744D03*
D29*
X122860966Y-143453568D03*
D30*
X117866552Y-146157976D03*
D29*
X116202467Y-141892004D03*
D28*
X113705260Y-143244208D03*
%TD*%
%TO.C,SW30*%
X137265364Y-164891520D03*
D29*
X139524189Y-159680406D03*
D30*
X134000003Y-161000014D03*
D29*
X133496735Y-156448704D03*
D28*
X130734642Y-157108508D03*
%TD*%
%TO.C,SW1*%
X62700843Y-44482097D03*
D29*
X62051486Y-38839728D03*
D30*
X57927204Y-42744635D03*
D29*
X55215706Y-39054719D03*
D28*
X53153565Y-41007173D03*
%TD*%
%TO.C,SW24*%
X117202282Y-117534542D03*
D29*
X116552925Y-111892173D03*
D30*
X112428643Y-115797080D03*
D29*
X109717145Y-112107164D03*
D28*
X107655004Y-114059618D03*
%TD*%
%TO.C,SW29*%
X134017486Y-127033577D03*
D29*
X133368129Y-121391208D03*
D30*
X129243847Y-125296115D03*
D29*
X126532349Y-121606199D03*
D28*
X124470208Y-123558653D03*
%TD*%
%TO.C,SW14*%
X81399974Y-104503584D03*
D29*
X80750617Y-98861215D03*
D30*
X76626335Y-102766122D03*
D29*
X73914837Y-99076206D03*
D28*
X71852696Y-101028660D03*
%TD*%
%TO.C,SW19*%
X100658520Y-107289651D03*
D29*
X100009163Y-101647282D03*
D30*
X95884881Y-105552189D03*
D29*
X93173383Y-101862273D03*
D28*
X91111242Y-103814727D03*
%TD*%
%TO.C,SW5*%
X36638901Y-116086693D03*
D29*
X35989544Y-110444324D03*
D30*
X31865262Y-114349231D03*
D29*
X29153764Y-110659315D03*
D28*
X27091623Y-112611769D03*
%TD*%
%TO.C,SW22*%
X130233235Y-81732247D03*
D29*
X129583878Y-76089878D03*
D30*
X125459596Y-79994785D03*
D29*
X122748098Y-76304869D03*
D28*
X120685957Y-78257323D03*
%TD*%
%TO.C,SW27*%
X147048457Y-91231274D03*
D29*
X146399100Y-85588905D03*
D30*
X142274818Y-89493812D03*
D29*
X139563320Y-85803896D03*
D28*
X137501179Y-87756350D03*
%TD*%
%TO.C,SW3*%
X49669858Y-80284398D03*
D29*
X49020501Y-74642029D03*
D30*
X44896219Y-78546936D03*
D29*
X42184721Y-74857020D03*
D28*
X40122580Y-76809474D03*
%TD*%
%TO.C,SW8*%
X68385455Y-84562225D03*
D29*
X67736098Y-78919856D03*
D30*
X63611816Y-82824763D03*
D29*
X60900318Y-79134847D03*
D28*
X58838177Y-81087301D03*
%TD*%
%TO.C,SW13*%
X87915467Y-86602429D03*
D29*
X87266110Y-80960060D03*
D30*
X83141828Y-84864967D03*
D29*
X80430330Y-81175051D03*
D28*
X78368189Y-83127505D03*
%TD*%
%TO.C,SW23*%
X123717758Y-99633428D03*
D29*
X123068401Y-93991059D03*
D30*
X118944119Y-97895966D03*
D29*
X116232621Y-94206050D03*
D28*
X114170480Y-96158504D03*
%TD*%
%TO.C,SW18*%
X107173986Y-89388510D03*
D29*
X106524629Y-83746141D03*
D30*
X102400347Y-87651048D03*
D29*
X99688849Y-83961132D03*
D28*
X97626708Y-85913586D03*
%TD*%
%TO.C,SW28*%
X140532968Y-109132418D03*
D29*
X139883611Y-103490049D03*
D30*
X135759329Y-107394956D03*
D29*
X133047831Y-103705040D03*
D28*
X130985690Y-105657494D03*
%TD*%
%TO.C,SW4*%
X43154398Y-98185559D03*
D29*
X42505041Y-92543190D03*
D30*
X38380759Y-96448097D03*
D29*
X35669261Y-92758181D03*
D28*
X33607120Y-94710635D03*
%TD*%
%TO.C,SW9*%
X61869941Y-102463386D03*
D29*
X61220584Y-96821017D03*
D30*
X57096302Y-100725924D03*
D29*
X54384804Y-97036008D03*
D28*
X52322663Y-98988462D03*
%TD*%
%TO.C,SW10*%
X55354479Y-120364525D03*
D29*
X54705122Y-114722156D03*
D30*
X50580840Y-118627063D03*
D29*
X47869342Y-114937147D03*
D28*
X45807201Y-116889601D03*
%TD*%
%TO.C,SW15*%
X74884491Y-122404723D03*
D29*
X74235134Y-116762354D03*
D30*
X70110852Y-120667261D03*
D29*
X67399354Y-116977345D03*
D28*
X65337213Y-118929799D03*
%TD*%
%TO.C,SW20*%
X103090860Y-137739146D03*
D29*
X102441503Y-132096777D03*
D30*
X98317221Y-136001684D03*
D29*
X95605723Y-132311768D03*
D28*
X93543582Y-134264222D03*
%TD*%
%TO.C,SW11*%
X100946425Y-50800159D03*
D29*
X100297068Y-45157790D03*
D30*
X96172786Y-49062697D03*
D29*
X93461288Y-45372781D03*
D28*
X91399147Y-47325235D03*
%TD*%
%TO.C,SW2*%
X56185358Y-62383251D03*
D29*
X55536001Y-56740882D03*
D30*
X51411719Y-60645789D03*
D29*
X48700221Y-56955873D03*
D28*
X46638080Y-58908327D03*
%TD*%
%TO.C,SW12*%
X94430939Y-68701283D03*
D29*
X93781582Y-63058914D03*
D30*
X89657300Y-66963821D03*
D29*
X86945802Y-63273905D03*
D28*
X84883661Y-65226359D03*
%TD*%
%TO.C,SW21*%
X136748723Y-63831110D03*
D29*
X136099366Y-58188741D03*
D30*
X131975084Y-62093648D03*
D29*
X129263586Y-58403732D03*
D28*
X127201445Y-60356186D03*
%TD*%
%TO.C,SW17*%
X113689484Y-71487377D03*
D29*
X113040127Y-65845008D03*
D30*
X108915845Y-69749915D03*
D29*
X106204347Y-66059999D03*
D28*
X104142206Y-68012453D03*
%TD*%
%TO.C,SW16*%
X120204966Y-53586216D03*
D29*
X119555609Y-47943847D03*
D30*
X115431327Y-51848754D03*
D29*
X112719829Y-48158838D03*
D28*
X110657688Y-50111292D03*
%TD*%
%TO.C,SW6*%
X81416412Y-48759949D03*
D29*
X80767055Y-43117580D03*
D30*
X76642773Y-47022487D03*
D29*
X73931275Y-43332571D03*
D28*
X71869134Y-45285025D03*
%TD*%
%TO.C,SW7*%
X74900925Y-66661091D03*
D29*
X74251568Y-61018722D03*
D30*
X70127286Y-64923629D03*
D29*
X67415788Y-61233713D03*
D28*
X65353647Y-63186167D03*
%TD*%
%TO.C,SW26*%
X153563942Y-73330126D03*
D29*
X152914585Y-67687757D03*
D30*
X148790303Y-71592664D03*
D29*
X146078805Y-67902748D03*
D28*
X144016664Y-69855202D03*
%TD*%
%TO.C,SW31*%
X207983359Y-69855206D03*
D29*
X203859077Y-65950298D03*
D30*
X203209720Y-71592668D03*
D29*
X198760760Y-70508945D03*
D28*
X198436081Y-73330130D03*
%TD*%
%TO.C,SW62*%
X181080016Y-176909993D03*
D29*
X178540016Y-171829993D03*
D30*
X176000016Y-176909993D03*
D29*
X172190016Y-174369993D03*
D28*
X170920016Y-176909993D03*
%TD*%
%TO.C,SW45*%
X258456433Y-134264220D03*
D29*
X254332151Y-130359312D03*
D30*
X253682794Y-136001682D03*
D29*
X249233834Y-134917959D03*
D28*
X248909155Y-137739144D03*
%TD*%
%TO.C,SW49*%
X280147315Y-101028674D03*
D29*
X276023033Y-97123766D03*
D30*
X275373676Y-102766136D03*
D29*
X270924716Y-101682413D03*
D28*
X270600037Y-104503598D03*
%TD*%
%TO.C,SW47*%
X267116358Y-65226375D03*
D29*
X262992076Y-61321467D03*
D30*
X262342719Y-66963837D03*
D29*
X257893759Y-65880114D03*
D28*
X257569080Y-68701299D03*
%TD*%
%TO.C,SW63*%
X202266906Y-172775203D03*
D29*
X198498654Y-168525700D03*
D30*
X197360003Y-174090004D03*
D29*
X193022425Y-172622653D03*
D28*
X192453100Y-175404805D03*
%TD*%
%TO.C,SW61*%
X159546906Y-175404786D03*
D29*
X158408255Y-169840482D03*
D30*
X154640003Y-174089985D03*
D29*
X151617226Y-170650433D03*
D28*
X149733100Y-172775184D03*
%TD*%
%TO.C,SW33*%
X221014313Y-105657490D03*
D29*
X216890031Y-101752582D03*
D30*
X216240674Y-107394952D03*
D29*
X211791714Y-106311229D03*
D28*
X211467035Y-109132414D03*
%TD*%
%TO.C,SW59*%
X318392903Y-94710624D03*
D29*
X314268621Y-90805716D03*
D30*
X313619264Y-96448086D03*
D29*
X309170304Y-95364363D03*
D28*
X308845625Y-98185548D03*
%TD*%
%TO.C,SW38*%
X237829561Y-96158489D03*
D29*
X233705279Y-92253581D03*
D30*
X233055922Y-97895951D03*
D29*
X228606962Y-96812228D03*
D28*
X228282283Y-99633413D03*
%TD*%
%TO.C,SW50*%
X286662804Y-118929816D03*
D29*
X282538522Y-115024908D03*
D30*
X281889165Y-120667278D03*
D29*
X277440205Y-119583555D03*
D28*
X277115526Y-122404740D03*
%TD*%
%TO.C,SW58*%
X311877417Y-76809460D03*
D29*
X307753135Y-72904552D03*
D30*
X307103778Y-78546922D03*
D29*
X302654818Y-77463199D03*
D28*
X302330139Y-80284384D03*
%TD*%
D31*
%TO.C,U4*%
X181349999Y-125339999D03*
D32*
X181350000Y-127120000D03*
X181350000Y-128900000D03*
X181350000Y-130680000D03*
X181350000Y-132460000D03*
X181350000Y-134240000D03*
X181350000Y-136020000D03*
X181350000Y-137800000D03*
X170650000Y-138690000D03*
X170650000Y-136910000D03*
X170650000Y-135130000D03*
X170650000Y-133350000D03*
X170650000Y-131570000D03*
X170650000Y-129790000D03*
X170650000Y-128010000D03*
X170650000Y-126230000D03*
%TD*%
D28*
%TO.C,SW43*%
X254373283Y-85913585D03*
D29*
X250249001Y-82008677D03*
D30*
X249599644Y-87651047D03*
D29*
X245150684Y-86567324D03*
D28*
X244826005Y-89388509D03*
%TD*%
%TO.C,SW57*%
X305361932Y-58908324D03*
D29*
X301237650Y-55003416D03*
D30*
X300588293Y-60645786D03*
D29*
X296139333Y-59562063D03*
D28*
X295814654Y-62383248D03*
%TD*%
%TO.C,SW52*%
X286646368Y-63186167D03*
D29*
X282522086Y-59281259D03*
D30*
X281872729Y-64923629D03*
D29*
X277423769Y-63839906D03*
D28*
X277099090Y-66661091D03*
%TD*%
%TO.C,SW44*%
X260888780Y-103814718D03*
D29*
X256764498Y-99909810D03*
D30*
X256115141Y-105552180D03*
D29*
X251666181Y-104468457D03*
D28*
X251341502Y-107289642D03*
%TD*%
%TO.C,SW41*%
X241342326Y-50111303D03*
D29*
X237218044Y-46206395D03*
D30*
X236568687Y-51848765D03*
D29*
X232119727Y-50765042D03*
D28*
X231795048Y-53586227D03*
%TD*%
%TO.C,SW40*%
X238294746Y-143244193D03*
D29*
X233300332Y-140539784D03*
D30*
X234133454Y-146157961D03*
D29*
X229555601Y-146262641D03*
D28*
X229972162Y-149071729D03*
%TD*%
%TO.C,SW46*%
X260600861Y-47325237D03*
D29*
X256476579Y-43420329D03*
D30*
X255827222Y-49062699D03*
D29*
X251378262Y-47978976D03*
D28*
X251053583Y-50800161D03*
%TD*%
%TO.C,SW51*%
X280130886Y-45285036D03*
D29*
X276006604Y-41380128D03*
D30*
X275357247Y-47022498D03*
D29*
X270908287Y-45938775D03*
D28*
X270583608Y-48759960D03*
%TD*%
%TO.C,SW60*%
X324908379Y-112611761D03*
D29*
X320784097Y-108706853D03*
D30*
X320134740Y-114349223D03*
D29*
X315685780Y-113265500D03*
D28*
X315361101Y-116086685D03*
%TD*%
%TO.C,SW37*%
X231314068Y-78257353D03*
D29*
X227189786Y-74352445D03*
D30*
X226540429Y-79994815D03*
D29*
X222091469Y-78911092D03*
D28*
X221766790Y-81732277D03*
%TD*%
%TO.C,SW54*%
X299677333Y-98988464D03*
D29*
X295553051Y-95083556D03*
D30*
X294903694Y-100725926D03*
D29*
X290454734Y-99642203D03*
D28*
X290130055Y-102463388D03*
%TD*%
%TO.C,SW55*%
X306192824Y-116889611D03*
D29*
X302068542Y-112984703D03*
D30*
X301419185Y-118627073D03*
D29*
X296970225Y-117543350D03*
D28*
X296645546Y-120364535D03*
%TD*%
%TO.C,SW48*%
X273631838Y-83127517D03*
D29*
X269507556Y-79222609D03*
D30*
X268858199Y-84864979D03*
D29*
X264409239Y-83781256D03*
D28*
X264084560Y-86602441D03*
%TD*%
%TO.C,SW53*%
X293161850Y-81087311D03*
D29*
X289037568Y-77182403D03*
D30*
X288388211Y-82824773D03*
D29*
X283939251Y-81741050D03*
D28*
X283614572Y-84562235D03*
%TD*%
%TO.C,SW35*%
X221265373Y-157108501D03*
D29*
X215741187Y-155788893D03*
D30*
X218000012Y-161000007D03*
D29*
X213605238Y-162285956D03*
D28*
X214734651Y-164891513D03*
%TD*%
%TO.C,SW34*%
X227529793Y-123558635D03*
D29*
X223405511Y-119653727D03*
D30*
X222756154Y-125296097D03*
D29*
X218307194Y-124212374D03*
D28*
X217982515Y-127033559D03*
%TD*%
%TO.C,SW42*%
X247857802Y-68012449D03*
D29*
X243733520Y-64107541D03*
D30*
X243084163Y-69749911D03*
D29*
X238635203Y-68666188D03*
D28*
X238310524Y-71487373D03*
%TD*%
%TO.C,SW56*%
X298846454Y-41007191D03*
D29*
X294722172Y-37102283D03*
D30*
X294072815Y-42744653D03*
D29*
X289623855Y-41660930D03*
D28*
X289299176Y-44482115D03*
%TD*%
%TO.C,SW36*%
X224798576Y-60356214D03*
D29*
X220674294Y-56451306D03*
D30*
X220024937Y-62093676D03*
D29*
X215575977Y-61009953D03*
D28*
X215251298Y-63831138D03*
%TD*%
%TO.C,SW39*%
X244345034Y-114059637D03*
D29*
X240220752Y-110154729D03*
D30*
X239571395Y-115797099D03*
D29*
X235122435Y-114713376D03*
D28*
X234797756Y-117534561D03*
%TD*%
%TO.C,SW32*%
X214498832Y-87756354D03*
D29*
X210374550Y-83851446D03*
D30*
X209725193Y-89493816D03*
D29*
X205276233Y-88410093D03*
D28*
X204951554Y-91231278D03*
%TD*%
M02*
