%TF.GenerationSoftware,KiCad,Pcbnew,(7.0.0)*%
%TF.CreationDate,2023-04-02T15:15:40+01:00*%
%TF.ProjectId,Honeydew,486f6e65-7964-4657-972e-6b696361645f,rev?*%
%TF.SameCoordinates,Original*%
%TF.FileFunction,Soldermask,Top*%
%TF.FilePolarity,Negative*%
%FSLAX46Y46*%
G04 Gerber Fmt 4.6, Leading zero omitted, Abs format (unit mm)*
G04 Created by KiCad (PCBNEW (7.0.0)) date 2023-04-02 15:15:40*
%MOMM*%
%LPD*%
G01*
G04 APERTURE LIST*
G04 Aperture macros list*
%AMRoundRect*
0 Rectangle with rounded corners*
0 $1 Rounding radius*
0 $2 $3 $4 $5 $6 $7 $8 $9 X,Y pos of 4 corners*
0 Add a 4 corners polygon primitive as box body*
4,1,4,$2,$3,$4,$5,$6,$7,$8,$9,$2,$3,0*
0 Add four circle primitives for the rounded corners*
1,1,$1+$1,$2,$3*
1,1,$1+$1,$4,$5*
1,1,$1+$1,$6,$7*
1,1,$1+$1,$8,$9*
0 Add four rect primitives between the rounded corners*
20,1,$1+$1,$2,$3,$4,$5,0*
20,1,$1+$1,$4,$5,$6,$7,0*
20,1,$1+$1,$6,$7,$8,$9,0*
20,1,$1+$1,$8,$9,$2,$3,0*%
%AMHorizOval*
0 Thick line with rounded ends*
0 $1 width*
0 $2 $3 position (X,Y) of the first rounded end (center of the circle)*
0 $4 $5 position (X,Y) of the second rounded end (center of the circle)*
0 Add line between two ends*
20,1,$1,$2,$3,$4,$5,0*
0 Add two circle primitives to create the rounded ends*
1,1,$1,$2,$3*
1,1,$1,$4,$5*%
G04 Aperture macros list end*
%ADD10R,1.200000X1.200000*%
%ADD11C,1.200000*%
%ADD12C,1.750000*%
%ADD13C,3.000000*%
%ADD14C,3.987800*%
%ADD15C,2.000000*%
%ADD16R,2.500000X6.000000*%
%ADD17C,3.500000*%
%ADD18C,5.600000*%
%ADD19C,1.152000*%
%ADD20R,1.700000X1.700000*%
%ADD21O,1.700000X1.700000*%
%ADD22C,4.000000*%
%ADD23RoundRect,0.250000X0.625000X-0.350000X0.625000X0.350000X-0.625000X0.350000X-0.625000X-0.350000X0*%
%ADD24O,1.750000X1.200000*%
%ADD25C,5.700000*%
%ADD26HorizOval,1.000000X-0.129864X0.585778X0.129864X-0.585778X0*%
%ADD27HorizOval,1.000000X-0.086576X0.390518X0.086576X-0.390518X0*%
%ADD28O,1.000000X1.800000*%
%ADD29O,1.000000X2.200000*%
%ADD30HorizOval,1.000000X-0.129864X-0.585778X0.129864X0.585778X0*%
%ADD31HorizOval,1.000000X-0.086576X-0.390518X0.086576X0.390518X0*%
G04 APERTURE END LIST*
%TO.C,A1*%
G36*
X117563334Y-30384666D02*
G01*
X117528467Y-30535669D01*
X117394001Y-30554000D01*
X117184930Y-30461065D01*
X117224667Y-30384666D01*
X117526106Y-30354267D01*
X117563334Y-30384666D01*
G37*
G36*
X117817334Y-29114666D02*
G01*
X117847733Y-29416105D01*
X117817334Y-29453333D01*
X117666331Y-29418466D01*
X117648001Y-29284000D01*
X117740935Y-29074929D01*
X117817334Y-29114666D01*
G37*
G36*
X114600001Y-31443000D02*
G01*
X114842312Y-31671246D01*
X114854001Y-31711990D01*
X114657483Y-31821087D01*
X114600001Y-31824000D01*
X114355761Y-31628736D01*
X114346001Y-31555009D01*
X114501610Y-31403311D01*
X114600001Y-31443000D01*
G37*
G36*
X116358431Y-30438610D02*
G01*
X116378001Y-30524019D01*
X116192643Y-30883093D01*
X116124001Y-30935000D01*
X115889570Y-30923389D01*
X115870001Y-30837980D01*
X116055358Y-30478906D01*
X116124001Y-30427000D01*
X116358431Y-30438610D01*
G37*
G36*
X118830689Y-28423609D02*
G01*
X118791001Y-28522000D01*
X118562754Y-28764311D01*
X118522010Y-28776000D01*
X118412913Y-28579482D01*
X118410001Y-28522000D01*
X118605264Y-28277760D01*
X118678991Y-28268000D01*
X118830689Y-28423609D01*
G37*
G36*
X123736620Y-28715287D02*
G01*
X123744001Y-28776000D01*
X123550713Y-29022619D01*
X123490001Y-29030000D01*
X123243381Y-28836712D01*
X123236001Y-28776000D01*
X123429288Y-28529380D01*
X123490001Y-28522000D01*
X123736620Y-28715287D01*
G37*
G36*
X133683356Y-28649000D02*
G01*
X134222055Y-28649000D01*
X134242500Y-29171753D01*
X134300060Y-29306676D01*
X134332519Y-29223461D01*
X134379830Y-28613497D01*
X134337645Y-28207461D01*
X134270734Y-28066686D01*
X134228644Y-28371980D01*
X134222055Y-28649000D01*
X133683356Y-28649000D01*
X133671507Y-28397204D01*
X133718709Y-27770795D01*
X133876061Y-27402527D01*
X133989758Y-27286227D01*
X134429552Y-27084634D01*
X134654874Y-27118123D01*
X134823820Y-27477402D01*
X134899963Y-28194945D01*
X134883249Y-29129554D01*
X134773625Y-30140033D01*
X134656248Y-30754576D01*
X134527354Y-31757532D01*
X134669328Y-32400746D01*
X135064611Y-32649572D01*
X135559842Y-32537577D01*
X136079644Y-32222773D01*
X136126437Y-31910177D01*
X135809000Y-31569999D01*
X135460448Y-31075494D01*
X135530464Y-30809584D01*
X136168844Y-30809584D01*
X136280398Y-31272286D01*
X136599113Y-31763496D01*
X137050819Y-32278999D01*
X137395418Y-32565293D01*
X137460001Y-32586000D01*
X137739168Y-32403216D01*
X138172034Y-31946709D01*
X138320888Y-31763496D01*
X138699464Y-31135822D01*
X138726378Y-30735762D01*
X138424945Y-30632770D01*
X137995270Y-30793405D01*
X137370873Y-30947923D01*
X136924731Y-30793405D01*
X136391392Y-30626806D01*
X136168844Y-30809584D01*
X135530464Y-30809584D01*
X135600597Y-30543226D01*
X135936000Y-30173000D01*
X136335357Y-29864495D01*
X136636601Y-29910766D01*
X136952001Y-30172999D01*
X137349112Y-30479944D01*
X137649942Y-30436117D01*
X137976965Y-30164887D01*
X138364111Y-29861672D01*
X138652466Y-29893167D01*
X139040601Y-30243711D01*
X139402281Y-30689370D01*
X139406601Y-31085607D01*
X139255677Y-31409971D01*
X139070110Y-32027791D01*
X139201507Y-32463534D01*
X139506991Y-32586000D01*
X139639091Y-32356589D01*
X139725893Y-31765949D01*
X139746001Y-31218444D01*
X139746000Y-29850889D01*
X140913305Y-29890181D01*
X141878200Y-30031792D01*
X142410183Y-30380191D01*
X142636029Y-30872060D01*
X142831263Y-31595160D01*
X142963405Y-32365712D01*
X142999979Y-32999933D01*
X142926244Y-33300423D01*
X142690003Y-33288167D01*
X142460563Y-32918661D01*
X142311389Y-32338262D01*
X142289890Y-32032642D01*
X142111106Y-31314829D01*
X141673669Y-30764238D01*
X141133794Y-30554000D01*
X140715066Y-30780999D01*
X140392348Y-31354101D01*
X140254458Y-32111457D01*
X140254001Y-32157200D01*
X140104373Y-32771261D01*
X139868236Y-33097954D01*
X139503251Y-33272068D01*
X139107993Y-33074274D01*
X138979236Y-32962688D01*
X138581333Y-32657076D01*
X138278870Y-32707717D01*
X137972765Y-32962688D01*
X137539982Y-33259145D01*
X137190397Y-33178647D01*
X137075528Y-33091118D01*
X136719125Y-32907608D01*
X136226291Y-32937944D01*
X135643812Y-33106603D01*
X134966578Y-33300480D01*
X134587618Y-33293579D01*
X134335223Y-33077949D01*
X134310532Y-33044871D01*
X134034627Y-32788044D01*
X133669485Y-32835562D01*
X133347092Y-32990597D01*
X132659044Y-33195248D01*
X131717039Y-33284157D01*
X131326336Y-33279461D01*
X130517101Y-33212285D01*
X130088991Y-33071377D01*
X129915680Y-32806560D01*
X129896838Y-32711694D01*
X129724127Y-31766956D01*
X129551584Y-31273890D01*
X129358142Y-31176611D01*
X129324554Y-31193602D01*
X129167019Y-31523446D01*
X129082536Y-32153147D01*
X129078001Y-32346990D01*
X129020879Y-32977651D01*
X128878422Y-33324713D01*
X128824001Y-33348000D01*
X128663974Y-33122884D01*
X128575909Y-32561464D01*
X128570001Y-32346990D01*
X128512739Y-31672007D01*
X128370501Y-31241098D01*
X128323447Y-31193602D01*
X128124025Y-31235139D01*
X127948993Y-31666418D01*
X127777691Y-32542312D01*
X127751406Y-32713000D01*
X127614757Y-33029583D01*
X127241070Y-33198297D01*
X126500261Y-33274630D01*
X126426417Y-33278171D01*
X125621506Y-33254804D01*
X124998512Y-33130532D01*
X124822542Y-33040504D01*
X124469148Y-32889154D01*
X124243219Y-33108209D01*
X123951496Y-33326006D01*
X123671167Y-33093936D01*
X123438060Y-32469544D01*
X123294836Y-31584951D01*
X123266901Y-31386524D01*
X124566013Y-31386524D01*
X124725992Y-31990551D01*
X125067566Y-32454959D01*
X125395001Y-32586000D01*
X125776594Y-32377043D01*
X126085204Y-31931274D01*
X126222250Y-31221901D01*
X125996229Y-30675700D01*
X125470072Y-30429823D01*
X125395001Y-30427000D01*
X124889172Y-30623988D01*
X124674425Y-30851774D01*
X124566013Y-31386524D01*
X123266901Y-31386524D01*
X123184902Y-30804073D01*
X123013697Y-30414792D01*
X122726394Y-30300746D01*
X122689398Y-30300000D01*
X122231875Y-30533232D01*
X121891460Y-31157850D01*
X121721679Y-32061234D01*
X121712001Y-32356507D01*
X121566887Y-33029886D01*
X121203726Y-33333013D01*
X120730787Y-33284968D01*
X120256341Y-32904832D01*
X119888658Y-32211688D01*
X119834499Y-32025619D01*
X119607997Y-31134003D01*
X118605513Y-32136487D01*
X117184369Y-33263939D01*
X115635173Y-33911945D01*
X114056640Y-34104421D01*
X113001973Y-34036150D01*
X112283750Y-33797021D01*
X112024640Y-33620029D01*
X111695698Y-33241985D01*
X112137297Y-33241985D01*
X112566843Y-33514332D01*
X112631501Y-33545994D01*
X113765096Y-33818076D01*
X115158289Y-33678613D01*
X115946113Y-33453045D01*
X116981468Y-32933909D01*
X118052679Y-32124628D01*
X119032241Y-31150816D01*
X119792648Y-30138087D01*
X120191648Y-29270453D01*
X120378617Y-28241389D01*
X120357514Y-27413430D01*
X120137662Y-26898680D01*
X119986422Y-26802228D01*
X119770686Y-26864021D01*
X119814230Y-27317369D01*
X119814897Y-27320031D01*
X119839149Y-28240868D01*
X119564749Y-29322661D01*
X119054527Y-30369441D01*
X118670801Y-30888448D01*
X118013741Y-31495737D01*
X117142081Y-32128076D01*
X116626893Y-32437264D01*
X115797822Y-32843513D01*
X115089208Y-33038805D01*
X114254302Y-33074309D01*
X113688404Y-33046613D01*
X112686732Y-33013485D01*
X112173478Y-33076822D01*
X112137297Y-33241985D01*
X111695698Y-33241985D01*
X111627890Y-33164055D01*
X111679001Y-32877960D01*
X111893511Y-32686252D01*
X112752920Y-32686252D01*
X113210913Y-32845961D01*
X113984100Y-32844008D01*
X114913487Y-32700968D01*
X115840080Y-32437416D01*
X116345810Y-32221312D01*
X117650734Y-31357825D01*
X118683874Y-30270112D01*
X119337940Y-29076314D01*
X119410728Y-28846442D01*
X119635693Y-27884800D01*
X119651079Y-27364692D01*
X119528271Y-27251999D01*
X119279300Y-27400016D01*
X118720997Y-27801178D01*
X117940606Y-28391156D01*
X117178771Y-28984412D01*
X116129693Y-29808402D01*
X115085875Y-30623245D01*
X114197312Y-31312075D01*
X113790086Y-31624665D01*
X113181917Y-32129820D01*
X112811304Y-32520200D01*
X112752920Y-32686252D01*
X111893511Y-32686252D01*
X112173534Y-32435995D01*
X112945428Y-31804132D01*
X113920278Y-31037689D01*
X115023680Y-30191987D01*
X116181233Y-29322348D01*
X117318532Y-28484090D01*
X118361173Y-27732535D01*
X119234754Y-27123002D01*
X119864871Y-26710812D01*
X120177120Y-26551286D01*
X120188001Y-26551360D01*
X120518805Y-26860023D01*
X120655340Y-27609280D01*
X120595458Y-28769457D01*
X120427093Y-29855544D01*
X120263167Y-30918769D01*
X120249464Y-31644205D01*
X120384443Y-32178868D01*
X120402330Y-32219366D01*
X120704471Y-32681184D01*
X120950851Y-32663841D01*
X121122672Y-32194827D01*
X121201134Y-31301637D01*
X121204001Y-31047009D01*
X121242902Y-30241373D01*
X121344341Y-29695835D01*
X121458001Y-29538000D01*
X121704679Y-29725455D01*
X121712001Y-29784028D01*
X121897578Y-29950507D01*
X122029501Y-29932243D01*
X122919034Y-29680260D01*
X123434258Y-29636738D01*
X123680500Y-29842773D01*
X123763089Y-30339459D01*
X123773465Y-30612660D01*
X123814263Y-31150464D01*
X123884750Y-31295070D01*
X123926687Y-31189000D01*
X124306704Y-30365298D01*
X124872722Y-29927087D01*
X125512916Y-29848318D01*
X126115458Y-30102946D01*
X126568522Y-30664923D01*
X126760283Y-31508204D01*
X126746949Y-31845895D01*
X126778564Y-32482352D01*
X126982501Y-32772490D01*
X127177178Y-32677944D01*
X127277701Y-32184655D01*
X127300001Y-31479156D01*
X127364891Y-30485583D01*
X127568356Y-29967783D01*
X127923588Y-29909243D01*
X128332006Y-30187484D01*
X128726570Y-30486156D01*
X129032218Y-30424907D01*
X129315995Y-30187484D01*
X129807347Y-29886507D01*
X130139030Y-30036086D01*
X130324753Y-30651832D01*
X130375830Y-31394490D01*
X130403660Y-32713000D01*
X130621209Y-31606413D01*
X130726887Y-31229037D01*
X131364001Y-31229037D01*
X131464433Y-31455732D01*
X131839357Y-31333403D01*
X131857854Y-31323570D01*
X132321130Y-31009375D01*
X132496998Y-30824185D01*
X132461916Y-30500583D01*
X132373017Y-30422684D01*
X131976441Y-30425996D01*
X131573753Y-30732148D01*
X131366268Y-31180260D01*
X131364001Y-31229037D01*
X130726887Y-31229037D01*
X130905575Y-30590939D01*
X131299294Y-30010896D01*
X131854245Y-29796976D01*
X131979301Y-29791999D01*
X132708932Y-29955155D01*
X133069677Y-30372141D01*
X133048486Y-30934237D01*
X132632311Y-31532721D01*
X132225245Y-31841153D01*
X131677667Y-32214355D01*
X131526552Y-32448893D01*
X131714942Y-32635175D01*
X131722370Y-32639359D01*
X132395911Y-32758672D01*
X133051857Y-32443162D01*
X133497767Y-31869499D01*
X133708408Y-31142164D01*
X133752761Y-30055269D01*
X133718866Y-29403594D01*
X133683356Y-28649000D01*
G37*
%TO.C,A2*%
G36*
X227622651Y-33088318D02*
G01*
X227765127Y-33115047D01*
X227754673Y-34432758D01*
X227744218Y-35750469D01*
X227544256Y-35762173D01*
X227423988Y-35763729D01*
X227338484Y-35754739D01*
X227316053Y-35745637D01*
X227309215Y-35700485D01*
X227302973Y-35585576D01*
X227297535Y-35410526D01*
X227293108Y-35184953D01*
X227289898Y-34918474D01*
X227288113Y-34620705D01*
X227287812Y-34433316D01*
X227287812Y-33149236D01*
X227383994Y-33105413D01*
X227494349Y-33081840D01*
X227622651Y-33088318D01*
G37*
G36*
X227642162Y-32075187D02*
G01*
X227731359Y-32109112D01*
X227739205Y-32114902D01*
X227781157Y-32189326D01*
X227801779Y-32303738D01*
X227799918Y-32424898D01*
X227774419Y-32519563D01*
X227754140Y-32545293D01*
X227650633Y-32592310D01*
X227517021Y-32612996D01*
X227426718Y-32606205D01*
X227318252Y-32545545D01*
X227259145Y-32424417D01*
X227248125Y-32314774D01*
X227272208Y-32177260D01*
X227348879Y-32095185D01*
X227484764Y-32062502D01*
X227525937Y-32061335D01*
X227642162Y-32075187D01*
G37*
G36*
X222527921Y-28667646D02*
G01*
X222583523Y-28726003D01*
X222604065Y-28833942D01*
X222604687Y-28866431D01*
X222604687Y-29024131D01*
X222393821Y-28999348D01*
X222182956Y-28974565D01*
X222016790Y-29163339D01*
X221850625Y-29352113D01*
X221850625Y-30016966D01*
X221849699Y-30265519D01*
X221846247Y-30445807D01*
X221839258Y-30568927D01*
X221827722Y-30645975D01*
X221810626Y-30688048D01*
X221787847Y-30705910D01*
X221690217Y-30726720D01*
X221588187Y-30726288D01*
X221521415Y-30704966D01*
X221519895Y-30703542D01*
X221512697Y-30658196D01*
X221506243Y-30544393D01*
X221500814Y-30373049D01*
X221496688Y-30155078D01*
X221494146Y-29901399D01*
X221493437Y-29669271D01*
X221493437Y-28661459D01*
X221642265Y-28673776D01*
X221741896Y-28689525D01*
X221789106Y-28729885D01*
X221810834Y-28818002D01*
X221810937Y-28818687D01*
X221830781Y-28951280D01*
X221930000Y-28844682D01*
X222092760Y-28709796D01*
X222264418Y-28637978D01*
X222430834Y-28633414D01*
X222527921Y-28667646D01*
G37*
G36*
X243176574Y-33078921D02*
G01*
X243274149Y-33113333D01*
X243322785Y-33152990D01*
X243339526Y-33223800D01*
X243341406Y-33329531D01*
X243341406Y-33527969D01*
X243080133Y-33515041D01*
X242932440Y-33511329D01*
X242835431Y-33522803D01*
X242760856Y-33556294D01*
X242691943Y-33608906D01*
X242590650Y-33708957D01*
X242484629Y-33835491D01*
X242448001Y-33885790D01*
X242330976Y-34055880D01*
X242320253Y-34903174D01*
X242309531Y-35750469D01*
X242106147Y-35762292D01*
X241977209Y-35763642D01*
X241906896Y-35745558D01*
X241877944Y-35709437D01*
X241871774Y-35654823D01*
X241866164Y-35531087D01*
X241861310Y-35348481D01*
X241857410Y-35117257D01*
X241854662Y-34847668D01*
X241853262Y-34549965D01*
X241853125Y-34420526D01*
X241853443Y-34058088D01*
X241855243Y-33767168D01*
X241859795Y-33539907D01*
X241868367Y-33368450D01*
X241882228Y-33244938D01*
X241902648Y-33161515D01*
X241930895Y-33110324D01*
X241968239Y-33083506D01*
X242015948Y-33073206D01*
X242070995Y-33071563D01*
X242191846Y-33082634D01*
X242258506Y-33127073D01*
X242285888Y-33221715D01*
X242289687Y-33318445D01*
X242289687Y-33517147D01*
X242478203Y-33317715D01*
X242666433Y-33153610D01*
X242852653Y-33065506D01*
X243044874Y-33050662D01*
X243176574Y-33078921D01*
G37*
G36*
X226624351Y-32265882D02*
G01*
X226627368Y-32382836D01*
X226610116Y-32464319D01*
X226595206Y-32497544D01*
X226571840Y-32521539D01*
X226528334Y-32537806D01*
X226453003Y-32547846D01*
X226334161Y-32553161D01*
X226160124Y-32555253D01*
X225919207Y-32555625D01*
X225899732Y-32555625D01*
X225224062Y-32555625D01*
X225224062Y-33170781D01*
X225224062Y-33785938D01*
X225878150Y-33785938D01*
X226532237Y-33785938D01*
X226557874Y-33888083D01*
X226561268Y-34004766D01*
X226539637Y-34086520D01*
X226521256Y-34122489D01*
X226495942Y-34148158D01*
X226451444Y-34165264D01*
X226375513Y-34175545D01*
X226255897Y-34180738D01*
X226080345Y-34182581D01*
X225860752Y-34182813D01*
X225225740Y-34182813D01*
X225214979Y-34966641D01*
X225204218Y-35750469D01*
X225005535Y-35762129D01*
X224864855Y-35759432D01*
X224772292Y-35735192D01*
X224757488Y-35724426D01*
X224746165Y-35674448D01*
X224736170Y-35555184D01*
X224727532Y-35376714D01*
X224720284Y-35149117D01*
X224714455Y-34882471D01*
X224710078Y-34586856D01*
X224707182Y-34272351D01*
X224705800Y-33949034D01*
X224705962Y-33626985D01*
X224707699Y-33316282D01*
X224711042Y-33027006D01*
X224716022Y-32769234D01*
X224722671Y-32553045D01*
X224731019Y-32388520D01*
X224741096Y-32285736D01*
X224746830Y-32260552D01*
X224785535Y-32158750D01*
X225694703Y-32158750D01*
X226603871Y-32158750D01*
X226624351Y-32265882D01*
G37*
G36*
X229793796Y-33048019D02*
G01*
X229872703Y-33069175D01*
X229951732Y-33087577D01*
X230041273Y-33143845D01*
X230085721Y-33257610D01*
X230081435Y-33418674D01*
X230077591Y-33440089D01*
X230062219Y-33501309D01*
X230033049Y-33531746D01*
X229969590Y-33538198D01*
X229851350Y-33527464D01*
X229823646Y-33524342D01*
X229672301Y-33515371D01*
X229555009Y-33535018D01*
X229450903Y-33593617D01*
X229339118Y-33701500D01*
X229246540Y-33810153D01*
X229093593Y-33996687D01*
X229073750Y-34873578D01*
X229053906Y-35750469D01*
X228853944Y-35762173D01*
X228733675Y-35763729D01*
X228648171Y-35754739D01*
X228625741Y-35745637D01*
X228618896Y-35700480D01*
X228612650Y-35585575D01*
X228607209Y-35410548D01*
X228602782Y-35185023D01*
X228599574Y-34918629D01*
X228597795Y-34620989D01*
X228597500Y-34435563D01*
X228597627Y-34083044D01*
X228598361Y-33801552D01*
X228600226Y-33582737D01*
X228603750Y-33418250D01*
X228609457Y-33299744D01*
X228617873Y-33218868D01*
X228629524Y-33167275D01*
X228644937Y-33136615D01*
X228664637Y-33118539D01*
X228681053Y-33109013D01*
X228780636Y-33084482D01*
X228899335Y-33089572D01*
X228979461Y-33109006D01*
X229019176Y-33143443D01*
X229032651Y-33216211D01*
X229034062Y-33311354D01*
X229034062Y-33507862D01*
X229222578Y-33313254D01*
X229374697Y-33182982D01*
X229535425Y-33089971D01*
X229685272Y-33043271D01*
X229793796Y-33048019D01*
G37*
G36*
X213825914Y-29610184D02*
G01*
X214201570Y-29610184D01*
X214206265Y-29831626D01*
X214242128Y-30037937D01*
X214307959Y-30204283D01*
X214340283Y-30251484D01*
X214470366Y-30353846D01*
X214642420Y-30412503D01*
X214830278Y-30424469D01*
X215007779Y-30386759D01*
X215099723Y-30338135D01*
X215224439Y-30212801D01*
X215302684Y-30040694D01*
X215338059Y-29812275D01*
X215341003Y-29698744D01*
X215318876Y-29421527D01*
X215253254Y-29209592D01*
X215142550Y-29060812D01*
X214985178Y-28973061D01*
X214779552Y-28944211D01*
X214778299Y-28944211D01*
X214580877Y-28978330D01*
X214412490Y-29072637D01*
X214293457Y-29215592D01*
X214290485Y-29221239D01*
X214229243Y-29398444D01*
X214201570Y-29610184D01*
X213825914Y-29610184D01*
X213827087Y-29532965D01*
X213869390Y-29295546D01*
X213975004Y-29057251D01*
X214140831Y-28865668D01*
X214358698Y-28727210D01*
X214620433Y-28648292D01*
X214708430Y-28636990D01*
X214988000Y-28646789D01*
X215235901Y-28726894D01*
X215445292Y-28873624D01*
X215609330Y-29083298D01*
X215638498Y-29137202D01*
X215697270Y-29313634D01*
X215727510Y-29535373D01*
X215728052Y-29773213D01*
X215697729Y-29997954D01*
X215676147Y-30079391D01*
X215580214Y-30289975D01*
X215440486Y-30474612D01*
X215273926Y-30614843D01*
X215117691Y-30687116D01*
X214983571Y-30710262D01*
X214808101Y-30722561D01*
X214625390Y-30723330D01*
X214469551Y-30711889D01*
X214411738Y-30701217D01*
X214240328Y-30622377D01*
X214079029Y-30485367D01*
X213950522Y-30310390D01*
X213930951Y-30273023D01*
X213858280Y-30057084D01*
X213823025Y-29800338D01*
X213825914Y-29610184D01*
G37*
G36*
X212599013Y-27957571D02*
G01*
X212779867Y-27971882D01*
X212928227Y-27993250D01*
X213004682Y-28012948D01*
X213221700Y-28127100D01*
X213380474Y-28293056D01*
X213477863Y-28505488D01*
X213510726Y-28759068D01*
X213505836Y-28862979D01*
X213449526Y-29120869D01*
X213332061Y-29328231D01*
X213153625Y-29484916D01*
X212914404Y-29590771D01*
X212614582Y-29645647D01*
X212540111Y-29650884D01*
X212206562Y-29668391D01*
X212206562Y-30175106D01*
X212205139Y-30389137D01*
X212199871Y-30536485D01*
X212189263Y-30629806D01*
X212171817Y-30681757D01*
X212146035Y-30704995D01*
X212143785Y-30705910D01*
X212025502Y-30725820D01*
X211896494Y-30715038D01*
X211859296Y-30703716D01*
X211845261Y-30659833D01*
X211833336Y-30547878D01*
X211823530Y-30379127D01*
X211815852Y-30164854D01*
X211810310Y-29916334D01*
X211806912Y-29644843D01*
X211805667Y-29361656D01*
X211806582Y-29078047D01*
X211809666Y-28805293D01*
X211814927Y-28554669D01*
X211822373Y-28337448D01*
X211826177Y-28269375D01*
X212206562Y-28269375D01*
X212206562Y-28805156D01*
X212206562Y-29340938D01*
X212454609Y-29340876D01*
X212665201Y-29324091D01*
X212829754Y-29277061D01*
X212841562Y-29271423D01*
X212979314Y-29163974D01*
X213070315Y-29014797D01*
X213113752Y-28842573D01*
X213108813Y-28665984D01*
X213054684Y-28503710D01*
X212950552Y-28374435D01*
X212882549Y-28329578D01*
X212760592Y-28292132D01*
X212583915Y-28271913D01*
X212486345Y-28269375D01*
X212206562Y-28269375D01*
X211826177Y-28269375D01*
X211832014Y-28164908D01*
X211843856Y-28048322D01*
X211857312Y-27999500D01*
X211922071Y-27975258D01*
X212047192Y-27959161D01*
X212214104Y-27950993D01*
X212404235Y-27950536D01*
X212599013Y-27957571D01*
G37*
G36*
X219218621Y-29416111D02*
G01*
X219263683Y-29214533D01*
X219302898Y-29116573D01*
X219453362Y-28906339D01*
X219653775Y-28751354D01*
X219891377Y-28658206D01*
X220153405Y-28633482D01*
X220227103Y-28639442D01*
X220474790Y-28702979D01*
X220672219Y-28827004D01*
X220816368Y-29008218D01*
X220904215Y-29243321D01*
X220928366Y-29405380D01*
X220936690Y-29532676D01*
X220931689Y-29627024D01*
X220903421Y-29693359D01*
X220841947Y-29736614D01*
X220737324Y-29761724D01*
X220579612Y-29773623D01*
X220358870Y-29777246D01*
X220178659Y-29777500D01*
X219553740Y-29777500D01*
X219575870Y-29926328D01*
X219638577Y-30146828D01*
X219751893Y-30306194D01*
X219915582Y-30404248D01*
X220129409Y-30440808D01*
X220243281Y-30437036D01*
X220407554Y-30415110D01*
X220568836Y-30381121D01*
X220646489Y-30358094D01*
X220765604Y-30322391D01*
X220829553Y-30328530D01*
X220854862Y-30384284D01*
X220858437Y-30457783D01*
X220832687Y-30555501D01*
X220751372Y-30628278D01*
X220608390Y-30678627D01*
X220397643Y-30709060D01*
X220223437Y-30719279D01*
X220026570Y-30722885D01*
X219885880Y-30715237D01*
X219778643Y-30693749D01*
X219687315Y-30658282D01*
X219482238Y-30520034D01*
X219325869Y-30327169D01*
X219231517Y-30096114D01*
X219231363Y-30095472D01*
X219200410Y-29884654D01*
X219196846Y-29648843D01*
X219210801Y-29499688D01*
X219547237Y-29499688D01*
X220069156Y-29499688D01*
X220591076Y-29499688D01*
X220569260Y-29337037D01*
X220509496Y-29156616D01*
X220393360Y-29021636D01*
X220235067Y-28941240D01*
X220048834Y-28924571D01*
X219954510Y-28941670D01*
X219788563Y-29016844D01*
X219668865Y-29145318D01*
X219587531Y-29336379D01*
X219573327Y-29390547D01*
X219547237Y-29499688D01*
X219210801Y-29499688D01*
X219218621Y-29416111D01*
G37*
G36*
X232050821Y-28666250D02*
G01*
X232155002Y-28674930D01*
X232220568Y-28696447D01*
X232227101Y-28703017D01*
X232219140Y-28747073D01*
X232187091Y-28855232D01*
X232134625Y-29017235D01*
X232065410Y-29222820D01*
X231983115Y-29461728D01*
X231891407Y-29723699D01*
X231793957Y-29998471D01*
X231694433Y-30275785D01*
X231596503Y-30545380D01*
X231503837Y-30796996D01*
X231420103Y-31020372D01*
X231348970Y-31205249D01*
X231294106Y-31341365D01*
X231259181Y-31418460D01*
X231252027Y-31429996D01*
X231183664Y-31467156D01*
X231081494Y-31482550D01*
X230981253Y-31474997D01*
X230918680Y-31443318D01*
X230917166Y-31441054D01*
X230918749Y-31386923D01*
X230945631Y-31278926D01*
X230992576Y-31136465D01*
X231017192Y-31070563D01*
X231143800Y-30743080D01*
X230783462Y-29781560D01*
X230685837Y-29518174D01*
X230598254Y-29276344D01*
X230524464Y-29066885D01*
X230468221Y-28900613D01*
X230433278Y-28788343D01*
X230423125Y-28743145D01*
X230437847Y-28692030D01*
X230495671Y-28669936D01*
X230577015Y-28666250D01*
X230686210Y-28678190D01*
X230761224Y-28707715D01*
X230769677Y-28715859D01*
X230794432Y-28767469D01*
X230840275Y-28881627D01*
X230902472Y-29045824D01*
X230976293Y-29247551D01*
X231057004Y-29474299D01*
X231062271Y-29489308D01*
X231142078Y-29713202D01*
X231214345Y-29908997D01*
X231274639Y-30065234D01*
X231318525Y-30170457D01*
X231341569Y-30213207D01*
X231342568Y-30213605D01*
X231363584Y-30178160D01*
X231403903Y-30080197D01*
X231458580Y-29932783D01*
X231522674Y-29748980D01*
X231556376Y-29648516D01*
X231654716Y-29351543D01*
X231731870Y-29121286D01*
X231792101Y-28949277D01*
X231839671Y-28827046D01*
X231878843Y-28746125D01*
X231913880Y-28698046D01*
X231949045Y-28674340D01*
X231988601Y-28666538D01*
X232036811Y-28666172D01*
X232050821Y-28666250D01*
G37*
G36*
X225009785Y-29816817D02*
G01*
X225386699Y-29816817D01*
X225415106Y-30023044D01*
X225471971Y-30199489D01*
X225556759Y-30328084D01*
X225607248Y-30367525D01*
X225738798Y-30406468D01*
X225901474Y-30403579D01*
X226060565Y-30361369D01*
X226121558Y-30330327D01*
X226252210Y-30235992D01*
X226338461Y-30132802D01*
X226388633Y-30001930D01*
X226411050Y-29824548D01*
X226414687Y-29667287D01*
X226414687Y-29311359D01*
X226241871Y-29152063D01*
X226132171Y-29059824D01*
X226031537Y-28989947D01*
X225980452Y-28964645D01*
X225848449Y-28951262D01*
X225705502Y-28977622D01*
X225590136Y-29035238D01*
X225568368Y-29055432D01*
X225477586Y-29200114D01*
X225417404Y-29387284D01*
X225387287Y-29598874D01*
X225386699Y-29816817D01*
X225009785Y-29816817D01*
X225006834Y-29750148D01*
X225006498Y-29698125D01*
X225010125Y-29504564D01*
X225023309Y-29363111D01*
X225050805Y-29246640D01*
X225097368Y-29128031D01*
X225112119Y-29095783D01*
X225241597Y-28883583D01*
X225403498Y-28741660D01*
X225605961Y-28664723D01*
X225803317Y-28646406D01*
X225955901Y-28652449D01*
X226066813Y-28677990D01*
X226173310Y-28734146D01*
X226232856Y-28774573D01*
X226414687Y-28902739D01*
X226414687Y-28325806D01*
X226414687Y-27748874D01*
X226583359Y-27761077D01*
X226752031Y-27773281D01*
X226762441Y-29230918D01*
X226772851Y-30688555D01*
X226673233Y-30713558D01*
X226550246Y-30724984D01*
X226479985Y-30679153D01*
X226454752Y-30570282D01*
X226454375Y-30549124D01*
X226454375Y-30405444D01*
X226325390Y-30514205D01*
X226208276Y-30599394D01*
X226086931Y-30668351D01*
X226068696Y-30676483D01*
X225903421Y-30717312D01*
X225707779Y-30725416D01*
X225522245Y-30700943D01*
X225440376Y-30674176D01*
X225290926Y-30573169D01*
X225157659Y-30417853D01*
X225061737Y-30233136D01*
X225058801Y-30224993D01*
X225033604Y-30111067D01*
X225015416Y-29944061D01*
X225009785Y-29816817D01*
G37*
G36*
X222836886Y-29415256D02*
G01*
X223199847Y-29415256D01*
X223218742Y-29459690D01*
X223281707Y-29484933D01*
X223398632Y-29496411D01*
X223579402Y-29499549D01*
X223714945Y-29499688D01*
X224229890Y-29499688D01*
X224206191Y-29370703D01*
X224138754Y-29164493D01*
X224023956Y-29021853D01*
X223894789Y-28952508D01*
X223696695Y-28924578D01*
X223514127Y-28969376D01*
X223361512Y-29080262D01*
X223254721Y-29247108D01*
X223215136Y-29346204D01*
X223199847Y-29415256D01*
X222836886Y-29415256D01*
X222837855Y-29403522D01*
X222863603Y-29297273D01*
X222909806Y-29187120D01*
X222942639Y-29121215D01*
X223084825Y-28916195D01*
X223264931Y-28766422D01*
X223470436Y-28671322D01*
X223688821Y-28630322D01*
X223907568Y-28642849D01*
X224114157Y-28708328D01*
X224296068Y-28826187D01*
X224440783Y-28995852D01*
X224529335Y-29193909D01*
X224578461Y-29408285D01*
X224587145Y-29577790D01*
X224555668Y-29693483D01*
X224512296Y-29736416D01*
X224445487Y-29751251D01*
X224313892Y-29763542D01*
X224132084Y-29772426D01*
X223914634Y-29777041D01*
X223817765Y-29777500D01*
X223200000Y-29777500D01*
X223200000Y-29900486D01*
X223234548Y-30099889D01*
X223332710Y-30259404D01*
X223486258Y-30372900D01*
X223686968Y-30434247D01*
X223921075Y-30437906D01*
X224079064Y-30413159D01*
X224229881Y-30376342D01*
X224298190Y-30352692D01*
X224418140Y-30317645D01*
X224485335Y-30339305D01*
X224506390Y-30421693D01*
X224502868Y-30477118D01*
X224483854Y-30549301D01*
X224433659Y-30599311D01*
X224332017Y-30644562D01*
X224291406Y-30658810D01*
X224129733Y-30696157D01*
X223926099Y-30718476D01*
X223711258Y-30724719D01*
X223515963Y-30713839D01*
X223385935Y-30689643D01*
X223198329Y-30595506D01*
X223033033Y-30440821D01*
X222920569Y-30265720D01*
X222872405Y-30148069D01*
X222843580Y-30024198D01*
X222829522Y-29867496D01*
X222825939Y-29715206D01*
X222827116Y-29533592D01*
X222836886Y-29415256D01*
G37*
G36*
X228404339Y-30084891D02*
G01*
X228401828Y-29867207D01*
X228400794Y-29710305D01*
X228756250Y-29710305D01*
X228756250Y-30084891D01*
X228933957Y-30248695D01*
X229047179Y-30344542D01*
X229138419Y-30394141D01*
X229237399Y-30411469D01*
X229282313Y-30412500D01*
X229411888Y-30398075D01*
X229521555Y-30362237D01*
X229541745Y-30350315D01*
X229653722Y-30226774D01*
X229725992Y-30039496D01*
X229759404Y-29785890D01*
X229762083Y-29678281D01*
X229740963Y-29403831D01*
X229677131Y-29191409D01*
X229571897Y-29043107D01*
X229426571Y-28961014D01*
X229301772Y-28944063D01*
X229204372Y-28968635D01*
X229077129Y-29030959D01*
X228947579Y-29113941D01*
X228843260Y-29200489D01*
X228798759Y-29256290D01*
X228780034Y-29329815D01*
X228765519Y-29460163D01*
X228757321Y-29624809D01*
X228756250Y-29710305D01*
X228400794Y-29710305D01*
X228399806Y-29560484D01*
X228399063Y-29228205D01*
X228399062Y-29216017D01*
X228399062Y-27754950D01*
X228495416Y-27730766D01*
X228605511Y-27721905D01*
X228674010Y-27732685D01*
X228706217Y-27747100D01*
X228728705Y-27774867D01*
X228743211Y-27828610D01*
X228751476Y-27920951D01*
X228755236Y-28064515D01*
X228756229Y-28271927D01*
X228756250Y-28329941D01*
X228756250Y-28901096D01*
X228954484Y-28777867D01*
X229190211Y-28667133D01*
X229416524Y-28634695D01*
X229635779Y-28680352D01*
X229708429Y-28713265D01*
X229887598Y-28837317D01*
X230016725Y-29003094D01*
X230099538Y-29218692D01*
X230139764Y-29492209D01*
X230145091Y-29662052D01*
X230120879Y-29993746D01*
X230048408Y-30265216D01*
X229928721Y-30475174D01*
X229762860Y-30622331D01*
X229551867Y-30705398D01*
X229296785Y-30723086D01*
X229287270Y-30722517D01*
X229130167Y-30705448D01*
X229016636Y-30670142D01*
X228911073Y-30604012D01*
X228877202Y-30577541D01*
X228716562Y-30448447D01*
X228716562Y-30565134D01*
X228691568Y-30668422D01*
X228611309Y-30720466D01*
X228521493Y-30730000D01*
X228447341Y-30716458D01*
X228425520Y-30703542D01*
X228419502Y-30659144D01*
X228413964Y-30544343D01*
X228409066Y-30368106D01*
X228404968Y-30139404D01*
X228404339Y-30084891D01*
G37*
G36*
X243665467Y-34088634D02*
G01*
X244121611Y-34088634D01*
X244134775Y-34132723D01*
X244181539Y-34160393D01*
X244271741Y-34175446D01*
X244415215Y-34181684D01*
X244621797Y-34182906D01*
X244795394Y-34182813D01*
X245475476Y-34182813D01*
X245450291Y-33999067D01*
X245386727Y-33769947D01*
X245269179Y-33595939D01*
X245102419Y-33481451D01*
X244891220Y-33430887D01*
X244832336Y-33428750D01*
X244601563Y-33465017D01*
X244404106Y-33567953D01*
X244251685Y-33728757D01*
X244156746Y-33935998D01*
X244132214Y-34024326D01*
X244121611Y-34088634D01*
X243665467Y-34088634D01*
X243676629Y-33988177D01*
X243700083Y-33896709D01*
X243738355Y-33803984D01*
X243795071Y-33689847D01*
X243797812Y-33684477D01*
X243953233Y-33437717D01*
X244137832Y-33257660D01*
X244360904Y-33138973D01*
X244631745Y-33076324D01*
X244881088Y-33062924D01*
X245178729Y-33097036D01*
X245430619Y-33195227D01*
X245634396Y-33355109D01*
X245787695Y-33574295D01*
X245888155Y-33850398D01*
X245929839Y-34122707D01*
X245939149Y-34251123D01*
X245939330Y-34350079D01*
X245921519Y-34423409D01*
X245876859Y-34474948D01*
X245796490Y-34508532D01*
X245671551Y-34527994D01*
X245493183Y-34537170D01*
X245252527Y-34539895D01*
X244965758Y-34540000D01*
X244115312Y-34540000D01*
X244115533Y-34649141D01*
X244147880Y-34873130D01*
X244236359Y-35078707D01*
X244369508Y-35246651D01*
X244535866Y-35357742D01*
X244538825Y-35358990D01*
X244697217Y-35398242D01*
X244904180Y-35411709D01*
X245133454Y-35400088D01*
X245358783Y-35364075D01*
X245471073Y-35334262D01*
X245635056Y-35284577D01*
X245737839Y-35262613D01*
X245793708Y-35271544D01*
X245816947Y-35314545D01*
X245821840Y-35394789D01*
X245821875Y-35412210D01*
X245809745Y-35519231D01*
X245764793Y-35598532D01*
X245674174Y-35660518D01*
X245525044Y-35715591D01*
X245406739Y-35748450D01*
X245237307Y-35779871D01*
X245033476Y-35799144D01*
X244822398Y-35805561D01*
X244631222Y-35798410D01*
X244487097Y-35776982D01*
X244472500Y-35772887D01*
X244190180Y-35650778D01*
X243964172Y-35473173D01*
X243792171Y-35238105D01*
X243750330Y-35155156D01*
X243711073Y-35060673D01*
X243684819Y-34966698D01*
X243669054Y-34854025D01*
X243661265Y-34703451D01*
X243658939Y-34495770D01*
X243658906Y-34456624D01*
X243659666Y-34247977D01*
X243664365Y-34098547D01*
X243665467Y-34088634D01*
G37*
G36*
X211549809Y-33944688D02*
G01*
X212074555Y-33944688D01*
X212095172Y-34337032D01*
X212160264Y-34664755D01*
X212270620Y-34929506D01*
X212427027Y-35132933D01*
X212630274Y-35276686D01*
X212731980Y-35320460D01*
X212879756Y-35353151D01*
X213071931Y-35367939D01*
X213275514Y-35364562D01*
X213457515Y-35342757D01*
X213523915Y-35326764D01*
X213705810Y-35238870D01*
X213882348Y-35095773D01*
X214029942Y-34919525D01*
X214105703Y-34782949D01*
X214194984Y-34505871D01*
X214244445Y-34196442D01*
X214255214Y-33873271D01*
X214228422Y-33554967D01*
X214165200Y-33260139D01*
X214066676Y-33007396D01*
X213990313Y-32882639D01*
X213821748Y-32717035D01*
X213605791Y-32600683D01*
X213358922Y-32535709D01*
X213097620Y-32524242D01*
X212838366Y-32568408D01*
X212597640Y-32670335D01*
X212554072Y-32697247D01*
X212370755Y-32864198D01*
X212230005Y-33095029D01*
X212133395Y-33385650D01*
X212082496Y-33731974D01*
X212074555Y-33944688D01*
X211549809Y-33944688D01*
X211557683Y-33736960D01*
X211569546Y-33626336D01*
X211634391Y-33263601D01*
X211736178Y-32962487D01*
X211880718Y-32711600D01*
X212073824Y-32499543D01*
X212194161Y-32401725D01*
X212453499Y-32246799D01*
X212740313Y-32150517D01*
X213070211Y-32108178D01*
X213178906Y-32105300D01*
X213553616Y-32133415D01*
X213880249Y-32222456D01*
X214157068Y-32371506D01*
X214382337Y-32579651D01*
X214544235Y-32825814D01*
X214669240Y-33144642D01*
X214745018Y-33501698D01*
X214772317Y-33879140D01*
X214751888Y-34259127D01*
X214684480Y-34623817D01*
X214570842Y-34955369D01*
X214445001Y-35188019D01*
X214338191Y-35349419D01*
X214469840Y-35459325D01*
X214571035Y-35532393D01*
X214714115Y-35621792D01*
X214869568Y-35709167D01*
X214882385Y-35715901D01*
X215040118Y-35800763D01*
X215139654Y-35864456D01*
X215194308Y-35920258D01*
X215217395Y-35981449D01*
X215222204Y-36054801D01*
X215211451Y-36182360D01*
X215171908Y-36257302D01*
X215095311Y-36281139D01*
X214973392Y-36255386D01*
X214797886Y-36181559D01*
X214724828Y-36145919D01*
X214543383Y-36044260D01*
X214348979Y-35918323D01*
X214202192Y-35809741D01*
X213959258Y-35613174D01*
X213768024Y-35697766D01*
X213544581Y-35766448D01*
X213276309Y-35802238D01*
X212991024Y-35804224D01*
X212716547Y-35771490D01*
X212575619Y-35736954D01*
X212284592Y-35619866D01*
X212047849Y-35458886D01*
X211861228Y-35248246D01*
X211720563Y-34982179D01*
X211621689Y-34654919D01*
X211569748Y-34344076D01*
X211546386Y-34035007D01*
X211549809Y-33944688D01*
G37*
G36*
X220800809Y-32127241D02*
G01*
X220909868Y-32168641D01*
X220909910Y-32168672D01*
X220933337Y-32195009D01*
X220951045Y-32241545D01*
X220964038Y-32319024D01*
X220973324Y-32438190D01*
X220979907Y-32609785D01*
X220984793Y-32844554D01*
X220986948Y-32991476D01*
X220997343Y-33764670D01*
X221626912Y-32971632D01*
X221800914Y-32754533D01*
X221961596Y-32557987D01*
X222101597Y-32390691D01*
X222213551Y-32261337D01*
X222290095Y-32178619D01*
X222321443Y-32151618D01*
X222449938Y-32124305D01*
X222589671Y-32131406D01*
X222699392Y-32170529D01*
X222704037Y-32173782D01*
X222751754Y-32214888D01*
X222754890Y-32256238D01*
X222713514Y-32328505D01*
X222704423Y-32342454D01*
X222651340Y-32414275D01*
X222548734Y-32543517D01*
X222398860Y-32727442D01*
X222203975Y-32963311D01*
X221966334Y-33248385D01*
X221688193Y-33579926D01*
X221540415Y-33755417D01*
X221526554Y-33780916D01*
X221527261Y-33816064D01*
X221547303Y-33868423D01*
X221591450Y-33945554D01*
X221664470Y-34055020D01*
X221771133Y-34204382D01*
X221916208Y-34401202D01*
X222104462Y-34653042D01*
X222117276Y-34670122D01*
X222326422Y-34949432D01*
X222492093Y-35172457D01*
X222618867Y-35346088D01*
X222711323Y-35477216D01*
X222774038Y-35572732D01*
X222811592Y-35639526D01*
X222828563Y-35684489D01*
X222829530Y-35714513D01*
X222822461Y-35731445D01*
X222764045Y-35761481D01*
X222656428Y-35773000D01*
X222527179Y-35767662D01*
X222403864Y-35747129D01*
X222314050Y-35713061D01*
X222297109Y-35699797D01*
X222255459Y-35649510D01*
X222174137Y-35544417D01*
X222060188Y-35393882D01*
X221920658Y-35207271D01*
X221762593Y-34993948D01*
X221612500Y-34789848D01*
X220997343Y-33950414D01*
X220986628Y-34807643D01*
X220980552Y-35128364D01*
X220971278Y-35383819D01*
X220959034Y-35570197D01*
X220944047Y-35683689D01*
X220932160Y-35717592D01*
X220870540Y-35746532D01*
X220762776Y-35765026D01*
X220641028Y-35771174D01*
X220537457Y-35763073D01*
X220488020Y-35743854D01*
X220482519Y-35699870D01*
X220477405Y-35584654D01*
X220472798Y-35406353D01*
X220468820Y-35173110D01*
X220465592Y-34893068D01*
X220463233Y-34574373D01*
X220461865Y-34225168D01*
X220461562Y-33959313D01*
X220461676Y-33539821D01*
X220462219Y-33192663D01*
X220463491Y-32910797D01*
X220465793Y-32687182D01*
X220469425Y-32514776D01*
X220474687Y-32386539D01*
X220481880Y-32295429D01*
X220491304Y-32234404D01*
X220503260Y-32196424D01*
X220518048Y-32174447D01*
X220535969Y-32161431D01*
X220538328Y-32160146D01*
X220663148Y-32124092D01*
X220800809Y-32127241D01*
G37*
G36*
X219282814Y-32164845D02*
G01*
X219400544Y-32183214D01*
X219464936Y-32212933D01*
X219476646Y-32253779D01*
X219486036Y-32347900D01*
X219493181Y-32499295D01*
X219498160Y-32711959D01*
X219501049Y-32989890D01*
X219501925Y-33337085D01*
X219500865Y-33757540D01*
X219499561Y-34008793D01*
X219489218Y-35750469D01*
X219270937Y-35750469D01*
X219052656Y-35750469D01*
X219032812Y-34178418D01*
X219012968Y-32606367D01*
X218377968Y-34178418D01*
X217742968Y-35750469D01*
X217536664Y-35762393D01*
X217413314Y-35765787D01*
X217343062Y-35751097D01*
X217300063Y-35708508D01*
X217275453Y-35663175D01*
X217249302Y-35602033D01*
X217198351Y-35475505D01*
X217126034Y-35292386D01*
X217035787Y-35061474D01*
X216931046Y-34791565D01*
X216815245Y-34491454D01*
X216691820Y-34169940D01*
X216668163Y-34108132D01*
X216115781Y-32664233D01*
X216105375Y-34164179D01*
X216101264Y-34608419D01*
X216095596Y-34975216D01*
X216088304Y-35266489D01*
X216079320Y-35484157D01*
X216068577Y-35630138D01*
X216056007Y-35706351D01*
X216050906Y-35717219D01*
X215989118Y-35746372D01*
X215881230Y-35765025D01*
X215759404Y-35771250D01*
X215655804Y-35763120D01*
X215606458Y-35743854D01*
X215600893Y-35699819D01*
X215595726Y-35584654D01*
X215591081Y-35406604D01*
X215587085Y-35173916D01*
X215583863Y-34894832D01*
X215581538Y-34577600D01*
X215580237Y-34230463D01*
X215580000Y-34000439D01*
X215580274Y-33581078D01*
X215581261Y-33234064D01*
X215583208Y-32952369D01*
X215586360Y-32728968D01*
X215590964Y-32556831D01*
X215597266Y-32428934D01*
X215605512Y-32338248D01*
X215615949Y-32277747D01*
X215628823Y-32240404D01*
X215642366Y-32221116D01*
X215706743Y-32184943D01*
X215819495Y-32165020D01*
X215995537Y-32158754D01*
X216001357Y-32158750D01*
X216161675Y-32162106D01*
X216265332Y-32175658D01*
X216334886Y-32204631D01*
X216386804Y-32248047D01*
X216425295Y-32308698D01*
X216487351Y-32433093D01*
X216568334Y-32610778D01*
X216663603Y-32831302D01*
X216768521Y-33084213D01*
X216866827Y-33329531D01*
X216980047Y-33616671D01*
X217092091Y-33900799D01*
X217197103Y-34167069D01*
X217289227Y-34400632D01*
X217362607Y-34586642D01*
X217402680Y-34688191D01*
X217547331Y-35054663D01*
X217999850Y-33953972D01*
X218166463Y-33549642D01*
X218306272Y-33212762D01*
X218422063Y-32937129D01*
X218516620Y-32716542D01*
X218592730Y-32544796D01*
X218653178Y-32415690D01*
X218700750Y-32323020D01*
X218738232Y-32260583D01*
X218768409Y-32222177D01*
X218783806Y-32208359D01*
X218862252Y-32179593D01*
X218988408Y-32162865D01*
X219137016Y-32158006D01*
X219282814Y-32164845D01*
G37*
G36*
X238979030Y-35017756D02*
G01*
X239471875Y-35017756D01*
X239501613Y-35199361D01*
X239592090Y-35331365D01*
X239745193Y-35415717D01*
X239888593Y-35447186D01*
X239949353Y-35440642D01*
X240052234Y-35417972D01*
X240087031Y-35408790D01*
X240212915Y-35356675D01*
X240352463Y-35273793D01*
X240414453Y-35227761D01*
X240583125Y-35090311D01*
X240583125Y-34809298D01*
X240583125Y-34528284D01*
X240201367Y-34555119D01*
X239989672Y-34573681D01*
X239837426Y-34598544D01*
X239724704Y-34635783D01*
X239631581Y-34691473D01*
X239561171Y-34750315D01*
X239500143Y-34830476D01*
X239474562Y-34941681D01*
X239471875Y-35017756D01*
X238979030Y-35017756D01*
X238999088Y-34858639D01*
X239045458Y-34713760D01*
X239126563Y-34592684D01*
X239212498Y-34505847D01*
X239328233Y-34410517D01*
X239448128Y-34341028D01*
X239589111Y-34292236D01*
X239768110Y-34259001D01*
X240002053Y-34236177D01*
X240126718Y-34228111D01*
X240563281Y-34202656D01*
X240552229Y-33965762D01*
X240526453Y-33764751D01*
X240465091Y-33622824D01*
X240359087Y-33524256D01*
X240272747Y-33480408D01*
X240072287Y-33437598D01*
X239830669Y-33456919D01*
X239555008Y-33537490D01*
X239445916Y-33582602D01*
X239305492Y-33642946D01*
X239218689Y-33672143D01*
X239167518Y-33673284D01*
X239133990Y-33649459D01*
X239124609Y-33637808D01*
X239078743Y-33525458D01*
X239103468Y-33413946D01*
X239190137Y-33308797D01*
X239330106Y-33215534D01*
X239514727Y-33139683D01*
X239735355Y-33086766D01*
X239983344Y-33062309D01*
X240026784Y-33061387D01*
X240326888Y-33078334D01*
X240565875Y-33138367D01*
X240751547Y-33245197D01*
X240891705Y-33402534D01*
X240945786Y-33498480D01*
X240974974Y-33562565D01*
X240997505Y-33627408D01*
X241014465Y-33704455D01*
X241026939Y-33805149D01*
X241036013Y-33940935D01*
X241042771Y-34123258D01*
X241048300Y-34363562D01*
X241052949Y-34628356D01*
X241056287Y-34899512D01*
X241057233Y-35148891D01*
X241055908Y-35363953D01*
X241052436Y-35532158D01*
X241046937Y-35640967D01*
X241042781Y-35672275D01*
X241019923Y-35734025D01*
X240976627Y-35761802D01*
X240888980Y-35765740D01*
X240829883Y-35762513D01*
X240715757Y-35751251D01*
X240657552Y-35725973D01*
X240631844Y-35670510D01*
X240622812Y-35619594D01*
X240602968Y-35488719D01*
X240444218Y-35603796D01*
X240317878Y-35684262D01*
X240189842Y-35749167D01*
X240150562Y-35764436D01*
X239965897Y-35800452D01*
X239749406Y-35804063D01*
X239541397Y-35775989D01*
X239458190Y-35752110D01*
X239248255Y-35639248D01*
X239095024Y-35475514D01*
X239003147Y-35269963D01*
X238977279Y-35031649D01*
X238979030Y-35017756D01*
G37*
G36*
X218885222Y-28680405D02*
G01*
X218914622Y-28715859D01*
X218903268Y-28780396D01*
X218870853Y-28905155D01*
X218821436Y-29077481D01*
X218759078Y-29284721D01*
X218687841Y-29514218D01*
X218611783Y-29753321D01*
X218534968Y-29989373D01*
X218461454Y-30209721D01*
X218395303Y-30401710D01*
X218340575Y-30552686D01*
X218301331Y-30649994D01*
X218284218Y-30680391D01*
X218202268Y-30716223D01*
X218100156Y-30730000D01*
X217990419Y-30714500D01*
X217912108Y-30680391D01*
X217880014Y-30626976D01*
X217831698Y-30509973D01*
X217771847Y-30342363D01*
X217705153Y-30137129D01*
X217650464Y-29956094D01*
X217586266Y-29743690D01*
X217528339Y-29565347D01*
X217480531Y-29431851D01*
X217446687Y-29353985D01*
X217431119Y-29340938D01*
X217413804Y-29398246D01*
X217380309Y-29517779D01*
X217334623Y-29684989D01*
X217280735Y-29885330D01*
X217246063Y-30015625D01*
X217181195Y-30248302D01*
X217120781Y-30442271D01*
X217068757Y-30586035D01*
X217029061Y-30668097D01*
X217018456Y-30680391D01*
X216932993Y-30716338D01*
X216830156Y-30730000D01*
X216721956Y-30714605D01*
X216645809Y-30680391D01*
X216621462Y-30633245D01*
X216578523Y-30522666D01*
X216521041Y-30361298D01*
X216453064Y-30161786D01*
X216378641Y-29936773D01*
X216301821Y-29698903D01*
X216226653Y-29460822D01*
X216157185Y-29235173D01*
X216097466Y-29034601D01*
X216051546Y-28871750D01*
X216023471Y-28759263D01*
X216016562Y-28715249D01*
X216054182Y-28681397D01*
X216162606Y-28666723D01*
X216193880Y-28666250D01*
X216371198Y-28666250D01*
X216469717Y-28993672D01*
X216525525Y-29180457D01*
X216592553Y-29406724D01*
X216659929Y-29635717D01*
X216689786Y-29737813D01*
X216741614Y-29913533D01*
X216787193Y-30064473D01*
X216820863Y-30172108D01*
X216835214Y-30214063D01*
X216851551Y-30194814D01*
X216884490Y-30109343D01*
X216930879Y-29968302D01*
X216987565Y-29782345D01*
X217051394Y-29562126D01*
X217119215Y-29318299D01*
X217187873Y-29061518D01*
X217254218Y-28802436D01*
X217260957Y-28775391D01*
X217288964Y-28703880D01*
X217342731Y-28672847D01*
X217444672Y-28666250D01*
X217571333Y-28682466D01*
X217636732Y-28733946D01*
X217637674Y-28735703D01*
X217659551Y-28794492D01*
X217698659Y-28916557D01*
X217750988Y-29088696D01*
X217812527Y-29297706D01*
X217879266Y-29530383D01*
X217881811Y-29539375D01*
X217946591Y-29767485D01*
X218003887Y-29967621D01*
X218050267Y-30127931D01*
X218082302Y-30236567D01*
X218096562Y-30281677D01*
X218096849Y-30282208D01*
X218109414Y-30248686D01*
X218140138Y-30150192D01*
X218185612Y-29998143D01*
X218242428Y-29803953D01*
X218307178Y-29579041D01*
X218316044Y-29547989D01*
X218383742Y-29313410D01*
X218446238Y-29101972D01*
X218499546Y-28926770D01*
X218539674Y-28800898D01*
X218562635Y-28737452D01*
X218563488Y-28735703D01*
X218617418Y-28693309D01*
X218708088Y-28668883D01*
X218806890Y-28664043D01*
X218885222Y-28680405D01*
G37*
G36*
X232065477Y-33086755D02*
G01*
X232265309Y-33162828D01*
X232432433Y-33276077D01*
X232547907Y-33415490D01*
X232576835Y-33480349D01*
X232613238Y-33487411D01*
X232692002Y-33438633D01*
X232736651Y-33401579D01*
X232958122Y-33229217D01*
X233161789Y-33121200D01*
X233363809Y-33070131D01*
X233474960Y-33063625D01*
X233736842Y-33098104D01*
X233958515Y-33198749D01*
X234133974Y-33361366D01*
X234257212Y-33581767D01*
X234270569Y-33618802D01*
X234288812Y-33709655D01*
X234305095Y-33860175D01*
X234319151Y-34057005D01*
X234330711Y-34286789D01*
X234339507Y-34536170D01*
X234345271Y-34791793D01*
X234347734Y-35040300D01*
X234346628Y-35268336D01*
X234341686Y-35462544D01*
X234332639Y-35609568D01*
X234319219Y-35696051D01*
X234312575Y-35710691D01*
X234238634Y-35750219D01*
X234122704Y-35768475D01*
X233999527Y-35764487D01*
X233903850Y-35737282D01*
X233883875Y-35722688D01*
X233866943Y-35678631D01*
X233854025Y-35580677D01*
X233844833Y-35423049D01*
X233839078Y-35199967D01*
X233836474Y-34905653D01*
X233836250Y-34766264D01*
X233835415Y-34462242D01*
X233832465Y-34226847D01*
X233826736Y-34049346D01*
X233817560Y-33919002D01*
X233804272Y-33825082D01*
X233786205Y-33756851D01*
X233771367Y-33720734D01*
X233666207Y-33576312D01*
X233525629Y-33495048D01*
X233360958Y-33475947D01*
X233183516Y-33518016D01*
X233004629Y-33620260D01*
X232835621Y-33781685D01*
X232816905Y-33804530D01*
X232705156Y-33944483D01*
X232685312Y-34847476D01*
X232665468Y-35750469D01*
X232470870Y-35762814D01*
X232323101Y-35759956D01*
X232247194Y-35728404D01*
X232243275Y-35723126D01*
X232233650Y-35669693D01*
X232225076Y-35549059D01*
X232217991Y-35373398D01*
X232212832Y-35154879D01*
X232210038Y-34905677D01*
X232209670Y-34788850D01*
X232207572Y-34450748D01*
X232200606Y-34182625D01*
X232186983Y-33975146D01*
X232164917Y-33818973D01*
X232132621Y-33704772D01*
X232088306Y-33623206D01*
X232030186Y-33564939D01*
X231967989Y-33526444D01*
X231787008Y-33472999D01*
X231599404Y-33497065D01*
X231404059Y-33599034D01*
X231199853Y-33779298D01*
X231177187Y-33803505D01*
X231145547Y-33839678D01*
X231121231Y-33877762D01*
X231103004Y-33928402D01*
X231089633Y-34002242D01*
X231079884Y-34109925D01*
X231072525Y-34262097D01*
X231066320Y-34469401D01*
X231060037Y-34742482D01*
X231058125Y-34830837D01*
X231038281Y-35750469D01*
X230831187Y-35762421D01*
X230708614Y-35765982D01*
X230642918Y-35753307D01*
X230612069Y-35716772D01*
X230601803Y-35683046D01*
X230596610Y-35621618D01*
X230592560Y-35491336D01*
X230589742Y-35302714D01*
X230588245Y-35066266D01*
X230588159Y-34792505D01*
X230589572Y-34491946D01*
X230590615Y-34362348D01*
X230601718Y-33132977D01*
X230705285Y-33096568D01*
X230824886Y-33078069D01*
X230913645Y-33086461D01*
X230978673Y-33111568D01*
X231009357Y-33159964D01*
X231018182Y-33256288D01*
X231018437Y-33293257D01*
X231018437Y-33473752D01*
X231187109Y-33337131D01*
X231383779Y-33193767D01*
X231558107Y-33106288D01*
X231732764Y-33065204D01*
X231851875Y-33058868D01*
X232065477Y-33086755D01*
G37*
G36*
X238573159Y-33099475D02*
G01*
X238632181Y-33149401D01*
X238638437Y-33175820D01*
X238626776Y-33231631D01*
X238594120Y-33351164D01*
X238543963Y-33523325D01*
X238479795Y-33737019D01*
X238405109Y-33981151D01*
X238323398Y-34244625D01*
X238238152Y-34516346D01*
X238152865Y-34785221D01*
X238071028Y-35040152D01*
X237996134Y-35270047D01*
X237931674Y-35463808D01*
X237881141Y-35610343D01*
X237848027Y-35698554D01*
X237838061Y-35718765D01*
X237777119Y-35745958D01*
X237665903Y-35763506D01*
X237533055Y-35770277D01*
X237407217Y-35765136D01*
X237317033Y-35746951D01*
X237302947Y-35739939D01*
X237279133Y-35694803D01*
X237237738Y-35584543D01*
X237182511Y-35420492D01*
X237117203Y-35213981D01*
X237045565Y-34976342D01*
X237010884Y-34857500D01*
X236938187Y-34607728D01*
X236871467Y-34382190D01*
X236814270Y-34192575D01*
X236770142Y-34050569D01*
X236742626Y-33967862D01*
X236736547Y-33952991D01*
X236718948Y-33974535D01*
X236684878Y-34062970D01*
X236637514Y-34208283D01*
X236580030Y-34400460D01*
X236515601Y-34629486D01*
X236478605Y-34766585D01*
X236410372Y-35020160D01*
X236346868Y-35250615D01*
X236291528Y-35445927D01*
X236247783Y-35594073D01*
X236219069Y-35683029D01*
X236211802Y-35700859D01*
X236172998Y-35740847D01*
X236097731Y-35762393D01*
X235967135Y-35770040D01*
X235923306Y-35770313D01*
X235766531Y-35762244D01*
X235662888Y-35739860D01*
X235632871Y-35720703D01*
X235612271Y-35671932D01*
X235571748Y-35556520D01*
X235514332Y-35383808D01*
X235443056Y-35163139D01*
X235360948Y-34903854D01*
X235271039Y-34615296D01*
X235211223Y-34420938D01*
X235106619Y-34078362D01*
X235023800Y-33803688D01*
X234960859Y-33589061D01*
X234915888Y-33426628D01*
X234886979Y-33308533D01*
X234872223Y-33226922D01*
X234869713Y-33173940D01*
X234877540Y-33141735D01*
X234893798Y-33122450D01*
X234895484Y-33121172D01*
X235002682Y-33080433D01*
X235138010Y-33075350D01*
X235257922Y-33107470D01*
X235259362Y-33108233D01*
X235291914Y-33152125D01*
X235338174Y-33258112D01*
X235399298Y-33429540D01*
X235476442Y-33669754D01*
X235570763Y-33982099D01*
X235622862Y-34159952D01*
X235701904Y-34429303D01*
X235774532Y-34671791D01*
X235837659Y-34877509D01*
X235888200Y-35036553D01*
X235923069Y-35139018D01*
X235939136Y-35175000D01*
X235954546Y-35138267D01*
X235986875Y-35034857D01*
X236033226Y-34874957D01*
X236090703Y-34668752D01*
X236156409Y-34426429D01*
X236217948Y-34194407D01*
X236300807Y-33886559D01*
X236376277Y-33621211D01*
X236441908Y-33406241D01*
X236495252Y-33249526D01*
X236533860Y-33158944D01*
X236544921Y-33142689D01*
X236650028Y-33085075D01*
X236781287Y-33076093D01*
X236900493Y-33117917D01*
X236906491Y-33122135D01*
X236942341Y-33179950D01*
X236995693Y-33312532D01*
X237065706Y-33517420D01*
X237151541Y-33792155D01*
X237252359Y-34134277D01*
X237255184Y-34144088D01*
X237332305Y-34409458D01*
X237403535Y-34649591D01*
X237465624Y-34853921D01*
X237515321Y-35011882D01*
X237549372Y-35112908D01*
X237563504Y-35146038D01*
X237581568Y-35117798D01*
X237617873Y-35022644D01*
X237669315Y-34870111D01*
X237732789Y-34669736D01*
X237805192Y-34431055D01*
X237883418Y-34163604D01*
X237884009Y-34161547D01*
X237983914Y-33819560D01*
X238066387Y-33550113D01*
X238132986Y-33348675D01*
X238185267Y-33210714D01*
X238224788Y-33131701D01*
X238245721Y-33109024D01*
X238354749Y-33075004D01*
X238472288Y-33073248D01*
X238573159Y-33099475D01*
G37*
G36*
X201204302Y-30458565D02*
G01*
X202762116Y-30458565D01*
X202766667Y-30735340D01*
X202772146Y-31006735D01*
X202780140Y-31360194D01*
X202789782Y-31645401D01*
X202802777Y-31873480D01*
X202820824Y-32055553D01*
X202845626Y-32202744D01*
X202878885Y-32326176D01*
X202922302Y-32436973D01*
X202977578Y-32546257D01*
X203018705Y-32618394D01*
X203203981Y-32857273D01*
X203452561Y-33054445D01*
X203758366Y-33206759D01*
X204115320Y-33311065D01*
X204447656Y-33359057D01*
X204566718Y-33369219D01*
X204586562Y-33805505D01*
X204606406Y-34241790D01*
X204725468Y-34265563D01*
X204870658Y-34276576D01*
X205015083Y-34259419D01*
X205122821Y-34218815D01*
X205132265Y-34212056D01*
X205158393Y-34154457D01*
X205174665Y-34027800D01*
X205181559Y-33827749D01*
X205181875Y-33761234D01*
X205181875Y-33349375D01*
X205324974Y-33349375D01*
X205482978Y-33333868D01*
X205679515Y-33293060D01*
X205881335Y-33235519D01*
X206055187Y-33169815D01*
X206094380Y-33151094D01*
X206312335Y-33007423D01*
X206520711Y-32812492D01*
X206693624Y-32592723D01*
X206767732Y-32463741D01*
X206826985Y-32327968D01*
X206873732Y-32183376D01*
X206909311Y-32018840D01*
X206935058Y-31823234D01*
X206952309Y-31585433D01*
X206962400Y-31294311D01*
X206966667Y-30938742D01*
X206967026Y-30804313D01*
X206966366Y-30510366D01*
X206963398Y-30286453D01*
X206957551Y-30123251D01*
X206948255Y-30011437D01*
X206934939Y-29941690D01*
X206917031Y-29904686D01*
X206911629Y-29899342D01*
X206837423Y-29873594D01*
X206708847Y-29863024D01*
X206623895Y-29864716D01*
X206392343Y-29876719D01*
X206372500Y-30948281D01*
X206352656Y-32019844D01*
X206240992Y-32247237D01*
X206093802Y-32477139D01*
X205902713Y-32649728D01*
X205660066Y-32770053D01*
X205358198Y-32843161D01*
X205330703Y-32847200D01*
X205181875Y-32868135D01*
X205181875Y-31407052D01*
X205181431Y-31017556D01*
X205179921Y-30700229D01*
X205177076Y-30447866D01*
X205172628Y-30253266D01*
X205166309Y-30109226D01*
X205157849Y-30008542D01*
X205146982Y-29944011D01*
X205133437Y-29908431D01*
X205125692Y-29899342D01*
X205051485Y-29873594D01*
X204922910Y-29863024D01*
X204837957Y-29864716D01*
X204606406Y-29876719D01*
X204596418Y-31325313D01*
X204593698Y-31657781D01*
X204590355Y-31965770D01*
X204586553Y-32240123D01*
X204582453Y-32471686D01*
X204578217Y-32651302D01*
X204574007Y-32769817D01*
X204570002Y-32818033D01*
X204522566Y-32841123D01*
X204420543Y-32839885D01*
X204283607Y-32818021D01*
X204131433Y-32779232D01*
X203983694Y-32727221D01*
X203910852Y-32694013D01*
X203701305Y-32549058D01*
X203541236Y-32348484D01*
X203449144Y-32156025D01*
X203427509Y-32086394D01*
X203409960Y-31995691D01*
X203395770Y-31873980D01*
X203384207Y-31711323D01*
X203374545Y-31497785D01*
X203366052Y-31223430D01*
X203359068Y-30928438D01*
X203336406Y-29876719D01*
X203104854Y-29864716D01*
X203002515Y-29859109D01*
X202922025Y-29859664D01*
X202860960Y-29874705D01*
X202816894Y-29912557D01*
X202787402Y-29981544D01*
X202770058Y-30089991D01*
X202762438Y-30246223D01*
X202762116Y-30458565D01*
X201204302Y-30458565D01*
X201205016Y-30442266D01*
X201216751Y-30174375D01*
X200786313Y-30174375D01*
X200556214Y-30169581D01*
X200398147Y-30155408D01*
X200315248Y-30132168D01*
X200308250Y-30126750D01*
X200275172Y-30051192D01*
X200262197Y-29934639D01*
X200269325Y-29812880D01*
X200296556Y-29721708D01*
X200308250Y-29706062D01*
X200376497Y-29681118D01*
X200520369Y-29665190D01*
X200736594Y-29658605D01*
X200784500Y-29658438D01*
X201213125Y-29658438D01*
X201213125Y-29467070D01*
X201250811Y-29180468D01*
X201361519Y-28920981D01*
X201509647Y-28729067D01*
X201686777Y-28569495D01*
X201860898Y-28469093D01*
X202060800Y-28414304D01*
X202214917Y-28396962D01*
X202483125Y-28377772D01*
X202483125Y-27954480D01*
X202487989Y-27727485D01*
X202502332Y-27571378D01*
X202525783Y-27489843D01*
X202530750Y-27483562D01*
X202606307Y-27450485D01*
X202722861Y-27437510D01*
X202844620Y-27444638D01*
X202935792Y-27471869D01*
X202951437Y-27483562D01*
X202976365Y-27551817D01*
X202992286Y-27695834D01*
X202998887Y-27912480D01*
X202999062Y-27961626D01*
X202999062Y-28392064D01*
X203266953Y-28380329D01*
X203534843Y-28368594D01*
X203546194Y-27933491D01*
X203556736Y-27704906D01*
X203574356Y-27551326D01*
X203598821Y-27474579D01*
X203605725Y-27467770D01*
X203688397Y-27443508D01*
X203806781Y-27437411D01*
X203925928Y-27448157D01*
X204010889Y-27474422D01*
X204022999Y-27483562D01*
X204047928Y-27551817D01*
X204063849Y-27695834D01*
X204070450Y-27912480D01*
X204070625Y-27961626D01*
X204070625Y-28392064D01*
X204338515Y-28380329D01*
X204606406Y-28368594D01*
X204617756Y-27933491D01*
X204628299Y-27704906D01*
X204645919Y-27551326D01*
X204670383Y-27474579D01*
X204677287Y-27467770D01*
X204745250Y-27448346D01*
X204855756Y-27437389D01*
X204892744Y-27436545D01*
X204992221Y-27443594D01*
X205061363Y-27473520D01*
X205105543Y-27538219D01*
X205130133Y-27649591D01*
X205140505Y-27819532D01*
X205142187Y-27988953D01*
X205142187Y-28388438D01*
X205400156Y-28388438D01*
X205658125Y-28388438D01*
X205658125Y-27988953D01*
X205661465Y-27768305D01*
X205675069Y-27614983D01*
X205704309Y-27517090D01*
X205754558Y-27462728D01*
X205831187Y-27439998D01*
X205907568Y-27436545D01*
X206023779Y-27443812D01*
X206108797Y-27461191D01*
X206123024Y-27467770D01*
X206149105Y-27525698D01*
X206168399Y-27660901D01*
X206180671Y-27871549D01*
X206182555Y-27933491D01*
X206193906Y-28368594D01*
X206461796Y-28380329D01*
X206729687Y-28392064D01*
X206729687Y-27961626D01*
X206734481Y-27731527D01*
X206748654Y-27573460D01*
X206771894Y-27490561D01*
X206777312Y-27483562D01*
X206847772Y-27453505D01*
X206961439Y-27438625D01*
X207083367Y-27440247D01*
X207178605Y-27459693D01*
X207194587Y-27467770D01*
X207220668Y-27525698D01*
X207239962Y-27660901D01*
X207252234Y-27871549D01*
X207254118Y-27933491D01*
X207265468Y-28368594D01*
X207527472Y-28391138D01*
X207817602Y-28452084D01*
X208066072Y-28578341D01*
X208268022Y-28764895D01*
X208418593Y-29006728D01*
X208512927Y-29298825D01*
X208534018Y-29430234D01*
X208561024Y-29658438D01*
X208990484Y-29658438D01*
X209191472Y-29659778D01*
X209326294Y-29668834D01*
X209408161Y-29693160D01*
X209450282Y-29740308D01*
X209465867Y-29817833D01*
X209468125Y-29931558D01*
X209461864Y-30031952D01*
X209434659Y-30100243D01*
X209373872Y-30142520D01*
X209266867Y-30164869D01*
X209101007Y-30173379D01*
X208964093Y-30174375D01*
X208555312Y-30174375D01*
X208555312Y-30450888D01*
X208555312Y-30727400D01*
X209001796Y-30738622D01*
X209448281Y-30749844D01*
X209460503Y-30941443D01*
X209463464Y-31066004D01*
X209445547Y-31151075D01*
X209394648Y-31204128D01*
X209298660Y-31232634D01*
X209145478Y-31244065D01*
X208967171Y-31245938D01*
X208555312Y-31245938D01*
X208555312Y-31522450D01*
X208555312Y-31798963D01*
X209001796Y-31810185D01*
X209448281Y-31821406D01*
X209448281Y-32039688D01*
X209448281Y-32257969D01*
X209001796Y-32269190D01*
X208555312Y-32280412D01*
X208555312Y-32556925D01*
X208555312Y-32833438D01*
X208944602Y-32833438D01*
X209159900Y-32837078D01*
X209307699Y-32852523D01*
X209399715Y-32886560D01*
X209447666Y-32945976D01*
X209463269Y-33037558D01*
X209460729Y-33132408D01*
X209448281Y-33329531D01*
X209001796Y-33340753D01*
X208555312Y-33351975D01*
X208555312Y-33628487D01*
X208555312Y-33905000D01*
X208964093Y-33905000D01*
X209172487Y-33908016D01*
X209314244Y-33921122D01*
X209402000Y-33950406D01*
X209448392Y-34001956D01*
X209466057Y-34081859D01*
X209468125Y-34147817D01*
X209465781Y-34262744D01*
X209449943Y-34339837D01*
X209407402Y-34386650D01*
X209324947Y-34410735D01*
X209189370Y-34419647D01*
X208990484Y-34420938D01*
X208561024Y-34420938D01*
X208533733Y-34649141D01*
X208462154Y-34965133D01*
X208330649Y-35229679D01*
X208141780Y-35440214D01*
X207898110Y-35594178D01*
X207602201Y-35689006D01*
X207473828Y-35709331D01*
X207245625Y-35736337D01*
X207245625Y-36165797D01*
X207244284Y-36366785D01*
X207235228Y-36501607D01*
X207210902Y-36583474D01*
X207163754Y-36625595D01*
X207086229Y-36641180D01*
X206972504Y-36643438D01*
X206872110Y-36637177D01*
X206803819Y-36609972D01*
X206761542Y-36549185D01*
X206739193Y-36442180D01*
X206730683Y-36276320D01*
X206729687Y-36139406D01*
X206729687Y-35730625D01*
X206451875Y-35730625D01*
X206174062Y-35730625D01*
X206174062Y-36162941D01*
X206172790Y-36364633D01*
X206163862Y-36500121D01*
X206139613Y-36582574D01*
X206092378Y-36625164D01*
X206014491Y-36641062D01*
X205898285Y-36643437D01*
X205894400Y-36643438D01*
X205798376Y-36634763D01*
X205732124Y-36600761D01*
X205690341Y-36529462D01*
X205667723Y-36408896D01*
X205658964Y-36227093D01*
X205658125Y-36110265D01*
X205658125Y-35730625D01*
X205400156Y-35730625D01*
X205142187Y-35730625D01*
X205142187Y-36110265D01*
X205138343Y-36326951D01*
X205123275Y-36476452D01*
X205091679Y-36570738D01*
X205038250Y-36621779D01*
X204957684Y-36641543D01*
X204905912Y-36643438D01*
X204788521Y-36641251D01*
X204709664Y-36625912D01*
X204661674Y-36584250D01*
X204636885Y-36503094D01*
X204627632Y-36369273D01*
X204626250Y-36169617D01*
X204626250Y-36162941D01*
X204626250Y-35730625D01*
X204348437Y-35730625D01*
X204070625Y-35730625D01*
X204070625Y-36139406D01*
X204067609Y-36347800D01*
X204054503Y-36489557D01*
X204025218Y-36577313D01*
X203973669Y-36623705D01*
X203893766Y-36641370D01*
X203827808Y-36643438D01*
X203713163Y-36641127D01*
X203636150Y-36625415D01*
X203589281Y-36583131D01*
X203565073Y-36501104D01*
X203556036Y-36366165D01*
X203554687Y-36165143D01*
X203554687Y-36162941D01*
X203554687Y-35730625D01*
X203276875Y-35730625D01*
X202999062Y-35730625D01*
X202999062Y-36139406D01*
X202994049Y-36360028D01*
X202979349Y-36512159D01*
X202955470Y-36590929D01*
X202951437Y-36595813D01*
X202883575Y-36626149D01*
X202773915Y-36642513D01*
X202741093Y-36643438D01*
X202626460Y-36632454D01*
X202543245Y-36605148D01*
X202530750Y-36595813D01*
X202505605Y-36527684D01*
X202489582Y-36385757D01*
X202483215Y-36175142D01*
X202483125Y-36142262D01*
X202483125Y-35736337D01*
X202254921Y-35709331D01*
X201942799Y-35639474D01*
X201680711Y-35512225D01*
X201473056Y-35331900D01*
X201324232Y-35102816D01*
X201238636Y-34829287D01*
X201222124Y-34695780D01*
X201202459Y-34420938D01*
X200755632Y-34420938D01*
X200550387Y-34419752D01*
X200411542Y-34411422D01*
X200326120Y-34388789D01*
X200281144Y-34344692D01*
X200263639Y-34271972D01*
X200260628Y-34163470D01*
X200260625Y-34147817D01*
X200266463Y-34049234D01*
X200292255Y-33981547D01*
X200350413Y-33939021D01*
X200453350Y-33915922D01*
X200613478Y-33906517D01*
X200786313Y-33905000D01*
X201216751Y-33905000D01*
X201205016Y-33637109D01*
X201193281Y-33369219D01*
X200758178Y-33357868D01*
X200529593Y-33347326D01*
X200376013Y-33329706D01*
X200299266Y-33305241D01*
X200292457Y-33298337D01*
X200264958Y-33204188D01*
X200264280Y-33079007D01*
X200287524Y-32961004D01*
X200322991Y-32895804D01*
X200371160Y-32866018D01*
X200453777Y-32846959D01*
X200585339Y-32836736D01*
X200780349Y-32833457D01*
X200801054Y-32833438D01*
X201216751Y-32833438D01*
X201205016Y-32565547D01*
X201193281Y-32297656D01*
X200758178Y-32286306D01*
X200552376Y-32279052D01*
X200413032Y-32265708D01*
X200327226Y-32239855D01*
X200282043Y-32195074D01*
X200264563Y-32124948D01*
X200261840Y-32039688D01*
X200265844Y-31942694D01*
X200286467Y-31876554D01*
X200336627Y-31834849D01*
X200429241Y-31811161D01*
X200577227Y-31799072D01*
X200758178Y-31793069D01*
X201193281Y-31781719D01*
X201205016Y-31513828D01*
X201216751Y-31245938D01*
X200815454Y-31245938D01*
X200594401Y-31242622D01*
X200440692Y-31229112D01*
X200342446Y-31200058D01*
X200287778Y-31150112D01*
X200264808Y-31073927D01*
X200261232Y-30996494D01*
X200268499Y-30880283D01*
X200285878Y-30795265D01*
X200292457Y-30781038D01*
X200350385Y-30754957D01*
X200485588Y-30735663D01*
X200696236Y-30723391D01*
X200758178Y-30721507D01*
X201193281Y-30710156D01*
X201204302Y-30458565D01*
G37*
%TD*%
D10*
%TO.C,U4*%
X180349999Y-119339999D03*
D11*
X180350000Y-121120000D03*
X180350000Y-122900000D03*
X180350000Y-124680000D03*
X180350000Y-126460000D03*
X180350000Y-128240000D03*
X180350000Y-130020000D03*
X180350000Y-131800000D03*
X169650000Y-132690000D03*
X169650000Y-130910000D03*
X169650000Y-129130000D03*
X169650000Y-127350000D03*
X169650000Y-125570000D03*
X169650000Y-123790000D03*
X169650000Y-122010000D03*
X169650000Y-120230000D03*
%TD*%
D12*
%TO.C,SW61*%
X158546903Y-169404785D03*
D13*
X157408252Y-163840481D03*
D14*
X153640000Y-168089984D03*
D13*
X150617223Y-164650432D03*
D12*
X148733097Y-166775183D03*
%TD*%
%TO.C,SW62*%
X180080019Y-170909992D03*
D13*
X177540019Y-165829992D03*
D14*
X175000019Y-170909992D03*
D13*
X171190019Y-168369992D03*
D12*
X169920019Y-170909992D03*
%TD*%
%TO.C,SW25*%
X119959525Y-145253809D03*
D13*
X120299821Y-139584400D03*
D14*
X115560116Y-142713809D03*
D13*
X113530559Y-138609104D03*
D12*
X111160707Y-140173809D03*
%TD*%
%TO.C,SW30*%
X136517844Y-159685345D03*
D13*
X138313896Y-154297192D03*
D14*
X132925742Y-156093243D03*
D13*
X132027716Y-151603115D03*
D12*
X129333640Y-152501141D03*
%TD*%
%TO.C,SW1*%
X51742695Y-46232845D03*
D13*
X50604044Y-40668541D03*
D14*
X46835792Y-44918044D03*
D13*
X43813015Y-41478492D03*
D12*
X41928889Y-43603243D03*
%TD*%
%TO.C,SW24*%
X112403676Y-114257191D03*
D13*
X111265025Y-108692887D03*
D14*
X107496773Y-112942390D03*
D13*
X104473996Y-109502838D03*
D12*
X102589870Y-111627589D03*
%TD*%
%TO.C,SW29*%
X129982792Y-122254535D03*
D13*
X128844141Y-116690231D03*
D14*
X125075889Y-120939734D03*
D13*
X122053112Y-117500182D03*
D12*
X120168986Y-119624933D03*
%TD*%
%TO.C,SW14*%
X75601885Y-104396196D03*
D13*
X74463234Y-98831892D03*
D14*
X70694982Y-103081395D03*
D13*
X67672205Y-99641843D03*
D12*
X65788079Y-101766594D03*
%TD*%
%TO.C,SW19*%
X95029967Y-105493162D03*
D13*
X93891316Y-99928858D03*
D14*
X90123064Y-104178361D03*
D13*
X87100287Y-100738809D03*
D12*
X85216161Y-102863560D03*
%TD*%
%TO.C,SW5*%
X32020675Y-119836410D03*
D13*
X30882024Y-114272106D03*
D14*
X27113772Y-118521609D03*
D13*
X24090995Y-115082057D03*
D12*
X22206869Y-117206808D03*
%TD*%
%TO.C,SW22*%
X122264665Y-77455408D03*
D13*
X121126014Y-71891104D03*
D14*
X117357762Y-76140607D03*
D13*
X114334985Y-72701055D03*
D12*
X112450859Y-74825806D03*
%TD*%
%TO.C,SW27*%
X139843799Y-85452748D03*
D13*
X138705148Y-79888444D03*
D14*
X134936896Y-84137947D03*
D13*
X131914119Y-80698395D03*
D12*
X130029993Y-82823146D03*
%TD*%
%TO.C,SW3*%
X41881670Y-83034634D03*
D13*
X40743019Y-77470330D03*
D14*
X36974767Y-81719833D03*
D13*
X33951990Y-78280281D03*
D12*
X32067864Y-80405032D03*
%TD*%
%TO.C,SW8*%
X60898885Y-85665008D03*
D13*
X59760234Y-80100704D03*
D14*
X55991982Y-84350207D03*
D13*
X52969205Y-80910655D03*
D12*
X51085079Y-83035406D03*
%TD*%
%TO.C,SW13*%
X80532396Y-85995295D03*
D13*
X79393745Y-80430991D03*
D14*
X75625493Y-84680494D03*
D13*
X72602716Y-81240942D03*
D12*
X70718590Y-83365693D03*
%TD*%
%TO.C,SW23*%
X117334177Y-95856334D03*
D13*
X116195526Y-90292030D03*
D14*
X112427274Y-94541533D03*
D13*
X109404497Y-91101981D03*
D12*
X107520371Y-93226732D03*
%TD*%
%TO.C,SW18*%
X99960452Y-87092282D03*
D13*
X98821801Y-81527978D03*
D14*
X95053549Y-85777481D03*
D13*
X92030772Y-82337929D03*
D12*
X90146646Y-84462680D03*
%TD*%
%TO.C,SW28*%
X134913291Y-103853633D03*
D13*
X133774640Y-98289329D03*
D14*
X130006388Y-102538832D03*
D13*
X126983611Y-99099280D03*
D12*
X125099485Y-101224031D03*
%TD*%
%TO.C,SW4*%
X36951192Y-101435535D03*
D13*
X35812541Y-95871231D03*
D14*
X32044289Y-100120734D03*
D13*
X29021512Y-96681182D03*
D12*
X27137386Y-98805933D03*
%TD*%
%TO.C,SW9*%
X55968353Y-104065915D03*
D13*
X54829702Y-98501611D03*
D14*
X51061450Y-102751114D03*
D13*
X48038673Y-99311562D03*
D12*
X46154547Y-101436313D03*
%TD*%
%TO.C,SW10*%
X51037874Y-122466798D03*
D13*
X49899223Y-116902494D03*
D14*
X46130971Y-121151997D03*
D13*
X43108194Y-117712445D03*
D12*
X41224068Y-119837196D03*
%TD*%
%TO.C,SW15*%
X70671382Y-122797075D03*
D13*
X69532731Y-117232771D03*
D14*
X65764479Y-121482274D03*
D13*
X62741702Y-118042722D03*
D12*
X60857576Y-120167473D03*
%TD*%
%TO.C,SW20*%
X100106898Y-135614802D03*
D13*
X98968247Y-130050498D03*
D14*
X95199995Y-134300001D03*
D13*
X92177218Y-130860449D03*
D12*
X90293092Y-132985200D03*
%TD*%
%TO.C,SW11*%
X90393397Y-49193543D03*
D13*
X89254746Y-43629239D03*
D14*
X85486494Y-47878742D03*
D13*
X82463717Y-44439190D03*
D12*
X80579591Y-46563941D03*
%TD*%
%TO.C,SW2*%
X46812191Y-64633743D03*
D13*
X45673540Y-59069439D03*
D14*
X41905288Y-63318942D03*
D13*
X38882511Y-59879390D03*
D12*
X36998385Y-62004141D03*
%TD*%
%TO.C,SW12*%
X85462887Y-67594409D03*
D13*
X84324236Y-62030105D03*
D14*
X80555984Y-66279608D03*
D13*
X77533207Y-62840056D03*
D12*
X75649081Y-64964807D03*
%TD*%
%TO.C,SW21*%
X127195176Y-59054530D03*
D13*
X126056525Y-53490226D03*
D14*
X122288273Y-57739729D03*
D13*
X119265496Y-54300177D03*
D12*
X117381370Y-56424928D03*
%TD*%
%TO.C,SW17*%
X104890969Y-68691407D03*
D13*
X103752318Y-63127103D03*
D14*
X99984066Y-67376606D03*
D13*
X96961289Y-63937054D03*
D12*
X95077163Y-66061805D03*
%TD*%
%TO.C,SW16*%
X109821470Y-50290502D03*
D13*
X108682819Y-44726198D03*
D14*
X104914567Y-48975701D03*
D13*
X101891790Y-45536149D03*
D12*
X100007664Y-47660900D03*
%TD*%
%TO.C,SW6*%
X70759882Y-48863249D03*
D13*
X69621231Y-43298945D03*
D14*
X65852979Y-47548448D03*
D13*
X62830202Y-44108896D03*
D12*
X60946076Y-46233647D03*
%TD*%
%TO.C,SW7*%
X65829381Y-67264130D03*
D13*
X64690730Y-61699826D03*
D14*
X60922478Y-65949329D03*
D13*
X57899701Y-62509777D03*
D12*
X56015575Y-64634528D03*
%TD*%
%TO.C,SW26*%
X144774303Y-67051857D03*
D13*
X143635652Y-61487553D03*
D14*
X139867400Y-65737056D03*
D13*
X136844623Y-62297504D03*
D12*
X134960497Y-64422255D03*
%TD*%
%TO.C,SW31*%
X215039534Y-64422260D03*
D13*
X211271282Y-60172757D03*
D14*
X210132631Y-65737061D03*
D13*
X205795053Y-64269710D03*
D12*
X205225728Y-67051862D03*
%TD*%
%TO.C,SW45*%
X259706930Y-132985197D03*
D13*
X255938678Y-128735694D03*
D14*
X254800027Y-134299998D03*
D13*
X250462449Y-132832647D03*
D12*
X249893124Y-135614799D03*
%TD*%
%TO.C,SW49*%
X284211945Y-101766612D03*
D13*
X280443693Y-97517109D03*
D14*
X279305042Y-103081413D03*
D13*
X274967464Y-101614062D03*
D12*
X274398139Y-104396214D03*
%TD*%
%TO.C,SW47*%
X274350947Y-64964824D03*
D13*
X270582695Y-60715321D03*
D14*
X269444044Y-66279625D03*
D13*
X265106466Y-64812274D03*
D12*
X264537141Y-67594426D03*
%TD*%
%TO.C,SW63*%
X201266902Y-166775205D03*
D13*
X197498650Y-162525702D03*
D14*
X196359999Y-168090006D03*
D13*
X192022421Y-166622655D03*
D12*
X191453096Y-169404807D03*
%TD*%
%TO.C,SW33*%
X224900533Y-101224030D03*
D13*
X221132281Y-96974527D03*
D14*
X219993630Y-102538831D03*
D13*
X215656052Y-101071480D03*
D12*
X215086727Y-103853632D03*
%TD*%
%TO.C,SW59*%
X322862651Y-98805925D03*
D13*
X319094399Y-94556422D03*
D14*
X317955748Y-100120726D03*
D13*
X313618170Y-98653375D03*
D12*
X313048845Y-101435527D03*
%TD*%
%TO.C,SW38*%
X242479683Y-93226721D03*
D13*
X238711431Y-88977218D03*
D14*
X237572780Y-94541522D03*
D13*
X233235202Y-93074171D03*
D12*
X232665877Y-95856323D03*
%TD*%
%TO.C,SW50*%
X289142448Y-120167491D03*
D13*
X285374196Y-115917988D03*
D14*
X284235545Y-121482292D03*
D13*
X279897967Y-120014941D03*
D12*
X279328642Y-122797093D03*
%TD*%
%TO.C,SW58*%
X317932145Y-80405014D03*
D13*
X314163893Y-76155511D03*
D14*
X313025242Y-81719815D03*
D13*
X308687664Y-80252464D03*
D12*
X308118339Y-83034616D03*
%TD*%
%TO.C,SW43*%
X259853354Y-84462681D03*
D13*
X256085102Y-80213178D03*
D14*
X254946451Y-85777482D03*
D13*
X250608873Y-84310131D03*
D12*
X250039548Y-87092283D03*
%TD*%
%TO.C,SW57*%
X313001639Y-62004138D03*
D13*
X309233387Y-57754635D03*
D14*
X308094736Y-63318939D03*
D13*
X303757158Y-61851588D03*
D12*
X303187833Y-64633740D03*
%TD*%
%TO.C,SW52*%
X293984459Y-64634531D03*
D13*
X290216207Y-60385028D03*
D14*
X289077556Y-65949332D03*
D13*
X284739978Y-64481981D03*
D12*
X284170653Y-67264133D03*
%TD*%
%TO.C,SW44*%
X264783871Y-102863559D03*
D13*
X261015619Y-98614056D03*
D14*
X259876968Y-104178360D03*
D13*
X255539390Y-102711009D03*
D12*
X254970065Y-105493161D03*
%TD*%
%TO.C,SW41*%
X249992362Y-47660914D03*
D13*
X246224110Y-43411411D03*
D14*
X245085459Y-48975715D03*
D13*
X240747881Y-47508364D03*
D12*
X240178556Y-50290516D03*
%TD*%
%TO.C,SW40*%
X238839313Y-140173794D03*
D13*
X234099609Y-137044385D03*
D14*
X234439904Y-142713794D03*
D13*
X229870347Y-142419089D03*
D12*
X230040495Y-145253794D03*
%TD*%
%TO.C,SW46*%
X269420435Y-46563941D03*
D13*
X265652183Y-42314438D03*
D14*
X264513532Y-47878742D03*
D13*
X260175954Y-46411391D03*
D12*
X259606629Y-49193543D03*
%TD*%
%TO.C,SW51*%
X289053951Y-46233660D03*
D13*
X285285699Y-41984157D03*
D14*
X284147048Y-47548461D03*
D13*
X279809470Y-46081110D03*
D12*
X279240145Y-48863262D03*
%TD*%
%TO.C,SW60*%
X327793146Y-117206802D03*
D13*
X324024894Y-112957299D03*
D14*
X322886243Y-118521603D03*
D13*
X318548665Y-117054252D03*
D12*
X317979340Y-119836404D03*
%TD*%
%TO.C,SW37*%
X237549173Y-74825840D03*
D13*
X233780921Y-70576337D03*
D14*
X232642270Y-76140641D03*
D13*
X228304692Y-74673290D03*
D12*
X227735367Y-77455442D03*
%TD*%
%TO.C,SW54*%
X303845463Y-101436314D03*
D13*
X300077211Y-97186811D03*
D14*
X298938560Y-102751115D03*
D13*
X294600982Y-101283764D03*
D12*
X294031657Y-104065916D03*
%TD*%
%TO.C,SW55*%
X308775969Y-119837203D03*
D13*
X305007717Y-115587700D03*
D14*
X303869066Y-121152004D03*
D13*
X299531488Y-119684653D03*
D12*
X298962163Y-122466805D03*
%TD*%
%TO.C,SW48*%
X279281449Y-83365711D03*
D13*
X275513197Y-79116208D03*
D14*
X274374546Y-84680512D03*
D13*
X270036968Y-83213161D03*
D12*
X269467643Y-85995313D03*
%TD*%
%TO.C,SW53*%
X298914958Y-83035420D03*
D13*
X295146706Y-78785917D03*
D14*
X294008055Y-84350221D03*
D13*
X289670477Y-82882870D03*
D12*
X289101152Y-85665022D03*
%TD*%
%TO.C,SW35*%
X220666387Y-152501136D03*
D13*
X215278234Y-150705084D03*
D14*
X217074285Y-156093238D03*
D13*
X212584157Y-156991264D03*
D12*
X213482183Y-159685340D03*
%TD*%
%TO.C,SW34*%
X229831033Y-119624915D03*
D13*
X226062781Y-115375412D03*
D14*
X224924130Y-120939716D03*
D13*
X220586552Y-119472365D03*
D12*
X220017227Y-122254517D03*
%TD*%
%TO.C,SW42*%
X254922857Y-66061802D03*
D13*
X251154605Y-61812299D03*
D14*
X250015954Y-67376603D03*
D13*
X245678376Y-65909252D03*
D12*
X245109051Y-68691404D03*
%TD*%
%TO.C,SW56*%
X308071145Y-43603261D03*
D13*
X304302893Y-39353758D03*
D14*
X303164242Y-44918062D03*
D13*
X298826664Y-43450711D03*
D12*
X298257339Y-46232863D03*
%TD*%
%TO.C,SW36*%
X232618658Y-56424957D03*
D13*
X228850406Y-52175454D03*
D14*
X227711755Y-57739758D03*
D13*
X223374177Y-56272407D03*
D12*
X222804852Y-59054559D03*
%TD*%
%TO.C,SW39*%
X247410177Y-111627611D03*
D13*
X243641925Y-107378108D03*
D14*
X242503274Y-112942412D03*
D13*
X238165696Y-111475061D03*
D12*
X237596371Y-114257213D03*
%TD*%
%TO.C,SW32*%
X219970031Y-82823149D03*
D13*
X216201779Y-78573646D03*
D14*
X215063128Y-84137950D03*
D13*
X210725550Y-82670599D03*
D12*
X210156225Y-85452751D03*
%TD*%
D15*
%TO.C,SW64*%
X200500000Y-125000000D03*
X149500000Y-125000000D03*
X177500000Y-94400000D03*
X172500000Y-94400000D03*
X175000000Y-94400000D03*
D16*
X205099999Y-124999999D03*
D17*
X190100000Y-151153967D03*
X190100000Y-98846033D03*
D18*
X189500000Y-125000000D03*
X160500000Y-125000000D03*
D17*
X159900000Y-151153967D03*
X159900000Y-98846033D03*
D16*
X144899999Y-124999999D03*
%TD*%
D19*
%TO.C,H3*%
X48371259Y-32949043D03*
%TD*%
%TO.C,H2*%
X301126733Y-32950293D03*
%TD*%
D20*
%TO.C,J9*%
X297899999Y-33699999D03*
D21*
X295359999Y-33699999D03*
X292819999Y-33699999D03*
X290279999Y-33699999D03*
%TD*%
D20*
%TO.C,J4*%
X154999999Y-28429999D03*
D21*
X154999999Y-30969999D03*
X154999999Y-33509999D03*
X154999999Y-36049999D03*
X154999999Y-38589999D03*
X154999999Y-41129999D03*
X154999999Y-43669999D03*
D22*
X155250000Y-20050000D03*
X155250000Y-52050000D03*
X194750000Y-20050000D03*
X194750000Y-52050000D03*
%TD*%
D23*
%TO.C,J5*%
X148699885Y-42046791D03*
D24*
X148699884Y-40046790D03*
X148699884Y-38046790D03*
X148699884Y-36046790D03*
X148699884Y-34046790D03*
X148699884Y-32046790D03*
X148699884Y-30046790D03*
%TD*%
D19*
%TO.C,H1*%
X174999997Y-180749999D03*
%TD*%
D20*
%TO.C,J1*%
X171099823Y-60446788D03*
D21*
X173639823Y-60446788D03*
X176179823Y-60446788D03*
X178719823Y-60446788D03*
%TD*%
D25*
%TO.C,H4*%
X185500000Y-20846789D03*
%TD*%
D26*
%TO.C,J6*%
X60166411Y-23680062D03*
D27*
X61032169Y-27585246D03*
D26*
X71139978Y-21247281D03*
D27*
X72005736Y-25152465D03*
%TD*%
D28*
%TO.C,J2*%
X180619999Y-18599999D03*
D29*
X180619999Y-14599999D03*
D28*
X169379999Y-18599999D03*
D29*
X169379999Y-14599999D03*
%TD*%
D30*
%TO.C,J7*%
X278860018Y-21247281D03*
D31*
X277994260Y-25152465D03*
D30*
X289833585Y-23680062D03*
D31*
X288967827Y-27585246D03*
%TD*%
M02*
