%TF.GenerationSoftware,KiCad,Pcbnew,7.0.1*%
%TF.CreationDate,2023-04-08T02:33:32+01:00*%
%TF.ProjectId,Honeydew,486f6e65-7964-4657-972e-6b696361645f,rev?*%
%TF.SameCoordinates,Original*%
%TF.FileFunction,Soldermask,Top*%
%TF.FilePolarity,Negative*%
%FSLAX46Y46*%
G04 Gerber Fmt 4.6, Leading zero omitted, Abs format (unit mm)*
G04 Created by KiCad (PCBNEW 7.0.1) date 2023-04-08 02:33:32*
%MOMM*%
%LPD*%
G01*
G04 APERTURE LIST*
G04 Aperture macros list*
%AMRoundRect*
0 Rectangle with rounded corners*
0 $1 Rounding radius*
0 $2 $3 $4 $5 $6 $7 $8 $9 X,Y pos of 4 corners*
0 Add a 4 corners polygon primitive as box body*
4,1,4,$2,$3,$4,$5,$6,$7,$8,$9,$2,$3,0*
0 Add four circle primitives for the rounded corners*
1,1,$1+$1,$2,$3*
1,1,$1+$1,$4,$5*
1,1,$1+$1,$6,$7*
1,1,$1+$1,$8,$9*
0 Add four rect primitives between the rounded corners*
20,1,$1+$1,$2,$3,$4,$5,0*
20,1,$1+$1,$4,$5,$6,$7,0*
20,1,$1+$1,$6,$7,$8,$9,0*
20,1,$1+$1,$8,$9,$2,$3,0*%
%AMHorizOval*
0 Thick line with rounded ends*
0 $1 width*
0 $2 $3 position (X,Y) of the first rounded end (center of the circle)*
0 $4 $5 position (X,Y) of the second rounded end (center of the circle)*
0 Add line between two ends*
20,1,$1,$2,$3,$4,$5,0*
0 Add two circle primitives to create the rounded ends*
1,1,$1,$2,$3*
1,1,$1,$4,$5*%
%AMRotRect*
0 Rectangle, with rotation*
0 The origin of the aperture is its center*
0 $1 length*
0 $2 width*
0 $3 Rotation angle, in degrees counterclockwise*
0 Add horizontal line*
21,1,$1,$2,0,0,$3*%
G04 Aperture macros list end*
%ADD10C,2.000000*%
%ADD11R,2.500000X6.000000*%
%ADD12C,3.500000*%
%ADD13C,5.600000*%
%ADD14C,1.152000*%
%ADD15RotRect,1.700000X1.700000X285.000000*%
%ADD16HorizOval,1.700000X0.000000X0.000000X0.000000X0.000000X0*%
%ADD17RoundRect,0.250000X0.625000X-0.350000X0.625000X0.350000X-0.625000X0.350000X-0.625000X-0.350000X0*%
%ADD18O,1.750000X1.200000*%
%ADD19R,1.700000X1.700000*%
%ADD20O,1.700000X1.700000*%
%ADD21C,4.000000*%
%ADD22C,1.750000*%
%ADD23C,3.000000*%
%ADD24C,3.987800*%
%ADD25C,0.650000*%
%ADD26O,1.000000X1.600000*%
%ADD27O,1.000000X2.100000*%
%ADD28C,0.900000*%
%ADD29R,1.200000X1.200000*%
%ADD30C,1.200000*%
%ADD31C,0.750000*%
G04 APERTURE END LIST*
%TO.C,A1*%
G36*
X170213333Y-70584666D02*
G01*
X170178466Y-70735669D01*
X170044000Y-70754000D01*
X169834929Y-70661065D01*
X169874666Y-70584666D01*
X170176105Y-70554267D01*
X170213333Y-70584666D01*
G37*
G36*
X170467333Y-69314666D02*
G01*
X170497732Y-69616105D01*
X170467333Y-69653333D01*
X170316330Y-69618466D01*
X170298000Y-69484000D01*
X170390934Y-69274929D01*
X170467333Y-69314666D01*
G37*
G36*
X167250000Y-71643000D02*
G01*
X167492311Y-71871246D01*
X167504000Y-71911990D01*
X167307482Y-72021087D01*
X167250000Y-72024000D01*
X167005760Y-71828736D01*
X166996000Y-71755009D01*
X167151609Y-71603311D01*
X167250000Y-71643000D01*
G37*
G36*
X169008430Y-70638610D02*
G01*
X169028000Y-70724019D01*
X168842642Y-71083093D01*
X168774000Y-71135000D01*
X168539569Y-71123389D01*
X168520000Y-71037980D01*
X168705357Y-70678906D01*
X168774000Y-70627000D01*
X169008430Y-70638610D01*
G37*
G36*
X171480688Y-68623609D02*
G01*
X171441000Y-68722000D01*
X171212753Y-68964311D01*
X171172009Y-68976000D01*
X171062912Y-68779482D01*
X171060000Y-68722000D01*
X171255263Y-68477760D01*
X171328990Y-68468000D01*
X171480688Y-68623609D01*
G37*
G36*
X176386619Y-68915287D02*
G01*
X176394000Y-68976000D01*
X176200712Y-69222619D01*
X176140000Y-69230000D01*
X175893380Y-69036712D01*
X175886000Y-68976000D01*
X176079287Y-68729380D01*
X176140000Y-68722000D01*
X176386619Y-68915287D01*
G37*
G36*
X186333355Y-68849000D02*
G01*
X186872054Y-68849000D01*
X186892499Y-69371753D01*
X186950059Y-69506676D01*
X186982518Y-69423461D01*
X187029829Y-68813497D01*
X186987644Y-68407461D01*
X186920733Y-68266686D01*
X186878643Y-68571980D01*
X186872054Y-68849000D01*
X186333355Y-68849000D01*
X186321506Y-68597204D01*
X186368708Y-67970795D01*
X186526060Y-67602527D01*
X186639757Y-67486227D01*
X187079551Y-67284634D01*
X187304873Y-67318123D01*
X187473819Y-67677402D01*
X187549962Y-68394945D01*
X187533248Y-69329554D01*
X187423624Y-70340033D01*
X187306247Y-70954576D01*
X187177353Y-71957532D01*
X187319327Y-72600746D01*
X187714610Y-72849572D01*
X188209841Y-72737577D01*
X188729643Y-72422773D01*
X188776436Y-72110177D01*
X188458999Y-71769999D01*
X188110447Y-71275494D01*
X188180463Y-71009584D01*
X188818843Y-71009584D01*
X188930397Y-71472286D01*
X189249112Y-71963496D01*
X189700818Y-72478999D01*
X190045417Y-72765293D01*
X190110000Y-72786000D01*
X190389167Y-72603216D01*
X190822033Y-72146709D01*
X190970887Y-71963496D01*
X191349463Y-71335822D01*
X191376377Y-70935762D01*
X191074944Y-70832770D01*
X190645269Y-70993405D01*
X190020872Y-71147923D01*
X189574730Y-70993405D01*
X189041391Y-70826806D01*
X188818843Y-71009584D01*
X188180463Y-71009584D01*
X188250596Y-70743226D01*
X188585999Y-70373000D01*
X188985356Y-70064495D01*
X189286600Y-70110766D01*
X189602000Y-70372999D01*
X189999111Y-70679944D01*
X190299941Y-70636117D01*
X190626964Y-70364887D01*
X191014110Y-70061672D01*
X191302465Y-70093167D01*
X191690600Y-70443711D01*
X192052280Y-70889370D01*
X192056600Y-71285607D01*
X191905676Y-71609971D01*
X191720109Y-72227791D01*
X191851506Y-72663534D01*
X192156990Y-72786000D01*
X192289090Y-72556589D01*
X192375892Y-71965949D01*
X192396000Y-71418444D01*
X192395999Y-70050889D01*
X193563304Y-70090181D01*
X194528199Y-70231792D01*
X195060182Y-70580191D01*
X195286028Y-71072060D01*
X195481262Y-71795160D01*
X195613404Y-72565712D01*
X195649978Y-73199933D01*
X195576243Y-73500423D01*
X195340002Y-73488167D01*
X195110562Y-73118661D01*
X194961388Y-72538262D01*
X194939889Y-72232642D01*
X194761105Y-71514829D01*
X194323668Y-70964238D01*
X193783793Y-70754000D01*
X193365065Y-70980999D01*
X193042347Y-71554101D01*
X192904457Y-72311457D01*
X192904000Y-72357200D01*
X192754372Y-72971261D01*
X192518235Y-73297954D01*
X192153250Y-73472068D01*
X191757992Y-73274274D01*
X191629235Y-73162688D01*
X191231332Y-72857076D01*
X190928869Y-72907717D01*
X190622764Y-73162688D01*
X190189981Y-73459145D01*
X189840396Y-73378647D01*
X189725527Y-73291118D01*
X189369124Y-73107608D01*
X188876290Y-73137944D01*
X188293811Y-73306603D01*
X187616577Y-73500480D01*
X187237617Y-73493579D01*
X186985222Y-73277949D01*
X186960531Y-73244871D01*
X186684626Y-72988044D01*
X186319484Y-73035562D01*
X185997091Y-73190597D01*
X185309043Y-73395248D01*
X184367038Y-73484157D01*
X183976335Y-73479461D01*
X183167100Y-73412285D01*
X182738990Y-73271377D01*
X182565679Y-73006560D01*
X182546837Y-72911694D01*
X182374126Y-71966956D01*
X182201583Y-71473890D01*
X182008141Y-71376611D01*
X181974553Y-71393602D01*
X181817018Y-71723446D01*
X181732535Y-72353147D01*
X181728000Y-72546990D01*
X181670878Y-73177651D01*
X181528421Y-73524713D01*
X181474000Y-73548000D01*
X181313973Y-73322884D01*
X181225908Y-72761464D01*
X181220000Y-72546990D01*
X181162738Y-71872007D01*
X181020500Y-71441098D01*
X180973446Y-71393602D01*
X180774024Y-71435139D01*
X180598992Y-71866418D01*
X180427690Y-72742312D01*
X180401405Y-72913000D01*
X180264756Y-73229583D01*
X179891069Y-73398297D01*
X179150260Y-73474630D01*
X179076416Y-73478171D01*
X178271505Y-73454804D01*
X177648511Y-73330532D01*
X177472541Y-73240504D01*
X177119147Y-73089154D01*
X176893218Y-73308209D01*
X176601495Y-73526006D01*
X176321166Y-73293936D01*
X176088059Y-72669544D01*
X175944835Y-71784951D01*
X175916900Y-71586524D01*
X177216012Y-71586524D01*
X177375991Y-72190551D01*
X177717565Y-72654959D01*
X178045000Y-72786000D01*
X178426593Y-72577043D01*
X178735203Y-72131274D01*
X178872249Y-71421901D01*
X178646228Y-70875700D01*
X178120071Y-70629823D01*
X178045000Y-70627000D01*
X177539171Y-70823988D01*
X177324424Y-71051774D01*
X177216012Y-71586524D01*
X175916900Y-71586524D01*
X175834901Y-71004073D01*
X175663696Y-70614792D01*
X175376393Y-70500746D01*
X175339397Y-70500000D01*
X174881874Y-70733232D01*
X174541459Y-71357850D01*
X174371678Y-72261234D01*
X174362000Y-72556507D01*
X174216886Y-73229886D01*
X173853725Y-73533013D01*
X173380786Y-73484968D01*
X172906340Y-73104832D01*
X172538657Y-72411688D01*
X172484498Y-72225619D01*
X172257996Y-71334003D01*
X171255512Y-72336487D01*
X169834368Y-73463939D01*
X168285172Y-74111945D01*
X166706639Y-74304421D01*
X165651972Y-74236150D01*
X164933749Y-73997021D01*
X164674639Y-73820029D01*
X164345697Y-73441985D01*
X164787296Y-73441985D01*
X165216842Y-73714332D01*
X165281500Y-73745994D01*
X166415095Y-74018076D01*
X167808288Y-73878613D01*
X168596112Y-73653045D01*
X169631467Y-73133909D01*
X170702678Y-72324628D01*
X171682240Y-71350816D01*
X172442647Y-70338087D01*
X172841647Y-69470453D01*
X173028616Y-68441389D01*
X173007513Y-67613430D01*
X172787661Y-67098680D01*
X172636421Y-67002228D01*
X172420685Y-67064021D01*
X172464229Y-67517369D01*
X172464896Y-67520031D01*
X172489148Y-68440868D01*
X172214748Y-69522661D01*
X171704526Y-70569441D01*
X171320800Y-71088448D01*
X170663740Y-71695737D01*
X169792080Y-72328076D01*
X169276892Y-72637264D01*
X168447821Y-73043513D01*
X167739207Y-73238805D01*
X166904301Y-73274309D01*
X166338403Y-73246613D01*
X165336731Y-73213485D01*
X164823477Y-73276822D01*
X164787296Y-73441985D01*
X164345697Y-73441985D01*
X164277889Y-73364055D01*
X164329000Y-73077960D01*
X164543510Y-72886252D01*
X165402919Y-72886252D01*
X165860912Y-73045961D01*
X166634099Y-73044008D01*
X167563486Y-72900968D01*
X168490079Y-72637416D01*
X168995809Y-72421312D01*
X170300733Y-71557825D01*
X171333873Y-70470112D01*
X171987939Y-69276314D01*
X172060727Y-69046442D01*
X172285692Y-68084800D01*
X172301078Y-67564692D01*
X172178270Y-67451999D01*
X171929299Y-67600016D01*
X171370996Y-68001178D01*
X170590605Y-68591156D01*
X169828770Y-69184412D01*
X168779692Y-70008402D01*
X167735874Y-70823245D01*
X166847311Y-71512075D01*
X166440085Y-71824665D01*
X165831916Y-72329820D01*
X165461303Y-72720200D01*
X165402919Y-72886252D01*
X164543510Y-72886252D01*
X164823533Y-72635995D01*
X165595427Y-72004132D01*
X166570277Y-71237689D01*
X167673679Y-70391987D01*
X168831232Y-69522348D01*
X169968531Y-68684090D01*
X171011172Y-67932535D01*
X171884753Y-67323002D01*
X172514870Y-66910812D01*
X172827119Y-66751286D01*
X172838000Y-66751360D01*
X173168804Y-67060023D01*
X173305339Y-67809280D01*
X173245457Y-68969457D01*
X173077092Y-70055544D01*
X172913166Y-71118769D01*
X172899463Y-71844205D01*
X173034442Y-72378868D01*
X173052329Y-72419366D01*
X173354470Y-72881184D01*
X173600850Y-72863841D01*
X173772671Y-72394827D01*
X173851133Y-71501637D01*
X173854000Y-71247009D01*
X173892901Y-70441373D01*
X173994340Y-69895835D01*
X174108000Y-69738000D01*
X174354678Y-69925455D01*
X174362000Y-69984028D01*
X174547577Y-70150507D01*
X174679500Y-70132243D01*
X175569033Y-69880260D01*
X176084257Y-69836738D01*
X176330499Y-70042773D01*
X176413088Y-70539459D01*
X176423464Y-70812660D01*
X176464262Y-71350464D01*
X176534749Y-71495070D01*
X176576686Y-71389000D01*
X176956703Y-70565298D01*
X177522721Y-70127087D01*
X178162915Y-70048318D01*
X178765457Y-70302946D01*
X179218521Y-70864923D01*
X179410282Y-71708204D01*
X179396948Y-72045895D01*
X179428563Y-72682352D01*
X179632500Y-72972490D01*
X179827177Y-72877944D01*
X179927700Y-72384655D01*
X179950000Y-71679156D01*
X180014890Y-70685583D01*
X180218355Y-70167783D01*
X180573587Y-70109243D01*
X180982005Y-70387484D01*
X181376569Y-70686156D01*
X181682217Y-70624907D01*
X181965994Y-70387484D01*
X182457346Y-70086507D01*
X182789029Y-70236086D01*
X182974752Y-70851832D01*
X183025829Y-71594490D01*
X183053659Y-72913000D01*
X183271208Y-71806413D01*
X183376886Y-71429037D01*
X184014000Y-71429037D01*
X184114432Y-71655732D01*
X184489356Y-71533403D01*
X184507853Y-71523570D01*
X184971129Y-71209375D01*
X185146997Y-71024185D01*
X185111915Y-70700583D01*
X185023016Y-70622684D01*
X184626440Y-70625996D01*
X184223752Y-70932148D01*
X184016267Y-71380260D01*
X184014000Y-71429037D01*
X183376886Y-71429037D01*
X183555574Y-70790939D01*
X183949293Y-70210896D01*
X184504244Y-69996976D01*
X184629300Y-69991999D01*
X185358931Y-70155155D01*
X185719676Y-70572141D01*
X185698485Y-71134237D01*
X185282310Y-71732721D01*
X184875244Y-72041153D01*
X184327666Y-72414355D01*
X184176551Y-72648893D01*
X184364941Y-72835175D01*
X184372369Y-72839359D01*
X185045910Y-72958672D01*
X185701856Y-72643162D01*
X186147766Y-72069499D01*
X186358407Y-71342164D01*
X186402760Y-70255269D01*
X186368865Y-69603594D01*
X186333355Y-68849000D01*
G37*
%TD*%
D10*
%TO.C,SW64*%
X205500000Y-115000000D03*
X154500000Y-115000000D03*
X182500000Y-84400000D03*
X177500000Y-84400000D03*
X180000000Y-84400000D03*
D11*
X210100000Y-115000000D03*
D12*
X195100000Y-141153967D03*
X195100000Y-88846033D03*
D13*
X194500000Y-115000000D03*
X165500000Y-115000000D03*
D12*
X164900000Y-141153967D03*
X164900000Y-88846033D03*
D11*
X149900000Y-115000000D03*
%TD*%
D14*
%TO.C,H3*%
X45499998Y-24000000D03*
%TD*%
%TO.C,H2*%
X314599997Y-23999998D03*
%TD*%
D13*
%TO.C,H8*%
X302499998Y-25249999D03*
%TD*%
D15*
%TO.C,J9*%
X318897585Y-41580037D03*
D16*
X316444133Y-42237437D03*
X313990682Y-42894838D03*
X311537230Y-43552238D03*
%TD*%
D13*
%TO.C,H10*%
X180000000Y-171500000D03*
%TD*%
D17*
%TO.C,J4*%
X156899997Y-46750000D03*
D18*
X156899997Y-44750000D03*
X156899997Y-42750000D03*
X156899997Y-40750000D03*
X156899997Y-38750000D03*
X156899997Y-36750000D03*
X156899997Y-34750000D03*
%TD*%
D14*
%TO.C,H1*%
X180000000Y-150000000D03*
%TD*%
D19*
%TO.C,J7*%
X160000000Y-33129999D03*
D20*
X160000000Y-35669999D03*
X160000000Y-38209999D03*
X160000000Y-40749999D03*
X160000000Y-43289999D03*
X160000000Y-45829999D03*
X160000000Y-48369999D03*
D21*
X160250000Y-24749999D03*
X160250000Y-56749999D03*
X199750000Y-24749999D03*
X199750000Y-56749999D03*
%TD*%
D22*
%TO.C,SW25*%
X121459521Y-135253809D03*
D23*
X121799817Y-129584400D03*
D24*
X117060112Y-132713809D03*
D23*
X115030555Y-128609104D03*
D22*
X112660703Y-130173809D03*
%TD*%
%TO.C,SW30*%
X138017842Y-149685348D03*
D23*
X139813894Y-144297195D03*
D24*
X134425740Y-146093246D03*
D23*
X133527714Y-141603118D03*
D22*
X130833638Y-142501144D03*
%TD*%
%TO.C,SW1*%
X53242695Y-36232841D03*
D23*
X52104044Y-30668537D03*
D24*
X48335792Y-34918040D03*
D23*
X45313015Y-31478488D03*
D22*
X43428889Y-33603239D03*
%TD*%
%TO.C,SW24*%
X113903674Y-104257190D03*
D23*
X112765023Y-98692886D03*
D24*
X108996771Y-102942389D03*
D23*
X105973994Y-99502837D03*
D22*
X104089868Y-101627588D03*
%TD*%
%TO.C,SW29*%
X131482793Y-112254533D03*
D23*
X130344142Y-106690229D03*
D24*
X126575890Y-110939732D03*
D23*
X123553113Y-107500180D03*
D22*
X121668987Y-109624931D03*
%TD*%
%TO.C,SW14*%
X77101882Y-94396195D03*
D23*
X75963231Y-88831891D03*
D24*
X72194979Y-93081394D03*
D23*
X69172202Y-89641842D03*
D22*
X67288076Y-91766593D03*
%TD*%
%TO.C,SW19*%
X96529963Y-95493158D03*
D23*
X95391312Y-89928854D03*
D24*
X91623060Y-94178357D03*
D23*
X88600283Y-90738805D03*
D22*
X86716157Y-92863556D03*
%TD*%
%TO.C,SW5*%
X33520676Y-109836406D03*
D23*
X32382025Y-104272102D03*
D24*
X28613773Y-108521605D03*
D23*
X25590996Y-105082053D03*
D22*
X23706870Y-107206804D03*
%TD*%
%TO.C,SW22*%
X123764663Y-67455406D03*
D23*
X122626012Y-61891102D03*
D24*
X118857760Y-66140605D03*
D23*
X115834983Y-62701053D03*
D22*
X113950857Y-64825804D03*
%TD*%
%TO.C,SW27*%
X141343796Y-75452746D03*
D23*
X140205145Y-69888442D03*
D24*
X136436893Y-74137945D03*
D23*
X133414116Y-70698393D03*
D22*
X131529990Y-72823144D03*
%TD*%
%TO.C,SW3*%
X43381668Y-73034635D03*
D23*
X42243017Y-67470331D03*
D24*
X38474765Y-71719834D03*
D23*
X35451988Y-68280282D03*
D22*
X33567862Y-70405033D03*
%TD*%
%TO.C,SW8*%
X62398882Y-75665008D03*
D23*
X61260231Y-70100704D03*
D24*
X57491979Y-74350207D03*
D23*
X54469202Y-70910655D03*
D22*
X52585076Y-73035406D03*
%TD*%
%TO.C,SW13*%
X82032396Y-75995293D03*
D23*
X80893745Y-70430989D03*
D24*
X77125493Y-74680492D03*
D23*
X74102716Y-71240940D03*
D22*
X72218590Y-73365691D03*
%TD*%
%TO.C,SW23*%
X118834177Y-85856333D03*
D23*
X117695526Y-80292029D03*
D24*
X113927274Y-84541532D03*
D23*
X110904497Y-81101980D03*
D22*
X109020371Y-83226731D03*
%TD*%
%TO.C,SW18*%
X101460449Y-77092279D03*
D23*
X100321798Y-71527975D03*
D24*
X96553546Y-75777478D03*
D23*
X93530769Y-72337926D03*
D22*
X91646643Y-74462677D03*
%TD*%
%TO.C,SW28*%
X136413290Y-93853635D03*
D23*
X135274639Y-88289331D03*
D24*
X131506387Y-92538834D03*
D23*
X128483610Y-89099282D03*
D22*
X126599484Y-91224033D03*
%TD*%
%TO.C,SW4*%
X38451186Y-91435529D03*
D23*
X37312535Y-85871225D03*
D24*
X33544283Y-90120728D03*
D23*
X30521506Y-86681176D03*
D22*
X28637380Y-88805927D03*
%TD*%
%TO.C,SW9*%
X57468351Y-94065912D03*
D23*
X56329700Y-88501608D03*
D24*
X52561448Y-92751111D03*
D23*
X49538671Y-89311559D03*
D22*
X47654545Y-91436310D03*
%TD*%
%TO.C,SW10*%
X52537873Y-112466796D03*
D23*
X51399222Y-106902492D03*
D24*
X47630970Y-111151995D03*
D23*
X44608193Y-107712443D03*
D22*
X42724067Y-109837194D03*
%TD*%
%TO.C,SW15*%
X72171383Y-112797070D03*
D23*
X71032732Y-107232766D03*
D24*
X67264480Y-111482269D03*
D23*
X64241703Y-108042717D03*
D22*
X62357577Y-110167468D03*
%TD*%
%TO.C,SW20*%
X101606896Y-125614798D03*
D23*
X100468245Y-120050494D03*
D24*
X96699993Y-124299997D03*
D23*
X93677216Y-120860445D03*
D22*
X91793090Y-122985196D03*
%TD*%
%TO.C,SW11*%
X91893395Y-39193545D03*
D23*
X90754744Y-33629241D03*
D24*
X86986492Y-37878744D03*
D23*
X83963715Y-34439192D03*
D22*
X82079589Y-36563943D03*
%TD*%
%TO.C,SW2*%
X48312187Y-54633741D03*
D23*
X47173536Y-49069437D03*
D24*
X43405284Y-53318940D03*
D23*
X40382507Y-49879388D03*
D22*
X38498381Y-52004139D03*
%TD*%
%TO.C,SW12*%
X86962889Y-57594407D03*
D23*
X85824238Y-52030103D03*
D24*
X82055986Y-56279606D03*
D23*
X79033209Y-52840054D03*
D22*
X77149083Y-54964805D03*
%TD*%
%TO.C,SW21*%
X128695173Y-49054528D03*
D23*
X127556522Y-43490224D03*
D24*
X123788270Y-47739727D03*
D23*
X120765493Y-44300175D03*
D22*
X118881367Y-46424926D03*
%TD*%
%TO.C,SW17*%
X106390970Y-58691407D03*
D23*
X105252319Y-53127103D03*
D24*
X101484067Y-57376606D03*
D23*
X98461290Y-53937054D03*
D22*
X96577164Y-56061805D03*
%TD*%
%TO.C,SW16*%
X111321469Y-40290500D03*
D23*
X110182818Y-34726196D03*
D24*
X106414566Y-38975699D03*
D23*
X103391789Y-35536147D03*
D22*
X101507663Y-37660898D03*
%TD*%
%TO.C,SW6*%
X72259883Y-38863245D03*
D23*
X71121232Y-33298941D03*
D24*
X67352980Y-37548444D03*
D23*
X64330203Y-34108892D03*
D22*
X62446077Y-36233643D03*
%TD*%
%TO.C,SW7*%
X67329382Y-57264132D03*
D23*
X66190731Y-51699828D03*
D24*
X62422479Y-55949331D03*
D23*
X59399702Y-52509779D03*
D22*
X57515576Y-54634530D03*
%TD*%
%TO.C,SW26*%
X146274302Y-57051855D03*
D23*
X145135651Y-51487551D03*
D24*
X141367399Y-55737054D03*
D23*
X138344622Y-52297502D03*
D22*
X136460496Y-54422253D03*
%TD*%
%TO.C,SW31*%
X223539533Y-54422260D03*
D23*
X219771281Y-50172757D03*
D24*
X218632630Y-55737061D03*
D23*
X214295052Y-54269710D03*
D22*
X213725727Y-57051862D03*
%TD*%
%TO.C,SW62*%
X185080019Y-160909993D03*
D23*
X182540019Y-155829993D03*
D24*
X180000019Y-160909993D03*
D23*
X176190019Y-158369993D03*
D22*
X174920019Y-160909993D03*
%TD*%
%TO.C,SW45*%
X268206929Y-122985195D03*
D23*
X264438677Y-118735692D03*
D24*
X263300026Y-124299996D03*
D23*
X258962448Y-122832645D03*
D22*
X258393123Y-125614797D03*
%TD*%
%TO.C,SW49*%
X292711942Y-91766613D03*
D23*
X288943690Y-87517110D03*
D24*
X287805039Y-93081414D03*
D23*
X283467461Y-91614063D03*
D22*
X282898136Y-94396215D03*
%TD*%
D13*
%TO.C,H7*%
X301999998Y-124000000D03*
%TD*%
D22*
%TO.C,SW47*%
X282850945Y-54964821D03*
D23*
X279082693Y-50715318D03*
D24*
X277944042Y-56279622D03*
D23*
X273606464Y-54812271D03*
D22*
X273037139Y-57594423D03*
%TD*%
%TO.C,SW63*%
X206266899Y-156775204D03*
D23*
X202498647Y-152525701D03*
D24*
X201359996Y-158090005D03*
D23*
X197022418Y-156622654D03*
D22*
X196453093Y-159404806D03*
%TD*%
%TO.C,SW61*%
X163546901Y-159404783D03*
D23*
X162408250Y-153840479D03*
D24*
X158639998Y-158089982D03*
D23*
X155617221Y-154650430D03*
D22*
X153733095Y-156775181D03*
%TD*%
%TO.C,SW33*%
X233400530Y-91224024D03*
D23*
X229632278Y-86974521D03*
D24*
X228493627Y-92538825D03*
D23*
X224156049Y-91071474D03*
D22*
X223586724Y-93853626D03*
%TD*%
%TO.C,SW59*%
X331362649Y-88805924D03*
D23*
X327594397Y-84556421D03*
D24*
X326455746Y-90120725D03*
D23*
X322118168Y-88653374D03*
D22*
X321548843Y-91435526D03*
%TD*%
D25*
%TO.C,J6*%
X205110001Y-22250000D03*
X210890001Y-22250000D03*
D26*
X203680001Y-18600000D03*
D27*
X203680001Y-22780000D03*
D26*
X212320001Y-18600000D03*
D27*
X212320001Y-22780000D03*
%TD*%
D22*
%TO.C,SW38*%
X250979681Y-83226722D03*
D23*
X247211429Y-78977219D03*
D24*
X246072778Y-84541523D03*
D23*
X241735200Y-83074172D03*
D22*
X241165875Y-85856324D03*
%TD*%
%TO.C,SW50*%
X297642445Y-110167486D03*
D23*
X293874193Y-105917983D03*
D24*
X292735542Y-111482287D03*
D23*
X288397964Y-110014936D03*
D22*
X287828639Y-112797088D03*
%TD*%
D28*
%TO.C,SW65*%
X192500001Y-19069999D03*
X195500001Y-19069999D03*
%TD*%
D22*
%TO.C,SW58*%
X326432145Y-70405014D03*
D23*
X322663893Y-66155511D03*
D24*
X321525242Y-71719815D03*
D23*
X317187664Y-70252464D03*
D22*
X316618339Y-73034616D03*
%TD*%
D29*
%TO.C,U4*%
X185350000Y-109340000D03*
D30*
X185350000Y-111120000D03*
X185350000Y-112900000D03*
X185350000Y-114680000D03*
X185350000Y-116460000D03*
X185350000Y-118240000D03*
X185350000Y-120020000D03*
X185350000Y-121800000D03*
X174650000Y-122690000D03*
X174650000Y-120910000D03*
X174650000Y-119130000D03*
X174650000Y-117350000D03*
X174650000Y-115570000D03*
X174650000Y-113790000D03*
X174650000Y-112010000D03*
X174650000Y-110230000D03*
%TD*%
D22*
%TO.C,SW43*%
X268353353Y-74462679D03*
D23*
X264585101Y-70213176D03*
D24*
X263446450Y-75777480D03*
D23*
X259108872Y-74310129D03*
D22*
X258539547Y-77092281D03*
%TD*%
D31*
%TO.C,SW66*%
X166000000Y-20475000D03*
X166000000Y-17725000D03*
%TD*%
D22*
%TO.C,SW57*%
X321501637Y-52004139D03*
D23*
X317733385Y-47754636D03*
D24*
X316594734Y-53318940D03*
D23*
X312257156Y-51851589D03*
D22*
X311687831Y-54633741D03*
%TD*%
D25*
%TO.C,J5*%
X149110000Y-22250000D03*
X154890000Y-22250000D03*
D26*
X147680000Y-18600000D03*
D27*
X147680000Y-22780000D03*
D26*
X156320000Y-18600000D03*
D27*
X156320000Y-22780000D03*
%TD*%
D22*
%TO.C,SW52*%
X302484457Y-54634528D03*
D23*
X298716205Y-50385025D03*
D24*
X297577554Y-55949329D03*
D23*
X293239976Y-54481978D03*
D22*
X292670651Y-57264130D03*
%TD*%
%TO.C,SW44*%
X273283870Y-92863560D03*
D23*
X269515618Y-88614057D03*
D24*
X268376967Y-94178361D03*
D23*
X264039389Y-92711010D03*
D22*
X263470064Y-95493162D03*
%TD*%
%TO.C,SW41*%
X258492358Y-37660914D03*
D23*
X254724106Y-33411411D03*
D24*
X253585455Y-38975715D03*
D23*
X249247877Y-37508364D03*
D22*
X248678552Y-40290516D03*
%TD*%
D25*
%TO.C,J2*%
X177110001Y-22249999D03*
X182890001Y-22249999D03*
D26*
X175680001Y-18599999D03*
D27*
X175680001Y-22779999D03*
D26*
X184320001Y-18599999D03*
D27*
X184320001Y-22779999D03*
%TD*%
D13*
%TO.C,H6*%
X57499999Y-25249999D03*
%TD*%
D22*
%TO.C,SW40*%
X247339312Y-130173790D03*
D23*
X242599608Y-127044381D03*
D24*
X242939903Y-132713790D03*
D23*
X238370346Y-132419085D03*
D22*
X238540494Y-135253790D03*
%TD*%
%TO.C,SW46*%
X277920432Y-36563942D03*
D23*
X274152180Y-32314439D03*
D24*
X273013529Y-37878743D03*
D23*
X268675951Y-36411392D03*
D22*
X268106626Y-39193544D03*
%TD*%
%TO.C,SW51*%
X297553945Y-36233657D03*
D23*
X293785693Y-31984154D03*
D24*
X292647042Y-37548458D03*
D23*
X288309464Y-36081107D03*
D22*
X287740139Y-38863259D03*
%TD*%
%TO.C,SW60*%
X336293143Y-107206797D03*
D23*
X332524891Y-102957294D03*
D24*
X331386240Y-108521598D03*
D23*
X327048662Y-107054247D03*
D22*
X326479337Y-109836399D03*
%TD*%
%TO.C,SW37*%
X246049176Y-64825840D03*
D23*
X242280924Y-60576337D03*
D24*
X241142273Y-66140641D03*
D23*
X236804695Y-64673290D03*
D22*
X236235370Y-67455442D03*
%TD*%
D13*
%TO.C,H4*%
X221399998Y-25999998D03*
%TD*%
D22*
%TO.C,SW54*%
X312345464Y-91436315D03*
D23*
X308577212Y-87186812D03*
D24*
X307438561Y-92751116D03*
D23*
X303100983Y-91283765D03*
D22*
X302531658Y-94065917D03*
%TD*%
D13*
%TO.C,H9*%
X58000000Y-123999998D03*
%TD*%
D22*
%TO.C,SW55*%
X317275964Y-109837201D03*
D23*
X313507712Y-105587698D03*
D24*
X312369061Y-111152002D03*
D23*
X308031483Y-109684651D03*
D22*
X307462158Y-112466803D03*
%TD*%
%TO.C,SW48*%
X287781444Y-73365710D03*
D23*
X284013192Y-69116207D03*
D24*
X282874541Y-74680511D03*
D23*
X278536963Y-73213160D03*
D22*
X277967638Y-75995312D03*
%TD*%
D13*
%TO.C,H5*%
X138599997Y-25999998D03*
%TD*%
D22*
%TO.C,SW53*%
X307414958Y-73035418D03*
D23*
X303646706Y-68785915D03*
D24*
X302508055Y-74350219D03*
D23*
X298170477Y-72882868D03*
D22*
X297601152Y-75665020D03*
%TD*%
%TO.C,SW35*%
X229166388Y-142501135D03*
D23*
X223778235Y-140705083D03*
D24*
X225574286Y-146093237D03*
D23*
X221084158Y-146991263D03*
D22*
X221982184Y-149685339D03*
%TD*%
%TO.C,SW34*%
X238331036Y-109624914D03*
D23*
X234562784Y-105375411D03*
D24*
X233424133Y-110939715D03*
D23*
X229086555Y-109472364D03*
D22*
X228517230Y-112254516D03*
%TD*%
D19*
%TO.C,J1*%
X174259997Y-63299363D03*
D20*
X176799997Y-63299363D03*
X179339997Y-63299363D03*
%TD*%
D22*
%TO.C,SW42*%
X263422857Y-56061796D03*
D23*
X259654605Y-51812293D03*
D24*
X258515954Y-57376597D03*
D23*
X254178376Y-55909246D03*
D22*
X253609051Y-58691398D03*
%TD*%
%TO.C,SW56*%
X316571143Y-33603261D03*
D23*
X312802891Y-29353758D03*
D24*
X311664240Y-34918062D03*
D23*
X307326662Y-33450711D03*
D22*
X306757337Y-36232863D03*
%TD*%
%TO.C,SW36*%
X241118654Y-46424958D03*
D23*
X237350402Y-42175455D03*
D24*
X236211751Y-47739759D03*
D23*
X231874173Y-46272408D03*
D22*
X231304848Y-49054560D03*
%TD*%
%TO.C,SW39*%
X255910176Y-101627606D03*
D23*
X252141924Y-97378103D03*
D24*
X251003273Y-102942407D03*
D23*
X246665695Y-101475056D03*
D22*
X246096370Y-104257208D03*
%TD*%
%TO.C,SW32*%
X228470028Y-72823151D03*
D23*
X224701776Y-68573648D03*
D24*
X223563125Y-74137952D03*
D23*
X219225547Y-72670601D03*
D22*
X218656222Y-75452753D03*
%TD*%
M02*
