%TF.GenerationSoftware,KiCad,Pcbnew,(7.0.0)*%
%TF.CreationDate,2023-04-17T17:16:56+01:00*%
%TF.ProjectId,Honeydew,486f6e65-7964-4657-972e-6b696361645f,V2.0*%
%TF.SameCoordinates,Original*%
%TF.FileFunction,Soldermask,Top*%
%TF.FilePolarity,Negative*%
%FSLAX46Y46*%
G04 Gerber Fmt 4.6, Leading zero omitted, Abs format (unit mm)*
G04 Created by KiCad (PCBNEW (7.0.0)) date 2023-04-17 17:16:56*
%MOMM*%
%LPD*%
G01*
G04 APERTURE LIST*
G04 Aperture macros list*
%AMRotRect*
0 Rectangle, with rotation*
0 The origin of the aperture is its center*
0 $1 length*
0 $2 width*
0 $3 Rotation angle, in degrees counterclockwise*
0 Add horizontal line*
21,1,$1,$2,0,0,$3*%
G04 Aperture macros list end*
%ADD10C,2.200000*%
%ADD11C,4.000000*%
%ADD12C,4.200000*%
%ADD13C,2.000000*%
%ADD14RotRect,4.400000X4.400000X150.000000*%
%ADD15C,3.200000*%
%ADD16C,1.152000*%
%ADD17R,1.700000X1.700000*%
%ADD18O,1.700000X1.700000*%
%ADD19C,5.600000*%
%ADD20C,1.750000*%
%ADD21C,3.000000*%
%ADD22C,3.987800*%
%ADD23C,1.700000*%
%ADD24C,0.900000*%
%ADD25R,1.200000X1.200000*%
%ADD26C,1.200000*%
%ADD27C,0.750000*%
%ADD28O,1.000000X2.200000*%
%ADD29O,1.000000X1.800000*%
%ADD30C,3.050000*%
G04 APERTURE END LIST*
D10*
%TO.C,SW65*%
X232266308Y-166673361D03*
D11*
X238486508Y-149590041D03*
D12*
X203603955Y-170538223D03*
D11*
X202899444Y-129861293D03*
D10*
X192323406Y-142188338D03*
D13*
X232165064Y-125269238D03*
X227834936Y-122769238D03*
X230000000Y-124019238D03*
D14*
X240807659Y-161490309D03*
D15*
X209875251Y-179064881D03*
X192393633Y-168971514D03*
D14*
X192165353Y-133409304D03*
%TD*%
D16*
%TO.C,H3*%
X82499993Y-72257210D03*
%TD*%
D17*
%TO.C,J4*%
X194999999Y-81579999D03*
D18*
X194999999Y-84119999D03*
X194999999Y-86659999D03*
X194999999Y-89199999D03*
X194999999Y-91739999D03*
X194999999Y-94279999D03*
X194999999Y-96819999D03*
D11*
X195250000Y-73200000D03*
X195250000Y-105200000D03*
X234750000Y-73200000D03*
X234750000Y-105200000D03*
%TD*%
D16*
%TO.C,H2*%
X347600000Y-72257205D03*
%TD*%
D19*
%TO.C,H9*%
X174749999Y-207500002D03*
%TD*%
%TO.C,H8*%
X254999999Y-207500006D03*
%TD*%
D16*
%TO.C,H1*%
X214999996Y-202500004D03*
%TD*%
D20*
%TO.C,SW25*%
X155845985Y-182576516D03*
D21*
X156186281Y-176907107D03*
D22*
X151446576Y-180036516D03*
D21*
X149417019Y-175931811D03*
D20*
X147047167Y-177496516D03*
%TD*%
%TO.C,SW30*%
X171995458Y-196640006D03*
D21*
X173791510Y-191251853D03*
D22*
X168403356Y-193047904D03*
D21*
X167505330Y-188557776D03*
D20*
X164811254Y-189455802D03*
%TD*%
%TO.C,SW1*%
X88242696Y-83790055D03*
D21*
X87104045Y-78225751D03*
D22*
X83335793Y-82475254D03*
D21*
X80313016Y-79035702D03*
D20*
X78428890Y-81160453D03*
%TD*%
%TO.C,SW24*%
X148903673Y-151814401D03*
D21*
X147765022Y-146250097D03*
D22*
X143996770Y-150499600D03*
D21*
X140973993Y-147060048D03*
D20*
X139089867Y-149184799D03*
%TD*%
%TO.C,SW29*%
X166482796Y-159811739D03*
D21*
X165344145Y-154247435D03*
D22*
X161575893Y-158496938D03*
D21*
X158553116Y-155057386D03*
D20*
X156668990Y-157182137D03*
%TD*%
%TO.C,SW14*%
X112101885Y-141953406D03*
D21*
X110963234Y-136389102D03*
D22*
X107194982Y-140638605D03*
D21*
X104172205Y-137199053D03*
D20*
X102288079Y-139323804D03*
%TD*%
%TO.C,SW19*%
X131529965Y-143050365D03*
D21*
X130391314Y-137486061D03*
D22*
X126623062Y-141735564D03*
D21*
X123600285Y-138296012D03*
D20*
X121716159Y-140420763D03*
%TD*%
%TO.C,SW5*%
X68520676Y-157393616D03*
D21*
X67382025Y-151829312D03*
D22*
X63613773Y-156078815D03*
D21*
X60590996Y-152639263D03*
D20*
X58706870Y-154764014D03*
%TD*%
%TO.C,SW22*%
X158764660Y-115012615D03*
D21*
X157626009Y-109448311D03*
D22*
X153857757Y-113697814D03*
D21*
X150834980Y-110258262D03*
D20*
X148950854Y-112383013D03*
%TD*%
%TO.C,SW27*%
X176343801Y-123009957D03*
D21*
X175205150Y-117445653D03*
D22*
X171436898Y-121695156D03*
D21*
X168414121Y-118255604D03*
D20*
X166529995Y-120380355D03*
%TD*%
%TO.C,SW3*%
X78381666Y-120591844D03*
D21*
X77243015Y-115027540D03*
D22*
X73474763Y-119277043D03*
D21*
X70451986Y-115837491D03*
D20*
X68567860Y-117962242D03*
%TD*%
%TO.C,SW8*%
X97398880Y-123222216D03*
D21*
X96260229Y-117657912D03*
D22*
X92491977Y-121907415D03*
D21*
X89469200Y-118467863D03*
D20*
X87585074Y-120592614D03*
%TD*%
%TO.C,SW13*%
X117032395Y-123552502D03*
D21*
X115893744Y-117988198D03*
D22*
X112125492Y-122237701D03*
D21*
X109102715Y-118798149D03*
D20*
X107218589Y-120922900D03*
%TD*%
%TO.C,SW23*%
X153834177Y-133413542D03*
D21*
X152695526Y-127849238D03*
D22*
X148927274Y-132098741D03*
D21*
X145904497Y-128659189D03*
D20*
X144020371Y-130783940D03*
%TD*%
%TO.C,SW18*%
X136460448Y-124649490D03*
D21*
X135321797Y-119085186D03*
D22*
X131553545Y-123334689D03*
D21*
X128530768Y-119895137D03*
D20*
X126646642Y-122019888D03*
%TD*%
%TO.C,SW28*%
X171413293Y-141410843D03*
D21*
X170274642Y-135846539D03*
D22*
X166506390Y-140096042D03*
D21*
X163483613Y-136656490D03*
D20*
X161599487Y-138781241D03*
%TD*%
%TO.C,SW4*%
X73451188Y-138992738D03*
D21*
X72312537Y-133428434D03*
D22*
X68544285Y-137677937D03*
D21*
X65521508Y-134238385D03*
D20*
X63637382Y-136363136D03*
%TD*%
%TO.C,SW9*%
X92468356Y-141623125D03*
D21*
X91329705Y-136058821D03*
D22*
X87561453Y-140308324D03*
D21*
X84538676Y-136868772D03*
D20*
X82654550Y-138993523D03*
%TD*%
%TO.C,SW10*%
X87537873Y-160024012D03*
D21*
X86399222Y-154459708D03*
D22*
X82630970Y-158709211D03*
D21*
X79608193Y-155269659D03*
D20*
X77724067Y-157394410D03*
%TD*%
%TO.C,SW15*%
X107171379Y-160354275D03*
D21*
X106032728Y-154789971D03*
D22*
X102264476Y-159039474D03*
D21*
X99241699Y-155599922D03*
D20*
X97357573Y-157724673D03*
%TD*%
%TO.C,SW20*%
X136606891Y-173172010D03*
D21*
X135468240Y-167607706D03*
D22*
X131699988Y-171857209D03*
D21*
X128677211Y-168417657D03*
D20*
X126793085Y-170542408D03*
%TD*%
%TO.C,SW11*%
X126893398Y-86750758D03*
D21*
X125754747Y-81186454D03*
D22*
X121986495Y-85435957D03*
D21*
X118963718Y-81996405D03*
D20*
X117079592Y-84121156D03*
%TD*%
%TO.C,SW2*%
X83312185Y-102190955D03*
D21*
X82173534Y-96626651D03*
D22*
X78405282Y-100876154D03*
D21*
X75382505Y-97436602D03*
D20*
X73498379Y-99561353D03*
%TD*%
%TO.C,SW12*%
X121962887Y-105151615D03*
D21*
X120824236Y-99587311D03*
D22*
X117055984Y-103836814D03*
D21*
X114033207Y-100397262D03*
D20*
X112149081Y-102522013D03*
%TD*%
%TO.C,SW21*%
X163695170Y-96611737D03*
D21*
X162556519Y-91047433D03*
D22*
X158788267Y-95296936D03*
D21*
X155765490Y-91857384D03*
D20*
X153881364Y-93982135D03*
%TD*%
%TO.C,SW17*%
X141390969Y-106248622D03*
D21*
X140252318Y-100684318D03*
D22*
X136484066Y-104933821D03*
D21*
X133461289Y-101494269D03*
D20*
X131577163Y-103619020D03*
%TD*%
%TO.C,SW16*%
X146321470Y-87847715D03*
D21*
X145182819Y-82283411D03*
D22*
X141414567Y-86532914D03*
D21*
X138391790Y-83093362D03*
D20*
X136507664Y-85218113D03*
%TD*%
%TO.C,SW6*%
X107259883Y-86420456D03*
D21*
X106121232Y-80856152D03*
D22*
X102352980Y-85105655D03*
D21*
X99330203Y-81666103D03*
D20*
X97446077Y-83790854D03*
%TD*%
%TO.C,SW7*%
X102329379Y-104821341D03*
D21*
X101190728Y-99257037D03*
D22*
X97422476Y-103506540D03*
D21*
X94399699Y-100066988D03*
D20*
X92515573Y-102191739D03*
%TD*%
%TO.C,SW26*%
X181274299Y-104609065D03*
D21*
X180135648Y-99044761D03*
D22*
X176367396Y-103294264D03*
D21*
X173344619Y-99854712D03*
D20*
X171460493Y-101979463D03*
%TD*%
%TO.C,SW31*%
X258539531Y-101979470D03*
D21*
X254771279Y-97729967D03*
D22*
X253632628Y-103294271D03*
D21*
X249295050Y-101826920D03*
D20*
X248725725Y-104609072D03*
%TD*%
%TO.C,SW62*%
X220080001Y-193000002D03*
D21*
X217540001Y-187920002D03*
D22*
X215000001Y-193000002D03*
D21*
X211190001Y-190460002D03*
D20*
X209920001Y-193000002D03*
%TD*%
%TO.C,SW45*%
X303206928Y-170542404D03*
D21*
X299438676Y-166292901D03*
D22*
X298300025Y-171857205D03*
D21*
X293962447Y-170389854D03*
D20*
X293393122Y-173172006D03*
%TD*%
%TO.C,SW49*%
X327711946Y-139323822D03*
D21*
X323943694Y-135074319D03*
D22*
X322805043Y-140638623D03*
D21*
X318467465Y-139171272D03*
D20*
X317898140Y-141953424D03*
%TD*%
D23*
%TO.C,J5*%
X220920009Y-127000009D03*
D18*
X223460008Y-127000008D03*
D17*
X226000008Y-127000008D03*
X228540008Y-127000008D03*
%TD*%
D19*
%TO.C,H7*%
X336482360Y-169625361D03*
%TD*%
D20*
%TO.C,SW47*%
X317850943Y-102522038D03*
D21*
X314082691Y-98272535D03*
D22*
X312944040Y-103836839D03*
D21*
X308606462Y-102369488D03*
D20*
X308037137Y-105151640D03*
%TD*%
%TO.C,SW63*%
X241935800Y-184421396D03*
D21*
X237196096Y-181291987D03*
D22*
X237536391Y-186961396D03*
D21*
X232966834Y-186666691D03*
D20*
X233136982Y-189501396D03*
%TD*%
%TO.C,SW61*%
X196863017Y-189501402D03*
D21*
X197203313Y-183831993D03*
D22*
X192463608Y-186961402D03*
D21*
X190434051Y-182856697D03*
D20*
X188064199Y-184421402D03*
%TD*%
%TO.C,SW33*%
X268400529Y-138781236D03*
D21*
X264632277Y-134531733D03*
D22*
X263493626Y-140096037D03*
D21*
X259156048Y-138628686D03*
D20*
X258586723Y-141410838D03*
%TD*%
D19*
%TO.C,H11*%
X228799997Y-150000000D03*
%TD*%
D20*
%TO.C,SW59*%
X366362646Y-136363135D03*
D21*
X362594394Y-132113632D03*
D22*
X361455743Y-137677936D03*
D21*
X357118165Y-136210585D03*
D20*
X356548840Y-138992737D03*
%TD*%
%TO.C,SW38*%
X285979678Y-130783934D03*
D21*
X282211426Y-126534431D03*
D22*
X281072775Y-132098735D03*
D21*
X276735197Y-130631384D03*
D20*
X276165872Y-133413536D03*
%TD*%
%TO.C,SW50*%
X332642444Y-157724699D03*
D21*
X328874192Y-153475196D03*
D22*
X327735541Y-159039500D03*
D21*
X323397963Y-157572149D03*
D20*
X322828638Y-160354301D03*
%TD*%
D24*
%TO.C,SW69*%
X227500002Y-64127208D03*
X230500002Y-64127208D03*
%TD*%
D19*
%TO.C,H10*%
X201200001Y-149999954D03*
%TD*%
D20*
%TO.C,SW58*%
X361432143Y-117962228D03*
D21*
X357663891Y-113712725D03*
D22*
X356525240Y-119277029D03*
D21*
X352187662Y-117809678D03*
D20*
X351618337Y-120591830D03*
%TD*%
D25*
%TO.C,U4*%
X220349999Y-144339999D03*
D26*
X220350000Y-146120000D03*
X220350000Y-147900000D03*
X220350000Y-149680000D03*
X220350000Y-151460000D03*
X220350000Y-153240000D03*
X220350000Y-155020000D03*
X220350000Y-156800000D03*
X209650000Y-157690000D03*
X209650000Y-155910000D03*
X209650000Y-154130000D03*
X209650000Y-152350000D03*
X209650000Y-150570000D03*
X209650000Y-148790000D03*
X209650000Y-147010000D03*
X209650000Y-145230000D03*
%TD*%
D20*
%TO.C,SW43*%
X303353356Y-122019891D03*
D21*
X299585104Y-117770388D03*
D22*
X298446453Y-123334692D03*
D21*
X294108875Y-121867341D03*
D20*
X293539550Y-124649493D03*
%TD*%
D27*
%TO.C,SW68*%
X200999999Y-65732209D03*
X200999999Y-62982209D03*
%TD*%
D20*
%TO.C,SW57*%
X356501635Y-99561346D03*
D21*
X352733383Y-95311843D03*
D22*
X351594732Y-100876147D03*
D21*
X347257154Y-99408796D03*
D20*
X346687829Y-102190948D03*
%TD*%
%TO.C,SW52*%
X337484457Y-102191741D03*
D21*
X333716205Y-97942238D03*
D22*
X332577554Y-103506542D03*
D21*
X328239976Y-102039191D03*
D20*
X327670651Y-104821343D03*
%TD*%
%TO.C,SW44*%
X308283872Y-140420770D03*
D21*
X304515620Y-136171267D03*
D22*
X303376969Y-141735571D03*
D21*
X299039391Y-140268220D03*
D20*
X298470066Y-143050372D03*
%TD*%
%TO.C,SW41*%
X293492357Y-85218121D03*
D21*
X289724105Y-80968618D03*
D22*
X288585454Y-86532922D03*
D21*
X284247876Y-85065571D03*
D20*
X283678551Y-87847723D03*
%TD*%
D28*
%TO.C,J2*%
X209379999Y-64657209D03*
D29*
X209379999Y-68657209D03*
D28*
X220619999Y-64657209D03*
D29*
X220619999Y-68657209D03*
%TD*%
D19*
%TO.C,H6*%
X93517638Y-169625356D03*
%TD*%
D20*
%TO.C,SW40*%
X282952850Y-177496509D03*
D21*
X278213146Y-174367100D03*
D22*
X278553441Y-180036509D03*
D21*
X273983884Y-179741804D03*
D20*
X274154032Y-182576509D03*
%TD*%
%TO.C,SW46*%
X312920433Y-84121159D03*
D21*
X309152181Y-79871656D03*
D22*
X308013530Y-85435960D03*
D21*
X303675952Y-83968609D03*
D20*
X303106627Y-86750761D03*
%TD*%
%TO.C,SW51*%
X332553948Y-83790870D03*
D21*
X328785696Y-79541367D03*
D22*
X327647045Y-85105671D03*
D21*
X323309467Y-83638320D03*
D20*
X322740142Y-86420472D03*
%TD*%
%TO.C,SW60*%
X371293143Y-154764015D03*
D21*
X367524891Y-150514512D03*
D22*
X366386240Y-156078816D03*
D21*
X362048662Y-154611465D03*
D20*
X361479337Y-157393617D03*
%TD*%
%TO.C,SW37*%
X281049177Y-112383048D03*
D21*
X277280925Y-108133545D03*
D22*
X276142274Y-113697849D03*
D21*
X271804696Y-112230498D03*
D20*
X271235371Y-115012650D03*
%TD*%
D30*
%TO.C,SW64*%
X226937997Y-219050005D03*
D11*
X226937997Y-203810005D03*
D20*
X220079997Y-212050005D03*
D21*
X217539997Y-206970005D03*
D22*
X214999997Y-212050005D03*
D21*
X211189997Y-209510005D03*
D20*
X209919997Y-212050005D03*
D30*
X203061997Y-219050005D03*
D11*
X203061997Y-203810005D03*
%TD*%
D19*
%TO.C,H4*%
X249399996Y-74557204D03*
%TD*%
D20*
%TO.C,SW54*%
X347345464Y-138993522D03*
D21*
X343577212Y-134744019D03*
D22*
X342438561Y-140308323D03*
D21*
X338100983Y-138840972D03*
D20*
X337531658Y-141623124D03*
%TD*%
%TO.C,SW55*%
X352275966Y-157394413D03*
D21*
X348507714Y-153144910D03*
D22*
X347369063Y-158709214D03*
D21*
X343031485Y-157241863D03*
D20*
X342462160Y-160024015D03*
%TD*%
%TO.C,SW48*%
X322781441Y-120922920D03*
D21*
X319013189Y-116673417D03*
D22*
X317874538Y-122237721D03*
D21*
X313536960Y-120770370D03*
D20*
X312967635Y-123552522D03*
%TD*%
D19*
%TO.C,H5*%
X180599997Y-74557207D03*
%TD*%
D20*
%TO.C,SW53*%
X342414954Y-120592629D03*
D21*
X338646702Y-116343126D03*
D22*
X337508051Y-121907430D03*
D21*
X333170473Y-120440079D03*
D20*
X332601148Y-123222231D03*
%TD*%
%TO.C,SW35*%
X265188768Y-189455801D03*
D21*
X259800615Y-187659749D03*
D22*
X261596666Y-193047903D03*
D21*
X257106538Y-193945929D03*
D20*
X258004564Y-196640005D03*
%TD*%
%TO.C,SW34*%
X273331034Y-157182125D03*
D21*
X269562782Y-152932622D03*
D22*
X268424131Y-158496926D03*
D21*
X264086553Y-157029575D03*
D20*
X263517228Y-159811727D03*
%TD*%
D23*
%TO.C,J1*%
X234500000Y-98425000D03*
D17*
X234499999Y-95884999D03*
D18*
X234499999Y-93344999D03*
%TD*%
D20*
%TO.C,SW42*%
X298422857Y-103619004D03*
D21*
X294654605Y-99369501D03*
D22*
X293515954Y-104933805D03*
D21*
X289178376Y-103466454D03*
D20*
X288609051Y-106248606D03*
%TD*%
%TO.C,SW56*%
X351571145Y-81160467D03*
D21*
X347802893Y-76910964D03*
D22*
X346664242Y-82475268D03*
D21*
X342326664Y-81007917D03*
D20*
X341757339Y-83790069D03*
%TD*%
%TO.C,SW36*%
X276118654Y-93982167D03*
D21*
X272350402Y-89732664D03*
D22*
X271211751Y-95296968D03*
D21*
X266874173Y-93829617D03*
D20*
X266304848Y-96611769D03*
%TD*%
%TO.C,SW39*%
X290910173Y-149184818D03*
D21*
X287141921Y-144935315D03*
D22*
X286003270Y-150499619D03*
D21*
X281665692Y-149032268D03*
D20*
X281096367Y-151814420D03*
%TD*%
%TO.C,SW32*%
X263470028Y-120380363D03*
D21*
X259701776Y-116130860D03*
D22*
X258563125Y-121695164D03*
D21*
X254225547Y-120227813D03*
D20*
X253656222Y-123009965D03*
%TD*%
M02*
