%TF.GenerationSoftware,KiCad,Pcbnew,(7.0.0)*%
%TF.CreationDate,2023-04-03T14:41:28+01:00*%
%TF.ProjectId,Honeydew,486f6e65-7964-4657-972e-6b696361645f,rev?*%
%TF.SameCoordinates,Original*%
%TF.FileFunction,Soldermask,Top*%
%TF.FilePolarity,Negative*%
%FSLAX46Y46*%
G04 Gerber Fmt 4.6, Leading zero omitted, Abs format (unit mm)*
G04 Created by KiCad (PCBNEW (7.0.0)) date 2023-04-03 14:41:28*
%MOMM*%
%LPD*%
G01*
G04 APERTURE LIST*
G04 Aperture macros list*
%AMRoundRect*
0 Rectangle with rounded corners*
0 $1 Rounding radius*
0 $2 $3 $4 $5 $6 $7 $8 $9 X,Y pos of 4 corners*
0 Add a 4 corners polygon primitive as box body*
4,1,4,$2,$3,$4,$5,$6,$7,$8,$9,$2,$3,0*
0 Add four circle primitives for the rounded corners*
1,1,$1+$1,$2,$3*
1,1,$1+$1,$4,$5*
1,1,$1+$1,$6,$7*
1,1,$1+$1,$8,$9*
0 Add four rect primitives between the rounded corners*
20,1,$1+$1,$2,$3,$4,$5,0*
20,1,$1+$1,$4,$5,$6,$7,0*
20,1,$1+$1,$6,$7,$8,$9,0*
20,1,$1+$1,$8,$9,$2,$3,0*%
%AMHorizOval*
0 Thick line with rounded ends*
0 $1 width*
0 $2 $3 position (X,Y) of the first rounded end (center of the circle)*
0 $4 $5 position (X,Y) of the second rounded end (center of the circle)*
0 Add line between two ends*
20,1,$1,$2,$3,$4,$5,0*
0 Add two circle primitives to create the rounded ends*
1,1,$1,$2,$3*
1,1,$1,$4,$5*%
G04 Aperture macros list end*
%ADD10R,2.500000X6.000000*%
%ADD11C,3.500000*%
%ADD12C,5.600000*%
%ADD13C,2.000000*%
%ADD14C,1.152000*%
%ADD15O,1.700000X1.700000*%
%ADD16R,1.700000X1.700000*%
%ADD17C,4.000000*%
%ADD18O,1.750000X1.200000*%
%ADD19RoundRect,0.250000X0.625000X-0.350000X0.625000X0.350000X-0.625000X0.350000X-0.625000X-0.350000X0*%
%ADD20C,5.700000*%
%ADD21C,1.750000*%
%ADD22C,3.000000*%
%ADD23C,3.987800*%
%ADD24HorizOval,1.000000X-0.086576X0.390518X0.086576X-0.390518X0*%
%ADD25HorizOval,1.000000X-0.129864X0.585778X0.129864X-0.585778X0*%
%ADD26O,1.000000X1.800000*%
%ADD27O,1.000000X2.200000*%
%ADD28C,1.200000*%
%ADD29R,1.200000X1.200000*%
%ADD30HorizOval,1.000000X-0.129864X-0.585778X0.129864X0.585778X0*%
%ADD31HorizOval,1.000000X-0.086576X-0.390518X0.086576X0.390518X0*%
G04 APERTURE END LIST*
%TO.C,A1*%
G36*
X133683357Y-33648997D02*
G01*
X134222056Y-33648997D01*
X134242501Y-34171750D01*
X134300061Y-34306673D01*
X134332520Y-34223458D01*
X134379831Y-33613494D01*
X134337646Y-33207458D01*
X134270735Y-33066683D01*
X134228645Y-33371977D01*
X134222056Y-33648997D01*
X133683357Y-33648997D01*
X133671508Y-33397201D01*
X133718710Y-32770792D01*
X133876062Y-32402524D01*
X133989759Y-32286224D01*
X134429553Y-32084631D01*
X134654875Y-32118120D01*
X134823821Y-32477399D01*
X134899964Y-33194942D01*
X134883250Y-34129551D01*
X134773626Y-35140030D01*
X134656249Y-35754573D01*
X134527355Y-36757529D01*
X134669329Y-37400743D01*
X135064612Y-37649569D01*
X135559843Y-37537574D01*
X136079645Y-37222770D01*
X136126438Y-36910174D01*
X135809001Y-36569996D01*
X135460449Y-36075491D01*
X135530465Y-35809581D01*
X136168845Y-35809581D01*
X136280399Y-36272283D01*
X136599114Y-36763493D01*
X137050820Y-37278996D01*
X137395419Y-37565290D01*
X137460002Y-37585997D01*
X137739169Y-37403213D01*
X138172035Y-36946706D01*
X138320889Y-36763493D01*
X138699465Y-36135819D01*
X138726379Y-35735759D01*
X138424946Y-35632767D01*
X137995271Y-35793402D01*
X137370874Y-35947920D01*
X136924732Y-35793402D01*
X136391393Y-35626803D01*
X136168845Y-35809581D01*
X135530465Y-35809581D01*
X135600598Y-35543223D01*
X135936001Y-35172997D01*
X136335358Y-34864492D01*
X136636602Y-34910763D01*
X136952002Y-35172996D01*
X137349113Y-35479941D01*
X137649943Y-35436114D01*
X137976966Y-35164884D01*
X138364112Y-34861669D01*
X138652467Y-34893164D01*
X139040602Y-35243708D01*
X139402282Y-35689367D01*
X139406602Y-36085604D01*
X139255678Y-36409968D01*
X139070111Y-37027788D01*
X139201508Y-37463531D01*
X139506992Y-37585997D01*
X139639092Y-37356586D01*
X139725894Y-36765946D01*
X139746002Y-36218441D01*
X139746001Y-34850886D01*
X140913306Y-34890178D01*
X141878201Y-35031789D01*
X142410184Y-35380188D01*
X142636030Y-35872057D01*
X142831264Y-36595157D01*
X142963406Y-37365709D01*
X142999980Y-37999930D01*
X142926245Y-38300420D01*
X142690004Y-38288164D01*
X142460564Y-37918658D01*
X142311390Y-37338259D01*
X142289891Y-37032639D01*
X142111107Y-36314826D01*
X141673670Y-35764235D01*
X141133795Y-35553997D01*
X140715067Y-35780996D01*
X140392349Y-36354098D01*
X140254459Y-37111454D01*
X140254002Y-37157197D01*
X140104374Y-37771258D01*
X139868237Y-38097951D01*
X139503252Y-38272065D01*
X139107994Y-38074271D01*
X138979237Y-37962685D01*
X138581334Y-37657073D01*
X138278871Y-37707714D01*
X137972766Y-37962685D01*
X137539983Y-38259142D01*
X137190398Y-38178644D01*
X137075529Y-38091115D01*
X136719126Y-37907605D01*
X136226292Y-37937941D01*
X135643813Y-38106600D01*
X134966579Y-38300477D01*
X134587619Y-38293576D01*
X134335224Y-38077946D01*
X134310533Y-38044868D01*
X134034628Y-37788041D01*
X133669486Y-37835559D01*
X133347093Y-37990594D01*
X132659045Y-38195245D01*
X131717040Y-38284154D01*
X131326337Y-38279458D01*
X130517102Y-38212282D01*
X130088992Y-38071374D01*
X129915681Y-37806557D01*
X129896839Y-37711691D01*
X129724128Y-36766953D01*
X129551585Y-36273887D01*
X129358143Y-36176608D01*
X129324555Y-36193599D01*
X129167020Y-36523443D01*
X129082537Y-37153144D01*
X129078002Y-37346987D01*
X129020880Y-37977648D01*
X128878423Y-38324710D01*
X128824002Y-38347997D01*
X128663975Y-38122881D01*
X128575910Y-37561461D01*
X128570002Y-37346987D01*
X128512740Y-36672004D01*
X128370502Y-36241095D01*
X128323448Y-36193599D01*
X128124026Y-36235136D01*
X127948994Y-36666415D01*
X127777692Y-37542309D01*
X127751407Y-37712997D01*
X127614758Y-38029580D01*
X127241071Y-38198294D01*
X126500262Y-38274627D01*
X126426418Y-38278168D01*
X125621507Y-38254801D01*
X124998513Y-38130529D01*
X124822543Y-38040501D01*
X124469149Y-37889151D01*
X124243220Y-38108206D01*
X123951497Y-38326003D01*
X123671168Y-38093933D01*
X123438061Y-37469541D01*
X123294837Y-36584948D01*
X123266902Y-36386521D01*
X124566014Y-36386521D01*
X124725993Y-36990548D01*
X125067567Y-37454956D01*
X125395002Y-37585997D01*
X125776595Y-37377040D01*
X126085205Y-36931271D01*
X126222251Y-36221898D01*
X125996230Y-35675697D01*
X125470073Y-35429820D01*
X125395002Y-35426997D01*
X124889173Y-35623985D01*
X124674426Y-35851771D01*
X124566014Y-36386521D01*
X123266902Y-36386521D01*
X123184903Y-35804070D01*
X123013698Y-35414789D01*
X122726395Y-35300743D01*
X122689399Y-35299997D01*
X122231876Y-35533229D01*
X121891461Y-36157847D01*
X121721680Y-37061231D01*
X121712002Y-37356504D01*
X121566888Y-38029883D01*
X121203727Y-38333010D01*
X120730788Y-38284965D01*
X120256342Y-37904829D01*
X119888659Y-37211685D01*
X119834500Y-37025616D01*
X119607998Y-36134000D01*
X118605514Y-37136484D01*
X117184370Y-38263936D01*
X115635174Y-38911942D01*
X114056641Y-39104418D01*
X113001974Y-39036147D01*
X112283751Y-38797018D01*
X112024641Y-38620026D01*
X111695699Y-38241982D01*
X112137298Y-38241982D01*
X112566844Y-38514329D01*
X112631502Y-38545991D01*
X113765097Y-38818073D01*
X115158290Y-38678610D01*
X115946114Y-38453042D01*
X116981469Y-37933906D01*
X118052680Y-37124625D01*
X119032242Y-36150813D01*
X119792649Y-35138084D01*
X120191649Y-34270450D01*
X120378618Y-33241386D01*
X120357515Y-32413427D01*
X120137663Y-31898677D01*
X119986423Y-31802225D01*
X119770687Y-31864018D01*
X119814231Y-32317366D01*
X119814898Y-32320028D01*
X119839150Y-33240865D01*
X119564750Y-34322658D01*
X119054528Y-35369438D01*
X118670802Y-35888445D01*
X118013742Y-36495734D01*
X117142082Y-37128073D01*
X116626894Y-37437261D01*
X115797823Y-37843510D01*
X115089209Y-38038802D01*
X114254303Y-38074306D01*
X113688405Y-38046610D01*
X112686733Y-38013482D01*
X112173479Y-38076819D01*
X112137298Y-38241982D01*
X111695699Y-38241982D01*
X111627891Y-38164052D01*
X111679002Y-37877957D01*
X111893512Y-37686249D01*
X112752921Y-37686249D01*
X113210914Y-37845958D01*
X113984101Y-37844005D01*
X114913488Y-37700965D01*
X115840081Y-37437413D01*
X116345811Y-37221309D01*
X117650735Y-36357822D01*
X118683875Y-35270109D01*
X119337941Y-34076311D01*
X119410729Y-33846439D01*
X119635694Y-32884797D01*
X119651080Y-32364689D01*
X119528272Y-32251996D01*
X119279301Y-32400013D01*
X118720998Y-32801175D01*
X117940607Y-33391153D01*
X117178772Y-33984409D01*
X116129694Y-34808399D01*
X115085876Y-35623242D01*
X114197313Y-36312072D01*
X113790087Y-36624662D01*
X113181918Y-37129817D01*
X112811305Y-37520197D01*
X112752921Y-37686249D01*
X111893512Y-37686249D01*
X112173535Y-37435992D01*
X112945429Y-36804129D01*
X113920279Y-36037686D01*
X115023681Y-35191984D01*
X116181234Y-34322345D01*
X117318533Y-33484087D01*
X118361174Y-32732532D01*
X119234755Y-32122999D01*
X119864872Y-31710809D01*
X120177121Y-31551283D01*
X120188002Y-31551357D01*
X120518806Y-31860020D01*
X120655341Y-32609277D01*
X120595459Y-33769454D01*
X120427094Y-34855541D01*
X120263168Y-35918766D01*
X120249465Y-36644202D01*
X120384444Y-37178865D01*
X120402331Y-37219363D01*
X120704472Y-37681181D01*
X120950852Y-37663838D01*
X121122673Y-37194824D01*
X121201135Y-36301634D01*
X121204002Y-36047006D01*
X121242903Y-35241370D01*
X121344342Y-34695832D01*
X121458002Y-34537997D01*
X121704680Y-34725452D01*
X121712002Y-34784025D01*
X121897579Y-34950504D01*
X122029502Y-34932240D01*
X122919035Y-34680257D01*
X123434259Y-34636735D01*
X123680501Y-34842770D01*
X123763090Y-35339456D01*
X123773466Y-35612657D01*
X123814264Y-36150461D01*
X123884751Y-36295067D01*
X123926688Y-36188997D01*
X124306705Y-35365295D01*
X124872723Y-34927084D01*
X125512917Y-34848315D01*
X126115459Y-35102943D01*
X126568523Y-35664920D01*
X126760284Y-36508201D01*
X126746950Y-36845892D01*
X126778565Y-37482349D01*
X126982502Y-37772487D01*
X127177179Y-37677941D01*
X127277702Y-37184652D01*
X127300002Y-36479153D01*
X127364892Y-35485580D01*
X127568357Y-34967780D01*
X127923589Y-34909240D01*
X128332007Y-35187481D01*
X128726571Y-35486153D01*
X129032219Y-35424904D01*
X129315996Y-35187481D01*
X129807348Y-34886504D01*
X130139031Y-35036083D01*
X130324754Y-35651829D01*
X130375831Y-36394487D01*
X130403661Y-37712997D01*
X130621210Y-36606410D01*
X130726888Y-36229034D01*
X131364002Y-36229034D01*
X131464434Y-36455729D01*
X131839358Y-36333400D01*
X131857855Y-36323567D01*
X132321131Y-36009372D01*
X132496999Y-35824182D01*
X132461917Y-35500580D01*
X132373018Y-35422681D01*
X131976442Y-35425993D01*
X131573754Y-35732145D01*
X131366269Y-36180257D01*
X131364002Y-36229034D01*
X130726888Y-36229034D01*
X130905576Y-35590936D01*
X131299295Y-35010893D01*
X131854246Y-34796973D01*
X131979302Y-34791996D01*
X132708933Y-34955152D01*
X133069678Y-35372138D01*
X133048487Y-35934234D01*
X132632312Y-36532718D01*
X132225246Y-36841150D01*
X131677668Y-37214352D01*
X131526553Y-37448890D01*
X131714943Y-37635172D01*
X131722371Y-37639356D01*
X132395912Y-37758669D01*
X133051858Y-37443159D01*
X133497768Y-36869496D01*
X133708409Y-36142161D01*
X133752762Y-35055266D01*
X133718867Y-34403591D01*
X133683357Y-33648997D01*
G37*
G36*
X123736621Y-33715284D02*
G01*
X123744002Y-33775997D01*
X123550714Y-34022616D01*
X123490002Y-34029997D01*
X123243382Y-33836709D01*
X123236002Y-33775997D01*
X123429289Y-33529377D01*
X123490002Y-33521997D01*
X123736621Y-33715284D01*
G37*
G36*
X118830690Y-33423606D02*
G01*
X118791002Y-33521997D01*
X118562755Y-33764308D01*
X118522011Y-33775997D01*
X118412914Y-33579479D01*
X118410002Y-33521997D01*
X118605265Y-33277757D01*
X118678992Y-33267997D01*
X118830690Y-33423606D01*
G37*
G36*
X116358432Y-35438607D02*
G01*
X116378002Y-35524016D01*
X116192644Y-35883090D01*
X116124002Y-35934997D01*
X115889571Y-35923386D01*
X115870002Y-35837977D01*
X116055359Y-35478903D01*
X116124002Y-35426997D01*
X116358432Y-35438607D01*
G37*
G36*
X114600002Y-36442997D02*
G01*
X114842313Y-36671243D01*
X114854002Y-36711987D01*
X114657484Y-36821084D01*
X114600002Y-36823997D01*
X114355762Y-36628733D01*
X114346002Y-36555006D01*
X114501611Y-36403308D01*
X114600002Y-36442997D01*
G37*
G36*
X117817335Y-34114663D02*
G01*
X117847734Y-34416102D01*
X117817335Y-34453330D01*
X117666332Y-34418463D01*
X117648002Y-34283997D01*
X117740936Y-34074926D01*
X117817335Y-34114663D01*
G37*
G36*
X117563335Y-35384663D02*
G01*
X117528468Y-35535666D01*
X117394002Y-35553997D01*
X117184931Y-35461062D01*
X117224668Y-35384663D01*
X117526107Y-35354264D01*
X117563335Y-35384663D01*
G37*
%TO.C,A2*%
G36*
X201204304Y-35458563D02*
G01*
X202762118Y-35458563D01*
X202766669Y-35735338D01*
X202772148Y-36006733D01*
X202780142Y-36360192D01*
X202789784Y-36645399D01*
X202802779Y-36873478D01*
X202820826Y-37055551D01*
X202845628Y-37202742D01*
X202878887Y-37326174D01*
X202922304Y-37436971D01*
X202977580Y-37546255D01*
X203018707Y-37618392D01*
X203203983Y-37857271D01*
X203452563Y-38054443D01*
X203758368Y-38206757D01*
X204115322Y-38311063D01*
X204447658Y-38359055D01*
X204566720Y-38369217D01*
X204586564Y-38805503D01*
X204606408Y-39241788D01*
X204725470Y-39265561D01*
X204870660Y-39276574D01*
X205015085Y-39259417D01*
X205122823Y-39218813D01*
X205132267Y-39212054D01*
X205158395Y-39154455D01*
X205174667Y-39027798D01*
X205181561Y-38827747D01*
X205181877Y-38761232D01*
X205181877Y-38349373D01*
X205324976Y-38349373D01*
X205482980Y-38333866D01*
X205679517Y-38293058D01*
X205881337Y-38235517D01*
X206055189Y-38169813D01*
X206094382Y-38151092D01*
X206312337Y-38007421D01*
X206520713Y-37812490D01*
X206693626Y-37592721D01*
X206767734Y-37463739D01*
X206826987Y-37327966D01*
X206873734Y-37183374D01*
X206909313Y-37018838D01*
X206935060Y-36823232D01*
X206952311Y-36585431D01*
X206962402Y-36294309D01*
X206966669Y-35938740D01*
X206967028Y-35804311D01*
X206966368Y-35510364D01*
X206963400Y-35286451D01*
X206957553Y-35123249D01*
X206948257Y-35011435D01*
X206934941Y-34941688D01*
X206917033Y-34904684D01*
X206911631Y-34899340D01*
X206837425Y-34873592D01*
X206708849Y-34863022D01*
X206623897Y-34864714D01*
X206392345Y-34876717D01*
X206372502Y-35948279D01*
X206352658Y-37019842D01*
X206240994Y-37247235D01*
X206093804Y-37477137D01*
X205902715Y-37649726D01*
X205660068Y-37770051D01*
X205358200Y-37843159D01*
X205330705Y-37847198D01*
X205181877Y-37868133D01*
X205181877Y-36407050D01*
X205181433Y-36017554D01*
X205179923Y-35700227D01*
X205177078Y-35447864D01*
X205172630Y-35253264D01*
X205166311Y-35109224D01*
X205157851Y-35008540D01*
X205146984Y-34944009D01*
X205133439Y-34908429D01*
X205125694Y-34899340D01*
X205051487Y-34873592D01*
X204922912Y-34863022D01*
X204837959Y-34864714D01*
X204606408Y-34876717D01*
X204596420Y-36325311D01*
X204593700Y-36657779D01*
X204590357Y-36965768D01*
X204586555Y-37240121D01*
X204582455Y-37471684D01*
X204578219Y-37651300D01*
X204574009Y-37769815D01*
X204570004Y-37818031D01*
X204522568Y-37841121D01*
X204420545Y-37839883D01*
X204283609Y-37818019D01*
X204131435Y-37779230D01*
X203983696Y-37727219D01*
X203910854Y-37694011D01*
X203701307Y-37549056D01*
X203541238Y-37348482D01*
X203449146Y-37156023D01*
X203427511Y-37086392D01*
X203409962Y-36995689D01*
X203395772Y-36873978D01*
X203384209Y-36711321D01*
X203374547Y-36497783D01*
X203366054Y-36223428D01*
X203359070Y-35928436D01*
X203336408Y-34876717D01*
X203104856Y-34864714D01*
X203002517Y-34859107D01*
X202922027Y-34859662D01*
X202860962Y-34874703D01*
X202816896Y-34912555D01*
X202787404Y-34981542D01*
X202770060Y-35089989D01*
X202762440Y-35246221D01*
X202762118Y-35458563D01*
X201204304Y-35458563D01*
X201205018Y-35442264D01*
X201216753Y-35174373D01*
X200786315Y-35174373D01*
X200556216Y-35169579D01*
X200398149Y-35155406D01*
X200315250Y-35132166D01*
X200308252Y-35126748D01*
X200275174Y-35051190D01*
X200262199Y-34934637D01*
X200269327Y-34812878D01*
X200296558Y-34721706D01*
X200308252Y-34706060D01*
X200376499Y-34681116D01*
X200520371Y-34665188D01*
X200736596Y-34658603D01*
X200784502Y-34658436D01*
X201213127Y-34658436D01*
X201213127Y-34467068D01*
X201250813Y-34180466D01*
X201361521Y-33920979D01*
X201509649Y-33729065D01*
X201686779Y-33569493D01*
X201860900Y-33469091D01*
X202060802Y-33414302D01*
X202214919Y-33396960D01*
X202483127Y-33377770D01*
X202483127Y-32954478D01*
X202487991Y-32727483D01*
X202502334Y-32571376D01*
X202525785Y-32489841D01*
X202530752Y-32483560D01*
X202606309Y-32450483D01*
X202722863Y-32437508D01*
X202844622Y-32444636D01*
X202935794Y-32471867D01*
X202951439Y-32483560D01*
X202976367Y-32551815D01*
X202992288Y-32695832D01*
X202998889Y-32912478D01*
X202999064Y-32961624D01*
X202999064Y-33392062D01*
X203266955Y-33380327D01*
X203534845Y-33368592D01*
X203546196Y-32933489D01*
X203556738Y-32704904D01*
X203574358Y-32551324D01*
X203598823Y-32474577D01*
X203605727Y-32467768D01*
X203688399Y-32443506D01*
X203806783Y-32437409D01*
X203925930Y-32448155D01*
X204010891Y-32474420D01*
X204023001Y-32483560D01*
X204047930Y-32551815D01*
X204063851Y-32695832D01*
X204070452Y-32912478D01*
X204070627Y-32961624D01*
X204070627Y-33392062D01*
X204338517Y-33380327D01*
X204606408Y-33368592D01*
X204617758Y-32933489D01*
X204628301Y-32704904D01*
X204645921Y-32551324D01*
X204670385Y-32474577D01*
X204677289Y-32467768D01*
X204745252Y-32448344D01*
X204855758Y-32437387D01*
X204892746Y-32436543D01*
X204992223Y-32443592D01*
X205061365Y-32473518D01*
X205105545Y-32538217D01*
X205130135Y-32649589D01*
X205140507Y-32819530D01*
X205142189Y-32988951D01*
X205142189Y-33388436D01*
X205400158Y-33388436D01*
X205658127Y-33388436D01*
X205658127Y-32988951D01*
X205661467Y-32768303D01*
X205675071Y-32614981D01*
X205704311Y-32517088D01*
X205754560Y-32462726D01*
X205831189Y-32439996D01*
X205907570Y-32436543D01*
X206023781Y-32443810D01*
X206108799Y-32461189D01*
X206123026Y-32467768D01*
X206149107Y-32525696D01*
X206168401Y-32660899D01*
X206180673Y-32871547D01*
X206182557Y-32933489D01*
X206193908Y-33368592D01*
X206461798Y-33380327D01*
X206729689Y-33392062D01*
X206729689Y-32961624D01*
X206734483Y-32731525D01*
X206748656Y-32573458D01*
X206771896Y-32490559D01*
X206777314Y-32483560D01*
X206847774Y-32453503D01*
X206961441Y-32438623D01*
X207083369Y-32440245D01*
X207178607Y-32459691D01*
X207194589Y-32467768D01*
X207220670Y-32525696D01*
X207239964Y-32660899D01*
X207252236Y-32871547D01*
X207254120Y-32933489D01*
X207265470Y-33368592D01*
X207527474Y-33391136D01*
X207817604Y-33452082D01*
X208066074Y-33578339D01*
X208268024Y-33764893D01*
X208418595Y-34006726D01*
X208512929Y-34298823D01*
X208534020Y-34430232D01*
X208561026Y-34658436D01*
X208990486Y-34658436D01*
X209191474Y-34659776D01*
X209326296Y-34668832D01*
X209408163Y-34693158D01*
X209450284Y-34740306D01*
X209465869Y-34817831D01*
X209468127Y-34931556D01*
X209461866Y-35031950D01*
X209434661Y-35100241D01*
X209373874Y-35142518D01*
X209266869Y-35164867D01*
X209101009Y-35173377D01*
X208964095Y-35174373D01*
X208555314Y-35174373D01*
X208555314Y-35450886D01*
X208555314Y-35727398D01*
X209001798Y-35738620D01*
X209448283Y-35749842D01*
X209460505Y-35941441D01*
X209463466Y-36066002D01*
X209445549Y-36151073D01*
X209394650Y-36204126D01*
X209298662Y-36232632D01*
X209145480Y-36244063D01*
X208967173Y-36245936D01*
X208555314Y-36245936D01*
X208555314Y-36522448D01*
X208555314Y-36798961D01*
X209001798Y-36810183D01*
X209448283Y-36821404D01*
X209448283Y-37039686D01*
X209448283Y-37257967D01*
X209001798Y-37269188D01*
X208555314Y-37280410D01*
X208555314Y-37556923D01*
X208555314Y-37833436D01*
X208944604Y-37833436D01*
X209159902Y-37837076D01*
X209307701Y-37852521D01*
X209399717Y-37886558D01*
X209447668Y-37945974D01*
X209463271Y-38037556D01*
X209460731Y-38132406D01*
X209448283Y-38329529D01*
X209001798Y-38340751D01*
X208555314Y-38351973D01*
X208555314Y-38628485D01*
X208555314Y-38904998D01*
X208964095Y-38904998D01*
X209172489Y-38908014D01*
X209314246Y-38921120D01*
X209402002Y-38950404D01*
X209448394Y-39001954D01*
X209466059Y-39081857D01*
X209468127Y-39147815D01*
X209465783Y-39262742D01*
X209449945Y-39339835D01*
X209407404Y-39386648D01*
X209324949Y-39410733D01*
X209189372Y-39419645D01*
X208990486Y-39420936D01*
X208561026Y-39420936D01*
X208533735Y-39649139D01*
X208462156Y-39965131D01*
X208330651Y-40229677D01*
X208141782Y-40440212D01*
X207898112Y-40594176D01*
X207602203Y-40689004D01*
X207473830Y-40709329D01*
X207245627Y-40736335D01*
X207245627Y-41165795D01*
X207244286Y-41366783D01*
X207235230Y-41501605D01*
X207210904Y-41583472D01*
X207163756Y-41625593D01*
X207086231Y-41641178D01*
X206972506Y-41643436D01*
X206872112Y-41637175D01*
X206803821Y-41609970D01*
X206761544Y-41549183D01*
X206739195Y-41442178D01*
X206730685Y-41276318D01*
X206729689Y-41139404D01*
X206729689Y-40730623D01*
X206451877Y-40730623D01*
X206174064Y-40730623D01*
X206174064Y-41162939D01*
X206172792Y-41364631D01*
X206163864Y-41500119D01*
X206139615Y-41582572D01*
X206092380Y-41625162D01*
X206014493Y-41641060D01*
X205898287Y-41643435D01*
X205894402Y-41643436D01*
X205798378Y-41634761D01*
X205732126Y-41600759D01*
X205690343Y-41529460D01*
X205667725Y-41408894D01*
X205658966Y-41227091D01*
X205658127Y-41110263D01*
X205658127Y-40730623D01*
X205400158Y-40730623D01*
X205142189Y-40730623D01*
X205142189Y-41110263D01*
X205138345Y-41326949D01*
X205123277Y-41476450D01*
X205091681Y-41570736D01*
X205038252Y-41621777D01*
X204957686Y-41641541D01*
X204905914Y-41643436D01*
X204788523Y-41641249D01*
X204709666Y-41625910D01*
X204661676Y-41584248D01*
X204636887Y-41503092D01*
X204627634Y-41369271D01*
X204626252Y-41169615D01*
X204626252Y-41162939D01*
X204626252Y-40730623D01*
X204348439Y-40730623D01*
X204070627Y-40730623D01*
X204070627Y-41139404D01*
X204067611Y-41347798D01*
X204054505Y-41489555D01*
X204025220Y-41577311D01*
X203973671Y-41623703D01*
X203893768Y-41641368D01*
X203827810Y-41643436D01*
X203713165Y-41641125D01*
X203636152Y-41625413D01*
X203589283Y-41583129D01*
X203565075Y-41501102D01*
X203556038Y-41366163D01*
X203554689Y-41165141D01*
X203554689Y-41162939D01*
X203554689Y-40730623D01*
X203276877Y-40730623D01*
X202999064Y-40730623D01*
X202999064Y-41139404D01*
X202994051Y-41360026D01*
X202979351Y-41512157D01*
X202955472Y-41590927D01*
X202951439Y-41595811D01*
X202883577Y-41626147D01*
X202773917Y-41642511D01*
X202741095Y-41643436D01*
X202626462Y-41632452D01*
X202543247Y-41605146D01*
X202530752Y-41595811D01*
X202505607Y-41527682D01*
X202489584Y-41385755D01*
X202483217Y-41175140D01*
X202483127Y-41142260D01*
X202483127Y-40736335D01*
X202254923Y-40709329D01*
X201942801Y-40639472D01*
X201680713Y-40512223D01*
X201473058Y-40331898D01*
X201324234Y-40102814D01*
X201238638Y-39829285D01*
X201222126Y-39695778D01*
X201202461Y-39420936D01*
X200755634Y-39420936D01*
X200550389Y-39419750D01*
X200411544Y-39411420D01*
X200326122Y-39388787D01*
X200281146Y-39344690D01*
X200263641Y-39271970D01*
X200260630Y-39163468D01*
X200260627Y-39147815D01*
X200266465Y-39049232D01*
X200292257Y-38981545D01*
X200350415Y-38939019D01*
X200453352Y-38915920D01*
X200613480Y-38906515D01*
X200786315Y-38904998D01*
X201216753Y-38904998D01*
X201205018Y-38637107D01*
X201193283Y-38369217D01*
X200758180Y-38357866D01*
X200529595Y-38347324D01*
X200376015Y-38329704D01*
X200299268Y-38305239D01*
X200292459Y-38298335D01*
X200264960Y-38204186D01*
X200264282Y-38079005D01*
X200287526Y-37961002D01*
X200322993Y-37895802D01*
X200371162Y-37866016D01*
X200453779Y-37846957D01*
X200585341Y-37836734D01*
X200780351Y-37833455D01*
X200801056Y-37833436D01*
X201216753Y-37833436D01*
X201205018Y-37565545D01*
X201193283Y-37297654D01*
X200758180Y-37286304D01*
X200552378Y-37279050D01*
X200413034Y-37265706D01*
X200327228Y-37239853D01*
X200282045Y-37195072D01*
X200264565Y-37124946D01*
X200261842Y-37039686D01*
X200265846Y-36942692D01*
X200286469Y-36876552D01*
X200336629Y-36834847D01*
X200429243Y-36811159D01*
X200577229Y-36799070D01*
X200758180Y-36793067D01*
X201193283Y-36781717D01*
X201205018Y-36513826D01*
X201216753Y-36245936D01*
X200815456Y-36245936D01*
X200594403Y-36242620D01*
X200440694Y-36229110D01*
X200342448Y-36200056D01*
X200287780Y-36150110D01*
X200264810Y-36073925D01*
X200261234Y-35996492D01*
X200268501Y-35880281D01*
X200285880Y-35795263D01*
X200292459Y-35781036D01*
X200350387Y-35754955D01*
X200485590Y-35735661D01*
X200696238Y-35723389D01*
X200758180Y-35721505D01*
X201193283Y-35710154D01*
X201204304Y-35458563D01*
G37*
G36*
X238573161Y-38099473D02*
G01*
X238632183Y-38149399D01*
X238638439Y-38175818D01*
X238626778Y-38231629D01*
X238594122Y-38351162D01*
X238543965Y-38523323D01*
X238479797Y-38737017D01*
X238405111Y-38981149D01*
X238323400Y-39244623D01*
X238238154Y-39516344D01*
X238152867Y-39785219D01*
X238071030Y-40040150D01*
X237996136Y-40270045D01*
X237931676Y-40463806D01*
X237881143Y-40610341D01*
X237848029Y-40698552D01*
X237838063Y-40718763D01*
X237777121Y-40745956D01*
X237665905Y-40763504D01*
X237533057Y-40770275D01*
X237407219Y-40765134D01*
X237317035Y-40746949D01*
X237302949Y-40739937D01*
X237279135Y-40694801D01*
X237237740Y-40584541D01*
X237182513Y-40420490D01*
X237117205Y-40213979D01*
X237045567Y-39976340D01*
X237010886Y-39857498D01*
X236938189Y-39607726D01*
X236871469Y-39382188D01*
X236814272Y-39192573D01*
X236770144Y-39050567D01*
X236742628Y-38967860D01*
X236736549Y-38952989D01*
X236718950Y-38974533D01*
X236684880Y-39062968D01*
X236637516Y-39208281D01*
X236580032Y-39400458D01*
X236515603Y-39629484D01*
X236478607Y-39766583D01*
X236410374Y-40020158D01*
X236346870Y-40250613D01*
X236291530Y-40445925D01*
X236247785Y-40594071D01*
X236219071Y-40683027D01*
X236211804Y-40700857D01*
X236173000Y-40740845D01*
X236097733Y-40762391D01*
X235967137Y-40770038D01*
X235923308Y-40770311D01*
X235766533Y-40762242D01*
X235662890Y-40739858D01*
X235632873Y-40720701D01*
X235612273Y-40671930D01*
X235571750Y-40556518D01*
X235514334Y-40383806D01*
X235443058Y-40163137D01*
X235360950Y-39903852D01*
X235271041Y-39615294D01*
X235211225Y-39420936D01*
X235106621Y-39078360D01*
X235023802Y-38803686D01*
X234960861Y-38589059D01*
X234915890Y-38426626D01*
X234886981Y-38308531D01*
X234872225Y-38226920D01*
X234869715Y-38173938D01*
X234877542Y-38141733D01*
X234893800Y-38122448D01*
X234895486Y-38121170D01*
X235002684Y-38080431D01*
X235138012Y-38075348D01*
X235257924Y-38107468D01*
X235259364Y-38108231D01*
X235291916Y-38152123D01*
X235338176Y-38258110D01*
X235399300Y-38429538D01*
X235476444Y-38669752D01*
X235570765Y-38982097D01*
X235622864Y-39159950D01*
X235701906Y-39429301D01*
X235774534Y-39671789D01*
X235837661Y-39877507D01*
X235888202Y-40036551D01*
X235923071Y-40139016D01*
X235939138Y-40174998D01*
X235954548Y-40138265D01*
X235986877Y-40034855D01*
X236033228Y-39874955D01*
X236090705Y-39668750D01*
X236156411Y-39426427D01*
X236217950Y-39194405D01*
X236300809Y-38886557D01*
X236376279Y-38621209D01*
X236441910Y-38406239D01*
X236495254Y-38249524D01*
X236533862Y-38158942D01*
X236544923Y-38142687D01*
X236650030Y-38085073D01*
X236781289Y-38076091D01*
X236900495Y-38117915D01*
X236906493Y-38122133D01*
X236942343Y-38179948D01*
X236995695Y-38312530D01*
X237065708Y-38517418D01*
X237151543Y-38792153D01*
X237252361Y-39134275D01*
X237255186Y-39144086D01*
X237332307Y-39409456D01*
X237403537Y-39649589D01*
X237465626Y-39853919D01*
X237515323Y-40011880D01*
X237549374Y-40112906D01*
X237563506Y-40146036D01*
X237581570Y-40117796D01*
X237617875Y-40022642D01*
X237669317Y-39870109D01*
X237732791Y-39669734D01*
X237805194Y-39431053D01*
X237883420Y-39163602D01*
X237884011Y-39161545D01*
X237983916Y-38819558D01*
X238066389Y-38550111D01*
X238132988Y-38348673D01*
X238185269Y-38210712D01*
X238224790Y-38131699D01*
X238245723Y-38109022D01*
X238354751Y-38075002D01*
X238472290Y-38073246D01*
X238573161Y-38099473D01*
G37*
G36*
X232065479Y-38086753D02*
G01*
X232265311Y-38162826D01*
X232432435Y-38276075D01*
X232547909Y-38415488D01*
X232576837Y-38480347D01*
X232613240Y-38487409D01*
X232692004Y-38438631D01*
X232736653Y-38401577D01*
X232958124Y-38229215D01*
X233161791Y-38121198D01*
X233363811Y-38070129D01*
X233474962Y-38063623D01*
X233736844Y-38098102D01*
X233958517Y-38198747D01*
X234133976Y-38361364D01*
X234257214Y-38581765D01*
X234270571Y-38618800D01*
X234288814Y-38709653D01*
X234305097Y-38860173D01*
X234319153Y-39057003D01*
X234330713Y-39286787D01*
X234339509Y-39536168D01*
X234345273Y-39791791D01*
X234347736Y-40040298D01*
X234346630Y-40268334D01*
X234341688Y-40462542D01*
X234332641Y-40609566D01*
X234319221Y-40696049D01*
X234312577Y-40710689D01*
X234238636Y-40750217D01*
X234122706Y-40768473D01*
X233999529Y-40764485D01*
X233903852Y-40737280D01*
X233883877Y-40722686D01*
X233866945Y-40678629D01*
X233854027Y-40580675D01*
X233844835Y-40423047D01*
X233839080Y-40199965D01*
X233836476Y-39905651D01*
X233836252Y-39766262D01*
X233835417Y-39462240D01*
X233832467Y-39226845D01*
X233826738Y-39049344D01*
X233817562Y-38919000D01*
X233804274Y-38825080D01*
X233786207Y-38756849D01*
X233771369Y-38720732D01*
X233666209Y-38576310D01*
X233525631Y-38495046D01*
X233360960Y-38475945D01*
X233183518Y-38518014D01*
X233004631Y-38620258D01*
X232835623Y-38781683D01*
X232816907Y-38804528D01*
X232705158Y-38944481D01*
X232685314Y-39847474D01*
X232665470Y-40750467D01*
X232470872Y-40762812D01*
X232323103Y-40759954D01*
X232247196Y-40728402D01*
X232243277Y-40723124D01*
X232233652Y-40669691D01*
X232225078Y-40549057D01*
X232217993Y-40373396D01*
X232212834Y-40154877D01*
X232210040Y-39905675D01*
X232209672Y-39788848D01*
X232207574Y-39450746D01*
X232200608Y-39182623D01*
X232186985Y-38975144D01*
X232164919Y-38818971D01*
X232132623Y-38704770D01*
X232088308Y-38623204D01*
X232030188Y-38564937D01*
X231967991Y-38526442D01*
X231787010Y-38472997D01*
X231599406Y-38497063D01*
X231404061Y-38599032D01*
X231199855Y-38779296D01*
X231177189Y-38803503D01*
X231145549Y-38839676D01*
X231121233Y-38877760D01*
X231103006Y-38928400D01*
X231089635Y-39002240D01*
X231079886Y-39109923D01*
X231072527Y-39262095D01*
X231066322Y-39469399D01*
X231060039Y-39742480D01*
X231058127Y-39830835D01*
X231038283Y-40750467D01*
X230831189Y-40762419D01*
X230708616Y-40765980D01*
X230642920Y-40753305D01*
X230612071Y-40716770D01*
X230601805Y-40683044D01*
X230596612Y-40621616D01*
X230592562Y-40491334D01*
X230589744Y-40302712D01*
X230588247Y-40066264D01*
X230588161Y-39792503D01*
X230589574Y-39491944D01*
X230590617Y-39362346D01*
X230601720Y-38132975D01*
X230705287Y-38096566D01*
X230824888Y-38078067D01*
X230913647Y-38086459D01*
X230978675Y-38111566D01*
X231009359Y-38159962D01*
X231018184Y-38256286D01*
X231018439Y-38293255D01*
X231018439Y-38473750D01*
X231187111Y-38337129D01*
X231383781Y-38193765D01*
X231558109Y-38106286D01*
X231732766Y-38065202D01*
X231851877Y-38058866D01*
X232065479Y-38086753D01*
G37*
G36*
X218885224Y-33680403D02*
G01*
X218914624Y-33715857D01*
X218903270Y-33780394D01*
X218870855Y-33905153D01*
X218821438Y-34077479D01*
X218759080Y-34284719D01*
X218687843Y-34514216D01*
X218611785Y-34753319D01*
X218534970Y-34989371D01*
X218461456Y-35209719D01*
X218395305Y-35401708D01*
X218340577Y-35552684D01*
X218301333Y-35649992D01*
X218284220Y-35680389D01*
X218202270Y-35716221D01*
X218100158Y-35729998D01*
X217990421Y-35714498D01*
X217912110Y-35680389D01*
X217880016Y-35626974D01*
X217831700Y-35509971D01*
X217771849Y-35342361D01*
X217705155Y-35137127D01*
X217650466Y-34956092D01*
X217586268Y-34743688D01*
X217528341Y-34565345D01*
X217480533Y-34431849D01*
X217446689Y-34353983D01*
X217431121Y-34340936D01*
X217413806Y-34398244D01*
X217380311Y-34517777D01*
X217334625Y-34684987D01*
X217280737Y-34885328D01*
X217246065Y-35015623D01*
X217181197Y-35248300D01*
X217120783Y-35442269D01*
X217068759Y-35586033D01*
X217029063Y-35668095D01*
X217018458Y-35680389D01*
X216932995Y-35716336D01*
X216830158Y-35729998D01*
X216721958Y-35714603D01*
X216645811Y-35680389D01*
X216621464Y-35633243D01*
X216578525Y-35522664D01*
X216521043Y-35361296D01*
X216453066Y-35161784D01*
X216378643Y-34936771D01*
X216301823Y-34698901D01*
X216226655Y-34460820D01*
X216157187Y-34235171D01*
X216097468Y-34034599D01*
X216051548Y-33871748D01*
X216023473Y-33759261D01*
X216016564Y-33715247D01*
X216054184Y-33681395D01*
X216162608Y-33666721D01*
X216193882Y-33666248D01*
X216371200Y-33666248D01*
X216469719Y-33993670D01*
X216525527Y-34180455D01*
X216592555Y-34406722D01*
X216659931Y-34635715D01*
X216689788Y-34737811D01*
X216741616Y-34913531D01*
X216787195Y-35064471D01*
X216820865Y-35172106D01*
X216835216Y-35214061D01*
X216851553Y-35194812D01*
X216884492Y-35109341D01*
X216930881Y-34968300D01*
X216987567Y-34782343D01*
X217051396Y-34562124D01*
X217119217Y-34318297D01*
X217187875Y-34061516D01*
X217254220Y-33802434D01*
X217260959Y-33775389D01*
X217288966Y-33703878D01*
X217342733Y-33672845D01*
X217444674Y-33666248D01*
X217571335Y-33682464D01*
X217636734Y-33733944D01*
X217637676Y-33735701D01*
X217659553Y-33794490D01*
X217698661Y-33916555D01*
X217750990Y-34088694D01*
X217812529Y-34297704D01*
X217879268Y-34530381D01*
X217881813Y-34539373D01*
X217946593Y-34767483D01*
X218003889Y-34967619D01*
X218050269Y-35127929D01*
X218082304Y-35236565D01*
X218096564Y-35281675D01*
X218096851Y-35282206D01*
X218109416Y-35248684D01*
X218140140Y-35150190D01*
X218185614Y-34998141D01*
X218242430Y-34803951D01*
X218307180Y-34579039D01*
X218316046Y-34547987D01*
X218383744Y-34313408D01*
X218446240Y-34101970D01*
X218499548Y-33926768D01*
X218539676Y-33800896D01*
X218562637Y-33737450D01*
X218563490Y-33735701D01*
X218617420Y-33693307D01*
X218708090Y-33668881D01*
X218806892Y-33664041D01*
X218885224Y-33680403D01*
G37*
G36*
X238979032Y-40017754D02*
G01*
X239471877Y-40017754D01*
X239501615Y-40199359D01*
X239592092Y-40331363D01*
X239745195Y-40415715D01*
X239888595Y-40447184D01*
X239949355Y-40440640D01*
X240052236Y-40417970D01*
X240087033Y-40408788D01*
X240212917Y-40356673D01*
X240352465Y-40273791D01*
X240414455Y-40227759D01*
X240583127Y-40090309D01*
X240583127Y-39809296D01*
X240583127Y-39528282D01*
X240201369Y-39555117D01*
X239989674Y-39573679D01*
X239837428Y-39598542D01*
X239724706Y-39635781D01*
X239631583Y-39691471D01*
X239561173Y-39750313D01*
X239500145Y-39830474D01*
X239474564Y-39941679D01*
X239471877Y-40017754D01*
X238979032Y-40017754D01*
X238999090Y-39858637D01*
X239045460Y-39713758D01*
X239126565Y-39592682D01*
X239212500Y-39505845D01*
X239328235Y-39410515D01*
X239448130Y-39341026D01*
X239589113Y-39292234D01*
X239768112Y-39258999D01*
X240002055Y-39236175D01*
X240126720Y-39228109D01*
X240563283Y-39202654D01*
X240552231Y-38965760D01*
X240526455Y-38764749D01*
X240465093Y-38622822D01*
X240359089Y-38524254D01*
X240272749Y-38480406D01*
X240072289Y-38437596D01*
X239830671Y-38456917D01*
X239555010Y-38537488D01*
X239445918Y-38582600D01*
X239305494Y-38642944D01*
X239218691Y-38672141D01*
X239167520Y-38673282D01*
X239133992Y-38649457D01*
X239124611Y-38637806D01*
X239078745Y-38525456D01*
X239103470Y-38413944D01*
X239190139Y-38308795D01*
X239330108Y-38215532D01*
X239514729Y-38139681D01*
X239735357Y-38086764D01*
X239983346Y-38062307D01*
X240026786Y-38061385D01*
X240326890Y-38078332D01*
X240565877Y-38138365D01*
X240751549Y-38245195D01*
X240891707Y-38402532D01*
X240945788Y-38498478D01*
X240974976Y-38562563D01*
X240997507Y-38627406D01*
X241014467Y-38704453D01*
X241026941Y-38805147D01*
X241036015Y-38940933D01*
X241042773Y-39123256D01*
X241048302Y-39363560D01*
X241052951Y-39628354D01*
X241056289Y-39899510D01*
X241057235Y-40148889D01*
X241055910Y-40363951D01*
X241052438Y-40532156D01*
X241046939Y-40640965D01*
X241042783Y-40672273D01*
X241019925Y-40734023D01*
X240976629Y-40761800D01*
X240888982Y-40765738D01*
X240829885Y-40762511D01*
X240715759Y-40751249D01*
X240657554Y-40725971D01*
X240631846Y-40670508D01*
X240622814Y-40619592D01*
X240602970Y-40488717D01*
X240444220Y-40603794D01*
X240317880Y-40684260D01*
X240189844Y-40749165D01*
X240150564Y-40764434D01*
X239965899Y-40800450D01*
X239749408Y-40804061D01*
X239541399Y-40775987D01*
X239458192Y-40752108D01*
X239248257Y-40639246D01*
X239095026Y-40475512D01*
X239003149Y-40269961D01*
X238977281Y-40031647D01*
X238979032Y-40017754D01*
G37*
G36*
X219282816Y-37164843D02*
G01*
X219400546Y-37183212D01*
X219464938Y-37212931D01*
X219476648Y-37253777D01*
X219486038Y-37347898D01*
X219493183Y-37499293D01*
X219498162Y-37711957D01*
X219501051Y-37989888D01*
X219501927Y-38337083D01*
X219500867Y-38757538D01*
X219499563Y-39008791D01*
X219489220Y-40750467D01*
X219270939Y-40750467D01*
X219052658Y-40750467D01*
X219032814Y-39178416D01*
X219012970Y-37606365D01*
X218377970Y-39178416D01*
X217742970Y-40750467D01*
X217536666Y-40762391D01*
X217413316Y-40765785D01*
X217343064Y-40751095D01*
X217300065Y-40708506D01*
X217275455Y-40663173D01*
X217249304Y-40602031D01*
X217198353Y-40475503D01*
X217126036Y-40292384D01*
X217035789Y-40061472D01*
X216931048Y-39791563D01*
X216815247Y-39491452D01*
X216691822Y-39169938D01*
X216668165Y-39108130D01*
X216115783Y-37664231D01*
X216105377Y-39164177D01*
X216101266Y-39608417D01*
X216095598Y-39975214D01*
X216088306Y-40266487D01*
X216079322Y-40484155D01*
X216068579Y-40630136D01*
X216056009Y-40706349D01*
X216050908Y-40717217D01*
X215989120Y-40746370D01*
X215881232Y-40765023D01*
X215759406Y-40771248D01*
X215655806Y-40763118D01*
X215606460Y-40743852D01*
X215600895Y-40699817D01*
X215595728Y-40584652D01*
X215591083Y-40406602D01*
X215587087Y-40173914D01*
X215583865Y-39894830D01*
X215581540Y-39577598D01*
X215580239Y-39230461D01*
X215580002Y-39000437D01*
X215580276Y-38581076D01*
X215581263Y-38234062D01*
X215583210Y-37952367D01*
X215586362Y-37728966D01*
X215590966Y-37556829D01*
X215597268Y-37428932D01*
X215605514Y-37338246D01*
X215615951Y-37277745D01*
X215628825Y-37240402D01*
X215642368Y-37221114D01*
X215706745Y-37184941D01*
X215819497Y-37165018D01*
X215995539Y-37158752D01*
X216001359Y-37158748D01*
X216161677Y-37162104D01*
X216265334Y-37175656D01*
X216334888Y-37204629D01*
X216386806Y-37248045D01*
X216425297Y-37308696D01*
X216487353Y-37433091D01*
X216568336Y-37610776D01*
X216663605Y-37831300D01*
X216768523Y-38084211D01*
X216866829Y-38329529D01*
X216980049Y-38616669D01*
X217092093Y-38900797D01*
X217197105Y-39167067D01*
X217289229Y-39400630D01*
X217362609Y-39586640D01*
X217402682Y-39688189D01*
X217547333Y-40054661D01*
X217999852Y-38953970D01*
X218166465Y-38549640D01*
X218306274Y-38212760D01*
X218422065Y-37937127D01*
X218516622Y-37716540D01*
X218592732Y-37544794D01*
X218653180Y-37415688D01*
X218700752Y-37323018D01*
X218738234Y-37260581D01*
X218768411Y-37222175D01*
X218783808Y-37208357D01*
X218862254Y-37179591D01*
X218988410Y-37162863D01*
X219137018Y-37158004D01*
X219282816Y-37164843D01*
G37*
G36*
X220800811Y-37127239D02*
G01*
X220909870Y-37168639D01*
X220909912Y-37168670D01*
X220933339Y-37195007D01*
X220951047Y-37241543D01*
X220964040Y-37319022D01*
X220973326Y-37438188D01*
X220979909Y-37609783D01*
X220984795Y-37844552D01*
X220986950Y-37991474D01*
X220997345Y-38764668D01*
X221626914Y-37971630D01*
X221800916Y-37754531D01*
X221961598Y-37557985D01*
X222101599Y-37390689D01*
X222213553Y-37261335D01*
X222290097Y-37178617D01*
X222321445Y-37151616D01*
X222449940Y-37124303D01*
X222589673Y-37131404D01*
X222699394Y-37170527D01*
X222704039Y-37173780D01*
X222751756Y-37214886D01*
X222754892Y-37256236D01*
X222713516Y-37328503D01*
X222704425Y-37342452D01*
X222651342Y-37414273D01*
X222548736Y-37543515D01*
X222398862Y-37727440D01*
X222203977Y-37963309D01*
X221966336Y-38248383D01*
X221688195Y-38579924D01*
X221540417Y-38755415D01*
X221526556Y-38780914D01*
X221527263Y-38816062D01*
X221547305Y-38868421D01*
X221591452Y-38945552D01*
X221664472Y-39055018D01*
X221771135Y-39204380D01*
X221916210Y-39401200D01*
X222104464Y-39653040D01*
X222117278Y-39670120D01*
X222326424Y-39949430D01*
X222492095Y-40172455D01*
X222618869Y-40346086D01*
X222711325Y-40477214D01*
X222774040Y-40572730D01*
X222811594Y-40639524D01*
X222828565Y-40684487D01*
X222829532Y-40714511D01*
X222822463Y-40731443D01*
X222764047Y-40761479D01*
X222656430Y-40772998D01*
X222527181Y-40767660D01*
X222403866Y-40747127D01*
X222314052Y-40713059D01*
X222297111Y-40699795D01*
X222255461Y-40649508D01*
X222174139Y-40544415D01*
X222060190Y-40393880D01*
X221920660Y-40207269D01*
X221762595Y-39993946D01*
X221612502Y-39789846D01*
X220997345Y-38950412D01*
X220986630Y-39807641D01*
X220980554Y-40128362D01*
X220971280Y-40383817D01*
X220959036Y-40570195D01*
X220944049Y-40683687D01*
X220932162Y-40717590D01*
X220870542Y-40746530D01*
X220762778Y-40765024D01*
X220641030Y-40771172D01*
X220537459Y-40763071D01*
X220488022Y-40743852D01*
X220482521Y-40699868D01*
X220477407Y-40584652D01*
X220472800Y-40406351D01*
X220468822Y-40173108D01*
X220465594Y-39893066D01*
X220463235Y-39574371D01*
X220461867Y-39225166D01*
X220461564Y-38959311D01*
X220461678Y-38539819D01*
X220462221Y-38192661D01*
X220463493Y-37910795D01*
X220465795Y-37687180D01*
X220469427Y-37514774D01*
X220474689Y-37386537D01*
X220481882Y-37295427D01*
X220491306Y-37234402D01*
X220503262Y-37196422D01*
X220518050Y-37174445D01*
X220535971Y-37161429D01*
X220538330Y-37160144D01*
X220663150Y-37124090D01*
X220800811Y-37127239D01*
G37*
G36*
X211549811Y-38944686D02*
G01*
X212074557Y-38944686D01*
X212095174Y-39337030D01*
X212160266Y-39664753D01*
X212270622Y-39929504D01*
X212427029Y-40132931D01*
X212630276Y-40276684D01*
X212731982Y-40320458D01*
X212879758Y-40353149D01*
X213071933Y-40367937D01*
X213275516Y-40364560D01*
X213457517Y-40342755D01*
X213523917Y-40326762D01*
X213705812Y-40238868D01*
X213882350Y-40095771D01*
X214029944Y-39919523D01*
X214105705Y-39782947D01*
X214194986Y-39505869D01*
X214244447Y-39196440D01*
X214255216Y-38873269D01*
X214228424Y-38554965D01*
X214165202Y-38260137D01*
X214066678Y-38007394D01*
X213990315Y-37882637D01*
X213821750Y-37717033D01*
X213605793Y-37600681D01*
X213358924Y-37535707D01*
X213097622Y-37524240D01*
X212838368Y-37568406D01*
X212597642Y-37670333D01*
X212554074Y-37697245D01*
X212370757Y-37864196D01*
X212230007Y-38095027D01*
X212133397Y-38385648D01*
X212082498Y-38731972D01*
X212074557Y-38944686D01*
X211549811Y-38944686D01*
X211557685Y-38736958D01*
X211569548Y-38626334D01*
X211634393Y-38263599D01*
X211736180Y-37962485D01*
X211880720Y-37711598D01*
X212073826Y-37499541D01*
X212194163Y-37401723D01*
X212453501Y-37246797D01*
X212740315Y-37150515D01*
X213070213Y-37108176D01*
X213178908Y-37105298D01*
X213553618Y-37133413D01*
X213880251Y-37222454D01*
X214157070Y-37371504D01*
X214382339Y-37579649D01*
X214544237Y-37825812D01*
X214669242Y-38144640D01*
X214745020Y-38501696D01*
X214772319Y-38879138D01*
X214751890Y-39259125D01*
X214684482Y-39623815D01*
X214570844Y-39955367D01*
X214445003Y-40188017D01*
X214338193Y-40349417D01*
X214469842Y-40459323D01*
X214571037Y-40532391D01*
X214714117Y-40621790D01*
X214869570Y-40709165D01*
X214882387Y-40715899D01*
X215040120Y-40800761D01*
X215139656Y-40864454D01*
X215194310Y-40920256D01*
X215217397Y-40981447D01*
X215222206Y-41054799D01*
X215211453Y-41182358D01*
X215171910Y-41257300D01*
X215095313Y-41281137D01*
X214973394Y-41255384D01*
X214797888Y-41181557D01*
X214724830Y-41145917D01*
X214543385Y-41044258D01*
X214348981Y-40918321D01*
X214202194Y-40809739D01*
X213959260Y-40613172D01*
X213768026Y-40697764D01*
X213544583Y-40766446D01*
X213276311Y-40802236D01*
X212991026Y-40804222D01*
X212716549Y-40771488D01*
X212575621Y-40736952D01*
X212284594Y-40619864D01*
X212047851Y-40458884D01*
X211861230Y-40248244D01*
X211720565Y-39982177D01*
X211621691Y-39654917D01*
X211569750Y-39344074D01*
X211546388Y-39035005D01*
X211549811Y-38944686D01*
G37*
G36*
X243665469Y-39088632D02*
G01*
X244121613Y-39088632D01*
X244134777Y-39132721D01*
X244181541Y-39160391D01*
X244271743Y-39175444D01*
X244415217Y-39181682D01*
X244621799Y-39182904D01*
X244795396Y-39182811D01*
X245475478Y-39182811D01*
X245450293Y-38999065D01*
X245386729Y-38769945D01*
X245269181Y-38595937D01*
X245102421Y-38481449D01*
X244891222Y-38430885D01*
X244832338Y-38428748D01*
X244601565Y-38465015D01*
X244404108Y-38567951D01*
X244251687Y-38728755D01*
X244156748Y-38935996D01*
X244132216Y-39024324D01*
X244121613Y-39088632D01*
X243665469Y-39088632D01*
X243676631Y-38988175D01*
X243700085Y-38896707D01*
X243738357Y-38803982D01*
X243795073Y-38689845D01*
X243797814Y-38684475D01*
X243953235Y-38437715D01*
X244137834Y-38257658D01*
X244360906Y-38138971D01*
X244631747Y-38076322D01*
X244881090Y-38062922D01*
X245178731Y-38097034D01*
X245430621Y-38195225D01*
X245634398Y-38355107D01*
X245787697Y-38574293D01*
X245888157Y-38850396D01*
X245929841Y-39122705D01*
X245939151Y-39251121D01*
X245939332Y-39350077D01*
X245921521Y-39423407D01*
X245876861Y-39474946D01*
X245796492Y-39508530D01*
X245671553Y-39527992D01*
X245493185Y-39537168D01*
X245252529Y-39539893D01*
X244965760Y-39539998D01*
X244115314Y-39539998D01*
X244115535Y-39649139D01*
X244147882Y-39873128D01*
X244236361Y-40078705D01*
X244369510Y-40246649D01*
X244535868Y-40357740D01*
X244538827Y-40358988D01*
X244697219Y-40398240D01*
X244904182Y-40411707D01*
X245133456Y-40400086D01*
X245358785Y-40364073D01*
X245471075Y-40334260D01*
X245635058Y-40284575D01*
X245737841Y-40262611D01*
X245793710Y-40271542D01*
X245816949Y-40314543D01*
X245821842Y-40394787D01*
X245821877Y-40412208D01*
X245809747Y-40519229D01*
X245764795Y-40598530D01*
X245674176Y-40660516D01*
X245525046Y-40715589D01*
X245406741Y-40748448D01*
X245237309Y-40779869D01*
X245033478Y-40799142D01*
X244822400Y-40805559D01*
X244631224Y-40798408D01*
X244487099Y-40776980D01*
X244472502Y-40772885D01*
X244190182Y-40650776D01*
X243964174Y-40473171D01*
X243792173Y-40238103D01*
X243750332Y-40155154D01*
X243711075Y-40060671D01*
X243684821Y-39966696D01*
X243669056Y-39854023D01*
X243661267Y-39703449D01*
X243658941Y-39495768D01*
X243658908Y-39456622D01*
X243659668Y-39247975D01*
X243664367Y-39098545D01*
X243665469Y-39088632D01*
G37*
G36*
X228404341Y-35084889D02*
G01*
X228401830Y-34867205D01*
X228400796Y-34710303D01*
X228756252Y-34710303D01*
X228756252Y-35084889D01*
X228933959Y-35248693D01*
X229047181Y-35344540D01*
X229138421Y-35394139D01*
X229237401Y-35411467D01*
X229282315Y-35412498D01*
X229411890Y-35398073D01*
X229521557Y-35362235D01*
X229541747Y-35350313D01*
X229653724Y-35226772D01*
X229725994Y-35039494D01*
X229759406Y-34785888D01*
X229762085Y-34678279D01*
X229740965Y-34403829D01*
X229677133Y-34191407D01*
X229571899Y-34043105D01*
X229426573Y-33961012D01*
X229301774Y-33944061D01*
X229204374Y-33968633D01*
X229077131Y-34030957D01*
X228947581Y-34113939D01*
X228843262Y-34200487D01*
X228798761Y-34256288D01*
X228780036Y-34329813D01*
X228765521Y-34460161D01*
X228757323Y-34624807D01*
X228756252Y-34710303D01*
X228400796Y-34710303D01*
X228399808Y-34560482D01*
X228399065Y-34228203D01*
X228399064Y-34216015D01*
X228399064Y-32754948D01*
X228495418Y-32730764D01*
X228605513Y-32721903D01*
X228674012Y-32732683D01*
X228706219Y-32747098D01*
X228728707Y-32774865D01*
X228743213Y-32828608D01*
X228751478Y-32920949D01*
X228755238Y-33064513D01*
X228756231Y-33271925D01*
X228756252Y-33329939D01*
X228756252Y-33901094D01*
X228954486Y-33777865D01*
X229190213Y-33667131D01*
X229416526Y-33634693D01*
X229635781Y-33680350D01*
X229708431Y-33713263D01*
X229887600Y-33837315D01*
X230016727Y-34003092D01*
X230099540Y-34218690D01*
X230139766Y-34492207D01*
X230145093Y-34662050D01*
X230120881Y-34993744D01*
X230048410Y-35265214D01*
X229928723Y-35475172D01*
X229762862Y-35622329D01*
X229551869Y-35705396D01*
X229296787Y-35723084D01*
X229287272Y-35722515D01*
X229130169Y-35705446D01*
X229016638Y-35670140D01*
X228911075Y-35604010D01*
X228877204Y-35577539D01*
X228716564Y-35448445D01*
X228716564Y-35565132D01*
X228691570Y-35668420D01*
X228611311Y-35720464D01*
X228521495Y-35729998D01*
X228447343Y-35716456D01*
X228425522Y-35703540D01*
X228419504Y-35659142D01*
X228413966Y-35544341D01*
X228409068Y-35368104D01*
X228404970Y-35139402D01*
X228404341Y-35084889D01*
G37*
G36*
X222836888Y-34415254D02*
G01*
X223199849Y-34415254D01*
X223218744Y-34459688D01*
X223281709Y-34484931D01*
X223398634Y-34496409D01*
X223579404Y-34499547D01*
X223714947Y-34499686D01*
X224229892Y-34499686D01*
X224206193Y-34370701D01*
X224138756Y-34164491D01*
X224023958Y-34021851D01*
X223894791Y-33952506D01*
X223696697Y-33924576D01*
X223514129Y-33969374D01*
X223361514Y-34080260D01*
X223254723Y-34247106D01*
X223215138Y-34346202D01*
X223199849Y-34415254D01*
X222836888Y-34415254D01*
X222837857Y-34403520D01*
X222863605Y-34297271D01*
X222909808Y-34187118D01*
X222942641Y-34121213D01*
X223084827Y-33916193D01*
X223264933Y-33766420D01*
X223470438Y-33671320D01*
X223688823Y-33630320D01*
X223907570Y-33642847D01*
X224114159Y-33708326D01*
X224296070Y-33826185D01*
X224440785Y-33995850D01*
X224529337Y-34193907D01*
X224578463Y-34408283D01*
X224587147Y-34577788D01*
X224555670Y-34693481D01*
X224512298Y-34736414D01*
X224445489Y-34751249D01*
X224313894Y-34763540D01*
X224132086Y-34772424D01*
X223914636Y-34777039D01*
X223817767Y-34777498D01*
X223200002Y-34777498D01*
X223200002Y-34900484D01*
X223234550Y-35099887D01*
X223332712Y-35259402D01*
X223486260Y-35372898D01*
X223686970Y-35434245D01*
X223921077Y-35437904D01*
X224079066Y-35413157D01*
X224229883Y-35376340D01*
X224298192Y-35352690D01*
X224418142Y-35317643D01*
X224485337Y-35339303D01*
X224506392Y-35421691D01*
X224502870Y-35477116D01*
X224483856Y-35549299D01*
X224433661Y-35599309D01*
X224332019Y-35644560D01*
X224291408Y-35658808D01*
X224129735Y-35696155D01*
X223926101Y-35718474D01*
X223711260Y-35724717D01*
X223515965Y-35713837D01*
X223385937Y-35689641D01*
X223198331Y-35595504D01*
X223033035Y-35440819D01*
X222920571Y-35265718D01*
X222872407Y-35148067D01*
X222843582Y-35024196D01*
X222829524Y-34867494D01*
X222825941Y-34715204D01*
X222827118Y-34533590D01*
X222836888Y-34415254D01*
G37*
G36*
X225009787Y-34816815D02*
G01*
X225386701Y-34816815D01*
X225415108Y-35023042D01*
X225471973Y-35199487D01*
X225556761Y-35328082D01*
X225607250Y-35367523D01*
X225738800Y-35406466D01*
X225901476Y-35403577D01*
X226060567Y-35361367D01*
X226121560Y-35330325D01*
X226252212Y-35235990D01*
X226338463Y-35132800D01*
X226388635Y-35001928D01*
X226411052Y-34824546D01*
X226414689Y-34667285D01*
X226414689Y-34311357D01*
X226241873Y-34152061D01*
X226132173Y-34059822D01*
X226031539Y-33989945D01*
X225980454Y-33964643D01*
X225848451Y-33951260D01*
X225705504Y-33977620D01*
X225590138Y-34035236D01*
X225568370Y-34055430D01*
X225477588Y-34200112D01*
X225417406Y-34387282D01*
X225387289Y-34598872D01*
X225386701Y-34816815D01*
X225009787Y-34816815D01*
X225006836Y-34750146D01*
X225006500Y-34698123D01*
X225010127Y-34504562D01*
X225023311Y-34363109D01*
X225050807Y-34246638D01*
X225097370Y-34128029D01*
X225112121Y-34095781D01*
X225241599Y-33883581D01*
X225403500Y-33741658D01*
X225605963Y-33664721D01*
X225803319Y-33646404D01*
X225955903Y-33652447D01*
X226066815Y-33677988D01*
X226173312Y-33734144D01*
X226232858Y-33774571D01*
X226414689Y-33902737D01*
X226414689Y-33325804D01*
X226414689Y-32748872D01*
X226583361Y-32761075D01*
X226752033Y-32773279D01*
X226762443Y-34230916D01*
X226772853Y-35688553D01*
X226673235Y-35713556D01*
X226550248Y-35724982D01*
X226479987Y-35679151D01*
X226454754Y-35570280D01*
X226454377Y-35549122D01*
X226454377Y-35405442D01*
X226325392Y-35514203D01*
X226208278Y-35599392D01*
X226086933Y-35668349D01*
X226068698Y-35676481D01*
X225903423Y-35717310D01*
X225707781Y-35725414D01*
X225522247Y-35700941D01*
X225440378Y-35674174D01*
X225290928Y-35573167D01*
X225157661Y-35417851D01*
X225061739Y-35233134D01*
X225058803Y-35224991D01*
X225033606Y-35111065D01*
X225015418Y-34944059D01*
X225009787Y-34816815D01*
G37*
G36*
X232050823Y-33666248D02*
G01*
X232155004Y-33674928D01*
X232220570Y-33696445D01*
X232227103Y-33703015D01*
X232219142Y-33747071D01*
X232187093Y-33855230D01*
X232134627Y-34017233D01*
X232065412Y-34222818D01*
X231983117Y-34461726D01*
X231891409Y-34723697D01*
X231793959Y-34998469D01*
X231694435Y-35275783D01*
X231596505Y-35545378D01*
X231503839Y-35796994D01*
X231420105Y-36020370D01*
X231348972Y-36205247D01*
X231294108Y-36341363D01*
X231259183Y-36418458D01*
X231252029Y-36429994D01*
X231183666Y-36467154D01*
X231081496Y-36482548D01*
X230981255Y-36474995D01*
X230918682Y-36443316D01*
X230917168Y-36441052D01*
X230918751Y-36386921D01*
X230945633Y-36278924D01*
X230992578Y-36136463D01*
X231017194Y-36070561D01*
X231143802Y-35743078D01*
X230783464Y-34781558D01*
X230685839Y-34518172D01*
X230598256Y-34276342D01*
X230524466Y-34066883D01*
X230468223Y-33900611D01*
X230433280Y-33788341D01*
X230423127Y-33743143D01*
X230437849Y-33692028D01*
X230495673Y-33669934D01*
X230577017Y-33666248D01*
X230686212Y-33678188D01*
X230761226Y-33707713D01*
X230769679Y-33715857D01*
X230794434Y-33767467D01*
X230840277Y-33881625D01*
X230902474Y-34045822D01*
X230976295Y-34247549D01*
X231057006Y-34474297D01*
X231062273Y-34489306D01*
X231142080Y-34713200D01*
X231214347Y-34908995D01*
X231274641Y-35065232D01*
X231318527Y-35170455D01*
X231341571Y-35213205D01*
X231342570Y-35213603D01*
X231363586Y-35178158D01*
X231403905Y-35080195D01*
X231458582Y-34932781D01*
X231522676Y-34748978D01*
X231556378Y-34648514D01*
X231654718Y-34351541D01*
X231731872Y-34121284D01*
X231792103Y-33949275D01*
X231839673Y-33827044D01*
X231878845Y-33746123D01*
X231913882Y-33698044D01*
X231949047Y-33674338D01*
X231988603Y-33666536D01*
X232036813Y-33666170D01*
X232050823Y-33666248D01*
G37*
G36*
X219218623Y-34416109D02*
G01*
X219263685Y-34214531D01*
X219302900Y-34116571D01*
X219453364Y-33906337D01*
X219653777Y-33751352D01*
X219891379Y-33658204D01*
X220153407Y-33633480D01*
X220227105Y-33639440D01*
X220474792Y-33702977D01*
X220672221Y-33827002D01*
X220816370Y-34008216D01*
X220904217Y-34243319D01*
X220928368Y-34405378D01*
X220936692Y-34532674D01*
X220931691Y-34627022D01*
X220903423Y-34693357D01*
X220841949Y-34736612D01*
X220737326Y-34761722D01*
X220579614Y-34773621D01*
X220358872Y-34777244D01*
X220178661Y-34777498D01*
X219553742Y-34777498D01*
X219575872Y-34926326D01*
X219638579Y-35146826D01*
X219751895Y-35306192D01*
X219915584Y-35404246D01*
X220129411Y-35440806D01*
X220243283Y-35437034D01*
X220407556Y-35415108D01*
X220568838Y-35381119D01*
X220646491Y-35358092D01*
X220765606Y-35322389D01*
X220829555Y-35328528D01*
X220854864Y-35384282D01*
X220858439Y-35457781D01*
X220832689Y-35555499D01*
X220751374Y-35628276D01*
X220608392Y-35678625D01*
X220397645Y-35709058D01*
X220223439Y-35719277D01*
X220026572Y-35722883D01*
X219885882Y-35715235D01*
X219778645Y-35693747D01*
X219687317Y-35658280D01*
X219482240Y-35520032D01*
X219325871Y-35327167D01*
X219231519Y-35096112D01*
X219231365Y-35095470D01*
X219200412Y-34884652D01*
X219196848Y-34648841D01*
X219210803Y-34499686D01*
X219547239Y-34499686D01*
X220069158Y-34499686D01*
X220591078Y-34499686D01*
X220569262Y-34337035D01*
X220509498Y-34156614D01*
X220393362Y-34021634D01*
X220235069Y-33941238D01*
X220048836Y-33924569D01*
X219954512Y-33941668D01*
X219788565Y-34016842D01*
X219668867Y-34145316D01*
X219587533Y-34336377D01*
X219573329Y-34390545D01*
X219547239Y-34499686D01*
X219210803Y-34499686D01*
X219218623Y-34416109D01*
G37*
G36*
X212599015Y-32957569D02*
G01*
X212779869Y-32971880D01*
X212928229Y-32993248D01*
X213004684Y-33012946D01*
X213221702Y-33127098D01*
X213380476Y-33293054D01*
X213477865Y-33505486D01*
X213510728Y-33759066D01*
X213505838Y-33862977D01*
X213449528Y-34120867D01*
X213332063Y-34328229D01*
X213153627Y-34484914D01*
X212914406Y-34590769D01*
X212614584Y-34645645D01*
X212540113Y-34650882D01*
X212206564Y-34668389D01*
X212206564Y-35175104D01*
X212205141Y-35389135D01*
X212199873Y-35536483D01*
X212189265Y-35629804D01*
X212171819Y-35681755D01*
X212146037Y-35704993D01*
X212143787Y-35705908D01*
X212025504Y-35725818D01*
X211896496Y-35715036D01*
X211859298Y-35703714D01*
X211845263Y-35659831D01*
X211833338Y-35547876D01*
X211823532Y-35379125D01*
X211815854Y-35164852D01*
X211810312Y-34916332D01*
X211806914Y-34644841D01*
X211805669Y-34361654D01*
X211806584Y-34078045D01*
X211809668Y-33805291D01*
X211814929Y-33554667D01*
X211822375Y-33337446D01*
X211826179Y-33269373D01*
X212206564Y-33269373D01*
X212206564Y-33805154D01*
X212206564Y-34340936D01*
X212454611Y-34340874D01*
X212665203Y-34324089D01*
X212829756Y-34277059D01*
X212841564Y-34271421D01*
X212979316Y-34163972D01*
X213070317Y-34014795D01*
X213113754Y-33842571D01*
X213108815Y-33665982D01*
X213054686Y-33503708D01*
X212950554Y-33374433D01*
X212882551Y-33329576D01*
X212760594Y-33292130D01*
X212583917Y-33271911D01*
X212486347Y-33269373D01*
X212206564Y-33269373D01*
X211826179Y-33269373D01*
X211832016Y-33164906D01*
X211843858Y-33048320D01*
X211857314Y-32999498D01*
X211922073Y-32975256D01*
X212047194Y-32959159D01*
X212214106Y-32950991D01*
X212404237Y-32950534D01*
X212599015Y-32957569D01*
G37*
G36*
X213825916Y-34610182D02*
G01*
X214201572Y-34610182D01*
X214206267Y-34831624D01*
X214242130Y-35037935D01*
X214307961Y-35204281D01*
X214340285Y-35251482D01*
X214470368Y-35353844D01*
X214642422Y-35412501D01*
X214830280Y-35424467D01*
X215007781Y-35386757D01*
X215099725Y-35338133D01*
X215224441Y-35212799D01*
X215302686Y-35040692D01*
X215338061Y-34812273D01*
X215341005Y-34698742D01*
X215318878Y-34421525D01*
X215253256Y-34209590D01*
X215142552Y-34060810D01*
X214985180Y-33973059D01*
X214779554Y-33944209D01*
X214778301Y-33944209D01*
X214580879Y-33978328D01*
X214412492Y-34072635D01*
X214293459Y-34215590D01*
X214290487Y-34221237D01*
X214229245Y-34398442D01*
X214201572Y-34610182D01*
X213825916Y-34610182D01*
X213827089Y-34532963D01*
X213869392Y-34295544D01*
X213975006Y-34057249D01*
X214140833Y-33865666D01*
X214358700Y-33727208D01*
X214620435Y-33648290D01*
X214708432Y-33636988D01*
X214988002Y-33646787D01*
X215235903Y-33726892D01*
X215445294Y-33873622D01*
X215609332Y-34083296D01*
X215638500Y-34137200D01*
X215697272Y-34313632D01*
X215727512Y-34535371D01*
X215728054Y-34773211D01*
X215697731Y-34997952D01*
X215676149Y-35079389D01*
X215580216Y-35289973D01*
X215440488Y-35474610D01*
X215273928Y-35614841D01*
X215117693Y-35687114D01*
X214983573Y-35710260D01*
X214808103Y-35722559D01*
X214625392Y-35723328D01*
X214469553Y-35711887D01*
X214411740Y-35701215D01*
X214240330Y-35622375D01*
X214079031Y-35485365D01*
X213950524Y-35310388D01*
X213930953Y-35273021D01*
X213858282Y-35057082D01*
X213823027Y-34800336D01*
X213825916Y-34610182D01*
G37*
G36*
X229793798Y-38048017D02*
G01*
X229872705Y-38069173D01*
X229951734Y-38087575D01*
X230041275Y-38143843D01*
X230085723Y-38257608D01*
X230081437Y-38418672D01*
X230077593Y-38440087D01*
X230062221Y-38501307D01*
X230033051Y-38531744D01*
X229969592Y-38538196D01*
X229851352Y-38527462D01*
X229823648Y-38524340D01*
X229672303Y-38515369D01*
X229555011Y-38535016D01*
X229450905Y-38593615D01*
X229339120Y-38701498D01*
X229246542Y-38810151D01*
X229093595Y-38996685D01*
X229073752Y-39873576D01*
X229053908Y-40750467D01*
X228853946Y-40762171D01*
X228733677Y-40763727D01*
X228648173Y-40754737D01*
X228625743Y-40745635D01*
X228618898Y-40700478D01*
X228612652Y-40585573D01*
X228607211Y-40410546D01*
X228602784Y-40185021D01*
X228599576Y-39918627D01*
X228597797Y-39620987D01*
X228597502Y-39435561D01*
X228597629Y-39083042D01*
X228598363Y-38801550D01*
X228600228Y-38582735D01*
X228603752Y-38418248D01*
X228609459Y-38299742D01*
X228617875Y-38218866D01*
X228629526Y-38167273D01*
X228644939Y-38136613D01*
X228664639Y-38118537D01*
X228681055Y-38109011D01*
X228780638Y-38084480D01*
X228899337Y-38089570D01*
X228979463Y-38109004D01*
X229019178Y-38143441D01*
X229032653Y-38216209D01*
X229034064Y-38311352D01*
X229034064Y-38507860D01*
X229222580Y-38313252D01*
X229374699Y-38182980D01*
X229535427Y-38089969D01*
X229685274Y-38043269D01*
X229793798Y-38048017D01*
G37*
G36*
X226624353Y-37265880D02*
G01*
X226627370Y-37382834D01*
X226610118Y-37464317D01*
X226595208Y-37497542D01*
X226571842Y-37521537D01*
X226528336Y-37537804D01*
X226453005Y-37547844D01*
X226334163Y-37553159D01*
X226160126Y-37555251D01*
X225919209Y-37555623D01*
X225899734Y-37555623D01*
X225224064Y-37555623D01*
X225224064Y-38170779D01*
X225224064Y-38785936D01*
X225878152Y-38785936D01*
X226532239Y-38785936D01*
X226557876Y-38888081D01*
X226561270Y-39004764D01*
X226539639Y-39086518D01*
X226521258Y-39122487D01*
X226495944Y-39148156D01*
X226451446Y-39165262D01*
X226375515Y-39175543D01*
X226255899Y-39180736D01*
X226080347Y-39182579D01*
X225860754Y-39182811D01*
X225225742Y-39182811D01*
X225214981Y-39966639D01*
X225204220Y-40750467D01*
X225005537Y-40762127D01*
X224864857Y-40759430D01*
X224772294Y-40735190D01*
X224757490Y-40724424D01*
X224746167Y-40674446D01*
X224736172Y-40555182D01*
X224727534Y-40376712D01*
X224720286Y-40149115D01*
X224714457Y-39882469D01*
X224710080Y-39586854D01*
X224707184Y-39272349D01*
X224705802Y-38949032D01*
X224705964Y-38626983D01*
X224707701Y-38316280D01*
X224711044Y-38027004D01*
X224716024Y-37769232D01*
X224722673Y-37553043D01*
X224731021Y-37388518D01*
X224741098Y-37285734D01*
X224746832Y-37260550D01*
X224785537Y-37158748D01*
X225694705Y-37158748D01*
X226603873Y-37158748D01*
X226624353Y-37265880D01*
G37*
G36*
X243176576Y-38078919D02*
G01*
X243274151Y-38113331D01*
X243322787Y-38152988D01*
X243339528Y-38223798D01*
X243341408Y-38329529D01*
X243341408Y-38527967D01*
X243080135Y-38515039D01*
X242932442Y-38511327D01*
X242835433Y-38522801D01*
X242760858Y-38556292D01*
X242691945Y-38608904D01*
X242590652Y-38708955D01*
X242484631Y-38835489D01*
X242448003Y-38885788D01*
X242330978Y-39055878D01*
X242320255Y-39903172D01*
X242309533Y-40750467D01*
X242106149Y-40762290D01*
X241977211Y-40763640D01*
X241906898Y-40745556D01*
X241877946Y-40709435D01*
X241871776Y-40654821D01*
X241866166Y-40531085D01*
X241861312Y-40348479D01*
X241857412Y-40117255D01*
X241854664Y-39847666D01*
X241853264Y-39549963D01*
X241853127Y-39420524D01*
X241853445Y-39058086D01*
X241855245Y-38767166D01*
X241859797Y-38539905D01*
X241868369Y-38368448D01*
X241882230Y-38244936D01*
X241902650Y-38161513D01*
X241930897Y-38110322D01*
X241968241Y-38083504D01*
X242015950Y-38073204D01*
X242070997Y-38071561D01*
X242191848Y-38082632D01*
X242258508Y-38127071D01*
X242285890Y-38221713D01*
X242289689Y-38318443D01*
X242289689Y-38517145D01*
X242478205Y-38317713D01*
X242666435Y-38153608D01*
X242852655Y-38065504D01*
X243044876Y-38050660D01*
X243176576Y-38078919D01*
G37*
G36*
X222527923Y-33667644D02*
G01*
X222583525Y-33726001D01*
X222604067Y-33833940D01*
X222604689Y-33866429D01*
X222604689Y-34024129D01*
X222393823Y-33999346D01*
X222182958Y-33974563D01*
X222016792Y-34163337D01*
X221850627Y-34352111D01*
X221850627Y-35016964D01*
X221849701Y-35265517D01*
X221846249Y-35445805D01*
X221839260Y-35568925D01*
X221827724Y-35645973D01*
X221810628Y-35688046D01*
X221787849Y-35705908D01*
X221690219Y-35726718D01*
X221588189Y-35726286D01*
X221521417Y-35704964D01*
X221519897Y-35703540D01*
X221512699Y-35658194D01*
X221506245Y-35544391D01*
X221500816Y-35373047D01*
X221496690Y-35155076D01*
X221494148Y-34901397D01*
X221493439Y-34669269D01*
X221493439Y-33661457D01*
X221642267Y-33673774D01*
X221741898Y-33689523D01*
X221789108Y-33729883D01*
X221810836Y-33818000D01*
X221810939Y-33818685D01*
X221830783Y-33951278D01*
X221930002Y-33844680D01*
X222092762Y-33709794D01*
X222264420Y-33637976D01*
X222430836Y-33633412D01*
X222527923Y-33667644D01*
G37*
G36*
X227642164Y-37075185D02*
G01*
X227731361Y-37109110D01*
X227739207Y-37114900D01*
X227781159Y-37189324D01*
X227801781Y-37303736D01*
X227799920Y-37424896D01*
X227774421Y-37519561D01*
X227754142Y-37545291D01*
X227650635Y-37592308D01*
X227517023Y-37612994D01*
X227426720Y-37606203D01*
X227318254Y-37545543D01*
X227259147Y-37424415D01*
X227248127Y-37314772D01*
X227272210Y-37177258D01*
X227348881Y-37095183D01*
X227484766Y-37062500D01*
X227525939Y-37061333D01*
X227642164Y-37075185D01*
G37*
G36*
X227622653Y-38088316D02*
G01*
X227765129Y-38115045D01*
X227754675Y-39432756D01*
X227744220Y-40750467D01*
X227544258Y-40762171D01*
X227423990Y-40763727D01*
X227338486Y-40754737D01*
X227316055Y-40745635D01*
X227309217Y-40700483D01*
X227302975Y-40585574D01*
X227297537Y-40410524D01*
X227293110Y-40184951D01*
X227289900Y-39918472D01*
X227288115Y-39620703D01*
X227287814Y-39433314D01*
X227287814Y-38149234D01*
X227383996Y-38105411D01*
X227494351Y-38081838D01*
X227622653Y-38088316D01*
G37*
%TD*%
D10*
%TO.C,SW64*%
X144899999Y-129999999D03*
D11*
X159900000Y-103846033D03*
X159900000Y-156153967D03*
D12*
X160500000Y-130000000D03*
X189500000Y-130000000D03*
D11*
X190100000Y-103846033D03*
X190100000Y-156153967D03*
D10*
X205099999Y-129999999D03*
D13*
X175000000Y-99400000D03*
X172500000Y-99400000D03*
X177500000Y-99400000D03*
X149500000Y-130000000D03*
X200500000Y-130000000D03*
%TD*%
D14*
%TO.C,H3*%
X48371259Y-37949042D03*
%TD*%
%TO.C,H2*%
X301126733Y-37950289D03*
%TD*%
D15*
%TO.C,J9*%
X290279999Y-38699997D03*
X292819999Y-38699997D03*
X295359999Y-38699997D03*
D16*
X297899999Y-38699997D03*
%TD*%
D17*
%TO.C,J4*%
X194750001Y-57050000D03*
X194750001Y-25050000D03*
X155250001Y-57050000D03*
X155250001Y-25050000D03*
D15*
X155000000Y-48669999D03*
X155000000Y-46129999D03*
X155000000Y-43589999D03*
X155000000Y-41049999D03*
X155000000Y-38509999D03*
X155000000Y-35969999D03*
D16*
X155000000Y-33429999D03*
%TD*%
D18*
%TO.C,J5*%
X148699884Y-35046790D03*
X148699884Y-37046790D03*
X148699884Y-39046790D03*
X148699884Y-41046790D03*
X148699884Y-43046790D03*
X148699884Y-45046790D03*
D19*
X148699885Y-47046791D03*
%TD*%
D14*
%TO.C,H1*%
X174999999Y-185749999D03*
%TD*%
D15*
%TO.C,J1*%
X178719826Y-65446785D03*
X176179826Y-65446785D03*
X173639826Y-65446785D03*
D16*
X171099826Y-65446785D03*
%TD*%
D20*
%TO.C,H4*%
X185500000Y-25700001D03*
%TD*%
D21*
%TO.C,SW25*%
X111160707Y-145173807D03*
D22*
X113530559Y-143609102D03*
D23*
X115560116Y-147713807D03*
D22*
X120299821Y-144584398D03*
D21*
X119959525Y-150253807D03*
%TD*%
%TO.C,SW30*%
X129333641Y-157501141D03*
D22*
X132027717Y-156603115D03*
D23*
X132925743Y-161093243D03*
D22*
X138313897Y-159297192D03*
D21*
X136517845Y-164685345D03*
%TD*%
%TO.C,SW1*%
X41928889Y-48603241D03*
D22*
X43813015Y-46478490D03*
D23*
X46835792Y-49918042D03*
D22*
X50604044Y-45668539D03*
D21*
X51742695Y-51232843D03*
%TD*%
%TO.C,SW24*%
X102589871Y-116627588D03*
D22*
X104473997Y-114502837D03*
D23*
X107496774Y-117942389D03*
D22*
X111265026Y-113692886D03*
D21*
X112403677Y-119257190D03*
%TD*%
%TO.C,SW29*%
X120168990Y-124624932D03*
D22*
X122053116Y-122500181D03*
D23*
X125075893Y-125939733D03*
D22*
X128844145Y-121690230D03*
D21*
X129982796Y-127254534D03*
%TD*%
%TO.C,SW14*%
X65788078Y-106766593D03*
D22*
X67672204Y-104641842D03*
D23*
X70694981Y-108081394D03*
D22*
X74463233Y-103831891D03*
D21*
X75601884Y-109396195D03*
%TD*%
%TO.C,SW19*%
X85216162Y-107863558D03*
D22*
X87100288Y-105738807D03*
D23*
X90123065Y-109178359D03*
D22*
X93891317Y-104928856D03*
D21*
X95029968Y-110493160D03*
%TD*%
%TO.C,SW5*%
X22206871Y-122206806D03*
D22*
X24090997Y-120082055D03*
D23*
X27113774Y-123521607D03*
D22*
X30882026Y-119272104D03*
D21*
X32020677Y-124836408D03*
%TD*%
%TO.C,SW22*%
X112450861Y-79825806D03*
D22*
X114334987Y-77701055D03*
D23*
X117357764Y-81140607D03*
D22*
X121126016Y-76891104D03*
D21*
X122264667Y-82455408D03*
%TD*%
%TO.C,SW27*%
X130029995Y-87823144D03*
D22*
X131914121Y-85698393D03*
D23*
X134936898Y-89137945D03*
D22*
X138705150Y-84888442D03*
D21*
X139843801Y-90452746D03*
%TD*%
%TO.C,SW3*%
X32067866Y-85405032D03*
D22*
X33951992Y-83280281D03*
D23*
X36974769Y-86719833D03*
D22*
X40743021Y-82470330D03*
D21*
X41881672Y-88034634D03*
%TD*%
%TO.C,SW8*%
X51085078Y-88035406D03*
D22*
X52969204Y-85910655D03*
D23*
X55991981Y-89350207D03*
D22*
X59760233Y-85100704D03*
D21*
X60898884Y-90665008D03*
%TD*%
%TO.C,SW13*%
X70718591Y-88365692D03*
D22*
X72602717Y-86240941D03*
D23*
X75625494Y-89680493D03*
D22*
X79393746Y-85430990D03*
D21*
X80532397Y-90995294D03*
%TD*%
%TO.C,SW23*%
X107520373Y-98226731D03*
D22*
X109404499Y-96101980D03*
D23*
X112427276Y-99541532D03*
D22*
X116195528Y-95292029D03*
D21*
X117334179Y-100856333D03*
%TD*%
%TO.C,SW18*%
X90146645Y-89462676D03*
D22*
X92030771Y-87337925D03*
D23*
X95053548Y-90777477D03*
D22*
X98821800Y-86527974D03*
D21*
X99960451Y-92092278D03*
%TD*%
%TO.C,SW28*%
X125099486Y-106224032D03*
D22*
X126983612Y-104099281D03*
D23*
X130006389Y-107538833D03*
D22*
X133774641Y-103289330D03*
D21*
X134913292Y-108853634D03*
%TD*%
%TO.C,SW4*%
X27137385Y-103805929D03*
D22*
X29021511Y-101681178D03*
D23*
X32044288Y-105120730D03*
D22*
X35812540Y-100871227D03*
D21*
X36951191Y-106435531D03*
%TD*%
%TO.C,SW9*%
X46154548Y-106436310D03*
D22*
X48038674Y-104311559D03*
D23*
X51061451Y-107751111D03*
D22*
X54829703Y-103501608D03*
D21*
X55968354Y-109065912D03*
%TD*%
%TO.C,SW10*%
X41224068Y-124837194D03*
D22*
X43108194Y-122712443D03*
D23*
X46130971Y-126151995D03*
D22*
X49899223Y-121902492D03*
D21*
X51037874Y-127466796D03*
%TD*%
%TO.C,SW15*%
X60857580Y-125167471D03*
D22*
X62741706Y-123042720D03*
D23*
X65764483Y-126482272D03*
D22*
X69532735Y-122232769D03*
D21*
X70671386Y-127797073D03*
%TD*%
%TO.C,SW20*%
X90293093Y-137985198D03*
D22*
X92177219Y-135860447D03*
D23*
X95199996Y-139299999D03*
D22*
X98968248Y-135050496D03*
D21*
X100106899Y-140614800D03*
%TD*%
%TO.C,SW11*%
X80579592Y-51563942D03*
D22*
X82463718Y-49439191D03*
D23*
X85486495Y-52878743D03*
D22*
X89254747Y-48629240D03*
D21*
X90393398Y-54193544D03*
%TD*%
%TO.C,SW2*%
X36998385Y-67004140D03*
D22*
X38882511Y-64879389D03*
D23*
X41905288Y-68318941D03*
D22*
X45673540Y-64069438D03*
D21*
X46812191Y-69633742D03*
%TD*%
%TO.C,SW12*%
X75649084Y-69964806D03*
D22*
X77533210Y-67840055D03*
D23*
X80555987Y-71279607D03*
D22*
X84324239Y-67030104D03*
D21*
X85462890Y-72594408D03*
%TD*%
%TO.C,SW21*%
X117381372Y-61424926D03*
D22*
X119265498Y-59300175D03*
D23*
X122288275Y-62739727D03*
D22*
X126056527Y-58490224D03*
D21*
X127195178Y-64054528D03*
%TD*%
%TO.C,SW17*%
X95077165Y-71061806D03*
D22*
X96961291Y-68937055D03*
D23*
X99984068Y-72376607D03*
D22*
X103752320Y-68127104D03*
D21*
X104890971Y-73691408D03*
%TD*%
%TO.C,SW16*%
X100007665Y-52660898D03*
D22*
X101891791Y-50536147D03*
D23*
X104914568Y-53975699D03*
D22*
X108682820Y-49726196D03*
D21*
X109821471Y-55290500D03*
%TD*%
%TO.C,SW6*%
X60946079Y-51233644D03*
D22*
X62830205Y-49108893D03*
D23*
X65852982Y-52548445D03*
D22*
X69621234Y-48298942D03*
D21*
X70759885Y-53863246D03*
%TD*%
%TO.C,SW7*%
X56015579Y-69634529D03*
D22*
X57899705Y-67509778D03*
D23*
X60922482Y-70949330D03*
D22*
X64690734Y-66699827D03*
D21*
X65829385Y-72264131D03*
%TD*%
%TO.C,SW26*%
X134960498Y-69422254D03*
D22*
X136844624Y-67297503D03*
D23*
X139867401Y-70737055D03*
D22*
X143635653Y-66487552D03*
D21*
X144774304Y-72051856D03*
%TD*%
%TO.C,SW31*%
X205225729Y-72051864D03*
D22*
X205795054Y-69269712D03*
D23*
X210132632Y-70737063D03*
D22*
X211271283Y-65172759D03*
D21*
X215039535Y-69422262D03*
%TD*%
%TO.C,SW62*%
X169920022Y-175909992D03*
D22*
X171190022Y-173369992D03*
D23*
X175000022Y-175909992D03*
D22*
X177540022Y-170829992D03*
D21*
X180080022Y-175909992D03*
%TD*%
D24*
%TO.C,J6*%
X71810941Y-29273796D03*
D25*
X70945183Y-25368612D03*
D24*
X60837374Y-31706577D03*
D25*
X59971616Y-27801393D03*
%TD*%
D21*
%TO.C,SW45*%
X249893127Y-140614798D03*
D22*
X250462452Y-137832646D03*
D23*
X254800030Y-139299997D03*
D22*
X255938681Y-133735693D03*
D21*
X259706933Y-137985196D03*
%TD*%
%TO.C,SW49*%
X274398140Y-109396214D03*
D22*
X274967465Y-106614062D03*
D23*
X279305043Y-108081413D03*
D22*
X280443694Y-102517109D03*
D21*
X284211946Y-106766612D03*
%TD*%
%TO.C,SW47*%
X264537143Y-72594424D03*
D22*
X265106468Y-69812272D03*
D23*
X269444046Y-71279623D03*
D22*
X270582697Y-65715319D03*
D21*
X274350949Y-69964822D03*
%TD*%
%TO.C,SW63*%
X191453098Y-174404806D03*
D22*
X192022423Y-171622654D03*
D23*
X196360001Y-173090005D03*
D22*
X197498652Y-167525701D03*
D21*
X201266904Y-171775204D03*
%TD*%
%TO.C,SW61*%
X148733097Y-171775182D03*
D22*
X150617223Y-169650431D03*
D23*
X153640000Y-173089983D03*
D22*
X157408252Y-168840480D03*
D21*
X158546903Y-174404784D03*
%TD*%
%TO.C,SW33*%
X215086726Y-108853627D03*
D22*
X215656051Y-106071475D03*
D23*
X219993629Y-107538826D03*
D22*
X221132280Y-101974522D03*
D21*
X224900532Y-106224025D03*
%TD*%
%TO.C,SW59*%
X313048845Y-106435526D03*
D22*
X313618170Y-103653374D03*
D23*
X317955748Y-105120725D03*
D22*
X319094399Y-99556421D03*
D21*
X322862651Y-103805924D03*
%TD*%
%TO.C,SW38*%
X232665878Y-100856323D03*
D22*
X233235203Y-98074171D03*
D23*
X237572781Y-99541522D03*
D22*
X238711432Y-93977218D03*
D21*
X242479684Y-98226721D03*
%TD*%
D26*
%TO.C,J2*%
X180620000Y-22699995D03*
D27*
X180620000Y-18699995D03*
D26*
X169380000Y-22699995D03*
D27*
X169380000Y-18699995D03*
%TD*%
D21*
%TO.C,SW50*%
X279328641Y-127797090D03*
D22*
X279897966Y-125014938D03*
D23*
X284235544Y-126482289D03*
D22*
X285374195Y-120917985D03*
D21*
X289142447Y-125167488D03*
%TD*%
%TO.C,SW58*%
X308118343Y-88034614D03*
D22*
X308687668Y-85252462D03*
D23*
X313025246Y-86719813D03*
D22*
X314163897Y-81155509D03*
D21*
X317932149Y-85405012D03*
%TD*%
D28*
%TO.C,U4*%
X169650000Y-125230000D03*
X169650000Y-127010000D03*
X169650000Y-128790000D03*
X169650000Y-130570000D03*
X169650000Y-132350000D03*
X169650000Y-134130000D03*
X169650000Y-135910000D03*
X169650000Y-137690000D03*
X180350000Y-136800000D03*
X180350000Y-135020000D03*
X180350000Y-133240000D03*
X180350000Y-131460000D03*
X180350000Y-129680000D03*
X180350000Y-127900000D03*
X180350000Y-126120000D03*
D29*
X180349999Y-124339999D03*
%TD*%
D21*
%TO.C,SW43*%
X250039548Y-92092282D03*
D22*
X250608873Y-89310130D03*
D23*
X254946451Y-90777481D03*
D22*
X256085102Y-85213177D03*
D21*
X259853354Y-89462680D03*
%TD*%
%TO.C,SW57*%
X303187834Y-69633739D03*
D22*
X303757159Y-66851587D03*
D23*
X308094737Y-68318938D03*
D22*
X309233388Y-62754634D03*
D21*
X313001640Y-67004137D03*
%TD*%
%TO.C,SW52*%
X284170653Y-72264133D03*
D22*
X284739978Y-69481981D03*
D23*
X289077556Y-70949332D03*
D22*
X290216207Y-65385028D03*
D21*
X293984459Y-69634531D03*
%TD*%
%TO.C,SW44*%
X254970066Y-110493162D03*
D22*
X255539391Y-107711010D03*
D23*
X259876969Y-109178361D03*
D22*
X261015620Y-103614057D03*
D21*
X264783872Y-107863560D03*
%TD*%
%TO.C,SW41*%
X240178555Y-55290515D03*
D22*
X240747880Y-52508363D03*
D23*
X245085458Y-53975714D03*
D22*
X246224109Y-48411410D03*
D21*
X249992361Y-52660913D03*
%TD*%
%TO.C,SW40*%
X230040496Y-150253791D03*
D22*
X229870348Y-147419086D03*
D23*
X234439905Y-147713791D03*
D22*
X234099610Y-142044382D03*
D21*
X238839314Y-145173791D03*
%TD*%
%TO.C,SW46*%
X259606629Y-54193543D03*
D22*
X260175954Y-51411391D03*
D23*
X264513532Y-52878742D03*
D22*
X265652183Y-47314438D03*
D21*
X269420435Y-51563941D03*
%TD*%
%TO.C,SW51*%
X279240143Y-53863261D03*
D22*
X279809468Y-51081109D03*
D23*
X284147046Y-52548460D03*
D22*
X285285697Y-46984156D03*
D21*
X289053949Y-51233659D03*
%TD*%
%TO.C,SW60*%
X317979339Y-124836399D03*
D22*
X318548664Y-122054247D03*
D23*
X322886242Y-123521598D03*
D22*
X324024893Y-117957294D03*
D21*
X327793145Y-122206797D03*
%TD*%
%TO.C,SW37*%
X227735371Y-82455443D03*
D22*
X228304696Y-79673291D03*
D23*
X232642274Y-81140642D03*
D22*
X233780925Y-75576338D03*
D21*
X237549177Y-79825841D03*
%TD*%
%TO.C,SW54*%
X294031659Y-109065917D03*
D22*
X294600984Y-106283765D03*
D23*
X298938562Y-107751116D03*
D22*
X300077213Y-102186812D03*
D21*
X303845465Y-106436315D03*
%TD*%
%TO.C,SW55*%
X298962161Y-127466805D03*
D22*
X299531486Y-124684653D03*
D23*
X303869064Y-126152004D03*
D22*
X305007715Y-120587700D03*
D21*
X308775967Y-124837203D03*
%TD*%
%TO.C,SW48*%
X269467640Y-90995312D03*
D22*
X270036965Y-88213160D03*
D23*
X274374543Y-89680511D03*
D22*
X275513194Y-84116207D03*
D21*
X279281446Y-88365710D03*
%TD*%
%TO.C,SW53*%
X289101154Y-90665021D03*
D22*
X289670479Y-87882869D03*
D23*
X294008057Y-89350220D03*
D22*
X295146708Y-83785916D03*
D21*
X298914960Y-88035419D03*
%TD*%
%TO.C,SW35*%
X213482187Y-164685338D03*
D22*
X212584161Y-161991262D03*
D23*
X217074289Y-161093236D03*
D22*
X215278238Y-155705082D03*
D21*
X220666391Y-157501134D03*
%TD*%
%TO.C,SW34*%
X220017233Y-127254517D03*
D22*
X220586558Y-124472365D03*
D23*
X224924136Y-125939716D03*
D22*
X226062787Y-120375412D03*
D21*
X229831039Y-124624915D03*
%TD*%
%TO.C,SW42*%
X245109053Y-73691401D03*
D22*
X245678378Y-70909249D03*
D23*
X250015956Y-72376600D03*
D22*
X251154607Y-66812296D03*
D21*
X254922859Y-71061799D03*
%TD*%
D30*
%TO.C,J7*%
X279054815Y-25368612D03*
D31*
X278189057Y-29273796D03*
D30*
X290028382Y-27801393D03*
D31*
X289162624Y-31706577D03*
%TD*%
D21*
%TO.C,SW56*%
X298257339Y-51232863D03*
D22*
X298826664Y-48450711D03*
D23*
X303164242Y-49918062D03*
D22*
X304302893Y-44353758D03*
D21*
X308071145Y-48603261D03*
%TD*%
%TO.C,SW36*%
X222804851Y-64054560D03*
D22*
X223374176Y-61272408D03*
D23*
X227711754Y-62739759D03*
D22*
X228850405Y-57175455D03*
D21*
X232618657Y-61424958D03*
%TD*%
%TO.C,SW39*%
X237596372Y-119257210D03*
D22*
X238165697Y-116475058D03*
D23*
X242503275Y-117942409D03*
D22*
X243641926Y-112378105D03*
D21*
X247410178Y-116627608D03*
%TD*%
%TO.C,SW32*%
X210156225Y-90452751D03*
D22*
X210725550Y-87670599D03*
D23*
X215063128Y-89137950D03*
D22*
X216201779Y-83573646D03*
D21*
X219970031Y-87823149D03*
%TD*%
M02*
