%TF.GenerationSoftware,KiCad,Pcbnew,(7.0.0)*%
%TF.CreationDate,2023-03-10T23:57:20+00:00*%
%TF.ProjectId,Honeydew,486f6e65-7964-4657-972e-6b696361645f,rev?*%
%TF.SameCoordinates,Original*%
%TF.FileFunction,Soldermask,Top*%
%TF.FilePolarity,Negative*%
%FSLAX46Y46*%
G04 Gerber Fmt 4.6, Leading zero omitted, Abs format (unit mm)*
G04 Created by KiCad (PCBNEW (7.0.0)) date 2023-03-10 23:57:20*
%MOMM*%
%LPD*%
G01*
G04 APERTURE LIST*
G04 Aperture macros list*
%AMRoundRect*
0 Rectangle with rounded corners*
0 $1 Rounding radius*
0 $2 $3 $4 $5 $6 $7 $8 $9 X,Y pos of 4 corners*
0 Add a 4 corners polygon primitive as box body*
4,1,4,$2,$3,$4,$5,$6,$7,$8,$9,$2,$3,0*
0 Add four circle primitives for the rounded corners*
1,1,$1+$1,$2,$3*
1,1,$1+$1,$4,$5*
1,1,$1+$1,$6,$7*
1,1,$1+$1,$8,$9*
0 Add four rect primitives between the rounded corners*
20,1,$1+$1,$2,$3,$4,$5,0*
20,1,$1+$1,$4,$5,$6,$7,0*
20,1,$1+$1,$6,$7,$8,$9,0*
20,1,$1+$1,$8,$9,$2,$3,0*%
G04 Aperture macros list end*
%ADD10C,2.000000*%
%ADD11R,2.500000X6.000000*%
%ADD12C,3.500000*%
%ADD13C,5.600000*%
%ADD14C,1.152000*%
%ADD15C,0.650000*%
%ADD16R,0.600000X1.450000*%
%ADD17R,0.300000X1.450000*%
%ADD18O,1.000000X2.100000*%
%ADD19O,1.000000X1.600000*%
%ADD20R,1.700000X1.700000*%
%ADD21O,1.700000X1.700000*%
%ADD22C,4.000000*%
%ADD23RoundRect,0.250000X0.625000X-0.350000X0.625000X0.350000X-0.625000X0.350000X-0.625000X-0.350000X0*%
%ADD24O,1.750000X1.200000*%
%ADD25C,1.750000*%
%ADD26C,3.000000*%
%ADD27C,3.987800*%
%ADD28R,1.200000X1.200000*%
%ADD29C,1.200000*%
G04 APERTURE END LIST*
%TO.C,A1*%
G36*
X165263378Y-141584671D02*
G01*
X165228511Y-141735674D01*
X165094045Y-141754005D01*
X164884974Y-141661070D01*
X164924711Y-141584671D01*
X165226150Y-141554272D01*
X165263378Y-141584671D01*
G37*
G36*
X165517378Y-140314671D02*
G01*
X165547777Y-140616110D01*
X165517378Y-140653338D01*
X165366375Y-140618471D01*
X165348045Y-140484005D01*
X165440979Y-140274934D01*
X165517378Y-140314671D01*
G37*
G36*
X162300045Y-142643005D02*
G01*
X162542356Y-142871251D01*
X162554045Y-142911995D01*
X162357527Y-143021092D01*
X162300045Y-143024005D01*
X162055805Y-142828741D01*
X162046045Y-142755014D01*
X162201654Y-142603316D01*
X162300045Y-142643005D01*
G37*
G36*
X164058475Y-141638615D02*
G01*
X164078045Y-141724024D01*
X163892687Y-142083098D01*
X163824045Y-142135005D01*
X163589614Y-142123394D01*
X163570045Y-142037985D01*
X163755402Y-141678911D01*
X163824045Y-141627005D01*
X164058475Y-141638615D01*
G37*
G36*
X166530733Y-139623614D02*
G01*
X166491045Y-139722005D01*
X166262798Y-139964316D01*
X166222054Y-139976005D01*
X166112957Y-139779487D01*
X166110045Y-139722005D01*
X166305308Y-139477765D01*
X166379035Y-139468005D01*
X166530733Y-139623614D01*
G37*
G36*
X171436664Y-139915292D02*
G01*
X171444045Y-139976005D01*
X171250757Y-140222624D01*
X171190045Y-140230005D01*
X170943425Y-140036717D01*
X170936045Y-139976005D01*
X171129332Y-139729385D01*
X171190045Y-139722005D01*
X171436664Y-139915292D01*
G37*
G36*
X181383400Y-139849005D02*
G01*
X181922099Y-139849005D01*
X181942544Y-140371758D01*
X182000104Y-140506681D01*
X182032563Y-140423466D01*
X182079874Y-139813502D01*
X182037689Y-139407466D01*
X181970778Y-139266691D01*
X181928688Y-139571985D01*
X181922099Y-139849005D01*
X181383400Y-139849005D01*
X181371551Y-139597209D01*
X181418753Y-138970800D01*
X181576105Y-138602532D01*
X181689802Y-138486232D01*
X182129596Y-138284639D01*
X182354918Y-138318128D01*
X182523864Y-138677407D01*
X182600007Y-139394950D01*
X182583293Y-140329559D01*
X182473669Y-141340038D01*
X182356292Y-141954581D01*
X182227398Y-142957537D01*
X182369372Y-143600751D01*
X182764655Y-143849577D01*
X183259886Y-143737582D01*
X183779688Y-143422778D01*
X183826481Y-143110182D01*
X183509044Y-142770004D01*
X183160492Y-142275499D01*
X183230508Y-142009589D01*
X183868888Y-142009589D01*
X183980442Y-142472291D01*
X184299157Y-142963501D01*
X184750863Y-143479004D01*
X185095462Y-143765298D01*
X185160045Y-143786005D01*
X185439212Y-143603221D01*
X185872078Y-143146714D01*
X186020932Y-142963501D01*
X186399508Y-142335827D01*
X186426422Y-141935767D01*
X186124989Y-141832775D01*
X185695314Y-141993410D01*
X185070917Y-142147928D01*
X184624775Y-141993410D01*
X184091436Y-141826811D01*
X183868888Y-142009589D01*
X183230508Y-142009589D01*
X183300641Y-141743231D01*
X183636044Y-141373005D01*
X184035401Y-141064500D01*
X184336645Y-141110771D01*
X184652045Y-141373004D01*
X185049156Y-141679949D01*
X185349986Y-141636122D01*
X185677009Y-141364892D01*
X186064155Y-141061677D01*
X186352510Y-141093172D01*
X186740645Y-141443716D01*
X187102325Y-141889375D01*
X187106645Y-142285612D01*
X186955721Y-142609976D01*
X186770154Y-143227796D01*
X186901551Y-143663539D01*
X187207035Y-143786005D01*
X187339135Y-143556594D01*
X187425937Y-142965954D01*
X187446045Y-142418449D01*
X187446044Y-141050894D01*
X188613349Y-141090186D01*
X189578244Y-141231797D01*
X190110227Y-141580196D01*
X190336073Y-142072065D01*
X190531307Y-142795165D01*
X190663449Y-143565717D01*
X190700023Y-144199938D01*
X190626288Y-144500428D01*
X190390047Y-144488172D01*
X190160607Y-144118666D01*
X190011433Y-143538267D01*
X189989934Y-143232647D01*
X189811150Y-142514834D01*
X189373713Y-141964243D01*
X188833838Y-141754005D01*
X188415110Y-141981004D01*
X188092392Y-142554106D01*
X187954502Y-143311462D01*
X187954045Y-143357205D01*
X187804417Y-143971266D01*
X187568280Y-144297959D01*
X187203295Y-144472073D01*
X186808037Y-144274279D01*
X186679280Y-144162693D01*
X186281377Y-143857081D01*
X185978914Y-143907722D01*
X185672809Y-144162693D01*
X185240026Y-144459150D01*
X184890441Y-144378652D01*
X184775572Y-144291123D01*
X184419169Y-144107613D01*
X183926335Y-144137949D01*
X183343856Y-144306608D01*
X182666622Y-144500485D01*
X182287662Y-144493584D01*
X182035267Y-144277954D01*
X182010576Y-144244876D01*
X181734671Y-143988049D01*
X181369529Y-144035567D01*
X181047136Y-144190602D01*
X180359088Y-144395253D01*
X179417083Y-144484162D01*
X179026380Y-144479466D01*
X178217145Y-144412290D01*
X177789035Y-144271382D01*
X177615724Y-144006565D01*
X177596882Y-143911699D01*
X177424171Y-142966961D01*
X177251628Y-142473895D01*
X177058186Y-142376616D01*
X177024598Y-142393607D01*
X176867063Y-142723451D01*
X176782580Y-143353152D01*
X176778045Y-143546995D01*
X176720923Y-144177656D01*
X176578466Y-144524718D01*
X176524045Y-144548005D01*
X176364018Y-144322889D01*
X176275953Y-143761469D01*
X176270045Y-143546995D01*
X176212783Y-142872012D01*
X176070545Y-142441103D01*
X176023491Y-142393607D01*
X175824069Y-142435144D01*
X175649037Y-142866423D01*
X175477735Y-143742317D01*
X175451450Y-143913005D01*
X175314801Y-144229588D01*
X174941114Y-144398302D01*
X174200305Y-144474635D01*
X174126461Y-144478176D01*
X173321550Y-144454809D01*
X172698556Y-144330537D01*
X172522586Y-144240509D01*
X172169192Y-144089159D01*
X171943263Y-144308214D01*
X171651540Y-144526011D01*
X171371211Y-144293941D01*
X171138104Y-143669549D01*
X170994880Y-142784956D01*
X170966945Y-142586529D01*
X172266057Y-142586529D01*
X172426036Y-143190556D01*
X172767610Y-143654964D01*
X173095045Y-143786005D01*
X173476638Y-143577048D01*
X173785248Y-143131279D01*
X173922294Y-142421906D01*
X173696273Y-141875705D01*
X173170116Y-141629828D01*
X173095045Y-141627005D01*
X172589216Y-141823993D01*
X172374469Y-142051779D01*
X172266057Y-142586529D01*
X170966945Y-142586529D01*
X170884946Y-142004078D01*
X170713741Y-141614797D01*
X170426438Y-141500751D01*
X170389442Y-141500005D01*
X169931919Y-141733237D01*
X169591504Y-142357855D01*
X169421723Y-143261239D01*
X169412045Y-143556512D01*
X169266931Y-144229891D01*
X168903770Y-144533018D01*
X168430831Y-144484973D01*
X167956385Y-144104837D01*
X167588702Y-143411693D01*
X167534543Y-143225624D01*
X167308041Y-142334008D01*
X166305557Y-143336492D01*
X164884413Y-144463944D01*
X163335217Y-145111950D01*
X161756684Y-145304426D01*
X160702017Y-145236155D01*
X159983794Y-144997026D01*
X159724684Y-144820034D01*
X159395742Y-144441990D01*
X159837341Y-144441990D01*
X160266887Y-144714337D01*
X160331545Y-144745999D01*
X161465140Y-145018081D01*
X162858333Y-144878618D01*
X163646157Y-144653050D01*
X164681512Y-144133914D01*
X165752723Y-143324633D01*
X166732285Y-142350821D01*
X167492692Y-141338092D01*
X167891692Y-140470458D01*
X168078661Y-139441394D01*
X168057558Y-138613435D01*
X167837706Y-138098685D01*
X167686466Y-138002233D01*
X167470730Y-138064026D01*
X167514274Y-138517374D01*
X167514941Y-138520036D01*
X167539193Y-139440873D01*
X167264793Y-140522666D01*
X166754571Y-141569446D01*
X166370845Y-142088453D01*
X165713785Y-142695742D01*
X164842125Y-143328081D01*
X164326937Y-143637269D01*
X163497866Y-144043518D01*
X162789252Y-144238810D01*
X161954346Y-144274314D01*
X161388448Y-144246618D01*
X160386776Y-144213490D01*
X159873522Y-144276827D01*
X159837341Y-144441990D01*
X159395742Y-144441990D01*
X159327934Y-144364060D01*
X159379045Y-144077965D01*
X159593555Y-143886257D01*
X160452964Y-143886257D01*
X160910957Y-144045966D01*
X161684144Y-144044013D01*
X162613531Y-143900973D01*
X163540124Y-143637421D01*
X164045854Y-143421317D01*
X165350778Y-142557830D01*
X166383918Y-141470117D01*
X167037984Y-140276319D01*
X167110772Y-140046447D01*
X167335737Y-139084805D01*
X167351123Y-138564697D01*
X167228315Y-138452004D01*
X166979344Y-138600021D01*
X166421041Y-139001183D01*
X165640650Y-139591161D01*
X164878815Y-140184417D01*
X163829737Y-141008407D01*
X162785919Y-141823250D01*
X161897356Y-142512080D01*
X161490130Y-142824670D01*
X160881961Y-143329825D01*
X160511348Y-143720205D01*
X160452964Y-143886257D01*
X159593555Y-143886257D01*
X159873578Y-143636000D01*
X160645472Y-143004137D01*
X161620322Y-142237694D01*
X162723724Y-141391992D01*
X163881277Y-140522353D01*
X165018576Y-139684095D01*
X166061217Y-138932540D01*
X166934798Y-138323007D01*
X167564915Y-137910817D01*
X167877164Y-137751291D01*
X167888045Y-137751365D01*
X168218849Y-138060028D01*
X168355384Y-138809285D01*
X168295502Y-139969462D01*
X168127137Y-141055549D01*
X167963211Y-142118774D01*
X167949508Y-142844210D01*
X168084487Y-143378873D01*
X168102374Y-143419371D01*
X168404515Y-143881189D01*
X168650895Y-143863846D01*
X168822716Y-143394832D01*
X168901178Y-142501642D01*
X168904045Y-142247014D01*
X168942946Y-141441378D01*
X169044385Y-140895840D01*
X169158045Y-140738005D01*
X169404723Y-140925460D01*
X169412045Y-140984033D01*
X169597622Y-141150512D01*
X169729545Y-141132248D01*
X170619078Y-140880265D01*
X171134302Y-140836743D01*
X171380544Y-141042778D01*
X171463133Y-141539464D01*
X171473509Y-141812665D01*
X171514307Y-142350469D01*
X171584794Y-142495075D01*
X171626731Y-142389005D01*
X172006748Y-141565303D01*
X172572766Y-141127092D01*
X173212960Y-141048323D01*
X173815502Y-141302951D01*
X174268566Y-141864928D01*
X174460327Y-142708209D01*
X174446993Y-143045900D01*
X174478608Y-143682357D01*
X174682545Y-143972495D01*
X174877222Y-143877949D01*
X174977745Y-143384660D01*
X175000045Y-142679161D01*
X175064935Y-141685588D01*
X175268400Y-141167788D01*
X175623632Y-141109248D01*
X176032050Y-141387489D01*
X176426614Y-141686161D01*
X176732262Y-141624912D01*
X177016039Y-141387489D01*
X177507391Y-141086512D01*
X177839074Y-141236091D01*
X178024797Y-141851837D01*
X178075874Y-142594495D01*
X178103704Y-143913005D01*
X178321253Y-142806418D01*
X178426931Y-142429042D01*
X179064045Y-142429042D01*
X179164477Y-142655737D01*
X179539401Y-142533408D01*
X179557898Y-142523575D01*
X180021174Y-142209380D01*
X180197042Y-142024190D01*
X180161960Y-141700588D01*
X180073061Y-141622689D01*
X179676485Y-141626001D01*
X179273797Y-141932153D01*
X179066312Y-142380265D01*
X179064045Y-142429042D01*
X178426931Y-142429042D01*
X178605619Y-141790944D01*
X178999338Y-141210901D01*
X179554289Y-140996981D01*
X179679345Y-140992004D01*
X180408976Y-141155160D01*
X180769721Y-141572146D01*
X180748530Y-142134242D01*
X180332355Y-142732726D01*
X179925289Y-143041158D01*
X179377711Y-143414360D01*
X179226596Y-143648898D01*
X179414986Y-143835180D01*
X179422414Y-143839364D01*
X180095955Y-143958677D01*
X180751901Y-143643167D01*
X181197811Y-143069504D01*
X181408452Y-142342169D01*
X181452805Y-141255274D01*
X181418910Y-140603599D01*
X181383400Y-139849005D01*
G37*
%TD*%
D10*
%TO.C,SW64*%
X200500000Y-130000000D03*
X149500000Y-130000000D03*
X177500000Y-99400000D03*
X172500000Y-99400000D03*
X175000000Y-99400000D03*
D11*
X205099999Y-129999999D03*
D12*
X190100000Y-156153967D03*
X190100000Y-103846033D03*
D13*
X189500000Y-130000000D03*
X160500000Y-130000000D03*
D12*
X159900000Y-156153967D03*
X159900000Y-103846033D03*
D11*
X144899999Y-129999999D03*
%TD*%
D14*
%TO.C,H3*%
X54600005Y-29955003D03*
%TD*%
%TO.C,H2*%
X295250003Y-30005001D03*
%TD*%
D15*
%TO.C,J2*%
X177889999Y-23150005D03*
X172109999Y-23150005D03*
D16*
X178224998Y-24595004D03*
X177449998Y-24595004D03*
D17*
X176249998Y-24595004D03*
X175249998Y-24595004D03*
X174749998Y-24595004D03*
X173749998Y-24595004D03*
D16*
X172549998Y-24595004D03*
X171774998Y-24595004D03*
D17*
X173249998Y-24595004D03*
X174249998Y-24595004D03*
X175749998Y-24595004D03*
X176749998Y-24595004D03*
D18*
X179319998Y-23680004D03*
D19*
X179319998Y-19500004D03*
D18*
X170679998Y-23680004D03*
D19*
X170679998Y-19500004D03*
%TD*%
D20*
%TO.C,J4*%
X155000002Y-33580623D03*
D21*
X155000002Y-36120623D03*
X155000002Y-38660623D03*
X155000002Y-41200623D03*
X155000002Y-43740623D03*
X155000002Y-46280623D03*
X155000002Y-48820623D03*
D22*
X155250003Y-25200624D03*
X155250003Y-57200624D03*
X194750003Y-25200624D03*
X194750003Y-57200624D03*
%TD*%
D23*
%TO.C,J5*%
X151050003Y-47200624D03*
D24*
X151050002Y-45200623D03*
X151050002Y-43200623D03*
X151050002Y-41200623D03*
X151050002Y-39200623D03*
X151050002Y-37200623D03*
X151050002Y-35200623D03*
%TD*%
D14*
%TO.C,H1*%
X175000001Y-186655002D03*
%TD*%
D20*
%TO.C,J1*%
X171199997Y-62600002D03*
D21*
X173739997Y-62600002D03*
X176279997Y-62600002D03*
X178819997Y-62600002D03*
%TD*%
D25*
%TO.C,SW25*%
X121027845Y-148071743D03*
D26*
X121860967Y-142453566D03*
D27*
X116866552Y-145157974D03*
D26*
X115202467Y-140892002D03*
D25*
X112705260Y-142244206D03*
%TD*%
%TO.C,SW30*%
X136265365Y-163891517D03*
D26*
X138524190Y-158680403D03*
D27*
X133000004Y-160000011D03*
D26*
X132496736Y-155448701D03*
D25*
X129734643Y-156108505D03*
%TD*%
%TO.C,SW1*%
X61700841Y-43482097D03*
D26*
X61051485Y-37839727D03*
D27*
X56927203Y-41744634D03*
D26*
X54215705Y-38054718D03*
D25*
X52153564Y-40007172D03*
%TD*%
%TO.C,SW24*%
X116202281Y-116534542D03*
D26*
X115552925Y-110892172D03*
D27*
X111428643Y-114797079D03*
D26*
X108717145Y-111107163D03*
D25*
X106655004Y-113059617D03*
%TD*%
%TO.C,SW29*%
X133017485Y-126033574D03*
D26*
X132368129Y-120391204D03*
D27*
X128243847Y-124296111D03*
D26*
X125532349Y-120606195D03*
D25*
X123470208Y-122558649D03*
%TD*%
%TO.C,SW14*%
X80399972Y-103503586D03*
D26*
X79750616Y-97861216D03*
D27*
X75626334Y-101766123D03*
D26*
X72914836Y-98076207D03*
D25*
X70852695Y-100028661D03*
%TD*%
%TO.C,SW19*%
X99658518Y-106289651D03*
D26*
X99009162Y-100647281D03*
D27*
X94884880Y-104552188D03*
D26*
X92173382Y-100862272D03*
D25*
X90111241Y-102814726D03*
%TD*%
%TO.C,SW5*%
X35638900Y-115086695D03*
D26*
X34989544Y-109444325D03*
D27*
X30865262Y-113349232D03*
D26*
X28153764Y-109659316D03*
D25*
X26091623Y-111611770D03*
%TD*%
%TO.C,SW22*%
X129233232Y-80732244D03*
D26*
X128583876Y-75089874D03*
D27*
X124459594Y-78994781D03*
D26*
X121748096Y-75304865D03*
D25*
X119685955Y-77257319D03*
%TD*%
%TO.C,SW27*%
X146048454Y-90231275D03*
D26*
X145399098Y-84588905D03*
D27*
X141274816Y-88493812D03*
D26*
X138563318Y-84803896D03*
D25*
X136501177Y-86756350D03*
%TD*%
%TO.C,SW3*%
X48669856Y-79284399D03*
D26*
X48020500Y-73642029D03*
D27*
X43896218Y-77546936D03*
D26*
X41184720Y-73857020D03*
D25*
X39122579Y-75809474D03*
%TD*%
%TO.C,SW8*%
X67385454Y-83562223D03*
D26*
X66736098Y-77919853D03*
D27*
X62611816Y-81824760D03*
D26*
X59900318Y-78134844D03*
D25*
X57838177Y-80087298D03*
%TD*%
%TO.C,SW13*%
X86915464Y-85602429D03*
D26*
X86266108Y-79960059D03*
D27*
X82141826Y-83864966D03*
D26*
X79430328Y-80175050D03*
D25*
X77368187Y-82127504D03*
%TD*%
%TO.C,SW23*%
X122717754Y-98633426D03*
D26*
X122068398Y-92991056D03*
D27*
X117944116Y-96895963D03*
D26*
X115232618Y-93206047D03*
D25*
X113170477Y-95158501D03*
%TD*%
%TO.C,SW18*%
X106173986Y-88388514D03*
D26*
X105524630Y-82746144D03*
D27*
X101400348Y-86651051D03*
D26*
X98688850Y-82961135D03*
D25*
X96626709Y-84913589D03*
%TD*%
%TO.C,SW28*%
X139532967Y-108132417D03*
D26*
X138883611Y-102490047D03*
D27*
X134759329Y-106394954D03*
D26*
X132047831Y-102705038D03*
D25*
X129985690Y-104657492D03*
%TD*%
%TO.C,SW4*%
X42154398Y-97185559D03*
D26*
X41505042Y-91543189D03*
D27*
X37380760Y-95448096D03*
D26*
X34669262Y-91758180D03*
D25*
X32607121Y-93710634D03*
%TD*%
%TO.C,SW9*%
X60869942Y-101463384D03*
D26*
X60220586Y-95821014D03*
D27*
X56096304Y-99725921D03*
D26*
X53384806Y-96036005D03*
D25*
X51322665Y-97988459D03*
%TD*%
%TO.C,SW10*%
X54354478Y-119364525D03*
D26*
X53705122Y-113722155D03*
D27*
X49580840Y-117627062D03*
D26*
X46869342Y-113937146D03*
D25*
X44807201Y-115889600D03*
%TD*%
%TO.C,SW15*%
X73884492Y-121404723D03*
D26*
X73235136Y-115762353D03*
D27*
X69110854Y-119667260D03*
D26*
X66399356Y-115977344D03*
D25*
X64337215Y-117929798D03*
%TD*%
%TO.C,SW20*%
X102090858Y-136739146D03*
D26*
X101441502Y-131096776D03*
D27*
X97317220Y-135001683D03*
D26*
X94605722Y-131311767D03*
D25*
X92543581Y-133264221D03*
%TD*%
%TO.C,SW11*%
X99946427Y-49800159D03*
D26*
X99297071Y-44157789D03*
D27*
X95172789Y-48062696D03*
D26*
X92461291Y-44372780D03*
D25*
X90399150Y-46325234D03*
%TD*%
%TO.C,SW2*%
X55185356Y-61383249D03*
D26*
X54536000Y-55740879D03*
D27*
X50411718Y-59645786D03*
D26*
X47700220Y-55955870D03*
D25*
X45638079Y-57908324D03*
%TD*%
%TO.C,SW12*%
X93430936Y-67701283D03*
D26*
X92781580Y-62058913D03*
D27*
X88657298Y-65963820D03*
D26*
X85945800Y-62273904D03*
D25*
X83883659Y-64226358D03*
%TD*%
%TO.C,SW21*%
X135748721Y-62831112D03*
D26*
X135099365Y-57188742D03*
D27*
X130975083Y-61093649D03*
D26*
X128263585Y-57403733D03*
D25*
X126201444Y-59356187D03*
%TD*%
%TO.C,SW17*%
X112689479Y-70487377D03*
D26*
X112040123Y-64845007D03*
D27*
X107915841Y-68749914D03*
D26*
X105204343Y-65059998D03*
D25*
X103142202Y-67012452D03*
%TD*%
%TO.C,SW16*%
X119204966Y-52586216D03*
D26*
X118555610Y-46943846D03*
D27*
X114431328Y-50848753D03*
D26*
X111719830Y-47158837D03*
D25*
X109657689Y-49111291D03*
%TD*%
%TO.C,SW6*%
X80416412Y-47759951D03*
D26*
X79767056Y-42117581D03*
D27*
X75642774Y-46022488D03*
D26*
X72931276Y-42332572D03*
D25*
X70869135Y-44285026D03*
%TD*%
%TO.C,SW7*%
X73900926Y-65661092D03*
D26*
X73251570Y-60018722D03*
D27*
X69127288Y-63923629D03*
D26*
X66415790Y-60233713D03*
D25*
X64353649Y-62186167D03*
%TD*%
%TO.C,SW26*%
X152563943Y-72330124D03*
D26*
X151914587Y-66687754D03*
D27*
X147790305Y-70592661D03*
D26*
X145078807Y-66902745D03*
D25*
X143016666Y-68855199D03*
%TD*%
%TO.C,SW31*%
X206983358Y-68855205D03*
D26*
X202859076Y-64950298D03*
D27*
X202209719Y-70592668D03*
D26*
X197760759Y-69508945D03*
D25*
X197436081Y-72330130D03*
%TD*%
%TO.C,SW45*%
X257456434Y-133264218D03*
D26*
X253332152Y-129359311D03*
D27*
X252682795Y-135001681D03*
D26*
X248233835Y-133917958D03*
D25*
X247909157Y-136739143D03*
%TD*%
%TO.C,SW49*%
X279147317Y-100028672D03*
D26*
X275023035Y-96123765D03*
D27*
X274373678Y-101766135D03*
D26*
X269924718Y-100682412D03*
D25*
X269600040Y-103503597D03*
%TD*%
%TO.C,SW47*%
X266116359Y-64226370D03*
D26*
X261992077Y-60321463D03*
D27*
X261342720Y-65963833D03*
D26*
X256893760Y-64880110D03*
D25*
X256569082Y-67701295D03*
%TD*%
%TO.C,SW63*%
X201266906Y-171775202D03*
D26*
X197498654Y-167525699D03*
D27*
X196360003Y-173090003D03*
D26*
X192022425Y-171622651D03*
D25*
X191453100Y-174404803D03*
%TD*%
%TO.C,SW61*%
X158546905Y-174404787D03*
D26*
X157408254Y-168840483D03*
D27*
X153640001Y-173089986D03*
D26*
X150617224Y-169650434D03*
D25*
X148733098Y-171775185D03*
%TD*%
%TO.C,SW33*%
X220014312Y-104657490D03*
D26*
X215890030Y-100752583D03*
D27*
X215240673Y-106394953D03*
D26*
X210791713Y-105311230D03*
D25*
X210467035Y-108132415D03*
%TD*%
%TO.C,SW59*%
X317392904Y-93710621D03*
D26*
X313268622Y-89805714D03*
D27*
X312619265Y-95448084D03*
D26*
X308170305Y-94364361D03*
D25*
X307845627Y-97185546D03*
%TD*%
%TO.C,SW38*%
X236829560Y-95158483D03*
D26*
X232705278Y-91253576D03*
D27*
X232055921Y-96895946D03*
D26*
X227606961Y-95812223D03*
D25*
X227282283Y-98633408D03*
%TD*%
%TO.C,SW50*%
X285662804Y-117929812D03*
D26*
X281538522Y-114024905D03*
D27*
X280889165Y-119667275D03*
D26*
X276440205Y-118583552D03*
D25*
X276115527Y-121404737D03*
%TD*%
%TO.C,SW58*%
X310877416Y-75809459D03*
D26*
X306753134Y-71904552D03*
D27*
X306103777Y-77546922D03*
D26*
X301654817Y-76463199D03*
D25*
X301330139Y-79284384D03*
%TD*%
D28*
%TO.C,U4*%
X180349999Y-124339999D03*
D29*
X180350000Y-126120000D03*
X180350000Y-127900000D03*
X180350000Y-129680000D03*
X180350000Y-131460000D03*
X180350000Y-133240000D03*
X180350000Y-135020000D03*
X180350000Y-136800000D03*
X169650000Y-137690000D03*
X169650000Y-135910000D03*
X169650000Y-134130000D03*
X169650000Y-132350000D03*
X169650000Y-130570000D03*
X169650000Y-128790000D03*
X169650000Y-127010000D03*
X169650000Y-125230000D03*
%TD*%
D25*
%TO.C,SW43*%
X253373285Y-84913584D03*
D26*
X249249003Y-81008677D03*
D27*
X248599646Y-86651047D03*
D26*
X244150686Y-85567324D03*
D25*
X243826008Y-88388509D03*
%TD*%
%TO.C,SW57*%
X304361932Y-57908323D03*
D26*
X300237650Y-54003416D03*
D27*
X299588293Y-59645786D03*
D26*
X295139333Y-58562063D03*
D25*
X294814655Y-61383248D03*
%TD*%
%TO.C,SW52*%
X285646369Y-62186166D03*
D26*
X281522087Y-58281259D03*
D27*
X280872730Y-63923629D03*
D26*
X276423770Y-62839906D03*
D25*
X276099092Y-65661091D03*
%TD*%
%TO.C,SW44*%
X259888779Y-102814716D03*
D26*
X255764497Y-98909809D03*
D27*
X255115140Y-104552179D03*
D26*
X250666180Y-103468456D03*
D25*
X250341502Y-106289641D03*
%TD*%
%TO.C,SW41*%
X240342327Y-49111301D03*
D26*
X236218045Y-45206394D03*
D27*
X235568688Y-50848764D03*
D26*
X231119728Y-49765041D03*
D25*
X230795050Y-52586226D03*
%TD*%
%TO.C,SW40*%
X237294745Y-142244192D03*
D26*
X232300330Y-139539784D03*
D27*
X233133452Y-145157960D03*
D26*
X228555599Y-145262640D03*
D25*
X228972160Y-148071728D03*
%TD*%
%TO.C,SW62*%
X180080019Y-175909994D03*
D26*
X177540019Y-170829994D03*
D27*
X175000019Y-175909994D03*
D26*
X171190019Y-173369994D03*
D25*
X169920019Y-175909994D03*
%TD*%
%TO.C,SW46*%
X259600860Y-46325233D03*
D26*
X255476578Y-42420326D03*
D27*
X254827221Y-48062696D03*
D26*
X250378261Y-46978973D03*
D25*
X250053583Y-49800158D03*
%TD*%
%TO.C,SW51*%
X279130884Y-44285034D03*
D26*
X275006602Y-40380127D03*
D27*
X274357245Y-46022497D03*
D26*
X269908285Y-44938774D03*
D25*
X269583607Y-47759959D03*
%TD*%
%TO.C,SW60*%
X323908380Y-111611760D03*
D26*
X319784098Y-107706853D03*
D27*
X319134741Y-113349223D03*
D26*
X314685781Y-112265500D03*
D25*
X314361103Y-115086685D03*
%TD*%
%TO.C,SW37*%
X230314068Y-77257350D03*
D26*
X226189786Y-73352443D03*
D27*
X225540429Y-78994813D03*
D26*
X221091469Y-77911090D03*
D25*
X220766791Y-80732275D03*
%TD*%
%TO.C,SW54*%
X298677332Y-97988465D03*
D26*
X294553050Y-94083558D03*
D27*
X293903693Y-99725928D03*
D26*
X289454733Y-98642205D03*
D25*
X289130055Y-101463390D03*
%TD*%
%TO.C,SW55*%
X305192824Y-115889610D03*
D26*
X301068542Y-111984703D03*
D27*
X300419185Y-117627073D03*
D26*
X295970225Y-116543350D03*
D25*
X295645547Y-119364535D03*
%TD*%
%TO.C,SW48*%
X272631839Y-82127517D03*
D26*
X268507557Y-78222610D03*
D27*
X267858200Y-83864980D03*
D26*
X263409240Y-82781257D03*
D25*
X263084562Y-85602442D03*
%TD*%
%TO.C,SW53*%
X292161848Y-80087311D03*
D26*
X288037566Y-76182404D03*
D27*
X287388209Y-81824774D03*
D26*
X282939249Y-80741051D03*
D25*
X282614571Y-83562236D03*
%TD*%
%TO.C,SW35*%
X220265368Y-156108498D03*
D26*
X214741182Y-154788890D03*
D27*
X217000007Y-160000004D03*
D26*
X212605234Y-161285953D03*
D25*
X213734646Y-163891510D03*
%TD*%
%TO.C,SW34*%
X226529794Y-122558634D03*
D26*
X222405512Y-118653727D03*
D27*
X221756155Y-124296097D03*
D26*
X217307195Y-123212374D03*
D25*
X216982517Y-126033559D03*
%TD*%
%TO.C,SW42*%
X246857802Y-67012448D03*
D26*
X242733520Y-63107541D03*
D27*
X242084163Y-68749911D03*
D26*
X237635203Y-67666188D03*
D25*
X237310525Y-70487373D03*
%TD*%
%TO.C,SW56*%
X297846454Y-40007188D03*
D26*
X293722172Y-36102281D03*
D27*
X293072815Y-41744651D03*
D26*
X288623855Y-40660928D03*
D25*
X288299177Y-43482113D03*
%TD*%
%TO.C,SW36*%
X223798575Y-59356208D03*
D26*
X219674293Y-55451301D03*
D27*
X219024936Y-61093671D03*
D26*
X214575976Y-60009948D03*
D25*
X214251298Y-62831133D03*
%TD*%
%TO.C,SW39*%
X243345035Y-113059635D03*
D26*
X239220753Y-109154728D03*
D27*
X238571396Y-114797098D03*
D26*
X234122436Y-113713375D03*
D25*
X233797758Y-116534560D03*
%TD*%
%TO.C,SW32*%
X213498831Y-86756351D03*
D26*
X209374549Y-82851444D03*
D27*
X208725192Y-88493814D03*
D26*
X204276232Y-87410091D03*
D25*
X203951554Y-90231276D03*
%TD*%
M02*
