M48
; DRILL file {KiCad 7.0.6} date Wed Jul 26 12:15:43 2023
; FORMAT={-:-/ absolute / inch / decimal}
; #@! TF.CreationDate,2023-07-26T12:15:43+01:00
; #@! TF.GenerationSoftware,Kicad,Pcbnew,7.0.6
; #@! TF.FileFunction,NonPlated,1,2,NPTH
FMAT,2
INCH
; #@! TA.AperFunction,NonPlated,NPTH,ComponentDrill
T1C0.0454
; #@! TA.AperFunction,NonPlated,NPTH,ComponentDrill
T2C0.0866
; #@! TA.AperFunction,NonPlated,NPTH,ComponentDrill
T3C0.1181
; #@! TA.AperFunction,NonPlated,NPTH,ComponentDrill
T4C0.1570
; #@! TA.AperFunction,NonPlated,NPTH,ComponentDrill
T5C0.1575
; #@! TA.AperFunction,NonPlated,NPTH,ComponentDrill
T6C0.1654
%
G90
G05
T1
X2.4055Y-2.5692
X7.7953Y-7.6969
X13.189Y-2.5692
T2
X6.9025Y-5.3224
X8.4751Y-6.2864
T3
X1.7162Y-5.7338
X1.9103Y-5.0094
X2.1044Y-4.2849
X2.2985Y-3.5605
X2.4649Y-5.8374
X2.4926Y-2.8361
X2.659Y-5.1129
X2.8531Y-4.3885
X3.0472Y-3.6641
X3.2379Y-5.8504
X3.2413Y-2.9396
X3.432Y-5.1259
X3.6261Y-4.4015
X3.8202Y-3.6771
X4.0143Y-2.9526
X4.1969Y-5.1691
X4.391Y-4.4447
X4.3967Y-6.355
X4.5851Y-3.7202
X4.7792Y-2.9958
X4.8809Y-5.5142
X5.075Y-4.7897
X5.2133Y-6.6509
X5.2691Y-4.0653
X5.4632Y-3.3408
X5.573Y-5.829
X5.7671Y-5.1046
X5.9254Y-7.1479
X5.9612Y-4.3801
X6.1553Y-3.6557
X6.8281Y-6.9235
X7.6453Y-7.2228
X7.6453Y-7.9728
X8.5026Y-7.0735
X9.1455Y-3.7333
X9.3396Y-4.4578
X9.453Y-7.3601
X9.5337Y-5.1822
X9.7278Y-5.9067
X9.8376Y-3.4185
X10.0317Y-4.1429
X10.1175Y-6.8009
X10.2258Y-4.8674
X10.4199Y-5.5918
X10.5216Y-3.0734
X10.7157Y-3.7979
X10.904Y-6.4327
X10.9098Y-4.5223
X11.1039Y-5.2468
X11.2865Y-3.0303
X11.4806Y-3.7547
X11.6747Y-4.4791
X11.8688Y-5.2036
X12.0594Y-3.0173
X12.0629Y-5.928
X12.2535Y-3.7417
X12.4477Y-4.4661
X12.6418Y-5.1906
X12.8081Y-2.9137
X12.8359Y-5.915
X13.0023Y-3.6381
X13.1964Y-4.3626
X13.3905Y-5.087
X13.5846Y-5.8115
T4
X1.8352Y-5.8692
X2.0293Y-5.1448
X2.2234Y-4.4204
X2.4175Y-3.6959
X2.5839Y-5.9728
X2.6116Y-2.9715
X2.778Y-5.2484
X2.9721Y-4.5239
X3.1662Y-3.7995
X3.3569Y-5.9858
X3.3604Y-3.075
X3.551Y-5.2614
X3.7451Y-4.5369
X3.9392Y-3.8125
X4.1333Y-3.088
X4.3159Y-5.3046
X4.51Y-4.5801
X4.5157Y-6.4904
X4.7041Y-3.8557
X4.8982Y-3.1312
X4.9999Y-5.6496
X5.194Y-4.9251
X5.2932Y-6.8125
X5.3881Y-4.2007
X5.5822Y-3.4763
X5.692Y-5.9644
X5.8861Y-5.24
X5.9608Y-7.3247
X6.0802Y-4.5156
X6.2743Y-3.7911
X6.908Y-7.0851
X7.3265Y-7.7478
X7.7953Y-7.3228
X7.7953Y-8.0728
X8.264Y-7.7478
X8.6825Y-7.0851
X9.3162Y-3.7911
X9.5104Y-4.5156
X9.6298Y-7.3247
X9.7045Y-5.24
X9.8986Y-5.9644
X10.0083Y-3.4763
X10.2025Y-4.2007
X10.2974Y-6.8125
X10.3966Y-4.9251
X10.5907Y-5.6496
X10.6923Y-3.1312
X10.8865Y-3.8557
X11.0748Y-6.4904
X11.0806Y-4.5801
X11.2747Y-5.3046
X11.4572Y-3.088
X11.6513Y-3.8125
X11.8455Y-4.5369
X12.0396Y-5.2614
X12.2302Y-3.075
X12.2337Y-5.9858
X12.4243Y-3.7995
X12.6184Y-4.5239
X12.8125Y-5.2484
X12.9789Y-2.9715
X13.0067Y-5.9728
X13.173Y-3.6959
X13.3671Y-4.4204
X13.5612Y-5.1448
X13.7554Y-5.8692
T5
X7.3189Y-4.8371
X8.7199Y-5.6138
T6
X7.3466Y-6.4385
T0
M30
