M48
; DRILL file {KiCad (7.0.0)} date Mon May 15 20:55:05 2023
; FORMAT={-:-/ absolute / inch / decimal}
; #@! TF.CreationDate,2023-05-15T20:55:05+01:00
; #@! TF.GenerationSoftware,Kicad,Pcbnew,(7.0.0)
; #@! TF.FileFunction,NonPlated,1,2,NPTH
FMAT,2
INCH
; #@! TA.AperFunction,NonPlated,NPTH,ComponentDrill
T1C0.0295
; #@! TA.AperFunction,NonPlated,NPTH,ComponentDrill
T2C0.0354
; #@! TA.AperFunction,NonPlated,NPTH,ComponentDrill
T3C0.0454
; #@! TA.AperFunction,NonPlated,NPTH,ComponentDrill
T4C0.0689
; #@! TA.AperFunction,NonPlated,NPTH,ComponentDrill
T5C0.0866
; #@! TA.AperFunction,NonPlated,NPTH,ComponentDrill
T6C0.1181
; #@! TA.AperFunction,NonPlated,NPTH,ComponentDrill
T7C0.1200
; #@! TA.AperFunction,NonPlated,NPTH,ComponentDrill
T8C0.1570
; #@! TA.AperFunction,NonPlated,NPTH,ComponentDrill
T9C0.1575
; #@! TA.AperFunction,NonPlated,NPTH,ComponentDrill
T10C0.1654
%
G90
G05
T1
X7.0472Y-1.8103
X7.0472Y-1.9186
T2
X8.0906Y-1.8554
X8.2087Y-1.8554
T3
X2.3819Y-2.1755
X7.5984Y-7.3032
X12.8189Y-2.1755
T4
X1.4452Y-5.4238
X1.6393Y-4.6993
X1.8315Y-5.5273
X1.8334Y-3.9749
X2.0256Y-4.8029
X2.0275Y-3.2504
X2.1939Y-5.5273
X2.2197Y-4.0784
X2.2216Y-2.526
X2.388Y-4.8029
X2.4139Y-3.354
X2.5802Y-5.6309
X2.5821Y-4.0784
X2.608Y-2.6295
X2.7743Y-4.9064
X2.7762Y-3.354
X2.9668Y-5.5403
X2.9685Y-4.182
X2.9703Y-2.6296
X3.1609Y-4.8159
X3.1626Y-3.4575
X3.3532Y-5.6439
X3.3551Y-4.0915
X3.3567Y-2.7331
X3.5473Y-4.9194
X3.5492Y-3.367
X3.7414Y-4.195
X3.7433Y-2.6426
X3.9258Y-4.8591
X3.9355Y-3.4705
X4.1199Y-4.1346
X4.1257Y-6.045
X4.1297Y-2.7461
X4.3122Y-4.9626
X4.3141Y-3.4102
X4.5063Y-4.2382
X4.5082Y-2.6858
X4.5121Y-6.1485
X4.6098Y-5.2041
X4.7004Y-3.5137
X4.804Y-4.4797
X4.8945Y-2.7893
X4.9231Y-6.3188
X4.9962Y-5.3077
X4.9981Y-3.7552
X5.1903Y-4.5832
X5.1922Y-3.0308
X5.2695Y-6.5188
X5.3019Y-5.519
X5.3844Y-3.8588
X5.496Y-4.7945
X5.5785Y-3.1343
X5.6225Y-6.7896
X5.6883Y-5.6225
X5.6902Y-4.0701
X5.8824Y-4.8981
X5.8843Y-3.3456
X5.9053Y-7.0724
X6.0765Y-4.1736
X6.2706Y-3.4492
X6.538Y-6.5914
X6.8844Y-6.7914
X7.3984Y-7.6791
X7.3984Y-6.9291
X7.7984Y-7.6791
X7.7984Y-6.9291
X8.3125Y-6.7914
X8.6589Y-6.5914
X8.9262Y-3.4492
X9.1203Y-4.1736
X9.2915Y-7.0724
X9.3126Y-3.3456
X9.3144Y-4.8981
X9.5067Y-4.0701
X9.5086Y-5.6225
X9.5744Y-6.7896
X9.6183Y-3.1343
X9.7008Y-4.7945
X9.8124Y-3.8588
X9.8949Y-5.519
X9.9273Y-6.5188
X10.0047Y-3.0308
X10.0065Y-4.5832
X10.1988Y-3.7552
X10.2006Y-5.3077
X10.2737Y-6.3188
X10.3023Y-2.7893
X10.3929Y-4.4797
X10.4964Y-3.5137
X10.587Y-5.2041
X10.6848Y-6.1485
X10.6887Y-2.6858
X10.6905Y-4.2382
X10.8828Y-3.4102
X10.8846Y-4.9626
X11.0672Y-2.7461
X11.0711Y-6.045
X11.0769Y-4.1346
X11.2613Y-3.4705
X11.271Y-4.8591
X11.4536Y-2.6426
X11.4554Y-4.195
X11.6477Y-3.367
X11.6495Y-4.9194
X11.8402Y-2.7331
X11.8418Y-4.0915
X11.8436Y-5.6439
X12.0343Y-3.4575
X12.0359Y-4.8159
X12.2265Y-2.6296
X12.2284Y-4.182
X12.23Y-5.5403
X12.4206Y-3.354
X12.4225Y-4.9064
X12.5889Y-2.6295
X12.6148Y-4.0785
X12.6166Y-5.6309
X12.783Y-3.354
X12.8089Y-4.8029
X12.9752Y-2.526
X12.9771Y-4.0784
X13.003Y-5.5273
X13.1694Y-3.2504
X13.1712Y-4.8029
X13.3635Y-3.9749
X13.3653Y-5.5273
X13.5576Y-4.6993
X13.7517Y-5.4238
T5
X6.7056Y-4.9287
X8.2782Y-5.8927
T6
X1.5193Y-5.3401
X1.7134Y-4.6157
X1.7867Y-5.3082
X1.9076Y-3.8912
X1.9808Y-4.5838
X2.1017Y-3.1668
X2.1749Y-3.8594
X2.268Y-5.4437
X2.2958Y-2.4424
X2.369Y-3.1349
X2.4622Y-4.7192
X2.5354Y-5.4118
X2.5632Y-2.4105
X2.6563Y-3.9948
X2.7295Y-4.6874
X2.8504Y-3.2704
X2.9236Y-3.9629
X3.041Y-5.4567
X3.0445Y-2.5459
X3.1177Y-3.2385
X3.2351Y-4.7322
X3.3084Y-5.4248
X3.3119Y-2.514
X3.4292Y-4.0078
X3.5025Y-4.7004
X3.6234Y-3.2834
X3.6966Y-3.9759
X3.8175Y-2.5589
X3.8907Y-3.2515
X4.0Y-4.7754
X4.0848Y-2.527
X4.1941Y-4.051
X4.1999Y-5.9613
X4.2674Y-4.7435
X4.3882Y-3.3265
X4.4615Y-4.0191
X4.4673Y-5.9294
X4.5824Y-2.6021
X4.6556Y-3.2947
X4.684Y-5.1205
X4.8497Y-2.5702
X4.8781Y-4.396
X4.9514Y-5.0886
X5.0164Y-6.2572
X5.0722Y-3.6716
X5.1455Y-4.3641
X5.2664Y-2.9471
X5.2829Y-6.2956
X5.3396Y-3.6397
X5.3761Y-5.4353
X5.5337Y-2.9153
X5.5702Y-4.7109
X5.6435Y-5.4034
X5.7286Y-6.7542
X5.7643Y-3.9864
X5.8376Y-4.679
X5.9584Y-3.262
X5.976Y-6.8603
X6.0317Y-3.9546
X6.2258Y-3.2301
X6.6313Y-6.5298
X6.8978Y-6.5682
X7.4484Y-7.5791
X7.4484Y-6.8291
X7.6984Y-7.4791
X7.6984Y-6.7291
X8.3058Y-6.6798
X8.4723Y-6.4682
X8.9486Y-3.3396
X9.1427Y-4.0641
X9.1642Y-3.1783
X9.2562Y-6.9664
X9.3369Y-4.7885
X9.3583Y-3.9028
X9.3622Y-6.7189
X9.531Y-5.513
X9.5525Y-4.6272
X9.6407Y-3.0248
X9.7466Y-5.3517
X9.8348Y-3.7492
X9.8563Y-2.8635
X9.9206Y-6.4072
X10.0289Y-4.4737
X10.0504Y-3.5879
X10.0871Y-6.1956
X10.2231Y-5.1981
X10.2445Y-4.3124
X10.3247Y-2.6797
X10.4387Y-5.0368
X10.5188Y-3.4042
X10.5403Y-2.5184
X10.7072Y-6.039
X10.7129Y-4.1286
X10.7344Y-3.2429
X10.9071Y-4.8531
X10.9228Y-5.8777
X10.9285Y-3.9673
X11.0896Y-2.6366
X11.1227Y-4.6918
X11.2837Y-3.361
X11.3052Y-2.4753
X11.4778Y-4.0854
X11.4993Y-3.1997
X11.6719Y-4.8099
X11.6934Y-3.9242
X11.8626Y-2.6236
X11.8661Y-5.5343
X11.8875Y-4.6486
X12.0567Y-3.348
X12.0782Y-2.4623
X12.0817Y-5.373
X12.2508Y-4.0724
X12.2723Y-3.1867
X12.4449Y-4.7969
X12.4664Y-3.9111
X12.6113Y-2.52
X12.639Y-5.5213
X12.6605Y-4.6356
X12.8054Y-3.2444
X12.8269Y-2.3587
X12.8546Y-5.36
X12.9995Y-3.9689
X13.021Y-3.0831
X13.1936Y-4.6933
X13.2151Y-3.8076
X13.3877Y-5.4178
X13.4092Y-4.532
X13.6033Y-5.2565
T7
X7.1284Y-7.4041
X8.0684Y-7.4041
T8
X1.6383Y-5.4755
X1.8325Y-4.7511
X2.0266Y-4.0267
X2.2207Y-3.3022
X2.387Y-5.5791
X2.4148Y-2.5778
X2.5812Y-4.8547
X2.7753Y-4.1302
X2.9694Y-3.4058
X3.16Y-5.5921
X3.1635Y-2.6813
X3.3541Y-4.8677
X3.5482Y-4.1432
X3.7424Y-3.4188
X3.9365Y-2.6943
X4.119Y-4.9108
X4.3131Y-4.1864
X4.3189Y-6.0967
X4.5072Y-3.462
X4.7014Y-2.7375
X4.803Y-5.2559
X4.9971Y-4.5314
X5.0963Y-6.4188
X5.1912Y-3.807
X5.3854Y-3.0826
X5.4951Y-5.5707
X5.6892Y-4.8463
X5.7639Y-6.931
X5.8833Y-4.1219
X6.0775Y-3.3974
X6.7112Y-6.6914
X7.1284Y-8.003
X7.5984Y-7.6791
X7.5984Y-6.9291
X8.0684Y-8.003
X8.4857Y-6.6914
X9.1194Y-3.3974
X9.3135Y-4.1219
X9.4329Y-6.931
X9.5076Y-4.8463
X9.7017Y-5.5707
X9.8115Y-3.0826
X10.0056Y-3.807
X10.1005Y-6.4188
X10.1997Y-4.5314
X10.3938Y-5.2559
X10.4955Y-2.7375
X10.6896Y-3.462
X10.878Y-6.0967
X10.8837Y-4.1864
X11.0778Y-4.9108
X11.2604Y-2.6943
X11.4545Y-3.4188
X11.6486Y-4.1432
X11.8427Y-4.8677
X12.0333Y-2.6813
X12.0368Y-5.5921
X12.2275Y-3.4058
X12.4216Y-4.1302
X12.6157Y-4.8547
X12.7821Y-2.5778
X12.8098Y-5.5791
X12.9762Y-3.3022
X13.1703Y-4.0267
X13.3644Y-4.7511
X13.5585Y-5.4755
T9
X7.122Y-4.4434
X8.5231Y-5.2201
T10
X7.1498Y-6.0448
T0
M30
