%TF.GenerationSoftware,KiCad,Pcbnew,(7.0.0)*%
%TF.CreationDate,2023-03-09T16:38:33+00:00*%
%TF.ProjectId,Honeydew,486f6e65-7964-4657-972e-6b696361645f,rev?*%
%TF.SameCoordinates,Original*%
%TF.FileFunction,Soldermask,Top*%
%TF.FilePolarity,Negative*%
%FSLAX46Y46*%
G04 Gerber Fmt 4.6, Leading zero omitted, Abs format (unit mm)*
G04 Created by KiCad (PCBNEW (7.0.0)) date 2023-03-09 16:38:33*
%MOMM*%
%LPD*%
G01*
G04 APERTURE LIST*
%ADD10C,2.000000*%
%ADD11R,2.500000X6.000000*%
%ADD12C,3.500000*%
%ADD13C,5.600000*%
%ADD14C,1.152000*%
%ADD15C,0.650000*%
%ADD16R,0.600000X1.450000*%
%ADD17R,0.300000X1.450000*%
%ADD18O,1.000000X2.100000*%
%ADD19O,1.000000X1.600000*%
%ADD20R,1.700000X1.700000*%
%ADD21O,1.700000X1.700000*%
%ADD22C,4.000000*%
%ADD23C,1.750000*%
%ADD24C,3.000000*%
%ADD25C,3.987800*%
%ADD26R,1.200000X1.200000*%
%ADD27C,1.200000*%
G04 APERTURE END LIST*
%TO.C,A1*%
G36*
X164213376Y-142029667D02*
G01*
X164178509Y-142180670D01*
X164044043Y-142199001D01*
X163834972Y-142106066D01*
X163874709Y-142029667D01*
X164176148Y-141999268D01*
X164213376Y-142029667D01*
G37*
G36*
X164467376Y-140759667D02*
G01*
X164497775Y-141061106D01*
X164467376Y-141098334D01*
X164316373Y-141063467D01*
X164298043Y-140929001D01*
X164390977Y-140719930D01*
X164467376Y-140759667D01*
G37*
G36*
X161250043Y-143088001D02*
G01*
X161492354Y-143316247D01*
X161504043Y-143356991D01*
X161307525Y-143466088D01*
X161250043Y-143469001D01*
X161005803Y-143273737D01*
X160996043Y-143200010D01*
X161151652Y-143048312D01*
X161250043Y-143088001D01*
G37*
G36*
X163008473Y-142083611D02*
G01*
X163028043Y-142169020D01*
X162842685Y-142528094D01*
X162774043Y-142580001D01*
X162539612Y-142568390D01*
X162520043Y-142482981D01*
X162705400Y-142123907D01*
X162774043Y-142072001D01*
X163008473Y-142083611D01*
G37*
G36*
X165480731Y-140068610D02*
G01*
X165441043Y-140167001D01*
X165212796Y-140409312D01*
X165172052Y-140421001D01*
X165062955Y-140224483D01*
X165060043Y-140167001D01*
X165255306Y-139922761D01*
X165329033Y-139913001D01*
X165480731Y-140068610D01*
G37*
G36*
X170386662Y-140360288D02*
G01*
X170394043Y-140421001D01*
X170200755Y-140667620D01*
X170140043Y-140675001D01*
X169893423Y-140481713D01*
X169886043Y-140421001D01*
X170079330Y-140174381D01*
X170140043Y-140167001D01*
X170386662Y-140360288D01*
G37*
G36*
X180333398Y-140294001D02*
G01*
X180872097Y-140294001D01*
X180892542Y-140816754D01*
X180950102Y-140951677D01*
X180982561Y-140868462D01*
X181029872Y-140258498D01*
X180987687Y-139852462D01*
X180920776Y-139711687D01*
X180878686Y-140016981D01*
X180872097Y-140294001D01*
X180333398Y-140294001D01*
X180321549Y-140042205D01*
X180368751Y-139415796D01*
X180526103Y-139047528D01*
X180639800Y-138931228D01*
X181079594Y-138729635D01*
X181304916Y-138763124D01*
X181473862Y-139122403D01*
X181550005Y-139839946D01*
X181533291Y-140774555D01*
X181423667Y-141785034D01*
X181306290Y-142399577D01*
X181177396Y-143402533D01*
X181319370Y-144045747D01*
X181714653Y-144294573D01*
X182209884Y-144182578D01*
X182729686Y-143867774D01*
X182776479Y-143555178D01*
X182459042Y-143215000D01*
X182110490Y-142720495D01*
X182180506Y-142454585D01*
X182818886Y-142454585D01*
X182930440Y-142917287D01*
X183249155Y-143408497D01*
X183700861Y-143924000D01*
X184045460Y-144210294D01*
X184110043Y-144231001D01*
X184389210Y-144048217D01*
X184822076Y-143591710D01*
X184970930Y-143408497D01*
X185349506Y-142780823D01*
X185376420Y-142380763D01*
X185074987Y-142277771D01*
X184645312Y-142438406D01*
X184020915Y-142592924D01*
X183574773Y-142438406D01*
X183041434Y-142271807D01*
X182818886Y-142454585D01*
X182180506Y-142454585D01*
X182250639Y-142188227D01*
X182586042Y-141818001D01*
X182985399Y-141509496D01*
X183286643Y-141555767D01*
X183602043Y-141818000D01*
X183999154Y-142124945D01*
X184299984Y-142081118D01*
X184627007Y-141809888D01*
X185014153Y-141506673D01*
X185302508Y-141538168D01*
X185690643Y-141888712D01*
X186052323Y-142334371D01*
X186056643Y-142730608D01*
X185905719Y-143054972D01*
X185720152Y-143672792D01*
X185851549Y-144108535D01*
X186157033Y-144231001D01*
X186289133Y-144001590D01*
X186375935Y-143410950D01*
X186396043Y-142863445D01*
X186396042Y-141495890D01*
X187563347Y-141535182D01*
X188528242Y-141676793D01*
X189060225Y-142025192D01*
X189286071Y-142517061D01*
X189481305Y-143240161D01*
X189613447Y-144010713D01*
X189650021Y-144644934D01*
X189576286Y-144945424D01*
X189340045Y-144933168D01*
X189110605Y-144563662D01*
X188961431Y-143983263D01*
X188939932Y-143677643D01*
X188761148Y-142959830D01*
X188323711Y-142409239D01*
X187783836Y-142199001D01*
X187365108Y-142426000D01*
X187042390Y-142999102D01*
X186904500Y-143756458D01*
X186904043Y-143802201D01*
X186754415Y-144416262D01*
X186518278Y-144742955D01*
X186153293Y-144917069D01*
X185758035Y-144719275D01*
X185629278Y-144607689D01*
X185231375Y-144302077D01*
X184928912Y-144352718D01*
X184622807Y-144607689D01*
X184190024Y-144904146D01*
X183840439Y-144823648D01*
X183725570Y-144736119D01*
X183369167Y-144552609D01*
X182876333Y-144582945D01*
X182293854Y-144751604D01*
X181616620Y-144945481D01*
X181237660Y-144938580D01*
X180985265Y-144722950D01*
X180960574Y-144689872D01*
X180684669Y-144433045D01*
X180319527Y-144480563D01*
X179997134Y-144635598D01*
X179309086Y-144840249D01*
X178367081Y-144929158D01*
X177976378Y-144924462D01*
X177167143Y-144857286D01*
X176739033Y-144716378D01*
X176565722Y-144451561D01*
X176546880Y-144356695D01*
X176374169Y-143411957D01*
X176201626Y-142918891D01*
X176008184Y-142821612D01*
X175974596Y-142838603D01*
X175817061Y-143168447D01*
X175732578Y-143798148D01*
X175728043Y-143991991D01*
X175670921Y-144622652D01*
X175528464Y-144969714D01*
X175474043Y-144993001D01*
X175314016Y-144767885D01*
X175225951Y-144206465D01*
X175220043Y-143991991D01*
X175162781Y-143317008D01*
X175020543Y-142886099D01*
X174973489Y-142838603D01*
X174774067Y-142880140D01*
X174599035Y-143311419D01*
X174427733Y-144187313D01*
X174401448Y-144358001D01*
X174264799Y-144674584D01*
X173891112Y-144843298D01*
X173150303Y-144919631D01*
X173076459Y-144923172D01*
X172271548Y-144899805D01*
X171648554Y-144775533D01*
X171472584Y-144685505D01*
X171119190Y-144534155D01*
X170893261Y-144753210D01*
X170601538Y-144971007D01*
X170321209Y-144738937D01*
X170088102Y-144114545D01*
X169944878Y-143229952D01*
X169916943Y-143031525D01*
X171216055Y-143031525D01*
X171376034Y-143635552D01*
X171717608Y-144099960D01*
X172045043Y-144231001D01*
X172426636Y-144022044D01*
X172735246Y-143576275D01*
X172872292Y-142866902D01*
X172646271Y-142320701D01*
X172120114Y-142074824D01*
X172045043Y-142072001D01*
X171539214Y-142268989D01*
X171324467Y-142496775D01*
X171216055Y-143031525D01*
X169916943Y-143031525D01*
X169834944Y-142449074D01*
X169663739Y-142059793D01*
X169376436Y-141945747D01*
X169339440Y-141945001D01*
X168881917Y-142178233D01*
X168541502Y-142802851D01*
X168371721Y-143706235D01*
X168362043Y-144001508D01*
X168216929Y-144674887D01*
X167853768Y-144978014D01*
X167380829Y-144929969D01*
X166906383Y-144549833D01*
X166538700Y-143856689D01*
X166484541Y-143670620D01*
X166258039Y-142779004D01*
X165255555Y-143781488D01*
X163834411Y-144908940D01*
X162285215Y-145556946D01*
X160706682Y-145749422D01*
X159652015Y-145681151D01*
X158933792Y-145442022D01*
X158674682Y-145265030D01*
X158345740Y-144886986D01*
X158787339Y-144886986D01*
X159216885Y-145159333D01*
X159281543Y-145190995D01*
X160415138Y-145463077D01*
X161808331Y-145323614D01*
X162596155Y-145098046D01*
X163631510Y-144578910D01*
X164702721Y-143769629D01*
X165682283Y-142795817D01*
X166442690Y-141783088D01*
X166841690Y-140915454D01*
X167028659Y-139886390D01*
X167007556Y-139058431D01*
X166787704Y-138543681D01*
X166636464Y-138447229D01*
X166420728Y-138509022D01*
X166464272Y-138962370D01*
X166464939Y-138965032D01*
X166489191Y-139885869D01*
X166214791Y-140967662D01*
X165704569Y-142014442D01*
X165320843Y-142533449D01*
X164663783Y-143140738D01*
X163792123Y-143773077D01*
X163276935Y-144082265D01*
X162447864Y-144488514D01*
X161739250Y-144683806D01*
X160904344Y-144719310D01*
X160338446Y-144691614D01*
X159336774Y-144658486D01*
X158823520Y-144721823D01*
X158787339Y-144886986D01*
X158345740Y-144886986D01*
X158277932Y-144809056D01*
X158329043Y-144522961D01*
X158543553Y-144331253D01*
X159402962Y-144331253D01*
X159860955Y-144490962D01*
X160634142Y-144489009D01*
X161563529Y-144345969D01*
X162490122Y-144082417D01*
X162995852Y-143866313D01*
X164300776Y-143002826D01*
X165333916Y-141915113D01*
X165987982Y-140721315D01*
X166060770Y-140491443D01*
X166285735Y-139529801D01*
X166301121Y-139009693D01*
X166178313Y-138897000D01*
X165929342Y-139045017D01*
X165371039Y-139446179D01*
X164590648Y-140036157D01*
X163828813Y-140629413D01*
X162779735Y-141453403D01*
X161735917Y-142268246D01*
X160847354Y-142957076D01*
X160440128Y-143269666D01*
X159831959Y-143774821D01*
X159461346Y-144165201D01*
X159402962Y-144331253D01*
X158543553Y-144331253D01*
X158823576Y-144080996D01*
X159595470Y-143449133D01*
X160570320Y-142682690D01*
X161673722Y-141836988D01*
X162831275Y-140967349D01*
X163968574Y-140129091D01*
X165011215Y-139377536D01*
X165884796Y-138768003D01*
X166514913Y-138355813D01*
X166827162Y-138196287D01*
X166838043Y-138196361D01*
X167168847Y-138505024D01*
X167305382Y-139254281D01*
X167245500Y-140414458D01*
X167077135Y-141500545D01*
X166913209Y-142563770D01*
X166899506Y-143289206D01*
X167034485Y-143823869D01*
X167052372Y-143864367D01*
X167354513Y-144326185D01*
X167600893Y-144308842D01*
X167772714Y-143839828D01*
X167851176Y-142946638D01*
X167854043Y-142692010D01*
X167892944Y-141886374D01*
X167994383Y-141340836D01*
X168108043Y-141183001D01*
X168354721Y-141370456D01*
X168362043Y-141429029D01*
X168547620Y-141595508D01*
X168679543Y-141577244D01*
X169569076Y-141325261D01*
X170084300Y-141281739D01*
X170330542Y-141487774D01*
X170413131Y-141984460D01*
X170423507Y-142257661D01*
X170464305Y-142795465D01*
X170534792Y-142940071D01*
X170576729Y-142834001D01*
X170956746Y-142010299D01*
X171522764Y-141572088D01*
X172162958Y-141493319D01*
X172765500Y-141747947D01*
X173218564Y-142309924D01*
X173410325Y-143153205D01*
X173396991Y-143490896D01*
X173428606Y-144127353D01*
X173632543Y-144417491D01*
X173827220Y-144322945D01*
X173927743Y-143829656D01*
X173950043Y-143124157D01*
X174014933Y-142130584D01*
X174218398Y-141612784D01*
X174573630Y-141554244D01*
X174982048Y-141832485D01*
X175376612Y-142131157D01*
X175682260Y-142069908D01*
X175966037Y-141832485D01*
X176457389Y-141531508D01*
X176789072Y-141681087D01*
X176974795Y-142296833D01*
X177025872Y-143039491D01*
X177053702Y-144358001D01*
X177271251Y-143251414D01*
X177376929Y-142874038D01*
X178014043Y-142874038D01*
X178114475Y-143100733D01*
X178489399Y-142978404D01*
X178507896Y-142968571D01*
X178971172Y-142654376D01*
X179147040Y-142469186D01*
X179111958Y-142145584D01*
X179023059Y-142067685D01*
X178626483Y-142070997D01*
X178223795Y-142377149D01*
X178016310Y-142825261D01*
X178014043Y-142874038D01*
X177376929Y-142874038D01*
X177555617Y-142235940D01*
X177949336Y-141655897D01*
X178504287Y-141441977D01*
X178629343Y-141437000D01*
X179358974Y-141600156D01*
X179719719Y-142017142D01*
X179698528Y-142579238D01*
X179282353Y-143177722D01*
X178875287Y-143486154D01*
X178327709Y-143859356D01*
X178176594Y-144093894D01*
X178364984Y-144280176D01*
X178372412Y-144284360D01*
X179045953Y-144403673D01*
X179701899Y-144088163D01*
X180147809Y-143514500D01*
X180358450Y-142787165D01*
X180402803Y-141700270D01*
X180368908Y-141048595D01*
X180333398Y-140294001D01*
G37*
%TD*%
D10*
%TO.C,SW64*%
X199450000Y-130445000D03*
X148450000Y-130445000D03*
X176450000Y-99845000D03*
X171450000Y-99845000D03*
X173950000Y-99845000D03*
D11*
X204049999Y-130444999D03*
D12*
X189050000Y-156598967D03*
X189050000Y-104291033D03*
D13*
X188450000Y-130445000D03*
X159450000Y-130445000D03*
D12*
X158850000Y-156598967D03*
X158850000Y-104291033D03*
D11*
X143849999Y-130444999D03*
%TD*%
D14*
%TO.C,H3*%
X53550000Y-30400000D03*
%TD*%
%TO.C,H2*%
X294200000Y-30450000D03*
%TD*%
D15*
%TO.C,J2*%
X176840000Y-23595000D03*
X171060000Y-23595000D03*
D16*
X177174999Y-25039999D03*
X176399999Y-25039999D03*
D17*
X175199999Y-25039999D03*
X174199999Y-25039999D03*
X173699999Y-25039999D03*
X172699999Y-25039999D03*
D16*
X171499999Y-25039999D03*
X170724999Y-25039999D03*
D17*
X172199999Y-25039999D03*
X173199999Y-25039999D03*
X174699999Y-25039999D03*
X175699999Y-25039999D03*
D18*
X178269999Y-24124999D03*
D19*
X178269999Y-19944999D03*
D18*
X169629999Y-24124999D03*
D19*
X169629999Y-19944999D03*
%TD*%
D20*
%TO.C,J4*%
X153949994Y-34025619D03*
D21*
X153949994Y-36565619D03*
X153949994Y-39105619D03*
X153949994Y-41645619D03*
X153949994Y-44185619D03*
X153949994Y-46725619D03*
X153949994Y-49265619D03*
D22*
X154199995Y-25645620D03*
X154199995Y-57645620D03*
X193699995Y-25645620D03*
X193699995Y-57645620D03*
%TD*%
D14*
%TO.C,H1*%
X173950000Y-187100000D03*
%TD*%
D20*
%TO.C,J1*%
X170149996Y-63044999D03*
D21*
X172689996Y-63044999D03*
X175229996Y-63044999D03*
X177769996Y-63044999D03*
%TD*%
D23*
%TO.C,SW25*%
X119977847Y-148516738D03*
D24*
X120810969Y-142898562D03*
D25*
X115816555Y-145602970D03*
D24*
X114152470Y-141336998D03*
D23*
X111655263Y-142689202D03*
%TD*%
%TO.C,SW30*%
X135215367Y-164336510D03*
D24*
X137474192Y-159125396D03*
D25*
X131950006Y-160445004D03*
D24*
X131446738Y-155893694D03*
D23*
X128684645Y-156553498D03*
%TD*%
%TO.C,SW1*%
X60650836Y-43927097D03*
D24*
X60001479Y-38284728D03*
D25*
X55877197Y-42189635D03*
D24*
X53165699Y-38499719D03*
D23*
X51103558Y-40452173D03*
%TD*%
%TO.C,SW24*%
X115152281Y-116979537D03*
D24*
X114502924Y-111337168D03*
D25*
X110378642Y-115242075D03*
D24*
X107667144Y-111552159D03*
D23*
X105605003Y-113504613D03*
%TD*%
%TO.C,SW29*%
X131967482Y-126478565D03*
D24*
X131318125Y-120836196D03*
D25*
X127193843Y-124741103D03*
D24*
X124482345Y-121051187D03*
D23*
X122420204Y-123003641D03*
%TD*%
%TO.C,SW14*%
X79349971Y-103948580D03*
D24*
X78700614Y-98306211D03*
D25*
X74576332Y-102211118D03*
D24*
X71864834Y-98521202D03*
D23*
X69802693Y-100473656D03*
%TD*%
%TO.C,SW19*%
X98608513Y-106734648D03*
D24*
X97959156Y-101092279D03*
D25*
X93834874Y-104997186D03*
D24*
X91123376Y-101307270D03*
D23*
X89061235Y-103259724D03*
%TD*%
%TO.C,SW5*%
X34588900Y-115531691D03*
D24*
X33939543Y-109889322D03*
D25*
X29815261Y-113794229D03*
D24*
X27103763Y-110104313D03*
D23*
X25041622Y-112056767D03*
%TD*%
%TO.C,SW22*%
X128183231Y-81177243D03*
D24*
X127533874Y-75534874D03*
D25*
X123409592Y-79439781D03*
D24*
X120698094Y-75749865D03*
D23*
X118635953Y-77702319D03*
%TD*%
%TO.C,SW27*%
X144998452Y-90676271D03*
D24*
X144349095Y-85033902D03*
D25*
X140224813Y-88938809D03*
D24*
X137513315Y-85248893D03*
D23*
X135451174Y-87201347D03*
%TD*%
%TO.C,SW3*%
X47619856Y-79729394D03*
D24*
X46970499Y-74087025D03*
D25*
X42846217Y-77991932D03*
D24*
X40134719Y-74302016D03*
D23*
X38072578Y-76254470D03*
%TD*%
%TO.C,SW8*%
X66335451Y-84007219D03*
D24*
X65686094Y-78364850D03*
D25*
X61561812Y-82269757D03*
D24*
X58850314Y-78579841D03*
D23*
X56788173Y-80532295D03*
%TD*%
%TO.C,SW13*%
X85865464Y-86047425D03*
D24*
X85216107Y-80405056D03*
D25*
X81091825Y-84309963D03*
D24*
X78380327Y-80620047D03*
D23*
X76318186Y-82572501D03*
%TD*%
%TO.C,SW23*%
X121667752Y-99078424D03*
D24*
X121018395Y-93436055D03*
D25*
X116894113Y-97340962D03*
D24*
X114182615Y-93651046D03*
D23*
X112120474Y-95603500D03*
%TD*%
%TO.C,SW18*%
X105123982Y-88833508D03*
D24*
X104474625Y-83191139D03*
D25*
X100350343Y-87096046D03*
D24*
X97638845Y-83406130D03*
D23*
X95576704Y-85358584D03*
%TD*%
%TO.C,SW28*%
X138482968Y-108577416D03*
D24*
X137833611Y-102935047D03*
D25*
X133709329Y-106839954D03*
D24*
X130997831Y-103150038D03*
D23*
X128935690Y-105102492D03*
%TD*%
%TO.C,SW4*%
X41104400Y-97630560D03*
D24*
X40455043Y-91988191D03*
D25*
X36330761Y-95893098D03*
D24*
X33619263Y-92203182D03*
D23*
X31557122Y-94155636D03*
%TD*%
%TO.C,SW9*%
X59819943Y-101908380D03*
D24*
X59170586Y-96266011D03*
D25*
X55046304Y-100170918D03*
D24*
X52334806Y-96481002D03*
D23*
X50272665Y-98433456D03*
%TD*%
%TO.C,SW10*%
X53304473Y-119809519D03*
D24*
X52655116Y-114167150D03*
D25*
X48530834Y-118072057D03*
D24*
X45819336Y-114382141D03*
D23*
X43757195Y-116334595D03*
%TD*%
%TO.C,SW15*%
X72834491Y-121849720D03*
D24*
X72185134Y-116207351D03*
D25*
X68060852Y-120112258D03*
D24*
X65349354Y-116422342D03*
D23*
X63287213Y-118374796D03*
%TD*%
%TO.C,SW20*%
X101040850Y-137184144D03*
D24*
X100391493Y-131541775D03*
D25*
X96267211Y-135446682D03*
D24*
X93555713Y-131756766D03*
D23*
X91493572Y-133709220D03*
%TD*%
%TO.C,SW11*%
X98896424Y-50245154D03*
D24*
X98247067Y-44602785D03*
D25*
X94122785Y-48507692D03*
D24*
X91411287Y-44817776D03*
D23*
X89349146Y-46770230D03*
%TD*%
%TO.C,SW2*%
X54135356Y-61828245D03*
D24*
X53485999Y-56185876D03*
D25*
X49361717Y-60090783D03*
D24*
X46650219Y-56400867D03*
D23*
X44588078Y-58353321D03*
%TD*%
%TO.C,SW12*%
X92380935Y-68146286D03*
D24*
X91731578Y-62503917D03*
D25*
X87607296Y-66408824D03*
D24*
X84895798Y-62718908D03*
D23*
X82833657Y-64671362D03*
%TD*%
%TO.C,SW21*%
X134698723Y-63276109D03*
D24*
X134049366Y-57633740D03*
D25*
X129925084Y-61538647D03*
D24*
X127213586Y-57848731D03*
D23*
X125151445Y-59801185D03*
%TD*%
%TO.C,SW17*%
X111639481Y-70932372D03*
D24*
X110990124Y-65290003D03*
D25*
X106865842Y-69194910D03*
D24*
X104154344Y-65504994D03*
D23*
X102092203Y-67457448D03*
%TD*%
%TO.C,SW16*%
X118154966Y-53031210D03*
D24*
X117505609Y-47388841D03*
D25*
X113381327Y-51293748D03*
D24*
X110669829Y-47603832D03*
D23*
X108607688Y-49556286D03*
%TD*%
%TO.C,SW6*%
X79366409Y-48204946D03*
D24*
X78717052Y-42562577D03*
D25*
X74592770Y-46467484D03*
D24*
X71881272Y-42777568D03*
D23*
X69819131Y-44730022D03*
%TD*%
%TO.C,SW7*%
X72850924Y-66106086D03*
D24*
X72201567Y-60463717D03*
D25*
X68077285Y-64368624D03*
D24*
X65365787Y-60678708D03*
D23*
X63303646Y-62631162D03*
%TD*%
%TO.C,SW26*%
X151513939Y-72775126D03*
D24*
X150864582Y-67132757D03*
D25*
X146740300Y-71037664D03*
D24*
X144028802Y-67347748D03*
D23*
X141966661Y-69300202D03*
%TD*%
%TO.C,SW31*%
X205933359Y-69300205D03*
D24*
X201809077Y-65395297D03*
D25*
X201159720Y-71037667D03*
D24*
X196710760Y-69953944D03*
D23*
X196386081Y-72775129D03*
%TD*%
%TO.C,SW45*%
X256406430Y-133709216D03*
D24*
X252282148Y-129804308D03*
D25*
X251632791Y-135446678D03*
D24*
X247183831Y-134362955D03*
D23*
X246859152Y-137184140D03*
%TD*%
%TO.C,SW49*%
X278097316Y-100473669D03*
D24*
X273973034Y-96568761D03*
D25*
X273323677Y-102211131D03*
D24*
X268874717Y-101127408D03*
D23*
X268550038Y-103948593D03*
%TD*%
%TO.C,SW47*%
X265066355Y-64671369D03*
D24*
X260942073Y-60766461D03*
D25*
X260292716Y-66408831D03*
D24*
X255843756Y-65325108D03*
D23*
X255519077Y-68146293D03*
%TD*%
%TO.C,SW63*%
X200216909Y-172220197D03*
D24*
X196448657Y-167970694D03*
D25*
X195310006Y-173534998D03*
D24*
X190972428Y-172067647D03*
D23*
X190403103Y-174849799D03*
%TD*%
%TO.C,SW61*%
X157496905Y-174849788D03*
D24*
X156358254Y-169285484D03*
D25*
X152590002Y-173534987D03*
D24*
X149567225Y-170095435D03*
D23*
X147683099Y-172220186D03*
%TD*%
%TO.C,SW33*%
X218964306Y-105102486D03*
D24*
X214840024Y-101197578D03*
D25*
X214190667Y-106839948D03*
D24*
X209741707Y-105756225D03*
D23*
X209417028Y-108577410D03*
%TD*%
%TO.C,SW59*%
X316342896Y-94155623D03*
D24*
X312218614Y-90250715D03*
D25*
X311569257Y-95893085D03*
D24*
X307120297Y-94809362D03*
D23*
X306795618Y-97630547D03*
%TD*%
%TO.C,SW38*%
X235779556Y-95603483D03*
D24*
X231655274Y-91698575D03*
D25*
X231005917Y-97340945D03*
D24*
X226556957Y-96257222D03*
D23*
X226232278Y-99078407D03*
%TD*%
%TO.C,SW50*%
X284612795Y-118374810D03*
D24*
X280488513Y-114469902D03*
D25*
X279839156Y-120112272D03*
D24*
X275390196Y-119028549D03*
D23*
X275065517Y-121849734D03*
%TD*%
%TO.C,SW58*%
X309827416Y-76254460D03*
D24*
X305703134Y-72349552D03*
D25*
X305053777Y-77991922D03*
D24*
X300604817Y-76908199D03*
D23*
X300280138Y-79729384D03*
%TD*%
D26*
%TO.C,U4*%
X179299999Y-124784999D03*
D27*
X179300000Y-126565000D03*
X179300000Y-128345000D03*
X179300000Y-130125000D03*
X179300000Y-131905000D03*
X179300000Y-133685000D03*
X179300000Y-135465000D03*
X179300000Y-137245000D03*
X168600000Y-138135000D03*
X168600000Y-136355000D03*
X168600000Y-134575000D03*
X168600000Y-132795000D03*
X168600000Y-131015000D03*
X168600000Y-129235000D03*
X168600000Y-127455000D03*
X168600000Y-125675000D03*
%TD*%
D23*
%TO.C,SW43*%
X252323284Y-85358582D03*
D24*
X248199002Y-81453674D03*
D25*
X247549645Y-87096044D03*
D24*
X243100685Y-86012321D03*
D23*
X242776006Y-88833506D03*
%TD*%
%TO.C,SW57*%
X303311931Y-58353320D03*
D24*
X299187649Y-54448412D03*
D25*
X298538292Y-60090782D03*
D24*
X294089332Y-59007059D03*
D23*
X293764653Y-61828244D03*
%TD*%
%TO.C,SW52*%
X284596370Y-62631165D03*
D24*
X280472088Y-58726257D03*
D25*
X279822731Y-64368627D03*
D24*
X275373771Y-63284904D03*
D23*
X275049092Y-66106089D03*
%TD*%
%TO.C,SW44*%
X258838777Y-103259719D03*
D24*
X254714495Y-99354811D03*
D25*
X254065138Y-104997181D03*
D24*
X249616178Y-103913458D03*
D23*
X249291499Y-106734643D03*
%TD*%
%TO.C,SW41*%
X239292324Y-49556300D03*
D24*
X235168042Y-45651392D03*
D25*
X234518685Y-51293762D03*
D24*
X230069725Y-50210039D03*
D23*
X229745046Y-53031224D03*
%TD*%
%TO.C,SW40*%
X236244747Y-142689194D03*
D24*
X231250333Y-139984785D03*
D25*
X232083455Y-145602962D03*
D24*
X227505602Y-145707642D03*
D23*
X227922163Y-148516730D03*
%TD*%
%TO.C,SW62*%
X179030016Y-176354989D03*
D24*
X176490016Y-171274989D03*
D25*
X173950016Y-176354989D03*
D24*
X170140016Y-173814989D03*
D23*
X168870016Y-176354989D03*
%TD*%
%TO.C,SW46*%
X258550853Y-46770232D03*
D24*
X254426571Y-42865324D03*
D25*
X253777214Y-48507694D03*
D24*
X249328254Y-47423971D03*
D23*
X249003575Y-50245156D03*
%TD*%
%TO.C,SW51*%
X278080883Y-44730032D03*
D24*
X273956601Y-40825124D03*
D25*
X273307244Y-46467494D03*
D24*
X268858284Y-45383771D03*
D23*
X268533605Y-48204956D03*
%TD*%
%TO.C,SW60*%
X322858379Y-112056760D03*
D24*
X318734097Y-108151852D03*
D25*
X318084740Y-113794222D03*
D24*
X313635780Y-112710499D03*
D23*
X313311101Y-115531684D03*
%TD*%
%TO.C,SW37*%
X229264065Y-77702346D03*
D24*
X225139783Y-73797438D03*
D25*
X224490426Y-79439808D03*
D24*
X220041466Y-78356085D03*
D23*
X219716787Y-81177270D03*
%TD*%
%TO.C,SW54*%
X297627331Y-98433462D03*
D24*
X293503049Y-94528554D03*
D25*
X292853692Y-100170924D03*
D24*
X288404732Y-99087201D03*
D23*
X288080053Y-101908386D03*
%TD*%
%TO.C,SW55*%
X304142822Y-116334614D03*
D24*
X300018540Y-112429706D03*
D25*
X299369183Y-118072076D03*
D24*
X294920223Y-116988353D03*
D23*
X294595544Y-119809538D03*
%TD*%
%TO.C,SW48*%
X271581837Y-82572518D03*
D24*
X267457555Y-78667610D03*
D25*
X266808198Y-84309980D03*
D24*
X262359238Y-83226257D03*
D23*
X262034559Y-86047442D03*
%TD*%
%TO.C,SW53*%
X291111847Y-80532310D03*
D24*
X286987565Y-76627402D03*
D25*
X286338208Y-82269772D03*
D24*
X281889248Y-81186049D03*
D23*
X281564569Y-84007234D03*
%TD*%
%TO.C,SW35*%
X219215368Y-156553494D03*
D24*
X213691182Y-155233886D03*
D25*
X215950007Y-160445000D03*
D24*
X211555233Y-161730949D03*
D23*
X212684646Y-164336506D03*
%TD*%
%TO.C,SW34*%
X225479791Y-123003629D03*
D24*
X221355509Y-119098721D03*
D25*
X220706152Y-124741091D03*
D24*
X216257192Y-123657368D03*
D23*
X215932513Y-126478553D03*
%TD*%
%TO.C,SW42*%
X245807800Y-67457444D03*
D24*
X241683518Y-63552536D03*
D25*
X241034161Y-69194906D03*
D24*
X236585201Y-68111183D03*
D23*
X236260522Y-70932368D03*
%TD*%
%TO.C,SW56*%
X296796452Y-40452187D03*
D24*
X292672170Y-36547279D03*
D25*
X292022813Y-42189649D03*
D24*
X287573853Y-41105926D03*
D23*
X287249174Y-43927111D03*
%TD*%
%TO.C,SW36*%
X222748576Y-59801202D03*
D24*
X218624294Y-55896294D03*
D25*
X217974937Y-61538664D03*
D24*
X213525977Y-60454941D03*
D23*
X213201298Y-63276126D03*
%TD*%
%TO.C,SW39*%
X242295031Y-113504636D03*
D24*
X238170749Y-109599728D03*
D25*
X237521392Y-115242098D03*
D24*
X233072432Y-114158375D03*
D23*
X232747753Y-116979560D03*
%TD*%
%TO.C,SW32*%
X212448832Y-87201352D03*
D24*
X208324550Y-83296444D03*
D25*
X207675193Y-88938814D03*
D24*
X203226233Y-87855091D03*
D23*
X202901554Y-90676276D03*
%TD*%
M02*
