%TF.GenerationSoftware,KiCad,Pcbnew,7.0.6*%
%TF.CreationDate,2023-07-17T12:42:48+01:00*%
%TF.ProjectId,Honeydew,486f6e65-7964-4657-972e-6b696361645f,V3.0*%
%TF.SameCoordinates,Original*%
%TF.FileFunction,Legend,Top*%
%TF.FilePolarity,Positive*%
%FSLAX46Y46*%
G04 Gerber Fmt 4.6, Leading zero omitted, Abs format (unit mm)*
G04 Created by KiCad (PCBNEW 7.0.6) date 2023-07-17 12:42:48*
%MOMM*%
%LPD*%
G01*
G04 APERTURE LIST*
G04 Aperture macros list*
%AMRoundRect*
0 Rectangle with rounded corners*
0 $1 Rounding radius*
0 $2 $3 $4 $5 $6 $7 $8 $9 X,Y pos of 4 corners*
0 Add a 4 corners polygon primitive as box body*
4,1,4,$2,$3,$4,$5,$6,$7,$8,$9,$2,$3,0*
0 Add four circle primitives for the rounded corners*
1,1,$1+$1,$2,$3*
1,1,$1+$1,$4,$5*
1,1,$1+$1,$6,$7*
1,1,$1+$1,$8,$9*
0 Add four rect primitives between the rounded corners*
20,1,$1+$1,$2,$3,$4,$5,0*
20,1,$1+$1,$4,$5,$6,$7,0*
20,1,$1+$1,$6,$7,$8,$9,0*
20,1,$1+$1,$8,$9,$2,$3,0*%
%AMRotRect*
0 Rectangle, with rotation*
0 The origin of the aperture is its center*
0 $1 length*
0 $2 width*
0 $3 Rotation angle, in degrees counterclockwise*
0 Add horizontal line*
21,1,$1,$2,0,0,$3*%
G04 Aperture macros list end*
%ADD10C,0.120000*%
%ADD11C,0.150000*%
%ADD12C,0.300000*%
%ADD13C,0.100000*%
%ADD14C,0.200000*%
%ADD15C,0.127000*%
%ADD16C,4.000000*%
%ADD17O,1.700000X1.700000*%
%ADD18R,1.700000X1.700000*%
%ADD19RotRect,4.400000X4.400000X150.000000*%
%ADD20C,3.200000*%
%ADD21C,2.000000*%
%ADD22C,2.200000*%
%ADD23C,4.200000*%
%ADD24C,1.152000*%
%ADD25RoundRect,0.575000X-0.675000X-0.575000X0.675000X-0.575000X0.675000X0.575000X-0.675000X0.575000X0*%
%ADD26C,5.600000*%
%ADD27C,4.400000*%
%ADD28R,1.550000X1.300000*%
%ADD29R,2.200000X2.200000*%
%ADD30C,3.000000*%
%ADD31C,3.987800*%
%ADD32C,1.700000*%
%ADD33R,1.200000X1.200000*%
%ADD34C,1.200000*%
G04 APERTURE END LIST*
D10*
X214899981Y-97700022D02*
X214899985Y-63700035D01*
X182999983Y-97700022D02*
X181099991Y-97700022D01*
X181099999Y-63700033D02*
X175749989Y-63700032D01*
X174100010Y-112030019D02*
X174100005Y-113500026D01*
X173399998Y-113500026D02*
X174100001Y-113500030D01*
X181099991Y-97700022D02*
X181099999Y-63700033D01*
X173399997Y-109050031D02*
X174100001Y-109050027D01*
X214899981Y-97700022D02*
X212999992Y-97700020D01*
X174100001Y-109050027D02*
X174099999Y-110530018D01*
D11*
X173614292Y-115203884D02*
X174376197Y-115203884D01*
X173995244Y-115584837D02*
X173995244Y-114822932D01*
X175328577Y-114584837D02*
X174852387Y-114584837D01*
X174852387Y-114584837D02*
X174804768Y-115061027D01*
X174804768Y-115061027D02*
X174852387Y-115013408D01*
X174852387Y-115013408D02*
X174947625Y-114965789D01*
X174947625Y-114965789D02*
X175185720Y-114965789D01*
X175185720Y-114965789D02*
X175280958Y-115013408D01*
X175280958Y-115013408D02*
X175328577Y-115061027D01*
X175328577Y-115061027D02*
X175376196Y-115156265D01*
X175376196Y-115156265D02*
X175376196Y-115394360D01*
X175376196Y-115394360D02*
X175328577Y-115489598D01*
X175328577Y-115489598D02*
X175280958Y-115537218D01*
X175280958Y-115537218D02*
X175185720Y-115584837D01*
X175185720Y-115584837D02*
X174947625Y-115584837D01*
X174947625Y-115584837D02*
X174852387Y-115537218D01*
X174852387Y-115537218D02*
X174804768Y-115489598D01*
X175661911Y-114584837D02*
X175995244Y-115584837D01*
X175995244Y-115584837D02*
X176328577Y-114584837D01*
X222038092Y-104622458D02*
X221942854Y-104574839D01*
X221942854Y-104574839D02*
X221799997Y-104574839D01*
X221799997Y-104574839D02*
X221657140Y-104622458D01*
X221657140Y-104622458D02*
X221561902Y-104717696D01*
X221561902Y-104717696D02*
X221514283Y-104812934D01*
X221514283Y-104812934D02*
X221466664Y-105003410D01*
X221466664Y-105003410D02*
X221466664Y-105146267D01*
X221466664Y-105146267D02*
X221514283Y-105336743D01*
X221514283Y-105336743D02*
X221561902Y-105431981D01*
X221561902Y-105431981D02*
X221657140Y-105527220D01*
X221657140Y-105527220D02*
X221799997Y-105574839D01*
X221799997Y-105574839D02*
X221895235Y-105574839D01*
X221895235Y-105574839D02*
X222038092Y-105527220D01*
X222038092Y-105527220D02*
X222085711Y-105479600D01*
X222085711Y-105479600D02*
X222085711Y-105146267D01*
X222085711Y-105146267D02*
X221895235Y-105146267D01*
X222514283Y-105574839D02*
X222514283Y-104574839D01*
X222514283Y-104574839D02*
X223085711Y-105574839D01*
X223085711Y-105574839D02*
X223085711Y-104574839D01*
X223561902Y-105574839D02*
X223561902Y-104574839D01*
X223561902Y-104574839D02*
X223799997Y-104574839D01*
X223799997Y-104574839D02*
X223942854Y-104622458D01*
X223942854Y-104622458D02*
X224038092Y-104717696D01*
X224038092Y-104717696D02*
X224085711Y-104812934D01*
X224085711Y-104812934D02*
X224133330Y-105003410D01*
X224133330Y-105003410D02*
X224133330Y-105146267D01*
X224133330Y-105146267D02*
X224085711Y-105336743D01*
X224085711Y-105336743D02*
X224038092Y-105431981D01*
X224038092Y-105431981D02*
X223942854Y-105527220D01*
X223942854Y-105527220D02*
X223799997Y-105574839D01*
X223799997Y-105574839D02*
X223561902Y-105574839D01*
X222204755Y-107944617D02*
X222157136Y-107992237D01*
X222157136Y-107992237D02*
X222014279Y-108039856D01*
X222014279Y-108039856D02*
X221919041Y-108039856D01*
X221919041Y-108039856D02*
X221776184Y-107992237D01*
X221776184Y-107992237D02*
X221680946Y-107896998D01*
X221680946Y-107896998D02*
X221633327Y-107801760D01*
X221633327Y-107801760D02*
X221585708Y-107611284D01*
X221585708Y-107611284D02*
X221585708Y-107468427D01*
X221585708Y-107468427D02*
X221633327Y-107277951D01*
X221633327Y-107277951D02*
X221680946Y-107182713D01*
X221680946Y-107182713D02*
X221776184Y-107087475D01*
X221776184Y-107087475D02*
X221919041Y-107039856D01*
X221919041Y-107039856D02*
X222014279Y-107039856D01*
X222014279Y-107039856D02*
X222157136Y-107087475D01*
X222157136Y-107087475D02*
X222204755Y-107135094D01*
X223109517Y-108039856D02*
X222633327Y-108039856D01*
X222633327Y-108039856D02*
X222633327Y-107039856D01*
X223442851Y-108039856D02*
X223442851Y-107039856D01*
X224014279Y-108039856D02*
X223585708Y-107468427D01*
X224014279Y-107039856D02*
X223442851Y-107611284D01*
X221542884Y-102892234D02*
X221685741Y-102939853D01*
X221685741Y-102939853D02*
X221923836Y-102939853D01*
X221923836Y-102939853D02*
X222019074Y-102892234D01*
X222019074Y-102892234D02*
X222066693Y-102844614D01*
X222066693Y-102844614D02*
X222114312Y-102749376D01*
X222114312Y-102749376D02*
X222114312Y-102654138D01*
X222114312Y-102654138D02*
X222066693Y-102558900D01*
X222066693Y-102558900D02*
X222019074Y-102511281D01*
X222019074Y-102511281D02*
X221923836Y-102463662D01*
X221923836Y-102463662D02*
X221733360Y-102416043D01*
X221733360Y-102416043D02*
X221638122Y-102368424D01*
X221638122Y-102368424D02*
X221590503Y-102320805D01*
X221590503Y-102320805D02*
X221542884Y-102225567D01*
X221542884Y-102225567D02*
X221542884Y-102130329D01*
X221542884Y-102130329D02*
X221590503Y-102035091D01*
X221590503Y-102035091D02*
X221638122Y-101987472D01*
X221638122Y-101987472D02*
X221733360Y-101939853D01*
X221733360Y-101939853D02*
X221971455Y-101939853D01*
X221971455Y-101939853D02*
X222114312Y-101987472D01*
X222447646Y-101939853D02*
X222685741Y-102939853D01*
X222685741Y-102939853D02*
X222876217Y-102225567D01*
X222876217Y-102225567D02*
X223066693Y-102939853D01*
X223066693Y-102939853D02*
X223304789Y-101939853D01*
X223685741Y-102939853D02*
X223685741Y-101939853D01*
X223685741Y-101939853D02*
X223923836Y-101939853D01*
X223923836Y-101939853D02*
X224066693Y-101987472D01*
X224066693Y-101987472D02*
X224161931Y-102082710D01*
X224161931Y-102082710D02*
X224209550Y-102177948D01*
X224209550Y-102177948D02*
X224257169Y-102368424D01*
X224257169Y-102368424D02*
X224257169Y-102511281D01*
X224257169Y-102511281D02*
X224209550Y-102701757D01*
X224209550Y-102701757D02*
X224161931Y-102796995D01*
X224161931Y-102796995D02*
X224066693Y-102892234D01*
X224066693Y-102892234D02*
X223923836Y-102939853D01*
X223923836Y-102939853D02*
X223685741Y-102939853D01*
D12*
X187190492Y-113659671D02*
X187190492Y-111659671D01*
X187190492Y-112612052D02*
X188333349Y-112612052D01*
X188333349Y-113659671D02*
X188333349Y-111659671D01*
X189571444Y-113659671D02*
X189380968Y-113564433D01*
X189380968Y-113564433D02*
X189285730Y-113469194D01*
X189285730Y-113469194D02*
X189190492Y-113278718D01*
X189190492Y-113278718D02*
X189190492Y-112707290D01*
X189190492Y-112707290D02*
X189285730Y-112516813D01*
X189285730Y-112516813D02*
X189380968Y-112421575D01*
X189380968Y-112421575D02*
X189571444Y-112326337D01*
X189571444Y-112326337D02*
X189857159Y-112326337D01*
X189857159Y-112326337D02*
X190047635Y-112421575D01*
X190047635Y-112421575D02*
X190142873Y-112516813D01*
X190142873Y-112516813D02*
X190238111Y-112707290D01*
X190238111Y-112707290D02*
X190238111Y-113278718D01*
X190238111Y-113278718D02*
X190142873Y-113469194D01*
X190142873Y-113469194D02*
X190047635Y-113564433D01*
X190047635Y-113564433D02*
X189857159Y-113659671D01*
X189857159Y-113659671D02*
X189571444Y-113659671D01*
X191095254Y-112326337D02*
X191095254Y-113659671D01*
X191095254Y-112516813D02*
X191190492Y-112421575D01*
X191190492Y-112421575D02*
X191380968Y-112326337D01*
X191380968Y-112326337D02*
X191666683Y-112326337D01*
X191666683Y-112326337D02*
X191857159Y-112421575D01*
X191857159Y-112421575D02*
X191952397Y-112612052D01*
X191952397Y-112612052D02*
X191952397Y-113659671D01*
X193666683Y-113564433D02*
X193476207Y-113659671D01*
X193476207Y-113659671D02*
X193095254Y-113659671D01*
X193095254Y-113659671D02*
X192904778Y-113564433D01*
X192904778Y-113564433D02*
X192809540Y-113373956D01*
X192809540Y-113373956D02*
X192809540Y-112612052D01*
X192809540Y-112612052D02*
X192904778Y-112421575D01*
X192904778Y-112421575D02*
X193095254Y-112326337D01*
X193095254Y-112326337D02*
X193476207Y-112326337D01*
X193476207Y-112326337D02*
X193666683Y-112421575D01*
X193666683Y-112421575D02*
X193761921Y-112612052D01*
X193761921Y-112612052D02*
X193761921Y-112802528D01*
X193761921Y-112802528D02*
X192809540Y-112993004D01*
X194428588Y-112326337D02*
X194904778Y-113659671D01*
X195380969Y-112326337D02*
X194904778Y-113659671D01*
X194904778Y-113659671D02*
X194714302Y-114135861D01*
X194714302Y-114135861D02*
X194619064Y-114231099D01*
X194619064Y-114231099D02*
X194428588Y-114326337D01*
X197000017Y-113659671D02*
X197000017Y-111659671D01*
X197000017Y-113564433D02*
X196809541Y-113659671D01*
X196809541Y-113659671D02*
X196428588Y-113659671D01*
X196428588Y-113659671D02*
X196238112Y-113564433D01*
X196238112Y-113564433D02*
X196142874Y-113469194D01*
X196142874Y-113469194D02*
X196047636Y-113278718D01*
X196047636Y-113278718D02*
X196047636Y-112707290D01*
X196047636Y-112707290D02*
X196142874Y-112516813D01*
X196142874Y-112516813D02*
X196238112Y-112421575D01*
X196238112Y-112421575D02*
X196428588Y-112326337D01*
X196428588Y-112326337D02*
X196809541Y-112326337D01*
X196809541Y-112326337D02*
X197000017Y-112421575D01*
X198714303Y-113564433D02*
X198523827Y-113659671D01*
X198523827Y-113659671D02*
X198142874Y-113659671D01*
X198142874Y-113659671D02*
X197952398Y-113564433D01*
X197952398Y-113564433D02*
X197857160Y-113373956D01*
X197857160Y-113373956D02*
X197857160Y-112612052D01*
X197857160Y-112612052D02*
X197952398Y-112421575D01*
X197952398Y-112421575D02*
X198142874Y-112326337D01*
X198142874Y-112326337D02*
X198523827Y-112326337D01*
X198523827Y-112326337D02*
X198714303Y-112421575D01*
X198714303Y-112421575D02*
X198809541Y-112612052D01*
X198809541Y-112612052D02*
X198809541Y-112802528D01*
X198809541Y-112802528D02*
X197857160Y-112993004D01*
X199476208Y-112326337D02*
X199857160Y-113659671D01*
X199857160Y-113659671D02*
X200238113Y-112707290D01*
X200238113Y-112707290D02*
X200619065Y-113659671D01*
X200619065Y-113659671D02*
X201000017Y-112326337D01*
X203000018Y-111659671D02*
X203666684Y-113659671D01*
X203666684Y-113659671D02*
X204333351Y-111659671D01*
X204809542Y-111659671D02*
X206047637Y-111659671D01*
X206047637Y-111659671D02*
X205380970Y-112421575D01*
X205380970Y-112421575D02*
X205666685Y-112421575D01*
X205666685Y-112421575D02*
X205857161Y-112516813D01*
X205857161Y-112516813D02*
X205952399Y-112612052D01*
X205952399Y-112612052D02*
X206047637Y-112802528D01*
X206047637Y-112802528D02*
X206047637Y-113278718D01*
X206047637Y-113278718D02*
X205952399Y-113469194D01*
X205952399Y-113469194D02*
X205857161Y-113564433D01*
X205857161Y-113564433D02*
X205666685Y-113659671D01*
X205666685Y-113659671D02*
X205095256Y-113659671D01*
X205095256Y-113659671D02*
X204904780Y-113564433D01*
X204904780Y-113564433D02*
X204809542Y-113469194D01*
X206904780Y-113469194D02*
X207000018Y-113564433D01*
X207000018Y-113564433D02*
X206904780Y-113659671D01*
X206904780Y-113659671D02*
X206809542Y-113564433D01*
X206809542Y-113564433D02*
X206904780Y-113469194D01*
X206904780Y-113469194D02*
X206904780Y-113659671D01*
X208238113Y-111659671D02*
X208428590Y-111659671D01*
X208428590Y-111659671D02*
X208619066Y-111754909D01*
X208619066Y-111754909D02*
X208714304Y-111850147D01*
X208714304Y-111850147D02*
X208809542Y-112040623D01*
X208809542Y-112040623D02*
X208904780Y-112421575D01*
X208904780Y-112421575D02*
X208904780Y-112897766D01*
X208904780Y-112897766D02*
X208809542Y-113278718D01*
X208809542Y-113278718D02*
X208714304Y-113469194D01*
X208714304Y-113469194D02*
X208619066Y-113564433D01*
X208619066Y-113564433D02*
X208428590Y-113659671D01*
X208428590Y-113659671D02*
X208238113Y-113659671D01*
X208238113Y-113659671D02*
X208047637Y-113564433D01*
X208047637Y-113564433D02*
X207952399Y-113469194D01*
X207952399Y-113469194D02*
X207857161Y-113278718D01*
X207857161Y-113278718D02*
X207761923Y-112897766D01*
X207761923Y-112897766D02*
X207761923Y-112421575D01*
X207761923Y-112421575D02*
X207857161Y-112040623D01*
X207857161Y-112040623D02*
X207952399Y-111850147D01*
X207952399Y-111850147D02*
X208047637Y-111754909D01*
X208047637Y-111754909D02*
X208238113Y-111659671D01*
D11*
X174309531Y-118184839D02*
X173976198Y-117708648D01*
X173738103Y-118184839D02*
X173738103Y-117184839D01*
X173738103Y-117184839D02*
X174119055Y-117184839D01*
X174119055Y-117184839D02*
X174214293Y-117232458D01*
X174214293Y-117232458D02*
X174261912Y-117280077D01*
X174261912Y-117280077D02*
X174309531Y-117375315D01*
X174309531Y-117375315D02*
X174309531Y-117518172D01*
X174309531Y-117518172D02*
X174261912Y-117613410D01*
X174261912Y-117613410D02*
X174214293Y-117661029D01*
X174214293Y-117661029D02*
X174119055Y-117708648D01*
X174119055Y-117708648D02*
X173738103Y-117708648D01*
X175261912Y-117232458D02*
X175166674Y-117184839D01*
X175166674Y-117184839D02*
X175023817Y-117184839D01*
X175023817Y-117184839D02*
X174880960Y-117232458D01*
X174880960Y-117232458D02*
X174785722Y-117327696D01*
X174785722Y-117327696D02*
X174738103Y-117422934D01*
X174738103Y-117422934D02*
X174690484Y-117613410D01*
X174690484Y-117613410D02*
X174690484Y-117756267D01*
X174690484Y-117756267D02*
X174738103Y-117946743D01*
X174738103Y-117946743D02*
X174785722Y-118041981D01*
X174785722Y-118041981D02*
X174880960Y-118137220D01*
X174880960Y-118137220D02*
X175023817Y-118184839D01*
X175023817Y-118184839D02*
X175119055Y-118184839D01*
X175119055Y-118184839D02*
X175261912Y-118137220D01*
X175261912Y-118137220D02*
X175309531Y-118089600D01*
X175309531Y-118089600D02*
X175309531Y-117756267D01*
X175309531Y-117756267D02*
X175119055Y-117756267D01*
X176071436Y-117661029D02*
X176214293Y-117708648D01*
X176214293Y-117708648D02*
X176261912Y-117756267D01*
X176261912Y-117756267D02*
X176309531Y-117851505D01*
X176309531Y-117851505D02*
X176309531Y-117994362D01*
X176309531Y-117994362D02*
X176261912Y-118089600D01*
X176261912Y-118089600D02*
X176214293Y-118137220D01*
X176214293Y-118137220D02*
X176119055Y-118184839D01*
X176119055Y-118184839D02*
X175738103Y-118184839D01*
X175738103Y-118184839D02*
X175738103Y-117184839D01*
X175738103Y-117184839D02*
X176071436Y-117184839D01*
X176071436Y-117184839D02*
X176166674Y-117232458D01*
X176166674Y-117232458D02*
X176214293Y-117280077D01*
X176214293Y-117280077D02*
X176261912Y-117375315D01*
X176261912Y-117375315D02*
X176261912Y-117470553D01*
X176261912Y-117470553D02*
X176214293Y-117565791D01*
X176214293Y-117565791D02*
X176166674Y-117613410D01*
X176166674Y-117613410D02*
X176071436Y-117661029D01*
X176071436Y-117661029D02*
X175738103Y-117661029D01*
X194590473Y-152354845D02*
X195161901Y-152354845D01*
X194876187Y-153354845D02*
X194876187Y-152354845D01*
X195495235Y-153354845D02*
X195495235Y-152688178D01*
X195495235Y-152878654D02*
X195542854Y-152783416D01*
X195542854Y-152783416D02*
X195590473Y-152735797D01*
X195590473Y-152735797D02*
X195685711Y-152688178D01*
X195685711Y-152688178D02*
X195780949Y-152688178D01*
X196542854Y-153354845D02*
X196542854Y-152831035D01*
X196542854Y-152831035D02*
X196495235Y-152735797D01*
X196495235Y-152735797D02*
X196399997Y-152688178D01*
X196399997Y-152688178D02*
X196209521Y-152688178D01*
X196209521Y-152688178D02*
X196114283Y-152735797D01*
X196542854Y-153307226D02*
X196447616Y-153354845D01*
X196447616Y-153354845D02*
X196209521Y-153354845D01*
X196209521Y-153354845D02*
X196114283Y-153307226D01*
X196114283Y-153307226D02*
X196066664Y-153211987D01*
X196066664Y-153211987D02*
X196066664Y-153116749D01*
X196066664Y-153116749D02*
X196114283Y-153021511D01*
X196114283Y-153021511D02*
X196209521Y-152973892D01*
X196209521Y-152973892D02*
X196447616Y-152973892D01*
X196447616Y-152973892D02*
X196542854Y-152926273D01*
X197447616Y-153307226D02*
X197352378Y-153354845D01*
X197352378Y-153354845D02*
X197161902Y-153354845D01*
X197161902Y-153354845D02*
X197066664Y-153307226D01*
X197066664Y-153307226D02*
X197019045Y-153259606D01*
X197019045Y-153259606D02*
X196971426Y-153164368D01*
X196971426Y-153164368D02*
X196971426Y-152878654D01*
X196971426Y-152878654D02*
X197019045Y-152783416D01*
X197019045Y-152783416D02*
X197066664Y-152735797D01*
X197066664Y-152735797D02*
X197161902Y-152688178D01*
X197161902Y-152688178D02*
X197352378Y-152688178D01*
X197352378Y-152688178D02*
X197447616Y-152735797D01*
X197876188Y-153354845D02*
X197876188Y-152354845D01*
X197971426Y-152973892D02*
X198257140Y-153354845D01*
X198257140Y-152688178D02*
X197876188Y-153069130D01*
X198685712Y-153354845D02*
X198685712Y-152354845D01*
X198685712Y-152735797D02*
X198780950Y-152688178D01*
X198780950Y-152688178D02*
X198971426Y-152688178D01*
X198971426Y-152688178D02*
X199066664Y-152735797D01*
X199066664Y-152735797D02*
X199114283Y-152783416D01*
X199114283Y-152783416D02*
X199161902Y-152878654D01*
X199161902Y-152878654D02*
X199161902Y-153164368D01*
X199161902Y-153164368D02*
X199114283Y-153259606D01*
X199114283Y-153259606D02*
X199066664Y-153307226D01*
X199066664Y-153307226D02*
X198971426Y-153354845D01*
X198971426Y-153354845D02*
X198780950Y-153354845D01*
X198780950Y-153354845D02*
X198685712Y-153307226D01*
X200019045Y-153354845D02*
X200019045Y-152831035D01*
X200019045Y-152831035D02*
X199971426Y-152735797D01*
X199971426Y-152735797D02*
X199876188Y-152688178D01*
X199876188Y-152688178D02*
X199685712Y-152688178D01*
X199685712Y-152688178D02*
X199590474Y-152735797D01*
X200019045Y-153307226D02*
X199923807Y-153354845D01*
X199923807Y-153354845D02*
X199685712Y-153354845D01*
X199685712Y-153354845D02*
X199590474Y-153307226D01*
X199590474Y-153307226D02*
X199542855Y-153211987D01*
X199542855Y-153211987D02*
X199542855Y-153116749D01*
X199542855Y-153116749D02*
X199590474Y-153021511D01*
X199590474Y-153021511D02*
X199685712Y-152973892D01*
X199685712Y-152973892D02*
X199923807Y-152973892D01*
X199923807Y-152973892D02*
X200019045Y-152926273D01*
X200638093Y-153354845D02*
X200542855Y-153307226D01*
X200542855Y-153307226D02*
X200495236Y-153211987D01*
X200495236Y-153211987D02*
X200495236Y-152354845D01*
X201161903Y-153354845D02*
X201066665Y-153307226D01*
X201066665Y-153307226D02*
X201019046Y-153211987D01*
X201019046Y-153211987D02*
X201019046Y-152354845D01*
X174238099Y-110932460D02*
X174142861Y-110884841D01*
X174142861Y-110884841D02*
X174000004Y-110884841D01*
X174000004Y-110884841D02*
X173857147Y-110932460D01*
X173857147Y-110932460D02*
X173761909Y-111027698D01*
X173761909Y-111027698D02*
X173714290Y-111122936D01*
X173714290Y-111122936D02*
X173666671Y-111313412D01*
X173666671Y-111313412D02*
X173666671Y-111456269D01*
X173666671Y-111456269D02*
X173714290Y-111646745D01*
X173714290Y-111646745D02*
X173761909Y-111741983D01*
X173761909Y-111741983D02*
X173857147Y-111837222D01*
X173857147Y-111837222D02*
X174000004Y-111884841D01*
X174000004Y-111884841D02*
X174095242Y-111884841D01*
X174095242Y-111884841D02*
X174238099Y-111837222D01*
X174238099Y-111837222D02*
X174285718Y-111789602D01*
X174285718Y-111789602D02*
X174285718Y-111456269D01*
X174285718Y-111456269D02*
X174095242Y-111456269D01*
X174714290Y-111884841D02*
X174714290Y-110884841D01*
X174714290Y-110884841D02*
X175285718Y-111884841D01*
X175285718Y-111884841D02*
X175285718Y-110884841D01*
X175761909Y-111884841D02*
X175761909Y-110884841D01*
X175761909Y-110884841D02*
X176000004Y-110884841D01*
X176000004Y-110884841D02*
X176142861Y-110932460D01*
X176142861Y-110932460D02*
X176238099Y-111027698D01*
X176238099Y-111027698D02*
X176285718Y-111122936D01*
X176285718Y-111122936D02*
X176333337Y-111313412D01*
X176333337Y-111313412D02*
X176333337Y-111456269D01*
X176333337Y-111456269D02*
X176285718Y-111646745D01*
X176285718Y-111646745D02*
X176238099Y-111741983D01*
X176238099Y-111741983D02*
X176142861Y-111837222D01*
X176142861Y-111837222D02*
X176000004Y-111884841D01*
X176000004Y-111884841D02*
X175761909Y-111884841D01*
D13*
X197733325Y-104264925D02*
X197733325Y-104836353D01*
X197733325Y-104836353D02*
X197695230Y-104950639D01*
X197695230Y-104950639D02*
X197619039Y-105026830D01*
X197619039Y-105026830D02*
X197504754Y-105064925D01*
X197504754Y-105064925D02*
X197428563Y-105064925D01*
X198457135Y-104531591D02*
X198457135Y-105064925D01*
X198266659Y-104226830D02*
X198076182Y-104798258D01*
X198076182Y-104798258D02*
X198571421Y-104798258D01*
D11*
X174014278Y-74773896D02*
X174776183Y-74773896D01*
X174395230Y-75154849D02*
X174395230Y-74392944D01*
X175728563Y-74154849D02*
X175252373Y-74154849D01*
X175252373Y-74154849D02*
X175204754Y-74631039D01*
X175204754Y-74631039D02*
X175252373Y-74583420D01*
X175252373Y-74583420D02*
X175347611Y-74535801D01*
X175347611Y-74535801D02*
X175585706Y-74535801D01*
X175585706Y-74535801D02*
X175680944Y-74583420D01*
X175680944Y-74583420D02*
X175728563Y-74631039D01*
X175728563Y-74631039D02*
X175776182Y-74726277D01*
X175776182Y-74726277D02*
X175776182Y-74964372D01*
X175776182Y-74964372D02*
X175728563Y-75059610D01*
X175728563Y-75059610D02*
X175680944Y-75107230D01*
X175680944Y-75107230D02*
X175585706Y-75154849D01*
X175585706Y-75154849D02*
X175347611Y-75154849D01*
X175347611Y-75154849D02*
X175252373Y-75107230D01*
X175252373Y-75107230D02*
X175204754Y-75059610D01*
X176061897Y-74154849D02*
X176395230Y-75154849D01*
X176395230Y-75154849D02*
X176728563Y-74154849D01*
X174538087Y-76702468D02*
X174442849Y-76654849D01*
X174442849Y-76654849D02*
X174299992Y-76654849D01*
X174299992Y-76654849D02*
X174157135Y-76702468D01*
X174157135Y-76702468D02*
X174061897Y-76797706D01*
X174061897Y-76797706D02*
X174014278Y-76892944D01*
X174014278Y-76892944D02*
X173966659Y-77083420D01*
X173966659Y-77083420D02*
X173966659Y-77226277D01*
X173966659Y-77226277D02*
X174014278Y-77416753D01*
X174014278Y-77416753D02*
X174061897Y-77511991D01*
X174061897Y-77511991D02*
X174157135Y-77607230D01*
X174157135Y-77607230D02*
X174299992Y-77654849D01*
X174299992Y-77654849D02*
X174395230Y-77654849D01*
X174395230Y-77654849D02*
X174538087Y-77607230D01*
X174538087Y-77607230D02*
X174585706Y-77559610D01*
X174585706Y-77559610D02*
X174585706Y-77226277D01*
X174585706Y-77226277D02*
X174395230Y-77226277D01*
X175014278Y-77654849D02*
X175014278Y-76654849D01*
X175014278Y-76654849D02*
X175585706Y-77654849D01*
X175585706Y-77654849D02*
X175585706Y-76654849D01*
X176061897Y-77654849D02*
X176061897Y-76654849D01*
X176061897Y-76654849D02*
X176299992Y-76654849D01*
X176299992Y-76654849D02*
X176442849Y-76702468D01*
X176442849Y-76702468D02*
X176538087Y-76797706D01*
X176538087Y-76797706D02*
X176585706Y-76892944D01*
X176585706Y-76892944D02*
X176633325Y-77083420D01*
X176633325Y-77083420D02*
X176633325Y-77226277D01*
X176633325Y-77226277D02*
X176585706Y-77416753D01*
X176585706Y-77416753D02*
X176538087Y-77511991D01*
X176538087Y-77511991D02*
X176442849Y-77607230D01*
X176442849Y-77607230D02*
X176299992Y-77654849D01*
X176299992Y-77654849D02*
X176061897Y-77654849D01*
X174538087Y-87854849D02*
X174538087Y-86854849D01*
X174538087Y-86854849D02*
X174776182Y-86854849D01*
X174776182Y-86854849D02*
X174919039Y-86902468D01*
X174919039Y-86902468D02*
X175014277Y-86997706D01*
X175014277Y-86997706D02*
X175061896Y-87092944D01*
X175061896Y-87092944D02*
X175109515Y-87283420D01*
X175109515Y-87283420D02*
X175109515Y-87426277D01*
X175109515Y-87426277D02*
X175061896Y-87616753D01*
X175061896Y-87616753D02*
X175014277Y-87711991D01*
X175014277Y-87711991D02*
X174919039Y-87807230D01*
X174919039Y-87807230D02*
X174776182Y-87854849D01*
X174776182Y-87854849D02*
X174538087Y-87854849D01*
X176109515Y-87759610D02*
X176061896Y-87807230D01*
X176061896Y-87807230D02*
X175919039Y-87854849D01*
X175919039Y-87854849D02*
X175823801Y-87854849D01*
X175823801Y-87854849D02*
X175680944Y-87807230D01*
X175680944Y-87807230D02*
X175585706Y-87711991D01*
X175585706Y-87711991D02*
X175538087Y-87616753D01*
X175538087Y-87616753D02*
X175490468Y-87426277D01*
X175490468Y-87426277D02*
X175490468Y-87283420D01*
X175490468Y-87283420D02*
X175538087Y-87092944D01*
X175538087Y-87092944D02*
X175585706Y-86997706D01*
X175585706Y-86997706D02*
X175680944Y-86902468D01*
X175680944Y-86902468D02*
X175823801Y-86854849D01*
X175823801Y-86854849D02*
X175919039Y-86854849D01*
X175919039Y-86854849D02*
X176061896Y-86902468D01*
X176061896Y-86902468D02*
X176109515Y-86950087D01*
X175133325Y-85159610D02*
X175085706Y-85207230D01*
X175085706Y-85207230D02*
X174942849Y-85254849D01*
X174942849Y-85254849D02*
X174847611Y-85254849D01*
X174847611Y-85254849D02*
X174704754Y-85207230D01*
X174704754Y-85207230D02*
X174609516Y-85111991D01*
X174609516Y-85111991D02*
X174561897Y-85016753D01*
X174561897Y-85016753D02*
X174514278Y-84826277D01*
X174514278Y-84826277D02*
X174514278Y-84683420D01*
X174514278Y-84683420D02*
X174561897Y-84492944D01*
X174561897Y-84492944D02*
X174609516Y-84397706D01*
X174609516Y-84397706D02*
X174704754Y-84302468D01*
X174704754Y-84302468D02*
X174847611Y-84254849D01*
X174847611Y-84254849D02*
X174942849Y-84254849D01*
X174942849Y-84254849D02*
X175085706Y-84302468D01*
X175085706Y-84302468D02*
X175133325Y-84350087D01*
X175514278Y-85207230D02*
X175657135Y-85254849D01*
X175657135Y-85254849D02*
X175895230Y-85254849D01*
X175895230Y-85254849D02*
X175990468Y-85207230D01*
X175990468Y-85207230D02*
X176038087Y-85159610D01*
X176038087Y-85159610D02*
X176085706Y-85064372D01*
X176085706Y-85064372D02*
X176085706Y-84969134D01*
X176085706Y-84969134D02*
X176038087Y-84873896D01*
X176038087Y-84873896D02*
X175990468Y-84826277D01*
X175990468Y-84826277D02*
X175895230Y-84778658D01*
X175895230Y-84778658D02*
X175704754Y-84731039D01*
X175704754Y-84731039D02*
X175609516Y-84683420D01*
X175609516Y-84683420D02*
X175561897Y-84635801D01*
X175561897Y-84635801D02*
X175514278Y-84540563D01*
X175514278Y-84540563D02*
X175514278Y-84445325D01*
X175514278Y-84445325D02*
X175561897Y-84350087D01*
X175561897Y-84350087D02*
X175609516Y-84302468D01*
X175609516Y-84302468D02*
X175704754Y-84254849D01*
X175704754Y-84254849D02*
X175942849Y-84254849D01*
X175942849Y-84254849D02*
X176085706Y-84302468D01*
X174752372Y-90354849D02*
X174419039Y-89878658D01*
X174180944Y-90354849D02*
X174180944Y-89354849D01*
X174180944Y-89354849D02*
X174561896Y-89354849D01*
X174561896Y-89354849D02*
X174657134Y-89402468D01*
X174657134Y-89402468D02*
X174704753Y-89450087D01*
X174704753Y-89450087D02*
X174752372Y-89545325D01*
X174752372Y-89545325D02*
X174752372Y-89688182D01*
X174752372Y-89688182D02*
X174704753Y-89783420D01*
X174704753Y-89783420D02*
X174657134Y-89831039D01*
X174657134Y-89831039D02*
X174561896Y-89878658D01*
X174561896Y-89878658D02*
X174180944Y-89878658D01*
X175133325Y-90307230D02*
X175276182Y-90354849D01*
X175276182Y-90354849D02*
X175514277Y-90354849D01*
X175514277Y-90354849D02*
X175609515Y-90307230D01*
X175609515Y-90307230D02*
X175657134Y-90259610D01*
X175657134Y-90259610D02*
X175704753Y-90164372D01*
X175704753Y-90164372D02*
X175704753Y-90069134D01*
X175704753Y-90069134D02*
X175657134Y-89973896D01*
X175657134Y-89973896D02*
X175609515Y-89926277D01*
X175609515Y-89926277D02*
X175514277Y-89878658D01*
X175514277Y-89878658D02*
X175323801Y-89831039D01*
X175323801Y-89831039D02*
X175228563Y-89783420D01*
X175228563Y-89783420D02*
X175180944Y-89735801D01*
X175180944Y-89735801D02*
X175133325Y-89640563D01*
X175133325Y-89640563D02*
X175133325Y-89545325D01*
X175133325Y-89545325D02*
X175180944Y-89450087D01*
X175180944Y-89450087D02*
X175228563Y-89402468D01*
X175228563Y-89402468D02*
X175323801Y-89354849D01*
X175323801Y-89354849D02*
X175561896Y-89354849D01*
X175561896Y-89354849D02*
X175704753Y-89402468D01*
X175990468Y-89354849D02*
X176561896Y-89354849D01*
X176276182Y-90354849D02*
X176276182Y-89354849D01*
X173728564Y-80254849D02*
X173728564Y-79254849D01*
X173728564Y-79254849D02*
X174061897Y-79969134D01*
X174061897Y-79969134D02*
X174395230Y-79254849D01*
X174395230Y-79254849D02*
X174395230Y-80254849D01*
X175061897Y-79254849D02*
X175252373Y-79254849D01*
X175252373Y-79254849D02*
X175347611Y-79302468D01*
X175347611Y-79302468D02*
X175442849Y-79397706D01*
X175442849Y-79397706D02*
X175490468Y-79588182D01*
X175490468Y-79588182D02*
X175490468Y-79921515D01*
X175490468Y-79921515D02*
X175442849Y-80111991D01*
X175442849Y-80111991D02*
X175347611Y-80207230D01*
X175347611Y-80207230D02*
X175252373Y-80254849D01*
X175252373Y-80254849D02*
X175061897Y-80254849D01*
X175061897Y-80254849D02*
X174966659Y-80207230D01*
X174966659Y-80207230D02*
X174871421Y-80111991D01*
X174871421Y-80111991D02*
X174823802Y-79921515D01*
X174823802Y-79921515D02*
X174823802Y-79588182D01*
X174823802Y-79588182D02*
X174871421Y-79397706D01*
X174871421Y-79397706D02*
X174966659Y-79302468D01*
X174966659Y-79302468D02*
X175061897Y-79254849D01*
X175871421Y-80207230D02*
X176014278Y-80254849D01*
X176014278Y-80254849D02*
X176252373Y-80254849D01*
X176252373Y-80254849D02*
X176347611Y-80207230D01*
X176347611Y-80207230D02*
X176395230Y-80159610D01*
X176395230Y-80159610D02*
X176442849Y-80064372D01*
X176442849Y-80064372D02*
X176442849Y-79969134D01*
X176442849Y-79969134D02*
X176395230Y-79873896D01*
X176395230Y-79873896D02*
X176347611Y-79826277D01*
X176347611Y-79826277D02*
X176252373Y-79778658D01*
X176252373Y-79778658D02*
X176061897Y-79731039D01*
X176061897Y-79731039D02*
X175966659Y-79683420D01*
X175966659Y-79683420D02*
X175919040Y-79635801D01*
X175919040Y-79635801D02*
X175871421Y-79540563D01*
X175871421Y-79540563D02*
X175871421Y-79445325D01*
X175871421Y-79445325D02*
X175919040Y-79350087D01*
X175919040Y-79350087D02*
X175966659Y-79302468D01*
X175966659Y-79302468D02*
X176061897Y-79254849D01*
X176061897Y-79254849D02*
X176299992Y-79254849D01*
X176299992Y-79254849D02*
X176442849Y-79302468D01*
X176871421Y-80254849D02*
X176871421Y-79254849D01*
D13*
X196552374Y-172326830D02*
X196666660Y-172364925D01*
X196666660Y-172364925D02*
X196857136Y-172364925D01*
X196857136Y-172364925D02*
X196933327Y-172326830D01*
X196933327Y-172326830D02*
X196971422Y-172288734D01*
X196971422Y-172288734D02*
X197009517Y-172212544D01*
X197009517Y-172212544D02*
X197009517Y-172136353D01*
X197009517Y-172136353D02*
X196971422Y-172060163D01*
X196971422Y-172060163D02*
X196933327Y-172022068D01*
X196933327Y-172022068D02*
X196857136Y-171983972D01*
X196857136Y-171983972D02*
X196704755Y-171945877D01*
X196704755Y-171945877D02*
X196628565Y-171907782D01*
X196628565Y-171907782D02*
X196590470Y-171869687D01*
X196590470Y-171869687D02*
X196552374Y-171793496D01*
X196552374Y-171793496D02*
X196552374Y-171717306D01*
X196552374Y-171717306D02*
X196590470Y-171641115D01*
X196590470Y-171641115D02*
X196628565Y-171603020D01*
X196628565Y-171603020D02*
X196704755Y-171564925D01*
X196704755Y-171564925D02*
X196895232Y-171564925D01*
X196895232Y-171564925D02*
X197009517Y-171603020D01*
X197276184Y-171564925D02*
X197466660Y-172364925D01*
X197466660Y-172364925D02*
X197619041Y-171793496D01*
X197619041Y-171793496D02*
X197771422Y-172364925D01*
X197771422Y-172364925D02*
X197961899Y-171564925D01*
X198609518Y-171564925D02*
X198457137Y-171564925D01*
X198457137Y-171564925D02*
X198380946Y-171603020D01*
X198380946Y-171603020D02*
X198342851Y-171641115D01*
X198342851Y-171641115D02*
X198266661Y-171755401D01*
X198266661Y-171755401D02*
X198228565Y-171907782D01*
X198228565Y-171907782D02*
X198228565Y-172212544D01*
X198228565Y-172212544D02*
X198266661Y-172288734D01*
X198266661Y-172288734D02*
X198304756Y-172326830D01*
X198304756Y-172326830D02*
X198380946Y-172364925D01*
X198380946Y-172364925D02*
X198533327Y-172364925D01*
X198533327Y-172364925D02*
X198609518Y-172326830D01*
X198609518Y-172326830D02*
X198647613Y-172288734D01*
X198647613Y-172288734D02*
X198685708Y-172212544D01*
X198685708Y-172212544D02*
X198685708Y-172022068D01*
X198685708Y-172022068D02*
X198647613Y-171945877D01*
X198647613Y-171945877D02*
X198609518Y-171907782D01*
X198609518Y-171907782D02*
X198533327Y-171869687D01*
X198533327Y-171869687D02*
X198380946Y-171869687D01*
X198380946Y-171869687D02*
X198304756Y-171907782D01*
X198304756Y-171907782D02*
X198266661Y-171945877D01*
X198266661Y-171945877D02*
X198228565Y-172022068D01*
X198952375Y-171564925D02*
X199485709Y-171564925D01*
X199485709Y-171564925D02*
X199142851Y-172364925D01*
X227452374Y-198876816D02*
X227566660Y-198914911D01*
X227566660Y-198914911D02*
X227757136Y-198914911D01*
X227757136Y-198914911D02*
X227833327Y-198876816D01*
X227833327Y-198876816D02*
X227871422Y-198838720D01*
X227871422Y-198838720D02*
X227909517Y-198762530D01*
X227909517Y-198762530D02*
X227909517Y-198686339D01*
X227909517Y-198686339D02*
X227871422Y-198610149D01*
X227871422Y-198610149D02*
X227833327Y-198572054D01*
X227833327Y-198572054D02*
X227757136Y-198533958D01*
X227757136Y-198533958D02*
X227604755Y-198495863D01*
X227604755Y-198495863D02*
X227528565Y-198457768D01*
X227528565Y-198457768D02*
X227490470Y-198419673D01*
X227490470Y-198419673D02*
X227452374Y-198343482D01*
X227452374Y-198343482D02*
X227452374Y-198267292D01*
X227452374Y-198267292D02*
X227490470Y-198191101D01*
X227490470Y-198191101D02*
X227528565Y-198153006D01*
X227528565Y-198153006D02*
X227604755Y-198114911D01*
X227604755Y-198114911D02*
X227795232Y-198114911D01*
X227795232Y-198114911D02*
X227909517Y-198153006D01*
X228176184Y-198114911D02*
X228366660Y-198914911D01*
X228366660Y-198914911D02*
X228519041Y-198343482D01*
X228519041Y-198343482D02*
X228671422Y-198914911D01*
X228671422Y-198914911D02*
X228861899Y-198114911D01*
X229509518Y-198114911D02*
X229357137Y-198114911D01*
X229357137Y-198114911D02*
X229280946Y-198153006D01*
X229280946Y-198153006D02*
X229242851Y-198191101D01*
X229242851Y-198191101D02*
X229166661Y-198305387D01*
X229166661Y-198305387D02*
X229128565Y-198457768D01*
X229128565Y-198457768D02*
X229128565Y-198762530D01*
X229128565Y-198762530D02*
X229166661Y-198838720D01*
X229166661Y-198838720D02*
X229204756Y-198876816D01*
X229204756Y-198876816D02*
X229280946Y-198914911D01*
X229280946Y-198914911D02*
X229433327Y-198914911D01*
X229433327Y-198914911D02*
X229509518Y-198876816D01*
X229509518Y-198876816D02*
X229547613Y-198838720D01*
X229547613Y-198838720D02*
X229585708Y-198762530D01*
X229585708Y-198762530D02*
X229585708Y-198572054D01*
X229585708Y-198572054D02*
X229547613Y-198495863D01*
X229547613Y-198495863D02*
X229509518Y-198457768D01*
X229509518Y-198457768D02*
X229433327Y-198419673D01*
X229433327Y-198419673D02*
X229280946Y-198419673D01*
X229280946Y-198419673D02*
X229204756Y-198457768D01*
X229204756Y-198457768D02*
X229166661Y-198495863D01*
X229166661Y-198495863D02*
X229128565Y-198572054D01*
X230042851Y-198457768D02*
X229966661Y-198419673D01*
X229966661Y-198419673D02*
X229928566Y-198381577D01*
X229928566Y-198381577D02*
X229890470Y-198305387D01*
X229890470Y-198305387D02*
X229890470Y-198267292D01*
X229890470Y-198267292D02*
X229928566Y-198191101D01*
X229928566Y-198191101D02*
X229966661Y-198153006D01*
X229966661Y-198153006D02*
X230042851Y-198114911D01*
X230042851Y-198114911D02*
X230195232Y-198114911D01*
X230195232Y-198114911D02*
X230271423Y-198153006D01*
X230271423Y-198153006D02*
X230309518Y-198191101D01*
X230309518Y-198191101D02*
X230347613Y-198267292D01*
X230347613Y-198267292D02*
X230347613Y-198305387D01*
X230347613Y-198305387D02*
X230309518Y-198381577D01*
X230309518Y-198381577D02*
X230271423Y-198419673D01*
X230271423Y-198419673D02*
X230195232Y-198457768D01*
X230195232Y-198457768D02*
X230042851Y-198457768D01*
X230042851Y-198457768D02*
X229966661Y-198495863D01*
X229966661Y-198495863D02*
X229928566Y-198533958D01*
X229928566Y-198533958D02*
X229890470Y-198610149D01*
X229890470Y-198610149D02*
X229890470Y-198762530D01*
X229890470Y-198762530D02*
X229928566Y-198838720D01*
X229928566Y-198838720D02*
X229966661Y-198876816D01*
X229966661Y-198876816D02*
X230042851Y-198914911D01*
X230042851Y-198914911D02*
X230195232Y-198914911D01*
X230195232Y-198914911D02*
X230271423Y-198876816D01*
X230271423Y-198876816D02*
X230309518Y-198838720D01*
X230309518Y-198838720D02*
X230347613Y-198762530D01*
X230347613Y-198762530D02*
X230347613Y-198610149D01*
X230347613Y-198610149D02*
X230309518Y-198533958D01*
X230309518Y-198533958D02*
X230271423Y-198495863D01*
X230271423Y-198495863D02*
X230195232Y-198457768D01*
X164552374Y-196326830D02*
X164666660Y-196364925D01*
X164666660Y-196364925D02*
X164857136Y-196364925D01*
X164857136Y-196364925D02*
X164933327Y-196326830D01*
X164933327Y-196326830D02*
X164971422Y-196288734D01*
X164971422Y-196288734D02*
X165009517Y-196212544D01*
X165009517Y-196212544D02*
X165009517Y-196136353D01*
X165009517Y-196136353D02*
X164971422Y-196060163D01*
X164971422Y-196060163D02*
X164933327Y-196022068D01*
X164933327Y-196022068D02*
X164857136Y-195983972D01*
X164857136Y-195983972D02*
X164704755Y-195945877D01*
X164704755Y-195945877D02*
X164628565Y-195907782D01*
X164628565Y-195907782D02*
X164590470Y-195869687D01*
X164590470Y-195869687D02*
X164552374Y-195793496D01*
X164552374Y-195793496D02*
X164552374Y-195717306D01*
X164552374Y-195717306D02*
X164590470Y-195641115D01*
X164590470Y-195641115D02*
X164628565Y-195603020D01*
X164628565Y-195603020D02*
X164704755Y-195564925D01*
X164704755Y-195564925D02*
X164895232Y-195564925D01*
X164895232Y-195564925D02*
X165009517Y-195603020D01*
X165276184Y-195564925D02*
X165466660Y-196364925D01*
X165466660Y-196364925D02*
X165619041Y-195793496D01*
X165619041Y-195793496D02*
X165771422Y-196364925D01*
X165771422Y-196364925D02*
X165961899Y-195564925D01*
X166609518Y-195564925D02*
X166457137Y-195564925D01*
X166457137Y-195564925D02*
X166380946Y-195603020D01*
X166380946Y-195603020D02*
X166342851Y-195641115D01*
X166342851Y-195641115D02*
X166266661Y-195755401D01*
X166266661Y-195755401D02*
X166228565Y-195907782D01*
X166228565Y-195907782D02*
X166228565Y-196212544D01*
X166228565Y-196212544D02*
X166266661Y-196288734D01*
X166266661Y-196288734D02*
X166304756Y-196326830D01*
X166304756Y-196326830D02*
X166380946Y-196364925D01*
X166380946Y-196364925D02*
X166533327Y-196364925D01*
X166533327Y-196364925D02*
X166609518Y-196326830D01*
X166609518Y-196326830D02*
X166647613Y-196288734D01*
X166647613Y-196288734D02*
X166685708Y-196212544D01*
X166685708Y-196212544D02*
X166685708Y-196022068D01*
X166685708Y-196022068D02*
X166647613Y-195945877D01*
X166647613Y-195945877D02*
X166609518Y-195907782D01*
X166609518Y-195907782D02*
X166533327Y-195869687D01*
X166533327Y-195869687D02*
X166380946Y-195869687D01*
X166380946Y-195869687D02*
X166304756Y-195907782D01*
X166304756Y-195907782D02*
X166266661Y-195945877D01*
X166266661Y-195945877D02*
X166228565Y-196022068D01*
X167409518Y-195564925D02*
X167028566Y-195564925D01*
X167028566Y-195564925D02*
X166990470Y-195945877D01*
X166990470Y-195945877D02*
X167028566Y-195907782D01*
X167028566Y-195907782D02*
X167104756Y-195869687D01*
X167104756Y-195869687D02*
X167295232Y-195869687D01*
X167295232Y-195869687D02*
X167371423Y-195907782D01*
X167371423Y-195907782D02*
X167409518Y-195945877D01*
X167409518Y-195945877D02*
X167447613Y-196022068D01*
X167447613Y-196022068D02*
X167447613Y-196212544D01*
X167447613Y-196212544D02*
X167409518Y-196288734D01*
X167409518Y-196288734D02*
X167371423Y-196326830D01*
X167371423Y-196326830D02*
X167295232Y-196364925D01*
X167295232Y-196364925D02*
X167104756Y-196364925D01*
X167104756Y-196364925D02*
X167028566Y-196326830D01*
X167028566Y-196326830D02*
X166990470Y-196288734D01*
D10*
%TO.C,J4*%
X220249992Y-100700030D02*
X220249992Y-63700030D01*
X220249992Y-63700030D02*
X175749992Y-63700030D01*
X175749992Y-100700030D02*
X220249992Y-100700030D01*
X175749992Y-90800030D02*
X175749992Y-100700030D01*
X175749992Y-63700030D02*
X175749992Y-73600030D01*
D13*
%TO.C,SW67*%
X226249994Y-143000030D02*
G75*
G03*
X226249994Y-143000030I-28250000J0D01*
G01*
X218299994Y-143000030D02*
G75*
G03*
X218299994Y-143000030I-20300000J0D01*
G01*
D10*
%TO.C,SW68*%
X228899994Y-209900016D02*
X228899994Y-209000016D01*
X229399994Y-209900016D02*
X228899994Y-209900016D01*
X231799994Y-202000016D02*
X231799994Y-208000016D01*
X228899994Y-201000016D02*
X228899994Y-200100016D01*
X228899994Y-200100016D02*
X229399994Y-200100016D01*
%TO.C,SW66*%
X169230000Y-206050000D02*
X169230000Y-204050000D01*
X168500000Y-208280000D02*
X163500000Y-208280000D01*
X168500000Y-201820000D02*
X163500000Y-201820000D01*
X162770000Y-206050000D02*
X162770000Y-204050000D01*
D14*
%TO.C,SW65*%
X166099994Y-210080018D02*
G75*
G03*
X166099994Y-210080018I-100000J0D01*
G01*
D15*
X168899994Y-196680018D02*
X168899994Y-209480018D01*
X163099994Y-196680018D02*
X168899994Y-196680018D01*
X168899994Y-209480018D02*
X163099994Y-209480018D01*
X163099994Y-209480018D02*
X163099994Y-196680018D01*
D10*
%TO.C,SW29*%
X131884386Y-163474369D02*
X144008742Y-170474369D01*
X144008742Y-170474369D02*
X137008742Y-182598725D01*
X137008742Y-182598725D02*
X124884386Y-175598725D01*
X124884386Y-175598725D02*
X131884386Y-163474369D01*
%TO.C,SW30*%
X151403349Y-176148434D02*
X161302844Y-186047929D01*
X161302844Y-186047929D02*
X151403349Y-195947424D01*
X151403349Y-195947424D02*
X141503854Y-186047929D01*
X141503854Y-186047929D02*
X151403349Y-176148434D01*
%TO.C,SW1*%
X61386038Y-66902067D02*
X74908999Y-70525534D01*
X74908999Y-70525534D02*
X71285532Y-84048495D01*
X71285532Y-84048495D02*
X57762571Y-80425028D01*
X57762571Y-80425028D02*
X61386038Y-66902067D01*
%TO.C,SW23*%
X122047015Y-134926412D02*
X135569976Y-138549879D01*
X135569976Y-138549879D02*
X131946509Y-152072840D01*
X131946509Y-152072840D02*
X118423548Y-148449373D01*
X118423548Y-148449373D02*
X122047015Y-134926412D01*
%TO.C,SW24*%
X139626138Y-142923757D02*
X153149099Y-146547224D01*
X153149099Y-146547224D02*
X149525632Y-160070185D01*
X149525632Y-160070185D02*
X136002671Y-156446718D01*
X136002671Y-156446718D02*
X139626138Y-142923757D01*
%TO.C,SW21*%
X85245234Y-125065421D02*
X98768195Y-128688888D01*
X98768195Y-128688888D02*
X95144728Y-142211849D01*
X95144728Y-142211849D02*
X81621767Y-138588382D01*
X81621767Y-138588382D02*
X85245234Y-125065421D01*
%TO.C,SW22*%
X104673310Y-126162382D02*
X118196271Y-129785849D01*
X118196271Y-129785849D02*
X114572804Y-143308810D01*
X114572804Y-143308810D02*
X101049843Y-139685343D01*
X101049843Y-139685343D02*
X104673310Y-126162382D01*
%TO.C,SW25*%
X41664022Y-140505626D02*
X55186983Y-144129093D01*
X55186983Y-144129093D02*
X51563516Y-157652054D01*
X51563516Y-157652054D02*
X38040555Y-154028587D01*
X38040555Y-154028587D02*
X41664022Y-140505626D01*
%TO.C,SW11*%
X131908004Y-98124634D02*
X145430965Y-101748101D01*
X145430965Y-101748101D02*
X141807498Y-115271062D01*
X141807498Y-115271062D02*
X128284537Y-111647595D01*
X128284537Y-111647595D02*
X131908004Y-98124634D01*
%TO.C,SW12*%
X149487149Y-106121973D02*
X163010110Y-109745440D01*
X163010110Y-109745440D02*
X159386643Y-123268401D01*
X159386643Y-123268401D02*
X145863682Y-119644934D01*
X145863682Y-119644934D02*
X149487149Y-106121973D01*
%TO.C,SW13*%
X51525008Y-103703857D02*
X65047969Y-107327324D01*
X65047969Y-107327324D02*
X61424502Y-120850285D01*
X61424502Y-120850285D02*
X47901541Y-117226818D01*
X47901541Y-117226818D02*
X51525008Y-103703857D01*
%TO.C,SW14*%
X70542223Y-106334225D02*
X84065184Y-109957692D01*
X84065184Y-109957692D02*
X80441717Y-123480653D01*
X80441717Y-123480653D02*
X66918756Y-119857186D01*
X66918756Y-119857186D02*
X70542223Y-106334225D01*
%TO.C,SW15*%
X90175737Y-106664519D02*
X103698698Y-110287986D01*
X103698698Y-110287986D02*
X100075231Y-123810947D01*
X100075231Y-123810947D02*
X86552270Y-120187480D01*
X86552270Y-120187480D02*
X90175737Y-106664519D01*
%TO.C,SW17*%
X126977519Y-116525551D02*
X140500480Y-120149018D01*
X140500480Y-120149018D02*
X136877013Y-133671979D01*
X136877013Y-133671979D02*
X123354052Y-130048512D01*
X123354052Y-130048512D02*
X126977519Y-116525551D01*
%TO.C,SW16*%
X109603786Y-107761503D02*
X123126747Y-111384970D01*
X123126747Y-111384970D02*
X119503280Y-124907931D01*
X119503280Y-124907931D02*
X105980319Y-121284464D01*
X105980319Y-121284464D02*
X109603786Y-107761503D01*
%TO.C,SW18*%
X144556636Y-124522852D02*
X158079597Y-128146319D01*
X158079597Y-128146319D02*
X154456130Y-141669280D01*
X154456130Y-141669280D02*
X140933169Y-138045813D01*
X140933169Y-138045813D02*
X144556636Y-124522852D01*
%TO.C,SW19*%
X46594529Y-122104754D02*
X60117490Y-125728221D01*
X60117490Y-125728221D02*
X56494023Y-139251182D01*
X56494023Y-139251182D02*
X42971062Y-135627715D01*
X42971062Y-135627715D02*
X46594529Y-122104754D01*
%TO.C,SW20*%
X65611704Y-124735133D02*
X79134665Y-128358600D01*
X79134665Y-128358600D02*
X75511198Y-141881561D01*
X75511198Y-141881561D02*
X61988237Y-138258094D01*
X61988237Y-138258094D02*
X65611704Y-124735133D01*
%TO.C,SW26*%
X60681217Y-143136024D02*
X74204178Y-146759491D01*
X74204178Y-146759491D02*
X70580711Y-160282452D01*
X70580711Y-160282452D02*
X57057750Y-156658985D01*
X57057750Y-156658985D02*
X60681217Y-143136024D01*
%TO.C,SW27*%
X80314725Y-143466284D02*
X93837686Y-147089751D01*
X93837686Y-147089751D02*
X90214219Y-160612712D01*
X90214219Y-160612712D02*
X76691258Y-156989245D01*
X76691258Y-156989245D02*
X80314725Y-143466284D01*
%TO.C,SW28*%
X109750231Y-156284018D02*
X123273192Y-159907485D01*
X123273192Y-159907485D02*
X119649725Y-173430446D01*
X119649725Y-173430446D02*
X106126764Y-169806979D01*
X106126764Y-169806979D02*
X109750231Y-156284018D01*
%TO.C,SW3*%
X100036739Y-69862772D02*
X113559700Y-73486239D01*
X113559700Y-73486239D02*
X109936233Y-87009200D01*
X109936233Y-87009200D02*
X96413272Y-83385733D01*
X96413272Y-83385733D02*
X100036739Y-69862772D01*
%TO.C,SW7*%
X56455532Y-85302971D02*
X69978493Y-88926438D01*
X69978493Y-88926438D02*
X66355026Y-102449399D01*
X66355026Y-102449399D02*
X52832065Y-98825932D01*
X52832065Y-98825932D02*
X56455532Y-85302971D01*
%TO.C,SW9*%
X95106233Y-88263628D02*
X108629194Y-91887095D01*
X108629194Y-91887095D02*
X105005727Y-105410056D01*
X105005727Y-105410056D02*
X91482766Y-101786589D01*
X91482766Y-101786589D02*
X95106233Y-88263628D01*
%TO.C,SW5*%
X136838512Y-79723744D02*
X150361473Y-83347211D01*
X150361473Y-83347211D02*
X146738006Y-96870172D01*
X146738006Y-96870172D02*
X133215045Y-93246705D01*
X133215045Y-93246705D02*
X136838512Y-79723744D01*
%TO.C,SW10*%
X114534307Y-89360637D02*
X128057268Y-92984104D01*
X128057268Y-92984104D02*
X124433801Y-106507065D01*
X124433801Y-106507065D02*
X110910840Y-102883598D01*
X110910840Y-102883598D02*
X114534307Y-89360637D01*
%TO.C,SW4*%
X119464811Y-70959724D02*
X132987772Y-74583191D01*
X132987772Y-74583191D02*
X129364305Y-88106152D01*
X129364305Y-88106152D02*
X115841344Y-84482685D01*
X115841344Y-84482685D02*
X119464811Y-70959724D01*
%TO.C,SW2*%
X80403229Y-69532471D02*
X93926190Y-73155938D01*
X93926190Y-73155938D02*
X90302723Y-86678899D01*
X90302723Y-86678899D02*
X76779762Y-83055432D01*
X76779762Y-83055432D02*
X80403229Y-69532471D01*
%TO.C,SW8*%
X75472722Y-87933360D02*
X88995683Y-91556827D01*
X88995683Y-91556827D02*
X85372216Y-105079788D01*
X85372216Y-105079788D02*
X71849255Y-101456321D01*
X71849255Y-101456321D02*
X75472722Y-87933360D01*
%TO.C,SW6*%
X154417645Y-87721078D02*
X167940606Y-91344545D01*
X167940606Y-91344545D02*
X164317139Y-104867506D01*
X164317139Y-104867506D02*
X150794178Y-101244039D01*
X150794178Y-101244039D02*
X154417645Y-87721078D01*
%TO.C,SW36*%
X228059408Y-91344559D02*
X241582369Y-87721092D01*
X241582369Y-87721092D02*
X245205836Y-101244053D01*
X245205836Y-101244053D02*
X231682875Y-104867520D01*
X231682875Y-104867520D02*
X228059408Y-91344559D01*
%TO.C,SW62*%
X190999994Y-179000026D02*
X204999994Y-179000026D01*
X204999994Y-179000026D02*
X204999994Y-193000026D01*
X204999994Y-193000026D02*
X190999994Y-193000026D01*
X190999994Y-193000026D02*
X190999994Y-179000026D01*
%TO.C,SW58*%
X272726807Y-159907489D02*
X286249768Y-156284022D01*
X286249768Y-156284022D02*
X289873235Y-169806983D01*
X289873235Y-169806983D02*
X276350274Y-173430450D01*
X276350274Y-173430450D02*
X272726807Y-159907489D01*
%TO.C,SW51*%
X297231822Y-128688903D02*
X310754783Y-125065436D01*
X310754783Y-125065436D02*
X314378250Y-138588397D01*
X314378250Y-138588397D02*
X300855289Y-142211864D01*
X300855289Y-142211864D02*
X297231822Y-128688903D01*
%TO.C,SW39*%
X287370818Y-91887119D02*
X300893779Y-88263652D01*
X300893779Y-88263652D02*
X304517246Y-101786613D01*
X304517246Y-101786613D02*
X290994285Y-105410080D01*
X290994285Y-105410080D02*
X287370818Y-91887119D01*
%TO.C,SW63*%
X210974204Y-177399248D02*
X223098560Y-170399248D01*
X223098560Y-170399248D02*
X230098560Y-182523604D01*
X230098560Y-182523604D02*
X217974204Y-189523604D01*
X217974204Y-189523604D02*
X210974204Y-177399248D01*
%TO.C,SW61*%
X172901423Y-170399250D02*
X185025779Y-177399250D01*
X185025779Y-177399250D02*
X178025779Y-189523606D01*
X178025779Y-189523606D02*
X165901423Y-182523606D01*
X165901423Y-182523606D02*
X172901423Y-170399250D01*
%TO.C,SW48*%
X237920403Y-128146315D02*
X251443364Y-124522848D01*
X251443364Y-124522848D02*
X255066831Y-138045809D01*
X255066831Y-138045809D02*
X241543870Y-141669276D01*
X241543870Y-141669276D02*
X237920403Y-128146315D01*
%TO.C,SW49*%
X335882523Y-125728214D02*
X349405484Y-122104747D01*
X349405484Y-122104747D02*
X353028951Y-135627708D01*
X353028951Y-135627708D02*
X339505990Y-139251175D01*
X339505990Y-139251175D02*
X335882523Y-125728214D01*
%TO.C,SW47*%
X255499553Y-120149012D02*
X269022514Y-116525545D01*
X269022514Y-116525545D02*
X272645981Y-130048506D01*
X272645981Y-130048506D02*
X259123020Y-133671973D01*
X259123020Y-133671973D02*
X255499553Y-120149012D01*
%TO.C,SW57*%
X302162319Y-147089779D02*
X315685280Y-143466312D01*
X315685280Y-143466312D02*
X319308747Y-156989273D01*
X319308747Y-156989273D02*
X305785786Y-160612740D01*
X305785786Y-160612740D02*
X302162319Y-147089779D01*
%TO.C,SW43*%
X330952018Y-107327313D02*
X344474979Y-103703846D01*
X344474979Y-103703846D02*
X348098446Y-117226807D01*
X348098446Y-117226807D02*
X334575485Y-120850274D01*
X334575485Y-120850274D02*
X330952018Y-107327313D01*
%TO.C,SW46*%
X272873227Y-111384974D02*
X286396188Y-107761507D01*
X286396188Y-107761507D02*
X290019655Y-121284468D01*
X290019655Y-121284468D02*
X276496694Y-124907935D01*
X276496694Y-124907935D02*
X272873227Y-111384974D01*
%TO.C,SW37*%
X326021514Y-88926429D02*
X339544475Y-85302962D01*
X339544475Y-85302962D02*
X343167942Y-98825923D01*
X343167942Y-98825923D02*
X329644981Y-102449390D01*
X329644981Y-102449390D02*
X326021514Y-88926429D01*
%TO.C,SW38*%
X307004332Y-91556822D02*
X320527293Y-87933355D01*
X320527293Y-87933355D02*
X324150760Y-101456316D01*
X324150760Y-101456316D02*
X310627799Y-105079783D01*
X310627799Y-105079783D02*
X307004332Y-91556822D01*
%TO.C,SW52*%
X277803747Y-129785849D02*
X291326708Y-126162382D01*
X291326708Y-126162382D02*
X294950175Y-139685343D01*
X294950175Y-139685343D02*
X281427214Y-143308810D01*
X281427214Y-143308810D02*
X277803747Y-129785849D01*
%TO.C,SW34*%
X263012238Y-74583202D02*
X276535199Y-70959735D01*
X276535199Y-70959735D02*
X280158666Y-84482696D01*
X280158666Y-84482696D02*
X266635705Y-88106163D01*
X266635705Y-88106163D02*
X263012238Y-74583202D01*
%TO.C,SW59*%
X251991253Y-170474355D02*
X264115609Y-163474355D01*
X264115609Y-163474355D02*
X271115609Y-175598711D01*
X271115609Y-175598711D02*
X258991253Y-182598711D01*
X258991253Y-182598711D02*
X251991253Y-170474355D01*
%TO.C,SW33*%
X282440302Y-73486240D02*
X295963263Y-69862773D01*
X295963263Y-69862773D02*
X299586730Y-83385734D01*
X299586730Y-83385734D02*
X286063769Y-87009201D01*
X286063769Y-87009201D02*
X282440302Y-73486240D01*
%TO.C,SW32*%
X302073824Y-73155952D02*
X315596785Y-69532485D01*
X315596785Y-69532485D02*
X319220252Y-83055446D01*
X319220252Y-83055446D02*
X305697291Y-86678913D01*
X305697291Y-86678913D02*
X302073824Y-73155952D01*
%TO.C,SW55*%
X340813023Y-144129093D02*
X354335984Y-140505626D01*
X354335984Y-140505626D02*
X357959451Y-154028587D01*
X357959451Y-154028587D02*
X344436490Y-157652054D01*
X344436490Y-157652054D02*
X340813023Y-144129093D01*
%TO.C,SW41*%
X250569056Y-101748130D02*
X264092017Y-98124663D01*
X264092017Y-98124663D02*
X267715484Y-111647624D01*
X267715484Y-111647624D02*
X254192523Y-115271091D01*
X254192523Y-115271091D02*
X250569056Y-101748130D01*
%TO.C,SW50*%
X316865339Y-128358603D02*
X330388300Y-124735136D01*
X330388300Y-124735136D02*
X334011767Y-138258097D01*
X334011767Y-138258097D02*
X320488806Y-141881564D01*
X320488806Y-141881564D02*
X316865339Y-128358603D01*
%TO.C,SW56*%
X321795837Y-146759500D02*
X335318798Y-143136033D01*
X335318798Y-143136033D02*
X338942265Y-156658994D01*
X338942265Y-156658994D02*
X325419304Y-160282461D01*
X325419304Y-160282461D02*
X321795837Y-146759500D01*
%TO.C,SW45*%
X292301313Y-110288004D02*
X305824274Y-106664537D01*
X305824274Y-106664537D02*
X309447741Y-120187498D01*
X309447741Y-120187498D02*
X295924780Y-123810965D01*
X295924780Y-123810965D02*
X292301313Y-110288004D01*
%TO.C,SW44*%
X311934835Y-109957710D02*
X325457796Y-106334243D01*
X325457796Y-106334243D02*
X329081263Y-119857204D01*
X329081263Y-119857204D02*
X315558302Y-123480671D01*
X315558302Y-123480671D02*
X311934835Y-109957710D01*
%TO.C,SW60*%
X234697164Y-186047931D02*
X244596659Y-176148436D01*
X244596659Y-176148436D02*
X254496154Y-186047931D01*
X254496154Y-186047931D02*
X244596659Y-195947426D01*
X244596659Y-195947426D02*
X234697164Y-186047931D01*
%TO.C,SW54*%
X242850908Y-146547207D02*
X256373869Y-142923740D01*
X256373869Y-142923740D02*
X259997336Y-156446701D01*
X259997336Y-156446701D02*
X246474375Y-160070168D01*
X246474375Y-160070168D02*
X242850908Y-146547207D01*
%TO.C,SW40*%
X267942731Y-92984090D02*
X281465692Y-89360623D01*
X281465692Y-89360623D02*
X285089159Y-102883584D01*
X285089159Y-102883584D02*
X271566198Y-106507051D01*
X271566198Y-106507051D02*
X267942731Y-92984090D01*
%TO.C,SW31*%
X321091020Y-70525548D02*
X334613981Y-66902081D01*
X334613981Y-66902081D02*
X338237448Y-80425042D01*
X338237448Y-80425042D02*
X324714487Y-84048509D01*
X324714487Y-84048509D02*
X321091020Y-70525548D01*
%TO.C,SW64*%
X191000020Y-198050020D02*
X205000020Y-198050020D01*
X205000020Y-198050020D02*
X205000020Y-212050020D01*
X205000020Y-212050020D02*
X191000020Y-212050020D01*
X191000020Y-212050020D02*
X191000020Y-198050020D01*
%TO.C,SW35*%
X245638530Y-83347247D02*
X259161491Y-79723780D01*
X259161491Y-79723780D02*
X262784958Y-93246741D01*
X262784958Y-93246741D02*
X249261997Y-96870208D01*
X249261997Y-96870208D02*
X245638530Y-83347247D01*
%TO.C,SW53*%
X260430045Y-138549899D02*
X273953006Y-134926432D01*
X273953006Y-134926432D02*
X277576473Y-148449393D01*
X277576473Y-148449393D02*
X264053512Y-152072860D01*
X264053512Y-152072860D02*
X260430045Y-138549899D01*
%TO.C,SW42*%
X232989905Y-109745441D02*
X246512866Y-106121974D01*
X246512866Y-106121974D02*
X250136333Y-119644935D01*
X250136333Y-119644935D02*
X236613372Y-123268402D01*
X236613372Y-123268402D02*
X232989905Y-109745441D01*
%TD*%
%LPC*%
%TO.C,A1*%
G36*
X188263359Y-107984696D02*
G01*
X188228492Y-108135699D01*
X188094026Y-108154030D01*
X187884955Y-108061095D01*
X187924692Y-107984696D01*
X188226131Y-107954297D01*
X188263359Y-107984696D01*
G37*
G36*
X188517359Y-106714696D02*
G01*
X188547758Y-107016135D01*
X188517359Y-107053363D01*
X188366356Y-107018496D01*
X188348026Y-106884030D01*
X188440960Y-106674959D01*
X188517359Y-106714696D01*
G37*
G36*
X185300026Y-109043030D02*
G01*
X185542337Y-109271276D01*
X185554026Y-109312020D01*
X185357508Y-109421117D01*
X185300026Y-109424030D01*
X185055786Y-109228766D01*
X185046026Y-109155039D01*
X185201635Y-109003341D01*
X185300026Y-109043030D01*
G37*
G36*
X187058456Y-108038640D02*
G01*
X187078026Y-108124049D01*
X186892668Y-108483123D01*
X186824026Y-108535030D01*
X186589595Y-108523419D01*
X186570026Y-108438010D01*
X186755383Y-108078936D01*
X186824026Y-108027030D01*
X187058456Y-108038640D01*
G37*
G36*
X189530714Y-106023639D02*
G01*
X189491026Y-106122030D01*
X189262779Y-106364341D01*
X189222035Y-106376030D01*
X189112938Y-106179512D01*
X189110026Y-106122030D01*
X189305289Y-105877790D01*
X189379016Y-105868030D01*
X189530714Y-106023639D01*
G37*
G36*
X194436645Y-106315317D02*
G01*
X194444026Y-106376030D01*
X194250738Y-106622649D01*
X194190026Y-106630030D01*
X193943406Y-106436742D01*
X193936026Y-106376030D01*
X194129313Y-106129410D01*
X194190026Y-106122030D01*
X194436645Y-106315317D01*
G37*
G36*
X190888026Y-104151390D02*
G01*
X191218830Y-104460053D01*
X191355365Y-105209310D01*
X191295483Y-106369487D01*
X191127118Y-107455574D01*
X190963192Y-108518799D01*
X190949489Y-109244235D01*
X191084468Y-109778898D01*
X191102355Y-109819396D01*
X191404496Y-110281214D01*
X191650876Y-110263871D01*
X191822697Y-109794857D01*
X191901159Y-108901667D01*
X191904026Y-108647039D01*
X191942927Y-107841403D01*
X192044366Y-107295865D01*
X192158026Y-107138030D01*
X192404704Y-107325485D01*
X192412026Y-107384058D01*
X192597603Y-107550537D01*
X192729526Y-107532273D01*
X193619059Y-107280290D01*
X194134283Y-107236768D01*
X194380525Y-107442803D01*
X194463114Y-107939489D01*
X194473490Y-108212690D01*
X194514288Y-108750494D01*
X194584775Y-108895100D01*
X194626712Y-108789030D01*
X195006729Y-107965328D01*
X195572747Y-107527117D01*
X196212941Y-107448348D01*
X196815483Y-107702976D01*
X197268547Y-108264953D01*
X197460308Y-109108234D01*
X197446974Y-109445925D01*
X197478589Y-110082382D01*
X197682526Y-110372520D01*
X197877203Y-110277974D01*
X197977726Y-109784685D01*
X198000026Y-109079186D01*
X198064916Y-108085613D01*
X198268381Y-107567813D01*
X198623613Y-107509273D01*
X199032031Y-107787514D01*
X199426595Y-108086186D01*
X199732243Y-108024937D01*
X200016020Y-107787514D01*
X200507372Y-107486537D01*
X200839055Y-107636116D01*
X201024778Y-108251862D01*
X201075855Y-108994520D01*
X201103685Y-110313030D01*
X201321234Y-109206443D01*
X201426912Y-108829067D01*
X202064026Y-108829067D01*
X202164458Y-109055762D01*
X202539382Y-108933433D01*
X202557879Y-108923600D01*
X203021155Y-108609405D01*
X203197023Y-108424215D01*
X203161941Y-108100613D01*
X203073042Y-108022714D01*
X202676466Y-108026026D01*
X202273778Y-108332178D01*
X202066293Y-108780290D01*
X202064026Y-108829067D01*
X201426912Y-108829067D01*
X201605600Y-108190969D01*
X201999319Y-107610926D01*
X202554270Y-107397006D01*
X202679326Y-107392029D01*
X203408957Y-107555185D01*
X203769702Y-107972171D01*
X203748511Y-108534267D01*
X203332336Y-109132751D01*
X202925270Y-109441183D01*
X202377692Y-109814385D01*
X202226577Y-110048923D01*
X202414967Y-110235205D01*
X202422395Y-110239389D01*
X203095936Y-110358702D01*
X203751882Y-110043192D01*
X204197792Y-109469529D01*
X204408433Y-108742194D01*
X204452786Y-107655299D01*
X204418891Y-107003624D01*
X204383381Y-106249030D01*
X204922080Y-106249030D01*
X204942525Y-106771783D01*
X205000085Y-106906706D01*
X205032544Y-106823491D01*
X205079855Y-106213527D01*
X205037670Y-105807491D01*
X204970759Y-105666716D01*
X204928669Y-105972010D01*
X204922080Y-106249030D01*
X204383381Y-106249030D01*
X204371532Y-105997234D01*
X204418734Y-105370825D01*
X204576086Y-105002557D01*
X204689783Y-104886257D01*
X205129577Y-104684664D01*
X205354899Y-104718153D01*
X205523845Y-105077432D01*
X205599988Y-105794975D01*
X205583274Y-106729584D01*
X205473650Y-107740063D01*
X205356273Y-108354606D01*
X205227379Y-109357562D01*
X205369353Y-110000776D01*
X205764636Y-110249602D01*
X206259867Y-110137607D01*
X206779669Y-109822803D01*
X206826462Y-109510207D01*
X206509025Y-109170029D01*
X206160473Y-108675524D01*
X206230489Y-108409614D01*
X206868869Y-108409614D01*
X206980423Y-108872316D01*
X207299138Y-109363526D01*
X207750844Y-109879029D01*
X208095443Y-110165323D01*
X208160026Y-110186030D01*
X208439193Y-110003246D01*
X208872059Y-109546739D01*
X209020913Y-109363526D01*
X209399489Y-108735852D01*
X209426403Y-108335792D01*
X209124970Y-108232800D01*
X208695295Y-108393435D01*
X208070898Y-108547953D01*
X207624756Y-108393435D01*
X207091417Y-108226836D01*
X206868869Y-108409614D01*
X206230489Y-108409614D01*
X206300622Y-108143256D01*
X206636025Y-107773030D01*
X207035382Y-107464525D01*
X207336626Y-107510796D01*
X207652026Y-107773029D01*
X208049137Y-108079974D01*
X208349967Y-108036147D01*
X208676990Y-107764917D01*
X209064136Y-107461702D01*
X209352491Y-107493197D01*
X209740626Y-107843741D01*
X210102306Y-108289400D01*
X210106626Y-108685637D01*
X209955702Y-109010001D01*
X209770135Y-109627821D01*
X209901532Y-110063564D01*
X210207016Y-110186030D01*
X210339116Y-109956619D01*
X210425918Y-109365979D01*
X210446026Y-108818474D01*
X210446025Y-107450919D01*
X211613330Y-107490211D01*
X212578225Y-107631822D01*
X213110208Y-107980221D01*
X213336054Y-108472090D01*
X213531288Y-109195190D01*
X213663430Y-109965742D01*
X213700004Y-110599963D01*
X213626269Y-110900453D01*
X213390028Y-110888197D01*
X213160588Y-110518691D01*
X213011414Y-109938292D01*
X212989915Y-109632672D01*
X212811131Y-108914859D01*
X212373694Y-108364268D01*
X211833819Y-108154030D01*
X211415091Y-108381029D01*
X211092373Y-108954131D01*
X210954483Y-109711487D01*
X210954026Y-109757230D01*
X210804398Y-110371291D01*
X210568261Y-110697984D01*
X210203276Y-110872098D01*
X209808018Y-110674304D01*
X209679261Y-110562718D01*
X209281358Y-110257106D01*
X208978895Y-110307747D01*
X208672790Y-110562718D01*
X208240007Y-110859175D01*
X207890422Y-110778677D01*
X207775553Y-110691148D01*
X207419150Y-110507638D01*
X206926316Y-110537974D01*
X206343837Y-110706633D01*
X205666603Y-110900510D01*
X205287643Y-110893609D01*
X205035248Y-110677979D01*
X205010557Y-110644901D01*
X204734652Y-110388074D01*
X204369510Y-110435592D01*
X204047117Y-110590627D01*
X203359069Y-110795278D01*
X202417064Y-110884187D01*
X202026361Y-110879491D01*
X201217126Y-110812315D01*
X200789016Y-110671407D01*
X200615705Y-110406590D01*
X200596863Y-110311724D01*
X200424152Y-109366986D01*
X200251609Y-108873920D01*
X200058167Y-108776641D01*
X200024579Y-108793632D01*
X199867044Y-109123476D01*
X199782561Y-109753177D01*
X199778026Y-109947020D01*
X199720904Y-110577681D01*
X199578447Y-110924743D01*
X199524026Y-110948030D01*
X199363999Y-110722914D01*
X199275934Y-110161494D01*
X199270026Y-109947020D01*
X199212764Y-109272037D01*
X199070526Y-108841128D01*
X199023472Y-108793632D01*
X198824050Y-108835169D01*
X198649018Y-109266448D01*
X198477716Y-110142342D01*
X198451431Y-110313030D01*
X198314782Y-110629613D01*
X197941095Y-110798327D01*
X197200286Y-110874660D01*
X197126442Y-110878201D01*
X196321531Y-110854834D01*
X195698537Y-110730562D01*
X195522567Y-110640534D01*
X195169173Y-110489184D01*
X194943244Y-110708239D01*
X194651521Y-110926036D01*
X194371192Y-110693966D01*
X194138085Y-110069574D01*
X193994861Y-109184981D01*
X193966926Y-108986554D01*
X195266038Y-108986554D01*
X195426017Y-109590581D01*
X195767591Y-110054989D01*
X196095026Y-110186030D01*
X196476619Y-109977073D01*
X196785229Y-109531304D01*
X196922275Y-108821931D01*
X196696254Y-108275730D01*
X196170097Y-108029853D01*
X196095026Y-108027030D01*
X195589197Y-108224018D01*
X195374450Y-108451804D01*
X195266038Y-108986554D01*
X193966926Y-108986554D01*
X193884927Y-108404103D01*
X193713722Y-108014822D01*
X193426419Y-107900776D01*
X193389423Y-107900030D01*
X192931900Y-108133262D01*
X192591485Y-108757880D01*
X192421704Y-109661264D01*
X192412026Y-109956537D01*
X192266912Y-110629916D01*
X191903751Y-110933043D01*
X191430812Y-110884998D01*
X190956366Y-110504862D01*
X190588683Y-109811718D01*
X190534524Y-109625649D01*
X190308022Y-108734033D01*
X189305538Y-109736517D01*
X187884394Y-110863969D01*
X186335198Y-111511975D01*
X184756665Y-111704451D01*
X183701998Y-111636180D01*
X182983775Y-111397051D01*
X182724665Y-111220059D01*
X182395723Y-110842015D01*
X182837322Y-110842015D01*
X183266868Y-111114362D01*
X183331526Y-111146024D01*
X184465121Y-111418106D01*
X185858314Y-111278643D01*
X186646138Y-111053075D01*
X187681493Y-110533939D01*
X188752704Y-109724658D01*
X189732266Y-108750846D01*
X190492673Y-107738117D01*
X190891673Y-106870483D01*
X191078642Y-105841419D01*
X191057539Y-105013460D01*
X190837687Y-104498710D01*
X190686447Y-104402258D01*
X190470711Y-104464051D01*
X190514255Y-104917399D01*
X190514922Y-104920061D01*
X190539174Y-105840898D01*
X190264774Y-106922691D01*
X189754552Y-107969471D01*
X189370826Y-108488478D01*
X188713766Y-109095767D01*
X187842106Y-109728106D01*
X187326918Y-110037294D01*
X186497847Y-110443543D01*
X185789233Y-110638835D01*
X184954327Y-110674339D01*
X184388429Y-110646643D01*
X183386757Y-110613515D01*
X182873503Y-110676852D01*
X182837322Y-110842015D01*
X182395723Y-110842015D01*
X182327915Y-110764085D01*
X182379026Y-110477990D01*
X182593536Y-110286282D01*
X183452945Y-110286282D01*
X183910938Y-110445991D01*
X184684125Y-110444038D01*
X185613512Y-110300998D01*
X186540105Y-110037446D01*
X187045835Y-109821342D01*
X188350759Y-108957855D01*
X189383899Y-107870142D01*
X190037965Y-106676344D01*
X190110753Y-106446472D01*
X190335718Y-105484830D01*
X190351104Y-104964722D01*
X190228296Y-104852029D01*
X189979325Y-105000046D01*
X189421022Y-105401208D01*
X188640631Y-105991186D01*
X187878796Y-106584442D01*
X186829718Y-107408432D01*
X185785900Y-108223275D01*
X184897337Y-108912105D01*
X184490111Y-109224695D01*
X183881942Y-109729850D01*
X183511329Y-110120230D01*
X183452945Y-110286282D01*
X182593536Y-110286282D01*
X182873559Y-110036025D01*
X183645453Y-109404162D01*
X184620303Y-108637719D01*
X185723705Y-107792017D01*
X186881258Y-106922378D01*
X188018557Y-106084120D01*
X189061198Y-105332565D01*
X189934779Y-104723032D01*
X190564896Y-104310842D01*
X190877145Y-104151316D01*
X190888026Y-104151390D01*
G37*
%TD*%
D16*
%TO.C,J4*%
X217749992Y-98200030D03*
X217749992Y-66200030D03*
X178249992Y-98200030D03*
X178249992Y-66200030D03*
D17*
X177999992Y-89820030D03*
X177999992Y-87280030D03*
X177999992Y-84740030D03*
X177999992Y-82200030D03*
X177999992Y-79660030D03*
X177999992Y-77120030D03*
D18*
X177999992Y-74580030D03*
%TD*%
D19*
%TO.C,SW67*%
X175165348Y-126409335D03*
D20*
X175393627Y-161971544D03*
X192875245Y-172064911D03*
D19*
X223807654Y-154490340D03*
D21*
X212999994Y-117019268D03*
X210834930Y-115769268D03*
X215165058Y-118269268D03*
D22*
X175323400Y-135188368D03*
D16*
X185899438Y-122861323D03*
D23*
X186603949Y-163538253D03*
D16*
X221486502Y-142590071D03*
D22*
X215266302Y-159673391D03*
%TD*%
D24*
%TO.C,H3*%
X61099990Y-65257233D03*
%TD*%
%TO.C,H2*%
X334999993Y-65257233D03*
%TD*%
D25*
%TO.C,SW68*%
X230899994Y-209500016D03*
X230899994Y-200500016D03*
D21*
X228899994Y-207500016D03*
X228899994Y-205000016D03*
X228899994Y-202500016D03*
%TD*%
D26*
%TO.C,H9*%
X158999993Y-198000000D03*
%TD*%
D27*
%TO.C,H13*%
X172000015Y-211500029D03*
%TD*%
D28*
%TO.C,SW66*%
X169980000Y-207300000D03*
D21*
X169250000Y-207300000D03*
X162750000Y-207300000D03*
D28*
X162020000Y-207300000D03*
X169980000Y-202800000D03*
D21*
X169250000Y-202800000D03*
X162750000Y-202800000D03*
D28*
X162020000Y-202800000D03*
%TD*%
D26*
%TO.C,H8*%
X236999994Y-198000000D03*
%TD*%
D22*
%TO.C,SW65*%
X165999994Y-198000018D03*
X165999994Y-203080018D03*
D29*
X165999994Y-208160018D03*
%TD*%
D27*
%TO.C,H14*%
X223999994Y-198600030D03*
%TD*%
%TO.C,H12*%
X172000019Y-198500031D03*
%TD*%
D24*
%TO.C,H1*%
X197999986Y-195500031D03*
%TD*%
D27*
%TO.C,H15*%
X223999994Y-211500030D03*
%TD*%
D30*
%TO.C,SW29*%
X132417007Y-168931842D03*
D31*
X134446564Y-173036547D03*
%TD*%
D30*
%TO.C,SW30*%
X150505323Y-181557801D03*
D31*
X151403349Y-186047929D03*
%TD*%
D30*
%TO.C,SW1*%
X63313008Y-72035729D03*
D31*
X66335785Y-75475281D03*
%TD*%
D30*
%TO.C,SW23*%
X123973985Y-140060074D03*
D31*
X126996762Y-143499626D03*
%TD*%
D30*
%TO.C,SW24*%
X141553108Y-148057419D03*
D31*
X144575885Y-151496971D03*
%TD*%
D30*
%TO.C,SW21*%
X87172204Y-130199083D03*
D31*
X90194981Y-133638635D03*
%TD*%
D30*
%TO.C,SW22*%
X106600280Y-131296044D03*
D31*
X109623057Y-134735596D03*
%TD*%
D30*
%TO.C,SW25*%
X43590992Y-145639288D03*
D31*
X46613769Y-149078840D03*
%TD*%
D30*
%TO.C,SW11*%
X133834974Y-103258296D03*
D31*
X136857751Y-106697848D03*
%TD*%
D30*
%TO.C,SW12*%
X151414119Y-111255635D03*
D31*
X154436896Y-114695187D03*
%TD*%
D30*
%TO.C,SW13*%
X53451978Y-108837519D03*
D31*
X56474755Y-112277071D03*
%TD*%
D30*
%TO.C,SW14*%
X72469193Y-111467887D03*
D31*
X75491970Y-114907439D03*
%TD*%
D30*
%TO.C,SW15*%
X92102707Y-111798181D03*
D31*
X95125484Y-115237733D03*
%TD*%
D30*
%TO.C,SW17*%
X128904489Y-121659213D03*
D31*
X131927266Y-125098765D03*
%TD*%
D30*
%TO.C,SW16*%
X111530756Y-112895165D03*
D31*
X114553533Y-116334717D03*
%TD*%
D30*
%TO.C,SW18*%
X146483606Y-129656514D03*
D31*
X149506383Y-133096066D03*
%TD*%
D30*
%TO.C,SW19*%
X48521499Y-127238416D03*
D31*
X51544276Y-130677968D03*
%TD*%
D30*
%TO.C,SW20*%
X67538674Y-129868795D03*
D31*
X70561451Y-133308347D03*
%TD*%
D30*
%TO.C,SW26*%
X62608187Y-148269686D03*
D31*
X65630964Y-151709238D03*
%TD*%
D30*
%TO.C,SW27*%
X82241695Y-148599946D03*
D31*
X85264472Y-152039498D03*
%TD*%
D30*
%TO.C,SW28*%
X111677201Y-161417680D03*
D31*
X114699978Y-164857232D03*
%TD*%
D30*
%TO.C,SW3*%
X101963709Y-74996434D03*
D31*
X104986486Y-78435986D03*
%TD*%
D30*
%TO.C,SW7*%
X58382502Y-90436633D03*
D31*
X61405279Y-93876185D03*
%TD*%
D30*
%TO.C,SW9*%
X97033203Y-93397290D03*
D31*
X100055980Y-96836842D03*
%TD*%
D30*
%TO.C,SW5*%
X138765482Y-84857406D03*
D31*
X141788259Y-88296958D03*
%TD*%
D30*
%TO.C,SW10*%
X116461277Y-94494299D03*
D31*
X119484054Y-97933851D03*
%TD*%
D30*
%TO.C,SW4*%
X121391781Y-76093386D03*
D31*
X124414558Y-79532938D03*
%TD*%
D30*
%TO.C,SW2*%
X82330199Y-74666133D03*
D31*
X85352976Y-78105685D03*
%TD*%
D30*
%TO.C,SW8*%
X77399692Y-93067022D03*
D31*
X80422469Y-96506574D03*
%TD*%
D30*
%TO.C,SW6*%
X156344615Y-92854740D03*
D31*
X159367392Y-96294292D03*
%TD*%
D30*
%TO.C,SW36*%
X232295044Y-94826955D03*
D31*
X236632622Y-96294306D03*
%TD*%
D30*
%TO.C,SW62*%
X194189994Y-183460026D03*
D31*
X197999994Y-186000026D03*
%TD*%
D30*
%TO.C,SW58*%
X276962443Y-163389885D03*
D31*
X281300021Y-164857236D03*
%TD*%
D30*
%TO.C,SW51*%
X301467458Y-132171299D03*
D31*
X305805036Y-133638650D03*
%TD*%
D32*
%TO.C,J5*%
X172400013Y-117630016D03*
D17*
X172400013Y-115090016D03*
D18*
X172400013Y-112550016D03*
X172400013Y-110010016D03*
%TD*%
D26*
%TO.C,H7*%
X319482349Y-162625389D03*
%TD*%
D30*
%TO.C,SW39*%
X291606454Y-95369515D03*
D31*
X295944032Y-96836866D03*
%TD*%
D30*
%TO.C,SW63*%
X215966825Y-179666721D03*
D31*
X220536382Y-179961426D03*
%TD*%
D30*
%TO.C,SW61*%
X173434044Y-175856723D03*
D31*
X175463601Y-179961428D03*
%TD*%
D30*
%TO.C,SW48*%
X242156039Y-131628711D03*
D31*
X246493617Y-133096062D03*
%TD*%
D26*
%TO.C,H11*%
X211799999Y-143000025D03*
%TD*%
D30*
%TO.C,SW49*%
X340118159Y-129210610D03*
D31*
X344455737Y-130677961D03*
%TD*%
D30*
%TO.C,SW47*%
X259735189Y-123631408D03*
D31*
X264072767Y-125098759D03*
%TD*%
D30*
%TO.C,SW57*%
X306397955Y-150572175D03*
D31*
X310735533Y-152039526D03*
%TD*%
D26*
%TO.C,H10*%
X184199996Y-142999978D03*
%TD*%
D30*
%TO.C,SW43*%
X335187654Y-110809709D03*
D31*
X339525232Y-112277060D03*
%TD*%
D33*
%TO.C,U4*%
X203349994Y-137340030D03*
D34*
X203349994Y-139120030D03*
X203349994Y-140900030D03*
X203349994Y-142680030D03*
X203349994Y-144460030D03*
X203349994Y-146240030D03*
X203349994Y-148020030D03*
X203349994Y-149800030D03*
X192649994Y-150690030D03*
X192649994Y-148910030D03*
X192649994Y-147130030D03*
X192649994Y-145350030D03*
X192649994Y-143570030D03*
X192649994Y-141790030D03*
X192649994Y-140010030D03*
X192649994Y-138230030D03*
%TD*%
D30*
%TO.C,SW46*%
X277108863Y-114867370D03*
D31*
X281446441Y-116334721D03*
%TD*%
D32*
%TO.C,J1*%
X220299999Y-102460027D03*
D18*
X220299999Y-105000027D03*
D17*
X220299999Y-107540027D03*
%TD*%
D30*
%TO.C,SW37*%
X330257150Y-92408825D03*
D31*
X334594728Y-93876176D03*
%TD*%
D30*
%TO.C,SW38*%
X311239968Y-95039218D03*
D31*
X315577546Y-96506569D03*
%TD*%
D30*
%TO.C,SW52*%
X282039383Y-133268245D03*
D31*
X286376961Y-134735596D03*
%TD*%
D30*
%TO.C,SW34*%
X267247874Y-78065598D03*
D31*
X271585452Y-79532949D03*
%TD*%
D26*
%TO.C,H6*%
X76517625Y-162625380D03*
%TD*%
D30*
%TO.C,SW59*%
X256983874Y-172741828D03*
D31*
X261553431Y-173036533D03*
%TD*%
D30*
%TO.C,SW33*%
X286675938Y-76968636D03*
D31*
X291013516Y-78435987D03*
%TD*%
D30*
%TO.C,SW32*%
X306309460Y-76638348D03*
D31*
X310647038Y-78105699D03*
%TD*%
D30*
%TO.C,SW55*%
X345048659Y-147611489D03*
D31*
X349386237Y-149078840D03*
%TD*%
D30*
%TO.C,SW41*%
X254804692Y-105230526D03*
D31*
X259142270Y-106697877D03*
%TD*%
D26*
%TO.C,H4*%
X224050020Y-67557236D03*
%TD*%
D30*
%TO.C,SW50*%
X321100975Y-131840999D03*
D31*
X325438553Y-133308350D03*
%TD*%
D30*
%TO.C,SW56*%
X326031473Y-150241896D03*
D31*
X330369051Y-151709247D03*
%TD*%
D30*
%TO.C,SW45*%
X296536949Y-113770400D03*
D31*
X300874527Y-115237751D03*
%TD*%
D26*
%TO.C,H5*%
X171950018Y-67557229D03*
%TD*%
D30*
%TO.C,SW44*%
X316170471Y-113440106D03*
D31*
X320508049Y-114907457D03*
%TD*%
D30*
%TO.C,SW60*%
X240106531Y-186945957D03*
D31*
X244596659Y-186047931D03*
%TD*%
D30*
%TO.C,SW54*%
X247086544Y-150029603D03*
D31*
X251424122Y-151496954D03*
%TD*%
D30*
%TO.C,SW40*%
X272178367Y-96466486D03*
D31*
X276515945Y-97933837D03*
%TD*%
D30*
%TO.C,SW31*%
X325326656Y-74007944D03*
D31*
X329664234Y-75475295D03*
%TD*%
%TO.C,SW64*%
X186093770Y-196795020D03*
D16*
X186093770Y-212035020D03*
D30*
X194190020Y-202510020D03*
D31*
X198000020Y-205050020D03*
X209906270Y-196795020D03*
D16*
X209906270Y-212035020D03*
%TD*%
D30*
%TO.C,SW35*%
X249874166Y-86829643D03*
D31*
X254211744Y-88296994D03*
%TD*%
D30*
%TO.C,SW53*%
X264665681Y-142032295D03*
D31*
X269003259Y-143499646D03*
%TD*%
D30*
%TO.C,SW42*%
X237225541Y-113227837D03*
D31*
X241563119Y-114695188D03*
%TD*%
%LPD*%
M02*
