M48
; DRILL file {KiCad (7.0.0)} date Fri Mar 24 23:17:22 2023
; FORMAT={-:-/ absolute / inch / decimal}
; #@! TF.CreationDate,2023-03-24T23:17:22+00:00
; #@! TF.GenerationSoftware,Kicad,Pcbnew,(7.0.0)
; #@! TF.FileFunction,NonPlated,1,2,NPTH
FMAT,2
INCH
; #@! TA.AperFunction,NonPlated,NPTH,ComponentDrill
T1C0.0256
; #@! TA.AperFunction,NonPlated,NPTH,ComponentDrill
T2C0.0454
; #@! TA.AperFunction,NonPlated,NPTH,ComponentDrill
T3C0.0689
; #@! TA.AperFunction,NonPlated,NPTH,ComponentDrill
T4C0.0787
; #@! TA.AperFunction,NonPlated,NPTH,ComponentDrill
T5C0.1181
; #@! TA.AperFunction,NonPlated,NPTH,ComponentDrill
T6C0.1570
%
G90
G05
T1
X6.8055Y-0.9289
X7.0331Y-0.9289
T2
X2.1791Y-1.1969
X6.9193Y-7.3661
X11.6535Y-1.1988
T3
X1.0568Y-4.4117
X1.3133Y-3.7069
X1.4326Y-4.5485
X1.5698Y-3.0021
X1.6891Y-3.8437
X1.7936Y-4.5801
X1.8263Y-2.2974
X1.9457Y-3.139
X2.0501Y-3.8753
X2.0828Y-1.5926
X2.1695Y-4.7169
X2.2022Y-2.4342
X2.3066Y-3.1706
X2.426Y-4.0121
X2.4587Y-1.7294
X2.5625Y-4.6604
X2.5631Y-2.4658
X2.6825Y-3.3074
X2.819Y-3.9557
X2.8197Y-1.761
X2.9384Y-4.7972
X2.939Y-2.6026
X3.0755Y-3.2509
X3.1949Y-4.0925
X3.1955Y-1.8978
X3.332Y-2.5461
X3.4514Y-3.3877
X3.5772Y-4.0653
X3.5885Y-1.8413
X3.673Y-5.2641
X3.7079Y-2.6829
X3.8337Y-3.3606
X3.9531Y-4.2022
X3.9644Y-1.9782
X4.0489Y-5.401
X4.0902Y-2.6558
X4.2096Y-3.4974
X4.2285Y-4.4687
X4.3468Y-1.951
X4.4661Y-2.7926
X4.4667Y-5.6177
X4.4851Y-3.7639
X4.6044Y-4.6055
X4.7226Y-2.0878
X4.7416Y-3.0591
X4.7944Y-5.8471
X4.8609Y-3.9007
X4.8906Y-4.8427
X4.9981Y-2.3544
X5.1175Y-3.196
X5.1372Y-6.1635
X5.1471Y-4.1379
X5.2664Y-4.9795
X5.374Y-2.4912
X5.3943Y-6.4699
X5.4036Y-3.4331
X5.523Y-4.2747
X5.6601Y-2.7284
X5.7795Y-3.5699
X5.8852Y-6.7803
X6.036Y-2.8652
X6.2715Y-6.8838
X6.7193Y-6.9431
X7.1193Y-6.9431
X7.5671Y-6.8839
X7.8026Y-2.8652
X7.9534Y-6.7803
X8.0591Y-3.5699
X8.1785Y-2.7284
X8.3156Y-4.2747
X8.435Y-3.4331
X8.4443Y-6.4699
X8.4646Y-2.4912
X8.5721Y-4.9795
X8.6915Y-4.1379
X8.7014Y-6.1635
X8.7211Y-3.196
X8.8405Y-2.3544
X8.948Y-4.8427
X8.9776Y-3.9007
X9.0442Y-5.8471
X9.097Y-3.0591
X9.1159Y-2.0878
X9.2342Y-4.6055
X9.3535Y-3.7639
X9.3718Y-5.6177
X9.3725Y-2.7926
X9.4918Y-1.951
X9.61Y-4.4687
X9.629Y-3.4974
X9.7483Y-2.6558
X9.7897Y-5.401
X9.8742Y-1.9782
X9.8855Y-4.2022
X10.0049Y-3.3606
X10.1307Y-2.6829
X10.1656Y-5.2641
X10.25Y-1.8413
X10.2614Y-4.0653
X10.3872Y-3.3877
X10.5065Y-2.5461
X10.6431Y-1.8978
X10.6437Y-4.0925
X10.7631Y-3.2509
X10.8996Y-2.6026
X10.9002Y-4.7972
X11.0189Y-1.761
X11.0196Y-3.9557
X11.1561Y-3.3074
X11.2754Y-2.4658
X11.2761Y-4.6604
X11.3799Y-1.7294
X11.4126Y-4.0121
X11.532Y-3.1706
X11.6364Y-2.4342
X11.6691Y-4.7169
X11.7558Y-1.5926
X11.7885Y-3.8753
X11.8929Y-3.139
X12.0123Y-2.2974
X12.045Y-4.5801
X12.1494Y-3.8437
X12.2688Y-3.0021
X12.4059Y-4.5485
X12.5253Y-3.7069
X12.7818Y-4.4117
T4
X5.9154Y-5.1356
X7.9232Y-5.1356
T5
X1.1379Y-4.3348
X1.3945Y-3.63
X1.4071Y-4.3264
X1.651Y-2.9253
X1.6636Y-3.6216
X1.8748Y-4.5032
X1.9075Y-2.2205
X1.9201Y-2.9168
X2.1313Y-3.7985
X2.1439Y-4.4948
X2.164Y-1.5157
X2.1766Y-2.212
X2.3878Y-3.0937
X2.4004Y-3.79
X2.4331Y-1.5073
X2.6437Y-4.5836
X2.6443Y-2.3889
X2.6569Y-3.0852
X2.9002Y-3.8788
X2.9008Y-1.6842
X2.9128Y-4.5751
X2.9134Y-2.3805
X3.1567Y-3.174
X3.1693Y-3.8703
X3.17Y-1.6757
X3.4132Y-2.4692
X3.4258Y-3.1656
X3.6584Y-3.9885
X3.6697Y-1.7645
X3.6823Y-2.4608
X3.7542Y-5.1873
X3.9149Y-3.2837
X3.9275Y-3.98
X3.9389Y-1.756
X4.0233Y-5.1788
X4.1714Y-2.5789
X4.184Y-3.2752
X4.3097Y-4.3918
X4.4279Y-1.8742
X4.4406Y-2.5705
X4.5651Y-5.5644
X4.5662Y-3.687
X4.5789Y-4.3834
X4.6971Y-1.8657
X4.8228Y-2.9823
X4.8272Y-5.6259
X4.8354Y-3.6786
X4.9717Y-4.7658
X5.0793Y-2.2775
X5.0919Y-2.9738
X5.2283Y-4.061
X5.2409Y-4.7573
X5.2459Y-6.1375
X5.3484Y-2.269
X5.4832Y-6.2648
X5.4848Y-3.3563
X5.4974Y-4.0526
X5.7413Y-2.6515
X5.7539Y-3.3478
X5.9593Y-6.6967
X6.0104Y-2.643
X6.2267Y-6.6648
X6.7693Y-6.8431
X7.0193Y-6.7431
X7.5895Y-6.7743
X7.8051Y-6.613
X7.8154Y-2.7541
X8.0161Y-2.5746
X8.0719Y-3.4589
X8.2726Y-3.2794
X8.3284Y-4.1636
X8.3998Y-6.3674
X8.4774Y-2.3801
X8.4839Y-6.1116
X8.5291Y-3.9842
X8.5849Y-4.8684
X8.6781Y-2.2006
X8.7339Y-3.0849
X8.7857Y-4.6889
X8.9346Y-2.9054
X8.9904Y-3.7897
X9.0278Y-5.7365
X9.1287Y-1.9768
X9.1752Y-5.5112
X9.1912Y-3.6102
X9.2469Y-4.4944
X9.3295Y-1.7973
X9.3852Y-2.6815
X9.4477Y-4.3149
X9.586Y-2.5021
X9.6418Y-3.3863
X9.8025Y-5.2899
X9.8425Y-3.2068
X9.8869Y-1.8671
X9.8983Y-4.0911
X10.0032Y-5.1104
X10.0877Y-1.6876
X10.099Y-3.9116
X10.1435Y-2.5719
X10.3442Y-2.3924
X10.4Y-3.2766
X10.6007Y-3.0971
X10.6558Y-1.7868
X10.6565Y-3.9814
X10.8566Y-1.6073
X10.8572Y-3.8019
X10.9124Y-2.4915
X10.913Y-4.6862
X11.1131Y-2.3121
X11.1137Y-4.5067
X11.1689Y-3.1963
X11.3696Y-3.0168
X11.3927Y-1.6183
X11.4254Y-3.9011
X11.5934Y-1.4389
X11.6261Y-3.7216
X11.6492Y-2.3231
X11.6819Y-4.6058
X11.8499Y-2.1436
X11.8826Y-4.4264
X11.9057Y-3.0279
X12.1064Y-2.8484
X12.1622Y-3.7327
X12.3629Y-3.5532
X12.4187Y-4.4374
X12.6195Y-4.2579
T6
X1.2447Y-4.4801
X1.5012Y-3.7753
X1.7577Y-3.0705
X1.9815Y-4.6485
X2.0142Y-2.3658
X2.238Y-3.9437
X2.2708Y-1.661
X2.4946Y-3.239
X2.7504Y-4.7288
X2.7511Y-2.5342
X3.0069Y-4.0241
X3.0076Y-1.8294
X3.2635Y-3.3193
X3.52Y-2.6145
X3.7652Y-4.1337
X3.7765Y-1.9098
X3.8609Y-5.3325
X4.0217Y-3.429
X4.2782Y-2.7242
X4.4165Y-4.5371
X4.5347Y-2.0194
X4.6306Y-5.7324
X4.673Y-3.8323
X4.9295Y-3.1276
X5.0785Y-4.9111
X5.186Y-2.4228
X5.2657Y-6.3167
X5.335Y-4.2063
X5.5915Y-3.5015
X5.848Y-2.7968
X6.0783Y-6.8321
X6.9193Y-6.9431
X7.7602Y-6.8321
X7.9905Y-2.7968
X8.2471Y-3.5015
X8.5036Y-4.2063
X8.5728Y-6.3167
X8.6526Y-2.4228
X8.7601Y-4.9111
X8.9091Y-3.1276
X9.1656Y-3.8323
X9.208Y-5.7324
X9.3039Y-2.0194
X9.4221Y-4.5371
X9.5604Y-2.7242
X9.8169Y-3.429
X9.9777Y-5.3325
X10.0621Y-1.9098
X10.0734Y-4.1337
X10.3186Y-2.6145
X10.5751Y-3.3193
X10.831Y-1.8294
X10.8316Y-4.0241
X11.0875Y-2.5342
X11.0882Y-4.7288
X11.344Y-3.239
X11.5678Y-1.661
X11.6005Y-3.9437
X11.8243Y-2.3658
X11.8571Y-4.6485
X12.0809Y-3.0705
X12.3374Y-3.7753
X12.5939Y-4.4801
T0
M30
