%TF.GenerationSoftware,KiCad,Pcbnew,(7.0.0)*%
%TF.CreationDate,2023-04-03T12:52:17+01:00*%
%TF.ProjectId,Honeydew,486f6e65-7964-4657-972e-6b696361645f,rev?*%
%TF.SameCoordinates,Original*%
%TF.FileFunction,Soldermask,Top*%
%TF.FilePolarity,Negative*%
%FSLAX46Y46*%
G04 Gerber Fmt 4.6, Leading zero omitted, Abs format (unit mm)*
G04 Created by KiCad (PCBNEW (7.0.0)) date 2023-04-03 12:52:17*
%MOMM*%
%LPD*%
G01*
G04 APERTURE LIST*
G04 Aperture macros list*
%AMRoundRect*
0 Rectangle with rounded corners*
0 $1 Rounding radius*
0 $2 $3 $4 $5 $6 $7 $8 $9 X,Y pos of 4 corners*
0 Add a 4 corners polygon primitive as box body*
4,1,4,$2,$3,$4,$5,$6,$7,$8,$9,$2,$3,0*
0 Add four circle primitives for the rounded corners*
1,1,$1+$1,$2,$3*
1,1,$1+$1,$4,$5*
1,1,$1+$1,$6,$7*
1,1,$1+$1,$8,$9*
0 Add four rect primitives between the rounded corners*
20,1,$1+$1,$2,$3,$4,$5,0*
20,1,$1+$1,$4,$5,$6,$7,0*
20,1,$1+$1,$6,$7,$8,$9,0*
20,1,$1+$1,$8,$9,$2,$3,0*%
%AMHorizOval*
0 Thick line with rounded ends*
0 $1 width*
0 $2 $3 position (X,Y) of the first rounded end (center of the circle)*
0 $4 $5 position (X,Y) of the second rounded end (center of the circle)*
0 Add line between two ends*
20,1,$1,$2,$3,$4,$5,0*
0 Add two circle primitives to create the rounded ends*
1,1,$1,$2,$3*
1,1,$1,$4,$5*%
G04 Aperture macros list end*
%ADD10C,2.000000*%
%ADD11R,2.500000X6.000000*%
%ADD12C,3.500000*%
%ADD13C,5.600000*%
%ADD14C,1.152000*%
%ADD15R,1.700000X1.700000*%
%ADD16O,1.700000X1.700000*%
%ADD17C,4.000000*%
%ADD18RoundRect,0.250000X0.625000X-0.350000X0.625000X0.350000X-0.625000X0.350000X-0.625000X-0.350000X0*%
%ADD19O,1.750000X1.200000*%
%ADD20C,5.700000*%
%ADD21C,1.750000*%
%ADD22C,3.000000*%
%ADD23C,3.987800*%
%ADD24HorizOval,1.000000X-0.129864X0.585778X0.129864X-0.585778X0*%
%ADD25HorizOval,1.000000X-0.086576X0.390518X0.086576X-0.390518X0*%
%ADD26O,1.000000X2.200000*%
%ADD27O,1.000000X1.800000*%
%ADD28R,1.200000X1.200000*%
%ADD29C,1.200000*%
%ADD30HorizOval,1.000000X-0.129864X-0.585778X0.129864X0.585778X0*%
%ADD31HorizOval,1.000000X-0.086576X-0.390518X0.086576X0.390518X0*%
G04 APERTURE END LIST*
%TO.C,A1*%
G36*
X117563335Y-35384662D02*
G01*
X117528468Y-35535665D01*
X117394002Y-35553996D01*
X117184931Y-35461061D01*
X117224668Y-35384662D01*
X117526107Y-35354263D01*
X117563335Y-35384662D01*
G37*
G36*
X117817335Y-34114662D02*
G01*
X117847734Y-34416101D01*
X117817335Y-34453329D01*
X117666332Y-34418462D01*
X117648002Y-34283996D01*
X117740936Y-34074925D01*
X117817335Y-34114662D01*
G37*
G36*
X114600002Y-36442996D02*
G01*
X114842313Y-36671242D01*
X114854002Y-36711986D01*
X114657484Y-36821083D01*
X114600002Y-36823996D01*
X114355762Y-36628732D01*
X114346002Y-36555005D01*
X114501611Y-36403307D01*
X114600002Y-36442996D01*
G37*
G36*
X116358432Y-35438606D02*
G01*
X116378002Y-35524015D01*
X116192644Y-35883089D01*
X116124002Y-35934996D01*
X115889571Y-35923385D01*
X115870002Y-35837976D01*
X116055359Y-35478902D01*
X116124002Y-35426996D01*
X116358432Y-35438606D01*
G37*
G36*
X118830690Y-33423605D02*
G01*
X118791002Y-33521996D01*
X118562755Y-33764307D01*
X118522011Y-33775996D01*
X118412914Y-33579478D01*
X118410002Y-33521996D01*
X118605265Y-33277756D01*
X118678992Y-33267996D01*
X118830690Y-33423605D01*
G37*
G36*
X123736621Y-33715283D02*
G01*
X123744002Y-33775996D01*
X123550714Y-34022615D01*
X123490002Y-34029996D01*
X123243382Y-33836708D01*
X123236002Y-33775996D01*
X123429289Y-33529376D01*
X123490002Y-33521996D01*
X123736621Y-33715283D01*
G37*
G36*
X133683357Y-33648996D02*
G01*
X134222056Y-33648996D01*
X134242501Y-34171749D01*
X134300061Y-34306672D01*
X134332520Y-34223457D01*
X134379831Y-33613493D01*
X134337646Y-33207457D01*
X134270735Y-33066682D01*
X134228645Y-33371976D01*
X134222056Y-33648996D01*
X133683357Y-33648996D01*
X133671508Y-33397200D01*
X133718710Y-32770791D01*
X133876062Y-32402523D01*
X133989759Y-32286223D01*
X134429553Y-32084630D01*
X134654875Y-32118119D01*
X134823821Y-32477398D01*
X134899964Y-33194941D01*
X134883250Y-34129550D01*
X134773626Y-35140029D01*
X134656249Y-35754572D01*
X134527355Y-36757528D01*
X134669329Y-37400742D01*
X135064612Y-37649568D01*
X135559843Y-37537573D01*
X136079645Y-37222769D01*
X136126438Y-36910173D01*
X135809001Y-36569995D01*
X135460449Y-36075490D01*
X135530465Y-35809580D01*
X136168845Y-35809580D01*
X136280399Y-36272282D01*
X136599114Y-36763492D01*
X137050820Y-37278995D01*
X137395419Y-37565289D01*
X137460002Y-37585996D01*
X137739169Y-37403212D01*
X138172035Y-36946705D01*
X138320889Y-36763492D01*
X138699465Y-36135818D01*
X138726379Y-35735758D01*
X138424946Y-35632766D01*
X137995271Y-35793401D01*
X137370874Y-35947919D01*
X136924732Y-35793401D01*
X136391393Y-35626802D01*
X136168845Y-35809580D01*
X135530465Y-35809580D01*
X135600598Y-35543222D01*
X135936001Y-35172996D01*
X136335358Y-34864491D01*
X136636602Y-34910762D01*
X136952002Y-35172995D01*
X137349113Y-35479940D01*
X137649943Y-35436113D01*
X137976966Y-35164883D01*
X138364112Y-34861668D01*
X138652467Y-34893163D01*
X139040602Y-35243707D01*
X139402282Y-35689366D01*
X139406602Y-36085603D01*
X139255678Y-36409967D01*
X139070111Y-37027787D01*
X139201508Y-37463530D01*
X139506992Y-37585996D01*
X139639092Y-37356585D01*
X139725894Y-36765945D01*
X139746002Y-36218440D01*
X139746001Y-34850885D01*
X140913306Y-34890177D01*
X141878201Y-35031788D01*
X142410184Y-35380187D01*
X142636030Y-35872056D01*
X142831264Y-36595156D01*
X142963406Y-37365708D01*
X142999980Y-37999929D01*
X142926245Y-38300419D01*
X142690004Y-38288163D01*
X142460564Y-37918657D01*
X142311390Y-37338258D01*
X142289891Y-37032638D01*
X142111107Y-36314825D01*
X141673670Y-35764234D01*
X141133795Y-35553996D01*
X140715067Y-35780995D01*
X140392349Y-36354097D01*
X140254459Y-37111453D01*
X140254002Y-37157196D01*
X140104374Y-37771257D01*
X139868237Y-38097950D01*
X139503252Y-38272064D01*
X139107994Y-38074270D01*
X138979237Y-37962684D01*
X138581334Y-37657072D01*
X138278871Y-37707713D01*
X137972766Y-37962684D01*
X137539983Y-38259141D01*
X137190398Y-38178643D01*
X137075529Y-38091114D01*
X136719126Y-37907604D01*
X136226292Y-37937940D01*
X135643813Y-38106599D01*
X134966579Y-38300476D01*
X134587619Y-38293575D01*
X134335224Y-38077945D01*
X134310533Y-38044867D01*
X134034628Y-37788040D01*
X133669486Y-37835558D01*
X133347093Y-37990593D01*
X132659045Y-38195244D01*
X131717040Y-38284153D01*
X131326337Y-38279457D01*
X130517102Y-38212281D01*
X130088992Y-38071373D01*
X129915681Y-37806556D01*
X129896839Y-37711690D01*
X129724128Y-36766952D01*
X129551585Y-36273886D01*
X129358143Y-36176607D01*
X129324555Y-36193598D01*
X129167020Y-36523442D01*
X129082537Y-37153143D01*
X129078002Y-37346986D01*
X129020880Y-37977647D01*
X128878423Y-38324709D01*
X128824002Y-38347996D01*
X128663975Y-38122880D01*
X128575910Y-37561460D01*
X128570002Y-37346986D01*
X128512740Y-36672003D01*
X128370502Y-36241094D01*
X128323448Y-36193598D01*
X128124026Y-36235135D01*
X127948994Y-36666414D01*
X127777692Y-37542308D01*
X127751407Y-37712996D01*
X127614758Y-38029579D01*
X127241071Y-38198293D01*
X126500262Y-38274626D01*
X126426418Y-38278167D01*
X125621507Y-38254800D01*
X124998513Y-38130528D01*
X124822543Y-38040500D01*
X124469149Y-37889150D01*
X124243220Y-38108205D01*
X123951497Y-38326002D01*
X123671168Y-38093932D01*
X123438061Y-37469540D01*
X123294837Y-36584947D01*
X123266902Y-36386520D01*
X124566014Y-36386520D01*
X124725993Y-36990547D01*
X125067567Y-37454955D01*
X125395002Y-37585996D01*
X125776595Y-37377039D01*
X126085205Y-36931270D01*
X126222251Y-36221897D01*
X125996230Y-35675696D01*
X125470073Y-35429819D01*
X125395002Y-35426996D01*
X124889173Y-35623984D01*
X124674426Y-35851770D01*
X124566014Y-36386520D01*
X123266902Y-36386520D01*
X123184903Y-35804069D01*
X123013698Y-35414788D01*
X122726395Y-35300742D01*
X122689399Y-35299996D01*
X122231876Y-35533228D01*
X121891461Y-36157846D01*
X121721680Y-37061230D01*
X121712002Y-37356503D01*
X121566888Y-38029882D01*
X121203727Y-38333009D01*
X120730788Y-38284964D01*
X120256342Y-37904828D01*
X119888659Y-37211684D01*
X119834500Y-37025615D01*
X119607998Y-36133999D01*
X118605514Y-37136483D01*
X117184370Y-38263935D01*
X115635174Y-38911941D01*
X114056641Y-39104417D01*
X113001974Y-39036146D01*
X112283751Y-38797017D01*
X112024641Y-38620025D01*
X111695699Y-38241981D01*
X112137298Y-38241981D01*
X112566844Y-38514328D01*
X112631502Y-38545990D01*
X113765097Y-38818072D01*
X115158290Y-38678609D01*
X115946114Y-38453041D01*
X116981469Y-37933905D01*
X118052680Y-37124624D01*
X119032242Y-36150812D01*
X119792649Y-35138083D01*
X120191649Y-34270449D01*
X120378618Y-33241385D01*
X120357515Y-32413426D01*
X120137663Y-31898676D01*
X119986423Y-31802224D01*
X119770687Y-31864017D01*
X119814231Y-32317365D01*
X119814898Y-32320027D01*
X119839150Y-33240864D01*
X119564750Y-34322657D01*
X119054528Y-35369437D01*
X118670802Y-35888444D01*
X118013742Y-36495733D01*
X117142082Y-37128072D01*
X116626894Y-37437260D01*
X115797823Y-37843509D01*
X115089209Y-38038801D01*
X114254303Y-38074305D01*
X113688405Y-38046609D01*
X112686733Y-38013481D01*
X112173479Y-38076818D01*
X112137298Y-38241981D01*
X111695699Y-38241981D01*
X111627891Y-38164051D01*
X111679002Y-37877956D01*
X111893512Y-37686248D01*
X112752921Y-37686248D01*
X113210914Y-37845957D01*
X113984101Y-37844004D01*
X114913488Y-37700964D01*
X115840081Y-37437412D01*
X116345811Y-37221308D01*
X117650735Y-36357821D01*
X118683875Y-35270108D01*
X119337941Y-34076310D01*
X119410729Y-33846438D01*
X119635694Y-32884796D01*
X119651080Y-32364688D01*
X119528272Y-32251995D01*
X119279301Y-32400012D01*
X118720998Y-32801174D01*
X117940607Y-33391152D01*
X117178772Y-33984408D01*
X116129694Y-34808398D01*
X115085876Y-35623241D01*
X114197313Y-36312071D01*
X113790087Y-36624661D01*
X113181918Y-37129816D01*
X112811305Y-37520196D01*
X112752921Y-37686248D01*
X111893512Y-37686248D01*
X112173535Y-37435991D01*
X112945429Y-36804128D01*
X113920279Y-36037685D01*
X115023681Y-35191983D01*
X116181234Y-34322344D01*
X117318533Y-33484086D01*
X118361174Y-32732531D01*
X119234755Y-32122998D01*
X119864872Y-31710808D01*
X120177121Y-31551282D01*
X120188002Y-31551356D01*
X120518806Y-31860019D01*
X120655341Y-32609276D01*
X120595459Y-33769453D01*
X120427094Y-34855540D01*
X120263168Y-35918765D01*
X120249465Y-36644201D01*
X120384444Y-37178864D01*
X120402331Y-37219362D01*
X120704472Y-37681180D01*
X120950852Y-37663837D01*
X121122673Y-37194823D01*
X121201135Y-36301633D01*
X121204002Y-36047005D01*
X121242903Y-35241369D01*
X121344342Y-34695831D01*
X121458002Y-34537996D01*
X121704680Y-34725451D01*
X121712002Y-34784024D01*
X121897579Y-34950503D01*
X122029502Y-34932239D01*
X122919035Y-34680256D01*
X123434259Y-34636734D01*
X123680501Y-34842769D01*
X123763090Y-35339455D01*
X123773466Y-35612656D01*
X123814264Y-36150460D01*
X123884751Y-36295066D01*
X123926688Y-36188996D01*
X124306705Y-35365294D01*
X124872723Y-34927083D01*
X125512917Y-34848314D01*
X126115459Y-35102942D01*
X126568523Y-35664919D01*
X126760284Y-36508200D01*
X126746950Y-36845891D01*
X126778565Y-37482348D01*
X126982502Y-37772486D01*
X127177179Y-37677940D01*
X127277702Y-37184651D01*
X127300002Y-36479152D01*
X127364892Y-35485579D01*
X127568357Y-34967779D01*
X127923589Y-34909239D01*
X128332007Y-35187480D01*
X128726571Y-35486152D01*
X129032219Y-35424903D01*
X129315996Y-35187480D01*
X129807348Y-34886503D01*
X130139031Y-35036082D01*
X130324754Y-35651828D01*
X130375831Y-36394486D01*
X130403661Y-37712996D01*
X130621210Y-36606409D01*
X130726888Y-36229033D01*
X131364002Y-36229033D01*
X131464434Y-36455728D01*
X131839358Y-36333399D01*
X131857855Y-36323566D01*
X132321131Y-36009371D01*
X132496999Y-35824181D01*
X132461917Y-35500579D01*
X132373018Y-35422680D01*
X131976442Y-35425992D01*
X131573754Y-35732144D01*
X131366269Y-36180256D01*
X131364002Y-36229033D01*
X130726888Y-36229033D01*
X130905576Y-35590935D01*
X131299295Y-35010892D01*
X131854246Y-34796972D01*
X131979302Y-34791995D01*
X132708933Y-34955151D01*
X133069678Y-35372137D01*
X133048487Y-35934233D01*
X132632312Y-36532717D01*
X132225246Y-36841149D01*
X131677668Y-37214351D01*
X131526553Y-37448889D01*
X131714943Y-37635171D01*
X131722371Y-37639355D01*
X132395912Y-37758668D01*
X133051858Y-37443158D01*
X133497768Y-36869495D01*
X133708409Y-36142160D01*
X133752762Y-35055265D01*
X133718867Y-34403590D01*
X133683357Y-33648996D01*
G37*
%TO.C,A2*%
G36*
X227622654Y-38088315D02*
G01*
X227765130Y-38115044D01*
X227754676Y-39432755D01*
X227744221Y-40750466D01*
X227544259Y-40762170D01*
X227423991Y-40763726D01*
X227338487Y-40754736D01*
X227316056Y-40745634D01*
X227309218Y-40700482D01*
X227302976Y-40585573D01*
X227297538Y-40410523D01*
X227293111Y-40184950D01*
X227289901Y-39918471D01*
X227288116Y-39620702D01*
X227287815Y-39433313D01*
X227287815Y-38149233D01*
X227383997Y-38105410D01*
X227494352Y-38081837D01*
X227622654Y-38088315D01*
G37*
G36*
X227642165Y-37075184D02*
G01*
X227731362Y-37109109D01*
X227739208Y-37114899D01*
X227781160Y-37189323D01*
X227801782Y-37303735D01*
X227799921Y-37424895D01*
X227774422Y-37519560D01*
X227754143Y-37545290D01*
X227650636Y-37592307D01*
X227517024Y-37612993D01*
X227426721Y-37606202D01*
X227318255Y-37545542D01*
X227259148Y-37424414D01*
X227248128Y-37314771D01*
X227272211Y-37177257D01*
X227348882Y-37095182D01*
X227484767Y-37062499D01*
X227525940Y-37061332D01*
X227642165Y-37075184D01*
G37*
G36*
X222527924Y-33667643D02*
G01*
X222583526Y-33726000D01*
X222604068Y-33833939D01*
X222604690Y-33866428D01*
X222604690Y-34024128D01*
X222393824Y-33999345D01*
X222182959Y-33974562D01*
X222016793Y-34163336D01*
X221850628Y-34352110D01*
X221850628Y-35016963D01*
X221849702Y-35265516D01*
X221846250Y-35445804D01*
X221839261Y-35568924D01*
X221827725Y-35645972D01*
X221810629Y-35688045D01*
X221787850Y-35705907D01*
X221690220Y-35726717D01*
X221588190Y-35726285D01*
X221521418Y-35704963D01*
X221519898Y-35703539D01*
X221512700Y-35658193D01*
X221506246Y-35544390D01*
X221500817Y-35373046D01*
X221496691Y-35155075D01*
X221494149Y-34901396D01*
X221493440Y-34669268D01*
X221493440Y-33661456D01*
X221642268Y-33673773D01*
X221741899Y-33689522D01*
X221789109Y-33729882D01*
X221810837Y-33817999D01*
X221810940Y-33818684D01*
X221830784Y-33951277D01*
X221930003Y-33844679D01*
X222092763Y-33709793D01*
X222264421Y-33637975D01*
X222430837Y-33633411D01*
X222527924Y-33667643D01*
G37*
G36*
X243176577Y-38078918D02*
G01*
X243274152Y-38113330D01*
X243322788Y-38152987D01*
X243339529Y-38223797D01*
X243341409Y-38329528D01*
X243341409Y-38527966D01*
X243080136Y-38515038D01*
X242932443Y-38511326D01*
X242835434Y-38522800D01*
X242760859Y-38556291D01*
X242691946Y-38608903D01*
X242590653Y-38708954D01*
X242484632Y-38835488D01*
X242448004Y-38885787D01*
X242330979Y-39055877D01*
X242320256Y-39903171D01*
X242309534Y-40750466D01*
X242106150Y-40762289D01*
X241977212Y-40763639D01*
X241906899Y-40745555D01*
X241877947Y-40709434D01*
X241871777Y-40654820D01*
X241866167Y-40531084D01*
X241861313Y-40348478D01*
X241857413Y-40117254D01*
X241854665Y-39847665D01*
X241853265Y-39549962D01*
X241853128Y-39420523D01*
X241853446Y-39058085D01*
X241855246Y-38767165D01*
X241859798Y-38539904D01*
X241868370Y-38368447D01*
X241882231Y-38244935D01*
X241902651Y-38161512D01*
X241930898Y-38110321D01*
X241968242Y-38083503D01*
X242015951Y-38073203D01*
X242070998Y-38071560D01*
X242191849Y-38082631D01*
X242258509Y-38127070D01*
X242285891Y-38221712D01*
X242289690Y-38318442D01*
X242289690Y-38517144D01*
X242478206Y-38317712D01*
X242666436Y-38153607D01*
X242852656Y-38065503D01*
X243044877Y-38050659D01*
X243176577Y-38078918D01*
G37*
G36*
X226624354Y-37265879D02*
G01*
X226627371Y-37382833D01*
X226610119Y-37464316D01*
X226595209Y-37497541D01*
X226571843Y-37521536D01*
X226528337Y-37537803D01*
X226453006Y-37547843D01*
X226334164Y-37553158D01*
X226160127Y-37555250D01*
X225919210Y-37555622D01*
X225899735Y-37555622D01*
X225224065Y-37555622D01*
X225224065Y-38170778D01*
X225224065Y-38785935D01*
X225878153Y-38785935D01*
X226532240Y-38785935D01*
X226557877Y-38888080D01*
X226561271Y-39004763D01*
X226539640Y-39086517D01*
X226521259Y-39122486D01*
X226495945Y-39148155D01*
X226451447Y-39165261D01*
X226375516Y-39175542D01*
X226255900Y-39180735D01*
X226080348Y-39182578D01*
X225860755Y-39182810D01*
X225225743Y-39182810D01*
X225214982Y-39966638D01*
X225204221Y-40750466D01*
X225005538Y-40762126D01*
X224864858Y-40759429D01*
X224772295Y-40735189D01*
X224757491Y-40724423D01*
X224746168Y-40674445D01*
X224736173Y-40555181D01*
X224727535Y-40376711D01*
X224720287Y-40149114D01*
X224714458Y-39882468D01*
X224710081Y-39586853D01*
X224707185Y-39272348D01*
X224705803Y-38949031D01*
X224705965Y-38626982D01*
X224707702Y-38316279D01*
X224711045Y-38027003D01*
X224716025Y-37769231D01*
X224722674Y-37553042D01*
X224731022Y-37388517D01*
X224741099Y-37285733D01*
X224746833Y-37260549D01*
X224785538Y-37158747D01*
X225694706Y-37158747D01*
X226603874Y-37158747D01*
X226624354Y-37265879D01*
G37*
G36*
X229793799Y-38048016D02*
G01*
X229872706Y-38069172D01*
X229951735Y-38087574D01*
X230041276Y-38143842D01*
X230085724Y-38257607D01*
X230081438Y-38418671D01*
X230077594Y-38440086D01*
X230062222Y-38501306D01*
X230033052Y-38531743D01*
X229969593Y-38538195D01*
X229851353Y-38527461D01*
X229823649Y-38524339D01*
X229672304Y-38515368D01*
X229555012Y-38535015D01*
X229450906Y-38593614D01*
X229339121Y-38701497D01*
X229246543Y-38810150D01*
X229093596Y-38996684D01*
X229073753Y-39873575D01*
X229053909Y-40750466D01*
X228853947Y-40762170D01*
X228733678Y-40763726D01*
X228648174Y-40754736D01*
X228625744Y-40745634D01*
X228618899Y-40700477D01*
X228612653Y-40585572D01*
X228607212Y-40410545D01*
X228602785Y-40185020D01*
X228599577Y-39918626D01*
X228597798Y-39620986D01*
X228597503Y-39435560D01*
X228597630Y-39083041D01*
X228598364Y-38801549D01*
X228600229Y-38582734D01*
X228603753Y-38418247D01*
X228609460Y-38299741D01*
X228617876Y-38218865D01*
X228629527Y-38167272D01*
X228644940Y-38136612D01*
X228664640Y-38118536D01*
X228681056Y-38109010D01*
X228780639Y-38084479D01*
X228899338Y-38089569D01*
X228979464Y-38109003D01*
X229019179Y-38143440D01*
X229032654Y-38216208D01*
X229034065Y-38311351D01*
X229034065Y-38507859D01*
X229222581Y-38313251D01*
X229374700Y-38182979D01*
X229535428Y-38089968D01*
X229685275Y-38043268D01*
X229793799Y-38048016D01*
G37*
G36*
X213825917Y-34610181D02*
G01*
X214201573Y-34610181D01*
X214206268Y-34831623D01*
X214242131Y-35037934D01*
X214307962Y-35204280D01*
X214340286Y-35251481D01*
X214470369Y-35353843D01*
X214642423Y-35412500D01*
X214830281Y-35424466D01*
X215007782Y-35386756D01*
X215099726Y-35338132D01*
X215224442Y-35212798D01*
X215302687Y-35040691D01*
X215338062Y-34812272D01*
X215341006Y-34698741D01*
X215318879Y-34421524D01*
X215253257Y-34209589D01*
X215142553Y-34060809D01*
X214985181Y-33973058D01*
X214779555Y-33944208D01*
X214778302Y-33944208D01*
X214580880Y-33978327D01*
X214412493Y-34072634D01*
X214293460Y-34215589D01*
X214290488Y-34221236D01*
X214229246Y-34398441D01*
X214201573Y-34610181D01*
X213825917Y-34610181D01*
X213827090Y-34532962D01*
X213869393Y-34295543D01*
X213975007Y-34057248D01*
X214140834Y-33865665D01*
X214358701Y-33727207D01*
X214620436Y-33648289D01*
X214708433Y-33636987D01*
X214988003Y-33646786D01*
X215235904Y-33726891D01*
X215445295Y-33873621D01*
X215609333Y-34083295D01*
X215638501Y-34137199D01*
X215697273Y-34313631D01*
X215727513Y-34535370D01*
X215728055Y-34773210D01*
X215697732Y-34997951D01*
X215676150Y-35079388D01*
X215580217Y-35289972D01*
X215440489Y-35474609D01*
X215273929Y-35614840D01*
X215117694Y-35687113D01*
X214983574Y-35710259D01*
X214808104Y-35722558D01*
X214625393Y-35723327D01*
X214469554Y-35711886D01*
X214411741Y-35701214D01*
X214240331Y-35622374D01*
X214079032Y-35485364D01*
X213950525Y-35310387D01*
X213930954Y-35273020D01*
X213858283Y-35057081D01*
X213823028Y-34800335D01*
X213825917Y-34610181D01*
G37*
G36*
X212599016Y-32957568D02*
G01*
X212779870Y-32971879D01*
X212928230Y-32993247D01*
X213004685Y-33012945D01*
X213221703Y-33127097D01*
X213380477Y-33293053D01*
X213477866Y-33505485D01*
X213510729Y-33759065D01*
X213505839Y-33862976D01*
X213449529Y-34120866D01*
X213332064Y-34328228D01*
X213153628Y-34484913D01*
X212914407Y-34590768D01*
X212614585Y-34645644D01*
X212540114Y-34650881D01*
X212206565Y-34668388D01*
X212206565Y-35175103D01*
X212205142Y-35389134D01*
X212199874Y-35536482D01*
X212189266Y-35629803D01*
X212171820Y-35681754D01*
X212146038Y-35704992D01*
X212143788Y-35705907D01*
X212025505Y-35725817D01*
X211896497Y-35715035D01*
X211859299Y-35703713D01*
X211845264Y-35659830D01*
X211833339Y-35547875D01*
X211823533Y-35379124D01*
X211815855Y-35164851D01*
X211810313Y-34916331D01*
X211806915Y-34644840D01*
X211805670Y-34361653D01*
X211806585Y-34078044D01*
X211809669Y-33805290D01*
X211814930Y-33554666D01*
X211822376Y-33337445D01*
X211826180Y-33269372D01*
X212206565Y-33269372D01*
X212206565Y-33805153D01*
X212206565Y-34340935D01*
X212454612Y-34340873D01*
X212665204Y-34324088D01*
X212829757Y-34277058D01*
X212841565Y-34271420D01*
X212979317Y-34163971D01*
X213070318Y-34014794D01*
X213113755Y-33842570D01*
X213108816Y-33665981D01*
X213054687Y-33503707D01*
X212950555Y-33374432D01*
X212882552Y-33329575D01*
X212760595Y-33292129D01*
X212583918Y-33271910D01*
X212486348Y-33269372D01*
X212206565Y-33269372D01*
X211826180Y-33269372D01*
X211832017Y-33164905D01*
X211843859Y-33048319D01*
X211857315Y-32999497D01*
X211922074Y-32975255D01*
X212047195Y-32959158D01*
X212214107Y-32950990D01*
X212404238Y-32950533D01*
X212599016Y-32957568D01*
G37*
G36*
X219218624Y-34416108D02*
G01*
X219263686Y-34214530D01*
X219302901Y-34116570D01*
X219453365Y-33906336D01*
X219653778Y-33751351D01*
X219891380Y-33658203D01*
X220153408Y-33633479D01*
X220227106Y-33639439D01*
X220474793Y-33702976D01*
X220672222Y-33827001D01*
X220816371Y-34008215D01*
X220904218Y-34243318D01*
X220928369Y-34405377D01*
X220936693Y-34532673D01*
X220931692Y-34627021D01*
X220903424Y-34693356D01*
X220841950Y-34736611D01*
X220737327Y-34761721D01*
X220579615Y-34773620D01*
X220358873Y-34777243D01*
X220178662Y-34777497D01*
X219553743Y-34777497D01*
X219575873Y-34926325D01*
X219638580Y-35146825D01*
X219751896Y-35306191D01*
X219915585Y-35404245D01*
X220129412Y-35440805D01*
X220243284Y-35437033D01*
X220407557Y-35415107D01*
X220568839Y-35381118D01*
X220646492Y-35358091D01*
X220765607Y-35322388D01*
X220829556Y-35328527D01*
X220854865Y-35384281D01*
X220858440Y-35457780D01*
X220832690Y-35555498D01*
X220751375Y-35628275D01*
X220608393Y-35678624D01*
X220397646Y-35709057D01*
X220223440Y-35719276D01*
X220026573Y-35722882D01*
X219885883Y-35715234D01*
X219778646Y-35693746D01*
X219687318Y-35658279D01*
X219482241Y-35520031D01*
X219325872Y-35327166D01*
X219231520Y-35096111D01*
X219231366Y-35095469D01*
X219200413Y-34884651D01*
X219196849Y-34648840D01*
X219210804Y-34499685D01*
X219547240Y-34499685D01*
X220069159Y-34499685D01*
X220591079Y-34499685D01*
X220569263Y-34337034D01*
X220509499Y-34156613D01*
X220393363Y-34021633D01*
X220235070Y-33941237D01*
X220048837Y-33924568D01*
X219954513Y-33941667D01*
X219788566Y-34016841D01*
X219668868Y-34145315D01*
X219587534Y-34336376D01*
X219573330Y-34390544D01*
X219547240Y-34499685D01*
X219210804Y-34499685D01*
X219218624Y-34416108D01*
G37*
G36*
X232050824Y-33666247D02*
G01*
X232155005Y-33674927D01*
X232220571Y-33696444D01*
X232227104Y-33703014D01*
X232219143Y-33747070D01*
X232187094Y-33855229D01*
X232134628Y-34017232D01*
X232065413Y-34222817D01*
X231983118Y-34461725D01*
X231891410Y-34723696D01*
X231793960Y-34998468D01*
X231694436Y-35275782D01*
X231596506Y-35545377D01*
X231503840Y-35796993D01*
X231420106Y-36020369D01*
X231348973Y-36205246D01*
X231294109Y-36341362D01*
X231259184Y-36418457D01*
X231252030Y-36429993D01*
X231183667Y-36467153D01*
X231081497Y-36482547D01*
X230981256Y-36474994D01*
X230918683Y-36443315D01*
X230917169Y-36441051D01*
X230918752Y-36386920D01*
X230945634Y-36278923D01*
X230992579Y-36136462D01*
X231017195Y-36070560D01*
X231143803Y-35743077D01*
X230783465Y-34781557D01*
X230685840Y-34518171D01*
X230598257Y-34276341D01*
X230524467Y-34066882D01*
X230468224Y-33900610D01*
X230433281Y-33788340D01*
X230423128Y-33743142D01*
X230437850Y-33692027D01*
X230495674Y-33669933D01*
X230577018Y-33666247D01*
X230686213Y-33678187D01*
X230761227Y-33707712D01*
X230769680Y-33715856D01*
X230794435Y-33767466D01*
X230840278Y-33881624D01*
X230902475Y-34045821D01*
X230976296Y-34247548D01*
X231057007Y-34474296D01*
X231062274Y-34489305D01*
X231142081Y-34713199D01*
X231214348Y-34908994D01*
X231274642Y-35065231D01*
X231318528Y-35170454D01*
X231341572Y-35213204D01*
X231342571Y-35213602D01*
X231363587Y-35178157D01*
X231403906Y-35080194D01*
X231458583Y-34932780D01*
X231522677Y-34748977D01*
X231556379Y-34648513D01*
X231654719Y-34351540D01*
X231731873Y-34121283D01*
X231792104Y-33949274D01*
X231839674Y-33827043D01*
X231878846Y-33746122D01*
X231913883Y-33698043D01*
X231949048Y-33674337D01*
X231988604Y-33666535D01*
X232036814Y-33666169D01*
X232050824Y-33666247D01*
G37*
G36*
X225009788Y-34816814D02*
G01*
X225386702Y-34816814D01*
X225415109Y-35023041D01*
X225471974Y-35199486D01*
X225556762Y-35328081D01*
X225607251Y-35367522D01*
X225738801Y-35406465D01*
X225901477Y-35403576D01*
X226060568Y-35361366D01*
X226121561Y-35330324D01*
X226252213Y-35235989D01*
X226338464Y-35132799D01*
X226388636Y-35001927D01*
X226411053Y-34824545D01*
X226414690Y-34667284D01*
X226414690Y-34311356D01*
X226241874Y-34152060D01*
X226132174Y-34059821D01*
X226031540Y-33989944D01*
X225980455Y-33964642D01*
X225848452Y-33951259D01*
X225705505Y-33977619D01*
X225590139Y-34035235D01*
X225568371Y-34055429D01*
X225477589Y-34200111D01*
X225417407Y-34387281D01*
X225387290Y-34598871D01*
X225386702Y-34816814D01*
X225009788Y-34816814D01*
X225006837Y-34750145D01*
X225006501Y-34698122D01*
X225010128Y-34504561D01*
X225023312Y-34363108D01*
X225050808Y-34246637D01*
X225097371Y-34128028D01*
X225112122Y-34095780D01*
X225241600Y-33883580D01*
X225403501Y-33741657D01*
X225605964Y-33664720D01*
X225803320Y-33646403D01*
X225955904Y-33652446D01*
X226066816Y-33677987D01*
X226173313Y-33734143D01*
X226232859Y-33774570D01*
X226414690Y-33902736D01*
X226414690Y-33325803D01*
X226414690Y-32748871D01*
X226583362Y-32761074D01*
X226752034Y-32773278D01*
X226762444Y-34230915D01*
X226772854Y-35688552D01*
X226673236Y-35713555D01*
X226550249Y-35724981D01*
X226479988Y-35679150D01*
X226454755Y-35570279D01*
X226454378Y-35549121D01*
X226454378Y-35405441D01*
X226325393Y-35514202D01*
X226208279Y-35599391D01*
X226086934Y-35668348D01*
X226068699Y-35676480D01*
X225903424Y-35717309D01*
X225707782Y-35725413D01*
X225522248Y-35700940D01*
X225440379Y-35674173D01*
X225290929Y-35573166D01*
X225157662Y-35417850D01*
X225061740Y-35233133D01*
X225058804Y-35224990D01*
X225033607Y-35111064D01*
X225015419Y-34944058D01*
X225009788Y-34816814D01*
G37*
G36*
X222836889Y-34415253D02*
G01*
X223199850Y-34415253D01*
X223218745Y-34459687D01*
X223281710Y-34484930D01*
X223398635Y-34496408D01*
X223579405Y-34499546D01*
X223714948Y-34499685D01*
X224229893Y-34499685D01*
X224206194Y-34370700D01*
X224138757Y-34164490D01*
X224023959Y-34021850D01*
X223894792Y-33952505D01*
X223696698Y-33924575D01*
X223514130Y-33969373D01*
X223361515Y-34080259D01*
X223254724Y-34247105D01*
X223215139Y-34346201D01*
X223199850Y-34415253D01*
X222836889Y-34415253D01*
X222837858Y-34403519D01*
X222863606Y-34297270D01*
X222909809Y-34187117D01*
X222942642Y-34121212D01*
X223084828Y-33916192D01*
X223264934Y-33766419D01*
X223470439Y-33671319D01*
X223688824Y-33630319D01*
X223907571Y-33642846D01*
X224114160Y-33708325D01*
X224296071Y-33826184D01*
X224440786Y-33995849D01*
X224529338Y-34193906D01*
X224578464Y-34408282D01*
X224587148Y-34577787D01*
X224555671Y-34693480D01*
X224512299Y-34736413D01*
X224445490Y-34751248D01*
X224313895Y-34763539D01*
X224132087Y-34772423D01*
X223914637Y-34777038D01*
X223817768Y-34777497D01*
X223200003Y-34777497D01*
X223200003Y-34900483D01*
X223234551Y-35099886D01*
X223332713Y-35259401D01*
X223486261Y-35372897D01*
X223686971Y-35434244D01*
X223921078Y-35437903D01*
X224079067Y-35413156D01*
X224229884Y-35376339D01*
X224298193Y-35352689D01*
X224418143Y-35317642D01*
X224485338Y-35339302D01*
X224506393Y-35421690D01*
X224502871Y-35477115D01*
X224483857Y-35549298D01*
X224433662Y-35599308D01*
X224332020Y-35644559D01*
X224291409Y-35658807D01*
X224129736Y-35696154D01*
X223926102Y-35718473D01*
X223711261Y-35724716D01*
X223515966Y-35713836D01*
X223385938Y-35689640D01*
X223198332Y-35595503D01*
X223033036Y-35440818D01*
X222920572Y-35265717D01*
X222872408Y-35148066D01*
X222843583Y-35024195D01*
X222829525Y-34867493D01*
X222825942Y-34715203D01*
X222827119Y-34533589D01*
X222836889Y-34415253D01*
G37*
G36*
X228404342Y-35084888D02*
G01*
X228401831Y-34867204D01*
X228400797Y-34710302D01*
X228756253Y-34710302D01*
X228756253Y-35084888D01*
X228933960Y-35248692D01*
X229047182Y-35344539D01*
X229138422Y-35394138D01*
X229237402Y-35411466D01*
X229282316Y-35412497D01*
X229411891Y-35398072D01*
X229521558Y-35362234D01*
X229541748Y-35350312D01*
X229653725Y-35226771D01*
X229725995Y-35039493D01*
X229759407Y-34785887D01*
X229762086Y-34678278D01*
X229740966Y-34403828D01*
X229677134Y-34191406D01*
X229571900Y-34043104D01*
X229426574Y-33961011D01*
X229301775Y-33944060D01*
X229204375Y-33968632D01*
X229077132Y-34030956D01*
X228947582Y-34113938D01*
X228843263Y-34200486D01*
X228798762Y-34256287D01*
X228780037Y-34329812D01*
X228765522Y-34460160D01*
X228757324Y-34624806D01*
X228756253Y-34710302D01*
X228400797Y-34710302D01*
X228399809Y-34560481D01*
X228399066Y-34228202D01*
X228399065Y-34216014D01*
X228399065Y-32754947D01*
X228495419Y-32730763D01*
X228605514Y-32721902D01*
X228674013Y-32732682D01*
X228706220Y-32747097D01*
X228728708Y-32774864D01*
X228743214Y-32828607D01*
X228751479Y-32920948D01*
X228755239Y-33064512D01*
X228756232Y-33271924D01*
X228756253Y-33329938D01*
X228756253Y-33901093D01*
X228954487Y-33777864D01*
X229190214Y-33667130D01*
X229416527Y-33634692D01*
X229635782Y-33680349D01*
X229708432Y-33713262D01*
X229887601Y-33837314D01*
X230016728Y-34003091D01*
X230099541Y-34218689D01*
X230139767Y-34492206D01*
X230145094Y-34662049D01*
X230120882Y-34993743D01*
X230048411Y-35265213D01*
X229928724Y-35475171D01*
X229762863Y-35622328D01*
X229551870Y-35705395D01*
X229296788Y-35723083D01*
X229287273Y-35722514D01*
X229130170Y-35705445D01*
X229016639Y-35670139D01*
X228911076Y-35604009D01*
X228877205Y-35577538D01*
X228716565Y-35448444D01*
X228716565Y-35565131D01*
X228691571Y-35668419D01*
X228611312Y-35720463D01*
X228521496Y-35729997D01*
X228447344Y-35716455D01*
X228425523Y-35703539D01*
X228419505Y-35659141D01*
X228413967Y-35544340D01*
X228409069Y-35368103D01*
X228404971Y-35139401D01*
X228404342Y-35084888D01*
G37*
G36*
X243665470Y-39088631D02*
G01*
X244121614Y-39088631D01*
X244134778Y-39132720D01*
X244181542Y-39160390D01*
X244271744Y-39175443D01*
X244415218Y-39181681D01*
X244621800Y-39182903D01*
X244795397Y-39182810D01*
X245475479Y-39182810D01*
X245450294Y-38999064D01*
X245386730Y-38769944D01*
X245269182Y-38595936D01*
X245102422Y-38481448D01*
X244891223Y-38430884D01*
X244832339Y-38428747D01*
X244601566Y-38465014D01*
X244404109Y-38567950D01*
X244251688Y-38728754D01*
X244156749Y-38935995D01*
X244132217Y-39024323D01*
X244121614Y-39088631D01*
X243665470Y-39088631D01*
X243676632Y-38988174D01*
X243700086Y-38896706D01*
X243738358Y-38803981D01*
X243795074Y-38689844D01*
X243797815Y-38684474D01*
X243953236Y-38437714D01*
X244137835Y-38257657D01*
X244360907Y-38138970D01*
X244631748Y-38076321D01*
X244881091Y-38062921D01*
X245178732Y-38097033D01*
X245430622Y-38195224D01*
X245634399Y-38355106D01*
X245787698Y-38574292D01*
X245888158Y-38850395D01*
X245929842Y-39122704D01*
X245939152Y-39251120D01*
X245939333Y-39350076D01*
X245921522Y-39423406D01*
X245876862Y-39474945D01*
X245796493Y-39508529D01*
X245671554Y-39527991D01*
X245493186Y-39537167D01*
X245252530Y-39539892D01*
X244965761Y-39539997D01*
X244115315Y-39539997D01*
X244115536Y-39649138D01*
X244147883Y-39873127D01*
X244236362Y-40078704D01*
X244369511Y-40246648D01*
X244535869Y-40357739D01*
X244538828Y-40358987D01*
X244697220Y-40398239D01*
X244904183Y-40411706D01*
X245133457Y-40400085D01*
X245358786Y-40364072D01*
X245471076Y-40334259D01*
X245635059Y-40284574D01*
X245737842Y-40262610D01*
X245793711Y-40271541D01*
X245816950Y-40314542D01*
X245821843Y-40394786D01*
X245821878Y-40412207D01*
X245809748Y-40519228D01*
X245764796Y-40598529D01*
X245674177Y-40660515D01*
X245525047Y-40715588D01*
X245406742Y-40748447D01*
X245237310Y-40779868D01*
X245033479Y-40799141D01*
X244822401Y-40805558D01*
X244631225Y-40798407D01*
X244487100Y-40776979D01*
X244472503Y-40772884D01*
X244190183Y-40650775D01*
X243964175Y-40473170D01*
X243792174Y-40238102D01*
X243750333Y-40155153D01*
X243711076Y-40060670D01*
X243684822Y-39966695D01*
X243669057Y-39854022D01*
X243661268Y-39703448D01*
X243658942Y-39495767D01*
X243658909Y-39456621D01*
X243659669Y-39247974D01*
X243664368Y-39098544D01*
X243665470Y-39088631D01*
G37*
G36*
X211549812Y-38944685D02*
G01*
X212074558Y-38944685D01*
X212095175Y-39337029D01*
X212160267Y-39664752D01*
X212270623Y-39929503D01*
X212427030Y-40132930D01*
X212630277Y-40276683D01*
X212731983Y-40320457D01*
X212879759Y-40353148D01*
X213071934Y-40367936D01*
X213275517Y-40364559D01*
X213457518Y-40342754D01*
X213523918Y-40326761D01*
X213705813Y-40238867D01*
X213882351Y-40095770D01*
X214029945Y-39919522D01*
X214105706Y-39782946D01*
X214194987Y-39505868D01*
X214244448Y-39196439D01*
X214255217Y-38873268D01*
X214228425Y-38554964D01*
X214165203Y-38260136D01*
X214066679Y-38007393D01*
X213990316Y-37882636D01*
X213821751Y-37717032D01*
X213605794Y-37600680D01*
X213358925Y-37535706D01*
X213097623Y-37524239D01*
X212838369Y-37568405D01*
X212597643Y-37670332D01*
X212554075Y-37697244D01*
X212370758Y-37864195D01*
X212230008Y-38095026D01*
X212133398Y-38385647D01*
X212082499Y-38731971D01*
X212074558Y-38944685D01*
X211549812Y-38944685D01*
X211557686Y-38736957D01*
X211569549Y-38626333D01*
X211634394Y-38263598D01*
X211736181Y-37962484D01*
X211880721Y-37711597D01*
X212073827Y-37499540D01*
X212194164Y-37401722D01*
X212453502Y-37246796D01*
X212740316Y-37150514D01*
X213070214Y-37108175D01*
X213178909Y-37105297D01*
X213553619Y-37133412D01*
X213880252Y-37222453D01*
X214157071Y-37371503D01*
X214382340Y-37579648D01*
X214544238Y-37825811D01*
X214669243Y-38144639D01*
X214745021Y-38501695D01*
X214772320Y-38879137D01*
X214751891Y-39259124D01*
X214684483Y-39623814D01*
X214570845Y-39955366D01*
X214445004Y-40188016D01*
X214338194Y-40349416D01*
X214469843Y-40459322D01*
X214571038Y-40532390D01*
X214714118Y-40621789D01*
X214869571Y-40709164D01*
X214882388Y-40715898D01*
X215040121Y-40800760D01*
X215139657Y-40864453D01*
X215194311Y-40920255D01*
X215217398Y-40981446D01*
X215222207Y-41054798D01*
X215211454Y-41182357D01*
X215171911Y-41257299D01*
X215095314Y-41281136D01*
X214973395Y-41255383D01*
X214797889Y-41181556D01*
X214724831Y-41145916D01*
X214543386Y-41044257D01*
X214348982Y-40918320D01*
X214202195Y-40809738D01*
X213959261Y-40613171D01*
X213768027Y-40697763D01*
X213544584Y-40766445D01*
X213276312Y-40802235D01*
X212991027Y-40804221D01*
X212716550Y-40771487D01*
X212575622Y-40736951D01*
X212284595Y-40619863D01*
X212047852Y-40458883D01*
X211861231Y-40248243D01*
X211720566Y-39982176D01*
X211621692Y-39654916D01*
X211569751Y-39344073D01*
X211546389Y-39035004D01*
X211549812Y-38944685D01*
G37*
G36*
X220800812Y-37127238D02*
G01*
X220909871Y-37168638D01*
X220909913Y-37168669D01*
X220933340Y-37195006D01*
X220951048Y-37241542D01*
X220964041Y-37319021D01*
X220973327Y-37438187D01*
X220979910Y-37609782D01*
X220984796Y-37844551D01*
X220986951Y-37991473D01*
X220997346Y-38764667D01*
X221626915Y-37971629D01*
X221800917Y-37754530D01*
X221961599Y-37557984D01*
X222101600Y-37390688D01*
X222213554Y-37261334D01*
X222290098Y-37178616D01*
X222321446Y-37151615D01*
X222449941Y-37124302D01*
X222589674Y-37131403D01*
X222699395Y-37170526D01*
X222704040Y-37173779D01*
X222751757Y-37214885D01*
X222754893Y-37256235D01*
X222713517Y-37328502D01*
X222704426Y-37342451D01*
X222651343Y-37414272D01*
X222548737Y-37543514D01*
X222398863Y-37727439D01*
X222203978Y-37963308D01*
X221966337Y-38248382D01*
X221688196Y-38579923D01*
X221540418Y-38755414D01*
X221526557Y-38780913D01*
X221527264Y-38816061D01*
X221547306Y-38868420D01*
X221591453Y-38945551D01*
X221664473Y-39055017D01*
X221771136Y-39204379D01*
X221916211Y-39401199D01*
X222104465Y-39653039D01*
X222117279Y-39670119D01*
X222326425Y-39949429D01*
X222492096Y-40172454D01*
X222618870Y-40346085D01*
X222711326Y-40477213D01*
X222774041Y-40572729D01*
X222811595Y-40639523D01*
X222828566Y-40684486D01*
X222829533Y-40714510D01*
X222822464Y-40731442D01*
X222764048Y-40761478D01*
X222656431Y-40772997D01*
X222527182Y-40767659D01*
X222403867Y-40747126D01*
X222314053Y-40713058D01*
X222297112Y-40699794D01*
X222255462Y-40649507D01*
X222174140Y-40544414D01*
X222060191Y-40393879D01*
X221920661Y-40207268D01*
X221762596Y-39993945D01*
X221612503Y-39789845D01*
X220997346Y-38950411D01*
X220986631Y-39807640D01*
X220980555Y-40128361D01*
X220971281Y-40383816D01*
X220959037Y-40570194D01*
X220944050Y-40683686D01*
X220932163Y-40717589D01*
X220870543Y-40746529D01*
X220762779Y-40765023D01*
X220641031Y-40771171D01*
X220537460Y-40763070D01*
X220488023Y-40743851D01*
X220482522Y-40699867D01*
X220477408Y-40584651D01*
X220472801Y-40406350D01*
X220468823Y-40173107D01*
X220465595Y-39893065D01*
X220463236Y-39574370D01*
X220461868Y-39225165D01*
X220461565Y-38959310D01*
X220461679Y-38539818D01*
X220462222Y-38192660D01*
X220463494Y-37910794D01*
X220465796Y-37687179D01*
X220469428Y-37514773D01*
X220474690Y-37386536D01*
X220481883Y-37295426D01*
X220491307Y-37234401D01*
X220503263Y-37196421D01*
X220518051Y-37174444D01*
X220535972Y-37161428D01*
X220538331Y-37160143D01*
X220663151Y-37124089D01*
X220800812Y-37127238D01*
G37*
G36*
X219282817Y-37164842D02*
G01*
X219400547Y-37183211D01*
X219464939Y-37212930D01*
X219476649Y-37253776D01*
X219486039Y-37347897D01*
X219493184Y-37499292D01*
X219498163Y-37711956D01*
X219501052Y-37989887D01*
X219501928Y-38337082D01*
X219500868Y-38757537D01*
X219499564Y-39008790D01*
X219489221Y-40750466D01*
X219270940Y-40750466D01*
X219052659Y-40750466D01*
X219032815Y-39178415D01*
X219012971Y-37606364D01*
X218377971Y-39178415D01*
X217742971Y-40750466D01*
X217536667Y-40762390D01*
X217413317Y-40765784D01*
X217343065Y-40751094D01*
X217300066Y-40708505D01*
X217275456Y-40663172D01*
X217249305Y-40602030D01*
X217198354Y-40475502D01*
X217126037Y-40292383D01*
X217035790Y-40061471D01*
X216931049Y-39791562D01*
X216815248Y-39491451D01*
X216691823Y-39169937D01*
X216668166Y-39108129D01*
X216115784Y-37664230D01*
X216105378Y-39164176D01*
X216101267Y-39608416D01*
X216095599Y-39975213D01*
X216088307Y-40266486D01*
X216079323Y-40484154D01*
X216068580Y-40630135D01*
X216056010Y-40706348D01*
X216050909Y-40717216D01*
X215989121Y-40746369D01*
X215881233Y-40765022D01*
X215759407Y-40771247D01*
X215655807Y-40763117D01*
X215606461Y-40743851D01*
X215600896Y-40699816D01*
X215595729Y-40584651D01*
X215591084Y-40406601D01*
X215587088Y-40173913D01*
X215583866Y-39894829D01*
X215581541Y-39577597D01*
X215580240Y-39230460D01*
X215580003Y-39000436D01*
X215580277Y-38581075D01*
X215581264Y-38234061D01*
X215583211Y-37952366D01*
X215586363Y-37728965D01*
X215590967Y-37556828D01*
X215597269Y-37428931D01*
X215605515Y-37338245D01*
X215615952Y-37277744D01*
X215628826Y-37240401D01*
X215642369Y-37221113D01*
X215706746Y-37184940D01*
X215819498Y-37165017D01*
X215995540Y-37158751D01*
X216001360Y-37158747D01*
X216161678Y-37162103D01*
X216265335Y-37175655D01*
X216334889Y-37204628D01*
X216386807Y-37248044D01*
X216425298Y-37308695D01*
X216487354Y-37433090D01*
X216568337Y-37610775D01*
X216663606Y-37831299D01*
X216768524Y-38084210D01*
X216866830Y-38329528D01*
X216980050Y-38616668D01*
X217092094Y-38900796D01*
X217197106Y-39167066D01*
X217289230Y-39400629D01*
X217362610Y-39586639D01*
X217402683Y-39688188D01*
X217547334Y-40054660D01*
X217999853Y-38953969D01*
X218166466Y-38549639D01*
X218306275Y-38212759D01*
X218422066Y-37937126D01*
X218516623Y-37716539D01*
X218592733Y-37544793D01*
X218653181Y-37415687D01*
X218700753Y-37323017D01*
X218738235Y-37260580D01*
X218768412Y-37222174D01*
X218783809Y-37208356D01*
X218862255Y-37179590D01*
X218988411Y-37162862D01*
X219137019Y-37158003D01*
X219282817Y-37164842D01*
G37*
G36*
X238979033Y-40017753D02*
G01*
X239471878Y-40017753D01*
X239501616Y-40199358D01*
X239592093Y-40331362D01*
X239745196Y-40415714D01*
X239888596Y-40447183D01*
X239949356Y-40440639D01*
X240052237Y-40417969D01*
X240087034Y-40408787D01*
X240212918Y-40356672D01*
X240352466Y-40273790D01*
X240414456Y-40227758D01*
X240583128Y-40090308D01*
X240583128Y-39809295D01*
X240583128Y-39528281D01*
X240201370Y-39555116D01*
X239989675Y-39573678D01*
X239837429Y-39598541D01*
X239724707Y-39635780D01*
X239631584Y-39691470D01*
X239561174Y-39750312D01*
X239500146Y-39830473D01*
X239474565Y-39941678D01*
X239471878Y-40017753D01*
X238979033Y-40017753D01*
X238999091Y-39858636D01*
X239045461Y-39713757D01*
X239126566Y-39592681D01*
X239212501Y-39505844D01*
X239328236Y-39410514D01*
X239448131Y-39341025D01*
X239589114Y-39292233D01*
X239768113Y-39258998D01*
X240002056Y-39236174D01*
X240126721Y-39228108D01*
X240563284Y-39202653D01*
X240552232Y-38965759D01*
X240526456Y-38764748D01*
X240465094Y-38622821D01*
X240359090Y-38524253D01*
X240272750Y-38480405D01*
X240072290Y-38437595D01*
X239830672Y-38456916D01*
X239555011Y-38537487D01*
X239445919Y-38582599D01*
X239305495Y-38642943D01*
X239218692Y-38672140D01*
X239167521Y-38673281D01*
X239133993Y-38649456D01*
X239124612Y-38637805D01*
X239078746Y-38525455D01*
X239103471Y-38413943D01*
X239190140Y-38308794D01*
X239330109Y-38215531D01*
X239514730Y-38139680D01*
X239735358Y-38086763D01*
X239983347Y-38062306D01*
X240026787Y-38061384D01*
X240326891Y-38078331D01*
X240565878Y-38138364D01*
X240751550Y-38245194D01*
X240891708Y-38402531D01*
X240945789Y-38498477D01*
X240974977Y-38562562D01*
X240997508Y-38627405D01*
X241014468Y-38704452D01*
X241026942Y-38805146D01*
X241036016Y-38940932D01*
X241042774Y-39123255D01*
X241048303Y-39363559D01*
X241052952Y-39628353D01*
X241056290Y-39899509D01*
X241057236Y-40148888D01*
X241055911Y-40363950D01*
X241052439Y-40532155D01*
X241046940Y-40640964D01*
X241042784Y-40672272D01*
X241019926Y-40734022D01*
X240976630Y-40761799D01*
X240888983Y-40765737D01*
X240829886Y-40762510D01*
X240715760Y-40751248D01*
X240657555Y-40725970D01*
X240631847Y-40670507D01*
X240622815Y-40619591D01*
X240602971Y-40488716D01*
X240444221Y-40603793D01*
X240317881Y-40684259D01*
X240189845Y-40749164D01*
X240150565Y-40764433D01*
X239965900Y-40800449D01*
X239749409Y-40804060D01*
X239541400Y-40775986D01*
X239458193Y-40752107D01*
X239248258Y-40639245D01*
X239095027Y-40475511D01*
X239003150Y-40269960D01*
X238977282Y-40031646D01*
X238979033Y-40017753D01*
G37*
G36*
X218885225Y-33680402D02*
G01*
X218914625Y-33715856D01*
X218903271Y-33780393D01*
X218870856Y-33905152D01*
X218821439Y-34077478D01*
X218759081Y-34284718D01*
X218687844Y-34514215D01*
X218611786Y-34753318D01*
X218534971Y-34989370D01*
X218461457Y-35209718D01*
X218395306Y-35401707D01*
X218340578Y-35552683D01*
X218301334Y-35649991D01*
X218284221Y-35680388D01*
X218202271Y-35716220D01*
X218100159Y-35729997D01*
X217990422Y-35714497D01*
X217912111Y-35680388D01*
X217880017Y-35626973D01*
X217831701Y-35509970D01*
X217771850Y-35342360D01*
X217705156Y-35137126D01*
X217650467Y-34956091D01*
X217586269Y-34743687D01*
X217528342Y-34565344D01*
X217480534Y-34431848D01*
X217446690Y-34353982D01*
X217431122Y-34340935D01*
X217413807Y-34398243D01*
X217380312Y-34517776D01*
X217334626Y-34684986D01*
X217280738Y-34885327D01*
X217246066Y-35015622D01*
X217181198Y-35248299D01*
X217120784Y-35442268D01*
X217068760Y-35586032D01*
X217029064Y-35668094D01*
X217018459Y-35680388D01*
X216932996Y-35716335D01*
X216830159Y-35729997D01*
X216721959Y-35714602D01*
X216645812Y-35680388D01*
X216621465Y-35633242D01*
X216578526Y-35522663D01*
X216521044Y-35361295D01*
X216453067Y-35161783D01*
X216378644Y-34936770D01*
X216301824Y-34698900D01*
X216226656Y-34460819D01*
X216157188Y-34235170D01*
X216097469Y-34034598D01*
X216051549Y-33871747D01*
X216023474Y-33759260D01*
X216016565Y-33715246D01*
X216054185Y-33681394D01*
X216162609Y-33666720D01*
X216193883Y-33666247D01*
X216371201Y-33666247D01*
X216469720Y-33993669D01*
X216525528Y-34180454D01*
X216592556Y-34406721D01*
X216659932Y-34635714D01*
X216689789Y-34737810D01*
X216741617Y-34913530D01*
X216787196Y-35064470D01*
X216820866Y-35172105D01*
X216835217Y-35214060D01*
X216851554Y-35194811D01*
X216884493Y-35109340D01*
X216930882Y-34968299D01*
X216987568Y-34782342D01*
X217051397Y-34562123D01*
X217119218Y-34318296D01*
X217187876Y-34061515D01*
X217254221Y-33802433D01*
X217260960Y-33775388D01*
X217288967Y-33703877D01*
X217342734Y-33672844D01*
X217444675Y-33666247D01*
X217571336Y-33682463D01*
X217636735Y-33733943D01*
X217637677Y-33735700D01*
X217659554Y-33794489D01*
X217698662Y-33916554D01*
X217750991Y-34088693D01*
X217812530Y-34297703D01*
X217879269Y-34530380D01*
X217881814Y-34539372D01*
X217946594Y-34767482D01*
X218003890Y-34967618D01*
X218050270Y-35127928D01*
X218082305Y-35236564D01*
X218096565Y-35281674D01*
X218096852Y-35282205D01*
X218109417Y-35248683D01*
X218140141Y-35150189D01*
X218185615Y-34998140D01*
X218242431Y-34803950D01*
X218307181Y-34579038D01*
X218316047Y-34547986D01*
X218383745Y-34313407D01*
X218446241Y-34101969D01*
X218499549Y-33926767D01*
X218539677Y-33800895D01*
X218562638Y-33737449D01*
X218563491Y-33735700D01*
X218617421Y-33693306D01*
X218708091Y-33668880D01*
X218806893Y-33664040D01*
X218885225Y-33680402D01*
G37*
G36*
X232065480Y-38086752D02*
G01*
X232265312Y-38162825D01*
X232432436Y-38276074D01*
X232547910Y-38415487D01*
X232576838Y-38480346D01*
X232613241Y-38487408D01*
X232692005Y-38438630D01*
X232736654Y-38401576D01*
X232958125Y-38229214D01*
X233161792Y-38121197D01*
X233363812Y-38070128D01*
X233474963Y-38063622D01*
X233736845Y-38098101D01*
X233958518Y-38198746D01*
X234133977Y-38361363D01*
X234257215Y-38581764D01*
X234270572Y-38618799D01*
X234288815Y-38709652D01*
X234305098Y-38860172D01*
X234319154Y-39057002D01*
X234330714Y-39286786D01*
X234339510Y-39536167D01*
X234345274Y-39791790D01*
X234347737Y-40040297D01*
X234346631Y-40268333D01*
X234341689Y-40462541D01*
X234332642Y-40609565D01*
X234319222Y-40696048D01*
X234312578Y-40710688D01*
X234238637Y-40750216D01*
X234122707Y-40768472D01*
X233999530Y-40764484D01*
X233903853Y-40737279D01*
X233883878Y-40722685D01*
X233866946Y-40678628D01*
X233854028Y-40580674D01*
X233844836Y-40423046D01*
X233839081Y-40199964D01*
X233836477Y-39905650D01*
X233836253Y-39766261D01*
X233835418Y-39462239D01*
X233832468Y-39226844D01*
X233826739Y-39049343D01*
X233817563Y-38918999D01*
X233804275Y-38825079D01*
X233786208Y-38756848D01*
X233771370Y-38720731D01*
X233666210Y-38576309D01*
X233525632Y-38495045D01*
X233360961Y-38475944D01*
X233183519Y-38518013D01*
X233004632Y-38620257D01*
X232835624Y-38781682D01*
X232816908Y-38804527D01*
X232705159Y-38944480D01*
X232685315Y-39847473D01*
X232665471Y-40750466D01*
X232470873Y-40762811D01*
X232323104Y-40759953D01*
X232247197Y-40728401D01*
X232243278Y-40723123D01*
X232233653Y-40669690D01*
X232225079Y-40549056D01*
X232217994Y-40373395D01*
X232212835Y-40154876D01*
X232210041Y-39905674D01*
X232209673Y-39788847D01*
X232207575Y-39450745D01*
X232200609Y-39182622D01*
X232186986Y-38975143D01*
X232164920Y-38818970D01*
X232132624Y-38704769D01*
X232088309Y-38623203D01*
X232030189Y-38564936D01*
X231967992Y-38526441D01*
X231787011Y-38472996D01*
X231599407Y-38497062D01*
X231404062Y-38599031D01*
X231199856Y-38779295D01*
X231177190Y-38803502D01*
X231145550Y-38839675D01*
X231121234Y-38877759D01*
X231103007Y-38928399D01*
X231089636Y-39002239D01*
X231079887Y-39109922D01*
X231072528Y-39262094D01*
X231066323Y-39469398D01*
X231060040Y-39742479D01*
X231058128Y-39830834D01*
X231038284Y-40750466D01*
X230831190Y-40762418D01*
X230708617Y-40765979D01*
X230642921Y-40753304D01*
X230612072Y-40716769D01*
X230601806Y-40683043D01*
X230596613Y-40621615D01*
X230592563Y-40491333D01*
X230589745Y-40302711D01*
X230588248Y-40066263D01*
X230588162Y-39792502D01*
X230589575Y-39491943D01*
X230590618Y-39362345D01*
X230601721Y-38132974D01*
X230705288Y-38096565D01*
X230824889Y-38078066D01*
X230913648Y-38086458D01*
X230978676Y-38111565D01*
X231009360Y-38159961D01*
X231018185Y-38256285D01*
X231018440Y-38293254D01*
X231018440Y-38473749D01*
X231187112Y-38337128D01*
X231383782Y-38193764D01*
X231558110Y-38106285D01*
X231732767Y-38065201D01*
X231851878Y-38058865D01*
X232065480Y-38086752D01*
G37*
G36*
X238573162Y-38099472D02*
G01*
X238632184Y-38149398D01*
X238638440Y-38175817D01*
X238626779Y-38231628D01*
X238594123Y-38351161D01*
X238543966Y-38523322D01*
X238479798Y-38737016D01*
X238405112Y-38981148D01*
X238323401Y-39244622D01*
X238238155Y-39516343D01*
X238152868Y-39785218D01*
X238071031Y-40040149D01*
X237996137Y-40270044D01*
X237931677Y-40463805D01*
X237881144Y-40610340D01*
X237848030Y-40698551D01*
X237838064Y-40718762D01*
X237777122Y-40745955D01*
X237665906Y-40763503D01*
X237533058Y-40770274D01*
X237407220Y-40765133D01*
X237317036Y-40746948D01*
X237302950Y-40739936D01*
X237279136Y-40694800D01*
X237237741Y-40584540D01*
X237182514Y-40420489D01*
X237117206Y-40213978D01*
X237045568Y-39976339D01*
X237010887Y-39857497D01*
X236938190Y-39607725D01*
X236871470Y-39382187D01*
X236814273Y-39192572D01*
X236770145Y-39050566D01*
X236742629Y-38967859D01*
X236736550Y-38952988D01*
X236718951Y-38974532D01*
X236684881Y-39062967D01*
X236637517Y-39208280D01*
X236580033Y-39400457D01*
X236515604Y-39629483D01*
X236478608Y-39766582D01*
X236410375Y-40020157D01*
X236346871Y-40250612D01*
X236291531Y-40445924D01*
X236247786Y-40594070D01*
X236219072Y-40683026D01*
X236211805Y-40700856D01*
X236173001Y-40740844D01*
X236097734Y-40762390D01*
X235967138Y-40770037D01*
X235923309Y-40770310D01*
X235766534Y-40762241D01*
X235662891Y-40739857D01*
X235632874Y-40720700D01*
X235612274Y-40671929D01*
X235571751Y-40556517D01*
X235514335Y-40383805D01*
X235443059Y-40163136D01*
X235360951Y-39903851D01*
X235271042Y-39615293D01*
X235211226Y-39420935D01*
X235106622Y-39078359D01*
X235023803Y-38803685D01*
X234960862Y-38589058D01*
X234915891Y-38426625D01*
X234886982Y-38308530D01*
X234872226Y-38226919D01*
X234869716Y-38173937D01*
X234877543Y-38141732D01*
X234893801Y-38122447D01*
X234895487Y-38121169D01*
X235002685Y-38080430D01*
X235138013Y-38075347D01*
X235257925Y-38107467D01*
X235259365Y-38108230D01*
X235291917Y-38152122D01*
X235338177Y-38258109D01*
X235399301Y-38429537D01*
X235476445Y-38669751D01*
X235570766Y-38982096D01*
X235622865Y-39159949D01*
X235701907Y-39429300D01*
X235774535Y-39671788D01*
X235837662Y-39877506D01*
X235888203Y-40036550D01*
X235923072Y-40139015D01*
X235939139Y-40174997D01*
X235954549Y-40138264D01*
X235986878Y-40034854D01*
X236033229Y-39874954D01*
X236090706Y-39668749D01*
X236156412Y-39426426D01*
X236217951Y-39194404D01*
X236300810Y-38886556D01*
X236376280Y-38621208D01*
X236441911Y-38406238D01*
X236495255Y-38249523D01*
X236533863Y-38158941D01*
X236544924Y-38142686D01*
X236650031Y-38085072D01*
X236781290Y-38076090D01*
X236900496Y-38117914D01*
X236906494Y-38122132D01*
X236942344Y-38179947D01*
X236995696Y-38312529D01*
X237065709Y-38517417D01*
X237151544Y-38792152D01*
X237252362Y-39134274D01*
X237255187Y-39144085D01*
X237332308Y-39409455D01*
X237403538Y-39649588D01*
X237465627Y-39853918D01*
X237515324Y-40011879D01*
X237549375Y-40112905D01*
X237563507Y-40146035D01*
X237581571Y-40117795D01*
X237617876Y-40022641D01*
X237669318Y-39870108D01*
X237732792Y-39669733D01*
X237805195Y-39431052D01*
X237883421Y-39163601D01*
X237884012Y-39161544D01*
X237983917Y-38819557D01*
X238066390Y-38550110D01*
X238132989Y-38348672D01*
X238185270Y-38210711D01*
X238224791Y-38131698D01*
X238245724Y-38109021D01*
X238354752Y-38075001D01*
X238472291Y-38073245D01*
X238573162Y-38099472D01*
G37*
G36*
X201204305Y-35458562D02*
G01*
X202762119Y-35458562D01*
X202766670Y-35735337D01*
X202772149Y-36006732D01*
X202780143Y-36360191D01*
X202789785Y-36645398D01*
X202802780Y-36873477D01*
X202820827Y-37055550D01*
X202845629Y-37202741D01*
X202878888Y-37326173D01*
X202922305Y-37436970D01*
X202977581Y-37546254D01*
X203018708Y-37618391D01*
X203203984Y-37857270D01*
X203452564Y-38054442D01*
X203758369Y-38206756D01*
X204115323Y-38311062D01*
X204447659Y-38359054D01*
X204566721Y-38369216D01*
X204586565Y-38805502D01*
X204606409Y-39241787D01*
X204725471Y-39265560D01*
X204870661Y-39276573D01*
X205015086Y-39259416D01*
X205122824Y-39218812D01*
X205132268Y-39212053D01*
X205158396Y-39154454D01*
X205174668Y-39027797D01*
X205181562Y-38827746D01*
X205181878Y-38761231D01*
X205181878Y-38349372D01*
X205324977Y-38349372D01*
X205482981Y-38333865D01*
X205679518Y-38293057D01*
X205881338Y-38235516D01*
X206055190Y-38169812D01*
X206094383Y-38151091D01*
X206312338Y-38007420D01*
X206520714Y-37812489D01*
X206693627Y-37592720D01*
X206767735Y-37463738D01*
X206826988Y-37327965D01*
X206873735Y-37183373D01*
X206909314Y-37018837D01*
X206935061Y-36823231D01*
X206952312Y-36585430D01*
X206962403Y-36294308D01*
X206966670Y-35938739D01*
X206967029Y-35804310D01*
X206966369Y-35510363D01*
X206963401Y-35286450D01*
X206957554Y-35123248D01*
X206948258Y-35011434D01*
X206934942Y-34941687D01*
X206917034Y-34904683D01*
X206911632Y-34899339D01*
X206837426Y-34873591D01*
X206708850Y-34863021D01*
X206623898Y-34864713D01*
X206392346Y-34876716D01*
X206372503Y-35948278D01*
X206352659Y-37019841D01*
X206240995Y-37247234D01*
X206093805Y-37477136D01*
X205902716Y-37649725D01*
X205660069Y-37770050D01*
X205358201Y-37843158D01*
X205330706Y-37847197D01*
X205181878Y-37868132D01*
X205181878Y-36407049D01*
X205181434Y-36017553D01*
X205179924Y-35700226D01*
X205177079Y-35447863D01*
X205172631Y-35253263D01*
X205166312Y-35109223D01*
X205157852Y-35008539D01*
X205146985Y-34944008D01*
X205133440Y-34908428D01*
X205125695Y-34899339D01*
X205051488Y-34873591D01*
X204922913Y-34863021D01*
X204837960Y-34864713D01*
X204606409Y-34876716D01*
X204596421Y-36325310D01*
X204593701Y-36657778D01*
X204590358Y-36965767D01*
X204586556Y-37240120D01*
X204582456Y-37471683D01*
X204578220Y-37651299D01*
X204574010Y-37769814D01*
X204570005Y-37818030D01*
X204522569Y-37841120D01*
X204420546Y-37839882D01*
X204283610Y-37818018D01*
X204131436Y-37779229D01*
X203983697Y-37727218D01*
X203910855Y-37694010D01*
X203701308Y-37549055D01*
X203541239Y-37348481D01*
X203449147Y-37156022D01*
X203427512Y-37086391D01*
X203409963Y-36995688D01*
X203395773Y-36873977D01*
X203384210Y-36711320D01*
X203374548Y-36497782D01*
X203366055Y-36223427D01*
X203359071Y-35928435D01*
X203336409Y-34876716D01*
X203104857Y-34864713D01*
X203002518Y-34859106D01*
X202922028Y-34859661D01*
X202860963Y-34874702D01*
X202816897Y-34912554D01*
X202787405Y-34981541D01*
X202770061Y-35089988D01*
X202762441Y-35246220D01*
X202762119Y-35458562D01*
X201204305Y-35458562D01*
X201205019Y-35442263D01*
X201216754Y-35174372D01*
X200786316Y-35174372D01*
X200556217Y-35169578D01*
X200398150Y-35155405D01*
X200315251Y-35132165D01*
X200308253Y-35126747D01*
X200275175Y-35051189D01*
X200262200Y-34934636D01*
X200269328Y-34812877D01*
X200296559Y-34721705D01*
X200308253Y-34706059D01*
X200376500Y-34681115D01*
X200520372Y-34665187D01*
X200736597Y-34658602D01*
X200784503Y-34658435D01*
X201213128Y-34658435D01*
X201213128Y-34467067D01*
X201250814Y-34180465D01*
X201361522Y-33920978D01*
X201509650Y-33729064D01*
X201686780Y-33569492D01*
X201860901Y-33469090D01*
X202060803Y-33414301D01*
X202214920Y-33396959D01*
X202483128Y-33377769D01*
X202483128Y-32954477D01*
X202487992Y-32727482D01*
X202502335Y-32571375D01*
X202525786Y-32489840D01*
X202530753Y-32483559D01*
X202606310Y-32450482D01*
X202722864Y-32437507D01*
X202844623Y-32444635D01*
X202935795Y-32471866D01*
X202951440Y-32483559D01*
X202976368Y-32551814D01*
X202992289Y-32695831D01*
X202998890Y-32912477D01*
X202999065Y-32961623D01*
X202999065Y-33392061D01*
X203266956Y-33380326D01*
X203534846Y-33368591D01*
X203546197Y-32933488D01*
X203556739Y-32704903D01*
X203574359Y-32551323D01*
X203598824Y-32474576D01*
X203605728Y-32467767D01*
X203688400Y-32443505D01*
X203806784Y-32437408D01*
X203925931Y-32448154D01*
X204010892Y-32474419D01*
X204023002Y-32483559D01*
X204047931Y-32551814D01*
X204063852Y-32695831D01*
X204070453Y-32912477D01*
X204070628Y-32961623D01*
X204070628Y-33392061D01*
X204338518Y-33380326D01*
X204606409Y-33368591D01*
X204617759Y-32933488D01*
X204628302Y-32704903D01*
X204645922Y-32551323D01*
X204670386Y-32474576D01*
X204677290Y-32467767D01*
X204745253Y-32448343D01*
X204855759Y-32437386D01*
X204892747Y-32436542D01*
X204992224Y-32443591D01*
X205061366Y-32473517D01*
X205105546Y-32538216D01*
X205130136Y-32649588D01*
X205140508Y-32819529D01*
X205142190Y-32988950D01*
X205142190Y-33388435D01*
X205400159Y-33388435D01*
X205658128Y-33388435D01*
X205658128Y-32988950D01*
X205661468Y-32768302D01*
X205675072Y-32614980D01*
X205704312Y-32517087D01*
X205754561Y-32462725D01*
X205831190Y-32439995D01*
X205907571Y-32436542D01*
X206023782Y-32443809D01*
X206108800Y-32461188D01*
X206123027Y-32467767D01*
X206149108Y-32525695D01*
X206168402Y-32660898D01*
X206180674Y-32871546D01*
X206182558Y-32933488D01*
X206193909Y-33368591D01*
X206461799Y-33380326D01*
X206729690Y-33392061D01*
X206729690Y-32961623D01*
X206734484Y-32731524D01*
X206748657Y-32573457D01*
X206771897Y-32490558D01*
X206777315Y-32483559D01*
X206847775Y-32453502D01*
X206961442Y-32438622D01*
X207083370Y-32440244D01*
X207178608Y-32459690D01*
X207194590Y-32467767D01*
X207220671Y-32525695D01*
X207239965Y-32660898D01*
X207252237Y-32871546D01*
X207254121Y-32933488D01*
X207265471Y-33368591D01*
X207527475Y-33391135D01*
X207817605Y-33452081D01*
X208066075Y-33578338D01*
X208268025Y-33764892D01*
X208418596Y-34006725D01*
X208512930Y-34298822D01*
X208534021Y-34430231D01*
X208561027Y-34658435D01*
X208990487Y-34658435D01*
X209191475Y-34659775D01*
X209326297Y-34668831D01*
X209408164Y-34693157D01*
X209450285Y-34740305D01*
X209465870Y-34817830D01*
X209468128Y-34931555D01*
X209461867Y-35031949D01*
X209434662Y-35100240D01*
X209373875Y-35142517D01*
X209266870Y-35164866D01*
X209101010Y-35173376D01*
X208964096Y-35174372D01*
X208555315Y-35174372D01*
X208555315Y-35450885D01*
X208555315Y-35727397D01*
X209001799Y-35738619D01*
X209448284Y-35749841D01*
X209460506Y-35941440D01*
X209463467Y-36066001D01*
X209445550Y-36151072D01*
X209394651Y-36204125D01*
X209298663Y-36232631D01*
X209145481Y-36244062D01*
X208967174Y-36245935D01*
X208555315Y-36245935D01*
X208555315Y-36522447D01*
X208555315Y-36798960D01*
X209001799Y-36810182D01*
X209448284Y-36821403D01*
X209448284Y-37039685D01*
X209448284Y-37257966D01*
X209001799Y-37269187D01*
X208555315Y-37280409D01*
X208555315Y-37556922D01*
X208555315Y-37833435D01*
X208944605Y-37833435D01*
X209159903Y-37837075D01*
X209307702Y-37852520D01*
X209399718Y-37886557D01*
X209447669Y-37945973D01*
X209463272Y-38037555D01*
X209460732Y-38132405D01*
X209448284Y-38329528D01*
X209001799Y-38340750D01*
X208555315Y-38351972D01*
X208555315Y-38628484D01*
X208555315Y-38904997D01*
X208964096Y-38904997D01*
X209172490Y-38908013D01*
X209314247Y-38921119D01*
X209402003Y-38950403D01*
X209448395Y-39001953D01*
X209466060Y-39081856D01*
X209468128Y-39147814D01*
X209465784Y-39262741D01*
X209449946Y-39339834D01*
X209407405Y-39386647D01*
X209324950Y-39410732D01*
X209189373Y-39419644D01*
X208990487Y-39420935D01*
X208561027Y-39420935D01*
X208533736Y-39649138D01*
X208462157Y-39965130D01*
X208330652Y-40229676D01*
X208141783Y-40440211D01*
X207898113Y-40594175D01*
X207602204Y-40689003D01*
X207473831Y-40709328D01*
X207245628Y-40736334D01*
X207245628Y-41165794D01*
X207244287Y-41366782D01*
X207235231Y-41501604D01*
X207210905Y-41583471D01*
X207163757Y-41625592D01*
X207086232Y-41641177D01*
X206972507Y-41643435D01*
X206872113Y-41637174D01*
X206803822Y-41609969D01*
X206761545Y-41549182D01*
X206739196Y-41442177D01*
X206730686Y-41276317D01*
X206729690Y-41139403D01*
X206729690Y-40730622D01*
X206451878Y-40730622D01*
X206174065Y-40730622D01*
X206174065Y-41162938D01*
X206172793Y-41364630D01*
X206163865Y-41500118D01*
X206139616Y-41582571D01*
X206092381Y-41625161D01*
X206014494Y-41641059D01*
X205898288Y-41643434D01*
X205894403Y-41643435D01*
X205798379Y-41634760D01*
X205732127Y-41600758D01*
X205690344Y-41529459D01*
X205667726Y-41408893D01*
X205658967Y-41227090D01*
X205658128Y-41110262D01*
X205658128Y-40730622D01*
X205400159Y-40730622D01*
X205142190Y-40730622D01*
X205142190Y-41110262D01*
X205138346Y-41326948D01*
X205123278Y-41476449D01*
X205091682Y-41570735D01*
X205038253Y-41621776D01*
X204957687Y-41641540D01*
X204905915Y-41643435D01*
X204788524Y-41641248D01*
X204709667Y-41625909D01*
X204661677Y-41584247D01*
X204636888Y-41503091D01*
X204627635Y-41369270D01*
X204626253Y-41169614D01*
X204626253Y-41162938D01*
X204626253Y-40730622D01*
X204348440Y-40730622D01*
X204070628Y-40730622D01*
X204070628Y-41139403D01*
X204067612Y-41347797D01*
X204054506Y-41489554D01*
X204025221Y-41577310D01*
X203973672Y-41623702D01*
X203893769Y-41641367D01*
X203827811Y-41643435D01*
X203713166Y-41641124D01*
X203636153Y-41625412D01*
X203589284Y-41583128D01*
X203565076Y-41501101D01*
X203556039Y-41366162D01*
X203554690Y-41165140D01*
X203554690Y-41162938D01*
X203554690Y-40730622D01*
X203276878Y-40730622D01*
X202999065Y-40730622D01*
X202999065Y-41139403D01*
X202994052Y-41360025D01*
X202979352Y-41512156D01*
X202955473Y-41590926D01*
X202951440Y-41595810D01*
X202883578Y-41626146D01*
X202773918Y-41642510D01*
X202741096Y-41643435D01*
X202626463Y-41632451D01*
X202543248Y-41605145D01*
X202530753Y-41595810D01*
X202505608Y-41527681D01*
X202489585Y-41385754D01*
X202483218Y-41175139D01*
X202483128Y-41142259D01*
X202483128Y-40736334D01*
X202254924Y-40709328D01*
X201942802Y-40639471D01*
X201680714Y-40512222D01*
X201473059Y-40331897D01*
X201324235Y-40102813D01*
X201238639Y-39829284D01*
X201222127Y-39695777D01*
X201202462Y-39420935D01*
X200755635Y-39420935D01*
X200550390Y-39419749D01*
X200411545Y-39411419D01*
X200326123Y-39388786D01*
X200281147Y-39344689D01*
X200263642Y-39271969D01*
X200260631Y-39163467D01*
X200260628Y-39147814D01*
X200266466Y-39049231D01*
X200292258Y-38981544D01*
X200350416Y-38939018D01*
X200453353Y-38915919D01*
X200613481Y-38906514D01*
X200786316Y-38904997D01*
X201216754Y-38904997D01*
X201205019Y-38637106D01*
X201193284Y-38369216D01*
X200758181Y-38357865D01*
X200529596Y-38347323D01*
X200376016Y-38329703D01*
X200299269Y-38305238D01*
X200292460Y-38298334D01*
X200264961Y-38204185D01*
X200264283Y-38079004D01*
X200287527Y-37961001D01*
X200322994Y-37895801D01*
X200371163Y-37866015D01*
X200453780Y-37846956D01*
X200585342Y-37836733D01*
X200780352Y-37833454D01*
X200801057Y-37833435D01*
X201216754Y-37833435D01*
X201205019Y-37565544D01*
X201193284Y-37297653D01*
X200758181Y-37286303D01*
X200552379Y-37279049D01*
X200413035Y-37265705D01*
X200327229Y-37239852D01*
X200282046Y-37195071D01*
X200264566Y-37124945D01*
X200261843Y-37039685D01*
X200265847Y-36942691D01*
X200286470Y-36876551D01*
X200336630Y-36834846D01*
X200429244Y-36811158D01*
X200577230Y-36799069D01*
X200758181Y-36793066D01*
X201193284Y-36781716D01*
X201205019Y-36513825D01*
X201216754Y-36245935D01*
X200815457Y-36245935D01*
X200594404Y-36242619D01*
X200440695Y-36229109D01*
X200342449Y-36200055D01*
X200287781Y-36150109D01*
X200264811Y-36073924D01*
X200261235Y-35996491D01*
X200268502Y-35880280D01*
X200285881Y-35795262D01*
X200292460Y-35781035D01*
X200350388Y-35754954D01*
X200485591Y-35735660D01*
X200696239Y-35723388D01*
X200758181Y-35721504D01*
X201193284Y-35710153D01*
X201204305Y-35458562D01*
G37*
%TD*%
D10*
%TO.C,SW64*%
X200500000Y-130000000D03*
X149500000Y-130000000D03*
X177500000Y-99400000D03*
X172500000Y-99400000D03*
X175000000Y-99400000D03*
D11*
X205099999Y-129999999D03*
D12*
X190100000Y-156153967D03*
X190100000Y-103846033D03*
D13*
X189500000Y-130000000D03*
X160500000Y-130000000D03*
D12*
X159900000Y-156153967D03*
X159900000Y-103846033D03*
D11*
X144899999Y-129999999D03*
%TD*%
D14*
%TO.C,H3*%
X48371260Y-37949041D03*
%TD*%
%TO.C,H2*%
X301126734Y-37950289D03*
%TD*%
D15*
%TO.C,J9*%
X297899999Y-38699997D03*
D16*
X295359999Y-38699997D03*
X292819999Y-38699997D03*
X290279999Y-38699997D03*
%TD*%
D15*
%TO.C,J4*%
X155000000Y-33429998D03*
D16*
X155000000Y-35969998D03*
X155000000Y-38509998D03*
X155000000Y-41049998D03*
X155000000Y-43589998D03*
X155000000Y-46129998D03*
X155000000Y-48669998D03*
D17*
X155250001Y-25049999D03*
X155250001Y-57049999D03*
X194750001Y-25049999D03*
X194750001Y-57049999D03*
%TD*%
D18*
%TO.C,J5*%
X148699885Y-47046790D03*
D19*
X148699884Y-45046789D03*
X148699884Y-43046789D03*
X148699884Y-41046789D03*
X148699884Y-39046789D03*
X148699884Y-37046789D03*
X148699884Y-35046789D03*
%TD*%
D14*
%TO.C,H1*%
X174999999Y-185749998D03*
%TD*%
D15*
%TO.C,J1*%
X171099826Y-65446785D03*
D16*
X173639826Y-65446785D03*
X176179826Y-65446785D03*
X178719826Y-65446785D03*
%TD*%
D20*
%TO.C,H4*%
X185500004Y-25846787D03*
%TD*%
D21*
%TO.C,SW25*%
X119959526Y-150253806D03*
D22*
X120299822Y-144584397D03*
D23*
X115560117Y-147713806D03*
D22*
X113530560Y-143609101D03*
D21*
X111160708Y-145173806D03*
%TD*%
%TO.C,SW30*%
X136517845Y-164685345D03*
D22*
X138313897Y-159297192D03*
D23*
X132925743Y-161093243D03*
D22*
X132027717Y-156603115D03*
D21*
X129333641Y-157501141D03*
%TD*%
%TO.C,SW1*%
X51742695Y-51232842D03*
D22*
X50604044Y-45668538D03*
D23*
X46835792Y-49918041D03*
D22*
X43813015Y-46478489D03*
D21*
X41928889Y-48603240D03*
%TD*%
%TO.C,SW24*%
X112403677Y-119257189D03*
D22*
X111265026Y-113692885D03*
D23*
X107496774Y-117942388D03*
D22*
X104473997Y-114502836D03*
D21*
X102589871Y-116627587D03*
%TD*%
%TO.C,SW29*%
X129982796Y-127254534D03*
D22*
X128844145Y-121690230D03*
D23*
X125075893Y-125939733D03*
D22*
X122053116Y-122500181D03*
D21*
X120168990Y-124624932D03*
%TD*%
%TO.C,SW14*%
X75601885Y-109396193D03*
D22*
X74463234Y-103831889D03*
D23*
X70694982Y-108081392D03*
D22*
X67672205Y-104641840D03*
D21*
X65788079Y-106766591D03*
%TD*%
%TO.C,SW19*%
X95029968Y-110493160D03*
D22*
X93891317Y-104928856D03*
D23*
X90123065Y-109178359D03*
D22*
X87100288Y-105738807D03*
D21*
X85216162Y-107863558D03*
%TD*%
%TO.C,SW5*%
X32020677Y-124836407D03*
D22*
X30882026Y-119272103D03*
D23*
X27113774Y-123521606D03*
D22*
X24090997Y-120082054D03*
D21*
X22206871Y-122206805D03*
%TD*%
%TO.C,SW22*%
X122264668Y-82455407D03*
D22*
X121126017Y-76891103D03*
D23*
X117357765Y-81140606D03*
D22*
X114334988Y-77701054D03*
D21*
X112450862Y-79825805D03*
%TD*%
%TO.C,SW27*%
X139843801Y-90452745D03*
D22*
X138705150Y-84888441D03*
D23*
X134936898Y-89137944D03*
D22*
X131914121Y-85698392D03*
D21*
X130029995Y-87823143D03*
%TD*%
%TO.C,SW3*%
X41881672Y-88034633D03*
D22*
X40743021Y-82470329D03*
D23*
X36974769Y-86719832D03*
D22*
X33951992Y-83280280D03*
D21*
X32067866Y-85405031D03*
%TD*%
%TO.C,SW8*%
X60898885Y-90665007D03*
D22*
X59760234Y-85100703D03*
D23*
X55991982Y-89350206D03*
D22*
X52969205Y-85910654D03*
D21*
X51085079Y-88035405D03*
%TD*%
%TO.C,SW13*%
X80532398Y-90995293D03*
D22*
X79393747Y-85430989D03*
D23*
X75625495Y-89680492D03*
D22*
X72602718Y-86240940D03*
D21*
X70718592Y-88365691D03*
%TD*%
%TO.C,SW23*%
X117334179Y-100856333D03*
D22*
X116195528Y-95292029D03*
D23*
X112427276Y-99541532D03*
D22*
X109404499Y-96101980D03*
D21*
X107520373Y-98226731D03*
%TD*%
%TO.C,SW18*%
X99960451Y-92092278D03*
D22*
X98821800Y-86527974D03*
D23*
X95053548Y-90777477D03*
D22*
X92030771Y-87337925D03*
D21*
X90146645Y-89462676D03*
%TD*%
%TO.C,SW28*%
X134913293Y-108853633D03*
D22*
X133774642Y-103289329D03*
D23*
X130006390Y-107538832D03*
D22*
X126983613Y-104099280D03*
D21*
X125099487Y-106224031D03*
%TD*%
%TO.C,SW4*%
X36951192Y-106435531D03*
D22*
X35812541Y-100871227D03*
D23*
X32044289Y-105120730D03*
D22*
X29021512Y-101681178D03*
D21*
X27137386Y-103805929D03*
%TD*%
%TO.C,SW9*%
X55968355Y-109065912D03*
D22*
X54829704Y-103501608D03*
D23*
X51061452Y-107751111D03*
D22*
X48038675Y-104311559D03*
D21*
X46154549Y-106436310D03*
%TD*%
%TO.C,SW10*%
X51037875Y-127466795D03*
D22*
X49899224Y-121902491D03*
D23*
X46130972Y-126151994D03*
D22*
X43108195Y-122712442D03*
D21*
X41224069Y-124837193D03*
%TD*%
%TO.C,SW15*%
X70671386Y-127797072D03*
D22*
X69532735Y-122232768D03*
D23*
X65764483Y-126482271D03*
D22*
X62741706Y-123042719D03*
D21*
X60857580Y-125167470D03*
%TD*%
%TO.C,SW20*%
X100106900Y-140614800D03*
D22*
X98968249Y-135050496D03*
D23*
X95199997Y-139299999D03*
D22*
X92177220Y-135860447D03*
D21*
X90293094Y-137985198D03*
%TD*%
%TO.C,SW11*%
X90393398Y-54193542D03*
D22*
X89254747Y-48629238D03*
D23*
X85486495Y-52878741D03*
D22*
X82463718Y-49439189D03*
D21*
X80579592Y-51563940D03*
%TD*%
%TO.C,SW2*%
X46812191Y-69633740D03*
D22*
X45673540Y-64069436D03*
D23*
X41905288Y-68318939D03*
D22*
X38882511Y-64879387D03*
D21*
X36998385Y-67004138D03*
%TD*%
%TO.C,SW12*%
X85462891Y-72594407D03*
D22*
X84324240Y-67030103D03*
D23*
X80555988Y-71279606D03*
D22*
X77533211Y-67840054D03*
D21*
X75649085Y-69964805D03*
%TD*%
%TO.C,SW21*%
X127195178Y-64054527D03*
D22*
X126056527Y-58490223D03*
D23*
X122288275Y-62739726D03*
D22*
X119265498Y-59300174D03*
D21*
X117381372Y-61424925D03*
%TD*%
%TO.C,SW17*%
X104890970Y-73691408D03*
D22*
X103752319Y-68127104D03*
D23*
X99984067Y-72376607D03*
D22*
X96961290Y-68937055D03*
D21*
X95077164Y-71061806D03*
%TD*%
%TO.C,SW16*%
X109821471Y-55290498D03*
D22*
X108682820Y-49726194D03*
D23*
X104914568Y-53975697D03*
D22*
X101891791Y-50536145D03*
D21*
X100007665Y-52660896D03*
%TD*%
%TO.C,SW6*%
X70759885Y-53863245D03*
D22*
X69621234Y-48298941D03*
D23*
X65852982Y-52548444D03*
D22*
X62830205Y-49108892D03*
D21*
X60946079Y-51233643D03*
%TD*%
%TO.C,SW7*%
X65829384Y-72264130D03*
D22*
X64690733Y-66699826D03*
D23*
X60922481Y-70949329D03*
D22*
X57899704Y-67509777D03*
D21*
X56015578Y-69634528D03*
%TD*%
%TO.C,SW26*%
X144774305Y-72051854D03*
D22*
X143635654Y-66487550D03*
D23*
X139867402Y-70737053D03*
D22*
X136844625Y-67297501D03*
D21*
X134960499Y-69422252D03*
%TD*%
%TO.C,SW31*%
X215039536Y-69422261D03*
D22*
X211271284Y-65172758D03*
D23*
X210132633Y-70737062D03*
D22*
X205795055Y-69269711D03*
D21*
X205225730Y-72051863D03*
%TD*%
%TO.C,SW62*%
X180080022Y-175909991D03*
D22*
X177540022Y-170829991D03*
D23*
X175000022Y-175909991D03*
D22*
X171190022Y-173369991D03*
D21*
X169920022Y-175909991D03*
%TD*%
D24*
%TO.C,J6*%
X60166413Y-28680059D03*
D25*
X61032171Y-32585243D03*
D24*
X71139980Y-26247278D03*
D25*
X72005738Y-30152462D03*
%TD*%
D21*
%TO.C,SW45*%
X259706932Y-137985194D03*
D22*
X255938680Y-133735691D03*
D23*
X254800029Y-139299995D03*
D22*
X250462451Y-137832644D03*
D21*
X249893126Y-140614796D03*
%TD*%
%TO.C,SW49*%
X284211946Y-106766611D03*
D22*
X280443694Y-102517108D03*
D23*
X279305043Y-108081412D03*
D22*
X274967465Y-106614061D03*
D21*
X274398140Y-109396213D03*
%TD*%
%TO.C,SW47*%
X274350949Y-69964821D03*
D22*
X270582697Y-65715318D03*
D23*
X269444046Y-71279622D03*
D22*
X265106468Y-69812271D03*
D21*
X264537143Y-72594423D03*
%TD*%
%TO.C,SW63*%
X201266905Y-171775203D03*
D22*
X197498653Y-167525700D03*
D23*
X196360002Y-173090004D03*
D22*
X192022424Y-171622653D03*
D21*
X191453099Y-174404805D03*
%TD*%
%TO.C,SW61*%
X158546904Y-174404783D03*
D22*
X157408253Y-168840479D03*
D23*
X153640001Y-173089982D03*
D22*
X150617224Y-169650430D03*
D21*
X148733098Y-171775181D03*
%TD*%
%TO.C,SW33*%
X224900533Y-106224025D03*
D22*
X221132281Y-101974522D03*
D23*
X219993630Y-107538826D03*
D22*
X215656052Y-106071475D03*
D21*
X215086727Y-108853627D03*
%TD*%
%TO.C,SW59*%
X322862651Y-103805923D03*
D22*
X319094399Y-99556420D03*
D23*
X317955748Y-105120724D03*
D22*
X313618170Y-103653373D03*
D21*
X313048845Y-106435525D03*
%TD*%
%TO.C,SW38*%
X242479684Y-98226721D03*
D22*
X238711432Y-93977218D03*
D23*
X237572781Y-99541522D03*
D22*
X233235203Y-98074171D03*
D21*
X232665878Y-100856323D03*
%TD*%
D26*
%TO.C,J2*%
X169380000Y-19599995D03*
D27*
X169380000Y-23599995D03*
D26*
X180620000Y-19599995D03*
D27*
X180620000Y-23599995D03*
%TD*%
D21*
%TO.C,SW50*%
X289142448Y-125167488D03*
D22*
X285374196Y-120917985D03*
D23*
X284235545Y-126482289D03*
D22*
X279897967Y-125014938D03*
D21*
X279328642Y-127797090D03*
%TD*%
%TO.C,SW58*%
X317932150Y-85405012D03*
D22*
X314163898Y-81155509D03*
D23*
X313025247Y-86719813D03*
D22*
X308687669Y-85252462D03*
D21*
X308118344Y-88034614D03*
%TD*%
D28*
%TO.C,U4*%
X180349999Y-124339999D03*
D29*
X180350000Y-126120000D03*
X180350000Y-127900000D03*
X180350000Y-129680000D03*
X180350000Y-131460000D03*
X180350000Y-133240000D03*
X180350000Y-135020000D03*
X180350000Y-136800000D03*
X169650000Y-137690000D03*
X169650000Y-135910000D03*
X169650000Y-134130000D03*
X169650000Y-132350000D03*
X169650000Y-130570000D03*
X169650000Y-128790000D03*
X169650000Y-127010000D03*
X169650000Y-125230000D03*
%TD*%
D21*
%TO.C,SW43*%
X259853355Y-89462679D03*
D22*
X256085103Y-85213176D03*
D23*
X254946452Y-90777480D03*
D22*
X250608874Y-89310129D03*
D21*
X250039549Y-92092281D03*
%TD*%
%TO.C,SW57*%
X313001640Y-67004137D03*
D22*
X309233388Y-62754634D03*
D23*
X308094737Y-68318938D03*
D22*
X303757159Y-66851587D03*
D21*
X303187834Y-69633739D03*
%TD*%
%TO.C,SW52*%
X293984460Y-69634530D03*
D22*
X290216208Y-65385027D03*
D23*
X289077557Y-70949331D03*
D22*
X284739979Y-69481980D03*
D21*
X284170654Y-72264132D03*
%TD*%
%TO.C,SW44*%
X264783872Y-107863559D03*
D22*
X261015620Y-103614056D03*
D23*
X259876969Y-109178360D03*
D22*
X255539391Y-107711009D03*
D21*
X254970066Y-110493161D03*
%TD*%
%TO.C,SW41*%
X249992361Y-52660912D03*
D22*
X246224109Y-48411409D03*
D23*
X245085458Y-53975713D03*
D22*
X240747880Y-52508362D03*
D21*
X240178555Y-55290514D03*
%TD*%
%TO.C,SW40*%
X238839315Y-145173790D03*
D22*
X234099611Y-142044381D03*
D23*
X234439906Y-147713790D03*
D22*
X229870349Y-147419085D03*
D21*
X230040497Y-150253790D03*
%TD*%
%TO.C,SW46*%
X269420435Y-51563940D03*
D22*
X265652183Y-47314437D03*
D23*
X264513532Y-52878741D03*
D22*
X260175954Y-51411390D03*
D21*
X259606629Y-54193542D03*
%TD*%
%TO.C,SW51*%
X289053950Y-51233658D03*
D22*
X285285698Y-46984155D03*
D23*
X284147047Y-52548459D03*
D22*
X279809469Y-51081108D03*
D21*
X279240144Y-53863260D03*
%TD*%
%TO.C,SW60*%
X327793146Y-122206797D03*
D22*
X324024894Y-117957294D03*
D23*
X322886243Y-123521598D03*
D22*
X318548665Y-122054247D03*
D21*
X317979340Y-124836399D03*
%TD*%
%TO.C,SW37*%
X237549177Y-79825839D03*
D22*
X233780925Y-75576336D03*
D23*
X232642274Y-81140640D03*
D22*
X228304696Y-79673289D03*
D21*
X227735371Y-82455441D03*
%TD*%
%TO.C,SW54*%
X303845465Y-106436315D03*
D22*
X300077213Y-102186812D03*
D23*
X298938562Y-107751116D03*
D22*
X294600984Y-106283765D03*
D21*
X294031659Y-109065917D03*
%TD*%
%TO.C,SW55*%
X308775968Y-124837202D03*
D22*
X305007716Y-120587699D03*
D23*
X303869065Y-126152003D03*
D22*
X299531487Y-124684652D03*
D21*
X298962162Y-127466804D03*
%TD*%
%TO.C,SW48*%
X279281447Y-88365709D03*
D22*
X275513195Y-84116206D03*
D23*
X274374544Y-89680510D03*
D22*
X270036966Y-88213159D03*
D21*
X269467641Y-90995311D03*
%TD*%
%TO.C,SW53*%
X298914960Y-88035419D03*
D22*
X295146708Y-83785916D03*
D23*
X294008057Y-89350220D03*
D22*
X289670479Y-87882869D03*
D21*
X289101154Y-90665021D03*
%TD*%
%TO.C,SW35*%
X220666391Y-157501133D03*
D22*
X215278238Y-155705081D03*
D23*
X217074289Y-161093235D03*
D22*
X212584161Y-161991261D03*
D21*
X213482187Y-164685337D03*
%TD*%
%TO.C,SW34*%
X229831039Y-124624913D03*
D22*
X226062787Y-120375410D03*
D23*
X224924136Y-125939714D03*
D22*
X220586558Y-124472363D03*
D21*
X220017233Y-127254515D03*
%TD*%
%TO.C,SW42*%
X254922860Y-71061799D03*
D22*
X251154608Y-66812296D03*
D23*
X250015957Y-72376600D03*
D22*
X245678379Y-70909249D03*
D21*
X245109054Y-73691401D03*
%TD*%
D30*
%TO.C,J7*%
X278860020Y-26247278D03*
D31*
X277994262Y-30152462D03*
D30*
X289833587Y-28680059D03*
D31*
X288967829Y-32585243D03*
%TD*%
D21*
%TO.C,SW56*%
X308071146Y-48603260D03*
D22*
X304302894Y-44353757D03*
D23*
X303164243Y-49918061D03*
D22*
X298826665Y-48450710D03*
D21*
X298257340Y-51232862D03*
%TD*%
%TO.C,SW36*%
X232618657Y-61424958D03*
D22*
X228850405Y-57175455D03*
D23*
X227711754Y-62739759D03*
D22*
X223374176Y-61272408D03*
D21*
X222804851Y-64054560D03*
%TD*%
%TO.C,SW39*%
X247410178Y-116627607D03*
D22*
X243641926Y-112378104D03*
D23*
X242503275Y-117942408D03*
D22*
X238165697Y-116475057D03*
D21*
X237596372Y-119257209D03*
%TD*%
%TO.C,SW32*%
X219970031Y-87823148D03*
D22*
X216201779Y-83573645D03*
D23*
X215063128Y-89137949D03*
D22*
X210725550Y-87670598D03*
D21*
X210156225Y-90452750D03*
%TD*%
M02*
