%TF.GenerationSoftware,KiCad,Pcbnew,(7.0.0)*%
%TF.CreationDate,2023-03-24T23:17:22+00:00*%
%TF.ProjectId,Honeydew,486f6e65-7964-4657-972e-6b696361645f,rev?*%
%TF.SameCoordinates,Original*%
%TF.FileFunction,Soldermask,Top*%
%TF.FilePolarity,Negative*%
%FSLAX46Y46*%
G04 Gerber Fmt 4.6, Leading zero omitted, Abs format (unit mm)*
G04 Created by KiCad (PCBNEW (7.0.0)) date 2023-03-24 23:17:22*
%MOMM*%
%LPD*%
G01*
G04 APERTURE LIST*
G04 Aperture macros list*
%AMRoundRect*
0 Rectangle with rounded corners*
0 $1 Rounding radius*
0 $2 $3 $4 $5 $6 $7 $8 $9 X,Y pos of 4 corners*
0 Add a 4 corners polygon primitive as box body*
4,1,4,$2,$3,$4,$5,$6,$7,$8,$9,$2,$3,0*
0 Add four circle primitives for the rounded corners*
1,1,$1+$1,$2,$3*
1,1,$1+$1,$4,$5*
1,1,$1+$1,$6,$7*
1,1,$1+$1,$8,$9*
0 Add four rect primitives between the rounded corners*
20,1,$1+$1,$2,$3,$4,$5,0*
20,1,$1+$1,$4,$5,$6,$7,0*
20,1,$1+$1,$6,$7,$8,$9,0*
20,1,$1+$1,$8,$9,$2,$3,0*%
G04 Aperture macros list end*
%ADD10C,0.100000*%
%ADD11C,2.000000*%
%ADD12R,2.500000X6.000000*%
%ADD13C,3.500000*%
%ADD14C,5.600000*%
%ADD15C,1.152000*%
%ADD16C,0.650000*%
%ADD17R,0.600000X1.450000*%
%ADD18R,0.300000X1.450000*%
%ADD19O,1.000000X2.100000*%
%ADD20O,1.000000X1.600000*%
%ADD21RoundRect,0.250000X0.625000X-0.350000X0.625000X0.350000X-0.625000X0.350000X-0.625000X-0.350000X0*%
%ADD22O,1.750000X1.200000*%
%ADD23R,1.700000X1.700000*%
%ADD24O,1.700000X1.700000*%
%ADD25C,4.000000*%
%ADD26C,1.750000*%
%ADD27C,3.000000*%
%ADD28C,3.987800*%
%ADD29R,1.200000X1.200000*%
%ADD30C,1.200000*%
G04 APERTURE END LIST*
%TO.C,A1*%
G36*
X166013378Y-142029669D02*
G01*
X165978511Y-142180672D01*
X165844045Y-142199003D01*
X165634974Y-142106068D01*
X165674711Y-142029669D01*
X165976150Y-141999270D01*
X166013378Y-142029669D01*
G37*
D10*
X166013378Y-142029669D02*
X165978511Y-142180672D01*
X165844045Y-142199003D01*
X165634974Y-142106068D01*
X165674711Y-142029669D01*
X165976150Y-141999270D01*
X166013378Y-142029669D01*
G36*
X166267378Y-140759669D02*
G01*
X166297777Y-141061108D01*
X166267378Y-141098336D01*
X166116375Y-141063469D01*
X166098045Y-140929003D01*
X166190979Y-140719932D01*
X166267378Y-140759669D01*
G37*
X166267378Y-140759669D02*
X166297777Y-141061108D01*
X166267378Y-141098336D01*
X166116375Y-141063469D01*
X166098045Y-140929003D01*
X166190979Y-140719932D01*
X166267378Y-140759669D01*
G36*
X163050045Y-143088003D02*
G01*
X163292356Y-143316249D01*
X163304045Y-143356993D01*
X163107527Y-143466090D01*
X163050045Y-143469003D01*
X162805805Y-143273739D01*
X162796045Y-143200012D01*
X162951654Y-143048314D01*
X163050045Y-143088003D01*
G37*
X163050045Y-143088003D02*
X163292356Y-143316249D01*
X163304045Y-143356993D01*
X163107527Y-143466090D01*
X163050045Y-143469003D01*
X162805805Y-143273739D01*
X162796045Y-143200012D01*
X162951654Y-143048314D01*
X163050045Y-143088003D01*
G36*
X164808475Y-142083613D02*
G01*
X164828045Y-142169022D01*
X164642687Y-142528096D01*
X164574045Y-142580003D01*
X164339614Y-142568392D01*
X164320045Y-142482983D01*
X164505402Y-142123909D01*
X164574045Y-142072003D01*
X164808475Y-142083613D01*
G37*
X164808475Y-142083613D02*
X164828045Y-142169022D01*
X164642687Y-142528096D01*
X164574045Y-142580003D01*
X164339614Y-142568392D01*
X164320045Y-142482983D01*
X164505402Y-142123909D01*
X164574045Y-142072003D01*
X164808475Y-142083613D01*
G36*
X167280733Y-140068612D02*
G01*
X167241045Y-140167003D01*
X167012798Y-140409314D01*
X166972054Y-140421003D01*
X166862957Y-140224485D01*
X166860045Y-140167003D01*
X167055308Y-139922763D01*
X167129035Y-139913003D01*
X167280733Y-140068612D01*
G37*
X167280733Y-140068612D02*
X167241045Y-140167003D01*
X167012798Y-140409314D01*
X166972054Y-140421003D01*
X166862957Y-140224485D01*
X166860045Y-140167003D01*
X167055308Y-139922763D01*
X167129035Y-139913003D01*
X167280733Y-140068612D01*
G36*
X172186664Y-140360290D02*
G01*
X172194045Y-140421003D01*
X172000757Y-140667622D01*
X171940045Y-140675003D01*
X171693425Y-140481715D01*
X171686045Y-140421003D01*
X171879332Y-140174383D01*
X171940045Y-140167003D01*
X172186664Y-140360290D01*
G37*
X172186664Y-140360290D02*
X172194045Y-140421003D01*
X172000757Y-140667622D01*
X171940045Y-140675003D01*
X171693425Y-140481715D01*
X171686045Y-140421003D01*
X171879332Y-140174383D01*
X171940045Y-140167003D01*
X172186664Y-140360290D01*
G36*
X182133400Y-140294003D02*
G01*
X182672099Y-140294003D01*
X182692544Y-140816756D01*
X182750104Y-140951679D01*
X182782563Y-140868464D01*
X182829874Y-140258500D01*
X182787689Y-139852464D01*
X182720778Y-139711689D01*
X182678688Y-140016983D01*
X182672099Y-140294003D01*
X182133400Y-140294003D01*
X182121551Y-140042207D01*
X182168753Y-139415798D01*
X182326105Y-139047530D01*
X182439802Y-138931230D01*
X182879596Y-138729637D01*
X183104918Y-138763126D01*
X183273864Y-139122405D01*
X183350007Y-139839948D01*
X183333293Y-140774557D01*
X183223669Y-141785036D01*
X183106292Y-142399579D01*
X182977398Y-143402535D01*
X183119372Y-144045749D01*
X183514655Y-144294575D01*
X184009886Y-144182580D01*
X184529688Y-143867776D01*
X184576481Y-143555180D01*
X184259044Y-143215002D01*
X183910492Y-142720497D01*
X183980508Y-142454587D01*
X184618888Y-142454587D01*
X184730442Y-142917289D01*
X185049157Y-143408499D01*
X185500863Y-143924002D01*
X185845462Y-144210296D01*
X185910045Y-144231003D01*
X186189212Y-144048219D01*
X186622078Y-143591712D01*
X186770932Y-143408499D01*
X187149508Y-142780825D01*
X187176422Y-142380765D01*
X186874989Y-142277773D01*
X186445314Y-142438408D01*
X185820917Y-142592926D01*
X185374775Y-142438408D01*
X184841436Y-142271809D01*
X184618888Y-142454587D01*
X183980508Y-142454587D01*
X184050641Y-142188229D01*
X184386044Y-141818003D01*
X184785401Y-141509498D01*
X185086645Y-141555769D01*
X185402045Y-141818002D01*
X185799156Y-142124947D01*
X186099986Y-142081120D01*
X186427009Y-141809890D01*
X186814155Y-141506675D01*
X187102510Y-141538170D01*
X187490645Y-141888714D01*
X187852325Y-142334373D01*
X187856645Y-142730610D01*
X187705721Y-143054974D01*
X187520154Y-143672794D01*
X187651551Y-144108537D01*
X187957035Y-144231003D01*
X188089135Y-144001592D01*
X188175937Y-143410952D01*
X188196045Y-142863447D01*
X188196044Y-141495892D01*
X189363349Y-141535184D01*
X190328244Y-141676795D01*
X190860227Y-142025194D01*
X191086073Y-142517063D01*
X191281307Y-143240163D01*
X191413449Y-144010715D01*
X191450023Y-144644936D01*
X191376288Y-144945426D01*
X191140047Y-144933170D01*
X190910607Y-144563664D01*
X190761433Y-143983265D01*
X190739934Y-143677645D01*
X190561150Y-142959832D01*
X190123713Y-142409241D01*
X189583838Y-142199003D01*
X189165110Y-142426002D01*
X188842392Y-142999104D01*
X188704502Y-143756460D01*
X188704045Y-143802203D01*
X188554417Y-144416264D01*
X188318280Y-144742957D01*
X187953295Y-144917071D01*
X187558037Y-144719277D01*
X187429280Y-144607691D01*
X187031377Y-144302079D01*
X186728914Y-144352720D01*
X186422809Y-144607691D01*
X185990026Y-144904148D01*
X185640441Y-144823650D01*
X185525572Y-144736121D01*
X185169169Y-144552611D01*
X184676335Y-144582947D01*
X184093856Y-144751606D01*
X183416622Y-144945483D01*
X183037662Y-144938582D01*
X182785267Y-144722952D01*
X182760576Y-144689874D01*
X182484671Y-144433047D01*
X182119529Y-144480565D01*
X181797136Y-144635600D01*
X181109088Y-144840251D01*
X180167083Y-144929160D01*
X179776380Y-144924464D01*
X178967145Y-144857288D01*
X178539035Y-144716380D01*
X178365724Y-144451563D01*
X178346882Y-144356697D01*
X178174171Y-143411959D01*
X178001628Y-142918893D01*
X177808186Y-142821614D01*
X177774598Y-142838605D01*
X177617063Y-143168449D01*
X177532580Y-143798150D01*
X177528045Y-143991993D01*
X177470923Y-144622654D01*
X177328466Y-144969716D01*
X177274045Y-144993003D01*
X177114018Y-144767887D01*
X177025953Y-144206467D01*
X177020045Y-143991993D01*
X176962783Y-143317010D01*
X176820545Y-142886101D01*
X176773491Y-142838605D01*
X176574069Y-142880142D01*
X176399037Y-143311421D01*
X176227735Y-144187315D01*
X176201450Y-144358003D01*
X176064801Y-144674586D01*
X175691114Y-144843300D01*
X174950305Y-144919633D01*
X174876461Y-144923174D01*
X174071550Y-144899807D01*
X173448556Y-144775535D01*
X173272586Y-144685507D01*
X172919192Y-144534157D01*
X172693263Y-144753212D01*
X172401540Y-144971009D01*
X172121211Y-144738939D01*
X171888104Y-144114547D01*
X171744880Y-143229954D01*
X171716945Y-143031527D01*
X173016057Y-143031527D01*
X173176036Y-143635554D01*
X173517610Y-144099962D01*
X173845045Y-144231003D01*
X174226638Y-144022046D01*
X174535248Y-143576277D01*
X174672294Y-142866904D01*
X174446273Y-142320703D01*
X173920116Y-142074826D01*
X173845045Y-142072003D01*
X173339216Y-142268991D01*
X173124469Y-142496777D01*
X173016057Y-143031527D01*
X171716945Y-143031527D01*
X171634946Y-142449076D01*
X171463741Y-142059795D01*
X171176438Y-141945749D01*
X171139442Y-141945003D01*
X170681919Y-142178235D01*
X170341504Y-142802853D01*
X170171723Y-143706237D01*
X170162045Y-144001510D01*
X170016931Y-144674889D01*
X169653770Y-144978016D01*
X169180831Y-144929971D01*
X168706385Y-144549835D01*
X168338702Y-143856691D01*
X168284543Y-143670622D01*
X168058041Y-142779006D01*
X167055557Y-143781490D01*
X165634413Y-144908942D01*
X164085217Y-145556948D01*
X162506684Y-145749424D01*
X161452017Y-145681153D01*
X160733794Y-145442024D01*
X160474684Y-145265032D01*
X160145742Y-144886988D01*
X160587341Y-144886988D01*
X161016887Y-145159335D01*
X161081545Y-145190997D01*
X162215140Y-145463079D01*
X163608333Y-145323616D01*
X164396157Y-145098048D01*
X165431512Y-144578912D01*
X166502723Y-143769631D01*
X167482285Y-142795819D01*
X168242692Y-141783090D01*
X168641692Y-140915456D01*
X168828661Y-139886392D01*
X168807558Y-139058433D01*
X168587706Y-138543683D01*
X168436466Y-138447231D01*
X168220730Y-138509024D01*
X168264274Y-138962372D01*
X168264941Y-138965034D01*
X168289193Y-139885871D01*
X168014793Y-140967664D01*
X167504571Y-142014444D01*
X167120845Y-142533451D01*
X166463785Y-143140740D01*
X165592125Y-143773079D01*
X165076937Y-144082267D01*
X164247866Y-144488516D01*
X163539252Y-144683808D01*
X162704346Y-144719312D01*
X162138448Y-144691616D01*
X161136776Y-144658488D01*
X160623522Y-144721825D01*
X160587341Y-144886988D01*
X160145742Y-144886988D01*
X160077934Y-144809058D01*
X160129045Y-144522963D01*
X160343555Y-144331255D01*
X161202964Y-144331255D01*
X161660957Y-144490964D01*
X162434144Y-144489011D01*
X163363531Y-144345971D01*
X164290124Y-144082419D01*
X164795854Y-143866315D01*
X166100778Y-143002828D01*
X167133918Y-141915115D01*
X167787984Y-140721317D01*
X167860772Y-140491445D01*
X168085737Y-139529803D01*
X168101123Y-139009695D01*
X167978315Y-138897002D01*
X167729344Y-139045019D01*
X167171041Y-139446181D01*
X166390650Y-140036159D01*
X165628815Y-140629415D01*
X164579737Y-141453405D01*
X163535919Y-142268248D01*
X162647356Y-142957078D01*
X162240130Y-143269668D01*
X161631961Y-143774823D01*
X161261348Y-144165203D01*
X161202964Y-144331255D01*
X160343555Y-144331255D01*
X160623578Y-144080998D01*
X161395472Y-143449135D01*
X162370322Y-142682692D01*
X163473724Y-141836990D01*
X164631277Y-140967351D01*
X165768576Y-140129093D01*
X166811217Y-139377538D01*
X167684798Y-138768005D01*
X168314915Y-138355815D01*
X168627164Y-138196289D01*
X168638045Y-138196363D01*
X168968849Y-138505026D01*
X169105384Y-139254283D01*
X169045502Y-140414460D01*
X168877137Y-141500547D01*
X168713211Y-142563772D01*
X168699508Y-143289208D01*
X168834487Y-143823871D01*
X168852374Y-143864369D01*
X169154515Y-144326187D01*
X169400895Y-144308844D01*
X169572716Y-143839830D01*
X169651178Y-142946640D01*
X169654045Y-142692012D01*
X169692946Y-141886376D01*
X169794385Y-141340838D01*
X169908045Y-141183003D01*
X170154723Y-141370458D01*
X170162045Y-141429031D01*
X170347622Y-141595510D01*
X170479545Y-141577246D01*
X171369078Y-141325263D01*
X171884302Y-141281741D01*
X172130544Y-141487776D01*
X172213133Y-141984462D01*
X172223509Y-142257663D01*
X172264307Y-142795467D01*
X172334794Y-142940073D01*
X172376731Y-142834003D01*
X172756748Y-142010301D01*
X173322766Y-141572090D01*
X173962960Y-141493321D01*
X174565502Y-141747949D01*
X175018566Y-142309926D01*
X175210327Y-143153207D01*
X175196993Y-143490898D01*
X175228608Y-144127355D01*
X175432545Y-144417493D01*
X175627222Y-144322947D01*
X175727745Y-143829658D01*
X175750045Y-143124159D01*
X175814935Y-142130586D01*
X176018400Y-141612786D01*
X176373632Y-141554246D01*
X176782050Y-141832487D01*
X177176614Y-142131159D01*
X177482262Y-142069910D01*
X177766039Y-141832487D01*
X178257391Y-141531510D01*
X178589074Y-141681089D01*
X178774797Y-142296835D01*
X178825874Y-143039493D01*
X178853704Y-144358003D01*
X179071253Y-143251416D01*
X179176931Y-142874040D01*
X179814045Y-142874040D01*
X179914477Y-143100735D01*
X180289401Y-142978406D01*
X180307898Y-142968573D01*
X180771174Y-142654378D01*
X180947042Y-142469188D01*
X180911960Y-142145586D01*
X180823061Y-142067687D01*
X180426485Y-142070999D01*
X180023797Y-142377151D01*
X179816312Y-142825263D01*
X179814045Y-142874040D01*
X179176931Y-142874040D01*
X179355619Y-142235942D01*
X179749338Y-141655899D01*
X180304289Y-141441979D01*
X180429345Y-141437002D01*
X181158976Y-141600158D01*
X181519721Y-142017144D01*
X181498530Y-142579240D01*
X181082355Y-143177724D01*
X180675289Y-143486156D01*
X180127711Y-143859358D01*
X179976596Y-144093896D01*
X180164986Y-144280178D01*
X180172414Y-144284362D01*
X180845955Y-144403675D01*
X181501901Y-144088165D01*
X181947811Y-143514502D01*
X182158452Y-142787167D01*
X182202805Y-141700272D01*
X182168910Y-141048597D01*
X182133400Y-140294003D01*
G37*
X182133400Y-140294003D02*
X182672099Y-140294003D01*
X182692544Y-140816756D01*
X182750104Y-140951679D01*
X182782563Y-140868464D01*
X182829874Y-140258500D01*
X182787689Y-139852464D01*
X182720778Y-139711689D01*
X182678688Y-140016983D01*
X182672099Y-140294003D01*
X182133400Y-140294003D01*
X182121551Y-140042207D01*
X182168753Y-139415798D01*
X182326105Y-139047530D01*
X182439802Y-138931230D01*
X182879596Y-138729637D01*
X183104918Y-138763126D01*
X183273864Y-139122405D01*
X183350007Y-139839948D01*
X183333293Y-140774557D01*
X183223669Y-141785036D01*
X183106292Y-142399579D01*
X182977398Y-143402535D01*
X183119372Y-144045749D01*
X183514655Y-144294575D01*
X184009886Y-144182580D01*
X184529688Y-143867776D01*
X184576481Y-143555180D01*
X184259044Y-143215002D01*
X183910492Y-142720497D01*
X183980508Y-142454587D01*
X184618888Y-142454587D01*
X184730442Y-142917289D01*
X185049157Y-143408499D01*
X185500863Y-143924002D01*
X185845462Y-144210296D01*
X185910045Y-144231003D01*
X186189212Y-144048219D01*
X186622078Y-143591712D01*
X186770932Y-143408499D01*
X187149508Y-142780825D01*
X187176422Y-142380765D01*
X186874989Y-142277773D01*
X186445314Y-142438408D01*
X185820917Y-142592926D01*
X185374775Y-142438408D01*
X184841436Y-142271809D01*
X184618888Y-142454587D01*
X183980508Y-142454587D01*
X184050641Y-142188229D01*
X184386044Y-141818003D01*
X184785401Y-141509498D01*
X185086645Y-141555769D01*
X185402045Y-141818002D01*
X185799156Y-142124947D01*
X186099986Y-142081120D01*
X186427009Y-141809890D01*
X186814155Y-141506675D01*
X187102510Y-141538170D01*
X187490645Y-141888714D01*
X187852325Y-142334373D01*
X187856645Y-142730610D01*
X187705721Y-143054974D01*
X187520154Y-143672794D01*
X187651551Y-144108537D01*
X187957035Y-144231003D01*
X188089135Y-144001592D01*
X188175937Y-143410952D01*
X188196045Y-142863447D01*
X188196044Y-141495892D01*
X189363349Y-141535184D01*
X190328244Y-141676795D01*
X190860227Y-142025194D01*
X191086073Y-142517063D01*
X191281307Y-143240163D01*
X191413449Y-144010715D01*
X191450023Y-144644936D01*
X191376288Y-144945426D01*
X191140047Y-144933170D01*
X190910607Y-144563664D01*
X190761433Y-143983265D01*
X190739934Y-143677645D01*
X190561150Y-142959832D01*
X190123713Y-142409241D01*
X189583838Y-142199003D01*
X189165110Y-142426002D01*
X188842392Y-142999104D01*
X188704502Y-143756460D01*
X188704045Y-143802203D01*
X188554417Y-144416264D01*
X188318280Y-144742957D01*
X187953295Y-144917071D01*
X187558037Y-144719277D01*
X187429280Y-144607691D01*
X187031377Y-144302079D01*
X186728914Y-144352720D01*
X186422809Y-144607691D01*
X185990026Y-144904148D01*
X185640441Y-144823650D01*
X185525572Y-144736121D01*
X185169169Y-144552611D01*
X184676335Y-144582947D01*
X184093856Y-144751606D01*
X183416622Y-144945483D01*
X183037662Y-144938582D01*
X182785267Y-144722952D01*
X182760576Y-144689874D01*
X182484671Y-144433047D01*
X182119529Y-144480565D01*
X181797136Y-144635600D01*
X181109088Y-144840251D01*
X180167083Y-144929160D01*
X179776380Y-144924464D01*
X178967145Y-144857288D01*
X178539035Y-144716380D01*
X178365724Y-144451563D01*
X178346882Y-144356697D01*
X178174171Y-143411959D01*
X178001628Y-142918893D01*
X177808186Y-142821614D01*
X177774598Y-142838605D01*
X177617063Y-143168449D01*
X177532580Y-143798150D01*
X177528045Y-143991993D01*
X177470923Y-144622654D01*
X177328466Y-144969716D01*
X177274045Y-144993003D01*
X177114018Y-144767887D01*
X177025953Y-144206467D01*
X177020045Y-143991993D01*
X176962783Y-143317010D01*
X176820545Y-142886101D01*
X176773491Y-142838605D01*
X176574069Y-142880142D01*
X176399037Y-143311421D01*
X176227735Y-144187315D01*
X176201450Y-144358003D01*
X176064801Y-144674586D01*
X175691114Y-144843300D01*
X174950305Y-144919633D01*
X174876461Y-144923174D01*
X174071550Y-144899807D01*
X173448556Y-144775535D01*
X173272586Y-144685507D01*
X172919192Y-144534157D01*
X172693263Y-144753212D01*
X172401540Y-144971009D01*
X172121211Y-144738939D01*
X171888104Y-144114547D01*
X171744880Y-143229954D01*
X171716945Y-143031527D01*
X173016057Y-143031527D01*
X173176036Y-143635554D01*
X173517610Y-144099962D01*
X173845045Y-144231003D01*
X174226638Y-144022046D01*
X174535248Y-143576277D01*
X174672294Y-142866904D01*
X174446273Y-142320703D01*
X173920116Y-142074826D01*
X173845045Y-142072003D01*
X173339216Y-142268991D01*
X173124469Y-142496777D01*
X173016057Y-143031527D01*
X171716945Y-143031527D01*
X171634946Y-142449076D01*
X171463741Y-142059795D01*
X171176438Y-141945749D01*
X171139442Y-141945003D01*
X170681919Y-142178235D01*
X170341504Y-142802853D01*
X170171723Y-143706237D01*
X170162045Y-144001510D01*
X170016931Y-144674889D01*
X169653770Y-144978016D01*
X169180831Y-144929971D01*
X168706385Y-144549835D01*
X168338702Y-143856691D01*
X168284543Y-143670622D01*
X168058041Y-142779006D01*
X167055557Y-143781490D01*
X165634413Y-144908942D01*
X164085217Y-145556948D01*
X162506684Y-145749424D01*
X161452017Y-145681153D01*
X160733794Y-145442024D01*
X160474684Y-145265032D01*
X160145742Y-144886988D01*
X160587341Y-144886988D01*
X161016887Y-145159335D01*
X161081545Y-145190997D01*
X162215140Y-145463079D01*
X163608333Y-145323616D01*
X164396157Y-145098048D01*
X165431512Y-144578912D01*
X166502723Y-143769631D01*
X167482285Y-142795819D01*
X168242692Y-141783090D01*
X168641692Y-140915456D01*
X168828661Y-139886392D01*
X168807558Y-139058433D01*
X168587706Y-138543683D01*
X168436466Y-138447231D01*
X168220730Y-138509024D01*
X168264274Y-138962372D01*
X168264941Y-138965034D01*
X168289193Y-139885871D01*
X168014793Y-140967664D01*
X167504571Y-142014444D01*
X167120845Y-142533451D01*
X166463785Y-143140740D01*
X165592125Y-143773079D01*
X165076937Y-144082267D01*
X164247866Y-144488516D01*
X163539252Y-144683808D01*
X162704346Y-144719312D01*
X162138448Y-144691616D01*
X161136776Y-144658488D01*
X160623522Y-144721825D01*
X160587341Y-144886988D01*
X160145742Y-144886988D01*
X160077934Y-144809058D01*
X160129045Y-144522963D01*
X160343555Y-144331255D01*
X161202964Y-144331255D01*
X161660957Y-144490964D01*
X162434144Y-144489011D01*
X163363531Y-144345971D01*
X164290124Y-144082419D01*
X164795854Y-143866315D01*
X166100778Y-143002828D01*
X167133918Y-141915115D01*
X167787984Y-140721317D01*
X167860772Y-140491445D01*
X168085737Y-139529803D01*
X168101123Y-139009695D01*
X167978315Y-138897002D01*
X167729344Y-139045019D01*
X167171041Y-139446181D01*
X166390650Y-140036159D01*
X165628815Y-140629415D01*
X164579737Y-141453405D01*
X163535919Y-142268248D01*
X162647356Y-142957078D01*
X162240130Y-143269668D01*
X161631961Y-143774823D01*
X161261348Y-144165203D01*
X161202964Y-144331255D01*
X160343555Y-144331255D01*
X160623578Y-144080998D01*
X161395472Y-143449135D01*
X162370322Y-142682692D01*
X163473724Y-141836990D01*
X164631277Y-140967351D01*
X165768576Y-140129093D01*
X166811217Y-139377538D01*
X167684798Y-138768005D01*
X168314915Y-138355815D01*
X168627164Y-138196289D01*
X168638045Y-138196363D01*
X168968849Y-138505026D01*
X169105384Y-139254283D01*
X169045502Y-140414460D01*
X168877137Y-141500547D01*
X168713211Y-142563772D01*
X168699508Y-143289208D01*
X168834487Y-143823871D01*
X168852374Y-143864369D01*
X169154515Y-144326187D01*
X169400895Y-144308844D01*
X169572716Y-143839830D01*
X169651178Y-142946640D01*
X169654045Y-142692012D01*
X169692946Y-141886376D01*
X169794385Y-141340838D01*
X169908045Y-141183003D01*
X170154723Y-141370458D01*
X170162045Y-141429031D01*
X170347622Y-141595510D01*
X170479545Y-141577246D01*
X171369078Y-141325263D01*
X171884302Y-141281741D01*
X172130544Y-141487776D01*
X172213133Y-141984462D01*
X172223509Y-142257663D01*
X172264307Y-142795467D01*
X172334794Y-142940073D01*
X172376731Y-142834003D01*
X172756748Y-142010301D01*
X173322766Y-141572090D01*
X173962960Y-141493321D01*
X174565502Y-141747949D01*
X175018566Y-142309926D01*
X175210327Y-143153207D01*
X175196993Y-143490898D01*
X175228608Y-144127355D01*
X175432545Y-144417493D01*
X175627222Y-144322947D01*
X175727745Y-143829658D01*
X175750045Y-143124159D01*
X175814935Y-142130586D01*
X176018400Y-141612786D01*
X176373632Y-141554246D01*
X176782050Y-141832487D01*
X177176614Y-142131159D01*
X177482262Y-142069910D01*
X177766039Y-141832487D01*
X178257391Y-141531510D01*
X178589074Y-141681089D01*
X178774797Y-142296835D01*
X178825874Y-143039493D01*
X178853704Y-144358003D01*
X179071253Y-143251416D01*
X179176931Y-142874040D01*
X179814045Y-142874040D01*
X179914477Y-143100735D01*
X180289401Y-142978406D01*
X180307898Y-142968573D01*
X180771174Y-142654378D01*
X180947042Y-142469188D01*
X180911960Y-142145586D01*
X180823061Y-142067687D01*
X180426485Y-142070999D01*
X180023797Y-142377151D01*
X179816312Y-142825263D01*
X179814045Y-142874040D01*
X179176931Y-142874040D01*
X179355619Y-142235942D01*
X179749338Y-141655899D01*
X180304289Y-141441979D01*
X180429345Y-141437002D01*
X181158976Y-141600158D01*
X181519721Y-142017144D01*
X181498530Y-142579240D01*
X181082355Y-143177724D01*
X180675289Y-143486156D01*
X180127711Y-143859358D01*
X179976596Y-144093896D01*
X180164986Y-144280178D01*
X180172414Y-144284362D01*
X180845955Y-144403675D01*
X181501901Y-144088165D01*
X181947811Y-143514502D01*
X182158452Y-142787167D01*
X182202805Y-141700272D01*
X182168910Y-141048597D01*
X182133400Y-140294003D01*
%TD*%
D11*
%TO.C,SW64*%
X201250000Y-130445000D03*
X150250000Y-130445000D03*
X178250000Y-99845000D03*
X173250000Y-99845000D03*
X175750000Y-99845000D03*
D12*
X205849999Y-130444999D03*
D13*
X190850000Y-156598967D03*
X190850000Y-104291033D03*
D14*
X190250000Y-130445000D03*
X161250000Y-130445000D03*
D13*
X160650000Y-156598967D03*
X160650000Y-104291033D03*
D12*
X145649999Y-130444999D03*
%TD*%
D15*
%TO.C,H3*%
X55350006Y-30400004D03*
%TD*%
%TO.C,H2*%
X296000003Y-30450000D03*
%TD*%
D16*
%TO.C,J2*%
X178640000Y-23595007D03*
X172860000Y-23595007D03*
D17*
X178974999Y-25040006D03*
X178199999Y-25040006D03*
D18*
X176999999Y-25040006D03*
X175999999Y-25040006D03*
X175499999Y-25040006D03*
X174499999Y-25040006D03*
D17*
X173299999Y-25040006D03*
X172524999Y-25040006D03*
D18*
X173999999Y-25040006D03*
X174999999Y-25040006D03*
X176499999Y-25040006D03*
X177499999Y-25040006D03*
D19*
X180069999Y-24125006D03*
D20*
X180069999Y-19945006D03*
D19*
X171429999Y-24125006D03*
D20*
X171429999Y-19945006D03*
%TD*%
D21*
%TO.C,J5*%
X151800002Y-47645625D03*
D22*
X151800001Y-45645624D03*
X151800001Y-43645624D03*
X151800001Y-41645624D03*
X151800001Y-39645624D03*
X151800001Y-37645624D03*
X151800001Y-35645624D03*
%TD*%
D15*
%TO.C,H1*%
X175749999Y-187100004D03*
%TD*%
D23*
%TO.C,J1*%
X171849937Y-63045003D03*
D24*
X174389937Y-63045003D03*
X176929937Y-63045003D03*
X179469937Y-63045003D03*
%TD*%
D23*
%TO.C,J4*%
X155749997Y-34024374D03*
D24*
X155749997Y-36564374D03*
X155749997Y-39104374D03*
X155749997Y-41644374D03*
X155749997Y-44184374D03*
X155749997Y-46724374D03*
X155749997Y-49264374D03*
D25*
X155999998Y-25644375D03*
X155999998Y-57644375D03*
X195499998Y-25644375D03*
X195499998Y-57644375D03*
%TD*%
D26*
%TO.C,SW25*%
X121777844Y-148516744D03*
D27*
X122610966Y-142898568D03*
D28*
X117616552Y-145602976D03*
D27*
X115952467Y-141337004D03*
D26*
X113455260Y-142689208D03*
%TD*%
%TO.C,SW30*%
X137015364Y-164336520D03*
D27*
X139274189Y-159125406D03*
D28*
X133750003Y-160445014D03*
D27*
X133246735Y-155893704D03*
D26*
X130484642Y-156553508D03*
%TD*%
%TO.C,SW1*%
X62450843Y-43927097D03*
D27*
X61801486Y-38284728D03*
D28*
X57677204Y-42189635D03*
D27*
X54965706Y-38499719D03*
D26*
X52903565Y-40452173D03*
%TD*%
%TO.C,SW24*%
X116952282Y-116979542D03*
D27*
X116302925Y-111337173D03*
D28*
X112178643Y-115242080D03*
D27*
X109467145Y-111552164D03*
D26*
X107405004Y-113504618D03*
%TD*%
%TO.C,SW29*%
X133767486Y-126478577D03*
D27*
X133118129Y-120836208D03*
D28*
X128993847Y-124741115D03*
D27*
X126282349Y-121051199D03*
D26*
X124220208Y-123003653D03*
%TD*%
%TO.C,SW14*%
X81149974Y-103948584D03*
D27*
X80500617Y-98306215D03*
D28*
X76376335Y-102211122D03*
D27*
X73664837Y-98521206D03*
D26*
X71602696Y-100473660D03*
%TD*%
%TO.C,SW19*%
X100408520Y-106734651D03*
D27*
X99759163Y-101092282D03*
D28*
X95634881Y-104997189D03*
D27*
X92923383Y-101307273D03*
D26*
X90861242Y-103259727D03*
%TD*%
%TO.C,SW5*%
X36388901Y-115531693D03*
D27*
X35739544Y-109889324D03*
D28*
X31615262Y-113794231D03*
D27*
X28903764Y-110104315D03*
D26*
X26841623Y-112056769D03*
%TD*%
%TO.C,SW22*%
X129983235Y-81177247D03*
D27*
X129333878Y-75534878D03*
D28*
X125209596Y-79439785D03*
D27*
X122498098Y-75749869D03*
D26*
X120435957Y-77702323D03*
%TD*%
%TO.C,SW27*%
X146798457Y-90676274D03*
D27*
X146149100Y-85033905D03*
D28*
X142024818Y-88938812D03*
D27*
X139313320Y-85248896D03*
D26*
X137251179Y-87201350D03*
%TD*%
%TO.C,SW3*%
X49419858Y-79729398D03*
D27*
X48770501Y-74087029D03*
D28*
X44646219Y-77991936D03*
D27*
X41934721Y-74302020D03*
D26*
X39872580Y-76254474D03*
%TD*%
%TO.C,SW8*%
X68135455Y-84007225D03*
D27*
X67486098Y-78364856D03*
D28*
X63361816Y-82269763D03*
D27*
X60650318Y-78579847D03*
D26*
X58588177Y-80532301D03*
%TD*%
%TO.C,SW13*%
X87665467Y-86047429D03*
D27*
X87016110Y-80405060D03*
D28*
X82891828Y-84309967D03*
D27*
X80180330Y-80620051D03*
D26*
X78118189Y-82572505D03*
%TD*%
%TO.C,SW23*%
X123467758Y-99078428D03*
D27*
X122818401Y-93436059D03*
D28*
X118694119Y-97340966D03*
D27*
X115982621Y-93651050D03*
D26*
X113920480Y-95603504D03*
%TD*%
%TO.C,SW18*%
X106923986Y-88833510D03*
D27*
X106274629Y-83191141D03*
D28*
X102150347Y-87096048D03*
D27*
X99438849Y-83406132D03*
D26*
X97376708Y-85358586D03*
%TD*%
%TO.C,SW28*%
X140282968Y-108577418D03*
D27*
X139633611Y-102935049D03*
D28*
X135509329Y-106839956D03*
D27*
X132797831Y-103150040D03*
D26*
X130735690Y-105102494D03*
%TD*%
%TO.C,SW4*%
X42904398Y-97630559D03*
D27*
X42255041Y-91988190D03*
D28*
X38130759Y-95893097D03*
D27*
X35419261Y-92203181D03*
D26*
X33357120Y-94155635D03*
%TD*%
%TO.C,SW9*%
X61619941Y-101908386D03*
D27*
X60970584Y-96266017D03*
D28*
X56846302Y-100170924D03*
D27*
X54134804Y-96481008D03*
D26*
X52072663Y-98433462D03*
%TD*%
%TO.C,SW10*%
X55104479Y-119809525D03*
D27*
X54455122Y-114167156D03*
D28*
X50330840Y-118072063D03*
D27*
X47619342Y-114382147D03*
D26*
X45557201Y-116334601D03*
%TD*%
%TO.C,SW15*%
X74634491Y-121849723D03*
D27*
X73985134Y-116207354D03*
D28*
X69860852Y-120112261D03*
D27*
X67149354Y-116422345D03*
D26*
X65087213Y-118374799D03*
%TD*%
%TO.C,SW20*%
X102840860Y-137184146D03*
D27*
X102191503Y-131541777D03*
D28*
X98067221Y-135446684D03*
D27*
X95355723Y-131756768D03*
D26*
X93293582Y-133709222D03*
%TD*%
%TO.C,SW11*%
X100696425Y-50245159D03*
D27*
X100047068Y-44602790D03*
D28*
X95922786Y-48507697D03*
D27*
X93211288Y-44817781D03*
D26*
X91149147Y-46770235D03*
%TD*%
%TO.C,SW2*%
X55935358Y-61828251D03*
D27*
X55286001Y-56185882D03*
D28*
X51161719Y-60090789D03*
D27*
X48450221Y-56400873D03*
D26*
X46388080Y-58353327D03*
%TD*%
%TO.C,SW12*%
X94180939Y-68146283D03*
D27*
X93531582Y-62503914D03*
D28*
X89407300Y-66408821D03*
D27*
X86695802Y-62718905D03*
D26*
X84633661Y-64671359D03*
%TD*%
%TO.C,SW21*%
X136498723Y-63276110D03*
D27*
X135849366Y-57633741D03*
D28*
X131725084Y-61538648D03*
D27*
X129013586Y-57848732D03*
D26*
X126951445Y-59801186D03*
%TD*%
%TO.C,SW17*%
X113439484Y-70932377D03*
D27*
X112790127Y-65290008D03*
D28*
X108665845Y-69194915D03*
D27*
X105954347Y-65504999D03*
D26*
X103892206Y-67457453D03*
%TD*%
%TO.C,SW16*%
X119954966Y-53031216D03*
D27*
X119305609Y-47388847D03*
D28*
X115181327Y-51293754D03*
D27*
X112469829Y-47603838D03*
D26*
X110407688Y-49556292D03*
%TD*%
%TO.C,SW6*%
X81166412Y-48204949D03*
D27*
X80517055Y-42562580D03*
D28*
X76392773Y-46467487D03*
D27*
X73681275Y-42777571D03*
D26*
X71619134Y-44730025D03*
%TD*%
%TO.C,SW7*%
X74650925Y-66106091D03*
D27*
X74001568Y-60463722D03*
D28*
X69877286Y-64368629D03*
D27*
X67165788Y-60678713D03*
D26*
X65103647Y-62631167D03*
%TD*%
%TO.C,SW26*%
X153313942Y-72775126D03*
D27*
X152664585Y-67132757D03*
D28*
X148540303Y-71037664D03*
D27*
X145828805Y-67347748D03*
D26*
X143766664Y-69300202D03*
%TD*%
%TO.C,SW31*%
X207733359Y-69300206D03*
D27*
X203609077Y-65395298D03*
D28*
X202959720Y-71037668D03*
D27*
X198510760Y-69953945D03*
D26*
X198186081Y-72775130D03*
%TD*%
%TO.C,SW45*%
X258206433Y-133709220D03*
D27*
X254082151Y-129804312D03*
D28*
X253432794Y-135446682D03*
D27*
X248983834Y-134362959D03*
D26*
X248659155Y-137184144D03*
%TD*%
%TO.C,SW49*%
X279897315Y-100473674D03*
D27*
X275773033Y-96568766D03*
D28*
X275123676Y-102211136D03*
D27*
X270674716Y-101127413D03*
D26*
X270350037Y-103948598D03*
%TD*%
%TO.C,SW47*%
X266866358Y-64671375D03*
D27*
X262742076Y-60766467D03*
D28*
X262092719Y-66408837D03*
D27*
X257643759Y-65325114D03*
D26*
X257319080Y-68146299D03*
%TD*%
%TO.C,SW63*%
X202016906Y-172220203D03*
D27*
X198248654Y-167970700D03*
D28*
X197110003Y-173535004D03*
D27*
X192772425Y-172067653D03*
D26*
X192203100Y-174849805D03*
%TD*%
%TO.C,SW61*%
X159296906Y-174849786D03*
D27*
X158158255Y-169285482D03*
D28*
X154390003Y-173534985D03*
D27*
X151367226Y-170095433D03*
D26*
X149483100Y-172220184D03*
%TD*%
%TO.C,SW33*%
X220764313Y-105102490D03*
D27*
X216640031Y-101197582D03*
D28*
X215990674Y-106839952D03*
D27*
X211541714Y-105756229D03*
D26*
X211217035Y-108577414D03*
%TD*%
%TO.C,SW59*%
X318142903Y-94155624D03*
D27*
X314018621Y-90250716D03*
D28*
X313369264Y-95893086D03*
D27*
X308920304Y-94809363D03*
D26*
X308595625Y-97630548D03*
%TD*%
%TO.C,SW38*%
X237579561Y-95603489D03*
D27*
X233455279Y-91698581D03*
D28*
X232805922Y-97340951D03*
D27*
X228356962Y-96257228D03*
D26*
X228032283Y-99078413D03*
%TD*%
%TO.C,SW50*%
X286412804Y-118374816D03*
D27*
X282288522Y-114469908D03*
D28*
X281639165Y-120112278D03*
D27*
X277190205Y-119028555D03*
D26*
X276865526Y-121849740D03*
%TD*%
%TO.C,SW58*%
X311627417Y-76254460D03*
D27*
X307503135Y-72349552D03*
D28*
X306853778Y-77991922D03*
D27*
X302404818Y-76908199D03*
D26*
X302080139Y-79729384D03*
%TD*%
D29*
%TO.C,U4*%
X181099999Y-124784999D03*
D30*
X181100000Y-126565000D03*
X181100000Y-128345000D03*
X181100000Y-130125000D03*
X181100000Y-131905000D03*
X181100000Y-133685000D03*
X181100000Y-135465000D03*
X181100000Y-137245000D03*
X170400000Y-138135000D03*
X170400000Y-136355000D03*
X170400000Y-134575000D03*
X170400000Y-132795000D03*
X170400000Y-131015000D03*
X170400000Y-129235000D03*
X170400000Y-127455000D03*
X170400000Y-125675000D03*
%TD*%
D26*
%TO.C,SW43*%
X254123283Y-85358585D03*
D27*
X249999001Y-81453677D03*
D28*
X249349644Y-87096047D03*
D27*
X244900684Y-86012324D03*
D26*
X244576005Y-88833509D03*
%TD*%
%TO.C,SW57*%
X305111932Y-58353324D03*
D27*
X300987650Y-54448416D03*
D28*
X300338293Y-60090786D03*
D27*
X295889333Y-59007063D03*
D26*
X295564654Y-61828248D03*
%TD*%
%TO.C,SW52*%
X286396368Y-62631167D03*
D27*
X282272086Y-58726259D03*
D28*
X281622729Y-64368629D03*
D27*
X277173769Y-63284906D03*
D26*
X276849090Y-66106091D03*
%TD*%
%TO.C,SW44*%
X260638780Y-103259718D03*
D27*
X256514498Y-99354810D03*
D28*
X255865141Y-104997180D03*
D27*
X251416181Y-103913457D03*
D26*
X251091502Y-106734642D03*
%TD*%
%TO.C,SW41*%
X241092326Y-49556303D03*
D27*
X236968044Y-45651395D03*
D28*
X236318687Y-51293765D03*
D27*
X231869727Y-50210042D03*
D26*
X231545048Y-53031227D03*
%TD*%
%TO.C,SW40*%
X238044746Y-142689193D03*
D27*
X233050332Y-139984784D03*
D28*
X233883454Y-145602961D03*
D27*
X229305601Y-145707641D03*
D26*
X229722162Y-148516729D03*
%TD*%
%TO.C,SW62*%
X180830016Y-176354993D03*
D27*
X178290016Y-171274993D03*
D28*
X175750016Y-176354993D03*
D27*
X171940016Y-173814993D03*
D26*
X170670016Y-176354993D03*
%TD*%
%TO.C,SW46*%
X260350861Y-46770237D03*
D27*
X256226579Y-42865329D03*
D28*
X255577222Y-48507699D03*
D27*
X251128262Y-47423976D03*
D26*
X250803583Y-50245161D03*
%TD*%
%TO.C,SW51*%
X279880886Y-44730036D03*
D27*
X275756604Y-40825128D03*
D28*
X275107247Y-46467498D03*
D27*
X270658287Y-45383775D03*
D26*
X270333608Y-48204960D03*
%TD*%
%TO.C,SW60*%
X324658379Y-112056761D03*
D27*
X320534097Y-108151853D03*
D28*
X319884740Y-113794223D03*
D27*
X315435780Y-112710500D03*
D26*
X315111101Y-115531685D03*
%TD*%
%TO.C,SW37*%
X231064068Y-77702353D03*
D27*
X226939786Y-73797445D03*
D28*
X226290429Y-79439815D03*
D27*
X221841469Y-78356092D03*
D26*
X221516790Y-81177277D03*
%TD*%
%TO.C,SW54*%
X299427333Y-98433464D03*
D27*
X295303051Y-94528556D03*
D28*
X294653694Y-100170926D03*
D27*
X290204734Y-99087203D03*
D26*
X289880055Y-101908388D03*
%TD*%
%TO.C,SW55*%
X305942824Y-116334611D03*
D27*
X301818542Y-112429703D03*
D28*
X301169185Y-118072073D03*
D27*
X296720225Y-116988350D03*
D26*
X296395546Y-119809535D03*
%TD*%
%TO.C,SW48*%
X273381838Y-82572517D03*
D27*
X269257556Y-78667609D03*
D28*
X268608199Y-84309979D03*
D27*
X264159239Y-83226256D03*
D26*
X263834560Y-86047441D03*
%TD*%
%TO.C,SW53*%
X292911850Y-80532311D03*
D27*
X288787568Y-76627403D03*
D28*
X288138211Y-82269773D03*
D27*
X283689251Y-81186050D03*
D26*
X283364572Y-84007235D03*
%TD*%
%TO.C,SW35*%
X221015373Y-156553501D03*
D27*
X215491187Y-155233893D03*
D28*
X217750012Y-160445007D03*
D27*
X213355238Y-161730956D03*
D26*
X214484651Y-164336513D03*
%TD*%
%TO.C,SW34*%
X227279793Y-123003635D03*
D27*
X223155511Y-119098727D03*
D28*
X222506154Y-124741097D03*
D27*
X218057194Y-123657374D03*
D26*
X217732515Y-126478559D03*
%TD*%
%TO.C,SW42*%
X247607802Y-67457449D03*
D27*
X243483520Y-63552541D03*
D28*
X242834163Y-69194911D03*
D27*
X238385203Y-68111188D03*
D26*
X238060524Y-70932373D03*
%TD*%
%TO.C,SW56*%
X298596454Y-40452191D03*
D27*
X294472172Y-36547283D03*
D28*
X293822815Y-42189653D03*
D27*
X289373855Y-41105930D03*
D26*
X289049176Y-43927115D03*
%TD*%
%TO.C,SW36*%
X224548576Y-59801214D03*
D27*
X220424294Y-55896306D03*
D28*
X219774937Y-61538676D03*
D27*
X215325977Y-60454953D03*
D26*
X215001298Y-63276138D03*
%TD*%
%TO.C,SW39*%
X244095034Y-113504637D03*
D27*
X239970752Y-109599729D03*
D28*
X239321395Y-115242099D03*
D27*
X234872435Y-114158376D03*
D26*
X234547756Y-116979561D03*
%TD*%
%TO.C,SW32*%
X214248832Y-87201354D03*
D27*
X210124550Y-83296446D03*
D28*
X209475193Y-88938816D03*
D27*
X205026233Y-87855093D03*
D26*
X204701554Y-90676278D03*
%TD*%
M02*
