M48
; DRILL file {KiCad 7.0.6} date Sat Jul 29 11:05:59 2023
; FORMAT={-:-/ absolute / inch / decimal}
; #@! TF.CreationDate,2023-07-29T11:05:59+01:00
; #@! TF.GenerationSoftware,Kicad,Pcbnew,7.0.6
; #@! TF.FileFunction,Plated,1,2,PTH
FMAT,2
INCH
; #@! TA.AperFunction,Plated,PTH,ViaDrill
T1C0.0098
; #@! TA.AperFunction,Plated,PTH,ViaDrill
T2C0.0118
; #@! TA.AperFunction,Plated,PTH,ComponentDrill
T3C0.0118
; #@! TA.AperFunction,Plated,PTH,ComponentDrill
T4C0.0236
; #@! TA.AperFunction,Plated,PTH,ComponentDrill
T5C0.0295
; #@! TA.AperFunction,Plated,PTH,ComponentDrill
T6C0.0394
; #@! TA.AperFunction,Plated,PTH,ComponentDrill
T7C0.0433
; #@! TA.AperFunction,Plated,PTH,ComponentDrill
T8C0.0472
; #@! TA.AperFunction,Plated,PTH,ComponentDrill
T9C0.0709
; #@! TA.AperFunction,Plated,PTH,ComponentDrill
T10C0.0787
; #@! TA.AperFunction,Plated,PTH,ComponentDrill
T11C0.0866
; #@! TA.AperFunction,Plated,PTH,ComponentDrill
T12C0.1200
; #@! TA.AperFunction,Plated,PTH,ComponentDrill
T13C0.1260
%
G90
G05
T1
X1.5636Y-5.477
X1.7577Y-4.7525
X1.9519Y-4.0281
X2.146Y-3.3036
X2.3401Y-2.5792
X2.9177Y-5.6951
X3.0853Y-5.5935
X3.1118Y-4.9706
X3.2794Y-4.8691
X3.3059Y-4.2462
X3.4735Y-4.1446
X3.5Y-3.5217
X3.6676Y-3.4202
X3.6941Y-2.7973
X3.6941Y-2.513
X3.8615Y-2.419
X3.8618Y-2.6957
X4.6496Y-5.0268
X4.7283Y-5.2573
X4.8438Y-4.3024
X4.8495Y-6.2127
X4.9224Y-4.5329
X5.0379Y-3.5779
X5.0583Y-6.3535
X5.1165Y-3.8084
X5.232Y-2.5361
X5.232Y-2.8535
X5.3107Y-2.5603
X5.3107Y-3.084
X5.9183Y-5.9142
X6.0257Y-5.6867
X6.1124Y-5.1898
X6.2199Y-4.9623
X6.2456Y-7.2127
X6.2982Y-6.1142
X6.3065Y-4.4653
X6.3898Y-6.1142
X6.414Y-4.2378
X6.4803Y-3.2689
X6.4803Y-3.1732
X6.5007Y-3.7409
X6.6081Y-3.5134
X6.6693Y-2.949
X6.6693Y-3.2736
X6.6824Y-6.9732
X6.7008Y-2.5217
X6.7008Y-2.6201
X6.7598Y-7.1783
X6.8111Y-3.5436
X6.815Y-3.6933
X6.9409Y-3.7677
X7.063Y-3.4577
X7.0827Y-3.437
X7.1614Y-2.5
X7.4468Y-7.2217
X7.4468Y-7.4604
X7.4921Y-2.5236
X7.5055Y-7.0044
X7.5055Y-7.7544
X7.5094Y-3.5487
X7.5315Y-3.5276
X7.5862Y-6.6618
X7.5984Y-2.9567
X7.6142Y-3.5197
X7.6142Y-3.7323
X7.6181Y-2.937
X7.7165Y-3.2904
X7.7441Y-8.3947
X7.7461Y-3.2904
X7.7461Y-3.3937
X7.752Y-8.4764
X7.7657Y-8.6732
X7.7717Y-3.4173
X7.7756Y-3.2904
X7.8091Y-3.0354
X7.8091Y-3.2224
X7.811Y-8.4764
X7.811Y-8.6732
X7.8406Y-3.0354
X7.8406Y-3.2224
X7.9232Y-8.2953
X7.9252Y-3.2559
X7.9567Y-3.7598
X7.9631Y-3.2938
X8.0512Y-3.4016
X8.4449Y-3.2244
X8.5118Y-7.3043
X8.5118Y-7.4106
X8.5748Y-2.9685
X8.6004Y-2.813
X8.6693Y-3.7677
X8.6693Y-3.8071
X8.6929Y-2.9685
X8.6929Y-3.0276
X8.748Y-3.1457
X8.8569Y-3.3372
X8.8819Y-3.874
X8.9134Y-3.8425
X8.9213Y-3.2742
X8.9764Y-3.874
X9.0Y-3.2965
X9.0Y-3.2138
X9.0276Y-4.3075
X9.028Y-3.5488
X9.072Y-3.8027
X9.0866Y-4.3075
X9.1299Y-6.9921
X9.1339Y-5.9921
X9.1535Y-7.0157
X9.1575Y-6.0157
X9.1811Y-6.0394
X9.2047Y-5.028
X9.2047Y-6.063
X9.2221Y-4.2733
X9.2661Y-4.5271
X9.2795Y-5.028
X9.2953Y-6.063
X9.3189Y-5.9921
X9.3425Y-6.0157
X9.3661Y-6.0394
X9.4021Y-7.2206
X9.4163Y-4.9977
X9.4602Y-5.2516
X9.6104Y-5.7221
X9.6543Y-5.976
X10.3016Y-2.5445
X10.3016Y-3.0305
X10.4041Y-2.5183
X10.4041Y-2.8889
X10.4958Y-3.7549
X10.5394Y-6.2962
X10.5982Y-3.6134
X10.6899Y-4.4794
X10.7866Y-6.2481
X10.7924Y-4.3378
X10.884Y-5.2038
X10.9865Y-5.0623
X11.7505Y-2.4042
X11.7505Y-2.6423
X11.942Y-2.5012
X11.942Y-2.8327
X11.9446Y-3.3667
X12.1361Y-3.5572
X12.1388Y-4.0912
X12.3302Y-4.2816
X12.3329Y-4.8156
X12.5243Y-5.0061
X12.527Y-5.5401
X12.7184Y-5.7305
X13.2722Y-2.5257
X13.4663Y-3.2502
X13.4849Y-3.5014
X13.6604Y-3.9746
X13.679Y-4.2258
X13.8546Y-4.699
X13.8731Y-4.9503
X14.0487Y-5.4235
X14.0672Y-5.6747
T2
X1.4567Y-5.75
X1.4567Y-5.8287
X1.5354Y-5.5925
X1.5354Y-5.6713
X1.5354Y-5.8287
X1.6142Y-5.8287
X1.6376Y-5.7196
X1.6447Y-5.693
X1.6929Y-4.8051
X1.6929Y-4.8839
X1.6929Y-5.1201
X1.6929Y-5.1988
X1.6929Y-5.5925
X1.6929Y-5.6713
X1.7535Y-4.9599
X1.7717Y-4.5689
X1.7717Y-4.8839
X1.7717Y-5.1201
X1.7717Y-5.1988
X1.7717Y-5.9075
X1.8504Y-4.5689
X1.8504Y-4.8839
X1.8504Y-5.1201
X1.8504Y-5.1988
X1.8504Y-5.9075
X1.9291Y-4.2539
X1.9291Y-4.3327
X1.9291Y-4.4114
X1.9291Y-4.4902
X1.9291Y-4.8051
X1.9291Y-4.8839
X1.9291Y-5.1988
X1.9291Y-5.5138
X1.9291Y-5.6713
X2.0079Y-3.7028
X2.0079Y-4.1752
X2.0079Y-4.4114
X2.0079Y-4.4902
X2.0079Y-4.7264
X2.0079Y-5.1988
X2.0079Y-5.2776
X2.0079Y-5.75
X2.0091Y-5.8619
X2.0258Y-4.2707
X2.033Y-4.2441
X2.0866Y-3.3878
X2.0866Y-3.7028
X2.0866Y-3.7815
X2.0866Y-4.1752
X2.0866Y-4.4902
X2.0866Y-5.1988
X2.0866Y-5.2776
X2.0866Y-5.3563
X2.0866Y-5.75
X2.0866Y-5.9075
X2.1179Y-5.1289
X2.125Y-5.1023
X2.1417Y-3.5111
X2.1654Y-3.0728
X2.1654Y-3.4665
X2.1654Y-3.624
X2.1654Y-3.7028
X2.1654Y-3.7815
X2.1654Y-4.4902
X2.1654Y-4.5689
X2.1654Y-5.0413
X2.1654Y-5.1988
X2.1654Y-5.2776
X2.1654Y-5.3563
X2.1654Y-5.6713
X2.1654Y-5.75
X2.1654Y-5.9862
X2.2441Y-3.0728
X2.2441Y-3.4665
X2.2441Y-3.7028
X2.2441Y-3.7815
X2.2441Y-4.0177
X2.2441Y-4.4902
X2.2441Y-4.5689
X2.2441Y-5.1988
X2.2441Y-5.2776
X2.2441Y-5.6713
X2.2441Y-5.75
X2.2441Y-5.9862
X2.3228Y-2.7579
X2.3228Y-2.9154
X2.3228Y-2.9941
X2.3228Y-3.7028
X2.3228Y-3.7815
X2.3228Y-4.0965
X2.3228Y-4.1752
X2.3228Y-4.2539
X2.3228Y-4.5689
X2.3228Y-4.6476
X2.3228Y-4.8839
X2.3228Y-4.9626
X2.3228Y-5.1988
X2.3228Y-5.75
X2.3228Y-5.9862
X2.3228Y-6.065
X2.3863Y-5.8232
X2.3934Y-5.7965
X2.3973Y-4.4131
X2.4016Y-2.4429
X2.4016Y-2.9154
X2.4016Y-2.9941
X2.4016Y-3.0728
X2.4016Y-3.3091
X2.4016Y-3.7815
X2.4016Y-3.8602
X2.4016Y-4.2539
X2.4016Y-4.5689
X2.4016Y-4.8839
X2.4016Y-5.0413
X2.4016Y-5.1988
X2.4016Y-5.3563
X2.4016Y-5.75
X2.4016Y-5.9862
X2.4016Y-6.065
X2.414Y-2.8218
X2.4212Y-2.7952
X2.4803Y-2.6791
X2.4803Y-2.7579
X2.4803Y-2.9941
X2.4803Y-3.0728
X2.4803Y-3.3091
X2.4803Y-3.7815
X2.4803Y-3.8602
X2.4803Y-4.2539
X2.4803Y-4.3327
X2.4803Y-4.4114
X2.4803Y-4.8839
X2.4803Y-5.1988
X2.4803Y-5.2776
X2.4803Y-5.6713
X2.4803Y-5.75
X2.4803Y-6.065
X2.5022Y-5.0635
X2.5061Y-3.68
X2.5132Y-3.6534
X2.5591Y-2.2854
X2.5591Y-2.9941
X2.5591Y-3.0728
X2.5591Y-3.3878
X2.5591Y-3.7028
X2.5591Y-3.7815
X2.5591Y-3.8602
X2.5591Y-3.939
X2.5591Y-4.1752
X2.5591Y-4.2539
X2.5591Y-4.3327
X2.5591Y-4.4114
X2.5591Y-4.6476
X2.5591Y-5.1988
X2.5591Y-5.2776
X2.5591Y-6.065
X2.6378Y-2.2854
X2.6378Y-2.9941
X2.6378Y-3.0728
X2.6378Y-3.1516
X2.6378Y-3.7028
X2.6378Y-3.7815
X2.6378Y-3.8602
X2.6378Y-4.1752
X2.6378Y-4.2539
X2.6378Y-4.3327
X2.6378Y-4.4114
X2.6378Y-4.4902
X2.6378Y-4.9626
X2.6378Y-5.2776
X2.6378Y-5.5925
X2.6378Y-6.065
X2.6378Y-6.1437
X2.7165Y-2.3642
X2.7165Y-2.6791
X2.7165Y-2.7579
X2.7165Y-2.8366
X2.7165Y-3.0728
X2.7165Y-3.1516
X2.7165Y-3.4665
X2.7165Y-3.624
X2.7165Y-3.7028
X2.7165Y-3.7815
X2.7165Y-4.2539
X2.7165Y-4.3327
X2.7165Y-4.5689
X2.7165Y-5.2776
X2.7165Y-5.6713
X2.7165Y-5.8287
X2.7165Y-6.065
X2.7165Y-6.1437
X2.7578Y-5.9655
X2.7745Y-4.3743
X2.7817Y-4.3477
X2.7855Y-2.9642
X2.7953Y-2.3642
X2.7953Y-2.8366
X2.7953Y-3.1516
X2.7953Y-3.4665
X2.7953Y-3.7028
X2.7953Y-3.7815
X2.7953Y-3.939
X2.7953Y-4.2539
X2.7953Y-4.5689
X2.7953Y-5.2776
X2.7953Y-5.3563
X2.7953Y-5.435
X2.7953Y-5.8287
X2.7953Y-6.065
X2.7953Y-6.1437
X2.8666Y-5.2325
X2.8737Y-5.2058
X2.874Y-2.3642
X2.874Y-2.4429
X2.874Y-2.8366
X2.874Y-2.9941
X2.874Y-3.4665
X2.874Y-3.7028
X2.874Y-3.7815
X2.874Y-4.5689
X2.874Y-4.8839
X2.874Y-5.0413
X2.874Y-5.2776
X2.874Y-5.3563
X2.874Y-5.75
X2.874Y-5.8287
X2.8904Y-3.6146
X2.9528Y-2.3642
X2.9528Y-2.4429
X2.9528Y-2.7579
X2.9528Y-2.8366
X2.9528Y-3.0728
X2.9528Y-3.2303
X2.9528Y-3.7815
X2.9528Y-3.8602
X2.9528Y-4.0965
X2.9528Y-5.2776
X2.9528Y-5.3563
X2.9528Y-5.75
X2.9528Y-5.9862
X3.0315Y-2.3642
X3.0315Y-2.6791
X3.0315Y-2.7579
X3.0315Y-2.8366
X3.0315Y-3.0728
X3.0315Y-3.8602
X3.0315Y-4.3327
X3.0315Y-4.6476
X3.0315Y-4.7264
X3.0315Y-4.9626
X3.0315Y-5.435
X3.0315Y-5.5925
X3.0315Y-5.6713
X3.0315Y-5.75
X3.0315Y-5.9862
X3.1102Y-2.3642
X3.1102Y-2.4429
X3.1102Y-2.8366
X3.1102Y-2.9154
X3.1102Y-3.0728
X3.1102Y-3.8602
X3.1102Y-4.3327
X3.1102Y-4.4114
X3.1102Y-4.6476
X3.1102Y-5.1988
X3.1102Y-5.2776
X3.1102Y-5.75
X3.1102Y-5.8287
X3.1102Y-5.9862
X3.1102Y-6.065
X3.1102Y-6.2224
X3.146Y-4.5166
X3.1593Y-5.8362
X3.1628Y-2.9254
X3.1664Y-5.8095
X3.1699Y-2.8988
X3.189Y-2.3642
X3.189Y-2.4429
X3.189Y-2.8366
X3.189Y-3.1516
X3.189Y-3.3878
X3.189Y-3.8602
X3.189Y-4.4114
X3.189Y-4.8051
X3.189Y-5.3563
X3.189Y-5.75
X3.189Y-6.065
X3.189Y-6.1437
X3.189Y-6.2224
X3.2548Y-3.7836
X3.2619Y-3.757
X3.2677Y-2.3642
X3.2677Y-3.1516
X3.2677Y-3.4665
X3.2677Y-3.5453
X3.2677Y-3.8602
X3.2677Y-3.939
X3.2677Y-4.0177
X3.2677Y-5.1988
X3.2677Y-5.2776
X3.2677Y-6.065
X3.2677Y-6.1437
X3.2677Y-6.2224
X3.2677Y-6.3012
X3.2752Y-5.0765
X3.3465Y-2.3642
X3.3465Y-2.6791
X3.3465Y-3.1516
X3.3465Y-3.7028
X3.3465Y-3.7815
X3.3465Y-3.8602
X3.3465Y-3.939
X3.3465Y-4.3327
X3.3465Y-4.7264
X3.3465Y-5.1988
X3.3465Y-5.2776
X3.3465Y-5.5925
X3.3465Y-6.065
X3.3465Y-6.1437
X3.3465Y-6.2224
X3.3465Y-6.3012
X3.4252Y-2.2854
X3.4252Y-2.6791
X3.4252Y-2.9154
X3.4252Y-3.1516
X3.4252Y-3.624
X3.4252Y-4.0177
X3.4252Y-4.1752
X3.4252Y-4.5689
X3.4252Y-4.9626
X3.4252Y-5.2776
X3.4252Y-5.5925
X3.4252Y-5.8287
X3.4252Y-6.065
X3.4252Y-6.1437
X3.4252Y-6.2224
X3.4252Y-6.3012
X3.5039Y-2.7579
X3.5039Y-2.9154
X3.5039Y-3.2303
X3.5039Y-3.3091
X3.5039Y-3.7815
X3.5039Y-3.8602
X3.5039Y-4.2539
X3.5039Y-4.3327
X3.5039Y-4.5689
X3.5039Y-5.3563
X3.5039Y-5.6713
X3.5039Y-5.8287
X3.5039Y-6.1437
X3.5039Y-6.2224
X3.5039Y-6.3012
X3.5039Y-6.3799
X3.5308Y-5.9785
X3.5342Y-3.0677
X3.5475Y-4.3873
X3.5546Y-4.3607
X3.5827Y-2.9154
X3.5827Y-2.9941
X3.5827Y-3.0728
X3.5827Y-3.3878
X3.5827Y-4.5689
X3.5827Y-5.2776
X3.5827Y-5.3563
X3.5827Y-5.8287
X3.5827Y-5.9862
X3.5827Y-6.1437
X3.5827Y-6.2224
X3.5827Y-6.3012
X3.5827Y-6.3799
X3.6395Y-5.2455
X3.6467Y-5.2188
X3.6614Y-3.1516
X3.6614Y-3.7815
X3.6614Y-3.8602
X3.6614Y-4.9626
X3.6614Y-5.0413
X3.6614Y-5.3563
X3.6614Y-5.75
X3.6614Y-5.8287
X3.6614Y-5.9075
X3.6614Y-5.9862
X3.6614Y-6.1437
X3.6614Y-6.2224
X3.6614Y-6.3012
X3.6614Y-6.3799
X3.6634Y-3.6276
X3.7402Y-2.6004
X3.7402Y-2.8366
X3.7402Y-2.9154
X3.7402Y-3.7815
X3.7402Y-3.8602
X3.7402Y-4.0965
X3.7402Y-4.6476
X3.7402Y-5.2776
X3.7402Y-5.3563
X3.7402Y-5.435
X3.7402Y-5.5138
X3.7402Y-5.75
X3.7402Y-5.8287
X3.7402Y-5.9075
X3.7402Y-6.065
X3.7402Y-6.2224
X3.7402Y-6.3012
X3.7402Y-6.3799
X3.8189Y-2.2854
X3.8189Y-2.4429
X3.8189Y-3.0728
X3.8189Y-3.5453
X3.8189Y-3.8602
X3.8189Y-4.3327
X3.8189Y-4.6476
X3.8189Y-5.2776
X3.8189Y-5.3563
X3.8189Y-5.435
X3.8189Y-5.5925
X3.8189Y-5.75
X3.8189Y-5.8287
X3.8189Y-5.9075
X3.8189Y-6.3012
X3.8189Y-6.3799
X3.8189Y-6.4587
X3.8976Y-2.5217
X3.8976Y-2.8366
X3.8976Y-3.8602
X3.8976Y-4.4114
X3.8976Y-4.7264
X3.8976Y-5.0413
X3.8976Y-5.2776
X3.8976Y-5.3563
X3.8976Y-5.435
X3.8976Y-5.5925
X3.8976Y-5.75
X3.8976Y-5.8287
X3.8976Y-5.9075
X3.8976Y-5.9862
X3.8976Y-6.065
X3.8976Y-6.3799
X3.8976Y-6.4587
X3.919Y-4.5296
X3.9357Y-2.9384
X3.9429Y-2.9118
X3.9764Y-2.3642
X3.9764Y-2.8366
X3.9764Y-3.1516
X3.9764Y-3.8602
X3.9764Y-3.939
X3.9764Y-4.0177
X3.9764Y-4.4114
X3.9764Y-4.8051
X3.9764Y-4.9626
X3.9764Y-5.1201
X3.9764Y-5.1988
X3.9764Y-5.2776
X3.9764Y-5.3563
X3.9764Y-5.435
X3.9764Y-5.8287
X3.9764Y-5.9075
X3.9764Y-5.9862
X3.9764Y-6.065
X3.9764Y-6.1437
X3.9764Y-6.2224
X3.9764Y-6.4587
X4.0278Y-3.7966
X4.0349Y-3.77
X4.0401Y-5.1197
X4.0551Y-2.3642
X4.0551Y-3.1516
X4.0551Y-3.4665
X4.0551Y-3.5453
X4.0551Y-3.624
X4.0551Y-3.8602
X4.0551Y-3.939
X4.0551Y-4.0177
X4.0551Y-4.3327
X4.0551Y-4.4114
X4.0551Y-5.2776
X4.0551Y-5.3563
X4.0551Y-5.435
X4.0551Y-5.5138
X4.0551Y-6.065
X4.0551Y-6.1437
X4.0551Y-6.2224
X4.0551Y-6.4587
X4.1339Y-2.3642
X4.1339Y-2.6791
X4.1339Y-3.1516
X4.1339Y-3.8602
X4.1339Y-4.3327
X4.1339Y-4.5689
X4.1339Y-4.7264
X4.1339Y-5.2776
X4.1339Y-5.3563
X4.1339Y-5.435
X4.1339Y-5.5138
X4.1339Y-5.5925
X4.1339Y-5.6713
X4.1339Y-5.8287
X4.1339Y-5.9075
X4.1339Y-6.065
X4.1339Y-6.1437
X4.1339Y-6.2224
X4.1339Y-6.3012
X4.1339Y-6.4587
X4.1339Y-6.5374
X4.2126Y-2.3642
X4.2126Y-2.4429
X4.2126Y-2.9154
X4.2126Y-3.2303
X4.2126Y-3.3091
X4.2126Y-3.5453
X4.2126Y-3.624
X4.2126Y-4.2539
X4.2126Y-4.3327
X4.2126Y-4.4114
X4.2126Y-4.5689
X4.2126Y-5.0413
X4.2126Y-5.3563
X4.2126Y-5.435
X4.2126Y-5.5138
X4.2126Y-5.5925
X4.2126Y-5.6713
X4.2126Y-5.75
X4.2126Y-5.8287
X4.2126Y-5.9075
X4.2126Y-6.1437
X4.2126Y-6.2224
X4.2126Y-6.3012
X4.2126Y-6.5374
X4.2913Y-2.3642
X4.2913Y-2.4429
X4.2913Y-2.9154
X4.2913Y-3.3091
X4.2913Y-3.7815
X4.2913Y-3.8602
X4.2913Y-4.0177
X4.2913Y-4.3327
X4.2913Y-4.8839
X4.2913Y-5.3563
X4.2913Y-5.435
X4.2913Y-5.5138
X4.2913Y-5.5925
X4.2913Y-5.6713
X4.2913Y-5.75
X4.2913Y-5.9075
X4.2913Y-6.2224
X4.2913Y-6.5374
X4.3072Y-3.0807
X4.3124Y-4.4305
X4.3182Y-6.3408
X4.3195Y-4.4038
X4.3253Y-6.3142
X4.3701Y-2.3642
X4.3701Y-2.4429
X4.3701Y-2.9941
X4.3701Y-3.0728
X4.3701Y-3.3878
X4.3701Y-3.5453
X4.3701Y-3.7815
X4.3701Y-3.8602
X4.3701Y-4.3327
X4.3701Y-4.6476
X4.3701Y-5.3563
X4.3701Y-5.435
X4.3701Y-5.5138
X4.3701Y-5.5925
X4.3701Y-5.6713
X4.3701Y-5.75
X4.3701Y-6.2224
X4.3701Y-6.5374
X4.3701Y-6.6161
X4.4044Y-5.2887
X4.4116Y-5.262
X4.4283Y-3.6708
X4.4488Y-2.3642
X4.4488Y-2.4429
X4.4488Y-2.6004
X4.4488Y-2.8366
X4.4488Y-2.9154
X4.4488Y-3.2303
X4.4488Y-3.7815
X4.4488Y-3.8602
X4.4488Y-4.6476
X4.4488Y-5.1201
X4.4488Y-5.1988
X4.4488Y-5.3563
X4.4488Y-5.435
X4.4488Y-5.5138
X4.4488Y-5.5925
X4.4488Y-5.6713
X4.4488Y-5.75
X4.4488Y-6.5374
X4.4488Y-6.6161
X4.5276Y-2.3642
X4.5276Y-2.4429
X4.5276Y-2.8366
X4.5276Y-2.9154
X4.5276Y-3.1516
X4.5276Y-3.2303
X4.5276Y-3.8602
X4.5276Y-4.1752
X4.5276Y-4.6476
X4.5276Y-5.3563
X4.5276Y-5.5925
X4.5276Y-5.6713
X4.5276Y-5.75
X4.5276Y-5.8287
X4.5276Y-6.065
X4.5276Y-6.6161
X4.6063Y-2.3642
X4.6063Y-2.7579
X4.6063Y-2.8366
X4.6063Y-2.9154
X4.6063Y-3.1516
X4.6063Y-3.8602
X4.6063Y-3.939
X4.6063Y-4.4114
X4.6063Y-4.7264
X4.6063Y-4.8051
X4.6063Y-5.0413
X4.6063Y-5.5138
X4.6063Y-5.6713
X4.6063Y-5.75
X4.6063Y-5.8287
X4.6063Y-6.1437
X4.6063Y-6.3012
X4.6063Y-6.6161
X4.6063Y-6.6949
X4.6839Y-4.5728
X4.685Y-2.3642
X4.685Y-2.5217
X4.685Y-2.6004
X4.685Y-3.1516
X4.685Y-3.4665
X4.685Y-3.939
X4.685Y-4.4114
X4.685Y-4.7264
X4.685Y-5.1201
X4.685Y-5.2776
X4.685Y-5.5925
X4.685Y-5.6713
X4.685Y-5.8287
X4.685Y-6.3799
X4.685Y-6.6161
X4.685Y-6.6949
X4.6896Y-6.4831
X4.7006Y-2.9816
X4.7077Y-2.955
X4.7241Y-5.4647
X4.7638Y-2.3642
X4.7638Y-2.4429
X4.7638Y-2.8366
X4.7638Y-2.9154
X4.7638Y-3.4665
X4.7638Y-3.939
X4.7638Y-4.4114
X4.7638Y-4.4902
X4.7638Y-4.9626
X4.7638Y-5.5925
X4.7638Y-5.75
X4.7638Y-5.9862
X4.7638Y-6.3799
X4.7638Y-6.5374
X4.7638Y-6.6161
X4.7638Y-6.6949
X4.7927Y-3.8398
X4.7998Y-3.8131
X4.8425Y-2.3642
X4.8425Y-2.4429
X4.8425Y-3.2303
X4.8425Y-3.5453
X4.8425Y-3.8602
X4.8425Y-3.939
X4.8425Y-4.0965
X4.8425Y-4.4902
X4.8425Y-4.5689
X4.8425Y-4.6476
X4.8425Y-5.6713
X4.8425Y-5.9075
X4.8425Y-6.3012
X4.8425Y-6.3799
X4.8425Y-6.4587
X4.8425Y-6.6949
X4.8425Y-6.7736
X4.9213Y-2.3642
X4.9213Y-2.4429
X4.9213Y-3.2303
X4.9213Y-4.3327
X4.9213Y-4.6476
X4.9213Y-4.7264
X4.9213Y-4.9626
X4.9213Y-5.6713
X4.9213Y-5.75
X4.9213Y-5.8287
X4.9213Y-6.065
X4.9213Y-6.3012
X4.9213Y-6.3799
X4.9213Y-6.4587
X4.9213Y-6.7736
X4.9964Y-4.7755
X5.0Y-2.3642
X5.0Y-2.4429
X5.0Y-2.8366
X5.0Y-2.9154
X5.0Y-2.9941
X5.0Y-3.2303
X5.0Y-4.0177
X5.0Y-4.0965
X5.0Y-4.9626
X5.0Y-5.6713
X5.0Y-5.75
X5.0Y-5.8287
X5.0Y-5.9075
X5.0Y-6.1437
X5.0Y-6.2224
X5.0Y-6.3012
X5.0Y-6.3799
X5.0Y-6.4587
X5.0Y-6.5374
X5.0Y-6.7736
X5.0Y-6.8524
X5.0035Y-4.7489
X5.067Y-6.607
X5.0721Y-3.1239
X5.0787Y-2.3642
X5.0787Y-2.4429
X5.0787Y-2.5217
X5.0787Y-2.9941
X5.0787Y-3.624
X5.0787Y-4.0965
X5.0787Y-4.1752
X5.0787Y-4.6476
X5.0787Y-4.9626
X5.0787Y-5.2776
X5.0787Y-5.75
X5.0787Y-5.8287
X5.0787Y-5.9075
X5.0787Y-5.9862
X5.0787Y-6.065
X5.0787Y-6.5374
X5.0787Y-6.8524
X5.0807Y-6.5832
X5.0884Y-5.6337
X5.0956Y-5.6071
X5.1123Y-4.0158
X5.1575Y-2.3642
X5.1575Y-2.4429
X5.1575Y-2.5217
X5.1575Y-2.9941
X5.1575Y-3.3878
X5.1575Y-3.5453
X5.1575Y-4.1752
X5.1575Y-4.2539
X5.1575Y-4.4902
X5.1575Y-5.3563
X5.1575Y-5.6713
X5.1575Y-5.75
X5.1575Y-5.8287
X5.1575Y-5.9075
X5.1575Y-5.9862
X5.1575Y-6.1437
X5.1575Y-6.2224
X5.1575Y-6.5374
X5.1575Y-6.8524
X5.1575Y-6.9311
X5.2362Y-2.3642
X5.2362Y-2.4429
X5.2362Y-2.9941
X5.2362Y-3.0728
X5.2362Y-3.1516
X5.2362Y-3.939
X5.2362Y-4.2539
X5.2362Y-5.0413
X5.2362Y-5.1201
X5.2362Y-5.6713
X5.2362Y-5.75
X5.2362Y-5.8287
X5.2362Y-5.9075
X5.2362Y-5.9862
X5.2362Y-6.065
X5.2362Y-6.9311
X5.315Y-2.3642
X5.315Y-2.4429
X5.315Y-3.2303
X5.315Y-3.3091
X5.315Y-3.3878
X5.315Y-3.4665
X5.315Y-4.2539
X5.315Y-4.6476
X5.315Y-4.7264
X5.315Y-4.8051
X5.315Y-5.0413
X5.315Y-5.435
X5.315Y-5.5138
X5.315Y-5.8287
X5.315Y-5.9075
X5.315Y-5.9862
X5.315Y-6.065
X5.315Y-6.3799
X5.315Y-6.9311
X5.315Y-7.0098
X5.3679Y-4.9178
X5.3846Y-3.3266
X5.3889Y-6.8407
X5.3918Y-3.3
X5.3937Y-2.3642
X5.3937Y-2.4429
X5.3937Y-2.6004
X5.3937Y-2.6791
X5.3937Y-2.8366
X5.3937Y-2.9154
X5.3937Y-3.2303
X5.3937Y-3.5453
X5.3937Y-3.7815
X5.3937Y-4.2539
X5.3937Y-4.8051
X5.3937Y-4.9626
X5.3937Y-5.0413
X5.3937Y-5.5925
X5.3937Y-5.9075
X5.3937Y-5.9862
X5.3937Y-6.065
X5.3937Y-6.1437
X5.3937Y-6.4587
X5.3937Y-6.5374
X5.3937Y-6.6161
X5.3937Y-6.6949
X5.3937Y-7.0098
X5.3937Y-7.0886
X5.4162Y-5.7796
X5.4724Y-2.3642
X5.4724Y-2.4429
X5.4724Y-2.6004
X5.4724Y-2.6791
X5.4724Y-2.7579
X5.4724Y-3.1516
X5.4724Y-3.2303
X5.4724Y-3.5453
X5.4724Y-4.2539
X5.4724Y-4.3327
X5.4724Y-4.4114
X5.4724Y-4.6476
X5.4724Y-4.7264
X5.4724Y-4.8051
X5.4724Y-5.3563
X5.4724Y-5.435
X5.4724Y-5.9075
X5.4724Y-5.9862
X5.4724Y-6.065
X5.4724Y-6.1437
X5.4724Y-6.7736
X5.4724Y-7.0886
X5.4767Y-4.1848
X5.4838Y-4.1582
X5.5512Y-2.3642
X5.5512Y-2.4429
X5.5512Y-2.6004
X5.5512Y-2.6791
X5.5512Y-2.7579
X5.5512Y-3.0728
X5.5512Y-3.5453
X5.5512Y-4.0965
X5.5512Y-4.1752
X5.5512Y-4.2539
X5.5512Y-4.3327
X5.5512Y-4.7264
X5.5512Y-4.8839
X5.5512Y-4.9626
X5.5512Y-5.6713
X5.5512Y-5.9862
X5.5512Y-6.065
X5.5512Y-6.1437
X5.5512Y-6.2224
X5.5512Y-6.6161
X5.5512Y-6.6949
X5.5512Y-6.7736
X5.5512Y-6.8524
X5.5512Y-7.1673
X5.6299Y-2.4429
X5.6299Y-2.6004
X5.6299Y-2.6791
X5.6299Y-2.7579
X5.6299Y-3.0728
X5.6299Y-3.5453
X5.6299Y-4.2539
X5.6299Y-4.3327
X5.6299Y-4.9626
X5.6299Y-5.0413
X5.6299Y-5.2776
X5.6299Y-5.9862
X5.6299Y-6.065
X5.6299Y-6.1437
X5.6299Y-6.2224
X5.6299Y-6.3012
X5.6299Y-6.6949
X5.6299Y-6.7736
X5.6299Y-6.8524
X5.6299Y-6.9311
X5.6299Y-7.2461
X5.6885Y-5.0904
X5.6956Y-5.0637
X5.7087Y-2.2854
X5.7087Y-2.6004
X5.7087Y-2.6791
X5.7087Y-2.7579
X5.7087Y-2.8366
X5.7087Y-3.1516
X5.7087Y-3.3091
X5.7087Y-3.624
X5.7087Y-3.7028
X5.7087Y-3.939
X5.7087Y-4.0177
X5.7087Y-4.5689
X5.7087Y-4.6476
X5.7087Y-5.2776
X5.7087Y-5.9862
X5.7087Y-6.065
X5.7087Y-6.1437
X5.7087Y-6.2224
X5.7087Y-6.3012
X5.7087Y-6.4587
X5.7087Y-6.6161
X5.7087Y-6.6949
X5.7087Y-6.7736
X5.7087Y-6.8524
X5.7087Y-6.9311
X5.7213Y-7.058
X5.7408Y-7.0385
X5.7561Y-3.469
X5.7805Y-5.9485
X5.7874Y-2.2854
X5.7874Y-2.3642
X5.7874Y-2.6004
X5.7874Y-2.6791
X5.7874Y-2.7579
X5.7874Y-2.8366
X5.7874Y-3.3878
X5.7874Y-3.624
X5.7874Y-4.1752
X5.7874Y-4.4902
X5.7874Y-5.2776
X5.7874Y-5.5925
X5.7874Y-5.75
X5.7874Y-6.065
X5.7874Y-6.1437
X5.7874Y-6.2224
X5.7874Y-6.3012
X5.7874Y-6.3799
X5.7874Y-7.0098
X5.7877Y-5.9219
X5.8044Y-4.3307
X5.8661Y-2.3642
X5.8661Y-2.4429
X5.8661Y-2.6791
X5.8661Y-2.7579
X5.8661Y-2.8366
X5.8661Y-3.2303
X5.8661Y-3.3091
X5.8661Y-3.3878
X5.8661Y-3.8602
X5.8661Y-3.939
X5.8661Y-4.4902
X5.8661Y-4.5689
X5.8661Y-4.8051
X5.8661Y-5.3563
X5.8661Y-5.9862
X5.8661Y-6.065
X5.8661Y-6.1437
X5.8661Y-6.3799
X5.8661Y-6.6161
X5.9449Y-2.2854
X5.9449Y-2.4429
X5.9449Y-2.5217
X5.9449Y-2.7579
X5.9449Y-2.8366
X5.9449Y-2.9154
X5.9449Y-2.9941
X5.9449Y-3.2303
X5.9449Y-3.3091
X5.9449Y-3.4665
X5.9449Y-4.2539
X5.9449Y-4.5689
X5.9449Y-5.3563
X5.9449Y-6.1437
X5.9449Y-6.2224
X5.9449Y-6.3012
X5.9449Y-6.6161
X5.9449Y-6.6949
X5.9719Y-7.367
X6.0145Y-5.8665
X6.0236Y-2.2854
X6.0236Y-2.3642
X6.0236Y-2.5217
X6.0236Y-2.6004
X6.0236Y-2.8366
X6.0236Y-2.9941
X6.0236Y-3.5453
X6.0236Y-3.624
X6.0236Y-3.7028
X6.0236Y-3.7815
X6.0236Y-4.5689
X6.0236Y-4.9626
X6.0236Y-5.1201
X6.0236Y-5.3563
X6.0236Y-6.065
X6.0236Y-6.1437
X6.0236Y-6.2224
X6.0236Y-6.3012
X6.0236Y-6.3799
X6.0236Y-6.4587
X6.0236Y-6.9311
X6.0236Y-7.1673
X6.0236Y-7.2461
X6.0236Y-7.3248
X6.0236Y-7.4035
X6.0487Y-5.8757
X6.06Y-5.2327
X6.0767Y-3.6415
X6.0838Y-3.6149
X6.1024Y-2.2854
X6.1024Y-2.3642
X6.1024Y-2.4429
X6.1024Y-2.6004
X6.1024Y-2.6791
X6.1024Y-2.9154
X6.1024Y-3.1516
X6.1024Y-3.5453
X6.1024Y-3.8602
X6.1024Y-4.0965
X6.1024Y-4.5689
X6.1024Y-5.1201
X6.1024Y-5.8287
X6.1024Y-5.9075
X6.1024Y-6.1437
X6.1024Y-6.2224
X6.1024Y-6.3012
X6.1024Y-6.3799
X6.1024Y-6.4587
X6.1024Y-6.5374
X6.1024Y-7.0886
X6.1024Y-7.3248
X6.1024Y-7.4035
X6.1024Y-7.4823
X6.1569Y-5.3348
X6.1688Y-4.4997
X6.1759Y-4.473
X6.1811Y-2.2854
X6.1811Y-2.3642
X6.1811Y-2.4429
X6.1811Y-2.5217
X6.1811Y-2.6004
X6.1811Y-2.6791
X6.1811Y-2.9941
X6.1811Y-3.0728
X6.1811Y-3.8602
X6.1811Y-4.1752
X6.1811Y-4.2539
X6.1811Y-4.5689
X6.1811Y-4.6476
X6.1811Y-4.7264
X6.1811Y-5.5925
X6.1811Y-5.6713
X6.1811Y-5.75
X6.1811Y-5.8287
X6.1811Y-5.9075
X6.1811Y-5.9862
X6.1811Y-6.2224
X6.1811Y-6.3012
X6.1811Y-6.3799
X6.1811Y-6.4587
X6.1811Y-6.5374
X6.1811Y-6.6161
X6.1811Y-6.6949
X6.1811Y-7.1673
X6.1811Y-7.2461
X6.1811Y-7.3248
X6.1911Y-5.344
X6.2598Y-2.2854
X6.2598Y-2.3642
X6.2598Y-2.4429
X6.2598Y-2.5217
X6.2598Y-2.6004
X6.2598Y-2.6791
X6.2598Y-2.9941
X6.2598Y-3.0728
X6.2598Y-3.3878
X6.2598Y-3.8602
X6.2598Y-4.4902
X6.2598Y-4.5689
X6.2598Y-4.6476
X6.2598Y-5.2776
X6.2598Y-5.3563
X6.2598Y-5.435
X6.2598Y-5.5138
X6.2598Y-5.6713
X6.2598Y-5.75
X6.2598Y-5.8287
X6.2598Y-5.9075
X6.2598Y-5.9862
X6.2598Y-6.065
X6.2598Y-6.3012
X6.2598Y-6.3799
X6.2598Y-6.4587
X6.2598Y-6.5374
X6.2598Y-6.6161
X6.2598Y-6.6949
X6.2598Y-6.7736
X6.2598Y-7.3248
X6.3386Y-2.2854
X6.3386Y-2.3642
X6.3386Y-2.4429
X6.3386Y-2.5217
X6.3386Y-2.6004
X6.3386Y-2.6791
X6.3386Y-2.9941
X6.3386Y-3.0728
X6.3386Y-3.1516
X6.3386Y-3.624
X6.3386Y-6.4587
X6.3386Y-6.5374
X6.3386Y-6.6161
X6.3386Y-6.6949
X6.3386Y-6.7736
X6.3386Y-6.8524
X6.3386Y-7.0098
X6.3386Y-7.2461
X6.3386Y-7.3248
X6.3386Y-7.6398
X6.4027Y-4.4176
X6.4173Y-2.2854
X6.4173Y-2.3642
X6.4173Y-2.4429
X6.4173Y-2.5217
X6.4173Y-2.6004
X6.4173Y-3.1516
X6.4173Y-3.4665
X6.4173Y-3.624
X6.4173Y-3.939
X6.4173Y-4.8051
X6.4173Y-4.8839
X6.4173Y-4.9626
X6.4173Y-5.0413
X6.4173Y-5.1201
X6.4173Y-5.1988
X6.4173Y-5.2776
X6.4173Y-5.3563
X6.4173Y-5.435
X6.4173Y-5.5138
X6.4173Y-5.5925
X6.4173Y-5.6713
X6.4173Y-5.75
X6.4173Y-5.8287
X6.4173Y-5.9075
X6.4173Y-5.9862
X6.4173Y-6.065
X6.4173Y-6.2224
X6.4173Y-6.4587
X6.4173Y-6.5374
X6.4173Y-6.6161
X6.4173Y-6.6949
X6.4173Y-6.7736
X6.4173Y-6.8524
X6.4173Y-6.9311
X6.4173Y-7.0886
X6.4173Y-7.1673
X6.4173Y-7.2461
X6.4173Y-7.3248
X6.4173Y-7.4035
X6.4173Y-7.4823
X6.4173Y-7.561
X6.4173Y-7.9547
X6.4369Y-4.4268
X6.4482Y-3.7838
X6.4528Y-2.7008
X6.4961Y-2.2854
X6.4961Y-2.3642
X6.4961Y-2.4429
X6.4961Y-2.5217
X6.4961Y-2.6004
X6.4961Y-4.4114
X6.4961Y-4.4902
X6.4961Y-6.4587
X6.4961Y-6.5374
X6.4961Y-6.6161
X6.4961Y-6.6949
X6.4961Y-6.7736
X6.4961Y-6.8524
X6.4961Y-6.9311
X6.4961Y-7.0098
X6.4961Y-7.1673
X6.4961Y-7.2461
X6.4961Y-7.3248
X6.4961Y-7.4035
X6.4961Y-7.6398
X6.4961Y-8.0335
X6.4961Y-8.1122
X6.4961Y-2.6791
X6.5394Y-2.8976
X6.5451Y-3.886
X6.5748Y-2.2854
X6.5748Y-2.4429
X6.5748Y-2.5217
X6.5748Y-2.6004
X6.5748Y-3.7815
X6.5748Y-4.7264
X6.5748Y-4.8051
X6.5748Y-5.6713
X6.5748Y-5.75
X6.5748Y-5.8287
X6.5748Y-5.9075
X6.5748Y-5.9862
X6.5748Y-6.065
X6.5748Y-6.1437
X6.5748Y-6.2224
X6.5748Y-6.5374
X6.5748Y-6.6161
X6.5748Y-6.6949
X6.5748Y-6.7736
X6.5748Y-6.8524
X6.5748Y-6.9311
X6.5748Y-7.0886
X6.5748Y-7.2461
X6.5748Y-7.3248
X6.5748Y-7.4035
X6.5748Y-7.6398
X6.5748Y-8.0335
X6.5748Y-8.1122
X6.5794Y-3.8951
X6.6123Y-7.0067
X6.6399Y-7.0067
X6.6535Y-2.5217
X6.6535Y-2.6004
X6.6535Y-2.7579
X6.6535Y-3.7028
X6.6535Y-3.7815
X6.6535Y-3.8602
X6.6535Y-3.939
X6.6535Y-4.0177
X6.6535Y-5.8287
X6.6535Y-5.9075
X6.6535Y-5.9862
X6.6535Y-6.065
X6.6535Y-6.1437
X6.6535Y-6.2224
X6.6535Y-7.3248
X6.6535Y-7.4035
X6.6535Y-7.4823
X6.6535Y-7.561
X6.6535Y-7.9547
X6.6535Y-8.0335
X6.6535Y-8.1122
X6.6575Y-3.1024
X6.7126Y-3.6028
X6.7244Y-3.1457
X6.7244Y-3.815
X6.7244Y-3.8465
X6.7244Y-3.9094
X6.7244Y-3.9409
X6.7244Y-4.0039
X6.7244Y-4.0354
X6.7244Y-3.7835
X6.7244Y-3.878
X6.7244Y-3.9724
X6.7323Y-2.6791
X6.7323Y-2.7579
X6.7323Y-2.8366
X6.7323Y-2.9941
X6.7323Y-5.9862
X6.7323Y-6.065
X6.7323Y-6.1437
X6.7323Y-6.2224
X6.7323Y-6.4587
X6.7323Y-6.7736
X6.7323Y-7.0886
X6.7323Y-7.4035
X6.7323Y-7.6398
X6.7559Y-3.6028
X6.7835Y-3.748
X6.7992Y-2.9114
X6.7992Y-2.9902
X6.8012Y-3.6067
X6.811Y-2.6004
X6.811Y-6.4587
X6.811Y-7.6398
X6.8268Y-3.6067
X6.8464Y-3.3189
X6.8464Y-3.3465
X6.8464Y-3.374
X6.8465Y-4.0984
X6.8465Y-4.126
X6.8465Y-4.1535
X6.8524Y-3.6067
X6.874Y-3.374
X6.874Y-3.3189
X6.874Y-3.3465
X6.874Y-4.1535
X6.874Y-4.0984
X6.874Y-4.126
X6.8898Y-2.2854
X6.8898Y-2.3642
X6.8898Y-2.4429
X6.8898Y-7.561
X6.8898Y-7.876
X6.8898Y-7.9547
X6.8898Y-8.0335
X6.8898Y-8.1122
X6.8898Y-8.5846
X6.9016Y-3.3189
X6.9016Y-3.3465
X6.9016Y-3.374
X6.9016Y-4.0984
X6.9016Y-4.126
X6.9016Y-4.1535
X6.9272Y-7.6181
X6.9272Y-7.6457
X6.9547Y-7.6181
X6.9547Y-7.6457
X6.9685Y-2.4429
X6.9685Y-3.7028
X6.9685Y-3.8602
X6.9685Y-3.939
X6.9685Y-4.0177
X6.9685Y-4.0965
X6.9685Y-4.1752
X6.9685Y-6.6949
X6.9685Y-6.9311
X6.9685Y-7.2461
X6.9685Y-7.876
X6.9685Y-7.9547
X6.9685Y-8.0335
X6.9685Y-8.1122
X6.9685Y-8.5846
X6.9866Y-2.9004
X6.9866Y-3.0004
X7.0038Y-7.1133
X7.0472Y-2.4429
X7.0472Y-3.8602
X7.0472Y-3.939
X7.0472Y-4.0177
X7.0472Y-4.0965
X7.0472Y-4.1752
X7.0472Y-6.3012
X7.0472Y-7.0098
X7.0472Y-7.1673
X7.0472Y-7.3248
X7.0472Y-7.4035
X7.0472Y-7.4823
X7.0472Y-7.561
X7.0472Y-7.6398
X7.0472Y-7.876
X7.0472Y-7.9547
X7.0472Y-8.0335
X7.0472Y-8.1122
X7.0472Y-8.5846
X7.0472Y-8.6634
X7.1024Y-2.6063
X7.1024Y-2.5276
X7.1024Y-2.5669
X7.1142Y-2.937
X7.1256Y-3.1122
X7.126Y-2.2854
X7.126Y-2.3642
X7.126Y-3.5453
X7.126Y-3.624
X7.126Y-3.7815
X7.126Y-3.8602
X7.126Y-3.939
X7.126Y-4.0177
X7.126Y-4.0965
X7.126Y-7.0098
X7.126Y-7.1673
X7.126Y-7.3248
X7.126Y-7.4035
X7.126Y-7.4823
X7.126Y-7.561
X7.126Y-7.6398
X7.126Y-7.876
X7.126Y-7.9547
X7.126Y-8.0335
X7.126Y-8.1122
X7.126Y-8.5846
X7.126Y-8.6634
X7.1417Y-2.937
X7.1614Y-2.6614
X7.1732Y-3.0
X7.2047Y-2.2854
X7.2047Y-3.0728
X7.2047Y-3.2303
X7.2047Y-3.624
X7.2047Y-3.7028
X7.2047Y-3.7815
X7.2047Y-3.8602
X7.2047Y-3.939
X7.2047Y-4.0177
X7.2047Y-6.3799
X7.2047Y-6.9311
X7.2047Y-7.0098
X7.2047Y-7.0886
X7.2047Y-7.2461
X7.2047Y-7.3248
X7.2047Y-7.4035
X7.2047Y-7.4823
X7.2047Y-7.561
X7.2047Y-7.6398
X7.2047Y-7.876
X7.2047Y-7.9547
X7.2047Y-8.0335
X7.2047Y-8.1122
X7.2047Y-8.5846
X7.2047Y-2.6535
X7.2087Y-2.4409
X7.2244Y-2.8543
X7.2244Y-2.9409
X7.2323Y-2.6535
X7.252Y-3.122
X7.2598Y-2.6535
X7.2717Y-2.7402
X7.2717Y-2.7677
X7.2717Y-2.7953
X7.2756Y-2.878
X7.2795Y-3.0551
X7.2835Y-2.2854
X7.2835Y-3.4665
X7.2835Y-4.0177
X7.2835Y-6.4587
X7.2835Y-6.6949
X7.2835Y-6.9311
X7.2835Y-7.0098
X7.2835Y-7.0886
X7.2835Y-7.1673
X7.2835Y-7.3248
X7.2835Y-7.561
X7.2835Y-7.6398
X7.2835Y-7.876
X7.2835Y-7.9547
X7.2992Y-2.7953
X7.2992Y-2.7677
X7.2992Y-2.7402
X7.3228Y-3.2165
X7.3268Y-2.7953
X7.3268Y-2.7402
X7.3268Y-2.7677
X7.3346Y-2.6575
X7.3504Y-2.4311
X7.3504Y-3.2795
X7.3622Y-2.2854
X7.3622Y-2.9154
X7.3622Y-2.9941
X7.3622Y-3.1516
X7.3622Y-3.4665
X7.3622Y-3.5453
X7.3622Y-4.0177
X7.3622Y-6.4587
X7.3622Y-6.5374
X7.3622Y-6.6949
X7.3622Y-6.8524
X7.3622Y-6.9311
X7.3622Y-7.0098
X7.3622Y-7.0886
X7.3622Y-7.1673
X7.3622Y-7.3248
X7.3622Y-7.561
X7.3622Y-7.7185
X7.3622Y-7.7972
X7.3622Y-7.9547
X7.3661Y-3.9528
X7.4409Y-2.9941
X7.4409Y-3.4665
X7.4409Y-3.5453
X7.4409Y-6.5374
X7.4409Y-6.8524
X7.4409Y-7.0098
X7.4409Y-7.0886
X7.4409Y-7.1673
X7.4409Y-7.7972
X7.4409Y-7.876
X7.4409Y-8.0335
X7.4409Y-8.1122
X7.4409Y-8.2697
X7.4409Y-8.3484
X7.4646Y-2.8858
X7.4843Y-3.2047
X7.4921Y-2.6693
X7.5118Y-3.2047
X7.5197Y-2.6004
X7.5197Y-2.7579
X7.5197Y-2.9941
X7.5197Y-3.4665
X7.5197Y-6.5374
X7.5197Y-7.876
X7.5197Y-7.9547
X7.5197Y-8.1122
X7.5197Y-8.2697
X7.5197Y-8.3484
X7.5236Y-2.6693
X7.5551Y-3.1929
X7.5591Y-8.6634
X7.5866Y-3.7087
X7.5984Y-2.2854
X7.5984Y-2.4429
X7.5984Y-2.6004
X7.5984Y-6.5374
X7.5984Y-7.4035
X7.6201Y-8.2953
X7.6201Y-8.3543
X7.6398Y-7.9421
X7.6398Y-7.1921
X7.6398Y-7.2197
X7.6398Y-7.9697
X7.6496Y-3.2559
X7.6516Y-8.2953
X7.6516Y-2.8484
X7.6516Y-8.3543
X7.6575Y-8.4488
X7.6634Y-2.9469
X7.6772Y-2.2854
X7.6772Y-2.6004
X7.6772Y-3.3878
X7.6772Y-3.4665
X7.6772Y-3.7028
X7.6772Y-3.7815
X7.6772Y-3.8602
X7.6772Y-3.939
X7.6772Y-6.5374
X7.6772Y-7.0886
X7.6772Y-7.4035
X7.6772Y-7.7972
X7.6791Y-3.189
X7.6791Y-3.2165
X7.6831Y-8.2953
X7.6831Y-8.3543
X7.7067Y-3.189
X7.7067Y-3.2165
X7.7126Y-8.4488
X7.7146Y-8.3543
X7.7146Y-8.2953
X7.7244Y-8.5591
X7.7244Y-8.5906
X7.7244Y-8.622
X7.7264Y-2.9469
X7.7343Y-3.189
X7.7343Y-3.2165
X7.7559Y-2.2854
X7.7559Y-2.6004
X7.7559Y-3.4665
X7.7559Y-3.7028
X7.7559Y-3.7815
X7.7559Y-3.8602
X7.7559Y-3.939
X7.7559Y-6.5374
X7.7559Y-6.9311
X7.7559Y-7.6398
X7.7579Y-2.6654
X7.7579Y-2.7264
X7.7579Y-8.2953
X7.7638Y-2.937
X7.7894Y-2.6654
X7.7894Y-2.7264
X7.7894Y-8.2953
X7.7953Y-8.3819
X7.8189Y-2.937
X7.8209Y-2.6654
X7.8209Y-2.7264
X7.8209Y-8.2953
X7.8346Y-2.2854
X7.8346Y-2.6004
X7.8346Y-3.4665
X7.8346Y-3.7028
X7.8346Y-3.7815
X7.8346Y-3.8602
X7.8346Y-3.939
X7.8346Y-6.5374
X7.8346Y-6.9311
X7.8524Y-2.6654
X7.8524Y-2.7264
X7.8524Y-8.2953
X7.8622Y-2.9567
X7.8622Y-2.9213
X7.8622Y-2.8898
X7.8661Y-3.1339
X7.8661Y-8.5591
X7.8661Y-8.5906
X7.8661Y-8.622
X7.9134Y-2.2854
X7.9134Y-2.6004
X7.9134Y-3.4665
X7.9134Y-3.7815
X7.9134Y-3.8602
X7.9134Y-3.939
X7.9134Y-6.5374
X7.9134Y-7.0098
X7.9134Y-7.0886
X7.9134Y-7.4035
X7.9134Y-7.7185
X7.9134Y-7.7972
X7.9134Y-8.4272
X7.9252Y-2.7953
X7.9567Y-2.937
X7.9646Y-2.7953
X7.9921Y-2.2854
X7.9921Y-2.6004
X7.9921Y-3.8602
X7.9921Y-3.939
X7.9921Y-6.5374
X7.9921Y-7.1673
X7.9921Y-7.4035
X8.0039Y-2.7953
X8.0315Y-8.6634
X8.0354Y-8.011
X8.0354Y-7.261
X8.0433Y-2.7953
X8.0709Y-3.0039
X8.0709Y-3.1535
X8.0709Y-2.6004
X8.0709Y-3.939
X8.0709Y-6.5374
X8.0709Y-7.0886
X8.0709Y-7.1673
X8.0709Y-7.4035
X8.0709Y-7.4823
X8.0709Y-7.7185
X8.0709Y-8.1122
X8.0709Y-8.2697
X8.0709Y-8.3484
X8.0709Y-8.4272
X8.0709Y-2.878
X8.1378Y-3.311
X8.1378Y-3.3976
X8.1496Y-2.2854
X8.1496Y-2.6004
X8.1496Y-3.4665
X8.1496Y-3.8602
X8.1496Y-3.939
X8.1496Y-6.5374
X8.1496Y-7.0098
X8.1496Y-7.0886
X8.1496Y-7.1673
X8.1496Y-7.2461
X8.1496Y-7.3248
X8.1496Y-7.4035
X8.1496Y-7.4823
X8.1496Y-7.561
X8.1496Y-7.7185
X8.1496Y-8.0335
X8.1496Y-8.1122
X8.1496Y-8.2697
X8.1496Y-8.4272
X8.1614Y-2.7598
X8.1772Y-3.3976
X8.2008Y-2.7598
X8.2165Y-3.3858
X8.2165Y-3.4173
X8.2165Y-3.4488
X8.2165Y-3.4803
X8.2283Y-2.2854
X8.2283Y-2.6004
X8.2283Y-3.8602
X8.2283Y-3.939
X8.2283Y-4.0177
X8.2283Y-6.4587
X8.2283Y-6.5374
X8.2283Y-6.6949
X8.2283Y-6.8524
X8.2283Y-6.9311
X8.2283Y-7.0098
X8.2283Y-7.0886
X8.2283Y-7.1673
X8.2283Y-7.2461
X8.2283Y-7.3248
X8.2283Y-7.561
X8.2283Y-7.6398
X8.2283Y-7.9547
X8.2402Y-2.7598
X8.2441Y-2.9843
X8.2441Y-3.5079
X8.2638Y-3.3071
X8.2677Y-2.8228
X8.2756Y-3.5079
X8.2795Y-2.7598
X8.2953Y-3.3071
X8.3071Y-2.2854
X8.3071Y-2.6004
X8.3071Y-3.8602
X8.3071Y-3.939
X8.3071Y-4.0177
X8.3071Y-6.4587
X8.3071Y-6.6949
X8.3071Y-6.7736
X8.3071Y-6.9311
X8.3071Y-7.0098
X8.3071Y-7.0886
X8.3071Y-7.1673
X8.3071Y-7.2461
X8.3071Y-7.3248
X8.3071Y-7.561
X8.3071Y-7.876
X8.3071Y-7.9547
X8.3071Y-3.5079
X8.3189Y-2.7598
X8.3268Y-3.3071
X8.3307Y-3.2087
X8.3386Y-3.5079
X8.3583Y-3.3071
X8.3622Y-2.8622
X8.3701Y-3.5079
X8.3858Y-2.2854
X8.3858Y-2.6004
X8.3858Y-3.8602
X8.3858Y-3.939
X8.3858Y-4.0177
X8.3858Y-6.3799
X8.3858Y-7.0098
X8.3858Y-7.0886
X8.3858Y-7.1673
X8.3858Y-7.2461
X8.3858Y-7.3248
X8.3858Y-7.4035
X8.3858Y-7.4823
X8.3858Y-7.7972
X8.3858Y-7.876
X8.3858Y-7.9547
X8.3858Y-8.0335
X8.3858Y-8.1122
X8.3858Y-8.5846
X8.3898Y-3.3071
X8.3976Y-2.9606
X8.4016Y-3.5079
X8.4213Y-3.3071
X8.4646Y-2.2854
X8.4646Y-2.6004
X8.4646Y-4.0177
X8.4646Y-4.0965
X8.4646Y-7.0098
X8.4646Y-7.0886
X8.4646Y-7.3248
X8.4646Y-7.4035
X8.4646Y-7.7185
X8.4646Y-7.7972
X8.4646Y-7.876
X8.4646Y-7.9547
X8.4646Y-8.0335
X8.4646Y-8.1122
X8.4646Y-8.5846
X8.4646Y-8.6634
X8.4646Y-3.3819
X8.4646Y-3.4449
X8.4646Y-3.4134
X8.4646Y-3.3504
X8.4803Y-2.7244
X8.5118Y-3.1457
X8.5433Y-3.939
X8.5433Y-4.0177
X8.5433Y-4.0965
X8.5433Y-4.1752
X8.5433Y-6.3012
X8.5433Y-7.0098
X8.5433Y-7.0886
X8.5433Y-7.6398
X8.5433Y-7.7185
X8.5433Y-7.7972
X8.5433Y-7.876
X8.5433Y-7.9547
X8.5433Y-8.0335
X8.5433Y-8.1122
X8.5433Y-8.5846
X8.5433Y-8.6634
X8.5433Y-2.8425
X8.5433Y-3.7815
X8.5551Y-2.9449
X8.5748Y-2.8504
X8.5751Y-2.6077
X8.622Y-2.4429
X8.622Y-3.8602
X8.622Y-3.939
X8.622Y-4.0177
X8.622Y-4.0965
X8.622Y-4.1752
X8.622Y-6.6949
X8.622Y-6.9311
X8.622Y-7.561
X8.622Y-7.6398
X8.622Y-7.7185
X8.622Y-7.7972
X8.622Y-7.876
X8.622Y-7.9547
X8.622Y-8.0335
X8.622Y-8.1122
X8.622Y-8.5846
X8.6256Y-7.0113
X8.6394Y-7.0352
X8.7008Y-2.2854
X8.7008Y-2.3642
X8.7008Y-2.4429
X8.7008Y-2.5217
X8.7008Y-2.7579
X8.7008Y-3.0728
X8.7008Y-4.0177
X8.7008Y-4.0965
X8.7008Y-4.1752
X8.7008Y-6.4587
X8.7008Y-6.6949
X8.7008Y-7.2461
X8.7008Y-7.4823
X8.7008Y-7.561
X8.7008Y-7.6398
X8.7008Y-7.7185
X8.7008Y-7.7972
X8.7008Y-7.876
X8.7008Y-7.9547
X8.7008Y-8.0335
X8.7008Y-8.1122
X8.7008Y-8.5846
X8.7008Y-2.8976
X8.7165Y-3.8898
X8.7165Y-3.9291
X8.7756Y-3.1732
X8.7795Y-2.5217
X8.7795Y-2.6004
X8.7795Y-2.8366
X8.7795Y-3.7815
X8.7795Y-4.0177
X8.7795Y-4.0965
X8.7795Y-4.1752
X8.7795Y-6.6949
X8.7795Y-7.2461
X8.7795Y-7.4035
X8.7795Y-7.6398
X8.7795Y-7.7185
X8.7795Y-7.7972
X8.7795Y-7.876
X8.8583Y-2.5217
X8.8583Y-2.6004
X8.8583Y-2.6791
X8.8583Y-2.8366
X8.8583Y-3.0728
X8.8583Y-3.1516
X8.8583Y-3.2303
X8.8583Y-4.0177
X8.8583Y-4.0965
X8.8583Y-4.1752
X8.8583Y-4.2539
X8.8583Y-4.3327
X8.8583Y-4.4114
X8.8583Y-4.4902
X8.8583Y-5.9862
X8.8583Y-6.065
X8.8583Y-6.1437
X8.8583Y-6.2224
X8.8583Y-6.7736
X8.8583Y-7.1673
X8.8583Y-7.2461
X8.8583Y-7.4035
X8.8583Y-7.6398
X8.8583Y-7.7185
X8.8583Y-7.7972
X8.8583Y-7.876
X8.937Y-2.5217
X8.937Y-2.6004
X8.937Y-2.7579
X8.937Y-3.0728
X8.937Y-3.7028
X8.937Y-3.7815
X8.937Y-5.8287
X8.937Y-5.9075
X8.937Y-5.9862
X8.937Y-6.065
X8.937Y-6.1437
X8.937Y-6.2224
X8.937Y-6.6161
X8.937Y-6.6949
X8.937Y-6.7736
X8.937Y-7.1673
X8.937Y-7.4035
X8.937Y-7.4823
X8.937Y-7.7972
X8.937Y-7.876
X8.937Y-7.9547
X8.937Y-8.0335
X8.937Y-8.1122
X8.937Y-2.6457
X8.9409Y-2.8492
X9.0027Y-6.8731
X9.0072Y-3.8954
X9.0157Y-2.2854
X9.0157Y-2.4429
X9.0157Y-2.5217
X9.0157Y-2.6004
X9.0157Y-3.3878
X9.0157Y-3.624
X9.0157Y-3.7028
X9.0157Y-3.7815
X9.0157Y-4.7264
X9.0157Y-4.8051
X9.0157Y-5.6713
X9.0157Y-5.75
X9.0157Y-5.8287
X9.0157Y-5.9075
X9.0157Y-5.9862
X9.0157Y-6.065
X9.0157Y-6.1437
X9.0157Y-6.2224
X9.0157Y-6.4587
X9.0157Y-6.5374
X9.0157Y-6.6161
X9.0157Y-6.6949
X9.0157Y-6.7736
X9.0157Y-6.9311
X9.0157Y-7.0886
X9.0157Y-7.2461
X9.0157Y-7.4035
X9.0157Y-7.9547
X9.0157Y-8.0335
X9.0157Y-8.1122
X9.0414Y-3.8863
X9.0945Y-2.2854
X9.0945Y-2.3642
X9.0945Y-2.4429
X9.0945Y-2.5217
X9.0945Y-2.6004
X9.0945Y-3.1516
X9.0945Y-4.8051
X9.0945Y-4.8839
X9.0945Y-4.9626
X9.0945Y-5.0413
X9.0945Y-5.1201
X9.0945Y-5.1988
X9.0945Y-5.2776
X9.0945Y-5.3563
X9.0945Y-5.435
X9.0945Y-5.5138
X9.0945Y-5.5925
X9.0945Y-5.6713
X9.0945Y-5.75
X9.0945Y-5.8287
X9.0945Y-5.9075
X9.0945Y-5.9862
X9.0945Y-6.065
X9.0945Y-6.1437
X9.0945Y-6.2224
X9.0945Y-6.4587
X9.0945Y-6.5374
X9.0945Y-6.6161
X9.0945Y-6.6949
X9.0945Y-6.7736
X9.0945Y-6.8524
X9.0945Y-7.1673
X9.0945Y-7.2461
X9.0945Y-7.7185
X9.0945Y-7.7972
X9.0945Y-7.876
X9.0945Y-8.0335
X9.0945Y-8.1122
X9.15Y-4.4285
X9.1732Y-2.2854
X9.1732Y-2.3642
X9.1732Y-2.4429
X9.1732Y-2.5217
X9.1732Y-2.6004
X9.1732Y-3.1516
X9.1732Y-3.624
X9.1732Y-3.939
X9.1732Y-6.1437
X9.1732Y-6.2224
X9.1732Y-6.4587
X9.1732Y-6.5374
X9.1732Y-6.6161
X9.1732Y-6.6949
X9.1732Y-6.7736
X9.1732Y-6.8524
X9.1732Y-7.4823
X9.1732Y-7.561
X9.1732Y-7.6398
X9.1732Y-7.7185
X9.1732Y-7.7972
X9.1732Y-7.876
X9.1732Y-7.9547
X9.1772Y-3.0748
X9.1843Y-4.4194
X9.2063Y-3.6954
X9.2067Y-3.0748
X9.2134Y-3.722
X9.252Y-2.2854
X9.252Y-2.3642
X9.252Y-2.4429
X9.252Y-2.5217
X9.252Y-2.6004
X9.252Y-2.9941
X9.252Y-3.0728
X9.252Y-3.1516
X9.252Y-3.3878
X9.252Y-3.624
X9.252Y-6.4587
X9.252Y-6.5374
X9.252Y-6.6161
X9.252Y-6.6949
X9.252Y-6.7736
X9.252Y-7.0098
X9.252Y-7.0886
X9.252Y-7.1673
X9.252Y-7.2461
X9.252Y-7.6398
X9.252Y-7.7185
X9.252Y-7.7972
X9.252Y-7.876
X9.3222Y-4.455
X9.3307Y-2.2854
X9.3307Y-2.3642
X9.3307Y-2.4429
X9.3307Y-2.5217
X9.3307Y-2.6004
X9.3307Y-2.9941
X9.3307Y-3.0728
X9.3307Y-3.3878
X9.3307Y-4.5689
X9.3307Y-4.8051
X9.3307Y-5.2776
X9.3307Y-5.3563
X9.3307Y-5.435
X9.3307Y-5.5138
X9.3307Y-5.6713
X9.3307Y-5.75
X9.3307Y-5.8287
X9.3307Y-5.9075
X9.3307Y-7.7185
X9.3307Y-7.7972
X9.3954Y-5.3443
X9.4094Y-2.2854
X9.4094Y-2.3642
X9.4094Y-2.4429
X9.4094Y-2.5217
X9.4094Y-2.6004
X9.4094Y-2.9941
X9.4094Y-3.0728
X9.4094Y-3.8602
X9.4094Y-4.0965
X9.4094Y-4.2539
X9.4094Y-4.5689
X9.4094Y-4.6476
X9.4094Y-4.8051
X9.4094Y-5.1201
X9.4094Y-5.5925
X9.4094Y-5.6713
X9.4094Y-5.75
X9.4094Y-5.8287
X9.4094Y-5.9075
X9.4094Y-5.9862
X9.4094Y-6.2224
X9.4094Y-6.3012
X9.4094Y-6.3799
X9.4094Y-6.4587
X9.4094Y-6.5374
X9.4094Y-6.6161
X9.4094Y-6.6949
X9.4094Y-7.6398
X9.4094Y-7.7185
X9.4296Y-5.3352
X9.4882Y-2.2854
X9.4882Y-2.3642
X9.4882Y-2.4429
X9.4882Y-2.5217
X9.4882Y-2.6004
X9.4882Y-2.9154
X9.4882Y-2.9941
X9.4882Y-3.1516
X9.4882Y-3.5453
X9.4882Y-3.8602
X9.4882Y-4.5689
X9.4882Y-5.1201
X9.4882Y-5.9075
X9.4882Y-6.1437
X9.4882Y-6.2224
X9.4882Y-6.3012
X9.4882Y-6.3799
X9.4882Y-6.4587
X9.4882Y-6.5374
X9.4882Y-6.6161
X9.4882Y-7.4035
X9.4882Y-7.4823
X9.4882Y-7.561
X9.4882Y-7.6398
X9.5383Y-5.8774
X9.5669Y-2.2854
X9.5669Y-2.3642
X9.5669Y-2.4429
X9.5669Y-2.5217
X9.5669Y-2.6004
X9.5669Y-2.8366
X9.5669Y-2.9154
X9.5669Y-3.3878
X9.5669Y-3.5453
X9.5669Y-4.5689
X9.5669Y-5.3563
X9.5669Y-6.065
X9.5669Y-6.1437
X9.5669Y-6.2224
X9.5669Y-6.3012
X9.5669Y-6.3799
X9.5669Y-6.4587
X9.5669Y-6.6949
X9.5669Y-6.9311
X9.5669Y-7.1673
X9.5669Y-7.2461
X9.5669Y-7.4035
X9.5669Y-7.4823
X9.5669Y-7.561
X9.5725Y-5.8683
X9.5945Y-5.1442
X9.6016Y-5.1709
X9.6063Y-3.6595
X9.6298Y-7.2584
X9.6457Y-2.2854
X9.6457Y-2.3642
X9.6457Y-2.4429
X9.6457Y-2.5217
X9.6457Y-2.7579
X9.6457Y-2.8366
X9.6457Y-2.9154
X9.6457Y-2.9941
X9.6457Y-3.3878
X9.6457Y-3.4665
X9.6457Y-3.5453
X9.6457Y-4.2539
X9.6457Y-4.5689
X9.6457Y-5.3563
X9.6457Y-6.065
X9.6457Y-6.1437
X9.6457Y-6.2224
X9.6457Y-6.3012
X9.6457Y-6.6161
X9.6457Y-6.9311
X9.6457Y-7.4035
X9.6457Y-7.4823
X9.6493Y-7.2779
X9.7104Y-5.9039
X9.7151Y-4.3925
X9.7222Y-4.4192
X9.7244Y-2.2854
X9.7244Y-2.3642
X9.7244Y-2.4429
X9.7244Y-2.6791
X9.7244Y-2.7579
X9.7244Y-2.8366
X9.7244Y-3.3091
X9.7244Y-3.3878
X9.7244Y-3.4665
X9.7244Y-3.8602
X9.7244Y-4.4902
X9.7244Y-4.5689
X9.7244Y-5.3563
X9.7244Y-5.9862
X9.7244Y-6.3799
X9.7244Y-6.6161
X9.7244Y-7.4035
X9.7559Y-7.2925
X9.8031Y-2.2854
X9.8031Y-2.3642
X9.8031Y-2.6004
X9.8031Y-2.6791
X9.8031Y-2.7579
X9.8031Y-2.8366
X9.8031Y-3.3878
X9.8031Y-3.624
X9.8031Y-3.8602
X9.8031Y-4.0965
X9.8031Y-4.1752
X9.8031Y-4.4114
X9.8031Y-4.4902
X9.8031Y-4.8839
X9.8031Y-5.2776
X9.8031Y-5.75
X9.8031Y-5.9862
X9.8031Y-6.065
X9.8031Y-6.1437
X9.8031Y-6.2224
X9.8031Y-6.3012
X9.8031Y-6.3799
X9.8031Y-6.6161
X9.8031Y-6.7736
X9.8031Y-7.0098
X9.8819Y-2.2854
X9.8819Y-2.6004
X9.8819Y-2.6791
X9.8819Y-2.7579
X9.8819Y-2.8366
X9.8819Y-3.3091
X9.8819Y-3.624
X9.8819Y-3.7028
X9.8819Y-3.7815
X9.8819Y-4.0177
X9.8819Y-4.4114
X9.8819Y-5.0413
X9.8819Y-5.2776
X9.8819Y-5.9862
X9.8819Y-6.065
X9.8819Y-6.1437
X9.8819Y-6.2224
X9.8819Y-6.3012
X9.8819Y-6.4587
X9.8819Y-6.5374
X9.8819Y-6.6161
X9.8819Y-6.6949
X9.8819Y-6.7736
X9.8819Y-6.8524
X9.8819Y-6.9311
X9.8984Y-3.3805
X9.9055Y-3.4071
X9.9583Y-7.0274
X9.9606Y-2.4429
X9.9606Y-2.6004
X9.9606Y-2.6791
X9.9606Y-2.7579
X9.9606Y-2.8366
X9.9606Y-3.0728
X9.9606Y-4.1752
X9.9606Y-4.2539
X9.9606Y-4.3327
X9.9606Y-4.4902
X9.9606Y-4.9626
X9.9606Y-5.2776
X9.9606Y-5.3563
X9.9606Y-5.9862
X9.9606Y-6.065
X9.9606Y-6.1437
X9.9606Y-6.2224
X9.9606Y-6.3012
X9.9606Y-6.4587
X9.9606Y-6.6949
X9.9606Y-6.7736
X9.9606Y-6.8524
X9.9606Y-6.9311
X9.9606Y-7.2461
X9.9945Y-5.1084
X10.0143Y-4.1402
X10.0394Y-2.3642
X10.0394Y-2.4429
X10.0394Y-2.6004
X10.0394Y-2.6791
X10.0394Y-2.7579
X10.0394Y-3.0728
X10.0394Y-4.2539
X10.0394Y-4.3327
X10.0394Y-4.8051
X10.0394Y-4.8839
X10.0394Y-4.9626
X10.0394Y-5.1201
X10.0394Y-5.3563
X10.0394Y-5.6713
X10.0394Y-5.9862
X10.0394Y-6.065
X10.0394Y-6.1437
X10.0394Y-6.2224
X10.0394Y-6.6949
X10.0394Y-6.7736
X10.0394Y-6.8524
X10.0394Y-7.1673
X10.1033Y-5.8414
X10.1104Y-5.8681
X10.1181Y-2.3642
X10.1181Y-2.4429
X10.1181Y-2.6004
X10.1181Y-2.6791
X10.1181Y-2.7579
X10.1181Y-3.1516
X10.1181Y-3.2303
X10.1181Y-3.5453
X10.1181Y-3.7815
X10.1181Y-4.2539
X10.1181Y-4.3327
X10.1181Y-4.7264
X10.1181Y-4.8051
X10.1181Y-4.8839
X10.1181Y-5.9862
X10.1181Y-6.065
X10.1181Y-6.1437
X10.1181Y-6.7736
X10.1181Y-6.8524
X10.1181Y-7.0886
X10.1968Y-2.3642
X10.1968Y-2.4429
X10.1968Y-2.6004
X10.1968Y-2.6791
X10.1968Y-2.7579
X10.1968Y-2.8366
X10.1968Y-3.2303
X10.1968Y-3.5453
X10.1968Y-4.2539
X10.1968Y-4.8051
X10.1968Y-4.8839
X10.1968Y-4.9626
X10.1968Y-5.0413
X10.1968Y-5.3563
X10.1968Y-5.5925
X10.1968Y-5.8287
X10.1968Y-5.9075
X10.1968Y-5.9862
X10.1968Y-6.065
X10.1968Y-6.1437
X10.1968Y-6.4587
X10.1968Y-6.6161
X10.1968Y-6.6949
X10.1968Y-6.7736
X10.1968Y-7.0098
X10.1968Y-7.0886
X10.2405Y-6.7387
X10.2542Y-6.7625
X10.2756Y-2.3642
X10.2756Y-2.4429
X10.2756Y-2.6004
X10.2756Y-2.8366
X10.2756Y-3.0728
X10.2756Y-3.2303
X10.2756Y-4.2539
X10.2756Y-4.7264
X10.2756Y-5.0413
X10.2756Y-5.1988
X10.2756Y-5.435
X10.2756Y-5.5138
X10.2756Y-5.8287
X10.2756Y-5.9075
X10.2756Y-5.9862
X10.2756Y-6.065
X10.2756Y-6.9311
X10.2756Y-7.0098
X10.2866Y-4.8294
X10.2937Y-4.856
X10.2984Y-3.3446
X10.3543Y-2.3642
X10.3543Y-2.4429
X10.3543Y-2.6791
X10.3543Y-2.9154
X10.3543Y-3.0728
X10.3543Y-3.939
X10.3543Y-4.2539
X10.3543Y-5.0413
X10.3543Y-5.5925
X10.3543Y-5.75
X10.3543Y-5.8287
X10.3543Y-5.9075
X10.3543Y-5.9862
X10.3543Y-6.065
X10.3543Y-6.9311
X10.4025Y-5.5891
X10.4072Y-4.0777
X10.4143Y-4.1043
X10.4331Y-2.3642
X10.4331Y-2.4429
X10.4331Y-3.7815
X10.4331Y-4.1752
X10.4331Y-4.2539
X10.4331Y-5.6713
X10.4331Y-5.75
X10.4331Y-5.8287
X10.4331Y-5.9075
X10.4331Y-5.9862
X10.4331Y-6.1437
X10.4331Y-6.5374
X10.4331Y-6.8524
X10.4331Y-6.9311
X10.5118Y-2.3642
X10.5118Y-2.4429
X10.5118Y-2.5217
X10.5118Y-2.9941
X10.5118Y-3.0728
X10.5118Y-3.4665
X10.5118Y-4.0965
X10.5118Y-4.1752
X10.5118Y-4.5689
X10.5118Y-4.6476
X10.5118Y-4.9626
X10.5118Y-5.2776
X10.5118Y-5.6713
X10.5118Y-5.75
X10.5118Y-5.8287
X10.5118Y-5.9075
X10.5118Y-5.9862
X10.5118Y-6.065
X10.5118Y-6.5374
X10.5118Y-6.8524
X10.5824Y-3.0355
X10.5895Y-3.0621
X10.5905Y-2.3642
X10.5905Y-2.4429
X10.5905Y-2.9154
X10.5905Y-3.4665
X10.5905Y-3.7028
X10.5905Y-4.7264
X10.5905Y-4.9626
X10.5905Y-5.6713
X10.5905Y-5.75
X10.5905Y-5.8287
X10.5905Y-5.9075
X10.5905Y-6.1437
X10.5905Y-6.2224
X10.5905Y-6.3012
X10.5905Y-6.3799
X10.5905Y-6.4587
X10.5905Y-6.5374
X10.5905Y-6.7736
X10.5905Y-6.8524
X10.6176Y-6.6005
X10.6693Y-2.3642
X10.6693Y-2.4429
X10.6693Y-3.2303
X10.6693Y-4.0177
X10.6693Y-4.2539
X10.6693Y-4.6476
X10.6693Y-4.9626
X10.6693Y-5.0413
X10.6693Y-5.2776
X10.6693Y-5.6713
X10.6693Y-5.75
X10.6693Y-6.065
X10.6693Y-6.1437
X10.6693Y-6.2224
X10.6693Y-6.3012
X10.6693Y-6.3799
X10.6693Y-6.4587
X10.6693Y-6.7736
X10.6866Y-4.7935
X10.6983Y-3.7951
X10.748Y-2.3642
X10.748Y-2.4429
X10.748Y-2.5217
X10.748Y-3.2303
X10.748Y-3.939
X10.748Y-4.4902
X10.748Y-4.5689
X10.748Y-5.6713
X10.748Y-5.8287
X10.748Y-5.9075
X10.748Y-5.9862
X10.748Y-6.3012
X10.748Y-6.3799
X10.748Y-6.4587
X10.748Y-6.6949
X10.748Y-6.7736
X10.7954Y-5.5266
X10.8025Y-5.5532
X10.8268Y-2.3642
X10.8268Y-2.5217
X10.8268Y-2.7579
X10.8268Y-2.8366
X10.8268Y-2.9154
X10.8268Y-3.4665
X10.8268Y-3.939
X10.8268Y-5.6713
X10.8268Y-5.75
X10.8268Y-5.8287
X10.8268Y-6.3799
X10.8268Y-6.4587
X10.8268Y-6.5374
X10.8268Y-6.6161
X10.8268Y-6.6949
X10.9055Y-2.3642
X10.9055Y-2.9154
X10.9055Y-3.4665
X10.9055Y-3.939
X10.9055Y-4.4114
X10.9055Y-4.4902
X10.9055Y-4.8839
X10.9055Y-5.5925
X10.9055Y-5.6713
X10.9055Y-5.75
X10.9055Y-6.3799
X10.9055Y-6.6161
X10.9055Y-6.6949
X10.9648Y-6.3947
X10.9706Y-4.4843
X10.972Y-6.4213
X10.9777Y-4.511
X10.9824Y-2.9996
X10.9843Y-2.7579
X10.9843Y-2.8366
X10.9843Y-2.9154
X10.9843Y-3.1516
X10.9843Y-3.4665
X10.9843Y-3.8602
X10.9843Y-3.939
X10.9843Y-4.1752
X10.9843Y-4.4114
X10.9843Y-4.7264
X10.9843Y-4.8839
X10.9843Y-5.5138
X10.9843Y-5.5925
X10.9843Y-5.8287
X10.9843Y-6.3012
X10.9843Y-6.6161
X10.9843Y-6.6949
X11.063Y-2.3642
X11.063Y-2.5217
X11.063Y-2.7579
X11.063Y-2.8366
X11.063Y-2.9154
X11.063Y-3.1516
X11.063Y-3.2303
X11.063Y-3.8602
X11.063Y-4.1752
X11.063Y-4.6476
X11.063Y-5.6713
X11.063Y-5.75
X11.063Y-5.8287
X11.063Y-6.6161
X11.0865Y-5.244
X11.0912Y-3.7326
X11.0983Y-3.7593
X11.1417Y-2.3642
X11.1417Y-2.4429
X11.1417Y-2.5217
X11.1417Y-2.6004
X11.1417Y-2.6791
X11.1417Y-2.9154
X11.1417Y-3.7815
X11.1417Y-3.8602
X11.1417Y-4.1752
X11.1417Y-4.6476
X11.1417Y-5.1201
X11.1417Y-5.3563
X11.1417Y-5.435
X11.1417Y-5.5138
X11.1417Y-5.5925
X11.1417Y-5.6713
X11.1417Y-5.75
X11.1417Y-6.5374
X11.1417Y-6.6161
X11.2205Y-2.3642
X11.2205Y-2.4429
X11.2205Y-2.9941
X11.2205Y-3.4665
X11.2205Y-3.5453
X11.2205Y-3.7815
X11.2205Y-3.8602
X11.2205Y-4.3327
X11.2205Y-4.6476
X11.2205Y-5.3563
X11.2205Y-5.435
X11.2205Y-5.5138
X11.2205Y-5.5925
X11.2205Y-5.6713
X11.2205Y-5.75
X11.2205Y-6.2224
X11.2205Y-6.5374
X11.2205Y-6.6161
X11.2992Y-2.3642
X11.2992Y-2.4429
X11.2992Y-2.9154
X11.2992Y-2.9941
X11.2992Y-3.2303
X11.2992Y-3.3091
X11.2992Y-3.3878
X11.2992Y-3.7815
X11.2992Y-3.939
X11.2992Y-4.3327
X11.2992Y-5.3563
X11.2992Y-5.435
X11.2992Y-5.5138
X11.2992Y-5.5925
X11.2992Y-5.6713
X11.2992Y-5.75
X11.2992Y-6.2224
X11.2992Y-6.5374
X11.3473Y-2.9923
X11.3544Y-3.0189
X11.3649Y-6.3588
X11.3706Y-4.4485
X11.378Y-2.3642
X11.378Y-2.4429
X11.378Y-2.6791
X11.378Y-2.9154
X11.378Y-3.624
X11.378Y-4.1752
X11.378Y-4.2539
X11.378Y-4.3327
X11.378Y-4.5689
X11.378Y-4.9626
X11.378Y-5.0413
X11.378Y-5.3563
X11.378Y-5.435
X11.378Y-5.5138
X11.378Y-5.5925
X11.378Y-5.6713
X11.378Y-5.75
X11.378Y-5.8287
X11.378Y-6.065
X11.378Y-6.1437
X11.378Y-6.2224
X11.378Y-6.5374
X11.4567Y-2.3642
X11.4567Y-2.6791
X11.4567Y-3.939
X11.4567Y-4.2539
X11.4567Y-4.3327
X11.4567Y-4.5689
X11.4567Y-5.2776
X11.4567Y-5.3563
X11.4567Y-5.435
X11.4567Y-5.5138
X11.4567Y-5.5925
X11.4567Y-5.6713
X11.4567Y-5.8287
X11.4567Y-5.9075
X11.4567Y-5.9862
X11.4567Y-6.065
X11.4567Y-6.1437
X11.4567Y-6.2224
X11.4567Y-6.4587
X11.4567Y-6.5374
X11.4632Y-3.7519
X11.4794Y-5.1815
X11.4865Y-5.2082
X11.5354Y-2.3642
X11.5354Y-3.5453
X11.5354Y-3.8602
X11.5354Y-4.0177
X11.5354Y-4.0965
X11.5354Y-4.3327
X11.5354Y-4.4114
X11.5354Y-4.8839
X11.5354Y-5.1988
X11.5354Y-5.2776
X11.5354Y-5.3563
X11.5354Y-5.435
X11.5354Y-5.5138
X11.5354Y-5.5925
X11.5354Y-5.8287
X11.5354Y-5.9862
X11.5354Y-6.065
X11.5354Y-6.1437
X11.5354Y-6.2224
X11.5354Y-6.3012
X11.5354Y-6.4587
X11.6142Y-2.3642
X11.6142Y-2.8366
X11.6142Y-3.1516
X11.6142Y-3.8602
X11.6142Y-3.939
X11.6142Y-4.4114
X11.6142Y-4.8839
X11.6142Y-4.9626
X11.6142Y-5.1988
X11.6142Y-5.2776
X11.6142Y-5.3563
X11.6142Y-5.435
X11.6142Y-5.5138
X11.6142Y-5.5925
X11.6142Y-5.9075
X11.6142Y-5.9862
X11.6142Y-6.065
X11.6142Y-6.1437
X11.6142Y-6.3012
X11.6142Y-6.4587
X11.6929Y-2.6791
X11.6929Y-2.8366
X11.6929Y-3.8602
X11.6929Y-4.4902
X11.6929Y-4.7264
X11.6929Y-4.8051
X11.6929Y-5.0413
X11.6929Y-5.2776
X11.6929Y-5.3563
X11.6929Y-5.435
X11.6929Y-5.6713
X11.6929Y-5.8287
X11.6929Y-5.9075
X11.6929Y-5.9862
X11.6929Y-6.065
X11.6929Y-6.3799
X11.6929Y-6.4587
X11.7355Y-4.4412
X11.7426Y-4.4678
X11.7473Y-2.9564
X11.7717Y-2.2854
X11.7717Y-2.8366
X11.7717Y-3.4665
X11.7717Y-3.5453
X11.7717Y-3.8602
X11.7717Y-4.3327
X11.7717Y-4.6476
X11.7717Y-4.7264
X11.7717Y-5.2776
X11.7717Y-5.3563
X11.7717Y-5.435
X11.7717Y-5.5138
X11.7717Y-5.5925
X11.7717Y-5.6713
X11.7717Y-5.75
X11.7717Y-5.8287
X11.7717Y-5.9075
X11.7717Y-5.9862
X11.7717Y-6.2224
X11.7717Y-6.3012
X11.7717Y-6.3799
X11.7717Y-6.4587
X11.8504Y-2.6004
X11.8504Y-2.6791
X11.8504Y-2.8366
X11.8504Y-3.7815
X11.8504Y-3.8602
X11.8504Y-4.6476
X11.8504Y-5.3563
X11.8504Y-5.5138
X11.8504Y-5.5925
X11.8504Y-5.75
X11.8504Y-5.8287
X11.8504Y-5.9075
X11.8504Y-5.9862
X11.8504Y-6.065
X11.8504Y-6.2224
X11.8504Y-6.3012
X11.8504Y-6.3799
X11.8514Y-5.2008
X11.8561Y-3.6895
X11.8632Y-3.7161
X11.9291Y-2.9154
X11.9291Y-3.4665
X11.9291Y-3.7028
X11.9291Y-3.7815
X11.9291Y-3.8602
X11.9291Y-3.939
X11.9291Y-4.1752
X11.9291Y-5.0413
X11.9291Y-5.2776
X11.9291Y-5.3563
X11.9291Y-5.5138
X11.9291Y-5.5925
X11.9291Y-5.8287
X11.9291Y-5.9075
X11.9291Y-6.1437
X11.9291Y-6.2224
X11.9291Y-6.3012
X11.9291Y-6.3799
X12.0079Y-2.9154
X12.0079Y-3.3878
X12.0079Y-3.4665
X12.0079Y-3.7815
X12.0079Y-4.3327
X12.0079Y-4.5689
X12.0079Y-5.2776
X12.0079Y-5.3563
X12.0079Y-5.8287
X12.0079Y-5.9075
X12.0079Y-6.1437
X12.0079Y-6.2224
X12.0079Y-6.3012
X12.0079Y-6.3799
X12.0866Y-2.9154
X12.0866Y-3.7815
X12.0866Y-4.2539
X12.0866Y-4.5689
X12.0866Y-5.3563
X12.0866Y-5.8287
X12.0866Y-6.1437
X12.0866Y-6.2224
X12.0866Y-6.3012
X12.0866Y-6.3799
X12.1202Y-2.9793
X12.1237Y-5.89
X12.1274Y-3.0059
X12.1309Y-5.9167
X12.1355Y-4.4053
X12.1654Y-2.2854
X12.1654Y-2.6791
X12.1654Y-2.9154
X12.1654Y-3.8602
X12.1654Y-4.5689
X12.1654Y-4.6476
X12.1654Y-4.8839
X12.1654Y-4.9626
X12.1654Y-5.2776
X12.1654Y-5.5925
X12.1654Y-5.8287
X12.1654Y-6.065
X12.1654Y-6.1437
X12.1654Y-6.2224
X12.1654Y-6.3012
X12.2362Y-3.7389
X12.2441Y-2.3642
X12.2441Y-2.6791
X12.2441Y-4.0965
X12.2441Y-4.2539
X12.2441Y-4.3327
X12.2441Y-5.2776
X12.2441Y-5.5925
X12.2441Y-6.065
X12.2441Y-6.1437
X12.2441Y-6.2224
X12.2441Y-6.3012
X12.2443Y-5.1383
X12.2514Y-5.165
X12.3228Y-2.3642
X12.3228Y-2.6791
X12.3228Y-3.1516
X12.3228Y-3.3878
X12.3228Y-3.5453
X12.3228Y-3.8602
X12.3228Y-3.939
X12.3228Y-4.0965
X12.3228Y-4.4114
X12.3228Y-4.9626
X12.3228Y-5.0413
X12.3228Y-5.1201
X12.3228Y-5.1988
X12.3228Y-5.2776
X12.3228Y-5.5925
X12.3228Y-6.065
X12.3228Y-6.1437
X12.3228Y-6.2224
X12.3228Y-6.3012
X12.4016Y-2.3642
X12.4016Y-2.4429
X12.4016Y-2.8366
X12.4016Y-3.1516
X12.4016Y-3.3878
X12.4016Y-3.8602
X12.4016Y-4.4114
X12.4016Y-4.7264
X12.4016Y-4.8051
X12.4016Y-4.8839
X12.4016Y-4.9626
X12.4016Y-5.1988
X12.4016Y-5.2776
X12.4016Y-5.3563
X12.4016Y-5.75
X12.4016Y-6.065
X12.4016Y-6.1437
X12.4016Y-6.2224
X12.4803Y-2.6791
X12.4803Y-2.8366
X12.4803Y-3.8602
X12.4803Y-4.3327
X12.4803Y-4.6476
X12.4803Y-5.1988
X12.4803Y-5.75
X12.4803Y-5.9862
X12.4803Y-6.065
X12.4803Y-6.2224
X12.5085Y-4.4282
X12.5156Y-4.4548
X12.5203Y-2.9434
X12.5237Y-5.8542
X12.5591Y-2.3642
X12.5591Y-2.6791
X12.5591Y-2.7579
X12.5591Y-2.8366
X12.5591Y-3.0728
X12.5591Y-3.8602
X12.5591Y-4.3327
X12.5591Y-4.6476
X12.5591Y-5.2776
X12.5591Y-5.5925
X12.5591Y-5.6713
X12.5591Y-5.75
X12.5591Y-5.9862
X12.6244Y-5.1878
X12.629Y-3.6765
X12.6362Y-3.7031
X12.6378Y-2.3642
X12.6378Y-2.4429
X12.6378Y-2.5217
X12.6378Y-2.7579
X12.6378Y-2.8366
X12.6378Y-3.1516
X12.6378Y-3.7815
X12.6378Y-3.8602
X12.6378Y-5.2776
X12.6378Y-5.5925
X12.6378Y-5.75
X12.7165Y-2.3642
X12.7165Y-2.8366
X12.7165Y-2.9154
X12.7165Y-3.1516
X12.7165Y-3.3878
X12.7165Y-3.4665
X12.7165Y-3.7028
X12.7165Y-3.7815
X12.7165Y-4.1752
X12.7165Y-4.5689
X12.7165Y-5.0413
X12.7165Y-5.2776
X12.7165Y-5.3563
X12.7165Y-5.8287
X12.7953Y-2.3642
X12.7953Y-2.8366
X12.7953Y-2.9154
X12.7953Y-3.1516
X12.7953Y-3.4665
X12.7953Y-3.7028
X12.7953Y-3.7815
X12.7953Y-4.2539
X12.7953Y-4.5689
X12.7953Y-5.2776
X12.7953Y-5.3563
X12.7953Y-5.8287
X12.7953Y-5.9075
X12.7953Y-6.1437
X12.8689Y-2.8757
X12.874Y-2.3642
X12.874Y-2.7579
X12.874Y-3.1516
X12.874Y-3.3091
X12.874Y-3.4665
X12.874Y-3.5453
X12.874Y-3.7028
X12.874Y-4.0965
X12.874Y-4.2539
X12.874Y-4.5689
X12.874Y-4.6476
X12.874Y-5.2776
X12.874Y-5.8287
X12.874Y-5.9862
X12.874Y-6.065
X12.874Y-6.1437
X12.8761Y-2.9023
X12.8967Y-5.877
X12.9038Y-5.9037
X12.9085Y-4.3923
X12.9528Y-2.3642
X12.9528Y-3.0728
X12.9528Y-3.5453
X12.9528Y-3.7815
X12.9528Y-4.0965
X12.9528Y-4.1752
X12.9528Y-4.2539
X12.9528Y-4.4114
X12.9528Y-4.9626
X12.9528Y-5.2776
X12.9528Y-5.5925
X12.9528Y-6.065
X12.9528Y-6.1437
X12.9849Y-3.6354
X13.0173Y-5.1253
X13.0244Y-5.152
X13.0315Y-2.3642
X13.0315Y-3.0728
X13.0315Y-3.7815
X13.0315Y-3.8602
X13.0315Y-3.939
X13.0315Y-4.0177
X13.0315Y-4.2539
X13.0315Y-4.3327
X13.0315Y-4.4902
X13.0315Y-5.0413
X13.0315Y-5.1988
X13.0315Y-5.2776
X13.0315Y-6.065
X13.1102Y-2.2854
X13.1102Y-2.6004
X13.1102Y-2.6791
X13.1102Y-2.7579
X13.1102Y-3.0728
X13.1102Y-3.3091
X13.1102Y-3.5453
X13.1102Y-3.7028
X13.1102Y-3.7815
X13.1102Y-3.8602
X13.1102Y-4.2539
X13.1102Y-4.3327
X13.1102Y-4.6476
X13.1102Y-4.8839
X13.1102Y-5.1201
X13.1102Y-5.1988
X13.1102Y-5.2776
X13.1102Y-5.3563
X13.1102Y-5.5925
X13.1102Y-5.6713
X13.1102Y-5.75
X13.1102Y-6.065
X13.189Y-2.7579
X13.189Y-3.0728
X13.189Y-3.3091
X13.189Y-3.7815
X13.189Y-3.8602
X13.189Y-4.2539
X13.189Y-4.3327
X13.189Y-4.5689
X13.189Y-4.6476
X13.189Y-4.8839
X13.189Y-5.1201
X13.189Y-5.1988
X13.189Y-5.75
X13.189Y-5.9862
X13.189Y-6.065
X13.2572Y-4.3246
X13.2643Y-4.3512
X13.2677Y-2.6791
X13.2677Y-2.7579
X13.2677Y-2.9941
X13.2677Y-3.0728
X13.2677Y-3.3091
X13.2677Y-3.4665
X13.2677Y-3.7028
X13.2677Y-3.7815
X13.2677Y-4.0177
X13.2677Y-4.1752
X13.2677Y-4.2539
X13.2677Y-4.5689
X13.2677Y-4.7264
X13.2677Y-4.9626
X13.2677Y-5.1988
X13.2677Y-5.75
X13.2677Y-5.9862
X13.2677Y-6.065
X13.269Y-2.8399
X13.2967Y-5.8412
X13.3465Y-2.9154
X13.3465Y-2.9941
X13.3465Y-3.0728
X13.3465Y-3.4665
X13.3465Y-3.7028
X13.3465Y-3.7815
X13.3465Y-4.0177
X13.3465Y-4.4902
X13.3465Y-4.5689
X13.3465Y-5.1988
X13.3465Y-5.5925
X13.3465Y-5.6713
X13.3465Y-5.75
X13.3465Y-5.8287
X13.3465Y-5.9862
X13.3731Y-5.0843
X13.3777Y-3.5729
X13.3849Y-3.5995
X13.4252Y-3.4665
X13.4252Y-3.7028
X13.4252Y-3.7815
X13.4252Y-4.0177
X13.4252Y-4.4902
X13.4252Y-4.5689
X13.4252Y-4.9626
X13.4252Y-5.1988
X13.4252Y-5.2776
X13.4252Y-5.3563
X13.4252Y-5.435
X13.4252Y-5.6713
X13.4252Y-5.75
X13.4252Y-5.9862
X13.5039Y-3.7028
X13.5039Y-3.7815
X13.5039Y-4.1752
X13.5039Y-4.4902
X13.5039Y-4.7264
X13.5039Y-4.9626
X13.5039Y-5.1988
X13.5039Y-5.2776
X13.5039Y-5.75
X13.5039Y-5.8287
X13.5039Y-5.9862
X13.5827Y-4.1752
X13.5827Y-4.4902
X13.5827Y-5.1988
X13.5827Y-5.2776
X13.5827Y-5.75
X13.5827Y-5.8287
X13.6454Y-5.7735
X13.6525Y-5.8001
X13.6572Y-4.2887
X13.6614Y-4.3327
X13.6614Y-4.4114
X13.6614Y-4.4902
X13.6614Y-4.8051
X13.6614Y-4.8839
X13.6614Y-5.1988
X13.6614Y-5.6713
X13.7402Y-4.4114
X13.7402Y-4.4902
X13.7402Y-4.8839
X13.7402Y-5.1201
X13.7402Y-5.1988
X13.766Y-5.0218
X13.7731Y-5.0484
X13.8189Y-4.8839
X13.8189Y-5.0413
X13.8189Y-5.1201
X13.8189Y-5.1988
X13.8976Y-5.1988
X13.8976Y-5.5925
X13.8976Y-5.6713
X14.0454Y-5.7376
X14.0551Y-5.5138
X14.0551Y-5.8287
X14.1339Y-5.75
X14.1339Y-5.8287
T3
X8.0984Y-3.0276
X8.0984Y-3.0787
X8.0984Y-3.1299
X8.1496Y-3.0276
X8.1496Y-3.0787
X8.1496Y-3.1299
X8.2008Y-3.0276
X8.2008Y-3.0787
X8.2008Y-3.1299
T5
X6.8327Y-2.7146
X6.8327Y-2.7933
X6.8327Y-2.872
X6.8327Y-2.9508
X6.8327Y-3.0295
X6.8327Y-3.1083
X6.8327Y-3.187
T6
X7.0079Y-2.6508
X7.0079Y-2.7508
X7.0079Y-2.8508
X7.0079Y-2.9508
X7.0079Y-3.0508
X7.0079Y-3.1508
X7.0079Y-3.2508
X7.3179Y-3.7402
X7.4179Y-3.7402
X7.5179Y-3.7402
X8.0441Y-3.7441
X8.1441Y-3.7441
X8.2441Y-3.7441
X8.3441Y-3.7441
X9.0118Y-7.6862
X9.0118Y-7.7846
X9.0118Y-7.8831
T7
X6.4075Y-7.698
X6.4075Y-7.8752
X6.6634Y-7.698
X6.6634Y-7.8752
T8
X6.5354Y-7.5091
X6.5354Y-7.7091
X6.5354Y-7.9091
T10
X7.0177Y-2.3209
X7.0177Y-3.5807
X8.5728Y-2.3209
X8.5728Y-3.5807
T11
X6.7717Y-8.0406
X6.7717Y-7.5287
X8.8189Y-7.5327
X8.8189Y-8.0406
T12
X7.3265Y-8.0616
X8.264Y-8.0616
T13
X2.9803Y-6.139
X3.624Y-2.3476
X6.2598Y-7.5091
X6.7106Y-2.3476
X7.4094Y-8.5906
X8.1811Y-8.5906
X8.8799Y-2.3476
X9.3307Y-7.5091
X11.9705Y-2.3476
X12.6102Y-6.139
T4
G00X7.7057Y-8.5059
M15
G01X7.6959Y-8.5059
M16
G05
G00X7.7057Y-8.6752
M15
G01X7.6959Y-8.6752
M16
G05
G00X7.8947Y-8.5059
M15
G01X7.8848Y-8.5059
M16
G05
G00X7.8947Y-8.6752
M15
G01X7.8848Y-8.6752
M16
G05
T9
G00X9.0866Y-7.6075
M15
G01X9.0945Y-7.6075
M16
G05
G00X9.0866Y-7.9618
M15
G01X9.0945Y-7.9618
M16
G05
T0
M30
