%TF.GenerationSoftware,KiCad,Pcbnew,7.0.1*%
%TF.CreationDate,2023-04-08T16:00:55+01:00*%
%TF.ProjectId,Honeydew,486f6e65-7964-4657-972e-6b696361645f,V2.0*%
%TF.SameCoordinates,Original*%
%TF.FileFunction,Soldermask,Top*%
%TF.FilePolarity,Negative*%
%FSLAX46Y46*%
G04 Gerber Fmt 4.6, Leading zero omitted, Abs format (unit mm)*
G04 Created by KiCad (PCBNEW 7.0.1) date 2023-04-08 16:00:55*
%MOMM*%
%LPD*%
G01*
G04 APERTURE LIST*
G04 Aperture macros list*
%AMRoundRect*
0 Rectangle with rounded corners*
0 $1 Rounding radius*
0 $2 $3 $4 $5 $6 $7 $8 $9 X,Y pos of 4 corners*
0 Add a 4 corners polygon primitive as box body*
4,1,4,$2,$3,$4,$5,$6,$7,$8,$9,$2,$3,0*
0 Add four circle primitives for the rounded corners*
1,1,$1+$1,$2,$3*
1,1,$1+$1,$4,$5*
1,1,$1+$1,$6,$7*
1,1,$1+$1,$8,$9*
0 Add four rect primitives between the rounded corners*
20,1,$1+$1,$2,$3,$4,$5,0*
20,1,$1+$1,$4,$5,$6,$7,0*
20,1,$1+$1,$6,$7,$8,$9,0*
20,1,$1+$1,$8,$9,$2,$3,0*%
%AMHorizOval*
0 Thick line with rounded ends*
0 $1 width*
0 $2 $3 position (X,Y) of the first rounded end (center of the circle)*
0 $4 $5 position (X,Y) of the second rounded end (center of the circle)*
0 Add line between two ends*
20,1,$1,$2,$3,$4,$5,0*
0 Add two circle primitives to create the rounded ends*
1,1,$1,$2,$3*
1,1,$1,$4,$5*%
%AMRotRect*
0 Rectangle, with rotation*
0 The origin of the aperture is its center*
0 $1 length*
0 $2 width*
0 $3 Rotation angle, in degrees counterclockwise*
0 Add horizontal line*
21,1,$1,$2,0,0,$3*%
G04 Aperture macros list end*
%ADD10C,2.000000*%
%ADD11R,2.500000X6.000000*%
%ADD12C,3.500000*%
%ADD13C,5.600000*%
%ADD14C,1.152000*%
%ADD15RotRect,1.700000X1.700000X285.000000*%
%ADD16HorizOval,1.700000X0.000000X0.000000X0.000000X0.000000X0*%
%ADD17RoundRect,0.250000X0.625000X-0.350000X0.625000X0.350000X-0.625000X0.350000X-0.625000X-0.350000X0*%
%ADD18O,1.750000X1.200000*%
%ADD19R,1.700000X1.700000*%
%ADD20O,1.700000X1.700000*%
%ADD21C,4.000000*%
%ADD22C,1.750000*%
%ADD23C,3.000000*%
%ADD24C,3.987800*%
%ADD25C,0.650000*%
%ADD26O,1.000000X1.600000*%
%ADD27O,1.000000X2.100000*%
%ADD28C,0.900000*%
%ADD29R,1.200000X1.200000*%
%ADD30C,1.200000*%
%ADD31C,0.750000*%
G04 APERTURE END LIST*
%TO.C,A1*%
G36*
X200213333Y-120584666D02*
G01*
X200178466Y-120735669D01*
X200044000Y-120754000D01*
X199834929Y-120661065D01*
X199874666Y-120584666D01*
X200176105Y-120554267D01*
X200213333Y-120584666D01*
G37*
G36*
X200467333Y-119314666D02*
G01*
X200497732Y-119616105D01*
X200467333Y-119653333D01*
X200316330Y-119618466D01*
X200298000Y-119484000D01*
X200390934Y-119274929D01*
X200467333Y-119314666D01*
G37*
G36*
X197250000Y-121643000D02*
G01*
X197492311Y-121871246D01*
X197504000Y-121911990D01*
X197307482Y-122021087D01*
X197250000Y-122024000D01*
X197005760Y-121828736D01*
X196996000Y-121755009D01*
X197151609Y-121603311D01*
X197250000Y-121643000D01*
G37*
G36*
X199008430Y-120638610D02*
G01*
X199028000Y-120724019D01*
X198842642Y-121083093D01*
X198774000Y-121135000D01*
X198539569Y-121123389D01*
X198520000Y-121037980D01*
X198705357Y-120678906D01*
X198774000Y-120627000D01*
X199008430Y-120638610D01*
G37*
G36*
X201480688Y-118623609D02*
G01*
X201441000Y-118722000D01*
X201212753Y-118964311D01*
X201172009Y-118976000D01*
X201062912Y-118779482D01*
X201060000Y-118722000D01*
X201255263Y-118477760D01*
X201328990Y-118468000D01*
X201480688Y-118623609D01*
G37*
G36*
X206386619Y-118915287D02*
G01*
X206394000Y-118976000D01*
X206200712Y-119222619D01*
X206140000Y-119230000D01*
X205893380Y-119036712D01*
X205886000Y-118976000D01*
X206079287Y-118729380D01*
X206140000Y-118722000D01*
X206386619Y-118915287D01*
G37*
G36*
X216333355Y-118849000D02*
G01*
X216872054Y-118849000D01*
X216892499Y-119371753D01*
X216950059Y-119506676D01*
X216982518Y-119423461D01*
X217029829Y-118813497D01*
X216987644Y-118407461D01*
X216920733Y-118266686D01*
X216878643Y-118571980D01*
X216872054Y-118849000D01*
X216333355Y-118849000D01*
X216321506Y-118597204D01*
X216368708Y-117970795D01*
X216526060Y-117602527D01*
X216639757Y-117486227D01*
X217079551Y-117284634D01*
X217304873Y-117318123D01*
X217473819Y-117677402D01*
X217549962Y-118394945D01*
X217533248Y-119329554D01*
X217423624Y-120340033D01*
X217306247Y-120954576D01*
X217177353Y-121957532D01*
X217319327Y-122600746D01*
X217714610Y-122849572D01*
X218209841Y-122737577D01*
X218729643Y-122422773D01*
X218776436Y-122110177D01*
X218458999Y-121769999D01*
X218110447Y-121275494D01*
X218180463Y-121009584D01*
X218818843Y-121009584D01*
X218930397Y-121472286D01*
X219249112Y-121963496D01*
X219700818Y-122478999D01*
X220045417Y-122765293D01*
X220110000Y-122786000D01*
X220389167Y-122603216D01*
X220822033Y-122146709D01*
X220970887Y-121963496D01*
X221349463Y-121335822D01*
X221376377Y-120935762D01*
X221074944Y-120832770D01*
X220645269Y-120993405D01*
X220020872Y-121147923D01*
X219574730Y-120993405D01*
X219041391Y-120826806D01*
X218818843Y-121009584D01*
X218180463Y-121009584D01*
X218250596Y-120743226D01*
X218585999Y-120373000D01*
X218985356Y-120064495D01*
X219286600Y-120110766D01*
X219602000Y-120372999D01*
X219999111Y-120679944D01*
X220299941Y-120636117D01*
X220626964Y-120364887D01*
X221014110Y-120061672D01*
X221302465Y-120093167D01*
X221690600Y-120443711D01*
X222052280Y-120889370D01*
X222056600Y-121285607D01*
X221905676Y-121609971D01*
X221720109Y-122227791D01*
X221851506Y-122663534D01*
X222156990Y-122786000D01*
X222289090Y-122556589D01*
X222375892Y-121965949D01*
X222396000Y-121418444D01*
X222395999Y-120050889D01*
X223563304Y-120090181D01*
X224528199Y-120231792D01*
X225060182Y-120580191D01*
X225286028Y-121072060D01*
X225481262Y-121795160D01*
X225613404Y-122565712D01*
X225649978Y-123199933D01*
X225576243Y-123500423D01*
X225340002Y-123488167D01*
X225110562Y-123118661D01*
X224961388Y-122538262D01*
X224939889Y-122232642D01*
X224761105Y-121514829D01*
X224323668Y-120964238D01*
X223783793Y-120754000D01*
X223365065Y-120980999D01*
X223042347Y-121554101D01*
X222904457Y-122311457D01*
X222904000Y-122357200D01*
X222754372Y-122971261D01*
X222518235Y-123297954D01*
X222153250Y-123472068D01*
X221757992Y-123274274D01*
X221629235Y-123162688D01*
X221231332Y-122857076D01*
X220928869Y-122907717D01*
X220622764Y-123162688D01*
X220189981Y-123459145D01*
X219840396Y-123378647D01*
X219725527Y-123291118D01*
X219369124Y-123107608D01*
X218876290Y-123137944D01*
X218293811Y-123306603D01*
X217616577Y-123500480D01*
X217237617Y-123493579D01*
X216985222Y-123277949D01*
X216960531Y-123244871D01*
X216684626Y-122988044D01*
X216319484Y-123035562D01*
X215997091Y-123190597D01*
X215309043Y-123395248D01*
X214367038Y-123484157D01*
X213976335Y-123479461D01*
X213167100Y-123412285D01*
X212738990Y-123271377D01*
X212565679Y-123006560D01*
X212546837Y-122911694D01*
X212374126Y-121966956D01*
X212201583Y-121473890D01*
X212008141Y-121376611D01*
X211974553Y-121393602D01*
X211817018Y-121723446D01*
X211732535Y-122353147D01*
X211728000Y-122546990D01*
X211670878Y-123177651D01*
X211528421Y-123524713D01*
X211474000Y-123548000D01*
X211313973Y-123322884D01*
X211225908Y-122761464D01*
X211220000Y-122546990D01*
X211162738Y-121872007D01*
X211020500Y-121441098D01*
X210973446Y-121393602D01*
X210774024Y-121435139D01*
X210598992Y-121866418D01*
X210427690Y-122742312D01*
X210401405Y-122913000D01*
X210264756Y-123229583D01*
X209891069Y-123398297D01*
X209150260Y-123474630D01*
X209076416Y-123478171D01*
X208271505Y-123454804D01*
X207648511Y-123330532D01*
X207472541Y-123240504D01*
X207119147Y-123089154D01*
X206893218Y-123308209D01*
X206601495Y-123526006D01*
X206321166Y-123293936D01*
X206088059Y-122669544D01*
X205944835Y-121784951D01*
X205916900Y-121586524D01*
X207216012Y-121586524D01*
X207375991Y-122190551D01*
X207717565Y-122654959D01*
X208045000Y-122786000D01*
X208426593Y-122577043D01*
X208735203Y-122131274D01*
X208872249Y-121421901D01*
X208646228Y-120875700D01*
X208120071Y-120629823D01*
X208045000Y-120627000D01*
X207539171Y-120823988D01*
X207324424Y-121051774D01*
X207216012Y-121586524D01*
X205916900Y-121586524D01*
X205834901Y-121004073D01*
X205663696Y-120614792D01*
X205376393Y-120500746D01*
X205339397Y-120500000D01*
X204881874Y-120733232D01*
X204541459Y-121357850D01*
X204371678Y-122261234D01*
X204362000Y-122556507D01*
X204216886Y-123229886D01*
X203853725Y-123533013D01*
X203380786Y-123484968D01*
X202906340Y-123104832D01*
X202538657Y-122411688D01*
X202484498Y-122225619D01*
X202257996Y-121334003D01*
X201255512Y-122336487D01*
X199834368Y-123463939D01*
X198285172Y-124111945D01*
X196706639Y-124304421D01*
X195651972Y-124236150D01*
X194933749Y-123997021D01*
X194674639Y-123820029D01*
X194345697Y-123441985D01*
X194787296Y-123441985D01*
X195216842Y-123714332D01*
X195281500Y-123745994D01*
X196415095Y-124018076D01*
X197808288Y-123878613D01*
X198596112Y-123653045D01*
X199631467Y-123133909D01*
X200702678Y-122324628D01*
X201682240Y-121350816D01*
X202442647Y-120338087D01*
X202841647Y-119470453D01*
X203028616Y-118441389D01*
X203007513Y-117613430D01*
X202787661Y-117098680D01*
X202636421Y-117002228D01*
X202420685Y-117064021D01*
X202464229Y-117517369D01*
X202464896Y-117520031D01*
X202489148Y-118440868D01*
X202214748Y-119522661D01*
X201704526Y-120569441D01*
X201320800Y-121088448D01*
X200663740Y-121695737D01*
X199792080Y-122328076D01*
X199276892Y-122637264D01*
X198447821Y-123043513D01*
X197739207Y-123238805D01*
X196904301Y-123274309D01*
X196338403Y-123246613D01*
X195336731Y-123213485D01*
X194823477Y-123276822D01*
X194787296Y-123441985D01*
X194345697Y-123441985D01*
X194277889Y-123364055D01*
X194329000Y-123077960D01*
X194543510Y-122886252D01*
X195402919Y-122886252D01*
X195860912Y-123045961D01*
X196634099Y-123044008D01*
X197563486Y-122900968D01*
X198490079Y-122637416D01*
X198995809Y-122421312D01*
X200300733Y-121557825D01*
X201333873Y-120470112D01*
X201987939Y-119276314D01*
X202060727Y-119046442D01*
X202285692Y-118084800D01*
X202301078Y-117564692D01*
X202178270Y-117451999D01*
X201929299Y-117600016D01*
X201370996Y-118001178D01*
X200590605Y-118591156D01*
X199828770Y-119184412D01*
X198779692Y-120008402D01*
X197735874Y-120823245D01*
X196847311Y-121512075D01*
X196440085Y-121824665D01*
X195831916Y-122329820D01*
X195461303Y-122720200D01*
X195402919Y-122886252D01*
X194543510Y-122886252D01*
X194823533Y-122635995D01*
X195595427Y-122004132D01*
X196570277Y-121237689D01*
X197673679Y-120391987D01*
X198831232Y-119522348D01*
X199968531Y-118684090D01*
X201011172Y-117932535D01*
X201884753Y-117323002D01*
X202514870Y-116910812D01*
X202827119Y-116751286D01*
X202838000Y-116751360D01*
X203168804Y-117060023D01*
X203305339Y-117809280D01*
X203245457Y-118969457D01*
X203077092Y-120055544D01*
X202913166Y-121118769D01*
X202899463Y-121844205D01*
X203034442Y-122378868D01*
X203052329Y-122419366D01*
X203354470Y-122881184D01*
X203600850Y-122863841D01*
X203772671Y-122394827D01*
X203851133Y-121501637D01*
X203854000Y-121247009D01*
X203892901Y-120441373D01*
X203994340Y-119895835D01*
X204108000Y-119738000D01*
X204354678Y-119925455D01*
X204362000Y-119984028D01*
X204547577Y-120150507D01*
X204679500Y-120132243D01*
X205569033Y-119880260D01*
X206084257Y-119836738D01*
X206330499Y-120042773D01*
X206413088Y-120539459D01*
X206423464Y-120812660D01*
X206464262Y-121350464D01*
X206534749Y-121495070D01*
X206576686Y-121389000D01*
X206956703Y-120565298D01*
X207522721Y-120127087D01*
X208162915Y-120048318D01*
X208765457Y-120302946D01*
X209218521Y-120864923D01*
X209410282Y-121708204D01*
X209396948Y-122045895D01*
X209428563Y-122682352D01*
X209632500Y-122972490D01*
X209827177Y-122877944D01*
X209927700Y-122384655D01*
X209950000Y-121679156D01*
X210014890Y-120685583D01*
X210218355Y-120167783D01*
X210573587Y-120109243D01*
X210982005Y-120387484D01*
X211376569Y-120686156D01*
X211682217Y-120624907D01*
X211965994Y-120387484D01*
X212457346Y-120086507D01*
X212789029Y-120236086D01*
X212974752Y-120851832D01*
X213025829Y-121594490D01*
X213053659Y-122913000D01*
X213271208Y-121806413D01*
X213376886Y-121429037D01*
X214014000Y-121429037D01*
X214114432Y-121655732D01*
X214489356Y-121533403D01*
X214507853Y-121523570D01*
X214971129Y-121209375D01*
X215146997Y-121024185D01*
X215111915Y-120700583D01*
X215023016Y-120622684D01*
X214626440Y-120625996D01*
X214223752Y-120932148D01*
X214016267Y-121380260D01*
X214014000Y-121429037D01*
X213376886Y-121429037D01*
X213555574Y-120790939D01*
X213949293Y-120210896D01*
X214504244Y-119996976D01*
X214629300Y-119991999D01*
X215358931Y-120155155D01*
X215719676Y-120572141D01*
X215698485Y-121134237D01*
X215282310Y-121732721D01*
X214875244Y-122041153D01*
X214327666Y-122414355D01*
X214176551Y-122648893D01*
X214364941Y-122835175D01*
X214372369Y-122839359D01*
X215045910Y-122958672D01*
X215701856Y-122643162D01*
X216147766Y-122069499D01*
X216358407Y-121342164D01*
X216402760Y-120255269D01*
X216368865Y-119603594D01*
X216333355Y-118849000D01*
G37*
%TD*%
D10*
%TO.C,SW64*%
X235500000Y-165000000D03*
X184500000Y-165000000D03*
X212500000Y-134400000D03*
X207500000Y-134400000D03*
X210000000Y-134400000D03*
D11*
X240100000Y-165000000D03*
D12*
X225100000Y-191153967D03*
X225100000Y-138846033D03*
D13*
X224500000Y-165000000D03*
X195500000Y-165000000D03*
D12*
X194900000Y-191153967D03*
X194900000Y-138846033D03*
D11*
X179900000Y-165000000D03*
%TD*%
D14*
%TO.C,H3*%
X75499998Y-74000000D03*
%TD*%
%TO.C,H2*%
X344599997Y-73999998D03*
%TD*%
D13*
%TO.C,H8*%
X332499998Y-75249999D03*
%TD*%
D15*
%TO.C,J9*%
X348897585Y-91580037D03*
D16*
X346444133Y-92237437D03*
X343990682Y-92894838D03*
X341537230Y-93552238D03*
%TD*%
D13*
%TO.C,H10*%
X210000000Y-221500000D03*
%TD*%
D17*
%TO.C,J4*%
X186899997Y-96750000D03*
D18*
X186899997Y-94750000D03*
X186899997Y-92750000D03*
X186899997Y-90750000D03*
X186899997Y-88750000D03*
X186899997Y-86750000D03*
X186899997Y-84750000D03*
%TD*%
D14*
%TO.C,H1*%
X210000000Y-200000000D03*
%TD*%
D19*
%TO.C,J7*%
X190000000Y-83129999D03*
D20*
X190000000Y-85669999D03*
X190000000Y-88209999D03*
X190000000Y-90749999D03*
X190000000Y-93289999D03*
X190000000Y-95829999D03*
X190000000Y-98369999D03*
D21*
X190250000Y-74749999D03*
X190250000Y-106749999D03*
X229750000Y-74749999D03*
X229750000Y-106749999D03*
%TD*%
D22*
%TO.C,SW25*%
X151459521Y-185253809D03*
D23*
X151799817Y-179584400D03*
D24*
X147060112Y-182713809D03*
D23*
X145030555Y-178609104D03*
D22*
X142660703Y-180173809D03*
%TD*%
%TO.C,SW30*%
X168017842Y-199685348D03*
D23*
X169813894Y-194297195D03*
D24*
X164425740Y-196093246D03*
D23*
X163527714Y-191603118D03*
D22*
X160833638Y-192501144D03*
%TD*%
%TO.C,SW1*%
X83242695Y-86232841D03*
D23*
X82104044Y-80668537D03*
D24*
X78335792Y-84918040D03*
D23*
X75313015Y-81478488D03*
D22*
X73428889Y-83603239D03*
%TD*%
%TO.C,SW24*%
X143903674Y-154257190D03*
D23*
X142765023Y-148692886D03*
D24*
X138996771Y-152942389D03*
D23*
X135973994Y-149502837D03*
D22*
X134089868Y-151627588D03*
%TD*%
%TO.C,SW29*%
X161482793Y-162254533D03*
D23*
X160344142Y-156690229D03*
D24*
X156575890Y-160939732D03*
D23*
X153553113Y-157500180D03*
D22*
X151668987Y-159624931D03*
%TD*%
%TO.C,SW14*%
X107101882Y-144396195D03*
D23*
X105963231Y-138831891D03*
D24*
X102194979Y-143081394D03*
D23*
X99172202Y-139641842D03*
D22*
X97288076Y-141766593D03*
%TD*%
%TO.C,SW19*%
X126529963Y-145493158D03*
D23*
X125391312Y-139928854D03*
D24*
X121623060Y-144178357D03*
D23*
X118600283Y-140738805D03*
D22*
X116716157Y-142863556D03*
%TD*%
%TO.C,SW5*%
X63520676Y-159836406D03*
D23*
X62382025Y-154272102D03*
D24*
X58613773Y-158521605D03*
D23*
X55590996Y-155082053D03*
D22*
X53706870Y-157206804D03*
%TD*%
%TO.C,SW22*%
X153764663Y-117455406D03*
D23*
X152626012Y-111891102D03*
D24*
X148857760Y-116140605D03*
D23*
X145834983Y-112701053D03*
D22*
X143950857Y-114825804D03*
%TD*%
%TO.C,SW27*%
X171343796Y-125452746D03*
D23*
X170205145Y-119888442D03*
D24*
X166436893Y-124137945D03*
D23*
X163414116Y-120698393D03*
D22*
X161529990Y-122823144D03*
%TD*%
%TO.C,SW3*%
X73381668Y-123034635D03*
D23*
X72243017Y-117470331D03*
D24*
X68474765Y-121719834D03*
D23*
X65451988Y-118280282D03*
D22*
X63567862Y-120405033D03*
%TD*%
%TO.C,SW8*%
X92398882Y-125665008D03*
D23*
X91260231Y-120100704D03*
D24*
X87491979Y-124350207D03*
D23*
X84469202Y-120910655D03*
D22*
X82585076Y-123035406D03*
%TD*%
%TO.C,SW13*%
X112032396Y-125995293D03*
D23*
X110893745Y-120430989D03*
D24*
X107125493Y-124680492D03*
D23*
X104102716Y-121240940D03*
D22*
X102218590Y-123365691D03*
%TD*%
%TO.C,SW23*%
X148834177Y-135856333D03*
D23*
X147695526Y-130292029D03*
D24*
X143927274Y-134541532D03*
D23*
X140904497Y-131101980D03*
D22*
X139020371Y-133226731D03*
%TD*%
%TO.C,SW18*%
X131460449Y-127092279D03*
D23*
X130321798Y-121527975D03*
D24*
X126553546Y-125777478D03*
D23*
X123530769Y-122337926D03*
D22*
X121646643Y-124462677D03*
%TD*%
%TO.C,SW28*%
X166413290Y-143853635D03*
D23*
X165274639Y-138289331D03*
D24*
X161506387Y-142538834D03*
D23*
X158483610Y-139099282D03*
D22*
X156599484Y-141224033D03*
%TD*%
%TO.C,SW4*%
X68451186Y-141435529D03*
D23*
X67312535Y-135871225D03*
D24*
X63544283Y-140120728D03*
D23*
X60521506Y-136681176D03*
D22*
X58637380Y-138805927D03*
%TD*%
%TO.C,SW9*%
X87468351Y-144065912D03*
D23*
X86329700Y-138501608D03*
D24*
X82561448Y-142751111D03*
D23*
X79538671Y-139311559D03*
D22*
X77654545Y-141436310D03*
%TD*%
%TO.C,SW10*%
X82537873Y-162466796D03*
D23*
X81399222Y-156902492D03*
D24*
X77630970Y-161151995D03*
D23*
X74608193Y-157712443D03*
D22*
X72724067Y-159837194D03*
%TD*%
%TO.C,SW15*%
X102171383Y-162797070D03*
D23*
X101032732Y-157232766D03*
D24*
X97264480Y-161482269D03*
D23*
X94241703Y-158042717D03*
D22*
X92357577Y-160167468D03*
%TD*%
%TO.C,SW20*%
X131606896Y-175614798D03*
D23*
X130468245Y-170050494D03*
D24*
X126699993Y-174299997D03*
D23*
X123677216Y-170860445D03*
D22*
X121793090Y-172985196D03*
%TD*%
%TO.C,SW11*%
X121893395Y-89193545D03*
D23*
X120754744Y-83629241D03*
D24*
X116986492Y-87878744D03*
D23*
X113963715Y-84439192D03*
D22*
X112079589Y-86563943D03*
%TD*%
%TO.C,SW2*%
X78312187Y-104633741D03*
D23*
X77173536Y-99069437D03*
D24*
X73405284Y-103318940D03*
D23*
X70382507Y-99879388D03*
D22*
X68498381Y-102004139D03*
%TD*%
%TO.C,SW12*%
X116962889Y-107594407D03*
D23*
X115824238Y-102030103D03*
D24*
X112055986Y-106279606D03*
D23*
X109033209Y-102840054D03*
D22*
X107149083Y-104964805D03*
%TD*%
%TO.C,SW21*%
X158695173Y-99054528D03*
D23*
X157556522Y-93490224D03*
D24*
X153788270Y-97739727D03*
D23*
X150765493Y-94300175D03*
D22*
X148881367Y-96424926D03*
%TD*%
%TO.C,SW17*%
X136390970Y-108691407D03*
D23*
X135252319Y-103127103D03*
D24*
X131484067Y-107376606D03*
D23*
X128461290Y-103937054D03*
D22*
X126577164Y-106061805D03*
%TD*%
%TO.C,SW16*%
X141321469Y-90290500D03*
D23*
X140182818Y-84726196D03*
D24*
X136414566Y-88975699D03*
D23*
X133391789Y-85536147D03*
D22*
X131507663Y-87660898D03*
%TD*%
%TO.C,SW6*%
X102259883Y-88863245D03*
D23*
X101121232Y-83298941D03*
D24*
X97352980Y-87548444D03*
D23*
X94330203Y-84108892D03*
D22*
X92446077Y-86233643D03*
%TD*%
%TO.C,SW7*%
X97329382Y-107264132D03*
D23*
X96190731Y-101699828D03*
D24*
X92422479Y-105949331D03*
D23*
X89399702Y-102509779D03*
D22*
X87515576Y-104634530D03*
%TD*%
%TO.C,SW26*%
X176274302Y-107051855D03*
D23*
X175135651Y-101487551D03*
D24*
X171367399Y-105737054D03*
D23*
X168344622Y-102297502D03*
D22*
X166460496Y-104422253D03*
%TD*%
%TO.C,SW31*%
X253539533Y-104422260D03*
D23*
X249771281Y-100172757D03*
D24*
X248632630Y-105737061D03*
D23*
X244295052Y-104269710D03*
D22*
X243725727Y-107051862D03*
%TD*%
%TO.C,SW62*%
X215080019Y-210909993D03*
D23*
X212540019Y-205829993D03*
D24*
X210000019Y-210909993D03*
D23*
X206190019Y-208369993D03*
D22*
X204920019Y-210909993D03*
%TD*%
%TO.C,SW45*%
X298206929Y-172985195D03*
D23*
X294438677Y-168735692D03*
D24*
X293300026Y-174299996D03*
D23*
X288962448Y-172832645D03*
D22*
X288393123Y-175614797D03*
%TD*%
%TO.C,SW49*%
X322711942Y-141766613D03*
D23*
X318943690Y-137517110D03*
D24*
X317805039Y-143081414D03*
D23*
X313467461Y-141614063D03*
D22*
X312898136Y-144396215D03*
%TD*%
D13*
%TO.C,H7*%
X331999998Y-174000000D03*
%TD*%
D22*
%TO.C,SW47*%
X312850945Y-104964821D03*
D23*
X309082693Y-100715318D03*
D24*
X307944042Y-106279622D03*
D23*
X303606464Y-104812271D03*
D22*
X303037139Y-107594423D03*
%TD*%
%TO.C,SW63*%
X236266899Y-206775204D03*
D23*
X232498647Y-202525701D03*
D24*
X231359996Y-208090005D03*
D23*
X227022418Y-206622654D03*
D22*
X226453093Y-209404806D03*
%TD*%
%TO.C,SW61*%
X193546901Y-209404783D03*
D23*
X192408250Y-203840479D03*
D24*
X188639998Y-208089982D03*
D23*
X185617221Y-204650430D03*
D22*
X183733095Y-206775181D03*
%TD*%
%TO.C,SW33*%
X263400530Y-141224024D03*
D23*
X259632278Y-136974521D03*
D24*
X258493627Y-142538825D03*
D23*
X254156049Y-141071474D03*
D22*
X253586724Y-143853626D03*
%TD*%
%TO.C,SW59*%
X361362649Y-138805924D03*
D23*
X357594397Y-134556421D03*
D24*
X356455746Y-140120725D03*
D23*
X352118168Y-138653374D03*
D22*
X351548843Y-141435526D03*
%TD*%
D25*
%TO.C,J6*%
X235110001Y-72250000D03*
X240890001Y-72250000D03*
D26*
X233680001Y-68600000D03*
D27*
X233680001Y-72780000D03*
D26*
X242320001Y-68600000D03*
D27*
X242320001Y-72780000D03*
%TD*%
D22*
%TO.C,SW38*%
X280979681Y-133226722D03*
D23*
X277211429Y-128977219D03*
D24*
X276072778Y-134541523D03*
D23*
X271735200Y-133074172D03*
D22*
X271165875Y-135856324D03*
%TD*%
%TO.C,SW50*%
X327642445Y-160167486D03*
D23*
X323874193Y-155917983D03*
D24*
X322735542Y-161482287D03*
D23*
X318397964Y-160014936D03*
D22*
X317828639Y-162797088D03*
%TD*%
D28*
%TO.C,SW65*%
X222500001Y-69069999D03*
X225500001Y-69069999D03*
%TD*%
D22*
%TO.C,SW58*%
X356432145Y-120405014D03*
D23*
X352663893Y-116155511D03*
D24*
X351525242Y-121719815D03*
D23*
X347187664Y-120252464D03*
D22*
X346618339Y-123034616D03*
%TD*%
D29*
%TO.C,U4*%
X215350000Y-159340000D03*
D30*
X215350000Y-161120000D03*
X215350000Y-162900000D03*
X215350000Y-164680000D03*
X215350000Y-166460000D03*
X215350000Y-168240000D03*
X215350000Y-170020000D03*
X215350000Y-171800000D03*
X204650000Y-172690000D03*
X204650000Y-170910000D03*
X204650000Y-169130000D03*
X204650000Y-167350000D03*
X204650000Y-165570000D03*
X204650000Y-163790000D03*
X204650000Y-162010000D03*
X204650000Y-160230000D03*
%TD*%
D22*
%TO.C,SW43*%
X298353353Y-124462679D03*
D23*
X294585101Y-120213176D03*
D24*
X293446450Y-125777480D03*
D23*
X289108872Y-124310129D03*
D22*
X288539547Y-127092281D03*
%TD*%
D31*
%TO.C,SW66*%
X196000000Y-70475000D03*
X196000000Y-67725000D03*
%TD*%
D22*
%TO.C,SW57*%
X351501637Y-102004139D03*
D23*
X347733385Y-97754636D03*
D24*
X346594734Y-103318940D03*
D23*
X342257156Y-101851589D03*
D22*
X341687831Y-104633741D03*
%TD*%
D25*
%TO.C,J5*%
X179110000Y-72250000D03*
X184890000Y-72250000D03*
D26*
X177680000Y-68600000D03*
D27*
X177680000Y-72780000D03*
D26*
X186320000Y-68600000D03*
D27*
X186320000Y-72780000D03*
%TD*%
D22*
%TO.C,SW52*%
X332484457Y-104634528D03*
D23*
X328716205Y-100385025D03*
D24*
X327577554Y-105949329D03*
D23*
X323239976Y-104481978D03*
D22*
X322670651Y-107264130D03*
%TD*%
%TO.C,SW44*%
X303283870Y-142863560D03*
D23*
X299515618Y-138614057D03*
D24*
X298376967Y-144178361D03*
D23*
X294039389Y-142711010D03*
D22*
X293470064Y-145493162D03*
%TD*%
%TO.C,SW41*%
X288492358Y-87660914D03*
D23*
X284724106Y-83411411D03*
D24*
X283585455Y-88975715D03*
D23*
X279247877Y-87508364D03*
D22*
X278678552Y-90290516D03*
%TD*%
D25*
%TO.C,J2*%
X207110001Y-72249999D03*
X212890001Y-72249999D03*
D26*
X205680001Y-68599999D03*
D27*
X205680001Y-72779999D03*
D26*
X214320001Y-68599999D03*
D27*
X214320001Y-72779999D03*
%TD*%
D13*
%TO.C,H6*%
X87499999Y-75249999D03*
%TD*%
D22*
%TO.C,SW40*%
X277339312Y-180173790D03*
D23*
X272599608Y-177044381D03*
D24*
X272939903Y-182713790D03*
D23*
X268370346Y-182419085D03*
D22*
X268540494Y-185253790D03*
%TD*%
%TO.C,SW46*%
X307920432Y-86563942D03*
D23*
X304152180Y-82314439D03*
D24*
X303013529Y-87878743D03*
D23*
X298675951Y-86411392D03*
D22*
X298106626Y-89193544D03*
%TD*%
%TO.C,SW51*%
X327553945Y-86233657D03*
D23*
X323785693Y-81984154D03*
D24*
X322647042Y-87548458D03*
D23*
X318309464Y-86081107D03*
D22*
X317740139Y-88863259D03*
%TD*%
%TO.C,SW60*%
X366293143Y-157206797D03*
D23*
X362524891Y-152957294D03*
D24*
X361386240Y-158521598D03*
D23*
X357048662Y-157054247D03*
D22*
X356479337Y-159836399D03*
%TD*%
%TO.C,SW37*%
X276049176Y-114825840D03*
D23*
X272280924Y-110576337D03*
D24*
X271142273Y-116140641D03*
D23*
X266804695Y-114673290D03*
D22*
X266235370Y-117455442D03*
%TD*%
D13*
%TO.C,H4*%
X251399998Y-75999998D03*
%TD*%
D22*
%TO.C,SW54*%
X342345464Y-141436315D03*
D23*
X338577212Y-137186812D03*
D24*
X337438561Y-142751116D03*
D23*
X333100983Y-141283765D03*
D22*
X332531658Y-144065917D03*
%TD*%
D13*
%TO.C,H9*%
X88000000Y-173999998D03*
%TD*%
D22*
%TO.C,SW55*%
X347275964Y-159837201D03*
D23*
X343507712Y-155587698D03*
D24*
X342369061Y-161152002D03*
D23*
X338031483Y-159684651D03*
D22*
X337462158Y-162466803D03*
%TD*%
%TO.C,SW48*%
X317781444Y-123365710D03*
D23*
X314013192Y-119116207D03*
D24*
X312874541Y-124680511D03*
D23*
X308536963Y-123213160D03*
D22*
X307967638Y-125995312D03*
%TD*%
D13*
%TO.C,H5*%
X168599997Y-75999998D03*
%TD*%
D22*
%TO.C,SW53*%
X337414958Y-123035418D03*
D23*
X333646706Y-118785915D03*
D24*
X332508055Y-124350219D03*
D23*
X328170477Y-122882868D03*
D22*
X327601152Y-125665020D03*
%TD*%
%TO.C,SW35*%
X259166388Y-192501135D03*
D23*
X253778235Y-190705083D03*
D24*
X255574286Y-196093237D03*
D23*
X251084158Y-196991263D03*
D22*
X251982184Y-199685339D03*
%TD*%
%TO.C,SW34*%
X268331036Y-159624914D03*
D23*
X264562784Y-155375411D03*
D24*
X263424133Y-160939715D03*
D23*
X259086555Y-159472364D03*
D22*
X258517230Y-162254516D03*
%TD*%
D19*
%TO.C,J1*%
X204259997Y-113299363D03*
D20*
X206799997Y-113299363D03*
X209339997Y-113299363D03*
%TD*%
D22*
%TO.C,SW42*%
X293422857Y-106061796D03*
D23*
X289654605Y-101812293D03*
D24*
X288515954Y-107376597D03*
D23*
X284178376Y-105909246D03*
D22*
X283609051Y-108691398D03*
%TD*%
%TO.C,SW56*%
X346571143Y-83603261D03*
D23*
X342802891Y-79353758D03*
D24*
X341664240Y-84918062D03*
D23*
X337326662Y-83450711D03*
D22*
X336757337Y-86232863D03*
%TD*%
%TO.C,SW36*%
X271118654Y-96424958D03*
D23*
X267350402Y-92175455D03*
D24*
X266211751Y-97739759D03*
D23*
X261874173Y-96272408D03*
D22*
X261304848Y-99054560D03*
%TD*%
%TO.C,SW39*%
X285910176Y-151627606D03*
D23*
X282141924Y-147378103D03*
D24*
X281003273Y-152942407D03*
D23*
X276665695Y-151475056D03*
D22*
X276096370Y-154257208D03*
%TD*%
%TO.C,SW32*%
X258470028Y-122823151D03*
D23*
X254701776Y-118573648D03*
D24*
X253563125Y-124137952D03*
D23*
X249225547Y-122670601D03*
D22*
X248656222Y-125452753D03*
%TD*%
M02*
