%TF.GenerationSoftware,KiCad,Pcbnew,(7.0.0)*%
%TF.CreationDate,2023-03-15T00:03:34+00:00*%
%TF.ProjectId,Honeydew,486f6e65-7964-4657-972e-6b696361645f,rev?*%
%TF.SameCoordinates,Original*%
%TF.FileFunction,Profile,NP*%
%FSLAX46Y46*%
G04 Gerber Fmt 4.6, Leading zero omitted, Abs format (unit mm)*
G04 Created by KiCad (PCBNEW (7.0.0)) date 2023-03-15 00:03:34*
%MOMM*%
%LPD*%
G01*
G04 APERTURE LIST*
%TA.AperFunction,Profile*%
%ADD10C,0.100000*%
%TD*%
G04 APERTURE END LIST*
D10*
X171257187Y-28901244D02*
X143431820Y-28901253D01*
X213023653Y-188157562D02*
G75*
G03*
X223857848Y-181499084I-16277953J38629862D01*
G01*
X171757173Y-24963697D02*
X171757166Y-28401255D01*
X271360761Y-151008271D02*
G75*
G03*
X223857848Y-181499085I47935639J-126929729D01*
G01*
X337492687Y-126935576D02*
G75*
G03*
X338389158Y-125013064I-512987J1409476D01*
G01*
X136142160Y-181499096D02*
G75*
G03*
X146976385Y-188157545I27110840J31969496D01*
G01*
X146976386Y-188157542D02*
G75*
G03*
X213023646Y-188157545I33023634J85937832D01*
G01*
X305948667Y-35884586D02*
G75*
G03*
X304745990Y-34911946I-1409367J-512814D01*
G01*
X271360770Y-151008294D02*
X337492701Y-126935613D01*
X22507443Y-126939113D02*
X88639252Y-151008304D01*
X172257155Y-24463704D02*
X187742869Y-24463710D01*
X143431820Y-28901258D02*
G75*
G03*
X55254054Y-34915495I-1341420J-629749242D01*
G01*
X188242890Y-24963683D02*
G75*
G03*
X187742869Y-24463710I-499790J183D01*
G01*
X304745989Y-34911951D02*
G75*
G03*
X216568240Y-28897706I-86836489J-623736349D01*
G01*
X172257155Y-24463673D02*
G75*
G03*
X171757173Y-24963697I-55J-499927D01*
G01*
X188242873Y-28397713D02*
X188242854Y-24963683D01*
X21610871Y-125016514D02*
G75*
G03*
X22507443Y-126939113I1409429J-513086D01*
G01*
X338389159Y-125013064D02*
X305948691Y-35884577D01*
X55254050Y-34915465D02*
G75*
G03*
X54051357Y-35888136I206750J-1485535D01*
G01*
X188242915Y-28397713D02*
G75*
G03*
X188742866Y-28897685I499885J-87D01*
G01*
X136142172Y-181499082D02*
G75*
G03*
X88639252Y-151008304I-95439342J-96440308D01*
G01*
X216568240Y-28897706D02*
X188742866Y-28897685D01*
X171257187Y-28901266D02*
G75*
G03*
X171757166Y-28401255I413J499566D01*
G01*
X54051356Y-35888136D02*
X21610919Y-125016532D01*
%TO.C,D103*%
X156073116Y-181915721D02*
X159550449Y-182847469D01*
X155270777Y-184910091D02*
X156073116Y-181915721D01*
X159550449Y-182847469D02*
X158748110Y-185841839D01*
X158748110Y-185841839D02*
X155270777Y-184910091D01*
%TO.C,D104*%
X178199791Y-185310031D02*
X181799791Y-185310031D01*
X178199791Y-188410031D02*
X178199791Y-185310031D01*
X181799791Y-185310031D02*
X181799791Y-188410031D01*
X181799791Y-188410031D02*
X178199791Y-188410031D01*
%TO.C,D105*%
X200474322Y-182840833D02*
X203951655Y-181909085D01*
X201276661Y-185835203D02*
X200474322Y-182840833D01*
X203951655Y-181909085D02*
X204753994Y-184903455D01*
X204753994Y-184903455D02*
X201276661Y-185835203D01*
%TO.C,D125*%
X285292183Y-129490551D02*
X288675076Y-128259278D01*
X286352446Y-132403598D02*
X285292183Y-129490551D01*
X288675076Y-128259278D02*
X289735339Y-131172325D01*
X289735339Y-131172325D02*
X286352446Y-132403598D01*
%TO.C,D75*%
X46110323Y-86138950D02*
X49493216Y-87370223D01*
X45050060Y-89051997D02*
X46110323Y-86138950D01*
X49493216Y-87370223D02*
X48432953Y-90283270D01*
X48432953Y-90283270D02*
X45050060Y-89051997D01*
%TO.C,D102*%
X134387906Y-166880031D02*
X136701942Y-169637791D01*
X132013168Y-168872673D02*
X134387906Y-166880031D01*
X136701942Y-169637791D02*
X134327204Y-171630433D01*
X134327204Y-171630433D02*
X132013168Y-168872673D01*
%TO.C,D81*%
X60633027Y-112462248D02*
X57250134Y-111230975D01*
X61693290Y-109549201D02*
X60633027Y-112462248D01*
X57250134Y-111230975D02*
X58310397Y-108317928D01*
X58310397Y-108317928D02*
X61693290Y-109549201D01*
%TO.C,D106*%
X206612743Y-80415950D02*
X209995636Y-79184677D01*
X207673006Y-83328997D02*
X206612743Y-80415950D01*
X209995636Y-79184677D02*
X211055899Y-82097724D01*
X211055899Y-82097724D02*
X207673006Y-83328997D01*
%TO.C,D67*%
X189316151Y-116464579D02*
X192433843Y-118264579D01*
X187766151Y-119149257D02*
X189316151Y-116464579D01*
X192433843Y-118264579D02*
X190883843Y-120949257D01*
X190883843Y-120949257D02*
X187766151Y-119149257D01*
%TO.C,D101*%
X132780568Y-137032421D02*
X129397675Y-135801148D01*
X133840831Y-134119374D02*
X132780568Y-137032421D01*
X129397675Y-135801148D02*
X130457938Y-132888101D01*
X130457938Y-132888101D02*
X133840831Y-134119374D01*
%TO.C,D134*%
X321465448Y-106953145D02*
X318082555Y-108184418D01*
X320405185Y-104040098D02*
X321465448Y-106953145D01*
X318082555Y-108184418D02*
X317022292Y-105271371D01*
X317022292Y-105271371D02*
X320405185Y-104040098D01*
%TO.C,D78*%
X77856871Y-54614496D02*
X81239764Y-55845769D01*
X76796608Y-57527543D02*
X77856871Y-54614496D01*
X81239764Y-55845769D02*
X80179501Y-58758816D01*
X80179501Y-58758816D02*
X76796608Y-57527543D01*
%TO.C,D98*%
X150004378Y-79184674D02*
X153387271Y-80415947D01*
X148944115Y-82097721D02*
X150004378Y-79184674D01*
X153387271Y-80415947D02*
X152327008Y-83328994D01*
X152327008Y-83328994D02*
X148944115Y-82097721D01*
%TO.C,D90*%
X103614444Y-95243063D02*
X106997337Y-96474336D01*
X102554181Y-98156110D02*
X103614444Y-95243063D01*
X106997337Y-96474336D02*
X105937074Y-99387383D01*
X105937074Y-99387383D02*
X102554181Y-98156110D01*
%TO.C,D100*%
X136973418Y-114986959D02*
X140356311Y-116218232D01*
X135913155Y-117900006D02*
X136973418Y-114986959D01*
X140356311Y-116218232D02*
X139296048Y-119131279D01*
X139296048Y-119131279D02*
X135913155Y-117900006D01*
%TO.C,D87*%
X71324935Y-128259267D02*
X74707828Y-129490540D01*
X70264672Y-131172314D02*
X71324935Y-128259267D01*
X74707828Y-129490540D02*
X73647565Y-132403587D01*
X73647565Y-132403587D02*
X70264672Y-131172314D01*
%TO.C,D68*%
X201750010Y-134400614D02*
X201750010Y-138000614D01*
X198650010Y-134400614D02*
X201750010Y-134400614D01*
X201750010Y-138000614D02*
X198650010Y-138000614D01*
X198650010Y-138000614D02*
X198650010Y-134400614D01*
%TO.C,D84*%
X93194017Y-78700149D02*
X89811124Y-77468876D01*
X94254280Y-75787102D02*
X93194017Y-78700149D01*
X89811124Y-77468876D02*
X90871387Y-74555829D01*
X90871387Y-74555829D02*
X94254280Y-75787102D01*
%TO.C,D91*%
X99421603Y-117288509D02*
X96038710Y-116057236D01*
X100481866Y-114375462D02*
X99421603Y-117288509D01*
X96038710Y-116057236D02*
X97098973Y-113144189D01*
X97098973Y-113144189D02*
X100481866Y-114375462D01*
%TO.C,D83*%
X97386879Y-56654692D02*
X100769772Y-57885965D01*
X96326616Y-59567739D02*
X97386879Y-56654692D01*
X100769772Y-57885965D02*
X99709509Y-60799012D01*
X99709509Y-60799012D02*
X96326616Y-59567739D01*
%TO.C,D95*%
X120158207Y-105487979D02*
X123541100Y-106719252D01*
X119097944Y-108401026D02*
X120158207Y-105487979D01*
X123541100Y-106719252D02*
X122480837Y-109632299D01*
X122480837Y-109632299D02*
X119097944Y-108401026D01*
%TO.C,D86*%
X80163051Y-114502452D02*
X76780158Y-113271179D01*
X81223314Y-111589405D02*
X80163051Y-114502452D01*
X76780158Y-113271179D02*
X77840421Y-110358132D01*
X77840421Y-110358132D02*
X81223314Y-111589405D01*
%TO.C,D129*%
X302749873Y-111230983D02*
X299366980Y-112462256D01*
X301689610Y-108317936D02*
X302749873Y-111230983D01*
X299366980Y-112462256D02*
X298306717Y-109549209D01*
X298306717Y-109549209D02*
X301689610Y-108317936D01*
%TO.C,U4*%
X184250003Y-144520624D02*
X184250003Y-128770624D01*
X183750003Y-145020624D02*
X176250003Y-145020624D01*
X183750003Y-128270624D02*
X176250003Y-128270624D01*
X175750003Y-128770624D02*
X175750003Y-144520624D01*
X183750003Y-145020624D02*
G75*
G03*
X184250003Y-144520624I-1J500001D01*
G01*
X184250003Y-128770624D02*
G75*
G03*
X183750003Y-128270624I-499998J2D01*
G01*
X175750003Y-144520624D02*
G75*
G03*
X176250003Y-145020624I500000J0D01*
G01*
X176250003Y-128270624D02*
G75*
G03*
X175750003Y-128770624I0J-500000D01*
G01*
%TO.C,D93*%
X133189166Y-69685647D02*
X136572059Y-70916920D01*
X132128903Y-72598694D02*
X133189166Y-69685647D01*
X136572059Y-70916920D02*
X135511796Y-73829967D01*
X135511796Y-73829967D02*
X132128903Y-72598694D01*
%TO.C,D127*%
X289718901Y-75428675D02*
X286336008Y-76659948D01*
X288658638Y-72515628D02*
X289718901Y-75428675D01*
X286336008Y-76659948D02*
X285275745Y-73746901D01*
X285275745Y-73746901D02*
X288658638Y-72515628D01*
%TO.C,D130*%
X304822206Y-127450366D02*
X308205099Y-126219093D01*
X305882469Y-130363413D02*
X304822206Y-127450366D01*
X308205099Y-126219093D02*
X309265362Y-129132140D01*
X309265362Y-129132140D02*
X305882469Y-130363413D01*
%TO.C,D124*%
X283219858Y-113271173D02*
X279836965Y-114502446D01*
X282159595Y-110358126D02*
X283219858Y-113271173D01*
X279836965Y-114502446D02*
X278776702Y-111589399D01*
X278776702Y-111589399D02*
X282159595Y-110358126D01*
%TO.C,D107*%
X217571373Y-99998868D02*
X214188480Y-101230141D01*
X216511110Y-97085821D02*
X217571373Y-99998868D01*
X214188480Y-101230141D02*
X213128217Y-98317094D01*
X213128217Y-98317094D02*
X216511110Y-97085821D01*
%TO.C,D85*%
X84355914Y-92456976D02*
X87738807Y-93688249D01*
X83295651Y-95370023D02*
X84355914Y-92456976D01*
X87738807Y-93688249D02*
X86678544Y-96601296D01*
X86678544Y-96601296D02*
X83295651Y-95370023D01*
%TO.C,D92*%
X99531325Y-143593685D02*
X102914218Y-144824958D01*
X98471062Y-146506732D02*
X99531325Y-143593685D01*
X102914218Y-144824958D02*
X101853955Y-147738005D01*
X101853955Y-147738005D02*
X98471062Y-146506732D01*
%TO.C,D73*%
X59141290Y-50336649D02*
X62524183Y-51567922D01*
X58081027Y-53249696D02*
X59141290Y-50336649D01*
X62524183Y-51567922D02*
X61463920Y-54480969D01*
X61463920Y-54480969D02*
X58081027Y-53249696D01*
%TO.C,D108*%
X219643687Y-116218238D02*
X223026580Y-114986965D01*
X220703950Y-119131285D02*
X219643687Y-116218238D01*
X223026580Y-114986965D02*
X224086843Y-117900012D01*
X224086843Y-117900012D02*
X220703950Y-119131285D01*
%TO.C,D112*%
X234386605Y-90499864D02*
X231003712Y-91731137D01*
X233326342Y-87586817D02*
X234386605Y-90499864D01*
X231003712Y-91731137D02*
X229943449Y-88818090D01*
X229943449Y-88818090D02*
X233326342Y-87586817D01*
%TO.C,D131*%
X297475834Y-51567925D02*
X300858727Y-50336652D01*
X298536097Y-54480972D02*
X297475834Y-51567925D01*
X300858727Y-50336652D02*
X301918990Y-53249699D01*
X301918990Y-53249699D02*
X298536097Y-54480972D01*
%TO.C,D76*%
X41917482Y-108184426D02*
X38534589Y-106953153D01*
X42977745Y-105271379D02*
X41917482Y-108184426D01*
X38534589Y-106953153D02*
X39594852Y-104040106D01*
X39594852Y-104040106D02*
X42977745Y-105271379D01*
%TO.C,D89*%
X112452565Y-81486224D02*
X109069672Y-80254951D01*
X113512828Y-78573177D02*
X112452565Y-81486224D01*
X109069672Y-80254951D02*
X110129935Y-77341904D01*
X110129935Y-77341904D02*
X113512828Y-78573177D01*
%TO.C,D117*%
X250930344Y-80254957D02*
X247547451Y-81486230D01*
X249870081Y-77341910D02*
X250930344Y-80254957D01*
X247547451Y-81486230D02*
X246487188Y-78573183D01*
X246487188Y-78573183D02*
X249870081Y-77341910D01*
%TO.C,D96*%
X115965359Y-127533413D02*
X112582466Y-126302140D01*
X117025622Y-124620366D02*
X115965359Y-127533413D01*
X112582466Y-126302140D02*
X113642729Y-123389093D01*
X113642729Y-123389093D02*
X117025622Y-124620366D01*
%TO.C,D77*%
X33079354Y-121941238D02*
X36462247Y-123172511D01*
X32019091Y-124854285D02*
X33079354Y-121941238D01*
X36462247Y-123172511D02*
X35401984Y-126085558D01*
X35401984Y-126085558D02*
X32019091Y-124854285D01*
%TO.C,D113*%
X236458930Y-106719226D02*
X239841823Y-105487953D01*
X237519193Y-109632273D02*
X236458930Y-106719226D01*
X239841823Y-105487953D02*
X240902086Y-108401000D01*
X240902086Y-108401000D02*
X237519193Y-109632273D01*
%TO.C,D71*%
X158250001Y-138000629D02*
X158250001Y-134400629D01*
X161350001Y-138000629D02*
X158250001Y-138000629D01*
X158250001Y-134400629D02*
X161350001Y-134400629D01*
X161350001Y-134400629D02*
X161350001Y-138000629D01*
%TO.C,D82*%
X51794921Y-126219069D02*
X55177814Y-127450342D01*
X50734658Y-129132116D02*
X51794921Y-126219069D01*
X55177814Y-127450342D02*
X54117551Y-130363389D01*
X54117551Y-130363389D02*
X50734658Y-129132116D01*
%TO.C,D132*%
X308434478Y-71150851D02*
X305051585Y-72382124D01*
X307374215Y-68237804D02*
X308434478Y-71150851D01*
X305051585Y-72382124D02*
X303991322Y-69469077D01*
X303991322Y-69469077D02*
X307374215Y-68237804D01*
%TO.C,D69*%
X192433861Y-154136676D02*
X189316169Y-155936676D01*
X190883861Y-151451998D02*
X192433861Y-154136676D01*
X189316169Y-155936676D02*
X187766169Y-153251998D01*
X187766169Y-153251998D02*
X190883861Y-151451998D01*
%TO.C,D122*%
X270188880Y-77468894D02*
X266805987Y-78700167D01*
X269128617Y-74555847D02*
X270188880Y-77468894D01*
X266805987Y-78700167D02*
X265745724Y-75787120D01*
X265745724Y-75787120D02*
X269128617Y-74555847D01*
%TO.C,D99*%
X145811548Y-101230124D02*
X142428655Y-99998851D01*
X146871811Y-98317077D02*
X145811548Y-101230124D01*
X142428655Y-99998851D02*
X143488918Y-97085804D01*
X143488918Y-97085804D02*
X146871811Y-98317077D01*
%TO.C,D80*%
X64825920Y-90416779D02*
X68208813Y-91648052D01*
X63765657Y-93329826D02*
X64825920Y-90416779D01*
X68208813Y-91648052D02*
X67148550Y-94561099D01*
X67148550Y-94561099D02*
X63765657Y-93329826D01*
%TO.C,D109*%
X230602332Y-135801154D02*
X227219439Y-137032427D01*
X229542069Y-132888107D02*
X230602332Y-135801154D01*
X227219439Y-137032427D02*
X226159176Y-134119380D01*
X226159176Y-134119380D02*
X229542069Y-132888107D01*
%TO.C,D133*%
X310506800Y-87370210D02*
X313889693Y-86138937D01*
X311567063Y-90283257D02*
X310506800Y-87370210D01*
X313889693Y-86138937D02*
X314949956Y-89051984D01*
X314949956Y-89051984D02*
X311567063Y-90283257D01*
%TO.C,D126*%
X278760273Y-55845770D02*
X282143166Y-54614497D01*
X279820536Y-58758817D02*
X278760273Y-55845770D01*
X282143166Y-54614497D02*
X283203429Y-57527544D01*
X283203429Y-57527544D02*
X279820536Y-58758817D01*
%TO.C,D111*%
X223427954Y-70916943D02*
X226810847Y-69685670D01*
X224488217Y-73829990D02*
X223427954Y-70916943D01*
X226810847Y-69685670D02*
X227871110Y-72598717D01*
X227871110Y-72598717D02*
X224488217Y-73829990D01*
%TO.C,D70*%
X170683851Y-155936675D02*
X167566159Y-154136675D01*
X172233851Y-153251997D02*
X170683851Y-155936675D01*
X167566159Y-154136675D02*
X169116159Y-151451997D01*
X169116159Y-151451997D02*
X172233851Y-153251997D01*
%TO.C,D114*%
X247417558Y-126302158D02*
X244034665Y-127533431D01*
X246357295Y-123389111D02*
X247417558Y-126302158D01*
X244034665Y-127533431D02*
X242974402Y-124620384D01*
X242974402Y-124620384D02*
X246357295Y-123389111D01*
%TO.C,D123*%
X272261222Y-93688257D02*
X275644115Y-92456984D01*
X273321485Y-96601304D02*
X272261222Y-93688257D01*
X275644115Y-92456984D02*
X276704378Y-95370031D01*
X276704378Y-95370031D02*
X273321485Y-96601304D01*
%TO.C,D135*%
X323537772Y-123172506D02*
X326920665Y-121941233D01*
X324598035Y-126085553D02*
X323537772Y-123172506D01*
X326920665Y-121941233D02*
X327980928Y-124854280D01*
X327980928Y-124854280D02*
X324598035Y-126085553D01*
%TO.C,D128*%
X291791238Y-91648065D02*
X295174131Y-90416792D01*
X292851501Y-94561112D02*
X291791238Y-91648065D01*
X295174131Y-90416792D02*
X296234394Y-93329839D01*
X296234394Y-93329839D02*
X292851501Y-94561112D01*
%TO.C,D97*%
X118540807Y-152953196D02*
X121489754Y-155018071D01*
X116762720Y-155492567D02*
X118540807Y-152953196D01*
X121489754Y-155018071D02*
X119711667Y-157557442D01*
X119711667Y-157557442D02*
X116762720Y-155492567D01*
%TO.C,D72*%
X167566171Y-118264578D02*
X170683863Y-116464578D01*
X169116171Y-120949256D02*
X167566171Y-118264578D01*
X170683863Y-116464578D02*
X172233863Y-119149256D01*
X172233863Y-119149256D02*
X169116171Y-120949256D01*
%TO.C,D94*%
X128996306Y-91731110D02*
X125613413Y-90499837D01*
X130056569Y-88818063D02*
X128996306Y-91731110D01*
X125613413Y-90499837D02*
X126673676Y-87586790D01*
X126673676Y-87586790D02*
X130056569Y-88818063D01*
%TO.C,D119*%
X263961308Y-116057240D02*
X260578415Y-117288513D01*
X262901045Y-113144193D02*
X263961308Y-116057240D01*
X260578415Y-117288513D02*
X259518152Y-114375466D01*
X259518152Y-114375466D02*
X262901045Y-113144193D01*
%TO.C,D120*%
X257085817Y-144824962D02*
X260468710Y-143593689D01*
X258146080Y-147738009D02*
X257085817Y-144824962D01*
X260468710Y-143593689D02*
X261528973Y-146506736D01*
X261528973Y-146506736D02*
X258146080Y-147738009D01*
%TO.C,D115*%
X238494421Y-155012316D02*
X241443368Y-152947441D01*
X240272508Y-157551687D02*
X238494421Y-155012316D01*
X241443368Y-152947441D02*
X243221455Y-155486812D01*
X243221455Y-155486812D02*
X240272508Y-157551687D01*
%TO.C,D116*%
X239971695Y-60672041D02*
X243354588Y-59440768D01*
X241031958Y-63585088D02*
X239971695Y-60672041D01*
X243354588Y-59440768D02*
X244414851Y-62353815D01*
X244414851Y-62353815D02*
X241031958Y-63585088D01*
%TO.C,D110*%
X223293182Y-169636867D02*
X225607218Y-166879107D01*
X225667920Y-171629509D02*
X223293182Y-169636867D01*
X225607218Y-166879107D02*
X227981956Y-168871749D01*
X227981956Y-168871749D02*
X225667920Y-171629509D01*
%TO.C,D74*%
X54948433Y-72382120D02*
X51565540Y-71150847D01*
X56008696Y-69469073D02*
X54948433Y-72382120D01*
X51565540Y-71150847D02*
X52625803Y-68237800D01*
X52625803Y-68237800D02*
X56008696Y-69469073D01*
%TO.C,D79*%
X73664014Y-76659948D02*
X70281121Y-75428675D01*
X74724277Y-73746901D02*
X73664014Y-76659948D01*
X70281121Y-75428675D02*
X71341384Y-72515628D01*
X71341384Y-72515628D02*
X74724277Y-73746901D01*
%TO.C,D121*%
X259230247Y-57885977D02*
X262613140Y-56654704D01*
X260290510Y-60799024D02*
X259230247Y-57885977D01*
X262613140Y-56654704D02*
X263673403Y-59567751D01*
X263673403Y-59567751D02*
X260290510Y-60799024D01*
%TO.C,D88*%
X116645423Y-59440758D02*
X120028316Y-60672031D01*
X115585160Y-62353805D02*
X116645423Y-59440758D01*
X120028316Y-60672031D02*
X118968053Y-63585078D01*
X118968053Y-63585078D02*
X115585160Y-62353805D01*
%TO.C,D118*%
X253002680Y-96474344D02*
X256385573Y-95243071D01*
X254062943Y-99387391D02*
X253002680Y-96474344D01*
X256385573Y-95243071D02*
X257445836Y-98156118D01*
X257445836Y-98156118D02*
X254062943Y-99387391D01*
%TD*%
M02*
