%TF.GenerationSoftware,KiCad,Pcbnew,7.0.5*%
%TF.CreationDate,2023-06-11T11:23:04+01:00*%
%TF.ProjectId,Honeydew,486f6e65-7964-4657-972e-6b696361645f,V2.0*%
%TF.SameCoordinates,Original*%
%TF.FileFunction,Legend,Top*%
%TF.FilePolarity,Positive*%
%FSLAX46Y46*%
G04 Gerber Fmt 4.6, Leading zero omitted, Abs format (unit mm)*
G04 Created by KiCad (PCBNEW 7.0.5) date 2023-06-11 11:23:04*
%MOMM*%
%LPD*%
G01*
G04 APERTURE LIST*
G04 Aperture macros list*
%AMRoundRect*
0 Rectangle with rounded corners*
0 $1 Rounding radius*
0 $2 $3 $4 $5 $6 $7 $8 $9 X,Y pos of 4 corners*
0 Add a 4 corners polygon primitive as box body*
4,1,4,$2,$3,$4,$5,$6,$7,$8,$9,$2,$3,0*
0 Add four circle primitives for the rounded corners*
1,1,$1+$1,$2,$3*
1,1,$1+$1,$4,$5*
1,1,$1+$1,$6,$7*
1,1,$1+$1,$8,$9*
0 Add four rect primitives between the rounded corners*
20,1,$1+$1,$2,$3,$4,$5,0*
20,1,$1+$1,$4,$5,$6,$7,0*
20,1,$1+$1,$6,$7,$8,$9,0*
20,1,$1+$1,$8,$9,$2,$3,0*%
%AMRotRect*
0 Rectangle, with rotation*
0 The origin of the aperture is its center*
0 $1 length*
0 $2 width*
0 $3 Rotation angle, in degrees counterclockwise*
0 Add horizontal line*
21,1,$1,$2,0,0,$3*%
G04 Aperture macros list end*
%ADD10C,0.120000*%
%ADD11C,0.150000*%
%ADD12C,0.300000*%
%ADD13C,0.100000*%
%ADD14C,0.127000*%
%ADD15C,0.200000*%
%ADD16C,2.200000*%
%ADD17C,4.000000*%
%ADD18C,4.200000*%
%ADD19C,2.000000*%
%ADD20RotRect,4.400000X4.400000X150.000000*%
%ADD21C,3.200000*%
%ADD22C,1.152000*%
%ADD23RoundRect,0.575000X-0.675000X-0.575000X0.675000X-0.575000X0.675000X0.575000X-0.675000X0.575000X0*%
%ADD24C,5.600000*%
%ADD25R,1.700000X1.700000*%
%ADD26O,1.700000X1.700000*%
%ADD27R,2.200000X2.200000*%
%ADD28C,4.400000*%
%ADD29C,1.750000*%
%ADD30C,3.987800*%
%ADD31C,3.300000*%
%ADD32C,1.700000*%
%ADD33C,0.900000*%
%ADD34R,1.200000X1.200000*%
%ADD35C,1.200000*%
%ADD36C,0.750000*%
%ADD37O,1.000000X2.200000*%
%ADD38O,1.000000X1.800000*%
G04 APERTURE END LIST*
D10*
X173199989Y-107000001D02*
X173199984Y-108470009D01*
X214899966Y-63700009D02*
X214899965Y-97700007D01*
X172499976Y-108470010D02*
X173199978Y-108470012D01*
X214899965Y-97700007D02*
X212949963Y-97700006D01*
X181099966Y-97700001D02*
X181099971Y-63700010D01*
X172499974Y-104020013D02*
X173199978Y-104020008D01*
X173199978Y-104020008D02*
X173199977Y-105500000D01*
X183049970Y-97700003D02*
X181099966Y-97700001D01*
D11*
X172714271Y-110173866D02*
X173476176Y-110173866D01*
X173095223Y-110554819D02*
X173095223Y-109792914D01*
X174428556Y-109554819D02*
X173952366Y-109554819D01*
X173952366Y-109554819D02*
X173904747Y-110031009D01*
X173904747Y-110031009D02*
X173952366Y-109983390D01*
X173952366Y-109983390D02*
X174047604Y-109935771D01*
X174047604Y-109935771D02*
X174285699Y-109935771D01*
X174285699Y-109935771D02*
X174380937Y-109983390D01*
X174380937Y-109983390D02*
X174428556Y-110031009D01*
X174428556Y-110031009D02*
X174476175Y-110126247D01*
X174476175Y-110126247D02*
X174476175Y-110364342D01*
X174476175Y-110364342D02*
X174428556Y-110459580D01*
X174428556Y-110459580D02*
X174380937Y-110507200D01*
X174380937Y-110507200D02*
X174285699Y-110554819D01*
X174285699Y-110554819D02*
X174047604Y-110554819D01*
X174047604Y-110554819D02*
X173952366Y-110507200D01*
X173952366Y-110507200D02*
X173904747Y-110459580D01*
X174761890Y-109554819D02*
X175095223Y-110554819D01*
X175095223Y-110554819D02*
X175428556Y-109554819D01*
X217688083Y-104637428D02*
X217592845Y-104589809D01*
X217592845Y-104589809D02*
X217449988Y-104589809D01*
X217449988Y-104589809D02*
X217307131Y-104637428D01*
X217307131Y-104637428D02*
X217211893Y-104732666D01*
X217211893Y-104732666D02*
X217164274Y-104827904D01*
X217164274Y-104827904D02*
X217116655Y-105018380D01*
X217116655Y-105018380D02*
X217116655Y-105161237D01*
X217116655Y-105161237D02*
X217164274Y-105351713D01*
X217164274Y-105351713D02*
X217211893Y-105446951D01*
X217211893Y-105446951D02*
X217307131Y-105542190D01*
X217307131Y-105542190D02*
X217449988Y-105589809D01*
X217449988Y-105589809D02*
X217545226Y-105589809D01*
X217545226Y-105589809D02*
X217688083Y-105542190D01*
X217688083Y-105542190D02*
X217735702Y-105494570D01*
X217735702Y-105494570D02*
X217735702Y-105161237D01*
X217735702Y-105161237D02*
X217545226Y-105161237D01*
X218164274Y-105589809D02*
X218164274Y-104589809D01*
X218164274Y-104589809D02*
X218735702Y-105589809D01*
X218735702Y-105589809D02*
X218735702Y-104589809D01*
X219211893Y-105589809D02*
X219211893Y-104589809D01*
X219211893Y-104589809D02*
X219449988Y-104589809D01*
X219449988Y-104589809D02*
X219592845Y-104637428D01*
X219592845Y-104637428D02*
X219688083Y-104732666D01*
X219688083Y-104732666D02*
X219735702Y-104827904D01*
X219735702Y-104827904D02*
X219783321Y-105018380D01*
X219783321Y-105018380D02*
X219783321Y-105161237D01*
X219783321Y-105161237D02*
X219735702Y-105351713D01*
X219735702Y-105351713D02*
X219688083Y-105446951D01*
X219688083Y-105446951D02*
X219592845Y-105542190D01*
X219592845Y-105542190D02*
X219449988Y-105589809D01*
X219449988Y-105589809D02*
X219211893Y-105589809D01*
X217855394Y-102944570D02*
X217807775Y-102992190D01*
X217807775Y-102992190D02*
X217664918Y-103039809D01*
X217664918Y-103039809D02*
X217569680Y-103039809D01*
X217569680Y-103039809D02*
X217426823Y-102992190D01*
X217426823Y-102992190D02*
X217331585Y-102896951D01*
X217331585Y-102896951D02*
X217283966Y-102801713D01*
X217283966Y-102801713D02*
X217236347Y-102611237D01*
X217236347Y-102611237D02*
X217236347Y-102468380D01*
X217236347Y-102468380D02*
X217283966Y-102277904D01*
X217283966Y-102277904D02*
X217331585Y-102182666D01*
X217331585Y-102182666D02*
X217426823Y-102087428D01*
X217426823Y-102087428D02*
X217569680Y-102039809D01*
X217569680Y-102039809D02*
X217664918Y-102039809D01*
X217664918Y-102039809D02*
X217807775Y-102087428D01*
X217807775Y-102087428D02*
X217855394Y-102135047D01*
X218760156Y-103039809D02*
X218283966Y-103039809D01*
X218283966Y-103039809D02*
X218283966Y-102039809D01*
X219093490Y-103039809D02*
X219093490Y-102039809D01*
X219664918Y-103039809D02*
X219236347Y-102468380D01*
X219664918Y-102039809D02*
X219093490Y-102611237D01*
X217142851Y-108092195D02*
X217285708Y-108139814D01*
X217285708Y-108139814D02*
X217523803Y-108139814D01*
X217523803Y-108139814D02*
X217619041Y-108092195D01*
X217619041Y-108092195D02*
X217666660Y-108044575D01*
X217666660Y-108044575D02*
X217714279Y-107949337D01*
X217714279Y-107949337D02*
X217714279Y-107854099D01*
X217714279Y-107854099D02*
X217666660Y-107758861D01*
X217666660Y-107758861D02*
X217619041Y-107711242D01*
X217619041Y-107711242D02*
X217523803Y-107663623D01*
X217523803Y-107663623D02*
X217333327Y-107616004D01*
X217333327Y-107616004D02*
X217238089Y-107568385D01*
X217238089Y-107568385D02*
X217190470Y-107520766D01*
X217190470Y-107520766D02*
X217142851Y-107425528D01*
X217142851Y-107425528D02*
X217142851Y-107330290D01*
X217142851Y-107330290D02*
X217190470Y-107235052D01*
X217190470Y-107235052D02*
X217238089Y-107187433D01*
X217238089Y-107187433D02*
X217333327Y-107139814D01*
X217333327Y-107139814D02*
X217571422Y-107139814D01*
X217571422Y-107139814D02*
X217714279Y-107187433D01*
X218047613Y-107139814D02*
X218285708Y-108139814D01*
X218285708Y-108139814D02*
X218476184Y-107425528D01*
X218476184Y-107425528D02*
X218666660Y-108139814D01*
X218666660Y-108139814D02*
X218904756Y-107139814D01*
X219285708Y-108139814D02*
X219285708Y-107139814D01*
X219285708Y-107139814D02*
X219523803Y-107139814D01*
X219523803Y-107139814D02*
X219666660Y-107187433D01*
X219666660Y-107187433D02*
X219761898Y-107282671D01*
X219761898Y-107282671D02*
X219809517Y-107377909D01*
X219809517Y-107377909D02*
X219857136Y-107568385D01*
X219857136Y-107568385D02*
X219857136Y-107711242D01*
X219857136Y-107711242D02*
X219809517Y-107901718D01*
X219809517Y-107901718D02*
X219761898Y-107996956D01*
X219761898Y-107996956D02*
X219666660Y-108092195D01*
X219666660Y-108092195D02*
X219523803Y-108139814D01*
X219523803Y-108139814D02*
X219285708Y-108139814D01*
D12*
X187190435Y-113659647D02*
X187190435Y-111659647D01*
X187190435Y-112612028D02*
X188333292Y-112612028D01*
X188333292Y-113659647D02*
X188333292Y-111659647D01*
X189571387Y-113659647D02*
X189380911Y-113564409D01*
X189380911Y-113564409D02*
X189285673Y-113469170D01*
X189285673Y-113469170D02*
X189190435Y-113278694D01*
X189190435Y-113278694D02*
X189190435Y-112707266D01*
X189190435Y-112707266D02*
X189285673Y-112516789D01*
X189285673Y-112516789D02*
X189380911Y-112421551D01*
X189380911Y-112421551D02*
X189571387Y-112326313D01*
X189571387Y-112326313D02*
X189857102Y-112326313D01*
X189857102Y-112326313D02*
X190047578Y-112421551D01*
X190047578Y-112421551D02*
X190142816Y-112516789D01*
X190142816Y-112516789D02*
X190238054Y-112707266D01*
X190238054Y-112707266D02*
X190238054Y-113278694D01*
X190238054Y-113278694D02*
X190142816Y-113469170D01*
X190142816Y-113469170D02*
X190047578Y-113564409D01*
X190047578Y-113564409D02*
X189857102Y-113659647D01*
X189857102Y-113659647D02*
X189571387Y-113659647D01*
X191095197Y-112326313D02*
X191095197Y-113659647D01*
X191095197Y-112516789D02*
X191190435Y-112421551D01*
X191190435Y-112421551D02*
X191380911Y-112326313D01*
X191380911Y-112326313D02*
X191666626Y-112326313D01*
X191666626Y-112326313D02*
X191857102Y-112421551D01*
X191857102Y-112421551D02*
X191952340Y-112612028D01*
X191952340Y-112612028D02*
X191952340Y-113659647D01*
X193666626Y-113564409D02*
X193476150Y-113659647D01*
X193476150Y-113659647D02*
X193095197Y-113659647D01*
X193095197Y-113659647D02*
X192904721Y-113564409D01*
X192904721Y-113564409D02*
X192809483Y-113373932D01*
X192809483Y-113373932D02*
X192809483Y-112612028D01*
X192809483Y-112612028D02*
X192904721Y-112421551D01*
X192904721Y-112421551D02*
X193095197Y-112326313D01*
X193095197Y-112326313D02*
X193476150Y-112326313D01*
X193476150Y-112326313D02*
X193666626Y-112421551D01*
X193666626Y-112421551D02*
X193761864Y-112612028D01*
X193761864Y-112612028D02*
X193761864Y-112802504D01*
X193761864Y-112802504D02*
X192809483Y-112992980D01*
X194428531Y-112326313D02*
X194904721Y-113659647D01*
X195380912Y-112326313D02*
X194904721Y-113659647D01*
X194904721Y-113659647D02*
X194714245Y-114135837D01*
X194714245Y-114135837D02*
X194619007Y-114231075D01*
X194619007Y-114231075D02*
X194428531Y-114326313D01*
X196999960Y-113659647D02*
X196999960Y-111659647D01*
X196999960Y-113564409D02*
X196809484Y-113659647D01*
X196809484Y-113659647D02*
X196428531Y-113659647D01*
X196428531Y-113659647D02*
X196238055Y-113564409D01*
X196238055Y-113564409D02*
X196142817Y-113469170D01*
X196142817Y-113469170D02*
X196047579Y-113278694D01*
X196047579Y-113278694D02*
X196047579Y-112707266D01*
X196047579Y-112707266D02*
X196142817Y-112516789D01*
X196142817Y-112516789D02*
X196238055Y-112421551D01*
X196238055Y-112421551D02*
X196428531Y-112326313D01*
X196428531Y-112326313D02*
X196809484Y-112326313D01*
X196809484Y-112326313D02*
X196999960Y-112421551D01*
X198714246Y-113564409D02*
X198523770Y-113659647D01*
X198523770Y-113659647D02*
X198142817Y-113659647D01*
X198142817Y-113659647D02*
X197952341Y-113564409D01*
X197952341Y-113564409D02*
X197857103Y-113373932D01*
X197857103Y-113373932D02*
X197857103Y-112612028D01*
X197857103Y-112612028D02*
X197952341Y-112421551D01*
X197952341Y-112421551D02*
X198142817Y-112326313D01*
X198142817Y-112326313D02*
X198523770Y-112326313D01*
X198523770Y-112326313D02*
X198714246Y-112421551D01*
X198714246Y-112421551D02*
X198809484Y-112612028D01*
X198809484Y-112612028D02*
X198809484Y-112802504D01*
X198809484Y-112802504D02*
X197857103Y-112992980D01*
X199476151Y-112326313D02*
X199857103Y-113659647D01*
X199857103Y-113659647D02*
X200238056Y-112707266D01*
X200238056Y-112707266D02*
X200619008Y-113659647D01*
X200619008Y-113659647D02*
X200999960Y-112326313D01*
X202999961Y-111659647D02*
X203666627Y-113659647D01*
X203666627Y-113659647D02*
X204333294Y-111659647D01*
X204904723Y-111850123D02*
X204999961Y-111754885D01*
X204999961Y-111754885D02*
X205190437Y-111659647D01*
X205190437Y-111659647D02*
X205666628Y-111659647D01*
X205666628Y-111659647D02*
X205857104Y-111754885D01*
X205857104Y-111754885D02*
X205952342Y-111850123D01*
X205952342Y-111850123D02*
X206047580Y-112040599D01*
X206047580Y-112040599D02*
X206047580Y-112231075D01*
X206047580Y-112231075D02*
X205952342Y-112516789D01*
X205952342Y-112516789D02*
X204809485Y-113659647D01*
X204809485Y-113659647D02*
X206047580Y-113659647D01*
X206904723Y-113469170D02*
X206999961Y-113564409D01*
X206999961Y-113564409D02*
X206904723Y-113659647D01*
X206904723Y-113659647D02*
X206809485Y-113564409D01*
X206809485Y-113564409D02*
X206904723Y-113469170D01*
X206904723Y-113469170D02*
X206904723Y-113659647D01*
X208238056Y-111659647D02*
X208428533Y-111659647D01*
X208428533Y-111659647D02*
X208619009Y-111754885D01*
X208619009Y-111754885D02*
X208714247Y-111850123D01*
X208714247Y-111850123D02*
X208809485Y-112040599D01*
X208809485Y-112040599D02*
X208904723Y-112421551D01*
X208904723Y-112421551D02*
X208904723Y-112897742D01*
X208904723Y-112897742D02*
X208809485Y-113278694D01*
X208809485Y-113278694D02*
X208714247Y-113469170D01*
X208714247Y-113469170D02*
X208619009Y-113564409D01*
X208619009Y-113564409D02*
X208428533Y-113659647D01*
X208428533Y-113659647D02*
X208238056Y-113659647D01*
X208238056Y-113659647D02*
X208047580Y-113564409D01*
X208047580Y-113564409D02*
X207952342Y-113469170D01*
X207952342Y-113469170D02*
X207857104Y-113278694D01*
X207857104Y-113278694D02*
X207761866Y-112897742D01*
X207761866Y-112897742D02*
X207761866Y-112421551D01*
X207761866Y-112421551D02*
X207857104Y-112040599D01*
X207857104Y-112040599D02*
X207952342Y-111850123D01*
X207952342Y-111850123D02*
X208047580Y-111754885D01*
X208047580Y-111754885D02*
X208238056Y-111659647D01*
D11*
X173409513Y-113154821D02*
X173076180Y-112678630D01*
X172838085Y-113154821D02*
X172838085Y-112154821D01*
X172838085Y-112154821D02*
X173219037Y-112154821D01*
X173219037Y-112154821D02*
X173314275Y-112202440D01*
X173314275Y-112202440D02*
X173361894Y-112250059D01*
X173361894Y-112250059D02*
X173409513Y-112345297D01*
X173409513Y-112345297D02*
X173409513Y-112488154D01*
X173409513Y-112488154D02*
X173361894Y-112583392D01*
X173361894Y-112583392D02*
X173314275Y-112631011D01*
X173314275Y-112631011D02*
X173219037Y-112678630D01*
X173219037Y-112678630D02*
X172838085Y-112678630D01*
X174361894Y-112202440D02*
X174266656Y-112154821D01*
X174266656Y-112154821D02*
X174123799Y-112154821D01*
X174123799Y-112154821D02*
X173980942Y-112202440D01*
X173980942Y-112202440D02*
X173885704Y-112297678D01*
X173885704Y-112297678D02*
X173838085Y-112392916D01*
X173838085Y-112392916D02*
X173790466Y-112583392D01*
X173790466Y-112583392D02*
X173790466Y-112726249D01*
X173790466Y-112726249D02*
X173838085Y-112916725D01*
X173838085Y-112916725D02*
X173885704Y-113011963D01*
X173885704Y-113011963D02*
X173980942Y-113107202D01*
X173980942Y-113107202D02*
X174123799Y-113154821D01*
X174123799Y-113154821D02*
X174219037Y-113154821D01*
X174219037Y-113154821D02*
X174361894Y-113107202D01*
X174361894Y-113107202D02*
X174409513Y-113059582D01*
X174409513Y-113059582D02*
X174409513Y-112726249D01*
X174409513Y-112726249D02*
X174219037Y-112726249D01*
X175171418Y-112631011D02*
X175314275Y-112678630D01*
X175314275Y-112678630D02*
X175361894Y-112726249D01*
X175361894Y-112726249D02*
X175409513Y-112821487D01*
X175409513Y-112821487D02*
X175409513Y-112964344D01*
X175409513Y-112964344D02*
X175361894Y-113059582D01*
X175361894Y-113059582D02*
X175314275Y-113107202D01*
X175314275Y-113107202D02*
X175219037Y-113154821D01*
X175219037Y-113154821D02*
X174838085Y-113154821D01*
X174838085Y-113154821D02*
X174838085Y-112154821D01*
X174838085Y-112154821D02*
X175171418Y-112154821D01*
X175171418Y-112154821D02*
X175266656Y-112202440D01*
X175266656Y-112202440D02*
X175314275Y-112250059D01*
X175314275Y-112250059D02*
X175361894Y-112345297D01*
X175361894Y-112345297D02*
X175361894Y-112440535D01*
X175361894Y-112440535D02*
X175314275Y-112535773D01*
X175314275Y-112535773D02*
X175266656Y-112583392D01*
X175266656Y-112583392D02*
X175171418Y-112631011D01*
X175171418Y-112631011D02*
X174838085Y-112631011D01*
X194590446Y-152354824D02*
X195161874Y-152354824D01*
X194876160Y-153354824D02*
X194876160Y-152354824D01*
X195495208Y-153354824D02*
X195495208Y-152688157D01*
X195495208Y-152878633D02*
X195542827Y-152783395D01*
X195542827Y-152783395D02*
X195590446Y-152735776D01*
X195590446Y-152735776D02*
X195685684Y-152688157D01*
X195685684Y-152688157D02*
X195780922Y-152688157D01*
X196542827Y-153354824D02*
X196542827Y-152831014D01*
X196542827Y-152831014D02*
X196495208Y-152735776D01*
X196495208Y-152735776D02*
X196399970Y-152688157D01*
X196399970Y-152688157D02*
X196209494Y-152688157D01*
X196209494Y-152688157D02*
X196114256Y-152735776D01*
X196542827Y-153307205D02*
X196447589Y-153354824D01*
X196447589Y-153354824D02*
X196209494Y-153354824D01*
X196209494Y-153354824D02*
X196114256Y-153307205D01*
X196114256Y-153307205D02*
X196066637Y-153211966D01*
X196066637Y-153211966D02*
X196066637Y-153116728D01*
X196066637Y-153116728D02*
X196114256Y-153021490D01*
X196114256Y-153021490D02*
X196209494Y-152973871D01*
X196209494Y-152973871D02*
X196447589Y-152973871D01*
X196447589Y-152973871D02*
X196542827Y-152926252D01*
X197447589Y-153307205D02*
X197352351Y-153354824D01*
X197352351Y-153354824D02*
X197161875Y-153354824D01*
X197161875Y-153354824D02*
X197066637Y-153307205D01*
X197066637Y-153307205D02*
X197019018Y-153259585D01*
X197019018Y-153259585D02*
X196971399Y-153164347D01*
X196971399Y-153164347D02*
X196971399Y-152878633D01*
X196971399Y-152878633D02*
X197019018Y-152783395D01*
X197019018Y-152783395D02*
X197066637Y-152735776D01*
X197066637Y-152735776D02*
X197161875Y-152688157D01*
X197161875Y-152688157D02*
X197352351Y-152688157D01*
X197352351Y-152688157D02*
X197447589Y-152735776D01*
X197876161Y-153354824D02*
X197876161Y-152354824D01*
X197971399Y-152973871D02*
X198257113Y-153354824D01*
X198257113Y-152688157D02*
X197876161Y-153069109D01*
X198685685Y-153354824D02*
X198685685Y-152354824D01*
X198685685Y-152735776D02*
X198780923Y-152688157D01*
X198780923Y-152688157D02*
X198971399Y-152688157D01*
X198971399Y-152688157D02*
X199066637Y-152735776D01*
X199066637Y-152735776D02*
X199114256Y-152783395D01*
X199114256Y-152783395D02*
X199161875Y-152878633D01*
X199161875Y-152878633D02*
X199161875Y-153164347D01*
X199161875Y-153164347D02*
X199114256Y-153259585D01*
X199114256Y-153259585D02*
X199066637Y-153307205D01*
X199066637Y-153307205D02*
X198971399Y-153354824D01*
X198971399Y-153354824D02*
X198780923Y-153354824D01*
X198780923Y-153354824D02*
X198685685Y-153307205D01*
X200019018Y-153354824D02*
X200019018Y-152831014D01*
X200019018Y-152831014D02*
X199971399Y-152735776D01*
X199971399Y-152735776D02*
X199876161Y-152688157D01*
X199876161Y-152688157D02*
X199685685Y-152688157D01*
X199685685Y-152688157D02*
X199590447Y-152735776D01*
X200019018Y-153307205D02*
X199923780Y-153354824D01*
X199923780Y-153354824D02*
X199685685Y-153354824D01*
X199685685Y-153354824D02*
X199590447Y-153307205D01*
X199590447Y-153307205D02*
X199542828Y-153211966D01*
X199542828Y-153211966D02*
X199542828Y-153116728D01*
X199542828Y-153116728D02*
X199590447Y-153021490D01*
X199590447Y-153021490D02*
X199685685Y-152973871D01*
X199685685Y-152973871D02*
X199923780Y-152973871D01*
X199923780Y-152973871D02*
X200019018Y-152926252D01*
X200638066Y-153354824D02*
X200542828Y-153307205D01*
X200542828Y-153307205D02*
X200495209Y-153211966D01*
X200495209Y-153211966D02*
X200495209Y-152354824D01*
X201161876Y-153354824D02*
X201066638Y-153307205D01*
X201066638Y-153307205D02*
X201019019Y-153211966D01*
X201019019Y-153211966D02*
X201019019Y-152354824D01*
X173338080Y-105902439D02*
X173242842Y-105854820D01*
X173242842Y-105854820D02*
X173099985Y-105854820D01*
X173099985Y-105854820D02*
X172957128Y-105902439D01*
X172957128Y-105902439D02*
X172861890Y-105997677D01*
X172861890Y-105997677D02*
X172814271Y-106092915D01*
X172814271Y-106092915D02*
X172766652Y-106283391D01*
X172766652Y-106283391D02*
X172766652Y-106426248D01*
X172766652Y-106426248D02*
X172814271Y-106616724D01*
X172814271Y-106616724D02*
X172861890Y-106711962D01*
X172861890Y-106711962D02*
X172957128Y-106807201D01*
X172957128Y-106807201D02*
X173099985Y-106854820D01*
X173099985Y-106854820D02*
X173195223Y-106854820D01*
X173195223Y-106854820D02*
X173338080Y-106807201D01*
X173338080Y-106807201D02*
X173385699Y-106759581D01*
X173385699Y-106759581D02*
X173385699Y-106426248D01*
X173385699Y-106426248D02*
X173195223Y-106426248D01*
X173814271Y-106854820D02*
X173814271Y-105854820D01*
X173814271Y-105854820D02*
X174385699Y-106854820D01*
X174385699Y-106854820D02*
X174385699Y-105854820D01*
X174861890Y-106854820D02*
X174861890Y-105854820D01*
X174861890Y-105854820D02*
X175099985Y-105854820D01*
X175099985Y-105854820D02*
X175242842Y-105902439D01*
X175242842Y-105902439D02*
X175338080Y-105997677D01*
X175338080Y-105997677D02*
X175385699Y-106092915D01*
X175385699Y-106092915D02*
X175433318Y-106283391D01*
X175433318Y-106283391D02*
X175433318Y-106426248D01*
X175433318Y-106426248D02*
X175385699Y-106616724D01*
X175385699Y-106616724D02*
X175338080Y-106711962D01*
X175338080Y-106711962D02*
X175242842Y-106807201D01*
X175242842Y-106807201D02*
X175099985Y-106854820D01*
X175099985Y-106854820D02*
X174861890Y-106854820D01*
X178334641Y-61574586D02*
X178287022Y-61622206D01*
X178287022Y-61622206D02*
X178144165Y-61669825D01*
X178144165Y-61669825D02*
X178048927Y-61669825D01*
X178048927Y-61669825D02*
X177906070Y-61622206D01*
X177906070Y-61622206D02*
X177810832Y-61526967D01*
X177810832Y-61526967D02*
X177763213Y-61431729D01*
X177763213Y-61431729D02*
X177715594Y-61241253D01*
X177715594Y-61241253D02*
X177715594Y-61098396D01*
X177715594Y-61098396D02*
X177763213Y-60907920D01*
X177763213Y-60907920D02*
X177810832Y-60812682D01*
X177810832Y-60812682D02*
X177906070Y-60717444D01*
X177906070Y-60717444D02*
X178048927Y-60669825D01*
X178048927Y-60669825D02*
X178144165Y-60669825D01*
X178144165Y-60669825D02*
X178287022Y-60717444D01*
X178287022Y-60717444D02*
X178334641Y-60765063D01*
X178715594Y-61622206D02*
X178858451Y-61669825D01*
X178858451Y-61669825D02*
X179096546Y-61669825D01*
X179096546Y-61669825D02*
X179191784Y-61622206D01*
X179191784Y-61622206D02*
X179239403Y-61574586D01*
X179239403Y-61574586D02*
X179287022Y-61479348D01*
X179287022Y-61479348D02*
X179287022Y-61384110D01*
X179287022Y-61384110D02*
X179239403Y-61288872D01*
X179239403Y-61288872D02*
X179191784Y-61241253D01*
X179191784Y-61241253D02*
X179096546Y-61193634D01*
X179096546Y-61193634D02*
X178906070Y-61146015D01*
X178906070Y-61146015D02*
X178810832Y-61098396D01*
X178810832Y-61098396D02*
X178763213Y-61050777D01*
X178763213Y-61050777D02*
X178715594Y-60955539D01*
X178715594Y-60955539D02*
X178715594Y-60860301D01*
X178715594Y-60860301D02*
X178763213Y-60765063D01*
X178763213Y-60765063D02*
X178810832Y-60717444D01*
X178810832Y-60717444D02*
X178906070Y-60669825D01*
X178906070Y-60669825D02*
X179144165Y-60669825D01*
X179144165Y-60669825D02*
X179287022Y-60717444D01*
D13*
%TO.C,SW65*%
X196552344Y-172326809D02*
X196666630Y-172364904D01*
X196666630Y-172364904D02*
X196857106Y-172364904D01*
X196857106Y-172364904D02*
X196933297Y-172326809D01*
X196933297Y-172326809D02*
X196971392Y-172288713D01*
X196971392Y-172288713D02*
X197009487Y-172212523D01*
X197009487Y-172212523D02*
X197009487Y-172136332D01*
X197009487Y-172136332D02*
X196971392Y-172060142D01*
X196971392Y-172060142D02*
X196933297Y-172022047D01*
X196933297Y-172022047D02*
X196857106Y-171983951D01*
X196857106Y-171983951D02*
X196704725Y-171945856D01*
X196704725Y-171945856D02*
X196628535Y-171907761D01*
X196628535Y-171907761D02*
X196590440Y-171869666D01*
X196590440Y-171869666D02*
X196552344Y-171793475D01*
X196552344Y-171793475D02*
X196552344Y-171717285D01*
X196552344Y-171717285D02*
X196590440Y-171641094D01*
X196590440Y-171641094D02*
X196628535Y-171602999D01*
X196628535Y-171602999D02*
X196704725Y-171564904D01*
X196704725Y-171564904D02*
X196895202Y-171564904D01*
X196895202Y-171564904D02*
X197009487Y-171602999D01*
X197276154Y-171564904D02*
X197466630Y-172364904D01*
X197466630Y-172364904D02*
X197619011Y-171793475D01*
X197619011Y-171793475D02*
X197771392Y-172364904D01*
X197771392Y-172364904D02*
X197961869Y-171564904D01*
X198609488Y-171564904D02*
X198457107Y-171564904D01*
X198457107Y-171564904D02*
X198380916Y-171602999D01*
X198380916Y-171602999D02*
X198342821Y-171641094D01*
X198342821Y-171641094D02*
X198266631Y-171755380D01*
X198266631Y-171755380D02*
X198228535Y-171907761D01*
X198228535Y-171907761D02*
X198228535Y-172212523D01*
X198228535Y-172212523D02*
X198266631Y-172288713D01*
X198266631Y-172288713D02*
X198304726Y-172326809D01*
X198304726Y-172326809D02*
X198380916Y-172364904D01*
X198380916Y-172364904D02*
X198533297Y-172364904D01*
X198533297Y-172364904D02*
X198609488Y-172326809D01*
X198609488Y-172326809D02*
X198647583Y-172288713D01*
X198647583Y-172288713D02*
X198685678Y-172212523D01*
X198685678Y-172212523D02*
X198685678Y-172022047D01*
X198685678Y-172022047D02*
X198647583Y-171945856D01*
X198647583Y-171945856D02*
X198609488Y-171907761D01*
X198609488Y-171907761D02*
X198533297Y-171869666D01*
X198533297Y-171869666D02*
X198380916Y-171869666D01*
X198380916Y-171869666D02*
X198304726Y-171907761D01*
X198304726Y-171907761D02*
X198266631Y-171945856D01*
X198266631Y-171945856D02*
X198228535Y-172022047D01*
X199409488Y-171564904D02*
X199028536Y-171564904D01*
X199028536Y-171564904D02*
X198990440Y-171945856D01*
X198990440Y-171945856D02*
X199028536Y-171907761D01*
X199028536Y-171907761D02*
X199104726Y-171869666D01*
X199104726Y-171869666D02*
X199295202Y-171869666D01*
X199295202Y-171869666D02*
X199371393Y-171907761D01*
X199371393Y-171907761D02*
X199409488Y-171945856D01*
X199409488Y-171945856D02*
X199447583Y-172022047D01*
X199447583Y-172022047D02*
X199447583Y-172212523D01*
X199447583Y-172212523D02*
X199409488Y-172288713D01*
X199409488Y-172288713D02*
X199371393Y-172326809D01*
X199371393Y-172326809D02*
X199295202Y-172364904D01*
X199295202Y-172364904D02*
X199104726Y-172364904D01*
X199104726Y-172364904D02*
X199028536Y-172326809D01*
X199028536Y-172326809D02*
X198990440Y-172288713D01*
%TO.C,SW66*%
X220852371Y-198876797D02*
X220966657Y-198914892D01*
X220966657Y-198914892D02*
X221157133Y-198914892D01*
X221157133Y-198914892D02*
X221233324Y-198876797D01*
X221233324Y-198876797D02*
X221271419Y-198838701D01*
X221271419Y-198838701D02*
X221309514Y-198762511D01*
X221309514Y-198762511D02*
X221309514Y-198686320D01*
X221309514Y-198686320D02*
X221271419Y-198610130D01*
X221271419Y-198610130D02*
X221233324Y-198572035D01*
X221233324Y-198572035D02*
X221157133Y-198533939D01*
X221157133Y-198533939D02*
X221004752Y-198495844D01*
X221004752Y-198495844D02*
X220928562Y-198457749D01*
X220928562Y-198457749D02*
X220890467Y-198419654D01*
X220890467Y-198419654D02*
X220852371Y-198343463D01*
X220852371Y-198343463D02*
X220852371Y-198267273D01*
X220852371Y-198267273D02*
X220890467Y-198191082D01*
X220890467Y-198191082D02*
X220928562Y-198152987D01*
X220928562Y-198152987D02*
X221004752Y-198114892D01*
X221004752Y-198114892D02*
X221195229Y-198114892D01*
X221195229Y-198114892D02*
X221309514Y-198152987D01*
X221576181Y-198114892D02*
X221766657Y-198914892D01*
X221766657Y-198914892D02*
X221919038Y-198343463D01*
X221919038Y-198343463D02*
X222071419Y-198914892D01*
X222071419Y-198914892D02*
X222261896Y-198114892D01*
X222909515Y-198114892D02*
X222757134Y-198114892D01*
X222757134Y-198114892D02*
X222680943Y-198152987D01*
X222680943Y-198152987D02*
X222642848Y-198191082D01*
X222642848Y-198191082D02*
X222566658Y-198305368D01*
X222566658Y-198305368D02*
X222528562Y-198457749D01*
X222528562Y-198457749D02*
X222528562Y-198762511D01*
X222528562Y-198762511D02*
X222566658Y-198838701D01*
X222566658Y-198838701D02*
X222604753Y-198876797D01*
X222604753Y-198876797D02*
X222680943Y-198914892D01*
X222680943Y-198914892D02*
X222833324Y-198914892D01*
X222833324Y-198914892D02*
X222909515Y-198876797D01*
X222909515Y-198876797D02*
X222947610Y-198838701D01*
X222947610Y-198838701D02*
X222985705Y-198762511D01*
X222985705Y-198762511D02*
X222985705Y-198572035D01*
X222985705Y-198572035D02*
X222947610Y-198495844D01*
X222947610Y-198495844D02*
X222909515Y-198457749D01*
X222909515Y-198457749D02*
X222833324Y-198419654D01*
X222833324Y-198419654D02*
X222680943Y-198419654D01*
X222680943Y-198419654D02*
X222604753Y-198457749D01*
X222604753Y-198457749D02*
X222566658Y-198495844D01*
X222566658Y-198495844D02*
X222528562Y-198572035D01*
X223671420Y-198114892D02*
X223519039Y-198114892D01*
X223519039Y-198114892D02*
X223442848Y-198152987D01*
X223442848Y-198152987D02*
X223404753Y-198191082D01*
X223404753Y-198191082D02*
X223328563Y-198305368D01*
X223328563Y-198305368D02*
X223290467Y-198457749D01*
X223290467Y-198457749D02*
X223290467Y-198762511D01*
X223290467Y-198762511D02*
X223328563Y-198838701D01*
X223328563Y-198838701D02*
X223366658Y-198876797D01*
X223366658Y-198876797D02*
X223442848Y-198914892D01*
X223442848Y-198914892D02*
X223595229Y-198914892D01*
X223595229Y-198914892D02*
X223671420Y-198876797D01*
X223671420Y-198876797D02*
X223709515Y-198838701D01*
X223709515Y-198838701D02*
X223747610Y-198762511D01*
X223747610Y-198762511D02*
X223747610Y-198572035D01*
X223747610Y-198572035D02*
X223709515Y-198495844D01*
X223709515Y-198495844D02*
X223671420Y-198457749D01*
X223671420Y-198457749D02*
X223595229Y-198419654D01*
X223595229Y-198419654D02*
X223442848Y-198419654D01*
X223442848Y-198419654D02*
X223366658Y-198457749D01*
X223366658Y-198457749D02*
X223328563Y-198495844D01*
X223328563Y-198495844D02*
X223290467Y-198572035D01*
%TO.C,J4*%
X197733297Y-62514903D02*
X197733297Y-63086331D01*
X197733297Y-63086331D02*
X197695202Y-63200617D01*
X197695202Y-63200617D02*
X197619011Y-63276808D01*
X197619011Y-63276808D02*
X197504726Y-63314903D01*
X197504726Y-63314903D02*
X197428535Y-63314903D01*
X198457107Y-62781569D02*
X198457107Y-63314903D01*
X198266631Y-62476808D02*
X198076154Y-63048236D01*
X198076154Y-63048236D02*
X198571393Y-63048236D01*
D11*
X174014250Y-82707208D02*
X174157107Y-82754827D01*
X174157107Y-82754827D02*
X174395202Y-82754827D01*
X174395202Y-82754827D02*
X174490440Y-82707208D01*
X174490440Y-82707208D02*
X174538059Y-82659588D01*
X174538059Y-82659588D02*
X174585678Y-82564350D01*
X174585678Y-82564350D02*
X174585678Y-82469112D01*
X174585678Y-82469112D02*
X174538059Y-82373874D01*
X174538059Y-82373874D02*
X174490440Y-82326255D01*
X174490440Y-82326255D02*
X174395202Y-82278636D01*
X174395202Y-82278636D02*
X174204726Y-82231017D01*
X174204726Y-82231017D02*
X174109488Y-82183398D01*
X174109488Y-82183398D02*
X174061869Y-82135779D01*
X174061869Y-82135779D02*
X174014250Y-82040541D01*
X174014250Y-82040541D02*
X174014250Y-81945303D01*
X174014250Y-81945303D02*
X174061869Y-81850065D01*
X174061869Y-81850065D02*
X174109488Y-81802446D01*
X174109488Y-81802446D02*
X174204726Y-81754827D01*
X174204726Y-81754827D02*
X174442821Y-81754827D01*
X174442821Y-81754827D02*
X174585678Y-81802446D01*
X175585678Y-82659588D02*
X175538059Y-82707208D01*
X175538059Y-82707208D02*
X175395202Y-82754827D01*
X175395202Y-82754827D02*
X175299964Y-82754827D01*
X175299964Y-82754827D02*
X175157107Y-82707208D01*
X175157107Y-82707208D02*
X175061869Y-82611969D01*
X175061869Y-82611969D02*
X175014250Y-82516731D01*
X175014250Y-82516731D02*
X174966631Y-82326255D01*
X174966631Y-82326255D02*
X174966631Y-82183398D01*
X174966631Y-82183398D02*
X175014250Y-81992922D01*
X175014250Y-81992922D02*
X175061869Y-81897684D01*
X175061869Y-81897684D02*
X175157107Y-81802446D01*
X175157107Y-81802446D02*
X175299964Y-81754827D01*
X175299964Y-81754827D02*
X175395202Y-81754827D01*
X175395202Y-81754827D02*
X175538059Y-81802446D01*
X175538059Y-81802446D02*
X175585678Y-81850065D01*
X176014250Y-82754827D02*
X176014250Y-81754827D01*
X176585678Y-82754827D02*
X176157107Y-82183398D01*
X176585678Y-81754827D02*
X176014250Y-82326255D01*
X174014250Y-74773874D02*
X174776155Y-74773874D01*
X174395202Y-75154827D02*
X174395202Y-74392922D01*
X175728535Y-74154827D02*
X175252345Y-74154827D01*
X175252345Y-74154827D02*
X175204726Y-74631017D01*
X175204726Y-74631017D02*
X175252345Y-74583398D01*
X175252345Y-74583398D02*
X175347583Y-74535779D01*
X175347583Y-74535779D02*
X175585678Y-74535779D01*
X175585678Y-74535779D02*
X175680916Y-74583398D01*
X175680916Y-74583398D02*
X175728535Y-74631017D01*
X175728535Y-74631017D02*
X175776154Y-74726255D01*
X175776154Y-74726255D02*
X175776154Y-74964350D01*
X175776154Y-74964350D02*
X175728535Y-75059588D01*
X175728535Y-75059588D02*
X175680916Y-75107208D01*
X175680916Y-75107208D02*
X175585678Y-75154827D01*
X175585678Y-75154827D02*
X175347583Y-75154827D01*
X175347583Y-75154827D02*
X175252345Y-75107208D01*
X175252345Y-75107208D02*
X175204726Y-75059588D01*
X176061869Y-74154827D02*
X176395202Y-75154827D01*
X176395202Y-75154827D02*
X176728535Y-74154827D01*
X175133297Y-85159588D02*
X175085678Y-85207208D01*
X175085678Y-85207208D02*
X174942821Y-85254827D01*
X174942821Y-85254827D02*
X174847583Y-85254827D01*
X174847583Y-85254827D02*
X174704726Y-85207208D01*
X174704726Y-85207208D02*
X174609488Y-85111969D01*
X174609488Y-85111969D02*
X174561869Y-85016731D01*
X174561869Y-85016731D02*
X174514250Y-84826255D01*
X174514250Y-84826255D02*
X174514250Y-84683398D01*
X174514250Y-84683398D02*
X174561869Y-84492922D01*
X174561869Y-84492922D02*
X174609488Y-84397684D01*
X174609488Y-84397684D02*
X174704726Y-84302446D01*
X174704726Y-84302446D02*
X174847583Y-84254827D01*
X174847583Y-84254827D02*
X174942821Y-84254827D01*
X174942821Y-84254827D02*
X175085678Y-84302446D01*
X175085678Y-84302446D02*
X175133297Y-84350065D01*
X175514250Y-85207208D02*
X175657107Y-85254827D01*
X175657107Y-85254827D02*
X175895202Y-85254827D01*
X175895202Y-85254827D02*
X175990440Y-85207208D01*
X175990440Y-85207208D02*
X176038059Y-85159588D01*
X176038059Y-85159588D02*
X176085678Y-85064350D01*
X176085678Y-85064350D02*
X176085678Y-84969112D01*
X176085678Y-84969112D02*
X176038059Y-84873874D01*
X176038059Y-84873874D02*
X175990440Y-84826255D01*
X175990440Y-84826255D02*
X175895202Y-84778636D01*
X175895202Y-84778636D02*
X175704726Y-84731017D01*
X175704726Y-84731017D02*
X175609488Y-84683398D01*
X175609488Y-84683398D02*
X175561869Y-84635779D01*
X175561869Y-84635779D02*
X175514250Y-84540541D01*
X175514250Y-84540541D02*
X175514250Y-84445303D01*
X175514250Y-84445303D02*
X175561869Y-84350065D01*
X175561869Y-84350065D02*
X175609488Y-84302446D01*
X175609488Y-84302446D02*
X175704726Y-84254827D01*
X175704726Y-84254827D02*
X175942821Y-84254827D01*
X175942821Y-84254827D02*
X176085678Y-84302446D01*
X177502348Y-92254826D02*
X177169015Y-91778635D01*
X176930920Y-92254826D02*
X176930920Y-91254826D01*
X176930920Y-91254826D02*
X177311872Y-91254826D01*
X177311872Y-91254826D02*
X177407110Y-91302445D01*
X177407110Y-91302445D02*
X177454729Y-91350064D01*
X177454729Y-91350064D02*
X177502348Y-91445302D01*
X177502348Y-91445302D02*
X177502348Y-91588159D01*
X177502348Y-91588159D02*
X177454729Y-91683397D01*
X177454729Y-91683397D02*
X177407110Y-91731016D01*
X177407110Y-91731016D02*
X177311872Y-91778635D01*
X177311872Y-91778635D02*
X176930920Y-91778635D01*
X177883301Y-92207207D02*
X178026158Y-92254826D01*
X178026158Y-92254826D02*
X178264253Y-92254826D01*
X178264253Y-92254826D02*
X178359491Y-92207207D01*
X178359491Y-92207207D02*
X178407110Y-92159587D01*
X178407110Y-92159587D02*
X178454729Y-92064349D01*
X178454729Y-92064349D02*
X178454729Y-91969111D01*
X178454729Y-91969111D02*
X178407110Y-91873873D01*
X178407110Y-91873873D02*
X178359491Y-91826254D01*
X178359491Y-91826254D02*
X178264253Y-91778635D01*
X178264253Y-91778635D02*
X178073777Y-91731016D01*
X178073777Y-91731016D02*
X177978539Y-91683397D01*
X177978539Y-91683397D02*
X177930920Y-91635778D01*
X177930920Y-91635778D02*
X177883301Y-91540540D01*
X177883301Y-91540540D02*
X177883301Y-91445302D01*
X177883301Y-91445302D02*
X177930920Y-91350064D01*
X177930920Y-91350064D02*
X177978539Y-91302445D01*
X177978539Y-91302445D02*
X178073777Y-91254826D01*
X178073777Y-91254826D02*
X178311872Y-91254826D01*
X178311872Y-91254826D02*
X178454729Y-91302445D01*
X178740444Y-91254826D02*
X179311872Y-91254826D01*
X179026158Y-92254826D02*
X179026158Y-91254826D01*
X174538059Y-76702446D02*
X174442821Y-76654827D01*
X174442821Y-76654827D02*
X174299964Y-76654827D01*
X174299964Y-76654827D02*
X174157107Y-76702446D01*
X174157107Y-76702446D02*
X174061869Y-76797684D01*
X174061869Y-76797684D02*
X174014250Y-76892922D01*
X174014250Y-76892922D02*
X173966631Y-77083398D01*
X173966631Y-77083398D02*
X173966631Y-77226255D01*
X173966631Y-77226255D02*
X174014250Y-77416731D01*
X174014250Y-77416731D02*
X174061869Y-77511969D01*
X174061869Y-77511969D02*
X174157107Y-77607208D01*
X174157107Y-77607208D02*
X174299964Y-77654827D01*
X174299964Y-77654827D02*
X174395202Y-77654827D01*
X174395202Y-77654827D02*
X174538059Y-77607208D01*
X174538059Y-77607208D02*
X174585678Y-77559588D01*
X174585678Y-77559588D02*
X174585678Y-77226255D01*
X174585678Y-77226255D02*
X174395202Y-77226255D01*
X175014250Y-77654827D02*
X175014250Y-76654827D01*
X175014250Y-76654827D02*
X175585678Y-77654827D01*
X175585678Y-77654827D02*
X175585678Y-76654827D01*
X176061869Y-77654827D02*
X176061869Y-76654827D01*
X176061869Y-76654827D02*
X176299964Y-76654827D01*
X176299964Y-76654827D02*
X176442821Y-76702446D01*
X176442821Y-76702446D02*
X176538059Y-76797684D01*
X176538059Y-76797684D02*
X176585678Y-76892922D01*
X176585678Y-76892922D02*
X176633297Y-77083398D01*
X176633297Y-77083398D02*
X176633297Y-77226255D01*
X176633297Y-77226255D02*
X176585678Y-77416731D01*
X176585678Y-77416731D02*
X176538059Y-77511969D01*
X176538059Y-77511969D02*
X176442821Y-77607208D01*
X176442821Y-77607208D02*
X176299964Y-77654827D01*
X176299964Y-77654827D02*
X176061869Y-77654827D01*
X174538059Y-87854827D02*
X174538059Y-86854827D01*
X174538059Y-86854827D02*
X174776154Y-86854827D01*
X174776154Y-86854827D02*
X174919011Y-86902446D01*
X174919011Y-86902446D02*
X175014249Y-86997684D01*
X175014249Y-86997684D02*
X175061868Y-87092922D01*
X175061868Y-87092922D02*
X175109487Y-87283398D01*
X175109487Y-87283398D02*
X175109487Y-87426255D01*
X175109487Y-87426255D02*
X175061868Y-87616731D01*
X175061868Y-87616731D02*
X175014249Y-87711969D01*
X175014249Y-87711969D02*
X174919011Y-87807208D01*
X174919011Y-87807208D02*
X174776154Y-87854827D01*
X174776154Y-87854827D02*
X174538059Y-87854827D01*
X176109487Y-87759588D02*
X176061868Y-87807208D01*
X176061868Y-87807208D02*
X175919011Y-87854827D01*
X175919011Y-87854827D02*
X175823773Y-87854827D01*
X175823773Y-87854827D02*
X175680916Y-87807208D01*
X175680916Y-87807208D02*
X175585678Y-87711969D01*
X175585678Y-87711969D02*
X175538059Y-87616731D01*
X175538059Y-87616731D02*
X175490440Y-87426255D01*
X175490440Y-87426255D02*
X175490440Y-87283398D01*
X175490440Y-87283398D02*
X175538059Y-87092922D01*
X175538059Y-87092922D02*
X175585678Y-86997684D01*
X175585678Y-86997684D02*
X175680916Y-86902446D01*
X175680916Y-86902446D02*
X175823773Y-86854827D01*
X175823773Y-86854827D02*
X175919011Y-86854827D01*
X175919011Y-86854827D02*
X176061868Y-86902446D01*
X176061868Y-86902446D02*
X176109487Y-86950065D01*
X173728536Y-80254827D02*
X173728536Y-79254827D01*
X173728536Y-79254827D02*
X174061869Y-79969112D01*
X174061869Y-79969112D02*
X174395202Y-79254827D01*
X174395202Y-79254827D02*
X174395202Y-80254827D01*
X175061869Y-79254827D02*
X175252345Y-79254827D01*
X175252345Y-79254827D02*
X175347583Y-79302446D01*
X175347583Y-79302446D02*
X175442821Y-79397684D01*
X175442821Y-79397684D02*
X175490440Y-79588160D01*
X175490440Y-79588160D02*
X175490440Y-79921493D01*
X175490440Y-79921493D02*
X175442821Y-80111969D01*
X175442821Y-80111969D02*
X175347583Y-80207208D01*
X175347583Y-80207208D02*
X175252345Y-80254827D01*
X175252345Y-80254827D02*
X175061869Y-80254827D01*
X175061869Y-80254827D02*
X174966631Y-80207208D01*
X174966631Y-80207208D02*
X174871393Y-80111969D01*
X174871393Y-80111969D02*
X174823774Y-79921493D01*
X174823774Y-79921493D02*
X174823774Y-79588160D01*
X174823774Y-79588160D02*
X174871393Y-79397684D01*
X174871393Y-79397684D02*
X174966631Y-79302446D01*
X174966631Y-79302446D02*
X175061869Y-79254827D01*
X175871393Y-80207208D02*
X176014250Y-80254827D01*
X176014250Y-80254827D02*
X176252345Y-80254827D01*
X176252345Y-80254827D02*
X176347583Y-80207208D01*
X176347583Y-80207208D02*
X176395202Y-80159588D01*
X176395202Y-80159588D02*
X176442821Y-80064350D01*
X176442821Y-80064350D02*
X176442821Y-79969112D01*
X176442821Y-79969112D02*
X176395202Y-79873874D01*
X176395202Y-79873874D02*
X176347583Y-79826255D01*
X176347583Y-79826255D02*
X176252345Y-79778636D01*
X176252345Y-79778636D02*
X176061869Y-79731017D01*
X176061869Y-79731017D02*
X175966631Y-79683398D01*
X175966631Y-79683398D02*
X175919012Y-79635779D01*
X175919012Y-79635779D02*
X175871393Y-79540541D01*
X175871393Y-79540541D02*
X175871393Y-79445303D01*
X175871393Y-79445303D02*
X175919012Y-79350065D01*
X175919012Y-79350065D02*
X175966631Y-79302446D01*
X175966631Y-79302446D02*
X176061869Y-79254827D01*
X176061869Y-79254827D02*
X176299964Y-79254827D01*
X176299964Y-79254827D02*
X176442821Y-79302446D01*
X176871393Y-80254827D02*
X176871393Y-79254827D01*
D13*
%TO.C,SW67*%
X166552372Y-196406797D02*
X166666658Y-196444892D01*
X166666658Y-196444892D02*
X166857134Y-196444892D01*
X166857134Y-196444892D02*
X166933325Y-196406797D01*
X166933325Y-196406797D02*
X166971420Y-196368701D01*
X166971420Y-196368701D02*
X167009515Y-196292511D01*
X167009515Y-196292511D02*
X167009515Y-196216320D01*
X167009515Y-196216320D02*
X166971420Y-196140130D01*
X166971420Y-196140130D02*
X166933325Y-196102035D01*
X166933325Y-196102035D02*
X166857134Y-196063939D01*
X166857134Y-196063939D02*
X166704753Y-196025844D01*
X166704753Y-196025844D02*
X166628563Y-195987749D01*
X166628563Y-195987749D02*
X166590468Y-195949654D01*
X166590468Y-195949654D02*
X166552372Y-195873463D01*
X166552372Y-195873463D02*
X166552372Y-195797273D01*
X166552372Y-195797273D02*
X166590468Y-195721082D01*
X166590468Y-195721082D02*
X166628563Y-195682987D01*
X166628563Y-195682987D02*
X166704753Y-195644892D01*
X166704753Y-195644892D02*
X166895230Y-195644892D01*
X166895230Y-195644892D02*
X167009515Y-195682987D01*
X167276182Y-195644892D02*
X167466658Y-196444892D01*
X167466658Y-196444892D02*
X167619039Y-195873463D01*
X167619039Y-195873463D02*
X167771420Y-196444892D01*
X167771420Y-196444892D02*
X167961897Y-195644892D01*
X168609516Y-195644892D02*
X168457135Y-195644892D01*
X168457135Y-195644892D02*
X168380944Y-195682987D01*
X168380944Y-195682987D02*
X168342849Y-195721082D01*
X168342849Y-195721082D02*
X168266659Y-195835368D01*
X168266659Y-195835368D02*
X168228563Y-195987749D01*
X168228563Y-195987749D02*
X168228563Y-196292511D01*
X168228563Y-196292511D02*
X168266659Y-196368701D01*
X168266659Y-196368701D02*
X168304754Y-196406797D01*
X168304754Y-196406797D02*
X168380944Y-196444892D01*
X168380944Y-196444892D02*
X168533325Y-196444892D01*
X168533325Y-196444892D02*
X168609516Y-196406797D01*
X168609516Y-196406797D02*
X168647611Y-196368701D01*
X168647611Y-196368701D02*
X168685706Y-196292511D01*
X168685706Y-196292511D02*
X168685706Y-196102035D01*
X168685706Y-196102035D02*
X168647611Y-196025844D01*
X168647611Y-196025844D02*
X168609516Y-195987749D01*
X168609516Y-195987749D02*
X168533325Y-195949654D01*
X168533325Y-195949654D02*
X168380944Y-195949654D01*
X168380944Y-195949654D02*
X168304754Y-195987749D01*
X168304754Y-195987749D02*
X168266659Y-196025844D01*
X168266659Y-196025844D02*
X168228563Y-196102035D01*
X168952373Y-195644892D02*
X169485707Y-195644892D01*
X169485707Y-195644892D02*
X169142849Y-196444892D01*
D11*
%TO.C,H12*%
X173761896Y-202254828D02*
X173761896Y-201254828D01*
X173761896Y-201731018D02*
X174333324Y-201731018D01*
X174333324Y-202254828D02*
X174333324Y-201254828D01*
X175333324Y-202254828D02*
X174761896Y-202254828D01*
X175047610Y-202254828D02*
X175047610Y-201254828D01*
X175047610Y-201254828D02*
X174952372Y-201397685D01*
X174952372Y-201397685D02*
X174857134Y-201492923D01*
X174857134Y-201492923D02*
X174761896Y-201540542D01*
X175714277Y-201350066D02*
X175761896Y-201302447D01*
X175761896Y-201302447D02*
X175857134Y-201254828D01*
X175857134Y-201254828D02*
X176095229Y-201254828D01*
X176095229Y-201254828D02*
X176190467Y-201302447D01*
X176190467Y-201302447D02*
X176238086Y-201350066D01*
X176238086Y-201350066D02*
X176285705Y-201445304D01*
X176285705Y-201445304D02*
X176285705Y-201540542D01*
X176285705Y-201540542D02*
X176238086Y-201683399D01*
X176238086Y-201683399D02*
X175666658Y-202254828D01*
X175666658Y-202254828D02*
X176285705Y-202254828D01*
D13*
%TO.C,SW65*%
X218299964Y-143000009D02*
G75*
G03*
X218299964Y-143000009I-20300000J0D01*
G01*
X226249964Y-143000009D02*
G75*
G03*
X226249964Y-143000009I-28250000J0D01*
G01*
D10*
%TO.C,SW66*%
X220999991Y-200099997D02*
X221499991Y-200099997D01*
X220999991Y-200999997D02*
X220999991Y-200099997D01*
X223899991Y-201999997D02*
X223899991Y-207999997D01*
X221499991Y-209899997D02*
X220999991Y-209899997D01*
X220999991Y-209899997D02*
X220999991Y-208999997D01*
%TO.C,J4*%
X175749964Y-63700008D02*
X175749964Y-73600008D01*
X175749964Y-90800008D02*
X175749964Y-100700008D01*
X175749964Y-100700008D02*
X220249964Y-100700008D01*
X220249964Y-63700008D02*
X175749964Y-63700008D01*
X220249964Y-100700008D02*
X220249964Y-63700008D01*
D14*
%TO.C,SW67*%
X165099992Y-209479997D02*
X165099992Y-196679997D01*
X170899992Y-209479997D02*
X165099992Y-209479997D01*
X165099992Y-196679997D02*
X170899992Y-196679997D01*
X170899992Y-196679997D02*
X170899992Y-209479997D01*
D15*
X168099992Y-210079997D02*
G75*
G03*
X168099992Y-210079997I-100000J0D01*
G01*
D10*
%TO.C,SW25*%
X131884358Y-163474348D02*
X144008714Y-170474348D01*
X144008714Y-170474348D02*
X137008714Y-182598704D01*
X137008714Y-182598704D02*
X124884358Y-175598704D01*
X124884358Y-175598704D02*
X131884358Y-163474348D01*
%TO.C,SW30*%
X151403323Y-176148415D02*
X161302818Y-186047910D01*
X161302818Y-186047910D02*
X151403323Y-195947405D01*
X151403323Y-195947405D02*
X141503828Y-186047910D01*
X141503828Y-186047910D02*
X151403323Y-176148415D01*
%TO.C,SW1*%
X61386013Y-66902047D02*
X74908974Y-70525514D01*
X74908974Y-70525514D02*
X71285507Y-84048475D01*
X71285507Y-84048475D02*
X57762546Y-80425008D01*
X57762546Y-80425008D02*
X61386013Y-66902047D01*
%TO.C,SW24*%
X122046989Y-134926393D02*
X135569950Y-138549860D01*
X135569950Y-138549860D02*
X131946483Y-152072821D01*
X131946483Y-152072821D02*
X118423522Y-148449354D01*
X118423522Y-148449354D02*
X122046989Y-134926393D01*
%TO.C,SW29*%
X139626112Y-142923734D02*
X153149073Y-146547201D01*
X153149073Y-146547201D02*
X149525606Y-160070162D01*
X149525606Y-160070162D02*
X136002645Y-156446695D01*
X136002645Y-156446695D02*
X139626112Y-142923734D01*
%TO.C,SW14*%
X85245208Y-125065399D02*
X98768169Y-128688866D01*
X98768169Y-128688866D02*
X95144702Y-142211827D01*
X95144702Y-142211827D02*
X81621741Y-138588360D01*
X81621741Y-138588360D02*
X85245208Y-125065399D01*
%TO.C,SW19*%
X104673281Y-126162361D02*
X118196242Y-129785828D01*
X118196242Y-129785828D02*
X114572775Y-143308789D01*
X114572775Y-143308789D02*
X101049814Y-139685322D01*
X101049814Y-139685322D02*
X104673281Y-126162361D01*
%TO.C,SW5*%
X41663994Y-140505605D02*
X55186955Y-144129072D01*
X55186955Y-144129072D02*
X51563488Y-157652033D01*
X51563488Y-157652033D02*
X38040527Y-154028566D01*
X38040527Y-154028566D02*
X41663994Y-140505605D01*
%TO.C,SW22*%
X131907977Y-98124613D02*
X145430938Y-101748080D01*
X145430938Y-101748080D02*
X141807471Y-115271041D01*
X141807471Y-115271041D02*
X128284510Y-111647574D01*
X128284510Y-111647574D02*
X131907977Y-98124613D01*
%TO.C,SW27*%
X149487120Y-106121952D02*
X163010081Y-109745419D01*
X163010081Y-109745419D02*
X159386614Y-123268380D01*
X159386614Y-123268380D02*
X145863653Y-119644913D01*
X145863653Y-119644913D02*
X149487120Y-106121952D01*
%TO.C,SW3*%
X51524985Y-103703836D02*
X65047946Y-107327303D01*
X65047946Y-107327303D02*
X61424479Y-120850264D01*
X61424479Y-120850264D02*
X47901518Y-117226797D01*
X47901518Y-117226797D02*
X51524985Y-103703836D01*
%TO.C,SW8*%
X70542196Y-106334207D02*
X84065157Y-109957674D01*
X84065157Y-109957674D02*
X80441690Y-123480635D01*
X80441690Y-123480635D02*
X66918729Y-119857168D01*
X66918729Y-119857168D02*
X70542196Y-106334207D01*
%TO.C,SW13*%
X90175708Y-106664500D02*
X103698669Y-110287967D01*
X103698669Y-110287967D02*
X100075202Y-123810928D01*
X100075202Y-123810928D02*
X86552241Y-120187461D01*
X86552241Y-120187461D02*
X90175708Y-106664500D01*
%TO.C,SW23*%
X126977494Y-116525529D02*
X140500455Y-120148996D01*
X140500455Y-120148996D02*
X136876988Y-133671957D01*
X136876988Y-133671957D02*
X123354027Y-130048490D01*
X123354027Y-130048490D02*
X126977494Y-116525529D01*
%TO.C,SW18*%
X109603762Y-107761481D02*
X123126723Y-111384948D01*
X123126723Y-111384948D02*
X119503256Y-124907909D01*
X119503256Y-124907909D02*
X105980295Y-121284442D01*
X105980295Y-121284442D02*
X109603762Y-107761481D01*
%TO.C,SW28*%
X144556609Y-124522832D02*
X158079570Y-128146299D01*
X158079570Y-128146299D02*
X154456103Y-141669260D01*
X154456103Y-141669260D02*
X140933142Y-138045793D01*
X140933142Y-138045793D02*
X144556609Y-124522832D01*
%TO.C,SW4*%
X46594502Y-122104730D02*
X60117463Y-125728197D01*
X60117463Y-125728197D02*
X56493996Y-139251158D01*
X56493996Y-139251158D02*
X42971035Y-135627691D01*
X42971035Y-135627691D02*
X46594502Y-122104730D01*
%TO.C,SW9*%
X65611676Y-124735114D02*
X79134637Y-128358581D01*
X79134637Y-128358581D02*
X75511170Y-141881542D01*
X75511170Y-141881542D02*
X61988209Y-138258075D01*
X61988209Y-138258075D02*
X65611676Y-124735114D01*
%TO.C,SW10*%
X60681193Y-143136003D02*
X74204154Y-146759470D01*
X74204154Y-146759470D02*
X70580687Y-160282431D01*
X70580687Y-160282431D02*
X57057726Y-156658964D01*
X57057726Y-156658964D02*
X60681193Y-143136003D01*
%TO.C,SW15*%
X80314697Y-143466263D02*
X93837658Y-147089730D01*
X93837658Y-147089730D02*
X90214191Y-160612691D01*
X90214191Y-160612691D02*
X76691230Y-156989224D01*
X76691230Y-156989224D02*
X80314697Y-143466263D01*
%TO.C,SW20*%
X109750205Y-156283998D02*
X123273166Y-159907465D01*
X123273166Y-159907465D02*
X119649699Y-173430426D01*
X119649699Y-173430426D02*
X106126738Y-169806959D01*
X106126738Y-169806959D02*
X109750205Y-156283998D01*
%TO.C,SW11*%
X100036714Y-69862753D02*
X113559675Y-73486220D01*
X113559675Y-73486220D02*
X109936208Y-87009181D01*
X109936208Y-87009181D02*
X96413247Y-83385714D01*
X96413247Y-83385714D02*
X100036714Y-69862753D01*
%TO.C,SW2*%
X56455504Y-85302951D02*
X69978465Y-88926418D01*
X69978465Y-88926418D02*
X66354998Y-102449379D01*
X66354998Y-102449379D02*
X52832037Y-98825912D01*
X52832037Y-98825912D02*
X56455504Y-85302951D01*
%TO.C,SW12*%
X95106204Y-88263605D02*
X108629165Y-91887072D01*
X108629165Y-91887072D02*
X105005698Y-105410033D01*
X105005698Y-105410033D02*
X91482737Y-101786566D01*
X91482737Y-101786566D02*
X95106204Y-88263605D01*
%TO.C,SW21*%
X136838487Y-79723722D02*
X150361448Y-83347189D01*
X150361448Y-83347189D02*
X146737981Y-96870150D01*
X146737981Y-96870150D02*
X133215020Y-93246683D01*
X133215020Y-93246683D02*
X136838487Y-79723722D01*
%TO.C,SW17*%
X114534283Y-89360616D02*
X128057244Y-92984083D01*
X128057244Y-92984083D02*
X124433777Y-106507044D01*
X124433777Y-106507044D02*
X110910816Y-102883577D01*
X110910816Y-102883577D02*
X114534283Y-89360616D01*
%TO.C,SW16*%
X119464783Y-70959705D02*
X132987744Y-74583172D01*
X132987744Y-74583172D02*
X129364277Y-88106133D01*
X129364277Y-88106133D02*
X115841316Y-84482666D01*
X115841316Y-84482666D02*
X119464783Y-70959705D01*
%TO.C,SW6*%
X80403204Y-69532453D02*
X93926165Y-73155920D01*
X93926165Y-73155920D02*
X90302698Y-86678881D01*
X90302698Y-86678881D02*
X76779737Y-83055414D01*
X76779737Y-83055414D02*
X80403204Y-69532453D01*
%TO.C,SW7*%
X75472697Y-87933338D02*
X88995658Y-91556805D01*
X88995658Y-91556805D02*
X85372191Y-105079766D01*
X85372191Y-105079766D02*
X71849230Y-101456299D01*
X71849230Y-101456299D02*
X75472697Y-87933338D01*
%TO.C,SW26*%
X154417618Y-87721056D02*
X167940579Y-91344523D01*
X167940579Y-91344523D02*
X164317112Y-104867484D01*
X164317112Y-104867484D02*
X150794151Y-101244017D01*
X150794151Y-101244017D02*
X154417618Y-87721056D01*
%TO.C,SW31*%
X228059379Y-91344538D02*
X241582340Y-87721071D01*
X241582340Y-87721071D02*
X245205807Y-101244032D01*
X245205807Y-101244032D02*
X231682846Y-104867499D01*
X231682846Y-104867499D02*
X228059379Y-91344538D01*
%TO.C,SW62*%
X190999969Y-179000009D02*
X204999969Y-179000009D01*
X204999969Y-179000009D02*
X204999969Y-193000009D01*
X204999969Y-193000009D02*
X190999969Y-193000009D01*
X190999969Y-193000009D02*
X190999969Y-179000009D01*
%TO.C,SW45*%
X272726783Y-159907468D02*
X286249744Y-156284001D01*
X286249744Y-156284001D02*
X289873211Y-169806962D01*
X289873211Y-169806962D02*
X276350250Y-173430429D01*
X276350250Y-173430429D02*
X272726783Y-159907468D01*
%TO.C,SW49*%
X297231795Y-128688882D02*
X310754756Y-125065415D01*
X310754756Y-125065415D02*
X314378223Y-138588376D01*
X314378223Y-138588376D02*
X300855262Y-142211843D01*
X300855262Y-142211843D02*
X297231795Y-128688882D01*
%TO.C,SW47*%
X287370792Y-91887097D02*
X300893753Y-88263630D01*
X300893753Y-88263630D02*
X304517220Y-101786591D01*
X304517220Y-101786591D02*
X290994259Y-105410058D01*
X290994259Y-105410058D02*
X287370792Y-91887097D01*
%TO.C,SW63*%
X210974177Y-177399226D02*
X223098533Y-170399226D01*
X223098533Y-170399226D02*
X230098533Y-182523582D01*
X230098533Y-182523582D02*
X217974177Y-189523582D01*
X217974177Y-189523582D02*
X210974177Y-177399226D01*
%TO.C,SW61*%
X172901396Y-170399228D02*
X185025752Y-177399228D01*
X185025752Y-177399228D02*
X178025752Y-189523584D01*
X178025752Y-189523584D02*
X165901396Y-182523584D01*
X165901396Y-182523584D02*
X172901396Y-170399228D01*
%TO.C,SW33*%
X237920376Y-128146292D02*
X251443337Y-124522825D01*
X251443337Y-124522825D02*
X255066804Y-138045786D01*
X255066804Y-138045786D02*
X241543843Y-141669253D01*
X241543843Y-141669253D02*
X237920376Y-128146292D01*
%TO.C,SW59*%
X335882496Y-125728193D02*
X349405457Y-122104726D01*
X349405457Y-122104726D02*
X353028924Y-135627687D01*
X353028924Y-135627687D02*
X339505963Y-139251154D01*
X339505963Y-139251154D02*
X335882496Y-125728193D01*
%TO.C,SW38*%
X255499525Y-120148991D02*
X269022486Y-116525524D01*
X269022486Y-116525524D02*
X272645953Y-130048485D01*
X272645953Y-130048485D02*
X259122992Y-133671952D01*
X259122992Y-133671952D02*
X255499525Y-120148991D01*
%TO.C,SW50*%
X302162292Y-147089757D02*
X315685253Y-143466290D01*
X315685253Y-143466290D02*
X319308720Y-156989251D01*
X319308720Y-156989251D02*
X305785759Y-160612718D01*
X305785759Y-160612718D02*
X302162292Y-147089757D01*
%TO.C,SW58*%
X330951993Y-107327290D02*
X344474954Y-103703823D01*
X344474954Y-103703823D02*
X348098421Y-117226784D01*
X348098421Y-117226784D02*
X334575460Y-120850251D01*
X334575460Y-120850251D02*
X330951993Y-107327290D01*
%TO.C,SW43*%
X272873199Y-111384952D02*
X286396160Y-107761485D01*
X286396160Y-107761485D02*
X290019627Y-121284446D01*
X290019627Y-121284446D02*
X276496666Y-124907913D01*
X276496666Y-124907913D02*
X272873199Y-111384952D01*
%TO.C,SW57*%
X326021487Y-88926406D02*
X339544448Y-85302939D01*
X339544448Y-85302939D02*
X343167915Y-98825900D01*
X343167915Y-98825900D02*
X329644954Y-102449367D01*
X329644954Y-102449367D02*
X326021487Y-88926406D01*
%TO.C,SW52*%
X307004304Y-91556802D02*
X320527265Y-87933335D01*
X320527265Y-87933335D02*
X324150732Y-101456296D01*
X324150732Y-101456296D02*
X310627771Y-105079763D01*
X310627771Y-105079763D02*
X307004304Y-91556802D01*
%TO.C,SW44*%
X277803720Y-129785828D02*
X291326681Y-126162361D01*
X291326681Y-126162361D02*
X294950148Y-139685322D01*
X294950148Y-139685322D02*
X281427187Y-143308789D01*
X281427187Y-143308789D02*
X277803720Y-129785828D01*
%TO.C,SW41*%
X263012209Y-74583181D02*
X276535170Y-70959714D01*
X276535170Y-70959714D02*
X280158637Y-84482675D01*
X280158637Y-84482675D02*
X266635676Y-88106142D01*
X266635676Y-88106142D02*
X263012209Y-74583181D01*
%TO.C,SW40*%
X251991229Y-170474335D02*
X264115585Y-163474335D01*
X264115585Y-163474335D02*
X271115585Y-175598691D01*
X271115585Y-175598691D02*
X258991229Y-182598691D01*
X258991229Y-182598691D02*
X251991229Y-170474335D01*
%TO.C,SW46*%
X282440277Y-73486218D02*
X295963238Y-69862751D01*
X295963238Y-69862751D02*
X299586705Y-83385712D01*
X299586705Y-83385712D02*
X286063744Y-87009179D01*
X286063744Y-87009179D02*
X282440277Y-73486218D01*
%TO.C,SW51*%
X302073798Y-73155928D02*
X315596759Y-69532461D01*
X315596759Y-69532461D02*
X319220226Y-83055422D01*
X319220226Y-83055422D02*
X305697265Y-86678889D01*
X305697265Y-86678889D02*
X302073798Y-73155928D01*
%TO.C,SW60*%
X340812996Y-144129071D02*
X354335957Y-140505604D01*
X354335957Y-140505604D02*
X357959424Y-154028565D01*
X357959424Y-154028565D02*
X344436463Y-157652032D01*
X344436463Y-157652032D02*
X340812996Y-144129071D01*
%TO.C,SW37*%
X250569028Y-101748109D02*
X264091989Y-98124642D01*
X264091989Y-98124642D02*
X267715456Y-111647603D01*
X267715456Y-111647603D02*
X254192495Y-115271070D01*
X254192495Y-115271070D02*
X250569028Y-101748109D01*
%TO.C,SW54*%
X316865313Y-128358582D02*
X330388274Y-124735115D01*
X330388274Y-124735115D02*
X334011741Y-138258076D01*
X334011741Y-138258076D02*
X320488780Y-141881543D01*
X320488780Y-141881543D02*
X316865313Y-128358582D01*
%TO.C,SW55*%
X321795811Y-146759477D02*
X335318772Y-143136010D01*
X335318772Y-143136010D02*
X338942239Y-156658971D01*
X338942239Y-156658971D02*
X325419278Y-160282438D01*
X325419278Y-160282438D02*
X321795811Y-146759477D01*
%TO.C,SW48*%
X292301288Y-110287980D02*
X305824249Y-106664513D01*
X305824249Y-106664513D02*
X309447716Y-120187474D01*
X309447716Y-120187474D02*
X295924755Y-123810941D01*
X295924755Y-123810941D02*
X292301288Y-110287980D01*
%TO.C,SW53*%
X311934809Y-109957689D02*
X325457770Y-106334222D01*
X325457770Y-106334222D02*
X329081237Y-119857183D01*
X329081237Y-119857183D02*
X315558276Y-123480650D01*
X315558276Y-123480650D02*
X311934809Y-109957689D01*
%TO.C,SW35*%
X234697139Y-186047910D02*
X244596634Y-176148415D01*
X244596634Y-176148415D02*
X254496129Y-186047910D01*
X254496129Y-186047910D02*
X244596634Y-195947405D01*
X244596634Y-195947405D02*
X234697139Y-186047910D01*
%TO.C,SW34*%
X242850881Y-146547185D02*
X256373842Y-142923718D01*
X256373842Y-142923718D02*
X259997309Y-156446679D01*
X259997309Y-156446679D02*
X246474348Y-160070146D01*
X246474348Y-160070146D02*
X242850881Y-146547185D01*
%TO.C,SW42*%
X267942704Y-92984069D02*
X281465665Y-89360602D01*
X281465665Y-89360602D02*
X285089132Y-102883563D01*
X285089132Y-102883563D02*
X271566171Y-106507030D01*
X271566171Y-106507030D02*
X267942704Y-92984069D01*
%TO.C,SW56*%
X321090997Y-70525527D02*
X334613958Y-66902060D01*
X334613958Y-66902060D02*
X338237425Y-80425021D01*
X338237425Y-80425021D02*
X324714464Y-84048488D01*
X324714464Y-84048488D02*
X321090997Y-70525527D01*
%TO.C,SW64*%
X190999991Y-198049997D02*
X204999991Y-198049997D01*
X204999991Y-198049997D02*
X204999991Y-212049997D01*
X204999991Y-212049997D02*
X190999991Y-212049997D01*
X190999991Y-212049997D02*
X190999991Y-198049997D01*
%TO.C,SW36*%
X245638505Y-83347222D02*
X259161466Y-79723755D01*
X259161466Y-79723755D02*
X262784933Y-93246716D01*
X262784933Y-93246716D02*
X249261972Y-96870183D01*
X249261972Y-96870183D02*
X245638505Y-83347222D01*
%TO.C,SW39*%
X260430019Y-138549878D02*
X273952980Y-134926411D01*
X273952980Y-134926411D02*
X277576447Y-148449372D01*
X277576447Y-148449372D02*
X264053486Y-152072839D01*
X264053486Y-152072839D02*
X260430019Y-138549878D01*
%TO.C,SW32*%
X232989877Y-109745420D02*
X246512838Y-106121953D01*
X246512838Y-106121953D02*
X250136305Y-119644914D01*
X250136305Y-119644914D02*
X236613344Y-123268381D01*
X236613344Y-123268381D02*
X232989877Y-109745420D01*
%TD*%
%LPC*%
%TO.C,A1*%
G36*
X188263302Y-107984669D02*
G01*
X188228435Y-108135672D01*
X188093969Y-108154003D01*
X187884898Y-108061068D01*
X187924635Y-107984669D01*
X188226074Y-107954270D01*
X188263302Y-107984669D01*
G37*
G36*
X188517302Y-106714669D02*
G01*
X188547701Y-107016108D01*
X188517302Y-107053336D01*
X188366299Y-107018469D01*
X188347969Y-106884003D01*
X188440903Y-106674932D01*
X188517302Y-106714669D01*
G37*
G36*
X185299969Y-109043003D02*
G01*
X185542280Y-109271249D01*
X185553969Y-109311993D01*
X185357451Y-109421090D01*
X185299969Y-109424003D01*
X185055729Y-109228739D01*
X185045969Y-109155012D01*
X185201578Y-109003314D01*
X185299969Y-109043003D01*
G37*
G36*
X187058399Y-108038613D02*
G01*
X187077969Y-108124022D01*
X186892611Y-108483096D01*
X186823969Y-108535003D01*
X186589538Y-108523392D01*
X186569969Y-108437983D01*
X186755326Y-108078909D01*
X186823969Y-108027003D01*
X187058399Y-108038613D01*
G37*
G36*
X189530657Y-106023612D02*
G01*
X189490969Y-106122003D01*
X189262722Y-106364314D01*
X189221978Y-106376003D01*
X189112881Y-106179485D01*
X189109969Y-106122003D01*
X189305232Y-105877763D01*
X189378959Y-105868003D01*
X189530657Y-106023612D01*
G37*
G36*
X194436588Y-106315290D02*
G01*
X194443969Y-106376003D01*
X194250681Y-106622622D01*
X194189969Y-106630003D01*
X193943349Y-106436715D01*
X193935969Y-106376003D01*
X194129256Y-106129383D01*
X194189969Y-106122003D01*
X194436588Y-106315290D01*
G37*
G36*
X190887969Y-104151363D02*
G01*
X191218773Y-104460026D01*
X191355308Y-105209283D01*
X191295426Y-106369460D01*
X191127061Y-107455547D01*
X190963135Y-108518772D01*
X190949432Y-109244208D01*
X191084411Y-109778871D01*
X191102298Y-109819369D01*
X191404439Y-110281187D01*
X191650819Y-110263844D01*
X191822640Y-109794830D01*
X191901102Y-108901640D01*
X191903969Y-108647012D01*
X191942870Y-107841376D01*
X192044309Y-107295838D01*
X192157969Y-107138003D01*
X192404647Y-107325458D01*
X192411969Y-107384031D01*
X192597546Y-107550510D01*
X192729469Y-107532246D01*
X193619002Y-107280263D01*
X194134226Y-107236741D01*
X194380468Y-107442776D01*
X194463057Y-107939462D01*
X194473433Y-108212663D01*
X194514231Y-108750467D01*
X194584718Y-108895073D01*
X194626655Y-108789003D01*
X195006672Y-107965301D01*
X195572690Y-107527090D01*
X196212884Y-107448321D01*
X196815426Y-107702949D01*
X197268490Y-108264926D01*
X197460251Y-109108207D01*
X197446917Y-109445898D01*
X197478532Y-110082355D01*
X197682469Y-110372493D01*
X197877146Y-110277947D01*
X197977669Y-109784658D01*
X197999969Y-109079159D01*
X198064859Y-108085586D01*
X198268324Y-107567786D01*
X198623556Y-107509246D01*
X199031974Y-107787487D01*
X199426538Y-108086159D01*
X199732186Y-108024910D01*
X200015963Y-107787487D01*
X200507315Y-107486510D01*
X200838998Y-107636089D01*
X201024721Y-108251835D01*
X201075798Y-108994493D01*
X201103628Y-110313003D01*
X201321177Y-109206416D01*
X201426855Y-108829040D01*
X202063969Y-108829040D01*
X202164401Y-109055735D01*
X202539325Y-108933406D01*
X202557822Y-108923573D01*
X203021098Y-108609378D01*
X203196966Y-108424188D01*
X203161884Y-108100586D01*
X203072985Y-108022687D01*
X202676409Y-108025999D01*
X202273721Y-108332151D01*
X202066236Y-108780263D01*
X202063969Y-108829040D01*
X201426855Y-108829040D01*
X201605543Y-108190942D01*
X201999262Y-107610899D01*
X202554213Y-107396979D01*
X202679269Y-107392002D01*
X203408900Y-107555158D01*
X203769645Y-107972144D01*
X203748454Y-108534240D01*
X203332279Y-109132724D01*
X202925213Y-109441156D01*
X202377635Y-109814358D01*
X202226520Y-110048896D01*
X202414910Y-110235178D01*
X202422338Y-110239362D01*
X203095879Y-110358675D01*
X203751825Y-110043165D01*
X204197735Y-109469502D01*
X204408376Y-108742167D01*
X204452729Y-107655272D01*
X204418834Y-107003597D01*
X204383324Y-106249003D01*
X204922023Y-106249003D01*
X204942468Y-106771756D01*
X205000028Y-106906679D01*
X205032487Y-106823464D01*
X205079798Y-106213500D01*
X205037613Y-105807464D01*
X204970702Y-105666689D01*
X204928612Y-105971983D01*
X204922023Y-106249003D01*
X204383324Y-106249003D01*
X204371475Y-105997207D01*
X204418677Y-105370798D01*
X204576029Y-105002530D01*
X204689726Y-104886230D01*
X205129520Y-104684637D01*
X205354842Y-104718126D01*
X205523788Y-105077405D01*
X205599931Y-105794948D01*
X205583217Y-106729557D01*
X205473593Y-107740036D01*
X205356216Y-108354579D01*
X205227322Y-109357535D01*
X205369296Y-110000749D01*
X205764579Y-110249575D01*
X206259810Y-110137580D01*
X206779612Y-109822776D01*
X206826405Y-109510180D01*
X206508968Y-109170002D01*
X206160416Y-108675497D01*
X206230432Y-108409587D01*
X206868812Y-108409587D01*
X206980366Y-108872289D01*
X207299081Y-109363499D01*
X207750787Y-109879002D01*
X208095386Y-110165296D01*
X208159969Y-110186003D01*
X208439136Y-110003219D01*
X208872002Y-109546712D01*
X209020856Y-109363499D01*
X209399432Y-108735825D01*
X209426346Y-108335765D01*
X209124913Y-108232773D01*
X208695238Y-108393408D01*
X208070841Y-108547926D01*
X207624699Y-108393408D01*
X207091360Y-108226809D01*
X206868812Y-108409587D01*
X206230432Y-108409587D01*
X206300565Y-108143229D01*
X206635968Y-107773003D01*
X207035325Y-107464498D01*
X207336569Y-107510769D01*
X207651969Y-107773002D01*
X208049080Y-108079947D01*
X208349910Y-108036120D01*
X208676933Y-107764890D01*
X209064079Y-107461675D01*
X209352434Y-107493170D01*
X209740569Y-107843714D01*
X210102249Y-108289373D01*
X210106569Y-108685610D01*
X209955645Y-109009974D01*
X209770078Y-109627794D01*
X209901475Y-110063537D01*
X210206959Y-110186003D01*
X210339059Y-109956592D01*
X210425861Y-109365952D01*
X210445969Y-108818447D01*
X210445968Y-107450892D01*
X211613273Y-107490184D01*
X212578168Y-107631795D01*
X213110151Y-107980194D01*
X213335997Y-108472063D01*
X213531231Y-109195163D01*
X213663373Y-109965715D01*
X213699947Y-110599936D01*
X213626212Y-110900426D01*
X213389971Y-110888170D01*
X213160531Y-110518664D01*
X213011357Y-109938265D01*
X212989858Y-109632645D01*
X212811074Y-108914832D01*
X212373637Y-108364241D01*
X211833762Y-108154003D01*
X211415034Y-108381002D01*
X211092316Y-108954104D01*
X210954426Y-109711460D01*
X210953969Y-109757203D01*
X210804341Y-110371264D01*
X210568204Y-110697957D01*
X210203219Y-110872071D01*
X209807961Y-110674277D01*
X209679204Y-110562691D01*
X209281301Y-110257079D01*
X208978838Y-110307720D01*
X208672733Y-110562691D01*
X208239950Y-110859148D01*
X207890365Y-110778650D01*
X207775496Y-110691121D01*
X207419093Y-110507611D01*
X206926259Y-110537947D01*
X206343780Y-110706606D01*
X205666546Y-110900483D01*
X205287586Y-110893582D01*
X205035191Y-110677952D01*
X205010500Y-110644874D01*
X204734595Y-110388047D01*
X204369453Y-110435565D01*
X204047060Y-110590600D01*
X203359012Y-110795251D01*
X202417007Y-110884160D01*
X202026304Y-110879464D01*
X201217069Y-110812288D01*
X200788959Y-110671380D01*
X200615648Y-110406563D01*
X200596806Y-110311697D01*
X200424095Y-109366959D01*
X200251552Y-108873893D01*
X200058110Y-108776614D01*
X200024522Y-108793605D01*
X199866987Y-109123449D01*
X199782504Y-109753150D01*
X199777969Y-109946993D01*
X199720847Y-110577654D01*
X199578390Y-110924716D01*
X199523969Y-110948003D01*
X199363942Y-110722887D01*
X199275877Y-110161467D01*
X199269969Y-109946993D01*
X199212707Y-109272010D01*
X199070469Y-108841101D01*
X199023415Y-108793605D01*
X198823993Y-108835142D01*
X198648961Y-109266421D01*
X198477659Y-110142315D01*
X198451374Y-110313003D01*
X198314725Y-110629586D01*
X197941038Y-110798300D01*
X197200229Y-110874633D01*
X197126385Y-110878174D01*
X196321474Y-110854807D01*
X195698480Y-110730535D01*
X195522510Y-110640507D01*
X195169116Y-110489157D01*
X194943187Y-110708212D01*
X194651464Y-110926009D01*
X194371135Y-110693939D01*
X194138028Y-110069547D01*
X193994804Y-109184954D01*
X193966869Y-108986527D01*
X195265981Y-108986527D01*
X195425960Y-109590554D01*
X195767534Y-110054962D01*
X196094969Y-110186003D01*
X196476562Y-109977046D01*
X196785172Y-109531277D01*
X196922218Y-108821904D01*
X196696197Y-108275703D01*
X196170040Y-108029826D01*
X196094969Y-108027003D01*
X195589140Y-108223991D01*
X195374393Y-108451777D01*
X195265981Y-108986527D01*
X193966869Y-108986527D01*
X193884870Y-108404076D01*
X193713665Y-108014795D01*
X193426362Y-107900749D01*
X193389366Y-107900003D01*
X192931843Y-108133235D01*
X192591428Y-108757853D01*
X192421647Y-109661237D01*
X192411969Y-109956510D01*
X192266855Y-110629889D01*
X191903694Y-110933016D01*
X191430755Y-110884971D01*
X190956309Y-110504835D01*
X190588626Y-109811691D01*
X190534467Y-109625622D01*
X190307965Y-108734006D01*
X189305481Y-109736490D01*
X187884337Y-110863942D01*
X186335141Y-111511948D01*
X184756608Y-111704424D01*
X183701941Y-111636153D01*
X182983718Y-111397024D01*
X182724608Y-111220032D01*
X182395666Y-110841988D01*
X182837265Y-110841988D01*
X183266811Y-111114335D01*
X183331469Y-111145997D01*
X184465064Y-111418079D01*
X185858257Y-111278616D01*
X186646081Y-111053048D01*
X187681436Y-110533912D01*
X188752647Y-109724631D01*
X189732209Y-108750819D01*
X190492616Y-107738090D01*
X190891616Y-106870456D01*
X191078585Y-105841392D01*
X191057482Y-105013433D01*
X190837630Y-104498683D01*
X190686390Y-104402231D01*
X190470654Y-104464024D01*
X190514198Y-104917372D01*
X190514865Y-104920034D01*
X190539117Y-105840871D01*
X190264717Y-106922664D01*
X189754495Y-107969444D01*
X189370769Y-108488451D01*
X188713709Y-109095740D01*
X187842049Y-109728079D01*
X187326861Y-110037267D01*
X186497790Y-110443516D01*
X185789176Y-110638808D01*
X184954270Y-110674312D01*
X184388372Y-110646616D01*
X183386700Y-110613488D01*
X182873446Y-110676825D01*
X182837265Y-110841988D01*
X182395666Y-110841988D01*
X182327858Y-110764058D01*
X182378969Y-110477963D01*
X182593479Y-110286255D01*
X183452888Y-110286255D01*
X183910881Y-110445964D01*
X184684068Y-110444011D01*
X185613455Y-110300971D01*
X186540048Y-110037419D01*
X187045778Y-109821315D01*
X188350702Y-108957828D01*
X189383842Y-107870115D01*
X190037908Y-106676317D01*
X190110696Y-106446445D01*
X190335661Y-105484803D01*
X190351047Y-104964695D01*
X190228239Y-104852002D01*
X189979268Y-105000019D01*
X189420965Y-105401181D01*
X188640574Y-105991159D01*
X187878739Y-106584415D01*
X186829661Y-107408405D01*
X185785843Y-108223248D01*
X184897280Y-108912078D01*
X184490054Y-109224668D01*
X183881885Y-109729823D01*
X183511272Y-110120203D01*
X183452888Y-110286255D01*
X182593479Y-110286255D01*
X182873502Y-110035998D01*
X183645396Y-109404135D01*
X184620246Y-108637692D01*
X185723648Y-107791990D01*
X186881201Y-106922351D01*
X188018500Y-106084093D01*
X189061141Y-105332538D01*
X189934722Y-104723005D01*
X190564839Y-104310815D01*
X190877088Y-104151289D01*
X190887969Y-104151363D01*
G37*
%TD*%
D16*
%TO.C,SW65*%
X215266272Y-159673370D03*
D17*
X221486472Y-142590050D03*
D18*
X186603919Y-163538232D03*
D17*
X185899408Y-122861302D03*
D16*
X175323370Y-135188347D03*
D19*
X215165028Y-118269247D03*
X210834900Y-115769247D03*
X212999964Y-117019247D03*
D20*
X223807624Y-154490319D03*
D21*
X192875215Y-172064890D03*
X175393597Y-161971523D03*
D20*
X175165318Y-126409314D03*
%TD*%
D22*
%TO.C,H3*%
X65499963Y-65257213D03*
%TD*%
%TO.C,H2*%
X330599970Y-65257212D03*
%TD*%
D19*
%TO.C,SW66*%
X220999991Y-202499997D03*
X220999991Y-204999997D03*
X220999991Y-207499997D03*
D23*
X222999991Y-200499997D03*
X222999991Y-209499997D03*
%TD*%
D24*
%TO.C,H9*%
X158999991Y-197999993D03*
%TD*%
D25*
%TO.C,J4*%
X177999964Y-74580008D03*
D26*
X177999964Y-77120008D03*
X177999964Y-79660008D03*
X177999964Y-82200008D03*
X177999964Y-84740008D03*
X177999964Y-87280008D03*
X177999964Y-89820008D03*
D17*
X178249964Y-66200008D03*
X178249964Y-98200008D03*
X217749964Y-66200008D03*
X217749964Y-98200008D03*
%TD*%
D24*
%TO.C,H8*%
X236999991Y-197999997D03*
%TD*%
D27*
%TO.C,SW67*%
X167999992Y-208159997D03*
D16*
X167999992Y-203079997D03*
X167999992Y-197999997D03*
%TD*%
D28*
%TO.C,H12*%
X174999991Y-205000009D03*
%TD*%
D22*
%TO.C,H1*%
X197999957Y-195500010D03*
%TD*%
D29*
%TO.C,SW25*%
X138845945Y-175576526D03*
D30*
X134446536Y-173036526D03*
D29*
X130047127Y-170496526D03*
D31*
X132416979Y-168931821D03*
X139186241Y-169907117D03*
%TD*%
D29*
%TO.C,SW30*%
X154995425Y-189640012D03*
D30*
X151403323Y-186047910D03*
D29*
X147811221Y-182455808D03*
D31*
X150505297Y-181557782D03*
X156791477Y-184251859D03*
%TD*%
D29*
%TO.C,SW1*%
X71242663Y-76790062D03*
D30*
X66335760Y-75475261D03*
D29*
X61428857Y-74160460D03*
D31*
X63312983Y-72035709D03*
X70104012Y-71225758D03*
%TD*%
D29*
%TO.C,SW24*%
X131903639Y-144814408D03*
D30*
X126996736Y-143499607D03*
D29*
X122089833Y-142184806D03*
D31*
X123973959Y-140060055D03*
X130764988Y-139250104D03*
%TD*%
D29*
%TO.C,SW29*%
X149482762Y-152811749D03*
D30*
X144575859Y-151496948D03*
D29*
X139668956Y-150182147D03*
D31*
X141553082Y-148057396D03*
X148344111Y-147247445D03*
%TD*%
D29*
%TO.C,SW14*%
X95101858Y-134953414D03*
D30*
X90194955Y-133638613D03*
D29*
X85288052Y-132323812D03*
D31*
X87172178Y-130199061D03*
X93963207Y-129389110D03*
%TD*%
D29*
%TO.C,SW19*%
X114529931Y-136050376D03*
D30*
X109623028Y-134735575D03*
D29*
X104716125Y-133420774D03*
D31*
X106600251Y-131296023D03*
X113391280Y-130486072D03*
%TD*%
D29*
%TO.C,SW5*%
X51520644Y-150393620D03*
D30*
X46613741Y-149078819D03*
D29*
X41706838Y-147764018D03*
D31*
X43590964Y-145639267D03*
X50381993Y-144829316D03*
%TD*%
D29*
%TO.C,SW22*%
X141764627Y-108012628D03*
D30*
X136857724Y-106697827D03*
D29*
X131950821Y-105383026D03*
D31*
X133834947Y-103258275D03*
X140625976Y-102448324D03*
%TD*%
D29*
%TO.C,SW27*%
X159343770Y-116009967D03*
D30*
X154436867Y-114695166D03*
D29*
X149529964Y-113380365D03*
D31*
X151414090Y-111255614D03*
X158205119Y-110445663D03*
%TD*%
D29*
%TO.C,SW3*%
X61381635Y-113591851D03*
D30*
X56474732Y-112277050D03*
D29*
X51567829Y-110962249D03*
D31*
X53451955Y-108837498D03*
X60242984Y-108027547D03*
%TD*%
D29*
%TO.C,SW8*%
X80398846Y-116222222D03*
D30*
X75491943Y-114907421D03*
D29*
X70585040Y-113592620D03*
D31*
X72469166Y-111467869D03*
X79260195Y-110657918D03*
%TD*%
D29*
%TO.C,SW13*%
X100032358Y-116552515D03*
D30*
X95125455Y-115237714D03*
D29*
X90218552Y-113922913D03*
D31*
X92102678Y-111798162D03*
X98893707Y-110988211D03*
%TD*%
D29*
%TO.C,SW23*%
X136834144Y-126413544D03*
D30*
X131927241Y-125098743D03*
D29*
X127020338Y-123783942D03*
D31*
X128904464Y-121659191D03*
X135695493Y-120849240D03*
%TD*%
D29*
%TO.C,SW18*%
X119460412Y-117649496D03*
D30*
X114553509Y-116334695D03*
D29*
X109646606Y-115019894D03*
D31*
X111530732Y-112895143D03*
X118321761Y-112085192D03*
%TD*%
D29*
%TO.C,SW28*%
X154413259Y-134410847D03*
D30*
X149506356Y-133096046D03*
D29*
X144599453Y-131781245D03*
D31*
X146483579Y-129656494D03*
X153274608Y-128846543D03*
%TD*%
D29*
%TO.C,SW4*%
X56451152Y-131992745D03*
D30*
X51544249Y-130677944D03*
D29*
X46637346Y-129363143D03*
D31*
X48521472Y-127238392D03*
X55312501Y-126428441D03*
%TD*%
D29*
%TO.C,SW9*%
X75468326Y-134623129D03*
D30*
X70561423Y-133308328D03*
D29*
X65654520Y-131993527D03*
D31*
X67538646Y-129868776D03*
X74329675Y-129058825D03*
%TD*%
D29*
%TO.C,SW10*%
X70537843Y-153024018D03*
D30*
X65630940Y-151709217D03*
D29*
X60724037Y-150394416D03*
D31*
X62608163Y-148269665D03*
X69399192Y-147459714D03*
%TD*%
D29*
%TO.C,SW15*%
X90171347Y-153354278D03*
D30*
X85264444Y-152039477D03*
D29*
X80357541Y-150724676D03*
D31*
X82241667Y-148599925D03*
X89032696Y-147789974D03*
%TD*%
D29*
%TO.C,SW20*%
X119606855Y-166172013D03*
D30*
X114699952Y-164857212D03*
D29*
X109793049Y-163542411D03*
D31*
X111677175Y-161417660D03*
X118468204Y-160607709D03*
%TD*%
D29*
%TO.C,SW11*%
X109893364Y-79750768D03*
D30*
X104986461Y-78435967D03*
D29*
X100079558Y-77121166D03*
D31*
X101963684Y-74996415D03*
X108754713Y-74186464D03*
%TD*%
D29*
%TO.C,SW2*%
X66312154Y-95190966D03*
D30*
X61405251Y-93876165D03*
D29*
X56498348Y-92561364D03*
D31*
X58382474Y-90436613D03*
X65173503Y-89626662D03*
%TD*%
D29*
%TO.C,SW12*%
X104962854Y-98151620D03*
D30*
X100055951Y-96836819D03*
D29*
X95149048Y-95522018D03*
D31*
X97033174Y-93397267D03*
X103824203Y-92587316D03*
%TD*%
D29*
%TO.C,SW21*%
X146695137Y-89611737D03*
D30*
X141788234Y-88296936D03*
D29*
X136881331Y-86982135D03*
D31*
X138765457Y-84857384D03*
X145556486Y-84047433D03*
%TD*%
D29*
%TO.C,SW17*%
X124390933Y-99248631D03*
D30*
X119484030Y-97933830D03*
D29*
X114577127Y-96619029D03*
D31*
X116461253Y-94494278D03*
X123252282Y-93684327D03*
%TD*%
D29*
%TO.C,SW16*%
X129321433Y-80847720D03*
D30*
X124414530Y-79532919D03*
D29*
X119507627Y-78218118D03*
D31*
X121391753Y-76093367D03*
X128182782Y-75283416D03*
%TD*%
D29*
%TO.C,SW6*%
X90259854Y-79420468D03*
D30*
X85352951Y-78105667D03*
D29*
X80446048Y-76790866D03*
D31*
X82330174Y-74666115D03*
X89121203Y-73856164D03*
%TD*%
D29*
%TO.C,SW7*%
X85329347Y-97821353D03*
D30*
X80422444Y-96506552D03*
D29*
X75515541Y-95191751D03*
D31*
X77399667Y-93067000D03*
X84190696Y-92257049D03*
%TD*%
D29*
%TO.C,SW26*%
X164274268Y-97609071D03*
D30*
X159367365Y-96294270D03*
D29*
X154460462Y-94979469D03*
D31*
X156344588Y-92854718D03*
X163135617Y-92044767D03*
%TD*%
D29*
%TO.C,SW31*%
X241539496Y-94979484D03*
D30*
X236632593Y-96294285D03*
D29*
X231725690Y-97609086D03*
D31*
X232295015Y-94826934D03*
X237771244Y-90729981D03*
%TD*%
D29*
%TO.C,SW62*%
X203079969Y-186000009D03*
D30*
X197999969Y-186000009D03*
D29*
X192919969Y-186000009D03*
D31*
X194189969Y-183460009D03*
X200539969Y-180920009D03*
%TD*%
D29*
%TO.C,SW45*%
X286206900Y-163542414D03*
D30*
X281299997Y-164857215D03*
D29*
X276393094Y-166172016D03*
D31*
X276962419Y-163389864D03*
X282438648Y-159292911D03*
%TD*%
D29*
%TO.C,SW49*%
X310711912Y-132323828D03*
D30*
X305805009Y-133638629D03*
D29*
X300898106Y-134953430D03*
D31*
X301467431Y-132171278D03*
X306943660Y-128074325D03*
%TD*%
D32*
%TO.C,J5*%
X171499991Y-112599997D03*
D26*
X171499991Y-110059997D03*
D25*
X171499991Y-107519997D03*
X171499991Y-104979997D03*
%TD*%
D24*
%TO.C,H7*%
X319482323Y-162625367D03*
%TD*%
D29*
%TO.C,SW47*%
X300850909Y-95522043D03*
D30*
X295944006Y-96836844D03*
D29*
X291037103Y-98151645D03*
D31*
X291606428Y-95369493D03*
X297082657Y-91272540D03*
%TD*%
D29*
%TO.C,SW63*%
X224935764Y-177421404D03*
D30*
X220536355Y-179961404D03*
D29*
X216136946Y-182501404D03*
D31*
X215966798Y-179666699D03*
X220196060Y-174291995D03*
%TD*%
D29*
%TO.C,SW61*%
X179862983Y-182501406D03*
D30*
X175463574Y-179961406D03*
D29*
X171064165Y-177421406D03*
D31*
X173434017Y-175856701D03*
X180203279Y-176831997D03*
%TD*%
D29*
%TO.C,SW33*%
X251400493Y-131781238D03*
D30*
X246493590Y-133096039D03*
D29*
X241586687Y-134410840D03*
D31*
X242156012Y-131628688D03*
X247632241Y-127531735D03*
%TD*%
D24*
%TO.C,H11*%
X211799972Y-143000004D03*
%TD*%
D29*
%TO.C,SW59*%
X349362613Y-129363139D03*
D30*
X344455710Y-130677940D03*
D29*
X339548807Y-131992741D03*
D31*
X340118132Y-129210589D03*
X345594361Y-125113636D03*
%TD*%
D29*
%TO.C,SW38*%
X268979642Y-123783937D03*
D30*
X264072739Y-125098738D03*
D29*
X259165836Y-126413539D03*
D31*
X259735161Y-123631387D03*
X265211390Y-119534434D03*
%TD*%
D29*
%TO.C,SW50*%
X315642409Y-150724703D03*
D30*
X310735506Y-152039504D03*
D29*
X305828603Y-153354305D03*
D31*
X306397928Y-150572153D03*
X311874157Y-146475200D03*
%TD*%
D33*
%TO.C,SW69*%
X210499973Y-57127213D03*
X213499973Y-57127213D03*
%TD*%
D24*
%TO.C,H10*%
X184199972Y-142999959D03*
%TD*%
D29*
%TO.C,SW58*%
X344432110Y-110962236D03*
D30*
X339525207Y-112277037D03*
D29*
X334618304Y-113591838D03*
D31*
X335187629Y-110809686D03*
X340663858Y-106712733D03*
%TD*%
D34*
%TO.C,U4*%
X203349964Y-137340009D03*
D35*
X203349964Y-139120009D03*
X203349964Y-140900009D03*
X203349964Y-142680009D03*
X203349964Y-144460009D03*
X203349964Y-146240009D03*
X203349964Y-148020009D03*
X203349964Y-149800009D03*
X192649964Y-150690009D03*
X192649964Y-148910009D03*
X192649964Y-147130009D03*
X192649964Y-145350009D03*
X192649964Y-143570009D03*
X192649964Y-141790009D03*
X192649964Y-140010009D03*
X192649964Y-138230009D03*
%TD*%
D29*
%TO.C,SW43*%
X286353316Y-115019898D03*
D30*
X281446413Y-116334699D03*
D29*
X276539510Y-117649500D03*
D31*
X277108835Y-114867348D03*
X282585064Y-110770395D03*
%TD*%
D32*
%TO.C,J1*%
X215899992Y-107524997D03*
D25*
X215899992Y-104984997D03*
D26*
X215899992Y-102444997D03*
%TD*%
D36*
%TO.C,SW68*%
X183999969Y-58732217D03*
X183999969Y-55982217D03*
%TD*%
D29*
%TO.C,SW57*%
X339501604Y-92561352D03*
D30*
X334594701Y-93876153D03*
D29*
X329687798Y-95190954D03*
D31*
X330257123Y-92408802D03*
X335733352Y-88311849D03*
%TD*%
D29*
%TO.C,SW52*%
X320484421Y-95191748D03*
D30*
X315577518Y-96506549D03*
D29*
X310670615Y-97821350D03*
D31*
X311239940Y-95039198D03*
X316716169Y-90942245D03*
%TD*%
D29*
%TO.C,SW44*%
X291283837Y-133420774D03*
D30*
X286376934Y-134735575D03*
D29*
X281470031Y-136050376D03*
D31*
X282039356Y-133268224D03*
X287515585Y-129171271D03*
%TD*%
D29*
%TO.C,SW41*%
X276492326Y-78218127D03*
D30*
X271585423Y-79532928D03*
D29*
X266678520Y-80847729D03*
D31*
X267247845Y-78065577D03*
X272724074Y-73968624D03*
%TD*%
D37*
%TO.C,J2*%
X192379962Y-57400006D03*
D38*
X192379962Y-61400006D03*
D37*
X203619962Y-57400006D03*
D38*
X203619962Y-61400006D03*
%TD*%
D24*
%TO.C,H6*%
X76517600Y-162625360D03*
%TD*%
D29*
%TO.C,SW40*%
X265952816Y-170496513D03*
D30*
X261553407Y-173036513D03*
D29*
X257153998Y-175576513D03*
D31*
X256983850Y-172741808D03*
X261213112Y-167367104D03*
%TD*%
D29*
%TO.C,SW46*%
X295920394Y-77121164D03*
D30*
X291013491Y-78435965D03*
D29*
X286106588Y-79750766D03*
D31*
X286675913Y-76968614D03*
X292152142Y-72871661D03*
%TD*%
D29*
%TO.C,SW51*%
X315553915Y-76790874D03*
D30*
X310647012Y-78105675D03*
D29*
X305740109Y-79420476D03*
D31*
X306309434Y-76638324D03*
X311785663Y-72541371D03*
%TD*%
D29*
%TO.C,SW60*%
X354293113Y-147764017D03*
D30*
X349386210Y-149078818D03*
D29*
X344479307Y-150393619D03*
D31*
X345048632Y-147611467D03*
X350524861Y-143514514D03*
%TD*%
D29*
%TO.C,SW37*%
X264049145Y-105383055D03*
D30*
X259142242Y-106697856D03*
D29*
X254235339Y-108012657D03*
D31*
X254804664Y-105230505D03*
X260280893Y-101133552D03*
%TD*%
D24*
%TO.C,H4*%
X224049991Y-67557215D03*
%TD*%
D29*
%TO.C,SW54*%
X330345430Y-131993528D03*
D30*
X325438527Y-133308329D03*
D29*
X320531624Y-134623130D03*
D31*
X321100949Y-131840978D03*
X326577178Y-127744025D03*
%TD*%
D29*
%TO.C,SW55*%
X335275928Y-150394423D03*
D30*
X330369025Y-151709224D03*
D29*
X325462122Y-153024025D03*
D31*
X326031447Y-150241873D03*
X331507676Y-146144920D03*
%TD*%
D29*
%TO.C,SW48*%
X305781405Y-113922926D03*
D30*
X300874502Y-115237727D03*
D29*
X295967599Y-116552528D03*
D31*
X296536924Y-113770376D03*
X302013153Y-109673423D03*
%TD*%
D24*
%TO.C,H5*%
X171949992Y-67557209D03*
%TD*%
D29*
%TO.C,SW53*%
X325414926Y-113592635D03*
D30*
X320508023Y-114907436D03*
D29*
X315601120Y-116222237D03*
D31*
X316170445Y-113440085D03*
X321646674Y-109343132D03*
%TD*%
D29*
%TO.C,SW35*%
X248188736Y-182455808D03*
D30*
X244596634Y-186047910D03*
D29*
X241004532Y-189640012D03*
D31*
X240106506Y-186945936D03*
X242800583Y-180659756D03*
%TD*%
D29*
%TO.C,SW34*%
X256330998Y-150182131D03*
D30*
X251424095Y-151496932D03*
D29*
X246517192Y-152811733D03*
D31*
X247086517Y-150029581D03*
X252562746Y-145932628D03*
%TD*%
D29*
%TO.C,SW42*%
X281422821Y-96619015D03*
D30*
X276515918Y-97933816D03*
D29*
X271609015Y-99248617D03*
D31*
X272178340Y-96466465D03*
X277654569Y-92369512D03*
%TD*%
D29*
%TO.C,SW56*%
X334571114Y-74160473D03*
D30*
X329664211Y-75475274D03*
D29*
X324757308Y-76790075D03*
D31*
X325326633Y-74007923D03*
X330802862Y-69910970D03*
%TD*%
D17*
%TO.C,SW64*%
X209906241Y-212034997D03*
D30*
X209906241Y-196794997D03*
D29*
X203079991Y-205049997D03*
D30*
X197999991Y-205049997D03*
D29*
X192919991Y-205049997D03*
D17*
X186093741Y-212034997D03*
D30*
X186093741Y-196794997D03*
D31*
X194189991Y-202509997D03*
X200539991Y-199969997D03*
%TD*%
D29*
%TO.C,SW36*%
X259118622Y-86982168D03*
D30*
X254211719Y-88296969D03*
D29*
X249304816Y-89611770D03*
D31*
X249874141Y-86829618D03*
X255350370Y-82732665D03*
%TD*%
D29*
%TO.C,SW39*%
X273910136Y-142184824D03*
D30*
X269003233Y-143499625D03*
D29*
X264096330Y-144814426D03*
D31*
X264665655Y-142032274D03*
X270141884Y-137935321D03*
%TD*%
D29*
%TO.C,SW32*%
X246469994Y-113380366D03*
D30*
X241563091Y-114695167D03*
D29*
X236656188Y-116009968D03*
D31*
X237225513Y-113227816D03*
X242701742Y-109130863D03*
%TD*%
%LPD*%
M02*
