%TF.GenerationSoftware,KiCad,Pcbnew,(7.0.0)*%
%TF.CreationDate,2023-03-08T00:54:44+00:00*%
%TF.ProjectId,Honeydew,486f6e65-7964-4657-972e-6b696361645f,rev?*%
%TF.SameCoordinates,Original*%
%TF.FileFunction,Profile,NP*%
%FSLAX46Y46*%
G04 Gerber Fmt 4.6, Leading zero omitted, Abs format (unit mm)*
G04 Created by KiCad (PCBNEW (7.0.0)) date 2023-03-08 00:54:44*
%MOMM*%
%LPD*%
G01*
G04 APERTURE LIST*
%TA.AperFunction,Profile*%
%ADD10C,0.100000*%
%TD*%
%TA.AperFunction,Profile*%
%ADD11C,0.120000*%
%TD*%
G04 APERTURE END LIST*
D10*
X160957182Y-18700620D02*
X133131812Y-18700624D01*
X202723634Y-177956903D02*
G75*
G03*
X213557850Y-171298450I-16278034J38630203D01*
G01*
X161457167Y-14763071D02*
X161457168Y-18200623D01*
X261060760Y-140807644D02*
G75*
G03*
X213557852Y-171298452I47936040J-126930356D01*
G01*
X327192674Y-116734925D02*
G75*
G03*
X328089155Y-114812431I-512874J1409425D01*
G01*
X125842162Y-171298453D02*
G75*
G03*
X136676379Y-177956916I27110938J31969553D01*
G01*
X136676377Y-177956922D02*
G75*
G03*
X202723640Y-177956916I33023623J85938122D01*
G01*
X295648660Y-25683961D02*
G75*
G03*
X294445983Y-24711312I-1409560J-513039D01*
G01*
X261060767Y-140807663D02*
X327192697Y-116734988D01*
X12207433Y-116738486D02*
X78339244Y-140807675D01*
X161957151Y-14263079D02*
X177442865Y-14263081D01*
X133131812Y-18700622D02*
G75*
G03*
X44954054Y-24714870I-1341212J-629751078D01*
G01*
X177942919Y-14763057D02*
G75*
G03*
X177442865Y-14263081I-499819J157D01*
G01*
X294445982Y-24711317D02*
G75*
G03*
X206268236Y-18697074I-86836482J-623736483D01*
G01*
X161957151Y-14263167D02*
G75*
G03*
X161457167Y-14763071I-251J-499733D01*
G01*
X177942868Y-18197079D02*
X177942850Y-14763057D01*
X11310900Y-114815899D02*
G75*
G03*
X12207433Y-116738486I1409400J-513101D01*
G01*
X328089155Y-114812431D02*
X295648684Y-25683952D01*
X44954051Y-24714851D02*
G75*
G03*
X43751353Y-25687506I206749J-1485549D01*
G01*
X177942842Y-18197079D02*
G75*
G03*
X178442861Y-18697058I499958J-21D01*
G01*
X125842164Y-171298451D02*
G75*
G03*
X78339244Y-140807676I-95439364J-96440349D01*
G01*
X206268236Y-18697074D02*
X178442861Y-18697058D01*
X160957182Y-18700568D02*
G75*
G03*
X161457168Y-18200623I418J499568D01*
G01*
X43751353Y-25687506D02*
X11310913Y-114815904D01*
D11*
%TO.C,D103*%
X145773111Y-171715091D02*
X149250444Y-172646839D01*
X144970772Y-174709461D02*
X145773111Y-171715091D01*
X149250444Y-172646839D02*
X148448105Y-175641209D01*
X148448105Y-175641209D02*
X144970772Y-174709461D01*
%TO.C,D104*%
X167899786Y-175109401D02*
X171499786Y-175109401D01*
X167899786Y-178209401D02*
X167899786Y-175109401D01*
X171499786Y-175109401D02*
X171499786Y-178209401D01*
X171499786Y-178209401D02*
X167899786Y-178209401D01*
%TO.C,D105*%
X190174319Y-172640204D02*
X193651652Y-171708456D01*
X190976658Y-175634574D02*
X190174319Y-172640204D01*
X193651652Y-171708456D02*
X194453991Y-174702826D01*
X194453991Y-174702826D02*
X190976658Y-175634574D01*
%TO.C,D125*%
X274992180Y-119289925D02*
X278375073Y-118058652D01*
X276052443Y-122202972D02*
X274992180Y-119289925D01*
X278375073Y-118058652D02*
X279435336Y-120971699D01*
X279435336Y-120971699D02*
X276052443Y-122202972D01*
%TO.C,D75*%
X35810316Y-75938322D02*
X39193209Y-77169595D01*
X34750053Y-78851369D02*
X35810316Y-75938322D01*
X39193209Y-77169595D02*
X38132946Y-80082642D01*
X38132946Y-80082642D02*
X34750053Y-78851369D01*
%TO.C,D102*%
X124087900Y-156679400D02*
X126401936Y-159437160D01*
X121713162Y-158672042D02*
X124087900Y-156679400D01*
X126401936Y-159437160D02*
X124027198Y-161429802D01*
X124027198Y-161429802D02*
X121713162Y-158672042D01*
%TO.C,D81*%
X50333021Y-102261617D02*
X46950128Y-101030344D01*
X51393284Y-99348570D02*
X50333021Y-102261617D01*
X46950128Y-101030344D02*
X48010391Y-98117297D01*
X48010391Y-98117297D02*
X51393284Y-99348570D01*
%TO.C,D106*%
X196312733Y-70215329D02*
X199695626Y-68984056D01*
X197372996Y-73128376D02*
X196312733Y-70215329D01*
X199695626Y-68984056D02*
X200755889Y-71897103D01*
X200755889Y-71897103D02*
X197372996Y-73128376D01*
%TO.C,D67*%
X179016144Y-106263949D02*
X182133836Y-108063949D01*
X177466144Y-108948627D02*
X179016144Y-106263949D01*
X182133836Y-108063949D02*
X180583836Y-110748627D01*
X180583836Y-110748627D02*
X177466144Y-108948627D01*
%TO.C,D101*%
X122480564Y-126831795D02*
X119097671Y-125600522D01*
X123540827Y-123918748D02*
X122480564Y-126831795D01*
X119097671Y-125600522D02*
X120157934Y-122687475D01*
X120157934Y-122687475D02*
X123540827Y-123918748D01*
%TO.C,D134*%
X311165445Y-96752514D02*
X307782552Y-97983787D01*
X310105182Y-93839467D02*
X311165445Y-96752514D01*
X307782552Y-97983787D02*
X306722289Y-95070740D01*
X306722289Y-95070740D02*
X310105182Y-93839467D01*
%TO.C,D78*%
X67556859Y-44413863D02*
X70939752Y-45645136D01*
X66496596Y-47326910D02*
X67556859Y-44413863D01*
X70939752Y-45645136D02*
X69879489Y-48558183D01*
X69879489Y-48558183D02*
X66496596Y-47326910D01*
%TO.C,D98*%
X139704376Y-68984043D02*
X143087269Y-70215316D01*
X138644113Y-71897090D02*
X139704376Y-68984043D01*
X143087269Y-70215316D02*
X142027006Y-73128363D01*
X142027006Y-73128363D02*
X138644113Y-71897090D01*
%TO.C,D90*%
X93314441Y-85042432D02*
X96697334Y-86273705D01*
X92254178Y-87955479D02*
X93314441Y-85042432D01*
X96697334Y-86273705D02*
X95637071Y-89186752D01*
X95637071Y-89186752D02*
X92254178Y-87955479D01*
%TO.C,D100*%
X126673419Y-104786323D02*
X130056312Y-106017596D01*
X125613156Y-107699370D02*
X126673419Y-104786323D01*
X130056312Y-106017596D02*
X128996049Y-108930643D01*
X128996049Y-108930643D02*
X125613156Y-107699370D01*
%TO.C,D87*%
X61024933Y-118058637D02*
X64407826Y-119289910D01*
X59964670Y-120971684D02*
X61024933Y-118058637D01*
X64407826Y-119289910D02*
X63347563Y-122202957D01*
X63347563Y-122202957D02*
X59964670Y-120971684D01*
%TO.C,D68*%
X191450002Y-124199986D02*
X191450002Y-127799986D01*
X188350002Y-124199986D02*
X191450002Y-124199986D01*
X191450002Y-127799986D02*
X188350002Y-127799986D01*
X188350002Y-127799986D02*
X188350002Y-124199986D01*
%TO.C,D84*%
X82894013Y-68499521D02*
X79511120Y-67268248D01*
X83954276Y-65586474D02*
X82894013Y-68499521D01*
X79511120Y-67268248D02*
X80571383Y-64355201D01*
X80571383Y-64355201D02*
X83954276Y-65586474D01*
%TO.C,D91*%
X89121597Y-107087881D02*
X85738704Y-105856608D01*
X90181860Y-104174834D02*
X89121597Y-107087881D01*
X85738704Y-105856608D02*
X86798967Y-102943561D01*
X86798967Y-102943561D02*
X90181860Y-104174834D01*
%TO.C,D83*%
X87086874Y-46454067D02*
X90469767Y-47685340D01*
X86026611Y-49367114D02*
X87086874Y-46454067D01*
X90469767Y-47685340D02*
X89409504Y-50598387D01*
X89409504Y-50598387D02*
X86026611Y-49367114D01*
%TO.C,D95*%
X109858207Y-95287345D02*
X113241100Y-96518618D01*
X108797944Y-98200392D02*
X109858207Y-95287345D01*
X113241100Y-96518618D02*
X112180837Y-99431665D01*
X112180837Y-99431665D02*
X108797944Y-98200392D01*
%TO.C,D86*%
X69863047Y-104301821D02*
X66480154Y-103070548D01*
X70923310Y-101388774D02*
X69863047Y-104301821D01*
X66480154Y-103070548D02*
X67540417Y-100157501D01*
X67540417Y-100157501D02*
X70923310Y-101388774D01*
%TO.C,D129*%
X292449868Y-101030357D02*
X289066975Y-102261630D01*
X291389605Y-98117310D02*
X292449868Y-101030357D01*
X289066975Y-102261630D02*
X288006712Y-99348583D01*
X288006712Y-99348583D02*
X291389605Y-98117310D01*
D10*
%TO.C,U4*%
X173950000Y-134320000D02*
X173950000Y-118570000D01*
X173450000Y-134820000D02*
X165950000Y-134820000D01*
X173450000Y-118070000D02*
X165950000Y-118070000D01*
X165450000Y-118570000D02*
X165450000Y-134320000D01*
X173450000Y-134820000D02*
G75*
G03*
X173950000Y-134320000I-1J500001D01*
G01*
X173950000Y-118570000D02*
G75*
G03*
X173450000Y-118070000I-499998J2D01*
G01*
X165450000Y-134320000D02*
G75*
G03*
X165950000Y-134820000I500000J0D01*
G01*
X165950000Y-118070000D02*
G75*
G03*
X165450000Y-118570000I0J-500000D01*
G01*
D11*
%TO.C,D93*%
X122889166Y-59485017D02*
X126272059Y-60716290D01*
X121828903Y-62398064D02*
X122889166Y-59485017D01*
X126272059Y-60716290D02*
X125211796Y-63629337D01*
X125211796Y-63629337D02*
X121828903Y-62398064D01*
%TO.C,D127*%
X279418898Y-65228048D02*
X276036005Y-66459321D01*
X278358635Y-62315001D02*
X279418898Y-65228048D01*
X276036005Y-66459321D02*
X274975742Y-63546274D01*
X274975742Y-63546274D02*
X278358635Y-62315001D01*
%TO.C,D130*%
X294522200Y-117249738D02*
X297905093Y-116018465D01*
X295582463Y-120162785D02*
X294522200Y-117249738D01*
X297905093Y-116018465D02*
X298965356Y-118931512D01*
X298965356Y-118931512D02*
X295582463Y-120162785D01*
%TO.C,D124*%
X272919856Y-103070543D02*
X269536963Y-104301816D01*
X271859593Y-100157496D02*
X272919856Y-103070543D01*
X269536963Y-104301816D02*
X268476700Y-101388769D01*
X268476700Y-101388769D02*
X271859593Y-100157496D01*
%TO.C,D107*%
X207271369Y-89798238D02*
X203888476Y-91029511D01*
X206211106Y-86885191D02*
X207271369Y-89798238D01*
X203888476Y-91029511D02*
X202828213Y-88116464D01*
X202828213Y-88116464D02*
X206211106Y-86885191D01*
%TO.C,D85*%
X74055908Y-82256343D02*
X77438801Y-83487616D01*
X72995645Y-85169390D02*
X74055908Y-82256343D01*
X77438801Y-83487616D02*
X76378538Y-86400663D01*
X76378538Y-86400663D02*
X72995645Y-85169390D01*
%TO.C,D92*%
X89231316Y-133393059D02*
X92614209Y-134624332D01*
X88171053Y-136306106D02*
X89231316Y-133393059D01*
X92614209Y-134624332D02*
X91553946Y-137537379D01*
X91553946Y-137537379D02*
X88171053Y-136306106D01*
%TO.C,D73*%
X48841284Y-40136017D02*
X52224177Y-41367290D01*
X47781021Y-43049064D02*
X48841284Y-40136017D01*
X52224177Y-41367290D02*
X51163914Y-44280337D01*
X51163914Y-44280337D02*
X47781021Y-43049064D01*
%TO.C,D108*%
X209343685Y-106017608D02*
X212726578Y-104786335D01*
X210403948Y-108930655D02*
X209343685Y-106017608D01*
X212726578Y-104786335D02*
X213786841Y-107699382D01*
X213786841Y-107699382D02*
X210403948Y-108930655D01*
%TO.C,D112*%
X224086602Y-80299232D02*
X220703709Y-81530505D01*
X223026339Y-77386185D02*
X224086602Y-80299232D01*
X220703709Y-81530505D02*
X219643446Y-78617458D01*
X219643446Y-78617458D02*
X223026339Y-77386185D01*
%TO.C,D131*%
X287175825Y-41367296D02*
X290558718Y-40136023D01*
X288236088Y-44280343D02*
X287175825Y-41367296D01*
X290558718Y-40136023D02*
X291618981Y-43049070D01*
X291618981Y-43049070D02*
X288236088Y-44280343D01*
%TO.C,D76*%
X31617474Y-97983798D02*
X28234581Y-96752525D01*
X32677737Y-95070751D02*
X31617474Y-97983798D01*
X28234581Y-96752525D02*
X29294844Y-93839478D01*
X29294844Y-93839478D02*
X32677737Y-95070751D01*
%TO.C,D89*%
X102152562Y-71285589D02*
X98769669Y-70054316D01*
X103212825Y-68372542D02*
X102152562Y-71285589D01*
X98769669Y-70054316D02*
X99829932Y-67141269D01*
X99829932Y-67141269D02*
X103212825Y-68372542D01*
%TO.C,D117*%
X240630336Y-70054326D02*
X237247443Y-71285599D01*
X239570073Y-67141279D02*
X240630336Y-70054326D01*
X237247443Y-71285599D02*
X236187180Y-68372552D01*
X236187180Y-68372552D02*
X239570073Y-67141279D01*
%TO.C,D96*%
X105665352Y-117332780D02*
X102282459Y-116101507D01*
X106725615Y-114419733D02*
X105665352Y-117332780D01*
X102282459Y-116101507D02*
X103342722Y-113188460D01*
X103342722Y-113188460D02*
X106725615Y-114419733D01*
%TO.C,D77*%
X22779345Y-111740615D02*
X26162238Y-112971888D01*
X21719082Y-114653662D02*
X22779345Y-111740615D01*
X26162238Y-112971888D02*
X25101975Y-115884935D01*
X25101975Y-115884935D02*
X21719082Y-114653662D01*
%TO.C,D113*%
X226158923Y-96518596D02*
X229541816Y-95287323D01*
X227219186Y-99431643D02*
X226158923Y-96518596D01*
X229541816Y-95287323D02*
X230602079Y-98200370D01*
X230602079Y-98200370D02*
X227219186Y-99431643D01*
%TO.C,D71*%
X147950000Y-127799997D02*
X147950000Y-124199997D01*
X151050000Y-127799997D02*
X147950000Y-127799997D01*
X147950000Y-124199997D02*
X151050000Y-124199997D01*
X151050000Y-124199997D02*
X151050000Y-127799997D01*
%TO.C,D82*%
X41494915Y-116018441D02*
X44877808Y-117249714D01*
X40434652Y-118931488D02*
X41494915Y-116018441D01*
X44877808Y-117249714D02*
X43817545Y-120162761D01*
X43817545Y-120162761D02*
X40434652Y-118931488D01*
%TO.C,D132*%
X298134472Y-60950222D02*
X294751579Y-62181495D01*
X297074209Y-58037175D02*
X298134472Y-60950222D01*
X294751579Y-62181495D02*
X293691316Y-59268448D01*
X293691316Y-59268448D02*
X297074209Y-58037175D01*
%TO.C,D69*%
X182133858Y-143936050D02*
X179016166Y-145736050D01*
X180583858Y-141251372D02*
X182133858Y-143936050D01*
X179016166Y-145736050D02*
X177466166Y-143051372D01*
X177466166Y-143051372D02*
X180583858Y-141251372D01*
%TO.C,D122*%
X259888879Y-67268258D02*
X256505986Y-68499531D01*
X258828616Y-64355211D02*
X259888879Y-67268258D01*
X256505986Y-68499531D02*
X255445723Y-65586484D01*
X255445723Y-65586484D02*
X258828616Y-64355211D01*
%TO.C,D99*%
X135511547Y-91029499D02*
X132128654Y-89798226D01*
X136571810Y-88116452D02*
X135511547Y-91029499D01*
X132128654Y-89798226D02*
X133188917Y-86885179D01*
X133188917Y-86885179D02*
X136571810Y-88116452D01*
%TO.C,D80*%
X54525914Y-80216149D02*
X57908807Y-81447422D01*
X53465651Y-83129196D02*
X54525914Y-80216149D01*
X57908807Y-81447422D02*
X56848544Y-84360469D01*
X56848544Y-84360469D02*
X53465651Y-83129196D01*
%TO.C,D109*%
X220302325Y-125600528D02*
X216919432Y-126831801D01*
X219242062Y-122687481D02*
X220302325Y-125600528D01*
X216919432Y-126831801D02*
X215859169Y-123918754D01*
X215859169Y-123918754D02*
X219242062Y-122687481D01*
%TO.C,D133*%
X300206796Y-77169585D02*
X303589689Y-75938312D01*
X301267059Y-80082632D02*
X300206796Y-77169585D01*
X303589689Y-75938312D02*
X304649952Y-78851359D01*
X304649952Y-78851359D02*
X301267059Y-80082632D01*
%TO.C,D126*%
X268460268Y-45645138D02*
X271843161Y-44413865D01*
X269520531Y-48558185D02*
X268460268Y-45645138D01*
X271843161Y-44413865D02*
X272903424Y-47326912D01*
X272903424Y-47326912D02*
X269520531Y-48558185D01*
%TO.C,D111*%
X213127952Y-60716315D02*
X216510845Y-59485042D01*
X214188215Y-63629362D02*
X213127952Y-60716315D01*
X216510845Y-59485042D02*
X217571108Y-62398089D01*
X217571108Y-62398089D02*
X214188215Y-63629362D01*
%TO.C,D70*%
X160383847Y-145736045D02*
X157266155Y-143936045D01*
X161933847Y-143051367D02*
X160383847Y-145736045D01*
X157266155Y-143936045D02*
X158816155Y-141251367D01*
X158816155Y-141251367D02*
X161933847Y-143051367D01*
%TO.C,D114*%
X237117557Y-116101525D02*
X233734664Y-117332798D01*
X236057294Y-113188478D02*
X237117557Y-116101525D01*
X233734664Y-117332798D02*
X232674401Y-114419751D01*
X232674401Y-114419751D02*
X236057294Y-113188478D01*
%TO.C,D123*%
X261961217Y-83487637D02*
X265344110Y-82256364D01*
X263021480Y-86400684D02*
X261961217Y-83487637D01*
X265344110Y-82256364D02*
X266404373Y-85169411D01*
X266404373Y-85169411D02*
X263021480Y-86400684D01*
%TO.C,D135*%
X313237768Y-112971877D02*
X316620661Y-111740604D01*
X314298031Y-115884924D02*
X313237768Y-112971877D01*
X316620661Y-111740604D02*
X317680924Y-114653651D01*
X317680924Y-114653651D02*
X314298031Y-115884924D01*
%TO.C,D128*%
X281491226Y-81447433D02*
X284874119Y-80216160D01*
X282551489Y-84360480D02*
X281491226Y-81447433D01*
X284874119Y-80216160D02*
X285934382Y-83129207D01*
X285934382Y-83129207D02*
X282551489Y-84360480D01*
%TO.C,D97*%
X108240796Y-142752572D02*
X111189743Y-144817447D01*
X106462709Y-145291943D02*
X108240796Y-142752572D01*
X111189743Y-144817447D02*
X109411656Y-147356818D01*
X109411656Y-147356818D02*
X106462709Y-145291943D01*
%TO.C,D72*%
X157266165Y-108063945D02*
X160383857Y-106263945D01*
X158816165Y-110748623D02*
X157266165Y-108063945D01*
X160383857Y-106263945D02*
X161933857Y-108948623D01*
X161933857Y-108948623D02*
X158816165Y-110748623D01*
%TO.C,D94*%
X118696301Y-81530481D02*
X115313408Y-80299208D01*
X119756564Y-78617434D02*
X118696301Y-81530481D01*
X115313408Y-80299208D02*
X116373671Y-77386161D01*
X116373671Y-77386161D02*
X119756564Y-78617434D01*
%TO.C,D119*%
X253661307Y-105856609D02*
X250278414Y-107087882D01*
X252601044Y-102943562D02*
X253661307Y-105856609D01*
X250278414Y-107087882D02*
X249218151Y-104174835D01*
X249218151Y-104174835D02*
X252601044Y-102943562D01*
%TO.C,D120*%
X246785812Y-134624334D02*
X250168705Y-133393061D01*
X247846075Y-137537381D02*
X246785812Y-134624334D01*
X250168705Y-133393061D02*
X251228968Y-136306108D01*
X251228968Y-136306108D02*
X247846075Y-137537381D01*
%TO.C,D115*%
X228194420Y-144811689D02*
X231143367Y-142746814D01*
X229972507Y-147351060D02*
X228194420Y-144811689D01*
X231143367Y-142746814D02*
X232921454Y-145286185D01*
X232921454Y-145286185D02*
X229972507Y-147351060D01*
%TO.C,D116*%
X229671694Y-50471417D02*
X233054587Y-49240144D01*
X230731957Y-53384464D02*
X229671694Y-50471417D01*
X233054587Y-49240144D02*
X234114850Y-52153191D01*
X234114850Y-52153191D02*
X230731957Y-53384464D01*
%TO.C,D110*%
X212993180Y-159436234D02*
X215307216Y-156678474D01*
X215367918Y-161428876D02*
X212993180Y-159436234D01*
X215307216Y-156678474D02*
X217681954Y-158671116D01*
X217681954Y-158671116D02*
X215367918Y-161428876D01*
%TO.C,D74*%
X44648429Y-62181491D02*
X41265536Y-60950218D01*
X45708692Y-59268444D02*
X44648429Y-62181491D01*
X41265536Y-60950218D02*
X42325799Y-58037171D01*
X42325799Y-58037171D02*
X45708692Y-59268444D01*
%TO.C,D79*%
X63364010Y-66459323D02*
X59981117Y-65228050D01*
X64424273Y-63546276D02*
X63364010Y-66459323D01*
X59981117Y-65228050D02*
X61041380Y-62315003D01*
X61041380Y-62315003D02*
X64424273Y-63546276D01*
%TO.C,D121*%
X248930240Y-47685348D02*
X252313133Y-46454075D01*
X249990503Y-50598395D02*
X248930240Y-47685348D01*
X252313133Y-46454075D02*
X253373396Y-49367122D01*
X253373396Y-49367122D02*
X249990503Y-50598395D01*
%TO.C,D88*%
X106345419Y-49240130D02*
X109728312Y-50471403D01*
X105285156Y-52153177D02*
X106345419Y-49240130D01*
X109728312Y-50471403D02*
X108668049Y-53384450D01*
X108668049Y-53384450D02*
X105285156Y-52153177D01*
%TO.C,D118*%
X242702676Y-86273711D02*
X246085569Y-85042438D01*
X243762939Y-89186758D02*
X242702676Y-86273711D01*
X246085569Y-85042438D02*
X247145832Y-87955485D01*
X247145832Y-87955485D02*
X243762939Y-89186758D01*
%TD*%
M02*
