%TF.GenerationSoftware,KiCad,Pcbnew,(7.0.0)*%
%TF.CreationDate,2023-05-19T21:54:14+01:00*%
%TF.ProjectId,Honeydew,486f6e65-7964-4657-972e-6b696361645f,V2.0*%
%TF.SameCoordinates,Original*%
%TF.FileFunction,Soldermask,Top*%
%TF.FilePolarity,Negative*%
%FSLAX46Y46*%
G04 Gerber Fmt 4.6, Leading zero omitted, Abs format (unit mm)*
G04 Created by KiCad (PCBNEW (7.0.0)) date 2023-05-19 21:54:14*
%MOMM*%
%LPD*%
G01*
G04 APERTURE LIST*
G04 Aperture macros list*
%AMRotRect*
0 Rectangle, with rotation*
0 The origin of the aperture is its center*
0 $1 length*
0 $2 width*
0 $3 Rotation angle, in degrees counterclockwise*
0 Add horizontal line*
21,1,$1,$2,0,0,$3*%
G04 Aperture macros list end*
%ADD10C,2.200000*%
%ADD11C,4.000000*%
%ADD12C,4.200000*%
%ADD13C,2.000000*%
%ADD14RotRect,4.400000X4.400000X150.000000*%
%ADD15C,3.200000*%
%ADD16C,1.152000*%
%ADD17C,5.600000*%
%ADD18R,1.700000X1.700000*%
%ADD19O,1.700000X1.700000*%
%ADD20C,1.750000*%
%ADD21C,3.987800*%
%ADD22C,3.300000*%
%ADD23C,1.700000*%
%ADD24C,0.900000*%
%ADD25R,1.200000X1.200000*%
%ADD26C,1.200000*%
%ADD27C,0.750000*%
%ADD28O,1.000000X2.200000*%
%ADD29O,1.000000X1.800000*%
G04 APERTURE END LIST*
%TO.C,A1*%
G36*
X183263311Y-97984672D02*
G01*
X183228444Y-98135675D01*
X183093978Y-98154006D01*
X182884907Y-98061071D01*
X182924644Y-97984672D01*
X183226083Y-97954273D01*
X183263311Y-97984672D01*
G37*
G36*
X183517311Y-96714672D02*
G01*
X183547710Y-97016111D01*
X183517311Y-97053339D01*
X183366308Y-97018472D01*
X183347978Y-96884006D01*
X183440912Y-96674935D01*
X183517311Y-96714672D01*
G37*
G36*
X180299978Y-99043006D02*
G01*
X180542289Y-99271252D01*
X180553978Y-99311996D01*
X180357460Y-99421093D01*
X180299978Y-99424006D01*
X180055738Y-99228742D01*
X180045978Y-99155015D01*
X180201587Y-99003317D01*
X180299978Y-99043006D01*
G37*
G36*
X182058408Y-98038616D02*
G01*
X182077978Y-98124025D01*
X181892620Y-98483099D01*
X181823978Y-98535006D01*
X181589547Y-98523395D01*
X181569978Y-98437986D01*
X181755335Y-98078912D01*
X181823978Y-98027006D01*
X182058408Y-98038616D01*
G37*
G36*
X184530666Y-96023615D02*
G01*
X184490978Y-96122006D01*
X184262731Y-96364317D01*
X184221987Y-96376006D01*
X184112890Y-96179488D01*
X184109978Y-96122006D01*
X184305241Y-95877766D01*
X184378968Y-95868006D01*
X184530666Y-96023615D01*
G37*
G36*
X189436597Y-96315293D02*
G01*
X189443978Y-96376006D01*
X189250690Y-96622625D01*
X189189978Y-96630006D01*
X188943358Y-96436718D01*
X188935978Y-96376006D01*
X189129265Y-96129386D01*
X189189978Y-96122006D01*
X189436597Y-96315293D01*
G37*
G36*
X199383333Y-96249006D02*
G01*
X199922032Y-96249006D01*
X199942477Y-96771759D01*
X200000037Y-96906682D01*
X200032496Y-96823467D01*
X200079807Y-96213503D01*
X200037622Y-95807467D01*
X199970711Y-95666692D01*
X199928621Y-95971986D01*
X199922032Y-96249006D01*
X199383333Y-96249006D01*
X199371484Y-95997210D01*
X199418686Y-95370801D01*
X199576038Y-95002533D01*
X199689735Y-94886233D01*
X200129529Y-94684640D01*
X200354851Y-94718129D01*
X200523797Y-95077408D01*
X200599940Y-95794951D01*
X200583226Y-96729560D01*
X200473602Y-97740039D01*
X200356225Y-98354582D01*
X200227331Y-99357538D01*
X200369305Y-100000752D01*
X200764588Y-100249578D01*
X201259819Y-100137583D01*
X201779621Y-99822779D01*
X201826414Y-99510183D01*
X201508977Y-99170005D01*
X201160425Y-98675500D01*
X201230441Y-98409590D01*
X201868821Y-98409590D01*
X201980375Y-98872292D01*
X202299090Y-99363502D01*
X202750796Y-99879005D01*
X203095395Y-100165299D01*
X203159978Y-100186006D01*
X203439145Y-100003222D01*
X203872011Y-99546715D01*
X204020865Y-99363502D01*
X204399441Y-98735828D01*
X204426355Y-98335768D01*
X204124922Y-98232776D01*
X203695247Y-98393411D01*
X203070850Y-98547929D01*
X202624708Y-98393411D01*
X202091369Y-98226812D01*
X201868821Y-98409590D01*
X201230441Y-98409590D01*
X201300574Y-98143232D01*
X201635977Y-97773006D01*
X202035334Y-97464501D01*
X202336578Y-97510772D01*
X202651978Y-97773005D01*
X203049089Y-98079950D01*
X203349919Y-98036123D01*
X203676942Y-97764893D01*
X204064088Y-97461678D01*
X204352443Y-97493173D01*
X204740578Y-97843717D01*
X205102258Y-98289376D01*
X205106578Y-98685613D01*
X204955654Y-99009977D01*
X204770087Y-99627797D01*
X204901484Y-100063540D01*
X205206968Y-100186006D01*
X205339068Y-99956595D01*
X205425870Y-99365955D01*
X205445978Y-98818450D01*
X205445977Y-97450895D01*
X206613282Y-97490187D01*
X207578177Y-97631798D01*
X208110160Y-97980197D01*
X208336006Y-98472066D01*
X208531240Y-99195166D01*
X208663382Y-99965718D01*
X208699956Y-100599939D01*
X208626221Y-100900429D01*
X208389980Y-100888173D01*
X208160540Y-100518667D01*
X208011366Y-99938268D01*
X207989867Y-99632648D01*
X207811083Y-98914835D01*
X207373646Y-98364244D01*
X206833771Y-98154006D01*
X206415043Y-98381005D01*
X206092325Y-98954107D01*
X205954435Y-99711463D01*
X205953978Y-99757206D01*
X205804350Y-100371267D01*
X205568213Y-100697960D01*
X205203228Y-100872074D01*
X204807970Y-100674280D01*
X204679213Y-100562694D01*
X204281310Y-100257082D01*
X203978847Y-100307723D01*
X203672742Y-100562694D01*
X203239959Y-100859151D01*
X202890374Y-100778653D01*
X202775505Y-100691124D01*
X202419102Y-100507614D01*
X201926268Y-100537950D01*
X201343789Y-100706609D01*
X200666555Y-100900486D01*
X200287595Y-100893585D01*
X200035200Y-100677955D01*
X200010509Y-100644877D01*
X199734604Y-100388050D01*
X199369462Y-100435568D01*
X199047069Y-100590603D01*
X198359021Y-100795254D01*
X197417016Y-100884163D01*
X197026313Y-100879467D01*
X196217078Y-100812291D01*
X195788968Y-100671383D01*
X195615657Y-100406566D01*
X195596815Y-100311700D01*
X195424104Y-99366962D01*
X195251561Y-98873896D01*
X195058119Y-98776617D01*
X195024531Y-98793608D01*
X194866996Y-99123452D01*
X194782513Y-99753153D01*
X194777978Y-99946996D01*
X194720856Y-100577657D01*
X194578399Y-100924719D01*
X194523978Y-100948006D01*
X194363951Y-100722890D01*
X194275886Y-100161470D01*
X194269978Y-99946996D01*
X194212716Y-99272013D01*
X194070478Y-98841104D01*
X194023424Y-98793608D01*
X193824002Y-98835145D01*
X193648970Y-99266424D01*
X193477668Y-100142318D01*
X193451383Y-100313006D01*
X193314734Y-100629589D01*
X192941047Y-100798303D01*
X192200238Y-100874636D01*
X192126394Y-100878177D01*
X191321483Y-100854810D01*
X190698489Y-100730538D01*
X190522519Y-100640510D01*
X190169125Y-100489160D01*
X189943196Y-100708215D01*
X189651473Y-100926012D01*
X189371144Y-100693942D01*
X189138037Y-100069550D01*
X188994813Y-99184957D01*
X188966878Y-98986530D01*
X190265990Y-98986530D01*
X190425969Y-99590557D01*
X190767543Y-100054965D01*
X191094978Y-100186006D01*
X191476571Y-99977049D01*
X191785181Y-99531280D01*
X191922227Y-98821907D01*
X191696206Y-98275706D01*
X191170049Y-98029829D01*
X191094978Y-98027006D01*
X190589149Y-98223994D01*
X190374402Y-98451780D01*
X190265990Y-98986530D01*
X188966878Y-98986530D01*
X188884879Y-98404079D01*
X188713674Y-98014798D01*
X188426371Y-97900752D01*
X188389375Y-97900006D01*
X187931852Y-98133238D01*
X187591437Y-98757856D01*
X187421656Y-99661240D01*
X187411978Y-99956513D01*
X187266864Y-100629892D01*
X186903703Y-100933019D01*
X186430764Y-100884974D01*
X185956318Y-100504838D01*
X185588635Y-99811694D01*
X185534476Y-99625625D01*
X185307974Y-98734009D01*
X184305490Y-99736493D01*
X182884346Y-100863945D01*
X181335150Y-101511951D01*
X179756617Y-101704427D01*
X178701950Y-101636156D01*
X177983727Y-101397027D01*
X177724617Y-101220035D01*
X177395675Y-100841991D01*
X177837274Y-100841991D01*
X178266820Y-101114338D01*
X178331478Y-101146000D01*
X179465073Y-101418082D01*
X180858266Y-101278619D01*
X181646090Y-101053051D01*
X182681445Y-100533915D01*
X183752656Y-99724634D01*
X184732218Y-98750822D01*
X185492625Y-97738093D01*
X185891625Y-96870459D01*
X186078594Y-95841395D01*
X186057491Y-95013436D01*
X185837639Y-94498686D01*
X185686399Y-94402234D01*
X185470663Y-94464027D01*
X185514207Y-94917375D01*
X185514874Y-94920037D01*
X185539126Y-95840874D01*
X185264726Y-96922667D01*
X184754504Y-97969447D01*
X184370778Y-98488454D01*
X183713718Y-99095743D01*
X182842058Y-99728082D01*
X182326870Y-100037270D01*
X181497799Y-100443519D01*
X180789185Y-100638811D01*
X179954279Y-100674315D01*
X179388381Y-100646619D01*
X178386709Y-100613491D01*
X177873455Y-100676828D01*
X177837274Y-100841991D01*
X177395675Y-100841991D01*
X177327867Y-100764061D01*
X177378978Y-100477966D01*
X177593488Y-100286258D01*
X178452897Y-100286258D01*
X178910890Y-100445967D01*
X179684077Y-100444014D01*
X180613464Y-100300974D01*
X181540057Y-100037422D01*
X182045787Y-99821318D01*
X183350711Y-98957831D01*
X184383851Y-97870118D01*
X185037917Y-96676320D01*
X185110705Y-96446448D01*
X185335670Y-95484806D01*
X185351056Y-94964698D01*
X185228248Y-94852005D01*
X184979277Y-95000022D01*
X184420974Y-95401184D01*
X183640583Y-95991162D01*
X182878748Y-96584418D01*
X181829670Y-97408408D01*
X180785852Y-98223251D01*
X179897289Y-98912081D01*
X179490063Y-99224671D01*
X178881894Y-99729826D01*
X178511281Y-100120206D01*
X178452897Y-100286258D01*
X177593488Y-100286258D01*
X177873511Y-100036001D01*
X178645405Y-99404138D01*
X179620255Y-98637695D01*
X180723657Y-97791993D01*
X181881210Y-96922354D01*
X183018509Y-96084096D01*
X184061150Y-95332541D01*
X184934731Y-94723008D01*
X185564848Y-94310818D01*
X185877097Y-94151292D01*
X185887978Y-94151366D01*
X186218782Y-94460029D01*
X186355317Y-95209286D01*
X186295435Y-96369463D01*
X186127070Y-97455550D01*
X185963144Y-98518775D01*
X185949441Y-99244211D01*
X186084420Y-99778874D01*
X186102307Y-99819372D01*
X186404448Y-100281190D01*
X186650828Y-100263847D01*
X186822649Y-99794833D01*
X186901111Y-98901643D01*
X186903978Y-98647015D01*
X186942879Y-97841379D01*
X187044318Y-97295841D01*
X187157978Y-97138006D01*
X187404656Y-97325461D01*
X187411978Y-97384034D01*
X187597555Y-97550513D01*
X187729478Y-97532249D01*
X188619011Y-97280266D01*
X189134235Y-97236744D01*
X189380477Y-97442779D01*
X189463066Y-97939465D01*
X189473442Y-98212666D01*
X189514240Y-98750470D01*
X189584727Y-98895076D01*
X189626664Y-98789006D01*
X190006681Y-97965304D01*
X190572699Y-97527093D01*
X191212893Y-97448324D01*
X191815435Y-97702952D01*
X192268499Y-98264929D01*
X192460260Y-99108210D01*
X192446926Y-99445901D01*
X192478541Y-100082358D01*
X192682478Y-100372496D01*
X192877155Y-100277950D01*
X192977678Y-99784661D01*
X192999978Y-99079162D01*
X193064868Y-98085589D01*
X193268333Y-97567789D01*
X193623565Y-97509249D01*
X194031983Y-97787490D01*
X194426547Y-98086162D01*
X194732195Y-98024913D01*
X195015972Y-97787490D01*
X195507324Y-97486513D01*
X195839007Y-97636092D01*
X196024730Y-98251838D01*
X196075807Y-98994496D01*
X196103637Y-100313006D01*
X196321186Y-99206419D01*
X196426864Y-98829043D01*
X197063978Y-98829043D01*
X197164410Y-99055738D01*
X197539334Y-98933409D01*
X197557831Y-98923576D01*
X198021107Y-98609381D01*
X198196975Y-98424191D01*
X198161893Y-98100589D01*
X198072994Y-98022690D01*
X197676418Y-98026002D01*
X197273730Y-98332154D01*
X197066245Y-98780266D01*
X197063978Y-98829043D01*
X196426864Y-98829043D01*
X196605552Y-98190945D01*
X196999271Y-97610902D01*
X197554222Y-97396982D01*
X197679278Y-97392005D01*
X198408909Y-97555161D01*
X198769654Y-97972147D01*
X198748463Y-98534243D01*
X198332288Y-99132727D01*
X197925222Y-99441159D01*
X197377644Y-99814361D01*
X197226529Y-100048899D01*
X197414919Y-100235181D01*
X197422347Y-100239365D01*
X198095888Y-100358678D01*
X198751834Y-100043168D01*
X199197744Y-99469505D01*
X199408385Y-98742170D01*
X199452738Y-97655275D01*
X199418843Y-97003600D01*
X199383333Y-96249006D01*
G37*
%TD*%
D10*
%TO.C,SW67*%
X210266280Y-149673373D03*
D11*
X216486480Y-132590053D03*
D12*
X181603927Y-153538235D03*
D11*
X180899416Y-112861305D03*
D10*
X170323378Y-125188350D03*
D13*
X210165036Y-108269250D03*
X205834908Y-105769250D03*
X207999972Y-107019250D03*
D14*
X218807631Y-144490321D03*
D15*
X187875223Y-162064893D03*
X170393605Y-151971526D03*
D14*
X170165325Y-116409316D03*
%TD*%
D16*
%TO.C,H3*%
X60499971Y-55257216D03*
%TD*%
%TO.C,H2*%
X325599979Y-55257215D03*
%TD*%
D17*
%TO.C,H9*%
X154000000Y-187999995D03*
%TD*%
D18*
%TO.C,J4*%
X172999971Y-64580010D03*
D19*
X172999971Y-67120010D03*
X172999971Y-69660010D03*
X172999971Y-72200010D03*
X172999971Y-74740010D03*
X172999971Y-77280010D03*
X172999971Y-79820010D03*
D11*
X173249972Y-56200011D03*
X173249972Y-88200011D03*
X212749972Y-56200011D03*
X212749972Y-88200011D03*
%TD*%
D17*
%TO.C,H8*%
X232000000Y-188000000D03*
%TD*%
D16*
%TO.C,H1*%
X192999965Y-185500013D03*
%TD*%
D20*
%TO.C,SW25*%
X133845954Y-165576529D03*
D21*
X129446545Y-163036529D03*
D20*
X125047136Y-160496529D03*
D22*
X127416988Y-158931824D03*
X134186250Y-159907120D03*
%TD*%
D20*
%TO.C,SW30*%
X149995434Y-179640014D03*
D21*
X146403332Y-176047912D03*
D20*
X142811230Y-172455810D03*
D22*
X145505306Y-171557784D03*
X151791486Y-174251861D03*
%TD*%
D20*
%TO.C,SW1*%
X66242672Y-66790065D03*
D21*
X61335769Y-65475264D03*
D20*
X56428866Y-64160463D03*
D22*
X58312992Y-62035712D03*
X65104021Y-61225761D03*
%TD*%
D20*
%TO.C,SW24*%
X126903648Y-134814411D03*
D21*
X121996745Y-133499610D03*
D20*
X117089842Y-132184809D03*
D22*
X118973968Y-130060058D03*
X125764997Y-129250107D03*
%TD*%
D20*
%TO.C,SW29*%
X144482771Y-142811752D03*
D21*
X139575868Y-141496951D03*
D20*
X134668965Y-140182150D03*
D22*
X136553091Y-138057399D03*
X143344120Y-137247448D03*
%TD*%
D20*
%TO.C,SW14*%
X90101866Y-124953416D03*
D21*
X85194963Y-123638615D03*
D20*
X80288060Y-122323814D03*
D22*
X82172186Y-120199063D03*
X88963215Y-119389112D03*
%TD*%
D20*
%TO.C,SW19*%
X109529939Y-126050379D03*
D21*
X104623036Y-124735578D03*
D20*
X99716133Y-123420777D03*
D22*
X101600259Y-121296026D03*
X108391288Y-120486075D03*
%TD*%
D20*
%TO.C,SW5*%
X46520653Y-140393623D03*
D21*
X41613750Y-139078822D03*
D20*
X36706847Y-137764021D03*
D22*
X38590973Y-135639270D03*
X45382002Y-134829319D03*
%TD*%
D20*
%TO.C,SW22*%
X136764636Y-98012631D03*
D21*
X131857733Y-96697830D03*
D20*
X126950830Y-95383029D03*
D22*
X128834956Y-93258278D03*
X135625985Y-92448327D03*
%TD*%
D20*
%TO.C,SW27*%
X154343778Y-106009970D03*
D21*
X149436875Y-104695169D03*
D20*
X144529972Y-103380368D03*
D22*
X146414098Y-101255617D03*
X153205127Y-100445666D03*
%TD*%
D20*
%TO.C,SW3*%
X56381643Y-103591854D03*
D21*
X51474740Y-102277053D03*
D20*
X46567837Y-100962252D03*
D22*
X48451963Y-98837501D03*
X55242992Y-98027550D03*
%TD*%
D20*
%TO.C,SW8*%
X75398855Y-106222225D03*
D21*
X70491952Y-104907424D03*
D20*
X65585049Y-103592623D03*
D22*
X67469175Y-101467872D03*
X74260204Y-100657921D03*
%TD*%
D20*
%TO.C,SW13*%
X95032367Y-106552518D03*
D21*
X90125464Y-105237717D03*
D20*
X85218561Y-103922916D03*
D22*
X87102687Y-101798165D03*
X93893716Y-100988214D03*
%TD*%
D20*
%TO.C,SW23*%
X131834152Y-116413547D03*
D21*
X126927249Y-115098746D03*
D20*
X122020346Y-113783945D03*
D22*
X123904472Y-111659194D03*
X130695501Y-110849243D03*
%TD*%
D20*
%TO.C,SW18*%
X114460420Y-107649499D03*
D21*
X109553517Y-106334698D03*
D20*
X104646614Y-105019897D03*
D22*
X106530740Y-102895146D03*
X113321769Y-102085195D03*
%TD*%
D20*
%TO.C,SW28*%
X149413268Y-124410850D03*
D21*
X144506365Y-123096049D03*
D20*
X139599462Y-121781248D03*
D22*
X141483588Y-119656497D03*
X148274617Y-118846546D03*
%TD*%
D20*
%TO.C,SW4*%
X51451161Y-121992748D03*
D21*
X46544258Y-120677947D03*
D20*
X41637355Y-119363146D03*
D22*
X43521481Y-117238395D03*
X50312510Y-116428444D03*
%TD*%
D20*
%TO.C,SW9*%
X70468335Y-124623132D03*
D21*
X65561432Y-123308331D03*
D20*
X60654529Y-121993530D03*
D22*
X62538655Y-119868779D03*
X69329684Y-119058828D03*
%TD*%
D20*
%TO.C,SW10*%
X65537851Y-143024021D03*
D21*
X60630948Y-141709220D03*
D20*
X55724045Y-140394419D03*
D22*
X57608171Y-138269668D03*
X64399200Y-137459717D03*
%TD*%
D20*
%TO.C,SW15*%
X85171355Y-143354281D03*
D21*
X80264452Y-142039480D03*
D20*
X75357549Y-140724679D03*
D22*
X77241675Y-138599928D03*
X84032704Y-137789977D03*
%TD*%
D20*
%TO.C,SW20*%
X114606864Y-156172015D03*
D21*
X109699961Y-154857214D03*
D20*
X104793058Y-153542413D03*
D22*
X106677184Y-151417662D03*
X113468213Y-150607711D03*
%TD*%
D20*
%TO.C,SW11*%
X104893372Y-69750770D03*
D21*
X99986469Y-68435969D03*
D20*
X95079566Y-67121168D03*
D22*
X96963692Y-64996417D03*
X103754721Y-64186466D03*
%TD*%
D20*
%TO.C,SW2*%
X61312163Y-85190968D03*
D21*
X56405260Y-83876167D03*
D20*
X51498357Y-82561366D03*
D22*
X53382483Y-80436615D03*
X60173512Y-79626664D03*
%TD*%
D20*
%TO.C,SW12*%
X99962862Y-88151623D03*
D21*
X95055959Y-86836822D03*
D20*
X90149056Y-85522021D03*
D22*
X92033182Y-83397270D03*
X98824211Y-82587319D03*
%TD*%
D20*
%TO.C,SW21*%
X141695145Y-79611740D03*
D21*
X136788242Y-78296939D03*
D20*
X131881339Y-76982138D03*
D22*
X133765465Y-74857387D03*
X140556494Y-74047436D03*
%TD*%
D20*
%TO.C,SW17*%
X119390941Y-89248634D03*
D21*
X114484038Y-87933833D03*
D20*
X109577135Y-86619032D03*
D22*
X111461261Y-84494281D03*
X118252290Y-83684330D03*
%TD*%
D20*
%TO.C,SW16*%
X124321442Y-70847723D03*
D21*
X119414539Y-69532922D03*
D20*
X114507636Y-68218121D03*
D22*
X116391762Y-66093370D03*
X123182791Y-65283419D03*
%TD*%
D20*
%TO.C,SW6*%
X85259863Y-69420471D03*
D21*
X80352960Y-68105670D03*
D20*
X75446057Y-66790869D03*
D22*
X77330183Y-64666118D03*
X84121212Y-63856167D03*
%TD*%
D20*
%TO.C,SW7*%
X80329356Y-87821356D03*
D21*
X75422453Y-86506555D03*
D20*
X70515550Y-85191754D03*
D22*
X72399676Y-83067003D03*
X79190705Y-82257052D03*
%TD*%
D20*
%TO.C,SW26*%
X159274277Y-87609074D03*
D21*
X154367374Y-86294273D03*
D20*
X149460471Y-84979472D03*
D22*
X151344597Y-82854721D03*
X158135626Y-82044770D03*
%TD*%
D20*
%TO.C,SW31*%
X236539505Y-84979487D03*
D21*
X231632602Y-86294288D03*
D20*
X226725699Y-87609089D03*
D22*
X227295024Y-84826937D03*
X232771253Y-80729984D03*
%TD*%
D20*
%TO.C,SW62*%
X198079978Y-176000012D03*
D21*
X192999978Y-176000012D03*
D20*
X187919978Y-176000012D03*
D22*
X189189978Y-173460012D03*
X195539978Y-170920012D03*
%TD*%
D20*
%TO.C,SW45*%
X281206908Y-153542417D03*
D21*
X276300005Y-154857218D03*
D20*
X271393102Y-156172019D03*
D22*
X271962427Y-153389867D03*
X277438656Y-149292914D03*
%TD*%
D20*
%TO.C,SW49*%
X305711921Y-122323830D03*
D21*
X300805018Y-123638631D03*
D20*
X295898115Y-124953432D03*
D22*
X296467440Y-122171280D03*
X301943669Y-118074327D03*
%TD*%
D23*
%TO.C,J5*%
X166500000Y-102600000D03*
D19*
X166499999Y-100059999D03*
D18*
X166499999Y-97519999D03*
X166499999Y-94979999D03*
%TD*%
D17*
%TO.C,H7*%
X314482332Y-152625369D03*
%TD*%
D20*
%TO.C,SW47*%
X295850917Y-85522046D03*
D21*
X290944014Y-86836847D03*
D20*
X286037111Y-88151648D03*
D22*
X286606436Y-85369496D03*
X292082665Y-81272543D03*
%TD*%
D20*
%TO.C,SW63*%
X219935772Y-167421407D03*
D21*
X215536363Y-169961407D03*
D20*
X211136954Y-172501407D03*
D22*
X210966806Y-169666702D03*
X215196068Y-164291998D03*
%TD*%
D20*
%TO.C,SW61*%
X174862992Y-172501409D03*
D21*
X170463583Y-169961409D03*
D20*
X166064174Y-167421409D03*
D22*
X168434026Y-165856704D03*
X175203288Y-166832000D03*
%TD*%
D20*
%TO.C,SW33*%
X246400502Y-121781241D03*
D21*
X241493599Y-123096042D03*
D20*
X236586696Y-124410843D03*
D22*
X237156021Y-121628691D03*
X242632250Y-117531738D03*
%TD*%
D17*
%TO.C,H11*%
X206799981Y-133000007D03*
%TD*%
D20*
%TO.C,SW59*%
X344362622Y-119363142D03*
D21*
X339455719Y-120677943D03*
D20*
X334548816Y-121992744D03*
D22*
X335118141Y-119210592D03*
X340594370Y-115113639D03*
%TD*%
D20*
%TO.C,SW38*%
X263979651Y-113783940D03*
D21*
X259072748Y-115098741D03*
D20*
X254165845Y-116413542D03*
D22*
X254735170Y-113631390D03*
X260211399Y-109534437D03*
%TD*%
D20*
%TO.C,SW50*%
X310642417Y-140724706D03*
D21*
X305735514Y-142039507D03*
D20*
X300828611Y-143354308D03*
D22*
X301397936Y-140572156D03*
X306874165Y-136475203D03*
%TD*%
D24*
%TO.C,SW69*%
X205499981Y-47127216D03*
X208499981Y-47127216D03*
%TD*%
D17*
%TO.C,H10*%
X179199980Y-132999962D03*
%TD*%
D20*
%TO.C,SW58*%
X339432119Y-100962238D03*
D21*
X334525216Y-102277039D03*
D20*
X329618313Y-103591840D03*
D22*
X330187638Y-100809688D03*
X335663867Y-96712735D03*
%TD*%
D25*
%TO.C,U4*%
X198349971Y-127340011D03*
D26*
X198349972Y-129120012D03*
X198349972Y-130900012D03*
X198349972Y-132680012D03*
X198349972Y-134460012D03*
X198349972Y-136240012D03*
X198349972Y-138020012D03*
X198349972Y-139800012D03*
X187649972Y-140690012D03*
X187649972Y-138910012D03*
X187649972Y-137130012D03*
X187649972Y-135350012D03*
X187649972Y-133570012D03*
X187649972Y-131790012D03*
X187649972Y-130010012D03*
X187649972Y-128230012D03*
%TD*%
D20*
%TO.C,SW43*%
X281353324Y-105019901D03*
D21*
X276446421Y-106334702D03*
D20*
X271539518Y-107649503D03*
D22*
X272108843Y-104867351D03*
X277585072Y-100770398D03*
%TD*%
D23*
%TO.C,J1*%
X210900000Y-97525000D03*
D18*
X210899999Y-94984999D03*
D19*
X210899999Y-92444999D03*
%TD*%
D27*
%TO.C,SW68*%
X178999978Y-48732220D03*
X178999978Y-45982220D03*
%TD*%
D20*
%TO.C,SW57*%
X334501613Y-82561354D03*
D21*
X329594710Y-83876155D03*
D20*
X324687807Y-85190956D03*
D22*
X325257132Y-82408804D03*
X330733361Y-78311851D03*
%TD*%
D20*
%TO.C,SW52*%
X315484430Y-85191751D03*
D21*
X310577527Y-86506552D03*
D20*
X305670624Y-87821353D03*
D22*
X306239949Y-85039201D03*
X311716178Y-80942248D03*
%TD*%
D20*
%TO.C,SW44*%
X286283846Y-123420777D03*
D21*
X281376943Y-124735578D03*
D20*
X276470040Y-126050379D03*
D22*
X277039365Y-123268227D03*
X282515594Y-119171274D03*
%TD*%
D20*
%TO.C,SW41*%
X271492335Y-68218130D03*
D21*
X266585432Y-69532931D03*
D20*
X261678529Y-70847732D03*
D22*
X262247854Y-68065580D03*
X267724083Y-63968627D03*
%TD*%
D28*
%TO.C,J2*%
X187379969Y-47400008D03*
D29*
X187379969Y-51400008D03*
D28*
X198619969Y-47400008D03*
D29*
X198619969Y-51400008D03*
%TD*%
D17*
%TO.C,H6*%
X71517609Y-152625363D03*
%TD*%
D20*
%TO.C,SW40*%
X260952825Y-160496515D03*
D21*
X256553416Y-163036515D03*
D20*
X252154007Y-165576515D03*
D22*
X251983859Y-162741810D03*
X256213121Y-157367106D03*
%TD*%
D20*
%TO.C,SW46*%
X290920402Y-67121167D03*
D21*
X286013499Y-68435968D03*
D20*
X281106596Y-69750769D03*
D22*
X281675921Y-66968617D03*
X287152150Y-62871664D03*
%TD*%
D20*
%TO.C,SW51*%
X310553924Y-66790876D03*
D21*
X305647021Y-68105677D03*
D20*
X300740118Y-69420478D03*
D22*
X301309443Y-66638326D03*
X306785672Y-62541373D03*
%TD*%
D20*
%TO.C,SW60*%
X349293121Y-137764020D03*
D21*
X344386218Y-139078821D03*
D20*
X339479315Y-140393622D03*
D22*
X340048640Y-137611470D03*
X345524869Y-133514517D03*
%TD*%
D20*
%TO.C,SW37*%
X259049154Y-95383058D03*
D21*
X254142251Y-96697859D03*
D20*
X249235348Y-98012660D03*
D22*
X249804673Y-95230508D03*
X255280902Y-91133555D03*
%TD*%
D17*
%TO.C,H4*%
X218300000Y-57557218D03*
%TD*%
D20*
%TO.C,SW54*%
X325345439Y-121993530D03*
D21*
X320438536Y-123308331D03*
D20*
X315531633Y-124623132D03*
D22*
X316100958Y-121840980D03*
X321577187Y-117744027D03*
%TD*%
D20*
%TO.C,SW55*%
X330275937Y-140394426D03*
D21*
X325369034Y-141709227D03*
D20*
X320462131Y-143024028D03*
D22*
X321031456Y-140241876D03*
X326507685Y-136144923D03*
%TD*%
D20*
%TO.C,SW48*%
X300781414Y-103922929D03*
D21*
X295874511Y-105237730D03*
D20*
X290967608Y-106552531D03*
D22*
X291536933Y-103770379D03*
X297013162Y-99673426D03*
%TD*%
D17*
%TO.C,H5*%
X167700000Y-57557211D03*
%TD*%
D20*
%TO.C,SW53*%
X320414934Y-103592638D03*
D21*
X315508031Y-104907439D03*
D20*
X310601128Y-106222240D03*
D22*
X311170453Y-103440088D03*
X316646682Y-99343135D03*
%TD*%
D20*
%TO.C,SW35*%
X243188745Y-172455811D03*
D21*
X239596643Y-176047913D03*
D20*
X236004541Y-179640015D03*
D22*
X235106515Y-176945939D03*
X237800592Y-170659759D03*
%TD*%
D20*
%TO.C,SW34*%
X251331007Y-140182134D03*
D21*
X246424104Y-141496935D03*
D20*
X241517201Y-142811736D03*
D22*
X242086526Y-140029584D03*
X247562755Y-135932631D03*
%TD*%
D20*
%TO.C,SW42*%
X276422830Y-86619018D03*
D21*
X271515927Y-87933819D03*
D20*
X266609024Y-89248620D03*
D22*
X267178349Y-86466468D03*
X272654578Y-82369515D03*
%TD*%
D20*
%TO.C,SW56*%
X329571122Y-64160476D03*
D21*
X324664219Y-65475277D03*
D20*
X319757316Y-66790078D03*
D22*
X320326641Y-64007926D03*
X325802870Y-59910973D03*
%TD*%
D11*
%TO.C,SW64*%
X204906222Y-202035007D03*
D21*
X204906222Y-186795007D03*
D20*
X198079972Y-195050007D03*
D21*
X192999972Y-195050007D03*
D20*
X187919972Y-195050007D03*
D11*
X181093722Y-202035007D03*
D21*
X181093722Y-186795007D03*
D22*
X189189972Y-192510007D03*
X195539972Y-189970007D03*
%TD*%
D20*
%TO.C,SW36*%
X254118631Y-76982171D03*
D21*
X249211728Y-78296972D03*
D20*
X244304825Y-79611773D03*
D22*
X244874150Y-76829621D03*
X250350379Y-72732668D03*
%TD*%
D20*
%TO.C,SW39*%
X268910144Y-132184827D03*
D21*
X264003241Y-133499628D03*
D20*
X259096338Y-134814429D03*
D22*
X259665663Y-132032277D03*
X265141892Y-127935324D03*
%TD*%
D20*
%TO.C,SW32*%
X241470003Y-103380369D03*
D21*
X236563100Y-104695170D03*
D20*
X231656197Y-106009971D03*
D22*
X232225522Y-103227819D03*
X237701751Y-99130866D03*
%TD*%
M02*
