M48
; DRILL file {KiCad (7.0.0)} date Fri Mar 24 23:17:22 2023
; FORMAT={-:-/ absolute / inch / decimal}
; #@! TF.CreationDate,2023-03-24T23:17:22+00:00
; #@! TF.GenerationSoftware,Kicad,Pcbnew,(7.0.0)
; #@! TF.FileFunction,Plated,1,2,PTH
FMAT,2
INCH
; #@! TA.AperFunction,Plated,PTH,ViaDrill
T1C0.0098
; #@! TA.AperFunction,Plated,PTH,ViaDrill
T2C0.0118
; #@! TA.AperFunction,Plated,PTH,ComponentDrill
T3C0.0118
; #@! TA.AperFunction,Plated,PTH,ComponentDrill
T4C0.0236
; #@! TA.AperFunction,Plated,PTH,ComponentDrill
T5C0.0276
; #@! TA.AperFunction,Plated,PTH,ComponentDrill
T6C0.0295
; #@! TA.AperFunction,Plated,PTH,ComponentDrill
T7C0.0394
; #@! TA.AperFunction,Plated,PTH,ComponentDrill
T8C0.0413
; #@! TA.AperFunction,Plated,PTH,ComponentDrill
T9C0.0591
; #@! TA.AperFunction,Plated,PTH,ComponentDrill
T10C0.0787
; #@! TA.AperFunction,Plated,PTH,ComponentDrill
T11C0.1260
%
G90
G05
T1
X1.5921Y-4.3938
X1.8486Y-3.689
X2.1052Y-2.9843
X2.329Y-4.5622
X2.3617Y-2.2795
X2.5855Y-3.8575
X2.6181Y-1.388
X2.6182Y-1.5747
X2.842Y-3.1527
X3.0979Y-4.6426
X3.0985Y-2.4479
X3.3544Y-3.9378
X3.355Y-1.7432
X3.3551Y-1.5569
X3.6109Y-3.233
X3.8674Y-2.5282
X4.1126Y-4.0475
X4.1239Y-1.8235
X4.124Y-1.6372
X4.2083Y-5.2463
X4.3691Y-3.3427
X4.6256Y-2.6379
X4.7639Y-4.4508
X4.8821Y-1.9332
X4.8823Y-1.7474
X4.9885Y-5.739
X5.0204Y-3.746
X5.2769Y-3.0413
X5.4259Y-4.8248
X5.5335Y-2.3365
X5.5335Y-2.1498
X5.5762Y-4.7587
X5.5958Y-4.7051
X5.6098Y-6.4157
X5.6824Y-4.12
X5.9181Y-6.3874
X5.935Y-6.326
X5.939Y-3.4153
X6.0283Y-6.2567
X6.0283Y-6.5369
X6.0893Y-3.3492
X6.1075Y-3.2993
X6.1079Y-3.2253
X6.1953Y-2.5238
X6.1955Y-2.7105
X6.3598Y-3.3171
X6.502Y-5.0687
X6.5768Y-1.7695
X6.6004Y-1.7459
X6.6323Y-5.1986
X6.7461Y-1.988
X6.7854Y-2.0274
X6.8406Y-1.2203
X6.8425Y-2.1947
X6.8445Y-0.8974
X6.8681Y-1.049
X6.876Y-1.6751
X6.878Y-4.7283
X6.9016Y-1.049
X6.937Y-1.049
X6.9404Y-4.7301
X6.9488Y-4.5748
X6.9862Y-4.3368
X6.9941Y-0.8974
X6.9949Y-4.4211
X6.9951Y-1.7992
X7.0038Y-4.5746
X7.0039Y-4.5433
X7.0058Y-1.6426
X7.0669Y-4.5433
X7.2579Y-5.0254
X7.2638Y-4.5118
X7.3484Y-1.7439
X7.6234Y-3.3332
X7.713Y-3.3334
X7.7252Y-3.2995
X7.7441Y-3.3513
X7.8051Y-6.3515
X7.8051Y-6.2564
X7.8645Y-3.9969
X7.9349Y-3.9973
X7.9937Y-2.3967
X8.1372Y-4.7435
X8.2012Y-2.5073
X8.2266Y-4.743
X8.2383Y-4.7091
X8.2571Y-4.7608
X8.4577Y-3.2121
X8.5307Y-2.0683
X8.6106Y-5.9607
X8.7143Y-3.9169
X8.8632Y-2.1334
X8.9708Y-4.6217
X9.1198Y-2.8381
X9.2071Y-1.6557
X9.3366Y-5.3983
X9.3763Y-3.5429
X9.5146Y-1.73
X9.6328Y-4.2477
X9.7711Y-2.4348
X9.9693Y-1.5443
X10.0276Y-3.1396
X10.1884Y-5.0431
X10.2728Y-1.6203
X10.2841Y-3.8443
X10.5293Y-2.3251
X10.7858Y-3.0299
X10.8004Y-1.4415
X11.0417Y-1.54
X11.0423Y-3.7346
X11.2982Y-2.2448
X11.2988Y-4.4394
X11.363Y-1.2939
X11.5547Y-2.9496
X11.7785Y-1.3716
X11.8112Y-3.6543
X12.035Y-2.0764
X12.0677Y-4.3591
X12.2915Y-2.7811
X12.5481Y-3.4859
X12.8046Y-4.1907
T2
X1.0168Y-4.5802
X1.0254Y-4.5565
X1.0405Y-4.5888
X1.0491Y-4.5652
X1.2244Y-3.8595
X1.2342Y-3.8327
X1.3838Y-4.7741
X1.3936Y-4.7473
X1.5298Y-3.1707
X1.5384Y-3.147
X1.5535Y-3.1793
X1.5621Y-3.1556
X1.5689Y-4.0417
X1.5775Y-4.018
X1.5926Y-4.0503
X1.6012Y-4.0266
X1.7374Y-2.45
X1.7472Y-2.4232
X1.7536Y-4.7486
X1.7622Y-4.725
X1.7773Y-4.7573
X1.7859Y-4.7336
X1.8968Y-3.3646
X1.9066Y-3.3378
X1.9612Y-4.028
X1.971Y-4.0011
X2.0428Y-1.7611
X2.0515Y-1.7375
X2.0665Y-1.7698
X2.0751Y-1.7461
X2.0819Y-2.6322
X2.0906Y-2.6085
X2.1056Y-2.6408
X2.1142Y-2.6171
X2.1206Y-4.9426
X2.1304Y-4.9157
X2.2666Y-3.3391
X2.2753Y-3.3154
X2.2903Y-3.3477
X2.2989Y-3.324
X2.3057Y-4.2101
X2.3144Y-4.1864
X2.3294Y-4.2187
X2.338Y-4.1951
X2.4099Y-1.9551
X2.4196Y-1.9282
X2.4743Y-2.6184
X2.484Y-2.5916
X2.5225Y-4.829
X2.5311Y-4.8053
X2.5462Y-4.8376
X2.5548Y-4.8139
X2.6337Y-3.533
X2.6434Y-3.5062
X2.7301Y-4.1083
X2.7399Y-4.0815
X2.7797Y-1.9296
X2.7883Y-1.9059
X2.8034Y-1.9382
X2.812Y-1.9145
X2.8188Y-2.8006
X2.8274Y-2.7769
X2.8425Y-2.8092
X2.8511Y-2.7855
X2.8895Y-5.0229
X2.8993Y-4.9961
X3.0355Y-3.4194
X3.0442Y-3.3957
X3.0592Y-3.428
X3.0678Y-3.4044
X3.0746Y-4.2904
X3.0833Y-4.2668
X3.0983Y-4.2991
X3.1069Y-4.2754
X3.1467Y-2.1235
X3.1565Y-2.0967
X3.2432Y-2.6987
X3.2529Y-2.6719
X3.4026Y-3.6133
X3.4123Y-3.5865
X3.4884Y-4.218
X3.4981Y-4.1912
X3.5486Y-2.0099
X3.5572Y-1.9862
X3.5723Y-2.0185
X3.5809Y-1.9948
X3.5877Y-2.8809
X3.5963Y-2.8572
X3.6113Y-2.8895
X3.62Y-2.8658
X3.633Y-5.4327
X3.6416Y-5.409
X3.6567Y-5.4413
X3.6653Y-5.4176
X3.7938Y-3.5291
X3.8024Y-3.5054
X3.8174Y-3.5377
X3.826Y-3.5141
X3.8329Y-4.4001
X3.8415Y-4.3765
X3.8565Y-4.4087
X3.8651Y-4.3851
X3.9156Y-2.2038
X3.9254Y-2.177
X4.0Y-5.6266
X4.0014Y-2.8084
X4.0098Y-5.5998
X4.0111Y-2.7816
X4.1397Y-4.6213
X4.1494Y-4.5945
X4.1608Y-3.723
X4.1705Y-3.6962
X4.3068Y-2.1196
X4.3154Y-2.0959
X4.3305Y-2.1282
X4.3391Y-2.1045
X4.3459Y-2.9906
X4.3545Y-2.9669
X4.3696Y-2.9992
X4.3782Y-2.9755
X4.3839Y-5.7704
X4.3983Y-5.7497
X4.4045Y-5.7848
X4.419Y-5.7642
X4.4451Y-3.9325
X4.4537Y-3.9088
X4.4688Y-3.9411
X4.4774Y-3.9174
X4.4842Y-4.8035
X4.4928Y-4.7798
X4.5079Y-4.8121
X4.5165Y-4.7884
X4.6527Y-3.2118
X4.6625Y-3.185
X4.6738Y-2.3135
X4.6836Y-2.2867
X4.6882Y-6.0527
X4.7046Y-6.0293
X4.8017Y-4.9953
X4.8115Y-4.9685
X4.8121Y-4.1264
X4.8219Y-4.0996
X4.9581Y-2.5229
X4.9667Y-2.4992
X4.9818Y-2.5315
X4.9904Y-2.5079
X4.9972Y-3.3939
X5.0058Y-3.3703
X5.0182Y-6.2895
X5.0209Y-3.4026
X5.0295Y-3.3789
X5.0344Y-6.3089
X5.0375Y-6.2734
X5.0537Y-6.2927
X5.1071Y-4.3064
X5.1157Y-4.2828
X5.1308Y-4.3151
X5.1394Y-4.2914
X5.1462Y-5.1775
X5.1548Y-5.1538
X5.1699Y-5.1861
X5.1785Y-5.1624
X5.2391Y-6.641
X5.2609Y-6.6227
X5.3147Y-3.5858
X5.3245Y-3.5589
X5.3251Y-2.7168
X5.3349Y-2.69
X5.3544Y-5.1224
X5.3822Y-5.1325
X5.4741Y-4.5004
X5.4839Y-4.4735
X5.5545Y-4.5732
X5.5822Y-4.5833
X5.6201Y-2.8969
X5.6287Y-2.8732
X5.6438Y-2.9055
X5.6524Y-2.8818
X5.6592Y-3.7679
X5.6678Y-3.7442
X5.6829Y-3.7765
X5.6915Y-3.7529
X5.86Y-6.9517
X5.8665Y-6.9274
X5.8675Y-3.7129
X5.8844Y-6.9582
X5.8909Y-6.9339
X5.8952Y-3.723
X5.9872Y-3.0908
X5.9969Y-3.064
X6.0675Y-3.1636
X6.0839Y-5.3156
X6.0839Y-5.2904
X6.0952Y-3.1737
X6.1091Y-5.3156
X6.1091Y-5.2904
X6.1212Y-4.8098
X6.1212Y-4.8354
X6.1372Y-4.9043
X6.1468Y-4.8098
X6.1468Y-4.8354
X6.1657Y-4.9043
X6.2426Y-7.1129
X6.2499Y-7.0853
X6.2529Y-5.6544
X6.2672Y-5.6297
X6.2815Y-1.176
X6.2815Y-1.2098
X6.2972Y-1.4683
X6.2972Y-1.4939
X6.2972Y-1.5195
X6.3228Y-1.4683
X6.3228Y-1.4939
X6.3228Y-1.5195
X6.3484Y-1.4683
X6.3484Y-1.5195
X6.3484Y-1.4939
X6.3749Y-4.4344
X6.3819Y-1.234
X6.3819Y-1.2596
X6.3873Y-4.4558
X6.3994Y-4.4202
X6.4075Y-1.234
X6.4075Y-1.2596
X6.4118Y-4.4417
X6.4331Y-1.234
X6.4331Y-1.2596
X6.4587Y-1.234
X6.4587Y-1.2596
X6.4923Y-7.1585
X6.4923Y-7.1841
X6.5043Y-1.4683
X6.5043Y-1.5195
X6.5043Y-1.4939
X6.5179Y-7.1585
X6.5179Y-7.1841
X6.5213Y-1.705
X6.5213Y-2.3297
X6.5299Y-1.5195
X6.5299Y-1.4683
X6.5299Y-1.4939
X6.5555Y-1.4683
X6.5555Y-1.5195
X6.5555Y-1.4939
X6.5705Y-3.7679
X6.6356Y-5.9365
X6.6482Y-5.9147
X6.6484Y-1.9309
X6.6574Y-5.9491
X6.6658Y-1.6084
X6.67Y-5.9273
X6.6831Y-2.4378
X6.6883Y-4.3521
X6.6909Y-1.2526
X6.6934Y-1.6084
X6.711Y-4.3394
X6.7146Y-1.2526
X6.7234Y-1.7665
X6.7234Y-1.6277
X6.724Y-1.6691
X6.7392Y-2.7065
X6.7392Y-2.8167
X6.7392Y-2.7341
X6.7392Y-2.7616
X6.7392Y-2.7892
X6.7392Y-2.8443
X6.7394Y-7.1151
X6.7394Y-7.0899
X6.7589Y-1.297
X6.7646Y-7.1151
X6.7646Y-7.0899
X6.7795Y-3.7681
X6.7864Y-1.297
X6.8228Y-1.053
X6.8228Y-1.0274
X6.8307Y-1.5421
X6.8452Y-4.5441
X6.8452Y-4.4457
X6.8583Y-1.5421
X6.876Y-2.2414
X6.878Y-0.8364
X6.878Y-0.864
X6.878Y-0.8915
X6.9055Y-0.8364
X6.9154Y-2.2301
X6.9183Y-3.0608
X6.9189Y-4.2614
X6.9193Y-1.1023
X6.9193Y-1.1818
X6.9193Y-1.293
X6.9331Y-0.8364
X6.9606Y-0.8364
X6.9606Y-0.864
X6.9606Y-0.8915
X6.9665Y-2.3669
X6.9665Y-2.1858
X6.9665Y-2.3118
X6.9665Y-2.1583
X6.9665Y-2.2843
X6.9665Y-2.3394
X6.9665Y-2.1305
X6.9894Y-1.5213
X6.9941Y-2.3669
X7.0136Y-1.488
X7.0157Y-1.0274
X7.0157Y-1.053
X7.0179Y-2.0926
X7.0217Y-2.3669
X7.0295Y-1.5215
X7.0374Y-4.2614
X7.0699Y-1.5215
X7.0958Y-5.9039
X7.0984Y-1.4685
X7.0994Y-2.7065
X7.0994Y-2.8167
X7.0994Y-2.7341
X7.0994Y-2.7616
X7.0994Y-2.7892
X7.0994Y-2.8443
X7.11Y-5.9286
X7.1122Y-2.1305
X7.128Y-1.7429
X7.1398Y-2.1307
X7.1398Y-2.3669
X7.1506Y-7.1718
X7.1506Y-7.1433
X7.1654Y-4.2087
X7.1673Y-2.1307
X7.1673Y-2.3669
X7.1686Y-4.344
X7.1812Y-4.3222
X7.1823Y-4.9904
X7.1904Y-4.3566
X7.1949Y-2.1307
X7.1949Y-2.1858
X7.1949Y-2.3394
X7.1949Y-2.3669
X7.1949Y-2.1583
X7.1949Y-2.3118
X7.1949Y-2.2843
X7.2028Y-4.7301
X7.2028Y-4.7587
X7.203Y-4.3348
X7.2067Y-2.6711
X7.2303Y-4.7587
X7.2303Y-4.7301
X7.2717Y-4.2362
X7.3193Y-1.9309
X7.3268Y-4.2283
X7.3583Y-4.2854
X7.375Y-1.6575
X7.375Y-1.6831
X7.4006Y-1.6831
X7.4252Y-4.5709
X7.4262Y-1.6831
X7.4268Y-5.8296
X7.4392Y-5.8511
X7.4513Y-5.8154
X7.4518Y-1.6831
X7.4637Y-5.8369
X7.5714Y-4.6416
X7.5857Y-4.6168
X7.6254Y-7.0202
X7.6319Y-7.0446
X7.6498Y-7.0137
X7.6563Y-7.0381
X7.6728Y-5.3669
X7.7014Y-5.3669
X7.7295Y-4.9809
X7.7295Y-4.9557
X7.7434Y-3.1737
X7.7547Y-4.9809
X7.7547Y-4.9557
X7.7712Y-3.1636
X7.8717Y-2.9963
X7.8803Y-3.02
X7.8954Y-2.9877
X7.904Y-3.0113
X7.9433Y-3.723
X7.971Y-3.7129
X8.0364Y-6.9653
X8.0438Y-6.9929
X8.0794Y-3.7172
X8.0892Y-3.744
X8.2565Y-4.5832
X8.2764Y-2.9058
X8.2842Y-4.5731
X8.2861Y-2.9326
X8.3847Y-4.4058
X8.3933Y-4.4295
X8.4084Y-4.3972
X8.417Y-4.4209
X8.4563Y-5.1326
X8.4615Y-3.6384
X8.4701Y-3.6621
X8.4841Y-5.1225
X8.4852Y-3.6298
X8.4938Y-3.6535
X8.5337Y-2.6223
X8.5423Y-2.646
X8.5574Y-2.6137
X8.566Y-2.6374
X8.5696Y-6.549
X8.5858Y-6.5297
X8.5889Y-6.5652
X8.5924Y-5.1267
X8.6022Y-5.1535
X8.6051Y-6.5459
X8.7414Y-3.3432
X8.7512Y-3.37
X8.7894Y-4.3153
X8.7992Y-4.3421
X8.8748Y-6.2682
X8.8967Y-6.2866
X8.9384Y-2.5318
X8.9481Y-2.5586
X8.9746Y-5.0479
X8.9832Y-5.0716
X8.9982Y-5.0393
X9.0069Y-5.063
X9.0467Y-4.0319
X9.0554Y-4.0555
X9.0704Y-4.0232
X9.079Y-4.0469
X9.1235Y-3.2644
X9.1322Y-3.2881
X9.1449Y-5.9559
X9.1472Y-3.2558
X9.1558Y-3.2795
X9.1593Y-5.9765
X9.1655Y-5.9414
X9.1799Y-5.9621
X9.185Y-2.219
X9.1937Y-2.2426
X9.2087Y-2.2104
X9.2173Y-2.234
X9.2544Y-4.7527
X9.2642Y-4.7795
X9.3927Y-2.9398
X9.4025Y-2.9667
X9.4514Y-3.9413
X9.4612Y-3.9682
X9.5123Y-5.7637
X9.5287Y-5.7871
X9.5897Y-2.1285
X9.5995Y-2.1553
X9.6366Y-4.674
X9.6452Y-4.6976
X9.6603Y-4.6653
X9.6689Y-4.689
X9.6981Y-3.6285
X9.7067Y-3.6522
X9.7217Y-3.6199
X9.7304Y-3.6436
X9.7749Y-2.8611
X9.7835Y-2.8848
X9.7985Y-2.8525
X9.8072Y-2.8761
X9.8588Y-5.5321
X9.8674Y-5.5558
X9.8825Y-5.5235
X9.8911Y-5.5471
X9.9058Y-4.3494
X9.9155Y-4.3762
X9.9433Y-2.1093
X9.9519Y-2.133
X9.9669Y-2.1007
X9.9755Y-2.1243
X10.1027Y-3.538
X10.1125Y-3.5648
X10.1509Y-2.8301
X10.1607Y-2.857
X10.2634Y-5.4412
X10.2731Y-5.468
X10.2879Y-4.2706
X10.2965Y-4.2943
X10.3116Y-4.262
X10.3202Y-4.2857
X10.3479Y-2.0188
X10.3577Y-2.0456
X10.4563Y-3.5188
X10.4649Y-3.5425
X10.48Y-3.5102
X10.4886Y-3.5339
X10.5331Y-2.7514
X10.5417Y-2.7751
X10.5568Y-2.7428
X10.5654Y-2.7664
X10.664Y-4.2397
X10.6737Y-4.2665
X10.7121Y-2.029
X10.7208Y-2.0526
X10.7358Y-2.0203
X10.7444Y-2.044
X10.8609Y-3.4283
X10.8707Y-3.4551
X10.9198Y-2.7498
X10.9296Y-2.7766
X10.9693Y-4.9284
X10.9779Y-4.952
X10.993Y-4.9197
X11.0016Y-4.9434
X11.0461Y-4.1609
X11.0547Y-4.1846
X11.0698Y-4.1523
X11.0784Y-4.176
X11.1168Y-1.9384
X11.1266Y-1.9653
X11.2252Y-3.4385
X11.2338Y-3.4622
X11.2489Y-3.4299
X11.2575Y-3.4536
X11.302Y-2.6711
X11.3106Y-2.6947
X11.3257Y-2.6624
X11.3343Y-2.6861
X11.374Y-4.8378
X11.3837Y-4.8647
X11.4329Y-4.1594
X11.4426Y-4.1862
X11.449Y-1.8605
X11.4576Y-1.8842
X11.4727Y-1.8519
X11.4813Y-1.8756
X11.6298Y-3.348
X11.6396Y-3.3748
X11.6567Y-2.5814
X11.6664Y-2.6082
X11.7382Y-4.848
X11.7468Y-4.8717
X11.7619Y-4.8394
X11.7705Y-4.8631
X11.815Y-4.0806
X11.8236Y-4.1043
X11.8387Y-4.072
X11.8473Y-4.0957
X11.8536Y-1.77
X11.8634Y-1.7968
X11.962Y-3.2701
X11.9706Y-3.2938
X11.9857Y-3.2615
X11.9943Y-3.2851
X12.0388Y-2.5026
X12.0474Y-2.5263
X12.0625Y-2.494
X12.0711Y-2.5177
X12.1429Y-4.7575
X12.1526Y-4.7843
X12.1697Y-3.9909
X12.1795Y-4.0178
X12.3667Y-3.1796
X12.3764Y-3.2064
X12.475Y-4.6796
X12.4837Y-4.7033
X12.4987Y-4.671
X12.5073Y-4.6947
X12.5518Y-3.9122
X12.5605Y-3.9359
X12.5755Y-3.9036
X12.5841Y-3.9272
X12.8797Y-4.5891
X12.8895Y-4.6159
T3
X6.9154Y-1.8404
X6.9154Y-1.8915
X6.9154Y-1.9427
X6.9665Y-1.8404
X6.9665Y-1.8915
X6.9665Y-1.9427
X7.0177Y-1.8404
X7.0177Y-1.8915
X7.0177Y-1.9427
T5
X6.7087Y-4.9478
X6.7087Y-5.0179
X6.7087Y-5.088
X6.7087Y-5.1581
X6.7087Y-5.2281
X6.7087Y-5.2982
X6.7087Y-5.3683
X6.7087Y-5.4384
X7.1299Y-4.9128
X7.1299Y-4.9829
X7.1299Y-5.053
X7.1299Y-5.123
X7.1299Y-5.1931
X7.1299Y-5.2632
X7.1299Y-5.3333
X7.1299Y-5.4033
T6
X5.9764Y-1.4034
X5.9764Y-1.4821
X5.9764Y-1.5609
X5.9764Y-1.6396
X5.9764Y-1.7183
X5.9764Y-1.7971
X5.9764Y-1.8758
T7
X6.1319Y-1.3395
X6.1319Y-1.4395
X6.1319Y-1.5395
X6.1319Y-1.6395
X6.1319Y-1.7395
X6.1319Y-1.8395
X6.1319Y-1.9395
X6.7657Y-2.4821
X6.8657Y-2.4821
X6.9657Y-2.4821
X7.0657Y-2.4821
T8
X6.8209Y-3.9309
X6.9193Y-3.9309
X7.0177Y-3.9309
T10
X6.1417Y-1.0096
X6.1417Y-2.2695
X6.3248Y-4.1059
X6.3248Y-6.1653
X7.5138Y-4.1059
X7.5138Y-6.1653
X7.6969Y-1.0096
X7.6969Y-2.2695
T11
X6.3484Y-5.1356
X7.4902Y-5.1356
T4
G00X6.7492Y-0.797
M15
G01X6.7492Y-0.7734
M16
G05
G00X6.7492Y-0.9715
M15
G01X6.7492Y-0.9281
M16
G05
G00X7.0894Y-0.797
M15
G01X7.0894Y-0.7734
M16
G05
G00X7.0894Y-0.9715
M15
G01X7.0894Y-0.9281
M16
G05
T9
G00X5.7343Y-5.0667
M15
G01X5.7343Y-5.2045
M16
G05
G00X8.1043Y-5.0667
M15
G01X8.1043Y-5.2045
M16
G05
T0
M30
