M48
; DRILL file {KiCad (7.0.0)} date Fri Mar 10 23:57:20 2023
; FORMAT={-:-/ absolute / inch / decimal}
; #@! TF.CreationDate,2023-03-10T23:57:20+00:00
; #@! TF.GenerationSoftware,Kicad,Pcbnew,(7.0.0)
; #@! TF.FileFunction,NonPlated,1,2,NPTH
FMAT,2
INCH
; #@! TA.AperFunction,NonPlated,NPTH,ComponentDrill
T1C0.0256
; #@! TA.AperFunction,NonPlated,NPTH,ComponentDrill
T2C0.0454
; #@! TA.AperFunction,NonPlated,NPTH,ComponentDrill
T3C0.0689
; #@! TA.AperFunction,NonPlated,NPTH,ComponentDrill
T4C0.0787
; #@! TA.AperFunction,NonPlated,NPTH,ComponentDrill
T5C0.1181
; #@! TA.AperFunction,NonPlated,NPTH,ComponentDrill
T6C0.1570
%
G90
G05
T1
X6.776Y-0.9114
X7.0035Y-0.9114
T2
X2.1496Y-1.1793
X6.8898Y-7.3486
X11.624Y-1.1813
T3
X1.0272Y-4.3942
X1.2837Y-3.6894
X1.4031Y-4.531
X1.5403Y-2.9846
X1.6596Y-3.8262
X1.7641Y-4.5626
X1.7968Y-2.2799
X1.9161Y-3.1214
X2.0206Y-3.8578
X2.0533Y-1.5751
X2.1399Y-4.6994
X2.1727Y-2.4167
X2.2771Y-3.153
X2.3965Y-3.9946
X2.4292Y-1.7119
X2.533Y-4.6429
X2.5336Y-2.4483
X2.653Y-3.2899
X2.7895Y-3.9381
X2.7901Y-1.7435
X2.9088Y-4.7797
X2.9095Y-2.5851
X3.046Y-3.2334
X3.1654Y-4.0749
X3.166Y-1.8803
X3.3025Y-2.5286
X3.4219Y-3.3702
X3.5477Y-4.0478
X3.559Y-1.8238
X3.6434Y-5.2466
X3.6784Y-2.6654
X3.8042Y-3.3431
X3.9236Y-4.1846
X3.9349Y-1.9606
X4.0193Y-5.3834
X4.0607Y-2.6383
X4.1801Y-3.4799
X4.199Y-4.4512
X4.3172Y-1.9335
X4.4366Y-2.7751
X4.4372Y-5.6002
X4.4555Y-3.7464
X4.5749Y-4.588
X4.6931Y-2.0703
X4.712Y-3.0416
X4.7649Y-5.8296
X4.8314Y-3.8832
X4.861Y-4.8251
X4.9686Y-2.3369
X5.0879Y-3.1784
X5.1077Y-6.146
X5.1175Y-4.1204
X5.2369Y-4.962
X5.3444Y-2.4737
X5.3648Y-6.4524
X5.3741Y-3.4156
X5.4934Y-4.2572
X5.6306Y-2.7108
X5.7499Y-3.5524
X5.8556Y-6.7628
X6.0065Y-2.8476
X6.242Y-6.8663
X6.6898Y-6.9256
X7.0898Y-6.9256
X7.5375Y-6.8663
X7.7731Y-2.8476
X7.9239Y-6.7628
X8.0296Y-3.5524
X8.149Y-2.7108
X8.2861Y-4.2572
X8.4055Y-3.4156
X8.4147Y-6.4524
X8.4351Y-2.4737
X8.5426Y-4.962
X8.662Y-4.1204
X8.6719Y-6.146
X8.6916Y-3.1784
X8.811Y-2.3369
X8.9185Y-4.8251
X8.9481Y-3.8832
X9.0147Y-5.8296
X9.0675Y-3.0416
X9.0864Y-2.0703
X9.2046Y-4.588
X9.324Y-3.7464
X9.3423Y-5.6002
X9.3429Y-2.7751
X9.4623Y-1.9335
X9.5805Y-4.4512
X9.5994Y-3.4799
X9.7188Y-2.6383
X9.7602Y-5.3834
X9.8446Y-1.9606
X9.856Y-4.1846
X9.9753Y-3.3431
X10.1011Y-2.6654
X10.1361Y-5.2466
X10.2205Y-1.8238
X10.2318Y-4.0478
X10.3577Y-3.3702
X10.477Y-2.5286
X10.6135Y-1.8803
X10.6142Y-4.0749
X10.7335Y-3.2334
X10.87Y-2.5851
X10.8707Y-4.7797
X10.9894Y-1.7435
X10.9901Y-3.9381
X11.1266Y-3.2899
X11.2459Y-2.4483
X11.2466Y-4.6429
X11.3504Y-1.7119
X11.3831Y-3.9946
X11.5024Y-3.153
X11.6069Y-2.4167
X11.6396Y-4.6994
X11.7262Y-1.5751
X11.759Y-3.8578
X11.8634Y-3.1214
X11.9828Y-2.2799
X12.0155Y-4.5626
X12.1199Y-3.8262
X12.2393Y-2.9846
X12.3764Y-4.531
X12.4958Y-3.6894
X12.7523Y-4.3942
T4
X5.8858Y-5.1181
X7.8937Y-5.1181
T5
X1.1084Y-4.3173
X1.3649Y-3.6125
X1.3775Y-4.3088
X1.6214Y-2.9078
X1.6341Y-3.6041
X1.8452Y-4.4857
X1.878Y-2.203
X1.8906Y-2.8993
X2.1018Y-3.7809
X2.1144Y-4.4773
X2.1345Y-1.4982
X2.1471Y-2.1945
X2.3583Y-3.0762
X2.3709Y-3.7725
X2.4036Y-1.4898
X2.6141Y-4.566
X2.6148Y-2.3714
X2.6274Y-3.0677
X2.8707Y-3.8613
X2.8713Y-1.6666
X2.8833Y-4.5576
X2.8839Y-2.3629
X3.1272Y-3.1565
X3.1398Y-3.8528
X3.1404Y-1.6582
X3.3837Y-2.4517
X3.3963Y-3.148
X3.6289Y-3.971
X3.6402Y-1.747
X3.6528Y-2.4433
X3.7246Y-5.1698
X3.8854Y-3.2662
X3.898Y-3.9625
X3.9093Y-1.7385
X3.9938Y-5.1613
X4.1419Y-2.5614
X4.1545Y-3.2577
X4.2802Y-4.3743
X4.3984Y-1.8566
X4.411Y-2.553
X4.5355Y-5.5469
X4.5367Y-3.6695
X4.5493Y-4.3658
X4.6675Y-1.8482
X4.7932Y-2.9648
X4.7977Y-5.6084
X4.8058Y-3.6611
X4.9422Y-4.7483
X5.0497Y-2.26
X5.0624Y-2.9563
X5.1987Y-4.0435
X5.2113Y-4.7398
X5.2164Y-6.12
X5.3189Y-2.2515
X5.4537Y-6.2473
X5.4552Y-3.3387
X5.4679Y-4.035
X5.7118Y-2.634
X5.7244Y-3.3303
X5.9298Y-6.6792
X5.9809Y-2.6255
X6.1972Y-6.6473
X6.7398Y-6.8256
X6.9898Y-6.7256
X7.5599Y-6.7568
X7.7755Y-6.5955
X7.7859Y-2.7366
X7.9866Y-2.5571
X8.0424Y-3.4413
X8.2431Y-3.2619
X8.2989Y-4.1461
X8.3703Y-6.3498
X8.4479Y-2.3626
X8.4544Y-6.0941
X8.4996Y-3.9666
X8.5554Y-4.8509
X8.6486Y-2.1831
X8.7044Y-3.0674
X8.7561Y-4.6714
X8.9051Y-2.8879
X8.9609Y-3.7721
X8.9983Y-5.719
X9.0992Y-1.9593
X9.1457Y-5.4937
X9.1616Y-3.5927
X9.2174Y-4.4769
X9.2999Y-1.7798
X9.3557Y-2.664
X9.4181Y-4.2974
X9.5564Y-2.4845
X9.6122Y-3.3688
X9.773Y-5.2724
X9.813Y-3.1893
X9.8574Y-1.8496
X9.8687Y-4.0736
X9.9737Y-5.0929
X10.0581Y-1.6701
X10.0695Y-3.8941
X10.1139Y-2.5543
X10.3146Y-2.3749
X10.3704Y-3.2591
X10.5712Y-3.0796
X10.6263Y-1.7692
X10.627Y-3.9639
X10.827Y-1.5898
X10.8277Y-3.7844
X10.8828Y-2.474
X10.8835Y-4.6686
X11.0835Y-2.2945
X11.0842Y-4.4892
X11.1393Y-3.1788
X11.3401Y-2.9993
X11.3631Y-1.6008
X11.3959Y-3.8836
X11.5639Y-1.4213
X11.5966Y-3.7041
X11.6197Y-2.3056
X11.6524Y-4.5883
X11.8204Y-2.1261
X11.8531Y-4.4088
X11.8762Y-3.0104
X12.0769Y-2.8309
X12.1327Y-3.7151
X12.3334Y-3.5357
X12.3892Y-4.4199
X12.5899Y-4.2404
T6
X1.2152Y-4.4626
X1.4717Y-3.7578
X1.7282Y-3.053
X1.952Y-4.631
X1.9847Y-2.3483
X2.2085Y-3.9262
X2.2412Y-1.6435
X2.465Y-3.2214
X2.7209Y-4.7113
X2.7215Y-2.5167
X2.9774Y-4.0065
X2.9781Y-1.8119
X3.2339Y-3.3018
X3.4904Y-2.597
X3.7356Y-4.1162
X3.747Y-1.8922
X3.8314Y-5.315
X3.9921Y-3.4115
X4.2487Y-2.7067
X4.387Y-4.5196
X4.5052Y-2.0019
X4.601Y-5.7149
X4.6435Y-3.8148
X4.9Y-3.11
X5.049Y-4.8935
X5.1565Y-2.4053
X5.2362Y-6.2992
X5.3055Y-4.1888
X5.562Y-3.484
X5.8185Y-2.7792
X6.0488Y-6.8146
X6.8898Y-6.9256
X7.7307Y-6.8146
X7.961Y-2.7792
X8.2175Y-3.484
X8.474Y-4.1888
X8.5433Y-6.2992
X8.623Y-2.4053
X8.7306Y-4.8935
X8.8795Y-3.11
X9.1361Y-3.8148
X9.1785Y-5.7149
X9.2744Y-2.0019
X9.3926Y-4.5196
X9.5309Y-2.7067
X9.7874Y-3.4115
X9.9481Y-5.315
X10.0326Y-1.8922
X10.0439Y-4.1162
X10.2891Y-2.597
X10.5456Y-3.3018
X10.8015Y-1.8119
X10.8021Y-4.0065
X11.058Y-2.5167
X11.0586Y-4.7113
X11.3145Y-3.2214
X11.5383Y-1.6435
X11.571Y-3.9262
X11.7948Y-2.3483
X11.8275Y-4.631
X12.0513Y-3.053
X12.3078Y-3.7578
X12.5644Y-4.4626
T0
M30
