0
SECTION
2
HEADER
9
$INSUNITS
70
4
9
$ACADVER
1
AC1014
9
$HANDSEED
5
FFFF
0
ENDSEC
0
SECTION
2
TABLES
0
TABLE
2
VPORT
5
8
100
AcDbSymbolTable
0
ENDTAB
0
TABLE
2
LTYPE
5
5
100
AcDbSymbolTable
0
LTYPE
5
14
100
AcDbSymbolTableRecord
100
AcDbLinetypeTableRecord
2
BYBLOCK
70
0
0
LTYPE
5
15
100
AcDbSymbolTableRecord
100
AcDbLinetypeTableRecord
2
BYLAYER
70
0
0
ENDTAB
0
TABLE
2
LAYER
5
2
100
AcDbSymbolTable
70
2
0
LAYER
5
50
100
AcDbSymbolTableRecord
100
AcDbLayerTableRecord
2
0
70
0
6
CONTINUOUS
0
ENDTAB
0
TABLE
2
STYLE
5
3
100
AcDbSymbolTable
70
1
0
STYLE
5
11
100
AcDbSymbolTableRecord
100
AcDbTextStyleTableRecord
2
STANDARD
70
0
0
ENDTAB
0
TABLE
2
VIEW
5
6
100
AcDbSymbolTable
70
0
0
ENDTAB
0
TABLE
2
UCS
5
7
100
AcDbSymbolTable
70
0
0
ENDTAB
0
TABLE
2
APPID
5
9
100
AcDbSymbolTable
70
2
0
APPID
5
12
100
AcDbSymbolTableRecord
100
AcDbRegAppTableRecord
2
ACAD
70
0
0
ENDTAB
0
TABLE
2
DIMSTYLE
5
A
100
AcDbSymbolTable
70
1
0
ENDTAB
0
TABLE
2
BLOCK_RECORD
5
1
100
AcDbSymbolTable
70
1
0
BLOCK_RECORD
5
1F
100
AcDbSymbolTableRecord
100
AcDbBlockTableRecord
2
*MODEL_SPACE
0
BLOCK_RECORD
5
1B
100
AcDbSymbolTableRecord
100
AcDbBlockTableRecord
2
*PAPER_SPACE
0
ENDTAB
0
ENDSEC
0
SECTION
2
BLOCKS
0
BLOCK
5
20
100
AcDbEntity
100
AcDbBlockBegin
2
*MODEL_SPACE
0
ENDBLK
5
21
100
AcDbEntity
100
AcDbBlockEnd
0
BLOCK
5
1C
100
AcDbEntity
100
AcDbBlockBegin
2
*PAPER_SPACE
0
ENDBLK
5
1D
100
AcDbEntity
100
AcDbBlockEnd
0
ENDSEC
0
SECTION
2
ENTITIES
0
LWPOLYLINE
5
100
100
AcDbEntity
8
0
100
AcDbPolyline
90
8
70
1
43
0.0
10
46.950012207588649
20
52.593994141249638
10
56.143005371760296
20
43.401000977077956
42
-0.41412571801471004
10
56.143005371760317
20
42.69400024464769
10
46.950012207588628
20
33.501998901765106
42
-0.41412571801468068
10
46.243011475158369
20
33.501998901765084
10
37.050994873486701
20
42.694000244647668
42
-0.41412571801471015
10
37.050994873486722
20
43.40100097707797
10
46.243011475158355
20
52.593994141249652
42
-0.41412571801468068
0
LWPOLYLINE
5
101
100
AcDbEntity
8
0
100
AcDbPolyline
90
8
70
1
43
0.0
10
117.20199585100104
20
0.59599304199931424
42
0.41444474065587789
10
117.81500244280514
20
0.94900512696444617
10
121.17898559714199
20
13.505996704261989
42
0.41443842905204958
10
120.82598877096594
20
14.119003296066133
10
108.26901245245743
20
17.483001709192045
42
0.41443842905204958
10
107.65600586065329
20
17.130004883015992
10
104.29199218873833
20
4.5729980469293707
42
0.41442746889888421
10
104.64498901491442
20
3.9600067139142681
0
LWPOLYLINE
5
102
100
AcDbEntity
8
0
100
AcDbPolyline
90
8
70
1
43
0.0
10
24.666000366503695
20
27.649002075523725
42
0.41419931279147071
10
25.348999023738354
20
27.832000732752491
10
31.848999023815558
20
39.091003418433026
42
0.41419931279147004
10
31.666000366586786
20
39.774002075667667
10
20.406997680906258
20
46.274002075744889
42
0.41419931279147004
10
19.723999023671581
20
46.091003418516152
10
13.223999023594395
20
34.832000732835589
42
0.41419931279147004
10
13.406997680823132
20
34.149002075600912
0
LWPOLYLINE
5
103
100
AcDbEntity
8
0
100
AcDbPolyline
90
8
70
1
43
0.0
10
136.83599853678103
20
0.26499938965166342
42
0.41413282455120265
10
137.44799804850712
20
0.61900329590584446
10
140.81298828292205
20
13.1759948732034
42
0.41412016897297199
10
140.45901489424594
20
13.787994384929476
10
127.90200805815935
20
17.152999878133457
42
0.41413282455125228
10
127.29000854643324
20
16.798995971879194
10
123.92498779444026
20
4.2420043945816843
42
0.4141328245512067
10
124.27899170069445
20
3.6300048828557507
0
LWPOLYLINE
5
104
100
AcDbEntity
8
0
100
AcDbPolyline
90
8
70
1
43
0.0
10
136.13101196450708
20
-75.969001770921608
42
0.41413282455116152
10
136.74301147623308
20
-75.61499786466743
10
140.10800171064801
20
-63.057998657975318
42
0.4141328245511765
10
139.7539978043938
20
-62.445999146249292
10
127.19699096830723
20
-59.0810012824398
42
0.41371582591824813
10
126.58499145658119
20
-59.433998108615867
10
123.22000122216622
20
-71.991996765991573
42
0.41413282455120937
10
123.57400512842048
20
-72.603996277717599
0
LWPOLYLINE
5
105
100
AcDbEntity
8
0
100
AcDbPolyline
90
8
70
1
43
0.0
10
52.959991455706863
20
-18.348007202366254
42
0.41485564111903489
10
53.572998047511035
20
-17.994003296112052
10
56.937011719425996
20
-5.4369964600254228
42
0.41371582591823081
10
56.584014893249908
20
-4.8249969482994182
10
44.026992798374245
20
-1.4600067138844608
42
0.41483834656543589
10
43.414001465359142
20
-1.813995361349594
10
40.050003052233265
20
-14.371002197436216
42
0.41371582591821804
10
40.402999878409318
20
-14.98300170916222
0
LWPOLYLINE
5
106
100
AcDbEntity
8
0
100
AcDbPolyline
90
8
70
1
43
0.0
10
57.890991211624794
20
0.05299377441474469
42
0.41413282455122646
10
58.502990723350891
20
0.40699768066896791
10
61.868011475343927
20
12.964004516755594
42
0.41413282455118661
10
61.514007569089699
20
13.576004028481599
10
48.957000733003078
20
16.940994262896574
42
0.41412649661153694
10
48.345001221277073
20
16.587005615431423
10
44.979995728073057
20
4.0299987793448011
42
0.41413282455118661
10
45.333999634327284
20
3.4179992676187965
0
LWPOLYLINE
5
107
100
AcDbEntity
8
0
100
AcDbPolyline
90
8
70
1
43
0.0
10
82.98300170996967
20
-53.510002136865836
42
0.41413282455118927
10
83.595001221695725
20
-53.155998230611644
10
86.959991456110657
20
-40.598999023919546
42
0.41413282455120937
10
86.605987549856394
20
-39.98699951219352
10
74.049011231347919
20
-36.622001648384042
42
0.41412966054372113
10
73.43701171962195
20
-36.975997925243718
10
70.071990967628821
20
-49.532997131935801
42
0.41413282455119937
10
70.425994873883042
20
-50.144996643661841
0
LWPOLYLINE
5
108
100
AcDbEntity
8
0
100
AcDbPolyline
90
8
70
1
43
0.0
10
131.90499878086314
20
-18.134994507051232
42
0.41443842905202571
10
132.51800537266726
20
-17.781997680875168
10
135.88198852700407
20
-5.2250061035775985
42
0.41371582591823075
10
135.52899170082804
20
-4.6130065918516294
10
122.97198486474144
20
-1.2480010986475776
42
0.4144165091038009
10
122.35900879051549
20
-1.6009979248236306
10
118.99499511860043
20
-14.158004760910252
42
0.41442746889893717
10
119.34799194477655
20
-14.770996093925355
0
LWPOLYLINE
5
109
100
AcDbEntity
8
0
100
AcDbPolyline
90
8
70
1
43
0.0
10
107.34100341924329
20
-36.20600128216816
42
0.41444158481635401
10
107.95401001104743
20
-35.852996826597575
10
111.31799316538427
20
-23.294998169221888
42
0.41371582591819794
10
110.96499633920821
20
-22.682998657495848
10
98.407989503121598
20
-19.317993164291849
42
0.41483371465349383
10
97.79501342889553
20
-19.671997070546041
10
94.430999756980611
20
-32.228996277238124
42
0.41372129433788396
10
94.783996583156664
20
-32.841003418358682
0
LWPOLYLINE
5
110
100
AcDbEntity
8
0
100
AcDbPolyline
90
8
70
1
43
0.0
10
48.029998779867071
20
-36.749000549752736
42
0.41413282455119799
10
48.641998291593104
20
-36.394996643498544
10
52.006988526008087
20
-23.837997436806457
42
0.41412016897300219
10
51.653015137331977
20
-23.225997925080399
10
39.095993042456314
20
-19.860992431876419
42
0.41413282455119926
10
38.483993530730274
20
-20.214996338130611
10
35.119003296315334
20
-32.772003174217232
42
0.41413282455118927
10
35.473007202569562
20
-33.384002685943258
0
LWPOLYLINE
5
111
100
AcDbEntity
8
0
100
AcDbPolyline
90
8
70
1
43
0.0
10
15.313003540220755
20
67.550003052560044
42
0.41421356237309503
10
14.813003540214815
20
68.050003052565984
10
9.0630035401465392
20
68.050003052565984
42
0.41421356237309503
10
8.5630035401405991
20
67.550003052560044
10
8.5630035401405991
20
54.550003052405671
42
0.41421356237309503
10
9.0630035401465392
20
54.050003052399731
10
14.813003540214815
20
54.050003052399731
42
0.41421356237309503
10
15.313003540220755
20
54.550003052405671
0
LWPOLYLINE
5
112
100
AcDbEntity
8
0
100
AcDbPolyline
90
8
70
1
43
0.0
10
141.06100464034682
20
-57.568000794140595
42
0.41485564111905499
10
141.67401123215106
20
-57.213996887886374
10
145.03900146656599
20
-44.656997681194298
42
0.41413282455116651
10
144.68499756031179
20
-44.0449981694683
10
132.12799072422519
20
-40.68000030565878
42
0.41412966054376404
10
131.5159912124991
20
-41.033996582518441
10
128.1510009780842
20
-53.591003418605077
42
0.4137158259182408
10
128.50399780426022
20
-54.203002930331067
0
LWPOLYLINE
5
113
100
AcDbEntity
8
0
100
AcDbPolyline
90
8
70
1
43
0.0
10
155.85299682802253
20
-2.3650054931920828
42
0.41413282455116257
10
156.46499633974852
20
-2.0110015869378972
10
159.82998657416346
20
10.546005249148749
42
0.41412016897297199
10
159.47601318548743
20
11.158004760874753
10
146.91900634940083
20
14.522994995289729
42
0.41412649661160272
10
146.30700683767472
20
14.169006347824542
10
142.94198608568166
20
1.611999511737956
42
0.4141328245512067
10
143.29598999193593
20
1.0000000000119513
0
LWPOLYLINE
5
114
100
AcDbEntity
8
0
100
AcDbPolyline
90
8
70
1
43
0.0
10
102.41101074340349
20
-54.60700225894918
42
0.41413282455118927
10
103.02301025512955
20
-54.252998352694988
10
106.38800048954448
20
-41.69599914600289
42
0.41413282455120937
10
106.03399658329022
20
-41.083999634276864
10
93.476989747203618
20
-37.719001770467386
42
0.41412966054372113
10
92.864990235477649
20
-38.072998047327061
10
89.500000001062688
20
-50.629997254019145
42
0.4141328245511765
10
89.854003907316866
20
-51.241996765745164
0
LWPOLYLINE
5
115
100
AcDbEntity
8
0
100
AcDbPolyline
90
8
70
1
43
0.0
10
92.843994141727393
20
-16.707992553909286
42
0.41371582591821177
10
93.455993653453362
20
-16.354995727733208
10
96.821014405446491
20
-3.7980041504356521
42
0.41485564111901718
10
96.46701049919227
20
-3.1849975586315082
10
83.910003663105641
20
0.17900085449436909
42
0.41371582591821066
10
83.298004151379672
20
-0.17399597168168413
10
79.933013916964697
20
-12.731002807768306
42
0.41483201572564299
10
80.286987305640764
20
-13.343994140783355
0
LWPOLYLINE
5
116
100
AcDbEntity
8
0
100
AcDbPolyline
90
8
70
1
43
0.0
10
117.11401367326559
20
-73.337997437394264
42
0.41371582591821798
10
117.72601318499154
20
-72.985000611218197
10
121.0910034194066
20
-60.428001404526128
42
0.41485015936802017
10
120.73699951315241
20
-59.815002442116452
10
108.17999267706571
20
-56.450996399596072
42
0.41371898007444413
10
107.56799316533969
20
-56.804000855166663
10
104.20300293092478
20
-69.361000061858761
42
0.41413282455118927
10
104.557006837179
20
-69.972999573584787
0
LWPOLYLINE
5
117
100
AcDbEntity
8
0
100
AcDbPolyline
90
8
70
1
43
0.0
10
112.27200317516122
20
-17.804992675992626
42
0.41371582591821549
10
112.88400268688719
20
-17.451995849816541
10
116.24899292130223
20
-4.8950042725190102
42
0.41485564111904999
10
115.89498901504797
20
-4.2819976807148308
10
103.33801269653947
20
-0.91799926758897121
42
0.41371582591821066
10
102.7260131848135
20
-1.2709960937650244
10
99.36099243282041
20
-13.828002929851646
42
0.41484467770680683
10
99.714996339074588
20
-14.440994262866713
0
LWPOLYLINE
5
118
100
AcDbEntity
8
0
100
AcDbPolyline
90
8
70
1
43
0.0
10
145.9920043962648
20
-39.166999817359581
42
0.41412966054370337
10
146.60400390799072
20
-38.813003540499899
10
149.96899414240573
20
-26.255996704413285
42
0.41413282455116651
10
149.61499023615153
20
-25.64399719268728
10
137.05801391764305
20
-22.279006958272323
42
0.41412649661157785
10
136.446014405917
20
-22.632995605737491
10
133.08099365392394
20
-35.190002441824078
42
0.41413282455120937
10
133.4349975601782
20
-35.802001953550104
0
LWPOLYLINE
5
119
100
AcDbEntity
8
0
100
AcDbPolyline
90
8
70
1
43
0.0
10
65.683013916795474
20
20.723999023683675
42
0.41418710328450203
10
66.365997315241117
20
20.906997680912408
10
72.865997315318253
20
32.166000366592975
42
0.41419604153724737
10
72.683013916878565
20
32.848999023827652
10
61.424011231198037
20
39.348999023904838
42
0.414211522676593
10
60.740997315174248
20
39.166000366676101
10
54.240997315097097
20
27.906997680995538
42
0.41420258432606605
10
54.42401123111491
20
27.223999023760861
0
LWPOLYLINE
5
120
100
AcDbEntity
8
0
100
AcDbPolyline
90
8
70
1
43
0.0
10
97.480010987485571
20
-73.0080032357302
42
0.41483371465350122
10
98.092987061711611
20
-72.653999329475994
10
101.45700073362654
20
-60.097000122783903
42
0.4137158259182509
10
101.10400390745042
20
-59.485000611057899
10
88.546997071363833
20
-56.120002747248385
42
0.41485247548579995
10
87.933990479559654
20
-56.473999024108053
10
84.570007325222889
20
-69.030998230800151
42
0.41371582591823081
10
84.92300415139897
20
-69.642997742526163
0
LWPOLYLINE
5
121
100
AcDbEntity
8
0
100
AcDbPolyline
90
8
70
1
43
0.0
10
87.766998292057707
20
13.412994384924986
42
0.41413282455118927
10
88.378997803783776
20
13.766998291179178
10
91.743988038198694
20
26.324005127265799
42
0.41412016897297199
10
91.390014649522612
20
26.936004638991839
10
78.833007813435998
20
30.300994873406779
42
0.41412649661155704
10
78.221008301709958
20
29.947006225941628
10
74.8559875497169
20
17.389999389855006
42
0.41413282455118661
10
75.209991455971135
20
16.777999878129002
0
LWPOLYLINE
5
122
100
AcDbEntity
8
0
100
AcDbPolyline
90
8
70
1
43
0.0
10
60.678985596423551
20
-63.147003174577932
42
0.41413282455118661
10
61.290985108149592
20
-62.79299926832374
10
64.656005860142642
20
-50.236000061631643
42
0.41413282455118927
10
64.302001953888421
20
-49.624000549905617
10
51.744995117801835
20
-46.259002686096139
42
0.41412966054373657
10
51.132995606075795
20
-46.6129989629558
10
47.768005371660855
20
-59.169998169647897
42
0.41371582591821804
10
48.121002197836908
20
-59.781997681373902
0
LWPOLYLINE
5
123
100
AcDbEntity
8
0
100
AcDbPolyline
90
8
70
1
43
0.0
10
43.098999023949141
20
-55.15000152653375
42
0.41485564111902223
10
43.71200561575332
20
-54.79599762027955
10
47.075988770090156
20
-42.238998413587474
42
0.41371582591821804
10
46.722991943914067
20
-41.626998901861434
10
34.166000366616522
20
-38.262001038051956
42
0.41443842905205963
10
33.552993774812379
20
-38.61499786422803
10
30.188995361686466
20
-51.171997070920114
42
0.41444474065593279
10
30.542007446651596
20
-51.78500366272425
0
LWPOLYLINE
5
124
100
AcDbEntity
8
0
100
AcDbPolyline
90
8
70
1
43
0.0
10
65.609008789841454
20
-44.746002197796919
42
0.4141328245511765
10
66.221008301567508
20
-44.391998291542748
10
69.585998535982441
20
-31.835006714245182
42
0.41413282455120937
10
69.231994629728206
20
-31.223007202519124
10
56.674987793641627
20
-27.858001709315126
42
0.4141328245511765
10
56.062988281915587
20
-28.2120056155693
10
52.697998047500647
20
-40.768997192866877
42
0.4141328245511765
10
53.052001953754839
20
-41.380996704592903
0
LWPOLYLINE
5
125
100
AcDbEntity
8
0
100
AcDbPolyline
90
8
70
1
43
0.0
10
122.04400634910542
20
-54.936996460613244
42
0.41443842905202949
10
122.65701294090952
20
-54.583999634437191
10
126.02099609524636
20
-42.027000427745108
42
0.41443294893072952
10
125.66799926907031
20
-41.414001465335488
10
113.11099243298372
20
-38.050003052209611
42
0.41443842905208239
10
112.49798584117954
20
-38.402999878385664
10
109.13400268684271
20
-50.959999085077747
42
0.41443294893073962
10
109.48699951301879
20
-51.572998047487353
0
LWPOLYLINE
5
126
100
AcDbEntity
8
0
100
AcDbPolyline
90
8
70
1
43
0.0
10
126.97500610502331
20
-36.536003113226769
42
0.41371898007444396
10
127.58700561674934
20
-36.182998657656171
10
130.95199585116433
20
-23.626007080358633
42
0.41485564111904999
10
130.59799194491006
20
-23.013000488554454
10
118.04098510882348
20
-19.649002075428594
42
0.4137158259182207
10
117.42898559709751
20
-20.001998901604665
10
114.06399536268246
20
-32.558998108296734
42
0.41485015936805303
10
114.41799926893673
20
-33.171997070706411
0
LWPOLYLINE
5
127
100
AcDbEntity
8
0
100
AcDbPolyline
90
8
70
1
43
0.0
10
87.912994385809469
20
-35.109001160084823
42
0.41444158481635401
10
88.526000977613606
20
-34.755996704514232
10
91.890014649528553
20
-22.199005127216687
42
0.41445105256091458
10
91.536987305774346
20
-21.585998535412525
10
78.980010987265842
20
-18.220993042208509
42
0.41485564111901452
10
78.367004395461748
20
-18.574996948462719
10
75.002990723546759
20
-31.132003784549322
42
0.41371582591823081
10
75.35598754972284
20
-31.744003296275327
0
LWPOLYLINE
5
128
100
AcDbEntity
8
0
100
AcDbPolyline
90
8
70
1
43
0.0
10
70.540008545759392
20
-26.345001221015902
42
0.41371582591822326
10
71.152008057485418
20
-25.992004394839846
10
74.516998291900364
20
-13.434005737464165
42
0.4141328245511765
10
74.162994385646186
20
-12.822006225738143
10
61.605987549559558
20
-9.4570007325341265
42
0.41413282455119926
10
60.993988037833518
20
-9.8110046387883187
10
57.628997803418578
20
-22.367996216085864
42
0.41371582591821804
10
57.981994629594631
20
-22.979995727811868
0
LWPOLYLINE
5
129
100
AcDbEntity
8
0
100
AcDbPolyline
90
8
70
1
43
0.0
10
75.470001221599176
20
-7.9440002442349034
42
0.41371582591820999
10
76.082000733325216
20
-7.5910034180588504
10
79.446990967740163
20
4.966003418027789
42
0.41484467770681954
10
79.092987061485971
20
5.5789947510428917
10
66.536010742977467
20
8.9429931641687688
42
0.41371582591822342
10
65.924011231251427
20
8.5899963379927158
10
62.55899047925837
20
-3.9669952393048469
42
0.41485564111900713
10
62.912994385512562
20
-4.5800018311090085
0
LWPOLYLINE
5
130
100
AcDbEntity
8
0
100
AcDbPolyline
90
8
70
1
43
0.0
10
78.052001954051747
20
-71.911003113646856
42
0.41485564111902723
10
78.665008545855926
20
-71.55699920739265
10
82.028991700192719
20
-59.000000000700567
42
0.41371582591820805
10
81.675994874016624
20
-58.388000488974541
10
69.118988037930009
20
-55.023002625165049
42
0.41483054906994637
10
68.506011963703941
20
-55.376998902024752
10
65.141998291789037
20
-67.933998108716821
42
0.4137158259182509
10
65.494995117965146
20
-68.545997620442819
0
LWPOLYLINE
5
131
100
AcDbEntity
8
0
100
AcDbPolyline
90
8
70
1
43
0.0
10
138.01199340984192
20
-16.789001465043061
42
0.41371582591823142
10
138.36499023601795
20
-17.401000976769033
10
150.92300415218267
20
-20.7660064699731
42
0.41413282455121136
10
151.53500366390873
20
-20.41200256371889
10
154.89999389832371
20
-7.8549957276322679
42
0.41413282455116651
10
154.54598999206951
20
-7.2429962159062633
10
141.989013673561
20
-3.8780059814913059
42
0.41412649661158724
10
141.37701416183495
20
-4.2319946289564392
0
LWPOLYLINE
5
132
100
AcDbEntity
8
0
100
AcDbPolyline
90
8
70
1
43
0.0
10
6.5000000000770441
20
55.050003052411611
10
-6.5000000000770441
20
55.050003052411611
42
-0.41421356237309503
10
-7.0000000000829843
20
55.550003052417551
10
-7.0000000000829843
20
68.550003052571924
42
-0.41421356237309503
10
-6.5000000000770441
20
69.050003052577864
10
6.5000000000770441
20
69.050003052577864
42
-0.41421356237309503
10
7.0000000000829843
20
68.550003052571924
10
7.0000000000829843
20
55.550003052417551
42
-0.41421356237309503
0
LWPOLYLINE
5
133
100
AcDbEntity
8
0
100
AcDbPolyline
90
8
70
1
43
0.0
10
-138.36499023601795
20
-17.401000976769033
42
0.41371582591823142
10
-138.01199340984192
20
-16.789001465043061
10
-141.37701416183495
20
-4.2319946289564321
42
0.41412649661158585
10
-141.989013673561
20
-3.8780059814913059
10
-154.54598999206951
20
-7.2429962159062704
42
0.41413282455116546
10
-154.89999389832371
20
-7.8549957276322679
10
-151.53500366390878
20
-20.412002563718904
42
0.41413282455121192
10
-150.92300415218267
20
-20.7660064699731
0
LWPOLYLINE
5
134
100
AcDbEntity
8
0
100
AcDbPolyline
90
8
70
1
43
0.0
10
-78.665008545855926
20
-71.55699920739265
42
0.41485564111902723
10
-78.052001954051747
20
-71.911003113646856
10
-65.494995117965146
20
-68.545997620442833
42
0.41371582591825223
10
-65.141998291789037
20
-67.933998108716821
10
-68.506011963703955
20
-55.376998902024738
42
0.414830549069935
10
-69.118988037930009
20
-55.023002625165049
10
-81.675994874016624
20
-58.388000488974534
42
0.41371582591820932
10
-82.028991700192719
20
-59.000000000700567
0
LWPOLYLINE
5
135
100
AcDbEntity
8
0
100
AcDbPolyline
90
8
70
1
43
0.0
10
-76.082000733325216
20
-7.5910034180588495
42
0.41371582591820999
10
-75.470001221599176
20
-7.9440002442349034
10
-62.912994385512569
20
-4.5800018311090005
42
0.41485564111901096
10
-62.55899047925837
20
-3.9669952393048469
10
-65.924011231251441
20
8.5899963379927122
42
0.41371582591822326
10
-66.536010742977467
20
8.9429931641687688
10
-79.092987061485971
20
5.5789947510428739
42
0.41484467770681688
10
-79.446990967740163
20
4.9660034180277899
0
LWPOLYLINE
5
136
100
AcDbEntity
8
0
100
AcDbPolyline
90
8
70
1
43
0.0
10
-71.152008057485418
20
-25.992004394839846
42
0.41371582591822326
10
-70.540008545759392
20
-26.345001221015902
10
-57.981994629594624
20
-22.979995727811886
42
0.41371582591821571
10
-57.628997803418578
20
-22.367996216085864
10
-60.993988037833525
20
-9.8110046387883205
42
0.41413282455119921
10
-61.605987549559558
20
-9.4570007325341265
10
-74.162994385646186
20
-12.822006225738145
42
0.41413282455117623
10
-74.516998291900364
20
-13.434005737464165
0
LWPOLYLINE
5
137
100
AcDbEntity
8
0
100
AcDbPolyline
90
8
70
1
43
0.0
10
-88.526000977613606
20
-34.755996704514232
42
0.41444158481635401
10
-87.912994385809469
20
-35.109001160084823
10
-75.35598754972284
20
-31.744003296275331
42
0.41371582591823142
10
-75.002990723546759
20
-31.132003784549322
10
-78.36700439546172
20
-18.574996948462715
42
0.41485564111901468
10
-78.980010987265842
20
-18.220993042208509
10
-91.536987305774375
20
-21.585998535412514
42
0.41445105256090592
10
-91.890014649528553
20
-22.199005127216687
0
LWPOLYLINE
5
138
100
AcDbEntity
8
0
100
AcDbPolyline
90
8
70
1
43
0.0
10
-127.58700561674934
20
-36.182998657656171
42
0.41371898007444396
10
-126.97500610502331
20
-36.536003113226769
10
-114.41799926893673
20
-33.171997070706411
42
0.41485015936805369
10
-114.06399536268246
20
-32.558998108296734
10
-117.42898559709752
20
-20.001998901604665
42
0.41371582591821798
10
-118.04098510882348
20
-19.649002075428594
10
-130.59799194491006
20
-23.013000488554457
42
0.41485564111904932
10
-130.95199585116433
20
-23.626007080358633
0
LWPOLYLINE
5
139
100
AcDbEntity
8
0
100
AcDbPolyline
90
8
70
1
43
0.0
10
-122.65701294090952
20
-54.583999634437191
42
0.41443842905202949
10
-122.04400634910542
20
-54.936996460613244
10
-109.48699951301879
20
-51.572998047487353
42
0.41443294893073962
10
-109.13400268684271
20
-50.959999085077747
10
-112.49798584117953
20
-38.402999878385657
42
0.41443842905208261
10
-113.11099243298372
20
-38.050003052209611
10
-125.66799926907031
20
-41.414001465335488
42
0.41443294893072952
10
-126.02099609524636
20
-42.027000427745108
0
LWPOLYLINE
5
140
100
AcDbEntity
8
0
100
AcDbPolyline
90
8
70
1
43
0.0
10
-66.221008301567508
20
-44.391998291542748
42
0.4141328245511765
10
-65.609008789841454
20
-44.746002197796919
10
-53.052001953754839
20
-41.380996704592903
42
0.4141328245511765
10
-52.697998047500647
20
-40.768997192866877
10
-56.062988281915587
20
-28.2120056155693
42
0.4141328245511765
10
-56.674987793641627
20
-27.858001709315126
10
-69.231994629728248
20
-31.223007202519138
42
0.41413282455118727
10
-69.585998535982441
20
-31.835006714245182
0
LWPOLYLINE
5
141
100
AcDbEntity
8
0
100
AcDbPolyline
90
8
70
1
43
0.0
10
-43.71200561575332
20
-54.79599762027955
42
0.41485564111902223
10
-43.098999023949141
20
-55.15000152653375
10
-30.542007446651596
20
-51.78500366272425
42
0.41444474065593279
10
-30.188995361686466
20
-51.171997070920114
10
-33.552993774812364
20
-38.614997864228023
42
0.41443842905205985
10
-34.166000366616522
20
-38.262001038051956
10
-46.722991943914074
20
-41.626998901861413
42
0.41371582591821576
10
-47.075988770090156
20
-42.238998413587474
0
LWPOLYLINE
5
142
100
AcDbEntity
8
0
100
AcDbPolyline
90
8
70
1
43
0.0
10
-61.290985108149592
20
-62.79299926832374
42
0.41413282455118661
10
-60.678985596423551
20
-63.147003174577932
10
-48.121002197836901
20
-59.781997681373923
42
0.41371582591821571
10
-47.768005371660855
20
-59.169998169647897
10
-51.132995606075824
20
-46.612998962955807
42
0.41412966054373751
10
-51.744995117801835
20
-46.259002686096139
10
-64.302001953888421
20
-49.624000549905638
42
0.41413282455118661
10
-64.656005860142642
20
-50.236000061631643
0
LWPOLYLINE
5
143
100
AcDbEntity
8
0
100
AcDbPolyline
90
8
70
1
43
0.0
10
-88.378997803783776
20
13.766998291179178
42
0.41413282455118927
10
-87.766998292057707
20
13.412994384924986
10
-75.209991455971135
20
16.777999878128998
42
0.41413282455118694
10
-74.8559875497169
20
17.389999389855006
10
-78.221008301709944
20
29.947006225941632
42
0.41412649661155726
10
-78.833007813435998
20
30.300994873406779
10
-91.390014649522598
20
26.936004638991836
42
0.41412016897298137
10
-91.743988038198694
20
26.324005127265799
0
LWPOLYLINE
5
144
100
AcDbEntity
8
0
100
AcDbPolyline
90
8
70
1
43
0.0
10
-98.092987061711611
20
-72.653999329475994
42
0.41483371465350122
10
-97.480010987485571
20
-73.0080032357302
10
-84.92300415139897
20
-69.642997742526163
42
0.41371582591823081
10
-84.570007325222889
20
-69.030998230800151
10
-87.933990479559668
20
-56.473999024108053
42
0.41485247548579729
10
-88.546997071363833
20
-56.120002747248385
10
-101.10400390745042
20
-59.485000611057892
42
0.41371582591825223
10
-101.45700073362654
20
-60.097000122783903
0
LWPOLYLINE
5
145
100
AcDbEntity
8
0
100
AcDbPolyline
90
8
70
1
43
0.0
10
-66.365997315241117
20
20.906997680912408
42
0.41418710328450203
10
-65.683013916795474
20
20.723999023683675
10
-54.424011231114903
20
27.223999023760843
42
0.41420258432606677
10
-54.240997315097097
20
27.906997680995538
10
-60.740997315174226
20
39.166000366676109
42
0.41421152267659361
10
-61.424011231198037
20
39.348999023904838
10
-72.683013916878565
20
32.848999023827652
42
0.41419604153724737
10
-72.865997315318253
20
32.166000366592975
0
LWPOLYLINE
5
146
100
AcDbEntity
8
0
100
AcDbPolyline
90
8
70
1
43
0.0
10
-146.60400390799072
20
-38.813003540499899
42
0.41412966054370337
10
-145.9920043962648
20
-39.166999817359581
10
-133.4349975601782
20
-35.802001953550096
42
0.4141328245512087
10
-133.08099365392394
20
-35.190002441824078
10
-136.44601440591705
20
-22.632995605737488
42
0.41412649661156731
10
-137.05801391764305
20
-22.279006958272323
10
-149.61499023615153
20
-25.643997192687287
42
0.41413282455116512
10
-149.96899414240573
20
-26.255996704413285
0
LWPOLYLINE
5
147
100
AcDbEntity
8
0
100
AcDbPolyline
90
8
70
1
43
0.0
10
-112.88400268688719
20
-17.451995849816541
42
0.41371582591821549
10
-112.27200317516122
20
-17.804992675992626
10
-99.714996339074588
20
-14.440994262866706
42
0.41484467770680578
10
-99.36099243282041
20
-13.828002929851646
10
-102.72601318481351
20
-1.2709960937650258
42
0.41371582591820877
10
-103.33801269653947
20
-0.91799926758897143
10
-115.89498901504797
20
-4.281997680714837
42
0.4148556411190491
10
-116.24899292130223
20
-4.8950042725190102
0
LWPOLYLINE
5
148
100
AcDbEntity
8
0
100
AcDbPolyline
90
8
70
1
43
0.0
10
-117.72601318499154
20
-72.985000611218197
42
0.41371582591821798
10
-117.11401367326559
20
-73.337997437394264
10
-104.557006837179
20
-69.972999573584772
42
0.41413282455118661
10
-104.20300293092478
20
-69.361000061858761
10
-107.5679931653397
20
-56.80400085516667
42
0.41371898007444641
10
-108.17999267706571
20
-56.450996399596072
10
-120.73699951315241
20
-59.815002442116452
42
0.41485015936802017
10
-121.0910034194066
20
-60.428001404526128
0
LWPOLYLINE
5
149
100
AcDbEntity
8
0
100
AcDbPolyline
90
8
70
1
43
0.0
10
-93.455993653453362
20
-16.354995727733208
42
0.41371582591821177
10
-92.843994141727393
20
-16.707992553909286
10
-80.286987305640764
20
-13.343994140783352
42
0.41483201572564238
10
-79.933013916964697
20
-12.731002807768306
10
-83.298004151379686
20
-0.17399597168168565
42
0.41371582591820882
10
-83.910003663105641
20
0.17900085449436887
10
-96.46701049919227
20
-3.1849975586315118
42
0.41485564111901668
10
-96.821014405446491
20
-3.7980041504356521
0
LWPOLYLINE
5
150
100
AcDbEntity
8
0
100
AcDbPolyline
90
8
70
1
43
0.0
10
-103.02301025512955
20
-54.252998352694988
42
0.41413282455118927
10
-102.41101074340349
20
-54.60700225894918
10
-89.854003907316866
20
-51.241996765745164
42
0.4141328245511765
10
-89.500000001062688
20
-50.629997254019145
10
-92.864990235477649
20
-38.072998047327054
42
0.41412966054371858
10
-93.476989747203618
20
-37.719001770467386
10
-106.03399658329025
20
-41.083999634276879
42
0.41413282455118661
10
-106.38800048954448
20
-41.69599914600289
0
LWPOLYLINE
5
151
100
AcDbEntity
8
0
100
AcDbPolyline
90
8
70
1
43
0.0
10
-156.46499633974852
20
-2.0110015869378977
42
0.41413282455116257
10
-155.85299682802253
20
-2.3650054931920828
10
-143.29598999193593
20
1.00000000001194
42
0.41413282455120837
10
-142.94198608568166
20
1.611999511737956
10
-146.30700683767472
20
14.169006347824542
42
0.41412649661160272
10
-146.91900634940083
20
14.522994995289729
10
-159.4760131854874
20
11.158004760874746
42
0.41412016897298104
10
-159.82998657416346
20
10.546005249148749
0
LWPOLYLINE
5
152
100
AcDbEntity
8
0
100
AcDbPolyline
90
8
70
1
43
0.0
10
-141.67401123215106
20
-57.213996887886374
42
0.41485564111905499
10
-141.06100464034682
20
-57.568000794140595
10
-128.50399780426022
20
-54.203002930331074
42
0.41371582591824219
10
-128.1510009780842
20
-53.591003418605077
10
-131.5159912124991
20
-41.033996582518441
42
0.41412966054376404
10
-132.12799072422519
20
-40.68000030565878
10
-144.68499756031179
20
-44.044998169468307
42
0.41413282455116512
10
-145.03900146656599
20
-44.656997681194298
0
LWPOLYLINE
5
153
100
AcDbEntity
8
0
100
AcDbPolyline
90
8
70
1
43
0.0
10
-14.813003540214815
20
68.050003052565984
42
0.41421356237309503
10
-15.313003540220755
20
67.550003052560044
10
-15.313003540220755
20
54.550003052405671
42
0.41421356237309503
10
-14.813003540214815
20
54.050003052399731
10
-9.0630035401465392
20
54.050003052399731
42
0.41421356237309503
10
-8.5630035401405991
20
54.550003052405671
10
-8.5630035401405991
20
67.550003052560044
42
0.41421356237309503
10
-9.0630035401465392
20
68.050003052565984
0
LWPOLYLINE
5
154
100
AcDbEntity
8
0
100
AcDbPolyline
90
8
70
1
43
0.0
10
-48.641998291593104
20
-36.394996643498544
42
0.41413282455119799
10
-48.029998779867071
20
-36.749000549752736
10
-35.473007202569562
20
-33.384002685943237
42
0.41413282455118661
10
-35.119003296315334
20
-32.772003174217232
10
-38.483993530730281
20
-20.214996338130611
42
0.41413282455119799
10
-39.095993042456314
20
-19.860992431876419
10
-51.653015137331977
20
-23.225997925080392
42
0.41412016897300347
10
-52.006988526008087
20
-23.837997436806457
0
LWPOLYLINE
5
155
100
AcDbEntity
8
0
100
AcDbPolyline
90
8
70
1
43
0.0
10
-107.95401001104743
20
-35.852996826597575
42
0.41444158481635401
10
-107.34100341924329
20
-36.20600128216816
10
-94.783996583156664
20
-32.841003418358682
42
0.41372129433788396
10
-94.430999756980611
20
-32.228996277238124
10
-97.795013428895544
20
-19.671997070546041
42
0.41483371465349117
10
-98.407989503121598
20
-19.317993164291849
10
-110.96499633920821
20
-22.682998657495837
42
0.41371582591819933
10
-111.31799316538427
20
-23.294998169221888
0
LWPOLYLINE
5
156
100
AcDbEntity
8
0
100
AcDbPolyline
90
8
70
1
43
0.0
10
-132.51800537266726
20
-17.781997680875168
42
0.41443842905202571
10
-131.90499878086314
20
-18.134994507051232
10
-119.34799194477655
20
-14.770996093925357
42
0.4144274688989375
10
-118.99499511860043
20
-14.158004760910252
10
-122.35900879051545
20
-1.600997924823619
42
0.41441650910379968
10
-122.97198486474144
20
-1.2480010986475776
10
-135.52899170082804
20
-4.6130065918516268
42
0.41371582591823119
10
-135.88198852700407
20
-5.2250061035775985
0
LWPOLYLINE
5
157
100
AcDbEntity
8
0
100
AcDbPolyline
90
8
70
1
43
0.0
10
-83.595001221695725
20
-53.155998230611644
42
0.41413282455118927
10
-82.98300170996967
20
-53.510002136865836
10
-70.425994873883042
20
-50.144996643661834
42
0.41413282455119799
10
-70.071990967628821
20
-49.532997131935801
10
-73.43701171962195
20
-36.975997925243711
42
0.41412966054371858
10
-74.049011231347919
20
-36.622001648384042
10
-86.605987549856422
20
-39.986999512193542
42
0.41413282455118661
10
-86.959991456110657
20
-40.598999023919546
0
LWPOLYLINE
5
158
100
AcDbEntity
8
0
100
AcDbPolyline
90
8
70
1
43
0.0
10
-58.502990723350891
20
0.40699768066896691
42
0.41413282455122646
10
-57.890991211624794
20
0.052993774414744621
10
-45.333999634327284
20
3.4179992676187942
42
0.41413282455118694
10
-44.979995728073057
20
4.0299987793448011
10
-48.345001221277066
20
16.587005615431426
42
0.41412649661153705
10
-48.957000733003078
20
16.940994262896574
10
-61.514007569089699
20
13.5760040284816
42
0.41413282455118694
10
-61.868011475343927
20
12.964004516755594
0
LWPOLYLINE
5
159
100
AcDbEntity
8
0
100
AcDbPolyline
90
8
70
1
43
0.0
10
-53.572998047511035
20
-17.994003296112052
42
0.41485564111903489
10
-52.959991455706863
20
-18.348007202366254
10
-40.402999878409311
20
-14.983001709162236
42
0.41371582591821537
10
-40.050003052233265
20
-14.371002197436216
10
-43.414001465359135
20
-1.8139953613495916
42
0.41483834656543583
10
-44.026992798374245
20
-1.4600067138844608
10
-56.584014893249908
20
-4.8249969482994155
42
0.41371582591823119
10
-56.937011719425996
20
-5.4369964600254228
0
LWPOLYLINE
5
160
100
AcDbEntity
8
0
100
AcDbPolyline
90
8
70
1
43
0.0
10
-136.74301147623308
20
-75.61499786466743
42
0.41413282455116152
10
-136.13101196450708
20
-75.969001770921608
10
-123.57400512842048
20
-72.603996277717584
42
0.41413282455120803
10
-123.22000122216622
20
-71.991996765991573
10
-126.58499145658118
20
-59.43399810861586
42
0.41371582591824585
10
-127.19699096830723
20
-59.0810012824398
10
-139.7539978043938
20
-62.445999146249292
42
0.4141328245511765
10
-140.10800171064801
20
-63.057998657975318
0
LWPOLYLINE
5
161
100
AcDbEntity
8
0
100
AcDbPolyline
90
8
70
1
43
0.0
10
-137.44799804850712
20
0.61900329590584369
42
0.41413282455120265
10
-136.83599853678103
20
0.26499938965166336
10
-124.27899170069445
20
3.6300048828557396
42
0.41413282455120837
10
-123.92498779444026
20
4.2420043945816843
10
-127.29000854643324
20
16.798995971879226
42
0.41413282455123468
10
-127.90200805815935
20
17.152999878133457
10
-140.45901489424591
20
13.787994384929469
42
0.41412016897298104
10
-140.81298828292205
20
13.1759948732034
0
LWPOLYLINE
5
162
100
AcDbEntity
8
0
100
AcDbPolyline
90
8
70
1
43
0.0
10
-25.348999023738354
20
27.832000732752491
42
0.41419931279147071
10
-24.666000366503695
20
27.649002075523725
10
-13.406997680823121
20
34.14900207560089
42
0.4141993127914696
10
-13.223999023594395
20
34.832000732835589
10
-19.72399902367156
20
46.091003418516166
42
0.41419931279146688
10
-20.406997680906258
20
46.274002075744889
10
-31.666000366586793
20
39.774002075667681
42
0.41419931279147071
10
-31.848999023815558
20
39.091003418433026
0
LWPOLYLINE
5
163
100
AcDbEntity
8
0
100
AcDbPolyline
90
8
70
1
43
0.0
10
-117.81500244280514
20
0.94900512696444528
42
0.41444474065587789
10
-117.20199585100104
20
0.59599304199931424
10
-104.64498901491442
20
3.9600067139142725
42
0.41442746889888349
10
-104.29199218873833
20
4.5729980469293707
10
-107.65600586065327
20
17.130004883015996
42
0.41443842905204975
10
-108.26901245245743
20
17.483001709192045
10
-120.82598877096594
20
14.119003296066149
42
0.41443842905205192
10
-121.17898559714199
20
13.505996704261989
0
LWPOLYLINE
5
164
100
AcDbEntity
8
0
100
AcDbPolyline
90
8
70
1
43
0.0
10
-56.143005371760317
20
43.40100097707797
10
-46.950012207588649
20
52.593994141249638
42
-0.41412571801468068
10
-46.243011475158355
20
52.593994141249652
10
-37.050994873486722
20
43.40100097707797
42
-0.41412571801471004
10
-37.050994873486701
20
42.694000244647668
10
-46.243011475158369
20
33.501998901765084
42
-0.41412571801468068
10
-46.950012207588628
20
33.501998901765106
10
-56.143005371760339
20
42.694000244647668
42
-0.41412571801471004
0
LWPOLYLINE
5
165
100
AcDbEntity
8
0
100
AcDbPolyline
90
8
70
1
43
0.0
10
6.5000000000770441
20
36.000000000427583
10
-6.5000000000770441
20
36.000000000427583
42
-0.41421356237309503
10
-7.0000000000829843
20
36.500000000433523
10
-7.0000000000829843
20
49.500000000587896
42
-0.41421356237309503
10
-6.5000000000770441
20
50.000000000593836
10
6.5000000000770441
20
50.000000000593836
42
-0.41421356237309503
10
7.0000000000829843
20
49.500000000587896
10
7.0000000000829843
20
36.500000000433523
42
-0.41421356237309503
0
LINE
5
166
100
AcDbEntity
8
0
100
AcDbLine
10
-32.360118830625105
20
75.598007203341012
30
4.768371808516747e-08
11
-9.3601188306250993
21
75.598007203341012
31
4.768371808516747e-08
0
ELLIPSE
5
167
100
AcDbEntity
8
0
100
AcDbEllipse
10
-9.3601188306250975
20
74.59800720334097
30
4.768371808516747e-08
11
-0.70710678118654491
21
0.70710678118657166
31
0.0
40
1
41
2.3561944901924252
42
5.4977871437821584
0
LINE
5
168
100
AcDbEntity
8
0
100
AcDbLine
10
-9.3601188306250354
20
73.598007203340956
30
4.768371808516747e-08
11
-32.854214554224754
21
73.598007203340998
31
4.7683719195390495e-08
0
SPLINE
5
169
100
AcDbEntity
8
0
100
AcDbSpline
70
0
71
3
72
12
73
8
74
0
42
0.000000001
43
0.0000000001
44
0.0000000001
40
0
40
0
40
0
40
0
40
0.11719334201607898
40
0.11719334201607898
40
0.19905701036998494
40
0.19905701036998494
40
0.28092067872389082
40
0.28092067872389082
40
0.28092067872389082
40
0.28092067872389082
10
-32.854214554224754
20
73.598007203340998
30
4.768371808516747e-08
10
-33.244859027611682
20
73.598007203340998
30
4.768371808516747e-08
10
-33.63176872691534
20
73.521705651047128
30
4.768371808516747e-08
10
-34.245614128726061
20
73.269798758673915
30
4.768371808516747e-08
10
-34.482751412234769
20
73.132238959351795
30
4.7683719195390495e-08
10
-34.913267144316201
20
72.7968171820132
30
4.7683719195390495e-08
10
-35.104639665927046
20
72.600518054170678
30
4.768371808516747e-08
10
-35.266826199652051
20
72.381067787939543
30
4.768371808516747e-08
0
ARC
5
170
100
AcDbEntity
8
0
100
AcDbCircle
10
-118.3507347912018
20
133.78491738999946
30
4.768371808516747e-08
40
103.31199646121162
210
0
220
0
230
1
100
AcDbArc
50
285.97467805035217
51
323.53343969919274
0
LINE
5
171
100
AcDbEntity
8
0
100
AcDbLine
10
-89.917982175354339
20
34.462476866785288
30
4.768371808516747e-08
11
-117.91483625950661
21
26.968000903239854
31
4.768371808516747e-08
0
ARC
5
172
100
AcDbEntity
8
0
100
AcDbCircle
10
-118.17342163085695
20
27.933989311929935
30
4.768371808516747e-08
40
0.99999999999999867
210
0
220
0
230
1
100
AcDbArc
50
104.98613963345385
51
284.98613963345224
0
LINE
5
173
100
AcDbEntity
8
0
100
AcDbLine
10
-118.43200700220731
20
28.899977720620015
30
4.768371808516747e-08
11
-96.214273599485196
21
34.847441262440441
31
4.768371808516747e-08
0
ARC
5
174
100
AcDbEntity
8
0
100
AcDbCircle
10
-96.472858970835517
20
35.813429671130528
30
4.768371808516747e-08
40
0.99999999999999811
210
0
220
0
230
1
100
AcDbArc
50
-75.013860366548656
51
14.986139577104298
0
LINE
5
175
100
AcDbEntity
8
0
100
AcDbLine
10
-95.506870561891134
20
36.072015041530854
30
4.768371808516747e-08
11
-95.843032789937212
21
37.327804629761239
31
-2.6057230928522301e-07
0
ARC
5
176
100
AcDbEntity
8
0
100
AcDbCircle
10
-98.740998016769908
20
36.552048518560497
30
-8.7818821793031755e-06
40
3.0000000000000115
210
9.9257249809014022e-08
220
2.657016633856911e-08
230
0.99999999999999478
100
AcDbArc
50
14.986139577104643
51
104.98613957710438
0
LINE
5
177
100
AcDbEntity
8
0
100
AcDbLine
10
-99.516754127971382
20
39.450013745393427
30
4.768371808516747e-08
11
-156.51007025569066
21
24.193476891773713
31
4.768371808516747e-08
0
ARC
5
178
100
AcDbEntity
8
0
100
AcDbCircle
10
-155.73431414448964
20
21.295511664940534
30
4.768371808516747e-08
40
2.9999999999999956
210
0
220
0
230
1
100
AcDbArc
50
104.98613957710495
51
194.98613957710452
0
LINE
5
179
100
AcDbEntity
8
0
100
AcDbLine
10
-158.63227937132282
20
20.519755553739536
30
4.768371808516747e-08
11
-158.29611712725563
21
19.263965905659649
31
-2.6057230928522301e-07
0
ARC
5
180
100
AcDbEntity
8
0
100
AcDbCircle
10
-157.33012871830428
20
19.522551276063666
30
4.53399990798422e-05
40
1.0000000000000411
210
-2.977717494270307e-07
220
-7.9710499015705461e-08
230
0.99999999999995248
100
AcDbArc
50
194.98613957710407
51
284.98613963345213
0
LINE
5
181
100
AcDbEntity
8
0
100
AcDbLine
10
-157.07154334696091
20
18.556562867369898
30
4.768371808516747e-08
11
-134.85355005908355
21
24.504095977829898
31
4.768371808516747e-08
0
ARC
5
182
100
AcDbEntity
8
0
100
AcDbCircle
10
-134.59496468773321
20
23.5381075691398
30
4.768371808516747e-08
40
1.0000000000000013
210
0
220
0
230
1
100
AcDbArc
50
-75.013860366551256
51
104.98613963345201
0
LINE
5
183
100
AcDbEntity
8
0
100
AcDbLine
10
-134.33637931638293
20
22.572119160449695
30
4.768371808516747e-08
11
-162.60282290844995
21
15.005476799886226
31
4.768371808516747e-08
0
ARC
5
184
100
AcDbEntity
8
0
100
AcDbCircle
10
-161.82706679439895
20
12.107511573815955
30
4.768371808516747e-08
40
3.0000000000000004
210
0
220
0
230
1
100
AcDbArc
50
104.98613963345211
51
194.99826859913009
0
LINE
5
185
100
AcDbEntity
8
0
100
AcDbLine
10
-164.72486773542627
20
11.331142005774284
30
4.768371808516747e-08
11
-161.0356677293083
21
-2.4388042793856046
31
4.768371808516747e-08
0
LINE
5
186
100
AcDbEntity
8
0
100
AcDbLine
10
-161.0356677293083
20
-2.4388042793856046
30
4.768371808516747e-08
11
-154.82471118497489
21
-25.621211807604112
31
4.768371808516747e-08
0
ELLIPSE
5
187
100
AcDbEntity
8
0
100
AcDbEllipse
10
-155.79064483198403
20
-25.880001663618025
30
4.768371808516747e-08
11
0.50002616988671345
21
0.86601029406611674
31
0.0
40
0.99999999999998035
41
2.3561944901924154
42
5.4977871437821682
0
LINE
5
188
100
AcDbEntity
8
0
100
AcDbLine
10
-156.75657847899313
20
-26.138791519631997
30
4.768371808516747e-08
11
-162.70874516731257
21
-3.9223176384224878
31
4.768371808516747e-08
0
ARC
5
189
100
AcDbEntity
8
0
100
AcDbCircle
10
-163.67467881432174
20
-4.1811074944363904
30
4.768371808516747e-08
40
1.0000000000000486
210
0
220
-0
230
1
100
AcDbArc
50
14.998268599129931
51
104.99826859912993
0
LINE
5
190
100
AcDbEntity
8
0
100
AcDbLine
10
-163.93346867033563
20
-3.2151738474272662
30
4.768371808516747e-08
11
-165.1891824114474
21
-3.5516006602453398
31
4.768371808516747e-08
0
ARC
5
191
100
AcDbEntity
8
0
100
AcDbCircle
10
-164.41281284340573
20
-6.4494016012726547
30
4.768371808516747e-08
40
3
210
0
220
0
230
1
100
AcDbArc
50
104.99826859913021
51
194.99826859913043
0
LINE
5
192
100
AcDbEntity
8
0
100
AcDbLine
10
-167.31061378443303
20
-7.2257711693143358
30
4.768371808516747e-08
11
-152.04201228078944
21
-64.215856338462032
31
4.768371808516747e-08
0
ARC
5
193
100
AcDbEntity
8
0
100
AcDbCircle
10
-149.14421133976211
20
-63.439486770420345
30
4.768371808516747e-08
40
3.0000000000000195
210
0
220
0
230
1
100
AcDbArc
50
194.99826859913043
51
284.9982685991302
0
LINE
5
194
100
AcDbEntity
8
0
100
AcDbLine
10
-148.36784177172044
20
-66.337287711447658
30
4.768371808516747e-08
11
-147.11212803060869
21
-66.000860898629611
31
4.768371808516747e-08
0
ELLIPSE
5
195
100
AcDbEntity
8
0
100
AcDbEllipse
10
-147.37091788662258
20
-65.034927251620502
30
4.768371808516747e-08
11
-0.8660102940661103
21
0.50002616988670334
31
0.0
40
0.99999999999999978
41
2.3561944901923648
42
3.926990816987221
0
LINE
5
196
100
AcDbEntity
8
0
100
AcDbLine
10
-146.40498423961344
20
-64.776137395606625
30
4.768371808516747e-08
11
-152.35716552671306
21
-42.55960902442159
31
4.768371808516747e-08
0
ELLIPSE
5
197
100
AcDbEntity
8
0
100
AcDbEllipse
10
-151.39123187970392
20
-42.300819168407678
30
4.768371808516747e-08
11
-0.50000174587930013
21
-0.86602439579824209
31
0.0
40
0.99999999999998035
41
2.3561662875155389
42
5.4977589411052019
0
LINE
5
198
100
AcDbEntity
8
0
100
AcDbLine
10
-150.42529823269484
20
-42.042029312393666
30
4.768371808516747e-08
11
-144.21432708958133
21
-65.224491330587924
31
4.768371808516747e-08
0
LINE
5
199
100
AcDbEntity
8
0
100
AcDbLine
10
-144.21432708958133
20
-65.224491330587924
30
4.768371808516747e-08
11
-140.46486382075364
21
-79.219370362442049
31
4.768371808516747e-08
0
ARC
5
200
100
AcDbEntity
8
0
100
AcDbCircle
10
-137.56706287972634
20
-78.443000794400376
30
4.768371808516747e-08
40
3
210
0
220
0
230
1
100
AcDbArc
50
194.99826859913023
51
270
0
LINE
5
201
100
AcDbEntity
8
0
100
AcDbLine
10
-137.56706287972634
20
-81.443000794400376
30
4.768371808516747e-08
11
-91.660203152724463
21
-81.443000794400405
31
4.768371808516747e-08
0
ARC
5
202
100
AcDbEntity
8
0
100
AcDbCircle
10
-91.660203152724463
20
-82.443000794400376
30
4.768371808516747e-08
40
0.99999999999999645
210
0
220
0
230
1
100
AcDbArc
50
-90.00000000000081
51
90
0
LINE
5
203
100
AcDbEntity
8
0
100
AcDbLine
10
-91.660203152724478
20
-83.443000794400376
30
4.768371808516747e-08
11
-115.16020315272445
21
-83.44300079440039
31
4.768371808516747e-08
0
ARC
5
204
100
AcDbEntity
8
0
100
AcDbCircle
10
-115.16020315272445
20
-83.943000794400362
30
4.768371808516747e-08
40
0.49999999999997158
210
0
220
-0
230
1
100
AcDbArc
50
90
51
180
0
LINE
5
205
100
AcDbEntity
8
0
100
AcDbLine
10
-115.66020315272446
20
-83.943000794400362
30
4.768371808516747e-08
11
-115.66020315272446
21
-85.743000794400359
31
4.768371808516747e-08
0
ARC
5
206
100
AcDbEntity
8
0
100
AcDbCircle
10
-112.66020315272445
20
-85.743000794400359
30
4.768371808516747e-08
40
3.0000000000000071
210
0
220
0
230
1
100
AcDbArc
50
180
51
270
0
LINE
5
207
100
AcDbEntity
8
0
100
AcDbLine
10
-112.66020315272445
20
-88.743000794400359
30
4.768371808516747e-08
11
-53.660203152724463
21
-88.743000794400359
31
4.768371808516747e-08
0
ARC
5
208
100
AcDbEntity
8
0
100
AcDbCircle
10
-53.660203152724463
20
-85.743000794400359
30
4.768371808516747e-08
40
3.0000000000000071
210
0
220
0
230
1
100
AcDbArc
50
-90
51
0
0
LINE
5
209
100
AcDbEntity
8
0
100
AcDbLine
10
-50.660203152724463
20
-85.743000794400359
30
4.768371808516747e-08
11
-50.660203152724463
21
-83.943000794400376
31
4.768371808516747e-08
0
ARC
5
210
100
AcDbEntity
8
0
100
AcDbCircle
10
-51.16020315272447
20
-83.943000794400376
30
4.768371808516747e-08
40
0.50000000000000711
210
0
220
0
230
1
100
AcDbArc
50
0
51
90
0
LINE
5
211
100
AcDbEntity
8
0
100
AcDbLine
10
-51.16020315272447
20
-83.443000794400376
30
4.768371808516747e-08
11
-74.660203152724463
21
-83.443000794400376
31
4.768371808516747e-08
0
ARC
5
212
100
AcDbEntity
8
0
100
AcDbCircle
10
-74.660203152724463
20
-82.443000794400376
30
4.768371808516747e-08
40
0.99999999999999645
210
0
220
-0
230
1
100
AcDbArc
50
90
51
270
0
LINE
5
213
100
AcDbEntity
8
0
100
AcDbLine
10
-74.660203152724463
20
-81.443000794400376
30
4.768371808516747e-08
11
-25.485992431913438
21
-81.443000794400376
31
4.768371808516747e-08
0
ARC
5
214
100
AcDbEntity
8
0
100
AcDbCircle
10
-25.485992431913438
20
-78.44300079440039
30
4.768371808516747e-08
40
2.9999999999999893
210
0
220
0
230
1
100
AcDbArc
50
-90
51
0
0
LINE
5
215
100
AcDbEntity
8
0
100
AcDbLine
10
-22.485992431913438
20
-78.44300079440039
30
4.768371808516747e-08
11
-22.485992431913438
21
-45.000000000492747
31
4.768371808516747e-08
0
ARC
5
216
100
AcDbEntity
8
0
100
AcDbCircle
10
-19.485992431913438
20
-45.000000000492747
30
4.768371808516747e-08
40
2.9999999999999982
210
0
220
-0
230
1
100
AcDbArc
50
90
51
180
0
LINE
5
217
100
AcDbEntity
8
0
100
AcDbLine
10
-19.485992431913438
20
-42.000000000492747
30
4.768371808516747e-08
11
19.485992431913438
21
-42.000000000492747
31
4.768371808516747e-08
0
ARC
5
218
100
AcDbEntity
8
0
100
AcDbCircle
10
19.485992431913438
20
-45.000000000492747
30
4.768371808516747e-08
40
3.0000000000000004
210
0
220
0
230
1
100
AcDbArc
50
0
51
90
0
LINE
5
219
100
AcDbEntity
8
0
100
AcDbLine
10
22.485992431913438
20
-45.000000000492747
30
4.768371808516747e-08
11
22.485992431913438
21
-78.44300079440039
31
4.768371808516747e-08
0
ARC
5
220
100
AcDbEntity
8
0
100
AcDbCircle
10
25.485992431913438
20
-78.44300079440039
30
4.768371808516747e-08
40
2.9999999999999982
210
0
220
0
230
1
100
AcDbArc
50
180
51
270
0
LINE
5
221
100
AcDbEntity
8
0
100
AcDbLine
10
25.485992431913438
20
-81.443000794400405
30
4.768371808516747e-08
11
74.660203152724449
21
-81.443000794400376
31
4.768371808516747e-08
0
ARC
5
222
100
AcDbEntity
8
0
100
AcDbCircle
10
74.660203152724463
20
-82.443000794400376
30
4.768371808516747e-08
40
0.99999999999999645
210
0
220
0
230
1
100
AcDbArc
50
-90
51
90.00000000000081
0
LINE
5
223
100
AcDbEntity
8
0
100
AcDbLine
10
74.660203152724463
20
-83.443000794400376
30
4.768371808516747e-08
11
51.16020315272447
21
-83.443000794400376
31
4.768371808516747e-08
0
ARC
5
224
100
AcDbEntity
8
0
100
AcDbCircle
10
51.16020315272447
20
-83.943000794400376
30
4.768371808516747e-08
40
0.50000000000000711
210
0
220
-0
230
1
100
AcDbArc
50
90
51
180
0
LINE
5
225
100
AcDbEntity
8
0
100
AcDbLine
10
50.66020315272447
20
-83.943000794400376
30
4.768371808516747e-08
11
50.660203152724463
21
-85.743000794400359
31
4.768371808516747e-08
0
ARC
5
226
100
AcDbEntity
8
0
100
AcDbCircle
10
53.660203152724463
20
-85.743000794400359
30
4.768371808516747e-08
40
2.9999999999999982
210
0
220
0
230
1
100
AcDbArc
50
180
51
270
0
LINE
5
227
100
AcDbEntity
8
0
100
AcDbLine
10
53.660203152724463
20
-88.743000794400359
30
4.768371808516747e-08
11
112.66020315272445
21
-88.743000794400359
31
4.768371808516747e-08
0
ARC
5
228
100
AcDbEntity
8
0
100
AcDbCircle
10
112.66020315272445
20
-85.743000794400359
30
4.768371808516747e-08
40
3.0000000000000071
210
0
220
0
230
1
100
AcDbArc
50
-90
51
0
0
LINE
5
229
100
AcDbEntity
8
0
100
AcDbLine
10
115.66020315272446
20
-85.743000794400359
30
4.768371808516747e-08
11
115.66020315272446
21
-83.943000794400362
31
4.768371808516747e-08
0
ARC
5
230
100
AcDbEntity
8
0
100
AcDbCircle
10
115.16020315272445
20
-83.943000794400362
30
4.768371808516747e-08
40
0.50000000000000711
210
0
220
0
230
1
100
AcDbArc
50
0
51
90
0
LINE
5
231
100
AcDbEntity
8
0
100
AcDbLine
10
115.16020315272445
20
-83.443000794400348
30
4.768371808516747e-08
11
91.660203152724463
21
-83.44300079440039
31
4.768371808516747e-08
0
ARC
5
232
100
AcDbEntity
8
0
100
AcDbCircle
10
91.660203152724463
20
-82.443000794400376
30
4.768371808516747e-08
40
0.99999999999999645
210
0
220
-0
230
1
100
AcDbArc
50
90
51
270
0
LINE
5
233
100
AcDbEntity
8
0
100
AcDbLine
10
91.660203152724463
20
-81.443000794400376
30
4.768371808516747e-08
11
137.56706287972634
21
-81.443000794400376
31
4.768371808516747e-08
0
ARC
5
234
100
AcDbEntity
8
0
100
AcDbCircle
10
137.56706287972634
20
-78.443000794400376
30
4.768371808516747e-08
40
2.9999999999999982
210
0
220
0
230
1
100
AcDbArc
50
270
51
345.00173140086974
0
LINE
5
235
100
AcDbEntity
8
0
100
AcDbLine
10
140.46486382075364
20
-79.219370362442049
30
4.768371808516747e-08
11
144.21432708958133
21
-65.224491330587924
31
4.768371808516747e-08
0
LINE
5
236
100
AcDbEntity
8
0
100
AcDbLine
10
144.21432708958133
20
-65.224491330587924
30
4.768371808516747e-08
11
150.42529823269487
21
-42.042029312393765
31
4.768371808516747e-08
0
ELLIPSE
5
237
100
AcDbEntity
8
0
100
AcDbEllipse
10
151.39123187970392
20
-42.300819168407678
30
4.768371808516747e-08
11
0.50000174587930013
21
-0.86602439579824209
31
0.0
40
0.99999999999998035
41
0.78542636607439476
42
3.9270190196641277
0
LINE
5
238
100
AcDbEntity
8
0
100
AcDbLine
10
152.35716552671303
20
-42.55960902442159
30
4.768371808516747e-08
11
146.40498423961341
21
-64.776137395606611
31
4.768371808516747e-08
0
ELLIPSE
5
239
100
AcDbEntity
8
0
100
AcDbEllipse
10
147.37091788662258
20
-65.034927251620502
30
4.768371808516747e-08
11
-0.8660102940661103
21
-0.50002616988670334
31
0.0
40
0.99999999999999978
41
-0.78539816339742818
42
0.78539816339743851
0
LINE
5
240
100
AcDbEntity
8
0
100
AcDbLine
10
147.11212803060869
20
-66.000860898629625
30
4.768371808516747e-08
11
148.36784177172044
21
-66.337287711447644
31
4.768371808516747e-08
0
ARC
5
241
100
AcDbEntity
8
0
100
AcDbCircle
10
149.14421133976211
20
-63.439486770420345
30
4.768371808516747e-08
40
2.9999999999999889
210
0
220
0
230
1
100
AcDbArc
50
255.00173140086969
51
345.00173140086974
0
LINE
5
242
100
AcDbEntity
8
0
100
AcDbLine
10
152.04201228078941
20
-64.215856338462018
30
4.768371808516747e-08
11
167.31061378443309
21
-7.2257711693143456
31
4.768371808516747e-08
0
ARC
5
243
100
AcDbEntity
8
0
100
AcDbCircle
10
164.41281284340573
20
-6.4494016012726547
30
4.768371808516747e-08
40
3.0000000000000382
210
0
220
0
230
1
100
AcDbArc
50
-14.9982685991303
51
75.001731400869801
0
LINE
5
244
100
AcDbEntity
8
0
100
AcDbLine
10
165.1891824114474
20
-3.5516006602453394
30
4.768371808516747e-08
11
163.9334686703356
21
-3.2151738474272973
31
4.768371808516747e-08
0
ARC
5
245
100
AcDbEntity
8
0
100
AcDbCircle
10
163.67467881432174
20
-4.1811074944363904
30
4.768371808516747e-08
40
0.99999999999998546
210
0
220
-0
230
1
100
AcDbArc
50
75.001731400871179
51
165.00173140087011
0
LINE
5
246
100
AcDbEntity
8
0
100
AcDbLine
10
162.7087451673126
20
-3.9223176384224958
30
4.768371808516747e-08
11
156.75657847899311
21
-26.138791519631933
31
4.768371808516747e-08
0
ELLIPSE
5
247
100
AcDbEntity
8
0
100
AcDbEllipse
10
155.79064483198403
20
-25.880001663618025
30
4.768371808516747e-08
11
-0.50002616988671345
21
0.86601029406611674
31
0.0
40
0.99999999999998035
41
0.78539816339741819
42
3.9269908169872214
0
LINE
5
248
100
AcDbEntity
8
0
100
AcDbLine
10
154.82471118497489
20
-25.621211807604119
30
4.768371808516747e-08
11
161.0356677293083
21
-2.4388042793856046
31
4.768371808516747e-08
0
LINE
5
249
100
AcDbEntity
8
0
100
AcDbLine
10
161.0356677293083
20
-2.4388042793856046
30
4.768371808516747e-08
11
164.7248677354263
21
11.331142005774275
31
4.768371808516747e-08
0
ARC
5
250
100
AcDbEntity
8
0
100
AcDbCircle
10
161.82706679439895
20
12.107511573815955
30
4.768371808516747e-08
40
3.0000000000000355
210
0
220
0
230
1
100
AcDbArc
50
-14.998268599130148
51
75.013860366547888
0
LINE
5
251
100
AcDbEntity
8
0
100
AcDbLine
10
162.60282290844995
20
15.005476799886226
30
4.768371808516747e-08
11
134.33637931638287
21
22.57211916044966
31
4.768371808516747e-08
0
ARC
5
252
100
AcDbEntity
8
0
100
AcDbCircle
10
134.59496468773321
20
23.5381075691398
30
4.768371808516747e-08
40
1.0000000000000022
210
0
220
-0
230
1
100
AcDbArc
50
75.013860366548002
51
255.01386036654864
0
LINE
5
253
100
AcDbEntity
8
0
100
AcDbLine
10
134.85355005908355
20
24.504095977829898
30
4.768371808516747e-08
11
157.07154334696091
21
18.556562867369905
31
4.768371808516747e-08
0
ARC
5
254
100
AcDbEntity
8
0
100
AcDbCircle
10
157.33012871831124
20
19.522551276059986
30
4.768371808516747e-08
40
0.99999999999999634
210
0
220
0
230
1
100
AcDbArc
50
255.01386036654776
51
345.01386042289511
0
LINE
5
255
100
AcDbEntity
8
0
100
AcDbLine
10
158.29611712725563
20
19.263965905659649
30
4.768371808516747e-08
11
158.63227937132282
21
20.519755553739536
31
-2.6057230928522301e-07
0
ARC
5
256
100
AcDbEntity
8
0
100
AcDbCircle
10
155.73431414448891
20
21.295511664940939
30
1.4939618153757833e-05
40
3.0000000000000115
210
9.9257249809014022e-08
220
-2.657016633856911e-08
230
0.99999999999999478
100
AcDbArc
50
-14.986139577104533
51
75.013860422895618
0
LINE
5
257
100
AcDbEntity
8
0
100
AcDbLine
10
156.51007025569066
20
24.193476891773717
30
4.768371808516747e-08
11
99.516754127971382
21
39.45001374539342
31
4.768371808516747e-08
0
ARC
5
258
100
AcDbEntity
8
0
100
AcDbCircle
10
98.740998016770391
20
36.552048518560241
30
4.768371808516747e-08
40
2.9999999999999956
210
0
220
-0
230
1
100
AcDbArc
50
75.013860422895576
51
165.01386042289548
0
LINE
5
259
100
AcDbEntity
8
0
100
AcDbLine
10
95.843032789937212
20
37.327804629761239
30
4.768371808516747e-08
11
95.50687056189112
21
36.072015041530861
31
-2.6057230928522301e-07
0
ARC
5
260
100
AcDbEntity
8
0
100
AcDbCircle
10
96.472858970831282
20
35.81342967113271
30
-2.5824501919337756e-05
40
1.0000000000000575
210
-2.9777174942702636e-07
220
7.9710499015702139e-08
230
0.99999999999995248
100
AcDbArc
50
165.01386042289698
51
255.01386036654964
0
LINE
5
261
100
AcDbEntity
8
0
100
AcDbLine
10
96.214273599485196
20
34.847441262440441
30
4.768371808516747e-08
11
118.43200700220727
21
28.899977720619976
31
4.768371808516747e-08
0
ARC
5
262
100
AcDbEntity
8
0
100
AcDbCircle
10
118.17342163085695
20
27.933989311929935
30
4.768371808516747e-08
40
1.0000000000000024
210
0
220
0
230
1
100
AcDbArc
50
-104.9861396334521
51
75.013860366547945
0
LINE
5
263
100
AcDbEntity
8
0
100
AcDbLine
10
117.91483625950661
20
26.968000903239844
30
4.768371808516747e-08
11
89.917982175354339
21
34.462476866785302
31
4.768371808516747e-08
0
ARC
5
264
100
AcDbEntity
8
0
100
AcDbCircle
10
118.3507347912018
20
133.78491738999946
30
4.768371808516747e-08
40
103.31199646121162
210
0
220
0
230
1
100
AcDbArc
50
216.46656030080723
51
254.0253219496478
0
SPLINE
5
265
100
AcDbEntity
8
0
100
AcDbSpline
70
0
71
3
72
12
73
8
74
0
42
0.000000001
43
0.0000000001
44
0.0000000001
40
0
40
0
40
0
40
0
40
0.11719334201607898
40
0.11719334201607898
40
0.19905701036998494
40
0.19905701036998494
40
0.28092067872389082
40
0.28092067872389082
40
0.28092067872389082
40
0.28092067872389082
10
32.854214554224754
20
73.598007203340998
30
4.768371808516747e-08
10
33.244859027611682
20
73.598007203340998
30
4.768371808516747e-08
10
33.63176872691534
20
73.521705651047128
30
4.768371808516747e-08
10
34.245614128726061
20
73.269798758673915
30
4.768371808516747e-08
10
34.482751412234769
20
73.132238959351795
30
4.7683719195390495e-08
10
34.913267144316201
20
72.7968171820132
30
4.7683719195390495e-08
10
35.104639665927046
20
72.600518054170678
30
4.768371808516747e-08
10
35.266826199652051
20
72.381067787939543
30
4.768371808516747e-08
0
LINE
5
266
100
AcDbEntity
8
0
100
AcDbLine
10
32.854214554224754
20
73.598007203340998
30
4.768371808516747e-08
11
9.3601188306250993
21
73.598007203340998
31
4.768371808516747e-08
0
ELLIPSE
5
267
100
AcDbEntity
8
0
100
AcDbEllipse
10
9.3601188306250975
20
74.59800720334097
30
4.768371808516747e-08
11
0.70710678118654491
21
0.70710678118657166
31
0.0
40
1
41
0.78539816339742818
42
3.9269908169872214
0
LINE
5
268
100
AcDbEntity
8
0
100
AcDbLine
10
9.3601188306250975
20
75.598007203340984
30
4.768371808516747e-08
11
32.360118830625105
21
75.598007203341012
31
4.768371808516747e-08
0
ELLIPSE
5
269
100
AcDbEntity
8
0
100
AcDbEllipse
10
32.360118830625112
20
76.598007203341027
30
4.768371808516747e-08
11
-0.70710678118654891
21
-0.70710678118656778
31
0.0
40
0.99999999999999978
41
0.78539816339742574
42
2.3561944901923173
0
LINE
5
270
100
AcDbEntity
8
0
100
AcDbLine
10
33.360118830625126
20
76.598007203341027
30
4.768371808516747e-08
11
33.360118830625112
21
77.89800720334101
31
4.768371808516747e-08
0
ARC
5
271
100
AcDbEntity
8
0
100
AcDbCircle
10
30.360118830625112
20
77.89800720334101
30
4.768371808516747e-08
40
2.9999999999999982
210
0
220
-0
230
1
100
AcDbArc
50
0
51
89.999999990778463
0
LINE
5
272
100
AcDbEntity
8
0
100
AcDbLine
10
30.36011883110795
20
80.898007203340995
30
4.768371808516747e-08
11
-30.36011883110795
21
80.898007203340995
31
4.768371808516747e-08
0
ARC
5
273
100
AcDbEntity
8
0
100
AcDbCircle
10
-30.360118830625112
20
77.89800720334101
30
4.768371808516747e-08
40
2.9999999999999982
210
0
220
0
230
1
100
AcDbArc
50
90.000000009221552
51
180
0
LINE
5
274
100
AcDbEntity
8
0
100
AcDbLine
10
-33.360118830625119
20
77.89800720334101
30
4.768371808516747e-08
11
-33.360118830625112
21
76.598007203341027
31
4.768371808516747e-08
0
ELLIPSE
5
275
100
AcDbEntity
8
0
100
AcDbEllipse
10
-32.360118830625112
20
76.598007203341027
30
4.768371808516747e-08
11
0.70710678118654891
21
-0.70710678118656778
31
0.0
40
0.99999999999999978
41
3.9269908169872614
42
5.4977871437821602
0
CIRCLE
5
276
100
AcDbEntity
8
0
100
AcDbCircle
10
0
20
0
30
0
40
30.500000000000007
210
2.1895288505075267e-47
220
-2.7369110631344083e-48
230
1
0
ENDSEC
0
SECTION
2
OBJECTS
0
DICTIONARY
5
C
100
AcDbDictionary
3
ACAD_GROUP
350
D
3
ACAD_MLINESTYLE
350
17
0
DICTIONARY
5
D
100
AcDbDictionary
0
DICTIONARY
5
1A
330
C
100
AcDbDictionary
0
DICTIONARY
5
17
100
AcDbDictionary
0
ENDSEC
0
EOF
