0
SECTION
2
HEADER
9
$INSUNITS
70
4
9
$ACADVER
1
AC1014
9
$HANDSEED
5
FFFF
0
ENDSEC
0
SECTION
2
TABLES
0
TABLE
2
VPORT
5
8
100
AcDbSymbolTable
0
ENDTAB
0
TABLE
2
LTYPE
5
5
100
AcDbSymbolTable
0
LTYPE
5
14
100
AcDbSymbolTableRecord
100
AcDbLinetypeTableRecord
2
BYBLOCK
70
0
0
LTYPE
5
15
100
AcDbSymbolTableRecord
100
AcDbLinetypeTableRecord
2
BYLAYER
70
0
0
ENDTAB
0
TABLE
2
LAYER
5
2
100
AcDbSymbolTable
70
2
0
LAYER
5
50
100
AcDbSymbolTableRecord
100
AcDbLayerTableRecord
2
0
70
0
6
CONTINUOUS
0
ENDTAB
0
TABLE
2
STYLE
5
3
100
AcDbSymbolTable
70
1
0
STYLE
5
11
100
AcDbSymbolTableRecord
100
AcDbTextStyleTableRecord
2
STANDARD
70
0
0
ENDTAB
0
TABLE
2
VIEW
5
6
100
AcDbSymbolTable
70
0
0
ENDTAB
0
TABLE
2
UCS
5
7
100
AcDbSymbolTable
70
0
0
ENDTAB
0
TABLE
2
APPID
5
9
100
AcDbSymbolTable
70
2
0
APPID
5
12
100
AcDbSymbolTableRecord
100
AcDbRegAppTableRecord
2
ACAD
70
0
0
ENDTAB
0
TABLE
2
DIMSTYLE
5
A
100
AcDbSymbolTable
70
1
0
ENDTAB
0
TABLE
2
BLOCK_RECORD
5
1
100
AcDbSymbolTable
70
1
0
BLOCK_RECORD
5
1F
100
AcDbSymbolTableRecord
100
AcDbBlockTableRecord
2
*MODEL_SPACE
0
BLOCK_RECORD
5
1B
100
AcDbSymbolTableRecord
100
AcDbBlockTableRecord
2
*PAPER_SPACE
0
ENDTAB
0
ENDSEC
0
SECTION
2
BLOCKS
0
BLOCK
5
20
100
AcDbEntity
100
AcDbBlockBegin
2
*MODEL_SPACE
0
ENDBLK
5
21
100
AcDbEntity
100
AcDbBlockEnd
0
BLOCK
5
1C
100
AcDbEntity
100
AcDbBlockBegin
2
*PAPER_SPACE
0
ENDBLK
5
1D
100
AcDbEntity
100
AcDbBlockEnd
0
ENDSEC
0
SECTION
2
ENTITIES
0
ARC
5
100
100
AcDbEntity
8
0
100
AcDbCircle
10
25.456172990292263
20
-76.540275991875447
30
0
40
2.0000000000000018
210
0
220
0
230
1
100
AcDbArc
50
180
51
270.00000000000011
0
LINE
5
101
100
AcDbEntity
8
0
100
AcDbLine
10
25.456172990292266
20
-78.540275991875447
30
0
11
74.130383711103264
21
-78.540275991875461
31
0
0
ARC
5
102
100
AcDbEntity
8
0
100
AcDbCircle
10
74.130383711103264
20
-79.040275991875461
30
0
40
0.49999999999999822
210
0
220
0
230
1
100
AcDbArc
50
0
51
90
0
LINE
5
103
100
AcDbEntity
8
0
100
AcDbLine
10
74.630383711103264
20
-79.040275991875461
30
0
11
74.630383711103264
21
-79.641274064875461
31
-2.8610227076342198e-07
0
ARC
5
104
100
AcDbEntity
8
0
100
AcDbCircle
10
74.130383711103264
20
-79.641274064875461
30
0
40
0.50000000000000711
210
0
220
0
230
1
100
AcDbArc
50
-90
51
3.2778681992047285e-05
0
LINE
5
105
100
AcDbEntity
8
0
100
AcDbLine
10
74.130383711103264
20
-80.141274064875461
30
0
11
52.630383711103278
21
-80.141274064875461
31
0
0
ARC
5
106
100
AcDbEntity
8
0
100
AcDbCircle
10
52.630383711103278
20
-82.141274064875461
30
0
40
1.9999999999999929
210
0
220
-0
230
1
100
AcDbArc
50
90
51
180
0
LINE
5
107
100
AcDbEntity
8
0
100
AcDbLine
10
50.630383711103278
20
-82.141274064875461
30
0
11
50.630383711103292
21
-82.241275991875455
31
0
0
ARC
5
108
100
AcDbEntity
8
0
100
AcDbCircle
10
52.630383711103292
20
-82.241275991875455
30
0
40
2.0000000000000018
210
0
220
0
230
1
100
AcDbArc
50
180
51
270
0
LINE
5
109
100
AcDbEntity
8
0
100
AcDbLine
10
52.630383711103292
20
-84.24127599187544
30
0
11
113.63038371110328
21
-84.24127599187544
31
0
0
ARC
5
110
100
AcDbEntity
8
0
100
AcDbCircle
10
113.63038371110328
20
-82.241275991875455
30
0
40
1.9999999999999929
210
0
220
0
230
1
100
AcDbArc
50
-90
51
0
0
LINE
5
111
100
AcDbEntity
8
0
100
AcDbLine
10
115.63038371110326
20
-82.241275991875455
30
0
11
115.63038371110326
21
-82.141274064875432
31
0
0
ARC
5
112
100
AcDbEntity
8
0
100
AcDbCircle
10
113.63038371110328
20
-82.141274064875432
30
0
40
1.9999999999999929
210
0
220
0
230
1
100
AcDbArc
50
0
51
90
0
LINE
5
113
100
AcDbEntity
8
0
100
AcDbLine
10
113.63038371110328
20
-80.141274064875446
30
0
11
92.130383711103292
21
-80.141274064875461
31
0
0
ARC
5
114
100
AcDbEntity
8
0
100
AcDbCircle
10
92.130383711103292
20
-79.641274064875461
30
0
40
0.50000000000000711
210
0
220
0
230
1
100
AcDbArc
50
180
51
270
0
LINE
5
115
100
AcDbEntity
8
0
100
AcDbLine
10
91.630383711103292
20
-79.641274064875461
30
0
11
91.630383711103264
21
-79.040275991875461
31
-2.8610227076342198e-07
0
ARC
5
116
100
AcDbEntity
8
0
100
AcDbCircle
10
92.130383711103264
20
-79.040275991875461
30
0
40
0.50000000000000711
210
0
220
-0
230
1
100
AcDbArc
50
90
51
179.999967221318
0
LINE
5
117
100
AcDbEntity
8
0
100
AcDbLine
10
92.130383711103264
20
-78.540275991875461
30
0
11
138.18872443184901
21
-78.540275991875461
31
0
0
ELLIPSE
5
118
100
AcDbEntity
8
0
100
AcDbEllipse
10
138.18872443184901
20
-76.540275991875461
30
0
11
1.5866882844553793
21
1.2175468319420955
31
0.0
40
0.99999999999999012
41
4.0578754015639085
42
5.3669025592055126
0
LINE
5
119
100
AcDbEntity
8
0
100
AcDbLine
10
140.12059172586729
20
-77.057855703903215
30
0
11
150.12022785270861
21
-39.734194175820228
31
0
0
ELLIPSE
5
120
100
AcDbEntity
8
0
100
AcDbEllipse
10
150.60319467621321
20
-39.863589103827195
30
0
11
0.43300514703306081
21
0.2500130849433414
31
0.0
40
0.99999999999999978
41
0.78539816339730761
42
2.3561944901923448
0
LINE
5
121
100
AcDbEntity
8
0
100
AcDbLine
10
150.73258960422024
20
-39.380622280322655
30
0
11
151.31311401637009
21
-39.536154525728968
31
-2.8610227076342198e-07
0
ARC
5
122
100
AcDbEntity
8
0
100
AcDbCircle
10
151.18371908836303
20
-40.019121349233501
30
0
40
0.50000000000000611
210
0
220
0
230
1
100
AcDbArc
50
-14.998268599129689
51
75.001731400859157
0
LINE
5
123
100
AcDbEntity
8
0
100
AcDbLine
10
151.6666859118676
20
-40.148516277240446
30
0
11
146.10268943844852
21
-60.916144067206901
31
0
0
ELLIPSE
5
124
100
AcDbEntity
8
0
100
AcDbEllipse
10
148.0345567324668
20
-61.433723779234697
30
0
11
-1.7320205881322195
21
-1.0000523397734062
31
0.0
40
0.99999999999999978
41
-0.78539816339747337
42
0.78539816339743318
0
LINE
5
125
100
AcDbEntity
8
0
100
AcDbLine
10
147.51697702043901
20
-63.365591073252936
30
0
11
147.6135720948424
21
-63.391470516912314
31
0
0
ARC
5
126
100
AcDbEntity
8
0
100
AcDbCircle
10
148.13115180687015
20
-61.459603222894152
30
0
40
1.9999999999999465
210
0
220
0
230
1
100
AcDbArc
50
255.0017314008702
51
345.0017314008698
0
LINE
5
127
100
AcDbEntity
8
0
100
AcDbLine
10
150.06301910088834
20
-61.977182934921927
30
0
11
165.84920031655983
21
-3.0552304717560261
31
0
0
ARC
5
128
100
AcDbEntity
8
0
100
AcDbCircle
10
163.91733302254164
20
-2.5376507597282316
30
0
40
1.9999999999999911
210
0
220
0
230
1
100
AcDbArc
50
-14.998268599130707
51
75.001731400869716
0
LINE
5
129
100
AcDbEntity
8
0
100
AcDbLine
10
164.43491273456942
20
-0.60578346571003139
30
0
11
164.33831766016598
21
-0.57990402205061187
31
0
0
ARC
5
130
100
AcDbEntity
8
0
100
AcDbCircle
10
163.8207379481382
20
-2.5117713160688036
30
0
40
1.9999999999999851
210
0
220
-0
230
1
100
AcDbArc
50
75.001731400869659
51
165.00173140086963
0
LINE
5
131
100
AcDbEntity
8
0
100
AcDbLine
10
161.88887065411996
20
-1.9941916040410057
30
0
11
156.32488872016154
21
-22.761765125441702
31
0
0
ELLIPSE
5
132
100
AcDbEntity
8
0
100
AcDbEllipse
10
155.84192189665697
20
-22.632370197434746
30
0
11
-0.43300514703307003
21
-0.25001308494332525
31
0.0
40
1
41
0.78539816339762913
42
2.3561944901923648
0
LINE
5
133
100
AcDbEntity
8
0
100
AcDbLine
10
155.71252696865008
20
-23.115337020939329
30
0
11
155.13200255650023
21
-22.959804775533009
31
-2.8610227076342198e-07
0
ARC
5
134
100
AcDbEntity
8
0
100
AcDbCircle
10
155.26139748450709
20
-22.476837952028433
30
0
40
0.50000000000000611
210
0
220
0
230
1
100
AcDbArc
50
165.00173140086946
51
255.00173140088242
0
LINE
5
135
100
AcDbEntity
8
0
100
AcDbLine
10
154.77843066100255
20
-22.347443024021487
30
0
11
164.76895141682863
21
14.942195363803306
31
0
0
ARC
5
136
100
AcDbEntity
8
0
100
AcDbCircle
10
162.83708412281041
20
15.459775075831095
30
0
40
2.0000000000000244
210
0
220
0
230
1
100
AcDbArc
50
-14.9982685991303
51
75.013860366548926
0
LINE
5
137
100
AcDbEntity
8
0
100
AcDbLine
10
163.35425486551105
20
17.39175189321131
30
0
11
134.75050752922121
21
25.048687070099458
31
0
0
ARC
5
138
100
AcDbEntity
8
0
100
AcDbCircle
10
134.87980021489636
20
25.531681274444502
30
0
40
0.50000000000000555
210
0
220
0
230
1
100
AcDbArc
50
165.01386036654836
51
255.01386036654941
0
LINE
5
139
100
AcDbEntity
8
0
100
AcDbLine
10
134.39680601055133
20
25.660973960119662
30
0
11
134.55221731930379
21
26.241538599373186
31
-2.8610227076342198e-07
0
ARC
5
140
100
AcDbEntity
8
0
100
AcDbCircle
10
135.03521152364885
20
26.112245913698029
30
-9.9920072216264089e-15
40
0.50000000000000155
210
0
220
-0
230
1
100
AcDbArc
50
75.013860366546268
51
165.01386036651451
0
LINE
5
141
100
AcDbEntity
8
0
100
AcDbLine
10
135.16450420932404
20
26.595240118043073
30
-9.9920072216264089e-15
11
155.93351504255031
21
21.03558502221075
31
0
0
ARC
5
142
100
AcDbEntity
8
0
100
AcDbCircle
10
156.45068578525101
20
22.967561839590928
30
0
40
2.0000000000000009
210
0
220
0
230
1
100
AcDbArc
50
255.01386036654711
51
345.0138604228955
0
LINE
5
143
100
AcDbEntity
8
0
100
AcDbLine
10
158.38266260313981
20
22.450391098790263
30
0
11
158.40852090236132
21
22.546989051274426
31
-3.0825602737039048e-07
0
ARC
5
144
100
AcDbEntity
8
0
100
AcDbCircle
10
156.47654408447082
20
23.064159792076005
30
2.237791929496334e-05
40
2.0000000000000093
210
1.4888587471352085e-07
220
-3.9855249507853855e-08
230
0.99999999999998823
100
AcDbArc
50
-14.986139577104479
51
75.013860422895831
0
LINE
5
145
100
AcDbEntity
8
0
100
AcDbLine
10
156.99371482527323
20
24.996136609963877
30
0
11
98.068421879665209
21
40.769844204384249
31
0
0
ARC
5
146
100
AcDbEntity
8
0
100
AcDbCircle
10
97.551251138864515
20
38.837867386495461
30
0
40
2.0000000000000071
210
0
220
-0
230
1
100
AcDbArc
50
75.01386042289468
51
165.01386042289545
0
LINE
5
147
100
AcDbEntity
8
0
100
AcDbLine
10
95.619274320975734
20
39.355038127296126
30
0
11
95.593416037266678
21
39.25844023276148
31
-3.0825602737039048e-07
0
ARC
5
148
100
AcDbEntity
8
0
100
AcDbCircle
10
97.525392855154422
20
38.741269491961354
30
-1.2976110460166244e-05
40
2.0000000000000457
210
-1.4888587471351813e-07
220
3.9855249507853081e-08
230
0.99999999999998812
100
AcDbArc
50
165.01386042289548
51
255.01386036654861
0
LINE
5
149
100
AcDbEntity
8
0
100
AcDbLine
10
97.008222112454831
20
36.809292674580625
30
0
11
117.77697274375765
21
31.249707232183503
31
0
0
ARC
5
150
100
AcDbEntity
8
0
100
AcDbCircle
10
117.64768005808249
20
30.766713027838442
30
-3.3306690738754696e-15
40
0.50000000000000777
210
0
220
0
230
1
100
AcDbArc
50
-14.98613963345246
51
75.013860366548371
0
LINE
5
151
100
AcDbEntity
8
0
100
AcDbLine
10
118.13067426242753
20
30.637420342163271
30
-3.3306690738754696e-15
11
117.97526295367507
21
30.056855702909839
31
-2.8610227076342198e-07
0
ARC
5
152
100
AcDbEntity
8
0
100
AcDbCircle
10
117.49226874933002
20
30.186148388585011
30
0
40
0.50000000000000555
210
0
220
0
230
1
100
AcDbArc
50
255.01386036654793
51
345.01386036651246
0
LINE
5
153
100
AcDbEntity
8
0
100
AcDbLine
10
117.36297606365486
20
29.703154184239963
30
0
11
89.847858454747211
21
37.068674143527495
31
0
0
ARC
5
154
100
AcDbEntity
8
0
100
AcDbCircle
10
118.3209153495806
20
136.53664219252434
30
0
40
103.46299646121156
210
0
220
0
230
1
100
AcDbArc
50
216.23425306269979
51
254.02604359656186
0
SPLINE
5
155
100
AcDbEntity
8
0
100
AcDbSpline
70
0
71
3
72
12
73
8
74
0
42
0.000000001
43
0.0000000001
44
0.0000000001
40
0
40
0
40
0
40
0
40
0.078128894677384861
40
0.078128894677384861
40
0.13311201612810739
40
0.13311201612810739
40
0.18809513757883023
40
0.18809513757883023
40
0.18809513757883023
40
0.18809513757883023
10
33.253714995168863
20
76.19873200586585
30
-1.1102230246251565e-15
10
33.514144644093477
20
76.19873200586585
30
-1.1102230246251565e-15
10
33.772084443629247
20
76.147864304336608
30
0
10
34.182570860933112
20
75.979410883590262
30
0
10
34.341759636766753
20
75.886852067599804
30
0
10
34.630455010055748
20
75.660982810737522
30
0
10
34.758596293934282
20
75.528740562817532
30
-1.1102230246251565e-15
10
34.866929169027522
20
75.380907978072045
30
-1.1102230246251565e-15
0
LINE
5
156
100
AcDbEntity
8
0
100
AcDbLine
10
33.253714995168863
20
76.19873200586585
30
-1.1102230246251565e-15
11
9.8302993890039687
21
76.198732005865878
31
0
0
ELLIPSE
5
157
100
AcDbEntity
8
0
100
AcDbEllipse
10
9.8302993890039652
20
76.698732005865892
30
0
11
-0.35355339059327462
21
0.35355339059328406
31
0.0
40
0.99999999999999978
41
0.78539816339759905
42
2.3561944901923551
0
LINE
5
158
100
AcDbEntity
8
0
100
AcDbLine
10
9.3302993890039581
20
76.698732005865821
30
0
11
9.3302993890039634
21
77.268007028865767
31
-2.8610227076342198e-07
0
ELLIPSE
5
159
100
AcDbEntity
8
0
100
AcDbEllipse
10
9.8302993890039652
20
77.268007028865838
30
0
11
-0.35355339059327445
21
-0.35355339059328389
31
0.0
40
0.99999999999999956
41
3.9269908169872312
42
5.4977871437822889
0
LINE
5
160
100
AcDbEntity
8
0
100
AcDbLine
10
9.8302993890039652
20
77.768007028865838
30
0
11
30.27018022800393
21
77.768007028865867
31
0
0
ELLIPSE
5
161
100
AcDbEntity
8
0
100
AcDbEllipse
10
30.27018022800393
20
79.768007028865924
30
0
11
1.4142135623730945
21
1.414213562373138
31
0.0
40
0.99999999999999989
41
3.926990816987229
42
5.4977871437821175
0
LINE
5
162
100
AcDbEntity
8
0
100
AcDbLine
10
32.270180228003959
20
79.768007028865924
30
0
11
32.27018022800393
21
79.899732005875563
31
0
0
ARC
5
163
100
AcDbEntity
8
0
100
AcDbCircle
10
30.270180228003948
20
79.899732005875549
30
0
40
1.999999999999984
210
0
220
-0
230
1
100
AcDbArc
50
0
51
89.999999990778434
0
LINE
5
164
100
AcDbEntity
8
0
100
AcDbLine
10
30.270180228325842
20
81.899732005875535
30
0
11
-30.32981911092438
21
81.899732015628842
31
0
0
ARC
5
165
100
AcDbEntity
8
0
100
AcDbCircle
10
-30.329819111246277
20
79.899732015628871
30
0
40
1.9999999999999751
210
0
220
-0
230
1
100
AcDbArc
50
89.999999990778321
51
180
0
LINE
5
166
100
AcDbEntity
8
0
100
AcDbLine
10
-32.329819111246273
20
79.899732015628871
30
0
11
-32.329819111246273
21
79.76800702886591
31
0
0
ELLIPSE
5
167
100
AcDbEntity
8
0
100
AcDbEllipse
10
-30.329819111246273
20
79.76800702886591
30
0
11
1.4142135623730945
21
-1.414213562373138
31
0.0
40
0.99999999999999989
41
3.9269908169872614
42
5.4977871437821531
0
LINE
5
168
100
AcDbEntity
8
0
100
AcDbLine
10
-30.329819111246273
20
77.768007028865881
30
0
11
-9.8899382722462743
21
77.768007028865867
31
0
0
ELLIPSE
5
169
100
AcDbEntity
8
0
100
AcDbEllipse
10
-9.8899382722462743
20
77.268007028865838
30
0
11
-0.3535533905932689
21
0.35355339059328922
31
0.0
40
0.99999999999999989
41
3.9269908169870904
42
5.4977871437821584
0
LINE
5
170
100
AcDbEntity
8
0
100
AcDbLine
10
-9.3899382722462672
20
77.268007028865753
30
0
11
-9.3899382722462921
21
76.698732005865807
31
-2.8610227076342198e-07
0
ELLIPSE
5
171
100
AcDbEntity
8
0
100
AcDbEllipse
10
-9.8899382722462938
20
76.698732005865907
30
0
11
0.35355339059328056
21
0.35355339059327751
31
0.0
40
0.99999999999999978
41
3.9269908169872414
42
5.4977871437819568
0
LINE
5
172
100
AcDbEntity
8
0
100
AcDbLine
10
-9.8899382722462938
20
76.198732005865892
30
0
11
-33.313353878411199
21
76.198732005865878
31
0
0
SPLINE
5
173
100
AcDbEntity
8
0
100
AcDbSpline
70
0
71
3
72
12
73
8
74
0
42
0.000000001
43
0.0000000001
44
0.0000000001
40
0
40
0
40
0
40
0
40
0.078128894677392369
40
0.078128894677392369
40
0.13311201612811169
40
0.13311201612811169
40
0.1880951375788304
40
0.1880951375788304
40
0.1880951375788304
40
0.1880951375788304
10
-34.926568052269864
20
75.380907978072045
30
-1.1102230246251565e-15
10
-34.772631215565454
20
75.590972378541167
30
-1.1102230246251565e-15
10
-34.579135850372687
20
75.768961161593239
30
-1.1102230246251565e-15
10
-34.200626537654365
20
76.000491621657616
30
-1.1102230246251565e-15
10
-34.031873367800962
20
76.074184012264723
30
0
10
-33.679041257701726
20
76.173539142161985
30
0
10
-33.496630949913595
20
76.19873200586585
30
-1.1102230246251565e-15
10
-33.313353878411199
20
76.19873200586585
30
-1.1102230246251565e-15
0
ARC
5
174
100
AcDbEntity
8
0
100
AcDbCircle
10
-118.38055423282296
20
136.53664219252434
30
0
40
103.46299646121156
210
0
220
0
230
1
100
AcDbArc
50
285.97395640343814
51
323.76574693730021
0
LINE
5
175
100
AcDbEntity
8
0
100
AcDbLine
10
-89.907497337989554
20
37.068674143527488
30
0
11
-117.42261494689726
21
29.703154184239963
31
0
0
ARC
5
176
100
AcDbEntity
8
0
100
AcDbCircle
10
-117.55190763257241
20
30.186148388584996
30
0
40
0.50000000000000322
210
0
220
0
230
1
100
AcDbArc
50
194.98613963345042
51
284.98613963345088
0
LINE
5
177
100
AcDbEntity
8
0
100
AcDbLine
10
-118.03490183691747
20
30.056855702909839
30
0
11
-118.19031314566992
21
30.637420342163271
31
-2.8610227076342198e-07
0
ARC
5
178
100
AcDbEntity
8
0
100
AcDbCircle
10
-117.70731894132487
20
30.766713027838428
30
-3.3306690738754696e-15
40
0.50000000000000555
210
0
220
0
230
1
100
AcDbArc
50
104.98613963345049
51
194.98613963348589
0
LINE
5
179
100
AcDbEntity
8
0
100
AcDbLine
10
-117.83661162700002
20
31.249707232183475
30
-3.3306690738754696e-15
11
-97.067860995697174
21
36.809292674580618
31
0
0
ARC
5
180
100
AcDbEntity
8
0
100
AcDbCircle
10
-97.585031738397831
20
38.741269491960793
30
0
40
1.9999999999999962
210
0
220
0
230
1
100
AcDbArc
50
-75.013860366548258
51
14.986139577104471
0
LINE
5
181
100
AcDbEntity
8
0
100
AcDbLine
10
-95.653054920509035
20
39.258440232761458
30
0
11
-95.678913204218077
21
39.355038127296112
31
-3.0825602737039048e-07
0
ARC
5
182
100
AcDbEntity
8
0
100
AcDbCircle
10
-97.610890022105792
20
38.837867386496008
30
-1.2984989847464917e-05
40
2.0000000000000244
210
1.4888587471352001e-07
220
3.9855249507852585e-08
230
0.99999999999998823
100
AcDbArc
50
14.986139577103955
51
104.98613957710414
0
LINE
5
183
100
AcDbEntity
8
0
100
AcDbLine
10
-98.128060762907538
20
40.769844204384242
30
0
11
-157.05335370851554
21
24.996136609963877
31
0
0
ARC
5
184
100
AcDbEntity
8
0
100
AcDbCircle
10
-156.53618296771489
20
23.064159792075081
30
0
40
2.0000000000000027
210
0
220
0
230
1
100
AcDbArc
50
104.9861395771041
51
194.98613957710464
0
LINE
5
185
100
AcDbEntity
8
0
100
AcDbLine
10
-158.46815978560369
20
22.546989051274409
30
0
11
-158.44230148638215
21
22.450391098790242
31
-3.0825602737039048e-07
0
ARC
5
186
100
AcDbEntity
8
0
100
AcDbCircle
10
-156.51032466849162
20
22.967561839591824
30
2.2386798682261642e-05
40
2.0000000000000266
210
-1.4888587471351964e-07
220
-3.9855249507853174e-08
230
0.99999999999998812
100
AcDbArc
50
194.98613957710424
51
284.98613963345133
0
LINE
5
187
100
AcDbEntity
8
0
100
AcDbLine
10
-155.99315392579268
20
21.035585022210732
30
0
11
-135.22414309256638
21
26.595240118043062
31
0
0
ARC
5
188
100
AcDbEntity
8
0
100
AcDbCircle
10
-135.09485040689123
20
26.112245913698011
30
-9.9920072216264089e-15
40
0.5000000000000101
210
0
220
-0
230
1
100
AcDbArc
50
14.98613963345319
51
104.98613963345038
0
LINE
5
189
100
AcDbEntity
8
0
100
AcDbLine
10
-134.61185620254616
20
26.241538599373193
30
-9.9920072216264089e-15
11
-134.45644489379367
21
25.660973960119662
31
-2.8610227076342198e-07
0
ARC
5
190
100
AcDbEntity
8
0
100
AcDbCircle
10
-134.93943909813873
20
25.53168127444448
30
0
40
0.49999999999999689
210
0
220
0
230
1
100
AcDbArc
50
-75.013860366549324
51
14.986139633488245
0
LINE
5
191
100
AcDbEntity
8
0
100
AcDbLine
10
-134.81014641246358
20
25.04868707009944
30
0
11
-163.41389374875345
21
17.391751893211239
31
0
0
ARC
5
192
100
AcDbEntity
8
0
100
AcDbCircle
10
-162.89672300605278
20
15.459775075831054
30
0
40
2.0000000000000049
210
0
220
0
230
1
100
AcDbArc
50
104.98613963345208
51
194.99826859913037
0
LINE
5
193
100
AcDbEntity
8
0
100
AcDbLine
10
-164.82859030007097
20
14.942195363803272
30
0
11
-154.83806954424489
21
-22.347443024021558
31
0
0
ARC
5
194
100
AcDbEntity
8
0
100
AcDbCircle
10
-155.3210363677494
20
-22.476837952028497
30
0
40
0.49999999999999517
210
0
220
0
230
1
100
AcDbArc
50
-75.001731400872799
51
14.998268599130624
0
LINE
5
195
100
AcDbEntity
8
0
100
AcDbLine
10
-155.19164143974248
20
-22.959804775533044
30
0
11
-155.77216585189248
21
-23.115337020939357
31
-2.8610227076342198e-07
0
ELLIPSE
5
196
100
AcDbEntity
8
0
100
AcDbEllipse
10
-155.90156077989934
20
-22.632370197434788
30
0
11
-0.43300514703306081
21
0.2500130849433414
31
0.0
40
0.99999999999999978
41
0.78539816339744828
42
2.3561944901921037
0
LINE
5
197
100
AcDbEntity
8
0
100
AcDbLine
10
-156.38452760340388
20
-22.761765125441737
30
0
11
-161.94850953736224
21
-1.9941916040410146
31
0
0
ARC
5
198
100
AcDbEntity
8
0
100
AcDbCircle
10
-163.88037683138054
20
-2.5117713160688302
30
0
40
2.0000000000000999
210
0
220
-0
230
1
100
AcDbArc
50
14.998268599130425
51
104.99826859912997
0
LINE
5
199
100
AcDbEntity
8
0
100
AcDbLine
10
-164.39795654340833
20
-0.57990402205058966
30
0
11
-164.49455161781174
21
-0.60578346571004082
31
0
0
ARC
5
200
100
AcDbEntity
8
0
100
AcDbCircle
10
-163.97697190578396
20
-2.5376507597281996
30
0
40
1.9999999999999529
210
0
220
0
230
1
100
AcDbArc
50
104.9982685991306
51
194.99826859913006
0
LINE
5
201
100
AcDbEntity
8
0
100
AcDbLine
10
-165.90883919980212
20
-3.0552304717559631
30
0
11
-150.12265798413071
21
-61.977182934921885
31
0
0
ARC
5
202
100
AcDbEntity
8
0
100
AcDbCircle
10
-148.19079069011249
20
-61.45960322289411
30
0
40
2.0000000000000049
210
0
220
0
230
1
100
AcDbArc
50
194.99826859912991
51
284.99826859913031
0
LINE
5
203
100
AcDbEntity
8
0
100
AcDbLine
10
-147.67321097808471
20
-63.391470516912307
30
0
11
-147.57661590368139
21
-63.365591073252915
31
0
0
ELLIPSE
5
204
100
AcDbEntity
8
0
100
AcDbEllipse
10
-148.09419561570917
20
-61.433723779234697
30
0
11
1.7320205881322195
21
-1.0000523397734062
31
0.0
40
0.99999999999999978
41
-0.78539816339744317
42
0.78539816339745849
0
LINE
5
205
100
AcDbEntity
8
0
100
AcDbLine
10
-146.16232832169092
20
-60.916144067206908
30
0
11
-151.72632479510997
21
-40.14851627724039
31
0
0
ARC
5
206
100
AcDbEntity
8
0
100
AcDbCircle
10
-151.24335797160543
20
-40.019121349233444
30
0
40
0.500000000000005
210
0
220
0
230
1
100
AcDbArc
50
104.99826859913686
51
194.99826859913057
0
LINE
5
207
100
AcDbEntity
8
0
100
AcDbLine
10
-151.37275289961244
20
-39.536154525728904
30
0
11
-150.79222848746247
21
-39.380622280322619
31
-2.8610227076342198e-07
0
ARC
5
208
100
AcDbEntity
8
0
100
AcDbCircle
10
-150.66283355945555
20
-39.863589103827188
30
0
40
0.50000000000000611
210
0
220
-0
230
1
100
AcDbArc
50
14.998268599130524
51
104.99826859912406
0
LINE
5
209
100
AcDbEntity
8
0
100
AcDbLine
10
-150.17986673595098
20
-39.734194175820235
30
0
11
-140.18023060910966
21
-77.057855703903257
31
0
0
ARC
5
210
100
AcDbEntity
8
0
100
AcDbCircle
10
-138.24836331509144
20
-76.540275991875461
30
0
40
2.0000000000000071
210
0
220
0
230
1
100
AcDbArc
50
194.99826859913051
51
270
0
LINE
5
211
100
AcDbEntity
8
0
100
AcDbLine
10
-138.24836331509144
20
-78.540275991875461
30
0
11
-92.190022594345635
21
-78.540275991875461
31
0
0
ARC
5
212
100
AcDbEntity
8
0
100
AcDbCircle
10
-92.190022594345635
20
-79.040275991875461
30
0
40
0.50000000000000711
210
0
220
0
230
1
100
AcDbArc
50
0
51
90
0
LINE
5
213
100
AcDbEntity
8
0
100
AcDbLine
10
-91.690022594345635
20
-79.040275991875461
30
0
11
-91.690022594345635
21
-79.641274064875475
31
-2.8610227076342198e-07
0
ARC
5
214
100
AcDbEntity
8
0
100
AcDbCircle
10
-92.190022594345635
20
-79.641274064875475
30
0
40
0.50000000000000711
210
0
220
0
230
1
100
AcDbArc
50
-90
51
3.2778681992047285e-05
0
LINE
5
215
100
AcDbEntity
8
0
100
AcDbLine
10
-92.190022594345635
20
-80.141274064875475
30
0
11
-113.69002259434563
21
-80.141274064875461
31
0
0
ARC
5
216
100
AcDbEntity
8
0
100
AcDbCircle
10
-113.69002259434563
20
-82.141274064875461
30
0
40
1.9999999999999929
210
0
220
-0
230
1
100
AcDbArc
50
90
51
180
0
LINE
5
217
100
AcDbEntity
8
0
100
AcDbLine
10
-115.69002259434562
20
-82.141274064875461
30
0
11
-115.69002259434562
21
-82.241275991875455
31
0
0
ARC
5
218
100
AcDbEntity
8
0
100
AcDbCircle
10
-113.69002259434563
20
-82.241275991875455
30
0
40
1.9999999999999929
210
0
220
0
230
1
100
AcDbArc
50
180
51
270
0
LINE
5
219
100
AcDbEntity
8
0
100
AcDbLine
10
-113.69002259434563
20
-84.24127599187544
30
0
11
-52.690022594345621
21
-84.24127599187544
31
0
0
ARC
5
220
100
AcDbEntity
8
0
100
AcDbCircle
10
-52.690022594345635
20
-82.241275991875455
30
0
40
1.9999999999999929
210
0
220
0
230
1
100
AcDbArc
50
-89.999999999999588
51
0
0
LINE
5
221
100
AcDbEntity
8
0
100
AcDbLine
10
-50.690022594345628
20
-82.241275991875455
30
0
11
-50.690022594345621
21
-82.141274064875461
31
0
0
ARC
5
222
100
AcDbEntity
8
0
100
AcDbCircle
10
-52.690022594345621
20
-82.141274064875461
30
0
40
2.0000000000000018
210
0
220
0
230
1
100
AcDbArc
50
0
51
90
0
LINE
5
223
100
AcDbEntity
8
0
100
AcDbLine
10
-52.690022594345621
20
-80.141274064875461
30
0
11
-74.190022594345606
21
-80.141274064875461
31
0
0
ARC
5
224
100
AcDbEntity
8
0
100
AcDbCircle
10
-74.190022594345606
20
-79.641274064875461
30
0
40
0.49999999999999822
210
0
220
0
230
1
100
AcDbArc
50
180
51
270
0
LINE
5
225
100
AcDbEntity
8
0
100
AcDbLine
10
-74.690022594345592
20
-79.641274064875461
30
0
11
-74.690022594345592
21
-79.040275991875461
31
-2.8610227076342198e-07
0
ARC
5
226
100
AcDbEntity
8
0
100
AcDbCircle
10
-74.190022594345606
20
-79.040275991875461
30
0
40
0.50000000000000711
210
0
220
-0
230
1
100
AcDbArc
50
90
51
179.999967221318
0
LINE
5
227
100
AcDbEntity
8
0
100
AcDbLine
10
-74.190022594345606
20
-78.540275991875461
30
0
11
-25.515811873534599
21
-78.540275991875461
31
0
0
ARC
5
228
100
AcDbEntity
8
0
100
AcDbCircle
10
-25.515811873534602
20
-76.540275991875447
30
0
40
2.0000000000000107
210
0
220
0
230
1
100
AcDbArc
50
-89.999999999999901
51
0
0
LINE
5
229
100
AcDbEntity
8
0
100
AcDbLine
10
-23.515811873534606
20
-76.540275991875447
30
0
11
-23.515811873740674
21
-40.691275990967824
31
0
0
ARC
5
230
100
AcDbEntity
8
0
100
AcDbCircle
10
-21.515811873740674
20
-40.691275990967824
30
0
40
2.0000000000000018
210
0
220
-0
230
1
100
AcDbArc
50
89.999999999999901
51
180
0
LINE
5
231
100
AcDbEntity
8
0
100
AcDbLine
10
-21.51581187374067
20
-38.691275990967824
30
0
11
21.456172990498331
21
-38.691275990967839
31
0
0
ARC
5
232
100
AcDbEntity
8
0
100
AcDbCircle
10
21.456172990498331
20
-40.691275990967824
30
0
40
1.9999999999999929
210
0
220
0
230
1
100
AcDbArc
50
0
51
90
0
LINE
5
233
100
AcDbEntity
8
0
100
AcDbLine
10
23.456172990498324
20
-40.691275990967824
30
0
11
23.456172990292259
21
-76.540275991875447
31
0
0
LWPOLYLINE
5
234
100
AcDbEntity
8
0
100
AcDbPolyline
90
8
70
1
43
0.0
10
146.88918690777962
20
17.274719797814626
10
159.44619374386619
20
13.909729563399644
42
-0.41412016897297199
10
159.80016713254224
20
13.297730051673646
10
156.43517689812731
20
0.7407232155870026
42
-0.41413282455116113
10
155.82317738640131
20
0.38671930933281751
10
143.26617055031471
20
3.751724802536839
42
-0.41413282455120665
10
142.91216664406045
20
4.3637243142628543
10
146.27718739605351
20
16.92073115034944
42
-0.41412649661160272
0
LWPOLYLINE
5
235
100
AcDbEntity
8
0
100
AcDbPolyline
90
8
70
1
43
0.0
10
46.920192765967471
20
55.345718943774528
10
56.113185930139124
20
46.152725779602839
42
-0.41412571801471004
10
56.113185930139139
20
45.44572504717258
10
46.920192765967457
20
36.253723704289989
42
-0.41412571801468068
10
46.213192033537197
20
36.253723704289975
10
37.021175431865522
20
45.445725047172559
42
-0.41412571801471015
10
37.021175431865544
20
46.152725779602861
10
46.213192033537176
20
55.345718943774543
42
-0.41412571801468068
0
LWPOLYLINE
5
236
100
AcDbEntity
8
0
100
AcDbPolyline
90
8
70
1
43
0.0
10
117.17217640937986
20
3.3477178445242126
42
0.41444474065587816
10
117.78518300118394
20
3.7007299294893437
10
121.14916615552077
20
16.257721506786886
42
0.41443842905204958
10
120.79616932934472
20
16.87072809859103
10
108.23919301083623
20
20.234726511716939
42
0.41443842905204958
10
107.62618641903209
20
19.881729685540886
10
104.26217274711715
20
7.3247228494542682
42
0.41442746889888421
10
104.61516957329323
20
6.7117315164391655
0
LWPOLYLINE
5
237
100
AcDbEntity
8
0
100
AcDbPolyline
90
8
70
1
43
0.0
10
24.63618092488252
20
30.400726878048616
42
0.41419931279147071
10
25.319179582117179
20
30.583725535277377
10
31.81917958219438
20
41.842728220957916
42
0.41419931279147004
10
31.636180924965608
20
42.525726878192557
10
20.377178239285083
20
49.025726878269779
42
0.41419931279147004
10
19.694179582050406
20
48.842728221041043
10
13.194179581973223
20
37.583725535360479
42
0.41419931279147004
10
13.37717823920196
20
36.900726878125802
0
LWPOLYLINE
5
238
100
AcDbEntity
8
0
100
AcDbPolyline
90
8
70
1
43
0.0
10
136.80617909515982
20
3.0167241921765626
42
0.41413282455120287
10
137.41817860688593
20
3.3707280984307419
10
140.78316884130084
20
15.927719675728298
42
0.41412016897297199
10
140.42919545262473
20
16.539719187454374
10
127.87218861653814
20
19.904724680658351
42
0.41413282455125228
10
127.26018910481203
20
19.550720774404088
10
123.89516835281904
20
6.9937291971065818
42
0.4141328245512067
10
124.24917225907323
20
6.3817296853806482
0
LWPOLYLINE
5
239
100
AcDbEntity
8
0
100
AcDbPolyline
90
8
70
1
43
0.0
10
52.930172014085684
20
-15.596282399841353
42
0.41485564111903489
10
53.543178605889857
20
-15.242278493587149
10
56.907192277804825
20
-2.6852716575005253
42
0.41371582591823086
10
56.554195451628729
20
-2.0732721457745202
10
43.997173356753066
20
1.2917180886404358
42
0.41483834656543606
10
43.384182023737964
20
0.93772944117530344
10
40.020183610612094
20
-11.619277394911316
42
0.41371582591821804
10
40.373180436788147
20
-12.231276906637321
0
LWPOLYLINE
5
240
100
AcDbEntity
8
0
100
AcDbPolyline
90
8
70
1
43
0.0
10
57.861171770003622
20
2.8047185769396417
42
0.41413282455122635
10
58.473171281729712
20
3.1587224831938632
10
61.838192033722741
20
15.71572931928049
42
0.41413282455118661
10
61.484188127468514
20
16.327728831006493
10
48.927181291381899
20
19.692719065421468
42
0.41412649661153694
10
48.315181779655902
20
19.338730417956317
10
44.950176286451878
20
6.7817235818696968
42
0.41413282455118661
10
45.304180192706113
20
6.1697240701436922
0
LWPOLYLINE
5
241
100
AcDbEntity
8
0
100
AcDbPolyline
90
8
70
1
43
0.0
10
82.953182268348485
20
-50.758277334340931
42
0.41413282455118927
10
83.565181780074539
20
-50.404273428086739
10
86.930172014489457
20
-37.847274221394642
42
0.41413282455120937
10
86.576168108235194
20
-37.235274709668616
10
74.019191789726733
20
-33.870276845859138
42
0.41412966054372113
10
73.407192278000764
20
-34.224273122718813
10
70.042171526007635
20
-46.781272329410896
42
0.41413282455119937
10
70.39617543226187
20
-47.393271841136936
0
LWPOLYLINE
5
242
100
AcDbEntity
8
0
100
AcDbPolyline
90
8
70
1
43
0.0
10
131.87517933924192
20
-15.383269704526327
42
0.41443842905202571
10
132.48818593104605
20
-15.030272878350264
10
135.85216908538288
20
-2.4732813010526988
42
0.41371582591823086
10
135.49917225920683
20
-1.8612817893267293
10
122.94216542312023
20
1.5037237038773217
42
0.4144165091038009
10
122.32918934889427
20
1.1507268777012691
10
118.96517567697924
20
-11.406279958385353
42
0.41442746889893717
10
119.31817250315535
20
-12.019271291400456
0
LWPOLYLINE
5
243
100
AcDbEntity
8
0
100
AcDbPolyline
90
8
70
1
43
0.0
10
107.31118397762209
20
-33.454276479643255
42
0.41444158481635401
10
107.92419056942623
20
-33.101272024072664
10
111.28817372376307
20
-20.54327336669698
42
0.41371582591819761
10
110.93517689758701
20
-19.931273854970943
10
98.378170061500398
20
-16.566268361766948
42
0.41483371465349383
10
97.76519398727433
20
-16.92027226802114
10
94.401180315359426
20
-29.47727147471322
42
0.41372129433788396
10
94.754177141535479
20
-30.089278615833777
0
LWPOLYLINE
5
244
100
AcDbEntity
8
0
100
AcDbPolyline
90
8
70
1
43
0.0
10
48.0001793382459
20
-33.997275747227825
42
0.41413282455119799
10
48.612178849971926
20
-33.643271840973632
10
51.977169084386915
20
-21.08627263428156
42
0.41412016897300219
10
51.623195695710805
20
-20.474273122555502
10
39.066173600835135
20
-17.109267629351518
42
0.41413282455119926
10
38.454174089109095
20
-17.46327153560571
10
35.089183854694156
20
-30.020278371692328
42
0.41413282455118927
10
35.443187760948383
20
-30.632277883418347
0
LWPOLYLINE
5
245
100
AcDbEntity
8
0
100
AcDbPolyline
90
8
70
1
43
0.0
10
141.03118519872561
20
-54.81627599161569
42
0.41485564111905499
10
141.64419179052985
20
-54.462272085361469
10
145.00918202494478
20
-41.905272878669393
42
0.41413282455116651
10
144.65517811869057
20
-41.293273366943389
10
132.098171282604
20
-37.928275503133875
42
0.41412966054376404
10
131.48617177087789
20
-38.282271779993529
10
128.12118153646298
20
-50.839278616080172
42
0.4137158259182408
10
128.47417836263904
20
-51.451278127806155
0
LWPOLYLINE
5
246
100
AcDbEntity
8
0
100
AcDbPolyline
90
8
70
1
43
0.0
10
102.38119130178231
20
-51.855277456424275
42
0.41413282455118927
10
102.99319081350836
20
-51.501273550170083
10
106.35818104792328
20
-38.944274343477979
42
0.41413282455120937
10
106.00417714166902
20
-38.33227483175196
10
93.447170305582432
20
-34.967276967942482
42
0.41412966054372113
10
92.835170793856463
20
-35.32127324480215
10
89.470180559441488
20
-47.878272451494233
42
0.4141328245511765
10
89.82418446569568
20
-48.490271963220259
0
LWPOLYLINE
5
247
100
AcDbEntity
8
0
100
AcDbPolyline
90
8
70
1
43
0.0
10
92.814174700106207
20
-13.956267751384384
42
0.41371582591821177
10
93.426174211832176
20
-13.603270925208307
10
96.791194963825291
20
-1.0462793479107528
42
0.4148556411190169
10
96.43719105757107
20
-0.43327275610660965
10
83.880184221484456
20
2.9307256570192664
42
0.41371582591821088
10
83.268184709758486
20
2.5777288308432134
10
79.903194475343511
20
-9.9792780052434065
42
0.41483201572564438
10
80.257167864019578
20
-10.592269338258456
0
LWPOLYLINE
5
248
100
AcDbEntity
8
0
100
AcDbPolyline
90
8
70
1
43
0.0
10
117.0841942316444
20
-70.586272634869346
42
0.41371582591821798
10
117.69619374337034
20
-70.233275808693278
10
121.06118397778539
20
-57.676276602001209
42
0.41485015936801883
10
120.7071800715312
20
-57.063277639591547
10
108.15017323544453
20
-53.699271597071167
42
0.41371898007444413
10
107.53817372371849
20
-54.052276052641758
10
104.17318348930358
20
-66.609275259333856
42
0.41413282455118927
10
104.5271873955578
20
-67.221274771059868
0
LWPOLYLINE
5
249
100
AcDbEntity
8
0
100
AcDbPolyline
90
8
70
1
43
0.0
10
112.24218373354003
20
-15.053267873467725
42
0.41371582591821549
10
112.854183245266
20
-14.70027104729164
10
116.21917347968105
20
-2.1432794699941105
42
0.41485564111904999
10
115.86516957342678
20
-1.5302728781899311
10
103.30819325491828
20
1.8337255349359272
42
0.41371582591821066
10
102.69619374319231
20
1.4807287087598731
10
99.33117299119921
20
-11.076278127326747
42
0.41484467770680683
10
99.685176897453402
20
-11.689269460341814
0
LWPOLYLINE
5
250
100
AcDbEntity
8
0
100
AcDbPolyline
90
8
70
1
43
0.0
10
145.96218495464359
20
-36.41527501483467
42
0.41412966054370337
10
146.5741844663695
20
-36.061278737974988
10
149.93917470078452
20
-23.50427190188838
42
0.41413282455116651
10
149.58517079453034
20
-22.892272390162375
10
137.02819447602184
20
-19.527282155747418
42
0.41412649661157946
10
136.41619496429578
20
-19.881270803212587
10
133.05117421230273
20
-32.438277639299173
42
0.41413282455120937
10
133.40517811855699
20
-33.050277151025192
0
LWPOLYLINE
5
251
100
AcDbEntity
8
0
100
AcDbPolyline
90
8
70
1
43
0.0
10
65.653194475174288
20
23.475723826208565
42
0.41418710328450431
10
66.336177873619931
20
23.658722483437302
10
72.836177873697082
20
34.917725169117865
42
0.41419604153724737
10
72.653194475257379
20
35.600723826352542
10
61.394191789576851
20
42.100723826429729
42
0.414211522676593
10
60.711177873553062
20
41.917725169200992
10
54.211177873475918
20
30.658722483520428
42
0.41420258432606605
10
54.394191789493732
20
29.975723826285751
0
LWPOLYLINE
5
252
100
AcDbEntity
8
0
100
AcDbPolyline
90
8
70
1
43
0.0
10
97.450191545864371
20
-70.256278433205281
42
0.41483371465350122
10
98.063167620090411
20
-69.902274526951075
10
101.42718129200534
20
-57.345275320258992
42
0.41371582591824579
10
101.07418446582923
20
-56.733275808532994
10
88.517177629742633
20
-53.368277944723481
42
0.41485247548579995
10
87.904171037938454
20
-53.722274221583149
10
84.540187883601703
20
-66.279273428275246
42
0.41371582591823081
10
84.893184709777785
20
-66.891272940001244
0
LWPOLYLINE
5
253
100
AcDbEntity
8
0
100
AcDbPolyline
90
8
70
1
43
0.0
10
87.737178850436521
20
16.164719187449879
42
0.41413282455118927
10
88.349178362162576
20
16.518723093704072
10
91.714168596577508
20
29.075729929790697
42
0.41412016897297199
10
91.360195207901427
20
29.687729441516737
10
78.803188371814812
20
33.052719675931669
42
0.41412649661155704
10
78.191188860088772
20
32.698731028466518
10
74.826168108095715
20
20.1417241923799
42
0.41413282455118661
10
75.180172014349949
20
19.529724680653896
0
LWPOLYLINE
5
254
100
AcDbEntity
8
0
100
AcDbPolyline
90
8
70
1
43
0.0
10
60.649166154802366
20
-60.395278372053021
42
0.41413282455118661
10
61.261165666528406
20
-60.041274465798828
10
64.626186418521471
20
-47.484275259106738
42
0.41413282455118927
10
64.272182512267236
20
-46.872275747380712
10
51.715175676180664
20
-43.507277883571234
42
0.41412966054373657
10
51.103176164454624
20
-43.861274160430888
10
47.738185930039677
20
-56.418273367122993
42
0.41371582591821804
10
48.09118275621573
20
-57.030272878848997
0
LWPOLYLINE
5
255
100
AcDbEntity
8
0
100
AcDbPolyline
90
8
70
1
43
0.0
10
43.069179582327962
20
-52.398276724008845
42
0.41485564111902223
10
43.682186174132141
20
-52.044272817754646
10
47.046169328468977
20
-39.48727361106257
42
0.41371582591821804
10
46.693172502292896
20
-38.875274099336529
10
34.136180924995344
20
-35.510276235527051
42
0.41443842905205963
10
33.5231743331912
20
-35.863273061703119
10
30.159175920065287
20
-48.420272268395202
42
0.41444474065593279
10
30.512188005030417
20
-49.033278860199346
0
LWPOLYLINE
5
256
100
AcDbEntity
8
0
100
AcDbPolyline
90
8
70
1
43
0.0
10
65.579189348220282
20
-41.994277395272015
42
0.4141328245511765
10
66.191188859946323
20
-41.640273489017837
10
69.556179094361255
20
-29.083281911720277
42
0.41413282455120937
10
69.202175188107034
20
-28.471282399994216
10
56.645168352020448
20
-25.106276906790228
42
0.4141328245511765
10
56.033168840294408
20
-25.460280813044402
10
52.668178605879476
20
-38.017272390341972
42
0.4141328245511765
10
53.022182512133668
20
-38.629271902067998
0
LWPOLYLINE
5
257
100
AcDbEntity
8
0
100
AcDbPolyline
90
8
70
1
43
0.0
10
122.0141869074842
20
-52.18527165808834
42
0.41443842905202949
10
122.62719349928831
20
-51.832274831912287
10
125.99117665362515
20
-39.275275625220203
42
0.41443294893072952
10
125.63817982744909
20
-38.662276662810584
10
113.08117299136254
20
-35.298278249684707
42
0.41443842905208239
10
112.46816639955836
20
-35.65127507586076
10
109.10418324522152
20
-48.208274282552843
42
0.41443294893073962
10
109.4571800713976
20
-48.821273244962448
0
LWPOLYLINE
5
258
100
AcDbEntity
8
0
100
AcDbPolyline
90
8
70
1
43
0.0
10
126.9451866634021
20
-33.784278310701865
42
0.41371898007444641
10
127.55718617512812
20
-33.431273855131266
10
130.92217640954311
20
-20.874282277833728
42
0.41485564111904999
10
130.56817250328885
20
-20.261275686029549
10
118.01116566720228
20
-16.897277272903693
42
0.41371582591822104
10
117.39916615547631
20
-17.250274099079761
10
114.03417592106126
20
-29.807273305771822
42
0.41485015936805303
10
114.38817982731553
20
-30.420272268181499
0
LWPOLYLINE
5
259
100
AcDbEntity
8
0
100
AcDbPolyline
90
8
70
1
43
0.0
10
87.883174944188269
20
-32.357276357559918
42
0.41444158481635401
10
88.496181535992406
20
-32.004271901989327
10
91.860195207907367
20
-19.447280324691782
42
0.41445105256091458
10
91.507167864153161
20
-18.83427373288762
10
78.950191545644671
20
-15.469268239683608
42
0.41485564111901452
10
78.337184953840563
20
-15.823272145937818
10
74.973171281925573
20
-28.380278982024414
42
0.41371582591823081
10
75.326168108101655
20
-28.992278493750419
0
LWPOLYLINE
5
260
100
AcDbEntity
8
0
100
AcDbPolyline
90
8
70
1
43
0.0
10
70.510189104138206
20
-23.593276418491005
42
0.41371582591822575
10
71.122188615864232
20
-23.240279592314941
10
74.487178850279193
20
-10.682280934939266
42
0.4141328245511765
10
74.133174944025001
20
-10.070281423213244
10
61.576168107938372
20
-6.7052759300092273
42
0.41413282455119926
10
60.964168596212332
20
-7.0592798362634195
10
57.599178361797399
20
-19.616271413560963
42
0.41371582591821837
10
57.952175187973452
20
-20.228270925286971
0
LWPOLYLINE
5
261
100
AcDbEntity
8
0
100
AcDbPolyline
90
8
70
1
43
0.0
10
75.440181779978005
20
-5.1922754417100041
42
0.41371582591821077
10
76.052181291704031
20
-4.8392786155339493
10
79.417171526118977
20
7.7177282205526856
42
0.41484467770681954
10
79.063167619864785
20
8.3307195535677874
10
66.506191301356282
20
11.694717966693664
42
0.41371582591822342
10
65.894191789630241
20
11.341721140517611
10
62.529171037637184
20
-1.2152704367799489
42
0.41485564111900713
10
62.883174943891376
20
-1.8282770285841106
0
LWPOLYLINE
5
262
100
AcDbEntity
8
0
100
AcDbPolyline
90
8
70
1
43
0.0
10
78.022182512430561
20
-69.159278311121938
42
0.41485564111902723
10
78.63518910423474
20
-68.805274404867731
10
81.999172258571519
20
-56.248275198175655
42
0.41371582591820805
10
81.646175432395438
20
-55.636275686449636
10
69.089168596308824
20
-52.271277822640137
42
0.41483054906994637
10
68.476192522082769
20
-52.625274099499848
10
65.112178850167851
20
-65.182273306191902
42
0.4137158259182509
10
65.465175676343975
20
-65.794272817917914
0
LWPOLYLINE
5
263
100
AcDbEntity
8
0
100
AcDbPolyline
90
8
70
1
43
0.0
10
137.98217396822071
20
-14.037276662518156
42
0.41371582591823142
10
138.33517079439676
20
-14.649276174244131
10
150.89318471056148
20
-18.014281667448195
42
0.41413282455121136
10
151.50518422228751
20
-17.660277761193985
10
154.8701744567025
20
-5.103270925107366
42
0.41413282455116635
10
154.51617055044829
20
-4.4912714133813623
10
141.95919423193979
20
-1.1262811789664058
42
0.41412649661158724
10
141.34719472021376
20
-1.4802698264315395
0
LWPOLYLINE
5
264
100
AcDbEntity
8
0
100
AcDbPolyline
90
8
70
1
43
0.0
10
-138.3948096776391
20
-14.64927617424414
42
0.41371582591823142
10
-138.04181285146305
20
-14.037276662518165
10
-141.40683360345608
20
-1.4802698264315395
42
0.41412649661158585
10
-142.01883311518213
20
-1.1262811789664133
10
-154.57580943369064
20
-4.4912714133813783
42
0.41413282455116529
10
-154.92981333994484
20
-5.1032709251073749
10
-151.56482310552991
20
-17.660277761194006
42
0.41413282455121192
10
-150.95282359380383
20
-18.014281667448206
0
LWPOLYLINE
5
265
100
AcDbEntity
8
0
100
AcDbPolyline
90
8
70
1
43
0.0
10
-78.694827987477069
20
-68.805274404867731
42
0.41485564111902723
10
-78.08182139567289
20
-69.159278311121938
10
-65.524814559586304
20
-65.794272817917914
42
0.41371582591825223
10
-65.17181773341018
20
-65.182273306191902
10
-68.535831405325098
20
-52.625274099499826
42
0.414830549069935
10
-69.148807479551152
20
-52.271277822640137
10
-81.705814315637781
20
-55.636275686449622
42
0.41371582591820932
10
-82.058811141813877
20
-56.248275198175655
0
LWPOLYLINE
5
266
100
AcDbEntity
8
0
100
AcDbPolyline
90
8
70
1
43
0.0
10
-76.111820174946359
20
-4.8392786155339538
42
0.41371582591821077
10
-75.499820663220333
20
-5.1922754417100077
10
-62.942813827133719
20
-1.8282770285841061
42
0.41485564111901096
10
-62.58880992087952
20
-1.2152704367799516
10
-65.953830672872598
20
11.341721140517603
42
0.41371582591822326
10
-66.56583018459861
20
11.694717966693659
10
-79.122806503107114
20
8.3307195535677661
42
0.41484467770681688
10
-79.476810409361306
20
7.7177282205526812
0
LWPOLYLINE
5
267
100
AcDbEntity
8
0
100
AcDbPolyline
90
8
70
1
43
0.0
10
-71.181827499106561
20
-23.240279592314941
42
0.41371582591822575
10
-70.569827987380535
20
-23.593276418491005
10
-58.011814071215781
20
-20.228270925286989
42
0.41371582591821604
10
-57.658817245039735
20
-19.616271413560963
10
-61.023807479454675
20
-7.0592798362634257
42
0.41413282455119921
10
-61.635806991180708
20
-6.7052759300092308
10
-74.192813827267329
20
-10.070281423213249
42
0.41413282455117623
10
-74.546817733521522
20
-10.68228093493927
0
LWPOLYLINE
5
268
100
AcDbEntity
8
0
100
AcDbPolyline
90
8
70
1
43
0.0
10
-88.555820419234763
20
-32.004271901989334
42
0.41444158481635401
10
-87.942813827430626
20
-32.357276357559925
10
-75.385806991343983
20
-28.99227849375043
42
0.41371582591823214
10
-75.032810165167902
20
-28.380278982024414
10
-78.396823837082877
20
-15.823272145937818
42
0.41485564111901468
10
-79.009830428887
20
-15.469268239683611
10
-91.566806747395532
20
-18.83427373288762
42
0.41445105256090592
10
-91.91983409114971
20
-19.447280324691793
0
LWPOLYLINE
5
269
100
AcDbEntity
8
0
100
AcDbPolyline
90
8
70
1
43
0.0
10
-127.61682505837047
20
-33.431273855131273
42
0.41371898007444641
10
-127.00482554664445
20
-33.784278310701872
10
-114.44781871055788
20
-30.42027226818151
42
0.41485015936805303
10
-114.09381480430362
20
-29.807273305771833
10
-117.45880503871868
20
-17.250274099079771
42
0.41371582591821765
10
-118.07080455044463
20
-16.897277272903697
10
-130.62781138653119
20
-20.261275686029563
42
0.41485564111904871
10
-130.98181529278546
20
-20.874282277833736
0
LWPOLYLINE
5
270
100
AcDbEntity
8
0
100
AcDbPolyline
90
8
70
1
43
0.0
10
-122.68683238253067
20
-51.832274831912287
42
0.41443842905202949
10
-122.07382579072656
20
-52.18527165808834
10
-109.51681895463994
20
-48.821273244962448
42
0.41443294893073962
10
-109.16382212846386
20
-48.208274282552843
10
-112.52780528280068
20
-35.65127507586076
42
0.41443842905208006
10
-113.14081187460488
20
-35.298278249684714
10
-125.69781871069145
20
-38.662276662810584
42
0.41443294893072952
10
-126.0508155368675
20
-39.275275625220203
0
LWPOLYLINE
5
271
100
AcDbEntity
8
0
100
AcDbPolyline
90
8
70
1
43
0.0
10
-66.250827743188651
20
-41.640273489017837
42
0.4141328245511765
10
-65.638828231462611
20
-41.994277395272015
10
-53.081821395375997
20
-38.629271902067998
42
0.4141328245511765
10
-52.727817489121804
20
-38.017272390341972
10
-56.092807723536744
20
-25.460280813044402
42
0.4141328245511765
10
-56.704807235262784
20
-25.106276906790228
10
-69.261814071349391
20
-28.471282399994237
42
0.41413282455118661
10
-69.615817977603584
20
-29.083281911720277
0
LWPOLYLINE
5
272
100
AcDbEntity
8
0
100
AcDbPolyline
90
8
70
1
43
0.0
10
-43.741825057374477
20
-52.044272817754646
42
0.41485564111902223
10
-43.128818465570298
20
-52.398276724008845
10
-30.571826888272756
20
-49.033278860199346
42
0.41444474065593279
10
-30.218814803307627
20
-48.420272268395202
10
-33.582813216433522
20
-35.863273061703119
42
0.4144384290520623
10
-34.195819808237687
20
-35.510276235527051
10
-46.752811385535232
20
-38.875274099336508
42
0.41371582591821576
10
-47.105808211711313
20
-39.48727361106257
0
LWPOLYLINE
5
273
100
AcDbEntity
8
0
100
AcDbPolyline
90
8
70
1
43
0.0
10
-61.320804549770742
20
-60.041274465798828
42
0.41413282455118661
10
-60.708805038044702
20
-60.395278372053021
10
-48.150821639458059
20
-57.030272878849011
42
0.41371582591821571
10
-47.797824813282013
20
-56.418273367122993
10
-51.162815047696981
20
-43.861274160430895
42
0.41412966054373751
10
-51.774814559422992
20
-43.507277883571234
10
-64.331821395509564
20
-46.872275747380733
42
0.41413282455118661
10
-64.685825301763799
20
-47.484275259106738
0
LWPOLYLINE
5
274
100
AcDbEntity
8
0
100
AcDbPolyline
90
8
70
1
43
0.0
10
-88.408817245404933
20
16.518723093704068
42
0.41413282455118927
10
-87.796817733678864
20
16.164719187449876
10
-75.239810897592278
20
19.529724680653889
42
0.41413282455118694
10
-74.885806991338043
20
20.141724192379897
10
-78.250827743331087
20
32.698731028466526
42
0.41412649661155476
10
-78.862827255057141
20
33.052719675931669
10
-91.419834091143755
20
29.687729441516719
42
0.41412016897298071
10
-91.773807479819851
20
29.07572992979069
0
LWPOLYLINE
5
275
100
AcDbEntity
8
0
100
AcDbPolyline
90
8
70
1
43
0.0
10
-98.122806503332768
20
-69.902274526951075
42
0.41483371465350122
10
-97.509830429106728
20
-70.256278433205281
10
-84.952823593020128
20
-66.891272940001244
42
0.41371582591823081
10
-84.599826766844046
20
-66.279273428275246
10
-87.963809921180825
20
-53.722274221583149
42
0.41485247548579729
10
-88.57681651298499
20
-53.368277944723481
10
-101.13382334907158
20
-56.73327580853298
42
0.41371582591824718
10
-101.4868201752477
20
-57.345275320258992
0
LWPOLYLINE
5
276
100
AcDbEntity
8
0
100
AcDbPolyline
90
8
70
1
43
0.0
10
-66.395816756862274
20
23.658722483437302
42
0.41418710328450431
10
-65.712833358416617
20
23.475723826208565
10
-54.453830672736061
20
29.97572382628573
42
0.41420258432606677
10
-54.270816756718254
20
30.658722483520428
10
-60.770816756795377
20
41.917725169200999
42
0.41421152267659361
10
-61.453830672819187
20
42.100723826429729
10
-72.712833358499708
20
35.600723826352542
42
0.41419604153724737
10
-72.895816756939411
20
34.917725169117865
0
LWPOLYLINE
5
277
100
AcDbEntity
8
0
100
AcDbPolyline
90
8
70
1
43
0.0
10
-146.63382334961184
20
-36.061278737975002
42
0.41412966054370337
10
-146.02182383788593
20
-36.415275014834677
10
-133.46481700179933
20
-33.050277151025192
42
0.41413282455120803
10
-133.11081309554507
20
-32.43827763929918
10
-136.47583384753818
20
-19.88127080321259
42
0.41412649661156886
10
-137.08783335926418
20
-19.527282155747429
10
-149.64480967777268
20
-22.89227239016239
42
0.41413282455116512
10
-149.99881358402686
20
-23.504271901888387
0
LWPOLYLINE
5
278
100
AcDbEntity
8
0
100
AcDbPolyline
90
8
70
1
43
0.0
10
-112.91382212850834
20
-14.700271047291643
42
0.41371582591821549
10
-112.30182261678237
20
-15.053267873467728
10
-99.744815780695745
20
-11.689269460341812
42
0.41484467770680578
10
-99.390811874441567
20
-11.07627812732675
10
-102.75583262643467
20
1.4807287087598668
42
0.41371582591820882
10
-103.36783213816062
20
1.8337255349359212
10
-115.92480845666913
20
-1.530272878189944
42
0.4148556411190491
10
-116.27881236292339
20
-2.1432794699941171
0
LWPOLYLINE
5
279
100
AcDbEntity
8
0
100
AcDbPolyline
90
8
70
1
43
0.0
10
-117.7558326266127
20
-70.233275808693278
42
0.41371582591821798
10
-117.14383311488675
20
-70.586272634869346
10
-104.58682627880016
20
-67.221274771059853
42
0.41413282455118661
10
-104.23282237254594
20
-66.609275259333856
10
-107.59781260696086
20
-54.052276052641766
42
0.41371898007444641
10
-108.20981211868687
20
-53.699271597071167
10
-120.76681895477356
20
-57.063277639591547
42
0.41485015936801883
10
-121.12082286102775
20
-57.676276602001209
0
LWPOLYLINE
5
280
100
AcDbEntity
8
0
100
AcDbPolyline
90
8
70
1
43
0.0
10
-93.485813095074519
20
-13.60327092520831
42
0.41371582591821177
10
-92.87381358334855
20
-13.956267751384388
10
-80.316806747261921
20
-10.592269338258456
42
0.41483201572564099
10
-79.96283335858584
20
-9.97927800524341
10
-83.327823593000844
20
2.5777288308432071
42
0.41371582591820888
10
-83.939823104726798
20
2.9307256570192619
10
-96.496829940813427
20
-0.43327275610661853
42
0.41485564111901635
10
-96.850833847067648
20
-1.046279347910759
0
LWPOLYLINE
5
281
100
AcDbEntity
8
0
100
AcDbPolyline
90
8
70
1
43
0.0
10
-103.05282969675071
20
-51.501273550170083
42
0.41413282455118927
10
-102.44083018502465
20
-51.855277456424275
10
-89.883823348938023
20
-48.490271963220259
42
0.4141328245511765
10
-89.529819442683845
20
-47.878272451494233
10
-92.894809677098806
20
-35.32127324480215
42
0.41412966054371614
10
-93.506809188824775
20
-34.967276967942489
10
-106.0638160249114
20
-38.332274831751974
42
0.41413282455118661
10
-106.41781993116564
20
-38.944274343477979
0
LWPOLYLINE
5
282
100
AcDbEntity
8
0
100
AcDbPolyline
90
8
70
1
43
0.0
10
-156.49481578136965
20
0.74072321558699383
42
0.41413282455116257
10
-155.88281626964366
20
0.38671930933280863
10
-143.32580943355705
20
3.751724802536831
42
0.41413282455120837
10
-142.97180552730279
20
4.3637243142628463
10
-146.33682627929585
20
16.920731150349432
42
0.41412649661160272
10
-146.94882579102196
20
17.274719797814619
10
-159.50583262710853
20
13.909729563399635
42
0.41412016897298104
10
-159.85980601578459
20
13.297730051673637
0
LWPOLYLINE
5
283
100
AcDbEntity
8
0
100
AcDbPolyline
90
8
70
1
43
0.0
10
-141.70383067377219
20
-54.462272085361469
42
0.41485564111905499
10
-141.09082408196795
20
-54.81627599161569
10
-128.53381724588138
20
-51.451278127806162
42
0.41371582591824219
10
-128.18082041970533
20
-50.839278616080172
10
-131.54581065412023
20
-38.282271779993529
42
0.41412966054376404
10
-132.15781016584634
20
-37.928275503133875
10
-144.71481700193291
20
-41.293273366943396
42
0.41413282455116512
10
-145.06882090818712
20
-41.905272878669393
0
LWPOLYLINE
5
284
100
AcDbEntity
8
0
100
AcDbPolyline
90
8
70
1
43
0.0
10
-48.671817733214262
20
-33.643271840973632
42
0.41413282455119799
10
-48.059818221488229
20
-33.997275747227825
10
-35.502826644190726
20
-30.632277883418332
42
0.41413282455118661
10
-35.148822737936499
20
-30.020278371692328
10
-38.513812972351445
20
-17.46327153560571
42
0.41413282455119799
10
-39.125812484077478
20
-17.109267629351518
10
-51.682834578953134
20
-20.474273122555495
42
0.41412016897300347
10
-52.036807967629244
20
-21.08627263428156
0
LWPOLYLINE
5
285
100
AcDbEntity
8
0
100
AcDbPolyline
90
8
70
1
43
0.0
10
-107.98382945266859
20
-33.101272024072671
42
0.41444158481635401
10
-107.37082286086445
20
-33.454276479643269
10
-94.813816024777822
20
-30.089278615833788
42
0.41372129433788396
10
-94.460819198601769
20
-29.477271474713227
10
-97.824832870516701
20
-16.920272268021144
42
0.41483371465349117
10
-98.437808944742756
20
-16.566268361766952
10
-110.99481578082937
20
-19.931273854970943
42
0.413715825918199
10
-111.34781260700542
20
-20.54327336669699
0
LWPOLYLINE
5
286
100
AcDbEntity
8
0
100
AcDbPolyline
90
8
70
1
43
0.0
10
-132.54782481428839
20
-15.030272878350273
42
0.41443842905202571
10
-131.93481822248427
20
-15.383269704526336
10
-119.37781138639771
20
-12.019271291400461
42
0.4144274688989375
10
-119.02481456022159
20
-11.406279958385356
10
-122.38882823213659
20
1.1507268777012734
42
0.41441650910379968
10
-123.00180430636259
20
1.5037237038773144
10
-135.55881114244917
20
-1.8612817893267342
42
0.41371582591823103
10
-135.91180796862523
20
-2.4732813010527055
0
LWPOLYLINE
5
287
100
AcDbEntity
8
0
100
AcDbPolyline
90
8
70
1
43
0.0
10
-83.624820663316882
20
-50.404273428086739
42
0.41413282455118927
10
-83.012821151590828
20
-50.758277334340931
10
-70.455814315504199
20
-47.393271841136922
42
0.41413282455119799
10
-70.101810409249964
20
-46.781272329410896
10
-73.466831161243093
20
-34.224273122718813
42
0.41412966054372113
10
-74.078830672969062
20
-33.870276845859138
10
-86.63580699147758
20
-37.235274709668644
42
0.41413282455118522
10
-86.989810897731815
20
-37.847274221394642
0
LWPOLYLINE
5
288
100
AcDbEntity
8
0
100
AcDbPolyline
90
8
70
1
43
0.0
10
-58.532810164972048
20
3.1587224831938605
42
0.41413282455122635
10
-57.920810653245951
20
2.8047185769396381
10
-45.363819075948442
20
6.1697240701436868
42
0.41413282455118694
10
-45.009815169694214
20
6.7817235818696942
10
-48.374820662898223
20
19.338730417956313
42
0.41412649661153705
10
-48.986820174624235
20
19.692719065421464
10
-61.543827010710849
20
16.327728831006493
42
0.41413282455118694
10
-61.897830916965077
20
15.715729319280484
0
LWPOLYLINE
5
289
100
AcDbEntity
8
0
100
AcDbPolyline
90
8
70
1
43
0.0
10
-53.602817489132192
20
-15.242278493587154
42
0.41485564111903489
10
-52.98981089732802
20
-15.596282399841357
10
-40.432819320030468
20
-12.231276906637341
42
0.41371582591821537
10
-40.079822493854422
20
-11.61927739491132
10
-43.443820906980292
20
0.93772944117530288
42
0.414838346565436
10
-44.056812239995402
20
1.2917180886404334
10
-56.613834334871065
20
-2.0732721457745207
42
0.41371582591823108
10
-56.966831161047153
20
-2.6852716575005275
0
LWPOLYLINE
5
290
100
AcDbEntity
8
0
100
AcDbPolyline
90
8
70
1
43
0.0
10
-136.77283091785421
20
-72.863273062142511
42
0.41413282455116152
10
-136.16083140612821
20
-73.217276968396703
10
-123.60382457004162
20
-69.852271475192666
42
0.41413282455120803
10
-123.24982066378736
20
-69.240271963466654
10
-126.61481089820231
20
-56.682273306090956
42
0.41371582591824585
10
-127.22681040992838
20
-56.329276479914896
10
-139.78381724601496
20
-59.694274343724381
42
0.4141328245511765
10
-140.13782115226914
20
-60.306273855450399
0
LWPOLYLINE
5
291
100
AcDbEntity
8
0
100
AcDbPolyline
90
8
70
1
43
0.0
10
-137.47781749012827
20
3.3707280984307353
42
0.41413282455120282
10
-136.86581797840216
20
3.0167241921765546
10
-124.30881114231559
20
6.3817296853806305
42
0.41413282455120837
10
-123.9548072360614
20
6.9937291971065747
10
-127.31982798805439
20
19.550720774404112
42
0.41413282455123468
10
-127.9318274997805
20
19.904724680658344
10
-140.48883433586707
20
16.539719187454359
42
0.41412016897298104
10
-140.84280772454318
20
15.927719675728289
0
LWPOLYLINE
5
292
100
AcDbEntity
8
0
100
AcDbPolyline
90
8
70
1
43
0.0
10
-25.378818465359522
20
30.583725535277377
42
0.41419931279147071
10
-24.69581980812486
20
30.400726878048616
10
-13.436817122444287
20
36.900726878125781
42
0.4141993127914696
10
-13.253818465215561
20
37.583725535360479
10
-19.753818465292728
20
48.842728221041057
42
0.41419931279146688
10
-20.436817122527422
20
49.025726878269779
10
-31.695819808207958
20
42.525726878192572
42
0.41419931279147071
10
-31.878818465436719
20
41.842728220957916
0
LWPOLYLINE
5
293
100
AcDbEntity
8
0
100
AcDbPolyline
90
8
70
1
43
0.0
10
-117.8448218844263
20
3.700729929489337
42
0.41444474065587777
10
-117.2318152926222
20
3.3477178445242064
10
-104.67480845653557
20
6.7117315164391638
42
0.41442746889888349
10
-104.32181163035949
20
7.3247228494542611
10
-107.68582530227442
20
19.881729685540886
42
0.41443842905204975
10
-108.29883189407859
20
20.234726511716936
10
-120.85580821258708
20
16.870728098591037
42
0.41443842905205192
10
-121.20880503876313
20
16.257721506786879
0
LWPOLYLINE
5
294
100
AcDbEntity
8
0
100
AcDbPolyline
90
8
70
1
43
0.0
10
-56.172824813381474
20
46.152725779602861
10
-46.979831649209807
20
55.345718943774528
42
-0.41412571801468068
10
-46.272830916779512
20
55.345718943774543
10
-37.080814315107887
20
46.152725779602861
42
-0.41412571801471004
10
-37.080814315107865
20
45.445725047172559
10
-46.272830916779526
20
36.253723704289975
42
-0.41412571801468068
10
-46.979831649209785
20
36.253723704289989
10
-56.172824813381496
20
45.445725047172559
42
-0.41412571801471004
0
LWPOLYLINE
5
295
100
AcDbEntity
8
0
100
AcDbPolyline
90
8
70
1
43
0.0
10
6.4701805584558736
20
38.751724802952474
10
-6.529819441698212
20
38.751724802952474
42
-0.41421356237309503
10
-7.0298194417041522
20
39.251724802958414
10
-7.0298194417041522
20
52.251724803112786
42
-0.41421356237309503
10
-6.529819441698212
20
52.751724803118726
10
6.4701805584558736
20
52.751724803118726
42
-0.41421356237309503
10
6.9701805584618137
20
52.251724803112786
10
6.9701805584618137
20
39.251724802958414
42
-0.41421356237309503
0
LWPOLYLINE
5
296
100
AcDbEntity
8
0
100
AcDbPolyline
90
8
70
1
43
0.0
10
136.10119252288587
20
-73.217276968396703
10
123.54418568679927
20
-69.852271475192666
42
-0.41413282455120937
10
123.190181780545
20
-69.240271963466654
10
126.55517201495996
20
-56.682273306090956
42
-0.41371582591824813
10
127.16717152668602
20
-56.329276479914896
10
139.72417836277262
20
-59.694274343724381
42
-0.4141328245511765
10
140.0781822690268
20
-60.306273855450399
10
136.71319203461186
20
-72.863273062142511
42
-0.41413282455116113
0
LWPOLYLINE
5
297
100
AcDbEntity
8
0
100
AcDbPolyline
90
8
70
1
43
0.0
10
14.783184098593642
20
56.801727854924621
10
9.0331840985253677
20
56.801727854924621
42
-0.41421356237309503
10
8.5331840985194276
20
57.301727854930562
10
8.5331840985194258
20
70.30172785508492
42
-0.41421356237309503
10
9.033184098525366
20
70.80172785509086
10
14.783184098593642
20
70.80172785509086
42
-0.41421356237309503
10
15.28318409859958
20
70.30172785508492
10
15.283184098599582
20
57.301727854930562
42
-0.41421356237309503
0
LWPOLYLINE
5
298
100
AcDbEntity
8
0
100
AcDbPolyline
90
8
70
1
43
0.0
10
6.4701805584558736
20
57.801727854936502
10
-6.529819441698212
20
57.801727854936502
42
-0.41421356237309503
10
-7.0298194417041522
20
58.301727854942442
10
-7.029819441704154
20
71.3017278550968
42
-0.41421356237309503
10
-6.5298194416982138
20
71.80172785510274
10
6.4701805584558727
20
71.80172785510274
42
-0.41421356237309503
10
6.9701805584618128
20
71.3017278550968
10
6.9701805584618137
20
58.301727854942442
42
-0.41421356237309503
0
LWPOLYLINE
5
299
100
AcDbEntity
8
0
100
AcDbPolyline
90
8
70
1
43
0.0
10
-8.592822981761767
20
70.30172785508492
10
-8.592822981761767
20
57.301727854930562
42
-0.41421356237309503
10
-9.0928229817677071
20
56.801727854924621
10
-14.842822981835983
20
56.801727854924621
42
-0.41421356237309503
10
-15.342822981841922
20
57.301727854930562
10
-15.342822981841923
20
70.30172785508492
42
-0.41421356237309503
10
-14.842822981835983
20
70.80172785509086
10
-9.0928229817677071
20
70.80172785509086
42
-0.41421356237309503
0
CIRCLE
5
300
100
AcDbEntity
8
0
100
AcDbCircle
10
-0.029819441621168275
20
0.031724802524906726
30
-1.1102230246251565e-15
40
32
210
-1.9721522630525286e-31
220
-5.4738221262685043e-48
230
1
0
ENDSEC
0
SECTION
2
OBJECTS
0
DICTIONARY
5
C
100
AcDbDictionary
3
ACAD_GROUP
350
D
3
ACAD_MLINESTYLE
350
17
0
DICTIONARY
5
D
100
AcDbDictionary
0
DICTIONARY
5
1A
330
C
100
AcDbDictionary
0
DICTIONARY
5
17
100
AcDbDictionary
0
ENDSEC
0
EOF
