0
SECTION
2
HEADER
9
$INSUNITS
70
4
9
$ACADVER
1
AC1014
9
$HANDSEED
5
FFFF
0
ENDSEC
0
SECTION
2
TABLES
0
TABLE
2
VPORT
5
8
100
AcDbSymbolTable
0
ENDTAB
0
TABLE
2
LTYPE
5
5
100
AcDbSymbolTable
0
LTYPE
5
14
100
AcDbSymbolTableRecord
100
AcDbLinetypeTableRecord
2
BYBLOCK
70
0
0
LTYPE
5
15
100
AcDbSymbolTableRecord
100
AcDbLinetypeTableRecord
2
BYLAYER
70
0
0
ENDTAB
0
TABLE
2
LAYER
5
2
100
AcDbSymbolTable
70
2
0
LAYER
5
50
100
AcDbSymbolTableRecord
100
AcDbLayerTableRecord
2
0
70
0
6
CONTINUOUS
0
ENDTAB
0
TABLE
2
STYLE
5
3
100
AcDbSymbolTable
70
1
0
STYLE
5
11
100
AcDbSymbolTableRecord
100
AcDbTextStyleTableRecord
2
STANDARD
70
0
0
ENDTAB
0
TABLE
2
VIEW
5
6
100
AcDbSymbolTable
70
0
0
ENDTAB
0
TABLE
2
UCS
5
7
100
AcDbSymbolTable
70
0
0
ENDTAB
0
TABLE
2
APPID
5
9
100
AcDbSymbolTable
70
2
0
APPID
5
12
100
AcDbSymbolTableRecord
100
AcDbRegAppTableRecord
2
ACAD
70
0
0
ENDTAB
0
TABLE
2
DIMSTYLE
5
A
100
AcDbSymbolTable
70
1
0
ENDTAB
0
TABLE
2
BLOCK_RECORD
5
1
100
AcDbSymbolTable
70
1
0
BLOCK_RECORD
5
1F
100
AcDbSymbolTableRecord
100
AcDbBlockTableRecord
2
*MODEL_SPACE
0
BLOCK_RECORD
5
1B
100
AcDbSymbolTableRecord
100
AcDbBlockTableRecord
2
*PAPER_SPACE
0
ENDTAB
0
ENDSEC
0
SECTION
2
BLOCKS
0
BLOCK
5
20
100
AcDbEntity
100
AcDbBlockBegin
2
*MODEL_SPACE
0
ENDBLK
5
21
100
AcDbEntity
100
AcDbBlockEnd
0
BLOCK
5
1C
100
AcDbEntity
100
AcDbBlockBegin
2
*PAPER_SPACE
0
ENDBLK
5
1D
100
AcDbEntity
100
AcDbBlockEnd
0
ENDSEC
0
SECTION
2
ENTITIES
0
LINE
5
100
100
AcDbEntity
8
0
100
AcDbLine
10
-138.24836331589506
20
-78.54027607439923
30
2.1877874067932623e-07
11
138.18872443104544
21
-78.54027607439923
31
2.1877874067932623e-07
0
ELLIPSE
5
101
100
AcDbEntity
8
0
100
AcDbEllipse
10
138.18872443104544
20
-76.54027607439923
30
2.1877874067932623e-07
11
1.5866882844553793
21
1.2175468319420957
31
0.0
40
0.99999999999999012
41
4.0578754015639005
42
5.3669025592055188
0
LINE
5
102
100
AcDbEntity
8
0
100
AcDbLine
10
140.12059172506372
20
-77.057855786426984
30
2.1877874067932623e-07
11
164.76895141602506
21
14.942195281279552
31
2.1877874067932623e-07
0
ARC
5
103
100
AcDbEntity
8
0
100
AcDbCircle
10
162.83708412200681
20
15.459774993307352
30
2.1877874067932623e-07
40
2.0000000000000266
210
0
220
0
230
1
100
AcDbArc
50
-14.998268599130403
51
75.013860366548911
0
LINE
5
104
100
AcDbEntity
8
0
100
AcDbLine
10
163.35425486470746
20
17.391751810687566
30
2.1877874067932623e-07
11
89.84785845394363
21
37.068674061003762
31
2.1877874067932623e-07
0
ARC
5
105
100
AcDbEntity
8
0
100
AcDbCircle
10
118.32091534877702
20
136.53664211000063
30
2.1877874067932623e-07
40
103.4629964612116
210
0
220
0
230
1
100
AcDbArc
50
216.23425306269979
51
254.02604359656186
0
SPLINE
5
106
100
AcDbEntity
8
0
100
AcDbSpline
70
0
71
3
72
12
73
8
74
0
42
0.000000001
43
0.0000000001
44
0.0000000001
40
0
40
0
40
0
40
0
40
0.078128894677384861
40
0.078128894677384861
40
0.13311201612810739
40
0.13311201612810739
40
0.18809513757883023
40
0.18809513757883023
40
0.18809513757883023
40
0.18809513757883023
10
33.253714994365261
20
76.198731923342123
30
2.1877873956910321e-07
10
33.514144643289882
20
76.198731923342123
30
2.1877873956910321e-07
10
33.772084442825644
20
76.147864221812881
30
2.1877874067932623e-07
10
34.182570860129509
20
75.979410801066535
30
2.1877874067932623e-07
10
34.341759635963157
20
75.886851985076078
30
2.1877874067932623e-07
10
34.630455009252145
20
75.660982728213796
30
2.1877874067932623e-07
10
34.75859629313068
20
75.528740480293806
30
2.1877873956910321e-07
10
34.866929168223919
20
75.380907895548319
30
2.1877873956910321e-07
0
LINE
5
107
100
AcDbEntity
8
0
100
AcDbLine
10
33.253714994365261
20
76.198731923342123
30
2.1877873956910321e-07
11
-33.313353879214816
21
76.198731923342137
31
2.1877874067932623e-07
0
SPLINE
5
108
100
AcDbEntity
8
0
100
AcDbSpline
70
0
71
3
72
12
73
8
74
0
42
0.000000001
43
0.0000000001
44
0.0000000001
40
0
40
0
40
0
40
0
40
0.078128894677392369
40
0.078128894677392369
40
0.13311201612811169
40
0.13311201612811169
40
0.1880951375788304
40
0.1880951375788304
40
0.1880951375788304
40
0.1880951375788304
10
-34.926568053073481
20
75.380907895548319
30
2.1877873956910321e-07
10
-34.772631216369078
20
75.590972296017441
30
2.1877873956910321e-07
10
-34.579135851176311
20
75.768961079069499
30
2.1877873956910321e-07
10
-34.200626538457982
20
76.000491539133876
30
2.1877873956910321e-07
10
-34.031873368604579
20
76.074183929740997
30
2.1877874067932623e-07
10
-33.67904125850535
20
76.173539059638259
30
2.1877874067932623e-07
10
-33.496630950717211
20
76.198731923342123
30
2.1877873956910321e-07
10
-33.313353879214816
20
76.198731923342123
30
2.1877873956910321e-07
0
ARC
5
109
100
AcDbEntity
8
0
100
AcDbCircle
10
-118.38055423362658
20
136.53664211000063
30
2.1877874067932623e-07
40
103.4629964612116
210
0
220
0
230
1
100
AcDbArc
50
285.97395640343814
51
323.76574693730015
0
LINE
5
110
100
AcDbEntity
8
0
100
AcDbLine
10
-89.907497338793178
20
37.068674061003748
30
2.1877874067932623e-07
11
-163.4138937495571
21
17.391751810687495
31
2.1877874067932623e-07
0
ARC
5
111
100
AcDbEntity
8
0
100
AcDbCircle
10
-162.89672300685646
20
15.459774993307311
30
2.1877874067932623e-07
40
2.0000000000000049
210
0
220
0
230
1
100
AcDbArc
50
104.98613963345132
51
194.99826859913037
0
LINE
5
112
100
AcDbEntity
8
0
100
AcDbLine
10
-164.82859030087465
20
14.942195281279529
30
2.1877874067932623e-07
11
-140.18023060991328
21
-77.057855786427027
31
2.1877874067932623e-07
0
ARC
5
113
100
AcDbEntity
8
0
100
AcDbCircle
10
-138.24836331589506
20
-76.54027607439923
30
2.1877874067932623e-07
40
2.0000000000000071
210
0
220
0
230
1
100
AcDbArc
50
194.99826859913051
51
270
0
LWPOLYLINE
5
114
100
AcDbEntity
8
0
100
AcDbPolyline
90
8
70
1
43
0.0
10
-8.5928229825653819
20
70.301727772561193
10
-8.5928229825653819
20
57.301727772406821
42
-0.41421356237309503
10
-9.092822982571322
20
56.801727772400881
10
-14.842822982639598
20
56.801727772400881
42
-0.41421356237309503
10
-15.342822982645538
20
57.301727772406821
10
-15.342822982645538
20
70.301727772561193
42
-0.41421356237309503
10
-14.842822982639598
20
70.801727772567133
10
-9.092822982571322
20
70.801727772567133
42
-0.41421356237309503
0
LWPOLYLINE
5
115
100
AcDbEntity
8
0
100
AcDbPolyline
90
8
70
1
43
0.0
10
6.4701805576522622
20
57.801727772412761
10
-6.5298194425018261
20
57.801727772412761
42
-0.41421356237309503
10
-7.0298194425077662
20
58.301727772418701
10
-7.0298194425077671
20
71.301727772573074
42
-0.41421356237309503
10
-6.529819442501827
20
71.801727772579014
10
6.4701805576522613
20
71.801727772579014
42
-0.41421356237309503
10
6.9701805576582014
20
71.301727772573074
10
6.9701805576582023
20
58.301727772418701
42
-0.41421356237309503
0
LWPOLYLINE
5
116
100
AcDbEntity
8
0
100
AcDbPolyline
90
8
70
1
43
0.0
10
14.783184097790032
20
56.801727772400881
10
9.0331840977217563
20
56.801727772400881
42
-0.41421356237309503
10
8.5331840977158162
20
57.301727772406821
10
8.5331840977158162
20
70.301727772561193
42
-0.41421356237309503
10
9.0331840977217563
20
70.801727772567133
10
14.783184097790032
20
70.801727772567133
42
-0.41421356237309503
10
15.283184097795973
20
70.301727772561193
10
15.283184097795973
20
57.301727772406821
42
-0.41421356237309503
0
LWPOLYLINE
5
117
100
AcDbEntity
8
0
100
AcDbPolyline
90
8
70
1
43
0.0
10
136.10119252208227
20
-73.217277050920458
10
123.5441856859957
20
-69.852271557716435
42
-0.41413282455120937
10
123.19018177974144
20
-69.240272045990423
10
126.5551720141564
20
-56.682273388614711
42
-0.41371582591824813
10
127.16717152588245
20
-56.32927656243865
10
139.72417836196905
20
-59.694274426248143
42
-0.4141328245511765
10
140.07818226822323
20
-60.306273937974169
10
136.7131920338083
20
-72.86327314466628
42
-0.41413282455116113
0
LWPOLYLINE
5
118
100
AcDbEntity
8
0
100
AcDbPolyline
90
8
70
1
43
0.0
10
6.4701805576522622
20
38.751724720428733
10
-6.5298194425018261
20
38.751724720428733
42
-0.41421356237309503
10
-7.0298194425077662
20
39.251724720434673
10
-7.0298194425077662
20
52.251724720589046
42
-0.41421356237309503
10
-6.5298194425018261
20
52.751724720594986
10
6.4701805576522622
20
52.751724720594986
42
-0.41421356237309503
10
6.9701805576582023
20
52.251724720589046
10
6.9701805576582023
20
39.251724720434673
42
-0.41421356237309503
0
LWPOLYLINE
5
119
100
AcDbEntity
8
0
100
AcDbPolyline
90
8
70
1
43
0.0
10
-56.172824814185098
20
46.15272569707912
10
-46.979831650013431
20
55.345718861250788
42
-0.41412571801468068
10
-46.272830917583136
20
55.345718861250802
10
-37.080814315911503
20
46.15272569707912
42
-0.41412571801471004
10
-37.080814315911482
20
45.445724964648818
10
-46.27283091758315
20
36.253723621766234
42
-0.41412571801468068
10
-46.979831650013409
20
36.253723621766255
10
-56.17282481418512
20
45.445724964648818
42
-0.41412571801471004
0
LWPOLYLINE
5
120
100
AcDbEntity
8
0
100
AcDbPolyline
90
8
70
1
43
0.0
10
-117.84482188522992
20
3.7007298469655914
42
0.41444474065587777
10
-117.23181529342583
20
3.3477177620004603
10
-104.6748084573392
20
6.7117314339154195
42
0.41442746889888349
10
-104.32181163116311
20
7.3247227669305186
10
-107.68582530307805
20
19.881729603017146
42
0.41443842905204942
10
-108.29883189488221
20
20.234726429193195
10
-120.85580821339072
20
16.870728016067293
42
0.41443842905205192
10
-121.20880503956677
20
16.257721424263135
0
LWPOLYLINE
5
121
100
AcDbEntity
8
0
100
AcDbPolyline
90
8
70
1
43
0.0
10
-25.378818466163136
20
30.58372545275364
42
0.41419931279147071
10
-24.695819808928476
20
30.400726795524875
10
-13.436817123247902
20
36.90072679560204
42
0.4141993127914696
10
-13.253818466019176
20
37.583725452836738
10
-19.753818466096345
20
48.842728138517316
42
0.41419931279146621
10
-20.436817123331039
20
49.025726795746039
10
-31.695819809011574
20
42.525726795668831
42
0.41419931279147071
10
-31.87881846624034
20
41.842728138434175
0
LWPOLYLINE
5
122
100
AcDbEntity
8
0
100
AcDbPolyline
90
8
70
1
43
0.0
10
-137.4778174909319
20
3.3707280159069897
42
0.41413282455120282
10
-136.86581797920581
20
3.016724109652809
10
-124.30881114311923
20
6.3817296028568862
42
0.41413282455120837
10
-123.95480723686504
20
6.9937291145828295
10
-127.31982798885802
20
19.550720691880372
42
0.41413282455123468
10
-127.93182750058413
20
19.904724598134603
10
-140.48883433667069
20
16.539719104930615
42
0.41412016897298104
10
-140.84280772534683
20
15.927719593204547
0
LWPOLYLINE
5
123
100
AcDbEntity
8
0
100
AcDbPolyline
90
8
70
1
43
0.0
10
-136.77283091865786
20
-72.86327314466628
42
0.41413282455116152
10
-136.16083140693183
20
-73.217277050920458
10
-123.60382457084526
20
-69.852271557716435
42
0.41413282455120803
10
-123.249820664591
20
-69.240272045990423
10
-126.61481089900596
20
-56.682273388614711
42
0.41371582591824585
10
-127.22681041073201
20
-56.32927656243865
10
-139.78381724681861
20
-59.694274426248143
42
0.4141328245511765
10
-140.13782115307279
20
-60.306273937974169
0
LWPOLYLINE
5
124
100
AcDbEntity
8
0
100
AcDbPolyline
90
8
70
1
43
0.0
10
-53.602817489935816
20
-15.242278576110904
42
0.41485564111903489
10
-52.989810898131644
20
-15.596282482365107
10
-40.432819320834092
20
-12.231276989161088
42
0.41371582591821537
10
-40.079822494658046
20
-11.619277477435068
10
-43.443820907783916
20
0.93772935865155693
42
0.41483834656543583
10
-44.056812240799026
20
1.2917180061166877
10
-56.613834335674689
20
-2.0732722282982676
42
0.41371582591823108
10
-56.966831161850777
20
-2.6852717400242732
0
LWPOLYLINE
5
125
100
AcDbEntity
8
0
100
AcDbPolyline
90
8
70
1
43
0.0
10
-58.532810165775672
20
3.1587224006701149
42
0.41413282455122635
10
-57.920810654049575
20
2.8047184944158925
10
-45.363819076752065
20
6.1697239876199426
42
0.41413282455118694
10
-45.009815170497838
20
6.7817234993459508
10
-48.374820663701847
20
19.338730335432572
42
0.41412649661153705
10
-48.986820175427859
20
19.69271898289772
10
-61.54382701151448
20
16.327728748482748
42
0.41413282455118694
10
-61.897830917768708
20
15.715729236756742
0
LWPOLYLINE
5
126
100
AcDbEntity
8
0
100
AcDbPolyline
90
8
70
1
43
0.0
10
-83.624820664120506
20
-50.404273510610494
42
0.41413282455118927
10
-83.012821152394451
20
-50.758277416864686
10
-70.455814316307823
20
-47.393271923660684
42
0.41413282455119799
10
-70.101810410053602
20
-46.781272411934651
10
-73.466831162046731
20
-34.224273205242561
42
0.41412966054371858
10
-74.0788306737727
20
-33.870276928382893
10
-86.635806992281204
20
-37.235274792192399
42
0.41413282455118589
10
-86.989810898535438
20
-37.847274303918397
0
LWPOLYLINE
5
127
100
AcDbEntity
8
0
100
AcDbPolyline
90
8
70
1
43
0.0
10
-132.54782481509204
20
-15.030272960874022
42
0.41443842905202571
10
-131.93481822328792
20
-15.383269787050086
10
-119.37781138720133
20
-12.019271373924209
42
0.4144274688989375
10
-119.02481456102521
20
-11.406280040909104
10
-122.38882823294023
20
1.1507267951775275
42
0.41441650910379968
10
-123.00180430716622
20
1.5037236213535687
10
-135.5588111432528
20
-1.8612818718504809
42
0.41371582591823103
10
-135.91180796942888
20
-2.4732813835764511
0
LWPOLYLINE
5
128
100
AcDbEntity
8
0
100
AcDbPolyline
90
8
70
1
43
0.0
10
-107.98382945347221
20
-33.101272106596426
42
0.41444158481635401
10
-107.37082286166807
20
-33.454276562167017
10
-94.813816025581446
20
-30.089278698357539
42
0.41372129433788396
10
-94.460819199405393
20
-29.477271557236978
10
-97.824832871320325
20
-16.920272350544895
42
0.41483371465349117
10
-98.437808945546379
20
-16.566268444290703
10
-110.99481578163299
20
-19.931273937494694
42
0.41371582591819933
10
-111.34781260780905
20
-20.543273449220742
0
LWPOLYLINE
5
129
100
AcDbEntity
8
0
100
AcDbPolyline
90
8
70
1
43
0.0
10
-48.671817734017885
20
-33.643271923497394
42
0.41413282455119799
10
-48.059818222291852
20
-33.997275829751587
10
-35.502826644994343
20
-30.632277965942087
42
0.41413282455118661
10
-35.148822738740115
20
-30.020278454216083
10
-38.513812973155062
20
-17.463271618129461
42
0.41413282455119799
10
-39.125812484881095
20
-17.109267711875269
10
-51.682834579756758
20
-20.474273205079243
42
0.41412016897300347
10
-52.036807968432868
20
-21.086272716805308
0
LWPOLYLINE
5
130
100
AcDbEntity
8
0
100
AcDbPolyline
90
8
70
1
43
0.0
10
-141.70383067457584
20
-54.462272167885224
42
0.41485564111905499
10
-141.0908240827716
20
-54.816276074139445
10
-128.53381724668503
20
-51.451278210329924
42
0.41371582591824219
10
-128.18082042050895
20
-50.839278698603927
10
-131.54581065492386
20
-38.282271862517291
42
0.41412966054376404
10
-132.15781016664999
20
-37.92827558565763
10
-144.71481700273657
20
-41.293273449467158
42
0.41413282455116512
10
-145.06882090899074
20
-41.905272961193148
0
LWPOLYLINE
5
131
100
AcDbEntity
8
0
100
AcDbPolyline
90
8
70
1
43
0.0
10
-156.4948157821733
20
0.74072313306324777
42
0.41413282455116257
10
-155.88281627044728
20
0.38671922680906246
10
-143.32580943436071
20
3.7517247200130859
42
0.41413282455120837
10
-142.97180552810644
20
4.3637242317391012
10
-146.3368262800995
20
16.920731067825688
42
0.41412649661160272
10
-146.94882579182561
20
17.274719715290875
10
-159.50583262791218
20
13.909729480875892
42
0.41412016897298104
10
-159.85980601658824
20
13.297729969149895
0
LWPOLYLINE
5
132
100
AcDbEntity
8
0
100
AcDbPolyline
90
8
70
1
43
0.0
10
-103.05282969755433
20
-51.501273632693838
42
0.41413282455118927
10
-102.44083018582828
20
-51.85527753894803
10
-89.883823349741647
20
-48.490272045744014
42
0.4141328245511765
10
-89.529819443487469
20
-47.878272534017995
10
-92.89480967790243
20
-35.321273327325912
42
0.41412966054371858
10
-93.506809189628399
20
-34.967277050466244
10
-106.06381602571503
20
-38.332274914275729
42
0.41413282455118661
10
-106.41781993196926
20
-38.944274426001741
0
LWPOLYLINE
5
133
100
AcDbEntity
8
0
100
AcDbPolyline
90
8
70
1
43
0.0
10
-93.485813095878143
20
-13.603271007732062
42
0.41371582591821177
10
-92.873813584152174
20
-13.956267833908138
10
-80.316806748065545
20
-10.592269420782204
42
0.41483201572564238
10
-79.962833359389478
20
-9.9792780877671579
10
-83.327823593804467
20
2.5777287483194615
42
0.41371582591820888
10
-83.939823105530422
20
2.9307255744955163
10
-96.496829941617051
20
-0.4332728386303647
42
0.41485564111901668
10
-96.850833847871272
20
-1.0462794304345047
0
LWPOLYLINE
5
134
100
AcDbEntity
8
0
100
AcDbPolyline
90
8
70
1
43
0.0
10
-117.75583262741632
20
-70.233275891217048
42
0.41371582591821798
10
-117.14383311569037
20
-70.586272717393115
10
-104.58682627960378
20
-67.221274853583623
42
0.41413282455118661
10
-104.23282237334956
20
-66.609275341857611
10
-107.59781260776448
20
-54.052276135165521
42
0.41371898007444641
10
-108.20981211949049
20
-53.699271679594922
10
-120.76681895557719
20
-57.063277722115302
42
0.41485015936802017
10
-121.12082286183139
20
-57.676276684524979
0
LWPOLYLINE
5
135
100
AcDbEntity
8
0
100
AcDbPolyline
90
8
70
1
43
0.0
10
-112.91382212931197
20
-14.700271129815395
42
0.41371582591821549
10
-112.301822617586
20
-15.053267955991478
10
-99.744815781499369
20
-11.68926954286556
42
0.41484467770680578
10
-99.390811875245191
20
-11.076278209850498
10
-102.75583262723829
20
1.480728626236121
42
0.41371582591820877
10
-103.36783213896425
20
1.8337254524121755
10
-115.92480845747275
20
-1.5302729607136905
42
0.4148556411190491
10
-116.27881236372701
20
-2.1432795525178627
0
LWPOLYLINE
5
136
100
AcDbEntity
8
0
100
AcDbPolyline
90
8
70
1
43
0.0
10
-146.6338233504155
20
-36.06127882049875
42
0.41412966054370337
10
-146.02182383868956
20
-36.415275097358432
10
-133.46481700260298
20
-33.050277233548954
42
0.4141328245512087
10
-133.11081309634872
20
-32.438277721822935
10
-136.47583384834184
20
-19.881270885736342
42
0.41412649661156731
10
-137.0878333600678
20
-19.527282238271177
10
-149.64480967857634
20
-22.892272472686145
42
0.41413282455116512
10
-149.99881358483051
20
-23.504271984412139
0
LWPOLYLINE
5
137
100
AcDbEntity
8
0
100
AcDbPolyline
90
8
70
1
43
0.0
10
-66.395816757665898
20
23.658722400913557
42
0.41418710328450203
10
-65.712833359220255
20
23.475723743684824
10
-54.453830673539684
20
29.975723743761993
42
0.41420258432606677
10
-54.270816757521878
20
30.658722400996687
10
-60.770816757599007
20
41.917725086677258
42
0.41421152267659361
10
-61.453830673622818
20
42.100723743905988
10
-72.712833359303346
20
35.600723743828802
42
0.41419604153724737
10
-72.895816757743034
20
34.917725086594125
0
LWPOLYLINE
5
138
100
AcDbEntity
8
0
100
AcDbPolyline
90
8
70
1
43
0.0
10
-98.122806504136392
20
-69.90227460947483
42
0.41483371465350122
10
-97.509830429910352
20
-70.256278515729051
10
-84.952823593823751
20
-66.891273022525013
42
0.41371582591823081
10
-84.59982676764767
20
-66.279273510799015
10
-87.963809921984449
20
-53.722274304106904
42
0.41485247548579729
10
-88.576816513788614
20
-53.368278027247236
10
-101.1338233498752
20
-56.733275891056742
42
0.41371582591825223
10
-101.48682017605132
20
-57.345275402782754
0
LWPOLYLINE
5
139
100
AcDbEntity
8
0
100
AcDbPolyline
90
8
70
1
43
0.0
10
-88.408817246208557
20
16.518723011180324
42
0.41413282455118927
10
-87.796817734482488
20
16.164719104926132
10
-75.239810898395916
20
19.529724598130148
42
0.41413282455118727
10
-74.885806992141681
20
20.141724109856156
10
-78.250827744134725
20
32.698730945942785
42
0.41412649661155726
10
-78.862827255860779
20
33.052719593407929
10
-91.419834091947379
20
29.687729358992982
42
0.41412016897298137
10
-91.773807480623475
20
29.075729847266945
0
LWPOLYLINE
5
140
100
AcDbEntity
8
0
100
AcDbPolyline
90
8
70
1
43
0.0
10
-61.320804550574373
20
-60.04127454832259
42
0.41413282455118661
10
-60.708805038848332
20
-60.395278454576783
10
-48.150821640261682
20
-57.030272961372773
42
0.41371582591821571
10
-47.797824814085637
20
-56.418273449646748
10
-51.162815048500605
20
-43.861274242954657
42
0.41412966054373751
10
-51.774814560226616
20
-43.507277966094989
10
-64.331821396313202
20
-46.872275829904488
42
0.41413282455118661
10
-64.685825302567423
20
-47.484275341630493
0
LWPOLYLINE
5
141
100
AcDbEntity
8
0
100
AcDbPolyline
90
8
70
1
43
0.0
10
-43.741825058178101
20
-52.044272900278401
42
0.41485564111902223
10
-43.128818466373922
20
-52.3982768065326
10
-30.571826889076377
20
-49.033278942723101
42
0.41444474065593279
10
-30.218814804111247
20
-48.420272350918964
10
-33.582813217237145
20
-35.863273144226874
42
0.41443842905205985
10
-34.195819809041303
20
-35.510276318050806
10
-46.752811386338855
20
-38.875274181860263
42
0.41371582591821576
10
-47.105808212514937
20
-39.487273693586324
0
LWPOLYLINE
5
142
100
AcDbEntity
8
0
100
AcDbPolyline
90
8
70
1
43
0.0
10
-66.250827743992289
20
-41.640273571541599
42
0.4141328245511765
10
-65.638828232266235
20
-41.994277477795769
10
-53.08182139617962
20
-38.629271984591753
42
0.4141328245511765
10
-52.727817489925428
20
-38.017272472865727
10
-56.092807724340368
20
-25.46028089556815
42
0.4141328245511765
10
-56.704807236066408
20
-25.106276989313976
10
-69.26181407215303
20
-28.471282482517989
42
0.41413282455118727
10
-69.615817978407222
20
-29.083281994244032
0
LWPOLYLINE
5
143
100
AcDbEntity
8
0
100
AcDbPolyline
90
8
70
1
43
0.0
10
-122.68683238333431
20
-51.832274914436042
42
0.41443842905202949
10
-122.0738257915302
20
-52.185271740612095
10
-109.51681895544357
20
-48.821273327486203
42
0.41443294893073962
10
-109.16382212926749
20
-48.208274365076598
10
-112.52780528360431
20
-35.651275158384514
42
0.41443842905208261
10
-113.1408118754085
20
-35.298278332208469
10
-125.69781871149509
20
-38.662276745334339
42
0.41443294893072952
10
-126.05081553767114
20
-39.275275707743958
0
LWPOLYLINE
5
144
100
AcDbEntity
8
0
100
AcDbPolyline
90
8
70
1
43
0.0
10
-127.61682505917412
20
-33.431273937655028
42
0.41371898007444396
10
-127.00482554744809
20
-33.784278393225627
10
-114.44781871136151
20
-30.420272350705268
42
0.41485015936805369
10
-114.09381480510724
20
-29.807273388295584
10
-117.4588050395223
20
-17.250274181603519
42
0.41371582591821765
10
-118.07080455124826
20
-16.897277355427448
10
-130.62781138733484
20
-20.261275768553311
42
0.41485564111904932
10
-130.98181529358911
20
-20.874282360357487
0
LWPOLYLINE
5
145
100
AcDbEntity
8
0
100
AcDbPolyline
90
8
70
1
43
0.0
10
-88.555820420038387
20
-32.004271984513089
42
0.41444158481635401
10
-87.94281382823425
20
-32.35727644008368
10
-75.385806992147621
20
-28.992278576274181
42
0.41371582591823142
10
-75.03281016597154
20
-28.380279064548173
10
-78.396823837886501
20
-15.823272228461567
42
0.41485564111901468
10
-79.009830429690624
20
-15.469268322207361
10
-91.566806748199156
20
-18.834273815411372
42
0.41445105256090592
10
-91.919834091953334
20
-19.447280407215541
0
LWPOLYLINE
5
146
100
AcDbEntity
8
0
100
AcDbPolyline
90
8
70
1
43
0.0
10
-71.181827499910199
20
-23.240279674838696
42
0.41371582591822326
10
-70.569827988184173
20
-23.593276501014753
10
-58.011814072019405
20
-20.228271007810736
42
0.41371582591821571
10
-57.658817245843359
20
-19.616271496084714
10
-61.023807480258306
20
-7.0592799187871735
42
0.41413282455119921
10
-61.635806991984339
20
-6.7052760125329787
10
-74.192813828070967
20
-10.070281505736997
42
0.41413282455117623
10
-74.546817734325145
20
-10.682281017463017
0
LWPOLYLINE
5
147
100
AcDbEntity
8
0
100
AcDbPolyline
90
8
70
1
43
0.0
10
-76.111820175749997
20
-4.8392786980577016
42
0.41371582591820999
10
-75.499820664023957
20
-5.1922755242337555
10
-62.94281382793735
20
-1.8282771111078526
42
0.41485564111901096
10
-62.588809921683151
20
-1.2152705193036994
10
-65.953830673676222
20
11.341721057993858
42
0.41371582591822326
10
-66.565830185402248
20
11.694717884169917
10
-79.122806503910752
20
8.3307194710440218
42
0.41484467770681688
10
-79.476810410164944
20
7.7177281380289378
0
LWPOLYLINE
5
148
100
AcDbEntity
8
0
100
AcDbPolyline
90
8
70
1
43
0.0
10
-78.694827988280707
20
-68.8052744873915
42
0.41485564111902723
10
-78.081821396476528
20
-69.159278393645707
10
-65.524814560389927
20
-65.794272900441683
42
0.41371582591825223
10
-65.171817734213818
20
-65.182273388715672
10
-68.535831406128736
20
-52.625274182023588
42
0.414830549069935
10
-69.14880748035479
20
-52.271277905163899
10
-81.705814316441405
20
-55.636275768973384
42
0.41371582591820932
10
-82.0588111426175
20
-56.248275280699417
0
LWPOLYLINE
5
149
100
AcDbEntity
8
0
100
AcDbPolyline
90
8
70
1
43
0.0
10
-138.39480967844275
20
-14.649276256767889
42
0.41371582591823142
10
-138.04181285226667
20
-14.037276745041915
10
-141.40683360425973
20
-1.4802699089552862
42
0.41412649661158585
10
-142.01883311598579
20
-1.1262812614901603
10
-154.57580943449429
20
-4.4912714959051243
42
0.41413282455116546
10
-154.92981334074847
20
-5.1032710076311227
10
-151.56482310633356
20
-17.660277843717758
42
0.41413282455121192
10
-150.95282359460748
20
-18.014281749971953
0
LWPOLYLINE
5
150
100
AcDbEntity
8
0
100
AcDbPolyline
90
8
70
1
43
0.0
10
137.98217396741711
20
-14.037276745041908
42
0.41371582591823142
10
138.33517079359319
20
-14.64927625676788
10
150.89318470975792
20
-18.014281749971946
42
0.41413282455121136
10
151.50518422148394
20
-17.660277843717736
10
154.8701744558989
20
-5.1032710076311139
42
0.41413282455116651
10
154.51617054964473
20
-4.4912714959051092
10
141.95919423113622
20
-1.1262812614901523
42
0.41412649661158724
10
141.3471947194102
20
-1.4802699089552851
0
LWPOLYLINE
5
151
100
AcDbEntity
8
0
100
AcDbPolyline
90
8
70
1
43
0.0
10
78.022182511626966
20
-69.159278393645707
42
0.41485564111902723
10
78.635189103431145
20
-68.8052744873915
10
81.999172257767938
20
-56.248275280699417
42
0.41371582591820805
10
81.646175431591843
20
-55.636275768973391
10
69.089168595505228
20
-52.271277905163899
42
0.41483054906994637
10
68.47619252127916
20
-52.625274182023603
10
65.112178849364255
20
-65.182273388715672
42
0.4137158259182509
10
65.465175675540365
20
-65.794272900441669
0
LWPOLYLINE
5
152
100
AcDbEntity
8
0
100
AcDbPolyline
90
8
70
1
43
0.0
10
75.440181779174395
20
-5.1922755242337519
42
0.41371582591820999
10
76.052181290900435
20
-4.8392786980576989
10
79.417171525315382
20
7.7177281380289404
42
0.41484467770681954
10
79.06316761906119
20
8.3307194710440431
10
66.506191300552686
20
11.69471788416992
42
0.41371582591822342
10
65.894191788826646
20
11.341721057993867
10
62.529171036833588
20
-1.2152705193036955
42
0.41485564111900713
10
62.883174943087781
20
-1.8282771111078571
0
LWPOLYLINE
5
153
100
AcDbEntity
8
0
100
AcDbPolyline
90
8
70
1
43
0.0
10
70.510189103334611
20
-23.593276501014753
42
0.41371582591822326
10
71.122188615060637
20
-23.240279674838696
10
74.487178849475583
20
-10.682281017463014
42
0.4141328245511765
10
74.133174943221405
20
-10.070281505736991
10
61.576168107134777
20
-6.7052760125329751
42
0.41413282455119926
10
60.964168595408736
20
-7.0592799187871673
10
57.599178360993797
20
-19.616271496084714
42
0.41371582591821804
10
57.95217518716985
20
-20.228271007810719
0
LWPOLYLINE
5
154
100
AcDbEntity
8
0
100
AcDbPolyline
90
8
70
1
43
0.0
10
87.883174943384688
20
-32.357276440083666
42
0.41444158481635401
10
88.496181535188825
20
-32.004271984513075
10
91.860195207103772
20
-19.447280407215533
42
0.41445105256091458
10
91.507167863349565
20
-18.834273815411372
10
78.950191544841061
20
-15.469268322207357
42
0.41485564111901452
10
78.337184953036967
20
-15.823272228461567
10
74.973171281121978
20
-28.380279064548173
42
0.41371582591823081
10
75.326168107298059
20
-28.992278576274177
0
LWPOLYLINE
5
155
100
AcDbEntity
8
0
100
AcDbPolyline
90
8
70
1
43
0.0
10
126.94518666259853
20
-33.784278393225613
42
0.41371898007444396
10
127.55718617432456
20
-33.431273937655021
10
130.92217640873955
20
-20.87428236035748
42
0.41485564111904999
10
130.56817250248528
20
-20.2612757685533
10
118.0111656663987
20
-16.897277355427441
42
0.41371582591822104
10
117.39916615467273
20
-17.250274181603512
10
114.03417592025768
20
-29.807273388295577
42
0.41485015936805303
10
114.38817982651194
20
-30.420272350705254
0
LWPOLYLINE
5
156
100
AcDbEntity
8
0
100
AcDbPolyline
90
8
70
1
43
0.0
10
122.01418690668064
20
-52.185271740612095
42
0.41443842905202949
10
122.62719349848474
20
-51.832274914436042
10
125.99117665282158
20
-39.275275707743958
42
0.41443294893072952
10
125.63817982664553
20
-38.662276745334339
10
113.08117299055894
20
-35.298278332208454
42
0.41443842905208239
10
112.46816639875476
20
-35.651275158384507
10
109.10418324441792
20
-48.208274365076598
42
0.41443294893073962
10
109.45718007059401
20
-48.821273327486203
0
LWPOLYLINE
5
157
100
AcDbEntity
8
0
100
AcDbPolyline
90
8
70
1
43
0.0
10
65.579189347416673
20
-41.994277477795769
42
0.4141328245511765
10
66.191188859142727
20
-41.640273571541599
10
69.55617909355766
20
-29.083281994244032
42
0.41413282455120937
10
69.202175187303425
20
-28.471282482517974
10
56.645168351216846
20
-25.106276989313976
42
0.4141328245511765
10
56.033168839490806
20
-25.46028089556815
10
52.668178605075866
20
-38.017272472865727
42
0.4141328245511765
10
53.022182511330058
20
-38.629271984591753
0
LWPOLYLINE
5
158
100
AcDbEntity
8
0
100
AcDbPolyline
90
8
70
1
43
0.0
10
43.069179581524359
20
-52.3982768065326
42
0.41485564111902223
10
43.682186173328539
20
-52.044272900278401
10
47.046169327665375
20
-39.487273693586324
42
0.41371582591821804
10
46.693172501489286
20
-38.875274181860284
10
34.136180924191741
20
-35.510276318050806
42
0.41443842905205963
10
33.523174332387597
20
-35.863273144226881
10
30.159175919261685
20
-48.420272350918964
42
0.41444474065593279
10
30.512188004226815
20
-49.033278942723101
0
LWPOLYLINE
5
159
100
AcDbEntity
8
0
100
AcDbPolyline
90
8
70
1
43
0.0
10
60.64916615399877
20
-60.395278454576783
42
0.41413282455118661
10
61.26116566572481
20
-60.04127454832259
10
64.626186417717861
20
-47.484275341630493
42
0.41413282455118927
10
64.27218251146364
20
-46.872275829904467
10
51.715175675377054
20
-43.507277966094989
42
0.41412966054373657
10
51.103176163651014
20
-43.86127424295465
10
47.738185929236074
20
-56.418273449646748
42
0.41371582591821804
10
48.091182755412127
20
-57.030272961372752
0
LWPOLYLINE
5
160
100
AcDbEntity
8
0
100
AcDbPolyline
90
8
70
1
43
0.0
10
87.737178849632926
20
16.164719104926139
42
0.41413282455118927
10
88.349178361358994
20
16.518723011180331
10
91.714168595773913
20
29.075729847266953
42
0.41412016897297199
10
91.360195207097831
20
29.687729358992993
10
78.803188371011217
20
33.052719593407929
42
0.41412649661155704
10
78.191188859285177
20
32.698730945942778
10
74.826168107292119
20
20.141724109856156
42
0.41413282455118627
10
75.180172013546354
20
19.529724598130155
0
LWPOLYLINE
5
161
100
AcDbEntity
8
0
100
AcDbPolyline
90
8
70
1
43
0.0
10
97.45019154506079
20
-70.256278515729051
42
0.41483371465350122
10
98.06316761928683
20
-69.90227460947483
10
101.42718129120176
20
-57.345275402782754
42
0.4137158259182509
10
101.07418446502564
20
-56.733275891056749
10
88.517177628939052
20
-53.368278027247236
42
0.41485247548579995
10
87.904171037134873
20
-53.722274304106904
10
84.540187882798108
20
-66.279273510799015
42
0.41371582591823081
10
84.893184708974189
20
-66.891273022525013
0
LWPOLYLINE
5
162
100
AcDbEntity
8
0
100
AcDbPolyline
90
8
70
1
43
0.0
10
65.653194474370693
20
23.475723743684824
42
0.41418710328450203
10
66.336177872816336
20
23.658722400913557
10
72.836177872893472
20
34.917725086594125
42
0.41419604153724737
10
72.653194474453784
20
35.600723743828802
10
61.394191788773256
20
42.100723743905988
42
0.414211522676593
10
60.711177872749467
20
41.917725086677251
10
54.211177872672316
20
30.658722400996687
42
0.41420258432606605
10
54.394191788690129
20
29.975723743762011
0
LWPOLYLINE
5
163
100
AcDbEntity
8
0
100
AcDbPolyline
90
8
70
1
43
0.0
10
145.96218495383999
20
-36.415275097358425
42
0.41412966054370337
10
146.57418446556593
20
-36.061278820498742
10
149.93917469998095
20
-23.504271984412132
42
0.41413282455116651
10
149.58517079372677
20
-22.892272472686127
10
137.02819447521824
20
-19.527282238271169
42
0.41412649661157785
10
136.41619496349222
20
-19.881270885736338
10
133.05117421149916
20
-32.438277721822921
42
0.41413282455120937
10
133.40517811775342
20
-33.050277233548947
0
LWPOLYLINE
5
164
100
AcDbEntity
8
0
100
AcDbPolyline
90
8
70
1
43
0.0
10
112.24218373273644
20
-15.053267955991474
42
0.41371582591821549
10
112.8541832444624
20
-14.700271129815388
10
116.21917347887745
20
-2.143279552517857
42
0.41485564111904999
10
115.86516957262319
20
-1.530272960713678
10
103.30819325411468
20
1.8337254524121815
42
0.41371582591821066
10
102.69619374238872
20
1.4807286262361274
10
99.331172990395629
20
-11.076278209850495
42
0.41484467770680683
10
99.685176896649807
20
-11.689269542865562
0
LWPOLYLINE
5
165
100
AcDbEntity
8
0
100
AcDbPolyline
90
8
70
1
43
0.0
10
117.08419423084081
20
-70.586272717393115
42
0.41371582591821798
10
117.69619374256676
20
-70.233275891217048
10
121.06118397698182
20
-57.676276684524979
42
0.41485015936802017
10
120.70718007072763
20
-57.063277722115302
10
108.15017323464093
20
-53.699271679594922
42
0.41371898007444413
10
107.53817372291491
20
-54.052276135165513
10
104.1731834885
20
-66.609275341857611
42
0.41413282455118927
10
104.52718739475422
20
-67.221274853583637
0
LWPOLYLINE
5
166
100
AcDbEntity
8
0
100
AcDbPolyline
90
8
70
1
43
0.0
10
92.814174699302612
20
-13.956267833908134
42
0.41371582591821177
10
93.426174211028581
20
-13.603271007732056
10
96.791194963021709
20
-1.0462794304344998
42
0.41485564111901718
10
96.437191056767489
20
-0.43327283863035582
10
83.88018422068086
20
2.9307255744955207
42
0.41371582591821066
10
83.268184708954891
20
2.5777287483194677
10
79.903194474539916
20
-9.9792780877671543
42
0.41483201572564299
10
80.257167863215983
20
-10.592269420782204
0
LWPOLYLINE
5
167
100
AcDbEntity
8
0
100
AcDbPolyline
90
8
70
1
43
0.0
10
102.38119130097871
20
-51.85527753894803
42
0.41413282455118927
10
102.99319081270477
20
-51.501273632693838
10
106.3581810471197
20
-38.944274426001741
42
0.41413282455120937
10
106.00417714086544
20
-38.332274914275715
10
93.447170304778837
20
-34.96727705046623
42
0.41412966054372113
10
92.835170793052868
20
-35.321273327325905
10
89.470180558637907
20
-47.878272534017995
42
0.4141328245511765
10
89.824184464892085
20
-48.490272045744014
0
LWPOLYLINE
5
168
100
AcDbEntity
8
0
100
AcDbPolyline
90
8
70
1
43
0.0
10
141.03118519792204
20
-54.816276074139445
42
0.41485564111905499
10
141.64419178972628
20
-54.462272167885224
10
145.00918202414118
20
-41.905272961193148
42
0.41413282455116651
10
144.655178117887
20
-41.293273449467151
10
132.09817128180043
20
-37.92827558565763
42
0.41412966054376404
10
131.48617177007429
20
-38.282271862517291
10
128.12118153565939
20
-50.839278698603927
42
0.4137158259182408
10
128.47417836183547
20
-51.451278210329917
0
LWPOLYLINE
5
169
100
AcDbEntity
8
0
100
AcDbPolyline
90
8
70
1
43
0.0
10
48.00017933744229
20
-33.997275829751587
42
0.41413282455119799
10
48.612178849168323
20
-33.643271923497394
10
51.977169083583306
20
-21.086272716805308
42
0.41412016897300219
10
51.623195694907196
20
-20.47427320507925
10
39.066173600031533
20
-17.109267711875269
42
0.41413282455119926
10
38.454174088305493
20
-17.463271618129461
10
35.089183853890553
20
-30.020278454216083
42
0.41413282455118927
10
35.443187760144781
20
-30.632277965942105
0
LWPOLYLINE
5
170
100
AcDbEntity
8
0
100
AcDbPolyline
90
8
70
1
43
0.0
10
107.31118397681851
20
-33.45427656216701
42
0.41444158481635401
10
107.92419056862265
20
-33.101272106596419
10
111.28817372295948
20
-20.543273449220735
42
0.41371582591819794
10
110.93517689678343
20
-19.931273937494694
10
98.378170060696817
20
-16.566268444290696
42
0.41483371465349383
10
97.765193986470749
20
-16.920272350544888
10
94.40118031455583
20
-29.477271557236971
42
0.41372129433788396
10
94.754177140731883
20
-30.089278698357532
0
LWPOLYLINE
5
171
100
AcDbEntity
8
0
100
AcDbPolyline
90
8
70
1
43
0.0
10
131.87517933843836
20
-15.383269787050079
42
0.41443842905202571
10
132.48818593024248
20
-15.030272960874012
10
135.85216908457932
20
-2.4732813835764453
42
0.41371582591823086
10
135.49917225840323
20
-1.8612818718504758
10
122.94216542231666
20
1.5037236213535754
42
0.4144165091038009
10
122.32918934809071
20
1.1507267951775213
10
118.96517567617565
20
-11.406280040909101
42
0.41442746889893717
10
119.31817250235177
20
-12.019271373924203
0
LWPOLYLINE
5
172
100
AcDbEntity
8
0
100
AcDbPolyline
90
8
70
1
43
0.0
10
82.953182267544889
20
-50.758277416864686
42
0.41413282455118927
10
83.565181779270944
20
-50.404273510610494
10
86.930172013685876
20
-37.847274303918397
42
0.41413282455121009
10
86.576168107431613
20
-37.235274792192371
10
74.019191788923138
20
-33.870276928382893
42
0.41412966054372113
10
73.407192277197169
20
-34.224273205242568
10
70.04217152520404
20
-46.781272411934651
42
0.41413282455119937
10
70.396175431458261
20
-47.393271923660691
0
LWPOLYLINE
5
173
100
AcDbEntity
8
0
100
AcDbPolyline
90
8
70
1
43
0.0
10
57.861171769200013
20
2.804718494415896
42
0.41413282455122635
10
58.47317128092611
20
3.1587224006701176
10
61.838192032919146
20
15.715729236756745
42
0.41413282455118661
10
61.484188126664918
20
16.327728748482752
10
48.927181290578297
20
19.692718982897727
42
0.41412649661153694
10
48.315181778852292
20
19.338730335432572
10
44.950176285648276
20
6.7817234993459516
42
0.41413282455118661
10
45.304180191902503
20
6.169723987619947
0
LWPOLYLINE
5
174
100
AcDbEntity
8
0
100
AcDbPolyline
90
8
70
1
43
0.0
10
52.930172013282082
20
-15.596282482365103
42
0.41485564111903489
10
53.543178605086254
20
-15.242278576110898
10
56.907192277001215
20
-2.6852717400242723
42
0.41371582591823086
10
56.554195450825127
20
-2.0732722282982667
10
43.997173355949464
20
1.29171800611669
42
0.41483834656543589
10
43.384182022934361
20
0.93772935865155782
10
40.020183609808484
20
-11.619277477435064
42
0.41371582591821804
10
40.373180435984537
20
-12.231276989161069
0
LWPOLYLINE
5
175
100
AcDbEntity
8
0
100
AcDbPolyline
90
8
70
1
43
0.0
10
136.80617909435625
20
3.016724109652817
42
0.41413282455120282
10
137.41817860608234
20
3.3707280159069963
10
140.78316884049727
20
15.927719593204554
42
0.41412016897297199
10
140.42919545182116
20
16.539719104930629
10
127.87218861573457
20
19.90472459813461
42
0.41413282455125228
10
127.26018910400846
20
19.550720691880347
10
123.89516835201547
20
6.9937291145828375
42
0.4141328245512067
10
124.24917225826967
20
6.3817296028569039
0
LWPOLYLINE
5
176
100
AcDbEntity
8
0
100
AcDbPolyline
90
8
70
1
43
0.0
10
24.636180924078914
20
30.400726795524875
42
0.41419931279147071
10
25.319179581313573
20
30.58372545275364
10
31.819179581390777
20
41.842728138434175
42
0.41419931279147004
10
31.636180924162005
20
42.525726795668817
10
20.377178238481477
20
49.025726795746039
42
0.41419931279147071
10
19.694179581246797
20
48.842728138517302
10
13.194179581169614
20
37.583725452836738
42
0.41419931279147004
10
13.377178238398351
20
36.900726795602061
0
LWPOLYLINE
5
177
100
AcDbEntity
8
0
100
AcDbPolyline
90
8
70
1
43
0.0
10
117.17217640857626
20
3.3477177620004674
42
0.41444474065587777
10
117.78518300038036
20
3.700729846965598
10
121.14916615471721
20
16.257721424263142
42
0.41443842905204958
10
120.79616932854115
20
16.870728016067286
10
108.23919301003265
20
20.234726429193195
42
0.41443842905204992
10
107.62618641822851
20
19.881729603017146
10
104.26217274631355
20
7.3247227669305222
42
0.41442746889888421
10
104.61516957248963
20
6.7117314339154195
0
LWPOLYLINE
5
178
100
AcDbEntity
8
0
100
AcDbPolyline
90
8
70
1
43
0.0
10
46.920192765163868
20
55.345718861250788
10
56.113185929335515
20
46.152725697079106
42
-0.41412571801471004
10
56.113185929335536
20
45.445724964648839
10
46.920192765163847
20
36.253723621766255
42
-0.41412571801468068
10
46.213192032733588
20
36.253723621766234
10
37.02117543106192
20
45.445724964648818
42
-0.41412571801471015
10
37.021175431061941
20
46.15272569707912
10
46.213192032733573
20
55.345718861250802
42
-0.41412571801468068
0
LWPOLYLINE
5
179
100
AcDbEntity
8
0
100
AcDbPolyline
90
8
70
1
43
0.0
10
146.88918690697605
20
17.274719715290882
10
159.44619374306262
20
13.909729480875901
42
-0.41412016897297199
10
159.80016713173868
20
13.297729969149902
10
156.43517689732374
20
0.74072313306325643
42
-0.41413282455116113
10
155.82317738559772
20
0.38671922680907134
10
143.26617054951114
20
3.7517247200130939
42
-0.4141328245512067
10
142.91216664325688
20
4.3637242317391092
10
146.27718739524994
20
16.920731067825695
42
-0.41412649661160272
0
CIRCLE
5
180
100
AcDbEntity
8
0
100
AcDbCircle
10
-0.029819442424781011
20
0.031724720001160556
30
2.1877873956910321e-07
40
32
210
-2.4224752056162952e-26
220
1.2881790096430281e-26
230
1
0
ENDSEC
0
SECTION
2
OBJECTS
0
DICTIONARY
5
C
100
AcDbDictionary
3
ACAD_GROUP
350
D
3
ACAD_MLINESTYLE
350
17
0
DICTIONARY
5
D
100
AcDbDictionary
0
DICTIONARY
5
1A
330
C
100
AcDbDictionary
0
DICTIONARY
5
17
100
AcDbDictionary
0
ENDSEC
0
EOF
