0
SECTION
2
HEADER
9
$INSUNITS
70
4
9
$ACADVER
1
AC1014
9
$HANDSEED
5
FFFF
0
ENDSEC
0
SECTION
2
TABLES
0
TABLE
2
VPORT
5
8
100
AcDbSymbolTable
0
ENDTAB
0
TABLE
2
LTYPE
5
5
100
AcDbSymbolTable
0
LTYPE
5
14
100
AcDbSymbolTableRecord
100
AcDbLinetypeTableRecord
2
BYBLOCK
70
0
0
LTYPE
5
15
100
AcDbSymbolTableRecord
100
AcDbLinetypeTableRecord
2
BYLAYER
70
0
0
ENDTAB
0
TABLE
2
LAYER
5
2
100
AcDbSymbolTable
70
2
0
LAYER
5
50
100
AcDbSymbolTableRecord
100
AcDbLayerTableRecord
2
0
70
0
6
CONTINUOUS
0
ENDTAB
0
TABLE
2
STYLE
5
3
100
AcDbSymbolTable
70
1
0
STYLE
5
11
100
AcDbSymbolTableRecord
100
AcDbTextStyleTableRecord
2
STANDARD
70
0
0
ENDTAB
0
TABLE
2
VIEW
5
6
100
AcDbSymbolTable
70
0
0
ENDTAB
0
TABLE
2
UCS
5
7
100
AcDbSymbolTable
70
0
0
ENDTAB
0
TABLE
2
APPID
5
9
100
AcDbSymbolTable
70
2
0
APPID
5
12
100
AcDbSymbolTableRecord
100
AcDbRegAppTableRecord
2
ACAD
70
0
0
ENDTAB
0
TABLE
2
DIMSTYLE
5
A
100
AcDbSymbolTable
70
1
0
ENDTAB
0
TABLE
2
BLOCK_RECORD
5
1
100
AcDbSymbolTable
70
1
0
BLOCK_RECORD
5
1F
100
AcDbSymbolTableRecord
100
AcDbBlockTableRecord
2
*MODEL_SPACE
0
BLOCK_RECORD
5
1B
100
AcDbSymbolTableRecord
100
AcDbBlockTableRecord
2
*PAPER_SPACE
0
ENDTAB
0
ENDSEC
0
SECTION
2
BLOCKS
0
BLOCK
5
20
100
AcDbEntity
100
AcDbBlockBegin
2
*MODEL_SPACE
0
ENDBLK
5
21
100
AcDbEntity
100
AcDbBlockEnd
0
BLOCK
5
1C
100
AcDbEntity
100
AcDbBlockBegin
2
*PAPER_SPACE
0
ENDBLK
5
1D
100
AcDbEntity
100
AcDbBlockEnd
0
ENDSEC
0
SECTION
2
ENTITIES
0
LWPOLYLINE
5
100
100
AcDbEntity
8
0
100
AcDbPolyline
90
147
70
1
43
0.0
10
-88.669964699132493
20
-84.175906390678648
42
0.41776501708567387
10
-88.130808125467226
20
-83.711831900942499
10
-87.950994009425045
20
-81.096504038733087
42
-0.26794919243122878
10
-87.671881595721118
20
-80.681659175541469
42
0.011713567267860775
10
-58.215032732324197
20
-82.322201124237722
42
-0.26794919243112714
10
-57.995322749022726
20
-82.77134199661262
10
-58.175075544278236
20
-85.385777971318817
42
0.42507182139077188
10
-57.692108652947951
20
-85.919822520209763
42
0.0077945017220261642
10
-37.967926338162314
20
-86.237954628371853
42
0.41435720846378032
10
-37.467656862290646
20
-85.737978970702088
10
-37.467527915126396
20
-83.081434045506839
42
-0.26794919243127446
10
-37.217506897232937
20
-82.648433478981005
42
0.00024782859448854749
10
-36.593226081787087
20
-82.64741323657212
10
-23.90168139827896
20
-82.647420078283162
42
0.0058788045917681584
10
-23.866589448098203
20
-82.643864603302646
10
-23.818288841988426
20
-82.643864608510171
42
0.38580433051776358
10
-22.464993523477332
20
-81.151055934758176
10
-22.464993523477315
20
-46.859453162179882
42
-0.41421356237309503
10
-20.964993523477311
20
-45.359453162179875
10
20.965009449485557
20
-45.359453162179875
42
-0.41421356237309503
10
22.46500944948556
20
-46.859453162179882
10
22.465009449485542
20
-81.151055934758176
42
0.38580433051776358
10
23.818304767996672
20
-82.643864608510171
10
23.866605374106484
20
-82.643864603302646
42
0.0058788045917634365
10
23.901697324287206
20
-82.647420078283162
10
36.593242007795297
20
-82.647413236572405
42
0.00024782859448854749
10
37.217522823241175
20
-82.64843347898092
42
-0.26794919243129828
10
37.467543841134656
20
-83.081434045506853
10
37.46767278829887
20
-85.737978970702102
42
0.4143572084637907
10
37.967942264170574
20
-86.237954628371938
42
0.0077945017220261642
10
57.692124578956182
20
-85.919822520209777
42
0.4250718213907731
10
58.175091470286461
20
-85.385777971318817
10
57.995338675031
20
-82.77134199661262
42
-0.26794919243113036
10
58.215048658332464
20
-82.32220112423775
42
0.011713567267860775
10
87.67189752172942
20
-80.681659175541412
42
-0.26794919243119875
10
87.951009935433291
20
-81.096504038733087
10
88.130824051475429
20
-83.711831900942514
42
0.41776501708567398
10
88.669980625140681
20
-84.175906390678605
42
0.0082643525883938761
10
109.48679676466998
20
-82.144341176124129
42
0.42141308680957973
10
109.92523693467004
20
-81.578631013615109
10
109.56671698675331
20
-79.00342482973744
42
-0.26794919243113452
10
109.75462074849744
20
-78.540075958666833
42
0.0060093178770245382
10
124.7709882099619
20
-76.633172638319351
42
0.27767243536117914
10
125.97369034235221
20
-75.660536508368793
10
130.94841865474635
20
-61.992733081337377
42
-0.28970898039004872
10
131.47067405835085
20
-61.87873549449597
10
133.87786637567874
20
-62.754891484435944
42
0.41421356237309687
10
134.51872381428771
20
-62.456057511501925
10
140.13621690024038
20
-47.022291887101808
42
0.41421356237310303
10
139.83738292730632
20
-46.381434448492833
10
137.43019060997841
20
-45.505278458552858
42
-0.28970902163989676
10
137.10339898067758
20
-45.082249551516504
10
147.16863903387213
20
-17.428533840006466
42
-0.28970908909579379
10
147.69089458022637
20
-17.314536112262342
10
150.09808689755434
20
-18.190692102202295
42
0.41421356237309503
10
150.73894433616331
20
-17.891858129268261
10
156.3564374221159
20
-2.4580925048682012
42
0.41421356237309503
10
156.0576034491819
20
-1.8172350662592329
10
153.65041113185393
20
-0.94107907631925669
42
-0.28970913034568224
10
153.3236194837724
20
-0.5180499695872065
10
158.4141609532729
20
13.467943992925466
42
0.086935153612134775
10
158.50462020218927
20
13.977677900536225
42
0.31468810361336597
10
157.51770333438083
20
15.383918002831045
10
143.42249357580863
20
20.514713444265951
10
143.42460922356656
20
20.520525505819318
10
143.30116091320576
20
20.565461908959183
42
-0.33188441317715034
10
143.12913482718312
20
21.138091040159424
10
144.10410342439945
20
23.816882706121607
42
0.41421356237310908
10
143.80525896521914
20
24.457736257014986
10
125.59796347196709
20
31.084424208941641
42
0.41421356237312168
10
124.9571103603764
20
30.785580956776641
10
123.98214297017546
20
28.106788851511805
42
-0.34279711087052839
10
123.46275961637329
20
27.780253565018533
10
91.987192847719854
20
39.237670464754856
42
-0.010663242744234197
10
86.608501506345434
20
41.371589892540392
42
-0.3226002048332775
10
86.453192520858806
20
41.934957239810672
10
87.451329654811033
20
44.626489662746692
42
0.400292416440514
10
87.178564156536254
20
45.26030885471134
42
-0.040302661537249707
10
68.413471181438084
20
55.111956301030816
42
0.40207475089274419
10
67.735110459758204
20
54.974036303386988
10
66.143385453601809
20
52.675293462814551
42
-0.31173904406779351
10
65.611715079478387
20
52.474695100403189
42
-0.051631049270113735
10
43.836928052472558
20
69.992852570351118
42
0.029455641130322615
10
39.887604771120593
20
72.951796263565996
42
-0.36304942059630702
10
39.917375123744208
20
73.59264580408265
10
41.69138781771521
20
75.524133208761199
42
0.46136976181835193
10
41.599094478255211
20
76.279309440340086
42
0.046849512106758327
10
34.027412029272156
20
80.327853191801282
42
0.042605939818114794
10
18.332452143663609
20
84.881320532887059
42
0.43118190167155801
10
17.739350819141499
20
84.460598598777636
10
17.339121858538149
20
81.612821570479142
42
-0.37164511502330244
10
16.847920452879585
20
81.182423586766973
42
0.046040735426046926
10
7.9630041227574111e-06
20
82.732483678184465
42
0.046040735426056197
10
-16.847904526874764
20
81.182423586766973
42
-0.37164511502134145
10
-17.339105932529897
20
81.612821570479142
10
-17.739334893133289
20
84.460598598777636
42
0.43118190167155096
10
-18.332436217655363
20
84.881320532887088
42
0.042605939818114794
10
-34.027396103263925
20
80.327853191801353
42
0.046849512106758175
10
-41.599078552246951
20
76.279309440340086
42
0.46136976181836825
10
-41.691371891706943
20
75.524133208761199
10
-39.917359197735941
20
73.592645804082679
42
-0.36304942059678358
10
-39.887588845112838
20
72.951796263565285
42
0.029455641130316703
10
-43.836912126464313
20
69.992852570351175
42
-0.0516310492701193
10
-65.611699153472642
20
52.474695100401604
42
-0.31173904406610603
10
-66.143369527593592
20
52.675293462814565
10
-67.735094533749987
20
54.974036303386988
42
0.40207475089274441
10
-68.413455255429866
20
55.111956301030816
42
-0.040302661537249707
10
-87.178548230528065
20
45.260308854711383
42
0.40029241644051511
10
-87.451313728802731
20
44.626489662746721
10
-86.453176594850603
20
41.934957239810693
42
-0.32260020483937252
10
-86.608485580345658
20
41.3715898925335
42
-0.010663242744213321
10
-91.987176921711693
20
39.237670464754899
10
-123.46274369036504
20
27.780253565018526
42
-0.34279711087053821
10
-123.98212704416724
20
28.106788851511801
10
-124.9570944343682
20
30.785580956776641
42
0.41421356237311818
10
-125.59794754595887
20
31.084424208941659
10
-143.80524303921089
20
24.45773625701495
42
0.41421356237308793
10
-144.10408629137589
20
23.816883145424299
10
-143.12911890117485
20
21.138091040159441
42
-0.33188441317712009
10
-143.30114498719746
20
20.565461908959204
10
-143.42459329755832
20
20.520525505819318
10
-143.42247764980038
20
20.514713444265951
10
-157.51768740837264
20
15.383918002831027
42
0.3146881036133557
10
-158.50460427618103
20
13.977677900536225
42
0.086935153612134775
10
-158.41414502726465
20
13.467943992925466
10
-153.32360355776416
20
-0.51804996958713556
42
-0.28970913034570822
10
-153.65039520584565
20
-0.94107907631924448
10
-156.05758752317365
20
-1.8172350662592507
42
0.4142135623730781
10
-156.35642149610766
20
-2.4580925048682012
10
-150.73892841015507
20
-17.891858129268261
42
0.41421356237310836
10
-150.09807097154606
20
-18.190692102202295
10
-147.69087865421815
20
-17.314536112262356
42
-0.28970908909586635
10
-147.16862310786382
20
-17.428533840006537
10
-137.10338305466931
20
-45.082249551516476
42
-0.28970902163990292
10
-137.43017468397014
20
-45.505278458552858
10
-139.83736700129808
20
-46.381434448492826
42
0.41421356237310486
10
-140.13620097423214
20
-47.022291887101808
10
-134.51870788827947
20
-62.456057511501911
42
0.41421356237307994
10
-133.87785044967052
20
-62.754891484435959
10
-131.47065813234261
20
-61.878735494495949
42
-0.28970898039007592
10
-130.94840272873807
20
-61.992733081337406
10
-125.97367441634397
20
-75.660536508368793
42
0.27767243536118136
10
-124.77097228395367
20
-76.633172638319493
42
0.0060093178770245382
10
-109.7546048224892
20
-78.54007595866679
42
-0.26794919243114024
10
-109.56670106074505
20
-79.00342482973744
10
-109.92522100866179
20
-81.57863101361508
42
0.42141308680959338
10
-109.4867808386617
20
-82.1443411761242
42
0.0082643525883938761
0
LWPOLYLINE
5
101
100
AcDbEntity
8
0
100
AcDbPolyline
90
4
70
1
43
0.0
10
81.84737085509272
20
20.694682375995157
10
68.735806963004009
20
25.466901601518348
10
73.518242590915634
20
38.6065348270415
10
86.629806483004359
20
33.834315601518306
0
LWPOLYLINE
5
102
100
AcDbEntity
8
0
100
AcDbPolyline
90
4
70
1
43
0.0
10
42.858481386034661
20
64.486145004397812
10
51.836857483004337
20
53.786132601518304
10
41.141564059973646
20
44.811716198638827
10
32.163187963003992
20
55.5117286015183
0
LWPOLYLINE
5
103
100
AcDbEntity
8
0
100
AcDbPolyline
90
4
70
1
43
0.0
10
113.90825690171296
20
-54.650514298868124
10
127.01980396300426
20
-59.422727398481705
10
122.2373760242953
20
-72.562339498095255
10
109.125828963004
20
-67.790126398481689
0
LWPOLYLINE
5
104
100
AcDbEntity
8
0
100
AcDbPolyline
90
4
70
1
43
0.0
10
6.9749949630042707
20
77.558918601518315
10
6.9749949630042707
20
63.558918601518322
10
-6.9749790369960607
20
63.558918601518357
10
-6.9749790369960607
20
77.558918601518343
0
LWPOLYLINE
5
105
100
AcDbEntity
8
0
100
AcDbPolyline
90
4
70
1
43
0.0
10
-121.25460952035155
20
21.231905955104899
10
-116.4721840369958
20
8.0923006015183496
10
-129.5837235536402
20
3.3200902479317662
10
-134.36614903699603
20
16.459695601518334
0
LWPOLYLINE
5
106
100
AcDbEntity
8
0
100
AcDbPolyline
90
4
70
1
43
0.0
10
-101.72458493988614
20
23.272109350198509
10
-96.942156036995755
20
10.132494601518349
10
-110.05370213410561
20
5.3602818528380958
10
-114.83613103699604
20
18.499896601518309
0
LWPOLYLINE
5
107
100
AcDbEntity
8
0
100
AcDbPolyline
90
4
70
1
43
0.0
10
-42.591590174049045
20
27.900955720851233
10
-37.809152036995748
20
14.76131560151833
10
-50.920701899942706
20
9.9891014821854363
10
-55.703140036996004
20
23.128741601518339
0
LWPOLYLINE
5
108
100
AcDbEntity
8
0
100
AcDbPolyline
90
4
70
1
43
0.0
10
-36.076103245686184
20
9.9998064227179562
10
-31.293667036995743
20
-3.1398283984816722
10
-44.405218828305628
20
-7.9120432196813439
10
-49.187655036996034
20
5.2275916015183377
0
LWPOLYLINE
5
109
100
AcDbEntity
8
0
100
AcDbPolyline
90
4
70
1
43
0.0
10
42.591606100057291
20
27.900955720851215
10
55.703155963004249
20
23.128741601518321
10
50.920717825950952
20
9.9891014821854007
10
37.809167963003993
20
14.761315601518312
0
LWPOLYLINE
5
110
100
AcDbEntity
8
0
100
AcDbPolyline
90
4
70
1
43
0.0
10
36.076119171694415
20
9.9998064227179384
10
49.187670963004244
20
5.2275916015183199
10
44.405234754313838
20
-7.9120432196813439
10
31.293682963003988
20
-3.1398283984816899
0
LWPOLYLINE
5
111
100
AcDbEntity
8
0
100
AcDbPolyline
90
4
70
1
43
0.0
10
75.950587657262147
20
8.1570335143724471
10
89.062125963004263
20
3.3848236015183275
10
84.279692268746118
20
-9.7548043113358318
10
71.168153963003988
20
-4.9825943984816767
0
LWPOLYLINE
5
112
100
AcDbEntity
8
0
100
AcDbPolyline
90
4
70
1
43
0.0
10
139.97019179122148
20
16.954080377377263
10
153.08173796300426
20
12.181867601518306
10
148.29930213478679
20
-0.95776617434060185
10
135.18775596300401
20
3.8144466015183376
0
LWPOLYLINE
5
113
100
AcDbEntity
8
0
100
AcDbPolyline
90
4
70
1
43
0.0
10
-114.73912427198255
20
3.3307725050575954
10
-109.95669203699575
20
-9.808851398481675
10
-123.06824680200921
20
-14.581067302020951
10
-127.85067903699601
20
-1.441443398481681
0
LWPOLYLINE
5
114
100
AcDbEntity
8
0
100
AcDbPolyline
90
4
70
1
43
0.0
10
-88.693624016621868
20
-12.530189681403723
10
-83.911198036995785
20
-25.669796398481672
10
-97.022733057369919
20
-30.442005115559621
10
-101.805159036996
20
-17.302398398481706
0
LWPOLYLINE
5
115
100
AcDbEntity
8
0
100
AcDbPolyline
90
4
70
1
43
0.0
10
-108.22363468894903
20
-14.570395834200092
10
-103.44120803699579
20
-27.710004398481686
10
-116.55274538504273
20
-32.482213962763275
10
-121.335172036996
20
-19.34260539848168
0
LWPOLYLINE
5
116
100
AcDbEntity
8
0
100
AcDbPolyline
90
4
70
1
43
0.0
10
-82.178146517315696
20
-30.43132731584965
10
-77.395716036995736
20
-43.570946398481681
10
-90.507257556676066
20
-48.343157481113707
10
-95.289688036996012
20
-35.20353839848169
0
LWPOLYLINE
5
117
100
AcDbEntity
8
0
100
AcDbPolyline
90
4
70
1
43
0.0
10
-69.435080895933226
20
-9.7440975382203554
10
-64.65264503699575
20
-22.883731398481693
10
-77.764205178058603
20
-27.655949258743007
10
-82.546641036996036
20
-14.51631539848167
0
LWPOLYLINE
5
118
100
AcDbEntity
8
0
100
AcDbPolyline
90
4
70
1
43
0.0
10
-46.375849627807213
20
-17.400369992095026
10
-41.593427036995756
20
-30.5399673984817
10
-54.70496944618457
20
-35.31217880486836
10
-59.487392036996027
20
-22.172581398481697
0
LWPOLYLINE
5
119
100
AcDbEntity
8
0
100
AcDbPolyline
90
4
70
1
43
0.0
10
-23.045151633113115
20
-25.802489997698991
10
-18.262721036995764
20
-38.942109398481691
10
-31.374252440878649
20
-43.714316799264374
10
-36.156683036996
20
-30.574697398481696
0
LWPOLYLINE
5
120
100
AcDbEntity
8
0
100
AcDbPolyline
90
4
70
1
43
0.0
10
-95.192673319178709
20
-50.372667607703931
10
-90.410244036995735
20
-63.512283398481685
10
-103.5217847548131
20
-68.284494189259448
10
-108.30421403699603
20
-55.144878398481694
0
LWPOLYLINE
5
121
100
AcDbEntity
8
0
100
AcDbPolyline
90
4
70
1
43
0.0
10
-39.860363490812034
20
-35.301506126054377
10
-35.077938036995739
20
-48.441111398481695
10
-48.189474583179752
20
-53.213320670909006
10
-52.971900036996011
20
-40.073715398481696
0
LWPOLYLINE
5
122
100
AcDbEntity
8
0
100
AcDbPolyline
90
4
70
1
43
0.0
10
29.5606401451907
20
-7.9013403874867727
10
42.672186963004265
20
-12.673553398481694
10
37.889755780817573
20
-25.813174409476616
10
24.778208963004005
20
-21.040961398481688
0
LWPOLYLINE
5
123
100
AcDbEntity
8
0
100
AcDbPolyline
90
4
70
1
43
0.0
10
69.435096821941457
20
-9.7440975382203732
10
82.546656963004267
20
-14.516315398481687
10
77.764221104066834
20
-27.655949258743007
10
64.652660963003996
20
-22.883731398481686
0
LWPOLYLINE
5
124
100
AcDbEntity
8
0
100
AcDbPolyline
90
4
70
1
43
0.0
10
46.375865553815444
20
-17.400369992095044
10
59.487407963004259
20
-22.17258139848169
10
54.704985372192795
20
-35.312178804868346
10
41.593442963004001
20
-30.539967398481693
0
LWPOLYLINE
5
125
100
AcDbEntity
8
0
100
AcDbPolyline
90
4
70
1
43
0.0
10
95.209121865894446
20
5.3709683501985239
10
108.32066796300427
20
0.59875560151830598
10
103.53823906011385
20
-12.540859147161889
10
90.426692963004001
20
-7.7686463984816889
0
LWPOLYLINE
5
126
100
AcDbEntity
8
0
100
AcDbPolyline
90
4
70
1
43
0.0
10
114.73914019799082
20
3.3307725050576131
10
127.85069496300426
20
-1.441443398481681
10
123.06826272801746
20
-14.581067302020951
10
109.95670796300399
20
-9.808851398481675
0
LWPOLYLINE
5
127
100
AcDbEntity
8
0
100
AcDbPolyline
90
4
70
1
43
0.0
10
108.22365061495729
20
-14.570395834200092
10
121.33518796300424
20
-19.34260539848168
10
116.55276131105097
20
-32.482213962763282
10
103.44122396300403
20
-27.710004398481693
0
LWPOLYLINE
5
128
100
AcDbEntity
8
0
100
AcDbPolyline
90
4
70
1
43
0.0
10
101.70817826098811
20
-32.471528069336117
10
114.81971496300424
20
-37.243737398481699
10
110.03728366502018
20
-50.383358727627289
10
96.925746963003974
20
-45.611149398481686
0
LWPOLYLINE
5
129
100
AcDbEntity
8
0
100
AcDbPolyline
90
4
70
1
43
0.0
10
39.860379416820265
20
-35.301506126054385
10
52.971915963004257
20
-40.073715398481696
10
48.189490509187998
20
-53.213320670909006
10
35.077953963003985
20
-48.441111398481681
0
LWPOLYLINE
5
130
100
AcDbEntity
8
0
100
AcDbPolyline
90
4
70
1
43
0.0
10
75.662663249610503
20
-48.332454605641203
10
88.774214963004269
20
-53.104669398481697
10
83.991781676397764
20
-66.244296191322178
10
70.880229963003984
20
-61.472081398481684
0
LWPOLYLINE
5
131
100
AcDbEntity
8
0
100
AcDbPolyline
90
4
70
1
43
0.0
10
120.42374192703626
20
-36.749367491906561
10
133.53528296300425
20
-41.521578398481708
10
128.75284999897201
20
-54.661204305056827
10
115.64130896300401
20
-49.888993398481681
0
LWPOLYLINE
5
132
100
AcDbEntity
8
0
100
AcDbPolyline
90
4
70
1
43
0.0
10
95.192689245186955
20
-50.372667607703939
10
108.30422996300427
20
-55.144878398481708
10
103.52180068082133
20
-68.284494189259433
10
90.41025996300398
20
-63.512283398481685
0
LWPOLYLINE
5
133
100
AcDbEntity
8
0
100
AcDbPolyline
90
4
70
1
43
0.0
10
56.404129193567236
20
-45.546402497005147
10
69.515672963004249
20
-50.318614398481685
10
64.733244732441023
20
-63.458227299958239
10
51.621700963004002
20
-58.686015398481686
0
LWPOLYLINE
5
134
100
AcDbEntity
8
0
100
AcDbPolyline
90
4
70
1
43
0.0
10
126.93923169122526
20
-18.848215402405586
10
140.05078396300428
20
-23.620430398481702
10
135.26834623478302
20
-36.760069394557789
10
122.15679396300399
20
-31.987854398481687
0
LWPOLYLINE
5
135
100
AcDbEntity
8
0
100
AcDbPolyline
90
4
70
1
43
0.0
10
82.178162443323941
20
-30.431327315849657
10
95.289703963004257
20
-35.203538398481697
10
90.507273482684298
20
-48.343157481113707
10
77.395731963003982
20
-43.570946398481681
0
LWPOLYLINE
5
136
100
AcDbEntity
8
0
100
AcDbPolyline
90
4
70
1
43
0.0
10
133.45470949072737
20
-0.94705770074613227
10
146.56623896300425
20
-5.7192643984816982
10
141.78380243528088
20
-18.858900096217237
10
128.67227296300399
20
-14.086693398481689
0
LWPOLYLINE
5
137
100
AcDbEntity
8
0
100
AcDbPolyline
90
4
70
1
43
0.0
10
88.693639942630099
20
-12.530189681403758
10
101.80517496300425
20
-17.302398398481706
10
97.022748983378165
20
-30.442005115559621
10
83.91121396300403
20
-25.669796398481672
0
LWPOLYLINE
5
138
100
AcDbEntity
8
0
100
AcDbPolyline
90
4
70
1
43
0.0
10
62.919612476106664
20
-27.645239235870839
10
76.031156963004236
20
-32.417451398481695
10
71.248722449901592
20
-45.557081561092538
10
58.137177963003985
20
-40.784869398481689
0
LWPOLYLINE
5
139
100
AcDbEntity
8
0
100
AcDbPolyline
90
4
70
1
43
0.0
10
23.045167559121342
20
-25.802489997698991
10
36.15669896300426
20
-30.574697398481696
10
31.374268366886913
20
-43.714316799264381
10
18.262736963004009
20
-38.942109398481691
0
LWPOLYLINE
5
140
100
AcDbEntity
8
0
100
AcDbPolyline
90
4
70
1
43
0.0
10
52.89136861280376
20
0.50080188717867458
10
66.002885963004275
20
-4.2714003984816884
10
61.220450313204466
20
-17.411033684142012
10
48.108932963003994
20
-12.638831398481685
0
LWPOLYLINE
5
141
100
AcDbEntity
8
0
100
AcDbPolyline
90
4
70
1
43
0.0
10
-56.404113267558991
20
-45.546402497005154
10
-51.621685036995757
20
-58.6860153984817
10
-64.733228806432777
20
-63.458227299958239
10
-69.515657036996004
20
-50.318614398481685
0
LWPOLYLINE
5
142
100
AcDbEntity
8
0
100
AcDbPolyline
90
4
70
1
43
0.0
10
-75.662647323602243
20
-48.332454605641203
10
-70.880214036995739
20
-61.472081398481684
10
-83.991765750389533
20
-66.244296191322178
10
-88.774199036996038
20
-53.104669398481697
0
LWPOLYLINE
5
143
100
AcDbEntity
8
0
100
AcDbPolyline
90
4
70
1
43
0.0
10
-120.42372600102802
20
-36.74936749190654
10
-115.64129303699576
20
-49.888993398481681
10
-128.75283407296376
20
-54.661204305056827
10
-133.535267036996
20
-41.521578398481694
0
LWPOLYLINE
5
144
100
AcDbEntity
8
0
100
AcDbPolyline
90
4
70
1
43
0.0
10
-62.919596550098404
20
-27.645239235870854
10
-58.13716203699574
20
-40.784869398481696
10
-71.248706523893333
20
-45.557081561092545
10
-76.03114103699599
20
-32.417451398481695
0
LWPOLYLINE
5
145
100
AcDbEntity
8
0
100
AcDbPolyline
90
4
70
1
43
0.0
10
-29.560624219182436
20
-7.9013403874867549
10
-24.778193036995759
20
-21.040961398481688
10
-37.889739854809328
20
-25.813174409476627
10
-42.672171036996041
20
-12.673553398481676
0
LWPOLYLINE
5
146
100
AcDbEntity
8
0
100
AcDbPolyline
90
4
70
1
43
0.0
10
-52.891352686795514
20
0.50080188717867458
10
-48.108917036995749
20
-12.638831398481667
10
-61.220434387196256
20
-17.411033684142012
10
-66.002870036996057
20
-4.2714003984816706
0
LWPOLYLINE
5
147
100
AcDbEntity
8
0
100
AcDbPolyline
90
4
70
1
43
0.0
10
-101.70816233497985
20
-32.471528069336095
10
-96.925731036995728
20
-45.611149398481679
10
-110.03726773901192
20
-50.383358727627282
10
-114.819699036996
20
-37.243737398481692
0
LWPOLYLINE
5
148
100
AcDbEntity
8
0
100
AcDbPolyline
90
4
70
1
43
0.0
10
-126.939215765217
20
-18.848215402405568
10
-122.15677803699575
20
-31.987854398481687
10
-135.26833030877475
20
-36.760069394557789
10
-140.05076803699603
20
-23.620430398481702
0
LWPOLYLINE
5
149
100
AcDbEntity
8
0
100
AcDbPolyline
90
4
70
1
43
0.0
10
-95.2091059398862
20
5.3709683501985417
10
-90.426677036995756
20
-7.7686463984816889
10
-103.53822313410561
20
-12.540859147161889
10
-108.32065203699602
20
0.59875560151830598
0
LWPOLYLINE
5
150
100
AcDbEntity
8
0
100
AcDbPolyline
90
4
70
1
43
0.0
10
-133.45469356471912
20
-0.94705770074611451
10
-128.67225703699575
20
-14.086693398481689
10
-141.7837865092726
20
-18.858900096217237
10
-146.56622303699601
20
-5.7192643984816982
0
LWPOLYLINE
5
151
100
AcDbEntity
8
0
100
AcDbPolyline
90
4
70
1
43
0.0
10
121.25462544635981
20
21.231905955104882
10
134.36616496300425
20
16.459695601518334
10
129.58373947964847
20
3.3200902479317662
10
116.47219996300404
20
8.0923006015183496
0
LWPOLYLINE
5
152
100
AcDbEntity
8
0
100
AcDbPolyline
90
4
70
1
43
0.0
10
101.72460086589442
20
23.272109350198509
10
114.83614696300427
20
18.499896601518309
10
110.05371806011385
20
5.3602818528381135
10
96.942171963004
20
10.132494601518349
0
LWPOLYLINE
5
153
100
AcDbEntity
8
0
100
AcDbPolyline
90
4
70
1
43
0.0
10
59.406830406117734
20
18.401918602108776
10
72.518357963004249
20
13.629712601518307
10
67.735935519890546
20
0.4901156009278651
10
54.624407963003989
20
5.2623216015183161
0
LWPOLYLINE
5
154
100
AcDbEntity
8
0
100
AcDbPolyline
90
4
70
1
43
0.0
10
16.431912396238033
20
76.299631653810252
10
29.908222963004274
20
72.68866460151834
10
26.288108529770202
20
59.178215549226394
10
12.811797963003961
20
62.789182601518334
0
LWPOLYLINE
5
155
100
AcDbEntity
8
0
100
AcDbPolyline
90
4
70
1
43
0.0
10
-59.406814480109489
20
18.401918602108811
10
-54.624392036995744
20
5.2623216015183338
10
-67.735919593882301
20
0.49011560092788287
10
-72.518342036996017
20
13.629712601518325
0
LWPOLYLINE
5
156
100
AcDbEntity
8
0
100
AcDbPolyline
90
4
70
1
43
0.0
10
-75.950571731253902
20
8.1570335143724648
10
-71.168138036995742
20
-4.9825943984816767
10
-84.279676342737872
20
-9.754804311335814
10
-89.062110036996032
20
3.3848236015183453
0
LWPOLYLINE
5
157
100
AcDbEntity
8
0
100
AcDbPolyline
90
4
70
1
43
0.0
10
-139.97017586521324
20
16.954080377377281
10
-135.18774003699576
20
3.8144466015183376
10
-148.2992862087786
20
-0.95776617434060185
10
-153.08172203699604
20
12.181867601518306
0
LWPOLYLINE
5
158
100
AcDbEntity
8
0
100
AcDbPolyline
90
4
70
1
43
0.0
10
-42.858465460026451
20
64.48614500439777
10
-32.163172036995746
20
55.511728601518314
10
-41.141548133965422
20
44.811716198638827
10
-51.836841556996092
20
53.786132601518318
0
LWPOLYLINE
5
159
100
AcDbEntity
8
0
100
AcDbPolyline
90
4
70
1
43
0.0
10
-16.431896470229788
20
76.299631653810252
10
-12.811782036995751
20
62.789182601518334
10
-26.288092603761974
20
59.178215549226394
10
-29.908207036996046
20
72.68866460151834
0
LWPOLYLINE
5
160
100
AcDbEntity
8
0
100
AcDbPolyline
90
4
70
1
43
0.0
10
59.843952900451569
20
30.081275806270522
10
48.409360963003998
20
38.087863601518315
10
56.422988545556763
20
49.532509396766109
10
67.857580483004341
20
41.525921601518334
0
LWPOLYLINE
5
161
100
AcDbEntity
8
0
100
AcDbPolyline
90
4
70
1
43
0.0
10
-113.9082409757047
20
-54.650514298868117
10
-109.12581303699575
20
-67.790126398481689
10
-122.23736009828706
20
-72.562339498095255
10
-127.01978803699603
20
-59.422727398481697
0
LWPOLYLINE
5
162
100
AcDbEntity
8
0
100
AcDbPolyline
90
4
70
1
43
0.0
10
-56.422972619548517
20
49.532509396766159
10
-48.409345036995752
20
38.087863601518336
10
-59.843936974443359
20
30.081275806270487
10
-67.857564556996124
20
41.525921601518348
0
LWPOLYLINE
5
163
100
AcDbEntity
8
0
100
AcDbPolyline
90
4
70
1
43
0.0
10
-73.518226664907402
20
38.606534827041514
10
-68.735791036995764
20
25.466901601518348
10
-81.847354929084474
20
20.694682375995139
10
-86.629790556996156
20
33.834315601518327
0
CIRCLE
5
164
100
AcDbEntity
8
0
100
AcDbCircle
10
0.025005963004005594
20
24.648931601518331
30
-2.6296822497329231e-07
40
31.999999999999996
210
-4.1152235475143409e-23
220
-3.8518598401024376e-34
230
1
0
ENDSEC
0
SECTION
2
OBJECTS
0
DICTIONARY
5
C
100
AcDbDictionary
3
ACAD_GROUP
350
D
3
ACAD_MLINESTYLE
350
17
0
DICTIONARY
5
D
100
AcDbDictionary
0
DICTIONARY
5
1A
330
C
100
AcDbDictionary
0
DICTIONARY
5
17
100
AcDbDictionary
0
ENDSEC
0
EOF
