0
SECTION
2
HEADER
9
$INSUNITS
70
4
9
$ACADVER
1
AC1014
9
$HANDSEED
5
FFFF
0
ENDSEC
0
SECTION
2
TABLES
0
TABLE
2
VPORT
5
8
100
AcDbSymbolTable
0
ENDTAB
0
TABLE
2
LTYPE
5
5
100
AcDbSymbolTable
0
LTYPE
5
14
100
AcDbSymbolTableRecord
100
AcDbLinetypeTableRecord
2
BYBLOCK
70
0
0
LTYPE
5
15
100
AcDbSymbolTableRecord
100
AcDbLinetypeTableRecord
2
BYLAYER
70
0
0
ENDTAB
0
TABLE
2
LAYER
5
2
100
AcDbSymbolTable
70
2
0
LAYER
5
50
100
AcDbSymbolTableRecord
100
AcDbLayerTableRecord
2
0
70
0
6
CONTINUOUS
0
ENDTAB
0
TABLE
2
STYLE
5
3
100
AcDbSymbolTable
70
1
0
STYLE
5
11
100
AcDbSymbolTableRecord
100
AcDbTextStyleTableRecord
2
STANDARD
70
0
0
ENDTAB
0
TABLE
2
VIEW
5
6
100
AcDbSymbolTable
70
0
0
ENDTAB
0
TABLE
2
UCS
5
7
100
AcDbSymbolTable
70
0
0
ENDTAB
0
TABLE
2
APPID
5
9
100
AcDbSymbolTable
70
2
0
APPID
5
12
100
AcDbSymbolTableRecord
100
AcDbRegAppTableRecord
2
ACAD
70
0
0
ENDTAB
0
TABLE
2
DIMSTYLE
5
A
100
AcDbSymbolTable
70
1
0
ENDTAB
0
TABLE
2
BLOCK_RECORD
5
1
100
AcDbSymbolTable
70
1
0
BLOCK_RECORD
5
1F
100
AcDbSymbolTableRecord
100
AcDbBlockTableRecord
2
*MODEL_SPACE
0
BLOCK_RECORD
5
1B
100
AcDbSymbolTableRecord
100
AcDbBlockTableRecord
2
*PAPER_SPACE
0
ENDTAB
0
ENDSEC
0
SECTION
2
BLOCKS
0
BLOCK
5
20
100
AcDbEntity
100
AcDbBlockBegin
2
*MODEL_SPACE
0
ENDBLK
5
21
100
AcDbEntity
100
AcDbBlockEnd
0
BLOCK
5
1C
100
AcDbEntity
100
AcDbBlockBegin
2
*PAPER_SPACE
0
ENDBLK
5
1D
100
AcDbEntity
100
AcDbBlockEnd
0
ENDSEC
0
SECTION
2
ENTITIES
0
ARC
5
100
100
AcDbEntity
8
0
100
AcDbCircle
10
26.485992431913449
20
-78.443000794400362
30
1.1102230246251565e-15
40
3.0000000000000027
210
0
220
0
230
1
100
AcDbArc
50
180
51
270
0
LINE
5
101
100
AcDbEntity
8
0
100
AcDbLine
10
26.485992431913449
20
-81.443000794400362
30
1.1102230246251565e-15
11
74.660203152724435
21
-81.443000794400362
31
1.1102230246251565e-15
0
ARC
5
102
100
AcDbEntity
8
0
100
AcDbCircle
10
74.660203152724435
20
-82.443000794400362
30
1.1102230246251565e-15
40
0.99999999999999645
210
0
220
0
230
1
100
AcDbArc
50
-90
51
90
0
LINE
5
103
100
AcDbEntity
8
0
100
AcDbLine
10
74.660203152724435
20
-83.443000794400348
30
1.1102230246251565e-15
11
51.160203152724463
21
-83.443000794400348
31
1.1102230246251565e-15
0
ARC
5
104
100
AcDbEntity
8
0
100
AcDbCircle
10
51.160203152724463
20
-83.943000794400362
30
1.1102230246251565e-15
40
0.50000000000000711
210
0
220
-0
230
1
100
AcDbArc
50
90
51
180
0
LINE
5
105
100
AcDbEntity
8
0
100
AcDbLine
10
50.660203152724463
20
-83.943000794400362
30
1.1102230246251565e-15
11
50.660203152724456
21
-85.743000794400345
31
1.1102230246251565e-15
0
ARC
5
106
100
AcDbEntity
8
0
100
AcDbCircle
10
53.660203152724449
20
-85.743000794400345
30
1.1102230246251565e-15
40
2.9999999999999982
210
0
220
0
230
1
100
AcDbArc
50
180
51
270
0
LINE
5
107
100
AcDbEntity
8
0
100
AcDbLine
10
53.660203152724449
20
-88.743000794400345
30
1.1102230246251565e-15
11
112.66020315272443
21
-88.743000794400345
31
1.1102230246251565e-15
0
ARC
5
108
100
AcDbEntity
8
0
100
AcDbCircle
10
112.66020315272443
20
-85.743000794400345
30
1.1102230246251565e-15
40
3.0000000000000071
210
0
220
0
230
1
100
AcDbArc
50
-90
51
0
0
LINE
5
109
100
AcDbEntity
8
0
100
AcDbLine
10
115.66020315272445
20
-85.743000794400345
30
1.1102230246251565e-15
11
115.66020315272445
21
-83.943000794400348
31
1.1102230246251565e-15
0
ARC
5
110
100
AcDbEntity
8
0
100
AcDbCircle
10
115.16020315272443
20
-83.943000794400348
30
1.1102230246251565e-15
40
0.50000000000000711
210
0
220
0
230
1
100
AcDbArc
50
0
51
90
0
LINE
5
111
100
AcDbEntity
8
0
100
AcDbLine
10
115.16020315272443
20
-83.443000794400334
30
1.1102230246251565e-15
11
91.660203152724449
21
-83.443000794400376
31
1.1102230246251565e-15
0
ARC
5
112
100
AcDbEntity
8
0
100
AcDbCircle
10
91.660203152724449
20
-82.443000794400362
30
1.1102230246251565e-15
40
0.99999999999999645
210
0
220
-0
230
1
100
AcDbArc
50
90
51
270
0
LINE
5
113
100
AcDbEntity
8
0
100
AcDbLine
10
91.660203152724449
20
-81.443000794400362
30
1.1102230246251565e-15
11
137.56706287972631
21
-81.443000794400362
31
1.1102230246251565e-15
0
ARC
5
114
100
AcDbEntity
8
0
100
AcDbCircle
10
137.56706287972631
20
-78.443000794400362
30
1.1102230246251565e-15
40
2.9999999999999982
210
0
220
0
230
1
100
AcDbArc
50
270
51
345.00173140086974
0
LINE
5
115
100
AcDbEntity
8
0
100
AcDbLine
10
140.46486382075361
20
-79.219370362442035
30
1.1102230246251565e-15
11
144.21432708958127
21
-65.224491330587909
31
1.1102230246251565e-15
0
LINE
5
116
100
AcDbEntity
8
0
100
AcDbLine
10
144.21432708958127
20
-65.224491330587909
30
1.1102230246251565e-15
11
150.42529823269484
21
-42.042029312393758
31
1.1102230246251565e-15
0
ELLIPSE
5
117
100
AcDbEntity
8
0
100
AcDbEllipse
10
151.39123187970389
20
-42.300819168407671
30
1.1102230246251565e-15
11
0.5000017458792998
21
-0.86602439579824164
31
0.0
40
0.99999999999998046
41
0.78542636607435456
42
3.9270190196641375
0
LINE
5
118
100
AcDbEntity
8
0
100
AcDbLine
10
152.357165526713
20
-42.559609024421583
30
1.1102230246251565e-15
11
146.40498423961338
21
-64.776137395606597
31
1.1102230246251565e-15
0
ELLIPSE
5
119
100
AcDbEntity
8
0
100
AcDbEllipse
10
147.37091788662252
20
-65.034927251620488
30
1.1102230246251565e-15
11
-0.86601029406610974
21
-0.50002616988670312
31
0.0
40
0.99999999999999978
41
-0.78539816339746837
42
0.78539816339743851
0
LINE
5
120
100
AcDbEntity
8
0
100
AcDbLine
10
147.11212803060863
20
-66.000860898629611
30
1.1102230246251565e-15
11
148.36784177172041
21
-66.33728771144763
31
1.1102230246251565e-15
0
ARC
5
121
100
AcDbEntity
8
0
100
AcDbCircle
10
149.14421133976208
20
-63.439486770420324
30
1.1102230246251565e-15
40
2.9999999999999889
210
0
220
0
230
1
100
AcDbArc
50
255.00173140086977
51
345.00173140086957
0
LINE
5
122
100
AcDbEntity
8
0
100
AcDbLine
10
152.04201228078938
20
-64.215856338462004
30
1.1102230246251565e-15
11
167.31061378443303
21
-7.2257711693143447
31
1.1102230246251565e-15
0
ARC
5
123
100
AcDbEntity
8
0
100
AcDbCircle
10
164.41281284340567
20
-6.4494016012726538
30
1.1102230246251565e-15
40
3.0000000000000382
210
0
220
0
230
1
100
AcDbArc
50
-14.9982685991303
51
75.001731400869801
0
LINE
5
124
100
AcDbEntity
8
0
100
AcDbLine
10
165.18918241144735
20
-3.5516006602453389
30
1.1102230246251565e-15
11
163.93346867033557
21
-3.2151738474272968
31
1.1102230246251565e-15
0
ARC
5
125
100
AcDbEntity
8
0
100
AcDbCircle
10
163.67467881432168
20
-4.1811074944363895
30
1.1102230246251565e-15
40
0.99999999999998512
210
0
220
-0
230
1
100
AcDbArc
50
75.001731400869616
51
165.00173140086963
0
LINE
5
126
100
AcDbEntity
8
0
100
AcDbLine
10
162.70874516731257
20
-3.9223176384224945
30
1.1102230246251565e-15
11
156.75657847899305
21
-26.13879151963193
31
1.1102230246251565e-15
0
ELLIPSE
5
127
100
AcDbEntity
8
0
100
AcDbEllipse
10
155.79064483198397
20
-25.880001663618021
30
1.1102230246251565e-15
11
-0.50002616988671333
21
0.86601029406611629
31
0.0
40
0.99999999999998046
41
0.78539816339740809
42
3.9269908169872312
0
LINE
5
128
100
AcDbEntity
8
0
100
AcDbLine
10
154.82471118497486
20
-25.621211807604112
30
1.1102230246251565e-15
11
161.03566772930827
21
-2.4388042793856042
31
1.1102230246251565e-15
0
LINE
5
129
100
AcDbEntity
8
0
100
AcDbLine
10
161.03566772930827
20
-2.4388042793856042
30
1.1102230246251565e-15
11
164.72486773542627
21
11.331142005774273
31
1.1102230246251565e-15
0
ARC
5
130
100
AcDbEntity
8
0
100
AcDbCircle
10
161.82706679439892
20
12.107511573815952
30
1.1102230246251565e-15
40
3.0000000000000355
210
0
220
0
230
1
100
AcDbArc
50
-14.998268599130096
51
75.013860366547874
0
LINE
5
131
100
AcDbEntity
8
0
100
AcDbLine
10
162.60282290844992
20
15.005476799886221
30
1.1102230246251565e-15
11
134.33637931638285
21
22.572119160449656
31
1.1102230246251565e-15
0
ARC
5
132
100
AcDbEntity
8
0
100
AcDbCircle
10
134.59496468773318
20
23.538107569139797
30
1.1102230246251565e-15
40
1.0000000000000022
210
0
220
-0
230
1
100
AcDbArc
50
75.013860366549579
51
255.01386036654864
0
LINE
5
133
100
AcDbEntity
8
0
100
AcDbLine
10
134.85355005908349
20
24.504095977829895
30
1.1102230246251565e-15
11
157.07154334696088
21
18.556562867369898
31
1.1102230246251565e-15
0
ARC
5
134
100
AcDbEntity
8
0
100
AcDbCircle
10
157.33012871831122
20
19.522551276059982
30
1.1102230246251565e-15
40
0.99999999999999634
210
0
220
0
230
1
100
AcDbArc
50
255.01386036654779
51
345.01386042289494
0
LINE
5
135
100
AcDbEntity
8
0
100
AcDbLine
10
158.2961171272556
20
19.263965905659642
30
1.1102230246251565e-15
11
158.6322793713228
21
20.519755553739532
31
-3.0825602626016746e-07
0
ARC
5
136
100
AcDbEntity
8
0
100
AcDbCircle
10
155.73431414448888
20
21.295511664940932
30
1.4891934436782885e-05
40
3.0000000000000115
210
9.9257249809014022e-08
220
-2.657016633856911e-08
230
0.99999999999999478
100
AcDbArc
50
-14.986139577104533
51
75.013860422895632
0
LINE
5
137
100
AcDbEntity
8
0
100
AcDbLine
10
156.51007025569061
20
24.193476891773713
30
1.1102230246251565e-15
11
99.516754127971367
21
39.450013745393413
31
1.1102230246251565e-15
0
ARC
5
138
100
AcDbEntity
8
0
100
AcDbCircle
10
98.740998016770362
20
36.552048518560234
30
1.1102230246251565e-15
40
2.9999999999999956
210
0
220
-0
230
1
100
AcDbArc
50
75.01386042289532
51
165.01386042289548
0
LINE
5
139
100
AcDbEntity
8
0
100
AcDbLine
10
95.843032789937183
20
37.327804629761232
30
1.1102230246251565e-15
11
95.506870561891105
21
36.072015041530847
31
-3.0825602626016746e-07
0
ARC
5
140
100
AcDbEntity
8
0
100
AcDbCircle
10
96.47285897083124
20
35.813429671132702
30
-2.587218563631269e-05
40
1.0000000000000575
210
-2.9777174942702636e-07
220
7.9710499015702139e-08
230
0.99999999999995248
100
AcDbArc
50
165.01386042289639
51
255.01386036654964
0
LINE
5
141
100
AcDbEntity
8
0
100
AcDbLine
10
96.214273599485182
20
34.847441262440427
30
1.1102230246251565e-15
11
118.43200700220726
21
28.899977720619972
31
1.1102230246251565e-15
0
ARC
5
142
100
AcDbEntity
8
0
100
AcDbCircle
10
118.17342163085692
20
27.933989311929931
30
1.1102230246251565e-15
40
1.0000000000000024
210
0
220
0
230
1
100
AcDbArc
50
-104.98613963345133
51
75.013860366547163
0
LINE
5
143
100
AcDbEntity
8
0
100
AcDbLine
10
117.9148362595066
20
26.96800090323984
30
1.1102230246251565e-15
11
89.917982175354325
21
34.462476866785295
31
1.1102230246251565e-15
0
ARC
5
144
100
AcDbEntity
8
0
100
AcDbCircle
10
118.35073479120177
20
133.78491738999944
30
1.1102230246251565e-15
40
103.31199646121158
210
0
220
0
230
1
100
AcDbArc
50
216.46656030080726
51
254.0253219496478
0
SPLINE
5
145
100
AcDbEntity
8
0
100
AcDbSpline
70
0
71
3
72
12
73
8
74
0
42
0.000000001
43
0.0000000001
44
0.0000000001
40
0
40
0
40
0
40
0
40
0.11719334201607898
40
0.11719334201607898
40
0.19905701036998494
40
0.19905701036998494
40
0.28092067872389082
40
0.28092067872389082
40
0.28092067872389082
40
0.28092067872389082
10
32.85421455422474
20
73.598007203340984
30
1.1102230246251565e-15
10
33.244859027611675
20
73.598007203340984
30
1.1102230246251565e-15
10
33.631768726915332
20
73.521705651047114
30
1.1102230246251565e-15
10
34.245614128726054
20
73.269798758673886
30
1.1102230246251565e-15
10
34.482751412234755
20
73.132238959351781
30
2.2204460492503131e-15
10
34.913267144316194
20
72.796817182013186
30
2.2204460492503131e-15
10
35.104639665927039
20
72.600518054170664
30
1.1102230246251565e-15
10
35.266826199652044
20
72.381067787939529
30
1.1102230246251565e-15
0
LINE
5
146
100
AcDbEntity
8
0
100
AcDbLine
10
32.85421455422474
20
73.598007203340984
30
1.1102230246251565e-15
11
9.3601188306250975
21
73.598007203340984
31
1.1102230246251565e-15
0
ELLIPSE
5
147
100
AcDbEntity
8
0
100
AcDbEllipse
10
9.3601188306250958
20
74.598007203340956
30
1.1102230246251565e-15
11
0.7071067811865448
21
0.70710678118657166
31
0.0
40
1
41
0.78539816339743829
42
3.9269908169872112
0
LINE
5
148
100
AcDbEntity
8
0
100
AcDbLine
10
9.3601188306250958
20
75.59800720334097
30
1.1102230246251565e-15
11
32.360118830625098
21
75.598007203340984
31
1.1102230246251565e-15
0
ELLIPSE
5
149
100
AcDbEntity
8
0
100
AcDbEllipse
10
32.360118830625105
20
76.598007203341012
30
1.1102230246251565e-15
11
-0.70710678118654891
21
-0.70710678118656778
31
0.0
40
0.99999999999999956
41
0.78539816339743573
42
2.3561944901923324
0
LINE
5
150
100
AcDbEntity
8
0
100
AcDbLine
10
33.360118830625119
20
76.598007203341012
30
1.1102230246251565e-15
11
33.360118830625105
21
77.898007203340995
31
1.1102230246251565e-15
0
ARC
5
151
100
AcDbEntity
8
0
100
AcDbCircle
10
30.360118830625105
20
77.898007203340981
30
1.1102230246251565e-15
40
2.9999999999999982
210
0
220
-0
230
1
100
AcDbArc
50
0
51
89.99999999077852
0
LINE
5
152
100
AcDbEntity
8
0
100
AcDbLine
10
30.36011883110794
20
80.898007203340981
30
1.1102230246251565e-15
11
-30.36011883110794
21
80.898007203340981
31
1.1102230246251565e-15
0
ARC
5
153
100
AcDbEntity
8
0
100
AcDbCircle
10
-30.360118830625105
20
77.898007203340981
30
1.1102230246251565e-15
40
2.9999999999999982
210
0
220
0
230
1
100
AcDbArc
50
90.000000009221466
51
180
0
LINE
5
154
100
AcDbEntity
8
0
100
AcDbLine
10
-33.360118830625105
20
77.898007203340995
30
1.1102230246251565e-15
11
-33.360118830625105
21
76.598007203341012
31
1.1102230246251565e-15
0
ELLIPSE
5
155
100
AcDbEntity
8
0
100
AcDbEllipse
10
-32.360118830625105
20
76.598007203341012
30
1.1102230246251565e-15
11
0.70710678118654891
21
-0.70710678118656778
31
0.0
40
0.99999999999999956
41
3.9269908169872587
42
5.4977871437821504
0
LINE
5
156
100
AcDbEntity
8
0
100
AcDbLine
10
-32.360118830625098
20
75.598007203340984
30
1.1102230246251565e-15
11
-9.3601188306250975
21
75.598007203340984
31
1.1102230246251565e-15
0
ELLIPSE
5
157
100
AcDbEntity
8
0
100
AcDbEllipse
10
-9.3601188306250958
20
74.598007203340956
30
1.1102230246251565e-15
11
-0.7071067811865448
21
0.70710678118657166
31
0.0
40
1
41
2.3561944901924305
42
5.4977871437821531
0
LINE
5
158
100
AcDbEntity
8
0
100
AcDbLine
10
-9.3601188306250336
20
73.598007203340941
30
1.1102230246251565e-15
11
-32.85421455422474
21
73.598007203340984
31
2.2204460492503131e-15
0
SPLINE
5
159
100
AcDbEntity
8
0
100
AcDbSpline
70
0
71
3
72
12
73
8
74
0
42
0.000000001
43
0.0000000001
44
0.0000000001
40
0
40
0
40
0
40
0
40
0.11719334201607898
40
0.11719334201607898
40
0.19905701036998494
40
0.19905701036998494
40
0.28092067872389082
40
0.28092067872389082
40
0.28092067872389082
40
0.28092067872389082
10
-32.85421455422474
20
73.598007203340984
30
1.1102230246251565e-15
10
-33.244859027611675
20
73.598007203340984
30
1.1102230246251565e-15
10
-33.631768726915332
20
73.521705651047114
30
1.1102230246251565e-15
10
-34.245614128726054
20
73.269798758673886
30
1.1102230246251565e-15
10
-34.482751412234755
20
73.132238959351781
30
2.2204460492503131e-15
10
-34.913267144316194
20
72.796817182013186
30
2.2204460492503131e-15
10
-35.104639665927039
20
72.600518054170664
30
1.1102230246251565e-15
10
-35.266826199652044
20
72.381067787939529
30
1.1102230246251565e-15
0
ARC
5
160
100
AcDbEntity
8
0
100
AcDbCircle
10
-118.35073479120177
20
133.78491738999944
30
1.1102230246251565e-15
40
103.31199646121158
210
0
220
0
230
1
100
AcDbArc
50
285.97467805035217
51
323.53343969919274
0
LINE
5
161
100
AcDbEntity
8
0
100
AcDbLine
10
-89.917982175354325
20
34.462476866785281
30
1.1102230246251565e-15
11
-117.9148362595066
21
26.968000903239847
31
1.1102230246251565e-15
0
ARC
5
162
100
AcDbEntity
8
0
100
AcDbCircle
10
-118.17342163085692
20
27.933989311929931
30
1.1102230246251565e-15
40
0.99999999999999867
210
0
220
0
230
1
100
AcDbArc
50
104.98613963345385
51
284.98613963345144
0
LINE
5
163
100
AcDbEntity
8
0
100
AcDbLine
10
-118.43200700220729
20
28.899977720620011
30
1.1102230246251565e-15
11
-96.214273599485182
21
34.847441262440427
31
1.1102230246251565e-15
0
ARC
5
164
100
AcDbEntity
8
0
100
AcDbCircle
10
-96.472858970835503
20
35.813429671130514
30
1.1102230246251565e-15
40
0.99999999999999811
210
0
220
0
230
1
100
AcDbArc
50
-75.013860366548656
51
14.986139577104668
0
LINE
5
165
100
AcDbEntity
8
0
100
AcDbLine
10
-95.50687056189112
20
36.072015041530847
30
1.1102230246251565e-15
11
-95.843032789937183
21
37.327804629761232
31
-3.0825602626016746e-07
0
ARC
5
166
100
AcDbEntity
8
0
100
AcDbCircle
10
-98.740998016769893
20
36.55204851856049
30
-8.8295658962781166e-06
40
3.0000000000000115
210
9.9257249809014022e-08
220
2.657016633856911e-08
230
0.99999999999999478
100
AcDbArc
50
14.986139577104471
51
104.98613957710438
0
LINE
5
167
100
AcDbEntity
8
0
100
AcDbLine
10
-99.516754127971367
20
39.45001374539342
30
1.1102230246251565e-15
11
-156.51007025569061
21
24.19347689177371
31
1.1102230246251565e-15
0
ARC
5
168
100
AcDbEntity
8
0
100
AcDbCircle
10
-155.73431414448962
20
21.29551166494053
30
1.1102230246251565e-15
40
2.9999999999999956
210
0
220
0
230
1
100
AcDbArc
50
104.98613957710442
51
194.98613957710452
0
LINE
5
169
100
AcDbEntity
8
0
100
AcDbLine
10
-158.6322793713228
20
20.519755553739532
30
1.1102230246251565e-15
11
-158.2961171272556
21
19.263965905659646
31
-3.0825602626016746e-07
0
ARC
5
170
100
AcDbEntity
8
0
100
AcDbCircle
10
-157.33012871830428
20
19.522551276063659
30
4.5292315362867235e-05
40
1.0000000000000411
210
-2.977717494270307e-07
220
-7.9710499015705461e-08
230
0.99999999999995248
100
AcDbArc
50
194.98613957710464
51
284.98613963345366
0
LINE
5
171
100
AcDbEntity
8
0
100
AcDbLine
10
-157.07154334696088
20
18.556562867369895
30
1.1102230246251565e-15
11
-134.85355005908349
21
24.504095977829895
31
1.1102230246251565e-15
0
ARC
5
172
100
AcDbEntity
8
0
100
AcDbCircle
10
-134.59496468773318
20
23.538107569139797
30
1.1102230246251565e-15
40
1.0000000000000013
210
0
220
0
230
1
100
AcDbArc
50
-75.013860366551256
51
104.98613963345043
0
LINE
5
173
100
AcDbEntity
8
0
100
AcDbLine
10
-134.3363793163829
20
22.572119160449692
30
1.1102230246251565e-15
11
-162.60282290844992
21
15.005476799886221
31
1.1102230246251565e-15
0
ARC
5
174
100
AcDbEntity
8
0
100
AcDbCircle
10
-161.82706679439892
20
12.107511573815952
30
1.1102230246251565e-15
40
2.9999999999999987
210
0
220
0
230
1
100
AcDbArc
50
104.98613963345213
51
194.99826859913009
0
LINE
5
175
100
AcDbEntity
8
0
100
AcDbLine
10
-164.72486773542624
20
11.331142005774282
30
1.1102230246251565e-15
11
-161.03566772930827
21
-2.4388042793856042
31
1.1102230246251565e-15
0
LINE
5
176
100
AcDbEntity
8
0
100
AcDbLine
10
-161.03566772930827
20
-2.4388042793856042
30
1.1102230246251565e-15
11
-154.82471118497483
21
-25.621211807604109
31
1.1102230246251565e-15
0
ELLIPSE
5
177
100
AcDbEntity
8
0
100
AcDbEllipse
10
-155.79064483198397
20
-25.880001663618021
30
1.1102230246251565e-15
11
0.50002616988671333
21
0.86601029406611629
31
0.0
40
0.99999999999998046
41
2.3561944901924052
42
5.4977871437821886
0
LINE
5
178
100
AcDbEntity
8
0
100
AcDbLine
10
-156.75657847899311
20
-26.138791519631994
30
1.1102230246251565e-15
11
-162.70874516731254
21
-3.9223176384224869
31
1.1102230246251565e-15
0
ARC
5
179
100
AcDbEntity
8
0
100
AcDbCircle
10
-163.67467881432168
20
-4.1811074944363895
30
1.1102230246251565e-15
40
1.0000000000000486
210
0
220
-0
230
1
100
AcDbArc
50
14.998268599130375
51
104.99826859913152
0
LINE
5
180
100
AcDbEntity
8
0
100
AcDbLine
10
-163.9334686703356
20
-3.2151738474272658
30
1.1102230246251565e-15
11
-165.18918241144735
21
-3.5516006602453394
31
1.1102230246251565e-15
0
ARC
5
181
100
AcDbEntity
8
0
100
AcDbCircle
10
-164.41281284340567
20
-6.4494016012726538
30
1.1102230246251565e-15
40
2.9999999999999987
210
0
220
0
230
1
100
AcDbArc
50
104.99826859913021
51
194.99826859913026
0
LINE
5
182
100
AcDbEntity
8
0
100
AcDbLine
10
-167.310613784433
20
-7.2257711693143349
30
1.1102230246251565e-15
11
-152.04201228078941
21
-64.215856338462004
31
1.1102230246251565e-15
0
ARC
5
183
100
AcDbEntity
8
0
100
AcDbCircle
10
-149.14421133976208
20
-63.439486770420324
30
1.1102230246251565e-15
40
3.0000000000000195
210
0
220
0
230
1
100
AcDbArc
50
194.99826859913026
51
284.99826859913026
0
LINE
5
184
100
AcDbEntity
8
0
100
AcDbLine
10
-148.36784177172041
20
-66.33728771144763
30
1.1102230246251565e-15
11
-147.11212803060863
21
-66.000860898629583
31
1.1102230246251565e-15
0
ELLIPSE
5
185
100
AcDbEntity
8
0
100
AcDbEllipse
10
-147.37091788662252
20
-65.034927251620488
30
1.1102230246251565e-15
11
-0.86601029406610974
21
0.50002616988670312
31
0.0
40
0.99999999999999978
41
2.3561944901923448
42
3.9269908169872618
0
LINE
5
186
100
AcDbEntity
8
0
100
AcDbLine
10
-146.40498423961341
20
-64.776137395606611
30
1.1102230246251565e-15
11
-152.35716552671303
21
-42.559609024421583
31
1.1102230246251565e-15
0
ELLIPSE
5
187
100
AcDbEntity
8
0
100
AcDbEllipse
10
-151.39123187970389
20
-42.300819168407671
30
1.1102230246251565e-15
11
-0.5000017458792998
21
-0.86602439579824164
31
0.0
40
0.99999999999998046
41
2.3561662875155389
42
5.4977589411052117
0
LINE
5
188
100
AcDbEntity
8
0
100
AcDbLine
10
-150.42529823269481
20
-42.042029312393659
30
1.1102230246251565e-15
11
-144.21432708958127
21
-65.224491330587909
31
1.1102230246251565e-15
0
LINE
5
189
100
AcDbEntity
8
0
100
AcDbLine
10
-144.21432708958127
20
-65.224491330587909
30
1.1102230246251565e-15
11
-140.46486382075361
21
-79.219370362442035
31
1.1102230246251565e-15
0
ARC
5
190
100
AcDbEntity
8
0
100
AcDbCircle
10
-137.56706287972631
20
-78.443000794400362
30
1.1102230246251565e-15
40
3
210
0
220
0
230
1
100
AcDbArc
50
194.99826859913023
51
270
0
LINE
5
191
100
AcDbEntity
8
0
100
AcDbLine
10
-137.56706287972631
20
-81.443000794400362
30
1.1102230246251565e-15
11
-91.660203152724449
21
-81.443000794400376
31
1.1102230246251565e-15
0
ARC
5
192
100
AcDbEntity
8
0
100
AcDbCircle
10
-91.660203152724449
20
-82.443000794400362
30
1.1102230246251565e-15
40
0.99999999999999645
210
0
220
0
230
1
100
AcDbArc
50
-90.00000000000081
51
90
0
LINE
5
193
100
AcDbEntity
8
0
100
AcDbLine
10
-91.660203152724463
20
-83.443000794400348
30
1.1102230246251565e-15
11
-115.16020315272443
21
-83.443000794400376
31
1.1102230246251565e-15
0
ARC
5
194
100
AcDbEntity
8
0
100
AcDbCircle
10
-115.16020315272443
20
-83.943000794400348
30
1.1102230246251565e-15
40
0.49999999999997158
210
0
220
-0
230
1
100
AcDbArc
50
90
51
180
0
LINE
5
195
100
AcDbEntity
8
0
100
AcDbLine
10
-115.66020315272445
20
-83.943000794400348
30
1.1102230246251565e-15
11
-115.66020315272445
21
-85.743000794400345
31
1.1102230246251565e-15
0
ARC
5
196
100
AcDbEntity
8
0
100
AcDbCircle
10
-112.66020315272443
20
-85.743000794400345
30
1.1102230246251565e-15
40
3.0000000000000071
210
0
220
0
230
1
100
AcDbArc
50
180
51
270
0
LINE
5
197
100
AcDbEntity
8
0
100
AcDbLine
10
-112.66020315272443
20
-88.743000794400345
30
1.1102230246251565e-15
11
-53.660203152724449
21
-88.743000794400345
31
1.1102230246251565e-15
0
ARC
5
198
100
AcDbEntity
8
0
100
AcDbCircle
10
-53.660203152724449
20
-85.743000794400345
30
1.1102230246251565e-15
40
3.0000000000000071
210
0
220
0
230
1
100
AcDbArc
50
-90
51
0
0
LINE
5
199
100
AcDbEntity
8
0
100
AcDbLine
10
-50.660203152724456
20
-85.743000794400345
30
1.1102230246251565e-15
11
-50.660203152724456
21
-83.943000794400362
31
1.1102230246251565e-15
0
ARC
5
200
100
AcDbEntity
8
0
100
AcDbCircle
10
-51.160203152724463
20
-83.943000794400362
30
1.1102230246251565e-15
40
0.50000000000000711
210
0
220
0
230
1
100
AcDbArc
50
0
51
90
0
LINE
5
201
100
AcDbEntity
8
0
100
AcDbLine
10
-51.160203152724463
20
-83.443000794400348
30
1.1102230246251565e-15
11
-74.660203152724435
21
-83.443000794400348
31
1.1102230246251565e-15
0
ARC
5
202
100
AcDbEntity
8
0
100
AcDbCircle
10
-74.660203152724435
20
-82.443000794400362
30
1.1102230246251565e-15
40
0.99999999999999645
210
0
220
-0
230
1
100
AcDbArc
50
90
51
270
0
LINE
5
203
100
AcDbEntity
8
0
100
AcDbLine
10
-74.660203152724435
20
-81.443000794400362
30
1.1102230246251565e-15
11
-26.485992431913449
21
-81.443000794400362
31
1.1102230246251565e-15
0
ARC
5
204
100
AcDbEntity
8
0
100
AcDbCircle
10
-26.485992431913449
20
-78.443000794400362
30
1.1102230246251565e-15
40
2.9999999999999982
210
0
220
0
230
1
100
AcDbArc
50
-90
51
0
0
LINE
5
205
100
AcDbEntity
8
0
100
AcDbLine
10
-23.485992431913449
20
-78.443000794400362
30
1.1102230246251565e-15
11
-23.485992431913438
21
-44.443001749347019
31
1.1102230246251565e-15
0
ARC
5
206
100
AcDbEntity
8
0
100
AcDbCircle
10
-20.485992431913434
20
-44.443001749347019
30
1.1102230246251565e-15
40
2.9999999999999982
210
0
220
-0
230
1
100
AcDbArc
50
90
51
180
0
LINE
5
207
100
AcDbEntity
8
0
100
AcDbLine
10
-20.485992431913434
20
-41.443001749347019
30
1.1102230246251565e-15
11
20.485992431913434
21
-41.443001749347019
31
1.1102230246251565e-15
0
ARC
5
208
100
AcDbEntity
8
0
100
AcDbCircle
10
20.485992431913434
20
-44.443001749347019
30
1.1102230246251565e-15
40
2.9999999999999982
210
0
220
0
230
1
100
AcDbArc
50
0
51
90
0
LINE
5
209
100
AcDbEntity
8
0
100
AcDbLine
10
23.485992431913431
20
-44.443001749347019
30
1.1102230246251565e-15
11
23.485992431913445
21
-78.443000794400362
31
1.1102230246251565e-15
0
LWPOLYLINE
5
210
100
AcDbEntity
8
0
100
AcDbPolyline
90
8
70
1
43
0.0
10
46.950012207588642
20
52.593994141249631
10
56.143005371760289
20
43.401000977077942
42
-0.41412571801471004
10
56.14300537176031
20
42.694000244647683
10
46.950012207588621
20
33.501998901765091
42
-0.41412571801468068
10
46.243011475158362
20
33.501998901765077
10
37.050994873486694
20
42.694000244647661
42
-0.41412571801471015
10
37.050994873486715
20
43.401000977077963
10
46.24301147515834
20
52.593994141249645
42
-0.41412571801468068
0
LWPOLYLINE
5
211
100
AcDbEntity
8
0
100
AcDbPolyline
90
8
70
1
43
0.0
10
117.20199585100103
20
0.59599304199931413
42
0.41444474065587789
10
117.81500244280511
20
0.94900512696444617
10
121.17898559714195
20
13.505996704261987
42
0.41443842905204958
10
120.82598877096589
20
14.119003296066131
10
108.26901245245742
20
17.483001709192042
42
0.41443842905204958
10
107.65600586065327
20
17.130004883015989
10
104.29199218873832
20
4.5729980469293698
42
0.41442746889888421
10
104.6449890149144
20
3.9600067139142672
0
LWPOLYLINE
5
212
100
AcDbEntity
8
0
100
AcDbPolyline
90
8
70
1
43
0.0
10
24.666000366503692
20
27.649002075523722
42
0.41419931279147071
10
25.348999023738351
20
27.832000732752483
10
31.848999023815551
20
39.091003418433019
42
0.41419931279147004
10
31.666000366586779
20
39.77400207566766
10
20.406997680906255
20
46.274002075744882
42
0.41419931279147004
10
19.723999023671578
20
46.091003418516145
10
13.223999023594393
20
34.832000732835581
42
0.41419931279147004
10
13.40699768082313
20
34.149002075600905
0
LWPOLYLINE
5
213
100
AcDbEntity
8
0
100
AcDbPolyline
90
8
70
1
43
0.0
10
136.83599853678101
20
0.26499938965166331
42
0.41413282455120265
10
137.44799804850709
20
0.61900329590584446
10
140.81298828292202
20
13.175994873203399
42
0.41412016897297199
10
140.45901489424591
20
13.787994384929474
10
127.90200805815931
20
17.152999878133453
42
0.41413282455125228
10
127.2900085464332
20
16.79899597187919
10
123.92498779444023
20
4.2420043945816834
42
0.41413282455120659
10
124.27899170069441
20
3.6300048828557503
0
LWPOLYLINE
5
214
100
AcDbEntity
8
0
100
AcDbPolyline
90
8
70
1
43
0.0
10
136.13101196450702
20
-75.969001770921594
42
0.41413282455116152
10
136.74301147623305
20
-75.614997864667416
10
140.10800171064798
20
-63.057998657975304
42
0.4141328245511765
10
139.75399780439378
20
-62.445999146249278
10
127.1969909683072
20
-59.081001282439793
42
0.41371582591824813
10
126.58499145658115
20
-59.43399810861586
10
123.22000122216619
20
-71.991996765991559
42
0.41413282455120937
10
123.57400512842045
20
-72.603996277717584
0
LWPOLYLINE
5
215
100
AcDbEntity
8
0
100
AcDbPolyline
90
8
70
1
43
0.0
10
52.959991455706856
20
-18.348007202366251
42
0.41485564111903489
10
53.572998047511021
20
-17.994003296112048
10
56.937011719425989
20
-5.4369964600254219
42
0.41371582591823081
10
56.584014893249901
20
-4.8249969482994173
10
44.026992798374238
20
-1.4600067138844606
42
0.41483834656543606
10
43.414001465359135
20
-1.813995361349594
10
40.050003052233258
20
-14.371002197436214
42
0.41371582591821804
10
40.402999878409311
20
-14.983001709162219
0
LWPOLYLINE
5
216
100
AcDbEntity
8
0
100
AcDbPolyline
90
8
70
1
43
0.0
10
57.890991211624787
20
0.05299377441474469
42
0.41413282455122652
10
58.502990723350877
20
0.40699768066896791
10
61.868011475343906
20
12.964004516755592
42
0.41413282455118661
10
61.514007569089685
20
13.576004028481597
10
48.957000733003071
20
16.94099426289657
42
0.41412649661153694
10
48.345001221277066
20
16.587005615431419
10
44.97999572807305
20
4.0299987793448002
42
0.4141328245511865
10
45.333999634327277
20
3.417999267618796
0
LWPOLYLINE
5
217
100
AcDbEntity
8
0
100
AcDbPolyline
90
8
70
1
43
0.0
10
82.983001709969656
20
-53.510002136865829
42
0.41413282455118927
10
83.595001221695711
20
-53.155998230611637
10
86.959991456110629
20
-40.598999023919539
42
0.41413282455120937
10
86.605987549856366
20
-39.986999512193513
10
74.049011231347905
20
-36.622001648384035
42
0.41412966054372113
10
73.437011719621935
20
-36.975997925243711
10
70.071990967628807
20
-49.532997131935794
42
0.41413282455119937
10
70.425994873883027
20
-50.144996643661834
0
LWPOLYLINE
5
218
100
AcDbEntity
8
0
100
AcDbPolyline
90
8
70
1
43
0.0
10
131.90499878086311
20
-18.134994507051228
42
0.41443842905202571
10
132.51800537266723
20
-17.781997680875165
10
135.88198852700404
20
-5.2250061035775976
42
0.41371582591823075
10
135.52899170082799
20
-4.6130065918516285
10
122.97198486474142
20
-1.2480010986475774
42
0.4144165091038009
10
122.35900879051545
20
-1.6009979248236306
10
118.99499511860041
20
-14.15800476091025
42
0.41442746889893717
10
119.34799194477654
20
-14.770996093925353
0
LWPOLYLINE
5
219
100
AcDbEntity
8
0
100
AcDbPolyline
90
8
70
1
43
0.0
10
107.34100341924326
20
-36.206001282168152
42
0.41444158481635401
10
107.95401001104742
20
-35.852996826597561
10
111.31799316538425
20
-23.294998169221884
42
0.41371582591819794
10
110.9649963392082
20
-22.682998657495844
10
98.40798950312157
20
-19.317993164291845
42
0.41483371465349383
10
97.795013428895516
20
-19.671997070546038
10
94.430999756980597
20
-32.228996277238117
42
0.41372129433788396
10
94.78399658315665
20
-32.841003418358675
0
LWPOLYLINE
5
220
100
AcDbEntity
8
0
100
AcDbPolyline
90
8
70
1
43
0.0
10
48.029998779867064
20
-36.749000549752722
42
0.41413282455119799
10
48.641998291593097
20
-36.39499664349853
10
52.00698852600808
20
-23.837997436806454
42
0.41412016897300219
10
51.65301513733197
20
-23.225997925080396
10
39.095993042456307
20
-19.860992431876415
42
0.41413282455119926
10
38.483993530730267
20
-20.214996338130607
10
35.119003296315327
20
-32.772003174217225
42
0.41413282455118927
10
35.473007202569555
20
-33.384002685943244
0
LWPOLYLINE
5
221
100
AcDbEntity
8
0
100
AcDbPolyline
90
8
70
1
43
0.0
10
15.313003540220752
20
67.550003052560029
42
0.41421356237309503
10
14.813003540214813
20
68.05000305256597
10
9.0630035401465374
20
68.05000305256597
42
0.41421356237309503
10
8.5630035401405973
20
67.550003052560029
10
8.5630035401405973
20
54.550003052405664
42
0.41421356237309503
10
9.0630035401465374
20
54.050003052399724
10
14.813003540214813
20
54.050003052399724
42
0.41421356237309503
10
15.313003540220752
20
54.550003052405664
0
LWPOLYLINE
5
222
100
AcDbEntity
8
0
100
AcDbPolyline
90
8
70
1
43
0.0
10
141.06100464034679
20
-57.568000794140588
42
0.41485564111905499
10
141.67401123215103
20
-57.213996887886367
10
145.03900146656594
20
-44.656997681194291
42
0.41413282455116651
10
144.68499756031176
20
-44.044998169468286
10
132.12799072422516
20
-40.680000305658773
42
0.41412966054376404
10
131.51599121249905
20
-41.033996582518427
10
128.15100097808414
20
-53.591003418605069
42
0.4137158259182408
10
128.50399780426019
20
-54.203002930331053
0
LWPOLYLINE
5
223
100
AcDbEntity
8
0
100
AcDbPolyline
90
8
70
1
43
0.0
10
155.85299682802247
20
-2.3650054931920823
42
0.41413282455116257
10
156.4649963397485
20
-2.0110015869378972
10
159.82998657416343
20
10.546005249148747
42
0.41412016897297199
10
159.47601318548737
20
11.158004760874752
10
146.9190063494008
20
14.522994995289727
42
0.41412649661160272
10
146.30700683767469
20
14.16900634782454
10
142.94198608568163
20
1.6119995117379557
42
0.4141328245512067
10
143.2959899919359
20
1.0000000000119509
0
LWPOLYLINE
5
224
100
AcDbEntity
8
0
100
AcDbPolyline
90
8
70
1
43
0.0
10
102.41101074340348
20
-54.607002258949173
42
0.41413282455118927
10
103.02301025512953
20
-54.252998352694981
10
106.38800048954445
20
-41.695999146002876
42
0.41413282455120937
10
106.03399658329019
20
-41.083999634276857
10
93.476989747203604
20
-37.719001770467379
42
0.41412966054372113
10
92.864990235477634
20
-38.072998047327047
10
89.500000001062659
20
-50.629997254019131
42
0.4141328245511765
10
89.854003907316851
20
-51.241996765745156
0
LWPOLYLINE
5
225
100
AcDbEntity
8
0
100
AcDbPolyline
90
8
70
1
43
0.0
10
92.843994141727379
20
-16.707992553909282
42
0.41371582591821177
10
93.455993653453348
20
-16.354995727733204
10
96.821014405446476
20
-3.7980041504356512
42
0.4148556411190169
10
96.467010499192241
20
-3.1849975586315078
10
83.910003663105627
20
0.17900085449436909
42
0.41371582591821071
10
83.298004151379658
20
-0.17399597168168413
10
79.933013916964683
20
-12.731002807768304
42
0.41483201572564299
10
80.28698730564075
20
-13.343994140783353
0
LWPOLYLINE
5
226
100
AcDbEntity
8
0
100
AcDbPolyline
90
8
70
1
43
0.0
10
117.11401367326557
20
-73.33799743739425
42
0.41371582591821798
10
117.72601318499153
20
-72.985000611218169
10
121.09100341940658
20
-60.428001404526114
42
0.41485015936801883
10
120.73699951315237
20
-59.815002442116445
10
108.1799926770657
20
-56.450996399596065
42
0.41371898007444413
10
107.56799316533966
20
-56.804000855166656
10
104.20300293092475
20
-69.361000061858746
42
0.41413282455118927
10
104.55700683717899
20
-69.972999573584772
0
LWPOLYLINE
5
227
100
AcDbEntity
8
0
100
AcDbPolyline
90
8
70
1
43
0.0
10
112.2720031751612
20
-17.804992675992622
42
0.41371582591821549
10
112.88400268688717
20
-17.451995849816537
10
116.24899292130222
20
-4.8950042725190093
42
0.41485564111904999
10
115.89498901504795
20
-4.2819976807148299
10
103.33801269653945
20
-0.91799926758897099
42
0.41371582591821066
10
102.72601318481348
20
-1.2709960937650244
10
99.360992432820382
20
-13.828002929851644
42
0.41484467770680683
10
99.714996339074574
20
-14.440994262866711
0
LWPOLYLINE
5
228
100
AcDbEntity
8
0
100
AcDbPolyline
90
8
70
1
43
0.0
10
145.99200439626475
20
-39.166999817359567
42
0.41412966054370337
10
146.60400390799066
20
-38.813003540499892
10
149.96899414240571
20
-26.255996704413281
42
0.41413282455116651
10
149.6149902361515
20
-25.643997192687277
10
137.058013917643
20
-22.279006958272319
42
0.41412649661157785
10
136.44601440591697
20
-22.632995605737488
10
133.08099365392391
20
-35.19000244182407
42
0.41413282455120937
10
133.43499756017818
20
-35.802001953550089
0
LWPOLYLINE
5
229
100
AcDbEntity
8
0
100
AcDbPolyline
90
8
70
1
43
0.0
10
65.68301391679546
20
20.723999023683671
42
0.41418710328450203
10
66.365997315241103
20
20.906997680912404
10
72.865997315318239
20
32.166000366592968
42
0.41419604153724737
10
72.683013916878551
20
32.848999023827645
10
61.424011231198023
20
39.348999023904831
42
0.414211522676593
10
60.740997315174226
20
39.166000366676094
10
54.24099731509709
20
27.906997680995534
42
0.41420258432606605
10
54.424011231114903
20
27.223999023760857
0
LWPOLYLINE
5
230
100
AcDbEntity
8
0
100
AcDbPolyline
90
8
70
1
43
0.0
10
97.480010987485542
20
-73.008003235730172
42
0.41483371465350122
10
98.092987061711597
20
-72.653999329475965
10
101.45700073362653
20
-60.097000122783882
42
0.41371582591824579
10
101.10400390745041
20
-59.485000611057892
10
88.546997071363819
20
-56.120002747248378
42
0.41485247548579995
10
87.93399047955964
20
-56.473999024108046
10
84.570007325222875
20
-69.030998230800137
42
0.41371582591823081
10
84.923004151398956
20
-69.642997742526148
0
LWPOLYLINE
5
231
100
AcDbEntity
8
0
100
AcDbPolyline
90
8
70
1
43
0.0
10
87.766998292057693
20
13.412994384924984
42
0.41413282455118927
10
88.378997803783761
20
13.766998291179176
10
91.74398803819868
20
26.324005127265796
42
0.41412016897297199
10
91.390014649522598
20
26.936004638991836
10
78.833007813435984
20
30.300994873406772
42
0.41412649661155776
10
78.221008301709944
20
29.947006225941625
10
74.855987549716886
20
17.389999389855003
42
0.41413282455118661
10
75.209991455971107
20
16.777999878128998
0
LWPOLYLINE
5
232
100
AcDbEntity
8
0
100
AcDbPolyline
90
8
70
1
43
0.0
10
60.67898559642353
20
-63.147003174577918
42
0.41413282455118661
10
61.29098510814957
20
-62.792999268323726
10
64.656005860142628
20
-50.236000061631636
42
0.41413282455118927
10
64.302001953888407
20
-49.62400054990561
10
51.744995117801828
20
-46.259002686096132
42
0.41412966054373657
10
51.132995606075788
20
-46.612998962955785
10
47.768005371660848
20
-59.16999816964789
42
0.41371582591821804
10
48.121002197836901
20
-59.781997681373895
0
LWPOLYLINE
5
233
100
AcDbEntity
8
0
100
AcDbPolyline
90
8
70
1
43
0.0
10
43.098999023949133
20
-55.150001526533742
42
0.41485564111902223
10
43.712005615753313
20
-54.795997620279536
10
47.075988770090149
20
-42.238998413587467
42
0.41371582591821804
10
46.72299194391406
20
-41.626998901861427
10
34.166000366616515
20
-38.262001038051949
42
0.41443842905205963
10
33.552993774812371
20
-38.614997864228016
10
30.188995361686459
20
-51.171997070920099
42
0.41444474065593279
10
30.542007446651589
20
-51.785003662724243
0
LWPOLYLINE
5
234
100
AcDbEntity
8
0
100
AcDbPolyline
90
8
70
1
43
0.0
10
65.60900878984144
20
-44.746002197796912
42
0.4141328245511765
10
66.22100830156748
20
-44.391998291542734
10
69.585998535982426
20
-31.835006714245175
42
0.41413282455120937
10
69.231994629728192
20
-31.223007202519113
10
56.67498779364162
20
-27.858001709315122
42
0.4141328245511765
10
56.06298828191558
20
-28.212005615569296
10
52.69799804750064
20
-40.76899719286687
42
0.4141328245511765
10
53.052001953754832
20
-41.380996704592896
0
LWPOLYLINE
5
235
100
AcDbEntity
8
0
100
AcDbPolyline
90
8
70
1
43
0.0
10
122.04400634910539
20
-54.936996460613237
42
0.41443842905202949
10
122.65701294090948
20
-54.583999634437184
10
126.02099609524632
20
-42.027000427745101
42
0.41443294893072952
10
125.66799926907026
20
-41.414001465335481
10
113.11099243298371
20
-38.050003052209604
42
0.41443842905208239
10
112.49798584117953
20
-38.402999878385657
10
109.13400268684269
20
-50.95999908507774
42
0.41443294893073962
10
109.48699951301877
20
-51.572998047487346
0
LWPOLYLINE
5
236
100
AcDbEntity
8
0
100
AcDbPolyline
90
8
70
1
43
0.0
10
126.97500610502328
20
-36.536003113226762
42
0.41371898007444396
10
127.58700561674929
20
-36.182998657656164
10
130.9519958511643
20
-23.62600708035863
42
0.41485564111904999
10
130.59799194491004
20
-23.01300048855445
10
118.04098510882346
20
-19.649002075428591
42
0.4137158259182207
10
117.42898559709749
20
-20.001998901604662
10
114.06399536268245
20
-32.55899810829672
42
0.41485015936805303
10
114.41799926893671
20
-33.171997070706396
0
LWPOLYLINE
5
237
100
AcDbEntity
8
0
100
AcDbPolyline
90
8
70
1
43
0.0
10
87.912994385809441
20
-35.109001160084816
42
0.41444158481635401
10
88.526000977613592
20
-34.755996704514224
10
91.890014649528538
20
-22.199005127216683
42
0.41445105256091458
10
91.536987305774332
20
-21.585998535412521
10
78.980010987265828
20
-18.220993042208505
42
0.41485564111901452
10
78.36700439546172
20
-18.574996948462715
10
75.002990723546731
20
-31.132003784549312
42
0.41371582591823081
10
75.355987549722826
20
-31.744003296275316
0
LWPOLYLINE
5
238
100
AcDbEntity
8
0
100
AcDbPolyline
90
8
70
1
43
0.0
10
70.540008545759378
20
-26.345001221015899
42
0.41371582591822326
10
71.152008057485403
20
-25.992004394839839
10
74.51699829190035
20
-13.434005737464163
42
0.4141328245511765
10
74.162994385646158
20
-12.822006225738141
10
61.605987549559543
20
-9.4570007325341248
42
0.41413282455119926
10
60.993988037833503
20
-9.811004638788317
10
57.628997803418571
20
-22.36799621608586
42
0.41371582591821804
10
57.981994629594624
20
-22.979995727811865
0
LWPOLYLINE
5
239
100
AcDbEntity
8
0
100
AcDbPolyline
90
8
70
1
43
0.0
10
75.470001221599162
20
-7.9440002442349016
42
0.41371582591821077
10
76.082000733325202
20
-7.5910034180588468
10
79.446990967740149
20
4.9660034180277881
42
0.41484467770681954
10
79.092987061485957
20
5.5789947510428908
10
66.536010742977453
20
8.942993164168767
42
0.41371582591822342
10
65.924011231251413
20
8.5899963379927122
10
62.558990479258355
20
-3.966995239304846
42
0.41485564111900713
10
62.912994385512548
20
-4.5800018311090076
0
LWPOLYLINE
5
240
100
AcDbEntity
8
0
100
AcDbPolyline
90
8
70
1
43
0.0
10
78.052001954051718
20
-71.911003113646842
42
0.41485564111902723
10
78.665008545855898
20
-71.556999207392636
10
82.028991700192705
20
-59.000000000700553
42
0.41371582591820805
10
81.67599487401661
20
-58.388000488974534
10
69.118988037929995
20
-55.023002625165034
42
0.41483054906994637
10
68.506011963703926
20
-55.376998902024745
10
65.141998291789008
20
-67.933998108716793
42
0.4137158259182509
10
65.494995117965132
20
-68.545997620442805
0
LWPOLYLINE
5
241
100
AcDbEntity
8
0
100
AcDbPolyline
90
8
70
1
43
0.0
10
138.01199340984186
20
-16.789001465043057
42
0.41371582591823142
10
138.36499023601792
20
-17.40100097676903
10
150.92300415218264
20
-20.766006469973096
42
0.41413282455121136
10
151.5350036639087
20
-20.412002563718886
10
154.89999389832366
20
-7.8549957276322662
42
0.41413282455116635
10
154.54598999206948
20
-7.2429962159062624
10
141.98901367356098
20
-3.878005981491305
42
0.41412649661158724
10
141.37701416183492
20
-4.2319946289564392
0
LWPOLYLINE
5
242
100
AcDbEntity
8
0
100
AcDbPolyline
90
8
70
1
43
0.0
10
6.5000000000770433
20
55.050003052411604
10
-6.5000000000770433
20
55.050003052411604
42
-0.41421356237309503
10
-7.0000000000829834
20
55.550003052417544
10
-7.0000000000829834
20
68.55000305257191
42
-0.41421356237309503
10
-6.5000000000770433
20
69.05000305257785
10
6.5000000000770433
20
69.05000305257785
42
-0.41421356237309503
10
7.0000000000829834
20
68.55000305257191
10
7.0000000000829834
20
55.550003052417544
42
-0.41421356237309503
0
LWPOLYLINE
5
243
100
AcDbEntity
8
0
100
AcDbPolyline
90
8
70
1
43
0.0
10
-138.36499023601792
20
-17.40100097676903
42
0.41371582591823142
10
-138.01199340984186
20
-16.789001465043057
10
-141.37701416183492
20
-4.2319946289564312
42
0.41412649661158585
10
-141.98901367356098
20
-3.878005981491305
10
-154.54598999206948
20
-7.2429962159062686
42
0.41413282455116529
10
-154.89999389832366
20
-7.8549957276322662
10
-151.53500366390875
20
-20.4120025637189
42
0.41413282455121192
10
-150.92300415218264
20
-20.766006469973096
0
LWPOLYLINE
5
244
100
AcDbEntity
8
0
100
AcDbPolyline
90
8
70
1
43
0.0
10
-78.665008545855898
20
-71.556999207392636
42
0.41485564111902723
10
-78.052001954051718
20
-71.911003113646842
10
-65.494995117965132
20
-68.545997620442819
42
0.41371582591825223
10
-65.141998291789008
20
-67.933998108716793
10
-68.506011963703941
20
-55.376998902024724
42
0.414830549069935
10
-69.118988037929995
20
-55.023002625165034
10
-81.67599487401661
20
-58.388000488974527
42
0.41371582591820932
10
-82.028991700192705
20
-59.000000000700553
0
LWPOLYLINE
5
245
100
AcDbEntity
8
0
100
AcDbPolyline
90
8
70
1
43
0.0
10
-76.082000733325202
20
-7.5910034180588468
42
0.41371582591821077
10
-75.470001221599162
20
-7.9440002442349016
10
-62.912994385512555
20
-4.5800018311089996
42
0.41485564111901096
10
-62.558990479258355
20
-3.9669952393048447
10
-65.924011231251427
20
8.5899963379927087
42
0.41371582591822326
10
-66.536010742977453
20
8.942993164168767
10
-79.092987061485957
20
5.578994751042873
42
0.41484467770681688
10
-79.446990967740149
20
4.9660034180277881
0
LWPOLYLINE
5
246
100
AcDbEntity
8
0
100
AcDbPolyline
90
8
70
1
43
0.0
10
-71.152008057485403
20
-25.992004394839839
42
0.41371582591822326
10
-70.540008545759378
20
-26.345001221015899
10
-57.98199462959461
20
-22.979995727811882
42
0.41371582591821571
10
-57.628997803418571
20
-22.36799621608586
10
-60.99398803783351
20
-9.8110046387883187
42
0.41413282455119921
10
-61.605987549559543
20
-9.4570007325341248
10
-74.162994385646158
20
-12.822006225738143
42
0.41413282455117623
10
-74.51699829190035
20
-13.434005737464163
0
LWPOLYLINE
5
247
100
AcDbEntity
8
0
100
AcDbPolyline
90
8
70
1
43
0.0
10
-88.526000977613592
20
-34.755996704514224
42
0.41444158481635401
10
-87.912994385809441
20
-35.109001160084816
10
-75.355987549722826
20
-31.744003296275324
42
0.41371582591823142
10
-75.002990723546731
20
-31.132003784549312
10
-78.367004395461706
20
-18.574996948462712
42
0.41485564111901468
10
-78.980010987265828
20
-18.220993042208505
10
-91.536987305774346
20
-21.585998535412511
42
0.41445105256090592
10
-91.890014649528538
20
-22.199005127216683
0
LWPOLYLINE
5
248
100
AcDbEntity
8
0
100
AcDbPolyline
90
8
70
1
43
0.0
10
-127.58700561674929
20
-36.182998657656164
42
0.41371898007444396
10
-126.97500610502328
20
-36.536003113226762
10
-114.41799926893671
20
-33.171997070706404
42
0.41485015936805369
10
-114.06399536268245
20
-32.55899810829672
10
-117.42898559709751
20
-20.001998901604662
42
0.41371582591821798
10
-118.04098510882346
20
-19.649002075428591
10
-130.59799194491004
20
-23.013000488554454
42
0.41485564111904932
10
-130.9519958511643
20
-23.62600708035863
0
LWPOLYLINE
5
249
100
AcDbEntity
8
0
100
AcDbPolyline
90
8
70
1
43
0.0
10
-122.65701294090948
20
-54.583999634437184
42
0.41443842905202949
10
-122.04400634910539
20
-54.936996460613237
10
-109.48699951301877
20
-51.572998047487346
42
0.41443294893073962
10
-109.13400268684269
20
-50.95999908507774
10
-112.49798584117951
20
-38.40299987838565
42
0.41443842905208261
10
-113.11099243298371
20
-38.050003052209604
10
-125.66799926907026
20
-41.414001465335481
42
0.41443294893072952
10
-126.02099609524632
20
-42.027000427745101
0
LWPOLYLINE
5
250
100
AcDbEntity
8
0
100
AcDbPolyline
90
8
70
1
43
0.0
10
-66.22100830156748
20
-44.391998291542734
42
0.4141328245511765
10
-65.60900878984144
20
-44.746002197796912
10
-53.052001953754832
20
-41.380996704592896
42
0.4141328245511765
10
-52.69799804750064
20
-40.76899719286687
10
-56.06298828191558
20
-28.212005615569296
42
0.4141328245511765
10
-56.67498779364162
20
-27.858001709315122
10
-69.231994629728234
20
-31.223007202519128
42
0.41413282455118727
10
-69.585998535982426
20
-31.835006714245175
0
LWPOLYLINE
5
251
100
AcDbEntity
8
0
100
AcDbPolyline
90
8
70
1
43
0.0
10
-43.712005615753313
20
-54.795997620279536
42
0.41485564111902223
10
-43.098999023949133
20
-55.150001526533742
10
-30.542007446651589
20
-51.785003662724243
42
0.41444474065593279
10
-30.188995361686459
20
-51.171997070920099
10
-33.55299377481235
20
-38.614997864228016
42
0.41443842905205985
10
-34.166000366616515
20
-38.262001038051949
10
-46.722991943914067
20
-41.626998901861405
42
0.41371582591821576
10
-47.075988770090149
20
-42.238998413587467
0
LWPOLYLINE
5
252
100
AcDbEntity
8
0
100
AcDbPolyline
90
8
70
1
43
0.0
10
-61.29098510814957
20
-62.792999268323726
42
0.41413282455118661
10
-60.67898559642353
20
-63.147003174577918
10
-48.121002197836887
20
-59.781997681373909
42
0.41371582591821571
10
-47.768005371660848
20
-59.16999816964789
10
-51.132995606075809
20
-46.6129989629558
42
0.41412966054373751
10
-51.744995117801828
20
-46.259002686096132
10
-64.302001953888407
20
-49.624000549905631
42
0.41413282455118661
10
-64.656005860142628
20
-50.236000061631636
0
LWPOLYLINE
5
253
100
AcDbEntity
8
0
100
AcDbPolyline
90
8
70
1
43
0.0
10
-88.378997803783761
20
13.766998291179176
42
0.41413282455118927
10
-87.766998292057693
20
13.412994384924984
10
-75.209991455971107
20
16.777999878128995
42
0.41413282455118694
10
-74.855987549716886
20
17.389999389855003
10
-78.221008301709929
20
29.947006225941628
42
0.41412649661155798
10
-78.833007813435984
20
30.300994873406772
10
-91.390014649522584
20
26.936004638991832
42
0.41412016897298137
10
-91.74398803819868
20
26.324005127265796
0
LWPOLYLINE
5
254
100
AcDbEntity
8
0
100
AcDbPolyline
90
8
70
1
43
0.0
10
-98.092987061711597
20
-72.653999329475965
42
0.41483371465350122
10
-97.480010987485542
20
-73.008003235730172
10
-84.923004151398956
20
-69.642997742526148
42
0.41371582591823081
10
-84.570007325222875
20
-69.030998230800137
10
-87.933990479559654
20
-56.473999024108046
42
0.41485247548579729
10
-88.546997071363819
20
-56.120002747248378
10
-101.10400390745041
20
-59.485000611057885
42
0.41371582591824718
10
-101.45700073362653
20
-60.097000122783882
0
LWPOLYLINE
5
255
100
AcDbEntity
8
0
100
AcDbPolyline
90
8
70
1
43
0.0
10
-66.365997315241103
20
20.906997680912404
42
0.41418710328450203
10
-65.68301391679546
20
20.723999023683671
10
-54.424011231114889
20
27.22399902376084
42
0.41420258432606677
10
-54.24099731509709
20
27.906997680995534
10
-60.740997315174212
20
39.166000366676101
42
0.41421152267659361
10
-61.424011231198023
20
39.348999023904831
10
-72.683013916878551
20
32.848999023827645
42
0.41419604153724737
10
-72.865997315318239
20
32.166000366592968
0
LWPOLYLINE
5
256
100
AcDbEntity
8
0
100
AcDbPolyline
90
8
70
1
43
0.0
10
-146.60400390799066
20
-38.813003540499892
42
0.41412966054370337
10
-145.99200439626475
20
-39.166999817359567
10
-133.43499756017818
20
-35.802001953550089
42
0.4141328245512087
10
-133.08099365392391
20
-35.19000244182407
10
-136.44601440591703
20
-22.632995605737484
42
0.41412649661156731
10
-137.058013917643
20
-22.279006958272319
10
-149.6149902361515
20
-25.643997192687284
42
0.41413282455116512
10
-149.96899414240571
20
-26.255996704413281
0
LWPOLYLINE
5
257
100
AcDbEntity
8
0
100
AcDbPolyline
90
8
70
1
43
0.0
10
-112.88400268688717
20
-17.451995849816537
42
0.41371582591821549
10
-112.2720031751612
20
-17.804992675992622
10
-99.714996339074574
20
-14.440994262866704
42
0.41484467770680578
10
-99.360992432820382
20
-13.828002929851642
10
-102.7260131848135
20
-1.2709960937650255
42
0.41371582591820877
10
-103.33801269653945
20
-0.91799926758897143
10
-115.89498901504795
20
-4.2819976807148361
42
0.4148556411190491
10
-116.24899292130222
20
-4.8950042725190102
0
LWPOLYLINE
5
258
100
AcDbEntity
8
0
100
AcDbPolyline
90
8
70
1
43
0.0
10
-117.72601318499153
20
-72.985000611218169
42
0.41371582591821798
10
-117.11401367326557
20
-73.33799743739425
10
-104.55700683717899
20
-69.972999573584758
42
0.41413282455118661
10
-104.20300293092475
20
-69.361000061858746
10
-107.56799316533969
20
-56.804000855166663
42
0.41371898007444641
10
-108.1799926770657
20
-56.450996399596065
10
-120.73699951315237
20
-59.815002442116445
42
0.41485015936801883
10
-121.09100341940658
20
-60.428001404526114
0
LWPOLYLINE
5
259
100
AcDbEntity
8
0
100
AcDbPolyline
90
8
70
1
43
0.0
10
-93.455993653453348
20
-16.354995727733204
42
0.41371582591821177
10
-92.843994141727379
20
-16.707992553909282
10
-80.28698730564075
20
-13.343994140783348
42
0.41483201572564238
10
-79.933013916964683
20
-12.731002807768304
10
-83.298004151379672
20
-0.17399597168168557
42
0.41371582591820882
10
-83.910003663105627
20
0.17900085449436887
10
-96.467010499192241
20
-3.1849975586315109
42
0.41485564111901635
10
-96.821014405446476
20
-3.7980041504356499
0
LWPOLYLINE
5
260
100
AcDbEntity
8
0
100
AcDbPolyline
90
8
70
1
43
0.0
10
-103.02301025512953
20
-54.252998352694981
42
0.41413282455118927
10
-102.41101074340348
20
-54.607002258949173
10
-89.854003907316851
20
-51.241996765745156
42
0.4141328245511765
10
-89.500000001062659
20
-50.629997254019131
10
-92.864990235477634
20
-38.072998047327047
42
0.41412966054371858
10
-93.476989747203604
20
-37.719001770467379
10
-106.03399658329023
20
-41.083999634276871
42
0.41413282455118661
10
-106.38800048954445
20
-41.695999146002876
0
LWPOLYLINE
5
261
100
AcDbEntity
8
0
100
AcDbPolyline
90
8
70
1
43
0.0
10
-156.4649963397485
20
-2.0110015869378968
42
0.41413282455116257
10
-155.85299682802247
20
-2.3650054931920819
10
-143.2959899919359
20
1.0000000000119398
42
0.41413282455120837
10
-142.94198608568163
20
1.611999511737956
10
-146.30700683767469
20
14.16900634782454
42
0.41412649661160272
10
-146.9190063494008
20
14.522994995289727
10
-159.47601318548737
20
11.158004760874745
42
0.41412016897298104
10
-159.82998657416343
20
10.546005249148747
0
LWPOLYLINE
5
262
100
AcDbEntity
8
0
100
AcDbPolyline
90
8
70
1
43
0.0
10
-141.67401123215103
20
-57.213996887886367
42
0.41485564111905499
10
-141.06100464034679
20
-57.568000794140588
10
-128.50399780426019
20
-54.203002930331067
42
0.41371582591824219
10
-128.15100097808414
20
-53.591003418605069
10
-131.51599121249905
20
-41.033996582518427
42
0.41412966054376404
10
-132.12799072422516
20
-40.680000305658773
10
-144.68499756031176
20
-44.0449981694683
42
0.41413282455116512
10
-145.03900146656594
20
-44.656997681194291
0
LWPOLYLINE
5
263
100
AcDbEntity
8
0
100
AcDbPolyline
90
8
70
1
43
0.0
10
-14.813003540214813
20
68.05000305256597
42
0.41421356237309503
10
-15.313003540220752
20
67.550003052560029
10
-15.313003540220752
20
54.550003052405664
42
0.41421356237309503
10
-14.813003540214813
20
54.050003052399724
10
-9.0630035401465374
20
54.050003052399724
42
0.41421356237309503
10
-8.5630035401405973
20
54.550003052405664
10
-8.5630035401405973
20
67.550003052560029
42
0.41421356237309503
10
-9.0630035401465374
20
68.05000305256597
0
LWPOLYLINE
5
264
100
AcDbEntity
8
0
100
AcDbPolyline
90
8
70
1
43
0.0
10
-48.641998291593097
20
-36.39499664349853
42
0.41413282455119799
10
-48.029998779867064
20
-36.749000549752722
10
-35.473007202569555
20
-33.38400268594323
42
0.41413282455118661
10
-35.119003296315327
20
-32.772003174217225
10
-38.483993530730274
20
-20.214996338130607
42
0.41413282455119799
10
-39.095993042456307
20
-19.860992431876415
10
-51.65301513733197
20
-23.225997925080385
42
0.41412016897300347
10
-52.00698852600808
20
-23.837997436806454
0
LWPOLYLINE
5
265
100
AcDbEntity
8
0
100
AcDbPolyline
90
8
70
1
43
0.0
10
-107.95401001104742
20
-35.852996826597561
42
0.41444158481635401
10
-107.34100341924326
20
-36.206001282168152
10
-94.78399658315665
20
-32.841003418358675
42
0.41372129433788396
10
-94.430999756980597
20
-32.228996277238117
10
-97.79501342889553
20
-19.671997070546038
42
0.41483371465349117
10
-98.40798950312157
20
-19.317993164291845
10
-110.9649963392082
20
-22.682998657495833
42
0.41371582591819933
10
-111.31799316538425
20
-23.294998169221884
0
LWPOLYLINE
5
266
100
AcDbEntity
8
0
100
AcDbPolyline
90
8
70
1
43
0.0
10
-132.51800537266723
20
-17.781997680875165
42
0.41443842905202571
10
-131.90499878086311
20
-18.134994507051228
10
-119.34799194477654
20
-14.770996093925355
42
0.4144274688989375
10
-118.99499511860041
20
-14.15800476091025
10
-122.35900879051542
20
-1.6009979248236186
42
0.41441650910379968
10
-122.97198486474142
20
-1.2480010986475771
10
-135.52899170082799
20
-4.6130065918516259
42
0.41371582591823119
10
-135.88198852700404
20
-5.2250061035775968
0
LWPOLYLINE
5
267
100
AcDbEntity
8
0
100
AcDbPolyline
90
8
70
1
43
0.0
10
-83.595001221695711
20
-53.155998230611637
42
0.41413282455118927
10
-82.983001709969656
20
-53.510002136865829
10
-70.425994873883027
20
-50.144996643661827
42
0.41413282455119799
10
-70.071990967628807
20
-49.532997131935794
10
-73.437011719621935
20
-36.975997925243703
42
0.41412966054371858
10
-74.049011231347905
20
-36.622001648384035
10
-86.605987549856408
20
-39.986999512193535
42
0.41413282455118661
10
-86.959991456110629
20
-40.598999023919539
0
LWPOLYLINE
5
268
100
AcDbEntity
8
0
100
AcDbPolyline
90
8
70
1
43
0.0
10
-58.502990723350877
20
0.40699768066896685
42
0.41413282455122652
10
-57.890991211624787
20
0.052993774414744621
10
-45.333999634327277
20
3.4179992676187938
42
0.41413282455118688
10
-44.97999572807305
20
4.0299987793447993
10
-48.345001221277059
20
16.587005615431419
42
0.41412649661153705
10
-48.957000733003071
20
16.94099426289657
10
-61.514007569089685
20
13.576004028481599
42
0.41413282455118694
10
-61.868011475343906
20
12.964004516755592
0
LWPOLYLINE
5
269
100
AcDbEntity
8
0
100
AcDbPolyline
90
8
70
1
43
0.0
10
-53.572998047511021
20
-17.994003296112048
42
0.41485564111903489
10
-52.959991455706856
20
-18.348007202366251
10
-40.402999878409304
20
-14.983001709162235
42
0.41371582591821537
10
-40.050003052233258
20
-14.371002197436214
10
-43.414001465359121
20
-1.8139953613495914
42
0.414838346565436
10
-44.026992798374238
20
-1.4600067138844603
10
-56.584014893249901
20
-4.8249969482994146
42
0.41371582591823119
10
-56.937011719425989
20
-5.436996460025421
0
LWPOLYLINE
5
270
100
AcDbEntity
8
0
100
AcDbPolyline
90
8
70
1
43
0.0
10
-136.74301147623305
20
-75.614997864667416
42
0.41413282455116152
10
-136.13101196450702
20
-75.969001770921594
10
-123.57400512842045
20
-72.60399627771757
42
0.41413282455120803
10
-123.22000122216619
20
-71.991996765991559
10
-126.58499145658114
20
-59.433998108615853
42
0.41371582591824585
10
-127.1969909683072
20
-59.081001282439793
10
-139.75399780439378
20
-62.445999146249278
42
0.4141328245511765
10
-140.10800171064798
20
-63.057998657975304
0
LWPOLYLINE
5
271
100
AcDbEntity
8
0
100
AcDbPolyline
90
8
70
1
43
0.0
10
-137.44799804850709
20
0.61900329590584358
42
0.41413282455120265
10
-136.83599853678101
20
0.26499938965166336
10
-124.27899170069441
20
3.6300048828557392
42
0.41413282455120826
10
-123.92498779444023
20
4.2420043945816843
10
-127.2900085464332
20
16.798995971879222
42
0.41413282455123468
10
-127.90200805815931
20
17.152999878133453
10
-140.45901489424588
20
13.787994384929467
42
0.41412016897298104
10
-140.81298828292202
20
13.175994873203399
0
LWPOLYLINE
5
272
100
AcDbEntity
8
0
100
AcDbPolyline
90
8
70
1
43
0.0
10
-25.348999023738351
20
27.832000732752483
42
0.41419931279147071
10
-24.666000366503692
20
27.649002075523722
10
-13.406997680823117
20
34.149002075600883
42
0.4141993127914696
10
-13.223999023594393
20
34.832000732835581
10
-19.723999023671556
20
46.091003418516159
42
0.41419931279146688
10
-20.406997680906255
20
46.274002075744882
10
-31.666000366586786
20
39.774002075667674
42
0.41419931279147071
10
-31.848999023815551
20
39.091003418433019
0
LWPOLYLINE
5
273
100
AcDbEntity
8
0
100
AcDbPolyline
90
8
70
1
43
0.0
10
-117.81500244280511
20
0.94900512696444506
42
0.41444474065587789
10
-117.20199585100103
20
0.59599304199931424
10
-104.6449890149144
20
3.9600067139142716
42
0.41442746889888349
10
-104.29199218873832
20
4.5729980469293707
10
-107.65600586065325
20
17.130004883015992
42
0.41443842905204975
10
-108.26901245245742
20
17.483001709192042
10
-120.82598877096589
20
14.119003296066147
42
0.41443842905205192
10
-121.17898559714195
20
13.505996704261985
0
LWPOLYLINE
5
274
100
AcDbEntity
8
0
100
AcDbPolyline
90
8
70
1
43
0.0
10
-56.14300537176031
20
43.401000977077963
10
-46.950012207588642
20
52.593994141249631
42
-0.41412571801468068
10
-46.24301147515834
20
52.593994141249645
10
-37.050994873486715
20
43.401000977077963
42
-0.41412571801471004
10
-37.050994873486694
20
42.694000244647661
10
-46.243011475158362
20
33.501998901765077
42
-0.41412571801468068
10
-46.950012207588621
20
33.501998901765091
10
-56.143005371760324
20
42.694000244647661
42
-0.41412571801471004
0
LWPOLYLINE
5
275
100
AcDbEntity
8
0
100
AcDbPolyline
90
8
70
1
43
0.0
10
6.5000000000770433
20
36.000000000427576
10
-6.5000000000770433
20
36.000000000427576
42
-0.41421356237309503
10
-7.0000000000829834
20
36.500000000433516
10
-7.0000000000829834
20
49.500000000587889
42
-0.41421356237309503
10
-6.5000000000770433
20
50.000000000593829
10
6.5000000000770433
20
50.000000000593829
42
-0.41421356237309503
10
7.0000000000829834
20
49.500000000587889
10
7.0000000000829834
20
36.500000000433516
42
-0.41421356237309503
0
CIRCLE
5
276
100
AcDbEntity
8
0
100
AcDbCircle
10
-3.1554436208840472e-29
20
-2.7199999999999886
30
0
40
24.000000000000004
210
-1.9721522630525291e-31
220
-4.9800746108669621e-71
230
1
0
CIRCLE
5
277
100
AcDbEntity
8
0
100
AcDbCircle
10
-105.94996799999997
20
-76.100032999999968
30
1.1102230246251565e-15
40
1.6000000000000014
210
-1.7638593682964865e-95
220
-1.8651003310525467e-63
230
1
0
CIRCLE
5
278
100
AcDbEntity
8
0
100
AcDbCircle
10
-122.29998799999996
20
20.199967000000008
30
1.1102230246251565e-15
40
1.6000000000000014
210
-1.7638593682964865e-95
220
-1.8651003310525467e-63
230
1
0
CIRCLE
5
279
100
AcDbEntity
8
0
100
AcDbCircle
10
-38.999994999999991
20
54.999967000000005
30
1.1102230246251565e-15
40
1.599999999999997
210
-1.7638593682964865e-95
220
-1.8651003310525467e-63
230
1
0
CIRCLE
5
280
100
AcDbEntity
8
0
100
AcDbCircle
10
-27.549969999999991
20
-76.100032999999968
30
1.1102230246251565e-15
40
1.6000000000000014
210
-1.7638594624914333e-95
220
-1.8651003808532926e-63
230
1
0
CIRCLE
5
281
100
AcDbEntity
8
0
100
AcDbCircle
10
27.549969999999991
20
-76.100032999999968
30
1.1102230246251565e-15
40
1.6000000000000014
210
-1.9721522630525291e-31
220
-4.9800745838789353e-71
230
1
0
CIRCLE
5
282
100
AcDbEntity
8
0
100
AcDbCircle
10
38.999994999999991
20
54.999967000000005
30
1.1102230246251565e-15
40
1.599999999999997
210
-1.9721522630525291e-31
220
2.6988026734670139e-79
230
1
0
CIRCLE
5
283
100
AcDbEntity
8
0
100
AcDbCircle
10
122.29998799999996
20
20.199967000000008
30
1.1102230246251565e-15
40
1.6000000000000014
210
-1.9721522630525291e-31
220
0
230
1
0
CIRCLE
5
284
100
AcDbEntity
8
0
100
AcDbCircle
10
105.94996799999997
20
-76.100032999999968
30
1.1102230246251565e-15
40
1.6000000000000014
210
-1.9721522630525291e-31
220
0
230
1
0
ENDSEC
0
SECTION
2
OBJECTS
0
DICTIONARY
5
C
100
AcDbDictionary
3
ACAD_GROUP
350
D
3
ACAD_MLINESTYLE
350
17
0
DICTIONARY
5
D
100
AcDbDictionary
0
DICTIONARY
5
1A
330
C
100
AcDbDictionary
0
DICTIONARY
5
17
100
AcDbDictionary
0
ENDSEC
0
EOF
