0
SECTION
2
HEADER
9
$INSUNITS
70
4
9
$ACADVER
1
AC1014
9
$HANDSEED
5
FFFF
0
ENDSEC
0
SECTION
2
TABLES
0
TABLE
2
VPORT
5
8
100
AcDbSymbolTable
0
ENDTAB
0
TABLE
2
LTYPE
5
5
100
AcDbSymbolTable
0
LTYPE
5
14
100
AcDbSymbolTableRecord
100
AcDbLinetypeTableRecord
2
BYBLOCK
70
0
0
LTYPE
5
15
100
AcDbSymbolTableRecord
100
AcDbLinetypeTableRecord
2
BYLAYER
70
0
0
ENDTAB
0
TABLE
2
LAYER
5
2
100
AcDbSymbolTable
70
2
0
LAYER
5
50
100
AcDbSymbolTableRecord
100
AcDbLayerTableRecord
2
0
70
0
6
CONTINUOUS
0
ENDTAB
0
TABLE
2
STYLE
5
3
100
AcDbSymbolTable
70
1
0
STYLE
5
11
100
AcDbSymbolTableRecord
100
AcDbTextStyleTableRecord
2
STANDARD
70
0
0
ENDTAB
0
TABLE
2
VIEW
5
6
100
AcDbSymbolTable
70
0
0
ENDTAB
0
TABLE
2
UCS
5
7
100
AcDbSymbolTable
70
0
0
ENDTAB
0
TABLE
2
APPID
5
9
100
AcDbSymbolTable
70
2
0
APPID
5
12
100
AcDbSymbolTableRecord
100
AcDbRegAppTableRecord
2
ACAD
70
0
0
ENDTAB
0
TABLE
2
DIMSTYLE
5
A
100
AcDbSymbolTable
70
1
0
ENDTAB
0
TABLE
2
BLOCK_RECORD
5
1
100
AcDbSymbolTable
70
1
0
BLOCK_RECORD
5
1F
100
AcDbSymbolTableRecord
100
AcDbBlockTableRecord
2
*MODEL_SPACE
0
BLOCK_RECORD
5
1B
100
AcDbSymbolTableRecord
100
AcDbBlockTableRecord
2
*PAPER_SPACE
0
ENDTAB
0
ENDSEC
0
SECTION
2
BLOCKS
0
BLOCK
5
20
100
AcDbEntity
100
AcDbBlockBegin
2
*MODEL_SPACE
0
ENDBLK
5
21
100
AcDbEntity
100
AcDbBlockEnd
0
BLOCK
5
1C
100
AcDbEntity
100
AcDbBlockBegin
2
*PAPER_SPACE
0
ENDBLK
5
1D
100
AcDbEntity
100
AcDbBlockEnd
0
ENDSEC
0
SECTION
2
ENTITIES
0
LWPOLYLINE
5
100
100
AcDbEntity
8
0
100
AcDbPolyline
90
85
70
1
43
0.0
10
-34.792845189290489
20
-43.103784067640504
10
-23.939236941868032
20
-43.103784067640504
42
0.41425262572912208
10
-22.439233917805552
20
-41.603781043578067
10
-22.439233917805581
20
-35.069468019693709
42
-0.41421356237309503
10
-20.939230893743144
20
-33.569464995631279
10
20.939194542525428
20
-33.5694649956313
42
-0.41421356237309503
10
22.439197566587836
20
-35.069468019693709
10
22.439197566587836
20
-41.603781043578067
42
0.41425262572912042
10
23.939200590650316
20
-43.10378406764049
10
33.292705797214737
20
-43.103784067640461
42
-0.41421356237309503
10
34.792808838072773
20
-44.603887108498498
10
34.792808838072773
20
-69.362136925119785
42
0.41346041744035161
10
36.288950719063351
20
-70.862131963417525
42
0.0054680403142696437
10
50.062089134011352
20
-70.74693226992531
42
-0.3994447824559707
10
52.095790476117472
20
-72.606702853266128
10
52.180496582827054
20
-73.815062548259561
42
0.41421356237309304
10
54.315457542578365
20
-75.670309620845288
10
110.19251349194508
20
-71.753323740335091
42
0.41421356237309481
10
112.04776056453085
20
-69.618362780583837
10
111.96305445782122
20
-68.410003085590404
42
-0.39944478245597403
10
113.71740113435344
20
-66.284690047451207
42
0.0042951266475123491
10
124.44639457456269
20
-64.890068040118962
42
0.27780154475898899
10
126.05094663342871
20
-63.593087174041749
10
131.21515578855741
20
-49.404675963150765
42
-0.41421356237309503
10
133.77858502173831
20
-48.209338953569898
10
134.7182701415432
20
-48.551359665156689
42
0.41421205854580967
10
137.28169586253966
20
-47.356032305053198
10
156.45194143664071
20
5.3124352011274034
42
0.41421356237309503
10
155.25661758872167
20
7.8758705716011868
10
154.31664450558114
20
8.2180015598387648
42
-0.4142120585458039
10
153.12131714547763
20
10.781427280835167
10
158.21746086506016
20
24.782832047996166
42
0.41421763127290695
10
157.02209774688589
20
27.346270783814166
10
148.09499957492432
20
30.595359687417464
42
-0.41421356237309748
10
146.89962695411293
20
33.158772314642064
10
147.24163695571622
20
34.098468626650998
42
0.41421356237309348
10
146.04626433490483
20
36.661881253875578
10
93.070078965436693
20
55.94298836433417
42
0.41421356237309503
10
90.506666338212113
20
54.747615743522786
10
90.186304686753488
20
53.867399782078422
42
-0.42351315035960396
10
87.56376908512884
20
52.694611094322553
42
-0.10324491710101828
10
43.857034019676355
20
81.735268042875475
42
0.030029235841294088
10
39.832149798436383
20
84.752742323938506
42
0.046156807376384341
10
33.0228141794354
20
88.393682955747863
42
0.044961948406626089
10
17.128544579305611
20
92.912777840546681
42
-0.36040251289093622
10
15.500661175381296
20
94.877855253506567
10
15.500661175381367
20
96.770346307093121
42
0.41421356237309503
10
13.500661175381268
20
98.770346307093106
10
-13.500697526598842
20
98.770346307093149
42
0.41421356237309503
10
-15.50069752659887
20
96.770346307093149
10
-15.500697526598968
20
94.877855253506524
42
-0.3604025128909254
10
-17.128580930523185
20
92.912777840546681
42
0.044961948406626241
10
-33.022850530653045
20
88.393682955747835
42
0.046156807376586451
10
-39.832191476230257
20
84.752750396319499
42
0.030029235841395201
10
-43.857070370894036
20
81.735268042875447
42
-0.10324491710101828
10
-87.56380543634657
20
52.694611094322532
42
-0.42351315035959908
10
-90.18634103797126
20
53.867399782078387
10
-90.506702689429872
20
54.747615743522786
42
0.41421356237309503
10
-93.070115316654451
20
55.94298836433417
10
-146.04630068612261
20
36.66188125387562
42
0.41421356237309592
10
-147.24167330693399
20
34.09846862665102
10
-146.89966330533065
20
33.158772314642
42
-0.41421356237309348
10
-148.09503592614206
20
30.595359687417414
10
-157.02213409810361
20
27.346270783814131
42
0.41421763127290023
10
-158.21749721627788
20
24.782832047996202
10
-153.12135349669541
20
10.781427280835114
42
-0.41421205854580478
10
-154.31668085679888
20
8.2180015598387079
10
-155.25665393993975
20
7.8758705716010269
42
0.41421356237309592
10
-156.45197778785877
20
5.3124352011272258
10
-137.28173221375789
20
-47.356032305053432
42
0.41421205854580606
10
-134.71830649276149
20
-48.55135966515693
10
-133.77862137295591
20
-48.209338953569933
42
-0.4142135623730957
10
-131.21519213977507
20
-49.404675963150815
10
-126.05098298464632
20
-63.593087174041834
42
0.27780154475898988
10
-124.44643092578028
20
-64.890068040119004
42
0.0042951266475123491
10
-113.71743748557114
20
-66.284690047451292
42
-0.3994447824559702
10
-111.96309080903895
20
-68.410003085590446
10
-112.04779691574856
20
-69.618362780583851
42
0.4142135623730952
10
-110.19254984316284
20
-71.753323740335105
10
-54.315493893796045
20
-75.670309620845316
42
0.41421356237309587
10
-52.180532934044805
20
-73.815062548259533
10
-52.095826827335131
20
-72.606702853266157
42
-0.39944478245597087
10
-50.062125485229032
20
-70.746932269925509
42
0.0054680403142696437
10
-36.288987070281067
20
-70.862131963417482
42
0.41346041744035161
10
-34.792845189290489
20
-69.362136925119813
0
LWPOLYLINE
5
101
100
AcDbEntity
8
0
100
AcDbPolyline
90
8
70
1
43
0.0
10
108.15776179689003
20
-43.824786192594551
10
103.71145232637133
20
-56.040810423829733
42
-0.41426826006705475
10
103.07055137608782
20
-56.339710676997619
10
90.854527144852639
20
-51.893402160155155
42
-0.41423253148708106
10
90.555728935042339
20
-51.252501209871639
10
95.002038405561038
20
-39.036475071283974
42
-0.41415520251341481
10
95.642836358810712
20
-38.73767686147368
10
107.85886440475085
20
-43.183984424639902
42
-0.41419279108960055
0
LWPOLYLINE
5
102
100
AcDbEntity
8
0
100
AcDbPolyline
90
8
70
1
43
0.0
10
-113.71761236593514
20
-43.314384391510643
10
-109.27140207774539
20
-55.530409576422059
42
-0.41415868565674979
10
-109.57020410226065
20
-56.17121039070048
10
-121.78622833349577
20
-60.617519861219186
42
-0.41423353304448535
10
-122.42712928377941
20
-60.31871879038016
10
-126.87333766461663
20
-48.10269360546873
42
-0.41423319919083085
10
-126.57453754745383
20
-47.461792655185235
10
-114.35851331621869
20
-43.015483184666564
42
-0.41426859404085059
0
LWPOLYLINE
5
103
100
AcDbEntity
8
0
100
AcDbPolyline
90
8
70
1
43
0.0
10
109.27136572652768
20
-55.530409576422045
10
113.71757601471749
20
-43.314384391510629
42
-0.41426859404082927
10
114.35847696500102
20
-43.015483184666536
10
126.5745011962362
20
-47.461792655185199
42
-0.41423319919082413
10
126.87330131339898
20
-48.102693605468694
10
122.42709293256164
20
-60.318718790380139
42
-0.41423353304443739
10
121.7861919822781
20
-60.617519861219158
10
109.57016775104294
20
-56.171210390700459
42
-0.41415868565674263
0
LWPOLYLINE
5
104
100
AcDbEntity
8
0
100
AcDbPolyline
90
8
70
1
43
0.0
10
-103.71148867758905
20
-56.040810423829754
10
-108.15779814810773
20
-43.824786192594587
42
-0.4141927910896343
10
-107.85890075596853
20
-43.183984424639931
10
-95.642872710028399
20
-38.737676861473687
42
-0.4141552025134001
10
-95.002074756778754
20
-39.036475071284002
10
-90.555765286260055
20
-51.252501209871646
42
-0.41423253148710776
10
-90.854563496070355
20
-51.893402160155162
10
-103.07058772730556
20
-56.339710676997655
42
-0.41426826006703343
0
LWPOLYLINE
5
105
100
AcDbEntity
8
0
100
AcDbPolyline
90
8
70
1
43
0.0
10
97.087640602156682
20
22.392344450234418
42
0.41418839930613111
10
97.386541809000818
20
21.75155031168968
10
109.60256604023598
20
17.30523702646602
42
0.4141954627435665
10
110.24336780819067
20
17.604142048015099
10
114.68967727870935
20
29.820162464545295
42
0.41419412690742902
10
114.39077607186526
20
30.460964232499972
10
102.17475184063008
20
34.907269888313706
42
0.41419279108961032
10
101.53395007267541
20
34.608372496174553
0
LWPOLYLINE
5
106
100
AcDbEntity
8
0
100
AcDbPolyline
90
8
70
1
43
0.0
10
135.33331745358191
20
16.074338548834746
42
0.41415940159430892
10
135.63211947809714
20
15.433536780880086
10
147.84824289166119
20
10.987223495656426
42
0.41416073695441524
10
148.48904465961581
20
11.286029334876631
10
152.93535365329637
20
23.502049751406844
42
0.41426842705381883
10
152.63645292329042
20
24.14295070169036
10
140.42042869205522
20
28.589157175175224
42
0.41415806625251367
10
139.7796269241006
20
28.290358965364959
0
LWPOLYLINE
5
107
100
AcDbEntity
8
0
100
AcDbPolyline
90
8
70
1
43
0.0
10
18.408076768798409
20
-26.682350891223976
42
0.41416340772956112
10
18.706890237428553
20
-27.323152659178636
10
30.922910653958766
20
-31.76946212969731
42
0.41426859404086219
10
31.563811604242318
20
-31.470560922853217
10
36.010018077727111
20
-19.254536691618078
42
0.41415806625253415
10
35.711219867916881
20
-18.613734923663401
10
23.495199451386668
20
-14.167425453144702
42
0.41426859404080796
10
22.854298501103187
20
-14.466326659988802
0
LWPOLYLINE
5
108
100
AcDbEntity
8
0
100
AcDbPolyline
90
8
70
1
43
0.0
10
71.313586565500344
20
7.2773161140000475
42
0.4142352023296112
10
71.612392404720595
20
6.6364151637165136
10
83.828412821250851
20
2.1901095079027755
42
0.41426725815261034
10
84.469313771534303
20
2.4890069000419324
10
88.915627056757955
20
14.705034945982067
42
0.41419546274357982
10
88.616722035208895
20
15.345836713936727
10
76.400701618678653
20
19.792142369750447
42
0.41415806625249063
10
75.75989985072404
20
19.493344159940165
0
LWPOLYLINE
5
109
100
AcDbEntity
8
0
100
AcDbPolyline
90
8
70
1
43
0.0
10
115.78687797703535
20
-37.629173192362472
42
0.41423386689919012
10
116.08568000155057
20
-38.270074142646003
10
128.30170423278577
20
-42.716383613164687
42
0.41426859404081284
10
128.94260518306925
20
-42.417482406320573
10
133.38881356390661
20
-30.201458175085392
42
0.41415873392112085
10
133.09001344674385
20
-29.56065640713075
10
120.87398921550871
20
-25.114346936612062
42
0.41423386689919328
10
120.23308826522516
20
-25.413148961127305
0
LWPOLYLINE
5
110
100
AcDbEntity
8
0
100
AcDbPolyline
90
8
70
1
43
0.0
10
41.738827539819887
20
-18.280135160537565
42
0.41423520232958805
10
42.037633379040109
20
-18.921036110821081
10
54.253653795570358
20
-23.36734558133978
42
0.41426859404081767
10
54.894554745853839
20
-23.068444374495662
10
59.340761219338702
20
-10.852420143260488
42
0.4141580662525004
10
59.041963009528402
20
-10.211618375305846
10
46.825942592998224
20
-5.765305090082169
42
0.41423520232956856
10
46.185041642714708
20
-6.0641109293023909
0
LWPOLYLINE
5
111
100
AcDbEntity
8
0
100
AcDbPolyline
90
8
70
1
43
0.0
10
77.541199218257688
20
-31.311159661552868
42
0.41423520232961653
10
77.84000505747791
20
-31.952060611836394
10
90.056025474008123
20
-36.398270900026183
42
0.41423386689917191
10
90.696926424291604
20
-36.099468875510965
10
95.143136712481436
20
-23.883444644275809
42
0.41423386689918701
10
94.84433468796621
20
-23.242543693992275
10
82.628314271436025
20
-18.79633340580245
42
0.41423386689919328
10
81.987413321152474
20
-19.095135430317693
0
LWPOLYLINE
5
112
100
AcDbEntity
8
0
100
AcDbPolyline
90
8
70
1
43
0.0
10
128.81780520307422
20
-1.8267976992197532
42
0.4142331991908339
10
129.11660532023703
20
-2.4676986495032516
10
141.33273064115355
20
-6.9139127523980548
42
0.4141593050793182
10
141.9735305017557
20
-6.6151069131778328
10
146.41983997227436
20
5.6009135033523805
42
0.41426826006706807
10
146.12093971910653
20
6.2418144536358966
10
133.90491453419511
20
10.688020927120743
42
0.41415663438012695
10
133.26411467359293
20
10.389222717310478
0
LWPOLYLINE
5
113
100
AcDbEntity
8
0
100
AcDbPolyline
90
8
70
1
43
0.0
10
31.43900971689483
20
9.1200246019187681
42
0.41419279108959078
10
31.737907109033969
20
8.4792228339641085
10
43.953935154974069
20
4.0329095487404842
42
0.4141954627435665
10
44.59473692292871
20
4.3318145702895272
10
49.041042578742449
20
16.547834986819741
42
0.41415806625251367
10
48.742244368932184
20
17.188636754774382
10
36.526216322992084
20
21.634950039998024
42
0.41426992994734024
10
35.885315372708604
20
21.336045018448981
0
LWPOLYLINE
5
114
100
AcDbEntity
8
0
100
AcDbPolyline
90
8
70
1
43
0.0
10
116.61767875474408
20
20.352141057322619
42
0.41419412690742902
10
116.91657996158817
20
19.711339289367942
10
129.13260610017585
20
15.265033633554204
42
0.41419135918205513
10
129.77340596077798
20
15.563931025693361
10
134.21971543129672
20
27.779959071633513
42
0.41415873392108443
10
133.92091531413396
20
28.420760839588137
10
121.70488917554628
20
32.867066495401858
42
0.41426725815264326
10
121.06398822526276
20
32.568169103262733
0
LWPOLYLINE
5
115
100
AcDbEntity
8
0
100
AcDbPolyline
90
8
70
1
43
0.0
10
64.7980781296977
20
-10.623919316383326
42
0.41419279108960055
10
65.096975521836882
20
-11.264721084337967
10
77.313003567777017
20
-15.711030554856684
42
0.41415940159429204
10
77.953805335731658
20
-15.412228530341388
10
82.400110991545404
20
-3.1962004844012526
42
0.41423253148708283
10
82.101312781735089
20
-2.5552995341177365
10
69.885185553466044
20
1.8910061216960017
42
0.41419279108958718
10
69.244383785511417
20
1.592108729556827
0
LWPOLYLINE
5
116
100
AcDbEntity
8
0
100
AcDbPolyline
90
8
70
1
43
0.0
10
68.881284908959202
20
37.726878539059229
42
0.4142325314871157
10
69.180083118769488
20
37.085977588775719
10
81.396111164709623
20
32.639671932962017
42
0.41426725815263343
10
82.037012114993104
20
32.938569325101156
10
86.483218588477968
20
45.154597371041234
42
0.41415233879722396
10
86.18442037866771
20
45.795391509586011
10
73.968392332727575
20
50.241704794809685
42
0.41423253148708283
10
73.327491382444066
20
49.942906584999385
0
LWPOLYLINE
5
117
100
AcDbEntity
8
0
100
AcDbPolyline
90
8
70
1
43
0.0
10
48.254343605032481
20
-0.37899509777815865
42
0.41415806625251994
10
48.553141814842817
20
-1.0197968657328005
10
60.769169860782952
20
-5.4661101509564247
42
0.41426992994733042
10
61.410070811066433
20
-5.1672051294073995
10
65.856277284551297
20
7.0488152871228138
42
0.41415806625249063
10
65.557479074741025
20
7.6896170550774734
10
53.341451028800897
20
12.135930340301133
42
0.41426992994735001
10
52.700550078517345
20
11.837025318752072
0
LWPOLYLINE
5
118
100
AcDbEntity
8
0
100
AcDbPolyline
90
8
70
1
43
0.0
10
32.520509089621044
20
67.623240080778288
42
0.4142038265482586
10
32.458909233988038
20
66.918831922383674
10
40.815226434641261
20
56.960216569562192
42
0.41419753037636503
10
41.519626963625917
20
56.898616713929293
10
51.47815076352849
20
65.254933914582551
42
0.41421099011234158
10
51.539849801490298
20
65.959342072977094
10
43.183532600837005
20
75.917858243469709
42
0.41420414245719828
10
42.479132071852419
20
75.979549652021632
0
LWPOLYLINE
5
119
100
AcDbEntity
8
0
100
AcDbPolyline
90
8
70
1
43
0.0
10
90.572124536944116
20
4.4912082021799726
42
0.41426992994736689
10
90.871029558493177
20
3.8503072518964387
10
103.08705378972839
20
-0.59589922158842523
42
0.41415806625249063
10
103.727855557683
20
-0.29710101177814252
10
108.17416502820168
20
11.918927034162028
42
0.41423386689915676
10
107.87536300368643
20
12.559827984445509
10
95.659338772451264
20
17.006034457930355
42
0.41423253148708283
10
95.018437822167783
20
16.70723624812009
0
LWPOLYLINE
5
120
100
AcDbEntity
8
0
100
AcDbPolyline
90
8
70
1
43
0.0
10
110.10226568656527
20
2.4510048092681203
42
0.41423386689919678
10
110.40106771108054
20
1.8101038589846041
10
122.61709194231574
20
-2.6361026145002597
42
0.41423253148707301
10
123.25799289259926
20
-2.3373044046899771
10
127.70420318078905
20
9.8787236412501933
42
0.41423386689915676
10
127.4054011562738
20
10.519624591533674
10
115.18937692503862
20
14.965831065018573
42
0.41423253148708283
10
114.54847597475509
20
14.667032855208273
0
LWPOLYLINE
5
121
100
AcDbEntity
8
0
100
AcDbPolyline
90
8
70
1
43
0.0
10
48.670543174575194
20
50.287603324842806
42
0.41424151926434521
10
48.793346156525637
20
49.5912060468563
10
59.442362071142547
20
42.134686192454836
42
0.41416682876079719
10
60.138667796210008
20
42.257489174405279
10
67.595180021201571
20
52.906512718432062
42
0.41415950759008308
10
67.47238466866105
20
53.602810814089707
10
56.823361124634282
20
61.059323039081264
42
0.41416682876082878
10
56.127055399566714
20
60.936520057130821
0
LWPOLYLINE
5
122
100
AcDbEntity
8
0
100
AcDbPolyline
90
8
70
1
43
0.0
10
24.923592834011075
20
-8.7811154608406383
42
0.41423253148711925
10
25.222391043821375
20
-9.4220164111241722
10
37.43841908976151
20
-13.868226699313979
42
0.41423386689917013
10
38.07932004004499
20
-13.569424674798753
10
42.525534142939776
20
-1.3534004435636149
42
0.41423520232958538
10
42.226728303719625
20
-0.712499493280081
10
30.010700257779419
20
3.7337069802047829
42
0.41423253148708283
10
29.369799307495938
20
3.434908770394518
0
LWPOLYLINE
5
123
100
AcDbEntity
8
0
100
AcDbPolyline
90
8
70
1
43
0.0
10
97.071241185550008
20
-33.351363054464677
42
0.41423386689919012
10
97.370043210065234
20
-33.992264004748208
10
109.5860674413004
20
-38.438474292938011
42
0.41423386689919328
10
110.22696839158392
20
-38.1396722684228
10
114.67317486506883
20
-25.923648037187625
42
0.41423253148708283
10
114.37437665525852
20
-25.282747086904109
10
102.15835242402335
20
-20.836540613419263
42
0.41415806625250395
10
101.51755065606871
20
-21.13533882322951
0
LWPOLYLINE
5
124
100
AcDbEntity
8
0
100
AcDbPolyline
90
8
70
1
43
0.0
10
35.22331910401725
20
-36.181370590920864
42
0.41415806625253415
10
35.522117313827479
20
-36.822172358875548
10
47.738137730357657
20
-41.268479922041763
42
0.41423892792830069
10
48.37904631005113
20
-40.969679804878993
10
52.825252783535994
20
-28.753655573643819
42
0.41423253148706457
10
52.526454573725729
20
-28.11275462336031
10
40.31042652778563
20
-23.666445152841593
42
0.41419412690743884
10
39.669624759830917
20
-23.965346359685711
0
LWPOLYLINE
5
125
100
AcDbEntity
8
0
100
AcDbPolyline
90
8
70
1
43
0.0
10
12.965469360750603
20
75.062250439430642
42
0.4141762955153816
10
13.31907725137178
20
74.449959776318764
10
25.876094143937891
20
71.085252675560071
42
0.41424660122940959
10
26.488491618788643
20
71.438845307361376
10
29.853107166628376
20
83.99587745874733
42
0.41420867924493504
10
29.499606087746031
20
84.60827493359804
10
16.942482383441089
20
87.972875222618001
42
0.41414299985664932
10
16.330176461509325
20
87.619374143735598
0
LWPOLYLINE
5
126
100
AcDbEntity
8
0
100
AcDbPolyline
90
8
70
1
43
0.0
10
84.056616101141444
20
-13.410023413498404
42
0.41419279108959078
10
84.355513493280583
20
-14.050825181453064
10
96.571541539220718
20
-18.497134651971763
42
0.41419126309538357
10
97.212339492470434
20
-18.198233445127645
10
101.65864896298913
20
-5.9822092138924532
42
0.4141580662525004
10
101.35985075317883
20
-5.3414074459378114
10
89.143822707238698
20
-0.89510179012405544
42
0.41426725815263349
10
88.502921756955175
20
-1.1939991822632301
0
LWPOLYLINE
5
127
100
AcDbEntity
8
0
100
AcDbPolyline
90
8
70
1
43
0.0
10
122.30239022754301
20
-19.728036944308016
42
0.41415940159430892
10
122.60119225205824
20
-20.368838712262676
10
134.81721648329341
20
-24.815148182781375
42
0.41423386689917013
10
135.45811743357692
20
-24.516346158266114
10
139.90432772176675
20
-12.300321927030939
42
0.41423386689918346
10
139.60552569725152
20
-11.659420976747423
10
127.38950146601636
20
-7.2131115062287243
42
0.41426859404083105
10
126.74860051573279
20
-7.512012713072842
0
LWPOLYLINE
5
128
100
AcDbEntity
8
0
100
AcDbPolyline
90
8
70
1
43
0.0
10
103.58675343605768
20
-15.450226806410239
42
0.41415940159430892
10
103.8855554605729
20
-16.091028574364898
10
116.10157969180811
20
-20.53733804488358
42
0.41426859404080796
10
116.74248064209159
20
-20.23843683803948
10
121.18869093028141
20
-8.0224126068043233
42
0.41415940159431869
10
120.88988890576618
20
-7.381610838849646
10
108.67386467453102
20
-2.9353051830359078
42
0.41426725815265658
10
108.03296372424747
20
-3.2342025751750647
0
LWPOLYLINE
5
129
100
AcDbEntity
8
0
100
AcDbPolyline
90
8
70
1
43
0.0
10
37.954518152697574
20
27.021260032302088
42
0.41426992994729134
10
38.253423174246564
20
26.380359082018572
10
50.469443590776741
20
21.934144979123751
42
0.41416073695444816
10
51.110245358731454
20
22.232950818343991
10
55.556558643955114
20
34.448971234874186
42
0.4142352023295916
10
55.257752804734892
20
35.089872185157716
10
43.041633205875769
20
39.536086288052452
42
0.41416073695442501
10
42.400831437921198
20
39.237280448832301
0
LWPOLYLINE
5
130
100
AcDbEntity
8
0
100
AcDbPolyline
90
8
70
1
43
0.0
10
51.767045999272483
20
-46.42629099482108
42
0.41419546274357488
10
52.065951020821544
20
-47.067092762775729
10
64.281971437351785
20
-51.513400325941923
42
0.41415873392111108
10
64.922773205306399
20
-51.214600208779181
10
69.369086490530094
20
-38.99847488786267
42
0.4141593050793213
10
69.070280651309872
20
-38.357675027260491
10
56.854260234779659
20
-33.911365556741799
42
0.41426859404083904
10
56.213359284496143
20
-34.210266763585906
0
LWPOLYLINE
5
131
100
AcDbEntity
8
0
100
AcDbPolyline
90
8
70
1
43
0.0
10
88.627624461973795
20
-41.784580892330254
10
84.181417988488917
20
-54.000605123565435
42
-0.41423386689919328
10
83.54051703820538
20
-54.299407148080682
10
71.324488992265259
20
-49.853196859890843
42
-0.41423253148706818
10
71.025690782454973
20
-49.212295909607334
10
75.471996438268718
20
-36.996271678372167
42
-0.41415940159429382
10
76.11279820622336
20
-36.697469653856878
10
88.328826252163495
20
-41.143781031728082
42
-0.41415663438012207
0
LWPOLYLINE
5
132
100
AcDbEntity
8
0
100
AcDbPolyline
90
8
70
1
43
0.0
10
70.797487502564394
20
-33.612166802911105
42
0.41415940159431514
10
71.438289270519022
20
-33.313364778395858
10
75.884594926332795
20
-21.097340547160677
42
0.41423253148710243
10
75.585796716522466
20
-20.456439596877161
10
63.369669488253493
20
-16.010229308687336
42
0.41415367413359172
10
62.728875349708737
20
-16.309031333202597
10
58.282562064485077
20
-28.525055564437771
42
0.41426725815262855
10
58.581459456624252
20
-29.16595651472128
0
LWPOLYLINE
5
133
100
AcDbEntity
8
0
100
AcDbPolyline
90
8
70
1
43
0.0
10
59.856867911684617
20
30.037066588355614
42
0.41416073695442501
10
59.216066143729975
20
29.738260749135392
10
54.769752858506351
20
17.522240332605161
42
0.41426992994733397
10
55.068657880055376
20
16.881339382321663
10
67.284678296585582
20
12.435026097098039
42
0.4141954627435665
10
67.925480064540238
20
12.733931118647082
10
72.371793349763863
20
24.949951535177313
42
0.41416073695443217
10
72.072987510543697
20
25.590753303131955
0
LWPOLYLINE
5
134
100
AcDbEntity
8
0
100
AcDbPolyline
90
8
70
1
43
0.0
10
-97.386578160218562
20
21.751550311689662
42
0.41418839930613111
10
-97.087676953374427
20
22.3923444502344
10
-101.53398642389313
20
34.608372496174539
42
0.41419279108959078
10
-102.17478819184777
20
34.907269888313692
10
-114.39081242308298
20
30.460964232499954
42
0.41419412690746282
10
-114.68971362992704
20
29.820162464545277
10
-110.24340415940834
20
17.604142048015081
42
0.41419546274354696
10
-109.6026023914537
20
17.305237026466003
0
LWPOLYLINE
5
135
100
AcDbEntity
8
0
100
AcDbPolyline
90
8
70
1
43
0.0
10
-135.63215582931485
20
15.433536780880051
42
0.41415940159430892
10
-135.33335380479963
20
16.07433854883471
10
-139.77966327531831
20
28.290358965364923
42
0.41415806625251367
10
-140.42046504327294
20
28.589157175175188
10
-152.63648927450811
20
24.142950701690324
42
0.41426842705383832
10
-152.93539000451409
20
23.502049751406808
10
-148.48908101083353
20
11.286029334876595
42
0.41416073695440281
10
-147.8482792428789
20
10.987223495656391
0
LWPOLYLINE
5
136
100
AcDbEntity
8
0
100
AcDbPolyline
90
8
70
1
43
0.0
10
-18.706926588646269
20
-27.323152659178636
42
0.41416340772956112
10
-18.408113120016125
20
-26.682350891223976
10
-22.854334852320903
20
-14.46632665998882
42
0.41426859404081767
10
-23.495235802604384
20
-14.167425453144702
10
-35.711256219134597
20
-18.613734923663401
42
0.41415806625252444
10
-36.010054428944827
20
-19.25453669161806
10
-31.563847955460034
20
-31.470560922853224
42
0.41426859404085908
10
-30.922947005176482
20
-31.769462129697299
0
LWPOLYLINE
5
137
100
AcDbEntity
8
0
100
AcDbPolyline
90
8
70
1
43
0.0
10
-71.612428755938353
20
6.6364151637164959
42
0.41423520232960853
10
-71.313622916718131
20
7.277316114000012
10
-75.759936201941755
20
19.493344159940147
42
0.41415806625251017
10
-76.400737969896397
20
19.79214236975043
10
-88.616758386426611
20
15.345836713936709
42
0.41419546274357982
10
-88.915663407975671
20
14.70503494598205
10
-84.469350122751976
20
2.4890069000419146
42
0.41426725815259435
10
-83.828449172468567
20
2.1901095079027755
0
LWPOLYLINE
5
138
100
AcDbEntity
8
0
100
AcDbPolyline
90
8
70
1
43
0.0
10
-116.08571635276824
20
-38.270074142646024
42
0.41423386689921682
10
-115.78691432825302
20
-37.629173192362487
10
-120.23312461644281
20
-25.413148961127305
42
0.41423386689921993
10
-120.87402556672643
20
-25.114346936612062
10
-133.09004979796151
20
-29.560656407130772
42
0.41415873392114044
10
-133.3888499151243
20
-30.201458175085413
10
-128.94264153428693
20
-42.417482406320602
42
0.41426859404081284
10
-128.30174058400345
20
-42.716383613164709
0
LWPOLYLINE
5
139
100
AcDbEntity
8
0
100
AcDbPolyline
90
8
70
1
43
0.0
10
-42.037669730257861
20
-18.921036110821099
42
0.41423520232960853
10
-41.738863891037639
20
-18.280135160537583
10
-46.185077993932424
20
-6.0641109293024087
42
0.41423520232955874
10
-46.825978944215905
20
-5.765305090082169
10
-59.041999360746118
20
-10.211618375305864
42
0.4141580662525004
10
-59.340797570556418
20
-10.852420143260506
10
-54.894591097071554
20
-23.068444374495662
42
0.41426859404081767
10
-54.253690146788074
20
-23.36734558133978
0
LWPOLYLINE
5
140
100
AcDbEntity
8
0
100
AcDbPolyline
90
8
70
1
43
0.0
10
-77.840041408695626
20
-31.952060611836409
42
0.41423520232961653
10
-77.541235569475404
20
-31.311159661552885
10
-81.987449672370118
20
-19.095135430317711
42
0.41423386689918085
10
-82.62835062265367
20
-18.796333405802468
10
-94.844371039183883
20
-23.242543693992292
42
0.41423386689920394
10
-95.143173063699109
20
-23.883444644275809
10
-90.69696277550932
20
-36.099468875510979
42
0.41423386689917013
10
-90.056061825225839
20
-36.398270900026205
0
LWPOLYLINE
5
141
100
AcDbEntity
8
0
100
AcDbPolyline
90
8
70
1
43
0.0
10
-129.11664167145466
20
-2.4676986495032693
42
0.41423319919084817
10
-128.81784155429193
20
-1.826797699219771
10
-133.26415102481064
20
10.38922271731046
42
0.41415663438013406
10
-133.90495088541286
20
10.688020927120725
10
-146.12097607032425
20
6.2418144536358611
42
0.41426826006706807
10
-146.41987632349208
20
5.6009135033523449
10
-141.97356685297336
20
-6.6151069131778684
42
0.41415930507929871
10
-141.33276699237121
20
-6.9139127523980903
0
LWPOLYLINE
5
142
100
AcDbEntity
8
0
100
AcDbPolyline
90
8
70
1
43
0.0
10
-31.737943460251614
20
8.4792228339641085
42
0.41419279108959078
10
-31.439046068112475
20
9.1200246019187681
10
-35.885351723926249
20
21.336045018448981
42
0.41426992994734024
10
-36.526252674209729
20
21.634950039998024
10
-48.742280720149935
20
17.188636754774382
42
0.41415806625252083
10
-49.041078929960165
20
16.547834986819741
10
-44.594773274146462
20
4.3318145702895272
42
0.4141954627435932
10
-43.953971506191749
20
4.0329095487404842
0
LWPOLYLINE
5
143
100
AcDbEntity
8
0
100
AcDbPolyline
90
8
70
1
43
0.0
10
-116.91661631280589
20
19.711339289367924
42
0.41419412690744856
10
-116.61771510596175
20
20.352141057322601
10
-121.06402457648052
20
32.568169103262733
42
0.41426725815261389
10
-121.704925526764
20
32.867066495401843
10
-133.92095166535165
20
28.420760839588119
42
0.4141587339210871
10
-134.21975178251444
20
27.779959071633478
10
-129.77344231199572
20
15.563931025693343
42
0.41419135918204264
10
-129.13264245139359
20
15.265033633554186
0
LWPOLYLINE
5
144
100
AcDbEntity
8
0
100
AcDbPolyline
90
8
70
1
43
0.0
10
-65.097011873054598
20
-11.264721084337967
42
0.41419279108962009
10
-64.798114480915388
20
-10.623919316383326
10
-69.24442013672909
20
1.592108729556827
42
0.41419279108959078
10
-69.885221904683732
20
1.8910061216959839
10
-82.101349132952777
20
-2.5552995341177542
42
0.41423253148710953
10
-82.400147342763077
20
-3.1962004844012704
10
-77.953841686949303
20
-15.412228530341405
42
0.41415940159429554
10
-77.313039918994662
20
-15.711030554856684
0
LWPOLYLINE
5
145
100
AcDbEntity
8
0
100
AcDbPolyline
90
8
70
1
43
0.0
10
-69.180119469987176
20
37.085977588775719
42
0.4142325314871157
10
-68.881321260176875
20
37.726878539059229
10
-73.327527733661739
20
49.942906584999363
42
0.41423253148708994
10
-73.968428683945291
20
50.241704794809664
10
-86.184456729885355
20
45.79539150958599
42
0.41415233879723379
10
-86.483254939695655
20
45.154597371041234
10
-82.037048466210862
20
32.938569325101135
42
0.41426725815267257
10
-81.396147515927311
20
32.639671932961996
0
LWPOLYLINE
5
146
100
AcDbEntity
8
0
100
AcDbPolyline
90
8
70
1
43
0.0
10
-48.553178166060533
20
-1.0197968657328005
42
0.41415806625251461
10
-48.254379956250304
20
-0.37899509777815865
10
-52.700586429735026
20
11.837025318752072
42
0.41426992994733758
10
-53.341487380018577
20
12.135930340301133
10
-65.557515425958712
20
7.6896170550774734
42
0.41415806625251017
10
-65.856313635769013
20
7.0488152871228138
10
-61.410107162284149
20
-5.1672051294074173
42
0.414269929947366
10
-60.769206212000597
20
-5.4661101509564602
0
LWPOLYLINE
5
147
100
AcDbEntity
8
0
100
AcDbPolyline
90
8
70
1
43
0.0
10
-32.458945585205683
20
66.918831922383674
42
0.4142038265482586
10
-32.520545440838688
20
67.623240080778288
10
-42.479168423070064
20
75.979549652021632
42
0.41420414245723014
10
-43.183568952054685
20
75.917858243469681
10
-51.539886152707979
20
65.959342072977051
42
0.41421099011235751
10
-51.478187114746135
20
65.254933914582523
10
-41.519663314843598
20
56.898616713929293
42
0.41419753037636758
10
-40.815262785858977
20
56.960216569562228
0
LWPOLYLINE
5
148
100
AcDbEntity
8
0
100
AcDbPolyline
90
8
70
1
43
0.0
10
-90.871065909710893
20
3.850307251896421
42
0.41426992994739359
10
-90.572160888161832
20
4.4912082021799549
10
-95.018474173385457
20
16.707236248120072
42
0.41423253148712191
10
-95.659375123669008
20
17.006034457930337
10
-107.87539935490408
20
12.559827984445491
42
0.41423386689917635
10
-108.17420137941937
20
11.91892703416201
10
-103.72789190890074
20
-0.29710101177816028
42
0.41415806625251017
10
-103.0870901409461
20
-0.59589922158844288
0
LWPOLYLINE
5
149
100
AcDbEntity
8
0
100
AcDbPolyline
90
8
70
1
43
0.0
10
-110.40110406229822
20
1.8101038589845864
42
0.41423386689918967
10
-110.10230203778292
20
2.4510048092681025
10
-114.54851232597278
20
14.667032855208255
42
0.41423253148708994
10
-115.18941327625633
20
14.965831065018556
10
-127.40543750749147
20
10.519624591533656
42
0.41423386689917635
10
-127.70423953200677
20
9.8787236412501755
10
-123.25802924381698
20
-2.3373044046899771
42
0.41423253148708633
10
-122.61712829353343
20
-2.6361026145002953
0
LWPOLYLINE
5
150
100
AcDbEntity
8
0
100
AcDbPolyline
90
8
70
1
43
0.0
10
-48.793382507743388
20
49.5912060468563
42
0.41424151926434521
10
-48.670579525792945
20
50.287603324842806
10
-56.12709175078443
20
60.936520057130785
42
0.41416682876081173
10
-56.823397475851962
20
61.059323039081228
10
-67.472421019878723
20
53.602810814089672
42
0.41415950759006603
10
-67.595216372419245
20
52.906512718432062
10
-60.138704147427759
20
42.257489174405265
42
0.41416682876082622
10
-59.442398422360228
20
42.134686192454822
0
LWPOLYLINE
5
151
100
AcDbEntity
8
0
100
AcDbPolyline
90
8
70
1
43
0.0
10
-25.222427395039091
20
-9.4220164111241722
42
0.41423253148711925
10
-24.923629185228791
20
-8.7811154608406383
10
-29.369835658713583
20
3.434908770394518
42
0.41423253148708283
10
-30.010736608997064
20
3.7337069802047829
10
-42.226764654937341
20
-0.71249949328008089
42
0.41423520232958988
10
-42.525570494157421
20
-1.3534004435635971
10
-38.079356391262706
20
-13.569424674798753
42
0.41423386689917013
10
-37.438455440979226
20
-13.868226699313979
0
LWPOLYLINE
5
152
100
AcDbEntity
8
0
100
AcDbPolyline
90
8
70
1
43
0.0
10
-97.370079561282949
20
-33.992264004748229
42
0.41423386689921682
10
-97.071277536767724
20
-33.351363054464692
10
-101.51758700728635
20
-21.135338823229546
42
0.41415806625254925
10
-102.15838877524106
20
-20.836540613419263
10
-114.3744130064762
20
-25.282747086904127
42
0.41423253148710953
10
-114.6732112162865
20
-25.923648037187643
10
-110.22700474280157
20
-38.139672268422814
42
0.41423386689917369
10
-109.58610379251809
20
-38.438474292938025
0
LWPOLYLINE
5
153
100
AcDbEntity
8
0
100
AcDbPolyline
90
8
70
1
43
0.0
10
-35.522153665045195
20
-36.822172358875548
42
0.41415806625253415
10
-35.223355455234966
20
-36.181370590920864
10
-39.669661111048597
20
-23.965346359685729
42
0.41419412690744856
10
-40.31046287900331
20
-23.666445152841593
10
-52.526490924943445
20
-28.112754623360303
42
0.41423253148707834
10
-52.825289134753675
20
-28.753655573643826
10
-48.379082661268811
20
-40.969679804879
42
0.41423892792828826
10
-47.738174081575337
20
-41.26847992204177
0
LWPOLYLINE
5
154
100
AcDbEntity
8
0
100
AcDbPolyline
90
8
70
1
43
0.0
10
-13.319113602589425
20
74.449959776318792
42
0.4141762955153816
10
-12.965505711968248
20
75.062250439430684
10
-16.33021281272697
20
87.619374143735627
42
0.4141429998566547
10
-16.942518734658734
20
87.972875222618001
10
-29.499642438963676
20
84.608274933598082
42
0.41420867924493504
10
-29.853143517846021
20
83.995877458747373
10
-26.488527970006288
20
71.438845307361419
42
0.41424660122940421
10
-25.876130495155536
20
71.085252675560071
0
LWPOLYLINE
5
155
100
AcDbEntity
8
0
100
AcDbPolyline
90
8
70
1
43
0.0
10
-84.355549844498299
20
-14.050825181453082
42
0.41419279108959078
10
-84.05665245235916
20
-13.410023413498422
10
-88.502958108172862
20
-1.1939991822632479
42
0.41426725815260501
10
-89.143859058456343
20
-0.89510179012409097
10
-101.35988710439655
20
-5.3414074459378291
42
0.4141580662525004
10
-101.65868531420685
20
-5.982209213892471
10
-97.21237584368815
20
-18.198233445127663
42
0.41419126309541027
10
-96.571577890438363
20
-18.497134651971781
0
LWPOLYLINE
5
156
100
AcDbEntity
8
0
100
AcDbPolyline
90
8
70
1
43
0.0
10
-122.60122860327591
20
-20.368838712262693
42
0.41415940159430892
10
-122.30242657876069
20
-19.728036944308034
10
-126.74863686695041
20
-7.5120127130728775
42
0.41426859404086391
10
-127.38953781723403
20
-7.2131115062287243
10
-139.60556204846915
20
-11.659420976747441
42
0.41423386689919944
10
-139.90436407298446
20
-12.300321927030975
10
-135.45815378479466
20
-24.516346158266149
42
0.41423386689918085
10
-134.81725283451112
20
-24.815148182781392
0
LWPOLYLINE
5
157
100
AcDbEntity
8
0
100
AcDbPolyline
90
8
70
1
43
0.0
10
-103.88559181179062
20
-16.091028574364916
42
0.41415940159430892
10
-103.58678978727539
20
-15.450226806410257
10
-108.03300007546511
20
-3.2342025751750825
42
0.41426725815268323
10
-108.67390102574873
20
-2.9353051830359256
10
-120.88992525698387
20
-7.381610838849646
42
0.41415940159431869
10
-121.1887272814991
20
-8.0224126068043233
10
-116.74251699330924
20
-20.23843683803948
42
0.41426859404081767
10
-116.10161604302576
20
-20.537338044883597
0
LWPOLYLINE
5
158
100
AcDbEntity
8
0
100
AcDbPolyline
90
8
70
1
43
0.0
10
-38.253459525464208
20
26.380359082018572
42
0.41426992994729134
10
-37.954554503915219
20
27.021260032302088
10
-42.400867789138843
20
39.237280448832301
42
0.41416073695445166
10
-43.041669557093485
20
39.536086288052452
10
-55.257789155952608
20
35.089872185157716
42
0.41423520232960853
10
-55.55659499517283
20
34.448971234874207
10
-51.110281709949135
20
22.232950818343991
42
0.41416073695444816
10
-50.469479941994422
20
21.934144979123751
0
LWPOLYLINE
5
159
100
AcDbEntity
8
0
100
AcDbPolyline
90
8
70
1
43
0.0
10
-52.06598737203926
20
-47.067092762775744
42
0.41419546274357671
10
-51.767082350490199
20
-46.42629099482108
10
-56.213395635713823
20
-34.210266763585906
42
0.41426859404081634
10
-56.854296585997304
20
-33.911365556741814
10
-69.070317002527517
20
-38.357675027260498
42
0.41415930507933379
10
-69.36912284174781
20
-38.998474887862677
10
-64.922809556524115
20
-51.214600208779189
42
0.41415873392111818
10
-64.282007788569473
20
-51.51340032594193
0
LWPOLYLINE
5
160
100
AcDbEntity
8
0
100
AcDbPolyline
90
8
70
1
43
0.0
10
-84.181454339706647
20
-54.00060512356545
10
-88.627660813191511
20
-41.784580892330268
42
-0.41415663438012207
10
-88.328862603381211
20
-41.143781031728103
10
-76.112834557441019
20
-36.697469653856899
42
-0.41415940159429604
10
-75.472032789486363
20
-36.996271678372175
10
-71.025727133672675
20
-49.212295909607349
42
-0.41423253148705619
10
-71.324525343482961
20
-49.853196859890865
10
-83.540553389423081
20
-54.299407148080732
42
-0.41423386689918085
0
LWPOLYLINE
5
161
100
AcDbEntity
8
0
100
AcDbPolyline
90
8
70
1
43
0.0
10
-71.43832562173678
20
-33.313364778395865
42
0.4141594015943027
10
-70.797523853782138
20
-33.612166802911112
10
-58.581495807841932
20
-29.16595651472128
42
0.41426725815262455
10
-58.282598415702722
20
-28.525055564437771
10
-62.728911700926417
20
-16.309031333202615
42
0.41415367413359888
10
-63.369705839471209
20
-16.010229308687354
10
-75.585833067740111
20
-20.456439596877178
42
0.41423253148709527
10
-75.884631277550483
20
-21.097340547160695
0
LWPOLYLINE
5
162
100
AcDbEntity
8
0
100
AcDbPolyline
90
8
70
1
43
0.0
10
-59.21610249494762
20
29.738260749135375
42
0.41416073695445166
10
-59.856904262902333
20
30.037066588355597
10
-72.073023861761385
20
25.590753303131937
42
0.41416073695441791
10
-72.371829700981607
20
24.949951535177295
10
-67.925516415757983
20
12.733931118647082
42
0.41419546274358604
10
-67.28471464780327
20
12.435026097098003
10
-55.068694231273057
20
16.881339382321663
42
0.41426992994733663
10
-54.769789209723996
20
17.522240332605179
0
LWPOLYLINE
5
163
100
AcDbEntity
8
0
100
AcDbPolyline
90
2
70
1
43
0.0
10
-0.00069752659918265181
20
4.4389762844481506
42
0.99999820784656257
10
-0.00069752659918265202
20
68.438976284345401
42
0.99995574939227139
0
LWPOLYLINE
5
164
100
AcDbEntity
8
0
100
AcDbPolyline
90
8
70
1
43
0.0
10
-6.4992908936097393
20
89.349083441441365
10
6.4992545423920944
20
89.349083441441365
42
-0.41421356237309503
10
6.9992555504128973
20
88.849082433420563
10
6.9992555504128973
20
75.849056224879448
42
-0.41421356237309503
10
6.4992545423920944
20
75.349055216858645
10
-6.4992908936097393
20
75.349055216858687
42
-0.41421356237309503
10
-6.9992919016305422
20
75.84905622487949
10
-6.9992919016305422
20
88.849082433420563
42
-0.41421356237309503
0
ENDSEC
0
SECTION
2
OBJECTS
0
DICTIONARY
5
C
100
AcDbDictionary
3
ACAD_GROUP
350
D
3
ACAD_MLINESTYLE
350
17
0
DICTIONARY
5
D
100
AcDbDictionary
0
DICTIONARY
5
1A
330
C
100
AcDbDictionary
0
DICTIONARY
5
17
100
AcDbDictionary
0
ENDSEC
0
EOF
