0
SECTION
2
HEADER
9
$INSUNITS
70
4
9
$ACADVER
1
AC1014
9
$HANDSEED
5
FFFF
0
ENDSEC
0
SECTION
2
TABLES
0
TABLE
2
VPORT
5
8
100
AcDbSymbolTable
0
ENDTAB
0
TABLE
2
LTYPE
5
5
100
AcDbSymbolTable
0
LTYPE
5
14
100
AcDbSymbolTableRecord
100
AcDbLinetypeTableRecord
2
BYBLOCK
70
0
0
LTYPE
5
15
100
AcDbSymbolTableRecord
100
AcDbLinetypeTableRecord
2
BYLAYER
70
0
0
ENDTAB
0
TABLE
2
LAYER
5
2
100
AcDbSymbolTable
70
2
0
LAYER
5
50
100
AcDbSymbolTableRecord
100
AcDbLayerTableRecord
2
0
70
0
6
CONTINUOUS
0
ENDTAB
0
TABLE
2
STYLE
5
3
100
AcDbSymbolTable
70
1
0
STYLE
5
11
100
AcDbSymbolTableRecord
100
AcDbTextStyleTableRecord
2
STANDARD
70
0
0
ENDTAB
0
TABLE
2
VIEW
5
6
100
AcDbSymbolTable
70
0
0
ENDTAB
0
TABLE
2
UCS
5
7
100
AcDbSymbolTable
70
0
0
ENDTAB
0
TABLE
2
APPID
5
9
100
AcDbSymbolTable
70
2
0
APPID
5
12
100
AcDbSymbolTableRecord
100
AcDbRegAppTableRecord
2
ACAD
70
0
0
ENDTAB
0
TABLE
2
DIMSTYLE
5
A
100
AcDbSymbolTable
70
1
0
ENDTAB
0
TABLE
2
BLOCK_RECORD
5
1
100
AcDbSymbolTable
70
1
0
BLOCK_RECORD
5
1F
100
AcDbSymbolTableRecord
100
AcDbBlockTableRecord
2
*MODEL_SPACE
0
BLOCK_RECORD
5
1B
100
AcDbSymbolTableRecord
100
AcDbBlockTableRecord
2
*PAPER_SPACE
0
ENDTAB
0
ENDSEC
0
SECTION
2
BLOCKS
0
BLOCK
5
20
100
AcDbEntity
100
AcDbBlockBegin
2
*MODEL_SPACE
0
ENDBLK
5
21
100
AcDbEntity
100
AcDbBlockEnd
0
BLOCK
5
1C
100
AcDbEntity
100
AcDbBlockBegin
2
*PAPER_SPACE
0
ENDBLK
5
1D
100
AcDbEntity
100
AcDbBlockEnd
0
ENDSEC
0
SECTION
2
ENTITIES
0
LWPOLYLINE
5
100
100
AcDbEntity
8
0
100
AcDbPolyline
90
86
70
1
43
0.0
10
-21.000000342726707
20
-55.000000819563866
10
21.000000342726707
20
-55.000000819563866
42
-0.41421356237309503
10
23.000000342726707
20
-57.000000819563866
10
23.000000342726707
20
-63.156829082655996
42
0.41421356237309503
10
25.000000342726707
20
-65.156829082656003
10
27.49999726854
20
-65.156829082656003
42
-0.4142135623730957
10
29.499997268540007
20
-67.156829082656003
10
29.499998088103872
20
-90.000007898989693
42
0.41421356237309631
10
31.499997268540021
20
-92.000007898989679
10
49.800014797212278
20
-92.000007898989679
42
-0.41421356237309764
10
51.800014797212299
20
-94.000007898989679
10
51.800014797212306
20
-96.000007898989693
42
0.41421356237309503
10
53.800014797212306
20
-98.000007898989679
10
129.79916993370352
20
-98.000007898989679
42
0.41421356237309503
10
131.79916993370352
20
-96.000007898989693
10
131.79916993370352
20
-95.000007898989679
42
-0.41421356237309503
10
133.79916993370352
20
-93.000007898989679
10
137.56707414100322
20
-93.000007898989679
42
0.33946267691085097
10
139.49894158760975
20
-91.517587533303143
10
140.72977272742867
20
-86.923508352506843
42
-0.41421356237309503
10
143.17921976975978
20
-85.509220833359677
10
144.14515341012913
20
-85.768010714155594
42
0.41421356237309503
10
146.59460045246021
20
-84.353723195008428
10
166.26263112527386
20
-10.942767526040669
42
0.41421356237309742
10
164.84834360612666
20
-8.4933204837095655
10
163.88240996575718
20
-8.2345306029136278
42
-0.41421356237309498
10
162.46812244660998
20
-5.7850835605825264
10
163.75901933651966
20
-0.96680887234138702
42
0.41463599209681329
10
162.34194530957842
20
1.4833827472560617
10
158.47849845832073
20
2.5124963034767864
42
-0.41421356237309581
10
157.06068018615105
20
4.9599013265781426
10
157.71950539054836
20
7.4332300919725602
42
0.4142135623730977
10
156.30168711837868
20
9.8806351150739147
10
82.854342586748686
20
29.444941506738417
42
0.41421356237309681
10
80.406937563647318
20
28.02712323456873
10
79.939217075552122
20
26.271198263891321
42
-0.4393612377930689
10
77.21537124147028
20
25.148450260273904
42
-0.045190167791541933
10
57.571004088472435
20
36.587008756542758
42
0.010623312553464687
10
47.456623343977391
20
43.345650996025483
42
0.026196730410749568
10
42.901148238588227
20
45.92649494824434
42
0.059255729317855971
10
21.551208207434279
20
53.591752292537045
42
-0.34937544193070202
10
19.999999999999996
20
55.540748425659331
10
19.999999999999986
20
60.040983701564627
42
0.41421356237309537
10
17.999999999999982
20
62.040983701564627
10
-17.999999999999982
20
62.040983701564642
42
0.41421356237309537
10
-19.999999999999986
20
60.040983701564627
10
-20
20
55.540748425659331
42
-0.34937544193070164
10
-21.551208207434271
20
53.591752292537024
42
0.059255729317855971
10
-42.90114823858822
20
45.926494948244326
42
0.026196730410749831
10
-47.456623343977427
20
43.345650996025462
42
0.010623312553464687
10
-57.571004088472492
20
36.587008756542659
42
-0.045190167791542155
10
-77.21537124147045
20
25.148450260273837
42
-0.43936135108374724
10
-79.939217337385628
20
26.271198977021356
10
-80.406937563647318
20
28.02712323456873
42
0.41421356237309692
10
-82.854342586748686
20
29.444941506738409
10
-156.30168711837868
20
9.8806351150739058
42
0.41421356237309698
10
-157.71950539054839
20
7.433230091972554
10
-157.06068018615105
20
4.9599013265781426
42
-0.41421356237309559
10
-158.47849845832073
20
2.512496303476782
10
-162.34194530957842
20
1.4833827472560506
42
0.41463599209681318
10
-163.75901933651966
20
-0.96680887234138901
10
-162.46812244660998
20
-5.7850835605825264
42
-0.41421356237309592
10
-163.88240996575718
20
-8.2345306029136154
10
-164.84834360612666
20
-8.4933204837095602
42
0.41421356237309698
10
-166.26263112527386
20
-10.942767526040665
10
-146.59460045246021
20
-84.353723195008428
42
0.41421356237309503
10
-144.14515341012913
20
-85.768010714155594
10
-143.17921976975978
20
-85.509220833359677
42
-0.41421356237309503
10
-140.72977272742867
20
-86.923508352506843
10
-139.49894158760972
20
-91.517587533303129
42
0.33946267691085208
10
-137.56707414100322
20
-93.000007898989708
10
-133.79916993370352
20
-93.000007898989679
42
-0.41421356237309503
10
-131.79916993370352
20
-95.000007898989679
10
-131.79916993370352
20
-96.000007898989693
42
0.41421356237309503
10
-129.79916993370352
20
-98.000007898989679
10
-53.800014797212306
20
-98.000007898989679
42
0.41421356237309503
10
-51.800014797212306
20
-96.000007898989693
10
-51.800014797212285
20
-94.000007898989679
42
-0.41421356237309764
10
-49.800014797212278
20
-92.000007898989679
10
-31.499997268540021
20
-92.000007898989679
42
0.41421356237309631
10
-29.49999726854001
20
-90.000007898989693
10
-29.499997268540007
20
-67.156829082656003
42
-0.4142135623730957
10
-27.49999726854
20
-65.156829082656003
10
-25.000000342726707
20
-65.156829082656003
42
0.41421356237309503
10
-23.000000342726707
20
-63.156829082655996
10
-23.000000342726707
20
-57.000000819563866
42
-0.41421356237309503
0
LWPOLYLINE
5
101
100
AcDbEntity
8
0
100
AcDbPolyline
90
8
70
1
43
0.0
10
-53.811009258808518
20
14.901994077315535
42
0.41421152267659256
10
-53.628010585869959
20
15.585008051973785
10
-60.128011143950751
20
26.84300462403808
42
0.41419931279147498
10
-60.811009859818611
20
27.026003296976668
10
-72.069006431882912
20
20.526002738895876
42
0.41419931279146982
10
-72.252005104821507
20
19.843004023027966
10
-65.752004546740693
20
8.585007450963694
42
0.41420258432602797
10
-65.06900583087284
20
8.4019935192347717
0
LWPOLYLINE
5
102
100
AcDbEntity
8
0
100
AcDbPolyline
90
8
70
1
43
0.0
10
-36.028002971242742
20
30.74000813245739
42
0.41412571801468756
10
-36.028002971242742
20
31.447008925581343
10
-45.220996924602623
20
40.639011057567004
42
0.41412571801466547
10
-45.927997717726576
20
40.639011057566989
10
-55.119999849712244
20
31.447008925581308
42
0.41412571801464343
10
-55.119999849712201
20
30.740008132457426
10
-45.927997717726576
20
21.54699892030715
42
0.41412571801468023
10
-45.220996924602623
20
21.546998920307132
0
LWPOLYLINE
5
103
100
AcDbEntity
8
0
100
AcDbPolyline
90
8
70
1
43
0.0
10
-123.574008107447
20
-85.161010424596085
42
0.41412966054375333
10
-123.22001180019794
20
-84.549010860331904
10
-126.58500995288138
20
-71.992002946267604
42
0.41412966054374323
10
-127.19700951714555
20
-71.638006639018528
10
-139.75400980181468
20
-75.003004791701983
42
0.41413282455118311
10
-140.10801373845896
20
-75.61500435596615
10
-136.7430079563803
20
-88.172004640635265
42
0.41413282455119182
10
-136.13100839211612
20
-88.526008577279569
0
LWPOLYLINE
5
104
100
AcDbEntity
8
0
100
AcDbPolyline
90
8
70
1
43
0.0
10
-62.912999786386223
20
-17.136994879561112
42
0.41483834656543023
10
-62.559011108532331
20
-16.524003493922738
10
-65.92400163182063
20
-3.9669955798584331
42
0.41371582591823203
10
-66.536001196084783
20
-3.6139987233787352
10
-79.093009110149112
20
-6.977997425292819
42
0.41485564111900602
10
-79.447013046793359
20
-7.5910040697215742
10
-76.08200726471469
20
-20.147996724995508
42
0.4137221343057656
10
-75.470007700450566
20
-20.501008840265538
0
LWPOLYLINE
5
105
100
AcDbEntity
8
0
100
AcDbPolyline
90
8
70
1
43
0.0
10
-45.334003526102052
20
-9.1390083530216195
42
0.41414376468839015
10
-44.979999589457805
20
-8.5269935299670792
10
-48.345005371536438
20
4.0299991253068477
42
0.414132824551185
10
-48.957004935800619
20
4.3840030619511339
10
-61.514012849864947
20
1.0189972798724667
42
0.41412649661157031
10
-61.868001527718839
20
0.40699771560827713
10
-58.503011004430547
20
-12.151002019830244
42
0.41371582591822531
10
-57.891011440166373
20
-12.503998876309925
0
LWPOLYLINE
5
106
100
AcDbEntity
8
0
100
AcDbPolyline
90
8
70
1
43
0.0
10
-99.715004899278981
20
-26.998003416642959
42
0.41485247548580834
10
-99.361008592029876
20
-26.384996772214187
10
-102.72600674471336
20
-13.828004116940235
42
0.41371582591821526
10
-103.33800630897754
20
-13.475007260460572
10
-115.89500659364667
20
-16.839005962374653
42
0.41484467770678984
10
-116.24901053029095
20
-17.45199734801302
10
-112.88401237760745
20
-30.009005262077359
42
0.41371582591821399
10
-112.27201281334331
20
-30.362002118557019
0
LWPOLYLINE
5
107
100
AcDbEntity
8
0
100
AcDbPolyline
90
8
70
1
43
0.0
10
-80.287009456804867
20
-25.901003200385752
42
0.41485564111900602
10
-79.933005520160606
20
-25.287996555957008
10
-83.298003672844089
20
-12.731003900683064
42
0.41372129433790983
10
-83.910010866503455
20
-12.37800704420339
10
-96.467011151172585
20
-15.742005746117464
42
0.41484151209841308
10
-96.821007458421647
20
-16.35499713175582
10
-93.456009305738178
20
-28.912005045820159
42
0.41371582591822409
10
-92.844009741474025
20
-29.265001902299819
0
LWPOLYLINE
5
108
100
AcDbEntity
8
0
100
AcDbPolyline
90
8
70
1
43
0.0
10
-143.2960099228203
20
-11.557999649579958
42
0.41484151209843195
10
-142.94201361557123
20
-10.945008263941585
10
-146.30701176825468
20
1.6119996501227341
42
0.41371582591824752
10
-146.91901133251886
20
1.9649965066023967
10
-159.47601543188557
20
-1.3990021953116756
42
0.41484309489319482
10
-159.83001555383225
20
-2.0119935809500333
10
-156.46501358645116
20
-14.569001495014351
42
0.4137158259182126
10
-155.85301402218704
20
-14.921998351494032
0
LWPOLYLINE
5
109
100
AcDbEntity
8
0
100
AcDbPolyline
90
8
70
1
43
0.0
10
-53.052006508094756
20
-53.939007621849058
42
0.41485564111901402
10
-52.698002571450473
20
-53.326000977420307
10
-56.063008353529149
20
-40.769000692751185
42
0.41371582591823142
10
-56.675007917793323
20
-40.416003836271472
10
-69.232000573067282
20
-43.780002538185563
42
0.41485015936805347
10
-69.586004509711529
20
-44.39300155321915
10
-66.220998727632875
20
-56.95000183788828
42
0.41371898007442764
10
-65.608999163368708
20
-57.303006323763142
0
LWPOLYLINE
5
110
100
AcDbEntity
8
0
100
AcDbPolyline
90
8
70
1
43
0.0
10
-35.473010247810606
20
-45.941005836519217
42
0.41413282455117417
10
-35.119006311166309
20
-45.32900627225505
10
-38.483996834454601
20
-32.772005987585914
42
0.41413282455121525
10
-39.095996398718817
20
-32.418002050941638
10
-51.653004312783111
20
-35.783000203625114
42
0.41413282455118239
10
-52.007008249427372
20
-36.394999767889274
10
-48.642002467348703
20
-48.952007681953589
42
0.41412966054376205
10
-48.030002903084501
20
-49.306003989202679
0
LWPOLYLINE
5
111
100
AcDbEntity
8
0
100
AcDbPolyline
90
8
70
1
43
0.0
10
-133.43500901513366
20
-48.359005311703321
42
0.41412966054374695
10
-133.08101270788458
20
-47.747005747439168
10
-136.44601086056804
20
-35.190005462770024
42
0.41413282455119449
10
-137.05801042483219
20
-34.836001526125756
10
-149.61501452419893
20
-38.200999678809239
42
0.41413671255589024
10
-149.96901464614558
20
-38.813006872468577
10
-146.60401267876452
20
-51.370007157137707
42
0.41413239553843889
10
-145.99200929980276
20
-51.724003464386797
0
LWPOLYLINE
5
112
100
AcDbEntity
8
0
100
AcDbPolyline
90
8
70
1
43
0.0
10
-114.41800909134548
20
-45.729000203082329
42
0.41412966054374695
10
-114.06401278409641
20
-45.117000638818176
10
-117.42901093677986
20
-32.560000354149025
42
0.41412966054375078
10
-118.04101050104404
20
-32.206004046899963
10
-130.59801078571317
20
-35.571002199583411
42
0.41413282455119249
10
-130.95201472235746
20
-36.183001763847585
10
-127.58700894027876
20
-48.740002048516722
42
0.41413282455118172
10
-126.97500937601461
20
-49.09400598516099
0
LWPOLYLINE
5
113
100
AcDbEntity
8
0
100
AcDbPolyline
90
8
70
1
43
0.0
10
-94.784004720050945
20
-45.399005973089331
42
0.41443294893070604
10
-94.431007863571281
20
-44.786006958055758
10
-97.795006565485352
20
-32.22899904399145
42
0.41442979325395202
10
-98.408005580518889
20
-31.876009816906983
10
-110.96500586518803
20
-35.240000889425829
42
0.41443610468271852
10
-111.31801035106294
20
-35.852999904459395
10
-107.95401164914884
20
-48.410007818523731
42
0.41443294893071742
10
-107.34101263411526
20
-48.763004675003394
0
LWPOLYLINE
5
114
100
AcDbEntity
8
0
100
AcDbPolyline
90
8
70
1
43
0.0
10
-57.981999607158201
20
-35.538005065402672
42
0.41443294893070104
10
-57.629002750678531
20
-34.925006050369106
10
-60.994008532757178
20
-22.367998136304792
42
0.41371582591822137
10
-61.606008097021352
20
-22.015001279825093
10
-74.163000752295275
20
-25.378999981739195
42
0.41485564111901602
10
-74.517004688939551
20
-25.992006626167949
10
-71.151998906860882
20
-38.549006910837072
42
0.41371582591823142
10
-70.53999934259673
20
-38.902003767316771
0
LWPOLYLINE
5
115
100
AcDbEntity
8
0
100
AcDbPolyline
90
8
70
1
43
0.0
10
-75.35600927757686
20
-44.302005756832131
42
0.41443294893071242
10
-75.003012421097196
20
-43.689006741798579
10
-78.367011123011267
20
-31.132006457129464
42
0.41442746889890808
10
-78.980002508649648
20
-30.779009600649765
10
-91.537010422713948
20
-34.14300067316865
42
0.41443294893070104
10
-91.890007279193625
20
-34.755999688202209
10
-88.526008577279555
20
-47.313007602266531
42
0.41443294893070465
10
-87.913009562246003
20
-47.666004458746215
0
LWPOLYLINE
5
116
100
AcDbEntity
8
0
100
AcDbPolyline
90
8
70
1
43
0.0
10
-40.403003346874044
20
-27.539995650677636
42
0.41371582591823408
10
-40.050006490394367
20
-26.927996086413479
10
-43.414005192308423
20
-14.371003431139513
42
0.41484467770681677
10
-44.026996577946811
20
-14.016999494495224
10
-56.584004492011132
20
-17.382005276573924
42
0.41371582591823408
10
-56.93700134849081
20
-17.99400484083808
10
-53.573002646576732
20
-30.550997496112025
42
0.414844677706808
10
-52.960011260938359
20
-30.905001432756318
0
LWPOLYLINE
5
117
100
AcDbEntity
8
0
100
AcDbPolyline
90
8
70
1
43
0.0
10
-138.36500974359225
20
-29.957995125861743
42
0.41371582591823897
10
-138.01201288711255
20
-29.345995561597583
10
-141.37701103979606
20
-16.789002906323635
42
0.41413282455118305
10
-141.98901060406024
20
-16.434998969679349
10
-154.54601470342698
20
-19.800004751758056
42
0.41413124253804312
10
-154.90001482537363
20
-20.412004316022188
10
-151.53501285799254
20
-32.970004051460727
42
0.41371582591822137
10
-150.92301329372842
20
-33.323000907940425
0
LWPOLYLINE
5
118
100
AcDbEntity
8
0
100
AcDbPolyline
90
8
70
1
43
0.0
10
-119.34800981980413
20
-27.328005276031124
42
0.41371582591823641
10
-118.99501296332443
20
-26.716005711766968
10
-122.35901166523851
20
-14.158997797702638
42
0.41485015936804082
10
-122.97201068027206
20
-13.804993861058392
10
-135.52901096494119
20
-17.16999964313705
42
0.4137189800744373
10
-135.88201545081606
20
-17.781999207401196
10
-132.51800911950684
20
-30.339007121465514
42
0.41484382820186033
10
-131.90501010447323
20
-30.692995799319434
0
LWPOLYLINE
5
119
100
AcDbEntity
8
0
100
AcDbPolyline
90
8
70
1
43
0.0
10
-124.27900999903214
20
-8.9270027195847419
42
0.4141296605437485
10
-123.92501369178308
20
-8.3150031553205999
10
-127.29001184446653
20
4.2420047587437031
42
0.41412649661157919
10
-127.90201140873069
20
4.5959934365976096
10
-140.45901169339979
20
1.2310029133093254
42
0.4141328245511875
10
-140.81301563004411
20
0.61900334904517962
10
-137.44800984796544
20
-11.938004565019147
42
0.41413282455118572
10
-136.83601028370128
20
-12.292008501663414
0
LWPOLYLINE
5
120
100
AcDbEntity
8
0
100
AcDbPolyline
90
8
70
1
43
0.0
10
-104.64500562773762
20
-8.597000860196589
42
0.41371582591823691
10
-104.29200877125788
20
-7.9850012959324168
10
-107.656007473172
20
4.5729984395061196
42
0.4144329489307072
10
-108.26900648820556
20
4.9259952959857856
10
-120.82600677287471
20
1.5610047726975012
42
0.41371898007442731
10
-121.17901125874954
20
0.94900520843339109
10
-117.8150125568355
20
-11.608002705630977
42
0.41485015936804964
10
-117.20201354180192
20
-11.962006642275256
0
LWPOLYLINE
5
121
100
AcDbEntity
8
0
100
AcDbPolyline
90
8
70
1
43
0.0
10
-75.210013171291834
20
4.2209934044006605
42
0.41413282455117967
10
-74.856009234647544
20
4.8329929686648381
10
-78.220999757935857
20
17.390000882729165
42
0.41413282455116823
10
-78.83299932220001
20
17.74400481937338
10
-91.390007236264353
20
14.378999037294772
42
0.41413282455120254
10
-91.744011172908628
20
13.766999473030559
10
-88.379005390829946
20
1.2100068177566246
42
0.41413282455118616
10
-87.767005826565793
20
0.85600288111237433
0
LWPOLYLINE
5
122
100
AcDbEntity
8
0
100
AcDbPolyline
90
8
70
1
43
0.0
10
-84.9230038123643
20
-82.200004005817505
42
0.41371582591824918
10
-84.570006955884608
20
-81.588004441553323
10
-87.934005657798693
20
-69.031004156884222
42
0.41484699374726053
10
-88.547004672832244
20
-68.677007849635146
10
-101.10400495750139
20
-72.042006002318587
42
0.41371898007444774
10
-101.45700944337626
20
-72.654005566582768
10
-98.093010741462194
20
-85.212005302021296
42
0.4144361046827354
10
-97.480011726428614
20
-85.565009787896145
0
LWPOLYLINE
5
123
100
AcDbEntity
8
0
100
AcDbPolyline
90
8
70
1
43
0.0
10
-128.50400883590564
20
-66.760007868149685
42
0.41371582591823641
10
-128.15101197942593
20
-66.148008303885533
10
-131.51601013210939
20
-53.591008019216403
42
0.41413282455119449
10
-132.12800969637357
20
-53.237004082572113
10
-144.6850099810427
20
-56.602002235255611
42
0.41413282455118577
10
-145.03901391768696
20
-57.214001799519764
10
-141.6740157650035
20
-69.771009713584078
42
0.41485247548577686
10
-141.06100912057479
20
-70.125006020833183
0
LWPOLYLINE
5
124
100
AcDbEntity
8
0
100
AcDbPolyline
90
8
70
1
43
0.0
10
-89.854003991592322
20
-63.80000852953571
42
0.41485247548579834
10
-89.500007684343231
20
-63.187001885106973
10
-92.8650058370267
20
-50.630001600437843
42
0.41371582591824418
10
-93.477005401290896
20
-50.277004743958145
10
-106.03400568596001
20
-53.641003445872222
42
0.41485015936805347
10
-106.38800962260427
20
-54.254002460905788
10
-103.0230114699208
20
-66.81100274557491
42
0.41371898007443358
10
-102.41101190565665
20
-67.164007231449801
0
LWPOLYLINE
5
125
100
AcDbEntity
8
0
100
AcDbPolyline
90
8
70
1
43
0.0
10
-48.121006328866713
20
-72.339003098130831
42
0.41371582591820627
10
-47.76800947238705
20
-71.727003533866693
10
-51.132999995675348
20
-59.170003249197563
42
0.41412966054376937
10
-51.744999559939529
20
-58.816006941948501
10
-64.30200747400383
20
-62.181005094631942
42
0.41413282455118311
10
-64.656011410648091
20
-62.793004658896109
10
-61.291005628569437
20
-75.351004394334652
42
0.41371898007443764
10
-60.679006064305256
20
-75.704008880209528
0
LWPOLYLINE
5
126
100
AcDbEntity
8
0
100
AcDbPolyline
90
8
70
1
43
0.0
10
-70.426000919723037
20
-62.703008313278524
42
0.41484930992798252
10
-70.07201224186916
20
-62.090001668849759
10
-73.437002765157459
20
-49.533001384180643
42
0.41371582591824418
10
-74.049002329421626
20
-49.180004527700959
10
-86.606010243485926
20
-52.544003229615043
42
0.41484699374727424
10
-86.960006550734988
20
-53.157002244648623
10
-83.595008398051519
20
-65.714002529317725
42
0.41371898007444363
10
-82.983008833787366
20
-66.067007015192601
0
LWPOLYLINE
5
127
100
AcDbEntity
8
0
100
AcDbPolyline
90
8
70
1
43
0.0
10
-65.495000740495016
20
-81.103003789560319
42
0.41371582591823419
10
-65.142003884015338
20
-80.491004225296123
10
-68.506002585929437
20
-67.934003940627022
42
0.4148524754857883
10
-69.119009230358159
20
-67.580007633377932
10
-81.676001885632118
20
-70.945005786061415
42
0.41443610468273134
10
-82.029006371506981
20
-71.558004801094981
10
-78.665000040197711
20
-84.115005085764096
42
0.41443062463863412
10
-78.05200865455933
20
-84.468009571638987
0
LWPOLYLINE
5
128
100
AcDbEntity
8
0
100
AcDbPolyline
90
8
70
1
43
0.0
10
-104.55700818365884
20
-82.531005315975079
42
0.41484699374725548
10
-104.20301187640975
20
-81.918006300941499
10
-107.56801002909322
20
-69.36100601627237
42
0.41371582591823408
10
-108.1800095933574
20
-69.008009159792678
10
-120.73700987802651
20
-72.372007861706791
42
0.41485015936804343
10
-121.09101381467077
20
-72.985006876740343
10
-117.72600803259211
20
-85.542007161409472
42
0.41371582591824185
10
-117.11400846832795
20
-85.895004017889136
0
LWPOLYLINE
5
129
100
AcDbEntity
8
0
100
AcDbPolyline
90
8
70
1
43
0.0
10
-109.48700891211746
20
-64.130002759528708
42
0.41443294893071603
10
-109.13401205563778
20
-63.517003744495135
10
-112.49801075755185
20
-50.960003459825998
42
0.41443294893071742
10
-113.11100977258542
20
-50.607006603346335
10
-125.66801005725455
20
-53.972004756029797
42
0.41371898007442764
10
-126.02101454312943
20
-54.584004320293964
10
-122.65700821182016
20
-67.141004604963086
42
0.41443610468273767
10
-122.04400919678656
20
-67.494009090837977
0
LWPOLYLINE
5
130
100
AcDbEntity
8
0
100
AcDbPolyline
90
8
70
1
43
0.0
10
-30.542010068582556
20
-64.342008392965568
42
0.41372213430577132
10
-30.188997953312512
20
-63.730008828701415
10
-33.552996655226586
20
-51.173000914637107
42
0.41485247548581844
10
-34.166003299655365
20
-50.819004607388024
10
-46.723011213719666
20
-54.184002760071493
42
0.41371582591820594
10
-47.076008070199364
20
-54.796002324335653
10
-43.712009368285294
20
-67.353002609004776
42
0.41485564111901529
10
-43.099002723856508
20
-67.707006545649079
0
LWPOLYLINE
5
131
100
AcDbEntity
8
0
100
AcDbPolyline
90
8
70
1
43
0.0
10
-13.270005411804712
20
38.011004850484788
42
0.4141328245511805
10
-12.916001475160424
20
38.623004414748962
10
-16.281007257239107
20
51.179997070022907
42
0.41413282455117706
10
-16.893006821503285
20
51.534001006667225
10
-29.449999476777219
20
48.169010483378869
42
0.41413282455118555
10
-29.804003413421469
20
47.557010919114724
10
-26.438997631342829
20
35.000003005050402
42
0.4141328245512057
10
-25.826998067078648
20
34.645999068406148
0
LWPOLYLINE
5
132
100
AcDbEntity
8
0
100
AcDbPolyline
90
8
70
1
43
0.0
10
12.916001475160424
20
38.623004414748962
42
0.4141328245511805
10
13.270005411804712
20
38.011004850484788
10
25.826998067078655
20
34.645999068406148
42
0.41413282455119682
10
26.438997631342822
20
35.000003005050395
10
29.804003413421476
20
47.557010919114731
42
0.41413282455117534
10
29.449999476777222
20
48.169010483378862
10
16.893006821503278
20
51.534001006667197
42
0.41413282455117661
10
16.281007257239111
20
51.179997070022907
0
LWPOLYLINE
5
133
100
AcDbEntity
8
0
100
AcDbPolyline
90
8
70
1
43
0.0
10
30.188997953312512
20
-63.730008828701415
42
0.41372213430577132
10
30.542010068582556
20
-64.342008392965568
10
43.099002723856508
20
-67.707006545649094
42
0.41485564111900897
10
43.712009368285294
20
-67.35300260900479
10
47.076008070199329
20
-54.796002324335646
42
0.41371582591819128
10
46.723011213719694
20
-54.184002760071493
10
34.166003299655337
20
-50.819004607388024
42
0.41485247548579429
10
33.552996655226615
20
-51.1730009146371
0
LWPOLYLINE
5
134
100
AcDbEntity
8
0
100
AcDbPolyline
90
8
70
1
43
0.0
10
109.13401205563778
20
-63.517003744495135
42
0.41443294893071603
10
109.48700891211746
20
-64.130002759528708
10
122.04400919678656
20
-67.494009090837977
42
0.41443610468273401
10
122.65700821182016
20
-67.141004604963101
10
126.02101454312943
20
-54.584004320293964
42
0.41371898007442626
10
125.66801005725455
20
-53.972004756029804
10
113.11100977258542
20
-50.607006603346349
42
0.4144329489307238
10
112.49801075755185
20
-50.960003459826012
0
LWPOLYLINE
5
135
100
AcDbEntity
8
0
100
AcDbPolyline
90
8
70
1
43
0.0
10
104.20301187640975
20
-81.918006300941499
42
0.41484699374725548
10
104.55700818365884
20
-82.531005315975079
10
117.11400846832795
20
-85.895004017889178
42
0.41371582591823641
10
117.72600803259211
20
-85.542007161409472
10
121.09101381467077
20
-72.985006876740343
42
0.41485015936804981
10
120.73700987802651
20
-72.372007861706777
10
108.1800095933574
20
-69.008009159792678
42
0.41371582591823919
10
107.56801002909322
20
-69.361006016272384
0
LWPOLYLINE
5
136
100
AcDbEntity
8
0
100
AcDbPolyline
90
8
70
1
43
0.0
10
65.142003884015338
20
-80.491004225296123
42
0.41371582591823419
10
65.495000740495016
20
-81.103003789560319
10
78.05200865455933
20
-84.468009571638987
42
0.4144306246386355
10
78.665000040197711
20
-84.115005085764096
10
82.029006371506981
20
-71.558004801094981
42
0.41443610468273262
10
81.676001885632118
20
-70.945005786061415
10
69.119009230358174
20
-67.580007633377932
42
0.41485247548578963
10
68.506002585929423
20
-67.934003940627008
0
LWPOLYLINE
5
137
100
AcDbEntity
8
0
100
AcDbPolyline
90
8
70
1
43
0.0
10
70.07201224186916
20
-62.090001668849759
42
0.41484930992798252
10
70.426000919723037
20
-62.703008313278524
10
82.983008833787366
20
-66.067007015192587
42
0.4137189800744363
10
83.595008398051519
20
-65.714002529317739
10
86.960006550734988
20
-53.157002244648588
42
0.41484699374724276
10
86.60601024348594
20
-52.544003229615051
10
74.049002329421626
20
-49.180004527700959
42
0.41371582591823408
10
73.437002765157459
20
-49.533001384180636
0
LWPOLYLINE
5
138
100
AcDbEntity
8
0
100
AcDbPolyline
90
8
70
1
43
0.0
10
47.76800947238705
20
-71.727003533866693
42
0.41371582591820627
10
48.121006328866713
20
-72.339003098130831
10
60.679006064305256
20
-75.704008880209528
42
0.4137189800744363
10
61.291005628569422
20
-75.351004394334652
10
64.656011410648105
20
-62.793004658896109
42
0.41413282455118039
10
64.30200747400383
20
-62.181005094631949
10
51.744999559939487
20
-58.816006941948501
42
0.41412966054373285
10
51.132999995675362
20
-59.170003249197549
0
LWPOLYLINE
5
139
100
AcDbEntity
8
0
100
AcDbPolyline
90
8
70
1
43
0.0
10
89.500007684343231
20
-63.187001885106973
42
0.41485247548579834
10
89.854003991592322
20
-63.80000852953571
10
102.41101190565665
20
-67.164007231449787
42
0.4137189800744363
10
103.0230114699208
20
-66.81100274557491
10
106.38800962260427
20
-54.254002460905781
42
0.41485015936804714
10
106.03400568596001
20
-53.641003445872229
10
93.477005401290896
20
-50.277004743958145
42
0.41371582591823919
10
92.8650058370267
20
-50.630001600437836
0
LWPOLYLINE
5
140
100
AcDbEntity
8
0
100
AcDbPolyline
90
8
70
1
43
0.0
10
128.15101197942593
20
-66.148008303885533
42
0.41371582591823641
10
128.50400883590564
20
-66.760007868149685
10
141.06100912057477
20
-70.125006020833169
42
0.41485247548578325
10
141.6740157650035
20
-69.771009713584093
10
145.03901391768699
20
-57.214001799519778
42
0.41413282455118439
10
144.68500998104273
20
-56.602002235255604
10
132.12800969637354
20
-53.237004082572092
42
0.41413282455118039
10
131.51601013210939
20
-53.591008019216403
0
LWPOLYLINE
5
141
100
AcDbEntity
8
0
100
AcDbPolyline
90
8
70
1
43
0.0
10
84.570006955884608
20
-81.588004441553323
42
0.41371582591824918
10
84.9230038123643
20
-82.200004005817505
10
97.480011726428614
20
-85.565009787896159
42
0.41443610468272996
10
98.09301074146218
20
-85.212005302021296
10
101.45700944337626
20
-72.654005566582754
42
0.41371898007444136
10
101.10400495750139
20
-72.042006002318587
10
88.547004672832244
20
-68.677007849635146
42
0.41484699374725686
10
87.934005657798693
20
-69.031004156884208
0
LWPOLYLINE
5
142
100
AcDbEntity
8
0
100
AcDbPolyline
90
8
70
1
43
0.0
10
74.856009234647544
20
4.8329929686648372
42
0.41413282455117967
10
75.210013171291834
20
4.2209934044006605
10
87.767005826565793
20
0.85600288111235268
42
0.41413282455118117
10
88.379005390829946
20
1.2100068177566214
10
91.744011172908628
20
13.766999473030566
42
0.41413282455119804
10
91.390007236264353
20
14.378999037294768
10
78.83299932220001
20
17.744004819373409
42
0.41413282455115996
10
78.220999757935857
20
17.390000882729169
0
LWPOLYLINE
5
143
100
AcDbEntity
8
0
100
AcDbPolyline
90
8
70
1
43
0.0
10
104.29200877125788
20
-7.9850012959324159
42
0.41371582591823691
10
104.64500562773762
20
-8.597000860196589
10
117.20201354180192
20
-11.962006642275256
42
0.41485015936805214
10
117.8150125568355
20
-11.608002705630973
10
121.17901125874954
20
0.94900520843339353
42
0.41371898007442481
10
120.82600677287471
20
1.561004772697494
10
108.26900648820555
20
4.9259952959857669
42
0.41443294893067972
10
107.65600747317201
20
4.5729984395061516
0
LWPOLYLINE
5
144
100
AcDbEntity
8
0
100
AcDbPolyline
90
8
70
1
43
0.0
10
123.92501369178308
20
-8.3150031553205999
42
0.4141296605437485
10
124.27900999903214
20
-8.9270027195847419
10
136.83601028370128
20
-12.292008501663425
42
0.41413282455118278
10
137.44800984796544
20
-11.938004565019149
10
140.81301563004405
20
0.61900334904518517
42
0.41413282455117861
10
140.45901169339982
20
1.2310029133093181
10
127.90201140873069
20
4.595993436597607
42
0.41412649661157108
10
127.29001184446653
20
4.2420047587437182
0
LWPOLYLINE
5
145
100
AcDbEntity
8
0
100
AcDbPolyline
90
8
70
1
43
0.0
10
118.99501296332443
20
-26.716005711766968
42
0.41371582591823641
10
119.34800981980413
20
-27.328005276031124
10
131.90501010447326
20
-30.69299579931943
42
0.41484382820184323
10
132.51800911950681
20
-30.339007121465524
10
135.88201545081606
20
-17.781999207401192
42
0.4137189800744438
10
135.52901096494116
20
-17.169999643137057
10
122.97201068027206
20
-13.80499386105839
42
0.41485015936804176
10
122.35901166523851
20
-14.158997797702639
0
LWPOLYLINE
5
146
100
AcDbEntity
8
0
100
AcDbPolyline
90
8
70
1
43
0.0
10
138.01201288711255
20
-29.345995561597583
42
0.41371582591823897
10
138.36500974359225
20
-29.957995125861743
10
150.92301329372839
20
-33.323000907940418
42
0.41371582591822775
10
151.53501285799254
20
-32.970004051460734
10
154.90001482537366
20
-20.412004316022198
42
0.41413124253805389
10
154.54601470342695
20
-19.800004751758049
10
141.98901060406024
20
-16.434998969679356
42
0.41413282455118278
10
141.37701103979606
20
-16.789002906323631
0
LWPOLYLINE
5
147
100
AcDbEntity
8
0
100
AcDbPolyline
90
8
70
1
43
0.0
10
40.050006490394367
20
-26.927996086413479
42
0.41371582591823408
10
40.403003346874044
20
-27.539995650677636
10
52.960011260938373
20
-30.905001432756322
42
0.41484467770679595
10
53.573002646576725
20
-30.550997496112036
10
56.937001348490817
20
-17.994004840838066
42
0.41371582591822631
10
56.584004492011118
20
-17.382005276573942
10
44.026996577946782
20
-14.016999494495222
42
0.41484467770680367
10
43.414005192308451
20
-14.371003431139524
0
LWPOLYLINE
5
148
100
AcDbEntity
8
0
100
AcDbPolyline
90
8
70
1
43
0.0
10
75.003012421097196
20
-43.689006741798579
42
0.41443294893071242
10
75.35600927757686
20
-44.302005756832131
10
87.913009562246003
20
-47.666004458746201
42
0.41443294893071375
10
88.526008577279569
20
-47.313007602266524
10
91.890007279193625
20
-34.755999688202202
42
0.41443294893068205
10
91.537010422713962
20
-34.143000673168657
10
78.980002508649633
20
-30.779009600649779
42
0.41442746889890009
10
78.367011123011267
20
-31.132006457129453
0
LWPOLYLINE
5
149
100
AcDbEntity
8
0
100
AcDbPolyline
90
8
70
1
43
0.0
10
57.629002750678531
20
-34.925006050369106
42
0.41443294893070104
10
57.981999607158201
20
-35.538005065402672
10
70.53999934259673
20
-38.902003767316764
42
0.41371582591822775
10
71.151998906860882
20
-38.549006910837079
10
74.517004688939565
20
-25.992006626167942
42
0.41485564111900397
10
74.163000752295289
20
-25.378999981739199
10
61.606008097021352
20
-22.015001279825096
42
0.41371582591821698
10
60.994008532757178
20
-22.367998136304781
0
LWPOLYLINE
5
150
100
AcDbEntity
8
0
100
AcDbPolyline
90
8
70
1
43
0.0
10
94.431007863571281
20
-44.786006958055758
42
0.41443294893070604
10
94.784004720050945
20
-45.399005973089331
10
107.34101263411529
20
-48.763004675003401
42
0.41443294893071103
10
107.95401164914884
20
-48.410007818523724
10
111.31801035106292
20
-35.852999904459395
42
0.41443610468271991
10
110.96500586518803
20
-35.240000889425843
10
98.408005580518889
20
-31.876009816906983
42
0.41442979325394691
10
97.795006565485352
20
-32.228999043991436
0
LWPOLYLINE
5
151
100
AcDbEntity
8
0
100
AcDbPolyline
90
8
70
1
43
0.0
10
114.06401278409641
20
-45.117000638818176
42
0.41412966054374695
10
114.41800909134548
20
-45.729000203082329
10
126.97500937601461
20
-49.094005985160997
42
0.41413282455118039
10
127.58700894027876
20
-48.740002048516722
10
130.95201472235746
20
-36.183001763847585
42
0.41413282455119937
10
130.59801078571314
20
-35.571002199583418
10
118.04101050104404
20
-32.206004046899956
42
0.41412966054374928
10
117.42901093677987
20
-32.560000354149032
0
LWPOLYLINE
5
152
100
AcDbEntity
8
0
100
AcDbPolyline
90
8
70
1
43
0.0
10
133.08101270788458
20
-47.747005747439168
42
0.41412966054374695
10
133.43500901513366
20
-48.359005311703321
10
145.99200929980276
20
-51.72400346438679
42
0.41413239553844527
10
146.60401267876452
20
-51.370007157137714
10
149.96901464614561
20
-38.813006872468591
42
0.41413671255589396
10
149.61501452419893
20
-38.200999678809225
10
137.05801042483219
20
-34.836001526125749
42
0.41413282455118977
10
136.44601086056807
20
-35.190005462770024
0
LWPOLYLINE
5
153
100
AcDbEntity
8
0
100
AcDbPolyline
90
8
70
1
43
0.0
10
35.119006311166309
20
-45.32900627225505
42
0.41413282455117417
10
35.473010247810606
20
-45.941005836519217
10
48.030002903084494
20
-49.306003989202679
42
0.41412966054375833
10
48.642002467348711
20
-48.952007681953603
10
52.007008249427386
20
-36.394999767889274
42
0.41413282455118039
10
51.653004312783111
20
-35.783000203625122
10
39.09599639871881
20
-32.418002050941624
42
0.4141328245512082
10
38.483996834454608
20
-32.772005987585914
0
LWPOLYLINE
5
154
100
AcDbEntity
8
0
100
AcDbPolyline
90
8
70
1
43
0.0
10
52.698002571450473
20
-53.326000977420307
42
0.41485564111901402
10
53.052006508094756
20
-53.939007621849058
10
65.608999163368708
20
-57.303006323763157
42
0.41371898007442492
10
66.22099872763286
20
-56.95000183788828
10
69.586004509711529
20
-44.393001553219136
42
0.41485015936804714
10
69.232000573067282
20
-43.78000253818557
10
56.675007917793323
20
-40.416003836271486
42
0.41371582591822909
10
56.063008353529149
20
-40.769000692751177
0
LWPOLYLINE
5
155
100
AcDbEntity
8
0
100
AcDbPolyline
90
8
70
1
43
0.0
10
142.94201361557123
20
-10.945008263941586
42
0.41484151209843195
10
143.2960099228203
20
-11.557999649579958
10
155.85301402218701
20
-14.921998351494025
42
0.41371582591821737
10
156.46501358645116
20
-14.569001495014362
10
159.83001555383225
20
-2.0119935809500329
42
0.41484309489319471
10
159.47601543188557
20
-1.3990021953116738
10
146.91901133251883
20
1.9649965066024282
42
0.41371582591823702
10
146.30701176825468
20
1.6119996501227263
0
LWPOLYLINE
5
156
100
AcDbEntity
8
0
100
AcDbPolyline
90
8
70
1
43
0.0
10
79.933005520160606
20
-25.287996555957008
42
0.41485564111900602
10
80.287009456804867
20
-25.901003200385752
10
92.844009741474025
20
-29.265001902299833
42
0.41371582591822709
10
93.456009305738178
20
-28.912005045820148
10
96.821007458421661
20
-16.354997131755823
42
0.41484151209840964
10
96.467011151172585
20
-15.742005746117478
10
83.91001086650347
20
-12.378007044203381
42
0.41372129433791599
10
83.298003672844089
20
-12.73100390068306
0
LWPOLYLINE
5
157
100
AcDbEntity
8
0
100
AcDbPolyline
90
8
70
1
43
0.0
10
99.361008592029876
20
-26.384996772214187
42
0.41485247548580834
10
99.715004899278981
20
-26.998003416642959
10
112.2720128133433
20
-30.362002118557037
42
0.41371582591822642
10
112.88401237760745
20
-30.009005262077348
10
116.24901053029093
20
-17.451997348013027
42
0.41484467770679534
10
115.89500659364667
20
-16.83900596237466
10
103.33800630897755
20
-13.475007260460558
42
0.41371582591822709
10
102.72600674471336
20
-13.828004116940242
0
LWPOLYLINE
5
158
100
AcDbEntity
8
0
100
AcDbPolyline
90
8
70
1
43
0.0
10
44.979999589457805
20
-8.5269935299670792
42
0.41414376468839015
10
45.334003526102052
20
-9.1390083530216195
10
57.891011440166373
20
-12.503998876309934
42
0.41371582591822775
10
58.503011004430547
20
-12.151002019830237
10
61.868001527718846
20
0.4069977156082909
42
0.41412649661155881
10
61.514012849864947
20
1.0189972798724511
10
48.957004935800612
20
4.3840030619511374
42
0.41413282455117612
10
48.345005371536445
20
4.0299991253068503
0
LWPOLYLINE
5
159
100
AcDbEntity
8
0
100
AcDbPolyline
90
8
70
1
43
0.0
10
62.559011108532331
20
-16.524003493922738
42
0.41483834656543023
10
62.912999786386223
20
-17.136994879561112
10
75.470007700450552
20
-20.501008840265534
42
0.41372213430578014
10
76.08200726471469
20
-20.147996724995494
10
79.447013046793373
20
-7.591004069721567
42
0.41485564111899514
10
79.093009110149112
20
-6.9779974252928234
10
66.536001196084783
20
-3.6139987233787467
42
0.4137158259182282
10
65.92400163182063
20
-3.9669955798584233
0
LWPOLYLINE
5
160
100
AcDbEntity
8
0
100
AcDbPolyline
90
8
70
1
43
0.0
10
123.22001180019794
20
-84.549010860331904
42
0.41412966054375333
10
123.574008107447
20
-85.161010424596085
10
136.13100839211612
20
-88.526008577279555
42
0.41413282455118439
10
136.7430079563803
20
-88.172004640635294
10
140.10801373845896
20
-75.615004355966164
42
0.41413282455120459
10
139.75400980181465
20
-75.003004791701983
10
127.19700951714556
20
-71.638006639018514
42
0.41412966054375194
10
126.58500995288138
20
-71.992002946267604
0
LWPOLYLINE
5
161
100
AcDbEntity
8
0
100
AcDbPolyline
90
8
70
1
43
0.0
10
36.028002971242742
20
31.447008925581343
42
0.41412571801468756
10
36.028002971242742
20
30.74000813245739
10
45.220996924602623
20
21.54699892030715
42
0.41412571801468023
10
45.927997717726576
20
21.546998920307132
10
55.119999849712222
20
30.740008132457408
42
0.41412571801464343
10
55.119999849712244
20
31.447008925581308
10
45.927997717726598
20
40.639011057566989
42
0.41412571801466552
10
45.220996924602623
20
40.639011057567025
0
LWPOLYLINE
5
162
100
AcDbEntity
8
0
100
AcDbPolyline
90
8
70
1
43
0.0
10
53.628010585869959
20
15.585008051973785
42
0.41421152267659256
10
53.811009258808518
20
14.901994077315535
10
65.06900583087284
20
8.4019935192347681
42
0.41420258432601986
10
65.752004546740693
20
8.5850074509636798
10
72.252005104821492
20
19.843004023027987
42
0.41419931279146482
10
72.069006431882912
20
20.526002738895883
10
60.811009859818611
20
27.026003296976665
42
0.41419931279147892
10
60.128011143950744
20
26.84300462403808
0
LWPOLYLINE
5
163
100
AcDbEntity
8
0
100
AcDbPolyline
90
8
70
1
43
0.0
10
6.5000005580807851
20
38.910007002867175
10
-6.5000005580807851
20
38.910007002867161
42
-0.41421356237311585
10
-7.000000601010095
20
39.410007045796434
10
-7.0000006010100968
20
52.410008161958039
42
-0.41421356237311452
10
-6.5000005580807869
20
52.910008204887319
10
6.5000005580807851
20
52.910008204887319
42
-0.41421356237313667
10
7.000000601010095
20
52.410008161958004
10
7.000000601010079
20
39.410007045796434
42
-0.41421356237311585
0
CIRCLE
5
164
100
AcDbEntity
8
0
100
AcDbCircle
10
0
20
0
30
0
40
32.000002747474667
210
0
220
0
230
1
0
ENDSEC
0
SECTION
2
OBJECTS
0
DICTIONARY
5
C
100
AcDbDictionary
3
ACAD_GROUP
350
D
3
ACAD_MLINESTYLE
350
17
0
DICTIONARY
5
D
100
AcDbDictionary
0
DICTIONARY
5
1A
330
C
100
AcDbDictionary
0
DICTIONARY
5
17
100
AcDbDictionary
0
ENDSEC
0
EOF
