<?xml version="1.0" standalone="no"?>
 <!DOCTYPE svg PUBLIC "-//W3C//DTD SVG 1.1//EN" 
 "http://www.w3.org/Graphics/SVG/1.1/DTD/svg11.dtd"> 
<svg
  xmlns:svg="http://www.w3.org/2000/svg"
  xmlns="http://www.w3.org/2000/svg"
  xmlns:xlink="http://www.w3.org/1999/xlink"
  version="1.1"
  width="329.9968mm" height="155.7274mm" viewBox="0.0000 0.0000 329.9968 155.7274">
<title>SVG Image created as Plate-F_Courtyard.svg date 2023/04/17 23:09:40 </title>
  <desc>Image generated by PCBNEW </desc>
<g style="fill:#000000; fill-opacity:1.0000;stroke:#000000; stroke-opacity:1.0000;
stroke-linecap:round; stroke-linejoin:round;"
 transform="translate(0 0) scale(1 1)">
</g>
<g style="fill:#000000; fill-opacity:0.0; 
stroke:#000000; stroke-width:0.0000; stroke-opacity:1; 
stroke-linecap:round; stroke-linejoin:round;">
</g>
<g style="fill:#FF26E2; fill-opacity:0.0; 
stroke:#FF26E2; stroke-width:0.0000; stroke-opacity:1; 
stroke-linecap:round; stroke-linejoin:round;">
</g>
<g style="fill:#FF26E2; fill-opacity:0.0; 
stroke:#FF26E2; stroke-width:0.0500; stroke-opacity:1; 
stroke-linecap:round; stroke-linejoin:round;">
<circle cx="124.7500" cy="138.2375" r="2.9000" /> 
<circle cx="205.0000" cy="138.2375" r="2.9000" /> 
<circle cx="130.6000" cy="5.2947" r="2.9000" /> 
<circle cx="199.4000" cy="5.2947" r="2.9000" /> 
<circle cx="43.5176" cy="100.3629" r="2.9000" /> 
<circle cx="286.4824" cy="100.3629" r="2.9000" /> 
<g >
</g>
<g >
</g>
<g >
</g>
<g >
</g>
<g >
</g>
<g >
</g>
<g >
</g>
<g >
</g>
<g >
</g>
<g >
</g>
<g >
</g>
<g >
</g>
<g >
</g>
<g >
</g>
<g >
</g>
<g >
</g>
<g >
</g>
<g >
</g>
<g >
</g>
<g >
</g>
<g >
</g>
<g >
</g>
<g >
</g>
<g >
</g>
<g >
</g>
<g >
</g>
<g >
</g>
<g >
</g>
<g >
</g>
<g >
</g>
<g >
</g>
<g >
</g>
<g >
</g>
<g >
</g>
<g >
</g>
<g >
</g>
<g >
</g>
<g >
</g>
<g >
</g>
<g >
</g>
<g >
</g>
<g >
</g>
<g >
</g>
<g >
</g>
<g >
</g>
<g >
</g>
<g >
</g>
<g >
</g>
<g >
</g>
<g >
</g>
<g >
</g>
<g >
</g>
<g >
</g>
<g >
</g>
<g >
</g>
<g >
</g>
<g >
</g>
<g >
</g>
<g >
</g>
<g >
</g>
<g >
</g>
<g >
</g>
<g >
</g>
<g >
</g>
<g >
</g>
<g >
</g>
<g >
</g>
<g >
</g>
<g >
</g>
<g >
</g>
<g >
</g>
<g >
</g>
<g >
</g>
<g >
</g>
</g>
<g style="fill:#000000; fill-opacity:0.0; 
stroke:#000000; stroke-width:0.0500; stroke-opacity:1; 
stroke-linecap:round; stroke-linejoin:round;">
</g>
<g style="fill:#D0D2CD; fill-opacity:0.0; 
stroke:#D0D2CD; stroke-width:0.0500; stroke-opacity:1; 
stroke-linecap:round; stroke-linejoin:round;">
</g>
<g style="fill:#D0D2CD; fill-opacity:0.0; 
stroke:#D0D2CD; stroke-width:0.1000; stroke-opacity:1; 
stroke-linecap:round; stroke-linejoin:round;">
<path d="M301.8000 1.2947
L191.2500 1.2947
" />
<path d="M189.2500 37.2375
L189.2500 3.2947
" />
<path d="M191.2500 1.2947 A2.0000 2.0000 0.0 0 0 189.2500 3.2947" />
<path d="M187.2500 39.2375 A2.0000 2.0000 0.0 0 0 189.2500 37.2375" />
<path d="M140.7500 3.2947 A2.0000 2.0000 0.0 0 0 138.7500 1.2947" />
<path d="M140.7500 37.2375 A2.0000 2.0000 0.0 0 0 142.7500 39.2375" />
<path d="M187.2500 39.2375
L142.7500 39.2375
" />
<path d="M140.7500 3.2947
L140.7500 37.2375
" />
<path d="M75.6156 113.2726
L3.8799 94.0691
" />
<path d="M2.4657 91.6196 A2.0001 2.0001 0.0 0 0 3.8799 94.0691" />
<path d="M28.2000 1.2947 A1.9999 1.9999 0.0 0 0 26.2677 2.7788" />
<path d="M26.2677 2.7788
L2.4657 91.6196
" />
</g>
<g style="fill:#D0D2CD; fill-opacity:0.0; 
stroke:#D0D2CD; stroke-width:0.0500; stroke-opacity:1; 
stroke-linecap:round; stroke-linejoin:round;">
<circle cx="165.0000" cy="80.7375" r="30.0000" /> 
</g>
<g style="fill:#D0D2CD; fill-opacity:0.0; 
stroke:#D0D2CD; stroke-width:0.1000; stroke-opacity:1; 
stroke-linecap:round; stroke-linejoin:round;">
<path d="M303.7323 2.7788 A1.9999 1.9999 0.0 0 0 301.8000 1.2947" />
<path d="M326.1201 94.0691
L254.3844 113.2726
" />
<path d="M131.0863 151.5853 A1.7324 1.7324 0.0 0 0 132.5132 152.3356" />
<path d="M327.5343 91.6196
L303.7323 2.7788
" />
<path d="M326.1201 94.0692 A2.0000 2.0000 0.0 0 0 327.5343 91.6196" />
<path d="M138.7500 1.2947
L28.2000 1.2947
" />
<path d="M197.4867 152.3356 A1.7319 1.7319 0.0 0 0 198.9137 151.5853" />
<path d="M132.5132 152.3356
L197.4867 152.3356
" />
<path d="M254.3844 113.2726 A105.3115 105.3115 0.0 0 0 198.9137 151.5853" />
<path d="M131.0863 151.5853 A105.3118 105.3118 0.0 0 0 75.6156 113.2726" />
</g>
<g style="fill:#D0D2CD; fill-opacity:0.0; 
stroke:#D0D2CD; stroke-width:0.1200; stroke-opacity:1; 
stroke-linecap:round; stroke-linejoin:round;">
<path d="M149.5937 148.2875
L149.5937 135.2875
" />
<path d="M150.0937 134.7875
L156.0937 134.7875
" />
<path d="M156.0937 148.7875
L150.0937 148.7875
" />
<path d="M156.5937 135.2875
L156.5937 148.2875
" />
<path d="M158.0000 149.2875
L158.0000 136.2875
" />
<path d="M158.5000 135.7875
L171.4997 135.7875
" />
<path d="M171.5000 149.7875
L158.5000 149.7875
" />
<path d="M171.9997 136.2875
L172.0000 149.2875
" />
<path d="M173.4062 135.2875
L173.4062 148.2875
" />
<path d="M173.9062 148.7875
L179.9062 148.7875
" />
<path d="M179.9062 134.7875
L173.9062 134.7875
" />
<path d="M180.4062 148.2875
L180.4062 135.2875
" />
</g>
<g style="fill:#D0D2CD; fill-opacity:0.0; 
stroke:#D0D2CD; stroke-width:0.1000; stroke-opacity:1; 
stroke-linecap:round; stroke-linejoin:round;">
<path d="M149.5937 148.2875 A0.5000 0.5000 0.0 0 0 150.0937 148.7875" />
<path d="M150.0937 134.7875 A0.5000 0.5000 0.0 0 0 149.5937 135.2875" />
<path d="M156.0937 148.7875 A0.5000 0.5000 0.0 0 0 156.5937 148.2875" />
<path d="M156.5937 135.2875 A0.5000 0.5000 0.0 0 0 156.0937 134.7875" />
<path d="M158.0000 149.2875 A0.5000 0.5000 0.0 0 0 158.5000 149.7875" />
<path d="M158.5000 135.7875 A0.5000 0.5000 0.0 0 0 158.0000 136.2875" />
<path d="M171.5000 149.7875 A0.5000 0.5000 0.0 0 0 172.0000 149.2875" />
<path d="M171.9997 136.2875 A0.5000 0.5000 0.0 0 0 171.4997 135.7875" />
<path d="M173.4063 148.2875 A0.5000 0.5000 0.0 0 0 173.9062 148.7875" />
<path d="M173.9062 134.7875 A0.5000 0.5000 0.0 0 0 173.4062 135.2875" />
<path d="M179.9062 148.7876 A0.5000 0.5000 0.0 0 0 180.4062 148.2875" />
<path d="M180.4062 135.2875 A0.5000 0.5000 0.0 0 0 179.9062 134.7875" />
<path d="M218.5728 62.7433
L221.9374 75.3003
" />
<path d="M221.5839 75.9127
L209.0268 79.2773
" />
<path d="M217.9604 62.3897
L205.4034 65.7544
" />
<path d="M205.0498 66.3668
L208.4145 78.9238
" />
<path d="M221.5839 75.9127 A0.5000 0.5000 0.0 0 0 221.9374 75.3003" />
<path d="M218.5728 62.7433 A0.5000 0.5000 0.0 0 0 217.9604 62.3897" />
<path d="M208.4145 78.9238 A0.5000 0.5000 0.0 0 0 209.0268 79.2773" />
<path d="M205.4034 65.7544 A0.5000 0.5000 0.0 0 0 205.0498 66.3668" />
<path d="M268.0232 26.4841
L271.3878 39.0411
" />
<path d="M271.0343 39.6535
L258.4773 43.0181
" />
<path d="M267.4108 26.1305
L254.8538 29.4952
" />
<path d="M254.5002 30.1076
L257.8649 42.6646
" />
<path d="M271.0343 39.6535 A0.5000 0.5000 0.0 0 0 271.3878 39.0411" />
<path d="M268.0232 26.4841 A0.5000 0.5000 0.0 0 0 267.4108 26.1305" />
<path d="M257.8649 42.6646 A0.5000 0.5000 0.0 0 0 258.4773 43.0181" />
<path d="M254.8538 29.4952 A0.5000 0.5000 0.0 0 0 254.5002 30.1076" />
<path d="M213.6423 44.3424
L217.0069 56.8994
" />
<path d="M216.6534 57.5118
L204.0963 60.8765
" />
<path d="M213.0299 43.9889
L200.4729 47.3535
" />
<path d="M200.1193 47.9659
L203.4840 60.5229
" />
<path d="M216.6534 57.5118 A0.5000 0.5000 0.0 0 0 217.0069 56.8994" />
<path d="M213.6423 44.3424 A0.5000 0.5000 0.0 0 0 213.0299 43.9889" />
<path d="M203.4840 60.5229 A0.5000 0.5000 0.0 0 0 204.0963 60.8765" />
<path d="M200.4729 47.3535 A0.5000 0.5000 0.0 0 0 200.1193 47.9659" />
<path d="M282.7262 7.7529
L286.0908 20.3100
" />
<path d="M285.7373 20.9223
L273.1803 24.2870
" />
<path d="M282.1138 7.3994
L269.5568 10.7640
" />
<path d="M269.2032 11.3764
L272.5679 23.9334
" />
<path d="M285.7373 20.9223 A0.5000 0.5000 0.0 0 0 286.0908 20.3100" />
<path d="M282.7262 7.7529 A0.5000 0.5000 0.0 0 0 282.1138 7.3994" />
<path d="M272.5679 23.9334 A0.5000 0.5000 0.0 0 0 273.1803 24.2870" />
<path d="M269.5568 10.7640 A0.5000 0.5000 0.0 0 0 269.2032 11.3764" />
<path d="M321.4654 78.7261
L324.8300 91.2831
" />
<path d="M324.4765 91.8955
L311.9195 95.2601
" />
<path d="M320.8530 78.3725
L308.2960 81.7372
" />
<path d="M307.9424 82.3495
L311.3071 94.9066
" />
<path d="M324.4765 91.8955 A0.5000 0.5000 0.0 0 0 324.8300 91.2831" />
<path d="M321.4654 78.7261 A0.5000 0.5000 0.0 0 0 320.8530 78.3725" />
<path d="M311.3071 94.9066 A0.5000 0.5000 0.0 0 0 311.9195 95.2601" />
<path d="M308.2960 81.7372 A0.5000 0.5000 0.0 0 0 307.9424 82.3495" />
<path d="M208.7118 25.9415
L212.0764 38.4986
" />
<path d="M211.7229 39.1109
L199.1658 42.4756
" />
<path d="M208.0994 25.5880
L195.5424 28.9526
" />
<path d="M195.1888 29.5650
L198.5535 42.1220
" />
<path d="M211.7229 39.1109 A0.5000 0.5000 0.0 0 0 212.0764 38.4986" />
<path d="M208.7118 25.9415 A0.5000 0.5000 0.0 0 0 208.0994 25.5880" />
<path d="M198.5535 42.1220 A0.5000 0.5000 0.0 0 0 199.1658 42.4756" />
<path d="M195.5424 28.9526 A0.5000 0.5000 0.0 0 0 195.1888 29.5650" />
<path d="M41.0748 84.9799
L37.7101 97.5370
" />
<path d="M37.0978 97.8905
L24.5407 94.5259
" />
<path d="M40.7212 84.3676
L28.1642 81.0029
" />
<path d="M27.5518 81.3565
L24.1872 93.9135
" />
<path d="M37.0978 97.8905 A0.5000 0.5000 0.0 0 0 37.7101 97.5370" />
<path d="M41.0748 84.9799 A0.5000 0.5000 0.0 0 0 40.7212 84.3676" />
<path d="M24.1872 93.9135 A0.5000 0.5000 0.0 0 0 24.5407 94.5259" />
<path d="M28.1642 81.0029 A0.5000 0.5000 0.0 0 0 27.5518 81.3565" />
<path d="M172.0000 117.2375
L172.0000 130.2375
" />
<path d="M171.5000 130.7375
L158.5000 130.7375
" />
<path d="M171.5000 116.7375
L158.5000 116.7375
" />
<path d="M158.0000 117.2375
L158.0000 130.2375
" />
<path d="M171.5000 130.7375 A0.5000 0.5000 0.0 0 0 172.0000 130.2375" />
<path d="M172.0000 117.2375 A0.5000 0.5000 0.0 0 0 171.5000 116.7375" />
<path d="M158.0000 130.2375 A0.5000 0.5000 0.0 0 0 158.5000 130.7375" />
<path d="M158.5000 116.7375 A0.5000 0.5000 0.0 0 0 158.0000 117.2375" />
<path d="M31.9186 45.5478
L28.5539 58.1048
" />
<path d="M27.9415 58.4583
L15.3845 55.0937
" />
<path d="M31.5650 44.9354
L19.0080 41.5707
" />
<path d="M18.3956 41.9243
L15.0310 54.4813
" />
<path d="M27.9415 58.4583 A0.5000 0.5000 0.0 0 0 28.5539 58.1048" />
<path d="M31.9186 45.5478 A0.5000 0.5000 0.0 0 0 31.5650 44.9354" />
<path d="M15.0310 54.4813 A0.5000 0.5000 0.0 0 0 15.3845 55.0937" />
<path d="M19.0080 41.5707 A0.5000 0.5000 0.0 0 0 18.3956 41.9243" />
<path d="M287.6567 26.1538
L291.0214 38.7108
" />
<path d="M290.6678 39.3232
L278.1108 42.6878
" />
<path d="M287.0443 25.8002
L274.4873 29.1649
" />
<path d="M274.1337 29.7773
L277.4984 42.3343
" />
<path d="M290.6678 39.3232 A0.5000 0.5000 0.0 0 0 291.0214 38.7108" />
<path d="M287.6567 26.1538 A0.5000 0.5000 0.0 0 0 287.0443 25.8002" />
<path d="M277.4984 42.3343 A0.5000 0.5000 0.0 0 0 278.1108 42.6878" />
<path d="M274.4873 29.1649 A0.5000 0.5000 0.0 0 0 274.1337 29.7773" />
<path d="M117.2321 21.5677
L113.8674 34.1247
" />
<path d="M113.2551 34.4782
L100.6980 31.1136
" />
<path d="M116.8785 20.9553
L104.3215 17.5906
" />
<path d="M103.7091 17.9442
L100.3445 30.5012
" />
<path d="M113.2551 34.4782 A0.5000 0.5000 0.0 0 0 113.8674 34.1247" />
<path d="M117.2321 21.5677 A0.5000 0.5000 0.0 0 0 116.8785 20.9553" />
<path d="M100.3445 30.5012 A0.5000 0.5000 0.0 0 0 100.6980 31.1136" />
<path d="M104.3215 17.5906 A0.5000 0.5000 0.0 0 0 103.7091 17.9442" />
<path d="M151.7758 115.5697
L145.2758 126.8281
" />
<path d="M144.5928 127.0111
L133.3344 120.5111
" />
<path d="M151.5928 114.8867
L140.3344 108.3867
" />
<path d="M139.6514 108.5697
L133.1514 119.8281
" />
<path d="M144.5928 127.0111 A0.5000 0.5000 0.0 0 0 145.2758 126.8281" />
<path d="M151.7758 115.5697 A0.5000 0.5000 0.0 0 0 151.5928 114.8867" />
<path d="M133.1514 119.8281 A0.5000 0.5000 0.0 0 0 133.3344 120.5111" />
<path d="M140.3344 108.3867 A0.5000 0.5000 0.0 0 0 139.6514 108.5697" />
<path d="M253.5256 45.9819
L256.8903 58.5390
" />
<path d="M256.5367 59.1513
L243.9797 62.5160
" />
<path d="M252.9132 45.6284
L240.3562 48.9930
" />
<path d="M240.0026 49.6054
L243.3673 62.1624
" />
<path d="M256.5367 59.1513 A0.5000 0.5000 0.0 0 0 256.8903 58.5390" />
<path d="M253.5256 45.9819 A0.5000 0.5000 0.0 0 0 252.9132 45.6284" />
<path d="M243.3673 62.1624 A0.5000 0.5000 0.0 0 0 243.9797 62.5160" />
<path d="M240.3562 48.9930 A0.5000 0.5000 0.0 0 0 240.0026 49.6054" />
<path d="M231.3656 101.6448
L237.8656 112.9032
" />
<path d="M237.6826 113.5862
L226.4243 120.0862
" />
<path d="M230.6826 101.4618
L219.4243 107.9618
" />
<path d="M219.2413 108.6448
L225.7413 119.9032
" />
<path d="M237.6826 113.5862 A0.5000 0.5000 0.0 0 0 237.8656 112.9032" />
<path d="M231.3656 101.6448 A0.5000 0.5000 0.0 0 0 230.6826 101.4618" />
<path d="M225.7413 119.9032 A0.5000 0.5000 0.0 0 0 226.4243 120.0862" />
<path d="M219.4243 107.9618 A0.5000 0.5000 0.0 0 0 219.2413 108.6448" />
<path d="M41.7796 8.7460
L38.4149 21.3030
" />
<path d="M37.8026 21.6566
L25.2455 18.2919
" />
<path d="M41.4260 8.1336
L28.8690 4.7689
" />
<path d="M28.2566 5.1225
L24.8920 17.6795
" />
<path d="M37.8026 21.6566 A0.5000 0.5000 0.0 0 0 38.4149 21.3030" />
<path d="M41.7796 8.7460 A0.5000 0.5000 0.0 0 0 41.4260 8.1336" />
<path d="M24.8920 17.6795 A0.5000 0.5000 0.0 0 0 25.2455 18.2919" />
<path d="M28.8690 4.7690 A0.5000 0.5000 0.0 0 0 28.2566 5.1225" />
<path d="M301.7434 5.1225
L305.1080 17.6796
" />
<path d="M304.7545 18.2919
L292.1975 21.6566
" />
<path d="M301.1310 4.7690
L288.5740 8.1336
" />
<path d="M288.2204 8.7460
L291.5851 21.3030
" />
<path d="M304.7545 18.2919 A0.5000 0.5000 0.0 0 0 305.1080 17.6796" />
<path d="M301.7434 5.1225 A0.5000 0.5000 0.0 0 0 301.1310 4.7690" />
<path d="M291.5851 21.3030 A0.5000 0.5000 0.0 0 0 292.1975 21.6566" />
<path d="M288.5740 8.1336 A0.5000 0.5000 0.0 0 0 288.2204 8.7460" />
<path d="M36.8491 27.1469
L33.4844 39.7039
" />
<path d="M32.8721 40.0575
L20.3150 36.6928
" />
<path d="M36.4955 26.5345
L23.9385 23.1698
" />
<path d="M23.3261 23.5234
L19.9615 36.0804
" />
<path d="M32.8721 40.0575 A0.5000 0.5000 0.0 0 0 33.4844 39.7039" />
<path d="M36.8491 27.1469 A0.5000 0.5000 0.0 0 0 36.4955 26.5345" />
<path d="M19.9615 36.0804 A0.5000 0.5000 0.0 0 0 20.3150 36.6928" />
<path d="M23.9385 23.1698 A0.5000 0.5000 0.0 0 0 23.3261 23.5234" />
<path d="M107.3711 58.3695
L104.0064 70.9265
" />
<path d="M103.3941 71.2800
L90.8370 67.9154
" />
<path d="M107.0175 57.7571
L94.4605 54.3924
" />
<path d="M93.8481 54.7460
L90.4835 67.3030
" />
<path d="M103.3941 71.2800 A0.5000 0.5000 0.0 0 0 104.0064 70.9265" />
<path d="M107.3711 58.3695 A0.5000 0.5000 0.0 0 0 107.0175 57.7571" />
<path d="M90.4835 67.3030 A0.5000 0.5000 0.0 0 0 90.8370 67.9154" />
<path d="M94.4605 54.3924 A0.5000 0.5000 0.0 0 0 93.8481 54.7460" />
<path d="M50.9358 48.1781
L47.5711 60.7352
" />
<path d="M46.9588 61.0887
L34.4017 57.7241
" />
<path d="M50.5822 47.5658
L38.0252 44.2011
" />
<path d="M37.4128 44.5547
L34.0482 57.1117
" />
<path d="M46.9588 61.0887 A0.5000 0.5000 0.0 0 0 47.5711 60.7352" />
<path d="M50.9358 48.1781 A0.5000 0.5000 0.0 0 0 50.5822 47.5658" />
<path d="M34.0482 57.1117 A0.5000 0.5000 0.0 0 0 34.4017 57.7241" />
<path d="M38.0252 44.2011 A0.5000 0.5000 0.0 0 0 37.4128 44.5547" />
<path d="M282.8147 81.6867
L286.1793 94.2438
" />
<path d="M285.8258 94.8562
L273.2688 98.2208
" />
<path d="M282.2023 81.3332
L269.6453 84.6978
" />
<path d="M269.2917 85.3102
L272.6564 97.8673
" />
<path d="M285.8258 94.8562 A0.5000 0.5000 0.0 0 0 286.1793 94.2438" />
<path d="M282.8147 81.6867 A0.5000 0.5000 0.0 0 0 282.2023 81.3332" />
<path d="M272.6564 97.8673 A0.5000 0.5000 0.0 0 0 273.2688 98.2208" />
<path d="M269.6453 84.6978 A0.5000 0.5000 0.0 0 0 269.2917 85.3102" />
<path d="M258.4561 64.3828
L261.8208 76.9399
" />
<path d="M261.4672 77.5522
L248.9102 80.9169
" />
<path d="M257.8438 64.0293
L245.2867 67.3939
" />
<path d="M244.9332 68.0063
L248.2978 80.5633
" />
<path d="M261.4672 77.5522 A0.5000 0.5000 0.0 0 0 261.8208 76.9399" />
<path d="M258.4561 64.3828 A0.5000 0.5000 0.0 0 0 257.8438 64.0293" />
<path d="M248.2978 80.5633 A0.5000 0.5000 0.0 0 0 248.9102 80.9169" />
<path d="M245.2867 67.3939 A0.5000 0.5000 0.0 0 0 244.9332 68.0063" />
<path d="M129.8807 47.9659
L126.5161 60.5229
" />
<path d="M125.9037 60.8765
L113.3466 57.5118
" />
<path d="M129.5271 47.3535
L116.9701 43.9889
" />
<path d="M116.3577 44.3424
L112.9931 56.8994
" />
<path d="M125.9037 60.8765 A0.5000 0.5000 0.0 0 0 126.5161 60.5229" />
<path d="M129.8807 47.9659 A0.5000 0.5000 0.0 0 0 129.5271 47.3535" />
<path d="M112.9931 56.8994 A0.5000 0.5000 0.0 0 0 113.3466 57.5118" />
<path d="M116.9701 43.9889 A0.5000 0.5000 0.0 0 0 116.3577 44.3424" />
<path d="M89.9973 49.6054
L86.6327 62.1624
" />
<path d="M86.0203 62.5160
L73.4633 59.1513
" />
<path d="M89.6438 48.9930
L77.0868 45.6284
" />
<path d="M76.4744 45.9819
L73.1097 58.5390
" />
<path d="M86.0203 62.5160 A0.5000 0.5000 0.0 0 0 86.6327 62.1624" />
<path d="M89.9973 49.6054 A0.5000 0.5000 0.0 0 0 89.6438 48.9930" />
<path d="M73.1097 58.5390 A0.5000 0.5000 0.0 0 0 73.4633 59.1513" />
<path d="M77.0868 45.6284 A0.5000 0.5000 0.0 0 0 76.4744 45.9819" />
<path d="M90.1438 98.1279
L86.7791 110.6850
" />
<path d="M86.1668 111.0385
L73.6097 107.6739
" />
<path d="M89.7902 97.5156
L77.2332 94.1509
" />
<path d="M76.6208 94.5045
L73.2562 107.0615
" />
<path d="M86.1668 111.0385 A0.5000 0.5000 0.0 0 0 86.7791 110.6850" />
<path d="M90.1438 98.1279 A0.5000 0.5000 0.0 0 0 89.7902 97.5156" />
<path d="M73.2562 107.0615 A0.5000 0.5000 0.0 0 0 73.6097 107.6739" />
<path d="M77.2332 94.1509 A0.5000 0.5000 0.0 0 0 76.6208 94.5045" />
<path d="M297.5177 62.9556
L300.8824 75.5126
" />
<path d="M300.5288 76.1250
L287.9718 79.4896
" />
<path d="M296.9053 62.6020
L284.3483 65.9667
" />
<path d="M283.9948 66.5790
L287.3594 79.1361
" />
<path d="M300.5288 76.1250 A0.5000 0.5000 0.0 0 0 300.8824 75.5126" />
<path d="M297.5177 62.9556 A0.5000 0.5000 0.0 0 0 296.9053 62.6020" />
<path d="M287.3594 79.1361 A0.5000 0.5000 0.0 0 0 287.9718 79.4896" />
<path d="M284.3483 65.9667 A0.5000 0.5000 0.0 0 0 283.9948 66.5790" />
<path d="M211.9502 114.2395
L221.1426 123.4318
" />
<path d="M221.1426 124.1390
L211.9502 133.3313
" />
<path d="M211.2431 114.2395
L202.0507 123.4318
" />
<path d="M202.0507 124.1390
L211.2431 133.3313
" />
<path d="M221.1426 124.1390 A0.5000 0.5000 0.0 0 0 221.1426 123.4319" />
<path d="M211.9502 114.2395 A0.5000 0.5000 0.0 0 0 211.2431 114.2395" />
<path d="M211.2431 133.3313 A0.5000 0.5000 0.0 0 0 211.9502 133.3313" />
<path d="M202.0507 123.4319 A0.5000 0.5000 0.0 0 0 202.0507 124.1390" />
<path d="M60.7083 85.3102
L57.3436 97.8672
" />
<path d="M56.7313 98.2208
L44.1742 94.8561
" />
<path d="M60.3547 84.6978
L47.7977 81.3332
" />
<path d="M47.1853 81.6867
L43.8207 94.2438
" />
<path d="M56.7313 98.2208 A0.5000 0.5000 0.0 0 0 57.3436 97.8672" />
<path d="M60.7083 85.3102 A0.5000 0.5000 0.0 0 0 60.3547 84.6978" />
<path d="M43.8207 94.2438 A0.5000 0.5000 0.0 0 0 44.1742 94.8561" />
<path d="M47.7977 81.3332 A0.5000 0.5000 0.0 0 0 47.1853 81.6867" />
<path d="M272.9537 44.8850
L276.3183 57.4420
" />
<path d="M275.9648 58.0544
L263.4078 61.4190
" />
<path d="M272.3413 44.5314
L259.7843 47.8961
" />
<path d="M259.4307 48.5084
L262.7954 61.0655
" />
<path d="M275.9648 58.0544 A0.5000 0.5000 0.0 0 0 276.3183 57.4420" />
<path d="M272.9537 44.8850 A0.5000 0.5000 0.0 0 0 272.3413 44.5314" />
<path d="M262.7954 61.0655 A0.5000 0.5000 0.0 0 0 263.4078 61.4190" />
<path d="M259.7843 47.8961 A0.5000 0.5000 0.0 0 0 259.4307 48.5084" />
<path d="M311.6044 41.9243
L314.9690 54.4813
" />
<path d="M314.6155 55.0937
L302.0585 58.4583
" />
<path d="M310.9920 41.5707
L298.4350 44.9354
" />
<path d="M298.0814 45.5477
L301.4461 58.1048
" />
<path d="M314.6155 55.0937 A0.5000 0.5000 0.0 0 0 314.9690 54.4813" />
<path d="M311.6044 41.9243 A0.5000 0.5000 0.0 0 0 310.9920 41.5707" />
<path d="M301.4461 58.1048 A0.5000 0.5000 0.0 0 0 302.0585 58.4583" />
<path d="M298.4350 44.9354 A0.5000 0.5000 0.0 0 0 298.0814 45.5477" />
<path d="M253.3792 94.5045
L256.7438 107.0615
" />
<path d="M256.3903 107.6739
L243.8332 111.0385
" />
<path d="M252.7668 94.1509
L240.2098 97.5155
" />
<path d="M239.8562 98.1279
L243.2209 110.6850
" />
<path d="M256.3903 107.6739 A0.5000 0.5000 0.0 0 0 256.7438 107.0615" />
<path d="M253.3792 94.5045 A0.5000 0.5000 0.0 0 0 252.7668 94.1509" />
<path d="M243.2209 110.6850 A0.5000 0.5000 0.0 0 0 243.8332 111.0385" />
<path d="M240.2098 97.5155 A0.5000 0.5000 0.0 0 0 239.8562 98.1279" />
<path d="M80.4303 11.7067
L77.0657 24.2637
" />
<path d="M76.4533 24.6173
L63.8962 21.2526
" />
<path d="M80.0767 11.0943
L67.5197 7.7297
" />
<path d="M66.9073 8.0832
L63.5427 20.6402
" />
<path d="M76.4533 24.6173 A0.5000 0.5000 0.0 0 0 77.0657 24.2637" />
<path d="M80.4303 11.7067 A0.5000 0.5000 0.0 0 0 80.0767 11.0943" />
<path d="M63.5427 20.6402 A0.5000 0.5000 0.0 0 0 63.8962 21.2526" />
<path d="M67.5197 7.7297 A0.5000 0.5000 0.0 0 0 66.9073 8.0832" />
<path d="M110.7588 108.6449
L104.2588 119.9032
" />
<path d="M103.5757 120.0862
L92.3174 113.5862
" />
<path d="M110.5757 107.9618
L99.3174 101.4618
" />
<path d="M98.6344 101.6449
L92.1344 112.9032
" />
<path d="M103.5757 120.0862 A0.5000 0.5000 0.0 0 0 104.2588 119.9032" />
<path d="M110.7588 108.6449 A0.5000 0.5000 0.0 0 0 110.5757 107.9618" />
<path d="M92.1344 112.9032 A0.5000 0.5000 0.0 0 0 92.3174 113.5862" />
<path d="M99.3174 101.4618 A0.5000 0.5000 0.0 0 0 98.6344 101.6449" />
<path d="M94.9279 31.2045
L91.5632 43.7616
" />
<path d="M90.9509 44.1151
L78.3938 40.7505
" />
<path d="M94.5743 30.5922
L82.0173 27.2275
" />
<path d="M81.4049 27.5811
L78.0403 40.1381
" />
<path d="M90.9509 44.1151 A0.5000 0.5000 0.0 0 0 91.5632 43.7616" />
<path d="M94.9279 31.2045 A0.5000 0.5000 0.0 0 0 94.5743 30.5922" />
<path d="M78.0403 40.1381 A0.5000 0.5000 0.0 0 0 78.3938 40.7505" />
<path d="M82.0173 27.2275 A0.5000 0.5000 0.0 0 0 81.4049 27.5811" />
<path d="M60.7968 11.3764
L57.4321 23.9334
" />
<path d="M56.8198 24.2870
L44.2627 20.9223
" />
<path d="M60.4432 10.7640
L47.8862 7.3994
" />
<path d="M47.2738 7.7529
L43.9092 20.3099
" />
<path d="M56.8198 24.2870 A0.5000 0.5000 0.0 0 0 57.4321 23.9334" />
<path d="M60.7968 11.3764 A0.5000 0.5000 0.0 0 0 60.4432 10.7640" />
<path d="M43.9092 20.3099 A0.5000 0.5000 0.0 0 0 44.2627 20.9223" />
<path d="M47.8862 7.3994 A0.5000 0.5000 0.0 0 0 47.2738 7.7529" />
<path d="M306.6739 23.5234
L310.0385 36.0804
" />
<path d="M309.6850 36.6928
L297.1279 40.0575
" />
<path d="M306.0615 23.1698
L293.5045 26.5345
" />
<path d="M293.1509 27.1469
L296.5156 39.7039
" />
<path d="M309.6850 36.6928 A0.5000 0.5000 0.0 0 0 310.0385 36.0804" />
<path d="M306.6739 23.5234 A0.5000 0.5000 0.0 0 0 306.0615 23.1698" />
<path d="M296.5156 39.7039 A0.5000 0.5000 0.0 0 0 297.1279 40.0575" />
<path d="M293.5045 26.5345 A0.5000 0.5000 0.0 0 0 293.1509 27.1469" />
<path d="M263.0927 8.0832
L266.4573 20.6402
" />
<path d="M266.1038 21.2526
L253.5467 24.6173
" />
<path d="M262.4803 7.7297
L249.9233 11.0943
" />
<path d="M249.5697 11.7067
L252.9344 24.2637
" />
<path d="M266.1038 21.2526 A0.5000 0.5000 0.0 0 0 266.4573 20.6402" />
<path d="M263.0927 8.0832 A0.5000 0.5000 0.0 0 0 262.4803 7.7297" />
<path d="M252.9344 24.2637 A0.5000 0.5000 0.0 0 0 253.5467 24.6173" />
<path d="M249.9233 11.0943 A0.5000 0.5000 0.0 0 0 249.5697 11.7067" />
<path d="M99.8584 12.8036
L96.4937 25.3607
" />
<path d="M95.8814 25.7142
L83.3243 22.3496
" />
<path d="M99.5048 12.1913
L86.9478 8.8266
" />
<path d="M86.3354 9.1802
L82.9708 21.7372
" />
<path d="M95.8814 25.7142 A0.5000 0.5000 0.0 0 0 96.4937 25.3607" />
<path d="M99.8584 12.8036 A0.5000 0.5000 0.0 0 0 99.5048 12.1913" />
<path d="M82.9708 21.7372 A0.5000 0.5000 0.0 0 0 83.3243 22.3496" />
<path d="M86.9478 8.8266 A0.5000 0.5000 0.0 0 0 86.3354 9.1802" />
<path d="M292.5872 44.5547
L295.9519 57.1117
" />
<path d="M295.5983 57.7241
L283.0413 61.0887
" />
<path d="M291.9748 44.2011
L279.4178 47.5658
" />
<path d="M279.0642 48.1781
L282.4289 60.7352
" />
<path d="M295.5983 57.7241 A0.5000 0.5000 0.0 0 0 295.9519 57.1117" />
<path d="M292.5872 44.5547 A0.5000 0.5000 0.0 0 0 291.9748 44.2011" />
<path d="M282.4289 60.7352 A0.5000 0.5000 0.0 0 0 283.0413 61.0887" />
<path d="M279.4178 47.5658 A0.5000 0.5000 0.0 0 0 279.0642 48.1781" />
<path d="M316.5349 60.3252
L319.8995 72.8822
" />
<path d="M319.5460 73.4946
L306.9890 76.8592
" />
<path d="M315.9225 59.9716
L303.3655 63.3363
" />
<path d="M303.0119 63.9487
L306.3766 76.5057
" />
<path d="M319.5460 73.4946 A0.5000 0.5000 0.0 0 0 319.8995 72.8822" />
<path d="M316.5349 60.3252 A0.5000 0.5000 0.0 0 0 315.9225 59.9716" />
<path d="M306.3766 76.5057 A0.5000 0.5000 0.0 0 0 306.9890 76.8592" />
<path d="M303.3655 63.3363 A0.5000 0.5000 0.0 0 0 303.0119 63.9487" />
<path d="M190.3486 108.5697
L196.8486 119.8281
" />
<path d="M196.6656 120.5111
L185.4072 127.0111
" />
<path d="M189.6656 108.3867
L178.4072 114.8867
" />
<path d="M178.2242 115.5697
L184.7242 126.8281
" />
<path d="M196.6656 120.5111 A0.5000 0.5000 0.0 0 0 196.8486 119.8281" />
<path d="M190.3486 108.5697 A0.5000 0.5000 0.0 0 0 189.6656 108.3867" />
<path d="M184.7242 126.8281 A0.5000 0.5000 0.0 0 0 185.4072 127.0111" />
<path d="M178.4072 114.8867 A0.5000 0.5000 0.0 0 0 178.2242 115.5697" />
<path d="M102.4406 76.7703
L99.0759 89.3274
" />
<path d="M98.4636 89.6809
L85.9065 86.3163
" />
<path d="M102.0870 76.1579
L89.5300 72.7933
" />
<path d="M88.9176 73.1468
L85.5530 85.7039
" />
<path d="M98.4636 89.6809 A0.5000 0.5000 0.0 0 0 99.0759 89.3274" />
<path d="M102.4406 76.7703 A0.5000 0.5000 0.0 0 0 102.0870 76.1579" />
<path d="M85.5530 85.7039 A0.5000 0.5000 0.0 0 0 85.9065 86.3163" />
<path d="M89.5300 72.7933 A0.5000 0.5000 0.0 0 0 88.9176 73.1468" />
<path d="M134.8112 29.5650
L131.4466 42.1220
" />
<path d="M130.8342 42.4756
L118.2771 39.1109
" />
<path d="M134.4576 28.9526
L121.9006 25.5880
" />
<path d="M121.2882 25.9415
L117.9236 38.4985
" />
<path d="M130.8342 42.4756 A0.5000 0.5000 0.0 0 0 131.4466 42.1220" />
<path d="M134.8112 29.5650 A0.5000 0.5000 0.0 0 0 134.4576 28.9526" />
<path d="M117.9236 38.4985 A0.5000 0.5000 0.0 0 0 118.2771 39.1109" />
<path d="M121.9006 25.5880 A0.5000 0.5000 0.0 0 0 121.2882 25.9415" />
<path d="M277.8842 63.2859
L281.2488 75.8429
" />
<path d="M280.8953 76.4553
L268.3383 79.8199
" />
<path d="M277.2718 62.9323
L264.7148 66.2970
" />
<path d="M264.3612 66.9093
L267.7259 79.4664
" />
<path d="M280.8953 76.4553 A0.5000 0.5000 0.0 0 0 281.2488 75.8429" />
<path d="M277.8842 63.2859 A0.5000 0.5000 0.0 0 0 277.2718 62.9323" />
<path d="M267.7259 79.4664 A0.5000 0.5000 0.0 0 0 268.3383 79.8199" />
<path d="M264.7148 66.2970 A0.5000 0.5000 0.0 0 0 264.3612 66.9093" />
<path d="M124.9502 66.3668
L121.5856 78.9238
" />
<path d="M120.9732 79.2773
L108.4161 75.9127
" />
<path d="M124.5966 65.7544
L112.0396 62.3897
" />
<path d="M111.4272 62.7433
L108.0626 75.3003
" />
<path d="M120.9732 79.2773 A0.5000 0.5000 0.0 0 0 121.5856 78.9238" />
<path d="M124.9502 66.3668 A0.5000 0.5000 0.0 0 0 124.5966 65.7544" />
<path d="M108.0626 75.3003 A0.5000 0.5000 0.0 0 0 108.4161 75.9127" />
<path d="M112.0396 62.3897 A0.5000 0.5000 0.0 0 0 111.4272 62.7433" />
<path d="M55.8663 29.7773
L52.5016 42.3343
" />
<path d="M51.8893 42.6878
L39.3322 39.3232
" />
<path d="M55.5127 29.1649
L42.9557 25.8002
" />
<path d="M42.3433 26.1538
L38.9787 38.7108
" />
<path d="M51.8893 42.6878 A0.5000 0.5000 0.0 0 0 52.5016 42.3343" />
<path d="M55.8663 29.7773 A0.5000 0.5000 0.0 0 0 55.5127 29.1649" />
<path d="M38.9787 38.7108 A0.5000 0.5000 0.0 0 0 39.3322 39.3232" />
<path d="M42.9557 25.8002 A0.5000 0.5000 0.0 0 0 42.3433 26.1538" />
<path d="M243.6646 9.1802
L247.0293 21.7372
" />
<path d="M246.6757 22.3496
L234.1187 25.7142
" />
<path d="M243.0522 8.8266
L230.4952 12.1913
" />
<path d="M230.1416 12.8036
L233.5063 25.3607
" />
<path d="M246.6757 22.3496 A0.5000 0.5000 0.0 0 0 247.0293 21.7372" />
<path d="M243.6646 9.1802 A0.5000 0.5000 0.0 0 0 243.0522 8.8266" />
<path d="M233.5063 25.3607 A0.5000 0.5000 0.0 0 0 234.1187 25.7142" />
<path d="M230.4952 12.1913 A0.5000 0.5000 0.0 0 0 230.1416 12.8036" />
<path d="M85.0669 68.0063
L81.7022 80.5633
" />
<path d="M81.0898 80.9169
L68.5328 77.5522
" />
<path d="M84.7133 67.3939
L72.1563 64.0293
" />
<path d="M71.5439 64.3828
L68.1793 76.9398
" />
<path d="M81.0898 80.9169 A0.5000 0.5000 0.0 0 0 81.7022 80.5633" />
<path d="M85.0669 68.0063 A0.5000 0.5000 0.0 0 0 84.7133 67.3939" />
<path d="M68.1793 76.9398 A0.5000 0.5000 0.0 0 0 68.5328 77.5522" />
<path d="M72.1563 64.0293 A0.5000 0.5000 0.0 0 0 71.5439 64.3828" />
<path d="M241.0824 73.1469
L244.4471 85.7039
" />
<path d="M244.0935 86.3163
L231.5365 89.6809
" />
<path d="M240.4701 72.7933
L227.9130 76.1580
" />
<path d="M227.5595 76.7703
L230.9241 89.3274
" />
<path d="M244.0935 86.3163 A0.5000 0.5000 0.0 0 0 244.4471 85.7039" />
<path d="M241.0824 73.1469 A0.5000 0.5000 0.0 0 0 240.4701 72.7933" />
<path d="M230.9241 89.3274 A0.5000 0.5000 0.0 0 0 231.5365 89.6809" />
<path d="M227.9130 76.1580 A0.5000 0.5000 0.0 0 0 227.5595 76.7703" />
<path d="M112.3016 39.9685
L108.9369 52.5256
" />
<path d="M108.3245 52.8791
L95.7675 49.5145
" />
<path d="M111.9480 39.3562
L99.3910 35.9915
" />
<path d="M98.7786 36.3451
L95.4140 48.9021
" />
<path d="M108.3245 52.8791 A0.5000 0.5000 0.0 0 0 108.9369 52.5256" />
<path d="M112.3016 39.9685 A0.5000 0.5000 0.0 0 0 111.9480 39.3562" />
<path d="M95.4140 48.9021 A0.5000 0.5000 0.0 0 0 95.7675 49.5145" />
<path d="M99.3910 35.9915 A0.5000 0.5000 0.0 0 0 98.7786 36.3451" />
<path d="M248.5951 27.5811
L251.9598 40.1381
" />
<path d="M251.6062 40.7505
L239.0492 44.1151
" />
<path d="M247.9827 27.2275
L235.4257 30.5921
" />
<path d="M235.0721 31.2045
L238.4368 43.7616
" />
<path d="M251.6062 40.7505 A0.5000 0.5000 0.0 0 0 251.9598 40.1381" />
<path d="M248.5951 27.5811 A0.5000 0.5000 0.0 0 0 247.9827 27.2275" />
<path d="M238.4368 43.7616 A0.5000 0.5000 0.0 0 0 239.0492 44.1151" />
<path d="M235.4257 30.5921 A0.5000 0.5000 0.0 0 0 235.0721 31.2045" />
<path d="M22.0576 82.3495
L18.6929 94.9066
" />
<path d="M18.0806 95.2601
L5.5235 91.8955
" />
<path d="M21.7040 81.7372
L9.1470 78.3725
" />
<path d="M8.5346 78.7261
L5.1700 91.2831
" />
<path d="M18.0806 95.2601 A0.5000 0.5000 0.0 0 0 18.6929 94.9066" />
<path d="M22.0576 82.3495 A0.5000 0.5000 0.0 0 0 21.7040 81.7372" />
<path d="M5.1700 91.2831 A0.5000 0.5000 0.0 0 0 5.5235 91.8955" />
<path d="M9.1470 78.3725 A0.5000 0.5000 0.0 0 0 8.5346 78.7261" />
<path d="M226.2909 17.9442
L229.6556 30.5013
" />
<path d="M229.3020 31.1136
L216.7450 34.4783
" />
<path d="M225.6785 17.5907
L213.1215 20.9553
" />
<path d="M212.7679 21.5677
L216.1326 34.1247
" />
<path d="M229.3020 31.1136 A0.5000 0.5000 0.0 0 0 229.6556 30.5013" />
<path d="M226.2909 17.9442 A0.5000 0.5000 0.0 0 0 225.6785 17.5907" />
<path d="M216.1326 34.1247 A0.5000 0.5000 0.0 0 0 216.7450 34.4783" />
<path d="M213.1215 20.9553 A0.5000 0.5000 0.0 0 0 212.7679 21.5677" />
<path d="M127.9493 124.1390
L118.7569 133.3313
" />
<path d="M118.0498 133.3313
L108.8574 124.1390
" />
<path d="M127.9493 123.4318
L118.7569 114.2395
" />
<path d="M118.0498 114.2395
L108.8574 123.4318
" />
<path d="M118.0498 133.3313 A0.5000 0.5000 0.0 0 0 118.7569 133.3313" />
<path d="M127.9493 124.1390 A0.5000 0.5000 0.0 0 0 127.9493 123.4319" />
<path d="M108.8574 123.4319 A0.5000 0.5000 0.0 0 0 108.8574 124.1390" />
<path d="M118.7569 114.2395 A0.5000 0.5000 0.0 0 0 118.0498 114.2395" />
<path d="M302.4482 81.3565
L305.8129 93.9135
" />
<path d="M305.4593 94.5259
L292.9023 97.8905
" />
<path d="M301.8358 81.0029
L289.2788 84.3676
" />
<path d="M288.9253 84.9799
L292.2899 97.5370
" />
<path d="M305.4593 94.5259 A0.5000 0.5000 0.0 0 0 305.8129 93.9135" />
<path d="M302.4482 81.3565 A0.5000 0.5000 0.0 0 0 301.8358 81.0029" />
<path d="M292.2899 97.5370 A0.5000 0.5000 0.0 0 0 292.9023 97.8905" />
<path d="M289.2788 84.3676 A0.5000 0.5000 0.0 0 0 288.9253 84.9799" />
<path d="M120.0197 84.7677
L116.6550 97.3247
" />
<path d="M116.0427 97.6782
L103.4856 94.3136
" />
<path d="M119.6661 84.1553
L107.1091 80.7906
" />
<path d="M106.4967 81.1442
L103.1321 93.7012
" />
<path d="M116.0427 97.6782 A0.5000 0.5000 0.0 0 0 116.6550 97.3247" />
<path d="M120.0197 84.7677 A0.5000 0.5000 0.0 0 0 119.6661 84.1553" />
<path d="M103.1321 93.7012 A0.5000 0.5000 0.0 0 0 103.4856 94.3136" />
<path d="M107.1091 80.7906 A0.5000 0.5000 0.0 0 0 106.4967 81.1442" />
<path d="M223.5033 81.1442
L226.8679 93.7012
" />
<path d="M226.5144 94.3136
L213.9573 97.6782
" />
<path d="M222.8909 80.7906
L210.3339 84.1553
" />
<path d="M209.9803 84.7676
L213.3450 97.3247
" />
<path d="M226.5144 94.3136 A0.5000 0.5000 0.0 0 0 226.8679 93.7012" />
<path d="M223.5033 81.1442 A0.5000 0.5000 0.0 0 0 222.8909 80.7906" />
<path d="M213.3450 97.3247 A0.5000 0.5000 0.0 0 0 213.9573 97.6782" />
<path d="M210.3339 84.1553 A0.5000 0.5000 0.0 0 0 209.9803 84.7676" />
<path d="M236.1519 54.7460
L239.5166 67.3030
" />
<path d="M239.1630 67.9154
L226.6060 71.2800
" />
<path d="M235.5396 54.3924
L222.9825 57.7571
" />
<path d="M222.6290 58.3695
L225.9936 70.9265
" />
<path d="M239.1630 67.9154 A0.5000 0.5000 0.0 0 0 239.5166 67.3030" />
<path d="M236.1519 54.7460 A0.5000 0.5000 0.0 0 0 235.5396 54.3924" />
<path d="M225.9936 70.9265 A0.5000 0.5000 0.0 0 0 226.6060 71.2800" />
<path d="M222.9825 57.7571 A0.5000 0.5000 0.0 0 0 222.6290 58.3694" />
<path d="M231.2214 36.3451
L234.5861 48.9021
" />
<path d="M234.2325 49.5145
L221.6755 52.8792
" />
<path d="M230.6091 35.9915
L218.0520 39.3562
" />
<path d="M217.6985 39.9686
L221.0631 52.5256
" />
<path d="M234.2325 49.5145 A0.5000 0.5000 0.0 0 0 234.5861 48.9021" />
<path d="M231.2214 36.3451 A0.5000 0.5000 0.0 0 0 230.6091 35.9915" />
<path d="M221.0631 52.5256 A0.5000 0.5000 0.0 0 0 221.6755 52.8792" />
<path d="M218.0520 39.3562 A0.5000 0.5000 0.0 0 0 217.6985 39.9686" />
<path d="M75.4998 30.1075
L72.1351 42.6646
" />
<path d="M71.5228 43.0181
L58.9657 39.6535
" />
<path d="M75.1462 29.4952
L62.5892 26.1305
" />
<path d="M61.9768 26.4841
L58.6122 39.0411
" />
<path d="M71.5228 43.0181 A0.5000 0.5000 0.0 0 0 72.1351 42.6646" />
<path d="M75.4998 30.1075 A0.5000 0.5000 0.0 0 0 75.1462 29.4952" />
<path d="M58.6122 39.0411 A0.5000 0.5000 0.0 0 0 58.9657 39.6535" />
<path d="M62.5892 26.1305 A0.5000 0.5000 0.0 0 0 61.9768 26.4841" />
<path d="M46.0053 66.5790
L42.6406 79.1361
" />
<path d="M42.0282 79.4896
L29.4712 76.1250
" />
<path d="M45.6517 65.9667
L33.0947 62.6020
" />
<path d="M32.4823 62.9556
L29.1176 75.5126
" />
<path d="M42.0282 79.4896 A0.5000 0.5000 0.0 0 0 42.6406 79.1361" />
<path d="M46.0053 66.5790 A0.5000 0.5000 0.0 0 0 45.6517 65.9667" />
<path d="M29.1176 75.5126 A0.5000 0.5000 0.0 0 0 29.4712 76.1250" />
<path d="M33.0947 62.6020 A0.5000 0.5000 0.0 0 0 32.4823 62.9556" />
<path d="M70.5693 48.5084
L67.2046 61.0655
" />
<path d="M66.5923 61.4190
L54.0352 58.0544
" />
<path d="M70.2157 47.8960
L57.6587 44.5314
" />
<path d="M57.0463 44.8849
L53.6817 57.4420
" />
<path d="M66.5923 61.4190 A0.5000 0.5000 0.0 0 0 67.2046 61.0655" />
<path d="M70.5693 48.5084 A0.5000 0.5000 0.0 0 0 70.2157 47.8960" />
<path d="M53.6817 57.4420 A0.5000 0.5000 0.0 0 0 54.0352 58.0544" />
<path d="M57.6587 44.5314 A0.5000 0.5000 0.0 0 0 57.0463 44.8850" />
<path d="M65.6388 66.9093
L62.2741 79.4664
" />
<path d="M61.6618 79.8199
L49.1047 76.4553
" />
<path d="M65.2852 66.2969
L52.7282 62.9323
" />
<path d="M52.1158 63.2859
L48.7512 75.8429
" />
<path d="M61.6618 79.8199 A0.5000 0.5000 0.0 0 0 62.2741 79.4664" />
<path d="M65.6388 66.9093 A0.5000 0.5000 0.0 0 0 65.2852 66.2969" />
<path d="M48.7512 75.8429 A0.5000 0.5000 0.0 0 0 49.1047 76.4553" />
<path d="M52.7282 62.9323 A0.5000 0.5000 0.0 0 0 52.1158 63.2859" />
<path d="M26.9881 63.9487
L23.6234 76.5057
" />
<path d="M23.0111 76.8592
L10.4540 73.4946
" />
<path d="M26.6345 63.3363
L14.0775 59.9716
" />
<path d="M13.4651 60.3252
L10.1005 72.8822
" />
<path d="M23.0111 76.8592 A0.5000 0.5000 0.0 0 0 23.6234 76.5057" />
<path d="M26.9881 63.9487 A0.5000 0.5000 0.0 0 0 26.6345 63.3363" />
<path d="M10.1005 72.8822 A0.5000 0.5000 0.0 0 0 10.4540 73.4946" />
<path d="M14.0775 59.9716 A0.5000 0.5000 0.0 0 0 13.4651 60.3252" />
<g >
</g>
<g >
</g>
<g >
</g>
<g >
</g>
<g >
</g>
<g >
</g>
<g >
</g>
<g >
</g>
<g >
</g>
<g >
</g>
<g >
</g>
<g >
</g>
<g >
</g>
<g >
</g>
<g >
</g>
<g >
</g>
<g >
</g>
<g >
</g>
<g >
</g>
<g >
</g>
<g >
</g>
<g >
</g>
<g >
</g>
<g >
</g>
<g >
</g>
<g >
</g>
<g >
</g>
<g >
</g>
<g >
</g>
<g >
</g>
<g >
</g>
<g >
</g>
<g >
</g>
<g >
</g>
<g >
</g>
<g >
</g>
<g >
</g>
<g >
</g>
<g >
</g>
<g >
</g>
<g >
</g>
<g >
</g>
<g >
</g>
<g >
</g>
<g >
</g>
<g >
</g>
<g >
</g>
<g >
</g>
<g >
</g>
<g >
</g>
<g >
</g>
<g >
</g>
<g >
</g>
<g >
</g>
<g >
</g>
<g >
</g>
<g >
</g>
<g >
</g>
<g >
</g>
<g >
</g>
<g >
</g>
<g >
</g>
<g >
</g>
<g >
</g>
<g >
</g>
<g >
</g>
<g >
</g>
<g >
</g>
<g >
</g>
<g >
</g>
<g >
</g>
<g >
</g>
<g >
</g>
<g >
</g>
</g> 
</svg>
