<?xml version="1.0" standalone="no"?>
 <!DOCTYPE svg PUBLIC "-//W3C//DTD SVG 1.1//EN" 
 "http://www.w3.org/Graphics/SVG/1.1/DTD/svg11.dtd"> 
<svg
  xmlns:svg="http://www.w3.org/2000/svg"
  xmlns="http://www.w3.org/2000/svg"
  xmlns:xlink="http://www.w3.org/1999/xlink"
  version="1.1"
  width="329.9968mm" height="154.9908mm" viewBox="0.0000 0.0000 329.9968 154.9908">
<title>SVG Image created as Plate-User_Comments.svg date 2023/04/19 01:17:46 </title>
  <desc>Image generated by PCBNEW </desc>
<g style="fill:#000000; fill-opacity:1.0000;stroke:#000000; stroke-opacity:1.0000;
stroke-linecap:round; stroke-linejoin:round;"
 transform="translate(0 0) scale(1 1)">
</g>
<g style="fill:#000000; fill-opacity:0.0; 
stroke:#000000; stroke-width:0.0000; stroke-opacity:1; 
stroke-linecap:round; stroke-linejoin:round;">
</g>
<g style="fill:#5994DC; fill-opacity:0.0; 
stroke:#5994DC; stroke-width:0.0000; stroke-opacity:1; 
stroke-linecap:round; stroke-linejoin:round;">
</g>
<g style="fill:#5994DC; fill-opacity:0.0; 
stroke:#5994DC; stroke-width:0.1500; stroke-opacity:1; 
stroke-linecap:round; stroke-linejoin:round;">
<circle cx="124.7500" cy="137.5000" r="2.9000" /> 
<circle cx="130.6000" cy="4.5572" r="2.9000" /> 
<circle cx="199.4000" cy="4.5572" r="2.9000" /> 
<circle cx="43.5176" cy="99.6254" r="2.9000" /> 
<circle cx="286.4824" cy="99.6254" r="2.9000" /> 
<circle cx="205.0000" cy="137.5000" r="2.9000" /> 
<g >
</g>
<g >
</g>
<g >
</g>
<g >
</g>
<g >
</g>
<g >
</g>
<g >
</g>
<g >
</g>
<g >
</g>
<g >
</g>
<g >
</g>
<g >
</g>
<g >
</g>
<g >
</g>
<g >
</g>
<g >
</g>
<g >
</g>
<g >
</g>
<g >
</g>
<g >
</g>
<g >
</g>
<g >
</g>
<g >
</g>
<g >
</g>
<g >
</g>
<g >
</g>
<g >
</g>
<g >
</g>
<g >
</g>
<g >
</g>
<g >
</g>
<g >
</g>
<g >
</g>
<g >
</g>
<g >
</g>
<g >
</g>
<g >
</g>
<g >
</g>
<g >
</g>
<g >
</g>
<g >
</g>
<g >
</g>
<g >
</g>
<g >
</g>
<g >
</g>
<g >
</g>
<g >
</g>
<g >
</g>
<g >
</g>
<g >
</g>
<g >
</g>
<g >
</g>
<g >
</g>
<g >
</g>
<g >
</g>
<g >
</g>
<g >
</g>
<g >
</g>
<g >
</g>
<g >
</g>
<g >
</g>
<g >
</g>
<g >
</g>
<g >
</g>
<g >
</g>
<g >
</g>
<g >
</g>
<g >
</g>
<g >
</g>
<g >
</g>
<g >
</g>
<g >
</g>
<g >
</g>
</g>
<g style="fill:#000000; fill-opacity:0.0; 
stroke:#000000; stroke-width:0.1500; stroke-opacity:1; 
stroke-linecap:round; stroke-linejoin:round;">
</g>
<g style="fill:#D0D2CD; fill-opacity:0.0; 
stroke:#D0D2CD; stroke-width:0.1500; stroke-opacity:1; 
stroke-linecap:round; stroke-linejoin:round;">
</g>
<g style="fill:#D0D2CD; fill-opacity:0.0; 
stroke:#D0D2CD; stroke-width:0.1000; stroke-opacity:1; 
stroke-linecap:round; stroke-linejoin:round;">
<path d="M75.6156 112.5351
L3.8799 93.3316
" />
<path d="M2.4657 90.8821 A2.0001 2.0001 0.0 0 0 3.8799 93.3316" />
<path d="M187.2500 38.5000
L142.7500 38.5000
" />
<path d="M189.2500 36.5000
L189.2500 2.5572
" />
<path d="M28.2000 0.5572 A1.9999 1.9999 0.0 0 0 26.2677 2.0412" />
<path d="M191.2500 0.5572 A2.0000 2.0000 0.0 0 0 189.2500 2.5572" />
<path d="M26.2677 2.0412
L2.4657 90.8821
" />
<path d="M301.8000 0.5572
L191.2500 0.5572
" />
<path d="M140.7500 2.5572
L140.7500 36.5000
" />
<path d="M303.7323 2.0412 A1.9999 1.9999 0.0 0 0 301.8000 0.5572" />
<path d="M326.1201 93.3316
L254.3844 112.5351
" />
<path d="M187.2500 38.5000 A2.0000 2.0000 0.0 0 0 189.2500 36.5000" />
<path d="M131.0863 150.8478 A1.7324 1.7324 0.0 0 0 132.5132 151.5981" />
<path d="M327.5343 90.8821
L303.7323 2.0413
" />
<circle cx="165.0000" cy="80.0000" r="31.0000" /> 
<path d="M326.1201 93.3317 A2.0000 2.0000 0.0 0 0 327.5343 90.8821" />
<path d="M138.7500 0.5572
L28.2000 0.5572
" />
<path d="M140.7500 2.5572 A2.0000 2.0000 0.0 0 0 138.7500 0.5572" />
<path d="M197.4867 151.5981 A1.7319 1.7319 0.0 0 0 198.9137 150.8478" />
<path d="M140.7500 36.5000 A2.0000 2.0000 0.0 0 0 142.7500 38.5000" />
<path d="M132.5132 151.5981
L197.4867 151.5981
" />
<path d="M254.3844 112.5351 A105.3115 105.3115 0.0 0 0 198.9137 150.8478" />
<path d="M131.0863 150.8478 A105.3118 105.3118 0.0 0 0 75.6156 112.5351" />
<path d="M180.3130 136.5500
L180.3130 149.5500
" />
<path d="M179.8130 150.0500
L174.0630 150.0500
" />
<path d="M174.0630 136.0500
L179.8130 136.0500
" />
<path d="M173.5630 149.5500
L173.5630 136.5500
" />
<path d="M172.0000 148.5500
L172.0000 135.5500
" />
<path d="M171.5000 135.0500
L158.5000 135.0500
" />
<path d="M158.5000 149.0500
L171.5000 149.0500
" />
<path d="M158.0000 135.5500
L158.0000 148.5500
" />
<path d="M156.4370 136.5500
L156.4370 149.5500
" />
<path d="M155.9370 150.0500
L150.1870 150.0500
" />
<path d="M150.1870 136.0500
L155.9370 136.0500
" />
<path d="M149.6870 149.5500
L149.6870 136.5500
" />
<path d="M180.3130 136.5500 A0.5000 0.5000 0.0 0 0 179.8130 136.0500" />
<path d="M179.8130 150.0500 A0.4999 0.4999 0.0 0 0 180.3130 149.5500" />
<path d="M174.0630 136.0500 A0.5000 0.5000 0.0 0 0 173.5630 136.5500" />
<path d="M173.5630 149.5500 A0.5000 0.5000 0.0 0 0 174.0630 150.0500" />
<path d="M172.0000 135.5500 A0.5000 0.5000 0.0 0 0 171.5000 135.0500" />
<path d="M171.5000 149.0500 A0.5000 0.5000 0.0 0 0 172.0000 148.5500" />
<path d="M158.5000 135.0500 A0.5000 0.5000 0.0 0 0 158.0000 135.5500" />
<path d="M158.0000 148.5500 A0.4998 0.4998 0.0 0 0 158.5000 149.0500" />
<path d="M156.4370 136.5500 A0.5000 0.5000 0.0 0 0 155.9370 136.0500" />
<path d="M155.9370 150.0500 A0.4999 0.4999 0.0 0 0 156.4370 149.5500" />
<path d="M150.1870 136.0500 A0.5000 0.5000 0.0 0 0 149.6870 136.5500" />
<path d="M149.6870 149.5500 A0.5000 0.5000 0.0 0 0 150.1870 150.0500" />
<path d="M218.5728 62.0058
L221.9374 74.5628
" />
<path d="M221.5839 75.1752
L209.0268 78.5398
" />
<path d="M217.9604 61.6522
L205.4034 65.0169
" />
<path d="M205.0498 65.6293
L208.4145 78.1863
" />
<path d="M221.5839 75.1752 A0.5000 0.5000 0.0 0 0 221.9374 74.5628" />
<path d="M218.5728 62.0058 A0.5000 0.5000 0.0 0 0 217.9604 61.6522" />
<path d="M208.4145 78.1863 A0.5000 0.5000 0.0 0 0 209.0268 78.5398" />
<path d="M205.4034 65.0169 A0.5000 0.5000 0.0 0 0 205.0498 65.6293" />
<path d="M268.0232 25.7466
L271.3878 38.3036
" />
<path d="M271.0343 38.9160
L258.4773 42.2806
" />
<path d="M267.4108 25.3930
L254.8538 28.7577
" />
<path d="M254.5002 29.3701
L257.8649 41.9271
" />
<path d="M271.0343 38.9160 A0.5000 0.5000 0.0 0 0 271.3878 38.3036" />
<path d="M268.0232 25.7466 A0.5000 0.5000 0.0 0 0 267.4108 25.3930" />
<path d="M257.8649 41.9271 A0.5000 0.5000 0.0 0 0 258.4773 42.2806" />
<path d="M254.8538 28.7577 A0.5000 0.5000 0.0 0 0 254.5002 29.3701" />
<path d="M213.6423 43.6049
L217.0069 56.1619
" />
<path d="M216.6534 56.7743
L204.0963 60.1390
" />
<path d="M213.0299 43.2514
L200.4729 46.6160
" />
<path d="M200.1193 47.2284
L203.4840 59.7854
" />
<path d="M216.6534 56.7743 A0.5000 0.5000 0.0 0 0 217.0069 56.1619" />
<path d="M213.6423 43.6049 A0.5000 0.5000 0.0 0 0 213.0299 43.2514" />
<path d="M203.4840 59.7854 A0.5000 0.5000 0.0 0 0 204.0963 60.1390" />
<path d="M200.4729 46.6160 A0.5000 0.5000 0.0 0 0 200.1193 47.2284" />
<path d="M282.7262 7.0154
L286.0908 19.5725
" />
<path d="M285.7373 20.1848
L273.1803 23.5495
" />
<path d="M282.1138 6.6619
L269.5568 10.0265
" />
<path d="M269.2032 10.6389
L272.5679 23.1959
" />
<path d="M285.7373 20.1848 A0.5000 0.5000 0.0 0 0 286.0908 19.5725" />
<path d="M282.7262 7.0154 A0.5000 0.5000 0.0 0 0 282.1138 6.6619" />
<path d="M272.5679 23.1959 A0.5000 0.5000 0.0 0 0 273.1803 23.5495" />
<path d="M269.5568 10.0265 A0.5000 0.5000 0.0 0 0 269.2032 10.6389" />
<path d="M321.4654 77.9886
L324.8300 90.5456
" />
<path d="M324.4765 91.1580
L311.9195 94.5226
" />
<path d="M320.8530 77.6350
L308.2960 80.9997
" />
<path d="M307.9424 81.6120
L311.3071 94.1691
" />
<path d="M324.4765 91.1580 A0.5000 0.5000 0.0 0 0 324.8300 90.5456" />
<path d="M321.4654 77.9886 A0.5000 0.5000 0.0 0 0 320.8530 77.6350" />
<path d="M311.3071 94.1691 A0.5000 0.5000 0.0 0 0 311.9195 94.5226" />
<path d="M308.2960 80.9997 A0.5000 0.5000 0.0 0 0 307.9424 81.6120" />
<path d="M208.7118 25.2040
L212.0764 37.7611
" />
<path d="M211.7229 38.3734
L199.1658 41.7381
" />
<path d="M208.0994 24.8505
L195.5424 28.2151
" />
<path d="M195.1888 28.8275
L198.5535 41.3845
" />
<path d="M211.7229 38.3734 A0.5000 0.5000 0.0 0 0 212.0764 37.7611" />
<path d="M208.7118 25.2040 A0.5000 0.5000 0.0 0 0 208.0994 24.8505" />
<path d="M198.5535 41.3845 A0.5000 0.5000 0.0 0 0 199.1658 41.7381" />
<path d="M195.5424 28.2151 A0.5000 0.5000 0.0 0 0 195.1888 28.8275" />
<path d="M41.0748 84.2424
L37.7101 96.7995
" />
<path d="M37.0978 97.1530
L24.5407 93.7884
" />
<path d="M40.7212 83.6301
L28.1642 80.2654
" />
<path d="M27.5518 80.6190
L24.1872 93.1760
" />
<path d="M37.0978 97.1530 A0.5000 0.5000 0.0 0 0 37.7101 96.7995" />
<path d="M41.0748 84.2424 A0.5000 0.5000 0.0 0 0 40.7212 83.6301" />
<path d="M24.1872 93.1760 A0.5000 0.5000 0.0 0 0 24.5407 93.7884" />
<path d="M28.1642 80.2654 A0.5000 0.5000 0.0 0 0 27.5518 80.6190" />
<path d="M172.0000 116.5000
L172.0000 129.5000
" />
<path d="M171.5000 130.0000
L158.5000 130.0000
" />
<path d="M171.5000 116.0000
L158.5000 116.0000
" />
<path d="M158.0000 116.5000
L158.0000 129.5000
" />
<path d="M171.5000 130.0000 A0.5000 0.5000 0.0 0 0 172.0000 129.5000" />
<path d="M172.0000 116.5000 A0.5000 0.5000 0.0 0 0 171.5000 116.0000" />
<path d="M158.0000 129.5000 A0.5000 0.5000 0.0 0 0 158.5000 130.0000" />
<path d="M158.5000 116.0000 A0.5000 0.5000 0.0 0 0 158.0000 116.5000" />
<path d="M31.9186 44.8103
L28.5539 57.3673
" />
<path d="M27.9415 57.7208
L15.3845 54.3562
" />
<path d="M31.5650 44.1979
L19.0080 40.8332
" />
<path d="M18.3956 41.1868
L15.0310 53.7438
" />
<path d="M27.9415 57.7208 A0.5000 0.5000 0.0 0 0 28.5539 57.3673" />
<path d="M31.9186 44.8103 A0.5000 0.5000 0.0 0 0 31.5650 44.1979" />
<path d="M15.0310 53.7438 A0.5000 0.5000 0.0 0 0 15.3845 54.3562" />
<path d="M19.0080 40.8332 A0.5000 0.5000 0.0 0 0 18.3956 41.1868" />
<path d="M287.6567 25.4163
L291.0214 37.9733
" />
<path d="M290.6678 38.5857
L278.1108 41.9503
" />
<path d="M287.0443 25.0627
L274.4873 28.4274
" />
<path d="M274.1337 29.0398
L277.4984 41.5968
" />
<path d="M290.6678 38.5857 A0.5000 0.5000 0.0 0 0 291.0214 37.9733" />
<path d="M287.6567 25.4163 A0.5000 0.5000 0.0 0 0 287.0443 25.0627" />
<path d="M277.4984 41.5968 A0.5000 0.5000 0.0 0 0 278.1108 41.9503" />
<path d="M274.4873 28.4274 A0.5000 0.5000 0.0 0 0 274.1337 29.0398" />
<path d="M117.2321 20.8301
L113.8674 33.3872
" />
<path d="M113.2551 33.7407
L100.6980 30.3761
" />
<path d="M116.8785 20.2178
L104.3215 16.8531
" />
<path d="M103.7091 17.2067
L100.3445 29.7637
" />
<path d="M113.2551 33.7407 A0.5000 0.5000 0.0 0 0 113.8674 33.3872" />
<path d="M117.2321 20.8301 A0.5000 0.5000 0.0 0 0 116.8785 20.2178" />
<path d="M100.3445 29.7637 A0.5000 0.5000 0.0 0 0 100.6980 30.3761" />
<path d="M104.3215 16.8531 A0.5000 0.5000 0.0 0 0 103.7091 17.2067" />
<path d="M151.7758 114.8322
L145.2758 126.0906
" />
<path d="M144.5928 126.2736
L133.3344 119.7736
" />
<path d="M151.5928 114.1492
L140.3344 107.6492
" />
<path d="M139.6514 107.8322
L133.1514 119.0906
" />
<path d="M144.5928 126.2736 A0.5000 0.5000 0.0 0 0 145.2758 126.0906" />
<path d="M151.7758 114.8322 A0.5000 0.5000 0.0 0 0 151.5928 114.1492" />
<path d="M133.1514 119.0906 A0.5000 0.5000 0.0 0 0 133.3344 119.7736" />
<path d="M140.3344 107.6492 A0.5000 0.5000 0.0 0 0 139.6514 107.8322" />
<path d="M253.5256 45.2444
L256.8903 57.8015
" />
<path d="M256.5367 58.4138
L243.9797 61.7785
" />
<path d="M252.9132 44.8909
L240.3562 48.2555
" />
<path d="M240.0026 48.8679
L243.3673 61.4249
" />
<path d="M256.5367 58.4138 A0.5000 0.5000 0.0 0 0 256.8903 57.8015" />
<path d="M253.5256 45.2444 A0.5000 0.5000 0.0 0 0 252.9132 44.8909" />
<path d="M243.3673 61.4249 A0.5000 0.5000 0.0 0 0 243.9797 61.7785" />
<path d="M240.3562 48.2555 A0.5000 0.5000 0.0 0 0 240.0026 48.8679" />
<path d="M231.3656 100.9073
L237.8656 112.1657
" />
<path d="M237.6826 112.8487
L226.4243 119.3487
" />
<path d="M230.6826 100.7243
L219.4243 107.2243
" />
<path d="M219.2413 107.9073
L225.7413 119.1657
" />
<path d="M237.6826 112.8487 A0.5000 0.5000 0.0 0 0 237.8656 112.1657" />
<path d="M231.3656 100.9073 A0.5000 0.5000 0.0 0 0 230.6826 100.7243" />
<path d="M225.7413 119.1657 A0.5000 0.5000 0.0 0 0 226.4243 119.3487" />
<path d="M219.4243 107.2243 A0.5000 0.5000 0.0 0 0 219.2413 107.9073" />
<path d="M41.7796 8.0085
L38.4149 20.5655
" />
<path d="M37.8026 20.9191
L25.2455 17.5544
" />
<path d="M41.4260 7.3961
L28.8690 4.0314
" />
<path d="M28.2566 4.3850
L24.8920 16.9420
" />
<path d="M37.8026 20.9191 A0.5000 0.5000 0.0 0 0 38.4149 20.5655" />
<path d="M41.7796 8.0085 A0.5000 0.5000 0.0 0 0 41.4260 7.3961" />
<path d="M24.8920 16.9420 A0.5000 0.5000 0.0 0 0 25.2455 17.5544" />
<path d="M28.8690 4.0314 A0.5000 0.5000 0.0 0 0 28.2566 4.3850" />
<path d="M301.7434 4.3850
L305.1080 16.9421
" />
<path d="M304.7545 17.5544
L292.1975 20.9191
" />
<path d="M301.1310 4.0315
L288.5740 7.3961
" />
<path d="M288.2204 8.0085
L291.5851 20.5655
" />
<path d="M304.7545 17.5544 A0.5000 0.5000 0.0 0 0 305.1080 16.9421" />
<path d="M301.7434 4.3850 A0.5000 0.5000 0.0 0 0 301.1310 4.0315" />
<path d="M291.5851 20.5655 A0.5000 0.5000 0.0 0 0 292.1975 20.9191" />
<path d="M288.5740 7.3961 A0.5000 0.5000 0.0 0 0 288.2204 8.0085" />
<path d="M36.8491 26.4094
L33.4844 38.9664
" />
<path d="M32.8721 39.3200
L20.3150 35.9553
" />
<path d="M36.4955 25.7970
L23.9385 22.4323
" />
<path d="M23.3261 22.7859
L19.9615 35.3429
" />
<path d="M32.8721 39.3200 A0.5000 0.5000 0.0 0 0 33.4844 38.9664" />
<path d="M36.8491 26.4094 A0.5000 0.5000 0.0 0 0 36.4955 25.7970" />
<path d="M19.9615 35.3429 A0.5000 0.5000 0.0 0 0 20.3150 35.9553" />
<path d="M23.9385 22.4323 A0.5000 0.5000 0.0 0 0 23.3261 22.7859" />
<path d="M107.3711 57.6320
L104.0064 70.1890
" />
<path d="M103.3941 70.5425
L90.8370 67.1779
" />
<path d="M107.0175 57.0196
L94.4605 53.6549
" />
<path d="M93.8481 54.0085
L90.4835 66.5655
" />
<path d="M103.3941 70.5425 A0.5000 0.5000 0.0 0 0 104.0064 70.1890" />
<path d="M107.3711 57.6320 A0.5000 0.5000 0.0 0 0 107.0175 57.0196" />
<path d="M90.4835 66.5655 A0.5000 0.5000 0.0 0 0 90.8370 67.1779" />
<path d="M94.4605 53.6549 A0.5000 0.5000 0.0 0 0 93.8481 54.0085" />
<path d="M50.9358 47.4406
L47.5711 59.9977
" />
<path d="M46.9588 60.3512
L34.4017 56.9866
" />
<path d="M50.5822 46.8283
L38.0252 43.4636
" />
<path d="M37.4128 43.8172
L34.0482 56.3742
" />
<path d="M46.9588 60.3512 A0.5000 0.5000 0.0 0 0 47.5711 59.9977" />
<path d="M50.9358 47.4406 A0.5000 0.5000 0.0 0 0 50.5822 46.8283" />
<path d="M34.0482 56.3742 A0.5000 0.5000 0.0 0 0 34.4017 56.9866" />
<path d="M38.0252 43.4636 A0.5000 0.5000 0.0 0 0 37.4128 43.8172" />
<path d="M282.8147 80.9492
L286.1793 93.5063
" />
<path d="M285.8258 94.1187
L273.2688 97.4833
" />
<path d="M282.2023 80.5957
L269.6453 83.9603
" />
<path d="M269.2917 84.5727
L272.6564 97.1298
" />
<path d="M285.8258 94.1187 A0.5000 0.5000 0.0 0 0 286.1793 93.5063" />
<path d="M282.8147 80.9492 A0.5000 0.5000 0.0 0 0 282.2023 80.5957" />
<path d="M272.6564 97.1297 A0.5000 0.5000 0.0 0 0 273.2688 97.4833" />
<path d="M269.6453 83.9603 A0.5000 0.5000 0.0 0 0 269.2917 84.5727" />
<path d="M258.4561 63.6453
L261.8208 76.2024
" />
<path d="M261.4672 76.8147
L248.9102 80.1794
" />
<path d="M257.8438 63.2918
L245.2867 66.6564
" />
<path d="M244.9332 67.2688
L248.2978 79.8258
" />
<path d="M261.4672 76.8147 A0.5000 0.5000 0.0 0 0 261.8208 76.2024" />
<path d="M258.4561 63.6453 A0.5000 0.5000 0.0 0 0 257.8438 63.2918" />
<path d="M248.2978 79.8258 A0.5000 0.5000 0.0 0 0 248.9102 80.1794" />
<path d="M245.2867 66.6564 A0.5000 0.5000 0.0 0 0 244.9332 67.2688" />
<path d="M129.8807 47.2284
L126.5161 59.7854
" />
<path d="M125.9037 60.1390
L113.3466 56.7743
" />
<path d="M129.5271 46.6160
L116.9701 43.2513
" />
<path d="M116.3577 43.6049
L112.9931 56.1619
" />
<path d="M125.9037 60.1390 A0.5000 0.5000 0.0 0 0 126.5161 59.7854" />
<path d="M129.8807 47.2284 A0.5000 0.5000 0.0 0 0 129.5271 46.6160" />
<path d="M112.9931 56.1619 A0.5000 0.5000 0.0 0 0 113.3466 56.7743" />
<path d="M116.9701 43.2514 A0.5000 0.5000 0.0 0 0 116.3577 43.6049" />
<path d="M89.9973 48.8679
L86.6327 61.4249
" />
<path d="M86.0203 61.7785
L73.4633 58.4138
" />
<path d="M89.6438 48.2555
L77.0868 44.8909
" />
<path d="M76.4744 45.2444
L73.1097 57.8015
" />
<path d="M86.0203 61.7785 A0.5000 0.5000 0.0 0 0 86.6327 61.4249" />
<path d="M89.9973 48.8679 A0.5000 0.5000 0.0 0 0 89.6438 48.2555" />
<path d="M73.1097 57.8015 A0.5000 0.5000 0.0 0 0 73.4633 58.4138" />
<path d="M77.0868 44.8909 A0.5000 0.5000 0.0 0 0 76.4744 45.2444" />
<path d="M90.1438 97.3904
L86.7791 109.9475
" />
<path d="M86.1668 110.3010
L73.6097 106.9364
" />
<path d="M89.7902 96.7781
L77.2332 93.4134
" />
<path d="M76.6208 93.7670
L73.2562 106.3240
" />
<path d="M86.1668 110.3010 A0.5000 0.5000 0.0 0 0 86.7791 109.9475" />
<path d="M90.1438 97.3904 A0.5000 0.5000 0.0 0 0 89.7902 96.7781" />
<path d="M73.2562 106.3240 A0.5000 0.5000 0.0 0 0 73.6097 106.9364" />
<path d="M77.2332 93.4134 A0.5000 0.5000 0.0 0 0 76.6208 93.7670" />
<path d="M297.5177 62.2181
L300.8824 74.7751
" />
<path d="M300.5288 75.3875
L287.9718 78.7521
" />
<path d="M296.9053 61.8645
L284.3483 65.2292
" />
<path d="M283.9948 65.8415
L287.3594 78.3986
" />
<path d="M300.5288 75.3875 A0.5000 0.5000 0.0 0 0 300.8824 74.7751" />
<path d="M297.5177 62.2181 A0.5000 0.5000 0.0 0 0 296.9053 61.8645" />
<path d="M287.3594 78.3986 A0.5000 0.5000 0.0 0 0 287.9718 78.7521" />
<path d="M284.3483 65.2292 A0.5000 0.5000 0.0 0 0 283.9948 65.8415" />
<path d="M211.9502 113.5020
L221.1426 122.6943
" />
<path d="M221.1426 123.4015
L211.9502 132.5938
" />
<path d="M211.2431 113.5020
L202.0507 122.6943
" />
<path d="M202.0507 123.4015
L211.2431 132.5938
" />
<path d="M221.1426 123.4015 A0.5000 0.5000 0.0 0 0 221.1426 122.6943" />
<path d="M211.9502 113.5020 A0.5000 0.5000 0.0 0 0 211.2431 113.5020" />
<path d="M211.2431 132.5938 A0.5000 0.5000 0.0 0 0 211.9502 132.5938" />
<path d="M202.0507 122.6943 A0.5000 0.5000 0.0 0 0 202.0507 123.4015" />
<path d="M60.7083 84.5727
L57.3436 97.1297
" />
<path d="M56.7313 97.4833
L44.1742 94.1186
" />
<path d="M60.3547 83.9603
L47.7977 80.5957
" />
<path d="M47.1853 80.9492
L43.8207 93.5063
" />
<path d="M56.7313 97.4833 A0.5000 0.5000 0.0 0 0 57.3436 97.1297" />
<path d="M60.7083 84.5727 A0.5000 0.5000 0.0 0 0 60.3547 83.9603" />
<path d="M43.8207 93.5063 A0.5000 0.5000 0.0 0 0 44.1742 94.1186" />
<path d="M47.7977 80.5957 A0.5000 0.5000 0.0 0 0 47.1853 80.9492" />
<path d="M272.9537 44.1475
L276.3183 56.7045
" />
<path d="M275.9648 57.3169
L263.4078 60.6815
" />
<path d="M272.3413 43.7939
L259.7843 47.1586
" />
<path d="M259.4307 47.7709
L262.7954 60.3280
" />
<path d="M275.9648 57.3169 A0.5000 0.5000 0.0 0 0 276.3183 56.7045" />
<path d="M272.9537 44.1475 A0.5000 0.5000 0.0 0 0 272.3413 43.7939" />
<path d="M262.7954 60.3280 A0.5000 0.5000 0.0 0 0 263.4078 60.6815" />
<path d="M259.7843 47.1586 A0.5000 0.5000 0.0 0 0 259.4307 47.7709" />
<path d="M311.6044 41.1868
L314.9690 53.7438
" />
<path d="M314.6155 54.3562
L302.0585 57.7208
" />
<path d="M310.9920 40.8332
L298.4350 44.1979
" />
<path d="M298.0814 44.8102
L301.4461 57.3673
" />
<path d="M314.6155 54.3562 A0.5000 0.5000 0.0 0 0 314.9690 53.7438" />
<path d="M311.6044 41.1868 A0.5000 0.5000 0.0 0 0 310.9920 40.8332" />
<path d="M301.4461 57.3673 A0.5000 0.5000 0.0 0 0 302.0585 57.7208" />
<path d="M298.4350 44.1979 A0.5000 0.5000 0.0 0 0 298.0814 44.8102" />
<path d="M253.3792 93.7670
L256.7438 106.3240
" />
<path d="M256.3903 106.9364
L243.8332 110.3010
" />
<path d="M252.7668 93.4134
L240.2098 96.7780
" />
<path d="M239.8562 97.3904
L243.2209 109.9475
" />
<path d="M256.3903 106.9364 A0.5000 0.5000 0.0 0 0 256.7438 106.3240" />
<path d="M253.3792 93.7670 A0.5000 0.5000 0.0 0 0 252.7668 93.4134" />
<path d="M243.2209 109.9475 A0.5000 0.5000 0.0 0 0 243.8332 110.3010" />
<path d="M240.2098 96.7780 A0.5000 0.5000 0.0 0 0 239.8562 97.3904" />
<path d="M80.4303 10.9692
L77.0657 23.5262
" />
<path d="M76.4533 23.8798
L63.8962 20.5151
" />
<path d="M80.0767 10.3568
L67.5197 6.9922
" />
<path d="M66.9073 7.3457
L63.5427 19.9027
" />
<path d="M76.4533 23.8798 A0.5000 0.5000 0.0 0 0 77.0657 23.5262" />
<path d="M80.4303 10.9692 A0.5000 0.5000 0.0 0 0 80.0767 10.3568" />
<path d="M63.5427 19.9027 A0.5000 0.5000 0.0 0 0 63.8962 20.5151" />
<path d="M67.5197 6.9922 A0.5000 0.5000 0.0 0 0 66.9073 7.3457" />
<path d="M110.7588 107.9073
L104.2588 119.1657
" />
<path d="M103.5757 119.3487
L92.3174 112.8487
" />
<path d="M110.5757 107.2243
L99.3174 100.7243
" />
<path d="M98.6344 100.9073
L92.1344 112.1657
" />
<path d="M103.5757 119.3487 A0.5000 0.5000 0.0 0 0 104.2588 119.1657" />
<path d="M110.7588 107.9073 A0.5000 0.5000 0.0 0 0 110.5757 107.2243" />
<path d="M92.1344 112.1657 A0.5000 0.5000 0.0 0 0 92.3174 112.8487" />
<path d="M99.3174 100.7243 A0.5000 0.5000 0.0 0 0 98.6344 100.9074" />
<path d="M94.9279 30.4670
L91.5632 43.0241
" />
<path d="M90.9509 43.3776
L78.3938 40.0130
" />
<path d="M94.5743 29.8547
L82.0173 26.4900
" />
<path d="M81.4049 26.8436
L78.0403 39.4006
" />
<path d="M90.9509 43.3776 A0.5000 0.5000 0.0 0 0 91.5632 43.0241" />
<path d="M94.9279 30.4670 A0.5000 0.5000 0.0 0 0 94.5743 29.8547" />
<path d="M78.0403 39.4006 A0.5000 0.5000 0.0 0 0 78.3938 40.0130" />
<path d="M82.0173 26.4900 A0.5000 0.5000 0.0 0 0 81.4049 26.8436" />
<path d="M60.7968 10.6389
L57.4321 23.1959
" />
<path d="M56.8198 23.5495
L44.2627 20.1848
" />
<path d="M60.4432 10.0265
L47.8862 6.6618
" />
<path d="M47.2738 7.0154
L43.9092 19.5724
" />
<path d="M56.8198 23.5495 A0.5000 0.5000 0.0 0 0 57.4321 23.1959" />
<path d="M60.7968 10.6389 A0.5000 0.5000 0.0 0 0 60.4432 10.0265" />
<path d="M43.9092 19.5724 A0.5000 0.5000 0.0 0 0 44.2627 20.1848" />
<path d="M47.8862 6.6618 A0.5000 0.5000 0.0 0 0 47.2738 7.0154" />
<path d="M306.6739 22.7859
L310.0385 35.3429
" />
<path d="M309.6850 35.9553
L297.1279 39.3200
" />
<path d="M306.0615 22.4323
L293.5045 25.7970
" />
<path d="M293.1509 26.4094
L296.5156 38.9664
" />
<path d="M309.6850 35.9553 A0.5000 0.5000 0.0 0 0 310.0385 35.3429" />
<path d="M306.6739 22.7859 A0.5000 0.5000 0.0 0 0 306.0615 22.4323" />
<path d="M296.5156 38.9664 A0.5000 0.5000 0.0 0 0 297.1279 39.3200" />
<path d="M293.5045 25.7970 A0.5000 0.5000 0.0 0 0 293.1509 26.4094" />
<path d="M263.0927 7.3457
L266.4573 19.9027
" />
<path d="M266.1038 20.5151
L253.5467 23.8798
" />
<path d="M262.4803 6.9922
L249.9233 10.3568
" />
<path d="M249.5697 10.9692
L252.9344 23.5262
" />
<path d="M266.1038 20.5151 A0.5000 0.5000 0.0 0 0 266.4573 19.9027" />
<path d="M263.0927 7.3457 A0.5000 0.5000 0.0 0 0 262.4803 6.9922" />
<path d="M252.9344 23.5262 A0.5000 0.5000 0.0 0 0 253.5467 23.8798" />
<path d="M249.9233 10.3568 A0.5000 0.5000 0.0 0 0 249.5697 10.9692" />
<path d="M99.8584 12.0661
L96.4937 24.6232
" />
<path d="M95.8814 24.9767
L83.3243 21.6121
" />
<path d="M99.5048 11.4538
L86.9478 8.0891
" />
<path d="M86.3354 8.4427
L82.9708 20.9997
" />
<path d="M95.8814 24.9767 A0.5000 0.5000 0.0 0 0 96.4937 24.6232" />
<path d="M99.8584 12.0661 A0.5000 0.5000 0.0 0 0 99.5048 11.4538" />
<path d="M82.9708 20.9997 A0.5000 0.5000 0.0 0 0 83.3243 21.6121" />
<path d="M86.9478 8.0891 A0.5000 0.5000 0.0 0 0 86.3354 8.4427" />
<path d="M292.5872 43.8172
L295.9519 56.3742
" />
<path d="M295.5983 56.9866
L283.0413 60.3512
" />
<path d="M291.9748 43.4636
L279.4178 46.8283
" />
<path d="M279.0642 47.4406
L282.4289 59.9977
" />
<path d="M295.5983 56.9866 A0.5000 0.5000 0.0 0 0 295.9519 56.3742" />
<path d="M292.5872 43.8172 A0.5000 0.5000 0.0 0 0 291.9748 43.4636" />
<path d="M282.4289 59.9977 A0.5000 0.5000 0.0 0 0 283.0413 60.3512" />
<path d="M279.4178 46.8283 A0.5000 0.5000 0.0 0 0 279.0642 47.4406" />
<path d="M316.5349 59.5877
L319.8995 72.1447
" />
<path d="M319.5460 72.7571
L306.9890 76.1217
" />
<path d="M315.9225 59.2341
L303.3655 62.5988
" />
<path d="M303.0119 63.2111
L306.3766 75.7682
" />
<path d="M319.5460 72.7571 A0.5000 0.5000 0.0 0 0 319.8995 72.1447" />
<path d="M316.5349 59.5877 A0.5000 0.5000 0.0 0 0 315.9225 59.2341" />
<path d="M306.3766 75.7682 A0.5000 0.5000 0.0 0 0 306.9890 76.1217" />
<path d="M303.3655 62.5988 A0.5000 0.5000 0.0 0 0 303.0119 63.2111" />
<path d="M190.3486 107.8322
L196.8486 119.0906
" />
<path d="M196.6656 119.7736
L185.4072 126.2736
" />
<path d="M189.6656 107.6492
L178.4072 114.1492
" />
<path d="M178.2242 114.8322
L184.7242 126.0906
" />
<path d="M196.6656 119.7736 A0.5000 0.5000 0.0 0 0 196.8486 119.0906" />
<path d="M190.3486 107.8322 A0.5000 0.5000 0.0 0 0 189.6656 107.6492" />
<path d="M184.7242 126.0906 A0.5000 0.5000 0.0 0 0 185.4072 126.2736" />
<path d="M178.4072 114.1492 A0.5000 0.5000 0.0 0 0 178.2242 114.8322" />
<path d="M102.4406 76.0328
L99.0759 88.5898
" />
<path d="M98.4636 88.9434
L85.9065 85.5788
" />
<path d="M102.0870 75.4204
L89.5300 72.0558
" />
<path d="M88.9176 72.4093
L85.5530 84.9664
" />
<path d="M98.4636 88.9434 A0.5000 0.5000 0.0 0 0 99.0759 88.5898" />
<path d="M102.4406 76.0328 A0.5000 0.5000 0.0 0 0 102.0870 75.4204" />
<path d="M85.5530 84.9664 A0.5000 0.5000 0.0 0 0 85.9065 85.5788" />
<path d="M89.5300 72.0558 A0.5000 0.5000 0.0 0 0 88.9176 72.4093" />
<path d="M134.8112 28.8275
L131.4466 41.3845
" />
<path d="M130.8342 41.7381
L118.2771 38.3734
" />
<path d="M134.4576 28.2151
L121.9006 24.8505
" />
<path d="M121.2882 25.2040
L117.9236 37.7610
" />
<path d="M130.8342 41.7381 A0.5000 0.5000 0.0 0 0 131.4466 41.3845" />
<path d="M134.8112 28.8275 A0.5000 0.5000 0.0 0 0 134.4576 28.2151" />
<path d="M117.9236 37.7610 A0.5000 0.5000 0.0 0 0 118.2771 38.3734" />
<path d="M121.9006 24.8505 A0.5000 0.5000 0.0 0 0 121.2882 25.2040" />
<path d="M277.8842 62.5484
L281.2488 75.1054
" />
<path d="M280.8953 75.7178
L268.3383 79.0824
" />
<path d="M277.2718 62.1948
L264.7148 65.5595
" />
<path d="M264.3612 66.1718
L267.7259 78.7289
" />
<path d="M280.8953 75.7178 A0.5000 0.5000 0.0 0 0 281.2488 75.1054" />
<path d="M277.8842 62.5484 A0.5000 0.5000 0.0 0 0 277.2718 62.1948" />
<path d="M267.7259 78.7289 A0.5000 0.5000 0.0 0 0 268.3383 79.0824" />
<path d="M264.7148 65.5595 A0.5000 0.5000 0.0 0 0 264.3612 66.1718" />
<path d="M124.9502 65.6293
L121.5856 78.1863
" />
<path d="M120.9732 78.5398
L108.4161 75.1752
" />
<path d="M124.5966 65.0169
L112.0396 61.6522
" />
<path d="M111.4272 62.0058
L108.0626 74.5628
" />
<path d="M120.9732 78.5398 A0.5000 0.5000 0.0 0 0 121.5856 78.1863" />
<path d="M124.9502 65.6293 A0.5000 0.5000 0.0 0 0 124.5966 65.0169" />
<path d="M108.0626 74.5628 A0.5000 0.5000 0.0 0 0 108.4161 75.1752" />
<path d="M112.0396 61.6522 A0.5000 0.5000 0.0 0 0 111.4272 62.0058" />
<path d="M55.8663 29.0398
L52.5016 41.5968
" />
<path d="M51.8893 41.9503
L39.3322 38.5857
" />
<path d="M55.5127 28.4274
L42.9557 25.0627
" />
<path d="M42.3433 25.4163
L38.9787 37.9733
" />
<path d="M51.8893 41.9503 A0.5000 0.5000 0.0 0 0 52.5016 41.5968" />
<path d="M55.8663 29.0398 A0.5000 0.5000 0.0 0 0 55.5127 28.4274" />
<path d="M38.9787 37.9733 A0.5000 0.5000 0.0 0 0 39.3322 38.5857" />
<path d="M42.9557 25.0627 A0.5000 0.5000 0.0 0 0 42.3433 25.4163" />
<path d="M243.6646 8.4427
L247.0293 20.9997
" />
<path d="M246.6757 21.6121
L234.1187 24.9767
" />
<path d="M243.0522 8.0891
L230.4952 11.4538
" />
<path d="M230.1416 12.0661
L233.5063 24.6232
" />
<path d="M246.6757 21.6121 A0.5000 0.5000 0.0 0 0 247.0293 20.9997" />
<path d="M243.6646 8.4427 A0.5000 0.5000 0.0 0 0 243.0522 8.0891" />
<path d="M233.5063 24.6232 A0.5000 0.5000 0.0 0 0 234.1187 24.9767" />
<path d="M230.4952 11.4538 A0.5000 0.5000 0.0 0 0 230.1416 12.0661" />
<path d="M85.0669 67.2688
L81.7022 79.8258
" />
<path d="M81.0898 80.1794
L68.5328 76.8147
" />
<path d="M84.7133 66.6564
L72.1563 63.2918
" />
<path d="M71.5439 63.6453
L68.1793 76.2023
" />
<path d="M81.0898 80.1794 A0.5000 0.5000 0.0 0 0 81.7022 79.8258" />
<path d="M85.0669 67.2688 A0.5000 0.5000 0.0 0 0 84.7133 66.6564" />
<path d="M68.1793 76.2023 A0.5000 0.5000 0.0 0 0 68.5328 76.8147" />
<path d="M72.1563 63.2918 A0.5000 0.5000 0.0 0 0 71.5439 63.6453" />
<path d="M241.0824 72.4094
L244.4471 84.9664
" />
<path d="M244.0935 85.5788
L231.5365 88.9434
" />
<path d="M240.4701 72.0558
L227.9130 75.4205
" />
<path d="M227.5595 76.0328
L230.9241 88.5899
" />
<path d="M244.0935 85.5788 A0.5000 0.5000 0.0 0 0 244.4471 84.9664" />
<path d="M241.0824 72.4094 A0.5000 0.5000 0.0 0 0 240.4701 72.0558" />
<path d="M230.9241 88.5899 A0.5000 0.5000 0.0 0 0 231.5365 88.9434" />
<path d="M227.9130 75.4205 A0.5000 0.5000 0.0 0 0 227.5595 76.0328" />
<path d="M112.3016 39.2310
L108.9369 51.7881
" />
<path d="M108.3245 52.1416
L95.7675 48.7770
" />
<path d="M111.9480 38.6187
L99.3910 35.2540
" />
<path d="M98.7786 35.6076
L95.4140 48.1646
" />
<path d="M108.3245 52.1416 A0.5000 0.5000 0.0 0 0 108.9369 51.7881" />
<path d="M112.3016 39.2310 A0.5000 0.5000 0.0 0 0 111.9480 38.6187" />
<path d="M95.4140 48.1646 A0.5000 0.5000 0.0 0 0 95.7675 48.7770" />
<path d="M99.3910 35.2540 A0.5000 0.5000 0.0 0 0 98.7786 35.6076" />
<path d="M248.5951 26.8436
L251.9598 39.4006
" />
<path d="M251.6062 40.0130
L239.0492 43.3776
" />
<path d="M247.9827 26.4900
L235.4257 29.8546
" />
<path d="M235.0721 30.4670
L238.4368 43.0241
" />
<path d="M251.6062 40.0130 A0.5000 0.5000 0.0 0 0 251.9598 39.4006" />
<path d="M248.5951 26.8436 A0.5000 0.5000 0.0 0 0 247.9827 26.4900" />
<path d="M238.4368 43.0241 A0.5000 0.5000 0.0 0 0 239.0492 43.3776" />
<path d="M235.4257 29.8546 A0.5000 0.5000 0.0 0 0 235.0721 30.4670" />
<path d="M22.0576 81.6120
L18.6929 94.1691
" />
<path d="M18.0806 94.5226
L5.5235 91.1580
" />
<path d="M21.7040 80.9997
L9.1470 77.6350
" />
<path d="M8.5346 77.9886
L5.1700 90.5456
" />
<path d="M18.0806 94.5226 A0.5000 0.5000 0.0 0 0 18.6929 94.1691" />
<path d="M22.0576 81.6120 A0.5000 0.5000 0.0 0 0 21.7040 80.9997" />
<path d="M5.1700 90.5456 A0.5000 0.5000 0.0 0 0 5.5235 91.1580" />
<path d="M9.1470 77.6350 A0.5000 0.5000 0.0 0 0 8.5346 77.9886" />
<path d="M226.2909 17.2067
L229.6556 29.7638
" />
<path d="M229.3020 30.3761
L216.7450 33.7408
" />
<path d="M225.6785 16.8532
L213.1215 20.2178
" />
<path d="M212.7679 20.8302
L216.1326 33.3872
" />
<path d="M229.3020 30.3761 A0.5000 0.5000 0.0 0 0 229.6556 29.7638" />
<path d="M226.2909 17.2067 A0.5000 0.5000 0.0 0 0 225.6785 16.8532" />
<path d="M216.1326 33.3872 A0.5000 0.5000 0.0 0 0 216.7450 33.7408" />
<path d="M213.1215 20.2178 A0.5000 0.5000 0.0 0 0 212.7679 20.8302" />
<path d="M127.9493 123.4015
L118.7569 132.5938
" />
<path d="M118.0498 132.5938
L108.8574 123.4015
" />
<path d="M127.9493 122.6943
L118.7569 113.5020
" />
<path d="M118.0498 113.5020
L108.8574 122.6943
" />
<path d="M118.0498 132.5938 A0.5000 0.5000 0.0 0 0 118.7569 132.5938" />
<path d="M127.9493 123.4015 A0.5000 0.5000 0.0 0 0 127.9493 122.6943" />
<path d="M108.8574 122.6943 A0.5000 0.5000 0.0 0 0 108.8574 123.4015" />
<path d="M118.7569 113.5020 A0.5000 0.5000 0.0 0 0 118.0498 113.5020" />
<path d="M302.4482 80.6190
L305.8129 93.1760
" />
<path d="M305.4593 93.7884
L292.9023 97.1530
" />
<path d="M301.8358 80.2654
L289.2788 83.6301
" />
<path d="M288.9253 84.2424
L292.2899 96.7995
" />
<path d="M305.4593 93.7884 A0.5000 0.5000 0.0 0 0 305.8129 93.1760" />
<path d="M302.4482 80.6190 A0.5000 0.5000 0.0 0 0 301.8358 80.2654" />
<path d="M292.2899 96.7995 A0.5000 0.5000 0.0 0 0 292.9023 97.1530" />
<path d="M289.2788 83.6301 A0.5000 0.5000 0.0 0 0 288.9253 84.2424" />
<path d="M120.0197 84.0302
L116.6550 96.5872
" />
<path d="M116.0427 96.9407
L103.4856 93.5761
" />
<path d="M119.6661 83.4178
L107.1091 80.0531
" />
<path d="M106.4967 80.4067
L103.1321 92.9637
" />
<path d="M116.0427 96.9407 A0.5000 0.5000 0.0 0 0 116.6550 96.5872" />
<path d="M120.0197 84.0302 A0.5000 0.5000 0.0 0 0 119.6661 83.4178" />
<path d="M103.1321 92.9637 A0.5000 0.5000 0.0 0 0 103.4856 93.5761" />
<path d="M107.1091 80.0531 A0.5000 0.5000 0.0 0 0 106.4967 80.4067" />
<path d="M223.5033 80.4067
L226.8679 92.9637
" />
<path d="M226.5144 93.5761
L213.9573 96.9407
" />
<path d="M222.8909 80.0531
L210.3339 83.4178
" />
<path d="M209.9803 84.0301
L213.3450 96.5872
" />
<path d="M226.5144 93.5761 A0.5000 0.5000 0.0 0 0 226.8679 92.9637" />
<path d="M223.5033 80.4067 A0.5000 0.5000 0.0 0 0 222.8909 80.0531" />
<path d="M213.3450 96.5872 A0.5000 0.5000 0.0 0 0 213.9573 96.9407" />
<path d="M210.3339 83.4178 A0.5000 0.5000 0.0 0 0 209.9803 84.0301" />
<path d="M236.1519 54.0085
L239.5166 66.5655
" />
<path d="M239.1630 67.1779
L226.6060 70.5425
" />
<path d="M235.5396 53.6549
L222.9825 57.0196
" />
<path d="M222.6290 57.6319
L225.9936 70.1890
" />
<path d="M239.1630 67.1779 A0.5000 0.5000 0.0 0 0 239.5166 66.5655" />
<path d="M236.1519 54.0085 A0.5000 0.5000 0.0 0 0 235.5396 53.6549" />
<path d="M225.9936 70.1890 A0.5000 0.5000 0.0 0 0 226.6060 70.5425" />
<path d="M222.9825 57.0196 A0.5000 0.5000 0.0 0 0 222.6290 57.6319" />
<path d="M231.2214 35.6076
L234.5861 48.1646
" />
<path d="M234.2325 48.7770
L221.6755 52.1417
" />
<path d="M230.6091 35.2540
L218.0520 38.6187
" />
<path d="M217.6985 39.2311
L221.0631 51.7881
" />
<path d="M234.2325 48.7770 A0.5000 0.5000 0.0 0 0 234.5861 48.1646" />
<path d="M231.2214 35.6076 A0.5000 0.5000 0.0 0 0 230.6091 35.2540" />
<path d="M221.0631 51.7881 A0.5000 0.5000 0.0 0 0 221.6755 52.1417" />
<path d="M218.0520 38.6187 A0.5000 0.5000 0.0 0 0 217.6985 39.2311" />
<path d="M75.4998 29.3700
L72.1351 41.9271
" />
<path d="M71.5228 42.2806
L58.9657 38.9160
" />
<path d="M75.1462 28.7577
L62.5892 25.3930
" />
<path d="M61.9768 25.7466
L58.6122 38.3036
" />
<path d="M71.5228 42.2806 A0.5000 0.5000 0.0 0 0 72.1351 41.9271" />
<path d="M75.4998 29.3700 A0.5000 0.5000 0.0 0 0 75.1462 28.7577" />
<path d="M58.6122 38.3036 A0.5000 0.5000 0.0 0 0 58.9657 38.9160" />
<path d="M62.5892 25.3930 A0.5000 0.5000 0.0 0 0 61.9768 25.7466" />
<path d="M46.0053 65.8415
L42.6406 78.3986
" />
<path d="M42.0282 78.7521
L29.4712 75.3875
" />
<path d="M45.6517 65.2292
L33.0947 61.8645
" />
<path d="M32.4823 62.2181
L29.1176 74.7751
" />
<path d="M42.0282 78.7521 A0.5000 0.5000 0.0 0 0 42.6406 78.3986" />
<path d="M46.0053 65.8415 A0.5000 0.5000 0.0 0 0 45.6517 65.2292" />
<path d="M29.1176 74.7751 A0.5000 0.5000 0.0 0 0 29.4712 75.3875" />
<path d="M33.0947 61.8645 A0.5000 0.5000 0.0 0 0 32.4823 62.2181" />
<path d="M70.5693 47.7709
L67.2046 60.3280
" />
<path d="M66.5923 60.6815
L54.0352 57.3169
" />
<path d="M70.2157 47.1585
L57.6587 43.7939
" />
<path d="M57.0463 44.1474
L53.6817 56.7045
" />
<path d="M66.5923 60.6815 A0.5000 0.5000 0.0 0 0 67.2046 60.3280" />
<path d="M70.5693 47.7709 A0.5000 0.5000 0.0 0 0 70.2157 47.1585" />
<path d="M53.6817 56.7045 A0.5000 0.5000 0.0 0 0 54.0352 57.3169" />
<path d="M57.6587 43.7939 A0.5000 0.5000 0.0 0 0 57.0463 44.1474" />
<path d="M65.6388 66.1718
L62.2741 78.7289
" />
<path d="M61.6618 79.0824
L49.1047 75.7178
" />
<path d="M65.2852 65.5594
L52.7282 62.1948
" />
<path d="M52.1158 62.5484
L48.7512 75.1054
" />
<path d="M61.6618 79.0824 A0.5000 0.5000 0.0 0 0 62.2741 78.7289" />
<path d="M65.6388 66.1718 A0.5000 0.5000 0.0 0 0 65.2852 65.5594" />
<path d="M48.7512 75.1054 A0.5000 0.5000 0.0 0 0 49.1047 75.7178" />
<path d="M52.7282 62.1948 A0.5000 0.5000 0.0 0 0 52.1158 62.5484" />
<path d="M26.9881 63.2112
L23.6234 75.7682
" />
<path d="M23.0111 76.1217
L10.4540 72.7571
" />
<path d="M26.6345 62.5988
L14.0775 59.2341
" />
<path d="M13.4651 59.5877
L10.1005 72.1447
" />
<path d="M23.0111 76.1217 A0.5000 0.5000 0.0 0 0 23.6234 75.7682" />
<path d="M26.9881 63.2112 A0.5000 0.5000 0.0 0 0 26.6345 62.5988" />
<path d="M10.1005 72.1447 A0.5000 0.5000 0.0 0 0 10.4540 72.7571" />
<path d="M14.0775 59.2341 A0.5000 0.5000 0.0 0 0 13.4651 59.5877" />
<g >
</g>
<g >
</g>
<g >
</g>
<g >
</g>
<g >
</g>
<g >
</g>
<g >
</g>
<g >
</g>
<g >
</g>
<g >
</g>
<g >
</g>
<g >
</g>
<g >
</g>
<g >
</g>
<g >
</g>
<g >
</g>
<g >
</g>
<g >
</g>
<g >
</g>
<g >
</g>
<g >
</g>
<g >
</g>
<g >
</g>
<g >
</g>
<g >
</g>
<g >
</g>
<g >
</g>
<g >
</g>
<g >
</g>
<g >
</g>
<g >
</g>
<g >
</g>
<g >
</g>
<g >
</g>
<g >
</g>
<g >
</g>
<g >
</g>
<g >
</g>
<g >
</g>
<g >
</g>
<g >
</g>
<g >
</g>
<g >
</g>
<g >
</g>
<g >
</g>
<g >
</g>
<g >
</g>
<g >
</g>
<g >
</g>
<g >
</g>
<g >
</g>
<g >
</g>
<g >
</g>
<g >
</g>
<g >
</g>
<g >
</g>
<g >
</g>
<g >
</g>
<g >
</g>
<g >
</g>
<g >
</g>
<g >
</g>
<g >
</g>
<g >
</g>
<g >
</g>
<g >
</g>
<g >
</g>
<g >
</g>
<g >
</g>
<g >
</g>
<g >
</g>
<g >
</g>
<g >
</g>
</g> 
</svg>
